G04 #@! TF.GenerationSoftware,KiCad,Pcbnew,(5.0.0)*
G04 #@! TF.CreationDate,2018-12-18T22:35:00-06:00*
G04 #@! TF.ProjectId,ArmMotorController_Hardware,41726D4D6F746F72436F6E74726F6C6C,rev?*
G04 #@! TF.SameCoordinates,Original*
G04 #@! TF.FileFunction,Legend,Bot*
G04 #@! TF.FilePolarity,Positive*
%FSLAX46Y46*%
G04 Gerber Fmt 4.6, Leading zero omitted, Abs format (unit mm)*
G04 Created by KiCad (PCBNEW (5.0.0)) date 12/18/18 22:35:00*
%MOMM*%
%LPD*%
G01*
G04 APERTURE LIST*
%ADD10C,0.120000*%
%ADD11C,0.150000*%
G04 APERTURE END LIST*
D10*
G04 #@! TO.C,C5*
X104650000Y-66987267D02*
X104650000Y-66644733D01*
X103630000Y-66987267D02*
X103630000Y-66644733D01*
G04 #@! TO.C,C1*
X108714000Y-66987267D02*
X108714000Y-66644733D01*
X107694000Y-66987267D02*
X107694000Y-66644733D01*
G04 #@! TO.C,C6*
X101598000Y-66987267D02*
X101598000Y-66644733D01*
X102618000Y-66987267D02*
X102618000Y-66644733D01*
G04 #@! TO.C,C4*
X105662000Y-66987267D02*
X105662000Y-66644733D01*
X106682000Y-66987267D02*
X106682000Y-66644733D01*
G04 #@! TO.C,C10*
X142238000Y-110802267D02*
X142238000Y-110459733D01*
X143258000Y-110802267D02*
X143258000Y-110459733D01*
G04 #@! TO.C,C9*
X100586000Y-66987267D02*
X100586000Y-66644733D01*
X99566000Y-66987267D02*
X99566000Y-66644733D01*
G04 #@! TO.C,D18*
X55875000Y-86587000D02*
X53415000Y-86587000D01*
X55875000Y-85117000D02*
X55875000Y-86587000D01*
X53415000Y-85117000D02*
X55875000Y-85117000D01*
G04 #@! TO.C,R48*
X45464000Y-110915267D02*
X45464000Y-110572733D01*
X46484000Y-110915267D02*
X46484000Y-110572733D01*
G04 #@! TO.C,C5*
D11*
X104052666Y-69445142D02*
X104100285Y-69492761D01*
X104243142Y-69540380D01*
X104338380Y-69540380D01*
X104481238Y-69492761D01*
X104576476Y-69397523D01*
X104624095Y-69302285D01*
X104671714Y-69111809D01*
X104671714Y-68968952D01*
X104624095Y-68778476D01*
X104576476Y-68683238D01*
X104481238Y-68588000D01*
X104338380Y-68540380D01*
X104243142Y-68540380D01*
X104100285Y-68588000D01*
X104052666Y-68635619D01*
X103147904Y-68540380D02*
X103624095Y-68540380D01*
X103671714Y-69016571D01*
X103624095Y-68968952D01*
X103528857Y-68921333D01*
X103290761Y-68921333D01*
X103195523Y-68968952D01*
X103147904Y-69016571D01*
X103100285Y-69111809D01*
X103100285Y-69349904D01*
X103147904Y-69445142D01*
X103195523Y-69492761D01*
X103290761Y-69540380D01*
X103528857Y-69540380D01*
X103624095Y-69492761D01*
X103671714Y-69445142D01*
G04 #@! TO.C,C1*
X107989666Y-69445142D02*
X108037285Y-69492761D01*
X108180142Y-69540380D01*
X108275380Y-69540380D01*
X108418238Y-69492761D01*
X108513476Y-69397523D01*
X108561095Y-69302285D01*
X108608714Y-69111809D01*
X108608714Y-68968952D01*
X108561095Y-68778476D01*
X108513476Y-68683238D01*
X108418238Y-68588000D01*
X108275380Y-68540380D01*
X108180142Y-68540380D01*
X108037285Y-68588000D01*
X107989666Y-68635619D01*
X107037285Y-69540380D02*
X107608714Y-69540380D01*
X107323000Y-69540380D02*
X107323000Y-68540380D01*
X107418238Y-68683238D01*
X107513476Y-68778476D01*
X107608714Y-68826095D01*
G04 #@! TO.C,C6*
X101893666Y-69445142D02*
X101941285Y-69492761D01*
X102084142Y-69540380D01*
X102179380Y-69540380D01*
X102322238Y-69492761D01*
X102417476Y-69397523D01*
X102465095Y-69302285D01*
X102512714Y-69111809D01*
X102512714Y-68968952D01*
X102465095Y-68778476D01*
X102417476Y-68683238D01*
X102322238Y-68588000D01*
X102179380Y-68540380D01*
X102084142Y-68540380D01*
X101941285Y-68588000D01*
X101893666Y-68635619D01*
X101036523Y-68540380D02*
X101227000Y-68540380D01*
X101322238Y-68588000D01*
X101369857Y-68635619D01*
X101465095Y-68778476D01*
X101512714Y-68968952D01*
X101512714Y-69349904D01*
X101465095Y-69445142D01*
X101417476Y-69492761D01*
X101322238Y-69540380D01*
X101131761Y-69540380D01*
X101036523Y-69492761D01*
X100988904Y-69445142D01*
X100941285Y-69349904D01*
X100941285Y-69111809D01*
X100988904Y-69016571D01*
X101036523Y-68968952D01*
X101131761Y-68921333D01*
X101322238Y-68921333D01*
X101417476Y-68968952D01*
X101465095Y-69016571D01*
X101512714Y-69111809D01*
G04 #@! TO.C,C4*
X105830666Y-69445142D02*
X105878285Y-69492761D01*
X106021142Y-69540380D01*
X106116380Y-69540380D01*
X106259238Y-69492761D01*
X106354476Y-69397523D01*
X106402095Y-69302285D01*
X106449714Y-69111809D01*
X106449714Y-68968952D01*
X106402095Y-68778476D01*
X106354476Y-68683238D01*
X106259238Y-68588000D01*
X106116380Y-68540380D01*
X106021142Y-68540380D01*
X105878285Y-68588000D01*
X105830666Y-68635619D01*
X104973523Y-68873714D02*
X104973523Y-69540380D01*
X105211619Y-68492761D02*
X105449714Y-69207047D01*
X104830666Y-69207047D01*
G04 #@! TO.C,C10*
X143390857Y-108307142D02*
X143438476Y-108354761D01*
X143581333Y-108402380D01*
X143676571Y-108402380D01*
X143819428Y-108354761D01*
X143914666Y-108259523D01*
X143962285Y-108164285D01*
X144009904Y-107973809D01*
X144009904Y-107830952D01*
X143962285Y-107640476D01*
X143914666Y-107545238D01*
X143819428Y-107450000D01*
X143676571Y-107402380D01*
X143581333Y-107402380D01*
X143438476Y-107450000D01*
X143390857Y-107497619D01*
X142438476Y-108402380D02*
X143009904Y-108402380D01*
X142724190Y-108402380D02*
X142724190Y-107402380D01*
X142819428Y-107545238D01*
X142914666Y-107640476D01*
X143009904Y-107688095D01*
X141819428Y-107402380D02*
X141724190Y-107402380D01*
X141628952Y-107450000D01*
X141581333Y-107497619D01*
X141533714Y-107592857D01*
X141486095Y-107783333D01*
X141486095Y-108021428D01*
X141533714Y-108211904D01*
X141581333Y-108307142D01*
X141628952Y-108354761D01*
X141724190Y-108402380D01*
X141819428Y-108402380D01*
X141914666Y-108354761D01*
X141962285Y-108307142D01*
X142009904Y-108211904D01*
X142057523Y-108021428D01*
X142057523Y-107783333D01*
X142009904Y-107592857D01*
X141962285Y-107497619D01*
X141914666Y-107450000D01*
X141819428Y-107402380D01*
G04 #@! TO.C,C9*
X99734666Y-69445142D02*
X99782285Y-69492761D01*
X99925142Y-69540380D01*
X100020380Y-69540380D01*
X100163238Y-69492761D01*
X100258476Y-69397523D01*
X100306095Y-69302285D01*
X100353714Y-69111809D01*
X100353714Y-68968952D01*
X100306095Y-68778476D01*
X100258476Y-68683238D01*
X100163238Y-68588000D01*
X100020380Y-68540380D01*
X99925142Y-68540380D01*
X99782285Y-68588000D01*
X99734666Y-68635619D01*
X99258476Y-69540380D02*
X99068000Y-69540380D01*
X98972761Y-69492761D01*
X98925142Y-69445142D01*
X98829904Y-69302285D01*
X98782285Y-69111809D01*
X98782285Y-68730857D01*
X98829904Y-68635619D01*
X98877523Y-68588000D01*
X98972761Y-68540380D01*
X99163238Y-68540380D01*
X99258476Y-68588000D01*
X99306095Y-68635619D01*
X99353714Y-68730857D01*
X99353714Y-68968952D01*
X99306095Y-69064190D01*
X99258476Y-69111809D01*
X99163238Y-69159428D01*
X98972761Y-69159428D01*
X98877523Y-69111809D01*
X98829904Y-69064190D01*
X98782285Y-68968952D01*
G04 #@! TO.C,D18*
X55429285Y-84874380D02*
X55429285Y-83874380D01*
X55191190Y-83874380D01*
X55048333Y-83922000D01*
X54953095Y-84017238D01*
X54905476Y-84112476D01*
X54857857Y-84302952D01*
X54857857Y-84445809D01*
X54905476Y-84636285D01*
X54953095Y-84731523D01*
X55048333Y-84826761D01*
X55191190Y-84874380D01*
X55429285Y-84874380D01*
X53905476Y-84874380D02*
X54476904Y-84874380D01*
X54191190Y-84874380D02*
X54191190Y-83874380D01*
X54286428Y-84017238D01*
X54381666Y-84112476D01*
X54476904Y-84160095D01*
X53334047Y-84302952D02*
X53429285Y-84255333D01*
X53476904Y-84207714D01*
X53524523Y-84112476D01*
X53524523Y-84064857D01*
X53476904Y-83969619D01*
X53429285Y-83922000D01*
X53334047Y-83874380D01*
X53143571Y-83874380D01*
X53048333Y-83922000D01*
X53000714Y-83969619D01*
X52953095Y-84064857D01*
X52953095Y-84112476D01*
X53000714Y-84207714D01*
X53048333Y-84255333D01*
X53143571Y-84302952D01*
X53334047Y-84302952D01*
X53429285Y-84350571D01*
X53476904Y-84398190D01*
X53524523Y-84493428D01*
X53524523Y-84683904D01*
X53476904Y-84779142D01*
X53429285Y-84826761D01*
X53334047Y-84874380D01*
X53143571Y-84874380D01*
X53048333Y-84826761D01*
X53000714Y-84779142D01*
X52953095Y-84683904D01*
X52953095Y-84493428D01*
X53000714Y-84398190D01*
X53048333Y-84350571D01*
X53143571Y-84302952D01*
G04 #@! TO.C,R48*
X43616619Y-111386857D02*
X44092809Y-111720190D01*
X43616619Y-111958285D02*
X44616619Y-111958285D01*
X44616619Y-111577333D01*
X44569000Y-111482095D01*
X44521380Y-111434476D01*
X44426142Y-111386857D01*
X44283285Y-111386857D01*
X44188047Y-111434476D01*
X44140428Y-111482095D01*
X44092809Y-111577333D01*
X44092809Y-111958285D01*
X44283285Y-110529714D02*
X43616619Y-110529714D01*
X44664238Y-110767809D02*
X43949952Y-111005904D01*
X43949952Y-110386857D01*
X44188047Y-109863047D02*
X44235666Y-109958285D01*
X44283285Y-110005904D01*
X44378523Y-110053523D01*
X44426142Y-110053523D01*
X44521380Y-110005904D01*
X44569000Y-109958285D01*
X44616619Y-109863047D01*
X44616619Y-109672571D01*
X44569000Y-109577333D01*
X44521380Y-109529714D01*
X44426142Y-109482095D01*
X44378523Y-109482095D01*
X44283285Y-109529714D01*
X44235666Y-109577333D01*
X44188047Y-109672571D01*
X44188047Y-109863047D01*
X44140428Y-109958285D01*
X44092809Y-110005904D01*
X43997571Y-110053523D01*
X43807095Y-110053523D01*
X43711857Y-110005904D01*
X43664238Y-109958285D01*
X43616619Y-109863047D01*
X43616619Y-109672571D01*
X43664238Y-109577333D01*
X43711857Y-109529714D01*
X43807095Y-109482095D01*
X43997571Y-109482095D01*
X44092809Y-109529714D01*
X44140428Y-109577333D01*
X44188047Y-109672571D01*
G04 #@! TD*
M02*
