G04 #@! TF.GenerationSoftware,KiCad,Pcbnew,(5.0.0)*
G04 #@! TF.CreationDate,2019-03-03T17:57:37-06:00*
G04 #@! TF.ProjectId,ArmMotorController_Hardware,41726D4D6F746F72436F6E74726F6C6C,rev?*
G04 #@! TF.SameCoordinates,Original*
G04 #@! TF.FileFunction,Paste,Bot*
G04 #@! TF.FilePolarity,Positive*
%FSLAX46Y46*%
G04 Gerber Fmt 4.6, Leading zero omitted, Abs format (unit mm)*
G04 Created by KiCad (PCBNEW (5.0.0)) date 03/03/19 17:57:37*
%MOMM*%
%LPD*%
G01*
G04 APERTURE LIST*
%ADD10R,0.990600X1.778000*%
G04 APERTURE END LIST*
D10*
G04 #@! TO.C,U3*
X63500000Y-89763600D03*
X60960000Y-89763600D03*
X58420000Y-89763600D03*
X55880000Y-89763600D03*
X53340000Y-89763600D03*
X50800000Y-89763600D03*
X48260000Y-89763600D03*
X45720000Y-89763600D03*
X43180000Y-89763600D03*
X40640000Y-89763600D03*
X63500000Y-95656400D03*
X60960000Y-95656400D03*
X58420000Y-95656400D03*
X55880000Y-95656400D03*
X53340000Y-95656400D03*
X50800000Y-95656400D03*
X48260000Y-95656400D03*
X45720000Y-95656400D03*
X43180000Y-95656400D03*
X40640000Y-95656400D03*
X63500000Y-138836400D03*
X60960000Y-138836400D03*
X58420000Y-138836400D03*
X55880000Y-138836400D03*
X53340000Y-138836400D03*
X50800000Y-138836400D03*
X48260000Y-138836400D03*
X45720000Y-138836400D03*
X43180000Y-138836400D03*
X40640000Y-138836400D03*
X63500000Y-132943600D03*
X60960000Y-132943600D03*
X58420000Y-132943600D03*
X55880000Y-132943600D03*
X53340000Y-132943600D03*
X50800000Y-132943600D03*
X48260000Y-132943600D03*
X45720000Y-132943600D03*
X43180000Y-132943600D03*
X40640000Y-132943600D03*
X109220000Y-89763600D03*
X106680000Y-89763600D03*
X104140000Y-89763600D03*
X127000000Y-95656400D03*
X124460000Y-95656400D03*
X121920000Y-95656400D03*
X119380000Y-95656400D03*
X116840000Y-95656400D03*
X114300000Y-95656400D03*
X111760000Y-95656400D03*
X109220000Y-95656400D03*
X106680000Y-95656400D03*
X104140000Y-95656400D03*
X127000000Y-138836400D03*
X121920000Y-138836400D03*
X116840000Y-138836400D03*
X114300000Y-138836400D03*
X111760000Y-138836400D03*
X109220000Y-138836400D03*
X106680000Y-138836400D03*
X127000000Y-132943600D03*
X121920000Y-132943600D03*
X111760000Y-132943600D03*
X109220000Y-132943600D03*
X106680000Y-132943600D03*
X104140000Y-132943600D03*
X116840000Y-132943600D03*
X119380000Y-132943600D03*
X124460000Y-138836400D03*
X111760000Y-89763600D03*
X114300000Y-89763600D03*
X124460000Y-132943600D03*
X119380000Y-138836400D03*
X121920000Y-89763600D03*
X119380000Y-89763600D03*
X114300000Y-132943600D03*
X116840000Y-89763600D03*
X124460000Y-89763600D03*
X127000000Y-89763600D03*
X104140000Y-138836400D03*
G04 #@! TD*
M02*
