G04 #@! TF.GenerationSoftware,KiCad,Pcbnew,(5.0.0)*
G04 #@! TF.CreationDate,2019-03-03T17:57:38-06:00*
G04 #@! TF.ProjectId,ArmMotorController_Hardware,41726D4D6F746F72436F6E74726F6C6C,rev?*
G04 #@! TF.SameCoordinates,Original*
G04 #@! TF.FileFunction,Soldermask,Bot*
G04 #@! TF.FilePolarity,Negative*
%FSLAX46Y46*%
G04 Gerber Fmt 4.6, Leading zero omitted, Abs format (unit mm)*
G04 Created by KiCad (PCBNEW (5.0.0)) date 03/03/19 17:57:38*
%MOMM*%
%LPD*%
G01*
G04 APERTURE LIST*
%ADD10C,5.480000*%
%ADD11R,1.390600X2.178000*%
%ADD12C,1.924000*%
%ADD13R,2.900000X1.900000*%
%ADD14O,2.900000X1.900000*%
%ADD15O,3.900000X2.600000*%
%ADD16R,2.000000X2.000000*%
%ADD17C,2.000000*%
G04 APERTURE END LIST*
D10*
G04 #@! TO.C,Conn1*
X94615000Y-62865000D03*
X102489000Y-62865000D03*
X110363000Y-62865000D03*
G04 #@! TD*
G04 #@! TO.C,Conn16*
X54864000Y-62865000D03*
X46990000Y-62865000D03*
G04 #@! TD*
G04 #@! TO.C,Conn17*
X77724000Y-62865000D03*
X69850000Y-62865000D03*
G04 #@! TD*
G04 #@! TO.C,Conn18*
X132334000Y-62865000D03*
X124460000Y-62865000D03*
G04 #@! TD*
G04 #@! TO.C,Conn19*
X147320000Y-62865000D03*
X155194000Y-62865000D03*
G04 #@! TD*
D11*
G04 #@! TO.C,U3*
X63500000Y-89763600D03*
X60960000Y-89763600D03*
X58420000Y-89763600D03*
X55880000Y-89763600D03*
X53340000Y-89763600D03*
X50800000Y-89763600D03*
X48260000Y-89763600D03*
X45720000Y-89763600D03*
X43180000Y-89763600D03*
X40640000Y-89763600D03*
X63500000Y-95656400D03*
X60960000Y-95656400D03*
X58420000Y-95656400D03*
X55880000Y-95656400D03*
X53340000Y-95656400D03*
X50800000Y-95656400D03*
X48260000Y-95656400D03*
X45720000Y-95656400D03*
X43180000Y-95656400D03*
X40640000Y-95656400D03*
X63500000Y-138836400D03*
X60960000Y-138836400D03*
X58420000Y-138836400D03*
X55880000Y-138836400D03*
X53340000Y-138836400D03*
X50800000Y-138836400D03*
X48260000Y-138836400D03*
X45720000Y-138836400D03*
X43180000Y-138836400D03*
X40640000Y-138836400D03*
X63500000Y-132943600D03*
X60960000Y-132943600D03*
X58420000Y-132943600D03*
X55880000Y-132943600D03*
X53340000Y-132943600D03*
X50800000Y-132943600D03*
X48260000Y-132943600D03*
X45720000Y-132943600D03*
X43180000Y-132943600D03*
X40640000Y-132943600D03*
X109220000Y-89763600D03*
X106680000Y-89763600D03*
X104140000Y-89763600D03*
X127000000Y-95656400D03*
X124460000Y-95656400D03*
X121920000Y-95656400D03*
X119380000Y-95656400D03*
X116840000Y-95656400D03*
X114300000Y-95656400D03*
X111760000Y-95656400D03*
X109220000Y-95656400D03*
X106680000Y-95656400D03*
X104140000Y-95656400D03*
X127000000Y-138836400D03*
X121920000Y-138836400D03*
X116840000Y-138836400D03*
X114300000Y-138836400D03*
X111760000Y-138836400D03*
X109220000Y-138836400D03*
X106680000Y-138836400D03*
X127000000Y-132943600D03*
X121920000Y-132943600D03*
X111760000Y-132943600D03*
X109220000Y-132943600D03*
X106680000Y-132943600D03*
X104140000Y-132943600D03*
X116840000Y-132943600D03*
X119380000Y-132943600D03*
X124460000Y-138836400D03*
X111760000Y-89763600D03*
X114300000Y-89763600D03*
X124460000Y-132943600D03*
X119380000Y-138836400D03*
X121920000Y-89763600D03*
X119380000Y-89763600D03*
X114300000Y-132943600D03*
X116840000Y-89763600D03*
X124460000Y-89763600D03*
X127000000Y-89763600D03*
X104140000Y-138836400D03*
G04 #@! TD*
D12*
G04 #@! TO.C,U2*
X110490000Y-80391000D03*
X113030000Y-80391000D03*
X115570000Y-80391000D03*
G04 #@! TD*
G04 #@! TO.C,Conn3*
X71247000Y-121539000D03*
X68707000Y-121539000D03*
G04 #@! TD*
G04 #@! TO.C,Conn4*
X80137000Y-121539000D03*
X77597000Y-121539000D03*
G04 #@! TD*
G04 #@! TO.C,Conn5*
X89027000Y-121539000D03*
X86487000Y-121539000D03*
G04 #@! TD*
G04 #@! TO.C,Conn6*
X97917000Y-121539000D03*
X95377000Y-121539000D03*
G04 #@! TD*
G04 #@! TO.C,Conn7*
X71247000Y-135509000D03*
X68707000Y-135509000D03*
G04 #@! TD*
G04 #@! TO.C,Conn8*
X80137000Y-135509000D03*
X77597000Y-135509000D03*
G04 #@! TD*
G04 #@! TO.C,Conn9*
X89027000Y-135509000D03*
X86487000Y-135509000D03*
G04 #@! TD*
G04 #@! TO.C,Conn10*
X97917000Y-135509000D03*
X95377000Y-135509000D03*
G04 #@! TD*
G04 #@! TO.C,Conn11*
X158750000Y-112268000D03*
X158750000Y-109728000D03*
X158750000Y-107188000D03*
X158750000Y-104648000D03*
X158750000Y-102108000D03*
G04 #@! TD*
G04 #@! TO.C,Conn12*
X111760000Y-107950000D03*
X109220000Y-107950000D03*
X106680000Y-107950000D03*
G04 #@! TD*
G04 #@! TO.C,Conn13*
X124460000Y-107950000D03*
X121920000Y-107950000D03*
X119380000Y-107950000D03*
G04 #@! TD*
G04 #@! TO.C,Conn14*
X111760000Y-124460000D03*
X109220000Y-124460000D03*
X106680000Y-124460000D03*
G04 #@! TD*
G04 #@! TO.C,Conn15*
X124460000Y-124460000D03*
X121920000Y-124460000D03*
X119380000Y-124460000D03*
G04 #@! TD*
G04 #@! TO.C,U1*
X104521000Y-80391000D03*
X101981000Y-80391000D03*
X99441000Y-80391000D03*
G04 #@! TD*
D13*
G04 #@! TO.C,SW1*
X41910000Y-111760000D03*
D14*
X41910000Y-113760000D03*
X41910000Y-115760000D03*
D15*
X41910000Y-109660000D03*
X41910000Y-117860000D03*
G04 #@! TD*
D16*
G04 #@! TO.C,C18*
X62484000Y-64008000D03*
D17*
X62484000Y-61508000D03*
G04 #@! TD*
G04 #@! TO.C,C19*
X140081000Y-61508000D03*
D16*
X140081000Y-64008000D03*
G04 #@! TD*
M02*
