G04 #@! TF.GenerationSoftware,KiCad,Pcbnew,(5.0.0)*
G04 #@! TF.CreationDate,2019-03-03T17:57:37-06:00*
G04 #@! TF.ProjectId,ArmMotorController_Hardware,41726D4D6F746F72436F6E74726F6C6C,rev?*
G04 #@! TF.SameCoordinates,Original*
G04 #@! TF.FileFunction,Copper,L2,Bot,Signal*
G04 #@! TF.FilePolarity,Positive*
%FSLAX46Y46*%
G04 Gerber Fmt 4.6, Leading zero omitted, Abs format (unit mm)*
G04 Created by KiCad (PCBNEW (5.0.0)) date 03/03/19 17:57:37*
%MOMM*%
%LPD*%
G01*
G04 APERTURE LIST*
G04 #@! TA.AperFunction,ComponentPad*
%ADD10C,5.080000*%
G04 #@! TD*
G04 #@! TA.AperFunction,SMDPad,CuDef*
%ADD11R,0.990600X1.778000*%
G04 #@! TD*
G04 #@! TA.AperFunction,ComponentPad*
%ADD12C,1.524000*%
G04 #@! TD*
G04 #@! TA.AperFunction,ComponentPad*
%ADD13R,2.500000X1.500000*%
G04 #@! TD*
G04 #@! TA.AperFunction,ComponentPad*
%ADD14O,2.500000X1.500000*%
G04 #@! TD*
G04 #@! TA.AperFunction,ComponentPad*
%ADD15O,3.500000X2.200000*%
G04 #@! TD*
G04 #@! TA.AperFunction,ComponentPad*
%ADD16R,1.600000X1.600000*%
G04 #@! TD*
G04 #@! TA.AperFunction,ComponentPad*
%ADD17C,1.600000*%
G04 #@! TD*
G04 #@! TA.AperFunction,ViaPad*
%ADD18C,0.800000*%
G04 #@! TD*
G04 #@! TA.AperFunction,Conductor*
%ADD19C,0.381000*%
G04 #@! TD*
G04 #@! TA.AperFunction,Conductor*
%ADD20C,0.762000*%
G04 #@! TD*
G04 #@! TA.AperFunction,Conductor*
%ADD21C,0.254000*%
G04 #@! TD*
G04 APERTURE END LIST*
D10*
G04 #@! TO.P,Conn1,3*
G04 #@! TO.N,+12V*
X94615000Y-62865000D03*
G04 #@! TO.P,Conn1,2*
G04 #@! TO.N,12vLog*
X102489000Y-62865000D03*
G04 #@! TO.P,Conn1,1*
G04 #@! TO.N,GND*
X110363000Y-62865000D03*
G04 #@! TD*
G04 #@! TO.P,Conn16,1*
G04 #@! TO.N,/Out_B_M1*
X54864000Y-62865000D03*
G04 #@! TO.P,Conn16,2*
G04 #@! TO.N,/Out_A_M1*
X46990000Y-62865000D03*
G04 #@! TD*
G04 #@! TO.P,Conn17,1*
G04 #@! TO.N,/Out_B_M2*
X77724000Y-62865000D03*
G04 #@! TO.P,Conn17,2*
G04 #@! TO.N,/Out_A_M2*
X69850000Y-62865000D03*
G04 #@! TD*
G04 #@! TO.P,Conn18,1*
G04 #@! TO.N,/Out_B_M3*
X132334000Y-62865000D03*
G04 #@! TO.P,Conn18,2*
G04 #@! TO.N,/Out_A_M3*
X124460000Y-62865000D03*
G04 #@! TD*
G04 #@! TO.P,Conn19,2*
G04 #@! TO.N,/Out_A_M4*
X147320000Y-62865000D03*
G04 #@! TO.P,Conn19,1*
G04 #@! TO.N,/Out_B_M4*
X155194000Y-62865000D03*
G04 #@! TD*
D11*
G04 #@! TO.P,U3,PP2*
G04 #@! TO.N,Net-(U3-PadPP2)*
X63500000Y-89763600D03*
G04 #@! TO.P,U3,PN3*
G04 #@! TO.N,Net-(U3-PadPN3)*
X60960000Y-89763600D03*
G04 #@! TO.P,U3,PN2*
G04 #@! TO.N,Net-(U3-PadPN2)*
X58420000Y-89763600D03*
G04 #@! TO.P,U3,PD0*
G04 #@! TO.N,I_SENSE_2*
X55880000Y-89763600D03*
G04 #@! TO.P,U3,PD1*
G04 #@! TO.N,I_SENSE_1*
X53340000Y-89763600D03*
G04 #@! TO.P,U3,Rese*
G04 #@! TO.N,Net-(U3-PadRese)*
X50800000Y-89763600D03*
G04 #@! TO.P,U3,PH3*
G04 #@! TO.N,Net-(U3-PadPH3)*
X48260000Y-89763600D03*
G04 #@! TO.P,U3,PH2*
G04 #@! TO.N,Net-(U3-PadPH2)*
X45720000Y-89763600D03*
G04 #@! TO.P,U3,PM3*
G04 #@! TO.N,Net-(U3-PadPM3)*
X43180000Y-89763600D03*
G04 #@! TO.P,U3,GND*
G04 #@! TO.N,GND*
X40640000Y-89763600D03*
G04 #@! TO.P,U3,PL3*
G04 #@! TO.N,IN_B2*
X63500000Y-95656400D03*
G04 #@! TO.P,U3,PL2*
G04 #@! TO.N,IN_A2*
X60960000Y-95656400D03*
G04 #@! TO.P,U3,PL1*
G04 #@! TO.N,IN_B1*
X58420000Y-95656400D03*
G04 #@! TO.P,U3,PL0*
G04 #@! TO.N,IN_A1*
X55880000Y-95656400D03*
G04 #@! TO.P,U3,PL5*
G04 #@! TO.N,Net-(U3-PadPL5)*
X53340000Y-95656400D03*
G04 #@! TO.P,U3,PL4*
G04 #@! TO.N,M2_SW*
X50800000Y-95656400D03*
G04 #@! TO.P,U3,PG0*
G04 #@! TO.N,M1_SW*
X48260000Y-95656400D03*
G04 #@! TO.P,U3,PF3*
G04 #@! TO.N,Net-(U3-PadPF3)*
X45720000Y-95656400D03*
G04 #@! TO.P,U3,PF2*
G04 #@! TO.N,M2_PWM*
X43180000Y-95656400D03*
G04 #@! TO.P,U3,PF1*
G04 #@! TO.N,M1_PWM*
X40640000Y-95656400D03*
G04 #@! TO.P,U3,PB3*
G04 #@! TO.N,DIRECTION_SW*
X63500000Y-138836400D03*
G04 #@! TO.P,U3,PB2*
G04 #@! TO.N,Net-(U3-PadPB2)*
X60960000Y-138836400D03*
G04 #@! TO.P,U3,PC7*
G04 #@! TO.N,LS_5*
X58420000Y-138836400D03*
G04 #@! TO.P,U3,PD3*
G04 #@! TO.N,LS_6*
X55880000Y-138836400D03*
G04 #@! TO.P,U3,PE5*
G04 #@! TO.N,LS_7*
X53340000Y-138836400D03*
G04 #@! TO.P,U3,PC6*
G04 #@! TO.N,LS_8*
X50800000Y-138836400D03*
G04 #@! TO.P,U3,PC5*
G04 #@! TO.N,Net-(U3-PadPC5)*
X48260000Y-138836400D03*
G04 #@! TO.P,U3,PC4*
G04 #@! TO.N,Net-(U3-PadPC4)*
X45720000Y-138836400D03*
G04 #@! TO.P,U3,PE4*
G04 #@! TO.N,Net-(U3-PadPE4)*
X43180000Y-138836400D03*
G04 #@! TO.P,U3,+3V3*
G04 #@! TO.N,+3V3*
X40640000Y-138836400D03*
G04 #@! TO.P,U3,PM5*
G04 #@! TO.N,LS_1*
X63500000Y-132943600D03*
G04 #@! TO.P,U3,PM4*
G04 #@! TO.N,LS_2*
X60960000Y-132943600D03*
G04 #@! TO.P,U3,PA6*
G04 #@! TO.N,LS_3*
X58420000Y-132943600D03*
G04 #@! TO.P,U3,PD7*
G04 #@! TO.N,LS_4*
X55880000Y-132943600D03*
G04 #@! TO.P,U3,PE3*
G04 #@! TO.N,Net-(U3-PadPE3)*
X53340000Y-132943600D03*
G04 #@! TO.P,U3,PE2*
G04 #@! TO.N,M4_SW*
X50800000Y-132943600D03*
G04 #@! TO.P,U3,PE1*
G04 #@! TO.N,M3_SW*
X48260000Y-132943600D03*
G04 #@! TO.P,U3,PE0*
G04 #@! TO.N,Net-(U3-PadPE0)*
X45720000Y-132943600D03*
G04 #@! TO.P,U3,GND*
G04 #@! TO.N,GND*
X43180000Y-132943600D03*
G04 #@! TO.P,U3,+5V*
G04 #@! TO.N,Net-(U3-Pad+5V)*
X40640000Y-132943600D03*
G04 #@! TO.P,U3,PP5*
G04 #@! TO.N,LED_IND_SW_2*
X109220000Y-89763600D03*
G04 #@! TO.P,U3,PM7*
G04 #@! TO.N,LED_IND_SW_1*
X106680000Y-89763600D03*
G04 #@! TO.P,U3,GND*
G04 #@! TO.N,GND*
X104140000Y-89763600D03*
G04 #@! TO.P,U3,PK7*
G04 #@! TO.N,Net-(U3-PadPK7)*
X127000000Y-95656400D03*
G04 #@! TO.P,U3,PK6*
G04 #@! TO.N,Net-(U3-PadPK6)*
X124460000Y-95656400D03*
G04 #@! TO.P,U3,PH1*
G04 #@! TO.N,Net-(U3-PadPH1)*
X121920000Y-95656400D03*
G04 #@! TO.P,U3,PH0*
G04 #@! TO.N,Net-(U3-PadPH0)*
X119380000Y-95656400D03*
G04 #@! TO.P,U3,PM2*
G04 #@! TO.N,Net-(U3-PadPM2)*
X116840000Y-95656400D03*
G04 #@! TO.P,U3,PM1*
G04 #@! TO.N,ENC_2_PWM*
X114300000Y-95656400D03*
G04 #@! TO.P,U3,PM0*
G04 #@! TO.N,ENC_1_PWM*
X111760000Y-95656400D03*
G04 #@! TO.P,U3,PK5*
G04 #@! TO.N,Net-(U3-PadPK5)*
X109220000Y-95656400D03*
G04 #@! TO.P,U3,PK4*
G04 #@! TO.N,M3_PWM*
X106680000Y-95656400D03*
G04 #@! TO.P,U3,PG1*
G04 #@! TO.N,M4_PWM*
X104140000Y-95656400D03*
G04 #@! TO.P,U3,PN4*
G04 #@! TO.N,Net-(U3-PadPN4)*
X127000000Y-138836400D03*
G04 #@! TO.P,U3,PP4*
G04 #@! TO.N,Net-(U3-PadPP4)*
X121920000Y-138836400D03*
G04 #@! TO.P,U3,PD5*
G04 #@! TO.N,ENC_4_PWM*
X116840000Y-138836400D03*
G04 #@! TO.P,U3,PD4*
G04 #@! TO.N,ENC_3_PWM*
X114300000Y-138836400D03*
G04 #@! TO.P,U3,PP1*
G04 #@! TO.N,TX_1_Tiva*
X111760000Y-138836400D03*
G04 #@! TO.P,U3,PP0*
G04 #@! TO.N,RX_1_Tiva*
X109220000Y-138836400D03*
G04 #@! TO.P,U3,PD2*
G04 #@! TO.N,Net-(U3-PadPD2)*
X106680000Y-138836400D03*
G04 #@! TO.P,U3,PA5*
G04 #@! TO.N,TX_2_Tiva*
X127000000Y-132943600D03*
G04 #@! TO.P,U3,PK3*
G04 #@! TO.N,Net-(U3-PadPK3)*
X121920000Y-132943600D03*
G04 #@! TO.P,U3,PB5*
G04 #@! TO.N,Net-(U3-PadPB5)*
X111760000Y-132943600D03*
G04 #@! TO.P,U3,PB4*
G04 #@! TO.N,Net-(U3-PadPB4)*
X109220000Y-132943600D03*
G04 #@! TO.P,U3,GND*
G04 #@! TO.N,GND*
X106680000Y-132943600D03*
G04 #@! TO.P,U3,+5V'*
G04 #@! TO.N,Net-(U3-Pad+5V')*
X104140000Y-132943600D03*
G04 #@! TO.P,U3,PK1*
G04 #@! TO.N,I_SENSE_4*
X116840000Y-132943600D03*
G04 #@! TO.P,U3,PK2*
G04 #@! TO.N,Net-(U3-PadPK2)*
X119380000Y-132943600D03*
G04 #@! TO.P,U3,PN5*
G04 #@! TO.N,Net-(U3-PadPN5)*
X124460000Y-138836400D03*
G04 #@! TO.P,U3,PA7*
G04 #@! TO.N,LED_IND_SW_ERR*
X111760000Y-89763600D03*
G04 #@! TO.P,U3,Rese'*
G04 #@! TO.N,Net-(U3-PadRese')*
X114300000Y-89763600D03*
G04 #@! TO.P,U3,PA4*
G04 #@! TO.N,RX_2_Tiva*
X124460000Y-132943600D03*
G04 #@! TO.P,U3,PQ0*
G04 #@! TO.N,Net-(U3-PadPQ0)*
X119380000Y-138836400D03*
G04 #@! TO.P,U3,PP3*
G04 #@! TO.N,IN_A4*
X121920000Y-89763600D03*
G04 #@! TO.P,U3,PQ3*
G04 #@! TO.N,IN_B3*
X119380000Y-89763600D03*
G04 #@! TO.P,U3,PK0*
G04 #@! TO.N,I_SENSE_3*
X114300000Y-132943600D03*
G04 #@! TO.P,U3,PQ2*
G04 #@! TO.N,IN_A3*
X116840000Y-89763600D03*
G04 #@! TO.P,U3,PQ1*
G04 #@! TO.N,IN_B4*
X124460000Y-89763600D03*
G04 #@! TO.P,U3,PM6*
G04 #@! TO.N,Net-(U3-PadPM6)*
X127000000Y-89763600D03*
G04 #@! TO.P,U3,+3V3'*
G04 #@! TO.N,N/C*
X104140000Y-138836400D03*
G04 #@! TD*
D12*
G04 #@! TO.P,U2,1*
G04 #@! TO.N,12vLog*
X110490000Y-80391000D03*
G04 #@! TO.P,U2,2*
G04 #@! TO.N,GND*
X113030000Y-80391000D03*
G04 #@! TO.P,U2,3*
G04 #@! TO.N,+5V*
X115570000Y-80391000D03*
G04 #@! TD*
G04 #@! TO.P,Conn3,2*
G04 #@! TO.N,LS_1*
X71247000Y-121539000D03*
G04 #@! TO.P,Conn3,1*
G04 #@! TO.N,+3V3*
X68707000Y-121539000D03*
G04 #@! TD*
G04 #@! TO.P,Conn4,2*
G04 #@! TO.N,LS_2*
X80137000Y-121539000D03*
G04 #@! TO.P,Conn4,1*
G04 #@! TO.N,+3V3*
X77597000Y-121539000D03*
G04 #@! TD*
G04 #@! TO.P,Conn5,2*
G04 #@! TO.N,LS_3*
X89027000Y-121539000D03*
G04 #@! TO.P,Conn5,1*
G04 #@! TO.N,+3V3*
X86487000Y-121539000D03*
G04 #@! TD*
G04 #@! TO.P,Conn6,2*
G04 #@! TO.N,LS_4*
X97917000Y-121539000D03*
G04 #@! TO.P,Conn6,1*
G04 #@! TO.N,+3V3*
X95377000Y-121539000D03*
G04 #@! TD*
G04 #@! TO.P,Conn7,2*
G04 #@! TO.N,LS_5*
X71247000Y-135509000D03*
G04 #@! TO.P,Conn7,1*
G04 #@! TO.N,+3V3*
X68707000Y-135509000D03*
G04 #@! TD*
G04 #@! TO.P,Conn8,2*
G04 #@! TO.N,LS_6*
X80137000Y-135509000D03*
G04 #@! TO.P,Conn8,1*
G04 #@! TO.N,+3V3*
X77597000Y-135509000D03*
G04 #@! TD*
G04 #@! TO.P,Conn9,2*
G04 #@! TO.N,LS_7*
X89027000Y-135509000D03*
G04 #@! TO.P,Conn9,1*
G04 #@! TO.N,+3V3*
X86487000Y-135509000D03*
G04 #@! TD*
G04 #@! TO.P,Conn10,2*
G04 #@! TO.N,LS_8*
X97917000Y-135509000D03*
G04 #@! TO.P,Conn10,1*
G04 #@! TO.N,+3V3*
X95377000Y-135509000D03*
G04 #@! TD*
G04 #@! TO.P,Conn11,5*
G04 #@! TO.N,RX_1_SL*
X158750000Y-112268000D03*
G04 #@! TO.P,Conn11,4*
G04 #@! TO.N,TX_1_SL*
X158750000Y-109728000D03*
G04 #@! TO.P,Conn11,3*
G04 #@! TO.N,GND*
X158750000Y-107188000D03*
G04 #@! TO.P,Conn11,2*
G04 #@! TO.N,TX_2_SL*
X158750000Y-104648000D03*
G04 #@! TO.P,Conn11,1*
G04 #@! TO.N,RX_2_SL*
X158750000Y-102108000D03*
G04 #@! TD*
G04 #@! TO.P,Conn12,3*
G04 #@! TO.N,GND*
X111760000Y-107950000D03*
G04 #@! TO.P,Conn12,2*
G04 #@! TO.N,ENC_1_PWM*
X109220000Y-107950000D03*
G04 #@! TO.P,Conn12,1*
G04 #@! TO.N,+3V3*
X106680000Y-107950000D03*
G04 #@! TD*
G04 #@! TO.P,Conn13,3*
G04 #@! TO.N,GND*
X124460000Y-107950000D03*
G04 #@! TO.P,Conn13,2*
G04 #@! TO.N,ENC_2_PWM*
X121920000Y-107950000D03*
G04 #@! TO.P,Conn13,1*
G04 #@! TO.N,+3V3*
X119380000Y-107950000D03*
G04 #@! TD*
G04 #@! TO.P,Conn14,3*
G04 #@! TO.N,GND*
X111760000Y-124460000D03*
G04 #@! TO.P,Conn14,2*
G04 #@! TO.N,ENC_3_PWM*
X109220000Y-124460000D03*
G04 #@! TO.P,Conn14,1*
G04 #@! TO.N,+3V3*
X106680000Y-124460000D03*
G04 #@! TD*
G04 #@! TO.P,Conn15,3*
G04 #@! TO.N,GND*
X124460000Y-124460000D03*
G04 #@! TO.P,Conn15,2*
G04 #@! TO.N,ENC_4_PWM*
X121920000Y-124460000D03*
G04 #@! TO.P,Conn15,1*
G04 #@! TO.N,+3V3*
X119380000Y-124460000D03*
G04 #@! TD*
G04 #@! TO.P,U1,3*
G04 #@! TO.N,+3V3*
X104521000Y-80391000D03*
G04 #@! TO.P,U1,2*
G04 #@! TO.N,GND*
X101981000Y-80391000D03*
G04 #@! TO.P,U1,1*
G04 #@! TO.N,12vLog*
X99441000Y-80391000D03*
G04 #@! TD*
D13*
G04 #@! TO.P,SW1,1*
G04 #@! TO.N,DIRECTION_SW*
X41910000Y-111760000D03*
D14*
G04 #@! TO.P,SW1,2*
G04 #@! TO.N,+3V3*
X41910000Y-113760000D03*
G04 #@! TO.P,SW1,3*
G04 #@! TO.N,Net-(SW1-Pad3)*
X41910000Y-115760000D03*
D15*
G04 #@! TO.P,SW1,*
G04 #@! TO.N,*
X41910000Y-109660000D03*
X41910000Y-117860000D03*
G04 #@! TD*
D16*
G04 #@! TO.P,C18,1*
G04 #@! TO.N,+12V*
X62484000Y-64008000D03*
D17*
G04 #@! TO.P,C18,2*
G04 #@! TO.N,GND*
X62484000Y-61508000D03*
G04 #@! TD*
G04 #@! TO.P,C19,2*
G04 #@! TO.N,GND*
X140081000Y-61508000D03*
D16*
G04 #@! TO.P,C19,1*
G04 #@! TO.N,+12V*
X140081000Y-64008000D03*
G04 #@! TD*
D18*
G04 #@! TO.N,IN_A4*
X143256000Y-92710000D03*
G04 #@! TO.N,GND*
X158750000Y-107188000D03*
X74422000Y-132969000D03*
X83312000Y-132969000D03*
X92202000Y-132969000D03*
X114935000Y-116967000D03*
X47244000Y-150368000D03*
X48768000Y-150368000D03*
X50292000Y-150368000D03*
X125730000Y-113157000D03*
X125730000Y-111760000D03*
X135890000Y-105156000D03*
X40513000Y-92075000D03*
X41529000Y-92075000D03*
X46228000Y-101092000D03*
X40767000Y-100584000D03*
X140589000Y-94615000D03*
X140589000Y-97790000D03*
X139446000Y-89535000D03*
X140970000Y-89535000D03*
X114935000Y-113411000D03*
X116586000Y-113411000D03*
X116586000Y-116967000D03*
X122047000Y-117348000D03*
X124206000Y-117348000D03*
X121539000Y-113411000D03*
X123063000Y-113411000D03*
X128651000Y-111252000D03*
X128651000Y-109855000D03*
X83820000Y-92329000D03*
X86614000Y-92329000D03*
X161036000Y-89662000D03*
X163195000Y-89662000D03*
X159512000Y-98933000D03*
X160782000Y-98933000D03*
X41910000Y-141732000D03*
X44323000Y-141732000D03*
X41910000Y-130302000D03*
X44450000Y-130302000D03*
X92202000Y-118999000D03*
X83312000Y-118999000D03*
X74549000Y-118999000D03*
X92202000Y-125857000D03*
X83312000Y-125857000D03*
X74422000Y-125857000D03*
X146558000Y-100584000D03*
X146558000Y-101854000D03*
X146304000Y-106299000D03*
X146304000Y-105029000D03*
X146304000Y-108204000D03*
X146304000Y-109474000D03*
X146304000Y-112649000D03*
X146304000Y-113792000D03*
X67564000Y-103886000D03*
X67564000Y-105664000D03*
X67564000Y-107696000D03*
X74676000Y-103886000D03*
X74676000Y-105664000D03*
X91821000Y-107696000D03*
X83439000Y-107696000D03*
X74676000Y-107696000D03*
X130937000Y-107442000D03*
X130937000Y-106172000D03*
X108712000Y-113411000D03*
X108712000Y-111887000D03*
X104902000Y-113411000D03*
X104902000Y-111887000D03*
X108712000Y-122301000D03*
X108712000Y-121031000D03*
X104902000Y-122301000D03*
X104902000Y-121031000D03*
X121412000Y-122301000D03*
X121412000Y-121031000D03*
X101346000Y-122301000D03*
X101346000Y-121031000D03*
X91059000Y-92329000D03*
X93599000Y-92329000D03*
X95885000Y-92329000D03*
X101219000Y-113411000D03*
X101219000Y-111760000D03*
X138049000Y-89535000D03*
X142240000Y-89535000D03*
X162179000Y-89662000D03*
G04 #@! TO.N,LS_7*
X55880000Y-144145000D03*
G04 #@! TO.N,IN_B1*
X58420000Y-92837000D03*
G04 #@! TO.N,IN_A1*
X42926000Y-92837000D03*
G04 #@! TO.N,IN_A2*
X64770000Y-92837000D03*
G04 #@! TO.N,IN_B2*
X80899000Y-92837000D03*
G04 #@! TO.N,LS_2*
X63500000Y-112395000D03*
G04 #@! TO.N,IN_B3*
X135001000Y-92710000D03*
G04 #@! TO.N,IN_A3*
X116840000Y-92710000D03*
G04 #@! TO.N,LS_1*
X66040000Y-113665000D03*
G04 #@! TO.N,LS_3*
X60960000Y-111125000D03*
G04 #@! TO.N,LS_5*
X60960000Y-141605000D03*
G04 #@! TO.N,LS_4*
X58420000Y-109855000D03*
G04 #@! TO.N,LS_6*
X58420000Y-142875000D03*
G04 #@! TO.N,LS_8*
X53340000Y-145415000D03*
G04 #@! TO.N,RX_1_Tiva*
X110490000Y-142240000D03*
G04 #@! TO.N,TX_1_Tiva*
X112776000Y-141224000D03*
G04 #@! TO.N,Net-(C10-Pad1)*
X138303000Y-111125000D03*
X137795000Y-108966000D03*
G04 #@! TO.N,IN_B4*
X157861000Y-92710000D03*
G04 #@! TO.N,RX_2_Tiva*
X125730000Y-130330500D03*
G04 #@! TO.N,TX_2_Tiva*
X130810000Y-130810000D03*
G04 #@! TO.N,+3V3*
X49530000Y-136652000D03*
X41529000Y-98806000D03*
X49530000Y-99850500D03*
X157861000Y-94361000D03*
X142240000Y-95250000D03*
X80264000Y-94516500D03*
X57277000Y-94488000D03*
X66167000Y-96139000D03*
X102870000Y-127889000D03*
X65405000Y-127889000D03*
X126873000Y-115570000D03*
X102870000Y-115570000D03*
G04 #@! TO.N,+5V*
X139700000Y-117221000D03*
X111633000Y-99949000D03*
G04 #@! TO.N,DIRECTION_SW*
X54610000Y-113792000D03*
G04 #@! TO.N,ENC_1_PWM*
X113093500Y-97028000D03*
G04 #@! TO.N,ENC_2_PWM*
X115697000Y-97126500D03*
G04 #@! TO.N,ENC_3_PWM*
X109220000Y-136906000D03*
G04 #@! TO.N,ENC_4_PWM*
X121920000Y-136906000D03*
G04 #@! TO.N,I_SENSE_1*
X59690000Y-97155000D03*
G04 #@! TO.N,I_SENSE_2*
X81915000Y-97028000D03*
G04 #@! TO.N,I_SENSE_3*
X140462000Y-100076000D03*
G04 #@! TO.N,I_SENSE_4*
X156464000Y-99695000D03*
G04 #@! TO.N,LED_IND_SW_1*
X100146000Y-100768000D03*
G04 #@! TO.N,LED_IND_SW_2*
X100936500Y-102743000D03*
G04 #@! TO.N,M1_PWM*
X42389500Y-97790000D03*
G04 #@! TO.N,M2_PWM*
X56388000Y-99060000D03*
G04 #@! TO.N,M3_PWM*
X120586500Y-97663000D03*
G04 #@! TO.N,M4_PWM*
X144780000Y-98806000D03*
G04 #@! TO.N,M1_SW*
X48260000Y-97790000D03*
G04 #@! TO.N,M2_SW*
X50800000Y-97790000D03*
G04 #@! TO.N,M4_SW*
X50800000Y-128270000D03*
G04 #@! TO.N,M3_SW*
X48260000Y-128270000D03*
G04 #@! TO.N,+12V*
X149049999Y-84696300D03*
X150065999Y-86728300D03*
X155145999Y-86728300D03*
X149049999Y-86728300D03*
X154129999Y-86728300D03*
X156161999Y-86728300D03*
X148033999Y-86728300D03*
X151081999Y-86728300D03*
X147017999Y-86728300D03*
X153113999Y-86728300D03*
X152097999Y-86728300D03*
X148033999Y-85712300D03*
X150065999Y-84696300D03*
X149049999Y-85712300D03*
X155145999Y-85712300D03*
X155145999Y-84696300D03*
X151081999Y-85712300D03*
X154129999Y-84696300D03*
X156161999Y-84696300D03*
X148033999Y-84696300D03*
X154129999Y-85712300D03*
X153113999Y-85712300D03*
X150065999Y-85712300D03*
X147017999Y-85712300D03*
X151081999Y-84696300D03*
X147017999Y-84696300D03*
X153113999Y-84696300D03*
X152097999Y-84696300D03*
X156161999Y-85712300D03*
X152097999Y-85712300D03*
X148033999Y-83680300D03*
X150065999Y-82664300D03*
X149049999Y-83680300D03*
X155145999Y-83680300D03*
X155145999Y-82664300D03*
X151081999Y-83680300D03*
X149049999Y-82664300D03*
X154129999Y-82664300D03*
X156161999Y-82664300D03*
X148033999Y-82664300D03*
X154129999Y-83680300D03*
X153113999Y-83680300D03*
X150065999Y-83680300D03*
X147017999Y-83680300D03*
X151081999Y-82664300D03*
X147017999Y-82664300D03*
X153113999Y-82664300D03*
X152097999Y-82664300D03*
X156161999Y-83680300D03*
X152097999Y-83680300D03*
X127205999Y-86728300D03*
X132285999Y-86728300D03*
X126189999Y-86728300D03*
X131269999Y-86728300D03*
X133301999Y-86728300D03*
X125173999Y-86728300D03*
X128221999Y-86728300D03*
X124157999Y-86728300D03*
X130253999Y-86728300D03*
X129237999Y-86728300D03*
X125173999Y-85712300D03*
X127205999Y-84696300D03*
X126189999Y-85712300D03*
X132285999Y-85712300D03*
X132285999Y-84696300D03*
X128221999Y-85712300D03*
X126189999Y-84696300D03*
X131269999Y-84696300D03*
X133301999Y-84696300D03*
X125173999Y-84696300D03*
X131269999Y-85712300D03*
X130253999Y-85712300D03*
X127205999Y-85712300D03*
X124157999Y-85712300D03*
X124157999Y-84696300D03*
X130253999Y-84696300D03*
X129237999Y-84696300D03*
X133301999Y-85712300D03*
X129237999Y-85712300D03*
X125173999Y-83680300D03*
X127205999Y-82664300D03*
X126189999Y-83680300D03*
X132285999Y-83680300D03*
X132285999Y-82664300D03*
X128221999Y-83680300D03*
X126189999Y-82664300D03*
X131269999Y-82664300D03*
X133301999Y-82664300D03*
X125173999Y-82664300D03*
X131269999Y-83680300D03*
X130253999Y-83680300D03*
X127205999Y-83680300D03*
X124157999Y-83680300D03*
X128221999Y-82664300D03*
X124157999Y-82664300D03*
X130253999Y-82664300D03*
X129237999Y-82664300D03*
X133301999Y-83680300D03*
X129237999Y-83680300D03*
X72595999Y-86728300D03*
X77675999Y-86728300D03*
X71579999Y-86728300D03*
X76659999Y-86728300D03*
X78691999Y-86728300D03*
X70563999Y-86728300D03*
X73611999Y-86728300D03*
X69547999Y-86728300D03*
X75643999Y-86728300D03*
X74627999Y-86728300D03*
X70563999Y-85712300D03*
X72595999Y-84696300D03*
X71579999Y-85712300D03*
X77675999Y-85712300D03*
X77675999Y-84696300D03*
X73611999Y-85712300D03*
X71579999Y-84696300D03*
X76659999Y-84696300D03*
X78691999Y-84696300D03*
X70563999Y-84696300D03*
X76659999Y-85712300D03*
X75643999Y-85712300D03*
X72595999Y-85712300D03*
X69547999Y-85712300D03*
X73611999Y-84696300D03*
X69547999Y-84696300D03*
X75643999Y-84696300D03*
X74627999Y-84696300D03*
X78691999Y-85712300D03*
X74627999Y-85712300D03*
X70563999Y-83680300D03*
X72595999Y-82664300D03*
X71579999Y-83680300D03*
X77675999Y-83680300D03*
X77675999Y-82664300D03*
X73611999Y-83680300D03*
X71579999Y-82664300D03*
X76659999Y-82664300D03*
X78691999Y-82664300D03*
X70563999Y-82664300D03*
X76659999Y-83680300D03*
X75643999Y-83680300D03*
X72595999Y-83680300D03*
X69547999Y-83680300D03*
X73611999Y-82664300D03*
X69547999Y-82664300D03*
X75643999Y-82664300D03*
X74627999Y-82664300D03*
X78691999Y-83680300D03*
X74627999Y-83680300D03*
X55831999Y-86728300D03*
X54815999Y-86728300D03*
X53799999Y-86728300D03*
X52783999Y-86728300D03*
X51767999Y-86728300D03*
X50751999Y-86728300D03*
X49735999Y-86728300D03*
X48719999Y-86728300D03*
X47703999Y-86728300D03*
X46687999Y-86728300D03*
X47703999Y-85712300D03*
X49735999Y-84696300D03*
X48719999Y-85712300D03*
X54815999Y-85712300D03*
X54815999Y-84696300D03*
X50751999Y-85712300D03*
X48719999Y-84696300D03*
X53799999Y-84696300D03*
X55831999Y-84696300D03*
X47703999Y-84696300D03*
X53799999Y-85712300D03*
X52783999Y-85712300D03*
X49735999Y-85712300D03*
X46687999Y-85712300D03*
X50751999Y-84696300D03*
X46687999Y-84696300D03*
X52783999Y-84696300D03*
X51767999Y-84696300D03*
X55831999Y-85712300D03*
X51767999Y-85712300D03*
X46687999Y-83680300D03*
X47703999Y-83680300D03*
X48719999Y-83680300D03*
X49735999Y-83680300D03*
X50751999Y-83680300D03*
X51767999Y-83680300D03*
X52783999Y-83680300D03*
X53799999Y-83680300D03*
X54815999Y-83680300D03*
X55831999Y-83680300D03*
X55831999Y-82664300D03*
X54815999Y-82664300D03*
X53799999Y-82664300D03*
X52783999Y-82664300D03*
X49735999Y-82664300D03*
X48719999Y-82664300D03*
X47703999Y-82664300D03*
X46687999Y-82664300D03*
X128221999Y-84696300D03*
X51767999Y-82664300D03*
X50751999Y-82664300D03*
X62357000Y-86106000D03*
X139954000Y-86233000D03*
X87630000Y-86741000D03*
G04 #@! TO.N,LED_IND_SW_ERR*
X101727000Y-104648000D03*
G04 #@! TO.N,/Out_B_M1*
X52783999Y-80632300D03*
X54815999Y-76568300D03*
X52783999Y-76568300D03*
X55831999Y-76568300D03*
X56847999Y-76568300D03*
X53799999Y-76568300D03*
X57863999Y-76568300D03*
X53799999Y-77584300D03*
X53799999Y-78600300D03*
X55831999Y-79616300D03*
X54815999Y-77584300D03*
X57863999Y-77584300D03*
X52783999Y-78600300D03*
X54815999Y-79616300D03*
X52783999Y-79616300D03*
X57863999Y-79616300D03*
X57863999Y-80632300D03*
X56847999Y-79616300D03*
X56847999Y-77584300D03*
X56847999Y-80632300D03*
X55831999Y-80632300D03*
X54815999Y-80632300D03*
X57863999Y-78600300D03*
X56847999Y-78600300D03*
X55831999Y-78600300D03*
X53799999Y-80632300D03*
X52783999Y-77584300D03*
X55831999Y-77584300D03*
X54815999Y-78600300D03*
X53799999Y-79616300D03*
G04 #@! TO.N,/Out_B_M2*
X75643999Y-80632300D03*
X77675999Y-76568300D03*
X75643999Y-76568300D03*
X78691999Y-76568300D03*
X79707999Y-76568300D03*
X76659999Y-76568300D03*
X80723999Y-76568300D03*
X76659999Y-77584300D03*
X76659999Y-78600300D03*
X78691999Y-79616300D03*
X77675999Y-77584300D03*
X80723999Y-77584300D03*
X75643999Y-78600300D03*
X77675999Y-79616300D03*
X75643999Y-79616300D03*
X80723999Y-79616300D03*
X80723999Y-80632300D03*
X79707999Y-79616300D03*
X79707999Y-77584300D03*
X79707999Y-80632300D03*
X78691999Y-80632300D03*
X77675999Y-80632300D03*
X80723999Y-78600300D03*
X79707999Y-78600300D03*
X78691999Y-78600300D03*
X76659999Y-80632300D03*
X75643999Y-77584300D03*
X78691999Y-77584300D03*
X77675999Y-78600300D03*
X76659999Y-79616300D03*
G04 #@! TO.N,/Out_B_M3*
X130507999Y-80632300D03*
X132539999Y-76568300D03*
X130507999Y-76568300D03*
X133555999Y-76568300D03*
X134571999Y-76568300D03*
X131523999Y-76568300D03*
X135587999Y-76568300D03*
X131523999Y-77584300D03*
X131523999Y-78600300D03*
X133555999Y-79616300D03*
X132539999Y-77584300D03*
X135587999Y-77584300D03*
X130507999Y-78600300D03*
X132539999Y-79616300D03*
X130507999Y-79616300D03*
X135587999Y-79616300D03*
X135587999Y-80632300D03*
X134571999Y-79616300D03*
X134571999Y-77584300D03*
X134571999Y-80632300D03*
X133555999Y-80632300D03*
X132539999Y-80632300D03*
X135587999Y-78600300D03*
X134571999Y-78600300D03*
X133555999Y-78600300D03*
X131523999Y-80632300D03*
X130507999Y-77584300D03*
X133555999Y-77584300D03*
X132539999Y-78600300D03*
X131523999Y-79616300D03*
G04 #@! TO.N,/Out_B_M4*
X153113999Y-80632300D03*
X155145999Y-76568300D03*
X153113999Y-76568300D03*
X156161999Y-76568300D03*
X157177999Y-76568300D03*
X154129999Y-76568300D03*
X158193999Y-76568300D03*
X154129999Y-77584300D03*
X154129999Y-78600300D03*
X156161999Y-79616300D03*
X155145999Y-77584300D03*
X158193999Y-77584300D03*
X153113999Y-78600300D03*
X155145999Y-79616300D03*
X153113999Y-79616300D03*
X158193999Y-79616300D03*
X158193999Y-80632300D03*
X157177999Y-79616300D03*
X157177999Y-77584300D03*
X157177999Y-80632300D03*
X156161999Y-80632300D03*
X155145999Y-80632300D03*
X158193999Y-78600300D03*
X157177999Y-78600300D03*
X156161999Y-78600300D03*
X154129999Y-80632300D03*
X153113999Y-77584300D03*
X156161999Y-77584300D03*
X155145999Y-78600300D03*
X154129999Y-79616300D03*
G04 #@! TO.N,/Out_A_M1*
X44655999Y-80632300D03*
X45671999Y-80632300D03*
X46687999Y-80632300D03*
X47703999Y-80632300D03*
X48719999Y-80632300D03*
X49735999Y-80632300D03*
X49735999Y-79616300D03*
X48719999Y-79616300D03*
X47703999Y-79616300D03*
X46687999Y-79616300D03*
X45671999Y-79616300D03*
X44655999Y-79616300D03*
X44655999Y-78600300D03*
X45671999Y-78600300D03*
X46687999Y-78600300D03*
X47703999Y-78600300D03*
X48719999Y-78600300D03*
X49735999Y-78600300D03*
X49735999Y-77584300D03*
X48719999Y-77584300D03*
X47703999Y-77584300D03*
X46687999Y-77584300D03*
X45671999Y-77584300D03*
X44655999Y-77584300D03*
X49735999Y-76568300D03*
X48719999Y-76568300D03*
X47703999Y-76568300D03*
X46687999Y-76568300D03*
X45671999Y-76568300D03*
X44655999Y-76568300D03*
G04 #@! TO.N,/Out_A_M2*
X67515999Y-80632300D03*
X69547999Y-76568300D03*
X67515999Y-76568300D03*
X70563999Y-76568300D03*
X71579999Y-76568300D03*
X68531999Y-76568300D03*
X72595999Y-76568300D03*
X68531999Y-77584300D03*
X68531999Y-78600300D03*
X70563999Y-79616300D03*
X69547999Y-77584300D03*
X72595999Y-77584300D03*
X67515999Y-78600300D03*
X69547999Y-79616300D03*
X67515999Y-79616300D03*
X72595999Y-79616300D03*
X72595999Y-80632300D03*
X71579999Y-79616300D03*
X71579999Y-77584300D03*
X71579999Y-80632300D03*
X70563999Y-80632300D03*
X69547999Y-80632300D03*
X72595999Y-78600300D03*
X71579999Y-78600300D03*
X70563999Y-78600300D03*
X68531999Y-80632300D03*
X67515999Y-77584300D03*
X70563999Y-77584300D03*
X69547999Y-78600300D03*
X68531999Y-79616300D03*
G04 #@! TO.N,/Out_A_M3*
X121871999Y-80632300D03*
X123903999Y-76568300D03*
X121871999Y-76568300D03*
X124919999Y-76568300D03*
X125935999Y-76568300D03*
X122887999Y-76568300D03*
X126951999Y-76568300D03*
X122887999Y-77584300D03*
X122887999Y-78600300D03*
X124919999Y-79616300D03*
X123903999Y-77584300D03*
X126951999Y-77584300D03*
X121871999Y-78600300D03*
X123903999Y-79616300D03*
X121871999Y-79616300D03*
X126951999Y-79616300D03*
X126951999Y-80632300D03*
X125935999Y-79616300D03*
X125935999Y-77584300D03*
X125935999Y-80632300D03*
X124919999Y-80632300D03*
X123903999Y-80632300D03*
X126951999Y-78600300D03*
X125935999Y-78600300D03*
X124919999Y-78600300D03*
X122887999Y-80632300D03*
X121871999Y-77584300D03*
X124919999Y-77584300D03*
X123903999Y-78600300D03*
X122887999Y-79616300D03*
G04 #@! TO.N,/Out_A_M4*
X144985999Y-80632300D03*
X147017999Y-76568300D03*
X144985999Y-76568300D03*
X148033999Y-76568300D03*
X149049999Y-76568300D03*
X146001999Y-76568300D03*
X150065999Y-76568300D03*
X146001999Y-77584300D03*
X146001999Y-78600300D03*
X148033999Y-79616300D03*
X147017999Y-77584300D03*
X150065999Y-77584300D03*
X144985999Y-78600300D03*
X147017999Y-79616300D03*
X144985999Y-79616300D03*
X150065999Y-79616300D03*
X150065999Y-80632300D03*
X149049999Y-79616300D03*
X149049999Y-77584300D03*
X149049999Y-80632300D03*
X148033999Y-80632300D03*
X147017999Y-80632300D03*
X150065999Y-78600300D03*
X149049999Y-78600300D03*
X148033999Y-78600300D03*
X146001999Y-80632300D03*
X144985999Y-77584300D03*
X148033999Y-77584300D03*
X147017999Y-78600300D03*
X146001999Y-79616300D03*
G04 #@! TD*
D19*
G04 #@! TO.N,IN_A4*
X121920000Y-89763600D02*
X121920000Y-90157300D01*
X143256000Y-91948000D02*
X143256000Y-92710000D01*
X143075010Y-91767010D02*
X143256000Y-91948000D01*
X121920000Y-89763600D02*
X121920000Y-91033600D01*
X121920000Y-91033600D02*
X122653410Y-91767010D01*
X122653410Y-91767010D02*
X143075010Y-91767010D01*
G04 #@! TO.N,LS_7*
X53340000Y-143510000D02*
X53340000Y-138836400D01*
X53975000Y-144145000D02*
X53340000Y-143510000D01*
X55880000Y-144145000D02*
X53975000Y-144145000D01*
G04 #@! TO.N,IN_B1*
X58420000Y-95656400D02*
X58420000Y-94386400D01*
X58420000Y-94386400D02*
X58420000Y-92837000D01*
G04 #@! TO.N,IN_A1*
X55880000Y-95656400D02*
X55880000Y-95262700D01*
X55880000Y-94386400D02*
X55346600Y-93853000D01*
X55880000Y-95656400D02*
X55880000Y-94386400D01*
X55346600Y-93853000D02*
X43053000Y-93853000D01*
X43053000Y-93853000D02*
X42926000Y-93726000D01*
X42926000Y-93726000D02*
X42926000Y-92837000D01*
G04 #@! TO.N,IN_A2*
X64770000Y-92837000D02*
X61214000Y-92837000D01*
X60960000Y-93091000D02*
X60960000Y-95656400D01*
X61214000Y-92837000D02*
X60960000Y-93091000D01*
G04 #@! TO.N,IN_B2*
X63500000Y-94386400D02*
X64160400Y-93726000D01*
X63500000Y-95656400D02*
X63500000Y-94386400D01*
X80899000Y-93472000D02*
X80645000Y-93726000D01*
X80899000Y-92837000D02*
X80899000Y-93472000D01*
X64160400Y-93726000D02*
X80645000Y-93726000D01*
G04 #@! TO.N,LS_2*
X63500000Y-112395000D02*
X61595000Y-112395000D01*
X60960000Y-113030000D02*
X60960000Y-132943600D01*
X61595000Y-112395000D02*
X60960000Y-113030000D01*
G04 #@! TO.N,IN_B3*
X119380000Y-89763600D02*
X119380000Y-90157300D01*
X119380000Y-90157300D02*
X123075700Y-93853000D01*
X123075700Y-93853000D02*
X134747000Y-93853000D01*
X134747000Y-93853000D02*
X135001000Y-93599000D01*
X135001000Y-93599000D02*
X135001000Y-92710000D01*
G04 #@! TO.N,IN_A3*
X116840000Y-89763600D02*
X116840000Y-92710000D01*
G04 #@! TO.N,LS_1*
X63500000Y-115570000D02*
X63500000Y-132943600D01*
X63500000Y-114300000D02*
X63500000Y-115570000D01*
X64135000Y-113665000D02*
X63500000Y-114300000D01*
X66040000Y-113665000D02*
X64135000Y-113665000D01*
G04 #@! TO.N,LS_3*
X60960000Y-111125000D02*
X59055000Y-111125000D01*
X58420000Y-111760000D02*
X58420000Y-132943600D01*
X59055000Y-111125000D02*
X58420000Y-111760000D01*
G04 #@! TO.N,LS_5*
X60960000Y-141605000D02*
X59055000Y-141605000D01*
X58420000Y-140970000D02*
X58420000Y-138836400D01*
X59055000Y-141605000D02*
X58420000Y-140970000D01*
G04 #@! TO.N,LS_4*
X58420000Y-109855000D02*
X56515000Y-109855000D01*
X56515000Y-109855000D02*
X55880000Y-110490000D01*
X55880000Y-110490000D02*
X55880000Y-132943600D01*
G04 #@! TO.N,LS_6*
X55880000Y-142240000D02*
X55880000Y-138836400D01*
X58420000Y-142875000D02*
X56515000Y-142875000D01*
X56515000Y-142875000D02*
X55880000Y-142240000D01*
G04 #@! TO.N,LS_8*
X50800000Y-144780000D02*
X50800000Y-138836400D01*
X51435000Y-145415000D02*
X50800000Y-144780000D01*
X53340000Y-145415000D02*
X51435000Y-145415000D01*
G04 #@! TO.N,RX_1_Tiva*
X109220000Y-141732000D02*
X109220000Y-138836400D01*
X109728000Y-142240000D02*
X109220000Y-141732000D01*
X110490000Y-142240000D02*
X109728000Y-142240000D01*
G04 #@! TO.N,TX_1_Tiva*
X111760000Y-140716000D02*
X111760000Y-138836400D01*
X112776000Y-141224000D02*
X112268000Y-141224000D01*
X112268000Y-141224000D02*
X111760000Y-140716000D01*
G04 #@! TO.N,Net-(C10-Pad1)*
X137795000Y-109531685D02*
X138303000Y-110039685D01*
X137795000Y-108966000D02*
X137795000Y-109531685D01*
X138303000Y-110039685D02*
X138303000Y-111125000D01*
G04 #@! TO.N,IN_B4*
X142113000Y-91186000D02*
X142367000Y-91186000D01*
X157226000Y-91186000D02*
X142113000Y-91186000D01*
X157734000Y-91186000D02*
X157226000Y-91186000D01*
X157861000Y-92710000D02*
X157861000Y-91313000D01*
X157861000Y-91313000D02*
X157734000Y-91186000D01*
X124460000Y-89763600D02*
X124460000Y-91033600D01*
X124460000Y-91033600D02*
X124612400Y-91186000D01*
X124612400Y-91186000D02*
X126365000Y-91186000D01*
X126365000Y-91186000D02*
X142113000Y-91186000D01*
G04 #@! TO.N,RX_2_Tiva*
X124460000Y-130810000D02*
X124460000Y-132943600D01*
X124968000Y-130302000D02*
X124460000Y-130810000D01*
X124996500Y-130330500D02*
X124968000Y-130302000D01*
X125730000Y-130330500D02*
X124996500Y-130330500D01*
G04 #@! TO.N,TX_2_Tiva*
X127000000Y-131572000D02*
X127000000Y-132943600D01*
X130810000Y-130810000D02*
X127762000Y-130810000D01*
X127762000Y-130810000D02*
X127000000Y-131572000D01*
G04 #@! TO.N,+3V3*
X40640000Y-137160000D02*
X40640000Y-138836400D01*
X49530000Y-136652000D02*
X41148000Y-136652000D01*
X41148000Y-136652000D02*
X40640000Y-137160000D01*
X41529000Y-98806000D02*
X42573500Y-99850500D01*
X42573500Y-99850500D02*
X49530000Y-99850500D01*
X65786000Y-99850500D02*
X62738000Y-99850500D01*
X79981499Y-99850501D02*
X66351685Y-99850500D01*
X80264000Y-94516500D02*
X80264000Y-99568000D01*
X80264000Y-99568000D02*
X79981499Y-99850501D01*
X66167000Y-96139000D02*
X66167000Y-99850500D01*
X66351685Y-99850500D02*
X66167000Y-99850500D01*
X66167000Y-99850500D02*
X65786000Y-99850500D01*
X57277000Y-94488000D02*
X57277000Y-99850500D01*
X62738000Y-99850500D02*
X57277000Y-99850500D01*
X57277000Y-99850500D02*
X49530000Y-99850500D01*
D20*
X68707000Y-135509000D02*
X68707000Y-134431370D01*
X95377000Y-122616630D02*
X95377000Y-126746000D01*
X95377000Y-121539000D02*
X95377000Y-122616630D01*
X86487000Y-122616630D02*
X86487000Y-126746000D01*
X86487000Y-121539000D02*
X86487000Y-122616630D01*
X77597000Y-122616630D02*
X77597000Y-126746000D01*
X77597000Y-121539000D02*
X77597000Y-122616630D01*
X68707000Y-122616630D02*
X68707000Y-126746000D01*
X68707000Y-121539000D02*
X68707000Y-122616630D01*
X68707000Y-127889000D02*
X77597000Y-127889000D01*
X77597000Y-127889000D02*
X77597000Y-135509000D01*
X77597000Y-126746000D02*
X77597000Y-127889000D01*
X68707000Y-127889000D02*
X68707000Y-126746000D01*
X68707000Y-134431370D02*
X68707000Y-127889000D01*
X77597000Y-127889000D02*
X86487000Y-127889000D01*
X86487000Y-126746000D02*
X86487000Y-127889000D01*
X86487000Y-127889000D02*
X86487000Y-135509000D01*
X86487000Y-127889000D02*
X95377000Y-127889000D01*
X95377000Y-126746000D02*
X95377000Y-127889000D01*
X95377000Y-127889000D02*
X95377000Y-135509000D01*
X95377000Y-127889000D02*
X102870000Y-127889000D01*
X68707000Y-127889000D02*
X65405000Y-127889000D01*
X106680000Y-109027630D02*
X106680000Y-115570000D01*
X106680000Y-107950000D02*
X106680000Y-109027630D01*
X106680000Y-115570000D02*
X102870000Y-115570000D01*
X119380000Y-109027630D02*
X119380000Y-115570000D01*
X119380000Y-107950000D02*
X119380000Y-109027630D01*
X126873000Y-115570000D02*
X119380000Y-115570000D01*
X119380000Y-115570000D02*
X106680000Y-115570000D01*
X119380000Y-115570000D02*
X119380000Y-124460000D01*
X106680000Y-115570000D02*
X106680000Y-124460000D01*
D19*
X143129000Y-95250000D02*
X142240000Y-95250000D01*
X157861000Y-94361000D02*
X157861000Y-95250000D01*
X157861000Y-95250000D02*
X143129000Y-95250000D01*
D20*
G04 #@! TO.N,12vLog*
X102489000Y-77343000D02*
X99441000Y-80391000D01*
X102489000Y-62865000D02*
X102489000Y-77343000D01*
X107442000Y-77343000D02*
X110490000Y-80391000D01*
X102489000Y-77343000D02*
X107442000Y-77343000D01*
G04 #@! TO.N,+5V*
X139700000Y-100838000D02*
X138811000Y-99949000D01*
X139700000Y-117221000D02*
X139700000Y-100838000D01*
X138811000Y-99949000D02*
X111633000Y-99949000D01*
D19*
G04 #@! TO.N,DIRECTION_SW*
X63500000Y-137160000D02*
X63500000Y-138836400D01*
X54610000Y-135890000D02*
X55245000Y-136525000D01*
X55245000Y-136525000D02*
X62865000Y-136525000D01*
X62865000Y-136525000D02*
X63500000Y-137160000D01*
X41910000Y-111760000D02*
X43541000Y-111760000D01*
X54610000Y-112395000D02*
X54610000Y-113792000D01*
X54610000Y-113792000D02*
X54610000Y-135890000D01*
X53975000Y-111760000D02*
X54610000Y-112395000D01*
X53594000Y-111760000D02*
X53975000Y-111760000D01*
X43541000Y-111760000D02*
X53594000Y-111760000D01*
G04 #@! TO.N,ENC_1_PWM*
X111760000Y-95656400D02*
X111760000Y-95694500D01*
X111760000Y-95694500D02*
X113093500Y-97028000D01*
G04 #@! TO.N,ENC_2_PWM*
X115697000Y-97053400D02*
X114300000Y-95656400D01*
X115697000Y-97126500D02*
X115697000Y-97053400D01*
G04 #@! TO.N,ENC_3_PWM*
X114300000Y-137160000D02*
X114300000Y-138836400D01*
X109220000Y-136906000D02*
X114046000Y-136906000D01*
X114046000Y-136906000D02*
X114300000Y-137160000D01*
G04 #@! TO.N,ENC_4_PWM*
X116840000Y-137160000D02*
X116840000Y-138836400D01*
X121920000Y-136906000D02*
X117094000Y-136906000D01*
X117094000Y-136906000D02*
X116840000Y-137160000D01*
G04 #@! TO.N,I_SENSE_1*
X53340000Y-89763600D02*
X53340000Y-90170000D01*
X59690000Y-92329000D02*
X59690000Y-95700315D01*
X59309000Y-91948000D02*
X59690000Y-92329000D01*
X54254400Y-91948000D02*
X59309000Y-91948000D01*
X53340000Y-89763600D02*
X53340000Y-91033600D01*
X53340000Y-91033600D02*
X54254400Y-91948000D01*
X59690000Y-96266000D02*
X59690000Y-97155000D01*
X59690000Y-95700315D02*
X59690000Y-96266000D01*
G04 #@! TO.N,I_SENSE_2*
X55880000Y-89763600D02*
X55880000Y-90157300D01*
X81915000Y-91821000D02*
X81915000Y-96393000D01*
X81915000Y-91440000D02*
X81915000Y-91821000D01*
X81788000Y-91313000D02*
X81915000Y-91440000D01*
X56159400Y-91313000D02*
X81788000Y-91313000D01*
X55880000Y-89763600D02*
X55880000Y-91033600D01*
X55880000Y-91033600D02*
X56159400Y-91313000D01*
X81915000Y-96393000D02*
X81915000Y-97028000D01*
G04 #@! TO.N,I_SENSE_3*
X114300000Y-132943600D02*
X114300000Y-132549900D01*
X114300000Y-132549900D02*
X114300000Y-131445000D01*
X114300000Y-131445000D02*
X114300000Y-130302000D01*
X114300000Y-130302000D02*
X114300000Y-128651000D01*
X114300000Y-128651000D02*
X115189000Y-127762000D01*
X115189000Y-127762000D02*
X117729000Y-127762000D01*
X117729000Y-127762000D02*
X124841000Y-127762000D01*
X124841000Y-127762000D02*
X126746000Y-127762000D01*
X126746000Y-127762000D02*
X138430000Y-127762000D01*
X138430000Y-127762000D02*
X139065000Y-127762000D01*
X139065000Y-127762000D02*
X140462000Y-127762000D01*
X140462000Y-127762000D02*
X140589000Y-127762000D01*
X140589000Y-127762000D02*
X141478000Y-126873000D01*
X141859000Y-126492000D02*
X141859000Y-101346000D01*
X141478000Y-126873000D02*
X141859000Y-126492000D01*
X141859000Y-101346000D02*
X141859000Y-100457000D01*
X141859000Y-100457000D02*
X141478000Y-100076000D01*
X141478000Y-100076000D02*
X140462000Y-100076000D01*
G04 #@! TO.N,I_SENSE_4*
X116840000Y-131673600D02*
X116840000Y-132943600D01*
X142494000Y-101346000D02*
X142494000Y-126678672D01*
X142494000Y-126678672D02*
X140775672Y-128397000D01*
X140775672Y-128397000D02*
X117602000Y-128397000D01*
X117602000Y-128397000D02*
X116840000Y-129159000D01*
X116840000Y-129159000D02*
X116840000Y-131673600D01*
X142494000Y-101346000D02*
X142494000Y-100457000D01*
X142494000Y-100457000D02*
X142494000Y-100330000D01*
X142494000Y-100457000D02*
X142494000Y-100231500D01*
X142494000Y-100231500D02*
X143030500Y-99695000D01*
X155898315Y-99695000D02*
X152908000Y-99695000D01*
X156464000Y-99695000D02*
X155898315Y-99695000D01*
X143030500Y-99695000D02*
X152908000Y-99695000D01*
X152908000Y-99695000D02*
X153035000Y-99695000D01*
G04 #@! TO.N,LED_IND_SW_1*
X106680000Y-89763600D02*
X106680000Y-91033600D01*
X106680000Y-91033600D02*
X106146600Y-91567000D01*
X106146600Y-91567000D02*
X101794328Y-91567000D01*
X101794328Y-91567000D02*
X100146000Y-93215328D01*
X100146000Y-93215328D02*
X100146000Y-100768000D01*
G04 #@! TO.N,LED_IND_SW_2*
X100936500Y-101600000D02*
X100936500Y-102743000D01*
X100936500Y-93246500D02*
X100936500Y-101600000D01*
X101981000Y-92202000D02*
X100936500Y-93246500D01*
X108051600Y-92202000D02*
X101981000Y-92202000D01*
X109220000Y-89763600D02*
X109220000Y-91033600D01*
X109220000Y-91033600D02*
X108051600Y-92202000D01*
G04 #@! TO.N,M1_PWM*
X40640000Y-96926400D02*
X40640000Y-95656400D01*
X40894000Y-97790000D02*
X40640000Y-97536000D01*
X42389500Y-97790000D02*
X40894000Y-97790000D01*
X40640000Y-97536000D02*
X40640000Y-96926400D01*
G04 #@! TO.N,M2_PWM*
X43180000Y-98806000D02*
X43180000Y-95656400D01*
X43434000Y-99060000D02*
X43180000Y-98806000D01*
X43434000Y-99060000D02*
X56388000Y-99060000D01*
G04 #@! TO.N,M3_PWM*
X106680000Y-97409000D02*
X106680000Y-95656400D01*
X106680000Y-97853500D02*
X106680000Y-97409000D01*
X106743500Y-97917000D02*
X106680000Y-97853500D01*
X118427499Y-97917001D02*
X106743500Y-97917000D01*
X120586500Y-97663000D02*
X118681500Y-97663000D01*
X118681500Y-97663000D02*
X118427499Y-97917001D01*
G04 #@! TO.N,M4_PWM*
X106019600Y-98806000D02*
X144780000Y-98806000D01*
X104394000Y-98806000D02*
X106019600Y-98806000D01*
X104140000Y-95656400D02*
X104140000Y-98552000D01*
X104140000Y-98552000D02*
X104394000Y-98806000D01*
G04 #@! TO.N,M1_SW*
X48260000Y-97790000D02*
X48260000Y-95656400D01*
G04 #@! TO.N,M2_SW*
X50800000Y-97790000D02*
X50800000Y-95656400D01*
G04 #@! TO.N,M4_SW*
X50800000Y-132943600D02*
X50800000Y-128270000D01*
G04 #@! TO.N,M3_SW*
X48260000Y-132943600D02*
X48260000Y-128270000D01*
D20*
G04 #@! TO.N,+12V*
X62484000Y-64008000D02*
X62484000Y-65570000D01*
X62484000Y-65570000D02*
X62484000Y-83058000D01*
X140081000Y-64008000D02*
X140081000Y-65570000D01*
X140081000Y-65570000D02*
X140081000Y-83185000D01*
D19*
G04 #@! TO.N,LED_IND_SW_ERR*
X101727000Y-103505000D02*
X101727000Y-104648000D01*
X101727000Y-93345000D02*
X101727000Y-103505000D01*
X102235000Y-92837000D02*
X101727000Y-93345000D01*
X109956600Y-92837000D02*
X102235000Y-92837000D01*
X111760000Y-89763600D02*
X111760000Y-91033600D01*
X111760000Y-91033600D02*
X109956600Y-92837000D01*
G04 #@! TO.N,Net-(U3-PadPH1)*
X121920000Y-95656400D02*
X121920000Y-95190328D01*
G04 #@! TO.N,Net-(U3-PadPH0)*
X119380000Y-95262700D02*
X119380000Y-94615000D01*
X119380000Y-95656400D02*
X119380000Y-95262700D01*
G04 #@! TD*
D21*
G04 #@! TO.N,/Out_A_M1*
G36*
X50419000Y-81153000D02*
X43815000Y-81153000D01*
X43815000Y-59817000D01*
X50419000Y-59817000D01*
X50419000Y-81153000D01*
X50419000Y-81153000D01*
G37*
X50419000Y-81153000D02*
X43815000Y-81153000D01*
X43815000Y-59817000D01*
X50419000Y-59817000D01*
X50419000Y-81153000D01*
G04 #@! TO.N,/Out_B_M1*
G36*
X58546246Y-81026000D02*
X51816000Y-81026000D01*
X51816000Y-59817000D01*
X58420749Y-59817000D01*
X58546246Y-81026000D01*
X58546246Y-81026000D01*
G37*
X58546246Y-81026000D02*
X51816000Y-81026000D01*
X51816000Y-59817000D01*
X58420749Y-59817000D01*
X58546246Y-81026000D01*
G04 #@! TO.N,/Out_A_M2*
G36*
X73152000Y-81153000D02*
X66802000Y-81153000D01*
X66802000Y-59817000D01*
X73152000Y-59817000D01*
X73152000Y-81153000D01*
X73152000Y-81153000D01*
G37*
X73152000Y-81153000D02*
X66802000Y-81153000D01*
X66802000Y-59817000D01*
X73152000Y-59817000D01*
X73152000Y-81153000D01*
G04 #@! TO.N,/Out_B_M2*
G36*
X81407000Y-81153000D02*
X74549000Y-81153000D01*
X74549000Y-59817000D01*
X81407000Y-59817000D01*
X81407000Y-81153000D01*
X81407000Y-81153000D01*
G37*
X81407000Y-81153000D02*
X74549000Y-81153000D01*
X74549000Y-59817000D01*
X81407000Y-59817000D01*
X81407000Y-81153000D01*
G04 #@! TO.N,/Out_A_M3*
G36*
X127635000Y-81153000D02*
X121285000Y-81153000D01*
X121285000Y-59817000D01*
X127635000Y-59817000D01*
X127635000Y-81153000D01*
X127635000Y-81153000D01*
G37*
X127635000Y-81153000D02*
X121285000Y-81153000D01*
X121285000Y-59817000D01*
X127635000Y-59817000D01*
X127635000Y-81153000D01*
G04 #@! TO.N,/Out_B_M3*
G36*
X135890000Y-81153000D02*
X129159000Y-81153000D01*
X129159000Y-59817000D01*
X135890000Y-59817000D01*
X135890000Y-81153000D01*
X135890000Y-81153000D01*
G37*
X135890000Y-81153000D02*
X129159000Y-81153000D01*
X129159000Y-59817000D01*
X135890000Y-59817000D01*
X135890000Y-81153000D01*
G04 #@! TO.N,/Out_A_M4*
G36*
X150749000Y-81153000D02*
X144145000Y-81153000D01*
X144145000Y-59817000D01*
X150749000Y-59817000D01*
X150749000Y-81153000D01*
X150749000Y-81153000D01*
G37*
X150749000Y-81153000D02*
X144145000Y-81153000D01*
X144145000Y-59817000D01*
X150749000Y-59817000D01*
X150749000Y-81153000D01*
G04 #@! TO.N,/Out_B_M4*
G36*
X158750000Y-81153000D02*
X152019000Y-81153000D01*
X152019000Y-59817000D01*
X158750000Y-59817000D01*
X158750000Y-81153000D01*
X158750000Y-81153000D01*
G37*
X158750000Y-81153000D02*
X152019000Y-81153000D01*
X152019000Y-59817000D01*
X158750000Y-59817000D01*
X158750000Y-81153000D01*
G04 #@! TO.N,+12V*
G36*
X97917000Y-82042000D02*
X97926667Y-82090601D01*
X97954197Y-82131803D01*
X97995399Y-82159333D01*
X98044000Y-82169000D01*
X158066999Y-82169000D01*
X158066999Y-87503000D01*
X45848561Y-87503000D01*
X45800157Y-82169000D01*
X91186000Y-82169000D01*
X91234601Y-82159333D01*
X91275803Y-82131803D01*
X91303333Y-82090601D01*
X91313000Y-82042000D01*
X91313000Y-59817000D01*
X97917000Y-59817000D01*
X97917000Y-82042000D01*
X97917000Y-82042000D01*
G37*
X97917000Y-82042000D02*
X97926667Y-82090601D01*
X97954197Y-82131803D01*
X97995399Y-82159333D01*
X98044000Y-82169000D01*
X158066999Y-82169000D01*
X158066999Y-87503000D01*
X45848561Y-87503000D01*
X45800157Y-82169000D01*
X91186000Y-82169000D01*
X91234601Y-82159333D01*
X91275803Y-82131803D01*
X91303333Y-82090601D01*
X91313000Y-82042000D01*
X91313000Y-59817000D01*
X97917000Y-59817000D01*
X97917000Y-82042000D01*
G04 #@! TO.N,GND*
G36*
X105726891Y-88416791D02*
X105586543Y-88626835D01*
X105537260Y-88874600D01*
X105537260Y-90652600D01*
X105554943Y-90741500D01*
X101875631Y-90741500D01*
X101794328Y-90725328D01*
X101472233Y-90789396D01*
X101389244Y-90844848D01*
X101199176Y-90971848D01*
X101153121Y-91040774D01*
X99619777Y-92574119D01*
X99550848Y-92620176D01*
X99368396Y-92893235D01*
X99325955Y-93106603D01*
X99304328Y-93215328D01*
X99320500Y-93296630D01*
X99320501Y-100129788D01*
X99268569Y-100181720D01*
X99111000Y-100562126D01*
X99111000Y-100973874D01*
X99268569Y-101354280D01*
X99559720Y-101645431D01*
X99940126Y-101803000D01*
X100111000Y-101803000D01*
X100111000Y-102104789D01*
X100059069Y-102156720D01*
X99901500Y-102537126D01*
X99901500Y-102948874D01*
X100059069Y-103329280D01*
X100350220Y-103620431D01*
X100730626Y-103778000D01*
X100901500Y-103778000D01*
X100901500Y-104009789D01*
X100849569Y-104061720D01*
X100692000Y-104442126D01*
X100692000Y-104853874D01*
X100849569Y-105234280D01*
X101140720Y-105525431D01*
X101521126Y-105683000D01*
X101932874Y-105683000D01*
X102313280Y-105525431D01*
X102604431Y-105234280D01*
X102762000Y-104853874D01*
X102762000Y-104442126D01*
X102604431Y-104061720D01*
X102552500Y-104009789D01*
X102552500Y-93686932D01*
X102576933Y-93662500D01*
X109875299Y-93662500D01*
X109956600Y-93678672D01*
X110037901Y-93662500D01*
X110037903Y-93662500D01*
X110278694Y-93614604D01*
X110551752Y-93432152D01*
X110597809Y-93363223D01*
X112286226Y-91674807D01*
X112355152Y-91628752D01*
X112477988Y-91444916D01*
X112537604Y-91355695D01*
X112566971Y-91208056D01*
X112713109Y-91110409D01*
X112853457Y-90900365D01*
X112902740Y-90652600D01*
X112902740Y-88874600D01*
X112853457Y-88626835D01*
X112713109Y-88416791D01*
X112676007Y-88392000D01*
X113383993Y-88392000D01*
X113346891Y-88416791D01*
X113206543Y-88626835D01*
X113157260Y-88874600D01*
X113157260Y-90652600D01*
X113206543Y-90900365D01*
X113346891Y-91110409D01*
X113556935Y-91250757D01*
X113804700Y-91300040D01*
X114795300Y-91300040D01*
X115043065Y-91250757D01*
X115253109Y-91110409D01*
X115393457Y-90900365D01*
X115442740Y-90652600D01*
X115442740Y-88874600D01*
X115393457Y-88626835D01*
X115253109Y-88416791D01*
X115216007Y-88392000D01*
X115923993Y-88392000D01*
X115886891Y-88416791D01*
X115746543Y-88626835D01*
X115697260Y-88874600D01*
X115697260Y-90652600D01*
X115746543Y-90900365D01*
X115886891Y-91110409D01*
X116014500Y-91195676D01*
X116014501Y-92071788D01*
X115962569Y-92123720D01*
X115805000Y-92504126D01*
X115805000Y-92915874D01*
X115962569Y-93296280D01*
X116253720Y-93587431D01*
X116634126Y-93745000D01*
X117045874Y-93745000D01*
X117426280Y-93587431D01*
X117717431Y-93296280D01*
X117875000Y-92915874D01*
X117875000Y-92504126D01*
X117717431Y-92123720D01*
X117665500Y-92071789D01*
X117665500Y-91195675D01*
X117793109Y-91110409D01*
X117933457Y-90900365D01*
X117982740Y-90652600D01*
X117982740Y-88874600D01*
X117933457Y-88626835D01*
X117793109Y-88416791D01*
X117756007Y-88392000D01*
X118463993Y-88392000D01*
X118426891Y-88416791D01*
X118286543Y-88626835D01*
X118237260Y-88874600D01*
X118237260Y-90652600D01*
X118286543Y-90900365D01*
X118426891Y-91110409D01*
X118636935Y-91250757D01*
X118884700Y-91300040D01*
X119355308Y-91300040D01*
X122175227Y-94119960D01*
X121424700Y-94119960D01*
X121176935Y-94169243D01*
X120966891Y-94309591D01*
X120826543Y-94519635D01*
X120777260Y-94767400D01*
X120777260Y-96545400D01*
X120793808Y-96628594D01*
X120792374Y-96628000D01*
X120506310Y-96628000D01*
X120522740Y-96545400D01*
X120522740Y-94767400D01*
X120473457Y-94519635D01*
X120333109Y-94309591D01*
X120123065Y-94169243D01*
X120067604Y-94158211D01*
X119975152Y-94019848D01*
X119702094Y-93837396D01*
X119380000Y-93773328D01*
X119057907Y-93837396D01*
X118784849Y-94019848D01*
X118692398Y-94158211D01*
X118636935Y-94169243D01*
X118426891Y-94309591D01*
X118286543Y-94519635D01*
X118237260Y-94767400D01*
X118237260Y-96545400D01*
X118286543Y-96793165D01*
X118351638Y-96890586D01*
X118086348Y-97067848D01*
X118070543Y-97091502D01*
X117660970Y-97091502D01*
X117793109Y-97003209D01*
X117933457Y-96793165D01*
X117982740Y-96545400D01*
X117982740Y-94767400D01*
X117933457Y-94519635D01*
X117793109Y-94309591D01*
X117583065Y-94169243D01*
X117335300Y-94119960D01*
X116344700Y-94119960D01*
X116096935Y-94169243D01*
X115886891Y-94309591D01*
X115746543Y-94519635D01*
X115697260Y-94767400D01*
X115697260Y-95886227D01*
X115442740Y-95631708D01*
X115442740Y-94767400D01*
X115393457Y-94519635D01*
X115253109Y-94309591D01*
X115043065Y-94169243D01*
X114795300Y-94119960D01*
X113804700Y-94119960D01*
X113556935Y-94169243D01*
X113346891Y-94309591D01*
X113206543Y-94519635D01*
X113157260Y-94767400D01*
X113157260Y-95924327D01*
X112902740Y-95669808D01*
X112902740Y-94767400D01*
X112853457Y-94519635D01*
X112713109Y-94309591D01*
X112503065Y-94169243D01*
X112255300Y-94119960D01*
X111264700Y-94119960D01*
X111016935Y-94169243D01*
X110806891Y-94309591D01*
X110666543Y-94519635D01*
X110617260Y-94767400D01*
X110617260Y-96545400D01*
X110666543Y-96793165D01*
X110806891Y-97003209D01*
X110939028Y-97091501D01*
X110040972Y-97091501D01*
X110173109Y-97003209D01*
X110313457Y-96793165D01*
X110362740Y-96545400D01*
X110362740Y-94767400D01*
X110313457Y-94519635D01*
X110173109Y-94309591D01*
X109963065Y-94169243D01*
X109715300Y-94119960D01*
X108724700Y-94119960D01*
X108476935Y-94169243D01*
X108266891Y-94309591D01*
X108126543Y-94519635D01*
X108077260Y-94767400D01*
X108077260Y-96545400D01*
X108126543Y-96793165D01*
X108266891Y-97003209D01*
X108399027Y-97091500D01*
X107505500Y-97091500D01*
X107505500Y-97088475D01*
X107633109Y-97003209D01*
X107773457Y-96793165D01*
X107822740Y-96545400D01*
X107822740Y-94767400D01*
X107773457Y-94519635D01*
X107633109Y-94309591D01*
X107423065Y-94169243D01*
X107175300Y-94119960D01*
X106184700Y-94119960D01*
X105936935Y-94169243D01*
X105726891Y-94309591D01*
X105586543Y-94519635D01*
X105537260Y-94767400D01*
X105537260Y-96545400D01*
X105586543Y-96793165D01*
X105726891Y-97003209D01*
X105854500Y-97088475D01*
X105854500Y-97772199D01*
X105838328Y-97853500D01*
X105854500Y-97934801D01*
X105854500Y-97934802D01*
X105863590Y-97980500D01*
X104965500Y-97980500D01*
X104965500Y-97088475D01*
X105093109Y-97003209D01*
X105233457Y-96793165D01*
X105282740Y-96545400D01*
X105282740Y-94767400D01*
X105233457Y-94519635D01*
X105093109Y-94309591D01*
X104883065Y-94169243D01*
X104635300Y-94119960D01*
X103644700Y-94119960D01*
X103396935Y-94169243D01*
X103186891Y-94309591D01*
X103046543Y-94519635D01*
X102997260Y-94767400D01*
X102997260Y-96545400D01*
X103046543Y-96793165D01*
X103186891Y-97003209D01*
X103314500Y-97088476D01*
X103314501Y-98470694D01*
X103298328Y-98552000D01*
X103352632Y-98825000D01*
X103362397Y-98874094D01*
X103544849Y-99147152D01*
X103613775Y-99193207D01*
X103752791Y-99332223D01*
X103798848Y-99401152D01*
X104071906Y-99583604D01*
X104312697Y-99631500D01*
X104312702Y-99631500D01*
X104393999Y-99647671D01*
X104475297Y-99631500D01*
X110644237Y-99631500D01*
X110598000Y-99743126D01*
X110598000Y-99944455D01*
X110597096Y-99949000D01*
X110598000Y-99953545D01*
X110598000Y-100154874D01*
X110675045Y-100340877D01*
X110675949Y-100345423D01*
X110678524Y-100349277D01*
X110755569Y-100535280D01*
X110897930Y-100677641D01*
X110900505Y-100681495D01*
X110904359Y-100684070D01*
X111046720Y-100826431D01*
X111232723Y-100903476D01*
X111236577Y-100906051D01*
X111241123Y-100906955D01*
X111427126Y-100984000D01*
X111838874Y-100984000D01*
X111884744Y-100965000D01*
X138390160Y-100965000D01*
X138684001Y-101258842D01*
X138684001Y-108407651D01*
X138672431Y-108379720D01*
X138381280Y-108088569D01*
X138000874Y-107931000D01*
X137589126Y-107931000D01*
X137208720Y-108088569D01*
X136917569Y-108379720D01*
X136760000Y-108760126D01*
X136760000Y-109171874D01*
X136917569Y-109552280D01*
X136967321Y-109602032D01*
X136969500Y-109612986D01*
X136969500Y-109612988D01*
X137017396Y-109853779D01*
X137199849Y-110126837D01*
X137268774Y-110172892D01*
X137477500Y-110381618D01*
X137477500Y-110486789D01*
X137425569Y-110538720D01*
X137268000Y-110919126D01*
X137268000Y-111330874D01*
X137425569Y-111711280D01*
X137716720Y-112002431D01*
X138097126Y-112160000D01*
X138508874Y-112160000D01*
X138684000Y-112087460D01*
X138684000Y-116969256D01*
X138665000Y-117015126D01*
X138665000Y-117426874D01*
X138742045Y-117612878D01*
X138742949Y-117617422D01*
X138745523Y-117621275D01*
X138822569Y-117807280D01*
X138964930Y-117949641D01*
X138967505Y-117953495D01*
X138971359Y-117956070D01*
X139113720Y-118098431D01*
X139299723Y-118175476D01*
X139303577Y-118178051D01*
X139308123Y-118178955D01*
X139494126Y-118256000D01*
X139695455Y-118256000D01*
X139700000Y-118256904D01*
X139704545Y-118256000D01*
X139905874Y-118256000D01*
X140091878Y-118178955D01*
X140096422Y-118178051D01*
X140100275Y-118175477D01*
X140286280Y-118098431D01*
X140428641Y-117956070D01*
X140432495Y-117953495D01*
X140435070Y-117949641D01*
X140577431Y-117807280D01*
X140654476Y-117621277D01*
X140657051Y-117617423D01*
X140657955Y-117612877D01*
X140735000Y-117426874D01*
X140735000Y-117015126D01*
X140716000Y-116969256D01*
X140716000Y-101091066D01*
X141033500Y-100959553D01*
X141033500Y-101427302D01*
X141033501Y-101427307D01*
X141033500Y-126150068D01*
X140951775Y-126231792D01*
X140951773Y-126231794D01*
X140247068Y-126936500D01*
X115270303Y-126936500D01*
X115189000Y-126920328D01*
X114866905Y-126984396D01*
X114816274Y-127018227D01*
X114593848Y-127166848D01*
X114547793Y-127235774D01*
X113773775Y-128009793D01*
X113704849Y-128055848D01*
X113658794Y-128124774D01*
X113522397Y-128328906D01*
X113458328Y-128651000D01*
X113474501Y-128732306D01*
X113474500Y-130383302D01*
X113474501Y-130383306D01*
X113474500Y-131511525D01*
X113346891Y-131596791D01*
X113206543Y-131806835D01*
X113157260Y-132054600D01*
X113157260Y-133832600D01*
X113206543Y-134080365D01*
X113346891Y-134290409D01*
X113556935Y-134430757D01*
X113804700Y-134480040D01*
X114795300Y-134480040D01*
X115043065Y-134430757D01*
X115253109Y-134290409D01*
X115393457Y-134080365D01*
X115442740Y-133832600D01*
X115442740Y-132054600D01*
X115393457Y-131806835D01*
X115253109Y-131596791D01*
X115125500Y-131511525D01*
X115125500Y-128992932D01*
X115530933Y-128587500D01*
X116229044Y-128587500D01*
X116062396Y-128836907D01*
X116014500Y-129077697D01*
X115998328Y-129159000D01*
X116014500Y-129240302D01*
X116014501Y-131511524D01*
X115886891Y-131596791D01*
X115746543Y-131806835D01*
X115697260Y-132054600D01*
X115697260Y-133832600D01*
X115746543Y-134080365D01*
X115886891Y-134290409D01*
X116096935Y-134430757D01*
X116344700Y-134480040D01*
X117335300Y-134480040D01*
X117583065Y-134430757D01*
X117793109Y-134290409D01*
X117933457Y-134080365D01*
X117982740Y-133832600D01*
X117982740Y-132054600D01*
X118237260Y-132054600D01*
X118237260Y-133832600D01*
X118286543Y-134080365D01*
X118426891Y-134290409D01*
X118636935Y-134430757D01*
X118884700Y-134480040D01*
X119875300Y-134480040D01*
X120123065Y-134430757D01*
X120333109Y-134290409D01*
X120473457Y-134080365D01*
X120522740Y-133832600D01*
X120522740Y-132054600D01*
X120777260Y-132054600D01*
X120777260Y-133832600D01*
X120826543Y-134080365D01*
X120966891Y-134290409D01*
X121176935Y-134430757D01*
X121424700Y-134480040D01*
X122415300Y-134480040D01*
X122663065Y-134430757D01*
X122873109Y-134290409D01*
X123013457Y-134080365D01*
X123062740Y-133832600D01*
X123062740Y-132054600D01*
X123317260Y-132054600D01*
X123317260Y-133832600D01*
X123366543Y-134080365D01*
X123506891Y-134290409D01*
X123716935Y-134430757D01*
X123964700Y-134480040D01*
X124955300Y-134480040D01*
X125203065Y-134430757D01*
X125413109Y-134290409D01*
X125553457Y-134080365D01*
X125602740Y-133832600D01*
X125602740Y-132054600D01*
X125553457Y-131806835D01*
X125413109Y-131596791D01*
X125285500Y-131511525D01*
X125285500Y-131266658D01*
X125524126Y-131365500D01*
X125935874Y-131365500D01*
X126225249Y-131245637D01*
X126222396Y-131249907D01*
X126181314Y-131456443D01*
X126169722Y-131514717D01*
X126046891Y-131596791D01*
X125906543Y-131806835D01*
X125857260Y-132054600D01*
X125857260Y-133832600D01*
X125906543Y-134080365D01*
X126046891Y-134290409D01*
X126256935Y-134430757D01*
X126504700Y-134480040D01*
X127495300Y-134480040D01*
X127743065Y-134430757D01*
X127953109Y-134290409D01*
X128093457Y-134080365D01*
X128142740Y-133832600D01*
X128142740Y-132054600D01*
X128093457Y-131806835D01*
X128029025Y-131710407D01*
X128103933Y-131635500D01*
X130171789Y-131635500D01*
X130223720Y-131687431D01*
X130604126Y-131845000D01*
X131015874Y-131845000D01*
X131396280Y-131687431D01*
X131687431Y-131396280D01*
X131845000Y-131015874D01*
X131845000Y-130604126D01*
X131687431Y-130223720D01*
X131396280Y-129932569D01*
X131015874Y-129775000D01*
X130604126Y-129775000D01*
X130223720Y-129932569D01*
X130171789Y-129984500D01*
X127843303Y-129984500D01*
X127762000Y-129968328D01*
X127439905Y-130032396D01*
X127303689Y-130123414D01*
X127166848Y-130214848D01*
X127120793Y-130283774D01*
X126692031Y-130712536D01*
X126765000Y-130536374D01*
X126765000Y-130124626D01*
X126607431Y-129744220D01*
X126316280Y-129453069D01*
X125935874Y-129295500D01*
X125524126Y-129295500D01*
X125143720Y-129453069D01*
X125108511Y-129488278D01*
X124968000Y-129460328D01*
X124743421Y-129505000D01*
X124645905Y-129524397D01*
X124441773Y-129660794D01*
X124441769Y-129660798D01*
X124372849Y-129706849D01*
X124326797Y-129775770D01*
X123933776Y-130168791D01*
X123864848Y-130214848D01*
X123682396Y-130487907D01*
X123655307Y-130624094D01*
X123618328Y-130810000D01*
X123634500Y-130891302D01*
X123634500Y-131511525D01*
X123506891Y-131596791D01*
X123366543Y-131806835D01*
X123317260Y-132054600D01*
X123062740Y-132054600D01*
X123013457Y-131806835D01*
X122873109Y-131596791D01*
X122663065Y-131456443D01*
X122415300Y-131407160D01*
X121424700Y-131407160D01*
X121176935Y-131456443D01*
X120966891Y-131596791D01*
X120826543Y-131806835D01*
X120777260Y-132054600D01*
X120522740Y-132054600D01*
X120473457Y-131806835D01*
X120333109Y-131596791D01*
X120123065Y-131456443D01*
X119875300Y-131407160D01*
X118884700Y-131407160D01*
X118636935Y-131456443D01*
X118426891Y-131596791D01*
X118286543Y-131806835D01*
X118237260Y-132054600D01*
X117982740Y-132054600D01*
X117933457Y-131806835D01*
X117793109Y-131596791D01*
X117665500Y-131511525D01*
X117665500Y-129500932D01*
X117943933Y-129222500D01*
X140694371Y-129222500D01*
X140775672Y-129238672D01*
X140856973Y-129222500D01*
X140856975Y-129222500D01*
X141097766Y-129174604D01*
X141370824Y-128992152D01*
X141416881Y-128923223D01*
X143020226Y-127319879D01*
X143089152Y-127273824D01*
X143264386Y-127011569D01*
X143271604Y-127000767D01*
X143335672Y-126678672D01*
X143319500Y-126597369D01*
X143319500Y-109450119D01*
X157353000Y-109450119D01*
X157353000Y-110005881D01*
X157565680Y-110519337D01*
X157958663Y-110912320D01*
X158165513Y-110998000D01*
X157958663Y-111083680D01*
X157565680Y-111476663D01*
X157353000Y-111990119D01*
X157353000Y-112545881D01*
X157565680Y-113059337D01*
X157958663Y-113452320D01*
X158472119Y-113665000D01*
X159027881Y-113665000D01*
X159541337Y-113452320D01*
X159934320Y-113059337D01*
X160147000Y-112545881D01*
X160147000Y-111990119D01*
X159934320Y-111476663D01*
X159541337Y-111083680D01*
X159334487Y-110998000D01*
X159541337Y-110912320D01*
X159934320Y-110519337D01*
X160147000Y-110005881D01*
X160147000Y-109450119D01*
X159934320Y-108936663D01*
X159541337Y-108543680D01*
X159027881Y-108331000D01*
X158472119Y-108331000D01*
X157958663Y-108543680D01*
X157565680Y-108936663D01*
X157353000Y-109450119D01*
X143319500Y-109450119D01*
X143319500Y-101830119D01*
X157353000Y-101830119D01*
X157353000Y-102385881D01*
X157565680Y-102899337D01*
X157958663Y-103292320D01*
X158165513Y-103378000D01*
X157958663Y-103463680D01*
X157565680Y-103856663D01*
X157353000Y-104370119D01*
X157353000Y-104925881D01*
X157565680Y-105439337D01*
X157958663Y-105832320D01*
X158472119Y-106045000D01*
X159027881Y-106045000D01*
X159541337Y-105832320D01*
X159934320Y-105439337D01*
X160147000Y-104925881D01*
X160147000Y-104370119D01*
X159934320Y-103856663D01*
X159541337Y-103463680D01*
X159334487Y-103378000D01*
X159541337Y-103292320D01*
X159934320Y-102899337D01*
X160147000Y-102385881D01*
X160147000Y-101830119D01*
X159934320Y-101316663D01*
X159541337Y-100923680D01*
X159027881Y-100711000D01*
X158472119Y-100711000D01*
X157958663Y-100923680D01*
X157565680Y-101316663D01*
X157353000Y-101830119D01*
X143319500Y-101830119D01*
X143319500Y-100573432D01*
X143372433Y-100520500D01*
X155825789Y-100520500D01*
X155877720Y-100572431D01*
X156258126Y-100730000D01*
X156669874Y-100730000D01*
X157050280Y-100572431D01*
X157341431Y-100281280D01*
X157499000Y-99900874D01*
X157499000Y-99489126D01*
X157341431Y-99108720D01*
X157050280Y-98817569D01*
X156669874Y-98660000D01*
X156258126Y-98660000D01*
X155877720Y-98817569D01*
X155825789Y-98869500D01*
X145815000Y-98869500D01*
X145815000Y-98600126D01*
X145657431Y-98219720D01*
X145366280Y-97928569D01*
X144985874Y-97771000D01*
X144574126Y-97771000D01*
X144193720Y-97928569D01*
X144141789Y-97980500D01*
X121575263Y-97980500D01*
X121621500Y-97868874D01*
X121621500Y-97457126D01*
X121512029Y-97192840D01*
X122415300Y-97192840D01*
X122663065Y-97143557D01*
X122873109Y-97003209D01*
X123013457Y-96793165D01*
X123062740Y-96545400D01*
X123062740Y-94767400D01*
X123047144Y-94688991D01*
X123075699Y-94694671D01*
X123156997Y-94678500D01*
X123334943Y-94678500D01*
X123317260Y-94767400D01*
X123317260Y-96545400D01*
X123366543Y-96793165D01*
X123506891Y-97003209D01*
X123716935Y-97143557D01*
X123964700Y-97192840D01*
X124955300Y-97192840D01*
X125203065Y-97143557D01*
X125413109Y-97003209D01*
X125553457Y-96793165D01*
X125602740Y-96545400D01*
X125602740Y-94767400D01*
X125585057Y-94678500D01*
X125874943Y-94678500D01*
X125857260Y-94767400D01*
X125857260Y-96545400D01*
X125906543Y-96793165D01*
X126046891Y-97003209D01*
X126256935Y-97143557D01*
X126504700Y-97192840D01*
X127495300Y-97192840D01*
X127743065Y-97143557D01*
X127953109Y-97003209D01*
X128093457Y-96793165D01*
X128142740Y-96545400D01*
X128142740Y-94767400D01*
X128125057Y-94678500D01*
X134665699Y-94678500D01*
X134747000Y-94694672D01*
X134828301Y-94678500D01*
X134828303Y-94678500D01*
X135069094Y-94630604D01*
X135342152Y-94448152D01*
X135388209Y-94379223D01*
X135527223Y-94240209D01*
X135596152Y-94194152D01*
X135778604Y-93921094D01*
X135826500Y-93680303D01*
X135826500Y-93680298D01*
X135842671Y-93599001D01*
X135826500Y-93517703D01*
X135826500Y-93348211D01*
X135878431Y-93296280D01*
X136036000Y-92915874D01*
X136036000Y-92592510D01*
X142221000Y-92592510D01*
X142221000Y-92915874D01*
X142378569Y-93296280D01*
X142669720Y-93587431D01*
X143050126Y-93745000D01*
X143461874Y-93745000D01*
X143842280Y-93587431D01*
X144133431Y-93296280D01*
X144291000Y-92915874D01*
X144291000Y-92504126D01*
X144133431Y-92123720D01*
X144081500Y-92071789D01*
X144081500Y-92029303D01*
X144085041Y-92011500D01*
X157035500Y-92011500D01*
X157035500Y-92071789D01*
X156983569Y-92123720D01*
X156826000Y-92504126D01*
X156826000Y-92915874D01*
X156983569Y-93296280D01*
X157222789Y-93535500D01*
X156983569Y-93774720D01*
X156826000Y-94155126D01*
X156826000Y-94424500D01*
X142878211Y-94424500D01*
X142826280Y-94372569D01*
X142445874Y-94215000D01*
X142034126Y-94215000D01*
X141653720Y-94372569D01*
X141362569Y-94663720D01*
X141205000Y-95044126D01*
X141205000Y-95455874D01*
X141362569Y-95836280D01*
X141653720Y-96127431D01*
X142034126Y-96285000D01*
X142445874Y-96285000D01*
X142826280Y-96127431D01*
X142878211Y-96075500D01*
X157779698Y-96075500D01*
X157861000Y-96091672D01*
X157965394Y-96070907D01*
X158183094Y-96027604D01*
X158456152Y-95845152D01*
X158638604Y-95572094D01*
X158702672Y-95250000D01*
X158686500Y-95168697D01*
X158686500Y-94999211D01*
X158738431Y-94947280D01*
X158896000Y-94566874D01*
X158896000Y-94155126D01*
X158738431Y-93774720D01*
X158499211Y-93535500D01*
X158738431Y-93296280D01*
X158896000Y-92915874D01*
X158896000Y-92504126D01*
X158738431Y-92123720D01*
X158686500Y-92071789D01*
X158686500Y-91394297D01*
X158702671Y-91312999D01*
X158686500Y-91231702D01*
X158686500Y-91231697D01*
X158638604Y-90990906D01*
X158456152Y-90717848D01*
X158387223Y-90671791D01*
X158375209Y-90659777D01*
X158329152Y-90590848D01*
X158056094Y-90408396D01*
X157815303Y-90360500D01*
X157815301Y-90360500D01*
X157734000Y-90344328D01*
X157652699Y-90360500D01*
X128142740Y-90360500D01*
X128142740Y-88874600D01*
X128093457Y-88626835D01*
X127953109Y-88416791D01*
X127916007Y-88392000D01*
X163120000Y-88392000D01*
X163120001Y-116027412D01*
X163059910Y-116447009D01*
X162905619Y-116786352D01*
X162662288Y-117068752D01*
X162349479Y-117271506D01*
X161968815Y-117385348D01*
X161771649Y-117400000D01*
X146119926Y-117400000D01*
X146050000Y-117386091D01*
X145980075Y-117400000D01*
X145980074Y-117400000D01*
X145772972Y-117441195D01*
X145538119Y-117598119D01*
X145381195Y-117832972D01*
X145326091Y-118110000D01*
X145340001Y-118179931D01*
X145340000Y-138868074D01*
X145326091Y-138938000D01*
X145381195Y-139215028D01*
X145538119Y-139449881D01*
X145772972Y-139606805D01*
X145932571Y-139638551D01*
X146050000Y-139661909D01*
X146119925Y-139648000D01*
X161747419Y-139648000D01*
X162167009Y-139708090D01*
X162506352Y-139862381D01*
X162788752Y-140105712D01*
X162991506Y-140418523D01*
X163105348Y-140799184D01*
X163120001Y-140996363D01*
X163120000Y-148501760D01*
X162774241Y-148605164D01*
X162686769Y-148645582D01*
X162598806Y-148684929D01*
X162591502Y-148689601D01*
X162591498Y-148689603D01*
X162591499Y-148689603D01*
X162108040Y-149002966D01*
X162035447Y-149066293D01*
X161962045Y-149128763D01*
X161956343Y-149135300D01*
X161580266Y-149571759D01*
X161528347Y-149652942D01*
X161475446Y-149733475D01*
X161471808Y-149741350D01*
X161233347Y-150265817D01*
X161206300Y-150358309D01*
X161178129Y-150450452D01*
X161176847Y-150459031D01*
X161095171Y-151029346D01*
X161095171Y-151101766D01*
X161089362Y-151173963D01*
X161089952Y-151182618D01*
X161112272Y-151482966D01*
X161127826Y-151553711D01*
X161137654Y-151625455D01*
X161140088Y-151633781D01*
X161305164Y-152185758D01*
X161345591Y-152273250D01*
X161384930Y-152361194D01*
X161389603Y-152368501D01*
X161702966Y-152851961D01*
X161766328Y-152924594D01*
X161828763Y-152997955D01*
X161835296Y-153003654D01*
X161835300Y-153003658D01*
X161835305Y-153003661D01*
X162271759Y-153379734D01*
X162352942Y-153431653D01*
X162433475Y-153484554D01*
X162441346Y-153488190D01*
X162441349Y-153488192D01*
X162441352Y-153488193D01*
X162965817Y-153726653D01*
X163058309Y-153753700D01*
X163120001Y-153772561D01*
X163120000Y-161747418D01*
X163059910Y-162167009D01*
X162905619Y-162506352D01*
X162662288Y-162788752D01*
X162349479Y-162991506D01*
X161968815Y-163105348D01*
X161771649Y-163120000D01*
X41452581Y-163120000D01*
X41032991Y-163059910D01*
X40693648Y-162905619D01*
X40411248Y-162662288D01*
X40208494Y-162349479D01*
X40094652Y-161968815D01*
X40080000Y-161771649D01*
X40080000Y-153772719D01*
X40165509Y-153746577D01*
X40257967Y-153719540D01*
X40265841Y-153715902D01*
X40787356Y-153471052D01*
X40867925Y-153418128D01*
X40949073Y-153366232D01*
X40955610Y-153360530D01*
X41387442Y-152979149D01*
X41449887Y-152905776D01*
X41513240Y-152833153D01*
X41517913Y-152825846D01*
X41825346Y-152338593D01*
X41864687Y-152250645D01*
X41905111Y-152163160D01*
X41907545Y-152154835D01*
X42065866Y-151600882D01*
X42078943Y-151505421D01*
X42093187Y-151410111D01*
X42093187Y-151401436D01*
X42089667Y-150825313D01*
X42075414Y-150729943D01*
X42062346Y-150634544D01*
X42059912Y-150626219D01*
X41894836Y-150074241D01*
X41854418Y-149986769D01*
X41815071Y-149898806D01*
X41810397Y-149891499D01*
X41497034Y-149408040D01*
X41433707Y-149335447D01*
X41371237Y-149262045D01*
X41364700Y-149256343D01*
X40928241Y-148880266D01*
X40847058Y-148828347D01*
X40766525Y-148775446D01*
X40758654Y-148771810D01*
X40758651Y-148771808D01*
X40758648Y-148771807D01*
X40234183Y-148533347D01*
X40141691Y-148506300D01*
X40080000Y-148487439D01*
X40080000Y-140359971D01*
X40144700Y-140372840D01*
X41135300Y-140372840D01*
X41383065Y-140323557D01*
X41593109Y-140183209D01*
X41733457Y-139973165D01*
X41782740Y-139725400D01*
X41782740Y-137947400D01*
X41733457Y-137699635D01*
X41593109Y-137489591D01*
X41575014Y-137477500D01*
X42244986Y-137477500D01*
X42226891Y-137489591D01*
X42086543Y-137699635D01*
X42037260Y-137947400D01*
X42037260Y-139725400D01*
X42086543Y-139973165D01*
X42226891Y-140183209D01*
X42436935Y-140323557D01*
X42684700Y-140372840D01*
X43675300Y-140372840D01*
X43923065Y-140323557D01*
X44133109Y-140183209D01*
X44273457Y-139973165D01*
X44322740Y-139725400D01*
X44322740Y-137947400D01*
X44273457Y-137699635D01*
X44133109Y-137489591D01*
X44115014Y-137477500D01*
X44784986Y-137477500D01*
X44766891Y-137489591D01*
X44626543Y-137699635D01*
X44577260Y-137947400D01*
X44577260Y-139725400D01*
X44626543Y-139973165D01*
X44766891Y-140183209D01*
X44976935Y-140323557D01*
X45224700Y-140372840D01*
X46215300Y-140372840D01*
X46463065Y-140323557D01*
X46673109Y-140183209D01*
X46813457Y-139973165D01*
X46862740Y-139725400D01*
X46862740Y-137947400D01*
X46813457Y-137699635D01*
X46673109Y-137489591D01*
X46655014Y-137477500D01*
X47324986Y-137477500D01*
X47306891Y-137489591D01*
X47166543Y-137699635D01*
X47117260Y-137947400D01*
X47117260Y-139725400D01*
X47166543Y-139973165D01*
X47306891Y-140183209D01*
X47516935Y-140323557D01*
X47764700Y-140372840D01*
X48755300Y-140372840D01*
X49003065Y-140323557D01*
X49213109Y-140183209D01*
X49353457Y-139973165D01*
X49402740Y-139725400D01*
X49402740Y-137947400D01*
X49353457Y-137699635D01*
X49345014Y-137687000D01*
X49714986Y-137687000D01*
X49706543Y-137699635D01*
X49657260Y-137947400D01*
X49657260Y-139725400D01*
X49706543Y-139973165D01*
X49846891Y-140183209D01*
X49974501Y-140268476D01*
X49974500Y-144698698D01*
X49958328Y-144780000D01*
X49974500Y-144861301D01*
X49974500Y-144861302D01*
X50022396Y-145102093D01*
X50204848Y-145375152D01*
X50273777Y-145421209D01*
X50793793Y-145941226D01*
X50839848Y-146010152D01*
X50908773Y-146056206D01*
X51112906Y-146192604D01*
X51435000Y-146256672D01*
X51516303Y-146240500D01*
X52701789Y-146240500D01*
X52753720Y-146292431D01*
X53134126Y-146450000D01*
X53545874Y-146450000D01*
X53926280Y-146292431D01*
X54217431Y-146001280D01*
X54375000Y-145620874D01*
X54375000Y-145209126D01*
X54276158Y-144970500D01*
X55241789Y-144970500D01*
X55293720Y-145022431D01*
X55674126Y-145180000D01*
X56085874Y-145180000D01*
X56466280Y-145022431D01*
X56757431Y-144731280D01*
X56915000Y-144350874D01*
X56915000Y-143939126D01*
X56816158Y-143700500D01*
X57781789Y-143700500D01*
X57833720Y-143752431D01*
X58214126Y-143910000D01*
X58625874Y-143910000D01*
X59006280Y-143752431D01*
X59297431Y-143461280D01*
X59455000Y-143080874D01*
X59455000Y-142669126D01*
X59356158Y-142430500D01*
X60321789Y-142430500D01*
X60373720Y-142482431D01*
X60754126Y-142640000D01*
X61165874Y-142640000D01*
X61546280Y-142482431D01*
X61837431Y-142191280D01*
X61995000Y-141810874D01*
X61995000Y-141399126D01*
X61837431Y-141018720D01*
X61546280Y-140727569D01*
X61165874Y-140570000D01*
X60754126Y-140570000D01*
X60373720Y-140727569D01*
X60321789Y-140779500D01*
X59396933Y-140779500D01*
X59245500Y-140628068D01*
X59245500Y-140268475D01*
X59373109Y-140183209D01*
X59513457Y-139973165D01*
X59562740Y-139725400D01*
X59562740Y-137947400D01*
X59513457Y-137699635D01*
X59373109Y-137489591D01*
X59164946Y-137350500D01*
X60215054Y-137350500D01*
X60006891Y-137489591D01*
X59866543Y-137699635D01*
X59817260Y-137947400D01*
X59817260Y-139725400D01*
X59866543Y-139973165D01*
X60006891Y-140183209D01*
X60216935Y-140323557D01*
X60464700Y-140372840D01*
X61455300Y-140372840D01*
X61703065Y-140323557D01*
X61913109Y-140183209D01*
X62053457Y-139973165D01*
X62102740Y-139725400D01*
X62102740Y-137947400D01*
X62053457Y-137699635D01*
X61913109Y-137489591D01*
X61704946Y-137350500D01*
X62523068Y-137350500D01*
X62615989Y-137443421D01*
X62546891Y-137489591D01*
X62406543Y-137699635D01*
X62357260Y-137947400D01*
X62357260Y-139725400D01*
X62406543Y-139973165D01*
X62546891Y-140183209D01*
X62756935Y-140323557D01*
X63004700Y-140372840D01*
X63995300Y-140372840D01*
X64243065Y-140323557D01*
X64453109Y-140183209D01*
X64593457Y-139973165D01*
X64642740Y-139725400D01*
X64642740Y-137947400D01*
X102997260Y-137947400D01*
X102997260Y-139725400D01*
X103046543Y-139973165D01*
X103186891Y-140183209D01*
X103396935Y-140323557D01*
X103644700Y-140372840D01*
X104635300Y-140372840D01*
X104883065Y-140323557D01*
X105093109Y-140183209D01*
X105233457Y-139973165D01*
X105282740Y-139725400D01*
X105282740Y-137947400D01*
X105537260Y-137947400D01*
X105537260Y-139725400D01*
X105586543Y-139973165D01*
X105726891Y-140183209D01*
X105936935Y-140323557D01*
X106184700Y-140372840D01*
X107175300Y-140372840D01*
X107423065Y-140323557D01*
X107633109Y-140183209D01*
X107773457Y-139973165D01*
X107822740Y-139725400D01*
X107822740Y-137947400D01*
X108077260Y-137947400D01*
X108077260Y-139725400D01*
X108126543Y-139973165D01*
X108266891Y-140183209D01*
X108394501Y-140268476D01*
X108394500Y-141650698D01*
X108378328Y-141732000D01*
X108394500Y-141813301D01*
X108394500Y-141813302D01*
X108442396Y-142054093D01*
X108624848Y-142327152D01*
X108693776Y-142373209D01*
X109086793Y-142766225D01*
X109132848Y-142835152D01*
X109405906Y-143017604D01*
X109646697Y-143065500D01*
X109646701Y-143065500D01*
X109727999Y-143081671D01*
X109809297Y-143065500D01*
X109851789Y-143065500D01*
X109903720Y-143117431D01*
X110284126Y-143275000D01*
X110695874Y-143275000D01*
X111076280Y-143117431D01*
X111367431Y-142826280D01*
X111525000Y-142445874D01*
X111525000Y-142034126D01*
X111367431Y-141653720D01*
X111076280Y-141362569D01*
X110695874Y-141205000D01*
X110284126Y-141205000D01*
X110045500Y-141303842D01*
X110045500Y-140268475D01*
X110173109Y-140183209D01*
X110313457Y-139973165D01*
X110362740Y-139725400D01*
X110362740Y-137947400D01*
X110319795Y-137731500D01*
X110660205Y-137731500D01*
X110617260Y-137947400D01*
X110617260Y-139725400D01*
X110666543Y-139973165D01*
X110806891Y-140183209D01*
X110934500Y-140268475D01*
X110934500Y-140634698D01*
X110918328Y-140716000D01*
X110934500Y-140797301D01*
X110934500Y-140797302D01*
X110982396Y-141038093D01*
X111164848Y-141311152D01*
X111233776Y-141357209D01*
X111626793Y-141750225D01*
X111672848Y-141819152D01*
X111945906Y-142001604D01*
X112125645Y-142037356D01*
X112189720Y-142101431D01*
X112570126Y-142259000D01*
X112981874Y-142259000D01*
X113362280Y-142101431D01*
X113653431Y-141810280D01*
X113811000Y-141429874D01*
X113811000Y-141018126D01*
X113653431Y-140637720D01*
X113362280Y-140346569D01*
X112981874Y-140189000D01*
X112704442Y-140189000D01*
X112713109Y-140183209D01*
X112853457Y-139973165D01*
X112902740Y-139725400D01*
X112902740Y-137947400D01*
X112859795Y-137731500D01*
X113200205Y-137731500D01*
X113157260Y-137947400D01*
X113157260Y-139725400D01*
X113206543Y-139973165D01*
X113346891Y-140183209D01*
X113556935Y-140323557D01*
X113804700Y-140372840D01*
X114795300Y-140372840D01*
X115043065Y-140323557D01*
X115253109Y-140183209D01*
X115393457Y-139973165D01*
X115442740Y-139725400D01*
X115442740Y-137947400D01*
X115697260Y-137947400D01*
X115697260Y-139725400D01*
X115746543Y-139973165D01*
X115886891Y-140183209D01*
X116096935Y-140323557D01*
X116344700Y-140372840D01*
X117335300Y-140372840D01*
X117583065Y-140323557D01*
X117793109Y-140183209D01*
X117933457Y-139973165D01*
X117982740Y-139725400D01*
X117982740Y-137947400D01*
X117939795Y-137731500D01*
X118280205Y-137731500D01*
X118237260Y-137947400D01*
X118237260Y-139725400D01*
X118286543Y-139973165D01*
X118426891Y-140183209D01*
X118636935Y-140323557D01*
X118884700Y-140372840D01*
X119875300Y-140372840D01*
X120123065Y-140323557D01*
X120333109Y-140183209D01*
X120473457Y-139973165D01*
X120522740Y-139725400D01*
X120522740Y-137947400D01*
X120479795Y-137731500D01*
X120820205Y-137731500D01*
X120777260Y-137947400D01*
X120777260Y-139725400D01*
X120826543Y-139973165D01*
X120966891Y-140183209D01*
X121176935Y-140323557D01*
X121424700Y-140372840D01*
X122415300Y-140372840D01*
X122663065Y-140323557D01*
X122873109Y-140183209D01*
X123013457Y-139973165D01*
X123062740Y-139725400D01*
X123062740Y-137947400D01*
X123317260Y-137947400D01*
X123317260Y-139725400D01*
X123366543Y-139973165D01*
X123506891Y-140183209D01*
X123716935Y-140323557D01*
X123964700Y-140372840D01*
X124955300Y-140372840D01*
X125203065Y-140323557D01*
X125413109Y-140183209D01*
X125553457Y-139973165D01*
X125602740Y-139725400D01*
X125602740Y-137947400D01*
X125857260Y-137947400D01*
X125857260Y-139725400D01*
X125906543Y-139973165D01*
X126046891Y-140183209D01*
X126256935Y-140323557D01*
X126504700Y-140372840D01*
X127495300Y-140372840D01*
X127743065Y-140323557D01*
X127953109Y-140183209D01*
X128093457Y-139973165D01*
X128142740Y-139725400D01*
X128142740Y-137947400D01*
X128093457Y-137699635D01*
X127953109Y-137489591D01*
X127743065Y-137349243D01*
X127495300Y-137299960D01*
X126504700Y-137299960D01*
X126256935Y-137349243D01*
X126046891Y-137489591D01*
X125906543Y-137699635D01*
X125857260Y-137947400D01*
X125602740Y-137947400D01*
X125553457Y-137699635D01*
X125413109Y-137489591D01*
X125203065Y-137349243D01*
X124955300Y-137299960D01*
X123964700Y-137299960D01*
X123716935Y-137349243D01*
X123506891Y-137489591D01*
X123366543Y-137699635D01*
X123317260Y-137947400D01*
X123062740Y-137947400D01*
X123013457Y-137699635D01*
X122873109Y-137489591D01*
X122814708Y-137450569D01*
X122955000Y-137111874D01*
X122955000Y-136700126D01*
X122797431Y-136319720D01*
X122506280Y-136028569D01*
X122125874Y-135871000D01*
X121714126Y-135871000D01*
X121333720Y-136028569D01*
X121281789Y-136080500D01*
X117175297Y-136080500D01*
X117093999Y-136064329D01*
X117012702Y-136080500D01*
X117012697Y-136080500D01*
X116771906Y-136128396D01*
X116498848Y-136310848D01*
X116452791Y-136379777D01*
X116313777Y-136518791D01*
X116244848Y-136564848D01*
X116062396Y-136837907D01*
X116014500Y-137078697D01*
X115998328Y-137160000D01*
X116014500Y-137241302D01*
X116014500Y-137404325D01*
X115886891Y-137489591D01*
X115746543Y-137699635D01*
X115697260Y-137947400D01*
X115442740Y-137947400D01*
X115393457Y-137699635D01*
X115253109Y-137489591D01*
X115125500Y-137404325D01*
X115125500Y-137241297D01*
X115141671Y-137159999D01*
X115125500Y-137078702D01*
X115125500Y-137078697D01*
X115077604Y-136837906D01*
X114895152Y-136564848D01*
X114826223Y-136518791D01*
X114687209Y-136379777D01*
X114641152Y-136310848D01*
X114368094Y-136128396D01*
X114127303Y-136080500D01*
X114127301Y-136080500D01*
X114046000Y-136064328D01*
X113964699Y-136080500D01*
X109858211Y-136080500D01*
X109806280Y-136028569D01*
X109425874Y-135871000D01*
X109014126Y-135871000D01*
X108633720Y-136028569D01*
X108342569Y-136319720D01*
X108185000Y-136700126D01*
X108185000Y-137111874D01*
X108325292Y-137450569D01*
X108266891Y-137489591D01*
X108126543Y-137699635D01*
X108077260Y-137947400D01*
X107822740Y-137947400D01*
X107773457Y-137699635D01*
X107633109Y-137489591D01*
X107423065Y-137349243D01*
X107175300Y-137299960D01*
X106184700Y-137299960D01*
X105936935Y-137349243D01*
X105726891Y-137489591D01*
X105586543Y-137699635D01*
X105537260Y-137947400D01*
X105282740Y-137947400D01*
X105233457Y-137699635D01*
X105093109Y-137489591D01*
X104883065Y-137349243D01*
X104635300Y-137299960D01*
X103644700Y-137299960D01*
X103396935Y-137349243D01*
X103186891Y-137489591D01*
X103046543Y-137699635D01*
X102997260Y-137947400D01*
X64642740Y-137947400D01*
X64593457Y-137699635D01*
X64453109Y-137489591D01*
X64325500Y-137404325D01*
X64325500Y-137241303D01*
X64341672Y-137160000D01*
X64304694Y-136974095D01*
X64277604Y-136837906D01*
X64095152Y-136564848D01*
X64026226Y-136518793D01*
X63506209Y-135998777D01*
X63460152Y-135929848D01*
X63187094Y-135747396D01*
X62946303Y-135699500D01*
X62946301Y-135699500D01*
X62865000Y-135683328D01*
X62783699Y-135699500D01*
X55586933Y-135699500D01*
X55435500Y-135548068D01*
X55435500Y-134480040D01*
X56375300Y-134480040D01*
X56623065Y-134430757D01*
X56833109Y-134290409D01*
X56973457Y-134080365D01*
X57022740Y-133832600D01*
X57022740Y-132054600D01*
X56973457Y-131806835D01*
X56833109Y-131596791D01*
X56705500Y-131511525D01*
X56705500Y-110831932D01*
X56856933Y-110680500D01*
X57781789Y-110680500D01*
X57833720Y-110732431D01*
X58149384Y-110863183D01*
X57893777Y-111118791D01*
X57824848Y-111164848D01*
X57642396Y-111437907D01*
X57616221Y-111569500D01*
X57578328Y-111760000D01*
X57594500Y-111841302D01*
X57594501Y-131511524D01*
X57466891Y-131596791D01*
X57326543Y-131806835D01*
X57277260Y-132054600D01*
X57277260Y-133832600D01*
X57326543Y-134080365D01*
X57466891Y-134290409D01*
X57676935Y-134430757D01*
X57924700Y-134480040D01*
X58915300Y-134480040D01*
X59163065Y-134430757D01*
X59373109Y-134290409D01*
X59513457Y-134080365D01*
X59562740Y-133832600D01*
X59562740Y-132054600D01*
X59513457Y-131806835D01*
X59373109Y-131596791D01*
X59245500Y-131511525D01*
X59245500Y-112101932D01*
X59396933Y-111950500D01*
X60321789Y-111950500D01*
X60373720Y-112002431D01*
X60689384Y-112133183D01*
X60433777Y-112388791D01*
X60364848Y-112434848D01*
X60182396Y-112707907D01*
X60156221Y-112839500D01*
X60118328Y-113030000D01*
X60134500Y-113111302D01*
X60134501Y-131511524D01*
X60006891Y-131596791D01*
X59866543Y-131806835D01*
X59817260Y-132054600D01*
X59817260Y-133832600D01*
X59866543Y-134080365D01*
X60006891Y-134290409D01*
X60216935Y-134430757D01*
X60464700Y-134480040D01*
X61455300Y-134480040D01*
X61703065Y-134430757D01*
X61913109Y-134290409D01*
X62053457Y-134080365D01*
X62102740Y-133832600D01*
X62102740Y-132054600D01*
X62053457Y-131806835D01*
X61913109Y-131596791D01*
X61785500Y-131511525D01*
X61785500Y-113371932D01*
X61936933Y-113220500D01*
X62861789Y-113220500D01*
X62913720Y-113272431D01*
X63229384Y-113403183D01*
X62973777Y-113658791D01*
X62904848Y-113704848D01*
X62722396Y-113977907D01*
X62695307Y-114114094D01*
X62658328Y-114300000D01*
X62674500Y-114381302D01*
X62674501Y-115488694D01*
X62674500Y-115488698D01*
X62674501Y-131511524D01*
X62546891Y-131596791D01*
X62406543Y-131806835D01*
X62357260Y-132054600D01*
X62357260Y-133832600D01*
X62406543Y-134080365D01*
X62546891Y-134290409D01*
X62756935Y-134430757D01*
X63004700Y-134480040D01*
X63995300Y-134480040D01*
X64243065Y-134430757D01*
X64453109Y-134290409D01*
X64593457Y-134080365D01*
X64642740Y-133832600D01*
X64642740Y-132054600D01*
X64593457Y-131806835D01*
X64453109Y-131596791D01*
X64325500Y-131511525D01*
X64325500Y-127889000D01*
X64369096Y-127889000D01*
X64370000Y-127893545D01*
X64370000Y-128094874D01*
X64447045Y-128280877D01*
X64447949Y-128285423D01*
X64450524Y-128289277D01*
X64527569Y-128475280D01*
X64669930Y-128617641D01*
X64672505Y-128621495D01*
X64676359Y-128624070D01*
X64818720Y-128766431D01*
X65004723Y-128843476D01*
X65008577Y-128846051D01*
X65013123Y-128846955D01*
X65199126Y-128924000D01*
X65610874Y-128924000D01*
X65656744Y-128905000D01*
X67691001Y-128905000D01*
X67691000Y-134531434D01*
X67691001Y-134531438D01*
X67691001Y-134549342D01*
X67522680Y-134717663D01*
X67310000Y-135231119D01*
X67310000Y-135786881D01*
X67522680Y-136300337D01*
X67915663Y-136693320D01*
X68429119Y-136906000D01*
X68984881Y-136906000D01*
X69498337Y-136693320D01*
X69891320Y-136300337D01*
X69977000Y-136093487D01*
X70062680Y-136300337D01*
X70455663Y-136693320D01*
X70969119Y-136906000D01*
X71524881Y-136906000D01*
X72038337Y-136693320D01*
X72431320Y-136300337D01*
X72644000Y-135786881D01*
X72644000Y-135231119D01*
X72431320Y-134717663D01*
X72038337Y-134324680D01*
X71524881Y-134112000D01*
X70969119Y-134112000D01*
X70455663Y-134324680D01*
X70062680Y-134717663D01*
X69977000Y-134924513D01*
X69891320Y-134717663D01*
X69723000Y-134549343D01*
X69723000Y-128905000D01*
X76581000Y-128905000D01*
X76581001Y-134549342D01*
X76412680Y-134717663D01*
X76200000Y-135231119D01*
X76200000Y-135786881D01*
X76412680Y-136300337D01*
X76805663Y-136693320D01*
X77319119Y-136906000D01*
X77874881Y-136906000D01*
X78388337Y-136693320D01*
X78781320Y-136300337D01*
X78867000Y-136093487D01*
X78952680Y-136300337D01*
X79345663Y-136693320D01*
X79859119Y-136906000D01*
X80414881Y-136906000D01*
X80928337Y-136693320D01*
X81321320Y-136300337D01*
X81534000Y-135786881D01*
X81534000Y-135231119D01*
X81321320Y-134717663D01*
X80928337Y-134324680D01*
X80414881Y-134112000D01*
X79859119Y-134112000D01*
X79345663Y-134324680D01*
X78952680Y-134717663D01*
X78867000Y-134924513D01*
X78781320Y-134717663D01*
X78613000Y-134549343D01*
X78613000Y-128905000D01*
X85471000Y-128905000D01*
X85471001Y-134549342D01*
X85302680Y-134717663D01*
X85090000Y-135231119D01*
X85090000Y-135786881D01*
X85302680Y-136300337D01*
X85695663Y-136693320D01*
X86209119Y-136906000D01*
X86764881Y-136906000D01*
X87278337Y-136693320D01*
X87671320Y-136300337D01*
X87757000Y-136093487D01*
X87842680Y-136300337D01*
X88235663Y-136693320D01*
X88749119Y-136906000D01*
X89304881Y-136906000D01*
X89818337Y-136693320D01*
X90211320Y-136300337D01*
X90424000Y-135786881D01*
X90424000Y-135231119D01*
X90211320Y-134717663D01*
X89818337Y-134324680D01*
X89304881Y-134112000D01*
X88749119Y-134112000D01*
X88235663Y-134324680D01*
X87842680Y-134717663D01*
X87757000Y-134924513D01*
X87671320Y-134717663D01*
X87503000Y-134549343D01*
X87503000Y-128905000D01*
X94361000Y-128905000D01*
X94361001Y-134549342D01*
X94192680Y-134717663D01*
X93980000Y-135231119D01*
X93980000Y-135786881D01*
X94192680Y-136300337D01*
X94585663Y-136693320D01*
X95099119Y-136906000D01*
X95654881Y-136906000D01*
X96168337Y-136693320D01*
X96561320Y-136300337D01*
X96647000Y-136093487D01*
X96732680Y-136300337D01*
X97125663Y-136693320D01*
X97639119Y-136906000D01*
X98194881Y-136906000D01*
X98708337Y-136693320D01*
X99101320Y-136300337D01*
X99314000Y-135786881D01*
X99314000Y-135231119D01*
X99101320Y-134717663D01*
X98708337Y-134324680D01*
X98194881Y-134112000D01*
X97639119Y-134112000D01*
X97125663Y-134324680D01*
X96732680Y-134717663D01*
X96647000Y-134924513D01*
X96561320Y-134717663D01*
X96393000Y-134549343D01*
X96393000Y-132054600D01*
X102997260Y-132054600D01*
X102997260Y-133832600D01*
X103046543Y-134080365D01*
X103186891Y-134290409D01*
X103396935Y-134430757D01*
X103644700Y-134480040D01*
X104635300Y-134480040D01*
X104883065Y-134430757D01*
X105093109Y-134290409D01*
X105233457Y-134080365D01*
X105282740Y-133832600D01*
X105282740Y-132054600D01*
X108077260Y-132054600D01*
X108077260Y-133832600D01*
X108126543Y-134080365D01*
X108266891Y-134290409D01*
X108476935Y-134430757D01*
X108724700Y-134480040D01*
X109715300Y-134480040D01*
X109963065Y-134430757D01*
X110173109Y-134290409D01*
X110313457Y-134080365D01*
X110362740Y-133832600D01*
X110362740Y-132054600D01*
X110617260Y-132054600D01*
X110617260Y-133832600D01*
X110666543Y-134080365D01*
X110806891Y-134290409D01*
X111016935Y-134430757D01*
X111264700Y-134480040D01*
X112255300Y-134480040D01*
X112503065Y-134430757D01*
X112713109Y-134290409D01*
X112853457Y-134080365D01*
X112902740Y-133832600D01*
X112902740Y-132054600D01*
X112853457Y-131806835D01*
X112713109Y-131596791D01*
X112503065Y-131456443D01*
X112255300Y-131407160D01*
X111264700Y-131407160D01*
X111016935Y-131456443D01*
X110806891Y-131596791D01*
X110666543Y-131806835D01*
X110617260Y-132054600D01*
X110362740Y-132054600D01*
X110313457Y-131806835D01*
X110173109Y-131596791D01*
X109963065Y-131456443D01*
X109715300Y-131407160D01*
X108724700Y-131407160D01*
X108476935Y-131456443D01*
X108266891Y-131596791D01*
X108126543Y-131806835D01*
X108077260Y-132054600D01*
X105282740Y-132054600D01*
X105233457Y-131806835D01*
X105093109Y-131596791D01*
X104883065Y-131456443D01*
X104635300Y-131407160D01*
X103644700Y-131407160D01*
X103396935Y-131456443D01*
X103186891Y-131596791D01*
X103046543Y-131806835D01*
X102997260Y-132054600D01*
X96393000Y-132054600D01*
X96393000Y-128905000D01*
X102618256Y-128905000D01*
X102664126Y-128924000D01*
X103075874Y-128924000D01*
X103261877Y-128846955D01*
X103266423Y-128846051D01*
X103270277Y-128843476D01*
X103456280Y-128766431D01*
X103598641Y-128624070D01*
X103602495Y-128621495D01*
X103605070Y-128617641D01*
X103747431Y-128475280D01*
X103824476Y-128289277D01*
X103827051Y-128285423D01*
X103827955Y-128280877D01*
X103905000Y-128094874D01*
X103905000Y-127893545D01*
X103905904Y-127889000D01*
X103905000Y-127884455D01*
X103905000Y-127683126D01*
X103827955Y-127497123D01*
X103827051Y-127492577D01*
X103824476Y-127488723D01*
X103747431Y-127302720D01*
X103605070Y-127160359D01*
X103602495Y-127156505D01*
X103598641Y-127153930D01*
X103456280Y-127011569D01*
X103270277Y-126934524D01*
X103266423Y-126931949D01*
X103261877Y-126931045D01*
X103075874Y-126854000D01*
X102664126Y-126854000D01*
X102618256Y-126873000D01*
X96393000Y-126873000D01*
X96393000Y-122498657D01*
X96561320Y-122330337D01*
X96647000Y-122123487D01*
X96732680Y-122330337D01*
X97125663Y-122723320D01*
X97639119Y-122936000D01*
X98194881Y-122936000D01*
X98708337Y-122723320D01*
X99101320Y-122330337D01*
X99314000Y-121816881D01*
X99314000Y-121261119D01*
X99101320Y-120747663D01*
X98708337Y-120354680D01*
X98194881Y-120142000D01*
X97639119Y-120142000D01*
X97125663Y-120354680D01*
X96732680Y-120747663D01*
X96647000Y-120954513D01*
X96561320Y-120747663D01*
X96168337Y-120354680D01*
X95654881Y-120142000D01*
X95099119Y-120142000D01*
X94585663Y-120354680D01*
X94192680Y-120747663D01*
X93980000Y-121261119D01*
X93980000Y-121816881D01*
X94192680Y-122330337D01*
X94361001Y-122498658D01*
X94361001Y-122516562D01*
X94361000Y-122516566D01*
X94361001Y-126645931D01*
X94361000Y-126645936D01*
X94361000Y-126873000D01*
X87503000Y-126873000D01*
X87503000Y-122498657D01*
X87671320Y-122330337D01*
X87757000Y-122123487D01*
X87842680Y-122330337D01*
X88235663Y-122723320D01*
X88749119Y-122936000D01*
X89304881Y-122936000D01*
X89818337Y-122723320D01*
X90211320Y-122330337D01*
X90424000Y-121816881D01*
X90424000Y-121261119D01*
X90211320Y-120747663D01*
X89818337Y-120354680D01*
X89304881Y-120142000D01*
X88749119Y-120142000D01*
X88235663Y-120354680D01*
X87842680Y-120747663D01*
X87757000Y-120954513D01*
X87671320Y-120747663D01*
X87278337Y-120354680D01*
X86764881Y-120142000D01*
X86209119Y-120142000D01*
X85695663Y-120354680D01*
X85302680Y-120747663D01*
X85090000Y-121261119D01*
X85090000Y-121816881D01*
X85302680Y-122330337D01*
X85471001Y-122498658D01*
X85471001Y-122516562D01*
X85471000Y-122516566D01*
X85471001Y-126645931D01*
X85471000Y-126645936D01*
X85471000Y-126873000D01*
X78613000Y-126873000D01*
X78613000Y-122498657D01*
X78781320Y-122330337D01*
X78867000Y-122123487D01*
X78952680Y-122330337D01*
X79345663Y-122723320D01*
X79859119Y-122936000D01*
X80414881Y-122936000D01*
X80928337Y-122723320D01*
X81321320Y-122330337D01*
X81534000Y-121816881D01*
X81534000Y-121261119D01*
X81321320Y-120747663D01*
X80928337Y-120354680D01*
X80414881Y-120142000D01*
X79859119Y-120142000D01*
X79345663Y-120354680D01*
X78952680Y-120747663D01*
X78867000Y-120954513D01*
X78781320Y-120747663D01*
X78388337Y-120354680D01*
X77874881Y-120142000D01*
X77319119Y-120142000D01*
X76805663Y-120354680D01*
X76412680Y-120747663D01*
X76200000Y-121261119D01*
X76200000Y-121816881D01*
X76412680Y-122330337D01*
X76581001Y-122498658D01*
X76581001Y-122516562D01*
X76581000Y-122516566D01*
X76581001Y-126645931D01*
X76581000Y-126645936D01*
X76581000Y-126873000D01*
X69723000Y-126873000D01*
X69723000Y-122498657D01*
X69891320Y-122330337D01*
X69977000Y-122123487D01*
X70062680Y-122330337D01*
X70455663Y-122723320D01*
X70969119Y-122936000D01*
X71524881Y-122936000D01*
X72038337Y-122723320D01*
X72431320Y-122330337D01*
X72644000Y-121816881D01*
X72644000Y-121261119D01*
X72431320Y-120747663D01*
X72038337Y-120354680D01*
X71524881Y-120142000D01*
X70969119Y-120142000D01*
X70455663Y-120354680D01*
X70062680Y-120747663D01*
X69977000Y-120954513D01*
X69891320Y-120747663D01*
X69498337Y-120354680D01*
X68984881Y-120142000D01*
X68429119Y-120142000D01*
X67915663Y-120354680D01*
X67522680Y-120747663D01*
X67310000Y-121261119D01*
X67310000Y-121816881D01*
X67522680Y-122330337D01*
X67691001Y-122498658D01*
X67691001Y-122516562D01*
X67691000Y-122516566D01*
X67691001Y-126645935D01*
X67691001Y-126873000D01*
X65656744Y-126873000D01*
X65610874Y-126854000D01*
X65199126Y-126854000D01*
X65013123Y-126931045D01*
X65008577Y-126931949D01*
X65004723Y-126934524D01*
X64818720Y-127011569D01*
X64676359Y-127153930D01*
X64672505Y-127156505D01*
X64669930Y-127160359D01*
X64527569Y-127302720D01*
X64450524Y-127488723D01*
X64447949Y-127492577D01*
X64447045Y-127497123D01*
X64370000Y-127683126D01*
X64370000Y-127884455D01*
X64369096Y-127889000D01*
X64325500Y-127889000D01*
X64325500Y-115570000D01*
X101834096Y-115570000D01*
X101835000Y-115574545D01*
X101835000Y-115775874D01*
X101912045Y-115961877D01*
X101912949Y-115966423D01*
X101915524Y-115970277D01*
X101992569Y-116156280D01*
X102134930Y-116298641D01*
X102137505Y-116302495D01*
X102141359Y-116305070D01*
X102283720Y-116447431D01*
X102469723Y-116524476D01*
X102473577Y-116527051D01*
X102478123Y-116527955D01*
X102664126Y-116605000D01*
X103075874Y-116605000D01*
X103121744Y-116586000D01*
X105664000Y-116586000D01*
X105664001Y-123500342D01*
X105495680Y-123668663D01*
X105283000Y-124182119D01*
X105283000Y-124737881D01*
X105495680Y-125251337D01*
X105888663Y-125644320D01*
X106402119Y-125857000D01*
X106957881Y-125857000D01*
X107471337Y-125644320D01*
X107864320Y-125251337D01*
X107950000Y-125044487D01*
X108035680Y-125251337D01*
X108428663Y-125644320D01*
X108942119Y-125857000D01*
X109497881Y-125857000D01*
X110011337Y-125644320D01*
X110404320Y-125251337D01*
X110617000Y-124737881D01*
X110617000Y-124182119D01*
X110404320Y-123668663D01*
X110011337Y-123275680D01*
X109497881Y-123063000D01*
X108942119Y-123063000D01*
X108428663Y-123275680D01*
X108035680Y-123668663D01*
X107950000Y-123875513D01*
X107864320Y-123668663D01*
X107696000Y-123500343D01*
X107696000Y-116586000D01*
X118364000Y-116586000D01*
X118364001Y-123500342D01*
X118195680Y-123668663D01*
X117983000Y-124182119D01*
X117983000Y-124737881D01*
X118195680Y-125251337D01*
X118588663Y-125644320D01*
X119102119Y-125857000D01*
X119657881Y-125857000D01*
X120171337Y-125644320D01*
X120564320Y-125251337D01*
X120650000Y-125044487D01*
X120735680Y-125251337D01*
X121128663Y-125644320D01*
X121642119Y-125857000D01*
X122197881Y-125857000D01*
X122711337Y-125644320D01*
X123104320Y-125251337D01*
X123317000Y-124737881D01*
X123317000Y-124182119D01*
X123104320Y-123668663D01*
X122711337Y-123275680D01*
X122197881Y-123063000D01*
X121642119Y-123063000D01*
X121128663Y-123275680D01*
X120735680Y-123668663D01*
X120650000Y-123875513D01*
X120564320Y-123668663D01*
X120396000Y-123500343D01*
X120396000Y-116586000D01*
X126621256Y-116586000D01*
X126667126Y-116605000D01*
X127078874Y-116605000D01*
X127264877Y-116527955D01*
X127269423Y-116527051D01*
X127273277Y-116524476D01*
X127459280Y-116447431D01*
X127601641Y-116305070D01*
X127605495Y-116302495D01*
X127608070Y-116298641D01*
X127750431Y-116156280D01*
X127827476Y-115970277D01*
X127830051Y-115966423D01*
X127830955Y-115961877D01*
X127908000Y-115775874D01*
X127908000Y-115574545D01*
X127908904Y-115570000D01*
X127908000Y-115565455D01*
X127908000Y-115364126D01*
X127830955Y-115178123D01*
X127830051Y-115173577D01*
X127827476Y-115169723D01*
X127750431Y-114983720D01*
X127608070Y-114841359D01*
X127605495Y-114837505D01*
X127601641Y-114834930D01*
X127459280Y-114692569D01*
X127273277Y-114615524D01*
X127269423Y-114612949D01*
X127264877Y-114612045D01*
X127078874Y-114535000D01*
X126667126Y-114535000D01*
X126621256Y-114554000D01*
X120396000Y-114554000D01*
X120396000Y-108909657D01*
X120564320Y-108741337D01*
X120650000Y-108534487D01*
X120735680Y-108741337D01*
X121128663Y-109134320D01*
X121642119Y-109347000D01*
X122197881Y-109347000D01*
X122711337Y-109134320D01*
X123104320Y-108741337D01*
X123317000Y-108227881D01*
X123317000Y-107672119D01*
X123104320Y-107158663D01*
X122711337Y-106765680D01*
X122197881Y-106553000D01*
X121642119Y-106553000D01*
X121128663Y-106765680D01*
X120735680Y-107158663D01*
X120650000Y-107365513D01*
X120564320Y-107158663D01*
X120171337Y-106765680D01*
X119657881Y-106553000D01*
X119102119Y-106553000D01*
X118588663Y-106765680D01*
X118195680Y-107158663D01*
X117983000Y-107672119D01*
X117983000Y-108227881D01*
X118195680Y-108741337D01*
X118364001Y-108909658D01*
X118364001Y-108927562D01*
X118364000Y-108927566D01*
X118364001Y-114554000D01*
X107696000Y-114554000D01*
X107696000Y-108909657D01*
X107864320Y-108741337D01*
X107950000Y-108534487D01*
X108035680Y-108741337D01*
X108428663Y-109134320D01*
X108942119Y-109347000D01*
X109497881Y-109347000D01*
X110011337Y-109134320D01*
X110404320Y-108741337D01*
X110617000Y-108227881D01*
X110617000Y-107672119D01*
X110404320Y-107158663D01*
X110011337Y-106765680D01*
X109497881Y-106553000D01*
X108942119Y-106553000D01*
X108428663Y-106765680D01*
X108035680Y-107158663D01*
X107950000Y-107365513D01*
X107864320Y-107158663D01*
X107471337Y-106765680D01*
X106957881Y-106553000D01*
X106402119Y-106553000D01*
X105888663Y-106765680D01*
X105495680Y-107158663D01*
X105283000Y-107672119D01*
X105283000Y-108227881D01*
X105495680Y-108741337D01*
X105664001Y-108909658D01*
X105664001Y-108927562D01*
X105664000Y-108927566D01*
X105664001Y-114554000D01*
X103121744Y-114554000D01*
X103075874Y-114535000D01*
X102664126Y-114535000D01*
X102478123Y-114612045D01*
X102473577Y-114612949D01*
X102469723Y-114615524D01*
X102283720Y-114692569D01*
X102141359Y-114834930D01*
X102137505Y-114837505D01*
X102134930Y-114841359D01*
X101992569Y-114983720D01*
X101915524Y-115169723D01*
X101912949Y-115173577D01*
X101912045Y-115178123D01*
X101835000Y-115364126D01*
X101835000Y-115565455D01*
X101834096Y-115570000D01*
X64325500Y-115570000D01*
X64325500Y-114641932D01*
X64476933Y-114490500D01*
X65401789Y-114490500D01*
X65453720Y-114542431D01*
X65834126Y-114700000D01*
X66245874Y-114700000D01*
X66626280Y-114542431D01*
X66917431Y-114251280D01*
X67075000Y-113870874D01*
X67075000Y-113459126D01*
X66917431Y-113078720D01*
X66626280Y-112787569D01*
X66245874Y-112630000D01*
X65834126Y-112630000D01*
X65453720Y-112787569D01*
X65401789Y-112839500D01*
X64436158Y-112839500D01*
X64535000Y-112600874D01*
X64535000Y-112189126D01*
X64377431Y-111808720D01*
X64086280Y-111517569D01*
X63705874Y-111360000D01*
X63294126Y-111360000D01*
X62913720Y-111517569D01*
X62861789Y-111569500D01*
X61896158Y-111569500D01*
X61995000Y-111330874D01*
X61995000Y-110919126D01*
X61837431Y-110538720D01*
X61546280Y-110247569D01*
X61165874Y-110090000D01*
X60754126Y-110090000D01*
X60373720Y-110247569D01*
X60321789Y-110299500D01*
X59356158Y-110299500D01*
X59455000Y-110060874D01*
X59455000Y-109649126D01*
X59297431Y-109268720D01*
X59006280Y-108977569D01*
X58625874Y-108820000D01*
X58214126Y-108820000D01*
X57833720Y-108977569D01*
X57781789Y-109029500D01*
X56596303Y-109029500D01*
X56515000Y-109013328D01*
X56433697Y-109029500D01*
X56192906Y-109077396D01*
X55919848Y-109259848D01*
X55873793Y-109328774D01*
X55353777Y-109848791D01*
X55284848Y-109894848D01*
X55102396Y-110167907D01*
X55061530Y-110373357D01*
X55038328Y-110490000D01*
X55054500Y-110571302D01*
X55054500Y-111672067D01*
X54616209Y-111233777D01*
X54570152Y-111164848D01*
X54297094Y-110982396D01*
X54056303Y-110934500D01*
X54056301Y-110934500D01*
X53975000Y-110918328D01*
X53893699Y-110934500D01*
X43792422Y-110934500D01*
X43790436Y-110924515D01*
X43810865Y-110910865D01*
X44194334Y-110336963D01*
X44328990Y-109660000D01*
X44194334Y-108983037D01*
X43810865Y-108409135D01*
X43236963Y-108025666D01*
X42730880Y-107925000D01*
X41089120Y-107925000D01*
X40583037Y-108025666D01*
X40080000Y-108361785D01*
X40080000Y-98154640D01*
X40113777Y-98177209D01*
X40252791Y-98316223D01*
X40298848Y-98385152D01*
X40521439Y-98533883D01*
X40494000Y-98600126D01*
X40494000Y-99011874D01*
X40651569Y-99392280D01*
X40942720Y-99683431D01*
X41323126Y-99841000D01*
X41396568Y-99841000D01*
X41932293Y-100376726D01*
X41978348Y-100445652D01*
X42251406Y-100628104D01*
X42492197Y-100676000D01*
X42492201Y-100676000D01*
X42573499Y-100692171D01*
X42654797Y-100676000D01*
X48891789Y-100676000D01*
X48943720Y-100727931D01*
X49324126Y-100885500D01*
X49735874Y-100885500D01*
X50116280Y-100727931D01*
X50168211Y-100676000D01*
X57195698Y-100676000D01*
X57277000Y-100692172D01*
X57358303Y-100676000D01*
X66085698Y-100676000D01*
X66167000Y-100692172D01*
X66248303Y-100676000D01*
X66432988Y-100676000D01*
X66432993Y-100675999D01*
X79900197Y-100676001D01*
X79981499Y-100692173D01*
X80062800Y-100676001D01*
X80062801Y-100676001D01*
X80303592Y-100628105D01*
X80576650Y-100445653D01*
X80622705Y-100376727D01*
X80790223Y-100209209D01*
X80859152Y-100163152D01*
X81041604Y-99890094D01*
X81089500Y-99649303D01*
X81105672Y-99568000D01*
X81089500Y-99486697D01*
X81089500Y-97666211D01*
X81328720Y-97905431D01*
X81709126Y-98063000D01*
X82120874Y-98063000D01*
X82501280Y-97905431D01*
X82792431Y-97614280D01*
X82950000Y-97233874D01*
X82950000Y-96822126D01*
X82792431Y-96441720D01*
X82740500Y-96389789D01*
X82740500Y-91521297D01*
X82756671Y-91439999D01*
X82740500Y-91358702D01*
X82740500Y-91358697D01*
X82692604Y-91117906D01*
X82510152Y-90844848D01*
X82441223Y-90798791D01*
X82429209Y-90786777D01*
X82383152Y-90717848D01*
X82110094Y-90535396D01*
X81869303Y-90487500D01*
X81869301Y-90487500D01*
X81788000Y-90471328D01*
X81706699Y-90487500D01*
X64642740Y-90487500D01*
X64642740Y-88874600D01*
X64593457Y-88626835D01*
X64453109Y-88416791D01*
X64416007Y-88392000D01*
X105763993Y-88392000D01*
X105726891Y-88416791D01*
X105726891Y-88416791D01*
G37*
X105726891Y-88416791D02*
X105586543Y-88626835D01*
X105537260Y-88874600D01*
X105537260Y-90652600D01*
X105554943Y-90741500D01*
X101875631Y-90741500D01*
X101794328Y-90725328D01*
X101472233Y-90789396D01*
X101389244Y-90844848D01*
X101199176Y-90971848D01*
X101153121Y-91040774D01*
X99619777Y-92574119D01*
X99550848Y-92620176D01*
X99368396Y-92893235D01*
X99325955Y-93106603D01*
X99304328Y-93215328D01*
X99320500Y-93296630D01*
X99320501Y-100129788D01*
X99268569Y-100181720D01*
X99111000Y-100562126D01*
X99111000Y-100973874D01*
X99268569Y-101354280D01*
X99559720Y-101645431D01*
X99940126Y-101803000D01*
X100111000Y-101803000D01*
X100111000Y-102104789D01*
X100059069Y-102156720D01*
X99901500Y-102537126D01*
X99901500Y-102948874D01*
X100059069Y-103329280D01*
X100350220Y-103620431D01*
X100730626Y-103778000D01*
X100901500Y-103778000D01*
X100901500Y-104009789D01*
X100849569Y-104061720D01*
X100692000Y-104442126D01*
X100692000Y-104853874D01*
X100849569Y-105234280D01*
X101140720Y-105525431D01*
X101521126Y-105683000D01*
X101932874Y-105683000D01*
X102313280Y-105525431D01*
X102604431Y-105234280D01*
X102762000Y-104853874D01*
X102762000Y-104442126D01*
X102604431Y-104061720D01*
X102552500Y-104009789D01*
X102552500Y-93686932D01*
X102576933Y-93662500D01*
X109875299Y-93662500D01*
X109956600Y-93678672D01*
X110037901Y-93662500D01*
X110037903Y-93662500D01*
X110278694Y-93614604D01*
X110551752Y-93432152D01*
X110597809Y-93363223D01*
X112286226Y-91674807D01*
X112355152Y-91628752D01*
X112477988Y-91444916D01*
X112537604Y-91355695D01*
X112566971Y-91208056D01*
X112713109Y-91110409D01*
X112853457Y-90900365D01*
X112902740Y-90652600D01*
X112902740Y-88874600D01*
X112853457Y-88626835D01*
X112713109Y-88416791D01*
X112676007Y-88392000D01*
X113383993Y-88392000D01*
X113346891Y-88416791D01*
X113206543Y-88626835D01*
X113157260Y-88874600D01*
X113157260Y-90652600D01*
X113206543Y-90900365D01*
X113346891Y-91110409D01*
X113556935Y-91250757D01*
X113804700Y-91300040D01*
X114795300Y-91300040D01*
X115043065Y-91250757D01*
X115253109Y-91110409D01*
X115393457Y-90900365D01*
X115442740Y-90652600D01*
X115442740Y-88874600D01*
X115393457Y-88626835D01*
X115253109Y-88416791D01*
X115216007Y-88392000D01*
X115923993Y-88392000D01*
X115886891Y-88416791D01*
X115746543Y-88626835D01*
X115697260Y-88874600D01*
X115697260Y-90652600D01*
X115746543Y-90900365D01*
X115886891Y-91110409D01*
X116014500Y-91195676D01*
X116014501Y-92071788D01*
X115962569Y-92123720D01*
X115805000Y-92504126D01*
X115805000Y-92915874D01*
X115962569Y-93296280D01*
X116253720Y-93587431D01*
X116634126Y-93745000D01*
X117045874Y-93745000D01*
X117426280Y-93587431D01*
X117717431Y-93296280D01*
X117875000Y-92915874D01*
X117875000Y-92504126D01*
X117717431Y-92123720D01*
X117665500Y-92071789D01*
X117665500Y-91195675D01*
X117793109Y-91110409D01*
X117933457Y-90900365D01*
X117982740Y-90652600D01*
X117982740Y-88874600D01*
X117933457Y-88626835D01*
X117793109Y-88416791D01*
X117756007Y-88392000D01*
X118463993Y-88392000D01*
X118426891Y-88416791D01*
X118286543Y-88626835D01*
X118237260Y-88874600D01*
X118237260Y-90652600D01*
X118286543Y-90900365D01*
X118426891Y-91110409D01*
X118636935Y-91250757D01*
X118884700Y-91300040D01*
X119355308Y-91300040D01*
X122175227Y-94119960D01*
X121424700Y-94119960D01*
X121176935Y-94169243D01*
X120966891Y-94309591D01*
X120826543Y-94519635D01*
X120777260Y-94767400D01*
X120777260Y-96545400D01*
X120793808Y-96628594D01*
X120792374Y-96628000D01*
X120506310Y-96628000D01*
X120522740Y-96545400D01*
X120522740Y-94767400D01*
X120473457Y-94519635D01*
X120333109Y-94309591D01*
X120123065Y-94169243D01*
X120067604Y-94158211D01*
X119975152Y-94019848D01*
X119702094Y-93837396D01*
X119380000Y-93773328D01*
X119057907Y-93837396D01*
X118784849Y-94019848D01*
X118692398Y-94158211D01*
X118636935Y-94169243D01*
X118426891Y-94309591D01*
X118286543Y-94519635D01*
X118237260Y-94767400D01*
X118237260Y-96545400D01*
X118286543Y-96793165D01*
X118351638Y-96890586D01*
X118086348Y-97067848D01*
X118070543Y-97091502D01*
X117660970Y-97091502D01*
X117793109Y-97003209D01*
X117933457Y-96793165D01*
X117982740Y-96545400D01*
X117982740Y-94767400D01*
X117933457Y-94519635D01*
X117793109Y-94309591D01*
X117583065Y-94169243D01*
X117335300Y-94119960D01*
X116344700Y-94119960D01*
X116096935Y-94169243D01*
X115886891Y-94309591D01*
X115746543Y-94519635D01*
X115697260Y-94767400D01*
X115697260Y-95886227D01*
X115442740Y-95631708D01*
X115442740Y-94767400D01*
X115393457Y-94519635D01*
X115253109Y-94309591D01*
X115043065Y-94169243D01*
X114795300Y-94119960D01*
X113804700Y-94119960D01*
X113556935Y-94169243D01*
X113346891Y-94309591D01*
X113206543Y-94519635D01*
X113157260Y-94767400D01*
X113157260Y-95924327D01*
X112902740Y-95669808D01*
X112902740Y-94767400D01*
X112853457Y-94519635D01*
X112713109Y-94309591D01*
X112503065Y-94169243D01*
X112255300Y-94119960D01*
X111264700Y-94119960D01*
X111016935Y-94169243D01*
X110806891Y-94309591D01*
X110666543Y-94519635D01*
X110617260Y-94767400D01*
X110617260Y-96545400D01*
X110666543Y-96793165D01*
X110806891Y-97003209D01*
X110939028Y-97091501D01*
X110040972Y-97091501D01*
X110173109Y-97003209D01*
X110313457Y-96793165D01*
X110362740Y-96545400D01*
X110362740Y-94767400D01*
X110313457Y-94519635D01*
X110173109Y-94309591D01*
X109963065Y-94169243D01*
X109715300Y-94119960D01*
X108724700Y-94119960D01*
X108476935Y-94169243D01*
X108266891Y-94309591D01*
X108126543Y-94519635D01*
X108077260Y-94767400D01*
X108077260Y-96545400D01*
X108126543Y-96793165D01*
X108266891Y-97003209D01*
X108399027Y-97091500D01*
X107505500Y-97091500D01*
X107505500Y-97088475D01*
X107633109Y-97003209D01*
X107773457Y-96793165D01*
X107822740Y-96545400D01*
X107822740Y-94767400D01*
X107773457Y-94519635D01*
X107633109Y-94309591D01*
X107423065Y-94169243D01*
X107175300Y-94119960D01*
X106184700Y-94119960D01*
X105936935Y-94169243D01*
X105726891Y-94309591D01*
X105586543Y-94519635D01*
X105537260Y-94767400D01*
X105537260Y-96545400D01*
X105586543Y-96793165D01*
X105726891Y-97003209D01*
X105854500Y-97088475D01*
X105854500Y-97772199D01*
X105838328Y-97853500D01*
X105854500Y-97934801D01*
X105854500Y-97934802D01*
X105863590Y-97980500D01*
X104965500Y-97980500D01*
X104965500Y-97088475D01*
X105093109Y-97003209D01*
X105233457Y-96793165D01*
X105282740Y-96545400D01*
X105282740Y-94767400D01*
X105233457Y-94519635D01*
X105093109Y-94309591D01*
X104883065Y-94169243D01*
X104635300Y-94119960D01*
X103644700Y-94119960D01*
X103396935Y-94169243D01*
X103186891Y-94309591D01*
X103046543Y-94519635D01*
X102997260Y-94767400D01*
X102997260Y-96545400D01*
X103046543Y-96793165D01*
X103186891Y-97003209D01*
X103314500Y-97088476D01*
X103314501Y-98470694D01*
X103298328Y-98552000D01*
X103352632Y-98825000D01*
X103362397Y-98874094D01*
X103544849Y-99147152D01*
X103613775Y-99193207D01*
X103752791Y-99332223D01*
X103798848Y-99401152D01*
X104071906Y-99583604D01*
X104312697Y-99631500D01*
X104312702Y-99631500D01*
X104393999Y-99647671D01*
X104475297Y-99631500D01*
X110644237Y-99631500D01*
X110598000Y-99743126D01*
X110598000Y-99944455D01*
X110597096Y-99949000D01*
X110598000Y-99953545D01*
X110598000Y-100154874D01*
X110675045Y-100340877D01*
X110675949Y-100345423D01*
X110678524Y-100349277D01*
X110755569Y-100535280D01*
X110897930Y-100677641D01*
X110900505Y-100681495D01*
X110904359Y-100684070D01*
X111046720Y-100826431D01*
X111232723Y-100903476D01*
X111236577Y-100906051D01*
X111241123Y-100906955D01*
X111427126Y-100984000D01*
X111838874Y-100984000D01*
X111884744Y-100965000D01*
X138390160Y-100965000D01*
X138684001Y-101258842D01*
X138684001Y-108407651D01*
X138672431Y-108379720D01*
X138381280Y-108088569D01*
X138000874Y-107931000D01*
X137589126Y-107931000D01*
X137208720Y-108088569D01*
X136917569Y-108379720D01*
X136760000Y-108760126D01*
X136760000Y-109171874D01*
X136917569Y-109552280D01*
X136967321Y-109602032D01*
X136969500Y-109612986D01*
X136969500Y-109612988D01*
X137017396Y-109853779D01*
X137199849Y-110126837D01*
X137268774Y-110172892D01*
X137477500Y-110381618D01*
X137477500Y-110486789D01*
X137425569Y-110538720D01*
X137268000Y-110919126D01*
X137268000Y-111330874D01*
X137425569Y-111711280D01*
X137716720Y-112002431D01*
X138097126Y-112160000D01*
X138508874Y-112160000D01*
X138684000Y-112087460D01*
X138684000Y-116969256D01*
X138665000Y-117015126D01*
X138665000Y-117426874D01*
X138742045Y-117612878D01*
X138742949Y-117617422D01*
X138745523Y-117621275D01*
X138822569Y-117807280D01*
X138964930Y-117949641D01*
X138967505Y-117953495D01*
X138971359Y-117956070D01*
X139113720Y-118098431D01*
X139299723Y-118175476D01*
X139303577Y-118178051D01*
X139308123Y-118178955D01*
X139494126Y-118256000D01*
X139695455Y-118256000D01*
X139700000Y-118256904D01*
X139704545Y-118256000D01*
X139905874Y-118256000D01*
X140091878Y-118178955D01*
X140096422Y-118178051D01*
X140100275Y-118175477D01*
X140286280Y-118098431D01*
X140428641Y-117956070D01*
X140432495Y-117953495D01*
X140435070Y-117949641D01*
X140577431Y-117807280D01*
X140654476Y-117621277D01*
X140657051Y-117617423D01*
X140657955Y-117612877D01*
X140735000Y-117426874D01*
X140735000Y-117015126D01*
X140716000Y-116969256D01*
X140716000Y-101091066D01*
X141033500Y-100959553D01*
X141033500Y-101427302D01*
X141033501Y-101427307D01*
X141033500Y-126150068D01*
X140951775Y-126231792D01*
X140951773Y-126231794D01*
X140247068Y-126936500D01*
X115270303Y-126936500D01*
X115189000Y-126920328D01*
X114866905Y-126984396D01*
X114816274Y-127018227D01*
X114593848Y-127166848D01*
X114547793Y-127235774D01*
X113773775Y-128009793D01*
X113704849Y-128055848D01*
X113658794Y-128124774D01*
X113522397Y-128328906D01*
X113458328Y-128651000D01*
X113474501Y-128732306D01*
X113474500Y-130383302D01*
X113474501Y-130383306D01*
X113474500Y-131511525D01*
X113346891Y-131596791D01*
X113206543Y-131806835D01*
X113157260Y-132054600D01*
X113157260Y-133832600D01*
X113206543Y-134080365D01*
X113346891Y-134290409D01*
X113556935Y-134430757D01*
X113804700Y-134480040D01*
X114795300Y-134480040D01*
X115043065Y-134430757D01*
X115253109Y-134290409D01*
X115393457Y-134080365D01*
X115442740Y-133832600D01*
X115442740Y-132054600D01*
X115393457Y-131806835D01*
X115253109Y-131596791D01*
X115125500Y-131511525D01*
X115125500Y-128992932D01*
X115530933Y-128587500D01*
X116229044Y-128587500D01*
X116062396Y-128836907D01*
X116014500Y-129077697D01*
X115998328Y-129159000D01*
X116014500Y-129240302D01*
X116014501Y-131511524D01*
X115886891Y-131596791D01*
X115746543Y-131806835D01*
X115697260Y-132054600D01*
X115697260Y-133832600D01*
X115746543Y-134080365D01*
X115886891Y-134290409D01*
X116096935Y-134430757D01*
X116344700Y-134480040D01*
X117335300Y-134480040D01*
X117583065Y-134430757D01*
X117793109Y-134290409D01*
X117933457Y-134080365D01*
X117982740Y-133832600D01*
X117982740Y-132054600D01*
X118237260Y-132054600D01*
X118237260Y-133832600D01*
X118286543Y-134080365D01*
X118426891Y-134290409D01*
X118636935Y-134430757D01*
X118884700Y-134480040D01*
X119875300Y-134480040D01*
X120123065Y-134430757D01*
X120333109Y-134290409D01*
X120473457Y-134080365D01*
X120522740Y-133832600D01*
X120522740Y-132054600D01*
X120777260Y-132054600D01*
X120777260Y-133832600D01*
X120826543Y-134080365D01*
X120966891Y-134290409D01*
X121176935Y-134430757D01*
X121424700Y-134480040D01*
X122415300Y-134480040D01*
X122663065Y-134430757D01*
X122873109Y-134290409D01*
X123013457Y-134080365D01*
X123062740Y-133832600D01*
X123062740Y-132054600D01*
X123317260Y-132054600D01*
X123317260Y-133832600D01*
X123366543Y-134080365D01*
X123506891Y-134290409D01*
X123716935Y-134430757D01*
X123964700Y-134480040D01*
X124955300Y-134480040D01*
X125203065Y-134430757D01*
X125413109Y-134290409D01*
X125553457Y-134080365D01*
X125602740Y-133832600D01*
X125602740Y-132054600D01*
X125553457Y-131806835D01*
X125413109Y-131596791D01*
X125285500Y-131511525D01*
X125285500Y-131266658D01*
X125524126Y-131365500D01*
X125935874Y-131365500D01*
X126225249Y-131245637D01*
X126222396Y-131249907D01*
X126181314Y-131456443D01*
X126169722Y-131514717D01*
X126046891Y-131596791D01*
X125906543Y-131806835D01*
X125857260Y-132054600D01*
X125857260Y-133832600D01*
X125906543Y-134080365D01*
X126046891Y-134290409D01*
X126256935Y-134430757D01*
X126504700Y-134480040D01*
X127495300Y-134480040D01*
X127743065Y-134430757D01*
X127953109Y-134290409D01*
X128093457Y-134080365D01*
X128142740Y-133832600D01*
X128142740Y-132054600D01*
X128093457Y-131806835D01*
X128029025Y-131710407D01*
X128103933Y-131635500D01*
X130171789Y-131635500D01*
X130223720Y-131687431D01*
X130604126Y-131845000D01*
X131015874Y-131845000D01*
X131396280Y-131687431D01*
X131687431Y-131396280D01*
X131845000Y-131015874D01*
X131845000Y-130604126D01*
X131687431Y-130223720D01*
X131396280Y-129932569D01*
X131015874Y-129775000D01*
X130604126Y-129775000D01*
X130223720Y-129932569D01*
X130171789Y-129984500D01*
X127843303Y-129984500D01*
X127762000Y-129968328D01*
X127439905Y-130032396D01*
X127303689Y-130123414D01*
X127166848Y-130214848D01*
X127120793Y-130283774D01*
X126692031Y-130712536D01*
X126765000Y-130536374D01*
X126765000Y-130124626D01*
X126607431Y-129744220D01*
X126316280Y-129453069D01*
X125935874Y-129295500D01*
X125524126Y-129295500D01*
X125143720Y-129453069D01*
X125108511Y-129488278D01*
X124968000Y-129460328D01*
X124743421Y-129505000D01*
X124645905Y-129524397D01*
X124441773Y-129660794D01*
X124441769Y-129660798D01*
X124372849Y-129706849D01*
X124326797Y-129775770D01*
X123933776Y-130168791D01*
X123864848Y-130214848D01*
X123682396Y-130487907D01*
X123655307Y-130624094D01*
X123618328Y-130810000D01*
X123634500Y-130891302D01*
X123634500Y-131511525D01*
X123506891Y-131596791D01*
X123366543Y-131806835D01*
X123317260Y-132054600D01*
X123062740Y-132054600D01*
X123013457Y-131806835D01*
X122873109Y-131596791D01*
X122663065Y-131456443D01*
X122415300Y-131407160D01*
X121424700Y-131407160D01*
X121176935Y-131456443D01*
X120966891Y-131596791D01*
X120826543Y-131806835D01*
X120777260Y-132054600D01*
X120522740Y-132054600D01*
X120473457Y-131806835D01*
X120333109Y-131596791D01*
X120123065Y-131456443D01*
X119875300Y-131407160D01*
X118884700Y-131407160D01*
X118636935Y-131456443D01*
X118426891Y-131596791D01*
X118286543Y-131806835D01*
X118237260Y-132054600D01*
X117982740Y-132054600D01*
X117933457Y-131806835D01*
X117793109Y-131596791D01*
X117665500Y-131511525D01*
X117665500Y-129500932D01*
X117943933Y-129222500D01*
X140694371Y-129222500D01*
X140775672Y-129238672D01*
X140856973Y-129222500D01*
X140856975Y-129222500D01*
X141097766Y-129174604D01*
X141370824Y-128992152D01*
X141416881Y-128923223D01*
X143020226Y-127319879D01*
X143089152Y-127273824D01*
X143264386Y-127011569D01*
X143271604Y-127000767D01*
X143335672Y-126678672D01*
X143319500Y-126597369D01*
X143319500Y-109450119D01*
X157353000Y-109450119D01*
X157353000Y-110005881D01*
X157565680Y-110519337D01*
X157958663Y-110912320D01*
X158165513Y-110998000D01*
X157958663Y-111083680D01*
X157565680Y-111476663D01*
X157353000Y-111990119D01*
X157353000Y-112545881D01*
X157565680Y-113059337D01*
X157958663Y-113452320D01*
X158472119Y-113665000D01*
X159027881Y-113665000D01*
X159541337Y-113452320D01*
X159934320Y-113059337D01*
X160147000Y-112545881D01*
X160147000Y-111990119D01*
X159934320Y-111476663D01*
X159541337Y-111083680D01*
X159334487Y-110998000D01*
X159541337Y-110912320D01*
X159934320Y-110519337D01*
X160147000Y-110005881D01*
X160147000Y-109450119D01*
X159934320Y-108936663D01*
X159541337Y-108543680D01*
X159027881Y-108331000D01*
X158472119Y-108331000D01*
X157958663Y-108543680D01*
X157565680Y-108936663D01*
X157353000Y-109450119D01*
X143319500Y-109450119D01*
X143319500Y-101830119D01*
X157353000Y-101830119D01*
X157353000Y-102385881D01*
X157565680Y-102899337D01*
X157958663Y-103292320D01*
X158165513Y-103378000D01*
X157958663Y-103463680D01*
X157565680Y-103856663D01*
X157353000Y-104370119D01*
X157353000Y-104925881D01*
X157565680Y-105439337D01*
X157958663Y-105832320D01*
X158472119Y-106045000D01*
X159027881Y-106045000D01*
X159541337Y-105832320D01*
X159934320Y-105439337D01*
X160147000Y-104925881D01*
X160147000Y-104370119D01*
X159934320Y-103856663D01*
X159541337Y-103463680D01*
X159334487Y-103378000D01*
X159541337Y-103292320D01*
X159934320Y-102899337D01*
X160147000Y-102385881D01*
X160147000Y-101830119D01*
X159934320Y-101316663D01*
X159541337Y-100923680D01*
X159027881Y-100711000D01*
X158472119Y-100711000D01*
X157958663Y-100923680D01*
X157565680Y-101316663D01*
X157353000Y-101830119D01*
X143319500Y-101830119D01*
X143319500Y-100573432D01*
X143372433Y-100520500D01*
X155825789Y-100520500D01*
X155877720Y-100572431D01*
X156258126Y-100730000D01*
X156669874Y-100730000D01*
X157050280Y-100572431D01*
X157341431Y-100281280D01*
X157499000Y-99900874D01*
X157499000Y-99489126D01*
X157341431Y-99108720D01*
X157050280Y-98817569D01*
X156669874Y-98660000D01*
X156258126Y-98660000D01*
X155877720Y-98817569D01*
X155825789Y-98869500D01*
X145815000Y-98869500D01*
X145815000Y-98600126D01*
X145657431Y-98219720D01*
X145366280Y-97928569D01*
X144985874Y-97771000D01*
X144574126Y-97771000D01*
X144193720Y-97928569D01*
X144141789Y-97980500D01*
X121575263Y-97980500D01*
X121621500Y-97868874D01*
X121621500Y-97457126D01*
X121512029Y-97192840D01*
X122415300Y-97192840D01*
X122663065Y-97143557D01*
X122873109Y-97003209D01*
X123013457Y-96793165D01*
X123062740Y-96545400D01*
X123062740Y-94767400D01*
X123047144Y-94688991D01*
X123075699Y-94694671D01*
X123156997Y-94678500D01*
X123334943Y-94678500D01*
X123317260Y-94767400D01*
X123317260Y-96545400D01*
X123366543Y-96793165D01*
X123506891Y-97003209D01*
X123716935Y-97143557D01*
X123964700Y-97192840D01*
X124955300Y-97192840D01*
X125203065Y-97143557D01*
X125413109Y-97003209D01*
X125553457Y-96793165D01*
X125602740Y-96545400D01*
X125602740Y-94767400D01*
X125585057Y-94678500D01*
X125874943Y-94678500D01*
X125857260Y-94767400D01*
X125857260Y-96545400D01*
X125906543Y-96793165D01*
X126046891Y-97003209D01*
X126256935Y-97143557D01*
X126504700Y-97192840D01*
X127495300Y-97192840D01*
X127743065Y-97143557D01*
X127953109Y-97003209D01*
X128093457Y-96793165D01*
X128142740Y-96545400D01*
X128142740Y-94767400D01*
X128125057Y-94678500D01*
X134665699Y-94678500D01*
X134747000Y-94694672D01*
X134828301Y-94678500D01*
X134828303Y-94678500D01*
X135069094Y-94630604D01*
X135342152Y-94448152D01*
X135388209Y-94379223D01*
X135527223Y-94240209D01*
X135596152Y-94194152D01*
X135778604Y-93921094D01*
X135826500Y-93680303D01*
X135826500Y-93680298D01*
X135842671Y-93599001D01*
X135826500Y-93517703D01*
X135826500Y-93348211D01*
X135878431Y-93296280D01*
X136036000Y-92915874D01*
X136036000Y-92592510D01*
X142221000Y-92592510D01*
X142221000Y-92915874D01*
X142378569Y-93296280D01*
X142669720Y-93587431D01*
X143050126Y-93745000D01*
X143461874Y-93745000D01*
X143842280Y-93587431D01*
X144133431Y-93296280D01*
X144291000Y-92915874D01*
X144291000Y-92504126D01*
X144133431Y-92123720D01*
X144081500Y-92071789D01*
X144081500Y-92029303D01*
X144085041Y-92011500D01*
X157035500Y-92011500D01*
X157035500Y-92071789D01*
X156983569Y-92123720D01*
X156826000Y-92504126D01*
X156826000Y-92915874D01*
X156983569Y-93296280D01*
X157222789Y-93535500D01*
X156983569Y-93774720D01*
X156826000Y-94155126D01*
X156826000Y-94424500D01*
X142878211Y-94424500D01*
X142826280Y-94372569D01*
X142445874Y-94215000D01*
X142034126Y-94215000D01*
X141653720Y-94372569D01*
X141362569Y-94663720D01*
X141205000Y-95044126D01*
X141205000Y-95455874D01*
X141362569Y-95836280D01*
X141653720Y-96127431D01*
X142034126Y-96285000D01*
X142445874Y-96285000D01*
X142826280Y-96127431D01*
X142878211Y-96075500D01*
X157779698Y-96075500D01*
X157861000Y-96091672D01*
X157965394Y-96070907D01*
X158183094Y-96027604D01*
X158456152Y-95845152D01*
X158638604Y-95572094D01*
X158702672Y-95250000D01*
X158686500Y-95168697D01*
X158686500Y-94999211D01*
X158738431Y-94947280D01*
X158896000Y-94566874D01*
X158896000Y-94155126D01*
X158738431Y-93774720D01*
X158499211Y-93535500D01*
X158738431Y-93296280D01*
X158896000Y-92915874D01*
X158896000Y-92504126D01*
X158738431Y-92123720D01*
X158686500Y-92071789D01*
X158686500Y-91394297D01*
X158702671Y-91312999D01*
X158686500Y-91231702D01*
X158686500Y-91231697D01*
X158638604Y-90990906D01*
X158456152Y-90717848D01*
X158387223Y-90671791D01*
X158375209Y-90659777D01*
X158329152Y-90590848D01*
X158056094Y-90408396D01*
X157815303Y-90360500D01*
X157815301Y-90360500D01*
X157734000Y-90344328D01*
X157652699Y-90360500D01*
X128142740Y-90360500D01*
X128142740Y-88874600D01*
X128093457Y-88626835D01*
X127953109Y-88416791D01*
X127916007Y-88392000D01*
X163120000Y-88392000D01*
X163120001Y-116027412D01*
X163059910Y-116447009D01*
X162905619Y-116786352D01*
X162662288Y-117068752D01*
X162349479Y-117271506D01*
X161968815Y-117385348D01*
X161771649Y-117400000D01*
X146119926Y-117400000D01*
X146050000Y-117386091D01*
X145980075Y-117400000D01*
X145980074Y-117400000D01*
X145772972Y-117441195D01*
X145538119Y-117598119D01*
X145381195Y-117832972D01*
X145326091Y-118110000D01*
X145340001Y-118179931D01*
X145340000Y-138868074D01*
X145326091Y-138938000D01*
X145381195Y-139215028D01*
X145538119Y-139449881D01*
X145772972Y-139606805D01*
X145932571Y-139638551D01*
X146050000Y-139661909D01*
X146119925Y-139648000D01*
X161747419Y-139648000D01*
X162167009Y-139708090D01*
X162506352Y-139862381D01*
X162788752Y-140105712D01*
X162991506Y-140418523D01*
X163105348Y-140799184D01*
X163120001Y-140996363D01*
X163120000Y-148501760D01*
X162774241Y-148605164D01*
X162686769Y-148645582D01*
X162598806Y-148684929D01*
X162591502Y-148689601D01*
X162591498Y-148689603D01*
X162591499Y-148689603D01*
X162108040Y-149002966D01*
X162035447Y-149066293D01*
X161962045Y-149128763D01*
X161956343Y-149135300D01*
X161580266Y-149571759D01*
X161528347Y-149652942D01*
X161475446Y-149733475D01*
X161471808Y-149741350D01*
X161233347Y-150265817D01*
X161206300Y-150358309D01*
X161178129Y-150450452D01*
X161176847Y-150459031D01*
X161095171Y-151029346D01*
X161095171Y-151101766D01*
X161089362Y-151173963D01*
X161089952Y-151182618D01*
X161112272Y-151482966D01*
X161127826Y-151553711D01*
X161137654Y-151625455D01*
X161140088Y-151633781D01*
X161305164Y-152185758D01*
X161345591Y-152273250D01*
X161384930Y-152361194D01*
X161389603Y-152368501D01*
X161702966Y-152851961D01*
X161766328Y-152924594D01*
X161828763Y-152997955D01*
X161835296Y-153003654D01*
X161835300Y-153003658D01*
X161835305Y-153003661D01*
X162271759Y-153379734D01*
X162352942Y-153431653D01*
X162433475Y-153484554D01*
X162441346Y-153488190D01*
X162441349Y-153488192D01*
X162441352Y-153488193D01*
X162965817Y-153726653D01*
X163058309Y-153753700D01*
X163120001Y-153772561D01*
X163120000Y-161747418D01*
X163059910Y-162167009D01*
X162905619Y-162506352D01*
X162662288Y-162788752D01*
X162349479Y-162991506D01*
X161968815Y-163105348D01*
X161771649Y-163120000D01*
X41452581Y-163120000D01*
X41032991Y-163059910D01*
X40693648Y-162905619D01*
X40411248Y-162662288D01*
X40208494Y-162349479D01*
X40094652Y-161968815D01*
X40080000Y-161771649D01*
X40080000Y-153772719D01*
X40165509Y-153746577D01*
X40257967Y-153719540D01*
X40265841Y-153715902D01*
X40787356Y-153471052D01*
X40867925Y-153418128D01*
X40949073Y-153366232D01*
X40955610Y-153360530D01*
X41387442Y-152979149D01*
X41449887Y-152905776D01*
X41513240Y-152833153D01*
X41517913Y-152825846D01*
X41825346Y-152338593D01*
X41864687Y-152250645D01*
X41905111Y-152163160D01*
X41907545Y-152154835D01*
X42065866Y-151600882D01*
X42078943Y-151505421D01*
X42093187Y-151410111D01*
X42093187Y-151401436D01*
X42089667Y-150825313D01*
X42075414Y-150729943D01*
X42062346Y-150634544D01*
X42059912Y-150626219D01*
X41894836Y-150074241D01*
X41854418Y-149986769D01*
X41815071Y-149898806D01*
X41810397Y-149891499D01*
X41497034Y-149408040D01*
X41433707Y-149335447D01*
X41371237Y-149262045D01*
X41364700Y-149256343D01*
X40928241Y-148880266D01*
X40847058Y-148828347D01*
X40766525Y-148775446D01*
X40758654Y-148771810D01*
X40758651Y-148771808D01*
X40758648Y-148771807D01*
X40234183Y-148533347D01*
X40141691Y-148506300D01*
X40080000Y-148487439D01*
X40080000Y-140359971D01*
X40144700Y-140372840D01*
X41135300Y-140372840D01*
X41383065Y-140323557D01*
X41593109Y-140183209D01*
X41733457Y-139973165D01*
X41782740Y-139725400D01*
X41782740Y-137947400D01*
X41733457Y-137699635D01*
X41593109Y-137489591D01*
X41575014Y-137477500D01*
X42244986Y-137477500D01*
X42226891Y-137489591D01*
X42086543Y-137699635D01*
X42037260Y-137947400D01*
X42037260Y-139725400D01*
X42086543Y-139973165D01*
X42226891Y-140183209D01*
X42436935Y-140323557D01*
X42684700Y-140372840D01*
X43675300Y-140372840D01*
X43923065Y-140323557D01*
X44133109Y-140183209D01*
X44273457Y-139973165D01*
X44322740Y-139725400D01*
X44322740Y-137947400D01*
X44273457Y-137699635D01*
X44133109Y-137489591D01*
X44115014Y-137477500D01*
X44784986Y-137477500D01*
X44766891Y-137489591D01*
X44626543Y-137699635D01*
X44577260Y-137947400D01*
X44577260Y-139725400D01*
X44626543Y-139973165D01*
X44766891Y-140183209D01*
X44976935Y-140323557D01*
X45224700Y-140372840D01*
X46215300Y-140372840D01*
X46463065Y-140323557D01*
X46673109Y-140183209D01*
X46813457Y-139973165D01*
X46862740Y-139725400D01*
X46862740Y-137947400D01*
X46813457Y-137699635D01*
X46673109Y-137489591D01*
X46655014Y-137477500D01*
X47324986Y-137477500D01*
X47306891Y-137489591D01*
X47166543Y-137699635D01*
X47117260Y-137947400D01*
X47117260Y-139725400D01*
X47166543Y-139973165D01*
X47306891Y-140183209D01*
X47516935Y-140323557D01*
X47764700Y-140372840D01*
X48755300Y-140372840D01*
X49003065Y-140323557D01*
X49213109Y-140183209D01*
X49353457Y-139973165D01*
X49402740Y-139725400D01*
X49402740Y-137947400D01*
X49353457Y-137699635D01*
X49345014Y-137687000D01*
X49714986Y-137687000D01*
X49706543Y-137699635D01*
X49657260Y-137947400D01*
X49657260Y-139725400D01*
X49706543Y-139973165D01*
X49846891Y-140183209D01*
X49974501Y-140268476D01*
X49974500Y-144698698D01*
X49958328Y-144780000D01*
X49974500Y-144861301D01*
X49974500Y-144861302D01*
X50022396Y-145102093D01*
X50204848Y-145375152D01*
X50273777Y-145421209D01*
X50793793Y-145941226D01*
X50839848Y-146010152D01*
X50908773Y-146056206D01*
X51112906Y-146192604D01*
X51435000Y-146256672D01*
X51516303Y-146240500D01*
X52701789Y-146240500D01*
X52753720Y-146292431D01*
X53134126Y-146450000D01*
X53545874Y-146450000D01*
X53926280Y-146292431D01*
X54217431Y-146001280D01*
X54375000Y-145620874D01*
X54375000Y-145209126D01*
X54276158Y-144970500D01*
X55241789Y-144970500D01*
X55293720Y-145022431D01*
X55674126Y-145180000D01*
X56085874Y-145180000D01*
X56466280Y-145022431D01*
X56757431Y-144731280D01*
X56915000Y-144350874D01*
X56915000Y-143939126D01*
X56816158Y-143700500D01*
X57781789Y-143700500D01*
X57833720Y-143752431D01*
X58214126Y-143910000D01*
X58625874Y-143910000D01*
X59006280Y-143752431D01*
X59297431Y-143461280D01*
X59455000Y-143080874D01*
X59455000Y-142669126D01*
X59356158Y-142430500D01*
X60321789Y-142430500D01*
X60373720Y-142482431D01*
X60754126Y-142640000D01*
X61165874Y-142640000D01*
X61546280Y-142482431D01*
X61837431Y-142191280D01*
X61995000Y-141810874D01*
X61995000Y-141399126D01*
X61837431Y-141018720D01*
X61546280Y-140727569D01*
X61165874Y-140570000D01*
X60754126Y-140570000D01*
X60373720Y-140727569D01*
X60321789Y-140779500D01*
X59396933Y-140779500D01*
X59245500Y-140628068D01*
X59245500Y-140268475D01*
X59373109Y-140183209D01*
X59513457Y-139973165D01*
X59562740Y-139725400D01*
X59562740Y-137947400D01*
X59513457Y-137699635D01*
X59373109Y-137489591D01*
X59164946Y-137350500D01*
X60215054Y-137350500D01*
X60006891Y-137489591D01*
X59866543Y-137699635D01*
X59817260Y-137947400D01*
X59817260Y-139725400D01*
X59866543Y-139973165D01*
X60006891Y-140183209D01*
X60216935Y-140323557D01*
X60464700Y-140372840D01*
X61455300Y-140372840D01*
X61703065Y-140323557D01*
X61913109Y-140183209D01*
X62053457Y-139973165D01*
X62102740Y-139725400D01*
X62102740Y-137947400D01*
X62053457Y-137699635D01*
X61913109Y-137489591D01*
X61704946Y-137350500D01*
X62523068Y-137350500D01*
X62615989Y-137443421D01*
X62546891Y-137489591D01*
X62406543Y-137699635D01*
X62357260Y-137947400D01*
X62357260Y-139725400D01*
X62406543Y-139973165D01*
X62546891Y-140183209D01*
X62756935Y-140323557D01*
X63004700Y-140372840D01*
X63995300Y-140372840D01*
X64243065Y-140323557D01*
X64453109Y-140183209D01*
X64593457Y-139973165D01*
X64642740Y-139725400D01*
X64642740Y-137947400D01*
X102997260Y-137947400D01*
X102997260Y-139725400D01*
X103046543Y-139973165D01*
X103186891Y-140183209D01*
X103396935Y-140323557D01*
X103644700Y-140372840D01*
X104635300Y-140372840D01*
X104883065Y-140323557D01*
X105093109Y-140183209D01*
X105233457Y-139973165D01*
X105282740Y-139725400D01*
X105282740Y-137947400D01*
X105537260Y-137947400D01*
X105537260Y-139725400D01*
X105586543Y-139973165D01*
X105726891Y-140183209D01*
X105936935Y-140323557D01*
X106184700Y-140372840D01*
X107175300Y-140372840D01*
X107423065Y-140323557D01*
X107633109Y-140183209D01*
X107773457Y-139973165D01*
X107822740Y-139725400D01*
X107822740Y-137947400D01*
X108077260Y-137947400D01*
X108077260Y-139725400D01*
X108126543Y-139973165D01*
X108266891Y-140183209D01*
X108394501Y-140268476D01*
X108394500Y-141650698D01*
X108378328Y-141732000D01*
X108394500Y-141813301D01*
X108394500Y-141813302D01*
X108442396Y-142054093D01*
X108624848Y-142327152D01*
X108693776Y-142373209D01*
X109086793Y-142766225D01*
X109132848Y-142835152D01*
X109405906Y-143017604D01*
X109646697Y-143065500D01*
X109646701Y-143065500D01*
X109727999Y-143081671D01*
X109809297Y-143065500D01*
X109851789Y-143065500D01*
X109903720Y-143117431D01*
X110284126Y-143275000D01*
X110695874Y-143275000D01*
X111076280Y-143117431D01*
X111367431Y-142826280D01*
X111525000Y-142445874D01*
X111525000Y-142034126D01*
X111367431Y-141653720D01*
X111076280Y-141362569D01*
X110695874Y-141205000D01*
X110284126Y-141205000D01*
X110045500Y-141303842D01*
X110045500Y-140268475D01*
X110173109Y-140183209D01*
X110313457Y-139973165D01*
X110362740Y-139725400D01*
X110362740Y-137947400D01*
X110319795Y-137731500D01*
X110660205Y-137731500D01*
X110617260Y-137947400D01*
X110617260Y-139725400D01*
X110666543Y-139973165D01*
X110806891Y-140183209D01*
X110934500Y-140268475D01*
X110934500Y-140634698D01*
X110918328Y-140716000D01*
X110934500Y-140797301D01*
X110934500Y-140797302D01*
X110982396Y-141038093D01*
X111164848Y-141311152D01*
X111233776Y-141357209D01*
X111626793Y-141750225D01*
X111672848Y-141819152D01*
X111945906Y-142001604D01*
X112125645Y-142037356D01*
X112189720Y-142101431D01*
X112570126Y-142259000D01*
X112981874Y-142259000D01*
X113362280Y-142101431D01*
X113653431Y-141810280D01*
X113811000Y-141429874D01*
X113811000Y-141018126D01*
X113653431Y-140637720D01*
X113362280Y-140346569D01*
X112981874Y-140189000D01*
X112704442Y-140189000D01*
X112713109Y-140183209D01*
X112853457Y-139973165D01*
X112902740Y-139725400D01*
X112902740Y-137947400D01*
X112859795Y-137731500D01*
X113200205Y-137731500D01*
X113157260Y-137947400D01*
X113157260Y-139725400D01*
X113206543Y-139973165D01*
X113346891Y-140183209D01*
X113556935Y-140323557D01*
X113804700Y-140372840D01*
X114795300Y-140372840D01*
X115043065Y-140323557D01*
X115253109Y-140183209D01*
X115393457Y-139973165D01*
X115442740Y-139725400D01*
X115442740Y-137947400D01*
X115697260Y-137947400D01*
X115697260Y-139725400D01*
X115746543Y-139973165D01*
X115886891Y-140183209D01*
X116096935Y-140323557D01*
X116344700Y-140372840D01*
X117335300Y-140372840D01*
X117583065Y-140323557D01*
X117793109Y-140183209D01*
X117933457Y-139973165D01*
X117982740Y-139725400D01*
X117982740Y-137947400D01*
X117939795Y-137731500D01*
X118280205Y-137731500D01*
X118237260Y-137947400D01*
X118237260Y-139725400D01*
X118286543Y-139973165D01*
X118426891Y-140183209D01*
X118636935Y-140323557D01*
X118884700Y-140372840D01*
X119875300Y-140372840D01*
X120123065Y-140323557D01*
X120333109Y-140183209D01*
X120473457Y-139973165D01*
X120522740Y-139725400D01*
X120522740Y-137947400D01*
X120479795Y-137731500D01*
X120820205Y-137731500D01*
X120777260Y-137947400D01*
X120777260Y-139725400D01*
X120826543Y-139973165D01*
X120966891Y-140183209D01*
X121176935Y-140323557D01*
X121424700Y-140372840D01*
X122415300Y-140372840D01*
X122663065Y-140323557D01*
X122873109Y-140183209D01*
X123013457Y-139973165D01*
X123062740Y-139725400D01*
X123062740Y-137947400D01*
X123317260Y-137947400D01*
X123317260Y-139725400D01*
X123366543Y-139973165D01*
X123506891Y-140183209D01*
X123716935Y-140323557D01*
X123964700Y-140372840D01*
X124955300Y-140372840D01*
X125203065Y-140323557D01*
X125413109Y-140183209D01*
X125553457Y-139973165D01*
X125602740Y-139725400D01*
X125602740Y-137947400D01*
X125857260Y-137947400D01*
X125857260Y-139725400D01*
X125906543Y-139973165D01*
X126046891Y-140183209D01*
X126256935Y-140323557D01*
X126504700Y-140372840D01*
X127495300Y-140372840D01*
X127743065Y-140323557D01*
X127953109Y-140183209D01*
X128093457Y-139973165D01*
X128142740Y-139725400D01*
X128142740Y-137947400D01*
X128093457Y-137699635D01*
X127953109Y-137489591D01*
X127743065Y-137349243D01*
X127495300Y-137299960D01*
X126504700Y-137299960D01*
X126256935Y-137349243D01*
X126046891Y-137489591D01*
X125906543Y-137699635D01*
X125857260Y-137947400D01*
X125602740Y-137947400D01*
X125553457Y-137699635D01*
X125413109Y-137489591D01*
X125203065Y-137349243D01*
X124955300Y-137299960D01*
X123964700Y-137299960D01*
X123716935Y-137349243D01*
X123506891Y-137489591D01*
X123366543Y-137699635D01*
X123317260Y-137947400D01*
X123062740Y-137947400D01*
X123013457Y-137699635D01*
X122873109Y-137489591D01*
X122814708Y-137450569D01*
X122955000Y-137111874D01*
X122955000Y-136700126D01*
X122797431Y-136319720D01*
X122506280Y-136028569D01*
X122125874Y-135871000D01*
X121714126Y-135871000D01*
X121333720Y-136028569D01*
X121281789Y-136080500D01*
X117175297Y-136080500D01*
X117093999Y-136064329D01*
X117012702Y-136080500D01*
X117012697Y-136080500D01*
X116771906Y-136128396D01*
X116498848Y-136310848D01*
X116452791Y-136379777D01*
X116313777Y-136518791D01*
X116244848Y-136564848D01*
X116062396Y-136837907D01*
X116014500Y-137078697D01*
X115998328Y-137160000D01*
X116014500Y-137241302D01*
X116014500Y-137404325D01*
X115886891Y-137489591D01*
X115746543Y-137699635D01*
X115697260Y-137947400D01*
X115442740Y-137947400D01*
X115393457Y-137699635D01*
X115253109Y-137489591D01*
X115125500Y-137404325D01*
X115125500Y-137241297D01*
X115141671Y-137159999D01*
X115125500Y-137078702D01*
X115125500Y-137078697D01*
X115077604Y-136837906D01*
X114895152Y-136564848D01*
X114826223Y-136518791D01*
X114687209Y-136379777D01*
X114641152Y-136310848D01*
X114368094Y-136128396D01*
X114127303Y-136080500D01*
X114127301Y-136080500D01*
X114046000Y-136064328D01*
X113964699Y-136080500D01*
X109858211Y-136080500D01*
X109806280Y-136028569D01*
X109425874Y-135871000D01*
X109014126Y-135871000D01*
X108633720Y-136028569D01*
X108342569Y-136319720D01*
X108185000Y-136700126D01*
X108185000Y-137111874D01*
X108325292Y-137450569D01*
X108266891Y-137489591D01*
X108126543Y-137699635D01*
X108077260Y-137947400D01*
X107822740Y-137947400D01*
X107773457Y-137699635D01*
X107633109Y-137489591D01*
X107423065Y-137349243D01*
X107175300Y-137299960D01*
X106184700Y-137299960D01*
X105936935Y-137349243D01*
X105726891Y-137489591D01*
X105586543Y-137699635D01*
X105537260Y-137947400D01*
X105282740Y-137947400D01*
X105233457Y-137699635D01*
X105093109Y-137489591D01*
X104883065Y-137349243D01*
X104635300Y-137299960D01*
X103644700Y-137299960D01*
X103396935Y-137349243D01*
X103186891Y-137489591D01*
X103046543Y-137699635D01*
X102997260Y-137947400D01*
X64642740Y-137947400D01*
X64593457Y-137699635D01*
X64453109Y-137489591D01*
X64325500Y-137404325D01*
X64325500Y-137241303D01*
X64341672Y-137160000D01*
X64304694Y-136974095D01*
X64277604Y-136837906D01*
X64095152Y-136564848D01*
X64026226Y-136518793D01*
X63506209Y-135998777D01*
X63460152Y-135929848D01*
X63187094Y-135747396D01*
X62946303Y-135699500D01*
X62946301Y-135699500D01*
X62865000Y-135683328D01*
X62783699Y-135699500D01*
X55586933Y-135699500D01*
X55435500Y-135548068D01*
X55435500Y-134480040D01*
X56375300Y-134480040D01*
X56623065Y-134430757D01*
X56833109Y-134290409D01*
X56973457Y-134080365D01*
X57022740Y-133832600D01*
X57022740Y-132054600D01*
X56973457Y-131806835D01*
X56833109Y-131596791D01*
X56705500Y-131511525D01*
X56705500Y-110831932D01*
X56856933Y-110680500D01*
X57781789Y-110680500D01*
X57833720Y-110732431D01*
X58149384Y-110863183D01*
X57893777Y-111118791D01*
X57824848Y-111164848D01*
X57642396Y-111437907D01*
X57616221Y-111569500D01*
X57578328Y-111760000D01*
X57594500Y-111841302D01*
X57594501Y-131511524D01*
X57466891Y-131596791D01*
X57326543Y-131806835D01*
X57277260Y-132054600D01*
X57277260Y-133832600D01*
X57326543Y-134080365D01*
X57466891Y-134290409D01*
X57676935Y-134430757D01*
X57924700Y-134480040D01*
X58915300Y-134480040D01*
X59163065Y-134430757D01*
X59373109Y-134290409D01*
X59513457Y-134080365D01*
X59562740Y-133832600D01*
X59562740Y-132054600D01*
X59513457Y-131806835D01*
X59373109Y-131596791D01*
X59245500Y-131511525D01*
X59245500Y-112101932D01*
X59396933Y-111950500D01*
X60321789Y-111950500D01*
X60373720Y-112002431D01*
X60689384Y-112133183D01*
X60433777Y-112388791D01*
X60364848Y-112434848D01*
X60182396Y-112707907D01*
X60156221Y-112839500D01*
X60118328Y-113030000D01*
X60134500Y-113111302D01*
X60134501Y-131511524D01*
X60006891Y-131596791D01*
X59866543Y-131806835D01*
X59817260Y-132054600D01*
X59817260Y-133832600D01*
X59866543Y-134080365D01*
X60006891Y-134290409D01*
X60216935Y-134430757D01*
X60464700Y-134480040D01*
X61455300Y-134480040D01*
X61703065Y-134430757D01*
X61913109Y-134290409D01*
X62053457Y-134080365D01*
X62102740Y-133832600D01*
X62102740Y-132054600D01*
X62053457Y-131806835D01*
X61913109Y-131596791D01*
X61785500Y-131511525D01*
X61785500Y-113371932D01*
X61936933Y-113220500D01*
X62861789Y-113220500D01*
X62913720Y-113272431D01*
X63229384Y-113403183D01*
X62973777Y-113658791D01*
X62904848Y-113704848D01*
X62722396Y-113977907D01*
X62695307Y-114114094D01*
X62658328Y-114300000D01*
X62674500Y-114381302D01*
X62674501Y-115488694D01*
X62674500Y-115488698D01*
X62674501Y-131511524D01*
X62546891Y-131596791D01*
X62406543Y-131806835D01*
X62357260Y-132054600D01*
X62357260Y-133832600D01*
X62406543Y-134080365D01*
X62546891Y-134290409D01*
X62756935Y-134430757D01*
X63004700Y-134480040D01*
X63995300Y-134480040D01*
X64243065Y-134430757D01*
X64453109Y-134290409D01*
X64593457Y-134080365D01*
X64642740Y-133832600D01*
X64642740Y-132054600D01*
X64593457Y-131806835D01*
X64453109Y-131596791D01*
X64325500Y-131511525D01*
X64325500Y-127889000D01*
X64369096Y-127889000D01*
X64370000Y-127893545D01*
X64370000Y-128094874D01*
X64447045Y-128280877D01*
X64447949Y-128285423D01*
X64450524Y-128289277D01*
X64527569Y-128475280D01*
X64669930Y-128617641D01*
X64672505Y-128621495D01*
X64676359Y-128624070D01*
X64818720Y-128766431D01*
X65004723Y-128843476D01*
X65008577Y-128846051D01*
X65013123Y-128846955D01*
X65199126Y-128924000D01*
X65610874Y-128924000D01*
X65656744Y-128905000D01*
X67691001Y-128905000D01*
X67691000Y-134531434D01*
X67691001Y-134531438D01*
X67691001Y-134549342D01*
X67522680Y-134717663D01*
X67310000Y-135231119D01*
X67310000Y-135786881D01*
X67522680Y-136300337D01*
X67915663Y-136693320D01*
X68429119Y-136906000D01*
X68984881Y-136906000D01*
X69498337Y-136693320D01*
X69891320Y-136300337D01*
X69977000Y-136093487D01*
X70062680Y-136300337D01*
X70455663Y-136693320D01*
X70969119Y-136906000D01*
X71524881Y-136906000D01*
X72038337Y-136693320D01*
X72431320Y-136300337D01*
X72644000Y-135786881D01*
X72644000Y-135231119D01*
X72431320Y-134717663D01*
X72038337Y-134324680D01*
X71524881Y-134112000D01*
X70969119Y-134112000D01*
X70455663Y-134324680D01*
X70062680Y-134717663D01*
X69977000Y-134924513D01*
X69891320Y-134717663D01*
X69723000Y-134549343D01*
X69723000Y-128905000D01*
X76581000Y-128905000D01*
X76581001Y-134549342D01*
X76412680Y-134717663D01*
X76200000Y-135231119D01*
X76200000Y-135786881D01*
X76412680Y-136300337D01*
X76805663Y-136693320D01*
X77319119Y-136906000D01*
X77874881Y-136906000D01*
X78388337Y-136693320D01*
X78781320Y-136300337D01*
X78867000Y-136093487D01*
X78952680Y-136300337D01*
X79345663Y-136693320D01*
X79859119Y-136906000D01*
X80414881Y-136906000D01*
X80928337Y-136693320D01*
X81321320Y-136300337D01*
X81534000Y-135786881D01*
X81534000Y-135231119D01*
X81321320Y-134717663D01*
X80928337Y-134324680D01*
X80414881Y-134112000D01*
X79859119Y-134112000D01*
X79345663Y-134324680D01*
X78952680Y-134717663D01*
X78867000Y-134924513D01*
X78781320Y-134717663D01*
X78613000Y-134549343D01*
X78613000Y-128905000D01*
X85471000Y-128905000D01*
X85471001Y-134549342D01*
X85302680Y-134717663D01*
X85090000Y-135231119D01*
X85090000Y-135786881D01*
X85302680Y-136300337D01*
X85695663Y-136693320D01*
X86209119Y-136906000D01*
X86764881Y-136906000D01*
X87278337Y-136693320D01*
X87671320Y-136300337D01*
X87757000Y-136093487D01*
X87842680Y-136300337D01*
X88235663Y-136693320D01*
X88749119Y-136906000D01*
X89304881Y-136906000D01*
X89818337Y-136693320D01*
X90211320Y-136300337D01*
X90424000Y-135786881D01*
X90424000Y-135231119D01*
X90211320Y-134717663D01*
X89818337Y-134324680D01*
X89304881Y-134112000D01*
X88749119Y-134112000D01*
X88235663Y-134324680D01*
X87842680Y-134717663D01*
X87757000Y-134924513D01*
X87671320Y-134717663D01*
X87503000Y-134549343D01*
X87503000Y-128905000D01*
X94361000Y-128905000D01*
X94361001Y-134549342D01*
X94192680Y-134717663D01*
X93980000Y-135231119D01*
X93980000Y-135786881D01*
X94192680Y-136300337D01*
X94585663Y-136693320D01*
X95099119Y-136906000D01*
X95654881Y-136906000D01*
X96168337Y-136693320D01*
X96561320Y-136300337D01*
X96647000Y-136093487D01*
X96732680Y-136300337D01*
X97125663Y-136693320D01*
X97639119Y-136906000D01*
X98194881Y-136906000D01*
X98708337Y-136693320D01*
X99101320Y-136300337D01*
X99314000Y-135786881D01*
X99314000Y-135231119D01*
X99101320Y-134717663D01*
X98708337Y-134324680D01*
X98194881Y-134112000D01*
X97639119Y-134112000D01*
X97125663Y-134324680D01*
X96732680Y-134717663D01*
X96647000Y-134924513D01*
X96561320Y-134717663D01*
X96393000Y-134549343D01*
X96393000Y-132054600D01*
X102997260Y-132054600D01*
X102997260Y-133832600D01*
X103046543Y-134080365D01*
X103186891Y-134290409D01*
X103396935Y-134430757D01*
X103644700Y-134480040D01*
X104635300Y-134480040D01*
X104883065Y-134430757D01*
X105093109Y-134290409D01*
X105233457Y-134080365D01*
X105282740Y-133832600D01*
X105282740Y-132054600D01*
X108077260Y-132054600D01*
X108077260Y-133832600D01*
X108126543Y-134080365D01*
X108266891Y-134290409D01*
X108476935Y-134430757D01*
X108724700Y-134480040D01*
X109715300Y-134480040D01*
X109963065Y-134430757D01*
X110173109Y-134290409D01*
X110313457Y-134080365D01*
X110362740Y-133832600D01*
X110362740Y-132054600D01*
X110617260Y-132054600D01*
X110617260Y-133832600D01*
X110666543Y-134080365D01*
X110806891Y-134290409D01*
X111016935Y-134430757D01*
X111264700Y-134480040D01*
X112255300Y-134480040D01*
X112503065Y-134430757D01*
X112713109Y-134290409D01*
X112853457Y-134080365D01*
X112902740Y-133832600D01*
X112902740Y-132054600D01*
X112853457Y-131806835D01*
X112713109Y-131596791D01*
X112503065Y-131456443D01*
X112255300Y-131407160D01*
X111264700Y-131407160D01*
X111016935Y-131456443D01*
X110806891Y-131596791D01*
X110666543Y-131806835D01*
X110617260Y-132054600D01*
X110362740Y-132054600D01*
X110313457Y-131806835D01*
X110173109Y-131596791D01*
X109963065Y-131456443D01*
X109715300Y-131407160D01*
X108724700Y-131407160D01*
X108476935Y-131456443D01*
X108266891Y-131596791D01*
X108126543Y-131806835D01*
X108077260Y-132054600D01*
X105282740Y-132054600D01*
X105233457Y-131806835D01*
X105093109Y-131596791D01*
X104883065Y-131456443D01*
X104635300Y-131407160D01*
X103644700Y-131407160D01*
X103396935Y-131456443D01*
X103186891Y-131596791D01*
X103046543Y-131806835D01*
X102997260Y-132054600D01*
X96393000Y-132054600D01*
X96393000Y-128905000D01*
X102618256Y-128905000D01*
X102664126Y-128924000D01*
X103075874Y-128924000D01*
X103261877Y-128846955D01*
X103266423Y-128846051D01*
X103270277Y-128843476D01*
X103456280Y-128766431D01*
X103598641Y-128624070D01*
X103602495Y-128621495D01*
X103605070Y-128617641D01*
X103747431Y-128475280D01*
X103824476Y-128289277D01*
X103827051Y-128285423D01*
X103827955Y-128280877D01*
X103905000Y-128094874D01*
X103905000Y-127893545D01*
X103905904Y-127889000D01*
X103905000Y-127884455D01*
X103905000Y-127683126D01*
X103827955Y-127497123D01*
X103827051Y-127492577D01*
X103824476Y-127488723D01*
X103747431Y-127302720D01*
X103605070Y-127160359D01*
X103602495Y-127156505D01*
X103598641Y-127153930D01*
X103456280Y-127011569D01*
X103270277Y-126934524D01*
X103266423Y-126931949D01*
X103261877Y-126931045D01*
X103075874Y-126854000D01*
X102664126Y-126854000D01*
X102618256Y-126873000D01*
X96393000Y-126873000D01*
X96393000Y-122498657D01*
X96561320Y-122330337D01*
X96647000Y-122123487D01*
X96732680Y-122330337D01*
X97125663Y-122723320D01*
X97639119Y-122936000D01*
X98194881Y-122936000D01*
X98708337Y-122723320D01*
X99101320Y-122330337D01*
X99314000Y-121816881D01*
X99314000Y-121261119D01*
X99101320Y-120747663D01*
X98708337Y-120354680D01*
X98194881Y-120142000D01*
X97639119Y-120142000D01*
X97125663Y-120354680D01*
X96732680Y-120747663D01*
X96647000Y-120954513D01*
X96561320Y-120747663D01*
X96168337Y-120354680D01*
X95654881Y-120142000D01*
X95099119Y-120142000D01*
X94585663Y-120354680D01*
X94192680Y-120747663D01*
X93980000Y-121261119D01*
X93980000Y-121816881D01*
X94192680Y-122330337D01*
X94361001Y-122498658D01*
X94361001Y-122516562D01*
X94361000Y-122516566D01*
X94361001Y-126645931D01*
X94361000Y-126645936D01*
X94361000Y-126873000D01*
X87503000Y-126873000D01*
X87503000Y-122498657D01*
X87671320Y-122330337D01*
X87757000Y-122123487D01*
X87842680Y-122330337D01*
X88235663Y-122723320D01*
X88749119Y-122936000D01*
X89304881Y-122936000D01*
X89818337Y-122723320D01*
X90211320Y-122330337D01*
X90424000Y-121816881D01*
X90424000Y-121261119D01*
X90211320Y-120747663D01*
X89818337Y-120354680D01*
X89304881Y-120142000D01*
X88749119Y-120142000D01*
X88235663Y-120354680D01*
X87842680Y-120747663D01*
X87757000Y-120954513D01*
X87671320Y-120747663D01*
X87278337Y-120354680D01*
X86764881Y-120142000D01*
X86209119Y-120142000D01*
X85695663Y-120354680D01*
X85302680Y-120747663D01*
X85090000Y-121261119D01*
X85090000Y-121816881D01*
X85302680Y-122330337D01*
X85471001Y-122498658D01*
X85471001Y-122516562D01*
X85471000Y-122516566D01*
X85471001Y-126645931D01*
X85471000Y-126645936D01*
X85471000Y-126873000D01*
X78613000Y-126873000D01*
X78613000Y-122498657D01*
X78781320Y-122330337D01*
X78867000Y-122123487D01*
X78952680Y-122330337D01*
X79345663Y-122723320D01*
X79859119Y-122936000D01*
X80414881Y-122936000D01*
X80928337Y-122723320D01*
X81321320Y-122330337D01*
X81534000Y-121816881D01*
X81534000Y-121261119D01*
X81321320Y-120747663D01*
X80928337Y-120354680D01*
X80414881Y-120142000D01*
X79859119Y-120142000D01*
X79345663Y-120354680D01*
X78952680Y-120747663D01*
X78867000Y-120954513D01*
X78781320Y-120747663D01*
X78388337Y-120354680D01*
X77874881Y-120142000D01*
X77319119Y-120142000D01*
X76805663Y-120354680D01*
X76412680Y-120747663D01*
X76200000Y-121261119D01*
X76200000Y-121816881D01*
X76412680Y-122330337D01*
X76581001Y-122498658D01*
X76581001Y-122516562D01*
X76581000Y-122516566D01*
X76581001Y-126645931D01*
X76581000Y-126645936D01*
X76581000Y-126873000D01*
X69723000Y-126873000D01*
X69723000Y-122498657D01*
X69891320Y-122330337D01*
X69977000Y-122123487D01*
X70062680Y-122330337D01*
X70455663Y-122723320D01*
X70969119Y-122936000D01*
X71524881Y-122936000D01*
X72038337Y-122723320D01*
X72431320Y-122330337D01*
X72644000Y-121816881D01*
X72644000Y-121261119D01*
X72431320Y-120747663D01*
X72038337Y-120354680D01*
X71524881Y-120142000D01*
X70969119Y-120142000D01*
X70455663Y-120354680D01*
X70062680Y-120747663D01*
X69977000Y-120954513D01*
X69891320Y-120747663D01*
X69498337Y-120354680D01*
X68984881Y-120142000D01*
X68429119Y-120142000D01*
X67915663Y-120354680D01*
X67522680Y-120747663D01*
X67310000Y-121261119D01*
X67310000Y-121816881D01*
X67522680Y-122330337D01*
X67691001Y-122498658D01*
X67691001Y-122516562D01*
X67691000Y-122516566D01*
X67691001Y-126645935D01*
X67691001Y-126873000D01*
X65656744Y-126873000D01*
X65610874Y-126854000D01*
X65199126Y-126854000D01*
X65013123Y-126931045D01*
X65008577Y-126931949D01*
X65004723Y-126934524D01*
X64818720Y-127011569D01*
X64676359Y-127153930D01*
X64672505Y-127156505D01*
X64669930Y-127160359D01*
X64527569Y-127302720D01*
X64450524Y-127488723D01*
X64447949Y-127492577D01*
X64447045Y-127497123D01*
X64370000Y-127683126D01*
X64370000Y-127884455D01*
X64369096Y-127889000D01*
X64325500Y-127889000D01*
X64325500Y-115570000D01*
X101834096Y-115570000D01*
X101835000Y-115574545D01*
X101835000Y-115775874D01*
X101912045Y-115961877D01*
X101912949Y-115966423D01*
X101915524Y-115970277D01*
X101992569Y-116156280D01*
X102134930Y-116298641D01*
X102137505Y-116302495D01*
X102141359Y-116305070D01*
X102283720Y-116447431D01*
X102469723Y-116524476D01*
X102473577Y-116527051D01*
X102478123Y-116527955D01*
X102664126Y-116605000D01*
X103075874Y-116605000D01*
X103121744Y-116586000D01*
X105664000Y-116586000D01*
X105664001Y-123500342D01*
X105495680Y-123668663D01*
X105283000Y-124182119D01*
X105283000Y-124737881D01*
X105495680Y-125251337D01*
X105888663Y-125644320D01*
X106402119Y-125857000D01*
X106957881Y-125857000D01*
X107471337Y-125644320D01*
X107864320Y-125251337D01*
X107950000Y-125044487D01*
X108035680Y-125251337D01*
X108428663Y-125644320D01*
X108942119Y-125857000D01*
X109497881Y-125857000D01*
X110011337Y-125644320D01*
X110404320Y-125251337D01*
X110617000Y-124737881D01*
X110617000Y-124182119D01*
X110404320Y-123668663D01*
X110011337Y-123275680D01*
X109497881Y-123063000D01*
X108942119Y-123063000D01*
X108428663Y-123275680D01*
X108035680Y-123668663D01*
X107950000Y-123875513D01*
X107864320Y-123668663D01*
X107696000Y-123500343D01*
X107696000Y-116586000D01*
X118364000Y-116586000D01*
X118364001Y-123500342D01*
X118195680Y-123668663D01*
X117983000Y-124182119D01*
X117983000Y-124737881D01*
X118195680Y-125251337D01*
X118588663Y-125644320D01*
X119102119Y-125857000D01*
X119657881Y-125857000D01*
X120171337Y-125644320D01*
X120564320Y-125251337D01*
X120650000Y-125044487D01*
X120735680Y-125251337D01*
X121128663Y-125644320D01*
X121642119Y-125857000D01*
X122197881Y-125857000D01*
X122711337Y-125644320D01*
X123104320Y-125251337D01*
X123317000Y-124737881D01*
X123317000Y-124182119D01*
X123104320Y-123668663D01*
X122711337Y-123275680D01*
X122197881Y-123063000D01*
X121642119Y-123063000D01*
X121128663Y-123275680D01*
X120735680Y-123668663D01*
X120650000Y-123875513D01*
X120564320Y-123668663D01*
X120396000Y-123500343D01*
X120396000Y-116586000D01*
X126621256Y-116586000D01*
X126667126Y-116605000D01*
X127078874Y-116605000D01*
X127264877Y-116527955D01*
X127269423Y-116527051D01*
X127273277Y-116524476D01*
X127459280Y-116447431D01*
X127601641Y-116305070D01*
X127605495Y-116302495D01*
X127608070Y-116298641D01*
X127750431Y-116156280D01*
X127827476Y-115970277D01*
X127830051Y-115966423D01*
X127830955Y-115961877D01*
X127908000Y-115775874D01*
X127908000Y-115574545D01*
X127908904Y-115570000D01*
X127908000Y-115565455D01*
X127908000Y-115364126D01*
X127830955Y-115178123D01*
X127830051Y-115173577D01*
X127827476Y-115169723D01*
X127750431Y-114983720D01*
X127608070Y-114841359D01*
X127605495Y-114837505D01*
X127601641Y-114834930D01*
X127459280Y-114692569D01*
X127273277Y-114615524D01*
X127269423Y-114612949D01*
X127264877Y-114612045D01*
X127078874Y-114535000D01*
X126667126Y-114535000D01*
X126621256Y-114554000D01*
X120396000Y-114554000D01*
X120396000Y-108909657D01*
X120564320Y-108741337D01*
X120650000Y-108534487D01*
X120735680Y-108741337D01*
X121128663Y-109134320D01*
X121642119Y-109347000D01*
X122197881Y-109347000D01*
X122711337Y-109134320D01*
X123104320Y-108741337D01*
X123317000Y-108227881D01*
X123317000Y-107672119D01*
X123104320Y-107158663D01*
X122711337Y-106765680D01*
X122197881Y-106553000D01*
X121642119Y-106553000D01*
X121128663Y-106765680D01*
X120735680Y-107158663D01*
X120650000Y-107365513D01*
X120564320Y-107158663D01*
X120171337Y-106765680D01*
X119657881Y-106553000D01*
X119102119Y-106553000D01*
X118588663Y-106765680D01*
X118195680Y-107158663D01*
X117983000Y-107672119D01*
X117983000Y-108227881D01*
X118195680Y-108741337D01*
X118364001Y-108909658D01*
X118364001Y-108927562D01*
X118364000Y-108927566D01*
X118364001Y-114554000D01*
X107696000Y-114554000D01*
X107696000Y-108909657D01*
X107864320Y-108741337D01*
X107950000Y-108534487D01*
X108035680Y-108741337D01*
X108428663Y-109134320D01*
X108942119Y-109347000D01*
X109497881Y-109347000D01*
X110011337Y-109134320D01*
X110404320Y-108741337D01*
X110617000Y-108227881D01*
X110617000Y-107672119D01*
X110404320Y-107158663D01*
X110011337Y-106765680D01*
X109497881Y-106553000D01*
X108942119Y-106553000D01*
X108428663Y-106765680D01*
X108035680Y-107158663D01*
X107950000Y-107365513D01*
X107864320Y-107158663D01*
X107471337Y-106765680D01*
X106957881Y-106553000D01*
X106402119Y-106553000D01*
X105888663Y-106765680D01*
X105495680Y-107158663D01*
X105283000Y-107672119D01*
X105283000Y-108227881D01*
X105495680Y-108741337D01*
X105664001Y-108909658D01*
X105664001Y-108927562D01*
X105664000Y-108927566D01*
X105664001Y-114554000D01*
X103121744Y-114554000D01*
X103075874Y-114535000D01*
X102664126Y-114535000D01*
X102478123Y-114612045D01*
X102473577Y-114612949D01*
X102469723Y-114615524D01*
X102283720Y-114692569D01*
X102141359Y-114834930D01*
X102137505Y-114837505D01*
X102134930Y-114841359D01*
X101992569Y-114983720D01*
X101915524Y-115169723D01*
X101912949Y-115173577D01*
X101912045Y-115178123D01*
X101835000Y-115364126D01*
X101835000Y-115565455D01*
X101834096Y-115570000D01*
X64325500Y-115570000D01*
X64325500Y-114641932D01*
X64476933Y-114490500D01*
X65401789Y-114490500D01*
X65453720Y-114542431D01*
X65834126Y-114700000D01*
X66245874Y-114700000D01*
X66626280Y-114542431D01*
X66917431Y-114251280D01*
X67075000Y-113870874D01*
X67075000Y-113459126D01*
X66917431Y-113078720D01*
X66626280Y-112787569D01*
X66245874Y-112630000D01*
X65834126Y-112630000D01*
X65453720Y-112787569D01*
X65401789Y-112839500D01*
X64436158Y-112839500D01*
X64535000Y-112600874D01*
X64535000Y-112189126D01*
X64377431Y-111808720D01*
X64086280Y-111517569D01*
X63705874Y-111360000D01*
X63294126Y-111360000D01*
X62913720Y-111517569D01*
X62861789Y-111569500D01*
X61896158Y-111569500D01*
X61995000Y-111330874D01*
X61995000Y-110919126D01*
X61837431Y-110538720D01*
X61546280Y-110247569D01*
X61165874Y-110090000D01*
X60754126Y-110090000D01*
X60373720Y-110247569D01*
X60321789Y-110299500D01*
X59356158Y-110299500D01*
X59455000Y-110060874D01*
X59455000Y-109649126D01*
X59297431Y-109268720D01*
X59006280Y-108977569D01*
X58625874Y-108820000D01*
X58214126Y-108820000D01*
X57833720Y-108977569D01*
X57781789Y-109029500D01*
X56596303Y-109029500D01*
X56515000Y-109013328D01*
X56433697Y-109029500D01*
X56192906Y-109077396D01*
X55919848Y-109259848D01*
X55873793Y-109328774D01*
X55353777Y-109848791D01*
X55284848Y-109894848D01*
X55102396Y-110167907D01*
X55061530Y-110373357D01*
X55038328Y-110490000D01*
X55054500Y-110571302D01*
X55054500Y-111672067D01*
X54616209Y-111233777D01*
X54570152Y-111164848D01*
X54297094Y-110982396D01*
X54056303Y-110934500D01*
X54056301Y-110934500D01*
X53975000Y-110918328D01*
X53893699Y-110934500D01*
X43792422Y-110934500D01*
X43790436Y-110924515D01*
X43810865Y-110910865D01*
X44194334Y-110336963D01*
X44328990Y-109660000D01*
X44194334Y-108983037D01*
X43810865Y-108409135D01*
X43236963Y-108025666D01*
X42730880Y-107925000D01*
X41089120Y-107925000D01*
X40583037Y-108025666D01*
X40080000Y-108361785D01*
X40080000Y-98154640D01*
X40113777Y-98177209D01*
X40252791Y-98316223D01*
X40298848Y-98385152D01*
X40521439Y-98533883D01*
X40494000Y-98600126D01*
X40494000Y-99011874D01*
X40651569Y-99392280D01*
X40942720Y-99683431D01*
X41323126Y-99841000D01*
X41396568Y-99841000D01*
X41932293Y-100376726D01*
X41978348Y-100445652D01*
X42251406Y-100628104D01*
X42492197Y-100676000D01*
X42492201Y-100676000D01*
X42573499Y-100692171D01*
X42654797Y-100676000D01*
X48891789Y-100676000D01*
X48943720Y-100727931D01*
X49324126Y-100885500D01*
X49735874Y-100885500D01*
X50116280Y-100727931D01*
X50168211Y-100676000D01*
X57195698Y-100676000D01*
X57277000Y-100692172D01*
X57358303Y-100676000D01*
X66085698Y-100676000D01*
X66167000Y-100692172D01*
X66248303Y-100676000D01*
X66432988Y-100676000D01*
X66432993Y-100675999D01*
X79900197Y-100676001D01*
X79981499Y-100692173D01*
X80062800Y-100676001D01*
X80062801Y-100676001D01*
X80303592Y-100628105D01*
X80576650Y-100445653D01*
X80622705Y-100376727D01*
X80790223Y-100209209D01*
X80859152Y-100163152D01*
X81041604Y-99890094D01*
X81089500Y-99649303D01*
X81105672Y-99568000D01*
X81089500Y-99486697D01*
X81089500Y-97666211D01*
X81328720Y-97905431D01*
X81709126Y-98063000D01*
X82120874Y-98063000D01*
X82501280Y-97905431D01*
X82792431Y-97614280D01*
X82950000Y-97233874D01*
X82950000Y-96822126D01*
X82792431Y-96441720D01*
X82740500Y-96389789D01*
X82740500Y-91521297D01*
X82756671Y-91439999D01*
X82740500Y-91358702D01*
X82740500Y-91358697D01*
X82692604Y-91117906D01*
X82510152Y-90844848D01*
X82441223Y-90798791D01*
X82429209Y-90786777D01*
X82383152Y-90717848D01*
X82110094Y-90535396D01*
X81869303Y-90487500D01*
X81869301Y-90487500D01*
X81788000Y-90471328D01*
X81706699Y-90487500D01*
X64642740Y-90487500D01*
X64642740Y-88874600D01*
X64593457Y-88626835D01*
X64453109Y-88416791D01*
X64416007Y-88392000D01*
X105763993Y-88392000D01*
X105726891Y-88416791D01*
G36*
X53784500Y-112736933D02*
X53784501Y-113153788D01*
X53732569Y-113205720D01*
X53575000Y-113586126D01*
X53575000Y-113997874D01*
X53732569Y-114378280D01*
X53784500Y-114430211D01*
X53784501Y-131407160D01*
X52844700Y-131407160D01*
X52596935Y-131456443D01*
X52386891Y-131596791D01*
X52246543Y-131806835D01*
X52197260Y-132054600D01*
X52197260Y-133832600D01*
X52246543Y-134080365D01*
X52386891Y-134290409D01*
X52596935Y-134430757D01*
X52844700Y-134480040D01*
X53784501Y-134480040D01*
X53784501Y-135808694D01*
X53768328Y-135890000D01*
X53830569Y-136202906D01*
X53832397Y-136212094D01*
X54014849Y-136485152D01*
X54083775Y-136531207D01*
X54603793Y-137051226D01*
X54649848Y-137120152D01*
X54918949Y-137299960D01*
X54922906Y-137302604D01*
X55147156Y-137347210D01*
X55136935Y-137349243D01*
X54926891Y-137489591D01*
X54786543Y-137699635D01*
X54737260Y-137947400D01*
X54737260Y-139725400D01*
X54786543Y-139973165D01*
X54926891Y-140183209D01*
X55054501Y-140268476D01*
X55054500Y-142158698D01*
X55038328Y-142240000D01*
X55054500Y-142321301D01*
X55054500Y-142321302D01*
X55102396Y-142562093D01*
X55284848Y-142835152D01*
X55353777Y-142881209D01*
X55609384Y-143136817D01*
X55293720Y-143267569D01*
X55241789Y-143319500D01*
X54316933Y-143319500D01*
X54165500Y-143168068D01*
X54165500Y-140268475D01*
X54293109Y-140183209D01*
X54433457Y-139973165D01*
X54482740Y-139725400D01*
X54482740Y-137947400D01*
X54433457Y-137699635D01*
X54293109Y-137489591D01*
X54083065Y-137349243D01*
X53835300Y-137299960D01*
X52844700Y-137299960D01*
X52596935Y-137349243D01*
X52386891Y-137489591D01*
X52246543Y-137699635D01*
X52197260Y-137947400D01*
X52197260Y-139725400D01*
X52246543Y-139973165D01*
X52386891Y-140183209D01*
X52514501Y-140268476D01*
X52514500Y-143428698D01*
X52498328Y-143510000D01*
X52514500Y-143591301D01*
X52514500Y-143591302D01*
X52562396Y-143832093D01*
X52744848Y-144105152D01*
X52813777Y-144151209D01*
X53069384Y-144406817D01*
X52753720Y-144537569D01*
X52701789Y-144589500D01*
X51776933Y-144589500D01*
X51625500Y-144438068D01*
X51625500Y-140268475D01*
X51753109Y-140183209D01*
X51893457Y-139973165D01*
X51942740Y-139725400D01*
X51942740Y-137947400D01*
X51893457Y-137699635D01*
X51753109Y-137489591D01*
X51543065Y-137349243D01*
X51295300Y-137299960D01*
X50345751Y-137299960D01*
X50407431Y-137238280D01*
X50565000Y-136857874D01*
X50565000Y-136446126D01*
X50407431Y-136065720D01*
X50116280Y-135774569D01*
X49735874Y-135617000D01*
X49324126Y-135617000D01*
X48943720Y-135774569D01*
X48891789Y-135826500D01*
X41229297Y-135826500D01*
X41147999Y-135810329D01*
X41066701Y-135826500D01*
X41066697Y-135826500D01*
X40825906Y-135874396D01*
X40552848Y-136056848D01*
X40506793Y-136125775D01*
X40113776Y-136518791D01*
X40080000Y-136541360D01*
X40080000Y-134467171D01*
X40144700Y-134480040D01*
X41135300Y-134480040D01*
X41383065Y-134430757D01*
X41593109Y-134290409D01*
X41733457Y-134080365D01*
X41782740Y-133832600D01*
X41782740Y-132054600D01*
X44577260Y-132054600D01*
X44577260Y-133832600D01*
X44626543Y-134080365D01*
X44766891Y-134290409D01*
X44976935Y-134430757D01*
X45224700Y-134480040D01*
X46215300Y-134480040D01*
X46463065Y-134430757D01*
X46673109Y-134290409D01*
X46813457Y-134080365D01*
X46862740Y-133832600D01*
X46862740Y-132054600D01*
X47117260Y-132054600D01*
X47117260Y-133832600D01*
X47166543Y-134080365D01*
X47306891Y-134290409D01*
X47516935Y-134430757D01*
X47764700Y-134480040D01*
X48755300Y-134480040D01*
X49003065Y-134430757D01*
X49213109Y-134290409D01*
X49353457Y-134080365D01*
X49402740Y-133832600D01*
X49402740Y-132054600D01*
X49657260Y-132054600D01*
X49657260Y-133832600D01*
X49706543Y-134080365D01*
X49846891Y-134290409D01*
X50056935Y-134430757D01*
X50304700Y-134480040D01*
X51295300Y-134480040D01*
X51543065Y-134430757D01*
X51753109Y-134290409D01*
X51893457Y-134080365D01*
X51942740Y-133832600D01*
X51942740Y-132054600D01*
X51893457Y-131806835D01*
X51753109Y-131596791D01*
X51625500Y-131511525D01*
X51625500Y-128908211D01*
X51677431Y-128856280D01*
X51835000Y-128475874D01*
X51835000Y-128064126D01*
X51677431Y-127683720D01*
X51386280Y-127392569D01*
X51005874Y-127235000D01*
X50594126Y-127235000D01*
X50213720Y-127392569D01*
X49922569Y-127683720D01*
X49765000Y-128064126D01*
X49765000Y-128475874D01*
X49922569Y-128856280D01*
X49974501Y-128908212D01*
X49974500Y-131511525D01*
X49846891Y-131596791D01*
X49706543Y-131806835D01*
X49657260Y-132054600D01*
X49402740Y-132054600D01*
X49353457Y-131806835D01*
X49213109Y-131596791D01*
X49085500Y-131511525D01*
X49085500Y-128908211D01*
X49137431Y-128856280D01*
X49295000Y-128475874D01*
X49295000Y-128064126D01*
X49137431Y-127683720D01*
X48846280Y-127392569D01*
X48465874Y-127235000D01*
X48054126Y-127235000D01*
X47673720Y-127392569D01*
X47382569Y-127683720D01*
X47225000Y-128064126D01*
X47225000Y-128475874D01*
X47382569Y-128856280D01*
X47434501Y-128908212D01*
X47434500Y-131511525D01*
X47306891Y-131596791D01*
X47166543Y-131806835D01*
X47117260Y-132054600D01*
X46862740Y-132054600D01*
X46813457Y-131806835D01*
X46673109Y-131596791D01*
X46463065Y-131456443D01*
X46215300Y-131407160D01*
X45224700Y-131407160D01*
X44976935Y-131456443D01*
X44766891Y-131596791D01*
X44626543Y-131806835D01*
X44577260Y-132054600D01*
X41782740Y-132054600D01*
X41733457Y-131806835D01*
X41593109Y-131596791D01*
X41383065Y-131456443D01*
X41135300Y-131407160D01*
X40144700Y-131407160D01*
X40080000Y-131420029D01*
X40080000Y-119158215D01*
X40583037Y-119494334D01*
X41089120Y-119595000D01*
X42730880Y-119595000D01*
X43236963Y-119494334D01*
X43810865Y-119110865D01*
X44194334Y-118536963D01*
X44328990Y-117860000D01*
X44194334Y-117183037D01*
X43810865Y-116609135D01*
X43601724Y-116469392D01*
X43714641Y-116300400D01*
X43822133Y-115760000D01*
X43714641Y-115219600D01*
X43408529Y-114761471D01*
X43406327Y-114760000D01*
X43408529Y-114758529D01*
X43714641Y-114300400D01*
X43822133Y-113760000D01*
X43714641Y-113219600D01*
X43568441Y-113000796D01*
X43617809Y-112967809D01*
X43758157Y-112757765D01*
X43792422Y-112585500D01*
X53633068Y-112585500D01*
X53784500Y-112736933D01*
X53784500Y-112736933D01*
G37*
X53784500Y-112736933D02*
X53784501Y-113153788D01*
X53732569Y-113205720D01*
X53575000Y-113586126D01*
X53575000Y-113997874D01*
X53732569Y-114378280D01*
X53784500Y-114430211D01*
X53784501Y-131407160D01*
X52844700Y-131407160D01*
X52596935Y-131456443D01*
X52386891Y-131596791D01*
X52246543Y-131806835D01*
X52197260Y-132054600D01*
X52197260Y-133832600D01*
X52246543Y-134080365D01*
X52386891Y-134290409D01*
X52596935Y-134430757D01*
X52844700Y-134480040D01*
X53784501Y-134480040D01*
X53784501Y-135808694D01*
X53768328Y-135890000D01*
X53830569Y-136202906D01*
X53832397Y-136212094D01*
X54014849Y-136485152D01*
X54083775Y-136531207D01*
X54603793Y-137051226D01*
X54649848Y-137120152D01*
X54918949Y-137299960D01*
X54922906Y-137302604D01*
X55147156Y-137347210D01*
X55136935Y-137349243D01*
X54926891Y-137489591D01*
X54786543Y-137699635D01*
X54737260Y-137947400D01*
X54737260Y-139725400D01*
X54786543Y-139973165D01*
X54926891Y-140183209D01*
X55054501Y-140268476D01*
X55054500Y-142158698D01*
X55038328Y-142240000D01*
X55054500Y-142321301D01*
X55054500Y-142321302D01*
X55102396Y-142562093D01*
X55284848Y-142835152D01*
X55353777Y-142881209D01*
X55609384Y-143136817D01*
X55293720Y-143267569D01*
X55241789Y-143319500D01*
X54316933Y-143319500D01*
X54165500Y-143168068D01*
X54165500Y-140268475D01*
X54293109Y-140183209D01*
X54433457Y-139973165D01*
X54482740Y-139725400D01*
X54482740Y-137947400D01*
X54433457Y-137699635D01*
X54293109Y-137489591D01*
X54083065Y-137349243D01*
X53835300Y-137299960D01*
X52844700Y-137299960D01*
X52596935Y-137349243D01*
X52386891Y-137489591D01*
X52246543Y-137699635D01*
X52197260Y-137947400D01*
X52197260Y-139725400D01*
X52246543Y-139973165D01*
X52386891Y-140183209D01*
X52514501Y-140268476D01*
X52514500Y-143428698D01*
X52498328Y-143510000D01*
X52514500Y-143591301D01*
X52514500Y-143591302D01*
X52562396Y-143832093D01*
X52744848Y-144105152D01*
X52813777Y-144151209D01*
X53069384Y-144406817D01*
X52753720Y-144537569D01*
X52701789Y-144589500D01*
X51776933Y-144589500D01*
X51625500Y-144438068D01*
X51625500Y-140268475D01*
X51753109Y-140183209D01*
X51893457Y-139973165D01*
X51942740Y-139725400D01*
X51942740Y-137947400D01*
X51893457Y-137699635D01*
X51753109Y-137489591D01*
X51543065Y-137349243D01*
X51295300Y-137299960D01*
X50345751Y-137299960D01*
X50407431Y-137238280D01*
X50565000Y-136857874D01*
X50565000Y-136446126D01*
X50407431Y-136065720D01*
X50116280Y-135774569D01*
X49735874Y-135617000D01*
X49324126Y-135617000D01*
X48943720Y-135774569D01*
X48891789Y-135826500D01*
X41229297Y-135826500D01*
X41147999Y-135810329D01*
X41066701Y-135826500D01*
X41066697Y-135826500D01*
X40825906Y-135874396D01*
X40552848Y-136056848D01*
X40506793Y-136125775D01*
X40113776Y-136518791D01*
X40080000Y-136541360D01*
X40080000Y-134467171D01*
X40144700Y-134480040D01*
X41135300Y-134480040D01*
X41383065Y-134430757D01*
X41593109Y-134290409D01*
X41733457Y-134080365D01*
X41782740Y-133832600D01*
X41782740Y-132054600D01*
X44577260Y-132054600D01*
X44577260Y-133832600D01*
X44626543Y-134080365D01*
X44766891Y-134290409D01*
X44976935Y-134430757D01*
X45224700Y-134480040D01*
X46215300Y-134480040D01*
X46463065Y-134430757D01*
X46673109Y-134290409D01*
X46813457Y-134080365D01*
X46862740Y-133832600D01*
X46862740Y-132054600D01*
X47117260Y-132054600D01*
X47117260Y-133832600D01*
X47166543Y-134080365D01*
X47306891Y-134290409D01*
X47516935Y-134430757D01*
X47764700Y-134480040D01*
X48755300Y-134480040D01*
X49003065Y-134430757D01*
X49213109Y-134290409D01*
X49353457Y-134080365D01*
X49402740Y-133832600D01*
X49402740Y-132054600D01*
X49657260Y-132054600D01*
X49657260Y-133832600D01*
X49706543Y-134080365D01*
X49846891Y-134290409D01*
X50056935Y-134430757D01*
X50304700Y-134480040D01*
X51295300Y-134480040D01*
X51543065Y-134430757D01*
X51753109Y-134290409D01*
X51893457Y-134080365D01*
X51942740Y-133832600D01*
X51942740Y-132054600D01*
X51893457Y-131806835D01*
X51753109Y-131596791D01*
X51625500Y-131511525D01*
X51625500Y-128908211D01*
X51677431Y-128856280D01*
X51835000Y-128475874D01*
X51835000Y-128064126D01*
X51677431Y-127683720D01*
X51386280Y-127392569D01*
X51005874Y-127235000D01*
X50594126Y-127235000D01*
X50213720Y-127392569D01*
X49922569Y-127683720D01*
X49765000Y-128064126D01*
X49765000Y-128475874D01*
X49922569Y-128856280D01*
X49974501Y-128908212D01*
X49974500Y-131511525D01*
X49846891Y-131596791D01*
X49706543Y-131806835D01*
X49657260Y-132054600D01*
X49402740Y-132054600D01*
X49353457Y-131806835D01*
X49213109Y-131596791D01*
X49085500Y-131511525D01*
X49085500Y-128908211D01*
X49137431Y-128856280D01*
X49295000Y-128475874D01*
X49295000Y-128064126D01*
X49137431Y-127683720D01*
X48846280Y-127392569D01*
X48465874Y-127235000D01*
X48054126Y-127235000D01*
X47673720Y-127392569D01*
X47382569Y-127683720D01*
X47225000Y-128064126D01*
X47225000Y-128475874D01*
X47382569Y-128856280D01*
X47434501Y-128908212D01*
X47434500Y-131511525D01*
X47306891Y-131596791D01*
X47166543Y-131806835D01*
X47117260Y-132054600D01*
X46862740Y-132054600D01*
X46813457Y-131806835D01*
X46673109Y-131596791D01*
X46463065Y-131456443D01*
X46215300Y-131407160D01*
X45224700Y-131407160D01*
X44976935Y-131456443D01*
X44766891Y-131596791D01*
X44626543Y-131806835D01*
X44577260Y-132054600D01*
X41782740Y-132054600D01*
X41733457Y-131806835D01*
X41593109Y-131596791D01*
X41383065Y-131456443D01*
X41135300Y-131407160D01*
X40144700Y-131407160D01*
X40080000Y-131420029D01*
X40080000Y-119158215D01*
X40583037Y-119494334D01*
X41089120Y-119595000D01*
X42730880Y-119595000D01*
X43236963Y-119494334D01*
X43810865Y-119110865D01*
X44194334Y-118536963D01*
X44328990Y-117860000D01*
X44194334Y-117183037D01*
X43810865Y-116609135D01*
X43601724Y-116469392D01*
X43714641Y-116300400D01*
X43822133Y-115760000D01*
X43714641Y-115219600D01*
X43408529Y-114761471D01*
X43406327Y-114760000D01*
X43408529Y-114758529D01*
X43714641Y-114300400D01*
X43822133Y-113760000D01*
X43714641Y-113219600D01*
X43568441Y-113000796D01*
X43617809Y-112967809D01*
X43758157Y-112757765D01*
X43792422Y-112585500D01*
X53633068Y-112585500D01*
X53784500Y-112736933D01*
G36*
X42226891Y-88416791D02*
X42086543Y-88626835D01*
X42037260Y-88874600D01*
X42037260Y-90652600D01*
X42086543Y-90900365D01*
X42226891Y-91110409D01*
X42436935Y-91250757D01*
X42684700Y-91300040D01*
X43675300Y-91300040D01*
X43923065Y-91250757D01*
X44133109Y-91110409D01*
X44273457Y-90900365D01*
X44322740Y-90652600D01*
X44322740Y-88874600D01*
X44273457Y-88626835D01*
X44133109Y-88416791D01*
X44096007Y-88392000D01*
X44803993Y-88392000D01*
X44766891Y-88416791D01*
X44626543Y-88626835D01*
X44577260Y-88874600D01*
X44577260Y-90652600D01*
X44626543Y-90900365D01*
X44766891Y-91110409D01*
X44976935Y-91250757D01*
X45224700Y-91300040D01*
X46215300Y-91300040D01*
X46463065Y-91250757D01*
X46673109Y-91110409D01*
X46813457Y-90900365D01*
X46862740Y-90652600D01*
X46862740Y-88874600D01*
X46813457Y-88626835D01*
X46673109Y-88416791D01*
X46636007Y-88392000D01*
X47343993Y-88392000D01*
X47306891Y-88416791D01*
X47166543Y-88626835D01*
X47117260Y-88874600D01*
X47117260Y-90652600D01*
X47166543Y-90900365D01*
X47306891Y-91110409D01*
X47516935Y-91250757D01*
X47764700Y-91300040D01*
X48755300Y-91300040D01*
X49003065Y-91250757D01*
X49213109Y-91110409D01*
X49353457Y-90900365D01*
X49402740Y-90652600D01*
X49402740Y-88874600D01*
X49353457Y-88626835D01*
X49213109Y-88416791D01*
X49176007Y-88392000D01*
X49883993Y-88392000D01*
X49846891Y-88416791D01*
X49706543Y-88626835D01*
X49657260Y-88874600D01*
X49657260Y-90652600D01*
X49706543Y-90900365D01*
X49846891Y-91110409D01*
X50056935Y-91250757D01*
X50304700Y-91300040D01*
X51295300Y-91300040D01*
X51543065Y-91250757D01*
X51753109Y-91110409D01*
X51893457Y-90900365D01*
X51942740Y-90652600D01*
X51942740Y-88874600D01*
X51893457Y-88626835D01*
X51753109Y-88416791D01*
X51716007Y-88392000D01*
X52423993Y-88392000D01*
X52386891Y-88416791D01*
X52246543Y-88626835D01*
X52197260Y-88874600D01*
X52197260Y-90652600D01*
X52246543Y-90900365D01*
X52386891Y-91110409D01*
X52533030Y-91208057D01*
X52540360Y-91244906D01*
X52562397Y-91355694D01*
X52744849Y-91628752D01*
X52813775Y-91674807D01*
X53613193Y-92474226D01*
X53659248Y-92543152D01*
X53932306Y-92725604D01*
X54173097Y-92773500D01*
X54173098Y-92773500D01*
X54254400Y-92789672D01*
X54335701Y-92773500D01*
X57385000Y-92773500D01*
X57385000Y-93042874D01*
X57542569Y-93423280D01*
X57594501Y-93475212D01*
X57594501Y-93499237D01*
X57482874Y-93453000D01*
X57071126Y-93453000D01*
X56690720Y-93610569D01*
X56489127Y-93812162D01*
X56475152Y-93791248D01*
X56406225Y-93745193D01*
X55987809Y-93326776D01*
X55941752Y-93257848D01*
X55668694Y-93075396D01*
X55427903Y-93027500D01*
X55427901Y-93027500D01*
X55346600Y-93011328D01*
X55265299Y-93027500D01*
X43961000Y-93027500D01*
X43961000Y-92631126D01*
X43803431Y-92250720D01*
X43512280Y-91959569D01*
X43131874Y-91802000D01*
X42720126Y-91802000D01*
X42339720Y-91959569D01*
X42048569Y-92250720D01*
X41891000Y-92631126D01*
X41891000Y-93042874D01*
X42048569Y-93423280D01*
X42100500Y-93475211D01*
X42100500Y-93644698D01*
X42084328Y-93726000D01*
X42100500Y-93807301D01*
X42100500Y-93807302D01*
X42148396Y-94048093D01*
X42293420Y-94265137D01*
X42226891Y-94309591D01*
X42086543Y-94519635D01*
X42037260Y-94767400D01*
X42037260Y-96545400D01*
X42086543Y-96793165D01*
X42087615Y-96794769D01*
X41803220Y-96912569D01*
X41751289Y-96964500D01*
X41618974Y-96964500D01*
X41733457Y-96793165D01*
X41782740Y-96545400D01*
X41782740Y-94767400D01*
X41733457Y-94519635D01*
X41593109Y-94309591D01*
X41383065Y-94169243D01*
X41135300Y-94119960D01*
X40144700Y-94119960D01*
X40080000Y-94132829D01*
X40080000Y-88392000D01*
X42263993Y-88392000D01*
X42226891Y-88416791D01*
X42226891Y-88416791D01*
G37*
X42226891Y-88416791D02*
X42086543Y-88626835D01*
X42037260Y-88874600D01*
X42037260Y-90652600D01*
X42086543Y-90900365D01*
X42226891Y-91110409D01*
X42436935Y-91250757D01*
X42684700Y-91300040D01*
X43675300Y-91300040D01*
X43923065Y-91250757D01*
X44133109Y-91110409D01*
X44273457Y-90900365D01*
X44322740Y-90652600D01*
X44322740Y-88874600D01*
X44273457Y-88626835D01*
X44133109Y-88416791D01*
X44096007Y-88392000D01*
X44803993Y-88392000D01*
X44766891Y-88416791D01*
X44626543Y-88626835D01*
X44577260Y-88874600D01*
X44577260Y-90652600D01*
X44626543Y-90900365D01*
X44766891Y-91110409D01*
X44976935Y-91250757D01*
X45224700Y-91300040D01*
X46215300Y-91300040D01*
X46463065Y-91250757D01*
X46673109Y-91110409D01*
X46813457Y-90900365D01*
X46862740Y-90652600D01*
X46862740Y-88874600D01*
X46813457Y-88626835D01*
X46673109Y-88416791D01*
X46636007Y-88392000D01*
X47343993Y-88392000D01*
X47306891Y-88416791D01*
X47166543Y-88626835D01*
X47117260Y-88874600D01*
X47117260Y-90652600D01*
X47166543Y-90900365D01*
X47306891Y-91110409D01*
X47516935Y-91250757D01*
X47764700Y-91300040D01*
X48755300Y-91300040D01*
X49003065Y-91250757D01*
X49213109Y-91110409D01*
X49353457Y-90900365D01*
X49402740Y-90652600D01*
X49402740Y-88874600D01*
X49353457Y-88626835D01*
X49213109Y-88416791D01*
X49176007Y-88392000D01*
X49883993Y-88392000D01*
X49846891Y-88416791D01*
X49706543Y-88626835D01*
X49657260Y-88874600D01*
X49657260Y-90652600D01*
X49706543Y-90900365D01*
X49846891Y-91110409D01*
X50056935Y-91250757D01*
X50304700Y-91300040D01*
X51295300Y-91300040D01*
X51543065Y-91250757D01*
X51753109Y-91110409D01*
X51893457Y-90900365D01*
X51942740Y-90652600D01*
X51942740Y-88874600D01*
X51893457Y-88626835D01*
X51753109Y-88416791D01*
X51716007Y-88392000D01*
X52423993Y-88392000D01*
X52386891Y-88416791D01*
X52246543Y-88626835D01*
X52197260Y-88874600D01*
X52197260Y-90652600D01*
X52246543Y-90900365D01*
X52386891Y-91110409D01*
X52533030Y-91208057D01*
X52540360Y-91244906D01*
X52562397Y-91355694D01*
X52744849Y-91628752D01*
X52813775Y-91674807D01*
X53613193Y-92474226D01*
X53659248Y-92543152D01*
X53932306Y-92725604D01*
X54173097Y-92773500D01*
X54173098Y-92773500D01*
X54254400Y-92789672D01*
X54335701Y-92773500D01*
X57385000Y-92773500D01*
X57385000Y-93042874D01*
X57542569Y-93423280D01*
X57594501Y-93475212D01*
X57594501Y-93499237D01*
X57482874Y-93453000D01*
X57071126Y-93453000D01*
X56690720Y-93610569D01*
X56489127Y-93812162D01*
X56475152Y-93791248D01*
X56406225Y-93745193D01*
X55987809Y-93326776D01*
X55941752Y-93257848D01*
X55668694Y-93075396D01*
X55427903Y-93027500D01*
X55427901Y-93027500D01*
X55346600Y-93011328D01*
X55265299Y-93027500D01*
X43961000Y-93027500D01*
X43961000Y-92631126D01*
X43803431Y-92250720D01*
X43512280Y-91959569D01*
X43131874Y-91802000D01*
X42720126Y-91802000D01*
X42339720Y-91959569D01*
X42048569Y-92250720D01*
X41891000Y-92631126D01*
X41891000Y-93042874D01*
X42048569Y-93423280D01*
X42100500Y-93475211D01*
X42100500Y-93644698D01*
X42084328Y-93726000D01*
X42100500Y-93807301D01*
X42100500Y-93807302D01*
X42148396Y-94048093D01*
X42293420Y-94265137D01*
X42226891Y-94309591D01*
X42086543Y-94519635D01*
X42037260Y-94767400D01*
X42037260Y-96545400D01*
X42086543Y-96793165D01*
X42087615Y-96794769D01*
X41803220Y-96912569D01*
X41751289Y-96964500D01*
X41618974Y-96964500D01*
X41733457Y-96793165D01*
X41782740Y-96545400D01*
X41782740Y-94767400D01*
X41733457Y-94519635D01*
X41593109Y-94309591D01*
X41383065Y-94169243D01*
X41135300Y-94119960D01*
X40144700Y-94119960D01*
X40080000Y-94132829D01*
X40080000Y-88392000D01*
X42263993Y-88392000D01*
X42226891Y-88416791D01*
G04 #@! TD*
M02*
