G04 #@! TF.GenerationSoftware,KiCad,Pcbnew,(5.0.0)*
G04 #@! TF.CreationDate,2019-03-03T17:57:37-06:00*
G04 #@! TF.ProjectId,ArmMotorController_Hardware,41726D4D6F746F72436F6E74726F6C6C,rev?*
G04 #@! TF.SameCoordinates,Original*
G04 #@! TF.FileFunction,Legend,Bot*
G04 #@! TF.FilePolarity,Positive*
%FSLAX46Y46*%
G04 Gerber Fmt 4.6, Leading zero omitted, Abs format (unit mm)*
G04 Created by KiCad (PCBNEW (5.0.0)) date 03/03/19 17:57:37*
%MOMM*%
%LPD*%
G01*
G04 APERTURE LIST*
%ADD10C,0.150000*%
%ADD11C,0.010000*%
G04 APERTURE END LIST*
D10*
G04 #@! TO.C,U3*
X102870000Y-90170000D02*
X102870000Y-95250000D01*
X128270000Y-90170000D02*
X102870000Y-90170000D01*
X128270000Y-95250000D02*
X128270000Y-90170000D01*
X102870000Y-133350000D02*
X102870000Y-138430000D01*
X128270000Y-138430000D02*
X128270000Y-133350000D01*
X102870000Y-95250000D02*
X128270000Y-95250000D01*
X128270000Y-133350000D02*
X102870000Y-133350000D01*
X39370000Y-95250000D02*
X64770000Y-95250000D01*
X39370000Y-90170000D02*
X39370000Y-95250000D01*
X64770000Y-90170000D02*
X39370000Y-90170000D01*
X64770000Y-95250000D02*
X64770000Y-90170000D01*
X39370000Y-138430000D02*
X64770000Y-138430000D01*
X39370000Y-133350000D02*
X39370000Y-138430000D01*
X64770000Y-138430000D02*
X64770000Y-133350000D01*
D11*
G04 #@! TO.C,G\002A\002A\002A*
G36*
X147519537Y-149503521D02*
X147518120Y-149512867D01*
X147544486Y-149552577D01*
X147554527Y-149557176D01*
X147585407Y-149540828D01*
X147590933Y-149512867D01*
X147573749Y-149470717D01*
X147554527Y-149468558D01*
X147519537Y-149503521D01*
X147519537Y-149503521D01*
G37*
X147519537Y-149503521D02*
X147518120Y-149512867D01*
X147544486Y-149552577D01*
X147554527Y-149557176D01*
X147585407Y-149540828D01*
X147590933Y-149512867D01*
X147573749Y-149470717D01*
X147554527Y-149468558D01*
X147519537Y-149503521D01*
G36*
X147803577Y-149880106D02*
X147712491Y-149918018D01*
X147665658Y-149952448D01*
X147557079Y-150080838D01*
X147503410Y-150228350D01*
X147507019Y-150379898D01*
X147570275Y-150520395D01*
X147575405Y-150527334D01*
X147612850Y-150566264D01*
X147659325Y-150577179D01*
X147738388Y-150563034D01*
X147778023Y-150552734D01*
X147911790Y-150521887D01*
X148011597Y-150516453D01*
X148106975Y-150538243D01*
X148205301Y-150578923D01*
X148368115Y-150635876D01*
X148500001Y-150640373D01*
X148614007Y-150591474D01*
X148669644Y-150545506D01*
X148752519Y-150434302D01*
X148757971Y-150397848D01*
X148601065Y-150397848D01*
X148582734Y-150447643D01*
X148548578Y-150465073D01*
X148539439Y-150461281D01*
X148510784Y-150413375D01*
X148505333Y-150374468D01*
X148523693Y-150317885D01*
X148564410Y-150315665D01*
X148591002Y-150344222D01*
X148601065Y-150397848D01*
X148757971Y-150397848D01*
X148768926Y-150324605D01*
X148720129Y-150218197D01*
X148697761Y-150198090D01*
X148372682Y-150198090D01*
X148372485Y-150259918D01*
X148362855Y-150301263D01*
X148336327Y-150374241D01*
X148303767Y-150391586D01*
X148278633Y-150381595D01*
X148268449Y-150368000D01*
X147759513Y-150368000D01*
X147745966Y-150408184D01*
X147711847Y-150395977D01*
X147670591Y-150337564D01*
X147664103Y-150324073D01*
X147635027Y-150246010D01*
X147625553Y-150197073D01*
X147641005Y-150189817D01*
X147676497Y-150222424D01*
X147717582Y-150276461D01*
X147749815Y-150333494D01*
X147759513Y-150368000D01*
X148268449Y-150368000D01*
X148237706Y-150326963D01*
X148220593Y-150245130D01*
X148226857Y-150181733D01*
X148024778Y-150181733D01*
X148019932Y-150275135D01*
X147990275Y-150308808D01*
X147943700Y-150282339D01*
X147888098Y-150195314D01*
X147885072Y-150189051D01*
X147843293Y-150097143D01*
X147834735Y-150051961D01*
X147862916Y-150039361D01*
X147921133Y-150044017D01*
X147984010Y-150060599D01*
X148013635Y-150105076D01*
X148024778Y-150181733D01*
X148226857Y-150181733D01*
X148228323Y-150166907D01*
X148266348Y-150144938D01*
X148338681Y-150167180D01*
X148372682Y-150198090D01*
X148697761Y-150198090D01*
X148607390Y-150116858D01*
X148431974Y-150022370D01*
X148249639Y-149953650D01*
X148058746Y-149897894D01*
X147914527Y-149873388D01*
X147803577Y-149880106D01*
X147803577Y-149880106D01*
G37*
X147803577Y-149880106D02*
X147712491Y-149918018D01*
X147665658Y-149952448D01*
X147557079Y-150080838D01*
X147503410Y-150228350D01*
X147507019Y-150379898D01*
X147570275Y-150520395D01*
X147575405Y-150527334D01*
X147612850Y-150566264D01*
X147659325Y-150577179D01*
X147738388Y-150563034D01*
X147778023Y-150552734D01*
X147911790Y-150521887D01*
X148011597Y-150516453D01*
X148106975Y-150538243D01*
X148205301Y-150578923D01*
X148368115Y-150635876D01*
X148500001Y-150640373D01*
X148614007Y-150591474D01*
X148669644Y-150545506D01*
X148752519Y-150434302D01*
X148757971Y-150397848D01*
X148601065Y-150397848D01*
X148582734Y-150447643D01*
X148548578Y-150465073D01*
X148539439Y-150461281D01*
X148510784Y-150413375D01*
X148505333Y-150374468D01*
X148523693Y-150317885D01*
X148564410Y-150315665D01*
X148591002Y-150344222D01*
X148601065Y-150397848D01*
X148757971Y-150397848D01*
X148768926Y-150324605D01*
X148720129Y-150218197D01*
X148697761Y-150198090D01*
X148372682Y-150198090D01*
X148372485Y-150259918D01*
X148362855Y-150301263D01*
X148336327Y-150374241D01*
X148303767Y-150391586D01*
X148278633Y-150381595D01*
X148268449Y-150368000D01*
X147759513Y-150368000D01*
X147745966Y-150408184D01*
X147711847Y-150395977D01*
X147670591Y-150337564D01*
X147664103Y-150324073D01*
X147635027Y-150246010D01*
X147625553Y-150197073D01*
X147641005Y-150189817D01*
X147676497Y-150222424D01*
X147717582Y-150276461D01*
X147749815Y-150333494D01*
X147759513Y-150368000D01*
X148268449Y-150368000D01*
X148237706Y-150326963D01*
X148220593Y-150245130D01*
X148226857Y-150181733D01*
X148024778Y-150181733D01*
X148019932Y-150275135D01*
X147990275Y-150308808D01*
X147943700Y-150282339D01*
X147888098Y-150195314D01*
X147885072Y-150189051D01*
X147843293Y-150097143D01*
X147834735Y-150051961D01*
X147862916Y-150039361D01*
X147921133Y-150044017D01*
X147984010Y-150060599D01*
X148013635Y-150105076D01*
X148024778Y-150181733D01*
X148226857Y-150181733D01*
X148228323Y-150166907D01*
X148266348Y-150144938D01*
X148338681Y-150167180D01*
X148372682Y-150198090D01*
X148697761Y-150198090D01*
X148607390Y-150116858D01*
X148431974Y-150022370D01*
X148249639Y-149953650D01*
X148058746Y-149897894D01*
X147914527Y-149873388D01*
X147803577Y-149880106D01*
G36*
X149455332Y-152779268D02*
X149397419Y-152851425D01*
X149399444Y-152904566D01*
X149464019Y-152954732D01*
X149485785Y-152966397D01*
X149596353Y-153010702D01*
X149671316Y-153005446D01*
X149723018Y-152948907D01*
X149731265Y-152932149D01*
X149738798Y-152906873D01*
X149619499Y-152906873D01*
X149585564Y-152899767D01*
X149579139Y-152897356D01*
X149537668Y-152870527D01*
X149537370Y-152855274D01*
X149573196Y-152859073D01*
X149598098Y-152878398D01*
X149619499Y-152906873D01*
X149738798Y-152906873D01*
X149753022Y-152859154D01*
X149730730Y-152809055D01*
X149722073Y-152800317D01*
X149620717Y-152737127D01*
X149522226Y-152736672D01*
X149455332Y-152779268D01*
X149455332Y-152779268D01*
G37*
X149455332Y-152779268D02*
X149397419Y-152851425D01*
X149399444Y-152904566D01*
X149464019Y-152954732D01*
X149485785Y-152966397D01*
X149596353Y-153010702D01*
X149671316Y-153005446D01*
X149723018Y-152948907D01*
X149731265Y-152932149D01*
X149738798Y-152906873D01*
X149619499Y-152906873D01*
X149585564Y-152899767D01*
X149579139Y-152897356D01*
X149537668Y-152870527D01*
X149537370Y-152855274D01*
X149573196Y-152859073D01*
X149598098Y-152878398D01*
X149619499Y-152906873D01*
X149738798Y-152906873D01*
X149753022Y-152859154D01*
X149730730Y-152809055D01*
X149722073Y-152800317D01*
X149620717Y-152737127D01*
X149522226Y-152736672D01*
X149455332Y-152779268D01*
G36*
X147536241Y-152709643D02*
X147429126Y-152754265D01*
X147354857Y-152840479D01*
X147304795Y-152977423D01*
X147276374Y-153129636D01*
X147258516Y-153290502D01*
X147264227Y-153396087D01*
X147299504Y-153456522D01*
X147370344Y-153481940D01*
X147482744Y-153482473D01*
X147485114Y-153482322D01*
X147581175Y-153472739D01*
X147629760Y-153450498D01*
X147651093Y-153400830D01*
X147658667Y-153355586D01*
X147688099Y-153263626D01*
X147694051Y-153258891D01*
X147557067Y-153258891D01*
X147539935Y-153339791D01*
X147479998Y-153379185D01*
X147413133Y-153387926D01*
X147379351Y-153379266D01*
X147361292Y-153339557D01*
X147354469Y-153254043D01*
X147353867Y-153193045D01*
X147357391Y-153082872D01*
X147366509Y-153002023D01*
X147375990Y-152973366D01*
X147409181Y-152979121D01*
X147455713Y-153029107D01*
X147503756Y-153104671D01*
X147541482Y-153187161D01*
X147557062Y-153257925D01*
X147557067Y-153258891D01*
X147694051Y-153258891D01*
X147732858Y-153228021D01*
X147809793Y-153239275D01*
X147890728Y-153285919D01*
X147949504Y-153349296D01*
X147963467Y-153392496D01*
X147970900Y-153443071D01*
X148001873Y-153465063D01*
X148069398Y-153460358D01*
X148186485Y-153430841D01*
X148200533Y-153426851D01*
X148336398Y-153385479D01*
X148417883Y-153349664D01*
X148456419Y-153308927D01*
X148463432Y-153252789D01*
X148457126Y-153209750D01*
X148346028Y-153209750D01*
X148343446Y-153260506D01*
X148328994Y-153269886D01*
X148256517Y-153293262D01*
X148234400Y-153300577D01*
X148123307Y-153318123D01*
X148049837Y-153282114D01*
X148030989Y-153254740D01*
X148013640Y-153186682D01*
X148036126Y-153100721D01*
X148050590Y-153068473D01*
X148096948Y-152982871D01*
X148136341Y-152956768D01*
X148185358Y-152986157D01*
X148224264Y-153026534D01*
X148304791Y-153128252D01*
X148346028Y-153209750D01*
X148457126Y-153209750D01*
X148454776Y-153193718D01*
X148410376Y-153052270D01*
X148328908Y-152948821D01*
X148230816Y-152880522D01*
X148030142Y-152880522D01*
X147959592Y-153000094D01*
X147883448Y-153093640D01*
X147803183Y-153120649D01*
X147716655Y-153080990D01*
X147625628Y-152979969D01*
X147571613Y-152894213D01*
X147544516Y-152828198D01*
X147545163Y-152806729D01*
X147590417Y-152789391D01*
X147679021Y-152788923D01*
X147789285Y-152803272D01*
X147899522Y-152830386D01*
X147937538Y-152843863D01*
X148030142Y-152880522D01*
X148230816Y-152880522D01*
X148229611Y-152879683D01*
X148065287Y-152790021D01*
X147933725Y-152734459D01*
X147813877Y-152705957D01*
X147684836Y-152697477D01*
X147536241Y-152709643D01*
X147536241Y-152709643D01*
G37*
X147536241Y-152709643D02*
X147429126Y-152754265D01*
X147354857Y-152840479D01*
X147304795Y-152977423D01*
X147276374Y-153129636D01*
X147258516Y-153290502D01*
X147264227Y-153396087D01*
X147299504Y-153456522D01*
X147370344Y-153481940D01*
X147482744Y-153482473D01*
X147485114Y-153482322D01*
X147581175Y-153472739D01*
X147629760Y-153450498D01*
X147651093Y-153400830D01*
X147658667Y-153355586D01*
X147688099Y-153263626D01*
X147694051Y-153258891D01*
X147557067Y-153258891D01*
X147539935Y-153339791D01*
X147479998Y-153379185D01*
X147413133Y-153387926D01*
X147379351Y-153379266D01*
X147361292Y-153339557D01*
X147354469Y-153254043D01*
X147353867Y-153193045D01*
X147357391Y-153082872D01*
X147366509Y-153002023D01*
X147375990Y-152973366D01*
X147409181Y-152979121D01*
X147455713Y-153029107D01*
X147503756Y-153104671D01*
X147541482Y-153187161D01*
X147557062Y-153257925D01*
X147557067Y-153258891D01*
X147694051Y-153258891D01*
X147732858Y-153228021D01*
X147809793Y-153239275D01*
X147890728Y-153285919D01*
X147949504Y-153349296D01*
X147963467Y-153392496D01*
X147970900Y-153443071D01*
X148001873Y-153465063D01*
X148069398Y-153460358D01*
X148186485Y-153430841D01*
X148200533Y-153426851D01*
X148336398Y-153385479D01*
X148417883Y-153349664D01*
X148456419Y-153308927D01*
X148463432Y-153252789D01*
X148457126Y-153209750D01*
X148346028Y-153209750D01*
X148343446Y-153260506D01*
X148328994Y-153269886D01*
X148256517Y-153293262D01*
X148234400Y-153300577D01*
X148123307Y-153318123D01*
X148049837Y-153282114D01*
X148030989Y-153254740D01*
X148013640Y-153186682D01*
X148036126Y-153100721D01*
X148050590Y-153068473D01*
X148096948Y-152982871D01*
X148136341Y-152956768D01*
X148185358Y-152986157D01*
X148224264Y-153026534D01*
X148304791Y-153128252D01*
X148346028Y-153209750D01*
X148457126Y-153209750D01*
X148454776Y-153193718D01*
X148410376Y-153052270D01*
X148328908Y-152948821D01*
X148230816Y-152880522D01*
X148030142Y-152880522D01*
X147959592Y-153000094D01*
X147883448Y-153093640D01*
X147803183Y-153120649D01*
X147716655Y-153080990D01*
X147625628Y-152979969D01*
X147571613Y-152894213D01*
X147544516Y-152828198D01*
X147545163Y-152806729D01*
X147590417Y-152789391D01*
X147679021Y-152788923D01*
X147789285Y-152803272D01*
X147899522Y-152830386D01*
X147937538Y-152843863D01*
X148030142Y-152880522D01*
X148230816Y-152880522D01*
X148229611Y-152879683D01*
X148065287Y-152790021D01*
X147933725Y-152734459D01*
X147813877Y-152705957D01*
X147684836Y-152697477D01*
X147536241Y-152709643D01*
G36*
X149734970Y-153236199D02*
X149696280Y-153295176D01*
X149703279Y-153368018D01*
X149765935Y-153439480D01*
X149869228Y-153487199D01*
X149951419Y-153473453D01*
X149996883Y-153421820D01*
X150006279Y-153383670D01*
X149910011Y-153383670D01*
X149870366Y-153377640D01*
X149811194Y-153338723D01*
X149766092Y-153301558D01*
X149776836Y-153289912D01*
X149816037Y-153289000D01*
X149881920Y-153310545D01*
X149906114Y-153339800D01*
X149910011Y-153383670D01*
X150006279Y-153383670D01*
X150019602Y-153329576D01*
X149977971Y-153258364D01*
X149909450Y-153220754D01*
X149809358Y-153206315D01*
X149734970Y-153236199D01*
X149734970Y-153236199D01*
G37*
X149734970Y-153236199D02*
X149696280Y-153295176D01*
X149703279Y-153368018D01*
X149765935Y-153439480D01*
X149869228Y-153487199D01*
X149951419Y-153473453D01*
X149996883Y-153421820D01*
X150006279Y-153383670D01*
X149910011Y-153383670D01*
X149870366Y-153377640D01*
X149811194Y-153338723D01*
X149766092Y-153301558D01*
X149776836Y-153289912D01*
X149816037Y-153289000D01*
X149881920Y-153310545D01*
X149906114Y-153339800D01*
X149910011Y-153383670D01*
X150006279Y-153383670D01*
X150019602Y-153329576D01*
X149977971Y-153258364D01*
X149909450Y-153220754D01*
X149809358Y-153206315D01*
X149734970Y-153236199D01*
G36*
X149045449Y-153212090D02*
X148988627Y-153281604D01*
X148979985Y-153338107D01*
X148999844Y-153431440D01*
X149066232Y-153486258D01*
X149121382Y-153504058D01*
X149201869Y-153507031D01*
X149260341Y-153457870D01*
X149265316Y-153450937D01*
X149312597Y-153345069D01*
X149312203Y-153342082D01*
X149216533Y-153342082D01*
X149193983Y-153383827D01*
X149141803Y-153383719D01*
X149083202Y-153342288D01*
X149080387Y-153338982D01*
X149053537Y-153288568D01*
X149056755Y-153268156D01*
X149105259Y-153259414D01*
X149168071Y-153283363D01*
X149211832Y-153324570D01*
X149216533Y-153342082D01*
X149312203Y-153342082D01*
X149301156Y-153258539D01*
X149235962Y-153202589D01*
X149148800Y-153187400D01*
X149045449Y-153212090D01*
X149045449Y-153212090D01*
G37*
X149045449Y-153212090D02*
X148988627Y-153281604D01*
X148979985Y-153338107D01*
X148999844Y-153431440D01*
X149066232Y-153486258D01*
X149121382Y-153504058D01*
X149201869Y-153507031D01*
X149260341Y-153457870D01*
X149265316Y-153450937D01*
X149312597Y-153345069D01*
X149312203Y-153342082D01*
X149216533Y-153342082D01*
X149193983Y-153383827D01*
X149141803Y-153383719D01*
X149083202Y-153342288D01*
X149080387Y-153338982D01*
X149053537Y-153288568D01*
X149056755Y-153268156D01*
X149105259Y-153259414D01*
X149168071Y-153283363D01*
X149211832Y-153324570D01*
X149216533Y-153342082D01*
X149312203Y-153342082D01*
X149301156Y-153258539D01*
X149235962Y-153202589D01*
X149148800Y-153187400D01*
X149045449Y-153212090D01*
G36*
X145988762Y-157617658D02*
X145945423Y-157680306D01*
X145943548Y-157742036D01*
X145982606Y-157789472D01*
X146038882Y-157771609D01*
X146060160Y-157752627D01*
X146094548Y-157691581D01*
X146096405Y-157628836D01*
X146066752Y-157591996D01*
X146054147Y-157590067D01*
X145988762Y-157617658D01*
X145988762Y-157617658D01*
G37*
X145988762Y-157617658D02*
X145945423Y-157680306D01*
X145943548Y-157742036D01*
X145982606Y-157789472D01*
X146038882Y-157771609D01*
X146060160Y-157752627D01*
X146094548Y-157691581D01*
X146096405Y-157628836D01*
X146066752Y-157591996D01*
X146054147Y-157590067D01*
X145988762Y-157617658D01*
G36*
X146677968Y-158453211D02*
X146620629Y-158496378D01*
X146615292Y-158547056D01*
X146643794Y-158616054D01*
X146695912Y-158623068D01*
X146761178Y-158572224D01*
X146797764Y-158502822D01*
X146777248Y-158455774D01*
X146709814Y-158445645D01*
X146677968Y-158453211D01*
X146677968Y-158453211D01*
G37*
X146677968Y-158453211D02*
X146620629Y-158496378D01*
X146615292Y-158547056D01*
X146643794Y-158616054D01*
X146695912Y-158623068D01*
X146761178Y-158572224D01*
X146797764Y-158502822D01*
X146777248Y-158455774D01*
X146709814Y-158445645D01*
X146677968Y-158453211D01*
G36*
X152836878Y-149969229D02*
X152689035Y-149984805D01*
X152574263Y-150010873D01*
X152555277Y-150018074D01*
X152432729Y-150085558D01*
X152362994Y-150170139D01*
X152337109Y-150288043D01*
X152340917Y-150406277D01*
X152358935Y-150534401D01*
X152385822Y-150649536D01*
X152405287Y-150703158D01*
X152431731Y-150751304D01*
X152465110Y-150780392D01*
X152521733Y-150795654D01*
X152617909Y-150802319D01*
X152722084Y-150804755D01*
X152890017Y-150801859D01*
X153067627Y-150789478D01*
X153212800Y-150770847D01*
X153331270Y-150748109D01*
X153401358Y-150724244D01*
X153441492Y-150686960D01*
X153470098Y-150623971D01*
X153481456Y-150591670D01*
X153507386Y-150450411D01*
X153501498Y-150340831D01*
X153309631Y-150340831D01*
X153307931Y-150398379D01*
X153298844Y-150497388D01*
X153276323Y-150550781D01*
X153222808Y-150580549D01*
X153145067Y-150602341D01*
X152996693Y-150637713D01*
X152910145Y-150647957D01*
X152883091Y-150629661D01*
X152913199Y-150579413D01*
X152998137Y-150493798D01*
X153042781Y-150452667D01*
X153143744Y-150362594D01*
X153227079Y-150291511D01*
X153279184Y-150250903D01*
X153287617Y-150245979D01*
X153303346Y-150268960D01*
X153309631Y-150340831D01*
X153501498Y-150340831D01*
X153499221Y-150298471D01*
X153461542Y-150157529D01*
X153453667Y-150143910D01*
X153085684Y-150143910D01*
X152988375Y-150247550D01*
X152906771Y-150327050D01*
X152799361Y-150422350D01*
X152723258Y-150485445D01*
X152631277Y-150556484D01*
X152577242Y-150588272D01*
X152547808Y-150585799D01*
X152530905Y-150557350D01*
X152512378Y-150478534D01*
X152503980Y-150387353D01*
X152522189Y-150289514D01*
X152570805Y-150207628D01*
X152631019Y-150168825D01*
X152674501Y-150165023D01*
X152765083Y-150159515D01*
X152869842Y-150154146D01*
X153085684Y-150143910D01*
X153453667Y-150143910D01*
X153398933Y-150049262D01*
X153359350Y-150013920D01*
X153279029Y-149986492D01*
X153151856Y-149969969D01*
X152997812Y-149964250D01*
X152836878Y-149969229D01*
X152836878Y-149969229D01*
G37*
X152836878Y-149969229D02*
X152689035Y-149984805D01*
X152574263Y-150010873D01*
X152555277Y-150018074D01*
X152432729Y-150085558D01*
X152362994Y-150170139D01*
X152337109Y-150288043D01*
X152340917Y-150406277D01*
X152358935Y-150534401D01*
X152385822Y-150649536D01*
X152405287Y-150703158D01*
X152431731Y-150751304D01*
X152465110Y-150780392D01*
X152521733Y-150795654D01*
X152617909Y-150802319D01*
X152722084Y-150804755D01*
X152890017Y-150801859D01*
X153067627Y-150789478D01*
X153212800Y-150770847D01*
X153331270Y-150748109D01*
X153401358Y-150724244D01*
X153441492Y-150686960D01*
X153470098Y-150623971D01*
X153481456Y-150591670D01*
X153507386Y-150450411D01*
X153501498Y-150340831D01*
X153309631Y-150340831D01*
X153307931Y-150398379D01*
X153298844Y-150497388D01*
X153276323Y-150550781D01*
X153222808Y-150580549D01*
X153145067Y-150602341D01*
X152996693Y-150637713D01*
X152910145Y-150647957D01*
X152883091Y-150629661D01*
X152913199Y-150579413D01*
X152998137Y-150493798D01*
X153042781Y-150452667D01*
X153143744Y-150362594D01*
X153227079Y-150291511D01*
X153279184Y-150250903D01*
X153287617Y-150245979D01*
X153303346Y-150268960D01*
X153309631Y-150340831D01*
X153501498Y-150340831D01*
X153499221Y-150298471D01*
X153461542Y-150157529D01*
X153453667Y-150143910D01*
X153085684Y-150143910D01*
X152988375Y-150247550D01*
X152906771Y-150327050D01*
X152799361Y-150422350D01*
X152723258Y-150485445D01*
X152631277Y-150556484D01*
X152577242Y-150588272D01*
X152547808Y-150585799D01*
X152530905Y-150557350D01*
X152512378Y-150478534D01*
X152503980Y-150387353D01*
X152522189Y-150289514D01*
X152570805Y-150207628D01*
X152631019Y-150168825D01*
X152674501Y-150165023D01*
X152765083Y-150159515D01*
X152869842Y-150154146D01*
X153085684Y-150143910D01*
X153453667Y-150143910D01*
X153398933Y-150049262D01*
X153359350Y-150013920D01*
X153279029Y-149986492D01*
X153151856Y-149969969D01*
X152997812Y-149964250D01*
X152836878Y-149969229D01*
G36*
X152479030Y-151010017D02*
X152445150Y-151073015D01*
X152452314Y-151160171D01*
X152496981Y-151208625D01*
X152568431Y-151222463D01*
X152635088Y-151200536D01*
X152660453Y-151167730D01*
X152660116Y-151087195D01*
X152609657Y-151019989D01*
X152544785Y-150992743D01*
X152479030Y-151010017D01*
X152479030Y-151010017D01*
G37*
X152479030Y-151010017D02*
X152445150Y-151073015D01*
X152452314Y-151160171D01*
X152496981Y-151208625D01*
X152568431Y-151222463D01*
X152635088Y-151200536D01*
X152660453Y-151167730D01*
X152660116Y-151087195D01*
X152609657Y-151019989D01*
X152544785Y-150992743D01*
X152479030Y-151010017D01*
G36*
X152383174Y-151312445D02*
X152353406Y-151344394D01*
X152346372Y-151417824D01*
X152352083Y-151488806D01*
X152381548Y-151713308D01*
X152414629Y-151898066D01*
X152449416Y-152034391D01*
X152484002Y-152113593D01*
X152491250Y-152122345D01*
X152539685Y-152161291D01*
X152588236Y-152161917D01*
X152654000Y-152133409D01*
X152708353Y-152086666D01*
X152776462Y-152001753D01*
X152822393Y-151931626D01*
X152921431Y-151784183D01*
X153016495Y-151676033D01*
X153099601Y-151614852D01*
X153159978Y-151607138D01*
X153206569Y-151654879D01*
X153198967Y-151739215D01*
X153137724Y-151856854D01*
X153111821Y-151894235D01*
X153052771Y-151991814D01*
X153029090Y-152067258D01*
X153031465Y-152087373D01*
X153074666Y-152130597D01*
X153142144Y-152120582D01*
X153222866Y-152061895D01*
X153291913Y-151979640D01*
X153352907Y-151880544D01*
X153375180Y-151801329D01*
X153368637Y-151720609D01*
X153319943Y-151579270D01*
X153239963Y-151478162D01*
X153139200Y-151429124D01*
X153107550Y-151426334D01*
X153002766Y-151443271D01*
X152905535Y-151499857D01*
X152804370Y-151604757D01*
X152720395Y-151718328D01*
X152646808Y-151817046D01*
X152595960Y-151860552D01*
X152563717Y-151845935D01*
X152545948Y-151770279D01*
X152538521Y-151630673D01*
X152537847Y-151589619D01*
X152522905Y-151444279D01*
X152484709Y-151347848D01*
X152426981Y-151306996D01*
X152383174Y-151312445D01*
X152383174Y-151312445D01*
G37*
X152383174Y-151312445D02*
X152353406Y-151344394D01*
X152346372Y-151417824D01*
X152352083Y-151488806D01*
X152381548Y-151713308D01*
X152414629Y-151898066D01*
X152449416Y-152034391D01*
X152484002Y-152113593D01*
X152491250Y-152122345D01*
X152539685Y-152161291D01*
X152588236Y-152161917D01*
X152654000Y-152133409D01*
X152708353Y-152086666D01*
X152776462Y-152001753D01*
X152822393Y-151931626D01*
X152921431Y-151784183D01*
X153016495Y-151676033D01*
X153099601Y-151614852D01*
X153159978Y-151607138D01*
X153206569Y-151654879D01*
X153198967Y-151739215D01*
X153137724Y-151856854D01*
X153111821Y-151894235D01*
X153052771Y-151991814D01*
X153029090Y-152067258D01*
X153031465Y-152087373D01*
X153074666Y-152130597D01*
X153142144Y-152120582D01*
X153222866Y-152061895D01*
X153291913Y-151979640D01*
X153352907Y-151880544D01*
X153375180Y-151801329D01*
X153368637Y-151720609D01*
X153319943Y-151579270D01*
X153239963Y-151478162D01*
X153139200Y-151429124D01*
X153107550Y-151426334D01*
X153002766Y-151443271D01*
X152905535Y-151499857D01*
X152804370Y-151604757D01*
X152720395Y-151718328D01*
X152646808Y-151817046D01*
X152595960Y-151860552D01*
X152563717Y-151845935D01*
X152545948Y-151770279D01*
X152538521Y-151630673D01*
X152537847Y-151589619D01*
X152522905Y-151444279D01*
X152484709Y-151347848D01*
X152426981Y-151306996D01*
X152383174Y-151312445D01*
G36*
X153158097Y-152964078D02*
X153120782Y-152998794D01*
X153117198Y-153072392D01*
X153120919Y-153098705D01*
X153139306Y-153212010D01*
X152913586Y-153233331D01*
X152764895Y-153244933D01*
X152615023Y-153252777D01*
X152524644Y-153254893D01*
X152426962Y-153257929D01*
X152380723Y-153272081D01*
X152369705Y-153305488D01*
X152372244Y-153331334D01*
X152379714Y-153364259D01*
X152398931Y-153385697D01*
X152441882Y-153397745D01*
X152520553Y-153402501D01*
X152646931Y-153402064D01*
X152764066Y-153399914D01*
X152930176Y-153397572D01*
X153039984Y-153399480D01*
X153104867Y-153407153D01*
X153136200Y-153422105D01*
X153145360Y-153445851D01*
X153145529Y-153450714D01*
X153154745Y-153532939D01*
X153164904Y-153579566D01*
X153169084Y-153610085D01*
X153155230Y-153632262D01*
X153112586Y-153649390D01*
X153030392Y-153664761D01*
X152897889Y-153681668D01*
X152792130Y-153693656D01*
X152400444Y-153737312D01*
X152366425Y-153863651D01*
X152351332Y-153985428D01*
X152359281Y-154125427D01*
X152386513Y-154256115D01*
X152429267Y-154349959D01*
X152433575Y-154355449D01*
X152500773Y-154389226D01*
X152622074Y-154401931D01*
X152787109Y-154393247D01*
X152941867Y-154371005D01*
X153075999Y-154352740D01*
X153213487Y-154342117D01*
X153238200Y-154341377D01*
X153382133Y-154338867D01*
X153381925Y-154127200D01*
X153376452Y-154041888D01*
X153212281Y-154041888D01*
X153211530Y-154098238D01*
X153202414Y-154139295D01*
X153175436Y-154168112D01*
X153121103Y-154187738D01*
X153029918Y-154201223D01*
X152892388Y-154211619D01*
X152699016Y-154221974D01*
X152642878Y-154224811D01*
X152563231Y-154199175D01*
X152528513Y-154150864D01*
X152507072Y-154047385D01*
X152530198Y-153954344D01*
X152590789Y-153894350D01*
X152611372Y-153887062D01*
X152683854Y-153873908D01*
X152798128Y-153858222D01*
X152919831Y-153844428D01*
X153060198Y-153834765D01*
X153146820Y-153846435D01*
X153192484Y-153888072D01*
X153209974Y-153968309D01*
X153212281Y-154041888D01*
X153376452Y-154041888D01*
X153372854Y-153985813D01*
X153349143Y-153865799D01*
X153330765Y-153817836D01*
X153302926Y-153739695D01*
X153305210Y-153684097D01*
X153306310Y-153682370D01*
X153324715Y-153621314D01*
X153326875Y-153559933D01*
X153322587Y-153482312D01*
X153317309Y-153364183D01*
X153312762Y-153246739D01*
X153297842Y-153089003D01*
X153265276Y-152993324D01*
X153212948Y-152955830D01*
X153158097Y-152964078D01*
X153158097Y-152964078D01*
G37*
X153158097Y-152964078D02*
X153120782Y-152998794D01*
X153117198Y-153072392D01*
X153120919Y-153098705D01*
X153139306Y-153212010D01*
X152913586Y-153233331D01*
X152764895Y-153244933D01*
X152615023Y-153252777D01*
X152524644Y-153254893D01*
X152426962Y-153257929D01*
X152380723Y-153272081D01*
X152369705Y-153305488D01*
X152372244Y-153331334D01*
X152379714Y-153364259D01*
X152398931Y-153385697D01*
X152441882Y-153397745D01*
X152520553Y-153402501D01*
X152646931Y-153402064D01*
X152764066Y-153399914D01*
X152930176Y-153397572D01*
X153039984Y-153399480D01*
X153104867Y-153407153D01*
X153136200Y-153422105D01*
X153145360Y-153445851D01*
X153145529Y-153450714D01*
X153154745Y-153532939D01*
X153164904Y-153579566D01*
X153169084Y-153610085D01*
X153155230Y-153632262D01*
X153112586Y-153649390D01*
X153030392Y-153664761D01*
X152897889Y-153681668D01*
X152792130Y-153693656D01*
X152400444Y-153737312D01*
X152366425Y-153863651D01*
X152351332Y-153985428D01*
X152359281Y-154125427D01*
X152386513Y-154256115D01*
X152429267Y-154349959D01*
X152433575Y-154355449D01*
X152500773Y-154389226D01*
X152622074Y-154401931D01*
X152787109Y-154393247D01*
X152941867Y-154371005D01*
X153075999Y-154352740D01*
X153213487Y-154342117D01*
X153238200Y-154341377D01*
X153382133Y-154338867D01*
X153381925Y-154127200D01*
X153376452Y-154041888D01*
X153212281Y-154041888D01*
X153211530Y-154098238D01*
X153202414Y-154139295D01*
X153175436Y-154168112D01*
X153121103Y-154187738D01*
X153029918Y-154201223D01*
X152892388Y-154211619D01*
X152699016Y-154221974D01*
X152642878Y-154224811D01*
X152563231Y-154199175D01*
X152528513Y-154150864D01*
X152507072Y-154047385D01*
X152530198Y-153954344D01*
X152590789Y-153894350D01*
X152611372Y-153887062D01*
X152683854Y-153873908D01*
X152798128Y-153858222D01*
X152919831Y-153844428D01*
X153060198Y-153834765D01*
X153146820Y-153846435D01*
X153192484Y-153888072D01*
X153209974Y-153968309D01*
X153212281Y-154041888D01*
X153376452Y-154041888D01*
X153372854Y-153985813D01*
X153349143Y-153865799D01*
X153330765Y-153817836D01*
X153302926Y-153739695D01*
X153305210Y-153684097D01*
X153306310Y-153682370D01*
X153324715Y-153621314D01*
X153326875Y-153559933D01*
X153322587Y-153482312D01*
X153317309Y-153364183D01*
X153312762Y-153246739D01*
X153297842Y-153089003D01*
X153265276Y-152993324D01*
X153212948Y-152955830D01*
X153158097Y-152964078D01*
G36*
X152535377Y-154470978D02*
X152439447Y-154499336D01*
X152398507Y-154526932D01*
X152379844Y-154583947D01*
X152368215Y-154687905D01*
X152363596Y-154818387D01*
X152365961Y-154954972D01*
X152375288Y-155077240D01*
X152391550Y-155164770D01*
X152399297Y-155184220D01*
X152439527Y-155228651D01*
X152509663Y-155244911D01*
X152578581Y-155244033D01*
X152674773Y-155239764D01*
X152815865Y-155234605D01*
X152979042Y-155229359D01*
X153073404Y-155226632D01*
X153425075Y-155216930D01*
X153408609Y-155011791D01*
X153238260Y-155011791D01*
X153207960Y-155041753D01*
X153137527Y-155049761D01*
X153092732Y-155050067D01*
X152938797Y-155050067D01*
X152961723Y-154923067D01*
X152996621Y-154783840D01*
X153024458Y-154735534D01*
X152814467Y-154735534D01*
X152788347Y-154873083D01*
X152768470Y-154940000D01*
X152734517Y-155016206D01*
X152681664Y-155045953D01*
X152617507Y-155050067D01*
X152501600Y-155050067D01*
X152501600Y-154862962D01*
X152504595Y-154753859D01*
X152519033Y-154692462D01*
X152553098Y-154658822D01*
X152592513Y-154641292D01*
X152685434Y-154618647D01*
X152753380Y-154616730D01*
X152802850Y-154650911D01*
X152814467Y-154735534D01*
X153024458Y-154735534D01*
X153042321Y-154704538D01*
X153103308Y-154677647D01*
X153108371Y-154677533D01*
X153155768Y-154699120D01*
X153192557Y-154771495D01*
X153208779Y-154827997D01*
X153236007Y-154945373D01*
X153238260Y-155011791D01*
X153408609Y-155011791D01*
X153407610Y-154999353D01*
X153387249Y-154860114D01*
X153352868Y-154727332D01*
X153323220Y-154653455D01*
X153277742Y-154576049D01*
X153230502Y-154538023D01*
X153155900Y-154525066D01*
X153090614Y-154523405D01*
X152975327Y-154513875D01*
X152877254Y-154491838D01*
X152848771Y-154479900D01*
X152766333Y-154458513D01*
X152653103Y-154456455D01*
X152535377Y-154470978D01*
X152535377Y-154470978D01*
G37*
X152535377Y-154470978D02*
X152439447Y-154499336D01*
X152398507Y-154526932D01*
X152379844Y-154583947D01*
X152368215Y-154687905D01*
X152363596Y-154818387D01*
X152365961Y-154954972D01*
X152375288Y-155077240D01*
X152391550Y-155164770D01*
X152399297Y-155184220D01*
X152439527Y-155228651D01*
X152509663Y-155244911D01*
X152578581Y-155244033D01*
X152674773Y-155239764D01*
X152815865Y-155234605D01*
X152979042Y-155229359D01*
X153073404Y-155226632D01*
X153425075Y-155216930D01*
X153408609Y-155011791D01*
X153238260Y-155011791D01*
X153207960Y-155041753D01*
X153137527Y-155049761D01*
X153092732Y-155050067D01*
X152938797Y-155050067D01*
X152961723Y-154923067D01*
X152996621Y-154783840D01*
X153024458Y-154735534D01*
X152814467Y-154735534D01*
X152788347Y-154873083D01*
X152768470Y-154940000D01*
X152734517Y-155016206D01*
X152681664Y-155045953D01*
X152617507Y-155050067D01*
X152501600Y-155050067D01*
X152501600Y-154862962D01*
X152504595Y-154753859D01*
X152519033Y-154692462D01*
X152553098Y-154658822D01*
X152592513Y-154641292D01*
X152685434Y-154618647D01*
X152753380Y-154616730D01*
X152802850Y-154650911D01*
X152814467Y-154735534D01*
X153024458Y-154735534D01*
X153042321Y-154704538D01*
X153103308Y-154677647D01*
X153108371Y-154677533D01*
X153155768Y-154699120D01*
X153192557Y-154771495D01*
X153208779Y-154827997D01*
X153236007Y-154945373D01*
X153238260Y-155011791D01*
X153408609Y-155011791D01*
X153407610Y-154999353D01*
X153387249Y-154860114D01*
X153352868Y-154727332D01*
X153323220Y-154653455D01*
X153277742Y-154576049D01*
X153230502Y-154538023D01*
X153155900Y-154525066D01*
X153090614Y-154523405D01*
X152975327Y-154513875D01*
X152877254Y-154491838D01*
X152848771Y-154479900D01*
X152766333Y-154458513D01*
X152653103Y-154456455D01*
X152535377Y-154470978D01*
G36*
X152399095Y-155488054D02*
X152386453Y-155515734D01*
X152389112Y-155570909D01*
X152392461Y-155669459D01*
X152394920Y-155757515D01*
X152416394Y-155926692D01*
X152473759Y-156039958D01*
X152571585Y-156100911D01*
X152714439Y-156113148D01*
X152827195Y-156097932D01*
X152943252Y-156079899D01*
X153085736Y-156063403D01*
X153164246Y-156056534D01*
X153295983Y-156037002D01*
X153368681Y-156003732D01*
X153379404Y-155959118D01*
X153338360Y-155914617D01*
X153268765Y-155893531D01*
X153142919Y-155893413D01*
X153054300Y-155901458D01*
X152913609Y-155915227D01*
X152780174Y-155925205D01*
X152696333Y-155928861D01*
X152569333Y-155930600D01*
X152568871Y-155769734D01*
X152562149Y-155613267D01*
X152541097Y-155515630D01*
X152502762Y-155468881D01*
X152454852Y-155463157D01*
X152399095Y-155488054D01*
X152399095Y-155488054D01*
G37*
X152399095Y-155488054D02*
X152386453Y-155515734D01*
X152389112Y-155570909D01*
X152392461Y-155669459D01*
X152394920Y-155757515D01*
X152416394Y-155926692D01*
X152473759Y-156039958D01*
X152571585Y-156100911D01*
X152714439Y-156113148D01*
X152827195Y-156097932D01*
X152943252Y-156079899D01*
X153085736Y-156063403D01*
X153164246Y-156056534D01*
X153295983Y-156037002D01*
X153368681Y-156003732D01*
X153379404Y-155959118D01*
X153338360Y-155914617D01*
X153268765Y-155893531D01*
X153142919Y-155893413D01*
X153054300Y-155901458D01*
X152913609Y-155915227D01*
X152780174Y-155925205D01*
X152696333Y-155928861D01*
X152569333Y-155930600D01*
X152568871Y-155769734D01*
X152562149Y-155613267D01*
X152541097Y-155515630D01*
X152502762Y-155468881D01*
X152454852Y-155463157D01*
X152399095Y-155488054D01*
G36*
X152670257Y-156236703D02*
X152524946Y-156241075D01*
X152431198Y-156249215D01*
X152380949Y-156261820D01*
X152366133Y-156279427D01*
X152396299Y-156352028D01*
X152481855Y-156394837D01*
X152576107Y-156404734D01*
X152704800Y-156404734D01*
X152704800Y-156574067D01*
X152699399Y-156681670D01*
X152672992Y-156736416D01*
X152610269Y-156752939D01*
X152522486Y-156748366D01*
X152437401Y-156762226D01*
X152392709Y-156811977D01*
X152401903Y-156882423D01*
X152416624Y-156908275D01*
X152435520Y-156925945D01*
X152468935Y-156935745D01*
X152527214Y-156937987D01*
X152620699Y-156932983D01*
X152759735Y-156921046D01*
X152954666Y-156902488D01*
X152981466Y-156899912D01*
X153138662Y-156883055D01*
X153270497Y-156865625D01*
X153362683Y-156849735D01*
X153400516Y-156837994D01*
X153410345Y-156790113D01*
X153402460Y-156756966D01*
X153382017Y-156727998D01*
X153339005Y-156713416D01*
X153258480Y-156711159D01*
X153127343Y-156719027D01*
X152874133Y-156738177D01*
X152874133Y-156412137D01*
X153125854Y-156399425D01*
X153273179Y-156389284D01*
X153363091Y-156374223D01*
X153405908Y-156350103D01*
X153411946Y-156312783D01*
X153404313Y-156287661D01*
X153386804Y-156267116D01*
X153346043Y-156252615D01*
X153272177Y-156243184D01*
X153155351Y-156237849D01*
X152985711Y-156235639D01*
X152875196Y-156235400D01*
X152670257Y-156236703D01*
X152670257Y-156236703D01*
G37*
X152670257Y-156236703D02*
X152524946Y-156241075D01*
X152431198Y-156249215D01*
X152380949Y-156261820D01*
X152366133Y-156279427D01*
X152396299Y-156352028D01*
X152481855Y-156394837D01*
X152576107Y-156404734D01*
X152704800Y-156404734D01*
X152704800Y-156574067D01*
X152699399Y-156681670D01*
X152672992Y-156736416D01*
X152610269Y-156752939D01*
X152522486Y-156748366D01*
X152437401Y-156762226D01*
X152392709Y-156811977D01*
X152401903Y-156882423D01*
X152416624Y-156908275D01*
X152435520Y-156925945D01*
X152468935Y-156935745D01*
X152527214Y-156937987D01*
X152620699Y-156932983D01*
X152759735Y-156921046D01*
X152954666Y-156902488D01*
X152981466Y-156899912D01*
X153138662Y-156883055D01*
X153270497Y-156865625D01*
X153362683Y-156849735D01*
X153400516Y-156837994D01*
X153410345Y-156790113D01*
X153402460Y-156756966D01*
X153382017Y-156727998D01*
X153339005Y-156713416D01*
X153258480Y-156711159D01*
X153127343Y-156719027D01*
X152874133Y-156738177D01*
X152874133Y-156412137D01*
X153125854Y-156399425D01*
X153273179Y-156389284D01*
X153363091Y-156374223D01*
X153405908Y-156350103D01*
X153411946Y-156312783D01*
X153404313Y-156287661D01*
X153386804Y-156267116D01*
X153346043Y-156252615D01*
X153272177Y-156243184D01*
X153155351Y-156237849D01*
X152985711Y-156235639D01*
X152875196Y-156235400D01*
X152670257Y-156236703D01*
G36*
X152956411Y-156943264D02*
X152800644Y-156952614D01*
X152649509Y-156965565D01*
X152519463Y-156980957D01*
X152426963Y-156997629D01*
X152390423Y-157011672D01*
X152370603Y-157063570D01*
X152403410Y-157112870D01*
X152474826Y-157144873D01*
X152522157Y-157149800D01*
X152603232Y-157158527D01*
X152634677Y-157190756D01*
X152637066Y-157212807D01*
X152641566Y-157284620D01*
X152652844Y-157389025D01*
X152657917Y-157427933D01*
X152678767Y-157580053D01*
X152522450Y-157619414D01*
X152412985Y-157660125D01*
X152367678Y-157709777D01*
X152388024Y-157766197D01*
X152408466Y-157785183D01*
X152471721Y-157799779D01*
X152589003Y-157782692D01*
X152633647Y-157771799D01*
X152736722Y-157748679D01*
X152810579Y-157738883D01*
X152834025Y-157741869D01*
X152825621Y-157758117D01*
X152812142Y-157759400D01*
X152750101Y-157785706D01*
X152666173Y-157854760D01*
X152574201Y-157951767D01*
X152488029Y-158061934D01*
X152421501Y-158170465D01*
X152414895Y-158183939D01*
X152360696Y-158315250D01*
X152350222Y-158399892D01*
X152388098Y-158446504D01*
X152478948Y-158463724D01*
X152564490Y-158463408D01*
X152681746Y-158459276D01*
X152841566Y-158454017D01*
X153018807Y-158448446D01*
X153123042Y-158445294D01*
X153284193Y-158439945D01*
X153388909Y-158433530D01*
X153448466Y-158423281D01*
X153474138Y-158406429D01*
X153477204Y-158380205D01*
X153473007Y-158359353D01*
X153456848Y-158285485D01*
X153452452Y-158264425D01*
X153287513Y-158264425D01*
X153021557Y-158276031D01*
X152880681Y-158282526D01*
X152755051Y-158288927D01*
X152669305Y-158293969D01*
X152662466Y-158294451D01*
X152595005Y-158292110D01*
X152569333Y-158277962D01*
X152590844Y-158225442D01*
X152644532Y-158146624D01*
X152714132Y-158062553D01*
X152783377Y-157994272D01*
X152797042Y-157983387D01*
X152886402Y-157938294D01*
X153000613Y-157906989D01*
X153027206Y-157903160D01*
X153124930Y-157900749D01*
X153188352Y-157928387D01*
X153229593Y-157998166D01*
X153260770Y-158122179D01*
X153264084Y-158139536D01*
X153287513Y-158264425D01*
X153452452Y-158264425D01*
X153433495Y-158173614D01*
X153415398Y-158084627D01*
X153367771Y-157917310D01*
X153298496Y-157807457D01*
X153197945Y-157745874D01*
X153056490Y-157723368D01*
X153036539Y-157722860D01*
X152947447Y-157718472D01*
X152903451Y-157709906D01*
X152908000Y-157701931D01*
X153010001Y-157658735D01*
X153135520Y-157596624D01*
X153263305Y-157527159D01*
X153372102Y-157461904D01*
X153440658Y-157412420D01*
X153441400Y-157411738D01*
X153504307Y-157313519D01*
X153517600Y-157216879D01*
X153508772Y-157173254D01*
X153370082Y-157173254D01*
X153355531Y-157228670D01*
X153342766Y-157251292D01*
X153291292Y-157301344D01*
X153198041Y-157364634D01*
X153084236Y-157429518D01*
X152971100Y-157484355D01*
X152879853Y-157517503D01*
X152848733Y-157522307D01*
X152821938Y-157493625D01*
X152808460Y-157404790D01*
X152806400Y-157323509D01*
X152806400Y-157124685D01*
X153048206Y-157100858D01*
X153185629Y-157090825D01*
X153272450Y-157094762D01*
X153324618Y-157114053D01*
X153339039Y-157126059D01*
X153370082Y-157173254D01*
X153508772Y-157173254D01*
X153492464Y-157092678D01*
X153413763Y-157004148D01*
X153286925Y-156948433D01*
X153216009Y-156940013D01*
X153100351Y-156938677D01*
X152956411Y-156943264D01*
X152956411Y-156943264D01*
G37*
X152956411Y-156943264D02*
X152800644Y-156952614D01*
X152649509Y-156965565D01*
X152519463Y-156980957D01*
X152426963Y-156997629D01*
X152390423Y-157011672D01*
X152370603Y-157063570D01*
X152403410Y-157112870D01*
X152474826Y-157144873D01*
X152522157Y-157149800D01*
X152603232Y-157158527D01*
X152634677Y-157190756D01*
X152637066Y-157212807D01*
X152641566Y-157284620D01*
X152652844Y-157389025D01*
X152657917Y-157427933D01*
X152678767Y-157580053D01*
X152522450Y-157619414D01*
X152412985Y-157660125D01*
X152367678Y-157709777D01*
X152388024Y-157766197D01*
X152408466Y-157785183D01*
X152471721Y-157799779D01*
X152589003Y-157782692D01*
X152633647Y-157771799D01*
X152736722Y-157748679D01*
X152810579Y-157738883D01*
X152834025Y-157741869D01*
X152825621Y-157758117D01*
X152812142Y-157759400D01*
X152750101Y-157785706D01*
X152666173Y-157854760D01*
X152574201Y-157951767D01*
X152488029Y-158061934D01*
X152421501Y-158170465D01*
X152414895Y-158183939D01*
X152360696Y-158315250D01*
X152350222Y-158399892D01*
X152388098Y-158446504D01*
X152478948Y-158463724D01*
X152564490Y-158463408D01*
X152681746Y-158459276D01*
X152841566Y-158454017D01*
X153018807Y-158448446D01*
X153123042Y-158445294D01*
X153284193Y-158439945D01*
X153388909Y-158433530D01*
X153448466Y-158423281D01*
X153474138Y-158406429D01*
X153477204Y-158380205D01*
X153473007Y-158359353D01*
X153456848Y-158285485D01*
X153452452Y-158264425D01*
X153287513Y-158264425D01*
X153021557Y-158276031D01*
X152880681Y-158282526D01*
X152755051Y-158288927D01*
X152669305Y-158293969D01*
X152662466Y-158294451D01*
X152595005Y-158292110D01*
X152569333Y-158277962D01*
X152590844Y-158225442D01*
X152644532Y-158146624D01*
X152714132Y-158062553D01*
X152783377Y-157994272D01*
X152797042Y-157983387D01*
X152886402Y-157938294D01*
X153000613Y-157906989D01*
X153027206Y-157903160D01*
X153124930Y-157900749D01*
X153188352Y-157928387D01*
X153229593Y-157998166D01*
X153260770Y-158122179D01*
X153264084Y-158139536D01*
X153287513Y-158264425D01*
X153452452Y-158264425D01*
X153433495Y-158173614D01*
X153415398Y-158084627D01*
X153367771Y-157917310D01*
X153298496Y-157807457D01*
X153197945Y-157745874D01*
X153056490Y-157723368D01*
X153036539Y-157722860D01*
X152947447Y-157718472D01*
X152903451Y-157709906D01*
X152908000Y-157701931D01*
X153010001Y-157658735D01*
X153135520Y-157596624D01*
X153263305Y-157527159D01*
X153372102Y-157461904D01*
X153440658Y-157412420D01*
X153441400Y-157411738D01*
X153504307Y-157313519D01*
X153517600Y-157216879D01*
X153508772Y-157173254D01*
X153370082Y-157173254D01*
X153355531Y-157228670D01*
X153342766Y-157251292D01*
X153291292Y-157301344D01*
X153198041Y-157364634D01*
X153084236Y-157429518D01*
X152971100Y-157484355D01*
X152879853Y-157517503D01*
X152848733Y-157522307D01*
X152821938Y-157493625D01*
X152808460Y-157404790D01*
X152806400Y-157323509D01*
X152806400Y-157124685D01*
X153048206Y-157100858D01*
X153185629Y-157090825D01*
X153272450Y-157094762D01*
X153324618Y-157114053D01*
X153339039Y-157126059D01*
X153370082Y-157173254D01*
X153508772Y-157173254D01*
X153492464Y-157092678D01*
X153413763Y-157004148D01*
X153286925Y-156948433D01*
X153216009Y-156940013D01*
X153100351Y-156938677D01*
X152956411Y-156943264D01*
G36*
X146351755Y-147204255D02*
X146168956Y-147220985D01*
X145954259Y-147253285D01*
X145750449Y-147290223D01*
X145580965Y-147325685D01*
X145463750Y-147359664D01*
X145383688Y-147397568D01*
X145329615Y-147440791D01*
X145242200Y-147528206D01*
X145188285Y-147480867D01*
X144949333Y-147480867D01*
X144932400Y-147497800D01*
X144915466Y-147480867D01*
X144780000Y-147480867D01*
X144763066Y-147497800D01*
X144746133Y-147480867D01*
X144763066Y-147463934D01*
X144780000Y-147480867D01*
X144915466Y-147480867D01*
X144932400Y-147463934D01*
X144949333Y-147480867D01*
X145188285Y-147480867D01*
X145128455Y-147428336D01*
X145001588Y-147347439D01*
X144901922Y-147328467D01*
X144779387Y-147353237D01*
X144679421Y-147418026D01*
X144619813Y-147508546D01*
X144610666Y-147562347D01*
X144621111Y-147652780D01*
X144656333Y-147683974D01*
X144714784Y-147665786D01*
X144792141Y-147655707D01*
X144894762Y-147680387D01*
X144978153Y-147722567D01*
X144967173Y-147751341D01*
X144925468Y-147814290D01*
X144903730Y-147843576D01*
X144735560Y-148118324D01*
X144628682Y-148417325D01*
X144585117Y-148732045D01*
X144606887Y-149053951D01*
X144611199Y-149078085D01*
X144651488Y-149258842D01*
X144705879Y-149452854D01*
X144770156Y-149649714D01*
X144840097Y-149839013D01*
X144911487Y-150010342D01*
X144980104Y-150153292D01*
X145041732Y-150257455D01*
X145092151Y-150312422D01*
X145113686Y-150317888D01*
X145150132Y-150339094D01*
X145170134Y-150378570D01*
X145208932Y-150429235D01*
X145251260Y-150428179D01*
X145304071Y-150435266D01*
X145357268Y-150497733D01*
X145374764Y-150528363D01*
X145431127Y-150606570D01*
X145488355Y-150645934D01*
X145498901Y-150647400D01*
X145543506Y-150667221D01*
X145558699Y-150735850D01*
X145558933Y-150751250D01*
X145565896Y-150823149D01*
X145599460Y-150846758D01*
X145652066Y-150844383D01*
X145722213Y-150822259D01*
X145742817Y-150768831D01*
X145742729Y-150759502D01*
X145740259Y-150685337D01*
X145838461Y-150767968D01*
X145912609Y-150822812D01*
X145969516Y-150852087D01*
X145976398Y-150853387D01*
X146033917Y-150857657D01*
X146126671Y-150864744D01*
X146151600Y-150866671D01*
X146232423Y-150871668D01*
X146365469Y-150878490D01*
X146535278Y-150886401D01*
X146726389Y-150894666D01*
X146827144Y-150898784D01*
X147010859Y-150906816D01*
X147169277Y-150915034D01*
X147290720Y-150922727D01*
X147363508Y-150929187D01*
X147379126Y-150932304D01*
X147380565Y-150969980D01*
X147368316Y-151034706D01*
X147345602Y-151125205D01*
X146421616Y-151119383D01*
X146177172Y-151118615D01*
X145954445Y-151119388D01*
X145762560Y-151121553D01*
X145610637Y-151124960D01*
X145507801Y-151129458D01*
X145463173Y-151134898D01*
X145462693Y-151135154D01*
X145415347Y-151188885D01*
X145370009Y-151275650D01*
X145339839Y-151365323D01*
X145336596Y-151423843D01*
X145346390Y-151481317D01*
X145360229Y-151595115D01*
X145377116Y-151754017D01*
X145396056Y-151946800D01*
X145416051Y-152162245D01*
X145436104Y-152389129D01*
X145455218Y-152616231D01*
X145472397Y-152832331D01*
X145486643Y-153026208D01*
X145496959Y-153186639D01*
X145501650Y-153281685D01*
X145504398Y-153428420D01*
X145501337Y-153548484D01*
X145493167Y-153626749D01*
X145484690Y-153648623D01*
X145467329Y-153691122D01*
X145460356Y-153774918D01*
X145461046Y-153808338D01*
X145457580Y-153926199D01*
X145441407Y-154066968D01*
X145429225Y-154135667D01*
X145407950Y-154250451D01*
X145380430Y-154415458D01*
X145349210Y-154613751D01*
X145316833Y-154828392D01*
X145285846Y-155042445D01*
X145258792Y-155238972D01*
X145238217Y-155401035D01*
X145235174Y-155427202D01*
X145219769Y-155537216D01*
X145195001Y-155603394D01*
X145145256Y-155649344D01*
X145055981Y-155698135D01*
X144954659Y-155758367D01*
X144892921Y-155826237D01*
X144846845Y-155929439D01*
X144840539Y-155947534D01*
X144802247Y-156112883D01*
X144788891Y-156319933D01*
X144789739Y-156404159D01*
X144796933Y-156691452D01*
X145041643Y-156696488D01*
X145197528Y-156694187D01*
X145294100Y-156675076D01*
X145339019Y-156632463D01*
X145339945Y-156559651D01*
X145309391Y-156462493D01*
X145270289Y-156354301D01*
X145258740Y-156295587D01*
X145276116Y-156273357D01*
X145323792Y-156274620D01*
X145329169Y-156275378D01*
X145403099Y-156314312D01*
X145475621Y-156394937D01*
X145530274Y-156492903D01*
X145550596Y-156583864D01*
X145548863Y-156600320D01*
X145553026Y-156671858D01*
X145603061Y-156707883D01*
X145703814Y-156709762D01*
X145842447Y-156683249D01*
X145984781Y-156640900D01*
X146082966Y-156595756D01*
X146129611Y-156552429D01*
X146117322Y-156515529D01*
X146114480Y-156513575D01*
X146092436Y-156480934D01*
X145863471Y-156480934D01*
X145847209Y-156532936D01*
X145807772Y-156534645D01*
X145760228Y-156491670D01*
X145726974Y-156430134D01*
X145637655Y-156269134D01*
X145522090Y-156163762D01*
X145387107Y-156117748D01*
X145239535Y-156134824D01*
X145208047Y-156146581D01*
X145105997Y-156216518D01*
X145059403Y-156310874D01*
X145073929Y-156416777D01*
X145081920Y-156433219D01*
X145114173Y-156504321D01*
X145106687Y-156534806D01*
X145071816Y-156540200D01*
X145026507Y-156510125D01*
X144997818Y-156430580D01*
X144985084Y-156317585D01*
X144987637Y-156187160D01*
X145004812Y-156055325D01*
X145035941Y-155938100D01*
X145080359Y-155851504D01*
X145101397Y-155829279D01*
X145197996Y-155789500D01*
X145321275Y-155794638D01*
X145450010Y-155841724D01*
X145519733Y-155887821D01*
X145594176Y-155965821D01*
X145676454Y-156079632D01*
X145755300Y-156209812D01*
X145819445Y-156336918D01*
X145857621Y-156441506D01*
X145863471Y-156480934D01*
X146092436Y-156480934D01*
X146085205Y-156470228D01*
X146047130Y-156382450D01*
X146016138Y-156292845D01*
X145960477Y-156152882D01*
X145882344Y-156001706D01*
X145826222Y-155912574D01*
X145697528Y-155728858D01*
X145710354Y-155649049D01*
X145516713Y-155649049D01*
X145468909Y-155653962D01*
X145465800Y-155653394D01*
X145415385Y-155611404D01*
X145396958Y-155540844D01*
X145387382Y-155439534D01*
X145455471Y-155524200D01*
X145512302Y-155606655D01*
X145516713Y-155649049D01*
X145710354Y-155649049D01*
X145731663Y-155516462D01*
X145758320Y-155355104D01*
X145778321Y-155249360D01*
X145793069Y-155194132D01*
X145648444Y-155194132D01*
X145640122Y-155281585D01*
X145624338Y-155371572D01*
X145608507Y-155404115D01*
X145585026Y-155389078D01*
X145571157Y-155371087D01*
X145535705Y-155288818D01*
X145525066Y-155214926D01*
X145513930Y-155139156D01*
X145491200Y-155100867D01*
X145467081Y-155054299D01*
X145457776Y-154976041D01*
X145464968Y-154900853D01*
X145479982Y-154869373D01*
X145507919Y-154882421D01*
X145553946Y-154940872D01*
X145582814Y-154987887D01*
X145634079Y-155096435D01*
X145648444Y-155194132D01*
X145793069Y-155194132D01*
X145794756Y-155187818D01*
X145810713Y-155159062D01*
X145829280Y-155151680D01*
X145830371Y-155151667D01*
X145867972Y-155173300D01*
X145942365Y-155231521D01*
X146041192Y-155316312D01*
X146109126Y-155377656D01*
X146244567Y-155497676D01*
X146390668Y-155619906D01*
X146521968Y-155723235D01*
X146558000Y-155749798D01*
X146665217Y-155828151D01*
X146755478Y-155896322D01*
X146810201Y-155940259D01*
X146812000Y-155941864D01*
X146868349Y-155964955D01*
X146982793Y-155989488D01*
X147145769Y-156013728D01*
X147312049Y-156032485D01*
X147495164Y-156051718D01*
X147620421Y-156068062D01*
X147697500Y-156083756D01*
X147736082Y-156101036D01*
X147745848Y-156122142D01*
X147743807Y-156132308D01*
X147730982Y-156192836D01*
X147713783Y-156299169D01*
X147695134Y-156429772D01*
X147677957Y-156563109D01*
X147665176Y-156677647D01*
X147659712Y-156751851D01*
X147659712Y-156751867D01*
X147654528Y-156772389D01*
X147633942Y-156787566D01*
X147589163Y-156798194D01*
X147511398Y-156805070D01*
X147391855Y-156808987D01*
X147221743Y-156810743D01*
X147004795Y-156811134D01*
X146350924Y-156811134D01*
X146242795Y-156900712D01*
X146174974Y-156965205D01*
X146137293Y-157017163D01*
X146134567Y-157027712D01*
X146104751Y-157053313D01*
X146031791Y-157067049D01*
X146018677Y-157067564D01*
X145877894Y-157101986D01*
X145751249Y-157189853D01*
X145646017Y-157317225D01*
X145569472Y-157470163D01*
X145528887Y-157634727D01*
X145531536Y-157796977D01*
X145572843Y-157921949D01*
X145687926Y-158082139D01*
X145835697Y-158183285D01*
X146011900Y-158226123D01*
X146195432Y-158241343D01*
X146165049Y-158347281D01*
X146139577Y-158540151D01*
X146168536Y-158728549D01*
X146247336Y-158894304D01*
X146325796Y-158983701D01*
X146432670Y-159049009D01*
X146568472Y-159091492D01*
X146712687Y-159109249D01*
X146844798Y-159100375D01*
X146944292Y-159062968D01*
X146967232Y-159043204D01*
X146986280Y-159023816D01*
X147009295Y-159008524D01*
X147043539Y-158997050D01*
X147096269Y-158989114D01*
X147174747Y-158984436D01*
X147286231Y-158982738D01*
X147437982Y-158983741D01*
X147637259Y-158987164D01*
X147891323Y-158992730D01*
X148132414Y-158998383D01*
X148409578Y-159004586D01*
X148674221Y-159009848D01*
X148916284Y-159014019D01*
X149125709Y-159016949D01*
X149292437Y-159018488D01*
X149406408Y-159018485D01*
X149439774Y-159017881D01*
X149646082Y-159011338D01*
X149699517Y-159147369D01*
X149752951Y-159283400D01*
X150008806Y-159283400D01*
X150139597Y-159282074D01*
X150219865Y-159274400D01*
X150266813Y-159254834D01*
X150297646Y-159217832D01*
X150315819Y-159184470D01*
X150379658Y-159096322D01*
X150397467Y-159079587D01*
X150175002Y-159079587D01*
X150158773Y-159104395D01*
X150094961Y-159134691D01*
X150002463Y-159131041D01*
X149908784Y-159097323D01*
X149861663Y-159062511D01*
X149833602Y-159026231D01*
X149859373Y-159013599D01*
X149899309Y-159012467D01*
X149998739Y-159019415D01*
X150093376Y-159033742D01*
X150162579Y-159053383D01*
X150175002Y-159079587D01*
X150397467Y-159079587D01*
X150466052Y-159015140D01*
X150473504Y-159009687D01*
X150564721Y-158944734D01*
X146888834Y-158944734D01*
X146781596Y-158944734D01*
X146673743Y-158930966D01*
X146561893Y-158897730D01*
X146559161Y-158896601D01*
X146444880Y-158814815D01*
X146367489Y-158689977D01*
X146330457Y-158537950D01*
X146337249Y-158374595D01*
X146391333Y-158215772D01*
X146404984Y-158191200D01*
X146467590Y-158101297D01*
X146523341Y-158070233D01*
X146588500Y-158093184D01*
X146630702Y-158124220D01*
X146726564Y-158237056D01*
X146804265Y-158398425D01*
X146856309Y-158589973D01*
X146872425Y-158716134D01*
X146888834Y-158944734D01*
X150564721Y-158944734D01*
X150580029Y-158933834D01*
X150562894Y-158728353D01*
X150397796Y-158728353D01*
X150389449Y-158756136D01*
X150360488Y-158776261D01*
X150304120Y-158789746D01*
X150213551Y-158797611D01*
X150081990Y-158800874D01*
X149902642Y-158800554D01*
X149668713Y-158797671D01*
X149394333Y-158793553D01*
X149099522Y-158788637D01*
X148790740Y-158782558D01*
X148484695Y-158775712D01*
X148198096Y-158768493D01*
X147947650Y-158761294D01*
X147768733Y-158755224D01*
X147572609Y-158746532D01*
X147402138Y-158736506D01*
X147267926Y-158725975D01*
X147180581Y-158715766D01*
X147150667Y-158706999D01*
X147154784Y-158682871D01*
X147170823Y-158662572D01*
X147204308Y-158645691D01*
X147260767Y-158631815D01*
X147345727Y-158620532D01*
X147464714Y-158611432D01*
X147623255Y-158604101D01*
X147826877Y-158598128D01*
X148081106Y-158593101D01*
X148391470Y-158588608D01*
X148763495Y-158584237D01*
X148803709Y-158583797D01*
X150358706Y-158566870D01*
X150379824Y-158645735D01*
X150392324Y-158691892D01*
X150397796Y-158728353D01*
X150562894Y-158728353D01*
X150557262Y-158660830D01*
X150533419Y-158474892D01*
X150500412Y-158354409D01*
X150294014Y-158354409D01*
X148952204Y-158363263D01*
X148657469Y-158365580D01*
X148384360Y-158368446D01*
X148140190Y-158371728D01*
X147932272Y-158375298D01*
X147767922Y-158379024D01*
X147654452Y-158382776D01*
X147599176Y-158386423D01*
X147595020Y-158387491D01*
X147555700Y-158395480D01*
X147468468Y-158401039D01*
X147365844Y-158402867D01*
X147152043Y-158402867D01*
X147082216Y-158265995D01*
X147023379Y-158164957D01*
X146962021Y-158080336D01*
X146946061Y-158062795D01*
X146896912Y-158001871D01*
X146879733Y-157960814D01*
X146862221Y-157918747D01*
X146824411Y-157851129D01*
X146561156Y-157851129D01*
X146556554Y-157863340D01*
X146523860Y-157893370D01*
X146507862Y-157859167D01*
X146507200Y-157842068D01*
X146523862Y-157807187D01*
X146541619Y-157810542D01*
X146561156Y-157851129D01*
X146824411Y-157851129D01*
X146815101Y-157834481D01*
X146762940Y-157749013D01*
X146337740Y-157749013D01*
X146334134Y-157870749D01*
X146319319Y-157944946D01*
X146287579Y-157991575D01*
X146262598Y-158011480D01*
X146137849Y-158060183D01*
X145996666Y-158043297D01*
X145949162Y-158024518D01*
X145846083Y-157948186D01*
X145775086Y-157837416D01*
X145736025Y-157706661D01*
X145728751Y-157570373D01*
X145753119Y-157443003D01*
X145808981Y-157339004D01*
X145896191Y-157272827D01*
X145956949Y-157257838D01*
X146099666Y-157272842D01*
X146212236Y-157345464D01*
X146290997Y-157470979D01*
X146332289Y-157644666D01*
X146337740Y-157749013D01*
X146762940Y-157749013D01*
X146746495Y-157722068D01*
X146697353Y-157645349D01*
X146583181Y-157465119D01*
X146490244Y-157308276D01*
X146422944Y-157182990D01*
X146385684Y-157097431D01*
X146382100Y-157060411D01*
X146419204Y-157054237D01*
X146512844Y-157046425D01*
X146651863Y-157037686D01*
X146825102Y-157028733D01*
X146994084Y-157021360D01*
X147590976Y-156997400D01*
X147590955Y-157242153D01*
X147593177Y-157372077D01*
X147603123Y-157452329D01*
X147625666Y-157500911D01*
X147665681Y-157535823D01*
X147671524Y-157539710D01*
X147748329Y-157567924D01*
X147863636Y-157586529D01*
X147994670Y-157594689D01*
X148118658Y-157591565D01*
X148212828Y-157576319D01*
X148245740Y-157560842D01*
X148269788Y-157508733D01*
X148279584Y-157454600D01*
X147975273Y-157454600D01*
X147900574Y-157454600D01*
X147833151Y-157434636D01*
X147806809Y-157404917D01*
X147793805Y-157335070D01*
X147820455Y-157315857D01*
X147877248Y-157351321D01*
X147893841Y-157367920D01*
X147975273Y-157454600D01*
X148279584Y-157454600D01*
X148288118Y-157407443D01*
X148296529Y-157296818D01*
X148298164Y-157268334D01*
X148132800Y-157268334D01*
X148125539Y-157354275D01*
X148099091Y-157380803D01*
X148046454Y-157349170D01*
X147990874Y-157293734D01*
X147888882Y-157162404D01*
X147828073Y-157020790D01*
X147814911Y-156971222D01*
X147804869Y-156921133D01*
X147813383Y-156907862D01*
X147850100Y-156934871D01*
X147924666Y-157005622D01*
X147932843Y-157013555D01*
X148013720Y-157087399D01*
X148077076Y-157136877D01*
X148103017Y-157149800D01*
X148122706Y-157179584D01*
X148132544Y-157252817D01*
X148132800Y-157268334D01*
X148298164Y-157268334D01*
X148303307Y-157178797D01*
X148312933Y-157089921D01*
X148323253Y-157049599D01*
X148367979Y-157039099D01*
X148467628Y-157033686D01*
X148609595Y-157033174D01*
X148781276Y-157037376D01*
X148970065Y-157046107D01*
X149163359Y-157059182D01*
X149204964Y-157062599D01*
X149548995Y-157091842D01*
X149694259Y-157315554D01*
X149816266Y-157508741D01*
X149945328Y-157722011D01*
X150068639Y-157933599D01*
X150173392Y-158121739D01*
X150215128Y-158200838D01*
X150294014Y-158354409D01*
X150500412Y-158354409D01*
X150490991Y-158320022D01*
X150423545Y-158166747D01*
X150299393Y-157929769D01*
X150163136Y-157687264D01*
X150025929Y-157458127D01*
X149898927Y-157261254D01*
X149835935Y-157171475D01*
X149764394Y-157067594D01*
X149712523Y-156980557D01*
X149690790Y-156928055D01*
X149690666Y-156925941D01*
X149675857Y-156882338D01*
X149665266Y-156877423D01*
X149622396Y-156874582D01*
X149528196Y-156868143D01*
X149398907Y-156859218D01*
X149318133Y-156853612D01*
X149130551Y-156843124D01*
X148913802Y-156834848D01*
X148706450Y-156830166D01*
X148649266Y-156829656D01*
X148302133Y-156828067D01*
X148302176Y-156802667D01*
X148132077Y-156802667D01*
X148126591Y-156902085D01*
X148111714Y-156966589D01*
X148098513Y-156980467D01*
X148063714Y-156954003D01*
X148007208Y-156885060D01*
X147949489Y-156801105D01*
X147878159Y-156674120D01*
X147850121Y-156579557D01*
X147852150Y-156530736D01*
X147869547Y-156439728D01*
X148000450Y-156532298D01*
X148077693Y-156592165D01*
X148116590Y-156647263D01*
X148130348Y-156724717D01*
X148132077Y-156802667D01*
X148302176Y-156802667D01*
X148302596Y-156557134D01*
X148304448Y-156381636D01*
X148313037Y-156262841D01*
X148333968Y-156189727D01*
X148356271Y-156167667D01*
X148202990Y-156167667D01*
X148190618Y-156232227D01*
X148177538Y-156330826D01*
X148174180Y-156362400D01*
X148157012Y-156450771D01*
X148130849Y-156501452D01*
X148120023Y-156506334D01*
X148080010Y-156480071D01*
X148022200Y-156413103D01*
X147987967Y-156364088D01*
X147933762Y-156268420D01*
X147900598Y-156186619D01*
X147895733Y-156159032D01*
X147905262Y-156121270D01*
X147944994Y-156105098D01*
X148031651Y-156105062D01*
X148056600Y-156106545D01*
X148156114Y-156118085D01*
X148200080Y-156139206D01*
X148202990Y-156167667D01*
X148356271Y-156167667D01*
X148372849Y-156151271D01*
X148435286Y-156136452D01*
X148517750Y-156134218D01*
X148611594Y-156137531D01*
X148756664Y-156146397D01*
X148936783Y-156159661D01*
X149135778Y-156176171D01*
X149250400Y-156186493D01*
X149462278Y-156205901D01*
X149673367Y-156224789D01*
X149864508Y-156241473D01*
X150016541Y-156254269D01*
X150069838Y-156258522D01*
X150330476Y-156278695D01*
X150352067Y-156180847D01*
X150371661Y-156096649D01*
X150385434Y-156043963D01*
X150390114Y-155999550D01*
X150396345Y-155898252D01*
X150403602Y-155750888D01*
X150411363Y-155568274D01*
X150419104Y-155361227D01*
X150420672Y-155315829D01*
X150428605Y-155105754D01*
X150437160Y-154918528D01*
X150445728Y-154764791D01*
X150453703Y-154655179D01*
X150460478Y-154600331D01*
X150461728Y-154596700D01*
X150478170Y-154612672D01*
X150506980Y-154681065D01*
X150542999Y-154788874D01*
X150558276Y-154840139D01*
X150596350Y-154977674D01*
X150615320Y-155070041D01*
X150616587Y-155136625D01*
X150601549Y-155196813D01*
X150586739Y-155234446D01*
X150521312Y-155478227D01*
X150518255Y-155744504D01*
X150571852Y-156010067D01*
X150615560Y-156145568D01*
X150651796Y-156226128D01*
X150686752Y-156263147D01*
X150712663Y-156269267D01*
X150774909Y-156247434D01*
X150794561Y-156222267D01*
X150837814Y-156182920D01*
X150915996Y-156154588D01*
X150986285Y-156132893D01*
X151004156Y-156096080D01*
X150995629Y-156057654D01*
X150949029Y-155893723D01*
X150922167Y-155767066D01*
X150916918Y-155687851D01*
X150923813Y-155668298D01*
X150960787Y-155672568D01*
X151017991Y-155719026D01*
X151081796Y-155791198D01*
X151138569Y-155872609D01*
X151174682Y-155946785D01*
X151180800Y-155978904D01*
X151187975Y-156045082D01*
X151218799Y-156077088D01*
X151287223Y-156080040D01*
X151402057Y-156060125D01*
X151525217Y-156030610D01*
X151597632Y-155995118D01*
X151625210Y-155940012D01*
X151619858Y-155898340D01*
X151446274Y-155898340D01*
X151418906Y-155934691D01*
X151403200Y-155941978D01*
X151359604Y-155930247D01*
X151333607Y-155864719D01*
X151291196Y-155773068D01*
X151212473Y-155672142D01*
X151117413Y-155582655D01*
X151025993Y-155525320D01*
X150997823Y-155516540D01*
X150875152Y-155521186D01*
X150782278Y-155577832D01*
X150729495Y-155673610D01*
X150727098Y-155795655D01*
X150739206Y-155839750D01*
X150766612Y-155932518D01*
X150771017Y-155981320D01*
X150753009Y-155978403D01*
X150731037Y-155947534D01*
X150710211Y-155878550D01*
X150696149Y-155761497D01*
X150691148Y-155615889D01*
X150691173Y-155608867D01*
X150702014Y-155411129D01*
X150732571Y-155276318D01*
X150783563Y-155202347D01*
X150836694Y-155185533D01*
X150920823Y-155208889D01*
X151027519Y-155268753D01*
X151135724Y-155349816D01*
X151224380Y-155436774D01*
X151265730Y-155497393D01*
X151320076Y-155606598D01*
X151379903Y-155720470D01*
X151383679Y-155727400D01*
X151434917Y-155833471D01*
X151446274Y-155898340D01*
X151619858Y-155898340D01*
X151613861Y-155851653D01*
X151569493Y-155716402D01*
X151561055Y-155693146D01*
X151484108Y-155513849D01*
X151393069Y-155372667D01*
X151307837Y-155277168D01*
X151244481Y-155211182D01*
X151197006Y-155152284D01*
X151159534Y-155086992D01*
X151126189Y-155001823D01*
X151124205Y-154995120D01*
X150943733Y-154995120D01*
X150918381Y-155042626D01*
X150892933Y-155050067D01*
X150847746Y-155043105D01*
X150842133Y-155037280D01*
X150864576Y-155008060D01*
X150892933Y-154982333D01*
X150932993Y-154958721D01*
X150943686Y-154989834D01*
X150943733Y-154995120D01*
X151124205Y-154995120D01*
X151091096Y-154883297D01*
X151053921Y-154739393D01*
X150838676Y-154739393D01*
X150815621Y-154863592D01*
X150805523Y-154885861D01*
X150775889Y-154928085D01*
X150749523Y-154927202D01*
X150721415Y-154876501D01*
X150686558Y-154769270D01*
X150667291Y-154700621D01*
X150637400Y-154579895D01*
X150629099Y-154505063D01*
X150641489Y-154458128D01*
X150654309Y-154440467D01*
X150699297Y-154368176D01*
X150718268Y-154321933D01*
X150246134Y-154321933D01*
X150245339Y-154460153D01*
X150242079Y-154635744D01*
X150236801Y-154837318D01*
X150229951Y-155053486D01*
X150221974Y-155272859D01*
X150213316Y-155484048D01*
X150204425Y-155675665D01*
X150195744Y-155836321D01*
X150187722Y-155954627D01*
X150180802Y-156019195D01*
X150179431Y-156025191D01*
X150139308Y-156045226D01*
X150040679Y-156052789D01*
X149891581Y-156048053D01*
X149700050Y-156031192D01*
X149538266Y-156011354D01*
X149434100Y-155999647D01*
X149271576Y-155984483D01*
X149059944Y-155966604D01*
X148808449Y-155946753D01*
X148526339Y-155925672D01*
X148222860Y-155904104D01*
X148082000Y-155894451D01*
X147863650Y-155878407D01*
X147648282Y-155860349D01*
X147453363Y-155841900D01*
X147296365Y-155824681D01*
X147218400Y-155814232D01*
X146964400Y-155775302D01*
X146981333Y-154794618D01*
X146987948Y-154391001D01*
X146992693Y-154048540D01*
X146995526Y-153760683D01*
X146996403Y-153520878D01*
X146995831Y-153419710D01*
X146817348Y-153419710D01*
X146815722Y-153589617D01*
X146812135Y-153801842D01*
X146806696Y-154064970D01*
X146799852Y-154372733D01*
X146794695Y-154609266D01*
X146789933Y-154842294D01*
X146785856Y-155056359D01*
X146782759Y-155235999D01*
X146780934Y-155365757D01*
X146780785Y-155380267D01*
X146776661Y-155508245D01*
X146767993Y-155605389D01*
X146756399Y-155655913D01*
X146752112Y-155659667D01*
X146714358Y-155639664D01*
X146641443Y-155587451D01*
X146557379Y-155520985D01*
X146458186Y-155435604D01*
X146331245Y-155320941D01*
X146196831Y-155195482D01*
X146127862Y-155129351D01*
X146012437Y-155015744D01*
X145939131Y-154937026D01*
X145900458Y-154881962D01*
X145888930Y-154839320D01*
X145897062Y-154797867D01*
X145900556Y-154788292D01*
X145924454Y-154698736D01*
X145941575Y-154593554D01*
X145762133Y-154593554D01*
X145754440Y-154720368D01*
X145734667Y-154802924D01*
X145707773Y-154835574D01*
X145678719Y-154812668D01*
X145652464Y-154728556D01*
X145650869Y-154720281D01*
X145610715Y-154497331D01*
X145585833Y-154336717D01*
X145576494Y-154234722D01*
X145582974Y-154187629D01*
X145605546Y-154191724D01*
X145644483Y-154243289D01*
X145681423Y-154305289D01*
X145746664Y-154471148D01*
X145762133Y-154593554D01*
X145941575Y-154593554D01*
X145943443Y-154582084D01*
X145947274Y-154544926D01*
X145963599Y-154405964D01*
X145988511Y-154253101D01*
X146017855Y-154107212D01*
X146047478Y-153989174D01*
X146049892Y-153982449D01*
X145872194Y-153982449D01*
X145856935Y-154073556D01*
X145838114Y-154128429D01*
X145829633Y-154135667D01*
X145803125Y-154107278D01*
X145762692Y-154034552D01*
X145735186Y-153974800D01*
X145693065Y-153857776D01*
X145682886Y-153757284D01*
X145697187Y-153647384D01*
X145721562Y-153535363D01*
X145742451Y-153472168D01*
X145756942Y-153463809D01*
X145762133Y-153513262D01*
X145777128Y-153585242D01*
X145814311Y-153680734D01*
X145825799Y-153704355D01*
X145871931Y-153842969D01*
X145872194Y-153982449D01*
X146049892Y-153982449D01*
X146070714Y-153924460D01*
X146093240Y-153846966D01*
X146100800Y-153766913D01*
X146109602Y-153701860D01*
X146133950Y-153584922D01*
X146170758Y-153429336D01*
X146195966Y-153330533D01*
X146016812Y-153330533D01*
X146000401Y-153399373D01*
X145996289Y-153409912D01*
X145956559Y-153509133D01*
X145910067Y-153339800D01*
X145884490Y-153225994D01*
X145871886Y-153127598D01*
X145872121Y-153093098D01*
X145881466Y-153055712D01*
X145901516Y-153065478D01*
X145939817Y-153128532D01*
X145958343Y-153163210D01*
X146004222Y-153261107D01*
X146016812Y-153330533D01*
X146195966Y-153330533D01*
X146216939Y-153248336D01*
X146252938Y-153114520D01*
X146308201Y-152912296D01*
X146346875Y-152764768D01*
X146370449Y-152661357D01*
X146373858Y-152637443D01*
X146198170Y-152637443D01*
X146174690Y-152754978D01*
X146148614Y-152848222D01*
X146109943Y-152951097D01*
X146076722Y-152987844D01*
X146051571Y-152960008D01*
X146037109Y-152869133D01*
X146034662Y-152781000D01*
X146047299Y-152666125D01*
X146079232Y-152575895D01*
X146122845Y-152525095D01*
X146166280Y-152525608D01*
X146195168Y-152564617D01*
X146198170Y-152637443D01*
X146373858Y-152637443D01*
X146380410Y-152591481D01*
X146378246Y-152544562D01*
X146365445Y-152510019D01*
X146343495Y-152477271D01*
X146342707Y-152476200D01*
X146249922Y-152402260D01*
X146159530Y-152381191D01*
X146096491Y-152379852D01*
X146046386Y-152395692D01*
X145994676Y-152439397D01*
X145926821Y-152521656D01*
X145875028Y-152590319D01*
X145788533Y-152700862D01*
X145731134Y-152759592D01*
X145696314Y-152772312D01*
X145683761Y-152760654D01*
X145671980Y-152711955D01*
X145656634Y-152607844D01*
X145639188Y-152460458D01*
X145621105Y-152281932D01*
X145607444Y-152128193D01*
X145590571Y-151934403D01*
X145574350Y-151762835D01*
X145560015Y-151625441D01*
X145548797Y-151534172D01*
X145542946Y-151502534D01*
X145540808Y-151464056D01*
X145548041Y-151460200D01*
X145589524Y-151483010D01*
X145671688Y-151547207D01*
X145787163Y-151646441D01*
X145928578Y-151774364D01*
X146088562Y-151924627D01*
X146100800Y-151936329D01*
X146233839Y-152060296D01*
X146374569Y-152185927D01*
X146500185Y-152293050D01*
X146545407Y-152329607D01*
X146736015Y-152479709D01*
X146779731Y-152808154D01*
X146792193Y-152904450D01*
X146802030Y-152991550D01*
X146809354Y-153078041D01*
X146814274Y-153172508D01*
X146816903Y-153283536D01*
X146817348Y-153419710D01*
X146995831Y-153419710D01*
X146995281Y-153322572D01*
X146992116Y-153159212D01*
X146986865Y-153024246D01*
X146979484Y-152911123D01*
X146969930Y-152813288D01*
X146968115Y-152797934D01*
X146939391Y-152560867D01*
X148289629Y-152551717D01*
X148598168Y-152550186D01*
X148896094Y-152549760D01*
X149174148Y-152550378D01*
X149423072Y-152551976D01*
X149633607Y-152554490D01*
X149796495Y-152557859D01*
X149902478Y-152562018D01*
X149914118Y-152562795D01*
X150188369Y-152583023D01*
X150216394Y-153283145D01*
X150225327Y-153521489D01*
X150233269Y-153762138D01*
X150239720Y-153987568D01*
X150244176Y-154180258D01*
X150246134Y-154321933D01*
X150718268Y-154321933D01*
X150725216Y-154305000D01*
X150742167Y-154262101D01*
X150757557Y-154265079D01*
X150777773Y-154321538D01*
X150796302Y-154389667D01*
X150832130Y-154575718D01*
X150838676Y-154739393D01*
X151053921Y-154739393D01*
X151048376Y-154717932D01*
X151027333Y-154633625D01*
X150978263Y-154443683D01*
X150927640Y-154260180D01*
X150880735Y-154101458D01*
X150855082Y-154023242D01*
X150612427Y-154023242D01*
X150610174Y-154133973D01*
X150597982Y-154206785D01*
X150574347Y-154219656D01*
X150544956Y-154178175D01*
X150515495Y-154087933D01*
X150502928Y-154028553D01*
X150491004Y-153898773D01*
X150495959Y-153767398D01*
X150498986Y-153746200D01*
X150521807Y-153610733D01*
X150561951Y-153712333D01*
X150599466Y-153850723D01*
X150612427Y-154023242D01*
X150855082Y-154023242D01*
X150842820Y-153985859D01*
X150835552Y-153966333D01*
X150782908Y-153841882D01*
X150715592Y-153699208D01*
X150640492Y-153550983D01*
X150564491Y-153409877D01*
X150494475Y-153288558D01*
X150437329Y-153199698D01*
X150399937Y-153155966D01*
X150393870Y-153153534D01*
X150377438Y-153123103D01*
X150370582Y-153030483D01*
X150373215Y-152873676D01*
X150377497Y-152781157D01*
X150397142Y-152408781D01*
X150349092Y-152351710D01*
X150063629Y-152351710D01*
X150049017Y-152361958D01*
X150013052Y-152370235D01*
X149950184Y-152376719D01*
X149854863Y-152381589D01*
X149721541Y-152385022D01*
X149544666Y-152387198D01*
X149318688Y-152388294D01*
X149038059Y-152388491D01*
X148697229Y-152387965D01*
X148559999Y-152387636D01*
X148241682Y-152386258D01*
X147942108Y-152383870D01*
X147668521Y-152380608D01*
X147428165Y-152376610D01*
X147228284Y-152372010D01*
X147076121Y-152366945D01*
X146978919Y-152361552D01*
X146946206Y-152357300D01*
X146882439Y-152322329D01*
X146779399Y-152248695D01*
X146646860Y-152144448D01*
X146494598Y-152017638D01*
X146332386Y-151876314D01*
X146170000Y-151728527D01*
X146083866Y-151647129D01*
X145978925Y-151549120D01*
X145883369Y-151464522D01*
X145814623Y-151408653D01*
X145804466Y-151401498D01*
X145748175Y-151356974D01*
X145728359Y-151329305D01*
X145760693Y-151323181D01*
X145851406Y-151317592D01*
X145991140Y-151312811D01*
X146170543Y-151309109D01*
X146380259Y-151306761D01*
X146524226Y-151306098D01*
X147320000Y-151304395D01*
X147320000Y-151549426D01*
X147324946Y-151725388D01*
X147342975Y-151845093D01*
X147378874Y-151919509D01*
X147437428Y-151959603D01*
X147505524Y-151974541D01*
X147635335Y-151970901D01*
X147771707Y-151938471D01*
X147884306Y-151885764D01*
X147918078Y-151858770D01*
X147942938Y-151820553D01*
X147943177Y-151810156D01*
X147579644Y-151810156D01*
X147574995Y-151830289D01*
X147557067Y-151832734D01*
X147529190Y-151820342D01*
X147534489Y-151810156D01*
X147574681Y-151806103D01*
X147579644Y-151810156D01*
X147943177Y-151810156D01*
X147944218Y-151765088D01*
X147943853Y-151763587D01*
X147781854Y-151763587D01*
X147773249Y-151805259D01*
X147741735Y-151803266D01*
X147685144Y-151761187D01*
X147617558Y-151694204D01*
X147553056Y-151617499D01*
X147505718Y-151546255D01*
X147489425Y-151499208D01*
X147505279Y-151478170D01*
X147559168Y-151498286D01*
X147599400Y-151521963D01*
X147690004Y-151596353D01*
X147754618Y-151683078D01*
X147781854Y-151763587D01*
X147943853Y-151763587D01*
X147921471Y-151671649D01*
X147913467Y-151644824D01*
X147883588Y-151532005D01*
X147865105Y-151434681D01*
X147862233Y-151400934D01*
X147863462Y-151390842D01*
X147726400Y-151390842D01*
X147706716Y-151423940D01*
X147646646Y-151404686D01*
X147602690Y-151376570D01*
X147554440Y-151327344D01*
X147517465Y-151265180D01*
X147501814Y-151212148D01*
X147517537Y-151190322D01*
X147517904Y-151190337D01*
X147562652Y-151213916D01*
X147626674Y-151267762D01*
X147687785Y-151330541D01*
X147723799Y-151380917D01*
X147726400Y-151390842D01*
X147863462Y-151390842D01*
X147867310Y-151359275D01*
X147893355Y-151336440D01*
X147955830Y-151326875D01*
X148070194Y-151325027D01*
X148073533Y-151325031D01*
X148188906Y-151327678D01*
X148351161Y-151334693D01*
X148539663Y-151345039D01*
X148733777Y-151357685D01*
X148753879Y-151359121D01*
X149222558Y-151392914D01*
X149382416Y-151553557D01*
X149472700Y-151647817D01*
X149581968Y-151767190D01*
X149699976Y-151899840D01*
X149816480Y-152033932D01*
X149921239Y-152157630D01*
X150004009Y-152259097D01*
X150054546Y-152326499D01*
X150062438Y-152339311D01*
X150063629Y-152351710D01*
X150349092Y-152351710D01*
X150221704Y-152200410D01*
X150129684Y-152093025D01*
X150007745Y-151953396D01*
X149871567Y-151799361D01*
X149736834Y-151648760D01*
X149733000Y-151644505D01*
X149618685Y-151513878D01*
X149523053Y-151397346D01*
X149454514Y-151305713D01*
X149421477Y-151249780D01*
X149419733Y-151242052D01*
X149405756Y-151208248D01*
X149353793Y-151193535D01*
X149258866Y-151192932D01*
X149157663Y-151193822D01*
X149015742Y-151191360D01*
X148845328Y-151186152D01*
X148658646Y-151178806D01*
X148467921Y-151169925D01*
X148285378Y-151160119D01*
X148123242Y-151149991D01*
X147993737Y-151140150D01*
X147909088Y-151131200D01*
X147881449Y-151124619D01*
X147883304Y-151081272D01*
X147900480Y-151023369D01*
X147914698Y-150985697D01*
X147778947Y-150985697D01*
X147776137Y-151003000D01*
X147750894Y-151083802D01*
X147744396Y-151104600D01*
X147719234Y-151149045D01*
X147680745Y-151139422D01*
X147622888Y-151079200D01*
X147569874Y-151005629D01*
X147571360Y-150967074D01*
X147631561Y-150953176D01*
X147674537Y-150952200D01*
X147754086Y-150959589D01*
X147778947Y-150985697D01*
X147914698Y-150985697D01*
X147931140Y-150942137D01*
X148717770Y-150971684D01*
X148953462Y-150980290D01*
X149176872Y-150987988D01*
X149375580Y-150994387D01*
X149537167Y-150999094D01*
X149649213Y-151001717D01*
X149680728Y-151002116D01*
X149782981Y-151004844D01*
X149832526Y-151016572D01*
X149844365Y-151044622D01*
X149838003Y-151078885D01*
X149841338Y-151150142D01*
X149873772Y-151175807D01*
X149932912Y-151181355D01*
X149979276Y-151142408D01*
X150016258Y-151052313D01*
X150047250Y-150904422D01*
X150053551Y-150861457D01*
X149870068Y-150861457D01*
X149551767Y-150838560D01*
X149425888Y-150830649D01*
X149246529Y-150820956D01*
X149027896Y-150810168D01*
X148784198Y-150798970D01*
X148529642Y-150788050D01*
X148386800Y-150782278D01*
X148039053Y-150768087D01*
X147701458Y-150753401D01*
X147380702Y-150738580D01*
X147083469Y-150723982D01*
X146816444Y-150709965D01*
X146586311Y-150696890D01*
X146399755Y-150685113D01*
X146263461Y-150674995D01*
X146184114Y-150666894D01*
X146166565Y-150663117D01*
X146146054Y-150615085D01*
X146144011Y-150521044D01*
X146157957Y-150399400D01*
X146163020Y-150375275D01*
X145965333Y-150375275D01*
X145959873Y-150502246D01*
X145941752Y-150566178D01*
X145908361Y-150571014D01*
X145863733Y-150528867D01*
X145806074Y-150485831D01*
X145774920Y-150478067D01*
X145732688Y-150452046D01*
X145728266Y-150432915D01*
X145735409Y-150358311D01*
X145753519Y-150257872D01*
X145777617Y-150152459D01*
X145802725Y-150062930D01*
X145823866Y-150010145D01*
X145830647Y-150003934D01*
X145880921Y-150035134D01*
X145923984Y-150118098D01*
X145954051Y-150236871D01*
X145965333Y-150375275D01*
X146163020Y-150375275D01*
X146185417Y-150268560D01*
X146223915Y-150146929D01*
X146241587Y-150105534D01*
X146336450Y-149840901D01*
X146388616Y-149553757D01*
X146392926Y-149274165D01*
X146389876Y-149241560D01*
X146380133Y-149129911D01*
X146377454Y-149050801D01*
X146382195Y-149021800D01*
X146417770Y-149034460D01*
X146502299Y-149068820D01*
X146622672Y-149119454D01*
X146748957Y-149173647D01*
X146930632Y-149250139D01*
X147059808Y-149298279D01*
X147144783Y-149319573D01*
X147193853Y-149315527D01*
X147215317Y-149287647D01*
X147218400Y-149258867D01*
X147231019Y-149205653D01*
X147275429Y-149195927D01*
X147361459Y-149228708D01*
X147387827Y-149241982D01*
X147486157Y-149292831D01*
X147403079Y-149375909D01*
X147334352Y-149474219D01*
X147325963Y-149565872D01*
X147360640Y-149624627D01*
X147374580Y-149652607D01*
X147334574Y-149664085D01*
X147291844Y-149665267D01*
X147199356Y-149648156D01*
X147163466Y-149606000D01*
X147118382Y-149490408D01*
X147075538Y-149427445D01*
X147039700Y-149424047D01*
X147038900Y-149424820D01*
X147030228Y-149476050D01*
X147056427Y-149556323D01*
X147106375Y-149644958D01*
X147168946Y-149721279D01*
X147218400Y-149758478D01*
X147305571Y-149781655D01*
X147447589Y-149793926D01*
X147603157Y-149794902D01*
X147771273Y-149786851D01*
X147884328Y-149768614D01*
X147954724Y-149736046D01*
X147994865Y-149685002D01*
X148004478Y-149660764D01*
X148014288Y-149654916D01*
X147880532Y-149654916D01*
X147865860Y-149690788D01*
X147817808Y-149699075D01*
X147808292Y-149699134D01*
X147748819Y-149689317D01*
X147739473Y-149646179D01*
X147745568Y-149617621D01*
X147746430Y-149549366D01*
X147644081Y-149549366D01*
X147642654Y-149596044D01*
X147603819Y-149628264D01*
X147546847Y-149611763D01*
X147487437Y-149568942D01*
X147438180Y-149503607D01*
X147434405Y-149439808D01*
X147474003Y-149399237D01*
X147504423Y-149394334D01*
X147558357Y-149420323D01*
X147610915Y-149480764D01*
X147644081Y-149549366D01*
X147746430Y-149549366D01*
X147746748Y-149524262D01*
X147728088Y-149465221D01*
X147707171Y-149410824D01*
X147729288Y-149394900D01*
X147733675Y-149394852D01*
X147806638Y-149417248D01*
X147852095Y-149488969D01*
X147871434Y-149572134D01*
X147880532Y-149654916D01*
X148014288Y-149654916D01*
X148030956Y-149644980D01*
X148100224Y-149645217D01*
X148220635Y-149662060D01*
X148341250Y-149684320D01*
X148499675Y-149717935D01*
X148603118Y-149747681D01*
X148663804Y-149778124D01*
X148693957Y-149813825D01*
X148695148Y-149816427D01*
X148715201Y-149848237D01*
X148750628Y-149868695D01*
X148814924Y-149880454D01*
X148921586Y-149886163D01*
X149060997Y-149888287D01*
X149216390Y-149890822D01*
X149319213Y-149897336D01*
X149384625Y-149911011D01*
X149427785Y-149935032D01*
X149463852Y-149972582D01*
X149464159Y-149972954D01*
X149510454Y-150043419D01*
X149573965Y-150158713D01*
X149646121Y-150301029D01*
X149718355Y-150452563D01*
X149782096Y-150595509D01*
X149828776Y-150712062D01*
X149846407Y-150767184D01*
X149870068Y-150861457D01*
X150053551Y-150861457D01*
X150061365Y-150808186D01*
X150081750Y-150664906D01*
X150101252Y-150543909D01*
X150116851Y-150463296D01*
X150122088Y-150444200D01*
X150131911Y-150379465D01*
X150136632Y-150263479D01*
X150136709Y-150112496D01*
X150134840Y-150035191D01*
X149978993Y-150035191D01*
X149978349Y-150043806D01*
X149972844Y-150122389D01*
X149967676Y-150236823D01*
X149965403Y-150308733D01*
X149960330Y-150402754D01*
X149948826Y-150447473D01*
X149927299Y-150439679D01*
X149892156Y-150376166D01*
X149839805Y-150253725D01*
X149804232Y-150164800D01*
X149755407Y-150053190D01*
X149710754Y-149971534D01*
X149679161Y-149935837D01*
X149676849Y-149935403D01*
X149641064Y-149909777D01*
X149576479Y-149841869D01*
X149504339Y-149755858D01*
X149247612Y-149755858D01*
X149222185Y-149789926D01*
X149142711Y-149798756D01*
X149123400Y-149798587D01*
X149046971Y-149795221D01*
X149035854Y-149788513D01*
X148900074Y-149788513D01*
X148866688Y-149800411D01*
X148848792Y-149800734D01*
X148786901Y-149775948D01*
X148757150Y-149707600D01*
X148732106Y-149603153D01*
X148711364Y-149549574D01*
X148687659Y-149530990D01*
X148675729Y-149529800D01*
X148647205Y-149558108D01*
X148640800Y-149596471D01*
X148623763Y-149645133D01*
X148598466Y-149648943D01*
X148540946Y-149632133D01*
X148447765Y-149607100D01*
X148411902Y-149597820D01*
X148323029Y-149570930D01*
X148285640Y-149541576D01*
X148285228Y-149522235D01*
X148062937Y-149522235D01*
X148032433Y-149529167D01*
X148024732Y-149529282D01*
X147963497Y-149512024D01*
X147946533Y-149495934D01*
X147943800Y-149466017D01*
X147984183Y-149470989D01*
X148031200Y-149495934D01*
X148062937Y-149522235D01*
X148285228Y-149522235D01*
X148284642Y-149494837D01*
X148288916Y-149476250D01*
X148283429Y-149376421D01*
X148250098Y-149325236D01*
X148210569Y-149276707D01*
X148203768Y-149258867D01*
X148239806Y-149269028D01*
X148324684Y-149296222D01*
X148443169Y-149335519D01*
X148505350Y-149356501D01*
X148642346Y-149404176D01*
X148728272Y-149440233D01*
X148776436Y-149474118D01*
X148800143Y-149515275D01*
X148812699Y-149573149D01*
X148812980Y-149574859D01*
X148838303Y-149671512D01*
X148873293Y-149744187D01*
X148876394Y-149748159D01*
X148900074Y-149788513D01*
X149035854Y-149788513D01*
X149031634Y-149785967D01*
X149070764Y-149766551D01*
X149072600Y-149765811D01*
X149131537Y-149723028D01*
X149148800Y-149683291D01*
X149163290Y-149644187D01*
X149081066Y-149644187D01*
X149057284Y-149688727D01*
X149002841Y-149696779D01*
X148943088Y-149669935D01*
X148912925Y-149633627D01*
X148881912Y-149564174D01*
X148892043Y-149534854D01*
X148930665Y-149529800D01*
X148965719Y-149546218D01*
X148962533Y-149563667D01*
X148953381Y-149618378D01*
X148986687Y-149645311D01*
X149033282Y-149628898D01*
X149071540Y-149608546D01*
X149081066Y-149644187D01*
X149163290Y-149644187D01*
X149166024Y-149636810D01*
X149202437Y-149642931D01*
X149229843Y-149684970D01*
X149247612Y-149755858D01*
X149504339Y-149755858D01*
X149494384Y-149743990D01*
X149453600Y-149691965D01*
X149325683Y-149529800D01*
X149081066Y-149529800D01*
X149068675Y-149557676D01*
X149058489Y-149552378D01*
X149054436Y-149512186D01*
X149058489Y-149507222D01*
X149078622Y-149511871D01*
X149081066Y-149529800D01*
X149325683Y-149529800D01*
X149272348Y-149462187D01*
X149123612Y-149287884D01*
X149004926Y-149166535D01*
X148913821Y-149095614D01*
X148847946Y-149072600D01*
X148771524Y-149091248D01*
X148752942Y-149139750D01*
X148791688Y-149201717D01*
X148833503Y-149249961D01*
X148844000Y-149270067D01*
X148813014Y-149270955D01*
X148721797Y-149247365D01*
X148572961Y-149200091D01*
X148369120Y-149129923D01*
X148295449Y-149103747D01*
X148161179Y-149058096D01*
X148074314Y-149036155D01*
X148019727Y-149035603D01*
X147982291Y-149054118D01*
X147980677Y-149055437D01*
X147942835Y-149121861D01*
X147948025Y-149197928D01*
X147957947Y-149265376D01*
X147933997Y-149283873D01*
X147873331Y-149273084D01*
X147792053Y-149245184D01*
X147669580Y-149192770D01*
X147523802Y-149124437D01*
X147372611Y-149048786D01*
X147233898Y-148974413D01*
X147150667Y-148925788D01*
X147049145Y-148877885D01*
X146950723Y-148853408D01*
X146935156Y-148852593D01*
X146868201Y-148859524D01*
X146847851Y-148894712D01*
X146853091Y-148954067D01*
X146861249Y-149025113D01*
X146860254Y-149055645D01*
X146860091Y-149055667D01*
X146827461Y-149042766D01*
X146749334Y-149008863D01*
X146641795Y-148961154D01*
X146520931Y-148906837D01*
X146402828Y-148853110D01*
X146303572Y-148807171D01*
X146282458Y-148797210D01*
X146165454Y-148756326D01*
X146091921Y-148766463D01*
X146059929Y-148828374D01*
X146059322Y-148884539D01*
X146079401Y-148973795D01*
X146115288Y-149033902D01*
X146117428Y-149035626D01*
X146160597Y-149103537D01*
X146190345Y-149221178D01*
X146205019Y-149371578D01*
X146202966Y-149537764D01*
X146182535Y-149702763D01*
X146182437Y-149703278D01*
X146156953Y-149825593D01*
X146132673Y-149923009D01*
X146114762Y-149974861D01*
X146114455Y-149975371D01*
X146085856Y-149976571D01*
X146043855Y-149931174D01*
X145998173Y-149856245D01*
X145958532Y-149768850D01*
X145934654Y-149686055D01*
X145931640Y-149654445D01*
X145922428Y-149586516D01*
X145884492Y-149567394D01*
X145855266Y-149569778D01*
X145812806Y-149586759D01*
X145775236Y-149632561D01*
X145735159Y-149719662D01*
X145688190Y-149851534D01*
X145641344Y-150002901D01*
X145601121Y-150153742D01*
X145575244Y-150274729D01*
X145573060Y-150288610D01*
X145556969Y-150384060D01*
X145541397Y-150422181D01*
X145519581Y-150412983D01*
X145503070Y-150392203D01*
X145465309Y-150308166D01*
X145457333Y-150255607D01*
X145433961Y-150168475D01*
X145375860Y-150120569D01*
X145301057Y-150124766D01*
X145285684Y-150132987D01*
X145241497Y-150150729D01*
X145202829Y-150131575D01*
X145153134Y-150065250D01*
X145137648Y-150041045D01*
X145072408Y-149916241D01*
X145000859Y-149744671D01*
X144929631Y-149546058D01*
X144865355Y-149340121D01*
X144814662Y-149146581D01*
X144785215Y-148992828D01*
X144770676Y-148668248D01*
X144816563Y-148356601D01*
X144896037Y-148124334D01*
X144987987Y-147953780D01*
X145084317Y-147846234D01*
X145182949Y-147803932D01*
X145194178Y-147803353D01*
X145246458Y-147774214D01*
X145303579Y-147700759D01*
X145318109Y-147674499D01*
X145378359Y-147583742D01*
X145446555Y-147517971D01*
X145462731Y-147508484D01*
X145574260Y-147471463D01*
X145736765Y-147438351D01*
X145933532Y-147410614D01*
X146147847Y-147389719D01*
X146362996Y-147377129D01*
X146562265Y-147374312D01*
X146728941Y-147382732D01*
X146795067Y-147391656D01*
X146919169Y-147410989D01*
X147084117Y-147432819D01*
X147263281Y-147453738D01*
X147355997Y-147463401D01*
X147605706Y-147496076D01*
X147872281Y-147544822D01*
X148143944Y-147606220D01*
X148408915Y-147676845D01*
X148655415Y-147753276D01*
X148871665Y-147832090D01*
X149045886Y-147909866D01*
X149166298Y-147983180D01*
X149178052Y-147992774D01*
X149290059Y-148114127D01*
X149410361Y-148288034D01*
X149532717Y-148500891D01*
X149650883Y-148739099D01*
X149758618Y-148989054D01*
X149849681Y-149237154D01*
X149917829Y-149469799D01*
X149956820Y-149673386D01*
X149959222Y-149695009D01*
X149971242Y-149833698D01*
X149978247Y-149954656D01*
X149978993Y-150035191D01*
X150134840Y-150035191D01*
X150132604Y-149942770D01*
X150124778Y-149770554D01*
X150113690Y-149612102D01*
X150099801Y-149483667D01*
X150093794Y-149445609D01*
X150049021Y-149268091D01*
X149976027Y-149060489D01*
X149881397Y-148835533D01*
X149771712Y-148605952D01*
X149653557Y-148384475D01*
X149533515Y-148183831D01*
X149418170Y-148016749D01*
X149314105Y-147895959D01*
X149274463Y-147861420D01*
X149085023Y-147744070D01*
X148838327Y-147633456D01*
X148544769Y-147532929D01*
X148214742Y-147445834D01*
X147858640Y-147375522D01*
X147684067Y-147349066D01*
X147472378Y-147319867D01*
X147233159Y-147286521D01*
X147003681Y-147254236D01*
X146897010Y-147239088D01*
X146696957Y-147214146D01*
X146521480Y-147202255D01*
X146351755Y-147204255D01*
X146351755Y-147204255D01*
G37*
X146351755Y-147204255D02*
X146168956Y-147220985D01*
X145954259Y-147253285D01*
X145750449Y-147290223D01*
X145580965Y-147325685D01*
X145463750Y-147359664D01*
X145383688Y-147397568D01*
X145329615Y-147440791D01*
X145242200Y-147528206D01*
X145188285Y-147480867D01*
X144949333Y-147480867D01*
X144932400Y-147497800D01*
X144915466Y-147480867D01*
X144780000Y-147480867D01*
X144763066Y-147497800D01*
X144746133Y-147480867D01*
X144763066Y-147463934D01*
X144780000Y-147480867D01*
X144915466Y-147480867D01*
X144932400Y-147463934D01*
X144949333Y-147480867D01*
X145188285Y-147480867D01*
X145128455Y-147428336D01*
X145001588Y-147347439D01*
X144901922Y-147328467D01*
X144779387Y-147353237D01*
X144679421Y-147418026D01*
X144619813Y-147508546D01*
X144610666Y-147562347D01*
X144621111Y-147652780D01*
X144656333Y-147683974D01*
X144714784Y-147665786D01*
X144792141Y-147655707D01*
X144894762Y-147680387D01*
X144978153Y-147722567D01*
X144967173Y-147751341D01*
X144925468Y-147814290D01*
X144903730Y-147843576D01*
X144735560Y-148118324D01*
X144628682Y-148417325D01*
X144585117Y-148732045D01*
X144606887Y-149053951D01*
X144611199Y-149078085D01*
X144651488Y-149258842D01*
X144705879Y-149452854D01*
X144770156Y-149649714D01*
X144840097Y-149839013D01*
X144911487Y-150010342D01*
X144980104Y-150153292D01*
X145041732Y-150257455D01*
X145092151Y-150312422D01*
X145113686Y-150317888D01*
X145150132Y-150339094D01*
X145170134Y-150378570D01*
X145208932Y-150429235D01*
X145251260Y-150428179D01*
X145304071Y-150435266D01*
X145357268Y-150497733D01*
X145374764Y-150528363D01*
X145431127Y-150606570D01*
X145488355Y-150645934D01*
X145498901Y-150647400D01*
X145543506Y-150667221D01*
X145558699Y-150735850D01*
X145558933Y-150751250D01*
X145565896Y-150823149D01*
X145599460Y-150846758D01*
X145652066Y-150844383D01*
X145722213Y-150822259D01*
X145742817Y-150768831D01*
X145742729Y-150759502D01*
X145740259Y-150685337D01*
X145838461Y-150767968D01*
X145912609Y-150822812D01*
X145969516Y-150852087D01*
X145976398Y-150853387D01*
X146033917Y-150857657D01*
X146126671Y-150864744D01*
X146151600Y-150866671D01*
X146232423Y-150871668D01*
X146365469Y-150878490D01*
X146535278Y-150886401D01*
X146726389Y-150894666D01*
X146827144Y-150898784D01*
X147010859Y-150906816D01*
X147169277Y-150915034D01*
X147290720Y-150922727D01*
X147363508Y-150929187D01*
X147379126Y-150932304D01*
X147380565Y-150969980D01*
X147368316Y-151034706D01*
X147345602Y-151125205D01*
X146421616Y-151119383D01*
X146177172Y-151118615D01*
X145954445Y-151119388D01*
X145762560Y-151121553D01*
X145610637Y-151124960D01*
X145507801Y-151129458D01*
X145463173Y-151134898D01*
X145462693Y-151135154D01*
X145415347Y-151188885D01*
X145370009Y-151275650D01*
X145339839Y-151365323D01*
X145336596Y-151423843D01*
X145346390Y-151481317D01*
X145360229Y-151595115D01*
X145377116Y-151754017D01*
X145396056Y-151946800D01*
X145416051Y-152162245D01*
X145436104Y-152389129D01*
X145455218Y-152616231D01*
X145472397Y-152832331D01*
X145486643Y-153026208D01*
X145496959Y-153186639D01*
X145501650Y-153281685D01*
X145504398Y-153428420D01*
X145501337Y-153548484D01*
X145493167Y-153626749D01*
X145484690Y-153648623D01*
X145467329Y-153691122D01*
X145460356Y-153774918D01*
X145461046Y-153808338D01*
X145457580Y-153926199D01*
X145441407Y-154066968D01*
X145429225Y-154135667D01*
X145407950Y-154250451D01*
X145380430Y-154415458D01*
X145349210Y-154613751D01*
X145316833Y-154828392D01*
X145285846Y-155042445D01*
X145258792Y-155238972D01*
X145238217Y-155401035D01*
X145235174Y-155427202D01*
X145219769Y-155537216D01*
X145195001Y-155603394D01*
X145145256Y-155649344D01*
X145055981Y-155698135D01*
X144954659Y-155758367D01*
X144892921Y-155826237D01*
X144846845Y-155929439D01*
X144840539Y-155947534D01*
X144802247Y-156112883D01*
X144788891Y-156319933D01*
X144789739Y-156404159D01*
X144796933Y-156691452D01*
X145041643Y-156696488D01*
X145197528Y-156694187D01*
X145294100Y-156675076D01*
X145339019Y-156632463D01*
X145339945Y-156559651D01*
X145309391Y-156462493D01*
X145270289Y-156354301D01*
X145258740Y-156295587D01*
X145276116Y-156273357D01*
X145323792Y-156274620D01*
X145329169Y-156275378D01*
X145403099Y-156314312D01*
X145475621Y-156394937D01*
X145530274Y-156492903D01*
X145550596Y-156583864D01*
X145548863Y-156600320D01*
X145553026Y-156671858D01*
X145603061Y-156707883D01*
X145703814Y-156709762D01*
X145842447Y-156683249D01*
X145984781Y-156640900D01*
X146082966Y-156595756D01*
X146129611Y-156552429D01*
X146117322Y-156515529D01*
X146114480Y-156513575D01*
X146092436Y-156480934D01*
X145863471Y-156480934D01*
X145847209Y-156532936D01*
X145807772Y-156534645D01*
X145760228Y-156491670D01*
X145726974Y-156430134D01*
X145637655Y-156269134D01*
X145522090Y-156163762D01*
X145387107Y-156117748D01*
X145239535Y-156134824D01*
X145208047Y-156146581D01*
X145105997Y-156216518D01*
X145059403Y-156310874D01*
X145073929Y-156416777D01*
X145081920Y-156433219D01*
X145114173Y-156504321D01*
X145106687Y-156534806D01*
X145071816Y-156540200D01*
X145026507Y-156510125D01*
X144997818Y-156430580D01*
X144985084Y-156317585D01*
X144987637Y-156187160D01*
X145004812Y-156055325D01*
X145035941Y-155938100D01*
X145080359Y-155851504D01*
X145101397Y-155829279D01*
X145197996Y-155789500D01*
X145321275Y-155794638D01*
X145450010Y-155841724D01*
X145519733Y-155887821D01*
X145594176Y-155965821D01*
X145676454Y-156079632D01*
X145755300Y-156209812D01*
X145819445Y-156336918D01*
X145857621Y-156441506D01*
X145863471Y-156480934D01*
X146092436Y-156480934D01*
X146085205Y-156470228D01*
X146047130Y-156382450D01*
X146016138Y-156292845D01*
X145960477Y-156152882D01*
X145882344Y-156001706D01*
X145826222Y-155912574D01*
X145697528Y-155728858D01*
X145710354Y-155649049D01*
X145516713Y-155649049D01*
X145468909Y-155653962D01*
X145465800Y-155653394D01*
X145415385Y-155611404D01*
X145396958Y-155540844D01*
X145387382Y-155439534D01*
X145455471Y-155524200D01*
X145512302Y-155606655D01*
X145516713Y-155649049D01*
X145710354Y-155649049D01*
X145731663Y-155516462D01*
X145758320Y-155355104D01*
X145778321Y-155249360D01*
X145793069Y-155194132D01*
X145648444Y-155194132D01*
X145640122Y-155281585D01*
X145624338Y-155371572D01*
X145608507Y-155404115D01*
X145585026Y-155389078D01*
X145571157Y-155371087D01*
X145535705Y-155288818D01*
X145525066Y-155214926D01*
X145513930Y-155139156D01*
X145491200Y-155100867D01*
X145467081Y-155054299D01*
X145457776Y-154976041D01*
X145464968Y-154900853D01*
X145479982Y-154869373D01*
X145507919Y-154882421D01*
X145553946Y-154940872D01*
X145582814Y-154987887D01*
X145634079Y-155096435D01*
X145648444Y-155194132D01*
X145793069Y-155194132D01*
X145794756Y-155187818D01*
X145810713Y-155159062D01*
X145829280Y-155151680D01*
X145830371Y-155151667D01*
X145867972Y-155173300D01*
X145942365Y-155231521D01*
X146041192Y-155316312D01*
X146109126Y-155377656D01*
X146244567Y-155497676D01*
X146390668Y-155619906D01*
X146521968Y-155723235D01*
X146558000Y-155749798D01*
X146665217Y-155828151D01*
X146755478Y-155896322D01*
X146810201Y-155940259D01*
X146812000Y-155941864D01*
X146868349Y-155964955D01*
X146982793Y-155989488D01*
X147145769Y-156013728D01*
X147312049Y-156032485D01*
X147495164Y-156051718D01*
X147620421Y-156068062D01*
X147697500Y-156083756D01*
X147736082Y-156101036D01*
X147745848Y-156122142D01*
X147743807Y-156132308D01*
X147730982Y-156192836D01*
X147713783Y-156299169D01*
X147695134Y-156429772D01*
X147677957Y-156563109D01*
X147665176Y-156677647D01*
X147659712Y-156751851D01*
X147659712Y-156751867D01*
X147654528Y-156772389D01*
X147633942Y-156787566D01*
X147589163Y-156798194D01*
X147511398Y-156805070D01*
X147391855Y-156808987D01*
X147221743Y-156810743D01*
X147004795Y-156811134D01*
X146350924Y-156811134D01*
X146242795Y-156900712D01*
X146174974Y-156965205D01*
X146137293Y-157017163D01*
X146134567Y-157027712D01*
X146104751Y-157053313D01*
X146031791Y-157067049D01*
X146018677Y-157067564D01*
X145877894Y-157101986D01*
X145751249Y-157189853D01*
X145646017Y-157317225D01*
X145569472Y-157470163D01*
X145528887Y-157634727D01*
X145531536Y-157796977D01*
X145572843Y-157921949D01*
X145687926Y-158082139D01*
X145835697Y-158183285D01*
X146011900Y-158226123D01*
X146195432Y-158241343D01*
X146165049Y-158347281D01*
X146139577Y-158540151D01*
X146168536Y-158728549D01*
X146247336Y-158894304D01*
X146325796Y-158983701D01*
X146432670Y-159049009D01*
X146568472Y-159091492D01*
X146712687Y-159109249D01*
X146844798Y-159100375D01*
X146944292Y-159062968D01*
X146967232Y-159043204D01*
X146986280Y-159023816D01*
X147009295Y-159008524D01*
X147043539Y-158997050D01*
X147096269Y-158989114D01*
X147174747Y-158984436D01*
X147286231Y-158982738D01*
X147437982Y-158983741D01*
X147637259Y-158987164D01*
X147891323Y-158992730D01*
X148132414Y-158998383D01*
X148409578Y-159004586D01*
X148674221Y-159009848D01*
X148916284Y-159014019D01*
X149125709Y-159016949D01*
X149292437Y-159018488D01*
X149406408Y-159018485D01*
X149439774Y-159017881D01*
X149646082Y-159011338D01*
X149699517Y-159147369D01*
X149752951Y-159283400D01*
X150008806Y-159283400D01*
X150139597Y-159282074D01*
X150219865Y-159274400D01*
X150266813Y-159254834D01*
X150297646Y-159217832D01*
X150315819Y-159184470D01*
X150379658Y-159096322D01*
X150397467Y-159079587D01*
X150175002Y-159079587D01*
X150158773Y-159104395D01*
X150094961Y-159134691D01*
X150002463Y-159131041D01*
X149908784Y-159097323D01*
X149861663Y-159062511D01*
X149833602Y-159026231D01*
X149859373Y-159013599D01*
X149899309Y-159012467D01*
X149998739Y-159019415D01*
X150093376Y-159033742D01*
X150162579Y-159053383D01*
X150175002Y-159079587D01*
X150397467Y-159079587D01*
X150466052Y-159015140D01*
X150473504Y-159009687D01*
X150564721Y-158944734D01*
X146888834Y-158944734D01*
X146781596Y-158944734D01*
X146673743Y-158930966D01*
X146561893Y-158897730D01*
X146559161Y-158896601D01*
X146444880Y-158814815D01*
X146367489Y-158689977D01*
X146330457Y-158537950D01*
X146337249Y-158374595D01*
X146391333Y-158215772D01*
X146404984Y-158191200D01*
X146467590Y-158101297D01*
X146523341Y-158070233D01*
X146588500Y-158093184D01*
X146630702Y-158124220D01*
X146726564Y-158237056D01*
X146804265Y-158398425D01*
X146856309Y-158589973D01*
X146872425Y-158716134D01*
X146888834Y-158944734D01*
X150564721Y-158944734D01*
X150580029Y-158933834D01*
X150562894Y-158728353D01*
X150397796Y-158728353D01*
X150389449Y-158756136D01*
X150360488Y-158776261D01*
X150304120Y-158789746D01*
X150213551Y-158797611D01*
X150081990Y-158800874D01*
X149902642Y-158800554D01*
X149668713Y-158797671D01*
X149394333Y-158793553D01*
X149099522Y-158788637D01*
X148790740Y-158782558D01*
X148484695Y-158775712D01*
X148198096Y-158768493D01*
X147947650Y-158761294D01*
X147768733Y-158755224D01*
X147572609Y-158746532D01*
X147402138Y-158736506D01*
X147267926Y-158725975D01*
X147180581Y-158715766D01*
X147150667Y-158706999D01*
X147154784Y-158682871D01*
X147170823Y-158662572D01*
X147204308Y-158645691D01*
X147260767Y-158631815D01*
X147345727Y-158620532D01*
X147464714Y-158611432D01*
X147623255Y-158604101D01*
X147826877Y-158598128D01*
X148081106Y-158593101D01*
X148391470Y-158588608D01*
X148763495Y-158584237D01*
X148803709Y-158583797D01*
X150358706Y-158566870D01*
X150379824Y-158645735D01*
X150392324Y-158691892D01*
X150397796Y-158728353D01*
X150562894Y-158728353D01*
X150557262Y-158660830D01*
X150533419Y-158474892D01*
X150500412Y-158354409D01*
X150294014Y-158354409D01*
X148952204Y-158363263D01*
X148657469Y-158365580D01*
X148384360Y-158368446D01*
X148140190Y-158371728D01*
X147932272Y-158375298D01*
X147767922Y-158379024D01*
X147654452Y-158382776D01*
X147599176Y-158386423D01*
X147595020Y-158387491D01*
X147555700Y-158395480D01*
X147468468Y-158401039D01*
X147365844Y-158402867D01*
X147152043Y-158402867D01*
X147082216Y-158265995D01*
X147023379Y-158164957D01*
X146962021Y-158080336D01*
X146946061Y-158062795D01*
X146896912Y-158001871D01*
X146879733Y-157960814D01*
X146862221Y-157918747D01*
X146824411Y-157851129D01*
X146561156Y-157851129D01*
X146556554Y-157863340D01*
X146523860Y-157893370D01*
X146507862Y-157859167D01*
X146507200Y-157842068D01*
X146523862Y-157807187D01*
X146541619Y-157810542D01*
X146561156Y-157851129D01*
X146824411Y-157851129D01*
X146815101Y-157834481D01*
X146762940Y-157749013D01*
X146337740Y-157749013D01*
X146334134Y-157870749D01*
X146319319Y-157944946D01*
X146287579Y-157991575D01*
X146262598Y-158011480D01*
X146137849Y-158060183D01*
X145996666Y-158043297D01*
X145949162Y-158024518D01*
X145846083Y-157948186D01*
X145775086Y-157837416D01*
X145736025Y-157706661D01*
X145728751Y-157570373D01*
X145753119Y-157443003D01*
X145808981Y-157339004D01*
X145896191Y-157272827D01*
X145956949Y-157257838D01*
X146099666Y-157272842D01*
X146212236Y-157345464D01*
X146290997Y-157470979D01*
X146332289Y-157644666D01*
X146337740Y-157749013D01*
X146762940Y-157749013D01*
X146746495Y-157722068D01*
X146697353Y-157645349D01*
X146583181Y-157465119D01*
X146490244Y-157308276D01*
X146422944Y-157182990D01*
X146385684Y-157097431D01*
X146382100Y-157060411D01*
X146419204Y-157054237D01*
X146512844Y-157046425D01*
X146651863Y-157037686D01*
X146825102Y-157028733D01*
X146994084Y-157021360D01*
X147590976Y-156997400D01*
X147590955Y-157242153D01*
X147593177Y-157372077D01*
X147603123Y-157452329D01*
X147625666Y-157500911D01*
X147665681Y-157535823D01*
X147671524Y-157539710D01*
X147748329Y-157567924D01*
X147863636Y-157586529D01*
X147994670Y-157594689D01*
X148118658Y-157591565D01*
X148212828Y-157576319D01*
X148245740Y-157560842D01*
X148269788Y-157508733D01*
X148279584Y-157454600D01*
X147975273Y-157454600D01*
X147900574Y-157454600D01*
X147833151Y-157434636D01*
X147806809Y-157404917D01*
X147793805Y-157335070D01*
X147820455Y-157315857D01*
X147877248Y-157351321D01*
X147893841Y-157367920D01*
X147975273Y-157454600D01*
X148279584Y-157454600D01*
X148288118Y-157407443D01*
X148296529Y-157296818D01*
X148298164Y-157268334D01*
X148132800Y-157268334D01*
X148125539Y-157354275D01*
X148099091Y-157380803D01*
X148046454Y-157349170D01*
X147990874Y-157293734D01*
X147888882Y-157162404D01*
X147828073Y-157020790D01*
X147814911Y-156971222D01*
X147804869Y-156921133D01*
X147813383Y-156907862D01*
X147850100Y-156934871D01*
X147924666Y-157005622D01*
X147932843Y-157013555D01*
X148013720Y-157087399D01*
X148077076Y-157136877D01*
X148103017Y-157149800D01*
X148122706Y-157179584D01*
X148132544Y-157252817D01*
X148132800Y-157268334D01*
X148298164Y-157268334D01*
X148303307Y-157178797D01*
X148312933Y-157089921D01*
X148323253Y-157049599D01*
X148367979Y-157039099D01*
X148467628Y-157033686D01*
X148609595Y-157033174D01*
X148781276Y-157037376D01*
X148970065Y-157046107D01*
X149163359Y-157059182D01*
X149204964Y-157062599D01*
X149548995Y-157091842D01*
X149694259Y-157315554D01*
X149816266Y-157508741D01*
X149945328Y-157722011D01*
X150068639Y-157933599D01*
X150173392Y-158121739D01*
X150215128Y-158200838D01*
X150294014Y-158354409D01*
X150500412Y-158354409D01*
X150490991Y-158320022D01*
X150423545Y-158166747D01*
X150299393Y-157929769D01*
X150163136Y-157687264D01*
X150025929Y-157458127D01*
X149898927Y-157261254D01*
X149835935Y-157171475D01*
X149764394Y-157067594D01*
X149712523Y-156980557D01*
X149690790Y-156928055D01*
X149690666Y-156925941D01*
X149675857Y-156882338D01*
X149665266Y-156877423D01*
X149622396Y-156874582D01*
X149528196Y-156868143D01*
X149398907Y-156859218D01*
X149318133Y-156853612D01*
X149130551Y-156843124D01*
X148913802Y-156834848D01*
X148706450Y-156830166D01*
X148649266Y-156829656D01*
X148302133Y-156828067D01*
X148302176Y-156802667D01*
X148132077Y-156802667D01*
X148126591Y-156902085D01*
X148111714Y-156966589D01*
X148098513Y-156980467D01*
X148063714Y-156954003D01*
X148007208Y-156885060D01*
X147949489Y-156801105D01*
X147878159Y-156674120D01*
X147850121Y-156579557D01*
X147852150Y-156530736D01*
X147869547Y-156439728D01*
X148000450Y-156532298D01*
X148077693Y-156592165D01*
X148116590Y-156647263D01*
X148130348Y-156724717D01*
X148132077Y-156802667D01*
X148302176Y-156802667D01*
X148302596Y-156557134D01*
X148304448Y-156381636D01*
X148313037Y-156262841D01*
X148333968Y-156189727D01*
X148356271Y-156167667D01*
X148202990Y-156167667D01*
X148190618Y-156232227D01*
X148177538Y-156330826D01*
X148174180Y-156362400D01*
X148157012Y-156450771D01*
X148130849Y-156501452D01*
X148120023Y-156506334D01*
X148080010Y-156480071D01*
X148022200Y-156413103D01*
X147987967Y-156364088D01*
X147933762Y-156268420D01*
X147900598Y-156186619D01*
X147895733Y-156159032D01*
X147905262Y-156121270D01*
X147944994Y-156105098D01*
X148031651Y-156105062D01*
X148056600Y-156106545D01*
X148156114Y-156118085D01*
X148200080Y-156139206D01*
X148202990Y-156167667D01*
X148356271Y-156167667D01*
X148372849Y-156151271D01*
X148435286Y-156136452D01*
X148517750Y-156134218D01*
X148611594Y-156137531D01*
X148756664Y-156146397D01*
X148936783Y-156159661D01*
X149135778Y-156176171D01*
X149250400Y-156186493D01*
X149462278Y-156205901D01*
X149673367Y-156224789D01*
X149864508Y-156241473D01*
X150016541Y-156254269D01*
X150069838Y-156258522D01*
X150330476Y-156278695D01*
X150352067Y-156180847D01*
X150371661Y-156096649D01*
X150385434Y-156043963D01*
X150390114Y-155999550D01*
X150396345Y-155898252D01*
X150403602Y-155750888D01*
X150411363Y-155568274D01*
X150419104Y-155361227D01*
X150420672Y-155315829D01*
X150428605Y-155105754D01*
X150437160Y-154918528D01*
X150445728Y-154764791D01*
X150453703Y-154655179D01*
X150460478Y-154600331D01*
X150461728Y-154596700D01*
X150478170Y-154612672D01*
X150506980Y-154681065D01*
X150542999Y-154788874D01*
X150558276Y-154840139D01*
X150596350Y-154977674D01*
X150615320Y-155070041D01*
X150616587Y-155136625D01*
X150601549Y-155196813D01*
X150586739Y-155234446D01*
X150521312Y-155478227D01*
X150518255Y-155744504D01*
X150571852Y-156010067D01*
X150615560Y-156145568D01*
X150651796Y-156226128D01*
X150686752Y-156263147D01*
X150712663Y-156269267D01*
X150774909Y-156247434D01*
X150794561Y-156222267D01*
X150837814Y-156182920D01*
X150915996Y-156154588D01*
X150986285Y-156132893D01*
X151004156Y-156096080D01*
X150995629Y-156057654D01*
X150949029Y-155893723D01*
X150922167Y-155767066D01*
X150916918Y-155687851D01*
X150923813Y-155668298D01*
X150960787Y-155672568D01*
X151017991Y-155719026D01*
X151081796Y-155791198D01*
X151138569Y-155872609D01*
X151174682Y-155946785D01*
X151180800Y-155978904D01*
X151187975Y-156045082D01*
X151218799Y-156077088D01*
X151287223Y-156080040D01*
X151402057Y-156060125D01*
X151525217Y-156030610D01*
X151597632Y-155995118D01*
X151625210Y-155940012D01*
X151619858Y-155898340D01*
X151446274Y-155898340D01*
X151418906Y-155934691D01*
X151403200Y-155941978D01*
X151359604Y-155930247D01*
X151333607Y-155864719D01*
X151291196Y-155773068D01*
X151212473Y-155672142D01*
X151117413Y-155582655D01*
X151025993Y-155525320D01*
X150997823Y-155516540D01*
X150875152Y-155521186D01*
X150782278Y-155577832D01*
X150729495Y-155673610D01*
X150727098Y-155795655D01*
X150739206Y-155839750D01*
X150766612Y-155932518D01*
X150771017Y-155981320D01*
X150753009Y-155978403D01*
X150731037Y-155947534D01*
X150710211Y-155878550D01*
X150696149Y-155761497D01*
X150691148Y-155615889D01*
X150691173Y-155608867D01*
X150702014Y-155411129D01*
X150732571Y-155276318D01*
X150783563Y-155202347D01*
X150836694Y-155185533D01*
X150920823Y-155208889D01*
X151027519Y-155268753D01*
X151135724Y-155349816D01*
X151224380Y-155436774D01*
X151265730Y-155497393D01*
X151320076Y-155606598D01*
X151379903Y-155720470D01*
X151383679Y-155727400D01*
X151434917Y-155833471D01*
X151446274Y-155898340D01*
X151619858Y-155898340D01*
X151613861Y-155851653D01*
X151569493Y-155716402D01*
X151561055Y-155693146D01*
X151484108Y-155513849D01*
X151393069Y-155372667D01*
X151307837Y-155277168D01*
X151244481Y-155211182D01*
X151197006Y-155152284D01*
X151159534Y-155086992D01*
X151126189Y-155001823D01*
X151124205Y-154995120D01*
X150943733Y-154995120D01*
X150918381Y-155042626D01*
X150892933Y-155050067D01*
X150847746Y-155043105D01*
X150842133Y-155037280D01*
X150864576Y-155008060D01*
X150892933Y-154982333D01*
X150932993Y-154958721D01*
X150943686Y-154989834D01*
X150943733Y-154995120D01*
X151124205Y-154995120D01*
X151091096Y-154883297D01*
X151053921Y-154739393D01*
X150838676Y-154739393D01*
X150815621Y-154863592D01*
X150805523Y-154885861D01*
X150775889Y-154928085D01*
X150749523Y-154927202D01*
X150721415Y-154876501D01*
X150686558Y-154769270D01*
X150667291Y-154700621D01*
X150637400Y-154579895D01*
X150629099Y-154505063D01*
X150641489Y-154458128D01*
X150654309Y-154440467D01*
X150699297Y-154368176D01*
X150718268Y-154321933D01*
X150246134Y-154321933D01*
X150245339Y-154460153D01*
X150242079Y-154635744D01*
X150236801Y-154837318D01*
X150229951Y-155053486D01*
X150221974Y-155272859D01*
X150213316Y-155484048D01*
X150204425Y-155675665D01*
X150195744Y-155836321D01*
X150187722Y-155954627D01*
X150180802Y-156019195D01*
X150179431Y-156025191D01*
X150139308Y-156045226D01*
X150040679Y-156052789D01*
X149891581Y-156048053D01*
X149700050Y-156031192D01*
X149538266Y-156011354D01*
X149434100Y-155999647D01*
X149271576Y-155984483D01*
X149059944Y-155966604D01*
X148808449Y-155946753D01*
X148526339Y-155925672D01*
X148222860Y-155904104D01*
X148082000Y-155894451D01*
X147863650Y-155878407D01*
X147648282Y-155860349D01*
X147453363Y-155841900D01*
X147296365Y-155824681D01*
X147218400Y-155814232D01*
X146964400Y-155775302D01*
X146981333Y-154794618D01*
X146987948Y-154391001D01*
X146992693Y-154048540D01*
X146995526Y-153760683D01*
X146996403Y-153520878D01*
X146995831Y-153419710D01*
X146817348Y-153419710D01*
X146815722Y-153589617D01*
X146812135Y-153801842D01*
X146806696Y-154064970D01*
X146799852Y-154372733D01*
X146794695Y-154609266D01*
X146789933Y-154842294D01*
X146785856Y-155056359D01*
X146782759Y-155235999D01*
X146780934Y-155365757D01*
X146780785Y-155380267D01*
X146776661Y-155508245D01*
X146767993Y-155605389D01*
X146756399Y-155655913D01*
X146752112Y-155659667D01*
X146714358Y-155639664D01*
X146641443Y-155587451D01*
X146557379Y-155520985D01*
X146458186Y-155435604D01*
X146331245Y-155320941D01*
X146196831Y-155195482D01*
X146127862Y-155129351D01*
X146012437Y-155015744D01*
X145939131Y-154937026D01*
X145900458Y-154881962D01*
X145888930Y-154839320D01*
X145897062Y-154797867D01*
X145900556Y-154788292D01*
X145924454Y-154698736D01*
X145941575Y-154593554D01*
X145762133Y-154593554D01*
X145754440Y-154720368D01*
X145734667Y-154802924D01*
X145707773Y-154835574D01*
X145678719Y-154812668D01*
X145652464Y-154728556D01*
X145650869Y-154720281D01*
X145610715Y-154497331D01*
X145585833Y-154336717D01*
X145576494Y-154234722D01*
X145582974Y-154187629D01*
X145605546Y-154191724D01*
X145644483Y-154243289D01*
X145681423Y-154305289D01*
X145746664Y-154471148D01*
X145762133Y-154593554D01*
X145941575Y-154593554D01*
X145943443Y-154582084D01*
X145947274Y-154544926D01*
X145963599Y-154405964D01*
X145988511Y-154253101D01*
X146017855Y-154107212D01*
X146047478Y-153989174D01*
X146049892Y-153982449D01*
X145872194Y-153982449D01*
X145856935Y-154073556D01*
X145838114Y-154128429D01*
X145829633Y-154135667D01*
X145803125Y-154107278D01*
X145762692Y-154034552D01*
X145735186Y-153974800D01*
X145693065Y-153857776D01*
X145682886Y-153757284D01*
X145697187Y-153647384D01*
X145721562Y-153535363D01*
X145742451Y-153472168D01*
X145756942Y-153463809D01*
X145762133Y-153513262D01*
X145777128Y-153585242D01*
X145814311Y-153680734D01*
X145825799Y-153704355D01*
X145871931Y-153842969D01*
X145872194Y-153982449D01*
X146049892Y-153982449D01*
X146070714Y-153924460D01*
X146093240Y-153846966D01*
X146100800Y-153766913D01*
X146109602Y-153701860D01*
X146133950Y-153584922D01*
X146170758Y-153429336D01*
X146195966Y-153330533D01*
X146016812Y-153330533D01*
X146000401Y-153399373D01*
X145996289Y-153409912D01*
X145956559Y-153509133D01*
X145910067Y-153339800D01*
X145884490Y-153225994D01*
X145871886Y-153127598D01*
X145872121Y-153093098D01*
X145881466Y-153055712D01*
X145901516Y-153065478D01*
X145939817Y-153128532D01*
X145958343Y-153163210D01*
X146004222Y-153261107D01*
X146016812Y-153330533D01*
X146195966Y-153330533D01*
X146216939Y-153248336D01*
X146252938Y-153114520D01*
X146308201Y-152912296D01*
X146346875Y-152764768D01*
X146370449Y-152661357D01*
X146373858Y-152637443D01*
X146198170Y-152637443D01*
X146174690Y-152754978D01*
X146148614Y-152848222D01*
X146109943Y-152951097D01*
X146076722Y-152987844D01*
X146051571Y-152960008D01*
X146037109Y-152869133D01*
X146034662Y-152781000D01*
X146047299Y-152666125D01*
X146079232Y-152575895D01*
X146122845Y-152525095D01*
X146166280Y-152525608D01*
X146195168Y-152564617D01*
X146198170Y-152637443D01*
X146373858Y-152637443D01*
X146380410Y-152591481D01*
X146378246Y-152544562D01*
X146365445Y-152510019D01*
X146343495Y-152477271D01*
X146342707Y-152476200D01*
X146249922Y-152402260D01*
X146159530Y-152381191D01*
X146096491Y-152379852D01*
X146046386Y-152395692D01*
X145994676Y-152439397D01*
X145926821Y-152521656D01*
X145875028Y-152590319D01*
X145788533Y-152700862D01*
X145731134Y-152759592D01*
X145696314Y-152772312D01*
X145683761Y-152760654D01*
X145671980Y-152711955D01*
X145656634Y-152607844D01*
X145639188Y-152460458D01*
X145621105Y-152281932D01*
X145607444Y-152128193D01*
X145590571Y-151934403D01*
X145574350Y-151762835D01*
X145560015Y-151625441D01*
X145548797Y-151534172D01*
X145542946Y-151502534D01*
X145540808Y-151464056D01*
X145548041Y-151460200D01*
X145589524Y-151483010D01*
X145671688Y-151547207D01*
X145787163Y-151646441D01*
X145928578Y-151774364D01*
X146088562Y-151924627D01*
X146100800Y-151936329D01*
X146233839Y-152060296D01*
X146374569Y-152185927D01*
X146500185Y-152293050D01*
X146545407Y-152329607D01*
X146736015Y-152479709D01*
X146779731Y-152808154D01*
X146792193Y-152904450D01*
X146802030Y-152991550D01*
X146809354Y-153078041D01*
X146814274Y-153172508D01*
X146816903Y-153283536D01*
X146817348Y-153419710D01*
X146995831Y-153419710D01*
X146995281Y-153322572D01*
X146992116Y-153159212D01*
X146986865Y-153024246D01*
X146979484Y-152911123D01*
X146969930Y-152813288D01*
X146968115Y-152797934D01*
X146939391Y-152560867D01*
X148289629Y-152551717D01*
X148598168Y-152550186D01*
X148896094Y-152549760D01*
X149174148Y-152550378D01*
X149423072Y-152551976D01*
X149633607Y-152554490D01*
X149796495Y-152557859D01*
X149902478Y-152562018D01*
X149914118Y-152562795D01*
X150188369Y-152583023D01*
X150216394Y-153283145D01*
X150225327Y-153521489D01*
X150233269Y-153762138D01*
X150239720Y-153987568D01*
X150244176Y-154180258D01*
X150246134Y-154321933D01*
X150718268Y-154321933D01*
X150725216Y-154305000D01*
X150742167Y-154262101D01*
X150757557Y-154265079D01*
X150777773Y-154321538D01*
X150796302Y-154389667D01*
X150832130Y-154575718D01*
X150838676Y-154739393D01*
X151053921Y-154739393D01*
X151048376Y-154717932D01*
X151027333Y-154633625D01*
X150978263Y-154443683D01*
X150927640Y-154260180D01*
X150880735Y-154101458D01*
X150855082Y-154023242D01*
X150612427Y-154023242D01*
X150610174Y-154133973D01*
X150597982Y-154206785D01*
X150574347Y-154219656D01*
X150544956Y-154178175D01*
X150515495Y-154087933D01*
X150502928Y-154028553D01*
X150491004Y-153898773D01*
X150495959Y-153767398D01*
X150498986Y-153746200D01*
X150521807Y-153610733D01*
X150561951Y-153712333D01*
X150599466Y-153850723D01*
X150612427Y-154023242D01*
X150855082Y-154023242D01*
X150842820Y-153985859D01*
X150835552Y-153966333D01*
X150782908Y-153841882D01*
X150715592Y-153699208D01*
X150640492Y-153550983D01*
X150564491Y-153409877D01*
X150494475Y-153288558D01*
X150437329Y-153199698D01*
X150399937Y-153155966D01*
X150393870Y-153153534D01*
X150377438Y-153123103D01*
X150370582Y-153030483D01*
X150373215Y-152873676D01*
X150377497Y-152781157D01*
X150397142Y-152408781D01*
X150349092Y-152351710D01*
X150063629Y-152351710D01*
X150049017Y-152361958D01*
X150013052Y-152370235D01*
X149950184Y-152376719D01*
X149854863Y-152381589D01*
X149721541Y-152385022D01*
X149544666Y-152387198D01*
X149318688Y-152388294D01*
X149038059Y-152388491D01*
X148697229Y-152387965D01*
X148559999Y-152387636D01*
X148241682Y-152386258D01*
X147942108Y-152383870D01*
X147668521Y-152380608D01*
X147428165Y-152376610D01*
X147228284Y-152372010D01*
X147076121Y-152366945D01*
X146978919Y-152361552D01*
X146946206Y-152357300D01*
X146882439Y-152322329D01*
X146779399Y-152248695D01*
X146646860Y-152144448D01*
X146494598Y-152017638D01*
X146332386Y-151876314D01*
X146170000Y-151728527D01*
X146083866Y-151647129D01*
X145978925Y-151549120D01*
X145883369Y-151464522D01*
X145814623Y-151408653D01*
X145804466Y-151401498D01*
X145748175Y-151356974D01*
X145728359Y-151329305D01*
X145760693Y-151323181D01*
X145851406Y-151317592D01*
X145991140Y-151312811D01*
X146170543Y-151309109D01*
X146380259Y-151306761D01*
X146524226Y-151306098D01*
X147320000Y-151304395D01*
X147320000Y-151549426D01*
X147324946Y-151725388D01*
X147342975Y-151845093D01*
X147378874Y-151919509D01*
X147437428Y-151959603D01*
X147505524Y-151974541D01*
X147635335Y-151970901D01*
X147771707Y-151938471D01*
X147884306Y-151885764D01*
X147918078Y-151858770D01*
X147942938Y-151820553D01*
X147943177Y-151810156D01*
X147579644Y-151810156D01*
X147574995Y-151830289D01*
X147557067Y-151832734D01*
X147529190Y-151820342D01*
X147534489Y-151810156D01*
X147574681Y-151806103D01*
X147579644Y-151810156D01*
X147943177Y-151810156D01*
X147944218Y-151765088D01*
X147943853Y-151763587D01*
X147781854Y-151763587D01*
X147773249Y-151805259D01*
X147741735Y-151803266D01*
X147685144Y-151761187D01*
X147617558Y-151694204D01*
X147553056Y-151617499D01*
X147505718Y-151546255D01*
X147489425Y-151499208D01*
X147505279Y-151478170D01*
X147559168Y-151498286D01*
X147599400Y-151521963D01*
X147690004Y-151596353D01*
X147754618Y-151683078D01*
X147781854Y-151763587D01*
X147943853Y-151763587D01*
X147921471Y-151671649D01*
X147913467Y-151644824D01*
X147883588Y-151532005D01*
X147865105Y-151434681D01*
X147862233Y-151400934D01*
X147863462Y-151390842D01*
X147726400Y-151390842D01*
X147706716Y-151423940D01*
X147646646Y-151404686D01*
X147602690Y-151376570D01*
X147554440Y-151327344D01*
X147517465Y-151265180D01*
X147501814Y-151212148D01*
X147517537Y-151190322D01*
X147517904Y-151190337D01*
X147562652Y-151213916D01*
X147626674Y-151267762D01*
X147687785Y-151330541D01*
X147723799Y-151380917D01*
X147726400Y-151390842D01*
X147863462Y-151390842D01*
X147867310Y-151359275D01*
X147893355Y-151336440D01*
X147955830Y-151326875D01*
X148070194Y-151325027D01*
X148073533Y-151325031D01*
X148188906Y-151327678D01*
X148351161Y-151334693D01*
X148539663Y-151345039D01*
X148733777Y-151357685D01*
X148753879Y-151359121D01*
X149222558Y-151392914D01*
X149382416Y-151553557D01*
X149472700Y-151647817D01*
X149581968Y-151767190D01*
X149699976Y-151899840D01*
X149816480Y-152033932D01*
X149921239Y-152157630D01*
X150004009Y-152259097D01*
X150054546Y-152326499D01*
X150062438Y-152339311D01*
X150063629Y-152351710D01*
X150349092Y-152351710D01*
X150221704Y-152200410D01*
X150129684Y-152093025D01*
X150007745Y-151953396D01*
X149871567Y-151799361D01*
X149736834Y-151648760D01*
X149733000Y-151644505D01*
X149618685Y-151513878D01*
X149523053Y-151397346D01*
X149454514Y-151305713D01*
X149421477Y-151249780D01*
X149419733Y-151242052D01*
X149405756Y-151208248D01*
X149353793Y-151193535D01*
X149258866Y-151192932D01*
X149157663Y-151193822D01*
X149015742Y-151191360D01*
X148845328Y-151186152D01*
X148658646Y-151178806D01*
X148467921Y-151169925D01*
X148285378Y-151160119D01*
X148123242Y-151149991D01*
X147993737Y-151140150D01*
X147909088Y-151131200D01*
X147881449Y-151124619D01*
X147883304Y-151081272D01*
X147900480Y-151023369D01*
X147914698Y-150985697D01*
X147778947Y-150985697D01*
X147776137Y-151003000D01*
X147750894Y-151083802D01*
X147744396Y-151104600D01*
X147719234Y-151149045D01*
X147680745Y-151139422D01*
X147622888Y-151079200D01*
X147569874Y-151005629D01*
X147571360Y-150967074D01*
X147631561Y-150953176D01*
X147674537Y-150952200D01*
X147754086Y-150959589D01*
X147778947Y-150985697D01*
X147914698Y-150985697D01*
X147931140Y-150942137D01*
X148717770Y-150971684D01*
X148953462Y-150980290D01*
X149176872Y-150987988D01*
X149375580Y-150994387D01*
X149537167Y-150999094D01*
X149649213Y-151001717D01*
X149680728Y-151002116D01*
X149782981Y-151004844D01*
X149832526Y-151016572D01*
X149844365Y-151044622D01*
X149838003Y-151078885D01*
X149841338Y-151150142D01*
X149873772Y-151175807D01*
X149932912Y-151181355D01*
X149979276Y-151142408D01*
X150016258Y-151052313D01*
X150047250Y-150904422D01*
X150053551Y-150861457D01*
X149870068Y-150861457D01*
X149551767Y-150838560D01*
X149425888Y-150830649D01*
X149246529Y-150820956D01*
X149027896Y-150810168D01*
X148784198Y-150798970D01*
X148529642Y-150788050D01*
X148386800Y-150782278D01*
X148039053Y-150768087D01*
X147701458Y-150753401D01*
X147380702Y-150738580D01*
X147083469Y-150723982D01*
X146816444Y-150709965D01*
X146586311Y-150696890D01*
X146399755Y-150685113D01*
X146263461Y-150674995D01*
X146184114Y-150666894D01*
X146166565Y-150663117D01*
X146146054Y-150615085D01*
X146144011Y-150521044D01*
X146157957Y-150399400D01*
X146163020Y-150375275D01*
X145965333Y-150375275D01*
X145959873Y-150502246D01*
X145941752Y-150566178D01*
X145908361Y-150571014D01*
X145863733Y-150528867D01*
X145806074Y-150485831D01*
X145774920Y-150478067D01*
X145732688Y-150452046D01*
X145728266Y-150432915D01*
X145735409Y-150358311D01*
X145753519Y-150257872D01*
X145777617Y-150152459D01*
X145802725Y-150062930D01*
X145823866Y-150010145D01*
X145830647Y-150003934D01*
X145880921Y-150035134D01*
X145923984Y-150118098D01*
X145954051Y-150236871D01*
X145965333Y-150375275D01*
X146163020Y-150375275D01*
X146185417Y-150268560D01*
X146223915Y-150146929D01*
X146241587Y-150105534D01*
X146336450Y-149840901D01*
X146388616Y-149553757D01*
X146392926Y-149274165D01*
X146389876Y-149241560D01*
X146380133Y-149129911D01*
X146377454Y-149050801D01*
X146382195Y-149021800D01*
X146417770Y-149034460D01*
X146502299Y-149068820D01*
X146622672Y-149119454D01*
X146748957Y-149173647D01*
X146930632Y-149250139D01*
X147059808Y-149298279D01*
X147144783Y-149319573D01*
X147193853Y-149315527D01*
X147215317Y-149287647D01*
X147218400Y-149258867D01*
X147231019Y-149205653D01*
X147275429Y-149195927D01*
X147361459Y-149228708D01*
X147387827Y-149241982D01*
X147486157Y-149292831D01*
X147403079Y-149375909D01*
X147334352Y-149474219D01*
X147325963Y-149565872D01*
X147360640Y-149624627D01*
X147374580Y-149652607D01*
X147334574Y-149664085D01*
X147291844Y-149665267D01*
X147199356Y-149648156D01*
X147163466Y-149606000D01*
X147118382Y-149490408D01*
X147075538Y-149427445D01*
X147039700Y-149424047D01*
X147038900Y-149424820D01*
X147030228Y-149476050D01*
X147056427Y-149556323D01*
X147106375Y-149644958D01*
X147168946Y-149721279D01*
X147218400Y-149758478D01*
X147305571Y-149781655D01*
X147447589Y-149793926D01*
X147603157Y-149794902D01*
X147771273Y-149786851D01*
X147884328Y-149768614D01*
X147954724Y-149736046D01*
X147994865Y-149685002D01*
X148004478Y-149660764D01*
X148014288Y-149654916D01*
X147880532Y-149654916D01*
X147865860Y-149690788D01*
X147817808Y-149699075D01*
X147808292Y-149699134D01*
X147748819Y-149689317D01*
X147739473Y-149646179D01*
X147745568Y-149617621D01*
X147746430Y-149549366D01*
X147644081Y-149549366D01*
X147642654Y-149596044D01*
X147603819Y-149628264D01*
X147546847Y-149611763D01*
X147487437Y-149568942D01*
X147438180Y-149503607D01*
X147434405Y-149439808D01*
X147474003Y-149399237D01*
X147504423Y-149394334D01*
X147558357Y-149420323D01*
X147610915Y-149480764D01*
X147644081Y-149549366D01*
X147746430Y-149549366D01*
X147746748Y-149524262D01*
X147728088Y-149465221D01*
X147707171Y-149410824D01*
X147729288Y-149394900D01*
X147733675Y-149394852D01*
X147806638Y-149417248D01*
X147852095Y-149488969D01*
X147871434Y-149572134D01*
X147880532Y-149654916D01*
X148014288Y-149654916D01*
X148030956Y-149644980D01*
X148100224Y-149645217D01*
X148220635Y-149662060D01*
X148341250Y-149684320D01*
X148499675Y-149717935D01*
X148603118Y-149747681D01*
X148663804Y-149778124D01*
X148693957Y-149813825D01*
X148695148Y-149816427D01*
X148715201Y-149848237D01*
X148750628Y-149868695D01*
X148814924Y-149880454D01*
X148921586Y-149886163D01*
X149060997Y-149888287D01*
X149216390Y-149890822D01*
X149319213Y-149897336D01*
X149384625Y-149911011D01*
X149427785Y-149935032D01*
X149463852Y-149972582D01*
X149464159Y-149972954D01*
X149510454Y-150043419D01*
X149573965Y-150158713D01*
X149646121Y-150301029D01*
X149718355Y-150452563D01*
X149782096Y-150595509D01*
X149828776Y-150712062D01*
X149846407Y-150767184D01*
X149870068Y-150861457D01*
X150053551Y-150861457D01*
X150061365Y-150808186D01*
X150081750Y-150664906D01*
X150101252Y-150543909D01*
X150116851Y-150463296D01*
X150122088Y-150444200D01*
X150131911Y-150379465D01*
X150136632Y-150263479D01*
X150136709Y-150112496D01*
X150134840Y-150035191D01*
X149978993Y-150035191D01*
X149978349Y-150043806D01*
X149972844Y-150122389D01*
X149967676Y-150236823D01*
X149965403Y-150308733D01*
X149960330Y-150402754D01*
X149948826Y-150447473D01*
X149927299Y-150439679D01*
X149892156Y-150376166D01*
X149839805Y-150253725D01*
X149804232Y-150164800D01*
X149755407Y-150053190D01*
X149710754Y-149971534D01*
X149679161Y-149935837D01*
X149676849Y-149935403D01*
X149641064Y-149909777D01*
X149576479Y-149841869D01*
X149504339Y-149755858D01*
X149247612Y-149755858D01*
X149222185Y-149789926D01*
X149142711Y-149798756D01*
X149123400Y-149798587D01*
X149046971Y-149795221D01*
X149035854Y-149788513D01*
X148900074Y-149788513D01*
X148866688Y-149800411D01*
X148848792Y-149800734D01*
X148786901Y-149775948D01*
X148757150Y-149707600D01*
X148732106Y-149603153D01*
X148711364Y-149549574D01*
X148687659Y-149530990D01*
X148675729Y-149529800D01*
X148647205Y-149558108D01*
X148640800Y-149596471D01*
X148623763Y-149645133D01*
X148598466Y-149648943D01*
X148540946Y-149632133D01*
X148447765Y-149607100D01*
X148411902Y-149597820D01*
X148323029Y-149570930D01*
X148285640Y-149541576D01*
X148285228Y-149522235D01*
X148062937Y-149522235D01*
X148032433Y-149529167D01*
X148024732Y-149529282D01*
X147963497Y-149512024D01*
X147946533Y-149495934D01*
X147943800Y-149466017D01*
X147984183Y-149470989D01*
X148031200Y-149495934D01*
X148062937Y-149522235D01*
X148285228Y-149522235D01*
X148284642Y-149494837D01*
X148288916Y-149476250D01*
X148283429Y-149376421D01*
X148250098Y-149325236D01*
X148210569Y-149276707D01*
X148203768Y-149258867D01*
X148239806Y-149269028D01*
X148324684Y-149296222D01*
X148443169Y-149335519D01*
X148505350Y-149356501D01*
X148642346Y-149404176D01*
X148728272Y-149440233D01*
X148776436Y-149474118D01*
X148800143Y-149515275D01*
X148812699Y-149573149D01*
X148812980Y-149574859D01*
X148838303Y-149671512D01*
X148873293Y-149744187D01*
X148876394Y-149748159D01*
X148900074Y-149788513D01*
X149035854Y-149788513D01*
X149031634Y-149785967D01*
X149070764Y-149766551D01*
X149072600Y-149765811D01*
X149131537Y-149723028D01*
X149148800Y-149683291D01*
X149163290Y-149644187D01*
X149081066Y-149644187D01*
X149057284Y-149688727D01*
X149002841Y-149696779D01*
X148943088Y-149669935D01*
X148912925Y-149633627D01*
X148881912Y-149564174D01*
X148892043Y-149534854D01*
X148930665Y-149529800D01*
X148965719Y-149546218D01*
X148962533Y-149563667D01*
X148953381Y-149618378D01*
X148986687Y-149645311D01*
X149033282Y-149628898D01*
X149071540Y-149608546D01*
X149081066Y-149644187D01*
X149163290Y-149644187D01*
X149166024Y-149636810D01*
X149202437Y-149642931D01*
X149229843Y-149684970D01*
X149247612Y-149755858D01*
X149504339Y-149755858D01*
X149494384Y-149743990D01*
X149453600Y-149691965D01*
X149325683Y-149529800D01*
X149081066Y-149529800D01*
X149068675Y-149557676D01*
X149058489Y-149552378D01*
X149054436Y-149512186D01*
X149058489Y-149507222D01*
X149078622Y-149511871D01*
X149081066Y-149529800D01*
X149325683Y-149529800D01*
X149272348Y-149462187D01*
X149123612Y-149287884D01*
X149004926Y-149166535D01*
X148913821Y-149095614D01*
X148847946Y-149072600D01*
X148771524Y-149091248D01*
X148752942Y-149139750D01*
X148791688Y-149201717D01*
X148833503Y-149249961D01*
X148844000Y-149270067D01*
X148813014Y-149270955D01*
X148721797Y-149247365D01*
X148572961Y-149200091D01*
X148369120Y-149129923D01*
X148295449Y-149103747D01*
X148161179Y-149058096D01*
X148074314Y-149036155D01*
X148019727Y-149035603D01*
X147982291Y-149054118D01*
X147980677Y-149055437D01*
X147942835Y-149121861D01*
X147948025Y-149197928D01*
X147957947Y-149265376D01*
X147933997Y-149283873D01*
X147873331Y-149273084D01*
X147792053Y-149245184D01*
X147669580Y-149192770D01*
X147523802Y-149124437D01*
X147372611Y-149048786D01*
X147233898Y-148974413D01*
X147150667Y-148925788D01*
X147049145Y-148877885D01*
X146950723Y-148853408D01*
X146935156Y-148852593D01*
X146868201Y-148859524D01*
X146847851Y-148894712D01*
X146853091Y-148954067D01*
X146861249Y-149025113D01*
X146860254Y-149055645D01*
X146860091Y-149055667D01*
X146827461Y-149042766D01*
X146749334Y-149008863D01*
X146641795Y-148961154D01*
X146520931Y-148906837D01*
X146402828Y-148853110D01*
X146303572Y-148807171D01*
X146282458Y-148797210D01*
X146165454Y-148756326D01*
X146091921Y-148766463D01*
X146059929Y-148828374D01*
X146059322Y-148884539D01*
X146079401Y-148973795D01*
X146115288Y-149033902D01*
X146117428Y-149035626D01*
X146160597Y-149103537D01*
X146190345Y-149221178D01*
X146205019Y-149371578D01*
X146202966Y-149537764D01*
X146182535Y-149702763D01*
X146182437Y-149703278D01*
X146156953Y-149825593D01*
X146132673Y-149923009D01*
X146114762Y-149974861D01*
X146114455Y-149975371D01*
X146085856Y-149976571D01*
X146043855Y-149931174D01*
X145998173Y-149856245D01*
X145958532Y-149768850D01*
X145934654Y-149686055D01*
X145931640Y-149654445D01*
X145922428Y-149586516D01*
X145884492Y-149567394D01*
X145855266Y-149569778D01*
X145812806Y-149586759D01*
X145775236Y-149632561D01*
X145735159Y-149719662D01*
X145688190Y-149851534D01*
X145641344Y-150002901D01*
X145601121Y-150153742D01*
X145575244Y-150274729D01*
X145573060Y-150288610D01*
X145556969Y-150384060D01*
X145541397Y-150422181D01*
X145519581Y-150412983D01*
X145503070Y-150392203D01*
X145465309Y-150308166D01*
X145457333Y-150255607D01*
X145433961Y-150168475D01*
X145375860Y-150120569D01*
X145301057Y-150124766D01*
X145285684Y-150132987D01*
X145241497Y-150150729D01*
X145202829Y-150131575D01*
X145153134Y-150065250D01*
X145137648Y-150041045D01*
X145072408Y-149916241D01*
X145000859Y-149744671D01*
X144929631Y-149546058D01*
X144865355Y-149340121D01*
X144814662Y-149146581D01*
X144785215Y-148992828D01*
X144770676Y-148668248D01*
X144816563Y-148356601D01*
X144896037Y-148124334D01*
X144987987Y-147953780D01*
X145084317Y-147846234D01*
X145182949Y-147803932D01*
X145194178Y-147803353D01*
X145246458Y-147774214D01*
X145303579Y-147700759D01*
X145318109Y-147674499D01*
X145378359Y-147583742D01*
X145446555Y-147517971D01*
X145462731Y-147508484D01*
X145574260Y-147471463D01*
X145736765Y-147438351D01*
X145933532Y-147410614D01*
X146147847Y-147389719D01*
X146362996Y-147377129D01*
X146562265Y-147374312D01*
X146728941Y-147382732D01*
X146795067Y-147391656D01*
X146919169Y-147410989D01*
X147084117Y-147432819D01*
X147263281Y-147453738D01*
X147355997Y-147463401D01*
X147605706Y-147496076D01*
X147872281Y-147544822D01*
X148143944Y-147606220D01*
X148408915Y-147676845D01*
X148655415Y-147753276D01*
X148871665Y-147832090D01*
X149045886Y-147909866D01*
X149166298Y-147983180D01*
X149178052Y-147992774D01*
X149290059Y-148114127D01*
X149410361Y-148288034D01*
X149532717Y-148500891D01*
X149650883Y-148739099D01*
X149758618Y-148989054D01*
X149849681Y-149237154D01*
X149917829Y-149469799D01*
X149956820Y-149673386D01*
X149959222Y-149695009D01*
X149971242Y-149833698D01*
X149978247Y-149954656D01*
X149978993Y-150035191D01*
X150134840Y-150035191D01*
X150132604Y-149942770D01*
X150124778Y-149770554D01*
X150113690Y-149612102D01*
X150099801Y-149483667D01*
X150093794Y-149445609D01*
X150049021Y-149268091D01*
X149976027Y-149060489D01*
X149881397Y-148835533D01*
X149771712Y-148605952D01*
X149653557Y-148384475D01*
X149533515Y-148183831D01*
X149418170Y-148016749D01*
X149314105Y-147895959D01*
X149274463Y-147861420D01*
X149085023Y-147744070D01*
X148838327Y-147633456D01*
X148544769Y-147532929D01*
X148214742Y-147445834D01*
X147858640Y-147375522D01*
X147684067Y-147349066D01*
X147472378Y-147319867D01*
X147233159Y-147286521D01*
X147003681Y-147254236D01*
X146897010Y-147239088D01*
X146696957Y-147214146D01*
X146521480Y-147202255D01*
X146351755Y-147204255D01*
G04 #@! TO.C,U3*
D10*
X40354285Y-131770380D02*
X40925714Y-131770380D01*
X40640000Y-131770380D02*
X40640000Y-130770380D01*
X40735238Y-130913238D01*
X40830476Y-131008476D01*
X40925714Y-131056095D01*
X40354285Y-97734380D02*
X40925714Y-97734380D01*
X40640000Y-97734380D02*
X40640000Y-96734380D01*
X40735238Y-96877238D01*
X40830476Y-96972476D01*
X40925714Y-97020095D01*
X103854285Y-97734380D02*
X104425714Y-97734380D01*
X104140000Y-97734380D02*
X104140000Y-96734380D01*
X104235238Y-96877238D01*
X104330476Y-96972476D01*
X104425714Y-97020095D01*
X130000285Y-137326666D02*
X129524095Y-137326666D01*
X130095523Y-137612380D02*
X129762190Y-136612380D01*
X129428857Y-137612380D01*
X129143142Y-136707619D02*
X129095523Y-136660000D01*
X129000285Y-136612380D01*
X128762190Y-136612380D01*
X128666952Y-136660000D01*
X128619333Y-136707619D01*
X128571714Y-136802857D01*
X128571714Y-136898095D01*
X128619333Y-137040952D01*
X129190761Y-137612380D01*
X128571714Y-137612380D01*
X129690761Y-134294571D02*
X129547904Y-134342190D01*
X129500285Y-134389809D01*
X129452666Y-134485047D01*
X129452666Y-134627904D01*
X129500285Y-134723142D01*
X129547904Y-134770761D01*
X129643142Y-134818380D01*
X130024095Y-134818380D01*
X130024095Y-133818380D01*
X129690761Y-133818380D01*
X129595523Y-133866000D01*
X129547904Y-133913619D01*
X129500285Y-134008857D01*
X129500285Y-134104095D01*
X129547904Y-134199333D01*
X129595523Y-134246952D01*
X129690761Y-134294571D01*
X130024095Y-134294571D01*
X129071714Y-133913619D02*
X129024095Y-133866000D01*
X128928857Y-133818380D01*
X128690761Y-133818380D01*
X128595523Y-133866000D01*
X128547904Y-133913619D01*
X128500285Y-134008857D01*
X128500285Y-134104095D01*
X128547904Y-134246952D01*
X129119333Y-134818380D01*
X128500285Y-134818380D01*
X66500285Y-137326666D02*
X66024095Y-137326666D01*
X66595523Y-137612380D02*
X66262190Y-136612380D01*
X65928857Y-137612380D01*
X65071714Y-137612380D02*
X65643142Y-137612380D01*
X65357428Y-137612380D02*
X65357428Y-136612380D01*
X65452666Y-136755238D01*
X65547904Y-136850476D01*
X65643142Y-136898095D01*
X66190761Y-134548571D02*
X66047904Y-134596190D01*
X66000285Y-134643809D01*
X65952666Y-134739047D01*
X65952666Y-134881904D01*
X66000285Y-134977142D01*
X66047904Y-135024761D01*
X66143142Y-135072380D01*
X66524095Y-135072380D01*
X66524095Y-134072380D01*
X66190761Y-134072380D01*
X66095523Y-134120000D01*
X66047904Y-134167619D01*
X66000285Y-134262857D01*
X66000285Y-134358095D01*
X66047904Y-134453333D01*
X66095523Y-134500952D01*
X66190761Y-134548571D01*
X66524095Y-134548571D01*
X65000285Y-135072380D02*
X65571714Y-135072380D01*
X65286000Y-135072380D02*
X65286000Y-134072380D01*
X65381238Y-134215238D01*
X65476476Y-134310476D01*
X65571714Y-134358095D01*
X130024095Y-91638380D02*
X130024095Y-90638380D01*
X129786000Y-90638380D01*
X129643142Y-90686000D01*
X129547904Y-90781238D01*
X129500285Y-90876476D01*
X129452666Y-91066952D01*
X129452666Y-91209809D01*
X129500285Y-91400285D01*
X129547904Y-91495523D01*
X129643142Y-91590761D01*
X129786000Y-91638380D01*
X130024095Y-91638380D01*
X129071714Y-90733619D02*
X129024095Y-90686000D01*
X128928857Y-90638380D01*
X128690761Y-90638380D01*
X128595523Y-90686000D01*
X128547904Y-90733619D01*
X128500285Y-90828857D01*
X128500285Y-90924095D01*
X128547904Y-91066952D01*
X129119333Y-91638380D01*
X128500285Y-91638380D01*
X129452666Y-94337142D02*
X129500285Y-94384761D01*
X129643142Y-94432380D01*
X129738380Y-94432380D01*
X129881238Y-94384761D01*
X129976476Y-94289523D01*
X130024095Y-94194285D01*
X130071714Y-94003809D01*
X130071714Y-93860952D01*
X130024095Y-93670476D01*
X129976476Y-93575238D01*
X129881238Y-93480000D01*
X129738380Y-93432380D01*
X129643142Y-93432380D01*
X129500285Y-93480000D01*
X129452666Y-93527619D01*
X129071714Y-93527619D02*
X129024095Y-93480000D01*
X128928857Y-93432380D01*
X128690761Y-93432380D01*
X128595523Y-93480000D01*
X128547904Y-93527619D01*
X128500285Y-93622857D01*
X128500285Y-93718095D01*
X128547904Y-93860952D01*
X129119333Y-94432380D01*
X128500285Y-94432380D01*
X66524095Y-92146380D02*
X66524095Y-91146380D01*
X66286000Y-91146380D01*
X66143142Y-91194000D01*
X66047904Y-91289238D01*
X66000285Y-91384476D01*
X65952666Y-91574952D01*
X65952666Y-91717809D01*
X66000285Y-91908285D01*
X66047904Y-92003523D01*
X66143142Y-92098761D01*
X66286000Y-92146380D01*
X66524095Y-92146380D01*
X65000285Y-92146380D02*
X65571714Y-92146380D01*
X65286000Y-92146380D02*
X65286000Y-91146380D01*
X65381238Y-91289238D01*
X65476476Y-91384476D01*
X65571714Y-91432095D01*
X65952666Y-94337142D02*
X66000285Y-94384761D01*
X66143142Y-94432380D01*
X66238380Y-94432380D01*
X66381238Y-94384761D01*
X66476476Y-94289523D01*
X66524095Y-94194285D01*
X66571714Y-94003809D01*
X66571714Y-93860952D01*
X66524095Y-93670476D01*
X66476476Y-93575238D01*
X66381238Y-93480000D01*
X66238380Y-93432380D01*
X66143142Y-93432380D01*
X66000285Y-93480000D01*
X65952666Y-93527619D01*
X65000285Y-94432380D02*
X65571714Y-94432380D01*
X65286000Y-94432380D02*
X65286000Y-93432380D01*
X65381238Y-93575238D01*
X65476476Y-93670476D01*
X65571714Y-93718095D01*
X127809523Y-129500380D02*
X127142857Y-130500380D01*
X127142857Y-129500380D02*
X127809523Y-130500380D01*
X126333333Y-129500380D02*
X126523809Y-129500380D01*
X126619047Y-129548000D01*
X126666666Y-129595619D01*
X126761904Y-129738476D01*
X126809523Y-129928952D01*
X126809523Y-130309904D01*
X126761904Y-130405142D01*
X126714285Y-130452761D01*
X126619047Y-130500380D01*
X126428571Y-130500380D01*
X126333333Y-130452761D01*
X126285714Y-130405142D01*
X126238095Y-130309904D01*
X126238095Y-130071809D01*
X126285714Y-129976571D01*
X126333333Y-129928952D01*
X126428571Y-129881333D01*
X126619047Y-129881333D01*
X126714285Y-129928952D01*
X126761904Y-129976571D01*
X126809523Y-130071809D01*
X127809523Y-98004380D02*
X127142857Y-99004380D01*
X127142857Y-98004380D02*
X127809523Y-99004380D01*
X126857142Y-98004380D02*
X126190476Y-98004380D01*
X126619047Y-99004380D01*
X64309523Y-129500380D02*
X63642857Y-130500380D01*
X63642857Y-129500380D02*
X64309523Y-130500380D01*
X63119047Y-129928952D02*
X63214285Y-129881333D01*
X63261904Y-129833714D01*
X63309523Y-129738476D01*
X63309523Y-129690857D01*
X63261904Y-129595619D01*
X63214285Y-129548000D01*
X63119047Y-129500380D01*
X62928571Y-129500380D01*
X62833333Y-129548000D01*
X62785714Y-129595619D01*
X62738095Y-129690857D01*
X62738095Y-129738476D01*
X62785714Y-129833714D01*
X62833333Y-129881333D01*
X62928571Y-129928952D01*
X63119047Y-129928952D01*
X63214285Y-129976571D01*
X63261904Y-130024190D01*
X63309523Y-130119428D01*
X63309523Y-130309904D01*
X63261904Y-130405142D01*
X63214285Y-130452761D01*
X63119047Y-130500380D01*
X62928571Y-130500380D01*
X62833333Y-130452761D01*
X62785714Y-130405142D01*
X62738095Y-130309904D01*
X62738095Y-130119428D01*
X62785714Y-130024190D01*
X62833333Y-129976571D01*
X62928571Y-129928952D01*
X64309523Y-98004380D02*
X63642857Y-99004380D01*
X63642857Y-98004380D02*
X64309523Y-99004380D01*
X63214285Y-99004380D02*
X63023809Y-99004380D01*
X62928571Y-98956761D01*
X62880952Y-98909142D01*
X62785714Y-98766285D01*
X62738095Y-98575809D01*
X62738095Y-98194857D01*
X62785714Y-98099619D01*
X62833333Y-98052000D01*
X62928571Y-98004380D01*
X63119047Y-98004380D01*
X63214285Y-98052000D01*
X63261904Y-98099619D01*
X63309523Y-98194857D01*
X63309523Y-98432952D01*
X63261904Y-98528190D01*
X63214285Y-98575809D01*
X63119047Y-98623428D01*
X62928571Y-98623428D01*
X62833333Y-98575809D01*
X62785714Y-98528190D01*
X62738095Y-98432952D01*
X103854285Y-131770380D02*
X104425714Y-131770380D01*
X104140000Y-131770380D02*
X104140000Y-130770380D01*
X104235238Y-130913238D01*
X104330476Y-131008476D01*
X104425714Y-131056095D01*
X127190476Y-131770380D02*
X127761904Y-131770380D01*
X127476190Y-131770380D02*
X127476190Y-130770380D01*
X127571428Y-130913238D01*
X127666666Y-131008476D01*
X127761904Y-131056095D01*
X126571428Y-130770380D02*
X126476190Y-130770380D01*
X126380952Y-130818000D01*
X126333333Y-130865619D01*
X126285714Y-130960857D01*
X126238095Y-131151333D01*
X126238095Y-131389428D01*
X126285714Y-131579904D01*
X126333333Y-131675142D01*
X126380952Y-131722761D01*
X126476190Y-131770380D01*
X126571428Y-131770380D01*
X126666666Y-131722761D01*
X126714285Y-131675142D01*
X126761904Y-131579904D01*
X126809523Y-131389428D01*
X126809523Y-131151333D01*
X126761904Y-130960857D01*
X126714285Y-130865619D01*
X126666666Y-130818000D01*
X126571428Y-130770380D01*
X127190476Y-97734380D02*
X127761904Y-97734380D01*
X127476190Y-97734380D02*
X127476190Y-96734380D01*
X127571428Y-96877238D01*
X127666666Y-96972476D01*
X127761904Y-97020095D01*
X126571428Y-96734380D02*
X126476190Y-96734380D01*
X126380952Y-96782000D01*
X126333333Y-96829619D01*
X126285714Y-96924857D01*
X126238095Y-97115333D01*
X126238095Y-97353428D01*
X126285714Y-97543904D01*
X126333333Y-97639142D01*
X126380952Y-97686761D01*
X126476190Y-97734380D01*
X126571428Y-97734380D01*
X126666666Y-97686761D01*
X126714285Y-97639142D01*
X126761904Y-97543904D01*
X126809523Y-97353428D01*
X126809523Y-97115333D01*
X126761904Y-96924857D01*
X126714285Y-96829619D01*
X126666666Y-96782000D01*
X126571428Y-96734380D01*
X63690476Y-131770380D02*
X64261904Y-131770380D01*
X63976190Y-131770380D02*
X63976190Y-130770380D01*
X64071428Y-130913238D01*
X64166666Y-131008476D01*
X64261904Y-131056095D01*
X63071428Y-130770380D02*
X62976190Y-130770380D01*
X62880952Y-130818000D01*
X62833333Y-130865619D01*
X62785714Y-130960857D01*
X62738095Y-131151333D01*
X62738095Y-131389428D01*
X62785714Y-131579904D01*
X62833333Y-131675142D01*
X62880952Y-131722761D01*
X62976190Y-131770380D01*
X63071428Y-131770380D01*
X63166666Y-131722761D01*
X63214285Y-131675142D01*
X63261904Y-131579904D01*
X63309523Y-131389428D01*
X63309523Y-131151333D01*
X63261904Y-130960857D01*
X63214285Y-130865619D01*
X63166666Y-130818000D01*
X63071428Y-130770380D01*
X63690476Y-97734380D02*
X64261904Y-97734380D01*
X63976190Y-97734380D02*
X63976190Y-96734380D01*
X64071428Y-96877238D01*
X64166666Y-96972476D01*
X64261904Y-97020095D01*
X63071428Y-96734380D02*
X62976190Y-96734380D01*
X62880952Y-96782000D01*
X62833333Y-96829619D01*
X62785714Y-96924857D01*
X62738095Y-97115333D01*
X62738095Y-97353428D01*
X62785714Y-97543904D01*
X62833333Y-97639142D01*
X62880952Y-97686761D01*
X62976190Y-97734380D01*
X63071428Y-97734380D01*
X63166666Y-97686761D01*
X63214285Y-97639142D01*
X63261904Y-97543904D01*
X63309523Y-97353428D01*
X63309523Y-97115333D01*
X63261904Y-96924857D01*
X63214285Y-96829619D01*
X63166666Y-96782000D01*
X63071428Y-96734380D01*
G04 #@! TD*
M02*
