G04 #@! TF.GenerationSoftware,KiCad,Pcbnew,(5.0.2)-1*
G04 #@! TF.CreationDate,2019-03-03T18:11:37-06:00*
G04 #@! TF.ProjectId,ArmMotorController_Hardware,41726d4d-6f74-46f7-9243-6f6e74726f6c,rev?*
G04 #@! TF.SameCoordinates,Original*
G04 #@! TF.FileFunction,Soldermask,Bot*
G04 #@! TF.FilePolarity,Negative*
%FSLAX46Y46*%
G04 Gerber Fmt 4.6, Leading zero omitted, Abs format (unit mm)*
G04 Created by KiCad (PCBNEW (5.0.2)-1) date 3/3/2019 6:11:37 PM*
%MOMM*%
%LPD*%
G01*
G04 APERTURE LIST*
%ADD10C,0.100000*%
G04 APERTURE END LIST*
D10*
G36*
X107375300Y-139925400D02*
X105984700Y-139925400D01*
X105984700Y-137747400D01*
X107375300Y-137747400D01*
X107375300Y-139925400D01*
X107375300Y-139925400D01*
G37*
G36*
X48955300Y-139925400D02*
X47564700Y-139925400D01*
X47564700Y-137747400D01*
X48955300Y-137747400D01*
X48955300Y-139925400D01*
X48955300Y-139925400D01*
G37*
G36*
X104835300Y-139925400D02*
X103444700Y-139925400D01*
X103444700Y-137747400D01*
X104835300Y-137747400D01*
X104835300Y-139925400D01*
X104835300Y-139925400D01*
G37*
G36*
X120075300Y-139925400D02*
X118684700Y-139925400D01*
X118684700Y-137747400D01*
X120075300Y-137747400D01*
X120075300Y-139925400D01*
X120075300Y-139925400D01*
G37*
G36*
X64195300Y-139925400D02*
X62804700Y-139925400D01*
X62804700Y-137747400D01*
X64195300Y-137747400D01*
X64195300Y-139925400D01*
X64195300Y-139925400D01*
G37*
G36*
X61655300Y-139925400D02*
X60264700Y-139925400D01*
X60264700Y-137747400D01*
X61655300Y-137747400D01*
X61655300Y-139925400D01*
X61655300Y-139925400D01*
G37*
G36*
X59115300Y-139925400D02*
X57724700Y-139925400D01*
X57724700Y-137747400D01*
X59115300Y-137747400D01*
X59115300Y-139925400D01*
X59115300Y-139925400D01*
G37*
G36*
X56575300Y-139925400D02*
X55184700Y-139925400D01*
X55184700Y-137747400D01*
X56575300Y-137747400D01*
X56575300Y-139925400D01*
X56575300Y-139925400D01*
G37*
G36*
X54035300Y-139925400D02*
X52644700Y-139925400D01*
X52644700Y-137747400D01*
X54035300Y-137747400D01*
X54035300Y-139925400D01*
X54035300Y-139925400D01*
G37*
G36*
X51495300Y-139925400D02*
X50104700Y-139925400D01*
X50104700Y-137747400D01*
X51495300Y-137747400D01*
X51495300Y-139925400D01*
X51495300Y-139925400D01*
G37*
G36*
X125155300Y-139925400D02*
X123764700Y-139925400D01*
X123764700Y-137747400D01*
X125155300Y-137747400D01*
X125155300Y-139925400D01*
X125155300Y-139925400D01*
G37*
G36*
X43875300Y-139925400D02*
X42484700Y-139925400D01*
X42484700Y-137747400D01*
X43875300Y-137747400D01*
X43875300Y-139925400D01*
X43875300Y-139925400D01*
G37*
G36*
X41335300Y-139925400D02*
X39944700Y-139925400D01*
X39944700Y-137747400D01*
X41335300Y-137747400D01*
X41335300Y-139925400D01*
X41335300Y-139925400D01*
G37*
G36*
X127695300Y-139925400D02*
X126304700Y-139925400D01*
X126304700Y-137747400D01*
X127695300Y-137747400D01*
X127695300Y-139925400D01*
X127695300Y-139925400D01*
G37*
G36*
X122615300Y-139925400D02*
X121224700Y-139925400D01*
X121224700Y-137747400D01*
X122615300Y-137747400D01*
X122615300Y-139925400D01*
X122615300Y-139925400D01*
G37*
G36*
X117535300Y-139925400D02*
X116144700Y-139925400D01*
X116144700Y-137747400D01*
X117535300Y-137747400D01*
X117535300Y-139925400D01*
X117535300Y-139925400D01*
G37*
G36*
X114995300Y-139925400D02*
X113604700Y-139925400D01*
X113604700Y-137747400D01*
X114995300Y-137747400D01*
X114995300Y-139925400D01*
X114995300Y-139925400D01*
G37*
G36*
X112455300Y-139925400D02*
X111064700Y-139925400D01*
X111064700Y-137747400D01*
X112455300Y-137747400D01*
X112455300Y-139925400D01*
X112455300Y-139925400D01*
G37*
G36*
X109915300Y-139925400D02*
X108524700Y-139925400D01*
X108524700Y-137747400D01*
X109915300Y-137747400D01*
X109915300Y-139925400D01*
X109915300Y-139925400D01*
G37*
G36*
X46415300Y-139925400D02*
X45024700Y-139925400D01*
X45024700Y-137747400D01*
X46415300Y-137747400D01*
X46415300Y-139925400D01*
X46415300Y-139925400D01*
G37*
G36*
X77877603Y-134583968D02*
X77877606Y-134583969D01*
X77877605Y-134583969D01*
X78052678Y-134656486D01*
X78052679Y-134656487D01*
X78210241Y-134761767D01*
X78344233Y-134895759D01*
X78344234Y-134895761D01*
X78449514Y-135053322D01*
X78505603Y-135188734D01*
X78522032Y-135228397D01*
X78559000Y-135414250D01*
X78559000Y-135603750D01*
X78522032Y-135789603D01*
X78522031Y-135789605D01*
X78449514Y-135964678D01*
X78449513Y-135964679D01*
X78344233Y-136122241D01*
X78210241Y-136256233D01*
X78130923Y-136309232D01*
X78052678Y-136361514D01*
X77917266Y-136417603D01*
X77877603Y-136434032D01*
X77691750Y-136471000D01*
X77502250Y-136471000D01*
X77316397Y-136434032D01*
X77276734Y-136417603D01*
X77141322Y-136361514D01*
X77063077Y-136309232D01*
X76983759Y-136256233D01*
X76849767Y-136122241D01*
X76744487Y-135964679D01*
X76744486Y-135964678D01*
X76671969Y-135789605D01*
X76671968Y-135789603D01*
X76635000Y-135603750D01*
X76635000Y-135414250D01*
X76671968Y-135228397D01*
X76688397Y-135188734D01*
X76744486Y-135053322D01*
X76849766Y-134895761D01*
X76849767Y-134895759D01*
X76983759Y-134761767D01*
X77141321Y-134656487D01*
X77141322Y-134656486D01*
X77316395Y-134583969D01*
X77316394Y-134583969D01*
X77316397Y-134583968D01*
X77502250Y-134547000D01*
X77691750Y-134547000D01*
X77877603Y-134583968D01*
X77877603Y-134583968D01*
G37*
G36*
X95657603Y-134583968D02*
X95657606Y-134583969D01*
X95657605Y-134583969D01*
X95832678Y-134656486D01*
X95832679Y-134656487D01*
X95990241Y-134761767D01*
X96124233Y-134895759D01*
X96124234Y-134895761D01*
X96229514Y-135053322D01*
X96285603Y-135188734D01*
X96302032Y-135228397D01*
X96339000Y-135414250D01*
X96339000Y-135603750D01*
X96302032Y-135789603D01*
X96302031Y-135789605D01*
X96229514Y-135964678D01*
X96229513Y-135964679D01*
X96124233Y-136122241D01*
X95990241Y-136256233D01*
X95910923Y-136309232D01*
X95832678Y-136361514D01*
X95697266Y-136417603D01*
X95657603Y-136434032D01*
X95471750Y-136471000D01*
X95282250Y-136471000D01*
X95096397Y-136434032D01*
X95056734Y-136417603D01*
X94921322Y-136361514D01*
X94843077Y-136309232D01*
X94763759Y-136256233D01*
X94629767Y-136122241D01*
X94524487Y-135964679D01*
X94524486Y-135964678D01*
X94451969Y-135789605D01*
X94451968Y-135789603D01*
X94415000Y-135603750D01*
X94415000Y-135414250D01*
X94451968Y-135228397D01*
X94468397Y-135188734D01*
X94524486Y-135053322D01*
X94629766Y-134895761D01*
X94629767Y-134895759D01*
X94763759Y-134761767D01*
X94921321Y-134656487D01*
X94921322Y-134656486D01*
X95096395Y-134583969D01*
X95096394Y-134583969D01*
X95096397Y-134583968D01*
X95282250Y-134547000D01*
X95471750Y-134547000D01*
X95657603Y-134583968D01*
X95657603Y-134583968D01*
G37*
G36*
X98197603Y-134583968D02*
X98197606Y-134583969D01*
X98197605Y-134583969D01*
X98372678Y-134656486D01*
X98372679Y-134656487D01*
X98530241Y-134761767D01*
X98664233Y-134895759D01*
X98664234Y-134895761D01*
X98769514Y-135053322D01*
X98825603Y-135188734D01*
X98842032Y-135228397D01*
X98879000Y-135414250D01*
X98879000Y-135603750D01*
X98842032Y-135789603D01*
X98842031Y-135789605D01*
X98769514Y-135964678D01*
X98769513Y-135964679D01*
X98664233Y-136122241D01*
X98530241Y-136256233D01*
X98450923Y-136309232D01*
X98372678Y-136361514D01*
X98237266Y-136417603D01*
X98197603Y-136434032D01*
X98011750Y-136471000D01*
X97822250Y-136471000D01*
X97636397Y-136434032D01*
X97596734Y-136417603D01*
X97461322Y-136361514D01*
X97383077Y-136309232D01*
X97303759Y-136256233D01*
X97169767Y-136122241D01*
X97064487Y-135964679D01*
X97064486Y-135964678D01*
X96991969Y-135789605D01*
X96991968Y-135789603D01*
X96955000Y-135603750D01*
X96955000Y-135414250D01*
X96991968Y-135228397D01*
X97008397Y-135188734D01*
X97064486Y-135053322D01*
X97169766Y-134895761D01*
X97169767Y-134895759D01*
X97303759Y-134761767D01*
X97461321Y-134656487D01*
X97461322Y-134656486D01*
X97636395Y-134583969D01*
X97636394Y-134583969D01*
X97636397Y-134583968D01*
X97822250Y-134547000D01*
X98011750Y-134547000D01*
X98197603Y-134583968D01*
X98197603Y-134583968D01*
G37*
G36*
X89307603Y-134583968D02*
X89307606Y-134583969D01*
X89307605Y-134583969D01*
X89482678Y-134656486D01*
X89482679Y-134656487D01*
X89640241Y-134761767D01*
X89774233Y-134895759D01*
X89774234Y-134895761D01*
X89879514Y-135053322D01*
X89935603Y-135188734D01*
X89952032Y-135228397D01*
X89989000Y-135414250D01*
X89989000Y-135603750D01*
X89952032Y-135789603D01*
X89952031Y-135789605D01*
X89879514Y-135964678D01*
X89879513Y-135964679D01*
X89774233Y-136122241D01*
X89640241Y-136256233D01*
X89560923Y-136309232D01*
X89482678Y-136361514D01*
X89347266Y-136417603D01*
X89307603Y-136434032D01*
X89121750Y-136471000D01*
X88932250Y-136471000D01*
X88746397Y-136434032D01*
X88706734Y-136417603D01*
X88571322Y-136361514D01*
X88493077Y-136309232D01*
X88413759Y-136256233D01*
X88279767Y-136122241D01*
X88174487Y-135964679D01*
X88174486Y-135964678D01*
X88101969Y-135789605D01*
X88101968Y-135789603D01*
X88065000Y-135603750D01*
X88065000Y-135414250D01*
X88101968Y-135228397D01*
X88118397Y-135188734D01*
X88174486Y-135053322D01*
X88279766Y-134895761D01*
X88279767Y-134895759D01*
X88413759Y-134761767D01*
X88571321Y-134656487D01*
X88571322Y-134656486D01*
X88746395Y-134583969D01*
X88746394Y-134583969D01*
X88746397Y-134583968D01*
X88932250Y-134547000D01*
X89121750Y-134547000D01*
X89307603Y-134583968D01*
X89307603Y-134583968D01*
G37*
G36*
X80417603Y-134583968D02*
X80417606Y-134583969D01*
X80417605Y-134583969D01*
X80592678Y-134656486D01*
X80592679Y-134656487D01*
X80750241Y-134761767D01*
X80884233Y-134895759D01*
X80884234Y-134895761D01*
X80989514Y-135053322D01*
X81045603Y-135188734D01*
X81062032Y-135228397D01*
X81099000Y-135414250D01*
X81099000Y-135603750D01*
X81062032Y-135789603D01*
X81062031Y-135789605D01*
X80989514Y-135964678D01*
X80989513Y-135964679D01*
X80884233Y-136122241D01*
X80750241Y-136256233D01*
X80670923Y-136309232D01*
X80592678Y-136361514D01*
X80457266Y-136417603D01*
X80417603Y-136434032D01*
X80231750Y-136471000D01*
X80042250Y-136471000D01*
X79856397Y-136434032D01*
X79816734Y-136417603D01*
X79681322Y-136361514D01*
X79603077Y-136309232D01*
X79523759Y-136256233D01*
X79389767Y-136122241D01*
X79284487Y-135964679D01*
X79284486Y-135964678D01*
X79211969Y-135789605D01*
X79211968Y-135789603D01*
X79175000Y-135603750D01*
X79175000Y-135414250D01*
X79211968Y-135228397D01*
X79228397Y-135188734D01*
X79284486Y-135053322D01*
X79389766Y-134895761D01*
X79389767Y-134895759D01*
X79523759Y-134761767D01*
X79681321Y-134656487D01*
X79681322Y-134656486D01*
X79856395Y-134583969D01*
X79856394Y-134583969D01*
X79856397Y-134583968D01*
X80042250Y-134547000D01*
X80231750Y-134547000D01*
X80417603Y-134583968D01*
X80417603Y-134583968D01*
G37*
G36*
X68987603Y-134583968D02*
X68987606Y-134583969D01*
X68987605Y-134583969D01*
X69162678Y-134656486D01*
X69162679Y-134656487D01*
X69320241Y-134761767D01*
X69454233Y-134895759D01*
X69454234Y-134895761D01*
X69559514Y-135053322D01*
X69615603Y-135188734D01*
X69632032Y-135228397D01*
X69669000Y-135414250D01*
X69669000Y-135603750D01*
X69632032Y-135789603D01*
X69632031Y-135789605D01*
X69559514Y-135964678D01*
X69559513Y-135964679D01*
X69454233Y-136122241D01*
X69320241Y-136256233D01*
X69240923Y-136309232D01*
X69162678Y-136361514D01*
X69027266Y-136417603D01*
X68987603Y-136434032D01*
X68801750Y-136471000D01*
X68612250Y-136471000D01*
X68426397Y-136434032D01*
X68386734Y-136417603D01*
X68251322Y-136361514D01*
X68173077Y-136309232D01*
X68093759Y-136256233D01*
X67959767Y-136122241D01*
X67854487Y-135964679D01*
X67854486Y-135964678D01*
X67781969Y-135789605D01*
X67781968Y-135789603D01*
X67745000Y-135603750D01*
X67745000Y-135414250D01*
X67781968Y-135228397D01*
X67798397Y-135188734D01*
X67854486Y-135053322D01*
X67959766Y-134895761D01*
X67959767Y-134895759D01*
X68093759Y-134761767D01*
X68251321Y-134656487D01*
X68251322Y-134656486D01*
X68426395Y-134583969D01*
X68426394Y-134583969D01*
X68426397Y-134583968D01*
X68612250Y-134547000D01*
X68801750Y-134547000D01*
X68987603Y-134583968D01*
X68987603Y-134583968D01*
G37*
G36*
X71527603Y-134583968D02*
X71527606Y-134583969D01*
X71527605Y-134583969D01*
X71702678Y-134656486D01*
X71702679Y-134656487D01*
X71860241Y-134761767D01*
X71994233Y-134895759D01*
X71994234Y-134895761D01*
X72099514Y-135053322D01*
X72155603Y-135188734D01*
X72172032Y-135228397D01*
X72209000Y-135414250D01*
X72209000Y-135603750D01*
X72172032Y-135789603D01*
X72172031Y-135789605D01*
X72099514Y-135964678D01*
X72099513Y-135964679D01*
X71994233Y-136122241D01*
X71860241Y-136256233D01*
X71780923Y-136309232D01*
X71702678Y-136361514D01*
X71567266Y-136417603D01*
X71527603Y-136434032D01*
X71341750Y-136471000D01*
X71152250Y-136471000D01*
X70966397Y-136434032D01*
X70926734Y-136417603D01*
X70791322Y-136361514D01*
X70713077Y-136309232D01*
X70633759Y-136256233D01*
X70499767Y-136122241D01*
X70394487Y-135964679D01*
X70394486Y-135964678D01*
X70321969Y-135789605D01*
X70321968Y-135789603D01*
X70285000Y-135603750D01*
X70285000Y-135414250D01*
X70321968Y-135228397D01*
X70338397Y-135188734D01*
X70394486Y-135053322D01*
X70499766Y-134895761D01*
X70499767Y-134895759D01*
X70633759Y-134761767D01*
X70791321Y-134656487D01*
X70791322Y-134656486D01*
X70966395Y-134583969D01*
X70966394Y-134583969D01*
X70966397Y-134583968D01*
X71152250Y-134547000D01*
X71341750Y-134547000D01*
X71527603Y-134583968D01*
X71527603Y-134583968D01*
G37*
G36*
X86767603Y-134583968D02*
X86767606Y-134583969D01*
X86767605Y-134583969D01*
X86942678Y-134656486D01*
X86942679Y-134656487D01*
X87100241Y-134761767D01*
X87234233Y-134895759D01*
X87234234Y-134895761D01*
X87339514Y-135053322D01*
X87395603Y-135188734D01*
X87412032Y-135228397D01*
X87449000Y-135414250D01*
X87449000Y-135603750D01*
X87412032Y-135789603D01*
X87412031Y-135789605D01*
X87339514Y-135964678D01*
X87339513Y-135964679D01*
X87234233Y-136122241D01*
X87100241Y-136256233D01*
X87020923Y-136309232D01*
X86942678Y-136361514D01*
X86807266Y-136417603D01*
X86767603Y-136434032D01*
X86581750Y-136471000D01*
X86392250Y-136471000D01*
X86206397Y-136434032D01*
X86166734Y-136417603D01*
X86031322Y-136361514D01*
X85953077Y-136309232D01*
X85873759Y-136256233D01*
X85739767Y-136122241D01*
X85634487Y-135964679D01*
X85634486Y-135964678D01*
X85561969Y-135789605D01*
X85561968Y-135789603D01*
X85525000Y-135603750D01*
X85525000Y-135414250D01*
X85561968Y-135228397D01*
X85578397Y-135188734D01*
X85634486Y-135053322D01*
X85739766Y-134895761D01*
X85739767Y-134895759D01*
X85873759Y-134761767D01*
X86031321Y-134656487D01*
X86031322Y-134656486D01*
X86206395Y-134583969D01*
X86206394Y-134583969D01*
X86206397Y-134583968D01*
X86392250Y-134547000D01*
X86581750Y-134547000D01*
X86767603Y-134583968D01*
X86767603Y-134583968D01*
G37*
G36*
X127695300Y-134032600D02*
X126304700Y-134032600D01*
X126304700Y-131854600D01*
X127695300Y-131854600D01*
X127695300Y-134032600D01*
X127695300Y-134032600D01*
G37*
G36*
X43875300Y-134032600D02*
X42484700Y-134032600D01*
X42484700Y-131854600D01*
X43875300Y-131854600D01*
X43875300Y-134032600D01*
X43875300Y-134032600D01*
G37*
G36*
X41335300Y-134032600D02*
X39944700Y-134032600D01*
X39944700Y-131854600D01*
X41335300Y-131854600D01*
X41335300Y-134032600D01*
X41335300Y-134032600D01*
G37*
G36*
X120075300Y-134032600D02*
X118684700Y-134032600D01*
X118684700Y-131854600D01*
X120075300Y-131854600D01*
X120075300Y-134032600D01*
X120075300Y-134032600D01*
G37*
G36*
X117535300Y-134032600D02*
X116144700Y-134032600D01*
X116144700Y-131854600D01*
X117535300Y-131854600D01*
X117535300Y-134032600D01*
X117535300Y-134032600D01*
G37*
G36*
X104835300Y-134032600D02*
X103444700Y-134032600D01*
X103444700Y-131854600D01*
X104835300Y-131854600D01*
X104835300Y-134032600D01*
X104835300Y-134032600D01*
G37*
G36*
X59115300Y-134032600D02*
X57724700Y-134032600D01*
X57724700Y-131854600D01*
X59115300Y-131854600D01*
X59115300Y-134032600D01*
X59115300Y-134032600D01*
G37*
G36*
X125155300Y-134032600D02*
X123764700Y-134032600D01*
X123764700Y-131854600D01*
X125155300Y-131854600D01*
X125155300Y-134032600D01*
X125155300Y-134032600D01*
G37*
G36*
X48955300Y-134032600D02*
X47564700Y-134032600D01*
X47564700Y-131854600D01*
X48955300Y-131854600D01*
X48955300Y-134032600D01*
X48955300Y-134032600D01*
G37*
G36*
X46415300Y-134032600D02*
X45024700Y-134032600D01*
X45024700Y-131854600D01*
X46415300Y-131854600D01*
X46415300Y-134032600D01*
X46415300Y-134032600D01*
G37*
G36*
X122615300Y-134032600D02*
X121224700Y-134032600D01*
X121224700Y-131854600D01*
X122615300Y-131854600D01*
X122615300Y-134032600D01*
X122615300Y-134032600D01*
G37*
G36*
X112455300Y-134032600D02*
X111064700Y-134032600D01*
X111064700Y-131854600D01*
X112455300Y-131854600D01*
X112455300Y-134032600D01*
X112455300Y-134032600D01*
G37*
G36*
X109915300Y-134032600D02*
X108524700Y-134032600D01*
X108524700Y-131854600D01*
X109915300Y-131854600D01*
X109915300Y-134032600D01*
X109915300Y-134032600D01*
G37*
G36*
X51495300Y-134032600D02*
X50104700Y-134032600D01*
X50104700Y-131854600D01*
X51495300Y-131854600D01*
X51495300Y-134032600D01*
X51495300Y-134032600D01*
G37*
G36*
X54035300Y-134032600D02*
X52644700Y-134032600D01*
X52644700Y-131854600D01*
X54035300Y-131854600D01*
X54035300Y-134032600D01*
X54035300Y-134032600D01*
G37*
G36*
X56575300Y-134032600D02*
X55184700Y-134032600D01*
X55184700Y-131854600D01*
X56575300Y-131854600D01*
X56575300Y-134032600D01*
X56575300Y-134032600D01*
G37*
G36*
X64195300Y-134032600D02*
X62804700Y-134032600D01*
X62804700Y-131854600D01*
X64195300Y-131854600D01*
X64195300Y-134032600D01*
X64195300Y-134032600D01*
G37*
G36*
X61655300Y-134032600D02*
X60264700Y-134032600D01*
X60264700Y-131854600D01*
X61655300Y-131854600D01*
X61655300Y-134032600D01*
X61655300Y-134032600D01*
G37*
G36*
X114995300Y-134032600D02*
X113604700Y-134032600D01*
X113604700Y-131854600D01*
X114995300Y-131854600D01*
X114995300Y-134032600D01*
X114995300Y-134032600D01*
G37*
G36*
X107375300Y-134032600D02*
X105984700Y-134032600D01*
X105984700Y-131854600D01*
X107375300Y-131854600D01*
X107375300Y-134032600D01*
X107375300Y-134032600D01*
G37*
G36*
X112040603Y-123534968D02*
X112040606Y-123534969D01*
X112040605Y-123534969D01*
X112215678Y-123607486D01*
X112215679Y-123607487D01*
X112373241Y-123712767D01*
X112507233Y-123846759D01*
X112507234Y-123846761D01*
X112612514Y-124004322D01*
X112668603Y-124139734D01*
X112685032Y-124179397D01*
X112722000Y-124365250D01*
X112722000Y-124554750D01*
X112685032Y-124740603D01*
X112685031Y-124740605D01*
X112612514Y-124915678D01*
X112612513Y-124915679D01*
X112507233Y-125073241D01*
X112373241Y-125207233D01*
X112293923Y-125260232D01*
X112215678Y-125312514D01*
X112080266Y-125368603D01*
X112040603Y-125385032D01*
X111854750Y-125422000D01*
X111665250Y-125422000D01*
X111479397Y-125385032D01*
X111439734Y-125368603D01*
X111304322Y-125312514D01*
X111226077Y-125260232D01*
X111146759Y-125207233D01*
X111012767Y-125073241D01*
X110907487Y-124915679D01*
X110907486Y-124915678D01*
X110834969Y-124740605D01*
X110834968Y-124740603D01*
X110798000Y-124554750D01*
X110798000Y-124365250D01*
X110834968Y-124179397D01*
X110851397Y-124139734D01*
X110907486Y-124004322D01*
X111012766Y-123846761D01*
X111012767Y-123846759D01*
X111146759Y-123712767D01*
X111304321Y-123607487D01*
X111304322Y-123607486D01*
X111479395Y-123534969D01*
X111479394Y-123534969D01*
X111479397Y-123534968D01*
X111665250Y-123498000D01*
X111854750Y-123498000D01*
X112040603Y-123534968D01*
X112040603Y-123534968D01*
G37*
G36*
X109500603Y-123534968D02*
X109500606Y-123534969D01*
X109500605Y-123534969D01*
X109675678Y-123607486D01*
X109675679Y-123607487D01*
X109833241Y-123712767D01*
X109967233Y-123846759D01*
X109967234Y-123846761D01*
X110072514Y-124004322D01*
X110128603Y-124139734D01*
X110145032Y-124179397D01*
X110182000Y-124365250D01*
X110182000Y-124554750D01*
X110145032Y-124740603D01*
X110145031Y-124740605D01*
X110072514Y-124915678D01*
X110072513Y-124915679D01*
X109967233Y-125073241D01*
X109833241Y-125207233D01*
X109753923Y-125260232D01*
X109675678Y-125312514D01*
X109540266Y-125368603D01*
X109500603Y-125385032D01*
X109314750Y-125422000D01*
X109125250Y-125422000D01*
X108939397Y-125385032D01*
X108899734Y-125368603D01*
X108764322Y-125312514D01*
X108686077Y-125260232D01*
X108606759Y-125207233D01*
X108472767Y-125073241D01*
X108367487Y-124915679D01*
X108367486Y-124915678D01*
X108294969Y-124740605D01*
X108294968Y-124740603D01*
X108258000Y-124554750D01*
X108258000Y-124365250D01*
X108294968Y-124179397D01*
X108311397Y-124139734D01*
X108367486Y-124004322D01*
X108472766Y-123846761D01*
X108472767Y-123846759D01*
X108606759Y-123712767D01*
X108764321Y-123607487D01*
X108764322Y-123607486D01*
X108939395Y-123534969D01*
X108939394Y-123534969D01*
X108939397Y-123534968D01*
X109125250Y-123498000D01*
X109314750Y-123498000D01*
X109500603Y-123534968D01*
X109500603Y-123534968D01*
G37*
G36*
X106960603Y-123534968D02*
X106960606Y-123534969D01*
X106960605Y-123534969D01*
X107135678Y-123607486D01*
X107135679Y-123607487D01*
X107293241Y-123712767D01*
X107427233Y-123846759D01*
X107427234Y-123846761D01*
X107532514Y-124004322D01*
X107588603Y-124139734D01*
X107605032Y-124179397D01*
X107642000Y-124365250D01*
X107642000Y-124554750D01*
X107605032Y-124740603D01*
X107605031Y-124740605D01*
X107532514Y-124915678D01*
X107532513Y-124915679D01*
X107427233Y-125073241D01*
X107293241Y-125207233D01*
X107213923Y-125260232D01*
X107135678Y-125312514D01*
X107000266Y-125368603D01*
X106960603Y-125385032D01*
X106774750Y-125422000D01*
X106585250Y-125422000D01*
X106399397Y-125385032D01*
X106359734Y-125368603D01*
X106224322Y-125312514D01*
X106146077Y-125260232D01*
X106066759Y-125207233D01*
X105932767Y-125073241D01*
X105827487Y-124915679D01*
X105827486Y-124915678D01*
X105754969Y-124740605D01*
X105754968Y-124740603D01*
X105718000Y-124554750D01*
X105718000Y-124365250D01*
X105754968Y-124179397D01*
X105771397Y-124139734D01*
X105827486Y-124004322D01*
X105932766Y-123846761D01*
X105932767Y-123846759D01*
X106066759Y-123712767D01*
X106224321Y-123607487D01*
X106224322Y-123607486D01*
X106399395Y-123534969D01*
X106399394Y-123534969D01*
X106399397Y-123534968D01*
X106585250Y-123498000D01*
X106774750Y-123498000D01*
X106960603Y-123534968D01*
X106960603Y-123534968D01*
G37*
G36*
X119660603Y-123534968D02*
X119660606Y-123534969D01*
X119660605Y-123534969D01*
X119835678Y-123607486D01*
X119835679Y-123607487D01*
X119993241Y-123712767D01*
X120127233Y-123846759D01*
X120127234Y-123846761D01*
X120232514Y-124004322D01*
X120288603Y-124139734D01*
X120305032Y-124179397D01*
X120342000Y-124365250D01*
X120342000Y-124554750D01*
X120305032Y-124740603D01*
X120305031Y-124740605D01*
X120232514Y-124915678D01*
X120232513Y-124915679D01*
X120127233Y-125073241D01*
X119993241Y-125207233D01*
X119913923Y-125260232D01*
X119835678Y-125312514D01*
X119700266Y-125368603D01*
X119660603Y-125385032D01*
X119474750Y-125422000D01*
X119285250Y-125422000D01*
X119099397Y-125385032D01*
X119059734Y-125368603D01*
X118924322Y-125312514D01*
X118846077Y-125260232D01*
X118766759Y-125207233D01*
X118632767Y-125073241D01*
X118527487Y-124915679D01*
X118527486Y-124915678D01*
X118454969Y-124740605D01*
X118454968Y-124740603D01*
X118418000Y-124554750D01*
X118418000Y-124365250D01*
X118454968Y-124179397D01*
X118471397Y-124139734D01*
X118527486Y-124004322D01*
X118632766Y-123846761D01*
X118632767Y-123846759D01*
X118766759Y-123712767D01*
X118924321Y-123607487D01*
X118924322Y-123607486D01*
X119099395Y-123534969D01*
X119099394Y-123534969D01*
X119099397Y-123534968D01*
X119285250Y-123498000D01*
X119474750Y-123498000D01*
X119660603Y-123534968D01*
X119660603Y-123534968D01*
G37*
G36*
X124740603Y-123534968D02*
X124740606Y-123534969D01*
X124740605Y-123534969D01*
X124915678Y-123607486D01*
X124915679Y-123607487D01*
X125073241Y-123712767D01*
X125207233Y-123846759D01*
X125207234Y-123846761D01*
X125312514Y-124004322D01*
X125368603Y-124139734D01*
X125385032Y-124179397D01*
X125422000Y-124365250D01*
X125422000Y-124554750D01*
X125385032Y-124740603D01*
X125385031Y-124740605D01*
X125312514Y-124915678D01*
X125312513Y-124915679D01*
X125207233Y-125073241D01*
X125073241Y-125207233D01*
X124993923Y-125260232D01*
X124915678Y-125312514D01*
X124780266Y-125368603D01*
X124740603Y-125385032D01*
X124554750Y-125422000D01*
X124365250Y-125422000D01*
X124179397Y-125385032D01*
X124139734Y-125368603D01*
X124004322Y-125312514D01*
X123926077Y-125260232D01*
X123846759Y-125207233D01*
X123712767Y-125073241D01*
X123607487Y-124915679D01*
X123607486Y-124915678D01*
X123534969Y-124740605D01*
X123534968Y-124740603D01*
X123498000Y-124554750D01*
X123498000Y-124365250D01*
X123534968Y-124179397D01*
X123551397Y-124139734D01*
X123607486Y-124004322D01*
X123712766Y-123846761D01*
X123712767Y-123846759D01*
X123846759Y-123712767D01*
X124004321Y-123607487D01*
X124004322Y-123607486D01*
X124179395Y-123534969D01*
X124179394Y-123534969D01*
X124179397Y-123534968D01*
X124365250Y-123498000D01*
X124554750Y-123498000D01*
X124740603Y-123534968D01*
X124740603Y-123534968D01*
G37*
G36*
X122200603Y-123534968D02*
X122200606Y-123534969D01*
X122200605Y-123534969D01*
X122375678Y-123607486D01*
X122375679Y-123607487D01*
X122533241Y-123712767D01*
X122667233Y-123846759D01*
X122667234Y-123846761D01*
X122772514Y-124004322D01*
X122828603Y-124139734D01*
X122845032Y-124179397D01*
X122882000Y-124365250D01*
X122882000Y-124554750D01*
X122845032Y-124740603D01*
X122845031Y-124740605D01*
X122772514Y-124915678D01*
X122772513Y-124915679D01*
X122667233Y-125073241D01*
X122533241Y-125207233D01*
X122453923Y-125260232D01*
X122375678Y-125312514D01*
X122240266Y-125368603D01*
X122200603Y-125385032D01*
X122014750Y-125422000D01*
X121825250Y-125422000D01*
X121639397Y-125385032D01*
X121599734Y-125368603D01*
X121464322Y-125312514D01*
X121386077Y-125260232D01*
X121306759Y-125207233D01*
X121172767Y-125073241D01*
X121067487Y-124915679D01*
X121067486Y-124915678D01*
X120994969Y-124740605D01*
X120994968Y-124740603D01*
X120958000Y-124554750D01*
X120958000Y-124365250D01*
X120994968Y-124179397D01*
X121011397Y-124139734D01*
X121067486Y-124004322D01*
X121172766Y-123846761D01*
X121172767Y-123846759D01*
X121306759Y-123712767D01*
X121464321Y-123607487D01*
X121464322Y-123607486D01*
X121639395Y-123534969D01*
X121639394Y-123534969D01*
X121639397Y-123534968D01*
X121825250Y-123498000D01*
X122014750Y-123498000D01*
X122200603Y-123534968D01*
X122200603Y-123534968D01*
G37*
G36*
X95657603Y-120613968D02*
X95657606Y-120613969D01*
X95657605Y-120613969D01*
X95832678Y-120686486D01*
X95832679Y-120686487D01*
X95990241Y-120791767D01*
X96124233Y-120925759D01*
X96124234Y-120925761D01*
X96229514Y-121083322D01*
X96285603Y-121218734D01*
X96302032Y-121258397D01*
X96339000Y-121444250D01*
X96339000Y-121633750D01*
X96302032Y-121819603D01*
X96302031Y-121819605D01*
X96229514Y-121994678D01*
X96229513Y-121994679D01*
X96124233Y-122152241D01*
X95990241Y-122286233D01*
X95910923Y-122339232D01*
X95832678Y-122391514D01*
X95697266Y-122447603D01*
X95657603Y-122464032D01*
X95471750Y-122501000D01*
X95282250Y-122501000D01*
X95096397Y-122464032D01*
X95056734Y-122447603D01*
X94921322Y-122391514D01*
X94843077Y-122339232D01*
X94763759Y-122286233D01*
X94629767Y-122152241D01*
X94524487Y-121994679D01*
X94524486Y-121994678D01*
X94451969Y-121819605D01*
X94451968Y-121819603D01*
X94415000Y-121633750D01*
X94415000Y-121444250D01*
X94451968Y-121258397D01*
X94468397Y-121218734D01*
X94524486Y-121083322D01*
X94629766Y-120925761D01*
X94629767Y-120925759D01*
X94763759Y-120791767D01*
X94921321Y-120686487D01*
X94921322Y-120686486D01*
X95096395Y-120613969D01*
X95096394Y-120613969D01*
X95096397Y-120613968D01*
X95282250Y-120577000D01*
X95471750Y-120577000D01*
X95657603Y-120613968D01*
X95657603Y-120613968D01*
G37*
G36*
X86767603Y-120613968D02*
X86767606Y-120613969D01*
X86767605Y-120613969D01*
X86942678Y-120686486D01*
X86942679Y-120686487D01*
X87100241Y-120791767D01*
X87234233Y-120925759D01*
X87234234Y-120925761D01*
X87339514Y-121083322D01*
X87395603Y-121218734D01*
X87412032Y-121258397D01*
X87449000Y-121444250D01*
X87449000Y-121633750D01*
X87412032Y-121819603D01*
X87412031Y-121819605D01*
X87339514Y-121994678D01*
X87339513Y-121994679D01*
X87234233Y-122152241D01*
X87100241Y-122286233D01*
X87020923Y-122339232D01*
X86942678Y-122391514D01*
X86807266Y-122447603D01*
X86767603Y-122464032D01*
X86581750Y-122501000D01*
X86392250Y-122501000D01*
X86206397Y-122464032D01*
X86166734Y-122447603D01*
X86031322Y-122391514D01*
X85953077Y-122339232D01*
X85873759Y-122286233D01*
X85739767Y-122152241D01*
X85634487Y-121994679D01*
X85634486Y-121994678D01*
X85561969Y-121819605D01*
X85561968Y-121819603D01*
X85525000Y-121633750D01*
X85525000Y-121444250D01*
X85561968Y-121258397D01*
X85578397Y-121218734D01*
X85634486Y-121083322D01*
X85739766Y-120925761D01*
X85739767Y-120925759D01*
X85873759Y-120791767D01*
X86031321Y-120686487D01*
X86031322Y-120686486D01*
X86206395Y-120613969D01*
X86206394Y-120613969D01*
X86206397Y-120613968D01*
X86392250Y-120577000D01*
X86581750Y-120577000D01*
X86767603Y-120613968D01*
X86767603Y-120613968D01*
G37*
G36*
X98197603Y-120613968D02*
X98197606Y-120613969D01*
X98197605Y-120613969D01*
X98372678Y-120686486D01*
X98372679Y-120686487D01*
X98530241Y-120791767D01*
X98664233Y-120925759D01*
X98664234Y-120925761D01*
X98769514Y-121083322D01*
X98825603Y-121218734D01*
X98842032Y-121258397D01*
X98879000Y-121444250D01*
X98879000Y-121633750D01*
X98842032Y-121819603D01*
X98842031Y-121819605D01*
X98769514Y-121994678D01*
X98769513Y-121994679D01*
X98664233Y-122152241D01*
X98530241Y-122286233D01*
X98450923Y-122339232D01*
X98372678Y-122391514D01*
X98237266Y-122447603D01*
X98197603Y-122464032D01*
X98011750Y-122501000D01*
X97822250Y-122501000D01*
X97636397Y-122464032D01*
X97596734Y-122447603D01*
X97461322Y-122391514D01*
X97383077Y-122339232D01*
X97303759Y-122286233D01*
X97169767Y-122152241D01*
X97064487Y-121994679D01*
X97064486Y-121994678D01*
X96991969Y-121819605D01*
X96991968Y-121819603D01*
X96955000Y-121633750D01*
X96955000Y-121444250D01*
X96991968Y-121258397D01*
X97008397Y-121218734D01*
X97064486Y-121083322D01*
X97169766Y-120925761D01*
X97169767Y-120925759D01*
X97303759Y-120791767D01*
X97461321Y-120686487D01*
X97461322Y-120686486D01*
X97636395Y-120613969D01*
X97636394Y-120613969D01*
X97636397Y-120613968D01*
X97822250Y-120577000D01*
X98011750Y-120577000D01*
X98197603Y-120613968D01*
X98197603Y-120613968D01*
G37*
G36*
X89307603Y-120613968D02*
X89307606Y-120613969D01*
X89307605Y-120613969D01*
X89482678Y-120686486D01*
X89482679Y-120686487D01*
X89640241Y-120791767D01*
X89774233Y-120925759D01*
X89774234Y-120925761D01*
X89879514Y-121083322D01*
X89935603Y-121218734D01*
X89952032Y-121258397D01*
X89989000Y-121444250D01*
X89989000Y-121633750D01*
X89952032Y-121819603D01*
X89952031Y-121819605D01*
X89879514Y-121994678D01*
X89879513Y-121994679D01*
X89774233Y-122152241D01*
X89640241Y-122286233D01*
X89560923Y-122339232D01*
X89482678Y-122391514D01*
X89347266Y-122447603D01*
X89307603Y-122464032D01*
X89121750Y-122501000D01*
X88932250Y-122501000D01*
X88746397Y-122464032D01*
X88706734Y-122447603D01*
X88571322Y-122391514D01*
X88493077Y-122339232D01*
X88413759Y-122286233D01*
X88279767Y-122152241D01*
X88174487Y-121994679D01*
X88174486Y-121994678D01*
X88101969Y-121819605D01*
X88101968Y-121819603D01*
X88065000Y-121633750D01*
X88065000Y-121444250D01*
X88101968Y-121258397D01*
X88118397Y-121218734D01*
X88174486Y-121083322D01*
X88279766Y-120925761D01*
X88279767Y-120925759D01*
X88413759Y-120791767D01*
X88571321Y-120686487D01*
X88571322Y-120686486D01*
X88746395Y-120613969D01*
X88746394Y-120613969D01*
X88746397Y-120613968D01*
X88932250Y-120577000D01*
X89121750Y-120577000D01*
X89307603Y-120613968D01*
X89307603Y-120613968D01*
G37*
G36*
X68987603Y-120613968D02*
X68987606Y-120613969D01*
X68987605Y-120613969D01*
X69162678Y-120686486D01*
X69162679Y-120686487D01*
X69320241Y-120791767D01*
X69454233Y-120925759D01*
X69454234Y-120925761D01*
X69559514Y-121083322D01*
X69615603Y-121218734D01*
X69632032Y-121258397D01*
X69669000Y-121444250D01*
X69669000Y-121633750D01*
X69632032Y-121819603D01*
X69632031Y-121819605D01*
X69559514Y-121994678D01*
X69559513Y-121994679D01*
X69454233Y-122152241D01*
X69320241Y-122286233D01*
X69240923Y-122339232D01*
X69162678Y-122391514D01*
X69027266Y-122447603D01*
X68987603Y-122464032D01*
X68801750Y-122501000D01*
X68612250Y-122501000D01*
X68426397Y-122464032D01*
X68386734Y-122447603D01*
X68251322Y-122391514D01*
X68173077Y-122339232D01*
X68093759Y-122286233D01*
X67959767Y-122152241D01*
X67854487Y-121994679D01*
X67854486Y-121994678D01*
X67781969Y-121819605D01*
X67781968Y-121819603D01*
X67745000Y-121633750D01*
X67745000Y-121444250D01*
X67781968Y-121258397D01*
X67798397Y-121218734D01*
X67854486Y-121083322D01*
X67959766Y-120925761D01*
X67959767Y-120925759D01*
X68093759Y-120791767D01*
X68251321Y-120686487D01*
X68251322Y-120686486D01*
X68426395Y-120613969D01*
X68426394Y-120613969D01*
X68426397Y-120613968D01*
X68612250Y-120577000D01*
X68801750Y-120577000D01*
X68987603Y-120613968D01*
X68987603Y-120613968D01*
G37*
G36*
X80417603Y-120613968D02*
X80417606Y-120613969D01*
X80417605Y-120613969D01*
X80592678Y-120686486D01*
X80592679Y-120686487D01*
X80750241Y-120791767D01*
X80884233Y-120925759D01*
X80884234Y-120925761D01*
X80989514Y-121083322D01*
X81045603Y-121218734D01*
X81062032Y-121258397D01*
X81099000Y-121444250D01*
X81099000Y-121633750D01*
X81062032Y-121819603D01*
X81062031Y-121819605D01*
X80989514Y-121994678D01*
X80989513Y-121994679D01*
X80884233Y-122152241D01*
X80750241Y-122286233D01*
X80670923Y-122339232D01*
X80592678Y-122391514D01*
X80457266Y-122447603D01*
X80417603Y-122464032D01*
X80231750Y-122501000D01*
X80042250Y-122501000D01*
X79856397Y-122464032D01*
X79816734Y-122447603D01*
X79681322Y-122391514D01*
X79603077Y-122339232D01*
X79523759Y-122286233D01*
X79389767Y-122152241D01*
X79284487Y-121994679D01*
X79284486Y-121994678D01*
X79211969Y-121819605D01*
X79211968Y-121819603D01*
X79175000Y-121633750D01*
X79175000Y-121444250D01*
X79211968Y-121258397D01*
X79228397Y-121218734D01*
X79284486Y-121083322D01*
X79389766Y-120925761D01*
X79389767Y-120925759D01*
X79523759Y-120791767D01*
X79681321Y-120686487D01*
X79681322Y-120686486D01*
X79856395Y-120613969D01*
X79856394Y-120613969D01*
X79856397Y-120613968D01*
X80042250Y-120577000D01*
X80231750Y-120577000D01*
X80417603Y-120613968D01*
X80417603Y-120613968D01*
G37*
G36*
X71527603Y-120613968D02*
X71527606Y-120613969D01*
X71527605Y-120613969D01*
X71702678Y-120686486D01*
X71702679Y-120686487D01*
X71860241Y-120791767D01*
X71994233Y-120925759D01*
X71994234Y-120925761D01*
X72099514Y-121083322D01*
X72155603Y-121218734D01*
X72172032Y-121258397D01*
X72209000Y-121444250D01*
X72209000Y-121633750D01*
X72172032Y-121819603D01*
X72172031Y-121819605D01*
X72099514Y-121994678D01*
X72099513Y-121994679D01*
X71994233Y-122152241D01*
X71860241Y-122286233D01*
X71780923Y-122339232D01*
X71702678Y-122391514D01*
X71567266Y-122447603D01*
X71527603Y-122464032D01*
X71341750Y-122501000D01*
X71152250Y-122501000D01*
X70966397Y-122464032D01*
X70926734Y-122447603D01*
X70791322Y-122391514D01*
X70713077Y-122339232D01*
X70633759Y-122286233D01*
X70499767Y-122152241D01*
X70394487Y-121994679D01*
X70394486Y-121994678D01*
X70321969Y-121819605D01*
X70321968Y-121819603D01*
X70285000Y-121633750D01*
X70285000Y-121444250D01*
X70321968Y-121258397D01*
X70338397Y-121218734D01*
X70394486Y-121083322D01*
X70499766Y-120925761D01*
X70499767Y-120925759D01*
X70633759Y-120791767D01*
X70791321Y-120686487D01*
X70791322Y-120686486D01*
X70966395Y-120613969D01*
X70966394Y-120613969D01*
X70966397Y-120613968D01*
X71152250Y-120577000D01*
X71341750Y-120577000D01*
X71527603Y-120613968D01*
X71527603Y-120613968D01*
G37*
G36*
X77877603Y-120613968D02*
X77877606Y-120613969D01*
X77877605Y-120613969D01*
X78052678Y-120686486D01*
X78052679Y-120686487D01*
X78210241Y-120791767D01*
X78344233Y-120925759D01*
X78344234Y-120925761D01*
X78449514Y-121083322D01*
X78505603Y-121218734D01*
X78522032Y-121258397D01*
X78559000Y-121444250D01*
X78559000Y-121633750D01*
X78522032Y-121819603D01*
X78522031Y-121819605D01*
X78449514Y-121994678D01*
X78449513Y-121994679D01*
X78344233Y-122152241D01*
X78210241Y-122286233D01*
X78130923Y-122339232D01*
X78052678Y-122391514D01*
X77917266Y-122447603D01*
X77877603Y-122464032D01*
X77691750Y-122501000D01*
X77502250Y-122501000D01*
X77316397Y-122464032D01*
X77276734Y-122447603D01*
X77141322Y-122391514D01*
X77063077Y-122339232D01*
X76983759Y-122286233D01*
X76849767Y-122152241D01*
X76744487Y-121994679D01*
X76744486Y-121994678D01*
X76671969Y-121819605D01*
X76671968Y-121819603D01*
X76635000Y-121633750D01*
X76635000Y-121444250D01*
X76671968Y-121258397D01*
X76688397Y-121218734D01*
X76744486Y-121083322D01*
X76849766Y-120925761D01*
X76849767Y-120925759D01*
X76983759Y-120791767D01*
X77141321Y-120686487D01*
X77141322Y-120686486D01*
X77316395Y-120613969D01*
X77316394Y-120613969D01*
X77316397Y-120613968D01*
X77502250Y-120577000D01*
X77691750Y-120577000D01*
X77877603Y-120613968D01*
X77877603Y-120613968D01*
G37*
G36*
X42814845Y-108378810D02*
X43059896Y-108453145D01*
X43285736Y-108573860D01*
X43483687Y-108736313D01*
X43646140Y-108934264D01*
X43766855Y-109160104D01*
X43841190Y-109405155D01*
X43866290Y-109660000D01*
X43841190Y-109914845D01*
X43766855Y-110159896D01*
X43646140Y-110385736D01*
X43483687Y-110583687D01*
X43405695Y-110647693D01*
X43388374Y-110665014D01*
X43374760Y-110685388D01*
X43365382Y-110708027D01*
X43360602Y-110732061D01*
X43360000Y-110744313D01*
X43360000Y-112710000D01*
X42959903Y-112710000D01*
X42935517Y-112712402D01*
X42912068Y-112719515D01*
X42890457Y-112731066D01*
X42871515Y-112746612D01*
X42855969Y-112765554D01*
X42844418Y-112787165D01*
X42837305Y-112810614D01*
X42834903Y-112835000D01*
X42837305Y-112859386D01*
X42844418Y-112882835D01*
X42855969Y-112904446D01*
X42871515Y-112923388D01*
X42900978Y-112945240D01*
X42940347Y-112966283D01*
X43085001Y-113084999D01*
X43203717Y-113229653D01*
X43291932Y-113394691D01*
X43346254Y-113573769D01*
X43364596Y-113760000D01*
X43346254Y-113946231D01*
X43291932Y-114125309D01*
X43203717Y-114290347D01*
X43085001Y-114435001D01*
X42940347Y-114553717D01*
X42770600Y-114644449D01*
X42757777Y-114649760D01*
X42737403Y-114663374D01*
X42720076Y-114680702D01*
X42706462Y-114701076D01*
X42697085Y-114723716D01*
X42692305Y-114747749D01*
X42692305Y-114772253D01*
X42697086Y-114796287D01*
X42706463Y-114818926D01*
X42720077Y-114839300D01*
X42737405Y-114856627D01*
X42757779Y-114870241D01*
X42770601Y-114875552D01*
X42940347Y-114966283D01*
X43085001Y-115084999D01*
X43203717Y-115229653D01*
X43291932Y-115394691D01*
X43346254Y-115573769D01*
X43364596Y-115760000D01*
X43346254Y-115946231D01*
X43291932Y-116125309D01*
X43203717Y-116290347D01*
X43085003Y-116434999D01*
X43058740Y-116456553D01*
X43041413Y-116473881D01*
X43027799Y-116494255D01*
X43018422Y-116516895D01*
X43013642Y-116540928D01*
X43013642Y-116565432D01*
X43018423Y-116589466D01*
X43027800Y-116612105D01*
X43041414Y-116632479D01*
X43058742Y-116649806D01*
X43079106Y-116663413D01*
X43285736Y-116773860D01*
X43483687Y-116936313D01*
X43646140Y-117134264D01*
X43766855Y-117360104D01*
X43841190Y-117605155D01*
X43866290Y-117860000D01*
X43841190Y-118114845D01*
X43766855Y-118359896D01*
X43646140Y-118585736D01*
X43483687Y-118783687D01*
X43285736Y-118946140D01*
X43059896Y-119066855D01*
X42814845Y-119141190D01*
X42623864Y-119160000D01*
X41196136Y-119160000D01*
X41005155Y-119141190D01*
X40760104Y-119066855D01*
X40534264Y-118946140D01*
X40336313Y-118783687D01*
X40173860Y-118585736D01*
X40053145Y-118359896D01*
X39978810Y-118114845D01*
X39953710Y-117860000D01*
X39978810Y-117605155D01*
X40053145Y-117360104D01*
X40173860Y-117134264D01*
X40336313Y-116936313D01*
X40534264Y-116773860D01*
X40740894Y-116663413D01*
X40761259Y-116649805D01*
X40778586Y-116632478D01*
X40792200Y-116612103D01*
X40801578Y-116589464D01*
X40806358Y-116565431D01*
X40806358Y-116540927D01*
X40801577Y-116516893D01*
X40792200Y-116494254D01*
X40778586Y-116473880D01*
X40761260Y-116456553D01*
X40734997Y-116434999D01*
X40616283Y-116290347D01*
X40528068Y-116125309D01*
X40473746Y-115946231D01*
X40455404Y-115760000D01*
X40473746Y-115573769D01*
X40528068Y-115394691D01*
X40616283Y-115229653D01*
X40734999Y-115084999D01*
X40879653Y-114966283D01*
X41049400Y-114875551D01*
X41062223Y-114870240D01*
X41082597Y-114856626D01*
X41099924Y-114839298D01*
X41113538Y-114818924D01*
X41122915Y-114796284D01*
X41127695Y-114772251D01*
X41127695Y-114747747D01*
X41122914Y-114723713D01*
X41113537Y-114701074D01*
X41099923Y-114680700D01*
X41082595Y-114663373D01*
X41062221Y-114649759D01*
X41049399Y-114644448D01*
X40879653Y-114553717D01*
X40734999Y-114435001D01*
X40616283Y-114290347D01*
X40528068Y-114125309D01*
X40473746Y-113946231D01*
X40455404Y-113760000D01*
X40473746Y-113573769D01*
X40528068Y-113394691D01*
X40616283Y-113229653D01*
X40734999Y-113084999D01*
X40879653Y-112966283D01*
X40919022Y-112945240D01*
X40939396Y-112931626D01*
X40956724Y-112914299D01*
X40970337Y-112893924D01*
X40979715Y-112871285D01*
X40984495Y-112847252D01*
X40984495Y-112822748D01*
X40979714Y-112798714D01*
X40970337Y-112776075D01*
X40956723Y-112755701D01*
X40939396Y-112738373D01*
X40919021Y-112724760D01*
X40896382Y-112715382D01*
X40860097Y-112710000D01*
X40460000Y-112710000D01*
X40460000Y-110744313D01*
X40457598Y-110719927D01*
X40450485Y-110696478D01*
X40438934Y-110674867D01*
X40423388Y-110655925D01*
X40414311Y-110647697D01*
X40336313Y-110583687D01*
X40173860Y-110385736D01*
X40053145Y-110159896D01*
X39978810Y-109914845D01*
X39953710Y-109660000D01*
X39978810Y-109405155D01*
X40053145Y-109160104D01*
X40173860Y-108934264D01*
X40336313Y-108736313D01*
X40534264Y-108573860D01*
X40760104Y-108453145D01*
X41005155Y-108378810D01*
X41196136Y-108360000D01*
X42623864Y-108360000D01*
X42814845Y-108378810D01*
X42814845Y-108378810D01*
G37*
G36*
X159030603Y-111342968D02*
X159030606Y-111342969D01*
X159030605Y-111342969D01*
X159205678Y-111415486D01*
X159205679Y-111415487D01*
X159363241Y-111520767D01*
X159497233Y-111654759D01*
X159497234Y-111654761D01*
X159602514Y-111812322D01*
X159658603Y-111947734D01*
X159675032Y-111987397D01*
X159712000Y-112173250D01*
X159712000Y-112362750D01*
X159675032Y-112548603D01*
X159675031Y-112548605D01*
X159602514Y-112723678D01*
X159574533Y-112765554D01*
X159497233Y-112881241D01*
X159363241Y-113015233D01*
X159283923Y-113068232D01*
X159205678Y-113120514D01*
X159070266Y-113176603D01*
X159030603Y-113193032D01*
X158844750Y-113230000D01*
X158655250Y-113230000D01*
X158469397Y-113193032D01*
X158429734Y-113176603D01*
X158294322Y-113120514D01*
X158216077Y-113068232D01*
X158136759Y-113015233D01*
X158002767Y-112881241D01*
X157925467Y-112765554D01*
X157897486Y-112723678D01*
X157824969Y-112548605D01*
X157824968Y-112548603D01*
X157788000Y-112362750D01*
X157788000Y-112173250D01*
X157824968Y-111987397D01*
X157841397Y-111947734D01*
X157897486Y-111812322D01*
X158002766Y-111654761D01*
X158002767Y-111654759D01*
X158136759Y-111520767D01*
X158294321Y-111415487D01*
X158294322Y-111415486D01*
X158469395Y-111342969D01*
X158469394Y-111342969D01*
X158469397Y-111342968D01*
X158655250Y-111306000D01*
X158844750Y-111306000D01*
X159030603Y-111342968D01*
X159030603Y-111342968D01*
G37*
G36*
X159030603Y-108802968D02*
X159030606Y-108802969D01*
X159030605Y-108802969D01*
X159205678Y-108875486D01*
X159205679Y-108875487D01*
X159363241Y-108980767D01*
X159497233Y-109114759D01*
X159497234Y-109114761D01*
X159602514Y-109272322D01*
X159657535Y-109405155D01*
X159675032Y-109447397D01*
X159712000Y-109633250D01*
X159712000Y-109822750D01*
X159675032Y-110008603D01*
X159675031Y-110008605D01*
X159602514Y-110183678D01*
X159602513Y-110183679D01*
X159497233Y-110341241D01*
X159363241Y-110475233D01*
X159283923Y-110528232D01*
X159205678Y-110580514D01*
X159070266Y-110636603D01*
X159030603Y-110653032D01*
X158844750Y-110690000D01*
X158655250Y-110690000D01*
X158469397Y-110653032D01*
X158429734Y-110636603D01*
X158294322Y-110580514D01*
X158216077Y-110528232D01*
X158136759Y-110475233D01*
X158002767Y-110341241D01*
X157897487Y-110183679D01*
X157897486Y-110183678D01*
X157824969Y-110008605D01*
X157824968Y-110008603D01*
X157788000Y-109822750D01*
X157788000Y-109633250D01*
X157824968Y-109447397D01*
X157842465Y-109405155D01*
X157897486Y-109272322D01*
X158002766Y-109114761D01*
X158002767Y-109114759D01*
X158136759Y-108980767D01*
X158294321Y-108875487D01*
X158294322Y-108875486D01*
X158469395Y-108802969D01*
X158469394Y-108802969D01*
X158469397Y-108802968D01*
X158655250Y-108766000D01*
X158844750Y-108766000D01*
X159030603Y-108802968D01*
X159030603Y-108802968D01*
G37*
G36*
X119660603Y-107024968D02*
X119660606Y-107024969D01*
X119660605Y-107024969D01*
X119835678Y-107097486D01*
X119835679Y-107097487D01*
X119993241Y-107202767D01*
X120127233Y-107336759D01*
X120127234Y-107336761D01*
X120232514Y-107494322D01*
X120288603Y-107629734D01*
X120305032Y-107669397D01*
X120342000Y-107855250D01*
X120342000Y-108044750D01*
X120305032Y-108230603D01*
X120305031Y-108230605D01*
X120232514Y-108405678D01*
X120232513Y-108405679D01*
X120127233Y-108563241D01*
X119993241Y-108697233D01*
X119934754Y-108736313D01*
X119835678Y-108802514D01*
X119700266Y-108858603D01*
X119660603Y-108875032D01*
X119474750Y-108912000D01*
X119285250Y-108912000D01*
X119099397Y-108875032D01*
X119059734Y-108858603D01*
X118924322Y-108802514D01*
X118825246Y-108736313D01*
X118766759Y-108697233D01*
X118632767Y-108563241D01*
X118527487Y-108405679D01*
X118527486Y-108405678D01*
X118454969Y-108230605D01*
X118454968Y-108230603D01*
X118418000Y-108044750D01*
X118418000Y-107855250D01*
X118454968Y-107669397D01*
X118471397Y-107629734D01*
X118527486Y-107494322D01*
X118632766Y-107336761D01*
X118632767Y-107336759D01*
X118766759Y-107202767D01*
X118924321Y-107097487D01*
X118924322Y-107097486D01*
X119099395Y-107024969D01*
X119099394Y-107024969D01*
X119099397Y-107024968D01*
X119285250Y-106988000D01*
X119474750Y-106988000D01*
X119660603Y-107024968D01*
X119660603Y-107024968D01*
G37*
G36*
X124740603Y-107024968D02*
X124740606Y-107024969D01*
X124740605Y-107024969D01*
X124915678Y-107097486D01*
X124915679Y-107097487D01*
X125073241Y-107202767D01*
X125207233Y-107336759D01*
X125207234Y-107336761D01*
X125312514Y-107494322D01*
X125368603Y-107629734D01*
X125385032Y-107669397D01*
X125422000Y-107855250D01*
X125422000Y-108044750D01*
X125385032Y-108230603D01*
X125385031Y-108230605D01*
X125312514Y-108405678D01*
X125312513Y-108405679D01*
X125207233Y-108563241D01*
X125073241Y-108697233D01*
X125014754Y-108736313D01*
X124915678Y-108802514D01*
X124780266Y-108858603D01*
X124740603Y-108875032D01*
X124554750Y-108912000D01*
X124365250Y-108912000D01*
X124179397Y-108875032D01*
X124139734Y-108858603D01*
X124004322Y-108802514D01*
X123905246Y-108736313D01*
X123846759Y-108697233D01*
X123712767Y-108563241D01*
X123607487Y-108405679D01*
X123607486Y-108405678D01*
X123534969Y-108230605D01*
X123534968Y-108230603D01*
X123498000Y-108044750D01*
X123498000Y-107855250D01*
X123534968Y-107669397D01*
X123551397Y-107629734D01*
X123607486Y-107494322D01*
X123712766Y-107336761D01*
X123712767Y-107336759D01*
X123846759Y-107202767D01*
X124004321Y-107097487D01*
X124004322Y-107097486D01*
X124179395Y-107024969D01*
X124179394Y-107024969D01*
X124179397Y-107024968D01*
X124365250Y-106988000D01*
X124554750Y-106988000D01*
X124740603Y-107024968D01*
X124740603Y-107024968D01*
G37*
G36*
X109500603Y-107024968D02*
X109500606Y-107024969D01*
X109500605Y-107024969D01*
X109675678Y-107097486D01*
X109675679Y-107097487D01*
X109833241Y-107202767D01*
X109967233Y-107336759D01*
X109967234Y-107336761D01*
X110072514Y-107494322D01*
X110128603Y-107629734D01*
X110145032Y-107669397D01*
X110182000Y-107855250D01*
X110182000Y-108044750D01*
X110145032Y-108230603D01*
X110145031Y-108230605D01*
X110072514Y-108405678D01*
X110072513Y-108405679D01*
X109967233Y-108563241D01*
X109833241Y-108697233D01*
X109774754Y-108736313D01*
X109675678Y-108802514D01*
X109540266Y-108858603D01*
X109500603Y-108875032D01*
X109314750Y-108912000D01*
X109125250Y-108912000D01*
X108939397Y-108875032D01*
X108899734Y-108858603D01*
X108764322Y-108802514D01*
X108665246Y-108736313D01*
X108606759Y-108697233D01*
X108472767Y-108563241D01*
X108367487Y-108405679D01*
X108367486Y-108405678D01*
X108294969Y-108230605D01*
X108294968Y-108230603D01*
X108258000Y-108044750D01*
X108258000Y-107855250D01*
X108294968Y-107669397D01*
X108311397Y-107629734D01*
X108367486Y-107494322D01*
X108472766Y-107336761D01*
X108472767Y-107336759D01*
X108606759Y-107202767D01*
X108764321Y-107097487D01*
X108764322Y-107097486D01*
X108939395Y-107024969D01*
X108939394Y-107024969D01*
X108939397Y-107024968D01*
X109125250Y-106988000D01*
X109314750Y-106988000D01*
X109500603Y-107024968D01*
X109500603Y-107024968D01*
G37*
G36*
X112040603Y-107024968D02*
X112040606Y-107024969D01*
X112040605Y-107024969D01*
X112215678Y-107097486D01*
X112215679Y-107097487D01*
X112373241Y-107202767D01*
X112507233Y-107336759D01*
X112507234Y-107336761D01*
X112612514Y-107494322D01*
X112668603Y-107629734D01*
X112685032Y-107669397D01*
X112722000Y-107855250D01*
X112722000Y-108044750D01*
X112685032Y-108230603D01*
X112685031Y-108230605D01*
X112612514Y-108405678D01*
X112612513Y-108405679D01*
X112507233Y-108563241D01*
X112373241Y-108697233D01*
X112314754Y-108736313D01*
X112215678Y-108802514D01*
X112080266Y-108858603D01*
X112040603Y-108875032D01*
X111854750Y-108912000D01*
X111665250Y-108912000D01*
X111479397Y-108875032D01*
X111439734Y-108858603D01*
X111304322Y-108802514D01*
X111205246Y-108736313D01*
X111146759Y-108697233D01*
X111012767Y-108563241D01*
X110907487Y-108405679D01*
X110907486Y-108405678D01*
X110834969Y-108230605D01*
X110834968Y-108230603D01*
X110798000Y-108044750D01*
X110798000Y-107855250D01*
X110834968Y-107669397D01*
X110851397Y-107629734D01*
X110907486Y-107494322D01*
X111012766Y-107336761D01*
X111012767Y-107336759D01*
X111146759Y-107202767D01*
X111304321Y-107097487D01*
X111304322Y-107097486D01*
X111479395Y-107024969D01*
X111479394Y-107024969D01*
X111479397Y-107024968D01*
X111665250Y-106988000D01*
X111854750Y-106988000D01*
X112040603Y-107024968D01*
X112040603Y-107024968D01*
G37*
G36*
X122200603Y-107024968D02*
X122200606Y-107024969D01*
X122200605Y-107024969D01*
X122375678Y-107097486D01*
X122375679Y-107097487D01*
X122533241Y-107202767D01*
X122667233Y-107336759D01*
X122667234Y-107336761D01*
X122772514Y-107494322D01*
X122828603Y-107629734D01*
X122845032Y-107669397D01*
X122882000Y-107855250D01*
X122882000Y-108044750D01*
X122845032Y-108230603D01*
X122845031Y-108230605D01*
X122772514Y-108405678D01*
X122772513Y-108405679D01*
X122667233Y-108563241D01*
X122533241Y-108697233D01*
X122474754Y-108736313D01*
X122375678Y-108802514D01*
X122240266Y-108858603D01*
X122200603Y-108875032D01*
X122014750Y-108912000D01*
X121825250Y-108912000D01*
X121639397Y-108875032D01*
X121599734Y-108858603D01*
X121464322Y-108802514D01*
X121365246Y-108736313D01*
X121306759Y-108697233D01*
X121172767Y-108563241D01*
X121067487Y-108405679D01*
X121067486Y-108405678D01*
X120994969Y-108230605D01*
X120994968Y-108230603D01*
X120958000Y-108044750D01*
X120958000Y-107855250D01*
X120994968Y-107669397D01*
X121011397Y-107629734D01*
X121067486Y-107494322D01*
X121172766Y-107336761D01*
X121172767Y-107336759D01*
X121306759Y-107202767D01*
X121464321Y-107097487D01*
X121464322Y-107097486D01*
X121639395Y-107024969D01*
X121639394Y-107024969D01*
X121639397Y-107024968D01*
X121825250Y-106988000D01*
X122014750Y-106988000D01*
X122200603Y-107024968D01*
X122200603Y-107024968D01*
G37*
G36*
X106960603Y-107024968D02*
X106960606Y-107024969D01*
X106960605Y-107024969D01*
X107135678Y-107097486D01*
X107135679Y-107097487D01*
X107293241Y-107202767D01*
X107427233Y-107336759D01*
X107427234Y-107336761D01*
X107532514Y-107494322D01*
X107588603Y-107629734D01*
X107605032Y-107669397D01*
X107642000Y-107855250D01*
X107642000Y-108044750D01*
X107605032Y-108230603D01*
X107605031Y-108230605D01*
X107532514Y-108405678D01*
X107532513Y-108405679D01*
X107427233Y-108563241D01*
X107293241Y-108697233D01*
X107234754Y-108736313D01*
X107135678Y-108802514D01*
X107000266Y-108858603D01*
X106960603Y-108875032D01*
X106774750Y-108912000D01*
X106585250Y-108912000D01*
X106399397Y-108875032D01*
X106359734Y-108858603D01*
X106224322Y-108802514D01*
X106125246Y-108736313D01*
X106066759Y-108697233D01*
X105932767Y-108563241D01*
X105827487Y-108405679D01*
X105827486Y-108405678D01*
X105754969Y-108230605D01*
X105754968Y-108230603D01*
X105718000Y-108044750D01*
X105718000Y-107855250D01*
X105754968Y-107669397D01*
X105771397Y-107629734D01*
X105827486Y-107494322D01*
X105932766Y-107336761D01*
X105932767Y-107336759D01*
X106066759Y-107202767D01*
X106224321Y-107097487D01*
X106224322Y-107097486D01*
X106399395Y-107024969D01*
X106399394Y-107024969D01*
X106399397Y-107024968D01*
X106585250Y-106988000D01*
X106774750Y-106988000D01*
X106960603Y-107024968D01*
X106960603Y-107024968D01*
G37*
G36*
X159030603Y-106262968D02*
X159030606Y-106262969D01*
X159030605Y-106262969D01*
X159205678Y-106335486D01*
X159205679Y-106335487D01*
X159363241Y-106440767D01*
X159497233Y-106574759D01*
X159497234Y-106574761D01*
X159602514Y-106732322D01*
X159658603Y-106867734D01*
X159675032Y-106907397D01*
X159712000Y-107093250D01*
X159712000Y-107282750D01*
X159675032Y-107468603D01*
X159675031Y-107468605D01*
X159602514Y-107643678D01*
X159602513Y-107643679D01*
X159497233Y-107801241D01*
X159363241Y-107935233D01*
X159283923Y-107988232D01*
X159205678Y-108040514D01*
X159070266Y-108096603D01*
X159030603Y-108113032D01*
X158844750Y-108150000D01*
X158655250Y-108150000D01*
X158469397Y-108113032D01*
X158429734Y-108096603D01*
X158294322Y-108040514D01*
X158216077Y-107988232D01*
X158136759Y-107935233D01*
X158002767Y-107801241D01*
X157897487Y-107643679D01*
X157897486Y-107643678D01*
X157824969Y-107468605D01*
X157824968Y-107468603D01*
X157788000Y-107282750D01*
X157788000Y-107093250D01*
X157824968Y-106907397D01*
X157841397Y-106867734D01*
X157897486Y-106732322D01*
X158002766Y-106574761D01*
X158002767Y-106574759D01*
X158136759Y-106440767D01*
X158294321Y-106335487D01*
X158294322Y-106335486D01*
X158469395Y-106262969D01*
X158469394Y-106262969D01*
X158469397Y-106262968D01*
X158655250Y-106226000D01*
X158844750Y-106226000D01*
X159030603Y-106262968D01*
X159030603Y-106262968D01*
G37*
G36*
X159030603Y-103722968D02*
X159030606Y-103722969D01*
X159030605Y-103722969D01*
X159205678Y-103795486D01*
X159205679Y-103795487D01*
X159363241Y-103900767D01*
X159497233Y-104034759D01*
X159497234Y-104034761D01*
X159602514Y-104192322D01*
X159658603Y-104327734D01*
X159675032Y-104367397D01*
X159712000Y-104553250D01*
X159712000Y-104742750D01*
X159675032Y-104928603D01*
X159675031Y-104928605D01*
X159602514Y-105103678D01*
X159602513Y-105103679D01*
X159497233Y-105261241D01*
X159363241Y-105395233D01*
X159283923Y-105448232D01*
X159205678Y-105500514D01*
X159070266Y-105556603D01*
X159030603Y-105573032D01*
X158844750Y-105610000D01*
X158655250Y-105610000D01*
X158469397Y-105573032D01*
X158429734Y-105556603D01*
X158294322Y-105500514D01*
X158216077Y-105448232D01*
X158136759Y-105395233D01*
X158002767Y-105261241D01*
X157897487Y-105103679D01*
X157897486Y-105103678D01*
X157824969Y-104928605D01*
X157824968Y-104928603D01*
X157788000Y-104742750D01*
X157788000Y-104553250D01*
X157824968Y-104367397D01*
X157841397Y-104327734D01*
X157897486Y-104192322D01*
X158002766Y-104034761D01*
X158002767Y-104034759D01*
X158136759Y-103900767D01*
X158294321Y-103795487D01*
X158294322Y-103795486D01*
X158469395Y-103722969D01*
X158469394Y-103722969D01*
X158469397Y-103722968D01*
X158655250Y-103686000D01*
X158844750Y-103686000D01*
X159030603Y-103722968D01*
X159030603Y-103722968D01*
G37*
G36*
X159030603Y-101182968D02*
X159030606Y-101182969D01*
X159030605Y-101182969D01*
X159205678Y-101255486D01*
X159205679Y-101255487D01*
X159363241Y-101360767D01*
X159497233Y-101494759D01*
X159497234Y-101494761D01*
X159602514Y-101652322D01*
X159658603Y-101787734D01*
X159675032Y-101827397D01*
X159712000Y-102013250D01*
X159712000Y-102202750D01*
X159675032Y-102388603D01*
X159675031Y-102388605D01*
X159602514Y-102563678D01*
X159602513Y-102563679D01*
X159497233Y-102721241D01*
X159363241Y-102855233D01*
X159283923Y-102908232D01*
X159205678Y-102960514D01*
X159070266Y-103016603D01*
X159030603Y-103033032D01*
X158844750Y-103070000D01*
X158655250Y-103070000D01*
X158469397Y-103033032D01*
X158429734Y-103016603D01*
X158294322Y-102960514D01*
X158216077Y-102908232D01*
X158136759Y-102855233D01*
X158002767Y-102721241D01*
X157897487Y-102563679D01*
X157897486Y-102563678D01*
X157824969Y-102388605D01*
X157824968Y-102388603D01*
X157788000Y-102202750D01*
X157788000Y-102013250D01*
X157824968Y-101827397D01*
X157841397Y-101787734D01*
X157897486Y-101652322D01*
X158002766Y-101494761D01*
X158002767Y-101494759D01*
X158136759Y-101360767D01*
X158294321Y-101255487D01*
X158294322Y-101255486D01*
X158469395Y-101182969D01*
X158469394Y-101182969D01*
X158469397Y-101182968D01*
X158655250Y-101146000D01*
X158844750Y-101146000D01*
X159030603Y-101182968D01*
X159030603Y-101182968D01*
G37*
G36*
X112455300Y-96745400D02*
X111064700Y-96745400D01*
X111064700Y-94567400D01*
X112455300Y-94567400D01*
X112455300Y-96745400D01*
X112455300Y-96745400D01*
G37*
G36*
X56575300Y-96745400D02*
X55184700Y-96745400D01*
X55184700Y-94567400D01*
X56575300Y-94567400D01*
X56575300Y-96745400D01*
X56575300Y-96745400D01*
G37*
G36*
X41335300Y-96745400D02*
X39944700Y-96745400D01*
X39944700Y-94567400D01*
X41335300Y-94567400D01*
X41335300Y-96745400D01*
X41335300Y-96745400D01*
G37*
G36*
X43875300Y-96745400D02*
X42484700Y-96745400D01*
X42484700Y-94567400D01*
X43875300Y-94567400D01*
X43875300Y-96745400D01*
X43875300Y-96745400D01*
G37*
G36*
X46415300Y-96745400D02*
X45024700Y-96745400D01*
X45024700Y-94567400D01*
X46415300Y-94567400D01*
X46415300Y-96745400D01*
X46415300Y-96745400D01*
G37*
G36*
X48955300Y-96745400D02*
X47564700Y-96745400D01*
X47564700Y-94567400D01*
X48955300Y-94567400D01*
X48955300Y-96745400D01*
X48955300Y-96745400D01*
G37*
G36*
X51495300Y-96745400D02*
X50104700Y-96745400D01*
X50104700Y-94567400D01*
X51495300Y-94567400D01*
X51495300Y-96745400D01*
X51495300Y-96745400D01*
G37*
G36*
X109915300Y-96745400D02*
X108524700Y-96745400D01*
X108524700Y-94567400D01*
X109915300Y-94567400D01*
X109915300Y-96745400D01*
X109915300Y-96745400D01*
G37*
G36*
X114995300Y-96745400D02*
X113604700Y-96745400D01*
X113604700Y-94567400D01*
X114995300Y-94567400D01*
X114995300Y-96745400D01*
X114995300Y-96745400D01*
G37*
G36*
X117535300Y-96745400D02*
X116144700Y-96745400D01*
X116144700Y-94567400D01*
X117535300Y-94567400D01*
X117535300Y-96745400D01*
X117535300Y-96745400D01*
G37*
G36*
X122615300Y-96745400D02*
X121224700Y-96745400D01*
X121224700Y-94567400D01*
X122615300Y-94567400D01*
X122615300Y-96745400D01*
X122615300Y-96745400D01*
G37*
G36*
X120075300Y-96745400D02*
X118684700Y-96745400D01*
X118684700Y-94567400D01*
X120075300Y-94567400D01*
X120075300Y-96745400D01*
X120075300Y-96745400D01*
G37*
G36*
X125155300Y-96745400D02*
X123764700Y-96745400D01*
X123764700Y-94567400D01*
X125155300Y-94567400D01*
X125155300Y-96745400D01*
X125155300Y-96745400D01*
G37*
G36*
X127695300Y-96745400D02*
X126304700Y-96745400D01*
X126304700Y-94567400D01*
X127695300Y-94567400D01*
X127695300Y-96745400D01*
X127695300Y-96745400D01*
G37*
G36*
X107375300Y-96745400D02*
X105984700Y-96745400D01*
X105984700Y-94567400D01*
X107375300Y-94567400D01*
X107375300Y-96745400D01*
X107375300Y-96745400D01*
G37*
G36*
X104835300Y-96745400D02*
X103444700Y-96745400D01*
X103444700Y-94567400D01*
X104835300Y-94567400D01*
X104835300Y-96745400D01*
X104835300Y-96745400D01*
G37*
G36*
X64195300Y-96745400D02*
X62804700Y-96745400D01*
X62804700Y-94567400D01*
X64195300Y-94567400D01*
X64195300Y-96745400D01*
X64195300Y-96745400D01*
G37*
G36*
X61655300Y-96745400D02*
X60264700Y-96745400D01*
X60264700Y-94567400D01*
X61655300Y-94567400D01*
X61655300Y-96745400D01*
X61655300Y-96745400D01*
G37*
G36*
X54035300Y-96745400D02*
X52644700Y-96745400D01*
X52644700Y-94567400D01*
X54035300Y-94567400D01*
X54035300Y-96745400D01*
X54035300Y-96745400D01*
G37*
G36*
X59115300Y-96745400D02*
X57724700Y-96745400D01*
X57724700Y-94567400D01*
X59115300Y-94567400D01*
X59115300Y-96745400D01*
X59115300Y-96745400D01*
G37*
G36*
X104835300Y-90852600D02*
X103444700Y-90852600D01*
X103444700Y-88674600D01*
X104835300Y-88674600D01*
X104835300Y-90852600D01*
X104835300Y-90852600D01*
G37*
G36*
X64195300Y-90852600D02*
X62804700Y-90852600D01*
X62804700Y-88674600D01*
X64195300Y-88674600D01*
X64195300Y-90852600D01*
X64195300Y-90852600D01*
G37*
G36*
X61655300Y-90852600D02*
X60264700Y-90852600D01*
X60264700Y-88674600D01*
X61655300Y-88674600D01*
X61655300Y-90852600D01*
X61655300Y-90852600D01*
G37*
G36*
X54035300Y-90852600D02*
X52644700Y-90852600D01*
X52644700Y-88674600D01*
X54035300Y-88674600D01*
X54035300Y-90852600D01*
X54035300Y-90852600D01*
G37*
G36*
X51495300Y-90852600D02*
X50104700Y-90852600D01*
X50104700Y-88674600D01*
X51495300Y-88674600D01*
X51495300Y-90852600D01*
X51495300Y-90852600D01*
G37*
G36*
X48955300Y-90852600D02*
X47564700Y-90852600D01*
X47564700Y-88674600D01*
X48955300Y-88674600D01*
X48955300Y-90852600D01*
X48955300Y-90852600D01*
G37*
G36*
X46415300Y-90852600D02*
X45024700Y-90852600D01*
X45024700Y-88674600D01*
X46415300Y-88674600D01*
X46415300Y-90852600D01*
X46415300Y-90852600D01*
G37*
G36*
X43875300Y-90852600D02*
X42484700Y-90852600D01*
X42484700Y-88674600D01*
X43875300Y-88674600D01*
X43875300Y-90852600D01*
X43875300Y-90852600D01*
G37*
G36*
X41335300Y-90852600D02*
X39944700Y-90852600D01*
X39944700Y-88674600D01*
X41335300Y-88674600D01*
X41335300Y-90852600D01*
X41335300Y-90852600D01*
G37*
G36*
X127695300Y-90852600D02*
X126304700Y-90852600D01*
X126304700Y-88674600D01*
X127695300Y-88674600D01*
X127695300Y-90852600D01*
X127695300Y-90852600D01*
G37*
G36*
X109915300Y-90852600D02*
X108524700Y-90852600D01*
X108524700Y-88674600D01*
X109915300Y-88674600D01*
X109915300Y-90852600D01*
X109915300Y-90852600D01*
G37*
G36*
X56575300Y-90852600D02*
X55184700Y-90852600D01*
X55184700Y-88674600D01*
X56575300Y-88674600D01*
X56575300Y-90852600D01*
X56575300Y-90852600D01*
G37*
G36*
X125155300Y-90852600D02*
X123764700Y-90852600D01*
X123764700Y-88674600D01*
X125155300Y-88674600D01*
X125155300Y-90852600D01*
X125155300Y-90852600D01*
G37*
G36*
X117535300Y-90852600D02*
X116144700Y-90852600D01*
X116144700Y-88674600D01*
X117535300Y-88674600D01*
X117535300Y-90852600D01*
X117535300Y-90852600D01*
G37*
G36*
X120075300Y-90852600D02*
X118684700Y-90852600D01*
X118684700Y-88674600D01*
X120075300Y-88674600D01*
X120075300Y-90852600D01*
X120075300Y-90852600D01*
G37*
G36*
X122615300Y-90852600D02*
X121224700Y-90852600D01*
X121224700Y-88674600D01*
X122615300Y-88674600D01*
X122615300Y-90852600D01*
X122615300Y-90852600D01*
G37*
G36*
X114995300Y-90852600D02*
X113604700Y-90852600D01*
X113604700Y-88674600D01*
X114995300Y-88674600D01*
X114995300Y-90852600D01*
X114995300Y-90852600D01*
G37*
G36*
X112455300Y-90852600D02*
X111064700Y-90852600D01*
X111064700Y-88674600D01*
X112455300Y-88674600D01*
X112455300Y-90852600D01*
X112455300Y-90852600D01*
G37*
G36*
X59115300Y-90852600D02*
X57724700Y-90852600D01*
X57724700Y-88674600D01*
X59115300Y-88674600D01*
X59115300Y-90852600D01*
X59115300Y-90852600D01*
G37*
G36*
X107375300Y-90852600D02*
X105984700Y-90852600D01*
X105984700Y-88674600D01*
X107375300Y-88674600D01*
X107375300Y-90852600D01*
X107375300Y-90852600D01*
G37*
G36*
X104801603Y-79465968D02*
X104801606Y-79465969D01*
X104801605Y-79465969D01*
X104976678Y-79538486D01*
X104976679Y-79538487D01*
X105134241Y-79643767D01*
X105268233Y-79777759D01*
X105268234Y-79777761D01*
X105373514Y-79935322D01*
X105429603Y-80070734D01*
X105446032Y-80110397D01*
X105483000Y-80296250D01*
X105483000Y-80485750D01*
X105446032Y-80671603D01*
X105446031Y-80671605D01*
X105373514Y-80846678D01*
X105373513Y-80846679D01*
X105268233Y-81004241D01*
X105134241Y-81138233D01*
X105054923Y-81191232D01*
X104976678Y-81243514D01*
X104841266Y-81299603D01*
X104801603Y-81316032D01*
X104615750Y-81353000D01*
X104426250Y-81353000D01*
X104240397Y-81316032D01*
X104200734Y-81299603D01*
X104065322Y-81243514D01*
X103987077Y-81191232D01*
X103907759Y-81138233D01*
X103773767Y-81004241D01*
X103668487Y-80846679D01*
X103668486Y-80846678D01*
X103595969Y-80671605D01*
X103595968Y-80671603D01*
X103559000Y-80485750D01*
X103559000Y-80296250D01*
X103595968Y-80110397D01*
X103612397Y-80070734D01*
X103668486Y-79935322D01*
X103773766Y-79777761D01*
X103773767Y-79777759D01*
X103907759Y-79643767D01*
X104065321Y-79538487D01*
X104065322Y-79538486D01*
X104240395Y-79465969D01*
X104240394Y-79465969D01*
X104240397Y-79465968D01*
X104426250Y-79429000D01*
X104615750Y-79429000D01*
X104801603Y-79465968D01*
X104801603Y-79465968D01*
G37*
G36*
X102261603Y-79465968D02*
X102261606Y-79465969D01*
X102261605Y-79465969D01*
X102436678Y-79538486D01*
X102436679Y-79538487D01*
X102594241Y-79643767D01*
X102728233Y-79777759D01*
X102728234Y-79777761D01*
X102833514Y-79935322D01*
X102889603Y-80070734D01*
X102906032Y-80110397D01*
X102943000Y-80296250D01*
X102943000Y-80485750D01*
X102906032Y-80671603D01*
X102906031Y-80671605D01*
X102833514Y-80846678D01*
X102833513Y-80846679D01*
X102728233Y-81004241D01*
X102594241Y-81138233D01*
X102514923Y-81191232D01*
X102436678Y-81243514D01*
X102301266Y-81299603D01*
X102261603Y-81316032D01*
X102075750Y-81353000D01*
X101886250Y-81353000D01*
X101700397Y-81316032D01*
X101660734Y-81299603D01*
X101525322Y-81243514D01*
X101447077Y-81191232D01*
X101367759Y-81138233D01*
X101233767Y-81004241D01*
X101128487Y-80846679D01*
X101128486Y-80846678D01*
X101055969Y-80671605D01*
X101055968Y-80671603D01*
X101019000Y-80485750D01*
X101019000Y-80296250D01*
X101055968Y-80110397D01*
X101072397Y-80070734D01*
X101128486Y-79935322D01*
X101233766Y-79777761D01*
X101233767Y-79777759D01*
X101367759Y-79643767D01*
X101525321Y-79538487D01*
X101525322Y-79538486D01*
X101700395Y-79465969D01*
X101700394Y-79465969D01*
X101700397Y-79465968D01*
X101886250Y-79429000D01*
X102075750Y-79429000D01*
X102261603Y-79465968D01*
X102261603Y-79465968D01*
G37*
G36*
X99721603Y-79465968D02*
X99721606Y-79465969D01*
X99721605Y-79465969D01*
X99896678Y-79538486D01*
X99896679Y-79538487D01*
X100054241Y-79643767D01*
X100188233Y-79777759D01*
X100188234Y-79777761D01*
X100293514Y-79935322D01*
X100349603Y-80070734D01*
X100366032Y-80110397D01*
X100403000Y-80296250D01*
X100403000Y-80485750D01*
X100366032Y-80671603D01*
X100366031Y-80671605D01*
X100293514Y-80846678D01*
X100293513Y-80846679D01*
X100188233Y-81004241D01*
X100054241Y-81138233D01*
X99974923Y-81191232D01*
X99896678Y-81243514D01*
X99761266Y-81299603D01*
X99721603Y-81316032D01*
X99535750Y-81353000D01*
X99346250Y-81353000D01*
X99160397Y-81316032D01*
X99120734Y-81299603D01*
X98985322Y-81243514D01*
X98907077Y-81191232D01*
X98827759Y-81138233D01*
X98693767Y-81004241D01*
X98588487Y-80846679D01*
X98588486Y-80846678D01*
X98515969Y-80671605D01*
X98515968Y-80671603D01*
X98479000Y-80485750D01*
X98479000Y-80296250D01*
X98515968Y-80110397D01*
X98532397Y-80070734D01*
X98588486Y-79935322D01*
X98693766Y-79777761D01*
X98693767Y-79777759D01*
X98827759Y-79643767D01*
X98985321Y-79538487D01*
X98985322Y-79538486D01*
X99160395Y-79465969D01*
X99160394Y-79465969D01*
X99160397Y-79465968D01*
X99346250Y-79429000D01*
X99535750Y-79429000D01*
X99721603Y-79465968D01*
X99721603Y-79465968D01*
G37*
G36*
X115850603Y-79465968D02*
X115850606Y-79465969D01*
X115850605Y-79465969D01*
X116025678Y-79538486D01*
X116025679Y-79538487D01*
X116183241Y-79643767D01*
X116317233Y-79777759D01*
X116317234Y-79777761D01*
X116422514Y-79935322D01*
X116478603Y-80070734D01*
X116495032Y-80110397D01*
X116532000Y-80296250D01*
X116532000Y-80485750D01*
X116495032Y-80671603D01*
X116495031Y-80671605D01*
X116422514Y-80846678D01*
X116422513Y-80846679D01*
X116317233Y-81004241D01*
X116183241Y-81138233D01*
X116103923Y-81191232D01*
X116025678Y-81243514D01*
X115890266Y-81299603D01*
X115850603Y-81316032D01*
X115664750Y-81353000D01*
X115475250Y-81353000D01*
X115289397Y-81316032D01*
X115249734Y-81299603D01*
X115114322Y-81243514D01*
X115036077Y-81191232D01*
X114956759Y-81138233D01*
X114822767Y-81004241D01*
X114717487Y-80846679D01*
X114717486Y-80846678D01*
X114644969Y-80671605D01*
X114644968Y-80671603D01*
X114608000Y-80485750D01*
X114608000Y-80296250D01*
X114644968Y-80110397D01*
X114661397Y-80070734D01*
X114717486Y-79935322D01*
X114822766Y-79777761D01*
X114822767Y-79777759D01*
X114956759Y-79643767D01*
X115114321Y-79538487D01*
X115114322Y-79538486D01*
X115289395Y-79465969D01*
X115289394Y-79465969D01*
X115289397Y-79465968D01*
X115475250Y-79429000D01*
X115664750Y-79429000D01*
X115850603Y-79465968D01*
X115850603Y-79465968D01*
G37*
G36*
X113310603Y-79465968D02*
X113310606Y-79465969D01*
X113310605Y-79465969D01*
X113485678Y-79538486D01*
X113485679Y-79538487D01*
X113643241Y-79643767D01*
X113777233Y-79777759D01*
X113777234Y-79777761D01*
X113882514Y-79935322D01*
X113938603Y-80070734D01*
X113955032Y-80110397D01*
X113992000Y-80296250D01*
X113992000Y-80485750D01*
X113955032Y-80671603D01*
X113955031Y-80671605D01*
X113882514Y-80846678D01*
X113882513Y-80846679D01*
X113777233Y-81004241D01*
X113643241Y-81138233D01*
X113563923Y-81191232D01*
X113485678Y-81243514D01*
X113350266Y-81299603D01*
X113310603Y-81316032D01*
X113124750Y-81353000D01*
X112935250Y-81353000D01*
X112749397Y-81316032D01*
X112709734Y-81299603D01*
X112574322Y-81243514D01*
X112496077Y-81191232D01*
X112416759Y-81138233D01*
X112282767Y-81004241D01*
X112177487Y-80846679D01*
X112177486Y-80846678D01*
X112104969Y-80671605D01*
X112104968Y-80671603D01*
X112068000Y-80485750D01*
X112068000Y-80296250D01*
X112104968Y-80110397D01*
X112121397Y-80070734D01*
X112177486Y-79935322D01*
X112282766Y-79777761D01*
X112282767Y-79777759D01*
X112416759Y-79643767D01*
X112574321Y-79538487D01*
X112574322Y-79538486D01*
X112749395Y-79465969D01*
X112749394Y-79465969D01*
X112749397Y-79465968D01*
X112935250Y-79429000D01*
X113124750Y-79429000D01*
X113310603Y-79465968D01*
X113310603Y-79465968D01*
G37*
G36*
X110770603Y-79465968D02*
X110770606Y-79465969D01*
X110770605Y-79465969D01*
X110945678Y-79538486D01*
X110945679Y-79538487D01*
X111103241Y-79643767D01*
X111237233Y-79777759D01*
X111237234Y-79777761D01*
X111342514Y-79935322D01*
X111398603Y-80070734D01*
X111415032Y-80110397D01*
X111452000Y-80296250D01*
X111452000Y-80485750D01*
X111415032Y-80671603D01*
X111415031Y-80671605D01*
X111342514Y-80846678D01*
X111342513Y-80846679D01*
X111237233Y-81004241D01*
X111103241Y-81138233D01*
X111023923Y-81191232D01*
X110945678Y-81243514D01*
X110810266Y-81299603D01*
X110770603Y-81316032D01*
X110584750Y-81353000D01*
X110395250Y-81353000D01*
X110209397Y-81316032D01*
X110169734Y-81299603D01*
X110034322Y-81243514D01*
X109956077Y-81191232D01*
X109876759Y-81138233D01*
X109742767Y-81004241D01*
X109637487Y-80846679D01*
X109637486Y-80846678D01*
X109564969Y-80671605D01*
X109564968Y-80671603D01*
X109528000Y-80485750D01*
X109528000Y-80296250D01*
X109564968Y-80110397D01*
X109581397Y-80070734D01*
X109637486Y-79935322D01*
X109742766Y-79777761D01*
X109742767Y-79777759D01*
X109876759Y-79643767D01*
X110034321Y-79538487D01*
X110034322Y-79538486D01*
X110209395Y-79465969D01*
X110209394Y-79465969D01*
X110209397Y-79465968D01*
X110395250Y-79429000D01*
X110584750Y-79429000D01*
X110770603Y-79465968D01*
X110770603Y-79465968D01*
G37*
G36*
X47612775Y-60195197D02*
X47789229Y-60230296D01*
X48287877Y-60436843D01*
X48564700Y-60621811D01*
X48736651Y-60736705D01*
X49118295Y-61118349D01*
X49118297Y-61118352D01*
X49418157Y-61567123D01*
X49624704Y-62065771D01*
X49640556Y-62145466D01*
X49668262Y-62284751D01*
X49730000Y-62595134D01*
X49730000Y-63134866D01*
X49624704Y-63664229D01*
X49418157Y-64162877D01*
X49120319Y-64608621D01*
X49118295Y-64611651D01*
X48736651Y-64993295D01*
X48736648Y-64993297D01*
X48287877Y-65293157D01*
X47789229Y-65499704D01*
X47612775Y-65534803D01*
X47259868Y-65605000D01*
X46720132Y-65605000D01*
X46367225Y-65534803D01*
X46190771Y-65499704D01*
X45692123Y-65293157D01*
X45243352Y-64993297D01*
X45243349Y-64993295D01*
X44861705Y-64611651D01*
X44859681Y-64608621D01*
X44561843Y-64162877D01*
X44355296Y-63664229D01*
X44250000Y-63134866D01*
X44250000Y-62595134D01*
X44311739Y-62284751D01*
X44339444Y-62145466D01*
X44355296Y-62065771D01*
X44561843Y-61567123D01*
X44861703Y-61118352D01*
X44861705Y-61118349D01*
X45243349Y-60736705D01*
X45415300Y-60621811D01*
X45692123Y-60436843D01*
X46190771Y-60230296D01*
X46367225Y-60195197D01*
X46720132Y-60125000D01*
X47259868Y-60125000D01*
X47612775Y-60195197D01*
X47612775Y-60195197D01*
G37*
G36*
X155816775Y-60195197D02*
X155993229Y-60230296D01*
X156491877Y-60436843D01*
X156768700Y-60621811D01*
X156940651Y-60736705D01*
X157322295Y-61118349D01*
X157322297Y-61118352D01*
X157622157Y-61567123D01*
X157828704Y-62065771D01*
X157844556Y-62145466D01*
X157872262Y-62284751D01*
X157934000Y-62595134D01*
X157934000Y-63134866D01*
X157828704Y-63664229D01*
X157622157Y-64162877D01*
X157324319Y-64608621D01*
X157322295Y-64611651D01*
X156940651Y-64993295D01*
X156940648Y-64993297D01*
X156491877Y-65293157D01*
X155993229Y-65499704D01*
X155816775Y-65534803D01*
X155463868Y-65605000D01*
X154924132Y-65605000D01*
X154571225Y-65534803D01*
X154394771Y-65499704D01*
X153896123Y-65293157D01*
X153447352Y-64993297D01*
X153447349Y-64993295D01*
X153065705Y-64611651D01*
X153063681Y-64608621D01*
X152765843Y-64162877D01*
X152559296Y-63664229D01*
X152454000Y-63134866D01*
X152454000Y-62595134D01*
X152515739Y-62284751D01*
X152543444Y-62145466D01*
X152559296Y-62065771D01*
X152765843Y-61567123D01*
X153065703Y-61118352D01*
X153065705Y-61118349D01*
X153447349Y-60736705D01*
X153619300Y-60621811D01*
X153896123Y-60436843D01*
X154394771Y-60230296D01*
X154571225Y-60195197D01*
X154924132Y-60125000D01*
X155463868Y-60125000D01*
X155816775Y-60195197D01*
X155816775Y-60195197D01*
G37*
G36*
X132956775Y-60195197D02*
X133133229Y-60230296D01*
X133631877Y-60436843D01*
X133908700Y-60621811D01*
X134080651Y-60736705D01*
X134462295Y-61118349D01*
X134462297Y-61118352D01*
X134762157Y-61567123D01*
X134968704Y-62065771D01*
X134984556Y-62145466D01*
X135012262Y-62284751D01*
X135074000Y-62595134D01*
X135074000Y-63134866D01*
X134968704Y-63664229D01*
X134762157Y-64162877D01*
X134464319Y-64608621D01*
X134462295Y-64611651D01*
X134080651Y-64993295D01*
X134080648Y-64993297D01*
X133631877Y-65293157D01*
X133133229Y-65499704D01*
X132956775Y-65534803D01*
X132603868Y-65605000D01*
X132064132Y-65605000D01*
X131711225Y-65534803D01*
X131534771Y-65499704D01*
X131036123Y-65293157D01*
X130587352Y-64993297D01*
X130587349Y-64993295D01*
X130205705Y-64611651D01*
X130203681Y-64608621D01*
X129905843Y-64162877D01*
X129699296Y-63664229D01*
X129594000Y-63134866D01*
X129594000Y-62595134D01*
X129655739Y-62284751D01*
X129683444Y-62145466D01*
X129699296Y-62065771D01*
X129905843Y-61567123D01*
X130205703Y-61118352D01*
X130205705Y-61118349D01*
X130587349Y-60736705D01*
X130759300Y-60621811D01*
X131036123Y-60436843D01*
X131534771Y-60230296D01*
X131711225Y-60195197D01*
X132064132Y-60125000D01*
X132603868Y-60125000D01*
X132956775Y-60195197D01*
X132956775Y-60195197D01*
G37*
G36*
X70472775Y-60195197D02*
X70649229Y-60230296D01*
X71147877Y-60436843D01*
X71424700Y-60621811D01*
X71596651Y-60736705D01*
X71978295Y-61118349D01*
X71978297Y-61118352D01*
X72278157Y-61567123D01*
X72484704Y-62065771D01*
X72500556Y-62145466D01*
X72528262Y-62284751D01*
X72590000Y-62595134D01*
X72590000Y-63134866D01*
X72484704Y-63664229D01*
X72278157Y-64162877D01*
X71980319Y-64608621D01*
X71978295Y-64611651D01*
X71596651Y-64993295D01*
X71596648Y-64993297D01*
X71147877Y-65293157D01*
X70649229Y-65499704D01*
X70472775Y-65534803D01*
X70119868Y-65605000D01*
X69580132Y-65605000D01*
X69227225Y-65534803D01*
X69050771Y-65499704D01*
X68552123Y-65293157D01*
X68103352Y-64993297D01*
X68103349Y-64993295D01*
X67721705Y-64611651D01*
X67719681Y-64608621D01*
X67421843Y-64162877D01*
X67215296Y-63664229D01*
X67110000Y-63134866D01*
X67110000Y-62595134D01*
X67171739Y-62284751D01*
X67199444Y-62145466D01*
X67215296Y-62065771D01*
X67421843Y-61567123D01*
X67721703Y-61118352D01*
X67721705Y-61118349D01*
X68103349Y-60736705D01*
X68275300Y-60621811D01*
X68552123Y-60436843D01*
X69050771Y-60230296D01*
X69227225Y-60195197D01*
X69580132Y-60125000D01*
X70119868Y-60125000D01*
X70472775Y-60195197D01*
X70472775Y-60195197D01*
G37*
G36*
X78346775Y-60195197D02*
X78523229Y-60230296D01*
X79021877Y-60436843D01*
X79298700Y-60621811D01*
X79470651Y-60736705D01*
X79852295Y-61118349D01*
X79852297Y-61118352D01*
X80152157Y-61567123D01*
X80358704Y-62065771D01*
X80374556Y-62145466D01*
X80402262Y-62284751D01*
X80464000Y-62595134D01*
X80464000Y-63134866D01*
X80358704Y-63664229D01*
X80152157Y-64162877D01*
X79854319Y-64608621D01*
X79852295Y-64611651D01*
X79470651Y-64993295D01*
X79470648Y-64993297D01*
X79021877Y-65293157D01*
X78523229Y-65499704D01*
X78346775Y-65534803D01*
X77993868Y-65605000D01*
X77454132Y-65605000D01*
X77101225Y-65534803D01*
X76924771Y-65499704D01*
X76426123Y-65293157D01*
X75977352Y-64993297D01*
X75977349Y-64993295D01*
X75595705Y-64611651D01*
X75593681Y-64608621D01*
X75295843Y-64162877D01*
X75089296Y-63664229D01*
X74984000Y-63134866D01*
X74984000Y-62595134D01*
X75045739Y-62284751D01*
X75073444Y-62145466D01*
X75089296Y-62065771D01*
X75295843Y-61567123D01*
X75595703Y-61118352D01*
X75595705Y-61118349D01*
X75977349Y-60736705D01*
X76149300Y-60621811D01*
X76426123Y-60436843D01*
X76924771Y-60230296D01*
X77101225Y-60195197D01*
X77454132Y-60125000D01*
X77993868Y-60125000D01*
X78346775Y-60195197D01*
X78346775Y-60195197D01*
G37*
G36*
X55486775Y-60195197D02*
X55663229Y-60230296D01*
X56161877Y-60436843D01*
X56438700Y-60621811D01*
X56610651Y-60736705D01*
X56992295Y-61118349D01*
X56992297Y-61118352D01*
X57292157Y-61567123D01*
X57498704Y-62065771D01*
X57514556Y-62145466D01*
X57542262Y-62284751D01*
X57604000Y-62595134D01*
X57604000Y-63134866D01*
X57498704Y-63664229D01*
X57292157Y-64162877D01*
X56994319Y-64608621D01*
X56992295Y-64611651D01*
X56610651Y-64993295D01*
X56610648Y-64993297D01*
X56161877Y-65293157D01*
X55663229Y-65499704D01*
X55486775Y-65534803D01*
X55133868Y-65605000D01*
X54594132Y-65605000D01*
X54241225Y-65534803D01*
X54064771Y-65499704D01*
X53566123Y-65293157D01*
X53117352Y-64993297D01*
X53117349Y-64993295D01*
X52735705Y-64611651D01*
X52733681Y-64608621D01*
X52435843Y-64162877D01*
X52229296Y-63664229D01*
X52124000Y-63134866D01*
X52124000Y-62595134D01*
X52185739Y-62284751D01*
X52213444Y-62145466D01*
X52229296Y-62065771D01*
X52435843Y-61567123D01*
X52735703Y-61118352D01*
X52735705Y-61118349D01*
X53117349Y-60736705D01*
X53289300Y-60621811D01*
X53566123Y-60436843D01*
X54064771Y-60230296D01*
X54241225Y-60195197D01*
X54594132Y-60125000D01*
X55133868Y-60125000D01*
X55486775Y-60195197D01*
X55486775Y-60195197D01*
G37*
G36*
X110985775Y-60195197D02*
X111162229Y-60230296D01*
X111660877Y-60436843D01*
X111937700Y-60621811D01*
X112109651Y-60736705D01*
X112491295Y-61118349D01*
X112491297Y-61118352D01*
X112791157Y-61567123D01*
X112997704Y-62065771D01*
X113013556Y-62145466D01*
X113041262Y-62284751D01*
X113103000Y-62595134D01*
X113103000Y-63134866D01*
X112997704Y-63664229D01*
X112791157Y-64162877D01*
X112493319Y-64608621D01*
X112491295Y-64611651D01*
X112109651Y-64993295D01*
X112109648Y-64993297D01*
X111660877Y-65293157D01*
X111162229Y-65499704D01*
X110985775Y-65534803D01*
X110632868Y-65605000D01*
X110093132Y-65605000D01*
X109740225Y-65534803D01*
X109563771Y-65499704D01*
X109065123Y-65293157D01*
X108616352Y-64993297D01*
X108616349Y-64993295D01*
X108234705Y-64611651D01*
X108232681Y-64608621D01*
X107934843Y-64162877D01*
X107728296Y-63664229D01*
X107623000Y-63134866D01*
X107623000Y-62595134D01*
X107684739Y-62284751D01*
X107712444Y-62145466D01*
X107728296Y-62065771D01*
X107934843Y-61567123D01*
X108234703Y-61118352D01*
X108234705Y-61118349D01*
X108616349Y-60736705D01*
X108788300Y-60621811D01*
X109065123Y-60436843D01*
X109563771Y-60230296D01*
X109740225Y-60195197D01*
X110093132Y-60125000D01*
X110632868Y-60125000D01*
X110985775Y-60195197D01*
X110985775Y-60195197D01*
G37*
G36*
X103111775Y-60195197D02*
X103288229Y-60230296D01*
X103786877Y-60436843D01*
X104063700Y-60621811D01*
X104235651Y-60736705D01*
X104617295Y-61118349D01*
X104617297Y-61118352D01*
X104917157Y-61567123D01*
X105123704Y-62065771D01*
X105139556Y-62145466D01*
X105167262Y-62284751D01*
X105229000Y-62595134D01*
X105229000Y-63134866D01*
X105123704Y-63664229D01*
X104917157Y-64162877D01*
X104619319Y-64608621D01*
X104617295Y-64611651D01*
X104235651Y-64993295D01*
X104235648Y-64993297D01*
X103786877Y-65293157D01*
X103288229Y-65499704D01*
X103111775Y-65534803D01*
X102758868Y-65605000D01*
X102219132Y-65605000D01*
X101866225Y-65534803D01*
X101689771Y-65499704D01*
X101191123Y-65293157D01*
X100742352Y-64993297D01*
X100742349Y-64993295D01*
X100360705Y-64611651D01*
X100358681Y-64608621D01*
X100060843Y-64162877D01*
X99854296Y-63664229D01*
X99749000Y-63134866D01*
X99749000Y-62595134D01*
X99810739Y-62284751D01*
X99838444Y-62145466D01*
X99854296Y-62065771D01*
X100060843Y-61567123D01*
X100360703Y-61118352D01*
X100360705Y-61118349D01*
X100742349Y-60736705D01*
X100914300Y-60621811D01*
X101191123Y-60436843D01*
X101689771Y-60230296D01*
X101866225Y-60195197D01*
X102219132Y-60125000D01*
X102758868Y-60125000D01*
X103111775Y-60195197D01*
X103111775Y-60195197D01*
G37*
G36*
X95237775Y-60195197D02*
X95414229Y-60230296D01*
X95912877Y-60436843D01*
X96189700Y-60621811D01*
X96361651Y-60736705D01*
X96743295Y-61118349D01*
X96743297Y-61118352D01*
X97043157Y-61567123D01*
X97249704Y-62065771D01*
X97265556Y-62145466D01*
X97293262Y-62284751D01*
X97355000Y-62595134D01*
X97355000Y-63134866D01*
X97249704Y-63664229D01*
X97043157Y-64162877D01*
X96745319Y-64608621D01*
X96743295Y-64611651D01*
X96361651Y-64993295D01*
X96361648Y-64993297D01*
X95912877Y-65293157D01*
X95414229Y-65499704D01*
X95237775Y-65534803D01*
X94884868Y-65605000D01*
X94345132Y-65605000D01*
X93992225Y-65534803D01*
X93815771Y-65499704D01*
X93317123Y-65293157D01*
X92868352Y-64993297D01*
X92868349Y-64993295D01*
X92486705Y-64611651D01*
X92484681Y-64608621D01*
X92186843Y-64162877D01*
X91980296Y-63664229D01*
X91875000Y-63134866D01*
X91875000Y-62595134D01*
X91936739Y-62284751D01*
X91964444Y-62145466D01*
X91980296Y-62065771D01*
X92186843Y-61567123D01*
X92486703Y-61118352D01*
X92486705Y-61118349D01*
X92868349Y-60736705D01*
X93040300Y-60621811D01*
X93317123Y-60436843D01*
X93815771Y-60230296D01*
X93992225Y-60195197D01*
X94345132Y-60125000D01*
X94884868Y-60125000D01*
X95237775Y-60195197D01*
X95237775Y-60195197D01*
G37*
G36*
X147942775Y-60195197D02*
X148119229Y-60230296D01*
X148617877Y-60436843D01*
X148894700Y-60621811D01*
X149066651Y-60736705D01*
X149448295Y-61118349D01*
X149448297Y-61118352D01*
X149748157Y-61567123D01*
X149954704Y-62065771D01*
X149970556Y-62145466D01*
X149998262Y-62284751D01*
X150060000Y-62595134D01*
X150060000Y-63134866D01*
X149954704Y-63664229D01*
X149748157Y-64162877D01*
X149450319Y-64608621D01*
X149448295Y-64611651D01*
X149066651Y-64993295D01*
X149066648Y-64993297D01*
X148617877Y-65293157D01*
X148119229Y-65499704D01*
X147942775Y-65534803D01*
X147589868Y-65605000D01*
X147050132Y-65605000D01*
X146697225Y-65534803D01*
X146520771Y-65499704D01*
X146022123Y-65293157D01*
X145573352Y-64993297D01*
X145573349Y-64993295D01*
X145191705Y-64611651D01*
X145189681Y-64608621D01*
X144891843Y-64162877D01*
X144685296Y-63664229D01*
X144580000Y-63134866D01*
X144580000Y-62595134D01*
X144641739Y-62284751D01*
X144669444Y-62145466D01*
X144685296Y-62065771D01*
X144891843Y-61567123D01*
X145191703Y-61118352D01*
X145191705Y-61118349D01*
X145573349Y-60736705D01*
X145745300Y-60621811D01*
X146022123Y-60436843D01*
X146520771Y-60230296D01*
X146697225Y-60195197D01*
X147050132Y-60125000D01*
X147589868Y-60125000D01*
X147942775Y-60195197D01*
X147942775Y-60195197D01*
G37*
G36*
X125082775Y-60195197D02*
X125259229Y-60230296D01*
X125757877Y-60436843D01*
X126034700Y-60621811D01*
X126206651Y-60736705D01*
X126588295Y-61118349D01*
X126588297Y-61118352D01*
X126888157Y-61567123D01*
X127094704Y-62065771D01*
X127110556Y-62145466D01*
X127138262Y-62284751D01*
X127200000Y-62595134D01*
X127200000Y-63134866D01*
X127094704Y-63664229D01*
X126888157Y-64162877D01*
X126590319Y-64608621D01*
X126588295Y-64611651D01*
X126206651Y-64993295D01*
X126206648Y-64993297D01*
X125757877Y-65293157D01*
X125259229Y-65499704D01*
X125082775Y-65534803D01*
X124729868Y-65605000D01*
X124190132Y-65605000D01*
X123837225Y-65534803D01*
X123660771Y-65499704D01*
X123162123Y-65293157D01*
X122713352Y-64993297D01*
X122713349Y-64993295D01*
X122331705Y-64611651D01*
X122329681Y-64608621D01*
X122031843Y-64162877D01*
X121825296Y-63664229D01*
X121720000Y-63134866D01*
X121720000Y-62595134D01*
X121781739Y-62284751D01*
X121809444Y-62145466D01*
X121825296Y-62065771D01*
X122031843Y-61567123D01*
X122331703Y-61118352D01*
X122331705Y-61118349D01*
X122713349Y-60736705D01*
X122885300Y-60621811D01*
X123162123Y-60436843D01*
X123660771Y-60230296D01*
X123837225Y-60195197D01*
X124190132Y-60125000D01*
X124729868Y-60125000D01*
X125082775Y-60195197D01*
X125082775Y-60195197D01*
G37*
G36*
X141081000Y-65008000D02*
X139081000Y-65008000D01*
X139081000Y-63008000D01*
X141081000Y-63008000D01*
X141081000Y-65008000D01*
X141081000Y-65008000D01*
G37*
G36*
X63484000Y-65008000D02*
X61484000Y-65008000D01*
X61484000Y-63008000D01*
X63484000Y-63008000D01*
X63484000Y-65008000D01*
X63484000Y-65008000D01*
G37*
G36*
X140256770Y-60523372D02*
X140372689Y-60546429D01*
X140554678Y-60621811D01*
X140718463Y-60731249D01*
X140857751Y-60870537D01*
X140967189Y-61034322D01*
X141042571Y-61216311D01*
X141081000Y-61409509D01*
X141081000Y-61606491D01*
X141042571Y-61799689D01*
X140967189Y-61981678D01*
X140857751Y-62145463D01*
X140718463Y-62284751D01*
X140554678Y-62394189D01*
X140372689Y-62469571D01*
X140256770Y-62492628D01*
X140179493Y-62508000D01*
X139982507Y-62508000D01*
X139905230Y-62492628D01*
X139789311Y-62469571D01*
X139607322Y-62394189D01*
X139443537Y-62284751D01*
X139304249Y-62145463D01*
X139194811Y-61981678D01*
X139119429Y-61799689D01*
X139081000Y-61606491D01*
X139081000Y-61409509D01*
X139119429Y-61216311D01*
X139194811Y-61034322D01*
X139304249Y-60870537D01*
X139443537Y-60731249D01*
X139607322Y-60621811D01*
X139789311Y-60546429D01*
X139905230Y-60523372D01*
X139982507Y-60508000D01*
X140179493Y-60508000D01*
X140256770Y-60523372D01*
X140256770Y-60523372D01*
G37*
G36*
X62659770Y-60523372D02*
X62775689Y-60546429D01*
X62957678Y-60621811D01*
X63121463Y-60731249D01*
X63260751Y-60870537D01*
X63370189Y-61034322D01*
X63445571Y-61216311D01*
X63484000Y-61409509D01*
X63484000Y-61606491D01*
X63445571Y-61799689D01*
X63370189Y-61981678D01*
X63260751Y-62145463D01*
X63121463Y-62284751D01*
X62957678Y-62394189D01*
X62775689Y-62469571D01*
X62659770Y-62492628D01*
X62582493Y-62508000D01*
X62385507Y-62508000D01*
X62308230Y-62492628D01*
X62192311Y-62469571D01*
X62010322Y-62394189D01*
X61846537Y-62284751D01*
X61707249Y-62145463D01*
X61597811Y-61981678D01*
X61522429Y-61799689D01*
X61484000Y-61606491D01*
X61484000Y-61409509D01*
X61522429Y-61216311D01*
X61597811Y-61034322D01*
X61707249Y-60870537D01*
X61846537Y-60731249D01*
X62010322Y-60621811D01*
X62192311Y-60546429D01*
X62308230Y-60523372D01*
X62385507Y-60508000D01*
X62582493Y-60508000D01*
X62659770Y-60523372D01*
X62659770Y-60523372D01*
G37*
M02*
