M48
;DRILL file {KiCad (5.0.0)} date 03/03/19 17:58:12
;FORMAT={-:-/ absolute / inch / decimal}
FMAT,2
INCH,TZ
T1C0.0157
T2C0.0300
T3C0.0315
T4C0.0350
T5C0.0354
T6C0.0591
T7C0.1598
%
G90
G05
M72
T1
X1.595Y-3.625
X1.605Y-3.96
X1.635Y-3.625
X1.635Y-3.89
X1.65Y-5.13
X1.65Y-5.58
X1.6689Y-3.85
X1.69Y-3.655
X1.745Y-5.58
X1.75Y-5.13
X1.7581Y-3.0145
X1.7581Y-3.0545
X1.7581Y-3.0945
X1.7581Y-3.1345
X1.7581Y-3.1745
X1.7981Y-3.0145
X1.7981Y-3.0545
X1.7981Y-3.0945
X1.7981Y-3.1345
X1.7981Y-3.1745
X1.82Y-3.98
X1.8381Y-3.0145
X1.8381Y-3.0545
X1.8381Y-3.0945
X1.8381Y-3.1345
X1.8381Y-3.1745
X1.8381Y-3.2545
X1.8381Y-3.2945
X1.8381Y-3.3345
X1.8381Y-3.3745
X1.8381Y-3.4145
X1.86Y-5.92
X1.8781Y-3.0145
X1.8781Y-3.0545
X1.8781Y-3.0945
X1.8781Y-3.1345
X1.8781Y-3.1745
X1.8781Y-3.2545
X1.8781Y-3.2945
X1.8781Y-3.3345
X1.8781Y-3.3745
X1.8781Y-3.4145
X1.9Y-3.85
X1.9Y-5.05
X1.9181Y-3.0145
X1.9181Y-3.0545
X1.9181Y-3.0945
X1.9181Y-3.1345
X1.9181Y-3.1745
X1.9181Y-3.2545
X1.9181Y-3.2945
X1.9181Y-3.3345
X1.9181Y-3.3745
X1.9181Y-3.4145
X1.92Y-5.92
X1.95Y-3.9311
X1.95Y-5.38
X1.9581Y-3.0145
X1.9581Y-3.0545
X1.9581Y-3.0945
X1.9581Y-3.1345
X1.9581Y-3.1745
X1.9581Y-3.2545
X1.9581Y-3.2945
X1.9581Y-3.3345
X1.9581Y-3.3745
X1.9581Y-3.4145
X1.98Y-5.92
X1.9981Y-3.2545
X1.9981Y-3.2945
X1.9981Y-3.3345
X1.9981Y-3.3745
X1.9981Y-3.4145
X2.Y-3.85
X2.Y-5.05
X2.0381Y-3.2545
X2.0381Y-3.2945
X2.0381Y-3.3345
X2.0381Y-3.3745
X2.0381Y-3.4145
X2.0781Y-3.0145
X2.0781Y-3.0545
X2.0781Y-3.0945
X2.0781Y-3.1345
X2.0781Y-3.1745
X2.0781Y-3.2545
X2.0781Y-3.2945
X2.0781Y-3.3345
X2.0781Y-3.3745
X2.0781Y-3.4145
X2.1Y-5.725
X2.1181Y-3.0145
X2.1181Y-3.0545
X2.1181Y-3.0945
X2.1181Y-3.1345
X2.1181Y-3.1745
X2.1181Y-3.2545
X2.1181Y-3.2945
X2.1181Y-3.3345
X2.1181Y-3.3745
X2.1181Y-3.4145
X2.15Y-4.48
X2.1581Y-3.0145
X2.1581Y-3.0545
X2.1581Y-3.0945
X2.1581Y-3.1345
X2.1581Y-3.1745
X2.1581Y-3.2545
X2.1581Y-3.2945
X2.1581Y-3.3345
X2.1581Y-3.3745
X2.1581Y-3.4145
X2.1981Y-3.0145
X2.1981Y-3.0545
X2.1981Y-3.0945
X2.1981Y-3.1345
X2.1981Y-3.1745
X2.1981Y-3.2545
X2.1981Y-3.2945
X2.1981Y-3.3345
X2.1981Y-3.3745
X2.1981Y-3.4145
X2.2Y-5.675
X2.22Y-3.9
X2.2381Y-3.0145
X2.2381Y-3.0545
X2.2381Y-3.0945
X2.2381Y-3.1345
X2.2381Y-3.1745
X2.255Y-3.72
X2.2781Y-3.0145
X2.2781Y-3.0545
X2.2781Y-3.0945
X2.2781Y-3.1345
X2.2781Y-3.1745
X2.3Y-3.655
X2.3Y-4.325
X2.3Y-5.625
X2.35Y-3.825
X2.4Y-4.375
X2.4Y-5.575
X2.455Y-3.39
X2.5Y-4.425
X2.55Y-3.655
X2.575Y-5.035
X2.6Y-4.475
X2.605Y-3.785
X2.6581Y-3.0145
X2.6581Y-3.0545
X2.6581Y-3.0945
X2.6581Y-3.1345
X2.6581Y-3.1745
X2.66Y-4.09
X2.66Y-4.16
X2.66Y-4.24
X2.6981Y-3.0145
X2.6981Y-3.0545
X2.6981Y-3.0945
X2.6981Y-3.1345
X2.6981Y-3.1745
X2.7381Y-3.0145
X2.7381Y-3.0545
X2.7381Y-3.0945
X2.7381Y-3.1345
X2.7381Y-3.1745
X2.7381Y-3.2545
X2.7381Y-3.2945
X2.7381Y-3.3345
X2.7381Y-3.3745
X2.7381Y-3.4145
X2.7781Y-3.0145
X2.7781Y-3.0545
X2.7781Y-3.0945
X2.7781Y-3.1345
X2.7781Y-3.1745
X2.7781Y-3.2545
X2.7781Y-3.2945
X2.7781Y-3.3345
X2.7781Y-3.3745
X2.7781Y-3.4145
X2.8181Y-3.0145
X2.8181Y-3.0545
X2.8181Y-3.0945
X2.8181Y-3.1345
X2.8181Y-3.1745
X2.8181Y-3.2545
X2.8181Y-3.2945
X2.8181Y-3.3345
X2.8181Y-3.3745
X2.8181Y-3.4145
X2.8581Y-3.0145
X2.8581Y-3.0545
X2.8581Y-3.0945
X2.8581Y-3.1345
X2.8581Y-3.1745
X2.8581Y-3.2545
X2.8581Y-3.2945
X2.8581Y-3.3345
X2.8581Y-3.3745
X2.8581Y-3.4145
X2.8981Y-3.2545
X2.8981Y-3.2945
X2.8981Y-3.3345
X2.8981Y-3.3745
X2.8981Y-3.4145
X2.93Y-4.955
X2.93Y-5.235
X2.935Y-4.685
X2.9381Y-3.2545
X2.9381Y-3.2945
X2.9381Y-3.3345
X2.9381Y-3.3745
X2.9381Y-3.4145
X2.94Y-4.09
X2.94Y-4.16
X2.94Y-4.24
X2.9781Y-3.0145
X2.9781Y-3.0545
X2.9781Y-3.0945
X2.9781Y-3.1345
X2.9781Y-3.1745
X2.9781Y-3.2545
X2.9781Y-3.2945
X2.9781Y-3.3345
X2.9781Y-3.3745
X2.9781Y-3.4145
X3.0181Y-3.0145
X3.0181Y-3.0545
X3.0181Y-3.0945
X3.0181Y-3.1345
X3.0181Y-3.1745
X3.0181Y-3.2545
X3.0181Y-3.2945
X3.0181Y-3.3345
X3.0181Y-3.3745
X3.0181Y-3.4145
X3.0581Y-3.0145
X3.0581Y-3.0545
X3.0581Y-3.0945
X3.0581Y-3.1345
X3.0581Y-3.1745
X3.0581Y-3.2545
X3.0581Y-3.2945
X3.0581Y-3.3345
X3.0581Y-3.3745
X3.0581Y-3.4145
X3.0981Y-3.0145
X3.0981Y-3.0545
X3.0981Y-3.0945
X3.0981Y-3.1345
X3.0981Y-3.1745
X3.0981Y-3.2545
X3.0981Y-3.2945
X3.0981Y-3.3345
X3.0981Y-3.3745
X3.0981Y-3.4145
X3.1381Y-3.0145
X3.1381Y-3.0545
X3.1381Y-3.0945
X3.1381Y-3.1345
X3.1381Y-3.1745
X3.16Y-3.7211
X3.1781Y-3.0145
X3.1781Y-3.0545
X3.1781Y-3.0945
X3.1781Y-3.1345
X3.1781Y-3.1745
X3.185Y-3.655
X3.225Y-3.82
X3.28Y-4.685
X3.28Y-4.955
X3.28Y-5.235
X3.285Y-4.24
X3.3Y-3.635
X3.41Y-3.635
X3.45Y-3.415
X3.585Y-3.635
X3.615Y-4.24
X3.63Y-4.685
X3.63Y-4.955
X3.63Y-5.235
X3.685Y-3.635
X3.775Y-3.635
X3.9428Y-3.9672
X3.9739Y-4.045
X3.985Y-4.4
X3.985Y-4.465
X3.99Y-4.765
X3.99Y-4.815
X4.005Y-4.12
X4.05Y-4.55
X4.05Y-5.035
X4.13Y-4.405
X4.13Y-4.465
X4.13Y-4.765
X4.13Y-4.815
X4.28Y-4.405
X4.28Y-4.465
X4.28Y-4.765
X4.28Y-4.815
X4.3Y-5.39
X4.35Y-5.6
X4.395Y-3.935
X4.44Y-5.56
X4.4525Y-3.82
X4.525Y-4.465
X4.525Y-4.605
X4.555Y-3.8239
X4.59Y-4.465
X4.59Y-4.605
X4.6Y-3.65
X4.7475Y-3.845
X4.78Y-4.765
X4.78Y-4.815
X4.785Y-4.465
X4.7981Y-3.0145
X4.7981Y-3.0545
X4.7981Y-3.0945
X4.7981Y-3.1345
X4.7981Y-3.1745
X4.8Y-5.39
X4.805Y-4.62
X4.8381Y-3.0145
X4.8381Y-3.0545
X4.8381Y-3.0945
X4.8381Y-3.1345
X4.8381Y-3.1745
X4.845Y-4.465
X4.8781Y-3.0145
X4.8781Y-3.0545
X4.8781Y-3.0945
X4.8781Y-3.1345
X4.8781Y-3.1745
X4.8881Y-3.2545
X4.8881Y-3.2945
X4.8881Y-3.3345
X4.8881Y-3.3745
X4.8881Y-3.4145
X4.89Y-4.62
X4.9181Y-3.0145
X4.9181Y-3.0545
X4.9181Y-3.0945
X4.9181Y-3.1345
X4.9181Y-3.1745
X4.9281Y-3.2545
X4.9281Y-3.2945
X4.9281Y-3.3345
X4.9281Y-3.3745
X4.9281Y-3.4145
X4.95Y-4.4
X4.95Y-4.455
X4.95Y-5.1311
X4.9581Y-3.0145
X4.9581Y-3.0545
X4.9581Y-3.0945
X4.9581Y-3.1345
X4.9581Y-3.1745
X4.9681Y-3.2545
X4.9681Y-3.2945
X4.9681Y-3.3345
X4.9681Y-3.3745
X4.9681Y-3.4145
X4.995Y-4.55
X4.9981Y-3.0145
X4.9981Y-3.0545
X4.9981Y-3.0945
X4.9981Y-3.1345
X4.9981Y-3.1745
X5.0081Y-3.2545
X5.0081Y-3.2945
X5.0081Y-3.3345
X5.0081Y-3.3745
X5.0081Y-3.4145
X5.0481Y-3.2545
X5.0481Y-3.2945
X5.0481Y-3.3345
X5.0481Y-3.3745
X5.0481Y-3.4145
X5.065Y-4.325
X5.065Y-4.38
X5.0881Y-3.2545
X5.0881Y-3.2945
X5.0881Y-3.3345
X5.0881Y-3.3745
X5.0881Y-3.4145
X5.1281Y-3.2545
X5.1281Y-3.2945
X5.1281Y-3.3345
X5.1281Y-3.3745
X5.1281Y-3.4145
X5.1381Y-3.0145
X5.1381Y-3.0545
X5.1381Y-3.0945
X5.1381Y-3.1345
X5.1381Y-3.1745
X5.15Y-5.15
X5.155Y-4.18
X5.155Y-4.23
X5.1681Y-3.2545
X5.1681Y-3.2945
X5.1681Y-3.3345
X5.1681Y-3.3745
X5.1681Y-3.4145
X5.1781Y-3.0145
X5.1781Y-3.0545
X5.1781Y-3.0945
X5.1781Y-3.1345
X5.1781Y-3.1745
X5.2081Y-3.2545
X5.2081Y-3.2945
X5.2081Y-3.3345
X5.2081Y-3.3745
X5.2081Y-3.4145
X5.2181Y-3.0145
X5.2181Y-3.0545
X5.2181Y-3.0945
X5.2181Y-3.1345
X5.2181Y-3.1745
X5.2481Y-3.2545
X5.2481Y-3.2945
X5.2481Y-3.3345
X5.2481Y-3.3745
X5.2481Y-3.4145
X5.2581Y-3.0145
X5.2581Y-3.0545
X5.2581Y-3.0945
X5.2581Y-3.1345
X5.2581Y-3.1745
X5.2981Y-3.0145
X5.2981Y-3.0545
X5.2981Y-3.0945
X5.2981Y-3.1345
X5.2981Y-3.1745
X5.315Y-3.65
X5.3381Y-3.0145
X5.3381Y-3.0545
X5.3381Y-3.0945
X5.3381Y-3.1345
X5.3381Y-3.1745
X5.35Y-4.14
X5.425Y-4.29
X5.435Y-3.525
X5.445Y-4.375
X5.49Y-3.525
X5.5Y-4.615
X5.51Y-3.395
X5.53Y-3.94
X5.535Y-3.725
X5.535Y-3.85
X5.55Y-3.525
X5.6Y-3.525
X5.6Y-3.75
X5.64Y-3.65
X5.7Y-3.89
X5.7081Y-3.0145
X5.7081Y-3.0545
X5.7081Y-3.0945
X5.7081Y-3.1345
X5.7081Y-3.1745
X5.7481Y-3.0145
X5.7481Y-3.0545
X5.7481Y-3.0945
X5.7481Y-3.1345
X5.7481Y-3.1745
X5.76Y-4.135
X5.76Y-4.185
X5.76Y-4.26
X5.76Y-4.31
X5.76Y-4.435
X5.76Y-4.48
X5.77Y-3.96
X5.77Y-4.01
X5.7881Y-3.0145
X5.7881Y-3.0545
X5.7881Y-3.0945
X5.7881Y-3.1345
X5.7881Y-3.1745
X5.7881Y-3.2545
X5.7881Y-3.2945
X5.7881Y-3.3345
X5.7881Y-3.3745
X5.7881Y-3.4145
X5.8281Y-3.0145
X5.8281Y-3.0545
X5.8281Y-3.0945
X5.8281Y-3.1345
X5.8281Y-3.1745
X5.8281Y-3.2545
X5.8281Y-3.2945
X5.8281Y-3.3345
X5.8281Y-3.3745
X5.8281Y-3.4145
X5.8681Y-3.0145
X5.8681Y-3.0545
X5.8681Y-3.0945
X5.8681Y-3.1345
X5.8681Y-3.1745
X5.8681Y-3.2545
X5.8681Y-3.2945
X5.8681Y-3.3345
X5.8681Y-3.3745
X5.8681Y-3.4145
X5.9081Y-3.0145
X5.9081Y-3.0545
X5.9081Y-3.0945
X5.9081Y-3.1345
X5.9081Y-3.1745
X5.9081Y-3.2545
X5.9081Y-3.2945
X5.9081Y-3.3345
X5.9081Y-3.3745
X5.9081Y-3.4145
X5.9481Y-3.2545
X5.9481Y-3.2945
X5.9481Y-3.3345
X5.9481Y-3.3745
X5.9481Y-3.4145
X5.9881Y-3.2545
X5.9881Y-3.2945
X5.9881Y-3.3345
X5.9881Y-3.3745
X5.9881Y-3.4145
X6.0281Y-3.0145
X6.0281Y-3.0545
X6.0281Y-3.0945
X6.0281Y-3.1345
X6.0281Y-3.1745
X6.0281Y-3.2545
X6.0281Y-3.2945
X6.0281Y-3.3345
X6.0281Y-3.3745
X6.0281Y-3.4145
X6.0681Y-3.0145
X6.0681Y-3.0545
X6.0681Y-3.0945
X6.0681Y-3.1345
X6.0681Y-3.1745
X6.0681Y-3.2545
X6.0681Y-3.2945
X6.0681Y-3.3345
X6.0681Y-3.3745
X6.0681Y-3.4145
X6.1081Y-3.0145
X6.1081Y-3.0545
X6.1081Y-3.0945
X6.1081Y-3.1345
X6.1081Y-3.1745
X6.1081Y-3.2545
X6.1081Y-3.2945
X6.1081Y-3.3345
X6.1081Y-3.3745
X6.1081Y-3.4145
X6.1481Y-3.0145
X6.1481Y-3.0545
X6.1481Y-3.0945
X6.1481Y-3.1345
X6.1481Y-3.1745
X6.1481Y-3.2545
X6.1481Y-3.2945
X6.1481Y-3.3345
X6.1481Y-3.3745
X6.1481Y-3.4145
X6.16Y-3.925
X6.1881Y-3.0145
X6.1881Y-3.0545
X6.1881Y-3.0945
X6.1881Y-3.1345
X6.1881Y-3.1745
X6.215Y-3.65
X6.215Y-3.715
X6.2281Y-3.0145
X6.2281Y-3.0545
X6.2281Y-3.0945
X6.2281Y-3.1345
X6.2281Y-3.1745
X6.25Y-4.22
X6.28Y-3.895
X6.33Y-3.895
X6.34Y-3.53
X6.385Y-3.53
X6.425Y-3.53
T2
X2.705Y-4.785
X2.805Y-4.785
X2.705Y-5.335
X2.805Y-5.335
X3.405Y-4.785
X3.505Y-4.785
X4.2Y-4.9
X4.3Y-4.9
X4.4Y-4.9
X4.7Y-4.9
X4.8Y-4.9
X4.9Y-4.9
X6.25Y-4.02
X6.25Y-4.12
X6.25Y-4.22
X6.25Y-4.32
X6.25Y-4.42
X3.405Y-5.335
X3.505Y-5.335
X3.755Y-4.785
X3.855Y-4.785
X3.055Y-4.785
X3.155Y-4.785
X4.2Y-4.25
X4.3Y-4.25
X4.4Y-4.25
X3.055Y-5.335
X3.155Y-5.335
X4.7Y-4.25
X4.8Y-4.25
X4.9Y-4.25
X3.755Y-5.335
X3.855Y-5.335
T3
X2.46Y-2.4216
X2.46Y-2.52
X5.515Y-2.4216
X5.515Y-2.52
T4
X4.35Y-3.165
X4.45Y-3.165
X4.55Y-3.165
X3.915Y-3.165
X4.015Y-3.165
X4.115Y-3.165
T5
X1.65Y-4.4
X1.65Y-4.4787
X1.65Y-4.5575
T6
X1.65Y-4.3173
X1.65Y-4.6402
T7
X2.75Y-2.475
X3.06Y-2.475
X5.8Y-2.475
X6.11Y-2.475
X4.9Y-2.475
X5.21Y-2.475
X1.85Y-2.475
X2.16Y-2.475
X3.725Y-2.475
X4.035Y-2.475
X4.345Y-2.475
T0
M30
