%TF.GenerationSoftware,KiCad,Pcbnew,(6.0.10)*%
%TF.CreationDate,2022-12-30T00:20:43-06:00*%
%TF.ProjectId,Armboard_Hardware,41726d62-6f61-4726-945f-486172647761,rev?*%
%TF.SameCoordinates,Original*%
%TF.FileFunction,Paste,Top*%
%TF.FilePolarity,Positive*%
%FSLAX46Y46*%
G04 Gerber Fmt 4.6, Leading zero omitted, Abs format (unit mm)*
G04 Created by KiCad (PCBNEW (6.0.10)) date 2022-12-30 00:20:43*
%MOMM*%
%LPD*%
G01*
G04 APERTURE LIST*
G04 Aperture macros list*
%AMRoundRect*
0 Rectangle with rounded corners*
0 $1 Rounding radius*
0 $2 $3 $4 $5 $6 $7 $8 $9 X,Y pos of 4 corners*
0 Add a 4 corners polygon primitive as box body*
4,1,4,$2,$3,$4,$5,$6,$7,$8,$9,$2,$3,0*
0 Add four circle primitives for the rounded corners*
1,1,$1+$1,$2,$3*
1,1,$1+$1,$4,$5*
1,1,$1+$1,$6,$7*
1,1,$1+$1,$8,$9*
0 Add four rect primitives between the rounded corners*
20,1,$1+$1,$2,$3,$4,$5,0*
20,1,$1+$1,$4,$5,$6,$7,0*
20,1,$1+$1,$6,$7,$8,$9,0*
20,1,$1+$1,$8,$9,$2,$3,0*%
G04 Aperture macros list end*
%ADD10R,0.650000X1.560000*%
%ADD11RoundRect,0.237500X-0.287500X-0.237500X0.287500X-0.237500X0.287500X0.237500X-0.287500X0.237500X0*%
%ADD12RoundRect,0.237500X0.250000X0.237500X-0.250000X0.237500X-0.250000X-0.237500X0.250000X-0.237500X0*%
%ADD13RoundRect,0.225000X0.250000X-0.225000X0.250000X0.225000X-0.250000X0.225000X-0.250000X-0.225000X0*%
%ADD14RoundRect,0.237500X0.237500X-0.250000X0.237500X0.250000X-0.237500X0.250000X-0.237500X-0.250000X0*%
%ADD15RoundRect,0.150000X0.150000X-0.825000X0.150000X0.825000X-0.150000X0.825000X-0.150000X-0.825000X0*%
%ADD16RoundRect,0.150000X-0.150000X0.825000X-0.150000X-0.825000X0.150000X-0.825000X0.150000X0.825000X0*%
%ADD17RoundRect,0.237500X-0.237500X0.250000X-0.237500X-0.250000X0.237500X-0.250000X0.237500X0.250000X0*%
%ADD18RoundRect,0.225000X0.225000X0.250000X-0.225000X0.250000X-0.225000X-0.250000X0.225000X-0.250000X0*%
%ADD19RoundRect,0.225000X-0.225000X-0.250000X0.225000X-0.250000X0.225000X0.250000X-0.225000X0.250000X0*%
%ADD20RoundRect,0.237500X-0.237500X0.287500X-0.237500X-0.287500X0.237500X-0.287500X0.237500X0.287500X0*%
%ADD21RoundRect,0.237500X-0.250000X-0.237500X0.250000X-0.237500X0.250000X0.237500X-0.250000X0.237500X0*%
%ADD22RoundRect,0.225000X-0.250000X0.225000X-0.250000X-0.225000X0.250000X-0.225000X0.250000X0.225000X0*%
%ADD23RoundRect,0.237500X0.287500X0.237500X-0.287500X0.237500X-0.287500X-0.237500X0.287500X-0.237500X0*%
%ADD24RoundRect,0.237500X0.237500X-0.287500X0.237500X0.287500X-0.237500X0.287500X-0.237500X-0.287500X0*%
%ADD25RoundRect,0.150000X0.587500X0.150000X-0.587500X0.150000X-0.587500X-0.150000X0.587500X-0.150000X0*%
%ADD26O,5.100000X3.000000*%
G04 APERTURE END LIST*
D10*
X267782080Y-199978000D03*
X268732080Y-199978000D03*
X269682080Y-199978000D03*
X269682080Y-197278000D03*
X268732080Y-197278000D03*
X267782080Y-197278000D03*
D11*
X160770600Y-276682200D03*
X162520600Y-276682200D03*
D12*
X248816500Y-242316000D03*
X246991500Y-242316000D03*
D13*
X249663592Y-167215600D03*
X249663592Y-165665600D03*
X192416228Y-167215600D03*
X192416228Y-165665600D03*
D14*
X228653704Y-187419100D03*
X228653704Y-185594100D03*
D15*
X251677392Y-194569600D03*
X252947392Y-194569600D03*
X254217392Y-194569600D03*
X255487392Y-194569600D03*
X255487392Y-189619600D03*
X254217392Y-189619600D03*
X252947392Y-189619600D03*
X251677392Y-189619600D03*
D11*
X159780000Y-227838000D03*
X161530000Y-227838000D03*
D12*
X217574500Y-197612000D03*
X215749500Y-197612000D03*
X168844000Y-197612000D03*
X167019000Y-197612000D03*
D14*
X211497416Y-171163100D03*
X211497416Y-169338100D03*
D16*
X258684004Y-270893800D03*
X257414004Y-270893800D03*
X256144004Y-270893800D03*
X254874004Y-270893800D03*
X254874004Y-275843800D03*
X256144004Y-275843800D03*
X257414004Y-275843800D03*
X258684004Y-275843800D03*
D14*
X192423428Y-171163100D03*
X192423428Y-169338100D03*
D12*
X157946700Y-252222000D03*
X156121700Y-252222000D03*
D15*
X205630016Y-183393600D03*
X206900016Y-183393600D03*
X208170016Y-183393600D03*
X209440016Y-183393600D03*
X209440016Y-178443600D03*
X208170016Y-178443600D03*
X206900016Y-178443600D03*
X205630016Y-178443600D03*
X243803392Y-194569600D03*
X245073392Y-194569600D03*
X246343392Y-194569600D03*
X247613392Y-194569600D03*
X247613392Y-189619600D03*
X246343392Y-189619600D03*
X245073392Y-189619600D03*
X243803392Y-189619600D03*
D12*
X206906500Y-197612000D03*
X205081500Y-197612000D03*
D17*
X233727600Y-268900300D03*
X233727600Y-270725300D03*
D18*
X239615200Y-252540800D03*
X238065200Y-252540800D03*
D10*
X172532080Y-199978000D03*
X173482080Y-199978000D03*
X174432080Y-199978000D03*
X174432080Y-197278000D03*
X173482080Y-197278000D03*
X172532080Y-197278000D03*
D19*
X213483816Y-187287147D03*
X215033816Y-187287147D03*
D15*
X167808480Y-169169600D03*
X169078480Y-169169600D03*
X170348480Y-169169600D03*
X171618480Y-169169600D03*
X171618480Y-164219600D03*
X170348480Y-164219600D03*
X169078480Y-164219600D03*
X167808480Y-164219600D03*
D20*
X192398028Y-191473600D03*
X192398028Y-193223600D03*
D15*
X262890080Y-194569600D03*
X264160080Y-194569600D03*
X265430080Y-194569600D03*
X266700080Y-194569600D03*
X266700080Y-189619600D03*
X265430080Y-189619600D03*
X264160080Y-189619600D03*
X262890080Y-189619600D03*
D20*
X222931504Y-191473600D03*
X222931504Y-193223600D03*
D21*
X218619000Y-242189000D03*
X220444000Y-242189000D03*
D14*
X190493028Y-187419100D03*
X190493028Y-185594100D03*
D17*
X157249500Y-200890500D03*
X157249500Y-202715500D03*
D16*
X231721000Y-245493800D03*
X230451000Y-245493800D03*
X229181000Y-245493800D03*
X227911000Y-245493800D03*
X227911000Y-250443800D03*
X229181000Y-250443800D03*
X230451000Y-250443800D03*
X231721000Y-250443800D03*
D10*
X229494080Y-200058000D03*
X230444080Y-200058000D03*
X231394080Y-200058000D03*
X231394080Y-197358000D03*
X230444080Y-197358000D03*
X229494080Y-197358000D03*
D20*
X249645392Y-191473600D03*
X249645392Y-193223600D03*
D15*
X270764080Y-194569600D03*
X272034080Y-194569600D03*
X273304080Y-194569600D03*
X274574080Y-194569600D03*
X274574080Y-189619600D03*
X273304080Y-189619600D03*
X272034080Y-189619600D03*
X270764080Y-189619600D03*
D17*
X216569212Y-252644300D03*
X216569212Y-254469300D03*
D15*
X270764080Y-183393600D03*
X272034080Y-183393600D03*
X273304080Y-183393600D03*
X274574080Y-183393600D03*
X274574080Y-178443600D03*
X273304080Y-178443600D03*
X272034080Y-178443600D03*
X270764080Y-178443600D03*
D19*
X262869880Y-187522600D03*
X264419880Y-187522600D03*
D11*
X159780000Y-219710000D03*
X161530000Y-219710000D03*
D14*
X181132800Y-170184600D03*
X181132800Y-168359600D03*
D22*
X214646012Y-272847800D03*
X214646012Y-274397800D03*
D12*
X158875100Y-268554200D03*
X157050100Y-268554200D03*
D11*
X159780000Y-244094000D03*
X161530000Y-244094000D03*
D16*
X220506212Y-245493800D03*
X219236212Y-245493800D03*
X217966212Y-245493800D03*
X216696212Y-245493800D03*
X216696212Y-250443800D03*
X217966212Y-250443800D03*
X219236212Y-250443800D03*
X220506212Y-250443800D03*
D14*
X230584104Y-171163100D03*
X230584104Y-169338100D03*
D17*
X214638812Y-268900300D03*
X214638812Y-270725300D03*
D19*
X232570504Y-187287147D03*
X234120504Y-187287147D03*
D14*
X173675880Y-171163100D03*
X173675880Y-169338100D03*
D23*
X274470500Y-200406000D03*
X272720500Y-200406000D03*
D19*
X224696504Y-187522600D03*
X226246504Y-187522600D03*
D17*
X235658000Y-252644300D03*
X235658000Y-254469300D03*
X206769012Y-269154300D03*
X206769012Y-270979300D03*
D14*
X179619480Y-187419100D03*
X179619480Y-185594100D03*
X238458104Y-170923100D03*
X238458104Y-169098100D03*
X255614392Y-187419100D03*
X255614392Y-185594100D03*
D10*
X191328080Y-199978000D03*
X192278080Y-199978000D03*
X193228080Y-199978000D03*
X193228080Y-197278000D03*
X192278080Y-197278000D03*
X191328080Y-197278000D03*
D16*
X250810004Y-270893800D03*
X249540004Y-270893800D03*
X248270004Y-270893800D03*
X247000004Y-270893800D03*
X247000004Y-275843800D03*
X248270004Y-275843800D03*
X249540004Y-275843800D03*
X250810004Y-275843800D03*
D14*
X257544792Y-170909100D03*
X257544792Y-169084100D03*
D20*
X268732080Y-191473600D03*
X268732080Y-193223600D03*
D14*
X274701080Y-187419100D03*
X274701080Y-185594100D03*
D15*
X194430028Y-194569600D03*
X195700028Y-194569600D03*
X196970028Y-194569600D03*
X198240028Y-194569600D03*
X198240028Y-189619600D03*
X196970028Y-189619600D03*
X195700028Y-189619600D03*
X194430028Y-189619600D03*
D19*
X251657192Y-187287147D03*
X253207192Y-187287147D03*
D10*
X234742004Y-240204000D03*
X233792004Y-240204000D03*
X232842004Y-240204000D03*
X232842004Y-242904000D03*
X233792004Y-242904000D03*
X234742004Y-242904000D03*
D12*
X157884500Y-235966000D03*
X156059500Y-235966000D03*
D11*
X159705700Y-252222000D03*
X161455700Y-252222000D03*
D24*
X252842004Y-248589800D03*
X252842004Y-246839800D03*
D12*
X229639500Y-242189000D03*
X227814500Y-242189000D03*
D16*
X250810004Y-256669800D03*
X249540004Y-256669800D03*
X248270004Y-256669800D03*
X247000004Y-256669800D03*
X247000004Y-261619800D03*
X248270004Y-261619800D03*
X249540004Y-261619800D03*
X250810004Y-261619800D03*
D14*
X276352000Y-170965500D03*
X276352000Y-169140500D03*
D11*
X205081500Y-200406000D03*
X206831500Y-200406000D03*
D19*
X194409828Y-187287147D03*
X195959828Y-187287147D03*
D22*
X252823804Y-272847800D03*
X252823804Y-274397800D03*
D20*
X261104880Y-191473600D03*
X261104880Y-193223600D03*
D15*
X175682480Y-183393600D03*
X176952480Y-183393600D03*
X178222480Y-183393600D03*
X179492480Y-183393600D03*
X179492480Y-178443600D03*
X178222480Y-178443600D03*
X176952480Y-178443600D03*
X175682480Y-178443600D03*
D12*
X157884500Y-244094000D03*
X156059500Y-244094000D03*
D18*
X212652412Y-252776253D03*
X211102412Y-252776253D03*
D12*
X158875100Y-276682200D03*
X157050100Y-276682200D03*
D15*
X186556028Y-194569600D03*
X187826028Y-194569600D03*
X189096028Y-194569600D03*
X190366028Y-194569600D03*
X190366028Y-189619600D03*
X189096028Y-189619600D03*
X187826028Y-189619600D03*
X186556028Y-189619600D03*
D20*
X211472016Y-191473600D03*
X211472016Y-193223600D03*
D16*
X239595000Y-245493800D03*
X238325000Y-245493800D03*
X237055000Y-245493800D03*
X235785000Y-245493800D03*
X235785000Y-250443800D03*
X237055000Y-250443800D03*
X238325000Y-250443800D03*
X239595000Y-250443800D03*
D11*
X160770600Y-268554200D03*
X162520600Y-268554200D03*
D10*
X210378080Y-199978000D03*
X211328080Y-199978000D03*
X212278080Y-199978000D03*
X212278080Y-197278000D03*
X211328080Y-197278000D03*
X210378080Y-197278000D03*
D15*
X175682480Y-194569600D03*
X176952480Y-194569600D03*
X178222480Y-194569600D03*
X179492480Y-194569600D03*
X179492480Y-189619600D03*
X178222480Y-189619600D03*
X176952480Y-189619600D03*
X175682480Y-189619600D03*
D12*
X259447000Y-242189000D03*
X257622000Y-242189000D03*
D13*
X173668680Y-167215600D03*
X173668680Y-165665600D03*
D23*
X239635000Y-239522000D03*
X237885000Y-239522000D03*
D15*
X270764080Y-169169600D03*
X272034080Y-169169600D03*
X273304080Y-169169600D03*
X274574080Y-169169600D03*
X274574080Y-164219600D03*
X273304080Y-164219600D03*
X272034080Y-164219600D03*
X270764080Y-164219600D03*
D17*
X252816604Y-268900300D03*
X252816604Y-270725300D03*
D16*
X239595000Y-256669800D03*
X238325000Y-256669800D03*
X237055000Y-256669800D03*
X235785000Y-256669800D03*
X235785000Y-261619800D03*
X237055000Y-261619800D03*
X238325000Y-261619800D03*
X239595000Y-261619800D03*
D17*
X225853600Y-269154300D03*
X225853600Y-270979300D03*
D16*
X258684004Y-256669800D03*
X257414004Y-256669800D03*
X256144004Y-256669800D03*
X254874004Y-256669800D03*
X254874004Y-261619800D03*
X256144004Y-261619800D03*
X257414004Y-261619800D03*
X258684004Y-261619800D03*
X220506212Y-256669800D03*
X219236212Y-256669800D03*
X217966212Y-256669800D03*
X216696212Y-256669800D03*
X216696212Y-261619800D03*
X217966212Y-261619800D03*
X219236212Y-261619800D03*
X220506212Y-261619800D03*
D15*
X224716704Y-169169600D03*
X225986704Y-169169600D03*
X227256704Y-169169600D03*
X228526704Y-169169600D03*
X228526704Y-164219600D03*
X227256704Y-164219600D03*
X225986704Y-164219600D03*
X224716704Y-164219600D03*
D11*
X159780000Y-211582000D03*
X161530000Y-211582000D03*
D17*
X244942604Y-269165700D03*
X244942604Y-270990700D03*
D11*
X227816668Y-239522000D03*
X229566668Y-239522000D03*
D21*
X208802000Y-242189000D03*
X210627000Y-242189000D03*
D19*
X167788280Y-187522600D03*
X169338280Y-187522600D03*
D11*
X243181500Y-200329800D03*
X244931500Y-200329800D03*
X246991500Y-239649000D03*
X248741500Y-239649000D03*
D15*
X194430028Y-169169600D03*
X195700028Y-169169600D03*
X196970028Y-169169600D03*
X198240028Y-169169600D03*
X198240028Y-164219600D03*
X196970028Y-164219600D03*
X195700028Y-164219600D03*
X194430028Y-164219600D03*
D14*
X200272028Y-170899600D03*
X200272028Y-169074600D03*
D19*
X175662280Y-187287147D03*
X177212280Y-187287147D03*
D15*
X186556028Y-169169600D03*
X187826028Y-169169600D03*
X189096028Y-169169600D03*
X190366028Y-169169600D03*
X190366028Y-164219600D03*
X189096028Y-164219600D03*
X187826028Y-164219600D03*
X186556028Y-164219600D03*
D16*
X239595000Y-270893800D03*
X238325000Y-270893800D03*
X237055000Y-270893800D03*
X235785000Y-270893800D03*
X235785000Y-275843800D03*
X237055000Y-275843800D03*
X238325000Y-275843800D03*
X239595000Y-275843800D03*
D23*
X217574500Y-200406000D03*
X215824500Y-200406000D03*
D11*
X224385500Y-200406000D03*
X226135500Y-200406000D03*
D12*
X236267000Y-197612000D03*
X234442000Y-197612000D03*
D24*
X233753000Y-248589800D03*
X233753000Y-246839800D03*
D15*
X232590704Y-183393600D03*
X233860704Y-183393600D03*
X235130704Y-183393600D03*
X236400704Y-183393600D03*
X236400704Y-178443600D03*
X235130704Y-178443600D03*
X233860704Y-178443600D03*
X232590704Y-178443600D03*
D14*
X249670792Y-171163100D03*
X249670792Y-169338100D03*
D12*
X179474500Y-197612000D03*
X177649500Y-197612000D03*
D10*
X253858004Y-240124000D03*
X252908004Y-240124000D03*
X251958004Y-240124000D03*
X251958004Y-242824000D03*
X252908004Y-242824000D03*
X253858004Y-242824000D03*
D17*
X157249500Y-181332500D03*
X157249500Y-183157500D03*
D16*
X212632212Y-270893800D03*
X211362212Y-270893800D03*
X210092212Y-270893800D03*
X208822212Y-270893800D03*
X208822212Y-275843800D03*
X210092212Y-275843800D03*
X211362212Y-275843800D03*
X212632212Y-275843800D03*
X231721000Y-270893800D03*
X230451000Y-270893800D03*
X229181000Y-270893800D03*
X227911000Y-270893800D03*
X227911000Y-275843800D03*
X229181000Y-275843800D03*
X230451000Y-275843800D03*
X231721000Y-275843800D03*
D13*
X230576904Y-167215600D03*
X230576904Y-165665600D03*
D16*
X220506212Y-270893800D03*
X219236212Y-270893800D03*
X217966212Y-270893800D03*
X216696212Y-270893800D03*
X216696212Y-275843800D03*
X217966212Y-275843800D03*
X219236212Y-275843800D03*
X220506212Y-275843800D03*
D24*
X260469204Y-248589800D03*
X260469204Y-246839800D03*
D15*
X224716704Y-183393600D03*
X225986704Y-183393600D03*
X227256704Y-183393600D03*
X228526704Y-183393600D03*
X228526704Y-178443600D03*
X227256704Y-178443600D03*
X225986704Y-178443600D03*
X224716704Y-178443600D03*
X243803392Y-169169600D03*
X245073392Y-169169600D03*
X246343392Y-169169600D03*
X247613392Y-169169600D03*
X247613392Y-164219600D03*
X246343392Y-164219600D03*
X245073392Y-164219600D03*
X243803392Y-164219600D03*
D11*
X159422500Y-204470000D03*
X161172500Y-204470000D03*
D19*
X205609816Y-187522600D03*
X207159816Y-187522600D03*
D13*
X179070000Y-282093000D03*
X179070000Y-280543000D03*
D12*
X157884500Y-227838000D03*
X156059500Y-227838000D03*
D24*
X222291412Y-248589800D03*
X222291412Y-246839800D03*
D15*
X243803392Y-183393600D03*
X245073392Y-183393600D03*
X246343392Y-183393600D03*
X247613392Y-183393600D03*
X247613392Y-178443600D03*
X246343392Y-178443600D03*
X245073392Y-178443600D03*
X243803392Y-178443600D03*
X175682480Y-169169600D03*
X176952480Y-169169600D03*
X178222480Y-169169600D03*
X179492480Y-169169600D03*
X179492480Y-164219600D03*
X178222480Y-164219600D03*
X176952480Y-164219600D03*
X175682480Y-164219600D03*
D12*
X255524000Y-197612000D03*
X253699000Y-197612000D03*
D15*
X213504016Y-183393600D03*
X214774016Y-183393600D03*
X216044016Y-183393600D03*
X217314016Y-183393600D03*
X217314016Y-178443600D03*
X216044016Y-178443600D03*
X214774016Y-178443600D03*
X213504016Y-178443600D03*
D10*
X215692004Y-240204000D03*
X214742004Y-240204000D03*
X213792004Y-240204000D03*
X213792004Y-242904000D03*
X214742004Y-242904000D03*
X215692004Y-242904000D03*
D12*
X274470500Y-197612000D03*
X272645500Y-197612000D03*
D18*
X231741200Y-252776253D03*
X230191200Y-252776253D03*
D15*
X262890080Y-169169600D03*
X264160080Y-169169600D03*
X265430080Y-169169600D03*
X266700080Y-169169600D03*
X266700080Y-164219600D03*
X265430080Y-164219600D03*
X264160080Y-164219600D03*
X262890080Y-164219600D03*
D13*
X211490216Y-167215600D03*
X211490216Y-165665600D03*
D23*
X179474500Y-200406000D03*
X177724500Y-200406000D03*
D11*
X167019000Y-200660000D03*
X168769000Y-200660000D03*
D12*
X158875100Y-260299200D03*
X157050100Y-260299200D03*
D20*
X230558704Y-191473600D03*
X230558704Y-193223600D03*
D22*
X196469000Y-259588000D03*
X196469000Y-261138000D03*
D14*
X209567016Y-187419100D03*
X209567016Y-185594100D03*
D19*
X170040000Y-284480000D03*
X171590000Y-284480000D03*
D20*
X166116080Y-191403000D03*
X166116080Y-193153000D03*
D24*
X241380200Y-248589800D03*
X241380200Y-246839800D03*
D20*
X173650480Y-191473600D03*
X173650480Y-193223600D03*
D12*
X239635000Y-242189000D03*
X237810000Y-242189000D03*
D15*
X251677392Y-183393600D03*
X252947392Y-183393600D03*
X254217392Y-183393600D03*
X255487392Y-183393600D03*
X255487392Y-178443600D03*
X254217392Y-178443600D03*
X252947392Y-178443600D03*
X251677392Y-178443600D03*
D17*
X254747004Y-252644300D03*
X254747004Y-254469300D03*
D23*
X236267000Y-200406000D03*
X234517000Y-200406000D03*
D15*
X205630016Y-194569600D03*
X206900016Y-194569600D03*
X208170016Y-194569600D03*
X209440016Y-194569600D03*
X209440016Y-189619600D03*
X208170016Y-189619600D03*
X206900016Y-189619600D03*
X205630016Y-189619600D03*
D11*
X159422500Y-184912000D03*
X161172500Y-184912000D03*
D15*
X186556028Y-183393600D03*
X187826028Y-183393600D03*
X189096028Y-183393600D03*
X190366028Y-183393600D03*
X190366028Y-178443600D03*
X189096028Y-178443600D03*
X187826028Y-178443600D03*
X186556028Y-178443600D03*
X167808480Y-183393600D03*
X169078480Y-183393600D03*
X170348480Y-183393600D03*
X171618480Y-183393600D03*
X171618480Y-178443600D03*
X170348480Y-178443600D03*
X169078480Y-178443600D03*
X167808480Y-178443600D03*
D12*
X157884500Y-211582000D03*
X156059500Y-211582000D03*
D14*
X268757480Y-171163100D03*
X268757480Y-169338100D03*
D25*
X161489000Y-181544000D03*
X161489000Y-179644000D03*
X159614000Y-180594000D03*
D20*
X184770828Y-191473600D03*
X184770828Y-193223600D03*
D14*
X219371416Y-170925000D03*
X219371416Y-169100000D03*
X266827080Y-187419100D03*
X266827080Y-185594100D03*
D25*
X161489000Y-201102000D03*
X161489000Y-199202000D03*
X159614000Y-200152000D03*
D22*
X233734800Y-272847800D03*
X233734800Y-274397800D03*
D11*
X262485500Y-200406000D03*
X264235500Y-200406000D03*
D15*
X232590704Y-169169600D03*
X233860704Y-169169600D03*
X235130704Y-169169600D03*
X236400704Y-169169600D03*
X236400704Y-164219600D03*
X235130704Y-164219600D03*
X233860704Y-164219600D03*
X232590704Y-164219600D03*
D23*
X259447000Y-239395000D03*
X257697000Y-239395000D03*
D14*
X247740392Y-187419100D03*
X247740392Y-185594100D03*
D23*
X220444000Y-239395000D03*
X218694000Y-239395000D03*
D14*
X217441016Y-187419100D03*
X217441016Y-185594100D03*
D15*
X194430028Y-183393600D03*
X195700028Y-183393600D03*
X196970028Y-183393600D03*
X198240028Y-183393600D03*
X198240028Y-178443600D03*
X196970028Y-178443600D03*
X195700028Y-178443600D03*
X194430028Y-178443600D03*
D14*
X171745480Y-187419100D03*
X171745480Y-185594100D03*
D11*
X208802000Y-239395000D03*
X210552000Y-239395000D03*
D10*
X248732080Y-199978000D03*
X249682080Y-199978000D03*
X250632080Y-199978000D03*
X250632080Y-197278000D03*
X249682080Y-197278000D03*
X248732080Y-197278000D03*
D20*
X242018192Y-191473600D03*
X242018192Y-193223600D03*
D12*
X264310500Y-197612000D03*
X262485500Y-197612000D03*
D24*
X214664212Y-248589800D03*
X214664212Y-246839800D03*
D16*
X212632212Y-245493800D03*
X211362212Y-245493800D03*
X210092212Y-245493800D03*
X208822212Y-245493800D03*
X208822212Y-250443800D03*
X210092212Y-250443800D03*
X211362212Y-250443800D03*
X212632212Y-250443800D03*
D19*
X186535828Y-187522600D03*
X188085828Y-187522600D03*
D11*
X160770600Y-260299200D03*
X162520600Y-260299200D03*
D19*
X270743880Y-187287147D03*
X272293880Y-187287147D03*
D12*
X245006500Y-197612000D03*
X243181500Y-197612000D03*
D20*
X203844816Y-191473600D03*
X203844816Y-193223600D03*
D16*
X250810004Y-245493800D03*
X249540004Y-245493800D03*
X248270004Y-245493800D03*
X247000004Y-245493800D03*
X247000004Y-250443800D03*
X248270004Y-250443800D03*
X249540004Y-250443800D03*
X250810004Y-250443800D03*
X212632212Y-256669800D03*
X211362212Y-256669800D03*
X210092212Y-256669800D03*
X208822212Y-256669800D03*
X208822212Y-261619800D03*
X210092212Y-261619800D03*
X211362212Y-261619800D03*
X212632212Y-261619800D03*
D18*
X258704204Y-252540800D03*
X257154204Y-252540800D03*
D17*
X208695212Y-252644300D03*
X208695212Y-254469300D03*
X246873004Y-252644300D03*
X246873004Y-254469300D03*
D15*
X213504016Y-194569600D03*
X214774016Y-194569600D03*
X216044016Y-194569600D03*
X217314016Y-194569600D03*
X217314016Y-189619600D03*
X216044016Y-189619600D03*
X214774016Y-189619600D03*
X213504016Y-189619600D03*
X224716704Y-194569600D03*
X225986704Y-194569600D03*
X227256704Y-194569600D03*
X228526704Y-194569600D03*
X228526704Y-189619600D03*
X227256704Y-189619600D03*
X225986704Y-189619600D03*
X224716704Y-189619600D03*
D18*
X250830204Y-252776253D03*
X249280204Y-252776253D03*
D23*
X255524000Y-200406000D03*
X253774000Y-200406000D03*
D15*
X232590704Y-194569600D03*
X233860704Y-194569600D03*
X235130704Y-194569600D03*
X236400704Y-194569600D03*
X236400704Y-189619600D03*
X235130704Y-189619600D03*
X233860704Y-189619600D03*
X232590704Y-189619600D03*
X251677392Y-169169600D03*
X252947392Y-169169600D03*
X254217392Y-169169600D03*
X255487392Y-169169600D03*
X255487392Y-164219600D03*
X254217392Y-164219600D03*
X252947392Y-164219600D03*
X251677392Y-164219600D03*
X262890080Y-183393600D03*
X264160080Y-183393600D03*
X265430080Y-183393600D03*
X266700080Y-183393600D03*
X266700080Y-178443600D03*
X265430080Y-178443600D03*
X264160080Y-178443600D03*
X262890080Y-178443600D03*
D16*
X258684004Y-245493800D03*
X257414004Y-245493800D03*
X256144004Y-245493800D03*
X254874004Y-245493800D03*
X254874004Y-250443800D03*
X256144004Y-250443800D03*
X257414004Y-250443800D03*
X258684004Y-250443800D03*
D12*
X226210500Y-197612000D03*
X224385500Y-197612000D03*
D11*
X159780000Y-235966000D03*
X161530000Y-235966000D03*
D17*
X227784000Y-252644300D03*
X227784000Y-254469300D03*
D14*
X198367028Y-187419100D03*
X198367028Y-185594100D03*
D15*
X167808480Y-194569600D03*
X169078480Y-194569600D03*
X170348480Y-194569600D03*
X171618480Y-194569600D03*
X171618480Y-189619600D03*
X170348480Y-189619600D03*
X169078480Y-189619600D03*
X167808480Y-189619600D03*
X205630016Y-169169600D03*
X206900016Y-169169600D03*
X208170016Y-169169600D03*
X209440016Y-169169600D03*
X209440016Y-164219600D03*
X208170016Y-164219600D03*
X206900016Y-164219600D03*
X205630016Y-164219600D03*
D18*
X220526412Y-252540800D03*
X218976412Y-252540800D03*
D16*
X231721000Y-256669800D03*
X230451000Y-256669800D03*
X229181000Y-256669800D03*
X227911000Y-256669800D03*
X227911000Y-261619800D03*
X229181000Y-261619800D03*
X230451000Y-261619800D03*
X231721000Y-261619800D03*
D13*
X268750280Y-167215600D03*
X268750280Y-165665600D03*
D15*
X213504016Y-169169600D03*
X214774016Y-169169600D03*
X216044016Y-169169600D03*
X217314016Y-169169600D03*
X217314016Y-164219600D03*
X216044016Y-164219600D03*
X214774016Y-164219600D03*
X213504016Y-164219600D03*
D23*
X198524500Y-200406000D03*
X196774500Y-200406000D03*
D26*
X267843000Y-266256800D03*
X275717000Y-266256800D03*
D12*
X187348500Y-197612000D03*
X185523500Y-197612000D03*
D19*
X243783192Y-187522600D03*
X245333192Y-187522600D03*
D14*
X236527704Y-187419100D03*
X236527704Y-185594100D03*
D12*
X157884500Y-219710000D03*
X156059500Y-219710000D03*
X198524500Y-197612000D03*
X196699500Y-197612000D03*
D11*
X185523500Y-200406000D03*
X187273500Y-200406000D03*
M02*
