%TF.GenerationSoftware,KiCad,Pcbnew,(5.1.12-1-g0a0a2da680)-1*%
%TF.CreationDate,2022-02-12T23:56:57-06:00*%
%TF.ProjectId,ArmBoard_Hardware,41726d42-6f61-4726-945f-486172647761,2*%
%TF.SameCoordinates,Original*%
%TF.FileFunction,Soldermask,Bot*%
%TF.FilePolarity,Negative*%
%FSLAX46Y46*%
G04 Gerber Fmt 4.6, Leading zero omitted, Abs format (unit mm)*
G04 Created by KiCad (PCBNEW (5.1.12-1-g0a0a2da680)-1) date 2022-02-12 23:56:57*
%MOMM*%
%LPD*%
G01*
G04 APERTURE LIST*
%ADD10C,2.946400*%
%ADD11C,1.520000*%
%ADD12C,5.080000*%
%ADD13C,1.524000*%
G04 APERTURE END LIST*
D10*
%TO.C,V4*%
X244729000Y-233273600D03*
%TD*%
%TO.C,V3*%
X108000800Y-38150800D03*
%TD*%
%TO.C,V2*%
X108056680Y-233382820D03*
%TD*%
%TO.C,V1*%
X244863620Y-38168580D03*
%TD*%
D11*
%TO.C,U1*%
X206286100Y-163093000D03*
X208826100Y-163093000D03*
X211366100Y-163093000D03*
X213906100Y-163093000D03*
X216446100Y-163093000D03*
X218986100Y-163093000D03*
X221526100Y-163093000D03*
X224066100Y-163093000D03*
X226606100Y-163093000D03*
X229146100Y-163093000D03*
X206286100Y-160553000D03*
X208826100Y-160553000D03*
X211366100Y-160553000D03*
X213906100Y-160553000D03*
X216446100Y-160553000D03*
X218986100Y-160553000D03*
X221526100Y-160553000D03*
X224066100Y-160553000D03*
X226606100Y-160553000D03*
X229146100Y-160553000D03*
X206286100Y-117373000D03*
X208826100Y-117373000D03*
X211366100Y-117373000D03*
X213906100Y-117373000D03*
X216446100Y-117373000D03*
X218986100Y-117373000D03*
X221526100Y-117373000D03*
X224066100Y-117373000D03*
X226606100Y-117373000D03*
X229146100Y-117373000D03*
X206286100Y-119913000D03*
X208826100Y-119913000D03*
X211366100Y-119913000D03*
X213906100Y-119913000D03*
X216446100Y-119913000D03*
X218986100Y-119913000D03*
X221526100Y-119913000D03*
X224066100Y-119913000D03*
X226606100Y-119913000D03*
X229146100Y-119913000D03*
X160566100Y-163093000D03*
X163106100Y-163093000D03*
X165646100Y-163093000D03*
X142786100Y-160553000D03*
X145326100Y-160553000D03*
X147866100Y-160553000D03*
X150406100Y-160553000D03*
X152946100Y-160553000D03*
X155486100Y-160553000D03*
X158026100Y-160553000D03*
X160566100Y-160553000D03*
X163106100Y-160553000D03*
X165646100Y-160553000D03*
X142786100Y-117373000D03*
X147866100Y-117373000D03*
X152946100Y-117373000D03*
X155486100Y-117373000D03*
X158026100Y-117373000D03*
X160566100Y-117373000D03*
X163106100Y-117373000D03*
X142786100Y-119913000D03*
X147866100Y-119913000D03*
X158026100Y-119913000D03*
X160566100Y-119913000D03*
X163106100Y-119913000D03*
X165646100Y-119913000D03*
X152946100Y-119913000D03*
X150406100Y-119913000D03*
X145326100Y-117373000D03*
X158026100Y-163093000D03*
X155486100Y-163093000D03*
X145326100Y-119913000D03*
X150406100Y-117373000D03*
X147866100Y-163093000D03*
X150406100Y-163093000D03*
X155486100Y-119913000D03*
X152946100Y-163093000D03*
X145326100Y-163093000D03*
X142786100Y-163093000D03*
X165646100Y-117373000D03*
%TD*%
D12*
%TO.C,PowerConn1*%
X203962100Y-221018000D03*
X196088100Y-221018000D03*
X188214100Y-221018000D03*
%TD*%
%TO.C,Conn7*%
X220307100Y-50228500D03*
X212433100Y-50228500D03*
%TD*%
%TO.C,Conn6*%
X198704100Y-50228500D03*
X190830100Y-50228500D03*
%TD*%
%TO.C,Conn5*%
X165074100Y-50355500D03*
X157200100Y-50355500D03*
%TD*%
%TO.C,Conn4*%
X143471900Y-50355500D03*
X135597900Y-50355500D03*
%TD*%
%TO.C,Conn3*%
X124472700Y-220890600D03*
X116598700Y-220890600D03*
%TD*%
%TO.C,Conn2*%
X148475700Y-220890600D03*
X140601700Y-220890600D03*
%TD*%
%TO.C,Conn1*%
X172479100Y-220890600D03*
X164605100Y-220890600D03*
%TD*%
D13*
%TO.C,Conn20*%
X237185200Y-179095400D03*
X239725200Y-179095400D03*
%TD*%
%TO.C,Conn19*%
X222796000Y-204381300D03*
X225336000Y-204381300D03*
%TD*%
%TO.C,Conn18*%
X233413100Y-46926500D03*
X235953100Y-46926500D03*
X238493100Y-46926500D03*
%TD*%
%TO.C,Conn17*%
X233413100Y-57281200D03*
X235953100Y-57281200D03*
X238493100Y-57281200D03*
%TD*%
%TO.C,Conn16*%
X237185200Y-186715400D03*
X239725200Y-186715400D03*
%TD*%
%TO.C,Conn14*%
X233413100Y-67636000D03*
X235953100Y-67636000D03*
X238493100Y-67636000D03*
%TD*%
%TO.C,Conn13*%
X233413100Y-77991000D03*
X235953100Y-77991000D03*
X238493100Y-77991000D03*
%TD*%
%TO.C,Conn12*%
X237185200Y-194970400D03*
X239725200Y-194970400D03*
%TD*%
%TO.C,Conn11*%
X237185200Y-203225400D03*
X239725200Y-203225400D03*
%TD*%
%TO.C,Conn10*%
X230175100Y-227140000D03*
X232715100Y-227140000D03*
X235255100Y-227140000D03*
%TD*%
%TO.C,Conn9*%
X217475100Y-227140000D03*
X220015100Y-227140000D03*
X222555100Y-227140000D03*
%TD*%
%TO.C,OKI 3.3*%
X221640900Y-187935100D03*
X224180900Y-187935100D03*
X226720900Y-187935100D03*
%TD*%
%TO.C,Conn15*%
X215074500Y-204431900D03*
X212534500Y-204431900D03*
%TD*%
M02*
