%TF.GenerationSoftware,KiCad,Pcbnew,(6.0.10)*%
%TF.CreationDate,2022-12-30T00:20:44-06:00*%
%TF.ProjectId,Armboard_Hardware,41726d62-6f61-4726-945f-486172647761,rev?*%
%TF.SameCoordinates,Original*%
%TF.FileFunction,Soldermask,Bot*%
%TF.FilePolarity,Negative*%
%FSLAX46Y46*%
G04 Gerber Fmt 4.6, Leading zero omitted, Abs format (unit mm)*
G04 Created by KiCad (PCBNEW (6.0.10)) date 2022-12-30 00:20:44*
%MOMM*%
%LPD*%
G01*
G04 APERTURE LIST*
G04 Aperture macros list*
%AMRoundRect*
0 Rectangle with rounded corners*
0 $1 Rounding radius*
0 $2 $3 $4 $5 $6 $7 $8 $9 X,Y pos of 4 corners*
0 Add a 4 corners polygon primitive as box body*
4,1,4,$2,$3,$4,$5,$6,$7,$8,$9,$2,$3,0*
0 Add four circle primitives for the rounded corners*
1,1,$1+$1,$2,$3*
1,1,$1+$1,$4,$5*
1,1,$1+$1,$6,$7*
1,1,$1+$1,$8,$9*
0 Add four rect primitives between the rounded corners*
20,1,$1+$1,$2,$3,$4,$5,0*
20,1,$1+$1,$4,$5,$6,$7,0*
20,1,$1+$1,$6,$7,$8,$9,0*
20,1,$1+$1,$8,$9,$2,$3,0*%
G04 Aperture macros list end*
%ADD10C,2.946400*%
%ADD11R,1.350000X1.350000*%
%ADD12O,1.350000X1.350000*%
%ADD13RoundRect,0.250000X0.620000X0.620000X-0.620000X0.620000X-0.620000X-0.620000X0.620000X-0.620000X0*%
%ADD14C,1.740000*%
%ADD15C,1.524000*%
%ADD16C,1.308000*%
%ADD17C,1.100000*%
%ADD18C,1.400000*%
%ADD19C,4.000000*%
%ADD20C,2.000000*%
%ADD21O,5.100000X3.000000*%
G04 APERTURE END LIST*
D10*
X285623000Y-159893000D03*
D11*
X184563000Y-261363000D03*
D12*
X184563000Y-259363000D03*
X186563000Y-261363000D03*
X186563000Y-259363000D03*
X188563000Y-261363000D03*
X188563000Y-259363000D03*
D13*
X168224200Y-226810000D03*
D14*
X165684200Y-226810000D03*
D13*
X168224200Y-243078000D03*
D14*
X165684200Y-243078000D03*
D15*
X175260000Y-282067000D03*
X172720000Y-282067000D03*
X170180000Y-282067000D03*
D13*
X168224200Y-210566000D03*
D14*
X165684200Y-210566000D03*
D13*
X273634200Y-226822000D03*
D14*
X271094200Y-226822000D03*
X268554200Y-226822000D03*
D13*
X273634200Y-251194000D03*
D14*
X271094200Y-251194000D03*
X268554200Y-251194000D03*
D10*
X285496000Y-283464000D03*
D13*
X273634200Y-234950000D03*
D14*
X271094200Y-234950000D03*
X268554200Y-234950000D03*
D13*
X168224200Y-234938000D03*
D14*
X165684200Y-234938000D03*
D13*
X168224200Y-218682000D03*
D14*
X165684200Y-218682000D03*
D13*
X273634200Y-218682000D03*
D14*
X271094200Y-218682000D03*
X268554200Y-218682000D03*
D13*
X160630000Y-194552000D03*
D14*
X158090000Y-194552000D03*
D10*
X156381580Y-283546420D03*
D13*
X168224200Y-251194000D03*
D14*
X165684200Y-251194000D03*
D16*
X203042000Y-229729500D03*
X205582000Y-229729500D03*
X208122000Y-229729500D03*
X210662000Y-229729500D03*
X236062000Y-229729500D03*
X205582000Y-214489500D03*
X213202000Y-229729500D03*
X215742000Y-229729500D03*
X218282000Y-229729500D03*
X220822000Y-229729500D03*
X223362000Y-229729500D03*
X225902000Y-229729500D03*
X228442000Y-229729500D03*
X230982000Y-229729500D03*
X233522000Y-229729500D03*
X233522000Y-214489500D03*
X230982000Y-214489500D03*
X228442000Y-214489500D03*
X225902000Y-214489500D03*
X223362000Y-214489500D03*
X220822000Y-214489500D03*
X218282000Y-214489500D03*
X215742000Y-214489500D03*
X213202000Y-214489500D03*
X210662000Y-214489500D03*
X208122000Y-214489500D03*
X238602000Y-229729500D03*
X241142000Y-229729500D03*
X243682000Y-229729500D03*
X246222000Y-229729500D03*
X248762000Y-229729500D03*
X251302000Y-229729500D03*
X253842000Y-229729500D03*
X256382000Y-229729500D03*
X258922000Y-229729500D03*
X258922000Y-214489500D03*
X256382000Y-214489500D03*
X253842000Y-214489500D03*
X251302000Y-214489500D03*
X248762000Y-214489500D03*
X246222000Y-214489500D03*
X243682000Y-214489500D03*
X241142000Y-214489500D03*
X238602000Y-214489500D03*
X200502000Y-229729500D03*
X236062000Y-214489500D03*
X203042000Y-214489500D03*
X200502000Y-214489500D03*
D10*
X156464000Y-159893000D03*
D13*
X273634200Y-210554000D03*
D14*
X271094200Y-210554000D03*
X268554200Y-210554000D03*
D13*
X160630000Y-174994000D03*
D14*
X158090000Y-174994000D03*
D17*
X185930000Y-267048000D03*
X187200000Y-264508000D03*
X188470000Y-267048000D03*
X189740000Y-264508000D03*
X191010000Y-267048000D03*
X192280000Y-264508000D03*
X193550000Y-267048000D03*
X194820000Y-264508000D03*
D18*
X184050000Y-278478000D03*
X186590000Y-276688000D03*
X194160000Y-278478000D03*
X196700000Y-276688000D03*
D19*
X184660000Y-273398000D03*
X196090000Y-273398000D03*
D20*
X182500000Y-270348000D03*
X198250000Y-270348000D03*
D13*
X273634200Y-243066000D03*
D14*
X271094200Y-243066000D03*
X268554200Y-243066000D03*
D21*
X267843000Y-266256800D03*
X275717000Y-266256800D03*
X169713480Y-173806600D03*
X177587480Y-173806600D03*
X226621704Y-173806600D03*
X234495704Y-173806600D03*
X256779004Y-266256800D03*
X248905004Y-266256800D03*
X218601212Y-266256800D03*
X210727212Y-266256800D03*
X188461028Y-173806600D03*
X196335028Y-173806600D03*
X207535016Y-173806600D03*
X215409016Y-173806600D03*
X245708392Y-173806600D03*
X253582392Y-173806600D03*
X237690000Y-266256800D03*
X229816000Y-266256800D03*
X264795080Y-173806600D03*
X272669080Y-173806600D03*
M02*
