%TF.GenerationSoftware,KiCad,Pcbnew,(5.1.12-1-g0a0a2da680)-1*%
%TF.CreationDate,2022-02-12T23:56:57-06:00*%
%TF.ProjectId,ArmBoard_Hardware,41726d42-6f61-4726-945f-486172647761,2*%
%TF.SameCoordinates,Original*%
%TF.FileFunction,Paste,Top*%
%TF.FilePolarity,Positive*%
%FSLAX46Y46*%
G04 Gerber Fmt 4.6, Leading zero omitted, Abs format (unit mm)*
G04 Created by KiCad (PCBNEW (5.1.12-1-g0a0a2da680)-1) date 2022-02-12 23:56:57*
%MOMM*%
%LPD*%
G01*
G04 APERTURE LIST*
%ADD10C,1.520000*%
%ADD11R,0.635000X1.854200*%
%ADD12R,6.223000X5.257800*%
%ADD13R,10.312400X5.257800*%
%ADD14C,5.080000*%
%ADD15R,1.600000X1.400000*%
%ADD16R,0.900000X0.800000*%
G04 APERTURE END LIST*
D10*
%TO.C,U1*%
X206286100Y-163093000D03*
X208826100Y-163093000D03*
X211366100Y-163093000D03*
X213906100Y-163093000D03*
X216446100Y-163093000D03*
X218986100Y-163093000D03*
X221526100Y-163093000D03*
X224066100Y-163093000D03*
X226606100Y-163093000D03*
X229146100Y-163093000D03*
X206286100Y-160553000D03*
X208826100Y-160553000D03*
X211366100Y-160553000D03*
X213906100Y-160553000D03*
X216446100Y-160553000D03*
X218986100Y-160553000D03*
X221526100Y-160553000D03*
X224066100Y-160553000D03*
X226606100Y-160553000D03*
X229146100Y-160553000D03*
X206286100Y-117373000D03*
X208826100Y-117373000D03*
X211366100Y-117373000D03*
X213906100Y-117373000D03*
X216446100Y-117373000D03*
X218986100Y-117373000D03*
X221526100Y-117373000D03*
X224066100Y-117373000D03*
X226606100Y-117373000D03*
X229146100Y-117373000D03*
X206286100Y-119913000D03*
X208826100Y-119913000D03*
X211366100Y-119913000D03*
X213906100Y-119913000D03*
X216446100Y-119913000D03*
X218986100Y-119913000D03*
X221526100Y-119913000D03*
X224066100Y-119913000D03*
X226606100Y-119913000D03*
X229146100Y-119913000D03*
X160566100Y-163093000D03*
X163106100Y-163093000D03*
X165646100Y-163093000D03*
X142786100Y-160553000D03*
X145326100Y-160553000D03*
X147866100Y-160553000D03*
X150406100Y-160553000D03*
X152946100Y-160553000D03*
X155486100Y-160553000D03*
X158026100Y-160553000D03*
X160566100Y-160553000D03*
X163106100Y-160553000D03*
X165646100Y-160553000D03*
X142786100Y-117373000D03*
X147866100Y-117373000D03*
X152946100Y-117373000D03*
X155486100Y-117373000D03*
X158026100Y-117373000D03*
X160566100Y-117373000D03*
X163106100Y-117373000D03*
X142786100Y-119913000D03*
X147866100Y-119913000D03*
X158026100Y-119913000D03*
X160566100Y-119913000D03*
X163106100Y-119913000D03*
X165646100Y-119913000D03*
X152946100Y-119913000D03*
X150406100Y-119913000D03*
X145326100Y-117373000D03*
X158026100Y-163093000D03*
X155486100Y-163093000D03*
X145326100Y-119913000D03*
X150406100Y-117373000D03*
X147866100Y-163093000D03*
X150406100Y-163093000D03*
X155486100Y-119913000D03*
X152946100Y-163093000D03*
X145326100Y-163093000D03*
X142786100Y-163093000D03*
X165646100Y-117373000D03*
%TD*%
D11*
%TO.C,MC4*%
X132606601Y-80106300D03*
X133606599Y-80106300D03*
X134606600Y-80106300D03*
X135606600Y-80106300D03*
X136606601Y-80106300D03*
X137606599Y-80106300D03*
X138606599Y-80106300D03*
X139606600Y-80106300D03*
X140606601Y-80106300D03*
X141606601Y-80106300D03*
X142606599Y-80106300D03*
X143606600Y-80106300D03*
X144606600Y-80106300D03*
X145606601Y-80106300D03*
X146606601Y-80106300D03*
X146606599Y-62097700D03*
X145606601Y-62097700D03*
X144606600Y-62097700D03*
X143606600Y-62097700D03*
X142606599Y-62097700D03*
X141606601Y-62097700D03*
X140606601Y-62097700D03*
X139606600Y-62097700D03*
X138606599Y-62097700D03*
X137606599Y-62097700D03*
X136606601Y-62097700D03*
X135606600Y-62097700D03*
X134606600Y-62097700D03*
X133606599Y-62097700D03*
X132606599Y-62097700D03*
D12*
X135441000Y-68054000D03*
D13*
X139606600Y-74150000D03*
D12*
X143772200Y-68054000D03*
%TD*%
%TO.C,D30*%
G36*
G01*
X105457800Y-62670700D02*
X105457800Y-62195700D01*
G75*
G02*
X105695300Y-61958200I237500J0D01*
G01*
X106270300Y-61958200D01*
G75*
G02*
X106507800Y-62195700I0J-237500D01*
G01*
X106507800Y-62670700D01*
G75*
G02*
X106270300Y-62908200I-237500J0D01*
G01*
X105695300Y-62908200D01*
G75*
G02*
X105457800Y-62670700I0J237500D01*
G01*
G37*
G36*
G01*
X107207800Y-62670700D02*
X107207800Y-62195700D01*
G75*
G02*
X107445300Y-61958200I237500J0D01*
G01*
X108020300Y-61958200D01*
G75*
G02*
X108257800Y-62195700I0J-237500D01*
G01*
X108257800Y-62670700D01*
G75*
G02*
X108020300Y-62908200I-237500J0D01*
G01*
X107445300Y-62908200D01*
G75*
G02*
X107207800Y-62670700I0J237500D01*
G01*
G37*
%TD*%
%TO.C,D25*%
G36*
G01*
X111934800Y-84070500D02*
X111934800Y-83595500D01*
G75*
G02*
X112172300Y-83358000I237500J0D01*
G01*
X112747300Y-83358000D01*
G75*
G02*
X112984800Y-83595500I0J-237500D01*
G01*
X112984800Y-84070500D01*
G75*
G02*
X112747300Y-84308000I-237500J0D01*
G01*
X112172300Y-84308000D01*
G75*
G02*
X111934800Y-84070500I0J237500D01*
G01*
G37*
G36*
G01*
X113684800Y-84070500D02*
X113684800Y-83595500D01*
G75*
G02*
X113922300Y-83358000I237500J0D01*
G01*
X114497300Y-83358000D01*
G75*
G02*
X114734800Y-83595500I0J-237500D01*
G01*
X114734800Y-84070500D01*
G75*
G02*
X114497300Y-84308000I-237500J0D01*
G01*
X113922300Y-84308000D01*
G75*
G02*
X113684800Y-84070500I0J237500D01*
G01*
G37*
%TD*%
%TO.C,D27*%
G36*
G01*
X105316800Y-77276500D02*
X105316800Y-76801500D01*
G75*
G02*
X105554300Y-76564000I237500J0D01*
G01*
X106129300Y-76564000D01*
G75*
G02*
X106366800Y-76801500I0J-237500D01*
G01*
X106366800Y-77276500D01*
G75*
G02*
X106129300Y-77514000I-237500J0D01*
G01*
X105554300Y-77514000D01*
G75*
G02*
X105316800Y-77276500I0J237500D01*
G01*
G37*
G36*
G01*
X107066800Y-77276500D02*
X107066800Y-76801500D01*
G75*
G02*
X107304300Y-76564000I237500J0D01*
G01*
X107879300Y-76564000D01*
G75*
G02*
X108116800Y-76801500I0J-237500D01*
G01*
X108116800Y-77276500D01*
G75*
G02*
X107879300Y-77514000I-237500J0D01*
G01*
X107304300Y-77514000D01*
G75*
G02*
X107066800Y-77276500I0J237500D01*
G01*
G37*
%TD*%
%TO.C,D31*%
G36*
G01*
X114734800Y-62259200D02*
X114734800Y-62734200D01*
G75*
G02*
X114497300Y-62971700I-237500J0D01*
G01*
X113922300Y-62971700D01*
G75*
G02*
X113684800Y-62734200I0J237500D01*
G01*
X113684800Y-62259200D01*
G75*
G02*
X113922300Y-62021700I237500J0D01*
G01*
X114497300Y-62021700D01*
G75*
G02*
X114734800Y-62259200I0J-237500D01*
G01*
G37*
G36*
G01*
X112984800Y-62259200D02*
X112984800Y-62734200D01*
G75*
G02*
X112747300Y-62971700I-237500J0D01*
G01*
X112172300Y-62971700D01*
G75*
G02*
X111934800Y-62734200I0J237500D01*
G01*
X111934800Y-62259200D01*
G75*
G02*
X112172300Y-62021700I237500J0D01*
G01*
X112747300Y-62021700D01*
G75*
G02*
X112984800Y-62259200I0J-237500D01*
G01*
G37*
%TD*%
%TO.C,D28*%
G36*
G01*
X111744300Y-77402500D02*
X111744300Y-76927500D01*
G75*
G02*
X111981800Y-76690000I237500J0D01*
G01*
X112556800Y-76690000D01*
G75*
G02*
X112794300Y-76927500I0J-237500D01*
G01*
X112794300Y-77402500D01*
G75*
G02*
X112556800Y-77640000I-237500J0D01*
G01*
X111981800Y-77640000D01*
G75*
G02*
X111744300Y-77402500I0J237500D01*
G01*
G37*
G36*
G01*
X113494300Y-77402500D02*
X113494300Y-76927500D01*
G75*
G02*
X113731800Y-76690000I237500J0D01*
G01*
X114306800Y-76690000D01*
G75*
G02*
X114544300Y-76927500I0J-237500D01*
G01*
X114544300Y-77402500D01*
G75*
G02*
X114306800Y-77640000I-237500J0D01*
G01*
X113731800Y-77640000D01*
G75*
G02*
X113494300Y-77402500I0J237500D01*
G01*
G37*
%TD*%
%TO.C,D11*%
G36*
G01*
X105408300Y-70671500D02*
X105408300Y-70196500D01*
G75*
G02*
X105645800Y-69959000I237500J0D01*
G01*
X106220800Y-69959000D01*
G75*
G02*
X106458300Y-70196500I0J-237500D01*
G01*
X106458300Y-70671500D01*
G75*
G02*
X106220800Y-70909000I-237500J0D01*
G01*
X105645800Y-70909000D01*
G75*
G02*
X105408300Y-70671500I0J237500D01*
G01*
G37*
G36*
G01*
X107158300Y-70671500D02*
X107158300Y-70196500D01*
G75*
G02*
X107395800Y-69959000I237500J0D01*
G01*
X107970800Y-69959000D01*
G75*
G02*
X108208300Y-70196500I0J-237500D01*
G01*
X108208300Y-70671500D01*
G75*
G02*
X107970800Y-70909000I-237500J0D01*
G01*
X107395800Y-70909000D01*
G75*
G02*
X107158300Y-70671500I0J237500D01*
G01*
G37*
%TD*%
%TO.C,D3*%
G36*
G01*
X112088500Y-92109500D02*
X112088500Y-91634500D01*
G75*
G02*
X112326000Y-91397000I237500J0D01*
G01*
X112901000Y-91397000D01*
G75*
G02*
X113138500Y-91634500I0J-237500D01*
G01*
X113138500Y-92109500D01*
G75*
G02*
X112901000Y-92347000I-237500J0D01*
G01*
X112326000Y-92347000D01*
G75*
G02*
X112088500Y-92109500I0J237500D01*
G01*
G37*
G36*
G01*
X113838500Y-92109500D02*
X113838500Y-91634500D01*
G75*
G02*
X114076000Y-91397000I237500J0D01*
G01*
X114651000Y-91397000D01*
G75*
G02*
X114888500Y-91634500I0J-237500D01*
G01*
X114888500Y-92109500D01*
G75*
G02*
X114651000Y-92347000I-237500J0D01*
G01*
X114076000Y-92347000D01*
G75*
G02*
X113838500Y-92109500I0J237500D01*
G01*
G37*
%TD*%
%TO.C,D8*%
G36*
G01*
X105661000Y-105571500D02*
X105661000Y-105096500D01*
G75*
G02*
X105898500Y-104859000I237500J0D01*
G01*
X106473500Y-104859000D01*
G75*
G02*
X106711000Y-105096500I0J-237500D01*
G01*
X106711000Y-105571500D01*
G75*
G02*
X106473500Y-105809000I-237500J0D01*
G01*
X105898500Y-105809000D01*
G75*
G02*
X105661000Y-105571500I0J237500D01*
G01*
G37*
G36*
G01*
X107411000Y-105571500D02*
X107411000Y-105096500D01*
G75*
G02*
X107648500Y-104859000I237500J0D01*
G01*
X108223500Y-104859000D01*
G75*
G02*
X108461000Y-105096500I0J-237500D01*
G01*
X108461000Y-105571500D01*
G75*
G02*
X108223500Y-105809000I-237500J0D01*
G01*
X107648500Y-105809000D01*
G75*
G02*
X107411000Y-105571500I0J237500D01*
G01*
G37*
%TD*%
%TO.C,D9*%
G36*
G01*
X112201500Y-105571500D02*
X112201500Y-105096500D01*
G75*
G02*
X112439000Y-104859000I237500J0D01*
G01*
X113014000Y-104859000D01*
G75*
G02*
X113251500Y-105096500I0J-237500D01*
G01*
X113251500Y-105571500D01*
G75*
G02*
X113014000Y-105809000I-237500J0D01*
G01*
X112439000Y-105809000D01*
G75*
G02*
X112201500Y-105571500I0J237500D01*
G01*
G37*
G36*
G01*
X113951500Y-105571500D02*
X113951500Y-105096500D01*
G75*
G02*
X114189000Y-104859000I237500J0D01*
G01*
X114764000Y-104859000D01*
G75*
G02*
X115001500Y-105096500I0J-237500D01*
G01*
X115001500Y-105571500D01*
G75*
G02*
X114764000Y-105809000I-237500J0D01*
G01*
X114189000Y-105809000D01*
G75*
G02*
X113951500Y-105571500I0J237500D01*
G01*
G37*
%TD*%
%TO.C,D6*%
G36*
G01*
X112074500Y-98776500D02*
X112074500Y-98301500D01*
G75*
G02*
X112312000Y-98064000I237500J0D01*
G01*
X112887000Y-98064000D01*
G75*
G02*
X113124500Y-98301500I0J-237500D01*
G01*
X113124500Y-98776500D01*
G75*
G02*
X112887000Y-99014000I-237500J0D01*
G01*
X112312000Y-99014000D01*
G75*
G02*
X112074500Y-98776500I0J237500D01*
G01*
G37*
G36*
G01*
X113824500Y-98776500D02*
X113824500Y-98301500D01*
G75*
G02*
X114062000Y-98064000I237500J0D01*
G01*
X114637000Y-98064000D01*
G75*
G02*
X114874500Y-98301500I0J-237500D01*
G01*
X114874500Y-98776500D01*
G75*
G02*
X114637000Y-99014000I-237500J0D01*
G01*
X114062000Y-99014000D01*
G75*
G02*
X113824500Y-98776500I0J237500D01*
G01*
G37*
%TD*%
%TO.C,D12*%
G36*
G01*
X111871300Y-70608500D02*
X111871300Y-70133500D01*
G75*
G02*
X112108800Y-69896000I237500J0D01*
G01*
X112683800Y-69896000D01*
G75*
G02*
X112921300Y-70133500I0J-237500D01*
G01*
X112921300Y-70608500D01*
G75*
G02*
X112683800Y-70846000I-237500J0D01*
G01*
X112108800Y-70846000D01*
G75*
G02*
X111871300Y-70608500I0J237500D01*
G01*
G37*
G36*
G01*
X113621300Y-70608500D02*
X113621300Y-70133500D01*
G75*
G02*
X113858800Y-69896000I237500J0D01*
G01*
X114433800Y-69896000D01*
G75*
G02*
X114671300Y-70133500I0J-237500D01*
G01*
X114671300Y-70608500D01*
G75*
G02*
X114433800Y-70846000I-237500J0D01*
G01*
X113858800Y-70846000D01*
G75*
G02*
X113621300Y-70608500I0J237500D01*
G01*
G37*
%TD*%
%TO.C,D14*%
G36*
G01*
X105521300Y-84006500D02*
X105521300Y-83531500D01*
G75*
G02*
X105758800Y-83294000I237500J0D01*
G01*
X106333800Y-83294000D01*
G75*
G02*
X106571300Y-83531500I0J-237500D01*
G01*
X106571300Y-84006500D01*
G75*
G02*
X106333800Y-84244000I-237500J0D01*
G01*
X105758800Y-84244000D01*
G75*
G02*
X105521300Y-84006500I0J237500D01*
G01*
G37*
G36*
G01*
X107271300Y-84006500D02*
X107271300Y-83531500D01*
G75*
G02*
X107508800Y-83294000I237500J0D01*
G01*
X108083800Y-83294000D01*
G75*
G02*
X108321300Y-83531500I0J-237500D01*
G01*
X108321300Y-84006500D01*
G75*
G02*
X108083800Y-84244000I-237500J0D01*
G01*
X107508800Y-84244000D01*
G75*
G02*
X107271300Y-84006500I0J237500D01*
G01*
G37*
%TD*%
%TO.C,R7*%
G36*
G01*
X105345300Y-72259500D02*
X105345300Y-71784500D01*
G75*
G02*
X105582800Y-71547000I237500J0D01*
G01*
X106082800Y-71547000D01*
G75*
G02*
X106320300Y-71784500I0J-237500D01*
G01*
X106320300Y-72259500D01*
G75*
G02*
X106082800Y-72497000I-237500J0D01*
G01*
X105582800Y-72497000D01*
G75*
G02*
X105345300Y-72259500I0J237500D01*
G01*
G37*
G36*
G01*
X107170300Y-72259500D02*
X107170300Y-71784500D01*
G75*
G02*
X107407800Y-71547000I237500J0D01*
G01*
X107907800Y-71547000D01*
G75*
G02*
X108145300Y-71784500I0J-237500D01*
G01*
X108145300Y-72259500D01*
G75*
G02*
X107907800Y-72497000I-237500J0D01*
G01*
X107407800Y-72497000D01*
G75*
G02*
X107170300Y-72259500I0J237500D01*
G01*
G37*
%TD*%
%TO.C,R11*%
G36*
G01*
X105330800Y-78926500D02*
X105330800Y-78451500D01*
G75*
G02*
X105568300Y-78214000I237500J0D01*
G01*
X106068300Y-78214000D01*
G75*
G02*
X106305800Y-78451500I0J-237500D01*
G01*
X106305800Y-78926500D01*
G75*
G02*
X106068300Y-79164000I-237500J0D01*
G01*
X105568300Y-79164000D01*
G75*
G02*
X105330800Y-78926500I0J237500D01*
G01*
G37*
G36*
G01*
X107155800Y-78926500D02*
X107155800Y-78451500D01*
G75*
G02*
X107393300Y-78214000I237500J0D01*
G01*
X107893300Y-78214000D01*
G75*
G02*
X108130800Y-78451500I0J-237500D01*
G01*
X108130800Y-78926500D01*
G75*
G02*
X107893300Y-79164000I-237500J0D01*
G01*
X107393300Y-79164000D01*
G75*
G02*
X107155800Y-78926500I0J237500D01*
G01*
G37*
%TD*%
%TO.C,R13*%
G36*
G01*
X107239800Y-64282600D02*
X107239800Y-63807600D01*
G75*
G02*
X107477300Y-63570100I237500J0D01*
G01*
X107977300Y-63570100D01*
G75*
G02*
X108214800Y-63807600I0J-237500D01*
G01*
X108214800Y-64282600D01*
G75*
G02*
X107977300Y-64520100I-237500J0D01*
G01*
X107477300Y-64520100D01*
G75*
G02*
X107239800Y-64282600I0J237500D01*
G01*
G37*
G36*
G01*
X105414800Y-64282600D02*
X105414800Y-63807600D01*
G75*
G02*
X105652300Y-63570100I237500J0D01*
G01*
X106152300Y-63570100D01*
G75*
G02*
X106389800Y-63807600I0J-237500D01*
G01*
X106389800Y-64282600D01*
G75*
G02*
X106152300Y-64520100I-237500J0D01*
G01*
X105652300Y-64520100D01*
G75*
G02*
X105414800Y-64282600I0J237500D01*
G01*
G37*
%TD*%
%TO.C,R8*%
G36*
G01*
X111885800Y-72259500D02*
X111885800Y-71784500D01*
G75*
G02*
X112123300Y-71547000I237500J0D01*
G01*
X112623300Y-71547000D01*
G75*
G02*
X112860800Y-71784500I0J-237500D01*
G01*
X112860800Y-72259500D01*
G75*
G02*
X112623300Y-72497000I-237500J0D01*
G01*
X112123300Y-72497000D01*
G75*
G02*
X111885800Y-72259500I0J237500D01*
G01*
G37*
G36*
G01*
X113710800Y-72259500D02*
X113710800Y-71784500D01*
G75*
G02*
X113948300Y-71547000I237500J0D01*
G01*
X114448300Y-71547000D01*
G75*
G02*
X114685800Y-71784500I0J-237500D01*
G01*
X114685800Y-72259500D01*
G75*
G02*
X114448300Y-72497000I-237500J0D01*
G01*
X113948300Y-72497000D01*
G75*
G02*
X113710800Y-72259500I0J237500D01*
G01*
G37*
%TD*%
%TO.C,R14*%
G36*
G01*
X111929900Y-64289900D02*
X111929900Y-63814900D01*
G75*
G02*
X112167400Y-63577400I237500J0D01*
G01*
X112667400Y-63577400D01*
G75*
G02*
X112904900Y-63814900I0J-237500D01*
G01*
X112904900Y-64289900D01*
G75*
G02*
X112667400Y-64527400I-237500J0D01*
G01*
X112167400Y-64527400D01*
G75*
G02*
X111929900Y-64289900I0J237500D01*
G01*
G37*
G36*
G01*
X113754900Y-64289900D02*
X113754900Y-63814900D01*
G75*
G02*
X113992400Y-63577400I237500J0D01*
G01*
X114492400Y-63577400D01*
G75*
G02*
X114729900Y-63814900I0J-237500D01*
G01*
X114729900Y-64289900D01*
G75*
G02*
X114492400Y-64527400I-237500J0D01*
G01*
X113992400Y-64527400D01*
G75*
G02*
X113754900Y-64289900I0J237500D01*
G01*
G37*
%TD*%
%TO.C,R3*%
G36*
G01*
X105561200Y-100442500D02*
X105561200Y-99967500D01*
G75*
G02*
X105798700Y-99730000I237500J0D01*
G01*
X106298700Y-99730000D01*
G75*
G02*
X106536200Y-99967500I0J-237500D01*
G01*
X106536200Y-100442500D01*
G75*
G02*
X106298700Y-100680000I-237500J0D01*
G01*
X105798700Y-100680000D01*
G75*
G02*
X105561200Y-100442500I0J237500D01*
G01*
G37*
G36*
G01*
X107386200Y-100442500D02*
X107386200Y-99967500D01*
G75*
G02*
X107623700Y-99730000I237500J0D01*
G01*
X108123700Y-99730000D01*
G75*
G02*
X108361200Y-99967500I0J-237500D01*
G01*
X108361200Y-100442500D01*
G75*
G02*
X108123700Y-100680000I-237500J0D01*
G01*
X107623700Y-100680000D01*
G75*
G02*
X107386200Y-100442500I0J237500D01*
G01*
G37*
%TD*%
%TO.C,D5*%
G36*
G01*
X105597500Y-98840500D02*
X105597500Y-98365500D01*
G75*
G02*
X105835000Y-98128000I237500J0D01*
G01*
X106410000Y-98128000D01*
G75*
G02*
X106647500Y-98365500I0J-237500D01*
G01*
X106647500Y-98840500D01*
G75*
G02*
X106410000Y-99078000I-237500J0D01*
G01*
X105835000Y-99078000D01*
G75*
G02*
X105597500Y-98840500I0J237500D01*
G01*
G37*
G36*
G01*
X107347500Y-98840500D02*
X107347500Y-98365500D01*
G75*
G02*
X107585000Y-98128000I237500J0D01*
G01*
X108160000Y-98128000D01*
G75*
G02*
X108397500Y-98365500I0J-237500D01*
G01*
X108397500Y-98840500D01*
G75*
G02*
X108160000Y-99078000I-237500J0D01*
G01*
X107585000Y-99078000D01*
G75*
G02*
X107347500Y-98840500I0J237500D01*
G01*
G37*
%TD*%
%TO.C,D2*%
G36*
G01*
X105597500Y-92109500D02*
X105597500Y-91634500D01*
G75*
G02*
X105835000Y-91397000I237500J0D01*
G01*
X106410000Y-91397000D01*
G75*
G02*
X106647500Y-91634500I0J-237500D01*
G01*
X106647500Y-92109500D01*
G75*
G02*
X106410000Y-92347000I-237500J0D01*
G01*
X105835000Y-92347000D01*
G75*
G02*
X105597500Y-92109500I0J237500D01*
G01*
G37*
G36*
G01*
X107347500Y-92109500D02*
X107347500Y-91634500D01*
G75*
G02*
X107585000Y-91397000I237500J0D01*
G01*
X108160000Y-91397000D01*
G75*
G02*
X108397500Y-91634500I0J-237500D01*
G01*
X108397500Y-92109500D01*
G75*
G02*
X108160000Y-92347000I-237500J0D01*
G01*
X107585000Y-92347000D01*
G75*
G02*
X107347500Y-92109500I0J237500D01*
G01*
G37*
%TD*%
%TO.C,R2*%
G36*
G01*
X112058400Y-93690500D02*
X112058400Y-93215500D01*
G75*
G02*
X112295900Y-92978000I237500J0D01*
G01*
X112795900Y-92978000D01*
G75*
G02*
X113033400Y-93215500I0J-237500D01*
G01*
X113033400Y-93690500D01*
G75*
G02*
X112795900Y-93928000I-237500J0D01*
G01*
X112295900Y-93928000D01*
G75*
G02*
X112058400Y-93690500I0J237500D01*
G01*
G37*
G36*
G01*
X113883400Y-93690500D02*
X113883400Y-93215500D01*
G75*
G02*
X114120900Y-92978000I237500J0D01*
G01*
X114620900Y-92978000D01*
G75*
G02*
X114858400Y-93215500I0J-237500D01*
G01*
X114858400Y-93690500D01*
G75*
G02*
X114620900Y-93928000I-237500J0D01*
G01*
X114120900Y-93928000D01*
G75*
G02*
X113883400Y-93690500I0J237500D01*
G01*
G37*
%TD*%
%TO.C,R9*%
G36*
G01*
X105503700Y-85617500D02*
X105503700Y-85142500D01*
G75*
G02*
X105741200Y-84905000I237500J0D01*
G01*
X106241200Y-84905000D01*
G75*
G02*
X106478700Y-85142500I0J-237500D01*
G01*
X106478700Y-85617500D01*
G75*
G02*
X106241200Y-85855000I-237500J0D01*
G01*
X105741200Y-85855000D01*
G75*
G02*
X105503700Y-85617500I0J237500D01*
G01*
G37*
G36*
G01*
X107328700Y-85617500D02*
X107328700Y-85142500D01*
G75*
G02*
X107566200Y-84905000I237500J0D01*
G01*
X108066200Y-84905000D01*
G75*
G02*
X108303700Y-85142500I0J-237500D01*
G01*
X108303700Y-85617500D01*
G75*
G02*
X108066200Y-85855000I-237500J0D01*
G01*
X107566200Y-85855000D01*
G75*
G02*
X107328700Y-85617500I0J237500D01*
G01*
G37*
%TD*%
%TO.C,R4*%
G36*
G01*
X112050900Y-100365500D02*
X112050900Y-99890500D01*
G75*
G02*
X112288400Y-99653000I237500J0D01*
G01*
X112788400Y-99653000D01*
G75*
G02*
X113025900Y-99890500I0J-237500D01*
G01*
X113025900Y-100365500D01*
G75*
G02*
X112788400Y-100603000I-237500J0D01*
G01*
X112288400Y-100603000D01*
G75*
G02*
X112050900Y-100365500I0J237500D01*
G01*
G37*
G36*
G01*
X113875900Y-100365500D02*
X113875900Y-99890500D01*
G75*
G02*
X114113400Y-99653000I237500J0D01*
G01*
X114613400Y-99653000D01*
G75*
G02*
X114850900Y-99890500I0J-237500D01*
G01*
X114850900Y-100365500D01*
G75*
G02*
X114613400Y-100603000I-237500J0D01*
G01*
X114113400Y-100603000D01*
G75*
G02*
X113875900Y-100365500I0J237500D01*
G01*
G37*
%TD*%
%TO.C,R1*%
G36*
G01*
X105581400Y-93681500D02*
X105581400Y-93206500D01*
G75*
G02*
X105818900Y-92969000I237500J0D01*
G01*
X106318900Y-92969000D01*
G75*
G02*
X106556400Y-93206500I0J-237500D01*
G01*
X106556400Y-93681500D01*
G75*
G02*
X106318900Y-93919000I-237500J0D01*
G01*
X105818900Y-93919000D01*
G75*
G02*
X105581400Y-93681500I0J237500D01*
G01*
G37*
G36*
G01*
X107406400Y-93681500D02*
X107406400Y-93206500D01*
G75*
G02*
X107643900Y-92969000I237500J0D01*
G01*
X108143900Y-92969000D01*
G75*
G02*
X108381400Y-93206500I0J-237500D01*
G01*
X108381400Y-93681500D01*
G75*
G02*
X108143900Y-93919000I-237500J0D01*
G01*
X107643900Y-93919000D01*
G75*
G02*
X107406400Y-93681500I0J237500D01*
G01*
G37*
%TD*%
%TO.C,R6*%
G36*
G01*
X112192000Y-107156500D02*
X112192000Y-106681500D01*
G75*
G02*
X112429500Y-106444000I237500J0D01*
G01*
X112929500Y-106444000D01*
G75*
G02*
X113167000Y-106681500I0J-237500D01*
G01*
X113167000Y-107156500D01*
G75*
G02*
X112929500Y-107394000I-237500J0D01*
G01*
X112429500Y-107394000D01*
G75*
G02*
X112192000Y-107156500I0J237500D01*
G01*
G37*
G36*
G01*
X114017000Y-107156500D02*
X114017000Y-106681500D01*
G75*
G02*
X114254500Y-106444000I237500J0D01*
G01*
X114754500Y-106444000D01*
G75*
G02*
X114992000Y-106681500I0J-237500D01*
G01*
X114992000Y-107156500D01*
G75*
G02*
X114754500Y-107394000I-237500J0D01*
G01*
X114254500Y-107394000D01*
G75*
G02*
X114017000Y-107156500I0J237500D01*
G01*
G37*
%TD*%
%TO.C,R10*%
G36*
G01*
X111980700Y-85680500D02*
X111980700Y-85205500D01*
G75*
G02*
X112218200Y-84968000I237500J0D01*
G01*
X112718200Y-84968000D01*
G75*
G02*
X112955700Y-85205500I0J-237500D01*
G01*
X112955700Y-85680500D01*
G75*
G02*
X112718200Y-85918000I-237500J0D01*
G01*
X112218200Y-85918000D01*
G75*
G02*
X111980700Y-85680500I0J237500D01*
G01*
G37*
G36*
G01*
X113805700Y-85680500D02*
X113805700Y-85205500D01*
G75*
G02*
X114043200Y-84968000I237500J0D01*
G01*
X114543200Y-84968000D01*
G75*
G02*
X114780700Y-85205500I0J-237500D01*
G01*
X114780700Y-85680500D01*
G75*
G02*
X114543200Y-85918000I-237500J0D01*
G01*
X114043200Y-85918000D01*
G75*
G02*
X113805700Y-85680500I0J237500D01*
G01*
G37*
%TD*%
%TO.C,R5*%
G36*
G01*
X105651500Y-107156500D02*
X105651500Y-106681500D01*
G75*
G02*
X105889000Y-106444000I237500J0D01*
G01*
X106389000Y-106444000D01*
G75*
G02*
X106626500Y-106681500I0J-237500D01*
G01*
X106626500Y-107156500D01*
G75*
G02*
X106389000Y-107394000I-237500J0D01*
G01*
X105889000Y-107394000D01*
G75*
G02*
X105651500Y-107156500I0J237500D01*
G01*
G37*
G36*
G01*
X107476500Y-107156500D02*
X107476500Y-106681500D01*
G75*
G02*
X107714000Y-106444000I237500J0D01*
G01*
X108214000Y-106444000D01*
G75*
G02*
X108451500Y-106681500I0J-237500D01*
G01*
X108451500Y-107156500D01*
G75*
G02*
X108214000Y-107394000I-237500J0D01*
G01*
X107714000Y-107394000D01*
G75*
G02*
X107476500Y-107156500I0J237500D01*
G01*
G37*
%TD*%
%TO.C,R12*%
G36*
G01*
X111744300Y-78926500D02*
X111744300Y-78451500D01*
G75*
G02*
X111981800Y-78214000I237500J0D01*
G01*
X112481800Y-78214000D01*
G75*
G02*
X112719300Y-78451500I0J-237500D01*
G01*
X112719300Y-78926500D01*
G75*
G02*
X112481800Y-79164000I-237500J0D01*
G01*
X111981800Y-79164000D01*
G75*
G02*
X111744300Y-78926500I0J237500D01*
G01*
G37*
G36*
G01*
X113569300Y-78926500D02*
X113569300Y-78451500D01*
G75*
G02*
X113806800Y-78214000I237500J0D01*
G01*
X114306800Y-78214000D01*
G75*
G02*
X114544300Y-78451500I0J-237500D01*
G01*
X114544300Y-78926500D01*
G75*
G02*
X114306800Y-79164000I-237500J0D01*
G01*
X113806800Y-79164000D01*
G75*
G02*
X113569300Y-78926500I0J237500D01*
G01*
G37*
%TD*%
D14*
%TO.C,Conn7*%
X220307100Y-50228500D03*
X212433100Y-50228500D03*
%TD*%
%TO.C,Conn6*%
X198704100Y-50228500D03*
X190830100Y-50228500D03*
%TD*%
%TO.C,Conn5*%
X165074100Y-50355500D03*
X157200100Y-50355500D03*
%TD*%
%TO.C,Conn4*%
X143471900Y-50355500D03*
X135597900Y-50355500D03*
%TD*%
%TO.C,Conn3*%
X124472700Y-220890600D03*
X116598700Y-220890600D03*
%TD*%
%TO.C,Conn2*%
X148475700Y-220890600D03*
X140601700Y-220890600D03*
%TD*%
%TO.C,Conn1*%
X172479100Y-220890600D03*
X164605100Y-220890600D03*
%TD*%
D15*
%TO.C,SW7*%
X235554100Y-125413000D03*
X242754100Y-125413000D03*
X235554100Y-122413000D03*
X242754100Y-122413000D03*
%TD*%
%TO.C,SW6*%
X235554100Y-113907000D03*
X242754100Y-113907000D03*
X235554100Y-110907000D03*
X242754100Y-110907000D03*
%TD*%
%TO.C,SW5*%
X235554100Y-90895000D03*
X242754100Y-90895000D03*
X235554100Y-87895000D03*
X242754100Y-87895000D03*
%TD*%
%TO.C,SW4*%
X235554100Y-102401000D03*
X242754100Y-102401000D03*
X235554100Y-99401000D03*
X242754100Y-99401000D03*
%TD*%
%TO.C,SW3*%
X235554100Y-136920000D03*
X242754100Y-136920000D03*
X235554100Y-133920000D03*
X242754100Y-133920000D03*
%TD*%
%TO.C,SW2*%
X235554100Y-148426000D03*
X242754100Y-148426000D03*
X235554100Y-145426000D03*
X242754100Y-145426000D03*
%TD*%
%TO.C,SW1*%
X235554100Y-159932000D03*
X242754100Y-159932000D03*
X235554100Y-156932000D03*
X242754100Y-156932000D03*
%TD*%
D11*
%TO.C,MC6*%
X187754101Y-80360300D03*
X188754099Y-80360300D03*
X189754100Y-80360300D03*
X190754100Y-80360300D03*
X191754101Y-80360300D03*
X192754099Y-80360300D03*
X193754099Y-80360300D03*
X194754100Y-80360300D03*
X195754101Y-80360300D03*
X196754101Y-80360300D03*
X197754099Y-80360300D03*
X198754100Y-80360300D03*
X199754100Y-80360300D03*
X200754101Y-80360300D03*
X201754101Y-80360300D03*
X201754099Y-62351700D03*
X200754101Y-62351700D03*
X199754100Y-62351700D03*
X198754100Y-62351700D03*
X197754099Y-62351700D03*
X196754101Y-62351700D03*
X195754101Y-62351700D03*
X194754100Y-62351700D03*
X193754099Y-62351700D03*
X192754099Y-62351700D03*
X191754101Y-62351700D03*
X190754100Y-62351700D03*
X189754100Y-62351700D03*
X188754099Y-62351700D03*
X187754099Y-62351700D03*
D12*
X190588500Y-68308000D03*
D13*
X194754100Y-74404000D03*
D12*
X198919700Y-68308000D03*
%TD*%
D11*
%TO.C,MC7*%
X209453101Y-80120300D03*
X210453099Y-80120300D03*
X211453100Y-80120300D03*
X212453100Y-80120300D03*
X213453101Y-80120300D03*
X214453099Y-80120300D03*
X215453099Y-80120300D03*
X216453100Y-80120300D03*
X217453101Y-80120300D03*
X218453101Y-80120300D03*
X219453099Y-80120300D03*
X220453100Y-80120300D03*
X221453100Y-80120300D03*
X222453101Y-80120300D03*
X223453101Y-80120300D03*
X223453099Y-62111700D03*
X222453101Y-62111700D03*
X221453100Y-62111700D03*
X220453100Y-62111700D03*
X219453099Y-62111700D03*
X218453101Y-62111700D03*
X217453101Y-62111700D03*
X216453100Y-62111700D03*
X215453099Y-62111700D03*
X214453099Y-62111700D03*
X213453101Y-62111700D03*
X212453100Y-62111700D03*
X211453100Y-62111700D03*
X210453099Y-62111700D03*
X209453099Y-62111700D03*
D12*
X212287500Y-68068000D03*
D13*
X216453100Y-74164000D03*
D12*
X220618700Y-68068000D03*
%TD*%
D11*
%TO.C,MC5*%
X154027301Y-80487300D03*
X155027299Y-80487300D03*
X156027300Y-80487300D03*
X157027300Y-80487300D03*
X158027301Y-80487300D03*
X159027299Y-80487300D03*
X160027299Y-80487300D03*
X161027300Y-80487300D03*
X162027301Y-80487300D03*
X163027301Y-80487300D03*
X164027299Y-80487300D03*
X165027300Y-80487300D03*
X166027300Y-80487300D03*
X167027301Y-80487300D03*
X168027301Y-80487300D03*
X168027299Y-62478700D03*
X167027301Y-62478700D03*
X166027300Y-62478700D03*
X165027300Y-62478700D03*
X164027299Y-62478700D03*
X163027301Y-62478700D03*
X162027301Y-62478700D03*
X161027300Y-62478700D03*
X160027299Y-62478700D03*
X159027299Y-62478700D03*
X158027301Y-62478700D03*
X157027300Y-62478700D03*
X156027300Y-62478700D03*
X155027299Y-62478700D03*
X154027299Y-62478700D03*
D12*
X156861700Y-68435000D03*
D13*
X161027300Y-74531000D03*
D12*
X165192900Y-68435000D03*
%TD*%
%TO.C,MC3*%
X116332200Y-204361000D03*
D13*
X120497800Y-198265000D03*
D12*
X124663400Y-204361000D03*
D11*
X127497801Y-210317300D03*
X126497801Y-210317300D03*
X125497800Y-210317300D03*
X124497800Y-210317300D03*
X123497799Y-210317300D03*
X122497801Y-210317300D03*
X121497801Y-210317300D03*
X120497800Y-210317300D03*
X119497799Y-210317300D03*
X118497799Y-210317300D03*
X117497801Y-210317300D03*
X116497800Y-210317300D03*
X115497800Y-210317300D03*
X114497799Y-210317300D03*
X113497801Y-210317300D03*
X113497799Y-192308700D03*
X114497799Y-192308700D03*
X115497800Y-192308700D03*
X116497800Y-192308700D03*
X117497801Y-192308700D03*
X118497799Y-192308700D03*
X119497799Y-192308700D03*
X120497800Y-192308700D03*
X121497801Y-192308700D03*
X122497801Y-192308700D03*
X123497799Y-192308700D03*
X124497800Y-192308700D03*
X125497800Y-192308700D03*
X126497801Y-192308700D03*
X127497799Y-192308700D03*
%TD*%
D12*
%TO.C,MC2*%
X140292900Y-204297000D03*
D13*
X144458500Y-198201000D03*
D12*
X148624100Y-204297000D03*
D11*
X151458501Y-210253300D03*
X150458501Y-210253300D03*
X149458500Y-210253300D03*
X148458500Y-210253300D03*
X147458499Y-210253300D03*
X146458501Y-210253300D03*
X145458501Y-210253300D03*
X144458500Y-210253300D03*
X143458499Y-210253300D03*
X142458499Y-210253300D03*
X141458501Y-210253300D03*
X140458500Y-210253300D03*
X139458500Y-210253300D03*
X138458499Y-210253300D03*
X137458501Y-210253300D03*
X137458499Y-192244700D03*
X138458499Y-192244700D03*
X139458500Y-192244700D03*
X140458500Y-192244700D03*
X141458501Y-192244700D03*
X142458499Y-192244700D03*
X143458499Y-192244700D03*
X144458500Y-192244700D03*
X145458501Y-192244700D03*
X146458501Y-192244700D03*
X147458499Y-192244700D03*
X148458500Y-192244700D03*
X149458500Y-192244700D03*
X150458501Y-192244700D03*
X151458499Y-192244700D03*
%TD*%
D12*
%TO.C,MC1*%
X164126500Y-204233000D03*
D13*
X168292100Y-198137000D03*
D12*
X172457700Y-204233000D03*
D11*
X175292101Y-210189300D03*
X174292101Y-210189300D03*
X173292100Y-210189300D03*
X172292100Y-210189300D03*
X171292099Y-210189300D03*
X170292101Y-210189300D03*
X169292101Y-210189300D03*
X168292100Y-210189300D03*
X167292099Y-210189300D03*
X166292099Y-210189300D03*
X165292101Y-210189300D03*
X164292100Y-210189300D03*
X163292100Y-210189300D03*
X162292099Y-210189300D03*
X161292101Y-210189300D03*
X161292099Y-192180700D03*
X162292099Y-192180700D03*
X163292100Y-192180700D03*
X164292100Y-192180700D03*
X165292101Y-192180700D03*
X166292099Y-192180700D03*
X167292099Y-192180700D03*
X168292100Y-192180700D03*
X169292101Y-192180700D03*
X170292101Y-192180700D03*
X171292099Y-192180700D03*
X172292100Y-192180700D03*
X173292100Y-192180700D03*
X174292101Y-192180700D03*
X175292099Y-192180700D03*
%TD*%
%TO.C,D29*%
G36*
G01*
X196866600Y-92488000D02*
X197341600Y-92488000D01*
G75*
G02*
X197579100Y-92725500I0J-237500D01*
G01*
X197579100Y-93300500D01*
G75*
G02*
X197341600Y-93538000I-237500J0D01*
G01*
X196866600Y-93538000D01*
G75*
G02*
X196629100Y-93300500I0J237500D01*
G01*
X196629100Y-92725500D01*
G75*
G02*
X196866600Y-92488000I237500J0D01*
G01*
G37*
G36*
G01*
X196866600Y-90738000D02*
X197341600Y-90738000D01*
G75*
G02*
X197579100Y-90975500I0J-237500D01*
G01*
X197579100Y-91550500D01*
G75*
G02*
X197341600Y-91788000I-237500J0D01*
G01*
X196866600Y-91788000D01*
G75*
G02*
X196629100Y-91550500I0J237500D01*
G01*
X196629100Y-90975500D01*
G75*
G02*
X196866600Y-90738000I237500J0D01*
G01*
G37*
%TD*%
%TO.C,D26*%
G36*
G01*
X164557600Y-90434000D02*
X165032600Y-90434000D01*
G75*
G02*
X165270100Y-90671500I0J-237500D01*
G01*
X165270100Y-91246500D01*
G75*
G02*
X165032600Y-91484000I-237500J0D01*
G01*
X164557600Y-91484000D01*
G75*
G02*
X164320100Y-91246500I0J237500D01*
G01*
X164320100Y-90671500D01*
G75*
G02*
X164557600Y-90434000I237500J0D01*
G01*
G37*
G36*
G01*
X164557600Y-92184000D02*
X165032600Y-92184000D01*
G75*
G02*
X165270100Y-92421500I0J-237500D01*
G01*
X165270100Y-92996500D01*
G75*
G02*
X165032600Y-93234000I-237500J0D01*
G01*
X164557600Y-93234000D01*
G75*
G02*
X164320100Y-92996500I0J237500D01*
G01*
X164320100Y-92421500D01*
G75*
G02*
X164557600Y-92184000I237500J0D01*
G01*
G37*
%TD*%
%TO.C,D13*%
G36*
G01*
X143602700Y-92616000D02*
X144077700Y-92616000D01*
G75*
G02*
X144315200Y-92853500I0J-237500D01*
G01*
X144315200Y-93428500D01*
G75*
G02*
X144077700Y-93666000I-237500J0D01*
G01*
X143602700Y-93666000D01*
G75*
G02*
X143365200Y-93428500I0J237500D01*
G01*
X143365200Y-92853500D01*
G75*
G02*
X143602700Y-92616000I237500J0D01*
G01*
G37*
G36*
G01*
X143602700Y-90866000D02*
X144077700Y-90866000D01*
G75*
G02*
X144315200Y-91103500I0J-237500D01*
G01*
X144315200Y-91678500D01*
G75*
G02*
X144077700Y-91916000I-237500J0D01*
G01*
X143602700Y-91916000D01*
G75*
G02*
X143365200Y-91678500I0J237500D01*
G01*
X143365200Y-91103500D01*
G75*
G02*
X143602700Y-90866000I237500J0D01*
G01*
G37*
%TD*%
%TO.C,D10*%
G36*
G01*
X218811600Y-91879000D02*
X219286600Y-91879000D01*
G75*
G02*
X219524100Y-92116500I0J-237500D01*
G01*
X219524100Y-92691500D01*
G75*
G02*
X219286600Y-92929000I-237500J0D01*
G01*
X218811600Y-92929000D01*
G75*
G02*
X218574100Y-92691500I0J237500D01*
G01*
X218574100Y-92116500D01*
G75*
G02*
X218811600Y-91879000I237500J0D01*
G01*
G37*
G36*
G01*
X218811600Y-90129000D02*
X219286600Y-90129000D01*
G75*
G02*
X219524100Y-90366500I0J-237500D01*
G01*
X219524100Y-90941500D01*
G75*
G02*
X219286600Y-91179000I-237500J0D01*
G01*
X218811600Y-91179000D01*
G75*
G02*
X218574100Y-90941500I0J237500D01*
G01*
X218574100Y-90366500D01*
G75*
G02*
X218811600Y-90129000I237500J0D01*
G01*
G37*
%TD*%
%TO.C,D7*%
G36*
G01*
X165261600Y-182223000D02*
X164786600Y-182223000D01*
G75*
G02*
X164549100Y-181985500I0J237500D01*
G01*
X164549100Y-181410500D01*
G75*
G02*
X164786600Y-181173000I237500J0D01*
G01*
X165261600Y-181173000D01*
G75*
G02*
X165499100Y-181410500I0J-237500D01*
G01*
X165499100Y-181985500D01*
G75*
G02*
X165261600Y-182223000I-237500J0D01*
G01*
G37*
G36*
G01*
X165261600Y-180473000D02*
X164786600Y-180473000D01*
G75*
G02*
X164549100Y-180235500I0J237500D01*
G01*
X164549100Y-179660500D01*
G75*
G02*
X164786600Y-179423000I237500J0D01*
G01*
X165261600Y-179423000D01*
G75*
G02*
X165499100Y-179660500I0J-237500D01*
G01*
X165499100Y-180235500D01*
G75*
G02*
X165261600Y-180473000I-237500J0D01*
G01*
G37*
%TD*%
%TO.C,D4*%
G36*
G01*
X141944100Y-182223000D02*
X141469100Y-182223000D01*
G75*
G02*
X141231600Y-181985500I0J237500D01*
G01*
X141231600Y-181410500D01*
G75*
G02*
X141469100Y-181173000I237500J0D01*
G01*
X141944100Y-181173000D01*
G75*
G02*
X142181600Y-181410500I0J-237500D01*
G01*
X142181600Y-181985500D01*
G75*
G02*
X141944100Y-182223000I-237500J0D01*
G01*
G37*
G36*
G01*
X141944100Y-180473000D02*
X141469100Y-180473000D01*
G75*
G02*
X141231600Y-180235500I0J237500D01*
G01*
X141231600Y-179660500D01*
G75*
G02*
X141469100Y-179423000I237500J0D01*
G01*
X141944100Y-179423000D01*
G75*
G02*
X142181600Y-179660500I0J-237500D01*
G01*
X142181600Y-180235500D01*
G75*
G02*
X141944100Y-180473000I-237500J0D01*
G01*
G37*
%TD*%
%TO.C,D1*%
G36*
G01*
X116442500Y-180473000D02*
X115967500Y-180473000D01*
G75*
G02*
X115730000Y-180235500I0J237500D01*
G01*
X115730000Y-179660500D01*
G75*
G02*
X115967500Y-179423000I237500J0D01*
G01*
X116442500Y-179423000D01*
G75*
G02*
X116680000Y-179660500I0J-237500D01*
G01*
X116680000Y-180235500D01*
G75*
G02*
X116442500Y-180473000I-237500J0D01*
G01*
G37*
G36*
G01*
X116442500Y-182223000D02*
X115967500Y-182223000D01*
G75*
G02*
X115730000Y-181985500I0J237500D01*
G01*
X115730000Y-181410500D01*
G75*
G02*
X115967500Y-181173000I237500J0D01*
G01*
X116442500Y-181173000D01*
G75*
G02*
X116680000Y-181410500I0J-237500D01*
G01*
X116680000Y-181985500D01*
G75*
G02*
X116442500Y-182223000I-237500J0D01*
G01*
G37*
%TD*%
%TO.C,C11*%
G36*
G01*
X195215600Y-92463000D02*
X195690600Y-92463000D01*
G75*
G02*
X195928100Y-92700500I0J-237500D01*
G01*
X195928100Y-93300500D01*
G75*
G02*
X195690600Y-93538000I-237500J0D01*
G01*
X195215600Y-93538000D01*
G75*
G02*
X194978100Y-93300500I0J237500D01*
G01*
X194978100Y-92700500D01*
G75*
G02*
X195215600Y-92463000I237500J0D01*
G01*
G37*
G36*
G01*
X195215600Y-90738000D02*
X195690600Y-90738000D01*
G75*
G02*
X195928100Y-90975500I0J-237500D01*
G01*
X195928100Y-91575500D01*
G75*
G02*
X195690600Y-91813000I-237500J0D01*
G01*
X195215600Y-91813000D01*
G75*
G02*
X194978100Y-91575500I0J237500D01*
G01*
X194978100Y-90975500D01*
G75*
G02*
X195215600Y-90738000I237500J0D01*
G01*
G37*
%TD*%
%TO.C,C10*%
G36*
G01*
X162970600Y-90434000D02*
X163445600Y-90434000D01*
G75*
G02*
X163683100Y-90671500I0J-237500D01*
G01*
X163683100Y-91271500D01*
G75*
G02*
X163445600Y-91509000I-237500J0D01*
G01*
X162970600Y-91509000D01*
G75*
G02*
X162733100Y-91271500I0J237500D01*
G01*
X162733100Y-90671500D01*
G75*
G02*
X162970600Y-90434000I237500J0D01*
G01*
G37*
G36*
G01*
X162970600Y-92159000D02*
X163445600Y-92159000D01*
G75*
G02*
X163683100Y-92396500I0J-237500D01*
G01*
X163683100Y-92996500D01*
G75*
G02*
X163445600Y-93234000I-237500J0D01*
G01*
X162970600Y-93234000D01*
G75*
G02*
X162733100Y-92996500I0J237500D01*
G01*
X162733100Y-92396500D01*
G75*
G02*
X162970600Y-92159000I237500J0D01*
G01*
G37*
%TD*%
%TO.C,C9*%
G36*
G01*
X142015200Y-92591000D02*
X142490200Y-92591000D01*
G75*
G02*
X142727700Y-92828500I0J-237500D01*
G01*
X142727700Y-93428500D01*
G75*
G02*
X142490200Y-93666000I-237500J0D01*
G01*
X142015200Y-93666000D01*
G75*
G02*
X141777700Y-93428500I0J237500D01*
G01*
X141777700Y-92828500D01*
G75*
G02*
X142015200Y-92591000I237500J0D01*
G01*
G37*
G36*
G01*
X142015200Y-90866000D02*
X142490200Y-90866000D01*
G75*
G02*
X142727700Y-91103500I0J-237500D01*
G01*
X142727700Y-91703500D01*
G75*
G02*
X142490200Y-91941000I-237500J0D01*
G01*
X142015200Y-91941000D01*
G75*
G02*
X141777700Y-91703500I0J237500D01*
G01*
X141777700Y-91103500D01*
G75*
G02*
X142015200Y-90866000I237500J0D01*
G01*
G37*
%TD*%
%TO.C,C8*%
G36*
G01*
X217097600Y-91854000D02*
X217572600Y-91854000D01*
G75*
G02*
X217810100Y-92091500I0J-237500D01*
G01*
X217810100Y-92691500D01*
G75*
G02*
X217572600Y-92929000I-237500J0D01*
G01*
X217097600Y-92929000D01*
G75*
G02*
X216860100Y-92691500I0J237500D01*
G01*
X216860100Y-92091500D01*
G75*
G02*
X217097600Y-91854000I237500J0D01*
G01*
G37*
G36*
G01*
X217097600Y-90129000D02*
X217572600Y-90129000D01*
G75*
G02*
X217810100Y-90366500I0J-237500D01*
G01*
X217810100Y-90966500D01*
G75*
G02*
X217572600Y-91204000I-237500J0D01*
G01*
X217097600Y-91204000D01*
G75*
G02*
X216860100Y-90966500I0J237500D01*
G01*
X216860100Y-90366500D01*
G75*
G02*
X217097600Y-90129000I237500J0D01*
G01*
G37*
%TD*%
%TO.C,C7*%
G36*
G01*
X166975600Y-182223000D02*
X166500600Y-182223000D01*
G75*
G02*
X166263100Y-181985500I0J237500D01*
G01*
X166263100Y-181385500D01*
G75*
G02*
X166500600Y-181148000I237500J0D01*
G01*
X166975600Y-181148000D01*
G75*
G02*
X167213100Y-181385500I0J-237500D01*
G01*
X167213100Y-181985500D01*
G75*
G02*
X166975600Y-182223000I-237500J0D01*
G01*
G37*
G36*
G01*
X166975600Y-180498000D02*
X166500600Y-180498000D01*
G75*
G02*
X166263100Y-180260500I0J237500D01*
G01*
X166263100Y-179660500D01*
G75*
G02*
X166500600Y-179423000I237500J0D01*
G01*
X166975600Y-179423000D01*
G75*
G02*
X167213100Y-179660500I0J-237500D01*
G01*
X167213100Y-180260500D01*
G75*
G02*
X166975600Y-180498000I-237500J0D01*
G01*
G37*
%TD*%
%TO.C,C6*%
G36*
G01*
X143595100Y-182223000D02*
X143120100Y-182223000D01*
G75*
G02*
X142882600Y-181985500I0J237500D01*
G01*
X142882600Y-181385500D01*
G75*
G02*
X143120100Y-181148000I237500J0D01*
G01*
X143595100Y-181148000D01*
G75*
G02*
X143832600Y-181385500I0J-237500D01*
G01*
X143832600Y-181985500D01*
G75*
G02*
X143595100Y-182223000I-237500J0D01*
G01*
G37*
G36*
G01*
X143595100Y-180498000D02*
X143120100Y-180498000D01*
G75*
G02*
X142882600Y-180260500I0J237500D01*
G01*
X142882600Y-179660500D01*
G75*
G02*
X143120100Y-179423000I237500J0D01*
G01*
X143595100Y-179423000D01*
G75*
G02*
X143832600Y-179660500I0J-237500D01*
G01*
X143832600Y-180260500D01*
G75*
G02*
X143595100Y-180498000I-237500J0D01*
G01*
G37*
%TD*%
%TO.C,C5*%
G36*
G01*
X118093500Y-180498000D02*
X117618500Y-180498000D01*
G75*
G02*
X117381000Y-180260500I0J237500D01*
G01*
X117381000Y-179660500D01*
G75*
G02*
X117618500Y-179423000I237500J0D01*
G01*
X118093500Y-179423000D01*
G75*
G02*
X118331000Y-179660500I0J-237500D01*
G01*
X118331000Y-180260500D01*
G75*
G02*
X118093500Y-180498000I-237500J0D01*
G01*
G37*
G36*
G01*
X118093500Y-182223000D02*
X117618500Y-182223000D01*
G75*
G02*
X117381000Y-181985500I0J237500D01*
G01*
X117381000Y-181385500D01*
G75*
G02*
X117618500Y-181148000I237500J0D01*
G01*
X118093500Y-181148000D01*
G75*
G02*
X118331000Y-181385500I0J-237500D01*
G01*
X118331000Y-181985500D01*
G75*
G02*
X118093500Y-182223000I-237500J0D01*
G01*
G37*
%TD*%
%TO.C,1k35*%
G36*
G01*
X197272600Y-86167000D02*
X197747600Y-86167000D01*
G75*
G02*
X197985100Y-86404500I0J-237500D01*
G01*
X197985100Y-86904500D01*
G75*
G02*
X197747600Y-87142000I-237500J0D01*
G01*
X197272600Y-87142000D01*
G75*
G02*
X197035100Y-86904500I0J237500D01*
G01*
X197035100Y-86404500D01*
G75*
G02*
X197272600Y-86167000I237500J0D01*
G01*
G37*
G36*
G01*
X197272600Y-87992000D02*
X197747600Y-87992000D01*
G75*
G02*
X197985100Y-88229500I0J-237500D01*
G01*
X197985100Y-88729500D01*
G75*
G02*
X197747600Y-88967000I-237500J0D01*
G01*
X197272600Y-88967000D01*
G75*
G02*
X197035100Y-88729500I0J237500D01*
G01*
X197035100Y-88229500D01*
G75*
G02*
X197272600Y-87992000I237500J0D01*
G01*
G37*
%TD*%
%TO.C,1k34*%
G36*
G01*
X192732600Y-86167000D02*
X193207600Y-86167000D01*
G75*
G02*
X193445100Y-86404500I0J-237500D01*
G01*
X193445100Y-86904500D01*
G75*
G02*
X193207600Y-87142000I-237500J0D01*
G01*
X192732600Y-87142000D01*
G75*
G02*
X192495100Y-86904500I0J237500D01*
G01*
X192495100Y-86404500D01*
G75*
G02*
X192732600Y-86167000I237500J0D01*
G01*
G37*
G36*
G01*
X192732600Y-87992000D02*
X193207600Y-87992000D01*
G75*
G02*
X193445100Y-88229500I0J-237500D01*
G01*
X193445100Y-88729500D01*
G75*
G02*
X193207600Y-88967000I-237500J0D01*
G01*
X192732600Y-88967000D01*
G75*
G02*
X192495100Y-88729500I0J237500D01*
G01*
X192495100Y-88229500D01*
G75*
G02*
X192732600Y-87992000I237500J0D01*
G01*
G37*
%TD*%
%TO.C,1k33*%
G36*
G01*
X190462600Y-86167000D02*
X190937600Y-86167000D01*
G75*
G02*
X191175100Y-86404500I0J-237500D01*
G01*
X191175100Y-86904500D01*
G75*
G02*
X190937600Y-87142000I-237500J0D01*
G01*
X190462600Y-87142000D01*
G75*
G02*
X190225100Y-86904500I0J237500D01*
G01*
X190225100Y-86404500D01*
G75*
G02*
X190462600Y-86167000I237500J0D01*
G01*
G37*
G36*
G01*
X190462600Y-87992000D02*
X190937600Y-87992000D01*
G75*
G02*
X191175100Y-88229500I0J-237500D01*
G01*
X191175100Y-88729500D01*
G75*
G02*
X190937600Y-88967000I-237500J0D01*
G01*
X190462600Y-88967000D01*
G75*
G02*
X190225100Y-88729500I0J237500D01*
G01*
X190225100Y-88229500D01*
G75*
G02*
X190462600Y-87992000I237500J0D01*
G01*
G37*
%TD*%
%TO.C,1k32*%
G36*
G01*
X188191600Y-86167000D02*
X188666600Y-86167000D01*
G75*
G02*
X188904100Y-86404500I0J-237500D01*
G01*
X188904100Y-86904500D01*
G75*
G02*
X188666600Y-87142000I-237500J0D01*
G01*
X188191600Y-87142000D01*
G75*
G02*
X187954100Y-86904500I0J237500D01*
G01*
X187954100Y-86404500D01*
G75*
G02*
X188191600Y-86167000I237500J0D01*
G01*
G37*
G36*
G01*
X188191600Y-87992000D02*
X188666600Y-87992000D01*
G75*
G02*
X188904100Y-88229500I0J-237500D01*
G01*
X188904100Y-88729500D01*
G75*
G02*
X188666600Y-88967000I-237500J0D01*
G01*
X188191600Y-88967000D01*
G75*
G02*
X187954100Y-88729500I0J237500D01*
G01*
X187954100Y-88229500D01*
G75*
G02*
X188191600Y-87992000I237500J0D01*
G01*
G37*
%TD*%
%TO.C,1k31*%
G36*
G01*
X195002600Y-86167000D02*
X195477600Y-86167000D01*
G75*
G02*
X195715100Y-86404500I0J-237500D01*
G01*
X195715100Y-86904500D01*
G75*
G02*
X195477600Y-87142000I-237500J0D01*
G01*
X195002600Y-87142000D01*
G75*
G02*
X194765100Y-86904500I0J237500D01*
G01*
X194765100Y-86404500D01*
G75*
G02*
X195002600Y-86167000I237500J0D01*
G01*
G37*
G36*
G01*
X195002600Y-87992000D02*
X195477600Y-87992000D01*
G75*
G02*
X195715100Y-88229500I0J-237500D01*
G01*
X195715100Y-88729500D01*
G75*
G02*
X195477600Y-88967000I-237500J0D01*
G01*
X195002600Y-88967000D01*
G75*
G02*
X194765100Y-88729500I0J237500D01*
G01*
X194765100Y-88229500D01*
G75*
G02*
X195002600Y-87992000I237500J0D01*
G01*
G37*
%TD*%
%TO.C,1k30*%
G36*
G01*
X164328600Y-87686000D02*
X164803600Y-87686000D01*
G75*
G02*
X165041100Y-87923500I0J-237500D01*
G01*
X165041100Y-88423500D01*
G75*
G02*
X164803600Y-88661000I-237500J0D01*
G01*
X164328600Y-88661000D01*
G75*
G02*
X164091100Y-88423500I0J237500D01*
G01*
X164091100Y-87923500D01*
G75*
G02*
X164328600Y-87686000I237500J0D01*
G01*
G37*
G36*
G01*
X164328600Y-85861000D02*
X164803600Y-85861000D01*
G75*
G02*
X165041100Y-86098500I0J-237500D01*
G01*
X165041100Y-86598500D01*
G75*
G02*
X164803600Y-86836000I-237500J0D01*
G01*
X164328600Y-86836000D01*
G75*
G02*
X164091100Y-86598500I0J237500D01*
G01*
X164091100Y-86098500D01*
G75*
G02*
X164328600Y-85861000I237500J0D01*
G01*
G37*
%TD*%
%TO.C,1k29*%
G36*
G01*
X160011100Y-87686000D02*
X160486100Y-87686000D01*
G75*
G02*
X160723600Y-87923500I0J-237500D01*
G01*
X160723600Y-88423500D01*
G75*
G02*
X160486100Y-88661000I-237500J0D01*
G01*
X160011100Y-88661000D01*
G75*
G02*
X159773600Y-88423500I0J237500D01*
G01*
X159773600Y-87923500D01*
G75*
G02*
X160011100Y-87686000I237500J0D01*
G01*
G37*
G36*
G01*
X160011100Y-85861000D02*
X160486100Y-85861000D01*
G75*
G02*
X160723600Y-86098500I0J-237500D01*
G01*
X160723600Y-86598500D01*
G75*
G02*
X160486100Y-86836000I-237500J0D01*
G01*
X160011100Y-86836000D01*
G75*
G02*
X159773600Y-86598500I0J237500D01*
G01*
X159773600Y-86098500D01*
G75*
G02*
X160011100Y-85861000I237500J0D01*
G01*
G37*
%TD*%
%TO.C,1k28*%
G36*
G01*
X157852100Y-87686000D02*
X158327100Y-87686000D01*
G75*
G02*
X158564600Y-87923500I0J-237500D01*
G01*
X158564600Y-88423500D01*
G75*
G02*
X158327100Y-88661000I-237500J0D01*
G01*
X157852100Y-88661000D01*
G75*
G02*
X157614600Y-88423500I0J237500D01*
G01*
X157614600Y-87923500D01*
G75*
G02*
X157852100Y-87686000I237500J0D01*
G01*
G37*
G36*
G01*
X157852100Y-85861000D02*
X158327100Y-85861000D01*
G75*
G02*
X158564600Y-86098500I0J-237500D01*
G01*
X158564600Y-86598500D01*
G75*
G02*
X158327100Y-86836000I-237500J0D01*
G01*
X157852100Y-86836000D01*
G75*
G02*
X157614600Y-86598500I0J237500D01*
G01*
X157614600Y-86098500D01*
G75*
G02*
X157852100Y-85861000I237500J0D01*
G01*
G37*
%TD*%
%TO.C,1k27*%
G36*
G01*
X155693100Y-87686000D02*
X156168100Y-87686000D01*
G75*
G02*
X156405600Y-87923500I0J-237500D01*
G01*
X156405600Y-88423500D01*
G75*
G02*
X156168100Y-88661000I-237500J0D01*
G01*
X155693100Y-88661000D01*
G75*
G02*
X155455600Y-88423500I0J237500D01*
G01*
X155455600Y-87923500D01*
G75*
G02*
X155693100Y-87686000I237500J0D01*
G01*
G37*
G36*
G01*
X155693100Y-85861000D02*
X156168100Y-85861000D01*
G75*
G02*
X156405600Y-86098500I0J-237500D01*
G01*
X156405600Y-86598500D01*
G75*
G02*
X156168100Y-86836000I-237500J0D01*
G01*
X155693100Y-86836000D01*
G75*
G02*
X155455600Y-86598500I0J237500D01*
G01*
X155455600Y-86098500D01*
G75*
G02*
X155693100Y-85861000I237500J0D01*
G01*
G37*
%TD*%
%TO.C,1k26*%
G36*
G01*
X162170100Y-87686000D02*
X162645100Y-87686000D01*
G75*
G02*
X162882600Y-87923500I0J-237500D01*
G01*
X162882600Y-88423500D01*
G75*
G02*
X162645100Y-88661000I-237500J0D01*
G01*
X162170100Y-88661000D01*
G75*
G02*
X161932600Y-88423500I0J237500D01*
G01*
X161932600Y-87923500D01*
G75*
G02*
X162170100Y-87686000I237500J0D01*
G01*
G37*
G36*
G01*
X162170100Y-85861000D02*
X162645100Y-85861000D01*
G75*
G02*
X162882600Y-86098500I0J-237500D01*
G01*
X162882600Y-86598500D01*
G75*
G02*
X162645100Y-86836000I-237500J0D01*
G01*
X162170100Y-86836000D01*
G75*
G02*
X161932600Y-86598500I0J237500D01*
G01*
X161932600Y-86098500D01*
G75*
G02*
X162170100Y-85861000I237500J0D01*
G01*
G37*
%TD*%
%TO.C,1k25*%
G36*
G01*
X143691600Y-86103000D02*
X144166600Y-86103000D01*
G75*
G02*
X144404100Y-86340500I0J-237500D01*
G01*
X144404100Y-86840500D01*
G75*
G02*
X144166600Y-87078000I-237500J0D01*
G01*
X143691600Y-87078000D01*
G75*
G02*
X143454100Y-86840500I0J237500D01*
G01*
X143454100Y-86340500D01*
G75*
G02*
X143691600Y-86103000I237500J0D01*
G01*
G37*
G36*
G01*
X143691600Y-87928000D02*
X144166600Y-87928000D01*
G75*
G02*
X144404100Y-88165500I0J-237500D01*
G01*
X144404100Y-88665500D01*
G75*
G02*
X144166600Y-88903000I-237500J0D01*
G01*
X143691600Y-88903000D01*
G75*
G02*
X143454100Y-88665500I0J237500D01*
G01*
X143454100Y-88165500D01*
G75*
G02*
X143691600Y-87928000I237500J0D01*
G01*
G37*
%TD*%
%TO.C,1k24*%
G36*
G01*
X139214900Y-86103000D02*
X139689900Y-86103000D01*
G75*
G02*
X139927400Y-86340500I0J-237500D01*
G01*
X139927400Y-86840500D01*
G75*
G02*
X139689900Y-87078000I-237500J0D01*
G01*
X139214900Y-87078000D01*
G75*
G02*
X138977400Y-86840500I0J237500D01*
G01*
X138977400Y-86340500D01*
G75*
G02*
X139214900Y-86103000I237500J0D01*
G01*
G37*
G36*
G01*
X139214900Y-87928000D02*
X139689900Y-87928000D01*
G75*
G02*
X139927400Y-88165500I0J-237500D01*
G01*
X139927400Y-88665500D01*
G75*
G02*
X139689900Y-88903000I-237500J0D01*
G01*
X139214900Y-88903000D01*
G75*
G02*
X138977400Y-88665500I0J237500D01*
G01*
X138977400Y-88165500D01*
G75*
G02*
X139214900Y-87928000I237500J0D01*
G01*
G37*
%TD*%
%TO.C,1k23*%
G36*
G01*
X136976500Y-86103000D02*
X137451500Y-86103000D01*
G75*
G02*
X137689000Y-86340500I0J-237500D01*
G01*
X137689000Y-86840500D01*
G75*
G02*
X137451500Y-87078000I-237500J0D01*
G01*
X136976500Y-87078000D01*
G75*
G02*
X136739000Y-86840500I0J237500D01*
G01*
X136739000Y-86340500D01*
G75*
G02*
X136976500Y-86103000I237500J0D01*
G01*
G37*
G36*
G01*
X136976500Y-87928000D02*
X137451500Y-87928000D01*
G75*
G02*
X137689000Y-88165500I0J-237500D01*
G01*
X137689000Y-88665500D01*
G75*
G02*
X137451500Y-88903000I-237500J0D01*
G01*
X136976500Y-88903000D01*
G75*
G02*
X136739000Y-88665500I0J237500D01*
G01*
X136739000Y-88165500D01*
G75*
G02*
X136976500Y-87928000I237500J0D01*
G01*
G37*
%TD*%
%TO.C,1k22*%
G36*
G01*
X134738100Y-86103000D02*
X135213100Y-86103000D01*
G75*
G02*
X135450600Y-86340500I0J-237500D01*
G01*
X135450600Y-86840500D01*
G75*
G02*
X135213100Y-87078000I-237500J0D01*
G01*
X134738100Y-87078000D01*
G75*
G02*
X134500600Y-86840500I0J237500D01*
G01*
X134500600Y-86340500D01*
G75*
G02*
X134738100Y-86103000I237500J0D01*
G01*
G37*
G36*
G01*
X134738100Y-87928000D02*
X135213100Y-87928000D01*
G75*
G02*
X135450600Y-88165500I0J-237500D01*
G01*
X135450600Y-88665500D01*
G75*
G02*
X135213100Y-88903000I-237500J0D01*
G01*
X134738100Y-88903000D01*
G75*
G02*
X134500600Y-88665500I0J237500D01*
G01*
X134500600Y-88165500D01*
G75*
G02*
X134738100Y-87928000I237500J0D01*
G01*
G37*
%TD*%
%TO.C,1k21*%
G36*
G01*
X141453200Y-86103000D02*
X141928200Y-86103000D01*
G75*
G02*
X142165700Y-86340500I0J-237500D01*
G01*
X142165700Y-86840500D01*
G75*
G02*
X141928200Y-87078000I-237500J0D01*
G01*
X141453200Y-87078000D01*
G75*
G02*
X141215700Y-86840500I0J237500D01*
G01*
X141215700Y-86340500D01*
G75*
G02*
X141453200Y-86103000I237500J0D01*
G01*
G37*
G36*
G01*
X141453200Y-87928000D02*
X141928200Y-87928000D01*
G75*
G02*
X142165700Y-88165500I0J-237500D01*
G01*
X142165700Y-88665500D01*
G75*
G02*
X141928200Y-88903000I-237500J0D01*
G01*
X141453200Y-88903000D01*
G75*
G02*
X141215700Y-88665500I0J237500D01*
G01*
X141215700Y-88165500D01*
G75*
G02*
X141453200Y-87928000I237500J0D01*
G01*
G37*
%TD*%
%TO.C,1k20*%
G36*
G01*
X219027600Y-85557000D02*
X219502600Y-85557000D01*
G75*
G02*
X219740100Y-85794500I0J-237500D01*
G01*
X219740100Y-86294500D01*
G75*
G02*
X219502600Y-86532000I-237500J0D01*
G01*
X219027600Y-86532000D01*
G75*
G02*
X218790100Y-86294500I0J237500D01*
G01*
X218790100Y-85794500D01*
G75*
G02*
X219027600Y-85557000I237500J0D01*
G01*
G37*
G36*
G01*
X219027600Y-87382000D02*
X219502600Y-87382000D01*
G75*
G02*
X219740100Y-87619500I0J-237500D01*
G01*
X219740100Y-88119500D01*
G75*
G02*
X219502600Y-88357000I-237500J0D01*
G01*
X219027600Y-88357000D01*
G75*
G02*
X218790100Y-88119500I0J237500D01*
G01*
X218790100Y-87619500D01*
G75*
G02*
X219027600Y-87382000I237500J0D01*
G01*
G37*
%TD*%
%TO.C,1k19*%
G36*
G01*
X214550600Y-85557000D02*
X215025600Y-85557000D01*
G75*
G02*
X215263100Y-85794500I0J-237500D01*
G01*
X215263100Y-86294500D01*
G75*
G02*
X215025600Y-86532000I-237500J0D01*
G01*
X214550600Y-86532000D01*
G75*
G02*
X214313100Y-86294500I0J237500D01*
G01*
X214313100Y-85794500D01*
G75*
G02*
X214550600Y-85557000I237500J0D01*
G01*
G37*
G36*
G01*
X214550600Y-87382000D02*
X215025600Y-87382000D01*
G75*
G02*
X215263100Y-87619500I0J-237500D01*
G01*
X215263100Y-88119500D01*
G75*
G02*
X215025600Y-88357000I-237500J0D01*
G01*
X214550600Y-88357000D01*
G75*
G02*
X214313100Y-88119500I0J237500D01*
G01*
X214313100Y-87619500D01*
G75*
G02*
X214550600Y-87382000I237500J0D01*
G01*
G37*
%TD*%
%TO.C,1k18*%
G36*
G01*
X212312600Y-85557000D02*
X212787600Y-85557000D01*
G75*
G02*
X213025100Y-85794500I0J-237500D01*
G01*
X213025100Y-86294500D01*
G75*
G02*
X212787600Y-86532000I-237500J0D01*
G01*
X212312600Y-86532000D01*
G75*
G02*
X212075100Y-86294500I0J237500D01*
G01*
X212075100Y-85794500D01*
G75*
G02*
X212312600Y-85557000I237500J0D01*
G01*
G37*
G36*
G01*
X212312600Y-87382000D02*
X212787600Y-87382000D01*
G75*
G02*
X213025100Y-87619500I0J-237500D01*
G01*
X213025100Y-88119500D01*
G75*
G02*
X212787600Y-88357000I-237500J0D01*
G01*
X212312600Y-88357000D01*
G75*
G02*
X212075100Y-88119500I0J237500D01*
G01*
X212075100Y-87619500D01*
G75*
G02*
X212312600Y-87382000I237500J0D01*
G01*
G37*
%TD*%
%TO.C,1k17*%
G36*
G01*
X210074600Y-85557000D02*
X210549600Y-85557000D01*
G75*
G02*
X210787100Y-85794500I0J-237500D01*
G01*
X210787100Y-86294500D01*
G75*
G02*
X210549600Y-86532000I-237500J0D01*
G01*
X210074600Y-86532000D01*
G75*
G02*
X209837100Y-86294500I0J237500D01*
G01*
X209837100Y-85794500D01*
G75*
G02*
X210074600Y-85557000I237500J0D01*
G01*
G37*
G36*
G01*
X210074600Y-87382000D02*
X210549600Y-87382000D01*
G75*
G02*
X210787100Y-87619500I0J-237500D01*
G01*
X210787100Y-88119500D01*
G75*
G02*
X210549600Y-88357000I-237500J0D01*
G01*
X210074600Y-88357000D01*
G75*
G02*
X209837100Y-88119500I0J237500D01*
G01*
X209837100Y-87619500D01*
G75*
G02*
X210074600Y-87382000I237500J0D01*
G01*
G37*
%TD*%
%TO.C,1k16*%
G36*
G01*
X216789600Y-85557000D02*
X217264600Y-85557000D01*
G75*
G02*
X217502100Y-85794500I0J-237500D01*
G01*
X217502100Y-86294500D01*
G75*
G02*
X217264600Y-86532000I-237500J0D01*
G01*
X216789600Y-86532000D01*
G75*
G02*
X216552100Y-86294500I0J237500D01*
G01*
X216552100Y-85794500D01*
G75*
G02*
X216789600Y-85557000I237500J0D01*
G01*
G37*
G36*
G01*
X216789600Y-87382000D02*
X217264600Y-87382000D01*
G75*
G02*
X217502100Y-87619500I0J-237500D01*
G01*
X217502100Y-88119500D01*
G75*
G02*
X217264600Y-88357000I-237500J0D01*
G01*
X216789600Y-88357000D01*
G75*
G02*
X216552100Y-88119500I0J237500D01*
G01*
X216552100Y-87619500D01*
G75*
G02*
X216789600Y-87382000I237500J0D01*
G01*
G37*
%TD*%
%TO.C,1k15*%
G36*
G01*
X164905600Y-184995000D02*
X164430600Y-184995000D01*
G75*
G02*
X164193100Y-184757500I0J237500D01*
G01*
X164193100Y-184257500D01*
G75*
G02*
X164430600Y-184020000I237500J0D01*
G01*
X164905600Y-184020000D01*
G75*
G02*
X165143100Y-184257500I0J-237500D01*
G01*
X165143100Y-184757500D01*
G75*
G02*
X164905600Y-184995000I-237500J0D01*
G01*
G37*
G36*
G01*
X164905600Y-186820000D02*
X164430600Y-186820000D01*
G75*
G02*
X164193100Y-186582500I0J237500D01*
G01*
X164193100Y-186082500D01*
G75*
G02*
X164430600Y-185845000I237500J0D01*
G01*
X164905600Y-185845000D01*
G75*
G02*
X165143100Y-186082500I0J-237500D01*
G01*
X165143100Y-186582500D01*
G75*
G02*
X164905600Y-186820000I-237500J0D01*
G01*
G37*
%TD*%
%TO.C,1k14*%
G36*
G01*
X169128600Y-184995000D02*
X168653600Y-184995000D01*
G75*
G02*
X168416100Y-184757500I0J237500D01*
G01*
X168416100Y-184257500D01*
G75*
G02*
X168653600Y-184020000I237500J0D01*
G01*
X169128600Y-184020000D01*
G75*
G02*
X169366100Y-184257500I0J-237500D01*
G01*
X169366100Y-184757500D01*
G75*
G02*
X169128600Y-184995000I-237500J0D01*
G01*
G37*
G36*
G01*
X169128600Y-186820000D02*
X168653600Y-186820000D01*
G75*
G02*
X168416100Y-186582500I0J237500D01*
G01*
X168416100Y-186082500D01*
G75*
G02*
X168653600Y-185845000I237500J0D01*
G01*
X169128600Y-185845000D01*
G75*
G02*
X169366100Y-186082500I0J-237500D01*
G01*
X169366100Y-186582500D01*
G75*
G02*
X169128600Y-186820000I-237500J0D01*
G01*
G37*
%TD*%
%TO.C,1k13*%
G36*
G01*
X171239600Y-184995000D02*
X170764600Y-184995000D01*
G75*
G02*
X170527100Y-184757500I0J237500D01*
G01*
X170527100Y-184257500D01*
G75*
G02*
X170764600Y-184020000I237500J0D01*
G01*
X171239600Y-184020000D01*
G75*
G02*
X171477100Y-184257500I0J-237500D01*
G01*
X171477100Y-184757500D01*
G75*
G02*
X171239600Y-184995000I-237500J0D01*
G01*
G37*
G36*
G01*
X171239600Y-186820000D02*
X170764600Y-186820000D01*
G75*
G02*
X170527100Y-186582500I0J237500D01*
G01*
X170527100Y-186082500D01*
G75*
G02*
X170764600Y-185845000I237500J0D01*
G01*
X171239600Y-185845000D01*
G75*
G02*
X171477100Y-186082500I0J-237500D01*
G01*
X171477100Y-186582500D01*
G75*
G02*
X171239600Y-186820000I-237500J0D01*
G01*
G37*
%TD*%
%TO.C,1k12*%
G36*
G01*
X173351600Y-184995000D02*
X172876600Y-184995000D01*
G75*
G02*
X172639100Y-184757500I0J237500D01*
G01*
X172639100Y-184257500D01*
G75*
G02*
X172876600Y-184020000I237500J0D01*
G01*
X173351600Y-184020000D01*
G75*
G02*
X173589100Y-184257500I0J-237500D01*
G01*
X173589100Y-184757500D01*
G75*
G02*
X173351600Y-184995000I-237500J0D01*
G01*
G37*
G36*
G01*
X173351600Y-186820000D02*
X172876600Y-186820000D01*
G75*
G02*
X172639100Y-186582500I0J237500D01*
G01*
X172639100Y-186082500D01*
G75*
G02*
X172876600Y-185845000I237500J0D01*
G01*
X173351600Y-185845000D01*
G75*
G02*
X173589100Y-186082500I0J-237500D01*
G01*
X173589100Y-186582500D01*
G75*
G02*
X173351600Y-186820000I-237500J0D01*
G01*
G37*
%TD*%
%TO.C,1k11*%
G36*
G01*
X167017600Y-184995000D02*
X166542600Y-184995000D01*
G75*
G02*
X166305100Y-184757500I0J237500D01*
G01*
X166305100Y-184257500D01*
G75*
G02*
X166542600Y-184020000I237500J0D01*
G01*
X167017600Y-184020000D01*
G75*
G02*
X167255100Y-184257500I0J-237500D01*
G01*
X167255100Y-184757500D01*
G75*
G02*
X167017600Y-184995000I-237500J0D01*
G01*
G37*
G36*
G01*
X167017600Y-186820000D02*
X166542600Y-186820000D01*
G75*
G02*
X166305100Y-186582500I0J237500D01*
G01*
X166305100Y-186082500D01*
G75*
G02*
X166542600Y-185845000I237500J0D01*
G01*
X167017600Y-185845000D01*
G75*
G02*
X167255100Y-186082500I0J-237500D01*
G01*
X167255100Y-186582500D01*
G75*
G02*
X167017600Y-186820000I-237500J0D01*
G01*
G37*
%TD*%
%TO.C,1k10*%
G36*
G01*
X141728200Y-184995000D02*
X141253200Y-184995000D01*
G75*
G02*
X141015700Y-184757500I0J237500D01*
G01*
X141015700Y-184257500D01*
G75*
G02*
X141253200Y-184020000I237500J0D01*
G01*
X141728200Y-184020000D01*
G75*
G02*
X141965700Y-184257500I0J-237500D01*
G01*
X141965700Y-184757500D01*
G75*
G02*
X141728200Y-184995000I-237500J0D01*
G01*
G37*
G36*
G01*
X141728200Y-186820000D02*
X141253200Y-186820000D01*
G75*
G02*
X141015700Y-186582500I0J237500D01*
G01*
X141015700Y-186082500D01*
G75*
G02*
X141253200Y-185845000I237500J0D01*
G01*
X141728200Y-185845000D01*
G75*
G02*
X141965700Y-186082500I0J-237500D01*
G01*
X141965700Y-186582500D01*
G75*
G02*
X141728200Y-186820000I-237500J0D01*
G01*
G37*
%TD*%
%TO.C,1k9*%
G36*
G01*
X146077900Y-184995000D02*
X145602900Y-184995000D01*
G75*
G02*
X145365400Y-184757500I0J237500D01*
G01*
X145365400Y-184257500D01*
G75*
G02*
X145602900Y-184020000I237500J0D01*
G01*
X146077900Y-184020000D01*
G75*
G02*
X146315400Y-184257500I0J-237500D01*
G01*
X146315400Y-184757500D01*
G75*
G02*
X146077900Y-184995000I-237500J0D01*
G01*
G37*
G36*
G01*
X146077900Y-186820000D02*
X145602900Y-186820000D01*
G75*
G02*
X145365400Y-186582500I0J237500D01*
G01*
X145365400Y-186082500D01*
G75*
G02*
X145602900Y-185845000I237500J0D01*
G01*
X146077900Y-185845000D01*
G75*
G02*
X146315400Y-186082500I0J-237500D01*
G01*
X146315400Y-186582500D01*
G75*
G02*
X146077900Y-186820000I-237500J0D01*
G01*
G37*
%TD*%
%TO.C,1k8*%
G36*
G01*
X148252800Y-184995000D02*
X147777800Y-184995000D01*
G75*
G02*
X147540300Y-184757500I0J237500D01*
G01*
X147540300Y-184257500D01*
G75*
G02*
X147777800Y-184020000I237500J0D01*
G01*
X148252800Y-184020000D01*
G75*
G02*
X148490300Y-184257500I0J-237500D01*
G01*
X148490300Y-184757500D01*
G75*
G02*
X148252800Y-184995000I-237500J0D01*
G01*
G37*
G36*
G01*
X148252800Y-186820000D02*
X147777800Y-186820000D01*
G75*
G02*
X147540300Y-186582500I0J237500D01*
G01*
X147540300Y-186082500D01*
G75*
G02*
X147777800Y-185845000I237500J0D01*
G01*
X148252800Y-185845000D01*
G75*
G02*
X148490300Y-186082500I0J-237500D01*
G01*
X148490300Y-186582500D01*
G75*
G02*
X148252800Y-186820000I-237500J0D01*
G01*
G37*
%TD*%
%TO.C,1k7*%
G36*
G01*
X150427700Y-184995000D02*
X149952700Y-184995000D01*
G75*
G02*
X149715200Y-184757500I0J237500D01*
G01*
X149715200Y-184257500D01*
G75*
G02*
X149952700Y-184020000I237500J0D01*
G01*
X150427700Y-184020000D01*
G75*
G02*
X150665200Y-184257500I0J-237500D01*
G01*
X150665200Y-184757500D01*
G75*
G02*
X150427700Y-184995000I-237500J0D01*
G01*
G37*
G36*
G01*
X150427700Y-186820000D02*
X149952700Y-186820000D01*
G75*
G02*
X149715200Y-186582500I0J237500D01*
G01*
X149715200Y-186082500D01*
G75*
G02*
X149952700Y-185845000I237500J0D01*
G01*
X150427700Y-185845000D01*
G75*
G02*
X150665200Y-186082500I0J-237500D01*
G01*
X150665200Y-186582500D01*
G75*
G02*
X150427700Y-186820000I-237500J0D01*
G01*
G37*
%TD*%
%TO.C,1k6*%
G36*
G01*
X143903100Y-184995000D02*
X143428100Y-184995000D01*
G75*
G02*
X143190600Y-184757500I0J237500D01*
G01*
X143190600Y-184257500D01*
G75*
G02*
X143428100Y-184020000I237500J0D01*
G01*
X143903100Y-184020000D01*
G75*
G02*
X144140600Y-184257500I0J-237500D01*
G01*
X144140600Y-184757500D01*
G75*
G02*
X143903100Y-184995000I-237500J0D01*
G01*
G37*
G36*
G01*
X143903100Y-186820000D02*
X143428100Y-186820000D01*
G75*
G02*
X143190600Y-186582500I0J237500D01*
G01*
X143190600Y-186082500D01*
G75*
G02*
X143428100Y-185845000I237500J0D01*
G01*
X143903100Y-185845000D01*
G75*
G02*
X144140600Y-186082500I0J-237500D01*
G01*
X144140600Y-186582500D01*
G75*
G02*
X143903100Y-186820000I-237500J0D01*
G01*
G37*
%TD*%
%TO.C,1k5*%
G36*
G01*
X116391700Y-186946000D02*
X115916700Y-186946000D01*
G75*
G02*
X115679200Y-186708500I0J237500D01*
G01*
X115679200Y-186208500D01*
G75*
G02*
X115916700Y-185971000I237500J0D01*
G01*
X116391700Y-185971000D01*
G75*
G02*
X116629200Y-186208500I0J-237500D01*
G01*
X116629200Y-186708500D01*
G75*
G02*
X116391700Y-186946000I-237500J0D01*
G01*
G37*
G36*
G01*
X116391700Y-185121000D02*
X115916700Y-185121000D01*
G75*
G02*
X115679200Y-184883500I0J237500D01*
G01*
X115679200Y-184383500D01*
G75*
G02*
X115916700Y-184146000I237500J0D01*
G01*
X116391700Y-184146000D01*
G75*
G02*
X116629200Y-184383500I0J-237500D01*
G01*
X116629200Y-184883500D01*
G75*
G02*
X116391700Y-185121000I-237500J0D01*
G01*
G37*
%TD*%
%TO.C,1k4*%
G36*
G01*
X120804900Y-186946000D02*
X120329900Y-186946000D01*
G75*
G02*
X120092400Y-186708500I0J237500D01*
G01*
X120092400Y-186208500D01*
G75*
G02*
X120329900Y-185971000I237500J0D01*
G01*
X120804900Y-185971000D01*
G75*
G02*
X121042400Y-186208500I0J-237500D01*
G01*
X121042400Y-186708500D01*
G75*
G02*
X120804900Y-186946000I-237500J0D01*
G01*
G37*
G36*
G01*
X120804900Y-185121000D02*
X120329900Y-185121000D01*
G75*
G02*
X120092400Y-184883500I0J237500D01*
G01*
X120092400Y-184383500D01*
G75*
G02*
X120329900Y-184146000I237500J0D01*
G01*
X120804900Y-184146000D01*
G75*
G02*
X121042400Y-184383500I0J-237500D01*
G01*
X121042400Y-184883500D01*
G75*
G02*
X120804900Y-185121000I-237500J0D01*
G01*
G37*
%TD*%
%TO.C,1k3*%
G36*
G01*
X123011600Y-186946000D02*
X122536600Y-186946000D01*
G75*
G02*
X122299100Y-186708500I0J237500D01*
G01*
X122299100Y-186208500D01*
G75*
G02*
X122536600Y-185971000I237500J0D01*
G01*
X123011600Y-185971000D01*
G75*
G02*
X123249100Y-186208500I0J-237500D01*
G01*
X123249100Y-186708500D01*
G75*
G02*
X123011600Y-186946000I-237500J0D01*
G01*
G37*
G36*
G01*
X123011600Y-185121000D02*
X122536600Y-185121000D01*
G75*
G02*
X122299100Y-184883500I0J237500D01*
G01*
X122299100Y-184383500D01*
G75*
G02*
X122536600Y-184146000I237500J0D01*
G01*
X123011600Y-184146000D01*
G75*
G02*
X123249100Y-184383500I0J-237500D01*
G01*
X123249100Y-184883500D01*
G75*
G02*
X123011600Y-185121000I-237500J0D01*
G01*
G37*
%TD*%
%TO.C,1k2*%
G36*
G01*
X125218200Y-186946000D02*
X124743200Y-186946000D01*
G75*
G02*
X124505700Y-186708500I0J237500D01*
G01*
X124505700Y-186208500D01*
G75*
G02*
X124743200Y-185971000I237500J0D01*
G01*
X125218200Y-185971000D01*
G75*
G02*
X125455700Y-186208500I0J-237500D01*
G01*
X125455700Y-186708500D01*
G75*
G02*
X125218200Y-186946000I-237500J0D01*
G01*
G37*
G36*
G01*
X125218200Y-185121000D02*
X124743200Y-185121000D01*
G75*
G02*
X124505700Y-184883500I0J237500D01*
G01*
X124505700Y-184383500D01*
G75*
G02*
X124743200Y-184146000I237500J0D01*
G01*
X125218200Y-184146000D01*
G75*
G02*
X125455700Y-184383500I0J-237500D01*
G01*
X125455700Y-184883500D01*
G75*
G02*
X125218200Y-185121000I-237500J0D01*
G01*
G37*
%TD*%
%TO.C,1k1*%
G36*
G01*
X118598300Y-186946000D02*
X118123300Y-186946000D01*
G75*
G02*
X117885800Y-186708500I0J237500D01*
G01*
X117885800Y-186208500D01*
G75*
G02*
X118123300Y-185971000I237500J0D01*
G01*
X118598300Y-185971000D01*
G75*
G02*
X118835800Y-186208500I0J-237500D01*
G01*
X118835800Y-186708500D01*
G75*
G02*
X118598300Y-186946000I-237500J0D01*
G01*
G37*
G36*
G01*
X118598300Y-185121000D02*
X118123300Y-185121000D01*
G75*
G02*
X117885800Y-184883500I0J237500D01*
G01*
X117885800Y-184383500D01*
G75*
G02*
X118123300Y-184146000I237500J0D01*
G01*
X118598300Y-184146000D01*
G75*
G02*
X118835800Y-184383500I0J-237500D01*
G01*
X118835800Y-184883500D01*
G75*
G02*
X118598300Y-185121000I-237500J0D01*
G01*
G37*
%TD*%
%TO.C,10k7*%
G36*
G01*
X191214600Y-92563000D02*
X191689600Y-92563000D01*
G75*
G02*
X191927100Y-92800500I0J-237500D01*
G01*
X191927100Y-93300500D01*
G75*
G02*
X191689600Y-93538000I-237500J0D01*
G01*
X191214600Y-93538000D01*
G75*
G02*
X190977100Y-93300500I0J237500D01*
G01*
X190977100Y-92800500D01*
G75*
G02*
X191214600Y-92563000I237500J0D01*
G01*
G37*
G36*
G01*
X191214600Y-90738000D02*
X191689600Y-90738000D01*
G75*
G02*
X191927100Y-90975500I0J-237500D01*
G01*
X191927100Y-91475500D01*
G75*
G02*
X191689600Y-91713000I-237500J0D01*
G01*
X191214600Y-91713000D01*
G75*
G02*
X190977100Y-91475500I0J237500D01*
G01*
X190977100Y-90975500D01*
G75*
G02*
X191214600Y-90738000I237500J0D01*
G01*
G37*
%TD*%
%TO.C,10k6*%
G36*
G01*
X158969700Y-90434000D02*
X159444700Y-90434000D01*
G75*
G02*
X159682200Y-90671500I0J-237500D01*
G01*
X159682200Y-91171500D01*
G75*
G02*
X159444700Y-91409000I-237500J0D01*
G01*
X158969700Y-91409000D01*
G75*
G02*
X158732200Y-91171500I0J237500D01*
G01*
X158732200Y-90671500D01*
G75*
G02*
X158969700Y-90434000I237500J0D01*
G01*
G37*
G36*
G01*
X158969700Y-92259000D02*
X159444700Y-92259000D01*
G75*
G02*
X159682200Y-92496500I0J-237500D01*
G01*
X159682200Y-92996500D01*
G75*
G02*
X159444700Y-93234000I-237500J0D01*
G01*
X158969700Y-93234000D01*
G75*
G02*
X158732200Y-92996500I0J237500D01*
G01*
X158732200Y-92496500D01*
G75*
G02*
X158969700Y-92259000I237500J0D01*
G01*
G37*
%TD*%
%TO.C,10k5*%
G36*
G01*
X138014700Y-92691000D02*
X138489700Y-92691000D01*
G75*
G02*
X138727200Y-92928500I0J-237500D01*
G01*
X138727200Y-93428500D01*
G75*
G02*
X138489700Y-93666000I-237500J0D01*
G01*
X138014700Y-93666000D01*
G75*
G02*
X137777200Y-93428500I0J237500D01*
G01*
X137777200Y-92928500D01*
G75*
G02*
X138014700Y-92691000I237500J0D01*
G01*
G37*
G36*
G01*
X138014700Y-90866000D02*
X138489700Y-90866000D01*
G75*
G02*
X138727200Y-91103500I0J-237500D01*
G01*
X138727200Y-91603500D01*
G75*
G02*
X138489700Y-91841000I-237500J0D01*
G01*
X138014700Y-91841000D01*
G75*
G02*
X137777200Y-91603500I0J237500D01*
G01*
X137777200Y-91103500D01*
G75*
G02*
X138014700Y-90866000I237500J0D01*
G01*
G37*
%TD*%
%TO.C,10k4*%
G36*
G01*
X212931600Y-91954000D02*
X213406600Y-91954000D01*
G75*
G02*
X213644100Y-92191500I0J-237500D01*
G01*
X213644100Y-92691500D01*
G75*
G02*
X213406600Y-92929000I-237500J0D01*
G01*
X212931600Y-92929000D01*
G75*
G02*
X212694100Y-92691500I0J237500D01*
G01*
X212694100Y-92191500D01*
G75*
G02*
X212931600Y-91954000I237500J0D01*
G01*
G37*
G36*
G01*
X212931600Y-90129000D02*
X213406600Y-90129000D01*
G75*
G02*
X213644100Y-90366500I0J-237500D01*
G01*
X213644100Y-90866500D01*
G75*
G02*
X213406600Y-91104000I-237500J0D01*
G01*
X212931600Y-91104000D01*
G75*
G02*
X212694100Y-90866500I0J237500D01*
G01*
X212694100Y-90366500D01*
G75*
G02*
X212931600Y-90129000I237500J0D01*
G01*
G37*
%TD*%
%TO.C,10k3*%
G36*
G01*
X171229600Y-182223000D02*
X170754600Y-182223000D01*
G75*
G02*
X170517100Y-181985500I0J237500D01*
G01*
X170517100Y-181485500D01*
G75*
G02*
X170754600Y-181248000I237500J0D01*
G01*
X171229600Y-181248000D01*
G75*
G02*
X171467100Y-181485500I0J-237500D01*
G01*
X171467100Y-181985500D01*
G75*
G02*
X171229600Y-182223000I-237500J0D01*
G01*
G37*
G36*
G01*
X171229600Y-180398000D02*
X170754600Y-180398000D01*
G75*
G02*
X170517100Y-180160500I0J237500D01*
G01*
X170517100Y-179660500D01*
G75*
G02*
X170754600Y-179423000I237500J0D01*
G01*
X171229600Y-179423000D01*
G75*
G02*
X171467100Y-179660500I0J-237500D01*
G01*
X171467100Y-180160500D01*
G75*
G02*
X171229600Y-180398000I-237500J0D01*
G01*
G37*
%TD*%
%TO.C,10k2*%
G36*
G01*
X147278100Y-182223000D02*
X146803100Y-182223000D01*
G75*
G02*
X146565600Y-181985500I0J237500D01*
G01*
X146565600Y-181485500D01*
G75*
G02*
X146803100Y-181248000I237500J0D01*
G01*
X147278100Y-181248000D01*
G75*
G02*
X147515600Y-181485500I0J-237500D01*
G01*
X147515600Y-181985500D01*
G75*
G02*
X147278100Y-182223000I-237500J0D01*
G01*
G37*
G36*
G01*
X147278100Y-180398000D02*
X146803100Y-180398000D01*
G75*
G02*
X146565600Y-180160500I0J237500D01*
G01*
X146565600Y-179660500D01*
G75*
G02*
X146803100Y-179423000I237500J0D01*
G01*
X147278100Y-179423000D01*
G75*
G02*
X147515600Y-179660500I0J-237500D01*
G01*
X147515600Y-180160500D01*
G75*
G02*
X147278100Y-180398000I-237500J0D01*
G01*
G37*
%TD*%
%TO.C,10k1*%
G36*
G01*
X121967000Y-180398000D02*
X121492000Y-180398000D01*
G75*
G02*
X121254500Y-180160500I0J237500D01*
G01*
X121254500Y-179660500D01*
G75*
G02*
X121492000Y-179423000I237500J0D01*
G01*
X121967000Y-179423000D01*
G75*
G02*
X122204500Y-179660500I0J-237500D01*
G01*
X122204500Y-180160500D01*
G75*
G02*
X121967000Y-180398000I-237500J0D01*
G01*
G37*
G36*
G01*
X121967000Y-182223000D02*
X121492000Y-182223000D01*
G75*
G02*
X121254500Y-181985500I0J237500D01*
G01*
X121254500Y-181485500D01*
G75*
G02*
X121492000Y-181248000I237500J0D01*
G01*
X121967000Y-181248000D01*
G75*
G02*
X122204500Y-181485500I0J-237500D01*
G01*
X122204500Y-181985500D01*
G75*
G02*
X121967000Y-182223000I-237500J0D01*
G01*
G37*
%TD*%
%TO.C,D16*%
G36*
G01*
X113333100Y-42071300D02*
X113333100Y-41596300D01*
G75*
G02*
X113570600Y-41358800I237500J0D01*
G01*
X114145600Y-41358800D01*
G75*
G02*
X114383100Y-41596300I0J-237500D01*
G01*
X114383100Y-42071300D01*
G75*
G02*
X114145600Y-42308800I-237500J0D01*
G01*
X113570600Y-42308800D01*
G75*
G02*
X113333100Y-42071300I0J237500D01*
G01*
G37*
G36*
G01*
X115083100Y-42071300D02*
X115083100Y-41596300D01*
G75*
G02*
X115320600Y-41358800I237500J0D01*
G01*
X115895600Y-41358800D01*
G75*
G02*
X116133100Y-41596300I0J-237500D01*
G01*
X116133100Y-42071300D01*
G75*
G02*
X115895600Y-42308800I-237500J0D01*
G01*
X115320600Y-42308800D01*
G75*
G02*
X115083100Y-42071300I0J237500D01*
G01*
G37*
%TD*%
%TO.C,D15*%
G36*
G01*
X119745300Y-42020500D02*
X119745300Y-41545500D01*
G75*
G02*
X119982800Y-41308000I237500J0D01*
G01*
X120557800Y-41308000D01*
G75*
G02*
X120795300Y-41545500I0J-237500D01*
G01*
X120795300Y-42020500D01*
G75*
G02*
X120557800Y-42258000I-237500J0D01*
G01*
X119982800Y-42258000D01*
G75*
G02*
X119745300Y-42020500I0J237500D01*
G01*
G37*
G36*
G01*
X121495300Y-42020500D02*
X121495300Y-41545500D01*
G75*
G02*
X121732800Y-41308000I237500J0D01*
G01*
X122307800Y-41308000D01*
G75*
G02*
X122545300Y-41545500I0J-237500D01*
G01*
X122545300Y-42020500D01*
G75*
G02*
X122307800Y-42258000I-237500J0D01*
G01*
X121732800Y-42258000D01*
G75*
G02*
X121495300Y-42020500I0J237500D01*
G01*
G37*
%TD*%
%TO.C,R48*%
G36*
G01*
X234754100Y-119776500D02*
X234754100Y-119301500D01*
G75*
G02*
X234991600Y-119064000I237500J0D01*
G01*
X235491600Y-119064000D01*
G75*
G02*
X235729100Y-119301500I0J-237500D01*
G01*
X235729100Y-119776500D01*
G75*
G02*
X235491600Y-120014000I-237500J0D01*
G01*
X234991600Y-120014000D01*
G75*
G02*
X234754100Y-119776500I0J237500D01*
G01*
G37*
G36*
G01*
X236579100Y-119776500D02*
X236579100Y-119301500D01*
G75*
G02*
X236816600Y-119064000I237500J0D01*
G01*
X237316600Y-119064000D01*
G75*
G02*
X237554100Y-119301500I0J-237500D01*
G01*
X237554100Y-119776500D01*
G75*
G02*
X237316600Y-120014000I-237500J0D01*
G01*
X236816600Y-120014000D01*
G75*
G02*
X236579100Y-119776500I0J237500D01*
G01*
G37*
%TD*%
%TO.C,R47*%
G36*
G01*
X234754100Y-108284500D02*
X234754100Y-107809500D01*
G75*
G02*
X234991600Y-107572000I237500J0D01*
G01*
X235491600Y-107572000D01*
G75*
G02*
X235729100Y-107809500I0J-237500D01*
G01*
X235729100Y-108284500D01*
G75*
G02*
X235491600Y-108522000I-237500J0D01*
G01*
X234991600Y-108522000D01*
G75*
G02*
X234754100Y-108284500I0J237500D01*
G01*
G37*
G36*
G01*
X236579100Y-108284500D02*
X236579100Y-107809500D01*
G75*
G02*
X236816600Y-107572000I237500J0D01*
G01*
X237316600Y-107572000D01*
G75*
G02*
X237554100Y-107809500I0J-237500D01*
G01*
X237554100Y-108284500D01*
G75*
G02*
X237316600Y-108522000I-237500J0D01*
G01*
X236816600Y-108522000D01*
G75*
G02*
X236579100Y-108284500I0J237500D01*
G01*
G37*
%TD*%
%TO.C,R46*%
G36*
G01*
X234754100Y-85302500D02*
X234754100Y-84827500D01*
G75*
G02*
X234991600Y-84590000I237500J0D01*
G01*
X235491600Y-84590000D01*
G75*
G02*
X235729100Y-84827500I0J-237500D01*
G01*
X235729100Y-85302500D01*
G75*
G02*
X235491600Y-85540000I-237500J0D01*
G01*
X234991600Y-85540000D01*
G75*
G02*
X234754100Y-85302500I0J237500D01*
G01*
G37*
G36*
G01*
X236579100Y-85302500D02*
X236579100Y-84827500D01*
G75*
G02*
X236816600Y-84590000I237500J0D01*
G01*
X237316600Y-84590000D01*
G75*
G02*
X237554100Y-84827500I0J-237500D01*
G01*
X237554100Y-85302500D01*
G75*
G02*
X237316600Y-85540000I-237500J0D01*
G01*
X236816600Y-85540000D01*
G75*
G02*
X236579100Y-85302500I0J237500D01*
G01*
G37*
%TD*%
%TO.C,R45*%
G36*
G01*
X234754100Y-96793500D02*
X234754100Y-96318500D01*
G75*
G02*
X234991600Y-96081000I237500J0D01*
G01*
X235491600Y-96081000D01*
G75*
G02*
X235729100Y-96318500I0J-237500D01*
G01*
X235729100Y-96793500D01*
G75*
G02*
X235491600Y-97031000I-237500J0D01*
G01*
X234991600Y-97031000D01*
G75*
G02*
X234754100Y-96793500I0J237500D01*
G01*
G37*
G36*
G01*
X236579100Y-96793500D02*
X236579100Y-96318500D01*
G75*
G02*
X236816600Y-96081000I237500J0D01*
G01*
X237316600Y-96081000D01*
G75*
G02*
X237554100Y-96318500I0J-237500D01*
G01*
X237554100Y-96793500D01*
G75*
G02*
X237316600Y-97031000I-237500J0D01*
G01*
X236816600Y-97031000D01*
G75*
G02*
X236579100Y-96793500I0J237500D01*
G01*
G37*
%TD*%
%TO.C,R44*%
G36*
G01*
X234754100Y-131267500D02*
X234754100Y-130792500D01*
G75*
G02*
X234991600Y-130555000I237500J0D01*
G01*
X235491600Y-130555000D01*
G75*
G02*
X235729100Y-130792500I0J-237500D01*
G01*
X235729100Y-131267500D01*
G75*
G02*
X235491600Y-131505000I-237500J0D01*
G01*
X234991600Y-131505000D01*
G75*
G02*
X234754100Y-131267500I0J237500D01*
G01*
G37*
G36*
G01*
X236579100Y-131267500D02*
X236579100Y-130792500D01*
G75*
G02*
X236816600Y-130555000I237500J0D01*
G01*
X237316600Y-130555000D01*
G75*
G02*
X237554100Y-130792500I0J-237500D01*
G01*
X237554100Y-131267500D01*
G75*
G02*
X237316600Y-131505000I-237500J0D01*
G01*
X236816600Y-131505000D01*
G75*
G02*
X236579100Y-131267500I0J237500D01*
G01*
G37*
%TD*%
%TO.C,R43*%
G36*
G01*
X234754100Y-142759500D02*
X234754100Y-142284500D01*
G75*
G02*
X234991600Y-142047000I237500J0D01*
G01*
X235491600Y-142047000D01*
G75*
G02*
X235729100Y-142284500I0J-237500D01*
G01*
X235729100Y-142759500D01*
G75*
G02*
X235491600Y-142997000I-237500J0D01*
G01*
X234991600Y-142997000D01*
G75*
G02*
X234754100Y-142759500I0J237500D01*
G01*
G37*
G36*
G01*
X236579100Y-142759500D02*
X236579100Y-142284500D01*
G75*
G02*
X236816600Y-142047000I237500J0D01*
G01*
X237316600Y-142047000D01*
G75*
G02*
X237554100Y-142284500I0J-237500D01*
G01*
X237554100Y-142759500D01*
G75*
G02*
X237316600Y-142997000I-237500J0D01*
G01*
X236816600Y-142997000D01*
G75*
G02*
X236579100Y-142759500I0J237500D01*
G01*
G37*
%TD*%
%TO.C,R42*%
G36*
G01*
X234754100Y-154250500D02*
X234754100Y-153775500D01*
G75*
G02*
X234991600Y-153538000I237500J0D01*
G01*
X235491600Y-153538000D01*
G75*
G02*
X235729100Y-153775500I0J-237500D01*
G01*
X235729100Y-154250500D01*
G75*
G02*
X235491600Y-154488000I-237500J0D01*
G01*
X234991600Y-154488000D01*
G75*
G02*
X234754100Y-154250500I0J237500D01*
G01*
G37*
G36*
G01*
X236579100Y-154250500D02*
X236579100Y-153775500D01*
G75*
G02*
X236816600Y-153538000I237500J0D01*
G01*
X237316600Y-153538000D01*
G75*
G02*
X237554100Y-153775500I0J-237500D01*
G01*
X237554100Y-154250500D01*
G75*
G02*
X237316600Y-154488000I-237500J0D01*
G01*
X236816600Y-154488000D01*
G75*
G02*
X236579100Y-154250500I0J237500D01*
G01*
G37*
%TD*%
%TO.C,R41*%
G36*
G01*
X234754100Y-128323500D02*
X234754100Y-127848500D01*
G75*
G02*
X234991600Y-127611000I237500J0D01*
G01*
X235491600Y-127611000D01*
G75*
G02*
X235729100Y-127848500I0J-237500D01*
G01*
X235729100Y-128323500D01*
G75*
G02*
X235491600Y-128561000I-237500J0D01*
G01*
X234991600Y-128561000D01*
G75*
G02*
X234754100Y-128323500I0J237500D01*
G01*
G37*
G36*
G01*
X236579100Y-128323500D02*
X236579100Y-127848500D01*
G75*
G02*
X236816600Y-127611000I237500J0D01*
G01*
X237316600Y-127611000D01*
G75*
G02*
X237554100Y-127848500I0J-237500D01*
G01*
X237554100Y-128323500D01*
G75*
G02*
X237316600Y-128561000I-237500J0D01*
G01*
X236816600Y-128561000D01*
G75*
G02*
X236579100Y-128323500I0J237500D01*
G01*
G37*
%TD*%
%TO.C,R40*%
G36*
G01*
X234754100Y-116811500D02*
X234754100Y-116336500D01*
G75*
G02*
X234991600Y-116099000I237500J0D01*
G01*
X235491600Y-116099000D01*
G75*
G02*
X235729100Y-116336500I0J-237500D01*
G01*
X235729100Y-116811500D01*
G75*
G02*
X235491600Y-117049000I-237500J0D01*
G01*
X234991600Y-117049000D01*
G75*
G02*
X234754100Y-116811500I0J237500D01*
G01*
G37*
G36*
G01*
X236579100Y-116811500D02*
X236579100Y-116336500D01*
G75*
G02*
X236816600Y-116099000I237500J0D01*
G01*
X237316600Y-116099000D01*
G75*
G02*
X237554100Y-116336500I0J-237500D01*
G01*
X237554100Y-116811500D01*
G75*
G02*
X237316600Y-117049000I-237500J0D01*
G01*
X236816600Y-117049000D01*
G75*
G02*
X236579100Y-116811500I0J237500D01*
G01*
G37*
%TD*%
%TO.C,R39*%
G36*
G01*
X234754100Y-93786500D02*
X234754100Y-93311500D01*
G75*
G02*
X234991600Y-93074000I237500J0D01*
G01*
X235491600Y-93074000D01*
G75*
G02*
X235729100Y-93311500I0J-237500D01*
G01*
X235729100Y-93786500D01*
G75*
G02*
X235491600Y-94024000I-237500J0D01*
G01*
X234991600Y-94024000D01*
G75*
G02*
X234754100Y-93786500I0J237500D01*
G01*
G37*
G36*
G01*
X236579100Y-93786500D02*
X236579100Y-93311500D01*
G75*
G02*
X236816600Y-93074000I237500J0D01*
G01*
X237316600Y-93074000D01*
G75*
G02*
X237554100Y-93311500I0J-237500D01*
G01*
X237554100Y-93786500D01*
G75*
G02*
X237316600Y-94024000I-237500J0D01*
G01*
X236816600Y-94024000D01*
G75*
G02*
X236579100Y-93786500I0J237500D01*
G01*
G37*
%TD*%
%TO.C,R38*%
G36*
G01*
X234754100Y-105298500D02*
X234754100Y-104823500D01*
G75*
G02*
X234991600Y-104586000I237500J0D01*
G01*
X235491600Y-104586000D01*
G75*
G02*
X235729100Y-104823500I0J-237500D01*
G01*
X235729100Y-105298500D01*
G75*
G02*
X235491600Y-105536000I-237500J0D01*
G01*
X234991600Y-105536000D01*
G75*
G02*
X234754100Y-105298500I0J237500D01*
G01*
G37*
G36*
G01*
X236579100Y-105298500D02*
X236579100Y-104823500D01*
G75*
G02*
X236816600Y-104586000I237500J0D01*
G01*
X237316600Y-104586000D01*
G75*
G02*
X237554100Y-104823500I0J-237500D01*
G01*
X237554100Y-105298500D01*
G75*
G02*
X237316600Y-105536000I-237500J0D01*
G01*
X236816600Y-105536000D01*
G75*
G02*
X236579100Y-105298500I0J237500D01*
G01*
G37*
%TD*%
%TO.C,R37*%
G36*
G01*
X234754100Y-139836500D02*
X234754100Y-139361500D01*
G75*
G02*
X234991600Y-139124000I237500J0D01*
G01*
X235491600Y-139124000D01*
G75*
G02*
X235729100Y-139361500I0J-237500D01*
G01*
X235729100Y-139836500D01*
G75*
G02*
X235491600Y-140074000I-237500J0D01*
G01*
X234991600Y-140074000D01*
G75*
G02*
X234754100Y-139836500I0J237500D01*
G01*
G37*
G36*
G01*
X236579100Y-139836500D02*
X236579100Y-139361500D01*
G75*
G02*
X236816600Y-139124000I237500J0D01*
G01*
X237316600Y-139124000D01*
G75*
G02*
X237554100Y-139361500I0J-237500D01*
G01*
X237554100Y-139836500D01*
G75*
G02*
X237316600Y-140074000I-237500J0D01*
G01*
X236816600Y-140074000D01*
G75*
G02*
X236579100Y-139836500I0J237500D01*
G01*
G37*
%TD*%
%TO.C,R36*%
G36*
G01*
X234754100Y-151348500D02*
X234754100Y-150873500D01*
G75*
G02*
X234991600Y-150636000I237500J0D01*
G01*
X235491600Y-150636000D01*
G75*
G02*
X235729100Y-150873500I0J-237500D01*
G01*
X235729100Y-151348500D01*
G75*
G02*
X235491600Y-151586000I-237500J0D01*
G01*
X234991600Y-151586000D01*
G75*
G02*
X234754100Y-151348500I0J237500D01*
G01*
G37*
G36*
G01*
X236579100Y-151348500D02*
X236579100Y-150873500D01*
G75*
G02*
X236816600Y-150636000I237500J0D01*
G01*
X237316600Y-150636000D01*
G75*
G02*
X237554100Y-150873500I0J-237500D01*
G01*
X237554100Y-151348500D01*
G75*
G02*
X237316600Y-151586000I-237500J0D01*
G01*
X236816600Y-151586000D01*
G75*
G02*
X236579100Y-151348500I0J237500D01*
G01*
G37*
%TD*%
%TO.C,R35*%
G36*
G01*
X234754100Y-162861500D02*
X234754100Y-162386500D01*
G75*
G02*
X234991600Y-162149000I237500J0D01*
G01*
X235491600Y-162149000D01*
G75*
G02*
X235729100Y-162386500I0J-237500D01*
G01*
X235729100Y-162861500D01*
G75*
G02*
X235491600Y-163099000I-237500J0D01*
G01*
X234991600Y-163099000D01*
G75*
G02*
X234754100Y-162861500I0J237500D01*
G01*
G37*
G36*
G01*
X236579100Y-162861500D02*
X236579100Y-162386500D01*
G75*
G02*
X236816600Y-162149000I237500J0D01*
G01*
X237316600Y-162149000D01*
G75*
G02*
X237554100Y-162386500I0J-237500D01*
G01*
X237554100Y-162861500D01*
G75*
G02*
X237316600Y-163099000I-237500J0D01*
G01*
X236816600Y-163099000D01*
G75*
G02*
X236579100Y-162861500I0J237500D01*
G01*
G37*
%TD*%
%TO.C,R25*%
G36*
G01*
X220429000Y-215337400D02*
X220429000Y-214862400D01*
G75*
G02*
X220666500Y-214624900I237500J0D01*
G01*
X221166500Y-214624900D01*
G75*
G02*
X221404000Y-214862400I0J-237500D01*
G01*
X221404000Y-215337400D01*
G75*
G02*
X221166500Y-215574900I-237500J0D01*
G01*
X220666500Y-215574900D01*
G75*
G02*
X220429000Y-215337400I0J237500D01*
G01*
G37*
G36*
G01*
X222254000Y-215337400D02*
X222254000Y-214862400D01*
G75*
G02*
X222491500Y-214624900I237500J0D01*
G01*
X222991500Y-214624900D01*
G75*
G02*
X223229000Y-214862400I0J-237500D01*
G01*
X223229000Y-215337400D01*
G75*
G02*
X222991500Y-215574900I-237500J0D01*
G01*
X222491500Y-215574900D01*
G75*
G02*
X222254000Y-215337400I0J237500D01*
G01*
G37*
%TD*%
%TO.C,R24*%
G36*
G01*
X111840000Y-50263600D02*
X112315000Y-50263600D01*
G75*
G02*
X112552500Y-50501100I0J-237500D01*
G01*
X112552500Y-51001100D01*
G75*
G02*
X112315000Y-51238600I-237500J0D01*
G01*
X111840000Y-51238600D01*
G75*
G02*
X111602500Y-51001100I0J237500D01*
G01*
X111602500Y-50501100D01*
G75*
G02*
X111840000Y-50263600I237500J0D01*
G01*
G37*
G36*
G01*
X111840000Y-52088600D02*
X112315000Y-52088600D01*
G75*
G02*
X112552500Y-52326100I0J-237500D01*
G01*
X112552500Y-52826100D01*
G75*
G02*
X112315000Y-53063600I-237500J0D01*
G01*
X111840000Y-53063600D01*
G75*
G02*
X111602500Y-52826100I0J237500D01*
G01*
X111602500Y-52326100D01*
G75*
G02*
X111840000Y-52088600I237500J0D01*
G01*
G37*
%TD*%
%TO.C,R23*%
G36*
G01*
X122419100Y-50263600D02*
X122894100Y-50263600D01*
G75*
G02*
X123131600Y-50501100I0J-237500D01*
G01*
X123131600Y-51001100D01*
G75*
G02*
X122894100Y-51238600I-237500J0D01*
G01*
X122419100Y-51238600D01*
G75*
G02*
X122181600Y-51001100I0J237500D01*
G01*
X122181600Y-50501100D01*
G75*
G02*
X122419100Y-50263600I237500J0D01*
G01*
G37*
G36*
G01*
X122419100Y-52088600D02*
X122894100Y-52088600D01*
G75*
G02*
X123131600Y-52326100I0J-237500D01*
G01*
X123131600Y-52826100D01*
G75*
G02*
X122894100Y-53063600I-237500J0D01*
G01*
X122419100Y-53063600D01*
G75*
G02*
X122181600Y-52826100I0J237500D01*
G01*
X122181600Y-52326100D01*
G75*
G02*
X122419100Y-52088600I237500J0D01*
G01*
G37*
%TD*%
%TO.C,R21*%
G36*
G01*
X106556800Y-50263600D02*
X107031800Y-50263600D01*
G75*
G02*
X107269300Y-50501100I0J-237500D01*
G01*
X107269300Y-51001100D01*
G75*
G02*
X107031800Y-51238600I-237500J0D01*
G01*
X106556800Y-51238600D01*
G75*
G02*
X106319300Y-51001100I0J237500D01*
G01*
X106319300Y-50501100D01*
G75*
G02*
X106556800Y-50263600I237500J0D01*
G01*
G37*
G36*
G01*
X106556800Y-52088600D02*
X107031800Y-52088600D01*
G75*
G02*
X107269300Y-52326100I0J-237500D01*
G01*
X107269300Y-52826100D01*
G75*
G02*
X107031800Y-53063600I-237500J0D01*
G01*
X106556800Y-53063600D01*
G75*
G02*
X106319300Y-52826100I0J237500D01*
G01*
X106319300Y-52326100D01*
G75*
G02*
X106556800Y-52088600I237500J0D01*
G01*
G37*
%TD*%
%TO.C,R20*%
G36*
G01*
X117174000Y-50250900D02*
X117649000Y-50250900D01*
G75*
G02*
X117886500Y-50488400I0J-237500D01*
G01*
X117886500Y-50988400D01*
G75*
G02*
X117649000Y-51225900I-237500J0D01*
G01*
X117174000Y-51225900D01*
G75*
G02*
X116936500Y-50988400I0J237500D01*
G01*
X116936500Y-50488400D01*
G75*
G02*
X117174000Y-50250900I237500J0D01*
G01*
G37*
G36*
G01*
X117174000Y-52075900D02*
X117649000Y-52075900D01*
G75*
G02*
X117886500Y-52313400I0J-237500D01*
G01*
X117886500Y-52813400D01*
G75*
G02*
X117649000Y-53050900I-237500J0D01*
G01*
X117174000Y-53050900D01*
G75*
G02*
X116936500Y-52813400I0J237500D01*
G01*
X116936500Y-52313400D01*
G75*
G02*
X117174000Y-52075900I237500J0D01*
G01*
G37*
%TD*%
%TO.C,R19*%
G36*
G01*
X198238600Y-206385000D02*
X198713600Y-206385000D01*
G75*
G02*
X198951100Y-206622500I0J-237500D01*
G01*
X198951100Y-207122500D01*
G75*
G02*
X198713600Y-207360000I-237500J0D01*
G01*
X198238600Y-207360000D01*
G75*
G02*
X198001100Y-207122500I0J237500D01*
G01*
X198001100Y-206622500D01*
G75*
G02*
X198238600Y-206385000I237500J0D01*
G01*
G37*
G36*
G01*
X198238600Y-208210000D02*
X198713600Y-208210000D01*
G75*
G02*
X198951100Y-208447500I0J-237500D01*
G01*
X198951100Y-208947500D01*
G75*
G02*
X198713600Y-209185000I-237500J0D01*
G01*
X198238600Y-209185000D01*
G75*
G02*
X198001100Y-208947500I0J237500D01*
G01*
X198001100Y-208447500D01*
G75*
G02*
X198238600Y-208210000I237500J0D01*
G01*
G37*
%TD*%
%TO.C,R18*%
G36*
G01*
X192967600Y-206385000D02*
X193442600Y-206385000D01*
G75*
G02*
X193680100Y-206622500I0J-237500D01*
G01*
X193680100Y-207122500D01*
G75*
G02*
X193442600Y-207360000I-237500J0D01*
G01*
X192967600Y-207360000D01*
G75*
G02*
X192730100Y-207122500I0J237500D01*
G01*
X192730100Y-206622500D01*
G75*
G02*
X192967600Y-206385000I237500J0D01*
G01*
G37*
G36*
G01*
X192967600Y-208210000D02*
X193442600Y-208210000D01*
G75*
G02*
X193680100Y-208447500I0J-237500D01*
G01*
X193680100Y-208947500D01*
G75*
G02*
X193442600Y-209185000I-237500J0D01*
G01*
X192967600Y-209185000D01*
G75*
G02*
X192730100Y-208947500I0J237500D01*
G01*
X192730100Y-208447500D01*
G75*
G02*
X192967600Y-208210000I237500J0D01*
G01*
G37*
%TD*%
%TO.C,R17*%
G36*
G01*
X203318600Y-208210000D02*
X203793600Y-208210000D01*
G75*
G02*
X204031100Y-208447500I0J-237500D01*
G01*
X204031100Y-208947500D01*
G75*
G02*
X203793600Y-209185000I-237500J0D01*
G01*
X203318600Y-209185000D01*
G75*
G02*
X203081100Y-208947500I0J237500D01*
G01*
X203081100Y-208447500D01*
G75*
G02*
X203318600Y-208210000I237500J0D01*
G01*
G37*
G36*
G01*
X203318600Y-206385000D02*
X203793600Y-206385000D01*
G75*
G02*
X204031100Y-206622500I0J-237500D01*
G01*
X204031100Y-207122500D01*
G75*
G02*
X203793600Y-207360000I-237500J0D01*
G01*
X203318600Y-207360000D01*
G75*
G02*
X203081100Y-207122500I0J237500D01*
G01*
X203081100Y-206622500D01*
G75*
G02*
X203318600Y-206385000I237500J0D01*
G01*
G37*
%TD*%
%TO.C,R16*%
G36*
G01*
X113306400Y-43785800D02*
X113306400Y-43310800D01*
G75*
G02*
X113543900Y-43073300I237500J0D01*
G01*
X114043900Y-43073300D01*
G75*
G02*
X114281400Y-43310800I0J-237500D01*
G01*
X114281400Y-43785800D01*
G75*
G02*
X114043900Y-44023300I-237500J0D01*
G01*
X113543900Y-44023300D01*
G75*
G02*
X113306400Y-43785800I0J237500D01*
G01*
G37*
G36*
G01*
X115131400Y-43785800D02*
X115131400Y-43310800D01*
G75*
G02*
X115368900Y-43073300I237500J0D01*
G01*
X115868900Y-43073300D01*
G75*
G02*
X116106400Y-43310800I0J-237500D01*
G01*
X116106400Y-43785800D01*
G75*
G02*
X115868900Y-44023300I-237500J0D01*
G01*
X115368900Y-44023300D01*
G75*
G02*
X115131400Y-43785800I0J237500D01*
G01*
G37*
%TD*%
%TO.C,R15*%
G36*
G01*
X119719900Y-43785800D02*
X119719900Y-43310800D01*
G75*
G02*
X119957400Y-43073300I237500J0D01*
G01*
X120457400Y-43073300D01*
G75*
G02*
X120694900Y-43310800I0J-237500D01*
G01*
X120694900Y-43785800D01*
G75*
G02*
X120457400Y-44023300I-237500J0D01*
G01*
X119957400Y-44023300D01*
G75*
G02*
X119719900Y-43785800I0J237500D01*
G01*
G37*
G36*
G01*
X121544900Y-43785800D02*
X121544900Y-43310800D01*
G75*
G02*
X121782400Y-43073300I237500J0D01*
G01*
X122282400Y-43073300D01*
G75*
G02*
X122519900Y-43310800I0J-237500D01*
G01*
X122519900Y-43785800D01*
G75*
G02*
X122282400Y-44023300I-237500J0D01*
G01*
X121782400Y-44023300D01*
G75*
G02*
X121544900Y-43785800I0J237500D01*
G01*
G37*
%TD*%
D16*
%TO.C,Q2*%
X226615500Y-213128900D03*
X226615500Y-211228900D03*
X224615500Y-212178900D03*
%TD*%
%TO.C,D23*%
G36*
G01*
X113364000Y-50289000D02*
X113839000Y-50289000D01*
G75*
G02*
X114076500Y-50526500I0J-237500D01*
G01*
X114076500Y-51101500D01*
G75*
G02*
X113839000Y-51339000I-237500J0D01*
G01*
X113364000Y-51339000D01*
G75*
G02*
X113126500Y-51101500I0J237500D01*
G01*
X113126500Y-50526500D01*
G75*
G02*
X113364000Y-50289000I237500J0D01*
G01*
G37*
G36*
G01*
X113364000Y-52039000D02*
X113839000Y-52039000D01*
G75*
G02*
X114076500Y-52276500I0J-237500D01*
G01*
X114076500Y-52851500D01*
G75*
G02*
X113839000Y-53089000I-237500J0D01*
G01*
X113364000Y-53089000D01*
G75*
G02*
X113126500Y-52851500I0J237500D01*
G01*
X113126500Y-52276500D01*
G75*
G02*
X113364000Y-52039000I237500J0D01*
G01*
G37*
%TD*%
%TO.C,D22*%
G36*
G01*
X123981200Y-50289000D02*
X124456200Y-50289000D01*
G75*
G02*
X124693700Y-50526500I0J-237500D01*
G01*
X124693700Y-51101500D01*
G75*
G02*
X124456200Y-51339000I-237500J0D01*
G01*
X123981200Y-51339000D01*
G75*
G02*
X123743700Y-51101500I0J237500D01*
G01*
X123743700Y-50526500D01*
G75*
G02*
X123981200Y-50289000I237500J0D01*
G01*
G37*
G36*
G01*
X123981200Y-52039000D02*
X124456200Y-52039000D01*
G75*
G02*
X124693700Y-52276500I0J-237500D01*
G01*
X124693700Y-52851500D01*
G75*
G02*
X124456200Y-53089000I-237500J0D01*
G01*
X123981200Y-53089000D01*
G75*
G02*
X123743700Y-52851500I0J237500D01*
G01*
X123743700Y-52276500D01*
G75*
G02*
X123981200Y-52039000I237500J0D01*
G01*
G37*
%TD*%
%TO.C,D21*%
G36*
G01*
X108182400Y-50289000D02*
X108657400Y-50289000D01*
G75*
G02*
X108894900Y-50526500I0J-237500D01*
G01*
X108894900Y-51101500D01*
G75*
G02*
X108657400Y-51339000I-237500J0D01*
G01*
X108182400Y-51339000D01*
G75*
G02*
X107944900Y-51101500I0J237500D01*
G01*
X107944900Y-50526500D01*
G75*
G02*
X108182400Y-50289000I237500J0D01*
G01*
G37*
G36*
G01*
X108182400Y-52039000D02*
X108657400Y-52039000D01*
G75*
G02*
X108894900Y-52276500I0J-237500D01*
G01*
X108894900Y-52851500D01*
G75*
G02*
X108657400Y-53089000I-237500J0D01*
G01*
X108182400Y-53089000D01*
G75*
G02*
X107944900Y-52851500I0J237500D01*
G01*
X107944900Y-52276500D01*
G75*
G02*
X108182400Y-52039000I237500J0D01*
G01*
G37*
%TD*%
%TO.C,D20*%
G36*
G01*
X118748800Y-50289000D02*
X119223800Y-50289000D01*
G75*
G02*
X119461300Y-50526500I0J-237500D01*
G01*
X119461300Y-51101500D01*
G75*
G02*
X119223800Y-51339000I-237500J0D01*
G01*
X118748800Y-51339000D01*
G75*
G02*
X118511300Y-51101500I0J237500D01*
G01*
X118511300Y-50526500D01*
G75*
G02*
X118748800Y-50289000I237500J0D01*
G01*
G37*
G36*
G01*
X118748800Y-52039000D02*
X119223800Y-52039000D01*
G75*
G02*
X119461300Y-52276500I0J-237500D01*
G01*
X119461300Y-52851500D01*
G75*
G02*
X119223800Y-53089000I-237500J0D01*
G01*
X118748800Y-53089000D01*
G75*
G02*
X118511300Y-52851500I0J237500D01*
G01*
X118511300Y-52276500D01*
G75*
G02*
X118748800Y-52039000I237500J0D01*
G01*
G37*
%TD*%
%TO.C,D19*%
G36*
G01*
X199846600Y-206385000D02*
X200321600Y-206385000D01*
G75*
G02*
X200559100Y-206622500I0J-237500D01*
G01*
X200559100Y-207197500D01*
G75*
G02*
X200321600Y-207435000I-237500J0D01*
G01*
X199846600Y-207435000D01*
G75*
G02*
X199609100Y-207197500I0J237500D01*
G01*
X199609100Y-206622500D01*
G75*
G02*
X199846600Y-206385000I237500J0D01*
G01*
G37*
G36*
G01*
X199846600Y-208135000D02*
X200321600Y-208135000D01*
G75*
G02*
X200559100Y-208372500I0J-237500D01*
G01*
X200559100Y-208947500D01*
G75*
G02*
X200321600Y-209185000I-237500J0D01*
G01*
X199846600Y-209185000D01*
G75*
G02*
X199609100Y-208947500I0J237500D01*
G01*
X199609100Y-208372500D01*
G75*
G02*
X199846600Y-208135000I237500J0D01*
G01*
G37*
%TD*%
%TO.C,D18*%
G36*
G01*
X194554600Y-206385000D02*
X195029600Y-206385000D01*
G75*
G02*
X195267100Y-206622500I0J-237500D01*
G01*
X195267100Y-207197500D01*
G75*
G02*
X195029600Y-207435000I-237500J0D01*
G01*
X194554600Y-207435000D01*
G75*
G02*
X194317100Y-207197500I0J237500D01*
G01*
X194317100Y-206622500D01*
G75*
G02*
X194554600Y-206385000I237500J0D01*
G01*
G37*
G36*
G01*
X194554600Y-208135000D02*
X195029600Y-208135000D01*
G75*
G02*
X195267100Y-208372500I0J-237500D01*
G01*
X195267100Y-208947500D01*
G75*
G02*
X195029600Y-209185000I-237500J0D01*
G01*
X194554600Y-209185000D01*
G75*
G02*
X194317100Y-208947500I0J237500D01*
G01*
X194317100Y-208372500D01*
G75*
G02*
X194554600Y-208135000I237500J0D01*
G01*
G37*
%TD*%
%TO.C,D17*%
G36*
G01*
X204956600Y-208135000D02*
X205431600Y-208135000D01*
G75*
G02*
X205669100Y-208372500I0J-237500D01*
G01*
X205669100Y-208947500D01*
G75*
G02*
X205431600Y-209185000I-237500J0D01*
G01*
X204956600Y-209185000D01*
G75*
G02*
X204719100Y-208947500I0J237500D01*
G01*
X204719100Y-208372500D01*
G75*
G02*
X204956600Y-208135000I237500J0D01*
G01*
G37*
G36*
G01*
X204956600Y-206385000D02*
X205431600Y-206385000D01*
G75*
G02*
X205669100Y-206622500I0J-237500D01*
G01*
X205669100Y-207197500D01*
G75*
G02*
X205431600Y-207435000I-237500J0D01*
G01*
X204956600Y-207435000D01*
G75*
G02*
X204719100Y-207197500I0J237500D01*
G01*
X204719100Y-206622500D01*
G75*
G02*
X204956600Y-206385000I237500J0D01*
G01*
G37*
%TD*%
%TO.C,C2*%
G36*
G01*
X217453200Y-186229800D02*
X217928200Y-186229800D01*
G75*
G02*
X218165700Y-186467300I0J-237500D01*
G01*
X218165700Y-187067300D01*
G75*
G02*
X217928200Y-187304800I-237500J0D01*
G01*
X217453200Y-187304800D01*
G75*
G02*
X217215700Y-187067300I0J237500D01*
G01*
X217215700Y-186467300D01*
G75*
G02*
X217453200Y-186229800I237500J0D01*
G01*
G37*
G36*
G01*
X217453200Y-187954800D02*
X217928200Y-187954800D01*
G75*
G02*
X218165700Y-188192300I0J-237500D01*
G01*
X218165700Y-188792300D01*
G75*
G02*
X217928200Y-189029800I-237500J0D01*
G01*
X217453200Y-189029800D01*
G75*
G02*
X217215700Y-188792300I0J237500D01*
G01*
X217215700Y-188192300D01*
G75*
G02*
X217453200Y-187954800I237500J0D01*
G01*
G37*
%TD*%
%TO.C,D32*%
G36*
G01*
X215791500Y-215083400D02*
X215791500Y-214608400D01*
G75*
G02*
X216029000Y-214370900I237500J0D01*
G01*
X216604000Y-214370900D01*
G75*
G02*
X216841500Y-214608400I0J-237500D01*
G01*
X216841500Y-215083400D01*
G75*
G02*
X216604000Y-215320900I-237500J0D01*
G01*
X216029000Y-215320900D01*
G75*
G02*
X215791500Y-215083400I0J237500D01*
G01*
G37*
G36*
G01*
X214041500Y-215083400D02*
X214041500Y-214608400D01*
G75*
G02*
X214279000Y-214370900I237500J0D01*
G01*
X214854000Y-214370900D01*
G75*
G02*
X215091500Y-214608400I0J-237500D01*
G01*
X215091500Y-215083400D01*
G75*
G02*
X214854000Y-215320900I-237500J0D01*
G01*
X214279000Y-215320900D01*
G75*
G02*
X214041500Y-215083400I0J237500D01*
G01*
G37*
%TD*%
%TO.C,D33*%
G36*
G01*
X224088500Y-215370401D02*
X224088500Y-214895401D01*
G75*
G02*
X224326000Y-214657901I237500J0D01*
G01*
X224901000Y-214657901D01*
G75*
G02*
X225138500Y-214895401I0J-237500D01*
G01*
X225138500Y-215370401D01*
G75*
G02*
X224901000Y-215607901I-237500J0D01*
G01*
X224326000Y-215607901D01*
G75*
G02*
X224088500Y-215370401I0J237500D01*
G01*
G37*
G36*
G01*
X225838500Y-215370401D02*
X225838500Y-214895401D01*
G75*
G02*
X226076000Y-214657901I237500J0D01*
G01*
X226651000Y-214657901D01*
G75*
G02*
X226888500Y-214895401I0J-237500D01*
G01*
X226888500Y-215370401D01*
G75*
G02*
X226651000Y-215607901I-237500J0D01*
G01*
X226076000Y-215607901D01*
G75*
G02*
X225838500Y-215370401I0J237500D01*
G01*
G37*
%TD*%
%TO.C,Q1*%
X214328500Y-211813900D03*
X216328500Y-210863900D03*
X216328500Y-212763900D03*
%TD*%
%TO.C,R22*%
G36*
G01*
X212348000Y-215083400D02*
X212348000Y-214608400D01*
G75*
G02*
X212585500Y-214370900I237500J0D01*
G01*
X213085500Y-214370900D01*
G75*
G02*
X213323000Y-214608400I0J-237500D01*
G01*
X213323000Y-215083400D01*
G75*
G02*
X213085500Y-215320900I-237500J0D01*
G01*
X212585500Y-215320900D01*
G75*
G02*
X212348000Y-215083400I0J237500D01*
G01*
G37*
G36*
G01*
X210523000Y-215083400D02*
X210523000Y-214608400D01*
G75*
G02*
X210760500Y-214370900I237500J0D01*
G01*
X211260500Y-214370900D01*
G75*
G02*
X211498000Y-214608400I0J-237500D01*
G01*
X211498000Y-215083400D01*
G75*
G02*
X211260500Y-215320900I-237500J0D01*
G01*
X210760500Y-215320900D01*
G75*
G02*
X210523000Y-215083400I0J237500D01*
G01*
G37*
%TD*%
M02*
