M48
; DRILL file {KiCad (5.1.12-1-g0a0a2da680)-1} date 02/12/22 23:57:12
; FORMAT={-:-/ absolute / inch / decimal}
; #@! TF.CreationDate,2022-02-12T23:57:12-06:00
; #@! TF.GenerationSoftware,Kicad,Pcbnew,(5.1.12-1-g0a0a2da680)-1
; #@! TF.FileFunction,Plated,1,2,PTH
FMAT,2
INCH
T1C0.0157
T2C0.0350
T3C0.0354
T4C0.0394
T5C0.1598
%
G90
G05
T1
X4.1605Y-2.0235
X4.1694Y-2.5215
X4.1695Y-2.9065
X4.1915Y-3.7275
X4.196Y-3.4055
X4.2Y-3.9875
X4.227Y-2.9065
X4.323Y-5.7415
X4.4241Y-2.8355
X4.4259Y-2.5217
X4.4545Y-6.214
X4.463Y-2.706
X4.4655Y-2.9705
X4.476Y-3.9885
X4.483Y-8.0975
X4.488Y-7.995
X4.509Y-4.554
X4.5157Y-2.3016
X4.5205Y-1.755
X4.5659Y-7.8789
X4.5712Y-7.7746
X4.5712Y-7.8276
X4.5729Y-7.7304
X4.5797Y-8.0958
X4.5835Y-7.216
X4.5855Y-8.0
X4.615Y-2.7795
X4.6437Y-7.7375
X4.6437Y-7.794
X4.6437Y-7.8612
X4.6678Y-2.4537
X4.6705Y-8.0
X4.6705Y-8.0925
X4.6762Y-3.1937
X4.6883Y-1.7396
X4.6895Y-7.21
X4.6925Y-7.055
X4.7175Y-2.3438
X4.7175Y-3.2205
X4.7191Y-3.9374
X4.7356Y-7.7304
X4.7373Y-7.7781
X4.7391Y-7.8683
X4.7409Y-7.8241
X4.7594Y-2.3176
X4.7605Y-3.1845
X4.8005Y-8.1
X4.8035Y-2.1145
X4.8035Y-2.1835
X4.8035Y-3.2145
X4.8035Y-3.9385
X4.8055Y-7.9975
X4.8145Y-4.0341
X4.8282Y-7.0527
X4.8346Y-7.8647
X4.8363Y-7.7357
X4.8363Y-7.7957
X4.8365Y-3.4225
X4.838Y-3.3695
X4.8455Y-6.637
X4.847Y-7.213
X4.8972Y-8.0983
X4.903Y-8.0025
X4.9159Y-7.7339
X4.9159Y-7.8859
X4.9177Y-7.8346
X4.9194Y-7.7834
X4.9405Y-2.093
X4.9405Y-2.181
X4.941Y-3.508
X4.988Y-8.0025
X4.988Y-8.095
X5.015Y-7.3425
X5.035Y-2.659
X5.038Y-3.0665
X5.04Y-7.1635
X5.0715Y-7.132
X5.121Y-2.1395
X5.1255Y-2.221
X5.1329Y-2.2892
X5.1375Y-3.564
X5.139Y-7.0075
X5.1565Y-3.4215
X5.1568Y-2.2526
X5.1575Y-2.32
X5.1585Y-2.1785
X5.1855Y-3.9685
X5.1855Y-4.5995
X5.1855Y-6.8585
X5.2315Y-2.6275
X5.2315Y-2.72
X5.29Y-3.7105
X5.3165Y-2.72
X5.3186Y-2.9369
X5.3203Y-2.8856
X5.3221Y-2.8343
X5.3221Y-2.9864
X5.3223Y-2.6242
X5.3945Y-6.6965
X5.4016Y-2.9245
X5.4016Y-2.9846
X5.4021Y-6.8945
X5.403Y-6.4034
X5.4034Y-2.8556
X5.414Y-2.725
X5.419Y-2.6225
X5.4305Y-8.0975
X5.4355Y-7.995
X5.493Y-2.3805
X5.4965Y-6.9925
X5.4971Y-2.8962
X5.4989Y-2.852
X5.5006Y-2.9422
X5.5024Y-2.9899
X5.5035Y-4.6681
X5.5051Y-7.8805
X5.5104Y-7.7762
X5.5104Y-7.8292
X5.5122Y-7.732
X5.5272Y-8.0958
X5.533Y-8.0
X5.5415Y-3.71
X5.564Y-2.635
X5.564Y-2.7275
X5.5651Y-3.9216
X5.5829Y-7.7391
X5.5829Y-7.7957
X5.5829Y-7.8628
X5.5943Y-2.8591
X5.5943Y-2.9263
X5.5943Y-2.9828
X5.5945Y-4.904
X5.5965Y-6.5455
X5.614Y-6.7129
X5.618Y-8.0
X5.618Y-8.0925
X5.644Y-7.085
X5.649Y-2.7275
X5.6548Y-2.6317
X5.665Y-2.9899
X5.6668Y-2.8927
X5.6668Y-2.9457
X5.6721Y-2.8414
X5.6748Y-7.732
X5.6766Y-7.7798
X5.6783Y-7.8699
X5.6801Y-7.8257
X5.682Y-4.784
X5.683Y-7.216
X5.743Y-6.6355
X5.7465Y-2.7325
X5.7515Y-2.63
X5.763Y-8.0975
X5.768Y-7.995
X5.7738Y-7.8664
X5.7755Y-7.7373
X5.7755Y-7.7974
X5.7875Y-7.2176
X5.8Y-4.853
X5.8255Y-2.221
X5.8293Y-2.2892
X5.8295Y-2.1365
X5.832Y-2.3805
X5.8425Y-7.213
X5.8551Y-7.7355
X5.8551Y-7.8876
X5.8569Y-7.8363
X5.8586Y-7.785
X5.8597Y-8.0958
X5.865Y-2.1785
X5.8651Y-6.9029
X5.8655Y-8.0
X5.8684Y-2.2526
X5.881Y-3.6955
X5.891Y-4.386
X5.9195Y-4.9
X5.9505Y-8.0
X5.9505Y-8.0925
X5.9548Y-3.3667
X5.9634Y-4.5581
X5.9729Y-2.2526
X5.9735Y-4.5175
X5.975Y-2.1785
X5.9925Y-6.883
X5.9945Y-7.3
X6.002Y-2.3805
X6.0025Y-2.1365
X6.0049Y-4.2126
X6.006Y-2.221
X6.0063Y-2.2892
X6.0196Y-7.0177
X6.079Y-2.736
X6.084Y-2.6335
X6.106Y-7.3
X6.125Y-6.7405
X6.139Y-3.6945
X6.139Y-4.214
X6.1655Y-5.934
X6.1661Y-2.9578
X6.1679Y-2.9065
X6.1696Y-2.8552
X6.1696Y-3.0072
X6.174Y-7.0963
X6.1765Y-4.4492
X6.1805Y-2.742
X6.1815Y-2.6385
X6.1905Y-7.3
X6.1966Y-3.6159
X6.1975Y-4.2951
X6.2321Y-4.2201
X6.2492Y-2.9454
X6.2492Y-3.0055
X6.251Y-2.8765
X6.2665Y-2.6385
X6.2665Y-2.731
X6.268Y-3.719
X6.2749Y-5.6744
X6.2773Y-7.0177
X6.3105Y-5.802
X6.3127Y-3.6067
X6.316Y-6.1025
X6.34Y-2.3805
X6.3446Y-2.9171
X6.3464Y-2.8729
X6.3482Y-2.9631
X6.3487Y-7.0064
X6.3499Y-3.0108
X6.3615Y-7.3
X6.368Y-8.095
X6.373Y-7.9925
X6.3794Y-3.5816
X6.3851Y-5.9601
X6.4175Y-2.7425
X6.4225Y-2.64
X6.4419Y-2.88
X6.4419Y-2.9472
X6.4419Y-3.0037
X6.4446Y-7.8769
X6.449Y-4.151
X6.4499Y-7.7725
X6.4499Y-7.8256
X6.45Y-5.7705
X6.4517Y-7.7283
X6.4611Y-4.2624
X6.4647Y-8.0933
X6.4705Y-7.9975
X6.4757Y-3.9942
X6.4955Y-5.8585
X6.5059Y-4.3711
X6.5126Y-3.0108
X6.5142Y-2.7408
X6.5143Y-2.9136
X6.5143Y-2.9666
X6.5196Y-2.8623
X6.52Y-2.645
X6.5224Y-7.7354
X6.5224Y-7.792
X6.5224Y-7.8591
X6.5285Y-6.777
X6.5285Y-6.913
X6.5335Y-7.153
X6.5362Y-4.3415
X6.5374Y-5.7644
X6.548Y-3.4935
X6.5495Y-3.9203
X6.5555Y-7.9975
X6.5555Y-8.09
X6.564Y-6.644
X6.566Y-6.374
X6.5681Y-6.9734
X6.589Y-6.775
X6.6035Y-6.1155
X6.605Y-2.645
X6.605Y-2.7375
X6.6115Y-6.5995
X6.6143Y-7.7283
X6.6155Y-6.6785
X6.6161Y-7.7761
X6.6178Y-7.8662
X6.6196Y-7.822
X6.621Y-4.1905
X6.621Y-4.449
X6.6265Y-3.9975
X6.6365Y-7.035
X6.66Y-4.6045
X6.662Y-4.789
X6.6634Y-7.0831
X6.6756Y-6.7564
X6.6829Y-6.5269
X6.6854Y-2.175
X6.687Y-2.2495
X6.693Y-8.095
X6.698Y-7.9925
X6.7125Y-2.1365
X6.7133Y-7.8627
X6.715Y-7.7336
X6.715Y-7.7937
X6.7175Y-2.212
X6.722Y-6.7625
X6.735Y-7.214
X6.7388Y-6.2606
X6.746Y-5.8605
X6.7535Y-6.3788
X6.7625Y-6.1375
X6.7625Y-6.459
X6.7625Y-6.562
X6.7625Y-6.8995
X6.782Y-6.4065
X6.7897Y-8.0933
X6.7946Y-7.7319
X6.7946Y-7.8839
X6.7955Y-7.9975
X6.7964Y-7.8326
X6.7982Y-7.7813
X6.8133Y-7.199
X6.8805Y-7.9975
X6.8805Y-8.09
X7.2575Y-2.1385
X7.2605Y-2.2065
X7.293Y-2.258
X7.2935Y-2.173
X7.4135Y-2.74
X7.4185Y-2.6375
X7.4295Y-4.0195
X7.4435Y-3.864
X7.4685Y-4.792
X7.4956Y-2.9516
X7.4974Y-2.9003
X7.4991Y-2.8491
X7.4991Y-3.0011
X7.5102Y-2.7383
X7.516Y-2.6425
X7.5415Y-6.7405
X7.56Y-7.119
X7.5622Y-8.165
X7.569Y-6.8175
X7.5766Y-6.774
X7.5787Y-2.9392
X7.5787Y-2.9993
X7.5804Y-2.8703
X7.5848Y-3.6252
X7.5927Y-6.9484
X7.5975Y-7.035
X7.5989Y-6.9045
X7.601Y-2.6425
X7.601Y-2.735
X7.64Y-3.534
X7.668Y-2.3805
X7.6707Y-7.1254
X7.6741Y-2.9109
X7.6759Y-2.8667
X7.6777Y-2.9569
X7.6795Y-3.0046
X7.706Y-7.108
X7.736Y-2.74
X7.739Y-3.4955
X7.741Y-2.6375
X7.7454Y-5.059
X7.7499Y-6.9701
X7.7714Y-2.8738
X7.7714Y-2.941
X7.7714Y-2.9976
X7.7798Y-6.6963
X7.815Y-8.07
X7.8327Y-2.7383
X7.8385Y-2.6425
X7.8421Y-3.0046
X7.8439Y-2.9074
X7.8439Y-2.9604
X7.8491Y-2.8561
X7.86Y-8.3065
X7.9235Y-2.6425
X7.9235Y-2.735
X7.9425Y-8.3245
X7.9645Y-7.456
X7.999Y-2.132
X8.005Y-2.3805
X8.0105Y-8.46
X8.028Y-2.174
X8.0728Y-8.4533
X8.0936Y-4.671
X8.149Y-8.192
X8.1495Y-5.903
X8.1745Y-2.3205
X8.1785Y-2.378
X8.184Y-7.925
X8.1855Y-2.132
X8.237Y-3.8275
X8.265Y-2.731
X8.27Y-2.6285
X8.2915Y-8.192
X8.3065Y-8.3925
X8.3422Y-2.9392
X8.344Y-2.8879
X8.3458Y-2.8367
X8.3458Y-2.9887
X8.3617Y-2.7293
X8.3675Y-2.6335
X8.3766Y-6.4523
X8.4253Y-2.9268
X8.4253Y-2.9869
X8.4271Y-2.8579
X8.4355Y-3.642
X8.446Y-5.332
X8.4525Y-2.6335
X8.4525Y-2.726
X8.476Y-8.192
X8.5208Y-2.8985
X8.5225Y-2.3805
X8.5226Y-2.8543
X8.5235Y-3.5695
X8.5243Y-2.9445
X8.5261Y-2.9922
X8.5975Y-2.731
X8.6025Y-2.6285
X8.609Y-8.4175
X8.61Y-3.5115
X8.614Y-7.928
X8.618Y-2.8614
X8.618Y-2.9286
X8.618Y-2.9852
X8.651Y-8.263
X8.6805Y-5.0515
X8.6861Y-3.3908
X8.6887Y-2.9922
X8.6905Y-2.895
X8.6905Y-2.948
X8.6942Y-2.7293
X8.6958Y-2.8437
X8.7Y-2.6335
X8.739Y-5.9215
X8.766Y-8.3475
X8.785Y-2.6335
X8.785Y-2.726
X8.884Y-3.4275
X8.954Y-3.355
X8.991Y-8.946
X9.094Y-1.9485
X9.11Y-3.203
X9.1225Y-2.3273
X9.1355Y-7.9455
X9.141Y-4.474
X9.165Y-3.76
X9.1716Y-4.5188
X9.2131Y-4.586
X9.2131Y-5.1464
X9.2132Y-4.8206
X9.236Y-8.2235
X9.3315Y-6.0025
X9.3315Y-6.367
X9.3335Y-3.165
X9.3335Y-3.6365
X9.3335Y-3.738
X9.3335Y-4.0895
X9.3335Y-5.093
X9.3335Y-5.4485
X9.3335Y-5.544
X9.3335Y-5.9045
X9.3355Y-4.189
X9.3355Y-4.541
X9.337Y-4.6455
X9.337Y-4.9975
X9.4135Y-7.231
X9.5015Y-5.11
X9.5015Y-5.65
X9.5015Y-5.96
T2
X8.726Y-7.399
X8.826Y-7.399
X8.926Y-7.399
T3
X8.3675Y-8.0485
X8.4675Y-8.0485
X8.562Y-8.9425
X8.662Y-8.9425
X8.762Y-8.9425
X8.7715Y-8.0465
X8.8715Y-8.0465
X9.062Y-8.9425
X9.162Y-8.9425
X9.1895Y-1.8475
X9.1895Y-2.2552
X9.1895Y-2.6628
X9.1895Y-3.0705
X9.262Y-8.9425
X9.2895Y-1.8475
X9.2895Y-2.2552
X9.2895Y-2.6628
X9.2895Y-3.0705
X9.338Y-7.051
X9.338Y-7.351
X9.338Y-7.676
X9.338Y-8.001
X9.3895Y-1.8475
X9.3895Y-2.2552
X9.3895Y-2.6628
X9.3895Y-3.0705
X9.438Y-7.051
X9.438Y-7.351
X9.438Y-7.676
X9.438Y-8.001
T4
X5.6215Y-4.621
X5.6215Y-4.721
X5.6215Y-6.321
X5.6215Y-6.421
X5.7215Y-4.621
X5.7215Y-4.721
X5.7215Y-6.321
X5.7215Y-6.421
X5.8215Y-4.621
X5.8215Y-4.721
X5.8215Y-6.321
X5.8215Y-6.421
X5.9215Y-4.621
X5.9215Y-4.721
X5.9215Y-6.321
X5.9215Y-6.421
X6.0215Y-4.621
X6.0215Y-4.721
X6.0215Y-6.321
X6.0215Y-6.421
X6.1215Y-4.621
X6.1215Y-4.721
X6.1215Y-6.321
X6.1215Y-6.421
X6.2215Y-4.621
X6.2215Y-4.721
X6.2215Y-6.321
X6.2215Y-6.421
X6.3215Y-4.621
X6.3215Y-4.721
X6.3215Y-6.321
X6.3215Y-6.421
X6.4215Y-4.621
X6.4215Y-4.721
X6.4215Y-6.321
X6.4215Y-6.421
X6.5215Y-4.621
X6.5215Y-4.721
X6.5215Y-6.321
X6.5215Y-6.421
X8.1215Y-4.621
X8.1215Y-4.721
X8.1215Y-6.321
X8.1215Y-6.421
X8.2215Y-4.621
X8.2215Y-4.721
X8.2215Y-6.321
X8.2215Y-6.421
X8.3215Y-4.621
X8.3215Y-4.721
X8.3215Y-6.321
X8.3215Y-6.421
X8.4215Y-4.621
X8.4215Y-4.721
X8.4215Y-6.321
X8.4215Y-6.421
X8.5215Y-4.621
X8.5215Y-4.721
X8.5215Y-6.321
X8.5215Y-6.421
X8.6215Y-4.621
X8.6215Y-4.721
X8.6215Y-6.321
X8.6215Y-6.421
X8.7215Y-4.621
X8.7215Y-4.721
X8.7215Y-6.321
X8.7215Y-6.421
X8.8215Y-4.621
X8.8215Y-4.721
X8.8215Y-6.321
X8.8215Y-6.421
X8.9215Y-4.621
X8.9215Y-4.721
X8.9215Y-6.321
X8.9215Y-6.421
X9.0215Y-4.621
X9.0215Y-4.721
X9.0215Y-6.321
X9.0215Y-6.421
T5
X4.5905Y-8.6965
X4.9005Y-8.6965
X5.3385Y-1.9825
X5.5355Y-8.6965
X5.6485Y-1.9825
X5.8455Y-8.6965
X6.189Y-1.9825
X6.4805Y-8.6965
X6.499Y-1.9825
X6.7905Y-8.6965
X7.41Y-8.7015
X7.513Y-1.9775
X7.72Y-8.7015
X7.823Y-1.9775
X8.03Y-8.7015
X8.3635Y-1.9775
X8.6735Y-1.9775
T0
M30
