%TF.GenerationSoftware,KiCad,Pcbnew,(5.1.10)-1*%
%TF.CreationDate,2021-12-04T16:47:44-06:00*%
%TF.ProjectId,ArmBoard_Hardware,41726d42-6f61-4726-945f-486172647761,rev?*%
%TF.SameCoordinates,Original*%
%TF.FileFunction,Legend,Bot*%
%TF.FilePolarity,Positive*%
%FSLAX46Y46*%
G04 Gerber Fmt 4.6, Leading zero omitted, Abs format (unit mm)*
G04 Created by KiCad (PCBNEW (5.1.10)-1) date 2021-12-04 16:47:44*
%MOMM*%
%LPD*%
G01*
G04 APERTURE LIST*
%ADD10C,0.150000*%
%ADD11C,0.120000*%
G04 APERTURE END LIST*
D10*
%TO.C,U1*%
X125349000Y-81724500D02*
X125349000Y-76644500D01*
X99949000Y-81724500D02*
X125349000Y-81724500D01*
X99949000Y-76644500D02*
X99949000Y-81724500D01*
X125349000Y-33464500D02*
X99949000Y-33464500D01*
X125349000Y-38544500D02*
X125349000Y-33464500D01*
X99949000Y-33464500D02*
X99949000Y-38544500D01*
X125349000Y-76644500D02*
X99949000Y-76644500D01*
X99949000Y-38544500D02*
X125349000Y-38544500D01*
X188849000Y-76644500D02*
X163449000Y-76644500D01*
X188849000Y-81724500D02*
X188849000Y-76644500D01*
X163449000Y-81724500D02*
X188849000Y-81724500D01*
X163449000Y-76644500D02*
X163449000Y-81724500D01*
X188849000Y-33464500D02*
X163449000Y-33464500D01*
X188849000Y-38544500D02*
X188849000Y-33464500D01*
X163449000Y-38544500D02*
X188849000Y-38544500D01*
X163449000Y-33464500D02*
X163449000Y-38544500D01*
D11*
%TO.C,U3*%
X242957000Y-59316000D02*
X242957000Y-76076000D01*
X232297000Y-59316000D02*
X242957000Y-59316000D01*
X232297000Y-76076000D02*
X232297000Y-59316000D01*
X242957000Y-76076000D02*
X232307000Y-76076000D01*
D10*
%TO.C,Conn5*%
X193442165Y-143129000D02*
X177694165Y-143129000D01*
X193442165Y-118491000D02*
X177694165Y-118491000D01*
X193442165Y-134213600D02*
X193442165Y-135432800D01*
X177694165Y-130759200D02*
X177694165Y-131953000D01*
X180005565Y-133070600D02*
X178837165Y-133070600D01*
X177694165Y-135382000D02*
X177694165Y-134213600D01*
X193442165Y-130810000D02*
X193442165Y-131902200D01*
X192299165Y-133070600D02*
X191130765Y-133070600D01*
X183282165Y-133070600D02*
X184425165Y-133070600D01*
X185593565Y-143103600D02*
X185593565Y-134213600D01*
X187854165Y-133070600D02*
X186711165Y-133070600D01*
X185568165Y-130784600D02*
X185568165Y-131927600D01*
X183282165Y-133070600D02*
X179980165Y-133070600D01*
X185568165Y-130784600D02*
X185568165Y-118491000D01*
X187854165Y-133070600D02*
X191130765Y-133070600D01*
X186711165Y-133070600D02*
G75*
G03*
X186711165Y-133070600I-1143000J0D01*
G01*
X177694165Y-130784600D02*
X177694165Y-118491000D01*
X177694165Y-135356600D02*
X177694165Y-143103600D01*
X193442165Y-143103600D02*
X193442165Y-135356600D01*
X193442165Y-130784600D02*
X193442165Y-118491000D01*
X177694165Y-131953000D02*
G75*
G02*
X178811765Y-133070600I0J-1117600D01*
G01*
X178811765Y-133070600D02*
G75*
G02*
X177694165Y-134188200I-1117600J0D01*
G01*
X192299165Y-133070600D02*
G75*
G02*
X193442165Y-131927600I1143000J0D01*
G01*
X193442165Y-134213600D02*
G75*
G02*
X192299165Y-133070600I0J1143000D01*
G01*
%TO.C,Conn6*%
X213550500Y-143129000D02*
X197802500Y-143129000D01*
X213550500Y-118491000D02*
X197802500Y-118491000D01*
X213550500Y-134213600D02*
X213550500Y-135432800D01*
X197802500Y-130759200D02*
X197802500Y-131953000D01*
X200113900Y-133070600D02*
X198945500Y-133070600D01*
X197802500Y-135382000D02*
X197802500Y-134213600D01*
X213550500Y-130810000D02*
X213550500Y-131902200D01*
X212407500Y-133070600D02*
X211239100Y-133070600D01*
X203390500Y-133070600D02*
X204533500Y-133070600D01*
X205701900Y-143103600D02*
X205701900Y-134213600D01*
X207962500Y-133070600D02*
X206819500Y-133070600D01*
X205676500Y-130784600D02*
X205676500Y-131927600D01*
X203390500Y-133070600D02*
X200088500Y-133070600D01*
X205676500Y-130784600D02*
X205676500Y-118491000D01*
X207962500Y-133070600D02*
X211239100Y-133070600D01*
X206819500Y-133070600D02*
G75*
G03*
X206819500Y-133070600I-1143000J0D01*
G01*
X197802500Y-130784600D02*
X197802500Y-118491000D01*
X197802500Y-135356600D02*
X197802500Y-143103600D01*
X213550500Y-143103600D02*
X213550500Y-135356600D01*
X213550500Y-130784600D02*
X213550500Y-118491000D01*
X197802500Y-131953000D02*
G75*
G02*
X198920100Y-133070600I0J-1117600D01*
G01*
X198920100Y-133070600D02*
G75*
G02*
X197802500Y-134188200I-1117600J0D01*
G01*
X212407500Y-133070600D02*
G75*
G02*
X213550500Y-131927600I1143000J0D01*
G01*
X213550500Y-134213600D02*
G75*
G02*
X212407500Y-133070600I0J1143000D01*
G01*
%TO.C,Conn1*%
X227685600Y-133096000D02*
X222123000Y-133096000D01*
X229971600Y-133096000D02*
G75*
G03*
X229971600Y-133096000I-1117600J0D01*
G01*
X220980000Y-134239000D02*
X220980000Y-143129000D01*
X220980000Y-131978400D02*
X220980000Y-118495000D01*
X244602000Y-134239000D02*
X244602000Y-135458200D01*
X228854000Y-130784600D02*
X228854000Y-131978400D01*
X231165400Y-133096000D02*
X229997000Y-133096000D01*
X228854000Y-135407400D02*
X228854000Y-134239000D01*
X244602000Y-130835400D02*
X244602000Y-131927600D01*
X243459000Y-133096000D02*
X242290600Y-133096000D01*
X234442000Y-133096000D02*
X235585000Y-133096000D01*
X236753400Y-143129000D02*
X236753400Y-134239000D01*
X239014000Y-133096000D02*
X237871000Y-133096000D01*
X236728000Y-130810000D02*
X236728000Y-131953000D01*
X234442000Y-133096000D02*
X231140000Y-133096000D01*
X236728000Y-130810000D02*
X236728000Y-118491000D01*
X239014000Y-133096000D02*
X242290600Y-133096000D01*
X237871000Y-133096000D02*
G75*
G03*
X237871000Y-133096000I-1143000J0D01*
G01*
X228854000Y-130810000D02*
X228854000Y-118491000D01*
X228854000Y-135382000D02*
X228854000Y-143129000D01*
X244602000Y-143129000D02*
X244602000Y-135382000D01*
X244602000Y-130810000D02*
X244602000Y-118491000D01*
X221232000Y-143133000D02*
X244604000Y-143133000D01*
X220980000Y-118495000D02*
X244604000Y-118495000D01*
X220980000Y-132029200D02*
G75*
G02*
X222046800Y-133096000I0J-1066800D01*
G01*
X222046800Y-133121400D02*
G75*
G02*
X220980000Y-134188200I-1066800J0D01*
G01*
X243459000Y-133096000D02*
G75*
G02*
X244602000Y-131953000I1143000J0D01*
G01*
X244602000Y-134239000D02*
G75*
G02*
X243459000Y-133096000I0J1143000D01*
G01*
%TO.C,Conn3*%
X113008833Y-130784600D02*
X113008833Y-118491000D01*
X113008833Y-143103600D02*
X113008833Y-135356600D01*
X97260833Y-135356600D02*
X97260833Y-143103600D01*
X97260833Y-130784600D02*
X97260833Y-118491000D01*
X106277833Y-133070600D02*
G75*
G03*
X106277833Y-133070600I-1143000J0D01*
G01*
X107420833Y-133070600D02*
X110697433Y-133070600D01*
X105134833Y-130784600D02*
X105134833Y-118491000D01*
X102848833Y-133070600D02*
X99546833Y-133070600D01*
X105134833Y-130784600D02*
X105134833Y-131927600D01*
X107420833Y-133070600D02*
X106277833Y-133070600D01*
X105160233Y-143103600D02*
X105160233Y-134213600D01*
X102848833Y-133070600D02*
X103991833Y-133070600D01*
X111865833Y-133070600D02*
X110697433Y-133070600D01*
X113008833Y-130810000D02*
X113008833Y-131902200D01*
X97260833Y-135382000D02*
X97260833Y-134213600D01*
X99572233Y-133070600D02*
X98403833Y-133070600D01*
X97260833Y-130759200D02*
X97260833Y-131953000D01*
X113008833Y-134213600D02*
X113008833Y-135432800D01*
X113008833Y-118491000D02*
X97260833Y-118491000D01*
X113008833Y-143129000D02*
X97260833Y-143129000D01*
X113008833Y-134213600D02*
G75*
G02*
X111865833Y-133070600I0J1143000D01*
G01*
X111865833Y-133070600D02*
G75*
G02*
X113008833Y-131927600I1143000J0D01*
G01*
X98378433Y-133070600D02*
G75*
G02*
X97260833Y-134188200I-1117600J0D01*
G01*
X97260833Y-131953000D02*
G75*
G02*
X98378433Y-133070600I0J-1117600D01*
G01*
%TO.C,U2*%
X232410000Y-78105000D02*
X232410000Y-94615000D01*
X242570000Y-94615000D02*
X242570000Y-78105000D01*
X232410000Y-94615000D02*
X242570000Y-94615000D01*
X232410000Y-78105000D02*
X242570000Y-78105000D01*
X234950000Y-90805000D02*
X240030000Y-90805000D01*
X232410000Y-88265000D02*
X234950000Y-90805000D01*
X232410000Y-83185000D02*
X232410000Y-88265000D01*
X234950000Y-80645000D02*
X232410000Y-83185000D01*
X240030000Y-80645000D02*
X234950000Y-80645000D01*
X242570000Y-83185000D02*
X240030000Y-80645000D01*
X242570000Y-88265000D02*
X242570000Y-83185000D01*
X240030000Y-90805000D02*
X242570000Y-88265000D01*
%TO.C,Conn2*%
X92900500Y-130784600D02*
X92900500Y-118491000D01*
X92900500Y-143103600D02*
X92900500Y-135356600D01*
X77152500Y-135356600D02*
X77152500Y-143103600D01*
X77152500Y-130784600D02*
X77152500Y-118491000D01*
X86169500Y-133070600D02*
G75*
G03*
X86169500Y-133070600I-1143000J0D01*
G01*
X87312500Y-133070600D02*
X90589100Y-133070600D01*
X85026500Y-130784600D02*
X85026500Y-118491000D01*
X82740500Y-133070600D02*
X79438500Y-133070600D01*
X85026500Y-130784600D02*
X85026500Y-131927600D01*
X87312500Y-133070600D02*
X86169500Y-133070600D01*
X85051900Y-143103600D02*
X85051900Y-134213600D01*
X82740500Y-133070600D02*
X83883500Y-133070600D01*
X91757500Y-133070600D02*
X90589100Y-133070600D01*
X92900500Y-130810000D02*
X92900500Y-131902200D01*
X77152500Y-135382000D02*
X77152500Y-134213600D01*
X79463900Y-133070600D02*
X78295500Y-133070600D01*
X77152500Y-130759200D02*
X77152500Y-131953000D01*
X92900500Y-134213600D02*
X92900500Y-135432800D01*
X92900500Y-118491000D02*
X77152500Y-118491000D01*
X92900500Y-143129000D02*
X77152500Y-143129000D01*
X92900500Y-134213600D02*
G75*
G02*
X91757500Y-133070600I0J1143000D01*
G01*
X91757500Y-133070600D02*
G75*
G02*
X92900500Y-131927600I1143000J0D01*
G01*
X78270100Y-133070600D02*
G75*
G02*
X77152500Y-134188200I-1117600J0D01*
G01*
X77152500Y-131953000D02*
G75*
G02*
X78270100Y-133070600I0J-1117600D01*
G01*
%TO.C,Conn4*%
X133117166Y-130784600D02*
X133117166Y-118491000D01*
X133117166Y-143103600D02*
X133117166Y-135356600D01*
X117369166Y-135356600D02*
X117369166Y-143103600D01*
X117369166Y-130784600D02*
X117369166Y-118491000D01*
X126386166Y-133070600D02*
G75*
G03*
X126386166Y-133070600I-1143000J0D01*
G01*
X127529166Y-133070600D02*
X130805766Y-133070600D01*
X125243166Y-130784600D02*
X125243166Y-118491000D01*
X122957166Y-133070600D02*
X119655166Y-133070600D01*
X125243166Y-130784600D02*
X125243166Y-131927600D01*
X127529166Y-133070600D02*
X126386166Y-133070600D01*
X125268566Y-143103600D02*
X125268566Y-134213600D01*
X122957166Y-133070600D02*
X124100166Y-133070600D01*
X131974166Y-133070600D02*
X130805766Y-133070600D01*
X133117166Y-130810000D02*
X133117166Y-131902200D01*
X117369166Y-135382000D02*
X117369166Y-134213600D01*
X119680566Y-133070600D02*
X118512166Y-133070600D01*
X117369166Y-130759200D02*
X117369166Y-131953000D01*
X133117166Y-134213600D02*
X133117166Y-135432800D01*
X133117166Y-118491000D02*
X117369166Y-118491000D01*
X133117166Y-143129000D02*
X117369166Y-143129000D01*
X133117166Y-134213600D02*
G75*
G02*
X131974166Y-133070600I0J1143000D01*
G01*
X131974166Y-133070600D02*
G75*
G02*
X133117166Y-131927600I1143000J0D01*
G01*
X118486766Y-133070600D02*
G75*
G02*
X117369166Y-134188200I-1117600J0D01*
G01*
X117369166Y-131953000D02*
G75*
G02*
X118486766Y-133070600I0J-1117600D01*
G01*
%TO.C,Conn7*%
X173333832Y-143129000D02*
X157585832Y-143129000D01*
X173333832Y-118491000D02*
X157585832Y-118491000D01*
X173333832Y-134213600D02*
X173333832Y-135432800D01*
X157585832Y-130759200D02*
X157585832Y-131953000D01*
X159897232Y-133070600D02*
X158728832Y-133070600D01*
X157585832Y-135382000D02*
X157585832Y-134213600D01*
X173333832Y-130810000D02*
X173333832Y-131902200D01*
X172190832Y-133070600D02*
X171022432Y-133070600D01*
X163173832Y-133070600D02*
X164316832Y-133070600D01*
X165485232Y-143103600D02*
X165485232Y-134213600D01*
X167745832Y-133070600D02*
X166602832Y-133070600D01*
X165459832Y-130784600D02*
X165459832Y-131927600D01*
X163173832Y-133070600D02*
X159871832Y-133070600D01*
X165459832Y-130784600D02*
X165459832Y-118491000D01*
X167745832Y-133070600D02*
X171022432Y-133070600D01*
X166602832Y-133070600D02*
G75*
G03*
X166602832Y-133070600I-1143000J0D01*
G01*
X157585832Y-130784600D02*
X157585832Y-118491000D01*
X157585832Y-135356600D02*
X157585832Y-143103600D01*
X173333832Y-143103600D02*
X173333832Y-135356600D01*
X173333832Y-130784600D02*
X173333832Y-118491000D01*
X157585832Y-131953000D02*
G75*
G02*
X158703432Y-133070600I0J-1117600D01*
G01*
X158703432Y-133070600D02*
G75*
G02*
X157585832Y-134188200I-1117600J0D01*
G01*
X172190832Y-133070600D02*
G75*
G02*
X173333832Y-131927600I1143000J0D01*
G01*
X173333832Y-134213600D02*
G75*
G02*
X172190832Y-133070600I0J1143000D01*
G01*
%TO.C,Conn8*%
X153225499Y-130784600D02*
X153225499Y-118491000D01*
X153225499Y-143103600D02*
X153225499Y-135356600D01*
X137477499Y-135356600D02*
X137477499Y-143103600D01*
X137477499Y-130784600D02*
X137477499Y-118491000D01*
X146494499Y-133070600D02*
G75*
G03*
X146494499Y-133070600I-1143000J0D01*
G01*
X147637499Y-133070600D02*
X150914099Y-133070600D01*
X145351499Y-130784600D02*
X145351499Y-118491000D01*
X143065499Y-133070600D02*
X139763499Y-133070600D01*
X145351499Y-130784600D02*
X145351499Y-131927600D01*
X147637499Y-133070600D02*
X146494499Y-133070600D01*
X145376899Y-143103600D02*
X145376899Y-134213600D01*
X143065499Y-133070600D02*
X144208499Y-133070600D01*
X152082499Y-133070600D02*
X150914099Y-133070600D01*
X153225499Y-130810000D02*
X153225499Y-131902200D01*
X137477499Y-135382000D02*
X137477499Y-134213600D01*
X139788899Y-133070600D02*
X138620499Y-133070600D01*
X137477499Y-130759200D02*
X137477499Y-131953000D01*
X153225499Y-134213600D02*
X153225499Y-135432800D01*
X153225499Y-118491000D02*
X137477499Y-118491000D01*
X153225499Y-143129000D02*
X137477499Y-143129000D01*
X153225499Y-134213600D02*
G75*
G02*
X152082499Y-133070600I0J1143000D01*
G01*
X152082499Y-133070600D02*
G75*
G02*
X153225499Y-131927600I1143000J0D01*
G01*
X138595099Y-133070600D02*
G75*
G02*
X137477499Y-134188200I-1117600J0D01*
G01*
X137477499Y-131953000D02*
G75*
G02*
X138595099Y-133070600I0J-1117600D01*
G01*
%TO.C,U1*%
X187293285Y-41028880D02*
X187864714Y-41028880D01*
X187579000Y-41028880D02*
X187579000Y-40028880D01*
X187674238Y-40171738D01*
X187769476Y-40266976D01*
X187864714Y-40314595D01*
X187293285Y-75064880D02*
X187864714Y-75064880D01*
X187579000Y-75064880D02*
X187579000Y-74064880D01*
X187674238Y-74207738D01*
X187769476Y-74302976D01*
X187864714Y-74350595D01*
X123793285Y-75064880D02*
X124364714Y-75064880D01*
X124079000Y-75064880D02*
X124079000Y-74064880D01*
X124174238Y-74207738D01*
X124269476Y-74302976D01*
X124364714Y-74350595D01*
X99647285Y-34901166D02*
X99171095Y-34901166D01*
X99742523Y-35186880D02*
X99409190Y-34186880D01*
X99075857Y-35186880D01*
X98790142Y-34282119D02*
X98742523Y-34234500D01*
X98647285Y-34186880D01*
X98409190Y-34186880D01*
X98313952Y-34234500D01*
X98266333Y-34282119D01*
X98218714Y-34377357D01*
X98218714Y-34472595D01*
X98266333Y-34615452D01*
X98837761Y-35186880D01*
X98218714Y-35186880D01*
X99337761Y-37457071D02*
X99194904Y-37504690D01*
X99147285Y-37552309D01*
X99099666Y-37647547D01*
X99099666Y-37790404D01*
X99147285Y-37885642D01*
X99194904Y-37933261D01*
X99290142Y-37980880D01*
X99671095Y-37980880D01*
X99671095Y-36980880D01*
X99337761Y-36980880D01*
X99242523Y-37028500D01*
X99194904Y-37076119D01*
X99147285Y-37171357D01*
X99147285Y-37266595D01*
X99194904Y-37361833D01*
X99242523Y-37409452D01*
X99337761Y-37457071D01*
X99671095Y-37457071D01*
X98718714Y-37076119D02*
X98671095Y-37028500D01*
X98575857Y-36980880D01*
X98337761Y-36980880D01*
X98242523Y-37028500D01*
X98194904Y-37076119D01*
X98147285Y-37171357D01*
X98147285Y-37266595D01*
X98194904Y-37409452D01*
X98766333Y-37980880D01*
X98147285Y-37980880D01*
X163147285Y-34901166D02*
X162671095Y-34901166D01*
X163242523Y-35186880D02*
X162909190Y-34186880D01*
X162575857Y-35186880D01*
X161718714Y-35186880D02*
X162290142Y-35186880D01*
X162004428Y-35186880D02*
X162004428Y-34186880D01*
X162099666Y-34329738D01*
X162194904Y-34424976D01*
X162290142Y-34472595D01*
X162837761Y-37203071D02*
X162694904Y-37250690D01*
X162647285Y-37298309D01*
X162599666Y-37393547D01*
X162599666Y-37536404D01*
X162647285Y-37631642D01*
X162694904Y-37679261D01*
X162790142Y-37726880D01*
X163171095Y-37726880D01*
X163171095Y-36726880D01*
X162837761Y-36726880D01*
X162742523Y-36774500D01*
X162694904Y-36822119D01*
X162647285Y-36917357D01*
X162647285Y-37012595D01*
X162694904Y-37107833D01*
X162742523Y-37155452D01*
X162837761Y-37203071D01*
X163171095Y-37203071D01*
X161647285Y-37726880D02*
X162218714Y-37726880D01*
X161933000Y-37726880D02*
X161933000Y-36726880D01*
X162028238Y-36869738D01*
X162123476Y-36964976D01*
X162218714Y-37012595D01*
X99671095Y-81160880D02*
X99671095Y-80160880D01*
X99433000Y-80160880D01*
X99290142Y-80208500D01*
X99194904Y-80303738D01*
X99147285Y-80398976D01*
X99099666Y-80589452D01*
X99099666Y-80732309D01*
X99147285Y-80922785D01*
X99194904Y-81018023D01*
X99290142Y-81113261D01*
X99433000Y-81160880D01*
X99671095Y-81160880D01*
X98718714Y-80256119D02*
X98671095Y-80208500D01*
X98575857Y-80160880D01*
X98337761Y-80160880D01*
X98242523Y-80208500D01*
X98194904Y-80256119D01*
X98147285Y-80351357D01*
X98147285Y-80446595D01*
X98194904Y-80589452D01*
X98766333Y-81160880D01*
X98147285Y-81160880D01*
X99099666Y-78271642D02*
X99147285Y-78319261D01*
X99290142Y-78366880D01*
X99385380Y-78366880D01*
X99528238Y-78319261D01*
X99623476Y-78224023D01*
X99671095Y-78128785D01*
X99718714Y-77938309D01*
X99718714Y-77795452D01*
X99671095Y-77604976D01*
X99623476Y-77509738D01*
X99528238Y-77414500D01*
X99385380Y-77366880D01*
X99290142Y-77366880D01*
X99147285Y-77414500D01*
X99099666Y-77462119D01*
X98718714Y-77462119D02*
X98671095Y-77414500D01*
X98575857Y-77366880D01*
X98337761Y-77366880D01*
X98242523Y-77414500D01*
X98194904Y-77462119D01*
X98147285Y-77557357D01*
X98147285Y-77652595D01*
X98194904Y-77795452D01*
X98766333Y-78366880D01*
X98147285Y-78366880D01*
X163171095Y-80652880D02*
X163171095Y-79652880D01*
X162933000Y-79652880D01*
X162790142Y-79700500D01*
X162694904Y-79795738D01*
X162647285Y-79890976D01*
X162599666Y-80081452D01*
X162599666Y-80224309D01*
X162647285Y-80414785D01*
X162694904Y-80510023D01*
X162790142Y-80605261D01*
X162933000Y-80652880D01*
X163171095Y-80652880D01*
X161647285Y-80652880D02*
X162218714Y-80652880D01*
X161933000Y-80652880D02*
X161933000Y-79652880D01*
X162028238Y-79795738D01*
X162123476Y-79890976D01*
X162218714Y-79938595D01*
X162599666Y-78271642D02*
X162647285Y-78319261D01*
X162790142Y-78366880D01*
X162885380Y-78366880D01*
X163028238Y-78319261D01*
X163123476Y-78224023D01*
X163171095Y-78128785D01*
X163218714Y-77938309D01*
X163218714Y-77795452D01*
X163171095Y-77604976D01*
X163123476Y-77509738D01*
X163028238Y-77414500D01*
X162885380Y-77366880D01*
X162790142Y-77366880D01*
X162647285Y-77414500D01*
X162599666Y-77462119D01*
X161647285Y-78366880D02*
X162218714Y-78366880D01*
X161933000Y-78366880D02*
X161933000Y-77366880D01*
X162028238Y-77509738D01*
X162123476Y-77604976D01*
X162218714Y-77652595D01*
X102028523Y-41298880D02*
X101361857Y-42298880D01*
X101361857Y-41298880D02*
X102028523Y-42298880D01*
X100552333Y-41298880D02*
X100742809Y-41298880D01*
X100838047Y-41346500D01*
X100885666Y-41394119D01*
X100980904Y-41536976D01*
X101028523Y-41727452D01*
X101028523Y-42108404D01*
X100980904Y-42203642D01*
X100933285Y-42251261D01*
X100838047Y-42298880D01*
X100647571Y-42298880D01*
X100552333Y-42251261D01*
X100504714Y-42203642D01*
X100457095Y-42108404D01*
X100457095Y-41870309D01*
X100504714Y-41775071D01*
X100552333Y-41727452D01*
X100647571Y-41679833D01*
X100838047Y-41679833D01*
X100933285Y-41727452D01*
X100980904Y-41775071D01*
X101028523Y-41870309D01*
X102028523Y-72794880D02*
X101361857Y-73794880D01*
X101361857Y-72794880D02*
X102028523Y-73794880D01*
X101076142Y-72794880D02*
X100409476Y-72794880D01*
X100838047Y-73794880D01*
X165528523Y-41298880D02*
X164861857Y-42298880D01*
X164861857Y-41298880D02*
X165528523Y-42298880D01*
X164338047Y-41727452D02*
X164433285Y-41679833D01*
X164480904Y-41632214D01*
X164528523Y-41536976D01*
X164528523Y-41489357D01*
X164480904Y-41394119D01*
X164433285Y-41346500D01*
X164338047Y-41298880D01*
X164147571Y-41298880D01*
X164052333Y-41346500D01*
X164004714Y-41394119D01*
X163957095Y-41489357D01*
X163957095Y-41536976D01*
X164004714Y-41632214D01*
X164052333Y-41679833D01*
X164147571Y-41727452D01*
X164338047Y-41727452D01*
X164433285Y-41775071D01*
X164480904Y-41822690D01*
X164528523Y-41917928D01*
X164528523Y-42108404D01*
X164480904Y-42203642D01*
X164433285Y-42251261D01*
X164338047Y-42298880D01*
X164147571Y-42298880D01*
X164052333Y-42251261D01*
X164004714Y-42203642D01*
X163957095Y-42108404D01*
X163957095Y-41917928D01*
X164004714Y-41822690D01*
X164052333Y-41775071D01*
X164147571Y-41727452D01*
X165528523Y-72794880D02*
X164861857Y-73794880D01*
X164861857Y-72794880D02*
X165528523Y-73794880D01*
X164433285Y-73794880D02*
X164242809Y-73794880D01*
X164147571Y-73747261D01*
X164099952Y-73699642D01*
X164004714Y-73556785D01*
X163957095Y-73366309D01*
X163957095Y-72985357D01*
X164004714Y-72890119D01*
X164052333Y-72842500D01*
X164147571Y-72794880D01*
X164338047Y-72794880D01*
X164433285Y-72842500D01*
X164480904Y-72890119D01*
X164528523Y-72985357D01*
X164528523Y-73223452D01*
X164480904Y-73318690D01*
X164433285Y-73366309D01*
X164338047Y-73413928D01*
X164147571Y-73413928D01*
X164052333Y-73366309D01*
X164004714Y-73318690D01*
X163957095Y-73223452D01*
X123793285Y-41028880D02*
X124364714Y-41028880D01*
X124079000Y-41028880D02*
X124079000Y-40028880D01*
X124174238Y-40171738D01*
X124269476Y-40266976D01*
X124364714Y-40314595D01*
X101409476Y-41028880D02*
X101980904Y-41028880D01*
X101695190Y-41028880D02*
X101695190Y-40028880D01*
X101790428Y-40171738D01*
X101885666Y-40266976D01*
X101980904Y-40314595D01*
X100790428Y-40028880D02*
X100695190Y-40028880D01*
X100599952Y-40076500D01*
X100552333Y-40124119D01*
X100504714Y-40219357D01*
X100457095Y-40409833D01*
X100457095Y-40647928D01*
X100504714Y-40838404D01*
X100552333Y-40933642D01*
X100599952Y-40981261D01*
X100695190Y-41028880D01*
X100790428Y-41028880D01*
X100885666Y-40981261D01*
X100933285Y-40933642D01*
X100980904Y-40838404D01*
X101028523Y-40647928D01*
X101028523Y-40409833D01*
X100980904Y-40219357D01*
X100933285Y-40124119D01*
X100885666Y-40076500D01*
X100790428Y-40028880D01*
X101409476Y-75064880D02*
X101980904Y-75064880D01*
X101695190Y-75064880D02*
X101695190Y-74064880D01*
X101790428Y-74207738D01*
X101885666Y-74302976D01*
X101980904Y-74350595D01*
X100790428Y-74064880D02*
X100695190Y-74064880D01*
X100599952Y-74112500D01*
X100552333Y-74160119D01*
X100504714Y-74255357D01*
X100457095Y-74445833D01*
X100457095Y-74683928D01*
X100504714Y-74874404D01*
X100552333Y-74969642D01*
X100599952Y-75017261D01*
X100695190Y-75064880D01*
X100790428Y-75064880D01*
X100885666Y-75017261D01*
X100933285Y-74969642D01*
X100980904Y-74874404D01*
X101028523Y-74683928D01*
X101028523Y-74445833D01*
X100980904Y-74255357D01*
X100933285Y-74160119D01*
X100885666Y-74112500D01*
X100790428Y-74064880D01*
X164909476Y-41028880D02*
X165480904Y-41028880D01*
X165195190Y-41028880D02*
X165195190Y-40028880D01*
X165290428Y-40171738D01*
X165385666Y-40266976D01*
X165480904Y-40314595D01*
X164290428Y-40028880D02*
X164195190Y-40028880D01*
X164099952Y-40076500D01*
X164052333Y-40124119D01*
X164004714Y-40219357D01*
X163957095Y-40409833D01*
X163957095Y-40647928D01*
X164004714Y-40838404D01*
X164052333Y-40933642D01*
X164099952Y-40981261D01*
X164195190Y-41028880D01*
X164290428Y-41028880D01*
X164385666Y-40981261D01*
X164433285Y-40933642D01*
X164480904Y-40838404D01*
X164528523Y-40647928D01*
X164528523Y-40409833D01*
X164480904Y-40219357D01*
X164433285Y-40124119D01*
X164385666Y-40076500D01*
X164290428Y-40028880D01*
X164909476Y-75064880D02*
X165480904Y-75064880D01*
X165195190Y-75064880D02*
X165195190Y-74064880D01*
X165290428Y-74207738D01*
X165385666Y-74302976D01*
X165480904Y-74350595D01*
X164290428Y-74064880D02*
X164195190Y-74064880D01*
X164099952Y-74112500D01*
X164052333Y-74160119D01*
X164004714Y-74255357D01*
X163957095Y-74445833D01*
X163957095Y-74683928D01*
X164004714Y-74874404D01*
X164052333Y-74969642D01*
X164099952Y-75017261D01*
X164195190Y-75064880D01*
X164290428Y-75064880D01*
X164385666Y-75017261D01*
X164433285Y-74969642D01*
X164480904Y-74874404D01*
X164528523Y-74683928D01*
X164528523Y-74445833D01*
X164480904Y-74255357D01*
X164433285Y-74160119D01*
X164385666Y-74112500D01*
X164290428Y-74064880D01*
%TO.C,U3*%
X244324119Y-69722904D02*
X243514595Y-69722904D01*
X243419357Y-69675285D01*
X243371738Y-69627666D01*
X243324119Y-69532428D01*
X243324119Y-69341952D01*
X243371738Y-69246714D01*
X243419357Y-69199095D01*
X243514595Y-69151476D01*
X244324119Y-69151476D01*
X244324119Y-68770523D02*
X244324119Y-68151476D01*
X243943166Y-68484809D01*
X243943166Y-68341952D01*
X243895547Y-68246714D01*
X243847928Y-68199095D01*
X243752690Y-68151476D01*
X243514595Y-68151476D01*
X243419357Y-68199095D01*
X243371738Y-68246714D01*
X243324119Y-68341952D01*
X243324119Y-68627666D01*
X243371738Y-68722904D01*
X243419357Y-68770523D01*
%TO.C,U2*%
X239593333Y-95337380D02*
X239402857Y-95337380D01*
X239307619Y-95385000D01*
X239212380Y-95480238D01*
X239164761Y-95670714D01*
X239164761Y-96004047D01*
X239212380Y-96194523D01*
X239307619Y-96289761D01*
X239402857Y-96337380D01*
X239593333Y-96337380D01*
X239688571Y-96289761D01*
X239783809Y-96194523D01*
X239831428Y-96004047D01*
X239831428Y-95670714D01*
X239783809Y-95480238D01*
X239688571Y-95385000D01*
X239593333Y-95337380D01*
X238736190Y-96337380D02*
X238736190Y-95337380D01*
X238164761Y-96337380D02*
X238593333Y-95765952D01*
X238164761Y-95337380D02*
X238736190Y-95908809D01*
X237736190Y-96337380D02*
X237736190Y-95337380D01*
%TD*%
M02*
