M48
; DRILL file {KiCad (5.1.10)-1} date 12/04/21 16:47:40
; FORMAT={-:-/ absolute / inch / decimal}
; #@! TF.CreationDate,2021-12-04T16:47:40-06:00
; #@! TF.GenerationSoftware,Kicad,Pcbnew,(5.1.10)-1
; #@! TF.FileFunction,Plated,1,2,PTH
FMAT,2
INCH
T1C0.0157
T2C0.0300
T3C0.0350
T4C0.0354
T5C0.0394
T6C0.1598
%
G90
G05
T1
X3.02Y-4.06
X3.129Y-2.5615
X3.129Y-3.8925
X3.1575Y-2.2325
X3.1575Y-3.8525
X3.1925Y-2.1675
X3.221Y-2.9225
X3.221Y-3.7425
X3.2575Y-3.8725
X3.2596Y-1.2425
X3.2875Y-2.2325
X3.2942Y-1.214
X3.3025Y-4.0394
X3.3025Y-4.0875
X3.3025Y-4.1375
X3.3525Y-4.0394
X3.3525Y-4.0875
X3.3525Y-4.1375
X3.4025Y-4.0394
X3.4025Y-4.0875
X3.4025Y-4.1375
X3.5265Y-2.8885
X3.5265Y-3.564
X3.5275Y-3.775
X3.561Y-2.1675
X3.5625Y-1.9222
X3.6Y-1.95
X3.6875Y-4.06
X3.815Y-4.06
X3.8725Y-1.9797
X3.8975Y-2.5354
X3.9215Y-3.8925
X3.9242Y-2.7975
X3.95Y-3.8525
X3.9525Y-2.5925
X3.985Y-1.64
X3.985Y-2.445
X4.0173Y-1.7827
X4.0175Y-2.9225
X4.0175Y-3.775
X4.05Y-3.8725
X4.0527Y-2.8255
X4.0775Y-0.798
X4.0775Y-1.16
X4.085Y-2.4175
X4.0942Y-4.0394
X4.0942Y-4.0875
X4.0942Y-4.1375
X4.1175Y-1.7525
X4.1442Y-4.0394
X4.1442Y-4.0875
X4.1442Y-4.1375
X4.185Y-2.3895
X4.1942Y-4.0394
X4.1942Y-4.0875
X4.1942Y-4.1375
X4.2165Y-2.624
X4.2175Y-2.26
X4.2525Y-1.8625
X4.285Y-2.32
X4.3175Y-2.2896
X4.3275Y-3.7775
X4.335Y-2.89
X4.385Y-2.3475
X4.4173Y-1.7227
X4.4175Y-1.8911
X4.4525Y-2.01
X4.4775Y-4.06
X4.485Y-2.4825
X4.5173Y-1.6927
X4.5525Y-2.095
X4.5775Y-0.797
X4.5775Y-1.16
X4.585Y-2.7275
X4.6025Y-4.06
X4.6173Y-2.7627
X4.6175Y-1.84
X4.6525Y-2.2325
X4.71Y-3.89
X4.7175Y-1.8106
X4.72Y-2.854
X4.74Y-3.8525
X4.7525Y-2.68
X4.8175Y-1.6679
X4.82Y-2.0375
X4.8458Y-2.9225
X4.8458Y-3.775
X4.8458Y-3.8725
X4.8775Y-0.96
X4.8775Y-1.0376
X4.885Y-1.16
X4.8858Y-4.0394
X4.8858Y-4.0875
X4.8858Y-4.1375
X4.9358Y-4.0394
X4.9358Y-4.0875
X4.9358Y-4.1375
X4.945Y-1.3025
X4.9735Y-1.3525
X4.9735Y-2.854
X4.9858Y-4.0394
X4.9858Y-4.0875
X4.9858Y-4.1375
X5.005Y-1.385
X5.005Y-2.8255
X5.0375Y-1.4125
X5.039Y-2.7969
X5.0675Y-2.0675
X5.0945Y-0.797
X5.095Y-1.16
X5.096Y-1.4406
X5.0975Y-2.0975
X5.1Y-2.885
X5.1Y-3.775
X5.27Y-4.06
X5.395Y-0.9625
X5.395Y-1.0661
X5.395Y-4.06
X5.4975Y-2.7375
X5.5Y-3.8925
X5.53Y-1.84
X5.53Y-3.8525
X5.5675Y-2.709
X5.596Y-2.9225
X5.596Y-3.775
X5.6175Y-0.795
X5.6175Y-1.16
X5.6325Y-1.8106
X5.6325Y-3.8725
X5.6775Y-4.0394
X5.6775Y-4.0875
X5.6775Y-4.1375
X5.7275Y-4.0394
X5.7275Y-4.0875
X5.7275Y-4.1375
X5.7775Y-4.0394
X5.7775Y-4.0875
X5.7775Y-4.1375
X5.855Y-2.7375
X5.885Y-2.8875
X5.885Y-3.775
X5.915Y-0.9625
X5.915Y-1.0947
X6.06Y-4.06
X6.1395Y-0.797
X6.14Y-1.16
X6.185Y-4.06
X6.295Y-1.639
X6.2965Y-3.8925
X6.325Y-1.7535
X6.325Y-3.8525
X6.3592Y-2.8242
X6.3877Y-2.921
X6.3877Y-3.7825
X6.42Y-1.7821
X6.425Y-3.8725
X6.44Y-1.3025
X6.4692Y-4.0394
X6.4692Y-4.0875
X6.4692Y-4.1375
X6.5173Y-1.0952
X6.5192Y-4.0394
X6.5192Y-4.0875
X6.5192Y-4.1375
X6.5525Y-1.7535
X6.5692Y-4.0394
X6.5692Y-4.0875
X6.5692Y-4.1375
X6.585Y-1.355
X6.6173Y-2.8527
X6.6175Y-0.9625
X6.6525Y-2.8875
X6.665Y-3.7825
X6.6775Y-0.795
X6.6775Y-1.16
X6.685Y-1.3835
X6.7173Y-1.0977
X6.7175Y-1.7821
X6.7525Y-2.7654
X6.785Y-1.4121
X6.8525Y-2.5354
X6.8525Y-4.06
X6.87Y-0.96
X6.885Y-1.2425
X6.9173Y-1.0661
X6.9775Y-4.0575
X6.985Y-1.2125
X7.0173Y-1.0376
X7.0175Y-1.6675
X7.0525Y-2.564
X7.084Y-3.8925
X7.1125Y-3.8525
X7.115Y-1.6965
X7.1175Y-1.01
X7.1525Y-2.7665
X7.1794Y-2.921
X7.2025Y-3.785
X7.205Y-1.16
X7.2055Y-0.796
X7.2065Y-2.2325
X7.2075Y-1.6265
X7.2325Y-1.725
X7.2325Y-3.8728
X7.2608Y-4.0394
X7.2608Y-4.0875
X7.2608Y-4.1375
X7.3108Y-4.0394
X7.3108Y-4.0875
X7.3108Y-4.1375
X7.3608Y-4.0394
X7.3608Y-4.0875
X7.3608Y-4.1375
X7.3675Y-1.655
X7.3675Y-1.8626
X7.385Y-1.16
X7.41Y-1.685
X7.41Y-1.8911
X7.4375Y-2.795
X7.4665Y-3.775
X7.4675Y-2.885
X7.49Y-2.23
X7.49Y-2.823
X7.645Y-4.06
X7.69Y-2.0975
X7.69Y-2.1475
X7.745Y-2.8515
X7.746Y-2.23
X7.77Y-4.06
X7.8175Y-1.16
X7.875Y-2.6804
X7.8801Y-3.8925
X7.905Y-3.8511
X7.9075Y-2.2896
X7.9175Y-1.4075
X7.9425Y-2.825
X7.9475Y-2.1475
X7.95Y-2.1
X7.97Y-2.515
X7.97Y-2.56
X7.971Y-2.92
X7.971Y-3.7775
X8.0025Y-2.2325
X8.0025Y-2.7654
X8.0075Y-3.8725
X8.0357Y-2.261
X8.0525Y-4.0394
X8.0525Y-4.0875
X8.0525Y-4.1375
X8.1025Y-4.0394
X8.1025Y-4.0875
X8.1025Y-4.1375
X8.1525Y-2.0082
X8.1525Y-4.0394
X8.1525Y-4.0875
X8.1525Y-4.1375
X8.1526Y-1.9649
X8.165Y-2.1
X8.165Y-2.1475
X8.175Y-1.16
X8.188Y-2.53
X8.188Y-2.589
X8.1975Y-1.3725
X8.1975Y-1.6565
X8.1982Y-1.1935
X8.22Y-2.2325
X8.22Y-2.794
X8.225Y-2.8515
X8.255Y-2.885
X8.255Y-3.785
X8.2725Y-1.1935
X8.37Y-1.9625
X8.37Y-2.0368
X8.39Y-1.1935
X8.39Y-1.37
X8.39Y-1.6275
X8.435Y-4.06
X8.4425Y-2.2275
X8.4425Y-2.8225
X8.53Y-1.16
X8.59Y-1.965
X8.59Y-2.0653
X8.595Y-1.685
X8.5971Y-1.222
X8.5975Y-1.37
X8.63Y-1.1935
X8.6975Y-2.2275
X8.6975Y-2.8534
X8.8175Y-1.965
X8.8175Y-2.7083
X8.887Y-1.159
X8.9875Y-1.22
X9.0675Y-1.965
X9.0675Y-2.7369
X9.109Y-1.159
X9.14Y-4.1925
X9.203Y-1.3125
X9.3455Y-1.26
X9.3475Y-4.1925
X9.3975Y-1.7821
X9.5505Y-1.7535
X9.5505Y-1.3075
X9.5675Y-4.1925
X9.6936Y-1.7776
X9.6936Y-2.4839
X9.7222Y-1.3838
X9.7222Y-2.4466
X9.7794Y-2.3752
X9.7794Y-2.9044
X9.8075Y-2.3467
X9.808Y-3.467
X9.8375Y-2.3181
X9.8375Y-4.03
X9.872Y-3.6745
X9.8925Y-1.32
X9.8925Y-1.8775
X9.8925Y-2.44
X9.8925Y-3.0025
X9.8925Y-3.5725
X9.8925Y-4.1275
T2
X10.0Y-1.415
X10.0Y-1.978
X10.0Y-2.541
X10.0Y-3.104
X10.0Y-3.667
X10.0Y-4.23
T3
X9.25Y-3.675
X9.35Y-3.675
X9.45Y-3.675
T4
X7.8175Y-1.025
X7.9175Y-1.025
X8.1745Y-1.025
X8.2745Y-1.025
X8.53Y-1.025
X8.63Y-1.025
X8.887Y-1.025
X8.987Y-1.025
X9.243Y-1.025
X9.343Y-1.025
X9.6005Y-1.025
X9.7005Y-1.025
X10.0Y-1.215
X10.0Y-1.315
X10.0Y-1.778
X10.0Y-1.878
X10.0Y-2.341
X10.0Y-2.441
X10.0Y-2.904
X10.0Y-3.004
X10.0Y-3.467
X10.0Y-3.567
X10.0Y-4.03
X10.0Y-4.13
T5
X9.255Y-2.94
X9.355Y-2.94
X9.455Y-2.94
T6
X3.1925Y-4.524
X3.5025Y-4.524
X3.9842Y-4.524
X4.2942Y-4.524
X4.7758Y-4.524
X5.0858Y-4.524
X5.5675Y-4.524
X5.8775Y-4.524
X6.3592Y-4.524
X6.6692Y-4.524
X7.1508Y-4.524
X7.4608Y-4.524
X7.9425Y-4.524
X8.2525Y-4.524
X8.855Y-4.525
X9.165Y-4.525
X9.475Y-4.525
T0
M30
