M48
; DRILL file {KiCad (6.0.10)} date Fri Dec 30 00:20:28 2022
; FORMAT={-:-/ absolute / metric / decimal}
; #@! TF.CreationDate,2022-12-30T00:20:28-06:00
; #@! TF.GenerationSoftware,Kicad,Pcbnew,(6.0.10)
; #@! TF.FileFunction,Plated,1,2,PTH
FMAT,2
METRIC
; #@! TA.AperFunction,Plated,PTH,ViaDrill
T1C0.400
; #@! TA.AperFunction,Plated,PTH,ComponentDrill
T2C0.800
; #@! TA.AperFunction,Plated,PTH,ComponentDrill
T3C0.889
; #@! TA.AperFunction,Plated,PTH,ComponentDrill
T4C0.900
; #@! TA.AperFunction,Plated,PTH,ComponentDrill
T5C1.020
; #@! TA.AperFunction,Plated,PTH,ComponentDrill
T6C1.090
; #@! TA.AperFunction,Plated,PTH,ComponentDrill
T7C1.600
; #@! TA.AperFunction,Plated,PTH,ComponentDrill
T8C2.000
; #@! TA.AperFunction,Plated,PTH,ComponentDrill
T9C3.250
%
G90
G05
T1
X157.099Y-264.922
X157.099Y-273.05
X160.655Y-183.515
X160.782Y-203.073
X162.433Y-197.231
X164.465Y-179.578
X165.608Y-195.961
X167.767Y-162.56
X167.767Y-165.735
X167.813Y-181.796
X167.813Y-185.225
X168.148Y-203.835
X169.037Y-162.56
X169.037Y-165.735
X169.083Y-181.796
X169.083Y-185.225
X169.799Y-207.863
X170.18Y-157.734
X170.307Y-162.56
X170.307Y-165.735
X170.353Y-181.796
X170.353Y-185.225
X171.577Y-162.56
X171.577Y-165.735
X172.593Y-194.437
X172.72Y-264.922
X173.482Y-195.453
X173.482Y-201.574
X173.905Y-225.234
X175.641Y-162.56
X175.641Y-165.735
X175.641Y-201.549
X175.687Y-181.796
X175.687Y-185.225
X176.911Y-162.56
X176.911Y-165.735
X176.957Y-181.796
X176.957Y-185.225
X178.181Y-162.56
X178.181Y-165.735
X178.227Y-181.796
X178.227Y-185.225
X179.451Y-162.56
X179.451Y-165.735
X180.34Y-157.734
X182.118Y-218.694
X182.118Y-243.078
X182.372Y-196.723
X183.261Y-178.181
X186.552Y-181.796
X186.552Y-185.225
X186.563Y-162.56
X186.563Y-165.735
X187.822Y-181.796
X187.822Y-185.225
X187.833Y-162.56
X187.833Y-165.735
X189.092Y-181.796
X189.092Y-185.225
X189.103Y-162.56
X189.103Y-165.735
X190.119Y-201.549
X190.373Y-162.56
X190.373Y-165.735
X191.389Y-194.437
X192.278Y-195.453
X192.278Y-201.574
X194.426Y-181.796
X194.426Y-185.225
X194.437Y-162.56
X194.437Y-165.735
X194.437Y-201.549
X195.696Y-181.796
X195.696Y-185.225
X195.707Y-162.56
X195.707Y-165.735
X196.966Y-181.796
X196.966Y-185.225
X196.977Y-162.56
X196.977Y-165.735
X197.485Y-243.078
X198.12Y-157.734
X198.247Y-162.56
X198.247Y-165.735
X201.295Y-196.596
X202.184Y-178.054
X205.605Y-181.657
X205.605Y-185.086
X205.613Y-162.56
X205.613Y-165.735
X205.74Y-281.94
X206.875Y-181.657
X206.875Y-185.086
X206.883Y-162.56
X206.883Y-165.735
X208.145Y-181.657
X208.145Y-185.086
X208.153Y-162.56
X208.153Y-165.735
X208.28Y-157.734
X208.915Y-274.32
X208.915Y-277.495
X209.169Y-201.549
X209.423Y-162.56
X209.423Y-165.735
X210.071Y-254.977
X210.071Y-258.406
X210.185Y-274.32
X210.185Y-277.495
X210.439Y-194.437
X211.328Y-195.453
X211.328Y-201.625
X211.341Y-254.977
X211.341Y-258.406
X211.455Y-274.32
X211.455Y-277.495
X212.611Y-254.977
X212.611Y-258.406
X212.725Y-274.32
X212.725Y-277.495
X213.479Y-181.657
X213.479Y-185.086
X213.487Y-162.56
X213.487Y-165.735
X213.487Y-201.549
X214.749Y-181.657
X214.749Y-185.086
X214.757Y-162.56
X214.757Y-165.735
X214.757Y-238.582
X214.757Y-244.602
X215.646Y-245.618
X215.9Y-281.94
X216.019Y-181.657
X216.019Y-185.086
X216.027Y-162.56
X216.027Y-165.735
X216.535Y-274.32
X216.535Y-277.495
X217.17Y-237.871
X217.297Y-162.56
X217.297Y-165.735
X217.805Y-274.32
X217.805Y-277.495
X217.945Y-254.977
X217.945Y-258.406
X218.44Y-157.734
X219.075Y-274.32
X219.075Y-277.495
X219.215Y-254.977
X219.215Y-258.406
X220.218Y-196.215
X220.345Y-274.32
X220.345Y-277.495
X220.485Y-254.977
X220.485Y-258.406
X221.488Y-178.181
X224.155Y-262.89
X224.409Y-243.713
X224.663Y-162.56
X224.663Y-165.735
X224.71Y-181.657
X224.71Y-185.086
X225.933Y-162.56
X225.933Y-165.735
X225.98Y-181.657
X225.98Y-185.086
X226.06Y-281.94
X227.203Y-162.56
X227.203Y-165.735
X227.25Y-181.657
X227.25Y-185.086
X227.965Y-274.32
X227.965Y-277.495
X228.219Y-201.549
X228.473Y-162.56
X228.473Y-165.735
X228.473Y-221.996
X228.6Y-157.734
X229.181Y-254.838
X229.181Y-258.267
X229.235Y-274.32
X229.235Y-277.495
X229.616Y-194.437
X230.451Y-254.838
X230.451Y-258.267
X230.454Y-201.778
X230.505Y-195.453
X230.505Y-274.32
X230.505Y-277.495
X231.394Y-237.871
X231.721Y-254.838
X231.721Y-258.267
X231.775Y-274.32
X231.775Y-277.495
X232.537Y-162.56
X232.537Y-165.735
X232.584Y-181.657
X232.584Y-185.086
X232.791Y-201.549
X233.807Y-162.56
X233.807Y-165.735
X233.807Y-238.608
X233.807Y-244.602
X233.854Y-181.657
X233.854Y-185.086
X234.823Y-245.618
X235.077Y-162.56
X235.077Y-165.735
X235.124Y-181.657
X235.124Y-185.086
X235.585Y-274.32
X235.585Y-277.495
X236.093Y-232.194
X236.22Y-237.871
X236.22Y-281.94
X236.347Y-162.56
X236.347Y-165.735
X236.855Y-274.32
X236.855Y-277.495
X237.055Y-254.838
X237.055Y-258.267
X238.125Y-274.32
X238.125Y-277.495
X238.325Y-254.838
X238.325Y-258.267
X238.76Y-157.734
X239.395Y-274.32
X239.395Y-277.495
X239.522Y-196.469
X239.595Y-254.838
X239.595Y-258.267
X240.538Y-177.673
X243.777Y-181.657
X243.777Y-185.086
X243.84Y-162.56
X243.84Y-165.735
X244.602Y-242.697
X245.047Y-181.657
X245.047Y-185.086
X245.11Y-162.56
X245.11Y-165.735
X246.317Y-181.657
X246.317Y-185.086
X246.38Y-162.56
X246.38Y-165.735
X246.38Y-281.94
X247.015Y-274.32
X247.015Y-277.495
X247.269Y-201.549
X247.65Y-162.56
X247.65Y-165.735
X248.274Y-254.965
X248.274Y-258.394
X248.285Y-274.32
X248.285Y-277.495
X248.666Y-194.437
X248.92Y-157.734
X249.544Y-254.965
X249.544Y-258.394
X249.555Y-274.32
X249.555Y-277.495
X249.682Y-195.453
X249.682Y-201.549
X250.698Y-237.871
X250.814Y-254.965
X250.814Y-258.394
X250.825Y-274.32
X250.825Y-277.495
X251.651Y-181.657
X251.651Y-185.086
X251.714Y-162.56
X251.714Y-165.735
X252.095Y-201.549
X252.908Y-238.379
X252.921Y-181.657
X252.921Y-185.086
X252.984Y-162.56
X252.984Y-165.735
X252.984Y-244.602
X253.873Y-245.618
X254.191Y-181.657
X254.191Y-185.086
X254.254Y-162.56
X254.254Y-165.735
X254.635Y-274.32
X254.635Y-277.495
X255.524Y-162.56
X255.524Y-165.735
X255.905Y-274.32
X255.905Y-277.495
X256.148Y-254.965
X256.148Y-258.394
X256.54Y-281.94
X257.175Y-274.32
X257.175Y-277.495
X257.418Y-254.965
X257.418Y-258.394
X258.445Y-274.32
X258.445Y-277.495
X258.688Y-254.965
X258.688Y-258.394
X259.08Y-157.734
X259.08Y-196.342
X259.334Y-177.8
X262.89Y-162.56
X262.89Y-165.735
X262.89Y-181.743
X262.89Y-185.172
X264.16Y-162.56
X264.16Y-165.735
X264.16Y-181.743
X264.16Y-185.172
X265.43Y-162.56
X265.43Y-165.735
X265.43Y-181.743
X265.43Y-185.172
X266.319Y-201.549
X266.7Y-162.56
X266.7Y-165.735
X266.7Y-281.94
X267.716Y-194.437
X268.732Y-195.453
X268.732Y-201.549
X269.24Y-157.734
X270.764Y-162.56
X270.764Y-165.735
X270.764Y-181.743
X270.764Y-185.172
X272.034Y-162.56
X272.034Y-165.735
X272.034Y-181.743
X272.034Y-185.172
X273.304Y-162.56
X273.304Y-165.735
X273.304Y-181.743
X273.304Y-185.172
X274.574Y-162.56
X274.574Y-165.735
X276.86Y-281.94
X284.48Y-167.64
X284.48Y-177.8
X284.48Y-187.96
X284.48Y-198.12
X284.48Y-208.28
X284.48Y-218.44
X284.48Y-228.6
X284.48Y-238.76
X284.48Y-248.92
X284.48Y-259.08
X284.48Y-269.24
X284.48Y-276.86
T2
X184.563Y-259.363
X184.563Y-261.363
X186.563Y-259.363
X186.563Y-261.363
X188.563Y-259.363
X188.563Y-261.363
X200.502Y-214.489
X200.502Y-229.73
X203.042Y-214.489
X203.042Y-229.73
X205.582Y-214.489
X205.582Y-229.73
X208.122Y-214.489
X208.122Y-229.73
X210.662Y-214.489
X210.662Y-229.73
X213.202Y-214.489
X213.202Y-229.73
X215.742Y-214.489
X215.742Y-229.73
X218.282Y-214.489
X218.282Y-229.73
X220.822Y-214.489
X220.822Y-229.73
X223.362Y-214.489
X223.362Y-229.73
X225.902Y-214.489
X225.902Y-229.73
X228.442Y-214.489
X228.442Y-229.73
X230.982Y-214.489
X230.982Y-229.73
X233.522Y-214.489
X233.522Y-229.73
X236.062Y-214.489
X236.062Y-229.73
X238.602Y-214.489
X238.602Y-229.73
X241.142Y-214.489
X241.142Y-229.73
X243.682Y-214.489
X243.682Y-229.73
X246.222Y-214.489
X246.222Y-229.73
X248.762Y-214.489
X248.762Y-229.73
X251.302Y-214.489
X251.302Y-229.73
X253.842Y-214.489
X253.842Y-229.73
X256.382Y-214.489
X256.382Y-229.73
X258.922Y-214.489
X258.922Y-229.73
T3
X170.18Y-282.067
X172.72Y-282.067
X175.26Y-282.067
T4
X185.93Y-267.048
X187.2Y-264.508
X188.47Y-267.048
X189.74Y-264.508
X191.01Y-267.048
X192.28Y-264.508
X193.55Y-267.048
X194.82Y-264.508
T5
X184.05Y-278.478
X186.59Y-276.688
X194.16Y-278.478
X196.7Y-276.688
T6
X158.09Y-174.994
X158.09Y-194.552
X160.63Y-174.994
X160.63Y-194.552
X165.684Y-210.566
X165.684Y-218.682
X165.684Y-226.81
X165.684Y-234.938
X165.684Y-243.078
X165.684Y-251.194
X168.224Y-210.566
X168.224Y-218.682
X168.224Y-226.81
X168.224Y-234.938
X168.224Y-243.078
X168.224Y-251.194
X268.554Y-210.554
X268.554Y-218.682
X268.554Y-226.822
X268.554Y-234.95
X268.554Y-243.066
X268.554Y-251.194
X271.094Y-210.554
X271.094Y-218.682
X271.094Y-226.822
X271.094Y-234.95
X271.094Y-243.066
X271.094Y-251.194
X273.634Y-210.554
X273.634Y-218.682
X273.634Y-226.822
X273.634Y-234.95
X273.634Y-243.066
X273.634Y-251.194
T7
X182.5Y-270.348
X198.25Y-270.348
T9
X184.66Y-273.398
X196.09Y-273.398
T8
G00X170.763Y-173.807
M15
G01X168.663Y-173.807
M16
G05
G00X178.637Y-173.807
M15
G01X176.537Y-173.807
M16
G05
G00X189.511Y-173.807
M15
G01X187.411Y-173.807
M16
G05
G00X197.385Y-173.807
M15
G01X195.285Y-173.807
M16
G05
G00X208.585Y-173.807
M15
G01X206.485Y-173.807
M16
G05
G00X209.677Y-266.257
M15
G01X211.777Y-266.257
M16
G05
G00X216.459Y-173.807
M15
G01X214.359Y-173.807
M16
G05
G00X217.551Y-266.257
M15
G01X219.651Y-266.257
M16
G05
G00X227.672Y-173.807
M15
G01X225.572Y-173.807
M16
G05
G00X228.766Y-266.257
M15
G01X230.866Y-266.257
M16
G05
G00X235.546Y-173.807
M15
G01X233.446Y-173.807
M16
G05
G00X236.64Y-266.257
M15
G01X238.74Y-266.257
M16
G05
G00X246.758Y-173.807
M15
G01X244.658Y-173.807
M16
G05
G00X247.855Y-266.257
M15
G01X249.955Y-266.257
M16
G05
G00X254.632Y-173.807
M15
G01X252.532Y-173.807
M16
G05
G00X255.729Y-266.257
M15
G01X257.829Y-266.257
M16
G05
G00X265.845Y-173.807
M15
G01X263.745Y-173.807
M16
G05
G00X266.793Y-266.257
M15
G01X268.893Y-266.257
M16
G05
G00X273.719Y-173.807
M15
G01X271.619Y-173.807
M16
G05
G00X274.667Y-266.257
M15
G01X276.767Y-266.257
M16
G05
T0
M30
