%TF.GenerationSoftware,KiCad,Pcbnew,(6.0.10)*%
%TF.CreationDate,2022-12-30T00:20:44-06:00*%
%TF.ProjectId,Armboard_Hardware,41726d62-6f61-4726-945f-486172647761,rev?*%
%TF.SameCoordinates,Original*%
%TF.FileFunction,Legend,Bot*%
%TF.FilePolarity,Positive*%
%FSLAX46Y46*%
G04 Gerber Fmt 4.6, Leading zero omitted, Abs format (unit mm)*
G04 Created by KiCad (PCBNEW (6.0.10)) date 2022-12-30 00:20:44*
%MOMM*%
%LPD*%
G01*
G04 APERTURE LIST*
G04 Aperture macros list*
%AMRoundRect*
0 Rectangle with rounded corners*
0 $1 Rounding radius*
0 $2 $3 $4 $5 $6 $7 $8 $9 X,Y pos of 4 corners*
0 Add a 4 corners polygon primitive as box body*
4,1,4,$2,$3,$4,$5,$6,$7,$8,$9,$2,$3,0*
0 Add four circle primitives for the rounded corners*
1,1,$1+$1,$2,$3*
1,1,$1+$1,$4,$5*
1,1,$1+$1,$6,$7*
1,1,$1+$1,$8,$9*
0 Add four rect primitives between the rounded corners*
20,1,$1+$1,$2,$3,$4,$5,0*
20,1,$1+$1,$4,$5,$6,$7,0*
20,1,$1+$1,$6,$7,$8,$9,0*
20,1,$1+$1,$8,$9,$2,$3,0*%
G04 Aperture macros list end*
%ADD10C,0.150000*%
%ADD11C,2.946400*%
%ADD12R,1.350000X1.350000*%
%ADD13O,1.350000X1.350000*%
%ADD14RoundRect,0.250000X0.620000X0.620000X-0.620000X0.620000X-0.620000X-0.620000X0.620000X-0.620000X0*%
%ADD15C,1.740000*%
%ADD16C,1.524000*%
%ADD17C,1.308000*%
%ADD18C,1.100000*%
%ADD19C,1.400000*%
%ADD20C,4.000000*%
%ADD21C,2.000000*%
%ADD22O,5.100000X3.000000*%
G04 APERTURE END LIST*
D10*
X263600211Y-269504648D02*
X263647830Y-269457028D01*
X263695449Y-269314171D01*
X263695449Y-269218933D01*
X263647830Y-269076076D01*
X263552592Y-268980838D01*
X263457354Y-268933219D01*
X263266878Y-268885600D01*
X263124021Y-268885600D01*
X262933545Y-268933219D01*
X262838307Y-268980838D01*
X262743069Y-269076076D01*
X262695449Y-269218933D01*
X262695449Y-269314171D01*
X262743069Y-269457028D01*
X262790688Y-269504648D01*
X263695449Y-270076076D02*
X263647830Y-269980838D01*
X263600211Y-269933219D01*
X263504973Y-269885600D01*
X263219259Y-269885600D01*
X263124021Y-269933219D01*
X263076402Y-269980838D01*
X263028783Y-270076076D01*
X263028783Y-270218933D01*
X263076402Y-270314171D01*
X263124021Y-270361790D01*
X263219259Y-270409409D01*
X263504973Y-270409409D01*
X263600211Y-270361790D01*
X263647830Y-270314171D01*
X263695449Y-270218933D01*
X263695449Y-270076076D01*
X263028783Y-270837981D02*
X263695449Y-270837981D01*
X263124021Y-270837981D02*
X263076402Y-270885600D01*
X263028783Y-270980838D01*
X263028783Y-271123695D01*
X263076402Y-271218933D01*
X263171640Y-271266552D01*
X263695449Y-271266552D01*
X263028783Y-271742743D02*
X263695449Y-271742743D01*
X263124021Y-271742743D02*
X263076402Y-271790362D01*
X263028783Y-271885600D01*
X263028783Y-272028457D01*
X263076402Y-272123695D01*
X263171640Y-272171314D01*
X263695449Y-272171314D01*
X263695449Y-273171314D02*
X263695449Y-272599886D01*
X263695449Y-272885600D02*
X262695449Y-272885600D01*
X262838307Y-272790362D01*
X262933545Y-272695124D01*
X262981164Y-272599886D01*
X263695449Y-273647505D02*
X263695449Y-273837981D01*
X263647830Y-273933219D01*
X263600211Y-273980838D01*
X263457354Y-274076076D01*
X263266878Y-274123695D01*
X262885926Y-274123695D01*
X262790688Y-274076076D01*
X262743069Y-274028457D01*
X262695449Y-273933219D01*
X262695449Y-273742743D01*
X262743069Y-273647505D01*
X262790688Y-273599886D01*
X262885926Y-273552267D01*
X263124021Y-273552267D01*
X263219259Y-273599886D01*
X263266878Y-273647505D01*
X263314497Y-273742743D01*
X263314497Y-273933219D01*
X263266878Y-274028457D01*
X263219259Y-274076076D01*
X263124021Y-274123695D01*
X182920622Y-166757390D02*
X182968241Y-166709771D01*
X183015860Y-166566914D01*
X183015860Y-166471676D01*
X182968241Y-166328819D01*
X182873003Y-166233580D01*
X182777765Y-166185961D01*
X182587289Y-166138342D01*
X182444432Y-166138342D01*
X182253956Y-166185961D01*
X182158718Y-166233580D01*
X182063480Y-166328819D01*
X182015860Y-166471676D01*
X182015860Y-166566914D01*
X182063480Y-166709771D01*
X182111099Y-166757390D01*
X183015860Y-167328819D02*
X182968241Y-167233580D01*
X182920622Y-167185961D01*
X182825384Y-167138342D01*
X182539670Y-167138342D01*
X182444432Y-167185961D01*
X182396813Y-167233580D01*
X182349194Y-167328819D01*
X182349194Y-167471676D01*
X182396813Y-167566914D01*
X182444432Y-167614533D01*
X182539670Y-167662152D01*
X182825384Y-167662152D01*
X182920622Y-167614533D01*
X182968241Y-167566914D01*
X183015860Y-167471676D01*
X183015860Y-167328819D01*
X182349194Y-168090723D02*
X183015860Y-168090723D01*
X182444432Y-168090723D02*
X182396813Y-168138342D01*
X182349194Y-168233580D01*
X182349194Y-168376438D01*
X182396813Y-168471676D01*
X182492051Y-168519295D01*
X183015860Y-168519295D01*
X182349194Y-168995485D02*
X183015860Y-168995485D01*
X182444432Y-168995485D02*
X182396813Y-169043104D01*
X182349194Y-169138342D01*
X182349194Y-169281200D01*
X182396813Y-169376438D01*
X182492051Y-169424057D01*
X183015860Y-169424057D01*
X182015860Y-169805009D02*
X182015860Y-170424057D01*
X182396813Y-170090723D01*
X182396813Y-170233580D01*
X182444432Y-170328819D01*
X182492051Y-170376438D01*
X182587289Y-170424057D01*
X182825384Y-170424057D01*
X182920622Y-170376438D01*
X182968241Y-170328819D01*
X183015860Y-170233580D01*
X183015860Y-169947866D01*
X182968241Y-169852628D01*
X182920622Y-169805009D01*
X239828846Y-166281200D02*
X239876465Y-166233580D01*
X239924084Y-166090723D01*
X239924084Y-165995485D01*
X239876465Y-165852628D01*
X239781227Y-165757390D01*
X239685989Y-165709771D01*
X239495513Y-165662152D01*
X239352656Y-165662152D01*
X239162180Y-165709771D01*
X239066942Y-165757390D01*
X238971704Y-165852628D01*
X238924084Y-165995485D01*
X238924084Y-166090723D01*
X238971704Y-166233580D01*
X239019323Y-166281200D01*
X239924084Y-166852628D02*
X239876465Y-166757390D01*
X239828846Y-166709771D01*
X239733608Y-166662152D01*
X239447894Y-166662152D01*
X239352656Y-166709771D01*
X239305037Y-166757390D01*
X239257418Y-166852628D01*
X239257418Y-166995485D01*
X239305037Y-167090723D01*
X239352656Y-167138342D01*
X239447894Y-167185961D01*
X239733608Y-167185961D01*
X239828846Y-167138342D01*
X239876465Y-167090723D01*
X239924084Y-166995485D01*
X239924084Y-166852628D01*
X239257418Y-167614533D02*
X239924084Y-167614533D01*
X239352656Y-167614533D02*
X239305037Y-167662152D01*
X239257418Y-167757390D01*
X239257418Y-167900247D01*
X239305037Y-167995485D01*
X239400275Y-168043104D01*
X239924084Y-168043104D01*
X239257418Y-168519295D02*
X239924084Y-168519295D01*
X239352656Y-168519295D02*
X239305037Y-168566914D01*
X239257418Y-168662152D01*
X239257418Y-168805009D01*
X239305037Y-168900247D01*
X239400275Y-168947866D01*
X239924084Y-168947866D01*
X239924084Y-169947866D02*
X239924084Y-169376438D01*
X239924084Y-169662152D02*
X238924084Y-169662152D01*
X239066942Y-169566914D01*
X239162180Y-169471676D01*
X239209799Y-169376438D01*
X239352656Y-170519295D02*
X239305037Y-170424057D01*
X239257418Y-170376438D01*
X239162180Y-170328819D01*
X239114561Y-170328819D01*
X239019323Y-170376438D01*
X238971704Y-170424057D01*
X238924084Y-170519295D01*
X238924084Y-170709771D01*
X238971704Y-170805009D01*
X239019323Y-170852628D01*
X239114561Y-170900247D01*
X239162180Y-170900247D01*
X239257418Y-170852628D01*
X239305037Y-170805009D01*
X239352656Y-170709771D01*
X239352656Y-170519295D01*
X239400275Y-170424057D01*
X239447894Y-170376438D01*
X239543132Y-170328819D01*
X239733608Y-170328819D01*
X239828846Y-170376438D01*
X239876465Y-170424057D01*
X239924084Y-170519295D01*
X239924084Y-170709771D01*
X239876465Y-170805009D01*
X239828846Y-170852628D01*
X239733608Y-170900247D01*
X239543132Y-170900247D01*
X239447894Y-170852628D01*
X239400275Y-170805009D01*
X239352656Y-170709771D01*
X244286146Y-270258390D02*
X244333765Y-270210771D01*
X244381384Y-270067914D01*
X244381384Y-269972676D01*
X244333765Y-269829819D01*
X244238527Y-269734580D01*
X244143289Y-269686961D01*
X243952813Y-269639342D01*
X243809956Y-269639342D01*
X243619480Y-269686961D01*
X243524242Y-269734580D01*
X243429004Y-269829819D01*
X243381384Y-269972676D01*
X243381384Y-270067914D01*
X243429004Y-270210771D01*
X243476623Y-270258390D01*
X244381384Y-270829819D02*
X244333765Y-270734580D01*
X244286146Y-270686961D01*
X244190908Y-270639342D01*
X243905194Y-270639342D01*
X243809956Y-270686961D01*
X243762337Y-270734580D01*
X243714718Y-270829819D01*
X243714718Y-270972676D01*
X243762337Y-271067914D01*
X243809956Y-271115533D01*
X243905194Y-271163152D01*
X244190908Y-271163152D01*
X244286146Y-271115533D01*
X244333765Y-271067914D01*
X244381384Y-270972676D01*
X244381384Y-270829819D01*
X243714718Y-271591723D02*
X244381384Y-271591723D01*
X243809956Y-271591723D02*
X243762337Y-271639342D01*
X243714718Y-271734580D01*
X243714718Y-271877438D01*
X243762337Y-271972676D01*
X243857575Y-272020295D01*
X244381384Y-272020295D01*
X243714718Y-272496485D02*
X244381384Y-272496485D01*
X243809956Y-272496485D02*
X243762337Y-272544104D01*
X243714718Y-272639342D01*
X243714718Y-272782200D01*
X243762337Y-272877438D01*
X243857575Y-272925057D01*
X244381384Y-272925057D01*
X244381384Y-273925057D02*
X244381384Y-273353628D01*
X244381384Y-273639342D02*
X243381384Y-273639342D01*
X243524242Y-273544104D01*
X243619480Y-273448866D01*
X243667099Y-273353628D01*
X206108354Y-269782200D02*
X206155973Y-269734580D01*
X206203592Y-269591723D01*
X206203592Y-269496485D01*
X206155973Y-269353628D01*
X206060735Y-269258390D01*
X205965497Y-269210771D01*
X205775021Y-269163152D01*
X205632164Y-269163152D01*
X205441688Y-269210771D01*
X205346450Y-269258390D01*
X205251212Y-269353628D01*
X205203592Y-269496485D01*
X205203592Y-269591723D01*
X205251212Y-269734580D01*
X205298831Y-269782200D01*
X206203592Y-270353628D02*
X206155973Y-270258390D01*
X206108354Y-270210771D01*
X206013116Y-270163152D01*
X205727402Y-270163152D01*
X205632164Y-270210771D01*
X205584545Y-270258390D01*
X205536926Y-270353628D01*
X205536926Y-270496485D01*
X205584545Y-270591723D01*
X205632164Y-270639342D01*
X205727402Y-270686961D01*
X206013116Y-270686961D01*
X206108354Y-270639342D01*
X206155973Y-270591723D01*
X206203592Y-270496485D01*
X206203592Y-270353628D01*
X205536926Y-271115533D02*
X206203592Y-271115533D01*
X205632164Y-271115533D02*
X205584545Y-271163152D01*
X205536926Y-271258390D01*
X205536926Y-271401247D01*
X205584545Y-271496485D01*
X205679783Y-271544104D01*
X206203592Y-271544104D01*
X205536926Y-272020295D02*
X206203592Y-272020295D01*
X205632164Y-272020295D02*
X205584545Y-272067914D01*
X205536926Y-272163152D01*
X205536926Y-272306009D01*
X205584545Y-272401247D01*
X205679783Y-272448866D01*
X206203592Y-272448866D01*
X205298831Y-272877438D02*
X205251212Y-272925057D01*
X205203592Y-273020295D01*
X205203592Y-273258390D01*
X205251212Y-273353628D01*
X205298831Y-273401247D01*
X205394069Y-273448866D01*
X205489307Y-273448866D01*
X205632164Y-273401247D01*
X206203592Y-272829819D01*
X206203592Y-273448866D01*
X205203592Y-273782200D02*
X205203592Y-274401247D01*
X205584545Y-274067914D01*
X205584545Y-274210771D01*
X205632164Y-274306009D01*
X205679783Y-274353628D01*
X205775021Y-274401247D01*
X206013116Y-274401247D01*
X206108354Y-274353628D01*
X206155973Y-274306009D01*
X206203592Y-274210771D01*
X206203592Y-273925057D01*
X206155973Y-273829819D01*
X206108354Y-273782200D01*
X201668170Y-166281200D02*
X201715789Y-166233580D01*
X201763408Y-166090723D01*
X201763408Y-165995485D01*
X201715789Y-165852628D01*
X201620551Y-165757390D01*
X201525313Y-165709771D01*
X201334837Y-165662152D01*
X201191980Y-165662152D01*
X201001504Y-165709771D01*
X200906266Y-165757390D01*
X200811028Y-165852628D01*
X200763408Y-165995485D01*
X200763408Y-166090723D01*
X200811028Y-166233580D01*
X200858647Y-166281200D01*
X201763408Y-166852628D02*
X201715789Y-166757390D01*
X201668170Y-166709771D01*
X201572932Y-166662152D01*
X201287218Y-166662152D01*
X201191980Y-166709771D01*
X201144361Y-166757390D01*
X201096742Y-166852628D01*
X201096742Y-166995485D01*
X201144361Y-167090723D01*
X201191980Y-167138342D01*
X201287218Y-167185961D01*
X201572932Y-167185961D01*
X201668170Y-167138342D01*
X201715789Y-167090723D01*
X201763408Y-166995485D01*
X201763408Y-166852628D01*
X201096742Y-167614533D02*
X201763408Y-167614533D01*
X201191980Y-167614533D02*
X201144361Y-167662152D01*
X201096742Y-167757390D01*
X201096742Y-167900247D01*
X201144361Y-167995485D01*
X201239599Y-168043104D01*
X201763408Y-168043104D01*
X201096742Y-168519295D02*
X201763408Y-168519295D01*
X201191980Y-168519295D02*
X201144361Y-168566914D01*
X201096742Y-168662152D01*
X201096742Y-168805009D01*
X201144361Y-168900247D01*
X201239599Y-168947866D01*
X201763408Y-168947866D01*
X201763408Y-169947866D02*
X201763408Y-169376438D01*
X201763408Y-169662152D02*
X200763408Y-169662152D01*
X200906266Y-169566914D01*
X201001504Y-169471676D01*
X201049123Y-169376438D01*
X200763408Y-170566914D02*
X200763408Y-170662152D01*
X200811028Y-170757390D01*
X200858647Y-170805009D01*
X200953885Y-170852628D01*
X201144361Y-170900247D01*
X201382456Y-170900247D01*
X201572932Y-170852628D01*
X201668170Y-170805009D01*
X201715789Y-170757390D01*
X201763408Y-170662152D01*
X201763408Y-170566914D01*
X201715789Y-170471676D01*
X201668170Y-170424057D01*
X201572932Y-170376438D01*
X201382456Y-170328819D01*
X201144361Y-170328819D01*
X200953885Y-170376438D01*
X200858647Y-170424057D01*
X200811028Y-170471676D01*
X200763408Y-170566914D01*
X220742158Y-166281200D02*
X220789777Y-166233580D01*
X220837396Y-166090723D01*
X220837396Y-165995485D01*
X220789777Y-165852628D01*
X220694539Y-165757390D01*
X220599301Y-165709771D01*
X220408825Y-165662152D01*
X220265968Y-165662152D01*
X220075492Y-165709771D01*
X219980254Y-165757390D01*
X219885016Y-165852628D01*
X219837396Y-165995485D01*
X219837396Y-166090723D01*
X219885016Y-166233580D01*
X219932635Y-166281200D01*
X220837396Y-166852628D02*
X220789777Y-166757390D01*
X220742158Y-166709771D01*
X220646920Y-166662152D01*
X220361206Y-166662152D01*
X220265968Y-166709771D01*
X220218349Y-166757390D01*
X220170730Y-166852628D01*
X220170730Y-166995485D01*
X220218349Y-167090723D01*
X220265968Y-167138342D01*
X220361206Y-167185961D01*
X220646920Y-167185961D01*
X220742158Y-167138342D01*
X220789777Y-167090723D01*
X220837396Y-166995485D01*
X220837396Y-166852628D01*
X220170730Y-167614533D02*
X220837396Y-167614533D01*
X220265968Y-167614533D02*
X220218349Y-167662152D01*
X220170730Y-167757390D01*
X220170730Y-167900247D01*
X220218349Y-167995485D01*
X220313587Y-168043104D01*
X220837396Y-168043104D01*
X220170730Y-168519295D02*
X220837396Y-168519295D01*
X220265968Y-168519295D02*
X220218349Y-168566914D01*
X220170730Y-168662152D01*
X220170730Y-168805009D01*
X220218349Y-168900247D01*
X220313587Y-168947866D01*
X220837396Y-168947866D01*
X220837396Y-169947866D02*
X220837396Y-169376438D01*
X220837396Y-169662152D02*
X219837396Y-169662152D01*
X219980254Y-169566914D01*
X220075492Y-169471676D01*
X220123111Y-169376438D01*
X220170730Y-170805009D02*
X220837396Y-170805009D01*
X219789777Y-170566914D02*
X220504063Y-170328819D01*
X220504063Y-170947866D01*
X258915534Y-166281200D02*
X258963153Y-166233580D01*
X259010772Y-166090723D01*
X259010772Y-165995485D01*
X258963153Y-165852628D01*
X258867915Y-165757390D01*
X258772677Y-165709771D01*
X258582201Y-165662152D01*
X258439344Y-165662152D01*
X258248868Y-165709771D01*
X258153630Y-165757390D01*
X258058392Y-165852628D01*
X258010772Y-165995485D01*
X258010772Y-166090723D01*
X258058392Y-166233580D01*
X258106011Y-166281200D01*
X259010772Y-166852628D02*
X258963153Y-166757390D01*
X258915534Y-166709771D01*
X258820296Y-166662152D01*
X258534582Y-166662152D01*
X258439344Y-166709771D01*
X258391725Y-166757390D01*
X258344106Y-166852628D01*
X258344106Y-166995485D01*
X258391725Y-167090723D01*
X258439344Y-167138342D01*
X258534582Y-167185961D01*
X258820296Y-167185961D01*
X258915534Y-167138342D01*
X258963153Y-167090723D01*
X259010772Y-166995485D01*
X259010772Y-166852628D01*
X258344106Y-167614533D02*
X259010772Y-167614533D01*
X258439344Y-167614533D02*
X258391725Y-167662152D01*
X258344106Y-167757390D01*
X258344106Y-167900247D01*
X258391725Y-167995485D01*
X258486963Y-168043104D01*
X259010772Y-168043104D01*
X258344106Y-168519295D02*
X259010772Y-168519295D01*
X258439344Y-168519295D02*
X258391725Y-168566914D01*
X258344106Y-168662152D01*
X258344106Y-168805009D01*
X258391725Y-168900247D01*
X258486963Y-168947866D01*
X259010772Y-168947866D01*
X258106011Y-169376438D02*
X258058392Y-169424057D01*
X258010772Y-169519295D01*
X258010772Y-169757390D01*
X258058392Y-169852628D01*
X258106011Y-169900247D01*
X258201249Y-169947866D01*
X258296487Y-169947866D01*
X258439344Y-169900247D01*
X259010772Y-169328819D01*
X259010772Y-169947866D01*
X258010772Y-170566914D02*
X258010772Y-170662152D01*
X258058392Y-170757390D01*
X258106011Y-170805009D01*
X258201249Y-170852628D01*
X258391725Y-170900247D01*
X258629820Y-170900247D01*
X258820296Y-170852628D01*
X258915534Y-170805009D01*
X258963153Y-170757390D01*
X259010772Y-170662152D01*
X259010772Y-170566914D01*
X258963153Y-170471676D01*
X258915534Y-170424057D01*
X258820296Y-170376438D01*
X258629820Y-170328819D01*
X258391725Y-170328819D01*
X258201249Y-170376438D01*
X258106011Y-170424057D01*
X258058392Y-170471676D01*
X258010772Y-170566914D01*
X225197142Y-270258390D02*
X225244761Y-270210771D01*
X225292380Y-270067914D01*
X225292380Y-269972676D01*
X225244761Y-269829819D01*
X225149523Y-269734580D01*
X225054285Y-269686961D01*
X224863809Y-269639342D01*
X224720952Y-269639342D01*
X224530476Y-269686961D01*
X224435238Y-269734580D01*
X224340000Y-269829819D01*
X224292380Y-269972676D01*
X224292380Y-270067914D01*
X224340000Y-270210771D01*
X224387619Y-270258390D01*
X225292380Y-270829819D02*
X225244761Y-270734580D01*
X225197142Y-270686961D01*
X225101904Y-270639342D01*
X224816190Y-270639342D01*
X224720952Y-270686961D01*
X224673333Y-270734580D01*
X224625714Y-270829819D01*
X224625714Y-270972676D01*
X224673333Y-271067914D01*
X224720952Y-271115533D01*
X224816190Y-271163152D01*
X225101904Y-271163152D01*
X225197142Y-271115533D01*
X225244761Y-271067914D01*
X225292380Y-270972676D01*
X225292380Y-270829819D01*
X224625714Y-271591723D02*
X225292380Y-271591723D01*
X224720952Y-271591723D02*
X224673333Y-271639342D01*
X224625714Y-271734580D01*
X224625714Y-271877438D01*
X224673333Y-271972676D01*
X224768571Y-272020295D01*
X225292380Y-272020295D01*
X224625714Y-272496485D02*
X225292380Y-272496485D01*
X224720952Y-272496485D02*
X224673333Y-272544104D01*
X224625714Y-272639342D01*
X224625714Y-272782200D01*
X224673333Y-272877438D01*
X224768571Y-272925057D01*
X225292380Y-272925057D01*
X224387619Y-273353628D02*
X224340000Y-273401247D01*
X224292380Y-273496485D01*
X224292380Y-273734580D01*
X224340000Y-273829819D01*
X224387619Y-273877438D01*
X224482857Y-273925057D01*
X224578095Y-273925057D01*
X224720952Y-273877438D01*
X225292380Y-273306009D01*
X225292380Y-273925057D01*
X278002222Y-166281200D02*
X278049841Y-166233580D01*
X278097460Y-166090723D01*
X278097460Y-165995485D01*
X278049841Y-165852628D01*
X277954603Y-165757390D01*
X277859365Y-165709771D01*
X277668889Y-165662152D01*
X277526032Y-165662152D01*
X277335556Y-165709771D01*
X277240318Y-165757390D01*
X277145080Y-165852628D01*
X277097460Y-165995485D01*
X277097460Y-166090723D01*
X277145080Y-166233580D01*
X277192699Y-166281200D01*
X278097460Y-166852628D02*
X278049841Y-166757390D01*
X278002222Y-166709771D01*
X277906984Y-166662152D01*
X277621270Y-166662152D01*
X277526032Y-166709771D01*
X277478413Y-166757390D01*
X277430794Y-166852628D01*
X277430794Y-166995485D01*
X277478413Y-167090723D01*
X277526032Y-167138342D01*
X277621270Y-167185961D01*
X277906984Y-167185961D01*
X278002222Y-167138342D01*
X278049841Y-167090723D01*
X278097460Y-166995485D01*
X278097460Y-166852628D01*
X277430794Y-167614533D02*
X278097460Y-167614533D01*
X277526032Y-167614533D02*
X277478413Y-167662152D01*
X277430794Y-167757390D01*
X277430794Y-167900247D01*
X277478413Y-167995485D01*
X277573651Y-168043104D01*
X278097460Y-168043104D01*
X277430794Y-168519295D02*
X278097460Y-168519295D01*
X277526032Y-168519295D02*
X277478413Y-168566914D01*
X277430794Y-168662152D01*
X277430794Y-168805009D01*
X277478413Y-168900247D01*
X277573651Y-168947866D01*
X278097460Y-168947866D01*
X277192699Y-169376438D02*
X277145080Y-169424057D01*
X277097460Y-169519295D01*
X277097460Y-169757390D01*
X277145080Y-169852628D01*
X277192699Y-169900247D01*
X277287937Y-169947866D01*
X277383175Y-169947866D01*
X277526032Y-169900247D01*
X278097460Y-169328819D01*
X278097460Y-169947866D01*
X277192699Y-170328819D02*
X277145080Y-170376438D01*
X277097460Y-170471676D01*
X277097460Y-170709771D01*
X277145080Y-170805009D01*
X277192699Y-170852628D01*
X277287937Y-170900247D01*
X277383175Y-170900247D01*
X277526032Y-170852628D01*
X278097460Y-170281200D01*
X278097460Y-170900247D01*
X274442069Y-284140248D02*
X273299069Y-284140248D01*
X274442069Y-284140248D02*
X277718669Y-284140248D01*
X272156069Y-281854248D02*
X272156069Y-282997248D01*
X272181469Y-294173248D02*
X272181469Y-285283248D01*
X269870069Y-284140248D02*
X266568069Y-284140248D01*
X264282069Y-286426248D02*
X264282069Y-294173248D01*
X280030069Y-281854248D02*
X280030069Y-269560648D01*
X264282069Y-281828848D02*
X264282069Y-283022648D01*
X278887069Y-284140248D02*
X277718669Y-284140248D01*
X280030069Y-269560648D02*
X264282069Y-269560648D01*
X269870069Y-284140248D02*
X271013069Y-284140248D01*
X266593469Y-284140248D02*
X265425069Y-284140248D01*
X280030069Y-285283248D02*
X280030069Y-286502448D01*
X280030069Y-294198648D02*
X264282069Y-294198648D01*
X264282069Y-286451648D02*
X264282069Y-285283248D01*
X264282069Y-281854248D02*
X264282069Y-269560648D01*
X280030069Y-281879648D02*
X280030069Y-282971848D01*
X272156069Y-281854248D02*
X272156069Y-269560648D01*
X280030069Y-294173248D02*
X280030069Y-286426248D01*
X265399669Y-284140248D02*
G75*
G03*
X264282069Y-283022648I-1117598J2D01*
G01*
X278887069Y-284140248D02*
G75*
G03*
X280030069Y-285283248I1143000J0D01*
G01*
X264282069Y-285257848D02*
G75*
G03*
X265399669Y-284140248I2J1117598D01*
G01*
X280030069Y-282997248D02*
G75*
G03*
X278887069Y-284140248I0J-1143000D01*
G01*
X273299069Y-284140248D02*
G75*
G03*
X273299069Y-284140248I-1143000J0D01*
G01*
X166919480Y-155645600D02*
X168087880Y-155645600D01*
X175936480Y-155645600D02*
X179238480Y-155645600D01*
X165776480Y-154502600D02*
X165776480Y-153283400D01*
X173650480Y-157931600D02*
X173650480Y-170225200D01*
X165776480Y-157906200D02*
X165776480Y-156814000D01*
X181524480Y-153334200D02*
X181524480Y-154502600D01*
X173625080Y-145612600D02*
X173625080Y-154502600D01*
X165776480Y-157931600D02*
X165776480Y-170225200D01*
X181524480Y-157957000D02*
X181524480Y-156763200D01*
X171364480Y-155645600D02*
X172507480Y-155645600D01*
X175936480Y-155645600D02*
X174793480Y-155645600D01*
X179213080Y-155645600D02*
X180381480Y-155645600D01*
X165776480Y-170225200D02*
X181524480Y-170225200D01*
X181524480Y-157931600D02*
X181524480Y-170225200D01*
X165776480Y-145587200D02*
X181524480Y-145587200D01*
X171364480Y-155645600D02*
X168087880Y-155645600D01*
X173650480Y-157931600D02*
X173650480Y-156788600D01*
X165776480Y-145612600D02*
X165776480Y-153359600D01*
X181524480Y-153359600D02*
X181524480Y-145612600D01*
X165776480Y-156788600D02*
G75*
G03*
X166919480Y-155645600I0J1143000D01*
G01*
X181524480Y-154528000D02*
G75*
G03*
X180406880Y-155645600I-2J-1117598D01*
G01*
X180406880Y-155645600D02*
G75*
G03*
X181524480Y-156763200I1117598J-2D01*
G01*
X166919480Y-155645600D02*
G75*
G03*
X165776480Y-154502600I-1143000J0D01*
G01*
X174793480Y-155645600D02*
G75*
G03*
X174793480Y-155645600I-1143000J0D01*
G01*
X236121304Y-155645600D02*
X237289704Y-155645600D01*
X230558704Y-157931600D02*
X230558704Y-170225200D01*
X238432704Y-157957000D02*
X238432704Y-156763200D01*
X222684704Y-157906200D02*
X222684704Y-156814000D01*
X232844704Y-155645600D02*
X231701704Y-155645600D01*
X222684704Y-145587200D02*
X238432704Y-145587200D01*
X232844704Y-155645600D02*
X236146704Y-155645600D01*
X230533304Y-145612600D02*
X230533304Y-154502600D01*
X238432704Y-153334200D02*
X238432704Y-154502600D01*
X238432704Y-153359600D02*
X238432704Y-145612600D01*
X238432704Y-157931600D02*
X238432704Y-170225200D01*
X228272704Y-155645600D02*
X224996104Y-155645600D01*
X228272704Y-155645600D02*
X229415704Y-155645600D01*
X230558704Y-157931600D02*
X230558704Y-156788600D01*
X222684704Y-170225200D02*
X238432704Y-170225200D01*
X222684704Y-145612600D02*
X222684704Y-153359600D01*
X222684704Y-157931600D02*
X222684704Y-170225200D01*
X222684704Y-154502600D02*
X222684704Y-153283400D01*
X223827704Y-155645600D02*
X224996104Y-155645600D01*
X237315104Y-155645600D02*
G75*
G03*
X238432704Y-156763200I1117598J-2D01*
G01*
X238432704Y-154528000D02*
G75*
G03*
X237315104Y-155645600I-2J-1117598D01*
G01*
X222684704Y-156788600D02*
G75*
G03*
X223827704Y-155645600I0J1143000D01*
G01*
X223827704Y-155645600D02*
G75*
G03*
X222684704Y-154502600I-1143000J0D01*
G01*
X231701704Y-155645600D02*
G75*
G03*
X231701704Y-155645600I-1143000J0D01*
G01*
X244968004Y-286729200D02*
X244968004Y-285560800D01*
X260716004Y-294476200D02*
X244968004Y-294476200D01*
X252867404Y-294450800D02*
X252867404Y-285560800D01*
X250556004Y-284417800D02*
X251699004Y-284417800D01*
X250556004Y-284417800D02*
X247254004Y-284417800D01*
X244968004Y-282106400D02*
X244968004Y-283300200D01*
X255128004Y-284417800D02*
X258404604Y-284417800D01*
X252842004Y-282131800D02*
X252842004Y-283274800D01*
X244968004Y-282131800D02*
X244968004Y-269838200D01*
X247279404Y-284417800D02*
X246111004Y-284417800D01*
X244968004Y-286703800D02*
X244968004Y-294450800D01*
X260716004Y-282131800D02*
X260716004Y-269838200D01*
X255128004Y-284417800D02*
X253985004Y-284417800D01*
X259573004Y-284417800D02*
X258404604Y-284417800D01*
X260716004Y-269838200D02*
X244968004Y-269838200D01*
X260716004Y-294450800D02*
X260716004Y-286703800D01*
X260716004Y-282157200D02*
X260716004Y-283249400D01*
X260716004Y-285560800D02*
X260716004Y-286780000D01*
X252842004Y-282131800D02*
X252842004Y-269838200D01*
X246085604Y-284417800D02*
G75*
G03*
X244968004Y-283300200I-1117598J2D01*
G01*
X244968004Y-285535400D02*
G75*
G03*
X246085604Y-284417800I2J1117598D01*
G01*
X260716004Y-283274800D02*
G75*
G03*
X259573004Y-284417800I0J-1143000D01*
G01*
X259573004Y-284417800D02*
G75*
G03*
X260716004Y-285560800I1143000J0D01*
G01*
X253985004Y-284417800D02*
G75*
G03*
X253985004Y-284417800I-1143000J0D01*
G01*
X206790212Y-286703800D02*
X206790212Y-294450800D01*
X212378212Y-284417800D02*
X213521212Y-284417800D01*
X214689612Y-294450800D02*
X214689612Y-285560800D01*
X222538212Y-269838200D02*
X206790212Y-269838200D01*
X216950212Y-284417800D02*
X215807212Y-284417800D01*
X222538212Y-285560800D02*
X222538212Y-286780000D01*
X216950212Y-284417800D02*
X220226812Y-284417800D01*
X214664212Y-282131800D02*
X214664212Y-283274800D01*
X206790212Y-286729200D02*
X206790212Y-285560800D01*
X209101612Y-284417800D02*
X207933212Y-284417800D01*
X222538212Y-294450800D02*
X222538212Y-286703800D01*
X206790212Y-282106400D02*
X206790212Y-283300200D01*
X222538212Y-294476200D02*
X206790212Y-294476200D01*
X222538212Y-282157200D02*
X222538212Y-283249400D01*
X214664212Y-282131800D02*
X214664212Y-269838200D01*
X221395212Y-284417800D02*
X220226812Y-284417800D01*
X222538212Y-282131800D02*
X222538212Y-269838200D01*
X206790212Y-282131800D02*
X206790212Y-269838200D01*
X212378212Y-284417800D02*
X209076212Y-284417800D01*
X206790212Y-285535400D02*
G75*
G03*
X207907812Y-284417800I2J1117598D01*
G01*
X221395212Y-284417800D02*
G75*
G03*
X222538212Y-285560800I1143000J0D01*
G01*
X222538212Y-283274800D02*
G75*
G03*
X221395212Y-284417800I0J-1143000D01*
G01*
X207907812Y-284417800D02*
G75*
G03*
X206790212Y-283300200I-1117598J2D01*
G01*
X215807212Y-284417800D02*
G75*
G03*
X215807212Y-284417800I-1143000J0D01*
G01*
X194684028Y-155645600D02*
X197986028Y-155645600D01*
X184524028Y-170225200D02*
X200272028Y-170225200D01*
X184524028Y-145612600D02*
X184524028Y-153359600D01*
X184524028Y-154502600D02*
X184524028Y-153283400D01*
X192398028Y-157931600D02*
X192398028Y-170225200D01*
X184524028Y-157931600D02*
X184524028Y-170225200D01*
X194684028Y-155645600D02*
X193541028Y-155645600D01*
X200272028Y-157931600D02*
X200272028Y-170225200D01*
X190112028Y-155645600D02*
X186835428Y-155645600D01*
X184524028Y-157906200D02*
X184524028Y-156814000D01*
X197960628Y-155645600D02*
X199129028Y-155645600D01*
X192372628Y-145612600D02*
X192372628Y-154502600D01*
X200272028Y-153334200D02*
X200272028Y-154502600D01*
X200272028Y-157957000D02*
X200272028Y-156763200D01*
X184524028Y-145587200D02*
X200272028Y-145587200D01*
X190112028Y-155645600D02*
X191255028Y-155645600D01*
X200272028Y-153359600D02*
X200272028Y-145612600D01*
X185667028Y-155645600D02*
X186835428Y-155645600D01*
X192398028Y-157931600D02*
X192398028Y-156788600D01*
X199154428Y-155645600D02*
G75*
G03*
X200272028Y-156763200I1117598J-2D01*
G01*
X200272028Y-154528000D02*
G75*
G03*
X199154428Y-155645600I-2J-1117598D01*
G01*
X185667028Y-155645600D02*
G75*
G03*
X184524028Y-154502600I-1143000J0D01*
G01*
X184524028Y-156788600D02*
G75*
G03*
X185667028Y-155645600I0J1143000D01*
G01*
X193541028Y-155645600D02*
G75*
G03*
X193541028Y-155645600I-1143000J0D01*
G01*
X211472016Y-157931600D02*
X211472016Y-156788600D01*
X203598016Y-157931600D02*
X203598016Y-170225200D01*
X213758016Y-155645600D02*
X217060016Y-155645600D01*
X211446616Y-145612600D02*
X211446616Y-154502600D01*
X209186016Y-155645600D02*
X210329016Y-155645600D01*
X203598016Y-154502600D02*
X203598016Y-153283400D01*
X219346016Y-157931600D02*
X219346016Y-170225200D01*
X203598016Y-157906200D02*
X203598016Y-156814000D01*
X203598016Y-145612600D02*
X203598016Y-153359600D01*
X219346016Y-153334200D02*
X219346016Y-154502600D01*
X213758016Y-155645600D02*
X212615016Y-155645600D01*
X217034616Y-155645600D02*
X218203016Y-155645600D01*
X209186016Y-155645600D02*
X205909416Y-155645600D01*
X203598016Y-145587200D02*
X219346016Y-145587200D01*
X219346016Y-153359600D02*
X219346016Y-145612600D01*
X204741016Y-155645600D02*
X205909416Y-155645600D01*
X203598016Y-170225200D02*
X219346016Y-170225200D01*
X219346016Y-157957000D02*
X219346016Y-156763200D01*
X211472016Y-157931600D02*
X211472016Y-170225200D01*
X218228416Y-155645600D02*
G75*
G03*
X219346016Y-156763200I1117598J-2D01*
G01*
X204741016Y-155645600D02*
G75*
G03*
X203598016Y-154502600I-1143000J0D01*
G01*
X203598016Y-156788600D02*
G75*
G03*
X204741016Y-155645600I0J1143000D01*
G01*
X219346016Y-154528000D02*
G75*
G03*
X218228416Y-155645600I-2J-1117598D01*
G01*
X212615016Y-155645600D02*
G75*
G03*
X212615016Y-155645600I-1143000J0D01*
G01*
X241771392Y-145587200D02*
X257519392Y-145587200D01*
X257519392Y-153334200D02*
X257519392Y-154502600D01*
X257519392Y-157957000D02*
X257519392Y-156763200D01*
X251931392Y-155645600D02*
X250788392Y-155645600D01*
X241771392Y-170225200D02*
X257519392Y-170225200D01*
X247359392Y-155645600D02*
X248502392Y-155645600D01*
X251931392Y-155645600D02*
X255233392Y-155645600D01*
X257519392Y-157931600D02*
X257519392Y-170225200D01*
X241771392Y-157906200D02*
X241771392Y-156814000D01*
X241771392Y-145612600D02*
X241771392Y-153359600D01*
X247359392Y-155645600D02*
X244082792Y-155645600D01*
X255207992Y-155645600D02*
X256376392Y-155645600D01*
X257519392Y-153359600D02*
X257519392Y-145612600D01*
X249619992Y-145612600D02*
X249619992Y-154502600D01*
X242914392Y-155645600D02*
X244082792Y-155645600D01*
X249645392Y-157931600D02*
X249645392Y-170225200D01*
X241771392Y-157931600D02*
X241771392Y-170225200D01*
X241771392Y-154502600D02*
X241771392Y-153283400D01*
X249645392Y-157931600D02*
X249645392Y-156788600D01*
X241771392Y-156788600D02*
G75*
G03*
X242914392Y-155645600I0J1143000D01*
G01*
X257519392Y-154528000D02*
G75*
G03*
X256401792Y-155645600I-2J-1117598D01*
G01*
X256401792Y-155645600D02*
G75*
G03*
X257519392Y-156763200I1117598J-2D01*
G01*
X242914392Y-155645600D02*
G75*
G03*
X241771392Y-154502600I-1143000J0D01*
G01*
X250788392Y-155645600D02*
G75*
G03*
X250788392Y-155645600I-1143000J0D01*
G01*
X225879000Y-282106400D02*
X225879000Y-283300200D01*
X225879000Y-282131800D02*
X225879000Y-269838200D01*
X241627000Y-282157200D02*
X241627000Y-283249400D01*
X231467000Y-284417800D02*
X232610000Y-284417800D01*
X225879000Y-286729200D02*
X225879000Y-285560800D01*
X233778400Y-294450800D02*
X233778400Y-285560800D01*
X241627000Y-294476200D02*
X225879000Y-294476200D01*
X241627000Y-282131800D02*
X241627000Y-269838200D01*
X241627000Y-294450800D02*
X241627000Y-286703800D01*
X228190400Y-284417800D02*
X227022000Y-284417800D01*
X241627000Y-269838200D02*
X225879000Y-269838200D01*
X236039000Y-284417800D02*
X234896000Y-284417800D01*
X241627000Y-285560800D02*
X241627000Y-286780000D01*
X240484000Y-284417800D02*
X239315600Y-284417800D01*
X231467000Y-284417800D02*
X228165000Y-284417800D01*
X236039000Y-284417800D02*
X239315600Y-284417800D01*
X225879000Y-286703800D02*
X225879000Y-294450800D01*
X233753000Y-282131800D02*
X233753000Y-269838200D01*
X233753000Y-282131800D02*
X233753000Y-283274800D01*
X225879000Y-285535400D02*
G75*
G03*
X226996600Y-284417800I2J1117598D01*
G01*
X241627000Y-283274800D02*
G75*
G03*
X240484000Y-284417800I0J-1143000D01*
G01*
X240484000Y-284417800D02*
G75*
G03*
X241627000Y-285560800I1143000J0D01*
G01*
X226996600Y-284417800D02*
G75*
G03*
X225879000Y-283300200I-1117598J2D01*
G01*
X234896000Y-284417800D02*
G75*
G03*
X234896000Y-284417800I-1143000J0D01*
G01*
X262001080Y-155645600D02*
X263169480Y-155645600D01*
X260858080Y-145587200D02*
X276606080Y-145587200D01*
X276606080Y-153334200D02*
X276606080Y-154502600D01*
X260858080Y-154502600D02*
X260858080Y-153283400D01*
X260858080Y-157931600D02*
X260858080Y-170225200D01*
X268732080Y-157931600D02*
X268732080Y-170225200D01*
X271018080Y-155645600D02*
X274320080Y-155645600D01*
X276606080Y-157931600D02*
X276606080Y-170225200D01*
X260858080Y-145612600D02*
X260858080Y-153359600D01*
X276606080Y-157957000D02*
X276606080Y-156763200D01*
X266446080Y-155645600D02*
X263169480Y-155645600D01*
X266446080Y-155645600D02*
X267589080Y-155645600D01*
X276606080Y-153359600D02*
X276606080Y-145612600D01*
X260858080Y-170225200D02*
X276606080Y-170225200D01*
X268706680Y-145612600D02*
X268706680Y-154502600D01*
X274294680Y-155645600D02*
X275463080Y-155645600D01*
X271018080Y-155645600D02*
X269875080Y-155645600D01*
X268732080Y-157931600D02*
X268732080Y-156788600D01*
X260858080Y-157906200D02*
X260858080Y-156814000D01*
X262001080Y-155645600D02*
G75*
G03*
X260858080Y-154502600I-1143000J0D01*
G01*
X276606080Y-154528000D02*
G75*
G03*
X275488480Y-155645600I-2J-1117598D01*
G01*
X260858080Y-156788600D02*
G75*
G03*
X262001080Y-155645600I0J1143000D01*
G01*
X275488480Y-155645600D02*
G75*
G03*
X276606080Y-156763200I1117598J-2D01*
G01*
X269875080Y-155645600D02*
G75*
G03*
X269875080Y-155645600I-1143000J0D01*
G01*
%LPC*%
D11*
X285623000Y-159893000D03*
D12*
X184563000Y-261363000D03*
D13*
X184563000Y-259363000D03*
X186563000Y-261363000D03*
X186563000Y-259363000D03*
X188563000Y-261363000D03*
X188563000Y-259363000D03*
D14*
X168224200Y-226810000D03*
D15*
X165684200Y-226810000D03*
D14*
X168224200Y-243078000D03*
D15*
X165684200Y-243078000D03*
D16*
X175260000Y-282067000D03*
X172720000Y-282067000D03*
X170180000Y-282067000D03*
D14*
X168224200Y-210566000D03*
D15*
X165684200Y-210566000D03*
D14*
X273634200Y-226822000D03*
D15*
X271094200Y-226822000D03*
X268554200Y-226822000D03*
D14*
X273634200Y-251194000D03*
D15*
X271094200Y-251194000D03*
X268554200Y-251194000D03*
D11*
X285496000Y-283464000D03*
D14*
X273634200Y-234950000D03*
D15*
X271094200Y-234950000D03*
X268554200Y-234950000D03*
D14*
X168224200Y-234938000D03*
D15*
X165684200Y-234938000D03*
D14*
X168224200Y-218682000D03*
D15*
X165684200Y-218682000D03*
D14*
X273634200Y-218682000D03*
D15*
X271094200Y-218682000D03*
X268554200Y-218682000D03*
D14*
X160630000Y-194552000D03*
D15*
X158090000Y-194552000D03*
D11*
X156381580Y-283546420D03*
D14*
X168224200Y-251194000D03*
D15*
X165684200Y-251194000D03*
D17*
X203042000Y-229729500D03*
X205582000Y-229729500D03*
X208122000Y-229729500D03*
X210662000Y-229729500D03*
X236062000Y-229729500D03*
X205582000Y-214489500D03*
X213202000Y-229729500D03*
X215742000Y-229729500D03*
X218282000Y-229729500D03*
X220822000Y-229729500D03*
X223362000Y-229729500D03*
X225902000Y-229729500D03*
X228442000Y-229729500D03*
X230982000Y-229729500D03*
X233522000Y-229729500D03*
X233522000Y-214489500D03*
X230982000Y-214489500D03*
X228442000Y-214489500D03*
X225902000Y-214489500D03*
X223362000Y-214489500D03*
X220822000Y-214489500D03*
X218282000Y-214489500D03*
X215742000Y-214489500D03*
X213202000Y-214489500D03*
X210662000Y-214489500D03*
X208122000Y-214489500D03*
X238602000Y-229729500D03*
X241142000Y-229729500D03*
X243682000Y-229729500D03*
X246222000Y-229729500D03*
X248762000Y-229729500D03*
X251302000Y-229729500D03*
X253842000Y-229729500D03*
X256382000Y-229729500D03*
X258922000Y-229729500D03*
X258922000Y-214489500D03*
X256382000Y-214489500D03*
X253842000Y-214489500D03*
X251302000Y-214489500D03*
X248762000Y-214489500D03*
X246222000Y-214489500D03*
X243682000Y-214489500D03*
X241142000Y-214489500D03*
X238602000Y-214489500D03*
X200502000Y-229729500D03*
X236062000Y-214489500D03*
X203042000Y-214489500D03*
X200502000Y-214489500D03*
D11*
X156464000Y-159893000D03*
D14*
X273634200Y-210554000D03*
D15*
X271094200Y-210554000D03*
X268554200Y-210554000D03*
D14*
X160630000Y-174994000D03*
D15*
X158090000Y-174994000D03*
D18*
X185930000Y-267048000D03*
X187200000Y-264508000D03*
X188470000Y-267048000D03*
X189740000Y-264508000D03*
X191010000Y-267048000D03*
X192280000Y-264508000D03*
X193550000Y-267048000D03*
X194820000Y-264508000D03*
D19*
X184050000Y-278478000D03*
X186590000Y-276688000D03*
X194160000Y-278478000D03*
X196700000Y-276688000D03*
D20*
X184660000Y-273398000D03*
X196090000Y-273398000D03*
D21*
X182500000Y-270348000D03*
X198250000Y-270348000D03*
D14*
X273634200Y-243066000D03*
D15*
X271094200Y-243066000D03*
X268554200Y-243066000D03*
D22*
X267843000Y-266256800D03*
X275717000Y-266256800D03*
X169713480Y-173806600D03*
X177587480Y-173806600D03*
X226621704Y-173806600D03*
X234495704Y-173806600D03*
X256779004Y-266256800D03*
X248905004Y-266256800D03*
X218601212Y-266256800D03*
X210727212Y-266256800D03*
X188461028Y-173806600D03*
X196335028Y-173806600D03*
X207535016Y-173806600D03*
X215409016Y-173806600D03*
X245708392Y-173806600D03*
X253582392Y-173806600D03*
X237690000Y-266256800D03*
X229816000Y-266256800D03*
X264795080Y-173806600D03*
X272669080Y-173806600D03*
M02*
