M48
; DRILL file {KiCad (5.1.10)-1} date 12/04/21 16:47:40
; FORMAT={-:-/ absolute / inch / decimal}
; #@! TF.CreationDate,2021-12-04T16:47:40-06:00
; #@! TF.GenerationSoftware,Kicad,Pcbnew,(5.1.10)-1
; #@! TF.FileFunction,NonPlated,1,2,NPTH
FMAT,2
INCH
T1C0.1358
%
G90
G05
T1
X7.7724Y-0.6848
X7.9625Y-0.685
X8.1294Y-0.6848
X8.3195Y-0.685
X8.4849Y-0.6848
X8.675Y-0.685
X8.8419Y-0.6848
X9.032Y-0.685
X9.1979Y-0.6848
X9.388Y-0.685
X9.5554Y-0.6848
X9.7455Y-0.685
X10.34Y-1.165
X10.34Y-1.465
X10.34Y-1.728
X10.34Y-2.028
X10.34Y-2.291
X10.34Y-2.591
X10.34Y-2.854
X10.34Y-3.154
X10.34Y-3.417
X10.34Y-3.717
X10.34Y-3.98
X10.34Y-4.28
T0
M30
