G04 #@! TF.GenerationSoftware,KiCad,Pcbnew,(5.1.5)-2*
G04 #@! TF.CreationDate,2019-12-06T21:13:19-06:00*
G04 #@! TF.ProjectId,ArmBoard_Hardware,41726d42-6f61-4726-945f-486172647761,rev?*
G04 #@! TF.SameCoordinates,Original*
G04 #@! TF.FileFunction,Paste,Bot*
G04 #@! TF.FilePolarity,Positive*
%FSLAX46Y46*%
G04 Gerber Fmt 4.6, Leading zero omitted, Abs format (unit mm)*
G04 Created by KiCad (PCBNEW (5.1.5)-2) date 2019-12-06 21:13:19*
%MOMM*%
%LPD*%
G04 APERTURE LIST*
%ADD10R,0.990600X1.778000*%
G04 APERTURE END LIST*
D10*
X97790000Y-50393600D03*
X74930000Y-99466400D03*
X77470000Y-99466400D03*
X85090000Y-99466400D03*
X87630000Y-56286400D03*
X82550000Y-99466400D03*
X80010000Y-99466400D03*
X82550000Y-50393600D03*
X77470000Y-56286400D03*
X87630000Y-99466400D03*
X90170000Y-99466400D03*
X77470000Y-50393600D03*
X82550000Y-56286400D03*
X85090000Y-56286400D03*
X97790000Y-56286400D03*
X95250000Y-56286400D03*
X92710000Y-56286400D03*
X90170000Y-56286400D03*
X80010000Y-56286400D03*
X74930000Y-56286400D03*
X95250000Y-50393600D03*
X92710000Y-50393600D03*
X90170000Y-50393600D03*
X87630000Y-50393600D03*
X85090000Y-50393600D03*
X80010000Y-50393600D03*
X74930000Y-50393600D03*
X97790000Y-93573600D03*
X95250000Y-93573600D03*
X92710000Y-93573600D03*
X90170000Y-93573600D03*
X87630000Y-93573600D03*
X85090000Y-93573600D03*
X82550000Y-93573600D03*
X80010000Y-93573600D03*
X77470000Y-93573600D03*
X74930000Y-93573600D03*
X97790000Y-99466400D03*
X95250000Y-99466400D03*
X92710000Y-99466400D03*
X161290000Y-56286400D03*
X158750000Y-56286400D03*
X156210000Y-56286400D03*
X153670000Y-56286400D03*
X151130000Y-56286400D03*
X148590000Y-56286400D03*
X146050000Y-56286400D03*
X143510000Y-56286400D03*
X140970000Y-56286400D03*
X138430000Y-56286400D03*
X161290000Y-50393600D03*
X158750000Y-50393600D03*
X156210000Y-50393600D03*
X153670000Y-50393600D03*
X151130000Y-50393600D03*
X148590000Y-50393600D03*
X146050000Y-50393600D03*
X143510000Y-50393600D03*
X140970000Y-50393600D03*
X138430000Y-50393600D03*
X161290000Y-93573600D03*
X158750000Y-93573600D03*
X156210000Y-93573600D03*
X153670000Y-93573600D03*
X151130000Y-93573600D03*
X148590000Y-93573600D03*
X146050000Y-93573600D03*
X143510000Y-93573600D03*
X140970000Y-93573600D03*
X138430000Y-93573600D03*
X161290000Y-99466400D03*
X158750000Y-99466400D03*
X156210000Y-99466400D03*
X153670000Y-99466400D03*
X151130000Y-99466400D03*
X148590000Y-99466400D03*
X146050000Y-99466400D03*
X143510000Y-99466400D03*
X140970000Y-99466400D03*
X138430000Y-99466400D03*
M02*
