  0
SECTION
  2
HEADER
  9
$ANGBASE
  50
0.0
  9
$ANGDIR
  70
  1
  9
$MEASUREMENT
  70
0
  0
ENDSEC
  0
SECTION
  2
TABLES
  0
TABLE
  2
LTYPE
  70
4
  0
LTYPE
  5
40F
  2
CONTINUOUS
  70
0
  3
Solid line
  72
65
  73
0
  40
0.0
  0
LTYPE
  5
410
  2
DASHDOT
 70
0
  3
Dash Dot ____ _ ____ _
 72
65
 73
4
 40
2.0
 49
1.25
 49
-0.25
 49
0.25
 49
-0.25
  0
LTYPE
  5
411
  2
DASHED
 70
0
  3
Dashed __ __ __ __ __
 72
65
 73
2
 40
0.75
 49
0.5
 49
-0.25
  0
LTYPE
  5
43B
  2
DOTTED
 70
0
  3
Dotted .  .  .  .
 72
65
 73
2
 40
0.2
 49
0.0
 49
-0.2
  0
ENDTAB
  0
TABLE
  2
STYLE
  70
4
  0
STYLE
  2
KICAD
  70
0
  40
0
  41
1
  42
1
  50
0
  71
0
  3
isocp.shx
  0
STYLE
  2
KICADB
  70
0
  40
0
  41
1
  42
1
  50
0
  71
0
  3
isocp.shx
  0
STYLE
  2
KICADI
  70
0
  40
0
  41
1
  42
1
  50
15
  71
0
  3
isocp.shx
  0
STYLE
  2
KICADBI
  70
0
  40
0
  41
1
  42
1
  50
15
  71
0
  3
isocp.shx
  0
ENDTAB
  0
TABLE
  2
LAYER
  70
30
  0
LAYER
  2
BLACK
  70
0
  62
7
  6
CONTINUOUS
  0
LAYER
  2
GRAY1
  70
0
  62
251
  6
CONTINUOUS
  0
LAYER
  2
GRAY2
  70
0
  62
8
  6
CONTINUOUS
  0
LAYER
  2
GRAY3
  70
0
  62
9
  6
CONTINUOUS
  0
LAYER
  2
WHITE
  70
0
  62
7
  6
CONTINUOUS
  0
LAYER
  2
LYELLOW
  70
0
  62
51
  6
CONTINUOUS
  0
LAYER
  2
BLUE1
  70
0
  62
178
  6
CONTINUOUS
  0
LAYER
  2
GREEN1
  70
0
  62
98
  6
CONTINUOUS
  0
LAYER
  2
CYAN1
  70
0
  62
138
  6
CONTINUOUS
  0
LAYER
  2
RED1
  70
0
  62
18
  6
CONTINUOUS
  0
LAYER
  2
MAGENTA1
  70
0
  62
228
  6
CONTINUOUS
  0
LAYER
  2
BROWN1
  70
0
  62
58
  6
CONTINUOUS
  0
LAYER
  2
BLUE2
  70
0
  62
5
  6
CONTINUOUS
  0
LAYER
  2
GREEN2
  70
0
  62
3
  6
CONTINUOUS
  0
LAYER
  2
CYAN2
  70
0
  62
4
  6
CONTINUOUS
  0
LAYER
  2
RED2
  70
0
  62
1
  6
CONTINUOUS
  0
LAYER
  2
MAGENTA2
  70
0
  62
6
  6
CONTINUOUS
  0
LAYER
  2
BROWN2
  70
0
  62
54
  6
CONTINUOUS
  0
LAYER
  2
BLUE3
  70
0
  62
171
  6
CONTINUOUS
  0
LAYER
  2
GREEN3
  70
0
  62
91
  6
CONTINUOUS
  0
LAYER
  2
CYAN3
  70
0
  62
131
  6
CONTINUOUS
  0
LAYER
  2
RED3
  70
0
  62
11
  6
CONTINUOUS
  0
LAYER
  2
MAGENTA3
  70
0
  62
221
  6
CONTINUOUS
  0
LAYER
  2
YELLOW3
  70
0
  62
2
  6
CONTINUOUS
  0
LAYER
  2
BLUE4
  70
0
  62
5
  6
CONTINUOUS
  0
LAYER
  2
GREEN4
  70
0
  62
3
  6
CONTINUOUS
  0
LAYER
  2
CYAN4
  70
0
  62
4
  6
CONTINUOUS
  0
LAYER
  2
RED4
  70
0
  62
1
  6
CONTINUOUS
  0
LAYER
  2
MAGENTA4
  70
0
  62
6
  6
CONTINUOUS
  0
LAYER
  2
YELLOW4
  70
0
  62
2
  6
CONTINUOUS
  0
ENDTAB
  0
ENDSEC
  0
SECTION
  2
ENTITIES
0
LINE
8
BLACK
6
CONTINUOUS
10
104.635
20
-139.725
11
103.645
21
-139.725
0
LINE
8
BLACK
6
CONTINUOUS
10
103.645
20
-139.725
11
103.645
21
-137.947
0
LINE
8
BLACK
6
CONTINUOUS
10
103.645
20
-137.947
11
104.635
21
-137.947
0
LINE
8
BLACK
6
CONTINUOUS
10
104.635
20
-137.947
11
104.635
21
-139.725
0
LINE
8
BLACK
6
CONTINUOUS
10
41.1353
20
-139.725
11
40.1447
21
-139.725
0
LINE
8
BLACK
6
CONTINUOUS
10
40.1447
20
-139.725
11
40.1447
21
-137.947
0
LINE
8
BLACK
6
CONTINUOUS
10
40.1447
20
-137.947
11
41.1353
21
-137.947
0
LINE
8
BLACK
6
CONTINUOUS
10
41.1353
20
-137.947
11
41.1353
21
-139.725
0
LINE
8
BLACK
6
CONTINUOUS
10
43.6753
20
-139.725
11
42.6847
21
-139.725
0
LINE
8
BLACK
6
CONTINUOUS
10
42.6847
20
-139.725
11
42.6847
21
-137.947
0
LINE
8
BLACK
6
CONTINUOUS
10
42.6847
20
-137.947
11
43.6753
21
-137.947
0
LINE
8
BLACK
6
CONTINUOUS
10
43.6753
20
-137.947
11
43.6753
21
-139.725
0
LINE
8
BLACK
6
CONTINUOUS
10
46.2153
20
-139.725
11
45.2247
21
-139.725
0
LINE
8
BLACK
6
CONTINUOUS
10
45.2247
20
-139.725
11
45.2247
21
-137.947
0
LINE
8
BLACK
6
CONTINUOUS
10
45.2247
20
-137.947
11
46.2153
21
-137.947
0
LINE
8
BLACK
6
CONTINUOUS
10
46.2153
20
-137.947
11
46.2153
21
-139.725
0
LINE
8
BLACK
6
CONTINUOUS
10
48.7553
20
-139.725
11
47.7647
21
-139.725
0
LINE
8
BLACK
6
CONTINUOUS
10
47.7647
20
-139.725
11
47.7647
21
-137.947
0
LINE
8
BLACK
6
CONTINUOUS
10
47.7647
20
-137.947
11
48.7553
21
-137.947
0
LINE
8
BLACK
6
CONTINUOUS
10
48.7553
20
-137.947
11
48.7553
21
-139.725
0
LINE
8
BLACK
6
CONTINUOUS
10
127.495
20
-139.725
11
126.505
21
-139.725
0
LINE
8
BLACK
6
CONTINUOUS
10
126.505
20
-139.725
11
126.505
21
-137.947
0
LINE
8
BLACK
6
CONTINUOUS
10
126.505
20
-137.947
11
127.495
21
-137.947
0
LINE
8
BLACK
6
CONTINUOUS
10
127.495
20
-137.947
11
127.495
21
-139.725
0
LINE
8
BLACK
6
CONTINUOUS
10
122.415
20
-139.725
11
121.425
21
-139.725
0
LINE
8
BLACK
6
CONTINUOUS
10
121.425
20
-139.725
11
121.425
21
-137.947
0
LINE
8
BLACK
6
CONTINUOUS
10
121.425
20
-137.947
11
122.415
21
-137.947
0
LINE
8
BLACK
6
CONTINUOUS
10
122.415
20
-137.947
11
122.415
21
-139.725
0
LINE
8
BLACK
6
CONTINUOUS
10
117.335
20
-139.725
11
116.345
21
-139.725
0
LINE
8
BLACK
6
CONTINUOUS
10
116.345
20
-139.725
11
116.345
21
-137.947
0
LINE
8
BLACK
6
CONTINUOUS
10
116.345
20
-137.947
11
117.335
21
-137.947
0
LINE
8
BLACK
6
CONTINUOUS
10
117.335
20
-137.947
11
117.335
21
-139.725
0
LINE
8
BLACK
6
CONTINUOUS
10
114.795
20
-139.725
11
113.805
21
-139.725
0
LINE
8
BLACK
6
CONTINUOUS
10
113.805
20
-139.725
11
113.805
21
-137.947
0
LINE
8
BLACK
6
CONTINUOUS
10
113.805
20
-137.947
11
114.795
21
-137.947
0
LINE
8
BLACK
6
CONTINUOUS
10
114.795
20
-137.947
11
114.795
21
-139.725
0
LINE
8
BLACK
6
CONTINUOUS
10
112.255
20
-139.725
11
111.265
21
-139.725
0
LINE
8
BLACK
6
CONTINUOUS
10
111.265
20
-139.725
11
111.265
21
-137.947
0
LINE
8
BLACK
6
CONTINUOUS
10
111.265
20
-137.947
11
112.255
21
-137.947
0
LINE
8
BLACK
6
CONTINUOUS
10
112.255
20
-137.947
11
112.255
21
-139.725
0
LINE
8
BLACK
6
CONTINUOUS
10
109.715
20
-139.725
11
108.725
21
-139.725
0
LINE
8
BLACK
6
CONTINUOUS
10
108.725
20
-139.725
11
108.725
21
-137.947
0
LINE
8
BLACK
6
CONTINUOUS
10
108.725
20
-137.947
11
109.715
21
-137.947
0
LINE
8
BLACK
6
CONTINUOUS
10
109.715
20
-137.947
11
109.715
21
-139.725
0
LINE
8
BLACK
6
CONTINUOUS
10
107.175
20
-139.725
11
106.185
21
-139.725
0
LINE
8
BLACK
6
CONTINUOUS
10
106.185
20
-139.725
11
106.185
21
-137.947
0
LINE
8
BLACK
6
CONTINUOUS
10
106.185
20
-137.947
11
107.175
21
-137.947
0
LINE
8
BLACK
6
CONTINUOUS
10
107.175
20
-137.947
11
107.175
21
-139.725
0
LINE
8
BLACK
6
CONTINUOUS
10
63.9953
20
-139.725
11
63.0047
21
-139.725
0
LINE
8
BLACK
6
CONTINUOUS
10
63.0047
20
-139.725
11
63.0047
21
-137.947
0
LINE
8
BLACK
6
CONTINUOUS
10
63.0047
20
-137.947
11
63.9953
21
-137.947
0
LINE
8
BLACK
6
CONTINUOUS
10
63.9953
20
-137.947
11
63.9953
21
-139.725
0
LINE
8
BLACK
6
CONTINUOUS
10
61.4553
20
-139.725
11
60.4647
21
-139.725
0
LINE
8
BLACK
6
CONTINUOUS
10
60.4647
20
-139.725
11
60.4647
21
-137.947
0
LINE
8
BLACK
6
CONTINUOUS
10
60.4647
20
-137.947
11
61.4553
21
-137.947
0
LINE
8
BLACK
6
CONTINUOUS
10
61.4553
20
-137.947
11
61.4553
21
-139.725
0
LINE
8
BLACK
6
CONTINUOUS
10
58.9153
20
-139.725
11
57.9247
21
-139.725
0
LINE
8
BLACK
6
CONTINUOUS
10
57.9247
20
-139.725
11
57.9247
21
-137.947
0
LINE
8
BLACK
6
CONTINUOUS
10
57.9247
20
-137.947
11
58.9153
21
-137.947
0
LINE
8
BLACK
6
CONTINUOUS
10
58.9153
20
-137.947
11
58.9153
21
-139.725
0
LINE
8
BLACK
6
CONTINUOUS
10
56.3753
20
-139.725
11
55.3847
21
-139.725
0
LINE
8
BLACK
6
CONTINUOUS
10
55.3847
20
-139.725
11
55.3847
21
-137.947
0
LINE
8
BLACK
6
CONTINUOUS
10
55.3847
20
-137.947
11
56.3753
21
-137.947
0
LINE
8
BLACK
6
CONTINUOUS
10
56.3753
20
-137.947
11
56.3753
21
-139.725
0
LINE
8
BLACK
6
CONTINUOUS
10
119.875
20
-139.725
11
118.885
21
-139.725
0
LINE
8
BLACK
6
CONTINUOUS
10
118.885
20
-139.725
11
118.885
21
-137.947
0
LINE
8
BLACK
6
CONTINUOUS
10
118.885
20
-137.947
11
119.875
21
-137.947
0
LINE
8
BLACK
6
CONTINUOUS
10
119.875
20
-137.947
11
119.875
21
-139.725
0
LINE
8
BLACK
6
CONTINUOUS
10
124.955
20
-139.725
11
123.965
21
-139.725
0
LINE
8
BLACK
6
CONTINUOUS
10
123.965
20
-139.725
11
123.965
21
-137.947
0
LINE
8
BLACK
6
CONTINUOUS
10
123.965
20
-137.947
11
124.955
21
-137.947
0
LINE
8
BLACK
6
CONTINUOUS
10
124.955
20
-137.947
11
124.955
21
-139.725
0
LINE
8
BLACK
6
CONTINUOUS
10
51.2953
20
-139.725
11
50.3047
21
-139.725
0
LINE
8
BLACK
6
CONTINUOUS
10
50.3047
20
-139.725
11
50.3047
21
-137.947
0
LINE
8
BLACK
6
CONTINUOUS
10
50.3047
20
-137.947
11
51.2953
21
-137.947
0
LINE
8
BLACK
6
CONTINUOUS
10
51.2953
20
-137.947
11
51.2953
21
-139.725
0
LINE
8
BLACK
6
CONTINUOUS
10
53.8353
20
-139.725
11
52.8447
21
-139.725
0
LINE
8
BLACK
6
CONTINUOUS
10
52.8447
20
-139.725
11
52.8447
21
-137.947
0
LINE
8
BLACK
6
CONTINUOUS
10
52.8447
20
-137.947
11
53.8353
21
-137.947
0
LINE
8
BLACK
6
CONTINUOUS
10
53.8353
20
-137.947
11
53.8353
21
-139.725
0
LINE
8
BLACK
6
CONTINUOUS
10
63.9953
20
-133.833
11
63.0047
21
-133.833
0
LINE
8
BLACK
6
CONTINUOUS
10
63.0047
20
-133.833
11
63.0047
21
-132.055
0
LINE
8
BLACK
6
CONTINUOUS
10
63.0047
20
-132.055
11
63.9953
21
-132.055
0
LINE
8
BLACK
6
CONTINUOUS
10
63.9953
20
-132.055
11
63.9953
21
-133.833
0
LINE
8
BLACK
6
CONTINUOUS
10
41.1353
20
-133.833
11
40.1447
21
-133.833
0
LINE
8
BLACK
6
CONTINUOUS
10
40.1447
20
-133.833
11
40.1447
21
-132.055
0
LINE
8
BLACK
6
CONTINUOUS
10
40.1447
20
-132.055
11
41.1353
21
-132.055
0
LINE
8
BLACK
6
CONTINUOUS
10
41.1353
20
-132.055
11
41.1353
21
-133.833
0
LINE
8
BLACK
6
CONTINUOUS
10
61.4553
20
-133.833
11
60.4647
21
-133.833
0
LINE
8
BLACK
6
CONTINUOUS
10
60.4647
20
-133.833
11
60.4647
21
-132.055
0
LINE
8
BLACK
6
CONTINUOUS
10
60.4647
20
-132.055
11
61.4553
21
-132.055
0
LINE
8
BLACK
6
CONTINUOUS
10
61.4553
20
-132.055
11
61.4553
21
-133.833
0
LINE
8
BLACK
6
CONTINUOUS
10
58.9153
20
-133.833
11
57.9247
21
-133.833
0
LINE
8
BLACK
6
CONTINUOUS
10
57.9247
20
-133.833
11
57.9247
21
-132.055
0
LINE
8
BLACK
6
CONTINUOUS
10
57.9247
20
-132.055
11
58.9153
21
-132.055
0
LINE
8
BLACK
6
CONTINUOUS
10
58.9153
20
-132.055
11
58.9153
21
-133.833
0
LINE
8
BLACK
6
CONTINUOUS
10
56.3753
20
-133.833
11
55.3847
21
-133.833
0
LINE
8
BLACK
6
CONTINUOUS
10
55.3847
20
-133.833
11
55.3847
21
-132.055
0
LINE
8
BLACK
6
CONTINUOUS
10
55.3847
20
-132.055
11
56.3753
21
-132.055
0
LINE
8
BLACK
6
CONTINUOUS
10
56.3753
20
-132.055
11
56.3753
21
-133.833
0
LINE
8
BLACK
6
CONTINUOUS
10
53.8353
20
-133.833
11
52.8447
21
-133.833
0
LINE
8
BLACK
6
CONTINUOUS
10
52.8447
20
-133.833
11
52.8447
21
-132.055
0
LINE
8
BLACK
6
CONTINUOUS
10
52.8447
20
-132.055
11
53.8353
21
-132.055
0
LINE
8
BLACK
6
CONTINUOUS
10
53.8353
20
-132.055
11
53.8353
21
-133.833
0
LINE
8
BLACK
6
CONTINUOUS
10
51.2953
20
-133.833
11
50.3047
21
-133.833
0
LINE
8
BLACK
6
CONTINUOUS
10
50.3047
20
-133.833
11
50.3047
21
-132.055
0
LINE
8
BLACK
6
CONTINUOUS
10
50.3047
20
-132.055
11
51.2953
21
-132.055
0
LINE
8
BLACK
6
CONTINUOUS
10
51.2953
20
-132.055
11
51.2953
21
-133.833
0
LINE
8
BLACK
6
CONTINUOUS
10
48.7553
20
-133.833
11
47.7647
21
-133.833
0
LINE
8
BLACK
6
CONTINUOUS
10
47.7647
20
-133.833
11
47.7647
21
-132.055
0
LINE
8
BLACK
6
CONTINUOUS
10
47.7647
20
-132.055
11
48.7553
21
-132.055
0
LINE
8
BLACK
6
CONTINUOUS
10
48.7553
20
-132.055
11
48.7553
21
-133.833
0
LINE
8
BLACK
6
CONTINUOUS
10
46.2153
20
-133.833
11
45.2247
21
-133.833
0
LINE
8
BLACK
6
CONTINUOUS
10
45.2247
20
-133.833
11
45.2247
21
-132.055
0
LINE
8
BLACK
6
CONTINUOUS
10
45.2247
20
-132.055
11
46.2153
21
-132.055
0
LINE
8
BLACK
6
CONTINUOUS
10
46.2153
20
-132.055
11
46.2153
21
-133.833
0
LINE
8
BLACK
6
CONTINUOUS
10
43.6753
20
-133.833
11
42.6847
21
-133.833
0
LINE
8
BLACK
6
CONTINUOUS
10
42.6847
20
-133.833
11
42.6847
21
-132.055
0
LINE
8
BLACK
6
CONTINUOUS
10
42.6847
20
-132.055
11
43.6753
21
-132.055
0
LINE
8
BLACK
6
CONTINUOUS
10
43.6753
20
-132.055
11
43.6753
21
-133.833
0
LINE
8
BLACK
6
CONTINUOUS
10
119.875
20
-133.833
11
118.885
21
-133.833
0
LINE
8
BLACK
6
CONTINUOUS
10
118.885
20
-133.833
11
118.885
21
-132.055
0
LINE
8
BLACK
6
CONTINUOUS
10
118.885
20
-132.055
11
119.875
21
-132.055
0
LINE
8
BLACK
6
CONTINUOUS
10
119.875
20
-132.055
11
119.875
21
-133.833
0
LINE
8
BLACK
6
CONTINUOUS
10
114.795
20
-133.833
11
113.805
21
-133.833
0
LINE
8
BLACK
6
CONTINUOUS
10
113.805
20
-133.833
11
113.805
21
-132.055
0
LINE
8
BLACK
6
CONTINUOUS
10
113.805
20
-132.055
11
114.795
21
-132.055
0
LINE
8
BLACK
6
CONTINUOUS
10
114.795
20
-132.055
11
114.795
21
-133.833
0
LINE
8
BLACK
6
CONTINUOUS
10
124.955
20
-133.833
11
123.965
21
-133.833
0
LINE
8
BLACK
6
CONTINUOUS
10
123.965
20
-133.833
11
123.965
21
-132.055
0
LINE
8
BLACK
6
CONTINUOUS
10
123.965
20
-132.055
11
124.955
21
-132.055
0
LINE
8
BLACK
6
CONTINUOUS
10
124.955
20
-132.055
11
124.955
21
-133.833
0
LINE
8
BLACK
6
CONTINUOUS
10
127.495
20
-133.833
11
126.505
21
-133.833
0
LINE
8
BLACK
6
CONTINUOUS
10
126.505
20
-133.833
11
126.505
21
-132.055
0
LINE
8
BLACK
6
CONTINUOUS
10
126.505
20
-132.055
11
127.495
21
-132.055
0
LINE
8
BLACK
6
CONTINUOUS
10
127.495
20
-132.055
11
127.495
21
-133.833
0
LINE
8
BLACK
6
CONTINUOUS
10
122.415
20
-133.833
11
121.425
21
-133.833
0
LINE
8
BLACK
6
CONTINUOUS
10
121.425
20
-133.833
11
121.425
21
-132.055
0
LINE
8
BLACK
6
CONTINUOUS
10
121.425
20
-132.055
11
122.415
21
-132.055
0
LINE
8
BLACK
6
CONTINUOUS
10
122.415
20
-132.055
11
122.415
21
-133.833
0
LINE
8
BLACK
6
CONTINUOUS
10
112.255
20
-133.833
11
111.265
21
-133.833
0
LINE
8
BLACK
6
CONTINUOUS
10
111.265
20
-133.833
11
111.265
21
-132.055
0
LINE
8
BLACK
6
CONTINUOUS
10
111.265
20
-132.055
11
112.255
21
-132.055
0
LINE
8
BLACK
6
CONTINUOUS
10
112.255
20
-132.055
11
112.255
21
-133.833
0
LINE
8
BLACK
6
CONTINUOUS
10
109.715
20
-133.833
11
108.725
21
-133.833
0
LINE
8
BLACK
6
CONTINUOUS
10
108.725
20
-133.833
11
108.725
21
-132.055
0
LINE
8
BLACK
6
CONTINUOUS
10
108.725
20
-132.055
11
109.715
21
-132.055
0
LINE
8
BLACK
6
CONTINUOUS
10
109.715
20
-132.055
11
109.715
21
-133.833
0
LINE
8
BLACK
6
CONTINUOUS
10
107.175
20
-133.833
11
106.185
21
-133.833
0
LINE
8
BLACK
6
CONTINUOUS
10
106.185
20
-133.833
11
106.185
21
-132.055
0
LINE
8
BLACK
6
CONTINUOUS
10
106.185
20
-132.055
11
107.175
21
-132.055
0
LINE
8
BLACK
6
CONTINUOUS
10
107.175
20
-132.055
11
107.175
21
-133.833
0
LINE
8
BLACK
6
CONTINUOUS
10
104.635
20
-133.833
11
103.645
21
-133.833
0
LINE
8
BLACK
6
CONTINUOUS
10
103.645
20
-133.833
11
103.645
21
-132.055
0
LINE
8
BLACK
6
CONTINUOUS
10
103.645
20
-132.055
11
104.635
21
-132.055
0
LINE
8
BLACK
6
CONTINUOUS
10
104.635
20
-132.055
11
104.635
21
-133.833
0
LINE
8
BLACK
6
CONTINUOUS
10
117.335
20
-133.833
11
116.345
21
-133.833
0
LINE
8
BLACK
6
CONTINUOUS
10
116.345
20
-133.833
11
116.345
21
-132.055
0
LINE
8
BLACK
6
CONTINUOUS
10
116.345
20
-132.055
11
117.335
21
-132.055
0
LINE
8
BLACK
6
CONTINUOUS
10
117.335
20
-132.055
11
117.335
21
-133.833
0
LINE
8
BLACK
6
CONTINUOUS
10
46.2927
20
-111.108
11
46.3642
21
-111.15
0
LINE
8
BLACK
6
CONTINUOUS
10
46.3642
20
-111.15
11
46.4172
21
-111.213
0
LINE
8
BLACK
6
CONTINUOUS
10
46.4172
20
-111.213
11
46.449
21
-111.331
0
LINE
8
BLACK
6
CONTINUOUS
10
46.449
20
-111.331
11
46.449
21
-111.906
0
LINE
8
BLACK
6
CONTINUOUS
10
46.449
20
-111.906
11
46.4347
21
-111.988
0
LINE
8
BLACK
6
CONTINUOUS
10
46.4347
20
-111.988
11
46.3934
21
-112.059
0
LINE
8
BLACK
6
CONTINUOUS
10
46.3934
20
-112.059
11
46.3302
21
-112.112
0
LINE
8
BLACK
6
CONTINUOUS
10
46.3302
20
-112.112
11
46.2115
21
-112.144
0
LINE
8
BLACK
6
CONTINUOUS
10
46.2115
20
-112.144
11
45.7365
21
-112.144
0
LINE
8
BLACK
6
CONTINUOUS
10
45.7365
20
-112.144
11
45.6553
21
-112.13
0
LINE
8
BLACK
6
CONTINUOUS
10
45.6553
20
-112.13
11
45.5838
21
-112.088
0
LINE
8
BLACK
6
CONTINUOUS
10
45.5838
20
-112.088
11
45.5308
21
-112.025
0
LINE
8
BLACK
6
CONTINUOUS
10
45.5308
20
-112.025
11
45.499
21
-111.906
0
LINE
8
BLACK
6
CONTINUOUS
10
45.499
20
-111.906
11
45.499
21
-111.331
0
LINE
8
BLACK
6
CONTINUOUS
10
45.499
20
-111.331
11
45.5133
21
-111.25
0
LINE
8
BLACK
6
CONTINUOUS
10
45.5133
20
-111.25
11
45.5546
21
-111.179
0
LINE
8
BLACK
6
CONTINUOUS
10
45.5546
20
-111.179
11
45.6178
21
-111.126
0
LINE
8
BLACK
6
CONTINUOUS
10
45.6178
20
-111.126
11
45.7365
21
-111.094
0
LINE
8
BLACK
6
CONTINUOUS
10
45.7365
20
-111.094
11
46.2115
21
-111.094
0
LINE
8
BLACK
6
CONTINUOUS
10
46.2115
20
-111.094
11
46.2927
21
-111.108
0
LINE
8
BLACK
6
CONTINUOUS
10
143.067
20
-110.995
11
143.138
21
-111.037
0
LINE
8
BLACK
6
CONTINUOUS
10
143.138
20
-111.037
11
143.191
21
-111.1
0
LINE
8
BLACK
6
CONTINUOUS
10
143.191
20
-111.1
11
143.223
21
-111.218
0
LINE
8
BLACK
6
CONTINUOUS
10
143.223
20
-111.218
11
143.223
21
-111.793
0
LINE
8
BLACK
6
CONTINUOUS
10
143.223
20
-111.793
11
143.209
21
-111.875
0
LINE
8
BLACK
6
CONTINUOUS
10
143.209
20
-111.875
11
143.167
21
-111.946
0
LINE
8
BLACK
6
CONTINUOUS
10
143.167
20
-111.946
11
143.104
21
-111.999
0
LINE
8
BLACK
6
CONTINUOUS
10
143.104
20
-111.999
11
142.986
21
-112.031
0
LINE
8
BLACK
6
CONTINUOUS
10
142.986
20
-112.031
11
142.511
21
-112.031
0
LINE
8
BLACK
6
CONTINUOUS
10
142.511
20
-112.031
11
142.429
21
-112.017
0
LINE
8
BLACK
6
CONTINUOUS
10
142.429
20
-112.017
11
142.358
21
-111.975
0
LINE
8
BLACK
6
CONTINUOUS
10
142.358
20
-111.975
11
142.305
21
-111.912
0
LINE
8
BLACK
6
CONTINUOUS
10
142.305
20
-111.912
11
142.273
21
-111.793
0
LINE
8
BLACK
6
CONTINUOUS
10
142.273
20
-111.793
11
142.273
21
-111.218
0
LINE
8
BLACK
6
CONTINUOUS
10
142.273
20
-111.218
11
142.287
21
-111.137
0
LINE
8
BLACK
6
CONTINUOUS
10
142.287
20
-111.137
11
142.329
21
-111.066
0
LINE
8
BLACK
6
CONTINUOUS
10
142.329
20
-111.066
11
142.392
21
-111.013
0
LINE
8
BLACK
6
CONTINUOUS
10
142.392
20
-111.013
11
142.511
21
-110.981
0
LINE
8
BLACK
6
CONTINUOUS
10
142.511
20
-110.981
11
142.986
21
-110.981
0
LINE
8
BLACK
6
CONTINUOUS
10
142.986
20
-110.981
11
143.067
21
-110.995
0
LINE
8
BLACK
6
CONTINUOUS
10
46.2927
20
-109.358
11
46.3642
21
-109.4
0
LINE
8
BLACK
6
CONTINUOUS
10
46.3642
20
-109.4
11
46.4172
21
-109.463
0
LINE
8
BLACK
6
CONTINUOUS
10
46.4172
20
-109.463
11
46.449
21
-109.581
0
LINE
8
BLACK
6
CONTINUOUS
10
46.449
20
-109.581
11
46.449
21
-110.156
0
LINE
8
BLACK
6
CONTINUOUS
10
46.449
20
-110.156
11
46.4347
21
-110.238
0
LINE
8
BLACK
6
CONTINUOUS
10
46.4347
20
-110.238
11
46.3934
21
-110.309
0
LINE
8
BLACK
6
CONTINUOUS
10
46.3934
20
-110.309
11
46.3302
21
-110.362
0
LINE
8
BLACK
6
CONTINUOUS
10
46.3302
20
-110.362
11
46.2115
21
-110.394
0
LINE
8
BLACK
6
CONTINUOUS
10
46.2115
20
-110.394
11
45.7365
21
-110.394
0
LINE
8
BLACK
6
CONTINUOUS
10
45.7365
20
-110.394
11
45.6553
21
-110.38
0
LINE
8
BLACK
6
CONTINUOUS
10
45.6553
20
-110.38
11
45.5838
21
-110.338
0
LINE
8
BLACK
6
CONTINUOUS
10
45.5838
20
-110.338
11
45.5308
21
-110.275
0
LINE
8
BLACK
6
CONTINUOUS
10
45.5308
20
-110.275
11
45.499
21
-110.156
0
LINE
8
BLACK
6
CONTINUOUS
10
45.499
20
-110.156
11
45.499
21
-109.581
0
LINE
8
BLACK
6
CONTINUOUS
10
45.499
20
-109.581
11
45.5133
21
-109.5
0
LINE
8
BLACK
6
CONTINUOUS
10
45.5133
20
-109.5
11
45.5546
21
-109.429
0
LINE
8
BLACK
6
CONTINUOUS
10
45.5546
20
-109.429
11
45.6178
21
-109.376
0
LINE
8
BLACK
6
CONTINUOUS
10
45.6178
20
-109.376
11
45.7365
21
-109.344
0
LINE
8
BLACK
6
CONTINUOUS
10
45.7365
20
-109.344
11
46.2115
21
-109.344
0
LINE
8
BLACK
6
CONTINUOUS
10
46.2115
20
-109.344
11
46.2927
21
-109.358
0
LINE
8
BLACK
6
CONTINUOUS
10
143.067
20
-109.245
11
143.138
21
-109.287
0
LINE
8
BLACK
6
CONTINUOUS
10
143.138
20
-109.287
11
143.191
21
-109.35
0
LINE
8
BLACK
6
CONTINUOUS
10
143.191
20
-109.35
11
143.223
21
-109.468
0
LINE
8
BLACK
6
CONTINUOUS
10
143.223
20
-109.468
11
143.223
21
-110.043
0
LINE
8
BLACK
6
CONTINUOUS
10
143.223
20
-110.043
11
143.209
21
-110.125
0
LINE
8
BLACK
6
CONTINUOUS
10
143.209
20
-110.125
11
143.167
21
-110.196
0
LINE
8
BLACK
6
CONTINUOUS
10
143.167
20
-110.196
11
143.104
21
-110.249
0
LINE
8
BLACK
6
CONTINUOUS
10
143.104
20
-110.249
11
142.986
21
-110.281
0
LINE
8
BLACK
6
CONTINUOUS
10
142.986
20
-110.281
11
142.511
21
-110.281
0
LINE
8
BLACK
6
CONTINUOUS
10
142.511
20
-110.281
11
142.429
21
-110.267
0
LINE
8
BLACK
6
CONTINUOUS
10
142.429
20
-110.267
11
142.358
21
-110.225
0
LINE
8
BLACK
6
CONTINUOUS
10
142.358
20
-110.225
11
142.305
21
-110.162
0
LINE
8
BLACK
6
CONTINUOUS
10
142.305
20
-110.162
11
142.273
21
-110.043
0
LINE
8
BLACK
6
CONTINUOUS
10
142.273
20
-110.043
11
142.273
21
-109.468
0
LINE
8
BLACK
6
CONTINUOUS
10
142.273
20
-109.468
11
142.287
21
-109.387
0
LINE
8
BLACK
6
CONTINUOUS
10
142.287
20
-109.387
11
142.329
21
-109.316
0
LINE
8
BLACK
6
CONTINUOUS
10
142.329
20
-109.316
11
142.392
21
-109.263
0
LINE
8
BLACK
6
CONTINUOUS
10
142.392
20
-109.263
11
142.511
21
-109.231
0
LINE
8
BLACK
6
CONTINUOUS
10
142.511
20
-109.231
11
142.986
21
-109.231
0
LINE
8
BLACK
6
CONTINUOUS
10
142.986
20
-109.231
11
143.067
21
-109.245
0
LINE
8
BLACK
6
CONTINUOUS
10
58.9153
20
-96.5454
11
57.9247
21
-96.5454
0
LINE
8
BLACK
6
CONTINUOUS
10
57.9247
20
-96.5454
11
57.9247
21
-94.7674
0
LINE
8
BLACK
6
CONTINUOUS
10
57.9247
20
-94.7674
11
58.9153
21
-94.7674
0
LINE
8
BLACK
6
CONTINUOUS
10
58.9153
20
-94.7674
11
58.9153
21
-96.5454
0
LINE
8
BLACK
6
CONTINUOUS
10
56.3753
20
-96.5454
11
55.3847
21
-96.5454
0
LINE
8
BLACK
6
CONTINUOUS
10
55.3847
20
-96.5454
11
55.3847
21
-94.7674
0
LINE
8
BLACK
6
CONTINUOUS
10
55.3847
20
-94.7674
11
56.3753
21
-94.7674
0
LINE
8
BLACK
6
CONTINUOUS
10
56.3753
20
-94.7674
11
56.3753
21
-96.5454
0
LINE
8
BLACK
6
CONTINUOUS
10
53.8353
20
-96.5454
11
52.8447
21
-96.5454
0
LINE
8
BLACK
6
CONTINUOUS
10
52.8447
20
-96.5454
11
52.8447
21
-94.7674
0
LINE
8
BLACK
6
CONTINUOUS
10
52.8447
20
-94.7674
11
53.8353
21
-94.7674
0
LINE
8
BLACK
6
CONTINUOUS
10
53.8353
20
-94.7674
11
53.8353
21
-96.5454
0
LINE
8
BLACK
6
CONTINUOUS
10
51.2953
20
-96.5454
11
50.3047
21
-96.5454
0
LINE
8
BLACK
6
CONTINUOUS
10
50.3047
20
-96.5454
11
50.3047
21
-94.7674
0
LINE
8
BLACK
6
CONTINUOUS
10
50.3047
20
-94.7674
11
51.2953
21
-94.7674
0
LINE
8
BLACK
6
CONTINUOUS
10
51.2953
20
-94.7674
11
51.2953
21
-96.5454
0
LINE
8
BLACK
6
CONTINUOUS
10
48.7553
20
-96.5454
11
47.7647
21
-96.5454
0
LINE
8
BLACK
6
CONTINUOUS
10
47.7647
20
-96.5454
11
47.7647
21
-94.7674
0
LINE
8
BLACK
6
CONTINUOUS
10
47.7647
20
-94.7674
11
48.7553
21
-94.7674
0
LINE
8
BLACK
6
CONTINUOUS
10
48.7553
20
-94.7674
11
48.7553
21
-96.5454
0
LINE
8
BLACK
6
CONTINUOUS
10
46.2153
20
-96.5454
11
45.2247
21
-96.5454
0
LINE
8
BLACK
6
CONTINUOUS
10
45.2247
20
-96.5454
11
45.2247
21
-94.7674
0
LINE
8
BLACK
6
CONTINUOUS
10
45.2247
20
-94.7674
11
46.2153
21
-94.7674
0
LINE
8
BLACK
6
CONTINUOUS
10
46.2153
20
-94.7674
11
46.2153
21
-96.5454
0
LINE
8
BLACK
6
CONTINUOUS
10
43.6753
20
-96.5454
11
42.6847
21
-96.5454
0
LINE
8
BLACK
6
CONTINUOUS
10
42.6847
20
-96.5454
11
42.6847
21
-94.7674
0
LINE
8
BLACK
6
CONTINUOUS
10
42.6847
20
-94.7674
11
43.6753
21
-94.7674
0
LINE
8
BLACK
6
CONTINUOUS
10
43.6753
20
-94.7674
11
43.6753
21
-96.5454
0
LINE
8
BLACK
6
CONTINUOUS
10
41.1353
20
-96.5454
11
40.1447
21
-96.5454
0
LINE
8
BLACK
6
CONTINUOUS
10
40.1447
20
-96.5454
11
40.1447
21
-94.7674
0
LINE
8
BLACK
6
CONTINUOUS
10
40.1447
20
-94.7674
11
41.1353
21
-94.7674
0
LINE
8
BLACK
6
CONTINUOUS
10
41.1353
20
-94.7674
11
41.1353
21
-96.5454
0
LINE
8
BLACK
6
CONTINUOUS
10
61.4553
20
-96.5454
11
60.4647
21
-96.5454
0
LINE
8
BLACK
6
CONTINUOUS
10
60.4647
20
-96.5454
11
60.4647
21
-94.7674
0
LINE
8
BLACK
6
CONTINUOUS
10
60.4647
20
-94.7674
11
61.4553
21
-94.7674
0
LINE
8
BLACK
6
CONTINUOUS
10
61.4553
20
-94.7674
11
61.4553
21
-96.5454
0
LINE
8
BLACK
6
CONTINUOUS
10
63.9953
20
-96.5454
11
63.0047
21
-96.5454
0
LINE
8
BLACK
6
CONTINUOUS
10
63.0047
20
-96.5454
11
63.0047
21
-94.7674
0
LINE
8
BLACK
6
CONTINUOUS
10
63.0047
20
-94.7674
11
63.9953
21
-94.7674
0
LINE
8
BLACK
6
CONTINUOUS
10
63.9953
20
-94.7674
11
63.9953
21
-96.5454
0
LINE
8
BLACK
6
CONTINUOUS
10
104.635
20
-96.5454
11
103.645
21
-96.5454
0
LINE
8
BLACK
6
CONTINUOUS
10
103.645
20
-96.5454
11
103.645
21
-94.7674
0
LINE
8
BLACK
6
CONTINUOUS
10
103.645
20
-94.7674
11
104.635
21
-94.7674
0
LINE
8
BLACK
6
CONTINUOUS
10
104.635
20
-94.7674
11
104.635
21
-96.5454
0
LINE
8
BLACK
6
CONTINUOUS
10
107.175
20
-96.5454
11
106.185
21
-96.5454
0
LINE
8
BLACK
6
CONTINUOUS
10
106.185
20
-96.5454
11
106.185
21
-94.7674
0
LINE
8
BLACK
6
CONTINUOUS
10
106.185
20
-94.7674
11
107.175
21
-94.7674
0
LINE
8
BLACK
6
CONTINUOUS
10
107.175
20
-94.7674
11
107.175
21
-96.5454
0
LINE
8
BLACK
6
CONTINUOUS
10
109.715
20
-96.5454
11
108.725
21
-96.5454
0
LINE
8
BLACK
6
CONTINUOUS
10
108.725
20
-96.5454
11
108.725
21
-94.7674
0
LINE
8
BLACK
6
CONTINUOUS
10
108.725
20
-94.7674
11
109.715
21
-94.7674
0
LINE
8
BLACK
6
CONTINUOUS
10
109.715
20
-94.7674
11
109.715
21
-96.5454
0
LINE
8
BLACK
6
CONTINUOUS
10
112.255
20
-96.5454
11
111.265
21
-96.5454
0
LINE
8
BLACK
6
CONTINUOUS
10
111.265
20
-96.5454
11
111.265
21
-94.7674
0
LINE
8
BLACK
6
CONTINUOUS
10
111.265
20
-94.7674
11
112.255
21
-94.7674
0
LINE
8
BLACK
6
CONTINUOUS
10
112.255
20
-94.7674
11
112.255
21
-96.5454
0
LINE
8
BLACK
6
CONTINUOUS
10
114.795
20
-96.5454
11
113.805
21
-96.5454
0
LINE
8
BLACK
6
CONTINUOUS
10
113.805
20
-96.5454
11
113.805
21
-94.7674
0
LINE
8
BLACK
6
CONTINUOUS
10
113.805
20
-94.7674
11
114.795
21
-94.7674
0
LINE
8
BLACK
6
CONTINUOUS
10
114.795
20
-94.7674
11
114.795
21
-96.5454
0
LINE
8
BLACK
6
CONTINUOUS
10
117.335
20
-96.5454
11
116.345
21
-96.5454
0
LINE
8
BLACK
6
CONTINUOUS
10
116.345
20
-96.5454
11
116.345
21
-94.7674
0
LINE
8
BLACK
6
CONTINUOUS
10
116.345
20
-94.7674
11
117.335
21
-94.7674
0
LINE
8
BLACK
6
CONTINUOUS
10
117.335
20
-94.7674
11
117.335
21
-96.5454
0
LINE
8
BLACK
6
CONTINUOUS
10
119.875
20
-96.5454
11
118.885
21
-96.5454
0
LINE
8
BLACK
6
CONTINUOUS
10
118.885
20
-96.5454
11
118.885
21
-94.7674
0
LINE
8
BLACK
6
CONTINUOUS
10
118.885
20
-94.7674
11
119.875
21
-94.7674
0
LINE
8
BLACK
6
CONTINUOUS
10
119.875
20
-94.7674
11
119.875
21
-96.5454
0
LINE
8
BLACK
6
CONTINUOUS
10
122.415
20
-96.5454
11
121.425
21
-96.5454
0
LINE
8
BLACK
6
CONTINUOUS
10
121.425
20
-96.5454
11
121.425
21
-94.7674
0
LINE
8
BLACK
6
CONTINUOUS
10
121.425
20
-94.7674
11
122.415
21
-94.7674
0
LINE
8
BLACK
6
CONTINUOUS
10
122.415
20
-94.7674
11
122.415
21
-96.5454
0
LINE
8
BLACK
6
CONTINUOUS
10
124.955
20
-96.5454
11
123.965
21
-96.5454
0
LINE
8
BLACK
6
CONTINUOUS
10
123.965
20
-96.5454
11
123.965
21
-94.7674
0
LINE
8
BLACK
6
CONTINUOUS
10
123.965
20
-94.7674
11
124.955
21
-94.7674
0
LINE
8
BLACK
6
CONTINUOUS
10
124.955
20
-94.7674
11
124.955
21
-96.5454
0
LINE
8
BLACK
6
CONTINUOUS
10
127.495
20
-96.5454
11
126.505
21
-96.5454
0
LINE
8
BLACK
6
CONTINUOUS
10
126.505
20
-96.5454
11
126.505
21
-94.7674
0
LINE
8
BLACK
6
CONTINUOUS
10
126.505
20
-94.7674
11
127.495
21
-94.7674
0
LINE
8
BLACK
6
CONTINUOUS
10
127.495
20
-94.7674
11
127.495
21
-96.5454
0
LINE
8
BLACK
6
CONTINUOUS
10
51.2953
20
-90.6526
11
50.3047
21
-90.6526
0
LINE
8
BLACK
6
CONTINUOUS
10
50.3047
20
-90.6526
11
50.3047
21
-88.8746
0
LINE
8
BLACK
6
CONTINUOUS
10
50.3047
20
-88.8746
11
51.2953
21
-88.8746
0
LINE
8
BLACK
6
CONTINUOUS
10
51.2953
20
-88.8746
11
51.2953
21
-90.6526
0
LINE
8
BLACK
6
CONTINUOUS
10
53.8353
20
-90.6526
11
52.8447
21
-90.6526
0
LINE
8
BLACK
6
CONTINUOUS
10
52.8447
20
-90.6526
11
52.8447
21
-88.8746
0
LINE
8
BLACK
6
CONTINUOUS
10
52.8447
20
-88.8746
11
53.8353
21
-88.8746
0
LINE
8
BLACK
6
CONTINUOUS
10
53.8353
20
-88.8746
11
53.8353
21
-90.6526
0
LINE
8
BLACK
6
CONTINUOUS
10
48.7553
20
-90.6526
11
47.7647
21
-90.6526
0
LINE
8
BLACK
6
CONTINUOUS
10
47.7647
20
-90.6526
11
47.7647
21
-88.8746
0
LINE
8
BLACK
6
CONTINUOUS
10
47.7647
20
-88.8746
11
48.7553
21
-88.8746
0
LINE
8
BLACK
6
CONTINUOUS
10
48.7553
20
-88.8746
11
48.7553
21
-90.6526
0
LINE
8
BLACK
6
CONTINUOUS
10
61.4553
20
-90.6526
11
60.4647
21
-90.6526
0
LINE
8
BLACK
6
CONTINUOUS
10
60.4647
20
-90.6526
11
60.4647
21
-88.8746
0
LINE
8
BLACK
6
CONTINUOUS
10
60.4647
20
-88.8746
11
61.4553
21
-88.8746
0
LINE
8
BLACK
6
CONTINUOUS
10
61.4553
20
-88.8746
11
61.4553
21
-90.6526
0
LINE
8
BLACK
6
CONTINUOUS
10
56.3753
20
-90.6526
11
55.3847
21
-90.6526
0
LINE
8
BLACK
6
CONTINUOUS
10
55.3847
20
-90.6526
11
55.3847
21
-88.8746
0
LINE
8
BLACK
6
CONTINUOUS
10
55.3847
20
-88.8746
11
56.3753
21
-88.8746
0
LINE
8
BLACK
6
CONTINUOUS
10
56.3753
20
-88.8746
11
56.3753
21
-90.6526
0
LINE
8
BLACK
6
CONTINUOUS
10
58.9153
20
-90.6526
11
57.9247
21
-90.6526
0
LINE
8
BLACK
6
CONTINUOUS
10
57.9247
20
-90.6526
11
57.9247
21
-88.8746
0
LINE
8
BLACK
6
CONTINUOUS
10
57.9247
20
-88.8746
11
58.9153
21
-88.8746
0
LINE
8
BLACK
6
CONTINUOUS
10
58.9153
20
-88.8746
11
58.9153
21
-90.6526
0
LINE
8
BLACK
6
CONTINUOUS
10
127.495
20
-90.6526
11
126.505
21
-90.6526
0
LINE
8
BLACK
6
CONTINUOUS
10
126.505
20
-90.6526
11
126.505
21
-88.8746
0
LINE
8
BLACK
6
CONTINUOUS
10
126.505
20
-88.8746
11
127.495
21
-88.8746
0
LINE
8
BLACK
6
CONTINUOUS
10
127.495
20
-88.8746
11
127.495
21
-90.6526
0
LINE
8
BLACK
6
CONTINUOUS
10
63.9953
20
-90.6526
11
63.0047
21
-90.6526
0
LINE
8
BLACK
6
CONTINUOUS
10
63.0047
20
-90.6526
11
63.0047
21
-88.8746
0
LINE
8
BLACK
6
CONTINUOUS
10
63.0047
20
-88.8746
11
63.9953
21
-88.8746
0
LINE
8
BLACK
6
CONTINUOUS
10
63.9953
20
-88.8746
11
63.9953
21
-90.6526
0
LINE
8
BLACK
6
CONTINUOUS
10
109.715
20
-90.6526
11
108.725
21
-90.6526
0
LINE
8
BLACK
6
CONTINUOUS
10
108.725
20
-90.6526
11
108.725
21
-88.8746
0
LINE
8
BLACK
6
CONTINUOUS
10
108.725
20
-88.8746
11
109.715
21
-88.8746
0
LINE
8
BLACK
6
CONTINUOUS
10
109.715
20
-88.8746
11
109.715
21
-90.6526
0
LINE
8
BLACK
6
CONTINUOUS
10
43.6753
20
-90.6526
11
42.6847
21
-90.6526
0
LINE
8
BLACK
6
CONTINUOUS
10
42.6847
20
-90.6526
11
42.6847
21
-88.8746
0
LINE
8
BLACK
6
CONTINUOUS
10
42.6847
20
-88.8746
11
43.6753
21
-88.8746
0
LINE
8
BLACK
6
CONTINUOUS
10
43.6753
20
-88.8746
11
43.6753
21
-90.6526
0
LINE
8
BLACK
6
CONTINUOUS
10
107.175
20
-90.6526
11
106.185
21
-90.6526
0
LINE
8
BLACK
6
CONTINUOUS
10
106.185
20
-90.6526
11
106.185
21
-88.8746
0
LINE
8
BLACK
6
CONTINUOUS
10
106.185
20
-88.8746
11
107.175
21
-88.8746
0
LINE
8
BLACK
6
CONTINUOUS
10
107.175
20
-88.8746
11
107.175
21
-90.6526
0
LINE
8
BLACK
6
CONTINUOUS
10
104.635
20
-90.6526
11
103.645
21
-90.6526
0
LINE
8
BLACK
6
CONTINUOUS
10
103.645
20
-90.6526
11
103.645
21
-88.8746
0
LINE
8
BLACK
6
CONTINUOUS
10
103.645
20
-88.8746
11
104.635
21
-88.8746
0
LINE
8
BLACK
6
CONTINUOUS
10
104.635
20
-88.8746
11
104.635
21
-90.6526
0
LINE
8
BLACK
6
CONTINUOUS
10
112.255
20
-90.6526
11
111.265
21
-90.6526
0
LINE
8
BLACK
6
CONTINUOUS
10
111.265
20
-90.6526
11
111.265
21
-88.8746
0
LINE
8
BLACK
6
CONTINUOUS
10
111.265
20
-88.8746
11
112.255
21
-88.8746
0
LINE
8
BLACK
6
CONTINUOUS
10
112.255
20
-88.8746
11
112.255
21
-90.6526
0
LINE
8
BLACK
6
CONTINUOUS
10
114.795
20
-90.6526
11
113.805
21
-90.6526
0
LINE
8
BLACK
6
CONTINUOUS
10
113.805
20
-90.6526
11
113.805
21
-88.8746
0
LINE
8
BLACK
6
CONTINUOUS
10
113.805
20
-88.8746
11
114.795
21
-88.8746
0
LINE
8
BLACK
6
CONTINUOUS
10
114.795
20
-88.8746
11
114.795
21
-90.6526
0
LINE
8
BLACK
6
CONTINUOUS
10
122.415
20
-90.6526
11
121.425
21
-90.6526
0
LINE
8
BLACK
6
CONTINUOUS
10
121.425
20
-90.6526
11
121.425
21
-88.8746
0
LINE
8
BLACK
6
CONTINUOUS
10
121.425
20
-88.8746
11
122.415
21
-88.8746
0
LINE
8
BLACK
6
CONTINUOUS
10
122.415
20
-88.8746
11
122.415
21
-90.6526
0
LINE
8
BLACK
6
CONTINUOUS
10
46.2153
20
-90.6526
11
45.2247
21
-90.6526
0
LINE
8
BLACK
6
CONTINUOUS
10
45.2247
20
-90.6526
11
45.2247
21
-88.8746
0
LINE
8
BLACK
6
CONTINUOUS
10
45.2247
20
-88.8746
11
46.2153
21
-88.8746
0
LINE
8
BLACK
6
CONTINUOUS
10
46.2153
20
-88.8746
11
46.2153
21
-90.6526
0
LINE
8
BLACK
6
CONTINUOUS
10
41.1353
20
-90.6526
11
40.1447
21
-90.6526
0
LINE
8
BLACK
6
CONTINUOUS
10
40.1447
20
-90.6526
11
40.1447
21
-88.8746
0
LINE
8
BLACK
6
CONTINUOUS
10
40.1447
20
-88.8746
11
41.1353
21
-88.8746
0
LINE
8
BLACK
6
CONTINUOUS
10
41.1353
20
-88.8746
11
41.1353
21
-90.6526
0
LINE
8
BLACK
6
CONTINUOUS
10
124.955
20
-90.6526
11
123.965
21
-90.6526
0
LINE
8
BLACK
6
CONTINUOUS
10
123.965
20
-90.6526
11
123.965
21
-88.8746
0
LINE
8
BLACK
6
CONTINUOUS
10
123.965
20
-88.8746
11
124.955
21
-88.8746
0
LINE
8
BLACK
6
CONTINUOUS
10
124.955
20
-88.8746
11
124.955
21
-90.6526
0
LINE
8
BLACK
6
CONTINUOUS
10
117.335
20
-90.6526
11
116.345
21
-90.6526
0
LINE
8
BLACK
6
CONTINUOUS
10
116.345
20
-90.6526
11
116.345
21
-88.8746
0
LINE
8
BLACK
6
CONTINUOUS
10
116.345
20
-88.8746
11
117.335
21
-88.8746
0
LINE
8
BLACK
6
CONTINUOUS
10
117.335
20
-88.8746
11
117.335
21
-90.6526
0
LINE
8
BLACK
6
CONTINUOUS
10
119.875
20
-90.6526
11
118.885
21
-90.6526
0
LINE
8
BLACK
6
CONTINUOUS
10
118.885
20
-90.6526
11
118.885
21
-88.8746
0
LINE
8
BLACK
6
CONTINUOUS
10
118.885
20
-88.8746
11
119.875
21
-88.8746
0
LINE
8
BLACK
6
CONTINUOUS
10
119.875
20
-88.8746
11
119.875
21
-90.6526
0
LINE
8
BLACK
6
CONTINUOUS
10
55.4587
20
-85.3913
11
55.5302
21
-85.4326
0
LINE
8
BLACK
6
CONTINUOUS
10
55.5302
20
-85.4326
11
55.5832
21
-85.4958
0
LINE
8
BLACK
6
CONTINUOUS
10
55.5832
20
-85.4958
11
55.615
21
-85.6145
0
LINE
8
BLACK
6
CONTINUOUS
10
55.615
20
-85.6145
11
55.615
21
-86.0895
0
LINE
8
BLACK
6
CONTINUOUS
10
55.615
20
-86.0895
11
55.6007
21
-86.1707
0
LINE
8
BLACK
6
CONTINUOUS
10
55.6007
20
-86.1707
11
55.5594
21
-86.2422
0
LINE
8
BLACK
6
CONTINUOUS
10
55.5594
20
-86.2422
11
55.4962
21
-86.2952
0
LINE
8
BLACK
6
CONTINUOUS
10
55.4962
20
-86.2952
11
55.3775
21
-86.327
0
LINE
8
BLACK
6
CONTINUOUS
10
55.3775
20
-86.327
11
54.8025
21
-86.327
0
LINE
8
BLACK
6
CONTINUOUS
10
54.8025
20
-86.327
11
54.7213
21
-86.3127
0
LINE
8
BLACK
6
CONTINUOUS
10
54.7213
20
-86.3127
11
54.6498
21
-86.2714
0
LINE
8
BLACK
6
CONTINUOUS
10
54.6498
20
-86.2714
11
54.5968
21
-86.2082
0
LINE
8
BLACK
6
CONTINUOUS
10
54.5968
20
-86.2082
11
54.565
21
-86.0895
0
LINE
8
BLACK
6
CONTINUOUS
10
54.565
20
-86.0895
11
54.565
21
-85.6145
0
LINE
8
BLACK
6
CONTINUOUS
10
54.565
20
-85.6145
11
54.5793
21
-85.5333
0
LINE
8
BLACK
6
CONTINUOUS
10
54.5793
20
-85.5333
11
54.6206
21
-85.4618
0
LINE
8
BLACK
6
CONTINUOUS
10
54.6206
20
-85.4618
11
54.6837
21
-85.4088
0
LINE
8
BLACK
6
CONTINUOUS
10
54.6837
20
-85.4088
11
54.8025
21
-85.377
0
LINE
8
BLACK
6
CONTINUOUS
10
54.8025
20
-85.377
11
55.3775
21
-85.377
0
LINE
8
BLACK
6
CONTINUOUS
10
55.3775
20
-85.377
11
55.4587
21
-85.3913
0
LINE
8
BLACK
6
CONTINUOUS
10
53.7087
20
-85.3913
11
53.7802
21
-85.4326
0
LINE
8
BLACK
6
CONTINUOUS
10
53.7802
20
-85.4326
11
53.8332
21
-85.4958
0
LINE
8
BLACK
6
CONTINUOUS
10
53.8332
20
-85.4958
11
53.865
21
-85.6145
0
LINE
8
BLACK
6
CONTINUOUS
10
53.865
20
-85.6145
11
53.865
21
-86.0895
0
LINE
8
BLACK
6
CONTINUOUS
10
53.865
20
-86.0895
11
53.8507
21
-86.1707
0
LINE
8
BLACK
6
CONTINUOUS
10
53.8507
20
-86.1707
11
53.8094
21
-86.2422
0
LINE
8
BLACK
6
CONTINUOUS
10
53.8094
20
-86.2422
11
53.7462
21
-86.2952
0
LINE
8
BLACK
6
CONTINUOUS
10
53.7462
20
-86.2952
11
53.6275
21
-86.327
0
LINE
8
BLACK
6
CONTINUOUS
10
53.6275
20
-86.327
11
53.0525
21
-86.327
0
LINE
8
BLACK
6
CONTINUOUS
10
53.0525
20
-86.327
11
52.9713
21
-86.3127
0
LINE
8
BLACK
6
CONTINUOUS
10
52.9713
20
-86.3127
11
52.8998
21
-86.2714
0
LINE
8
BLACK
6
CONTINUOUS
10
52.8998
20
-86.2714
11
52.8468
21
-86.2082
0
LINE
8
BLACK
6
CONTINUOUS
10
52.8468
20
-86.2082
11
52.815
21
-86.0895
0
LINE
8
BLACK
6
CONTINUOUS
10
52.815
20
-86.0895
11
52.815
21
-85.6145
0
LINE
8
BLACK
6
CONTINUOUS
10
52.815
20
-85.6145
11
52.8293
21
-85.5333
0
LINE
8
BLACK
6
CONTINUOUS
10
52.8293
20
-85.5333
11
52.8706
21
-85.4618
0
LINE
8
BLACK
6
CONTINUOUS
10
52.8706
20
-85.4618
11
52.9337
21
-85.4088
0
LINE
8
BLACK
6
CONTINUOUS
10
52.9337
20
-85.4088
11
53.0525
21
-85.377
0
LINE
8
BLACK
6
CONTINUOUS
10
53.0525
20
-85.377
11
53.6275
21
-85.377
0
LINE
8
BLACK
6
CONTINUOUS
10
53.6275
20
-85.377
11
53.7087
21
-85.3913
0
LINE
8
BLACK
6
CONTINUOUS
10
106.491
20
-67.1803
11
106.562
21
-67.2216
0
LINE
8
BLACK
6
CONTINUOUS
10
106.562
20
-67.2216
11
106.615
21
-67.2848
0
LINE
8
BLACK
6
CONTINUOUS
10
106.615
20
-67.2848
11
106.647
21
-67.4035
0
LINE
8
BLACK
6
CONTINUOUS
10
106.647
20
-67.4035
11
106.647
21
-67.9785
0
LINE
8
BLACK
6
CONTINUOUS
10
106.647
20
-67.9785
11
106.633
21
-68.0597
0
LINE
8
BLACK
6
CONTINUOUS
10
106.633
20
-68.0597
11
106.591
21
-68.1312
0
LINE
8
BLACK
6
CONTINUOUS
10
106.591
20
-68.1312
11
106.528
21
-68.1842
0
LINE
8
BLACK
6
CONTINUOUS
10
106.528
20
-68.1842
11
106.409
21
-68.216
0
LINE
8
BLACK
6
CONTINUOUS
10
106.409
20
-68.216
11
105.934
21
-68.216
0
LINE
8
BLACK
6
CONTINUOUS
10
105.934
20
-68.216
11
105.853
21
-68.2017
0
LINE
8
BLACK
6
CONTINUOUS
10
105.853
20
-68.2017
11
105.782
21
-68.1604
0
LINE
8
BLACK
6
CONTINUOUS
10
105.782
20
-68.1604
11
105.729
21
-68.0973
0
LINE
8
BLACK
6
CONTINUOUS
10
105.729
20
-68.0973
11
105.697
21
-67.9785
0
LINE
8
BLACK
6
CONTINUOUS
10
105.697
20
-67.9785
11
105.697
21
-67.4035
0
LINE
8
BLACK
6
CONTINUOUS
10
105.697
20
-67.4035
11
105.711
21
-67.3223
0
LINE
8
BLACK
6
CONTINUOUS
10
105.711
20
-67.3223
11
105.753
21
-67.2508
0
LINE
8
BLACK
6
CONTINUOUS
10
105.753
20
-67.2508
11
105.816
21
-67.1978
0
LINE
8
BLACK
6
CONTINUOUS
10
105.816
20
-67.1978
11
105.934
21
-67.166
0
LINE
8
BLACK
6
CONTINUOUS
10
105.934
20
-67.166
11
106.409
21
-67.166
0
LINE
8
BLACK
6
CONTINUOUS
10
106.409
20
-67.166
11
106.491
21
-67.1803
0
LINE
8
BLACK
6
CONTINUOUS
10
100.395
20
-67.1803
11
100.466
21
-67.2216
0
LINE
8
BLACK
6
CONTINUOUS
10
100.466
20
-67.2216
11
100.519
21
-67.2848
0
LINE
8
BLACK
6
CONTINUOUS
10
100.519
20
-67.2848
11
100.551
21
-67.4035
0
LINE
8
BLACK
6
CONTINUOUS
10
100.551
20
-67.4035
11
100.551
21
-67.9785
0
LINE
8
BLACK
6
CONTINUOUS
10
100.551
20
-67.9785
11
100.537
21
-68.0597
0
LINE
8
BLACK
6
CONTINUOUS
10
100.537
20
-68.0597
11
100.495
21
-68.1312
0
LINE
8
BLACK
6
CONTINUOUS
10
100.495
20
-68.1312
11
100.432
21
-68.1842
0
LINE
8
BLACK
6
CONTINUOUS
10
100.432
20
-68.1842
11
100.313
21
-68.216
0
LINE
8
BLACK
6
CONTINUOUS
10
100.313
20
-68.216
11
99.8385
21
-68.216
0
LINE
8
BLACK
6
CONTINUOUS
10
99.8385
20
-68.216
11
99.7573
21
-68.2017
0
LINE
8
BLACK
6
CONTINUOUS
10
99.7573
20
-68.2017
11
99.6858
21
-68.1604
0
LINE
8
BLACK
6
CONTINUOUS
10
99.6858
20
-68.1604
11
99.6328
21
-68.0973
0
LINE
8
BLACK
6
CONTINUOUS
10
99.6328
20
-68.0973
11
99.601
21
-67.9785
0
LINE
8
BLACK
6
CONTINUOUS
10
99.601
20
-67.9785
11
99.601
21
-67.4035
0
LINE
8
BLACK
6
CONTINUOUS
10
99.601
20
-67.4035
11
99.6153
21
-67.3223
0
LINE
8
BLACK
6
CONTINUOUS
10
99.6153
20
-67.3223
11
99.6566
21
-67.2508
0
LINE
8
BLACK
6
CONTINUOUS
10
99.6566
20
-67.2508
11
99.7197
21
-67.1978
0
LINE
8
BLACK
6
CONTINUOUS
10
99.7197
20
-67.1978
11
99.8385
21
-67.166
0
LINE
8
BLACK
6
CONTINUOUS
10
99.8385
20
-67.166
11
100.313
21
-67.166
0
LINE
8
BLACK
6
CONTINUOUS
10
100.313
20
-67.166
11
100.395
21
-67.1803
0
LINE
8
BLACK
6
CONTINUOUS
10
102.427
20
-67.1803
11
102.498
21
-67.2216
0
LINE
8
BLACK
6
CONTINUOUS
10
102.498
20
-67.2216
11
102.551
21
-67.2848
0
LINE
8
BLACK
6
CONTINUOUS
10
102.551
20
-67.2848
11
102.583
21
-67.4035
0
LINE
8
BLACK
6
CONTINUOUS
10
102.583
20
-67.4035
11
102.583
21
-67.9785
0
LINE
8
BLACK
6
CONTINUOUS
10
102.583
20
-67.9785
11
102.569
21
-68.0597
0
LINE
8
BLACK
6
CONTINUOUS
10
102.569
20
-68.0597
11
102.527
21
-68.1312
0
LINE
8
BLACK
6
CONTINUOUS
10
102.527
20
-68.1312
11
102.464
21
-68.1842
0
LINE
8
BLACK
6
CONTINUOUS
10
102.464
20
-68.1842
11
102.346
21
-68.216
0
LINE
8
BLACK
6
CONTINUOUS
10
102.346
20
-68.216
11
101.87
21
-68.216
0
LINE
8
BLACK
6
CONTINUOUS
10
101.87
20
-68.216
11
101.789
21
-68.2017
0
LINE
8
BLACK
6
CONTINUOUS
10
101.789
20
-68.2017
11
101.718
21
-68.1604
0
LINE
8
BLACK
6
CONTINUOUS
10
101.718
20
-68.1604
11
101.665
21
-68.0973
0
LINE
8
BLACK
6
CONTINUOUS
10
101.665
20
-68.0973
11
101.633
21
-67.9785
0
LINE
8
BLACK
6
CONTINUOUS
10
101.633
20
-67.9785
11
101.633
21
-67.4035
0
LINE
8
BLACK
6
CONTINUOUS
10
101.633
20
-67.4035
11
101.647
21
-67.3223
0
LINE
8
BLACK
6
CONTINUOUS
10
101.647
20
-67.3223
11
101.689
21
-67.2508
0
LINE
8
BLACK
6
CONTINUOUS
10
101.689
20
-67.2508
11
101.752
21
-67.1978
0
LINE
8
BLACK
6
CONTINUOUS
10
101.752
20
-67.1978
11
101.87
21
-67.166
0
LINE
8
BLACK
6
CONTINUOUS
10
101.87
20
-67.166
11
102.346
21
-67.166
0
LINE
8
BLACK
6
CONTINUOUS
10
102.346
20
-67.166
11
102.427
21
-67.1803
0
LINE
8
BLACK
6
CONTINUOUS
10
108.523
20
-67.1803
11
108.594
21
-67.2216
0
LINE
8
BLACK
6
CONTINUOUS
10
108.594
20
-67.2216
11
108.647
21
-67.2848
0
LINE
8
BLACK
6
CONTINUOUS
10
108.647
20
-67.2848
11
108.679
21
-67.4035
0
LINE
8
BLACK
6
CONTINUOUS
10
108.679
20
-67.4035
11
108.679
21
-67.9785
0
LINE
8
BLACK
6
CONTINUOUS
10
108.679
20
-67.9785
11
108.665
21
-68.0597
0
LINE
8
BLACK
6
CONTINUOUS
10
108.665
20
-68.0597
11
108.623
21
-68.1312
0
LINE
8
BLACK
6
CONTINUOUS
10
108.623
20
-68.1312
11
108.56
21
-68.1842
0
LINE
8
BLACK
6
CONTINUOUS
10
108.56
20
-68.1842
11
108.441
21
-68.216
0
LINE
8
BLACK
6
CONTINUOUS
10
108.441
20
-68.216
11
107.966
21
-68.216
0
LINE
8
BLACK
6
CONTINUOUS
10
107.966
20
-68.216
11
107.885
21
-68.2017
0
LINE
8
BLACK
6
CONTINUOUS
10
107.885
20
-68.2017
11
107.814
21
-68.1604
0
LINE
8
BLACK
6
CONTINUOUS
10
107.814
20
-68.1604
11
107.761
21
-68.0973
0
LINE
8
BLACK
6
CONTINUOUS
10
107.761
20
-68.0973
11
107.729
21
-67.9785
0
LINE
8
BLACK
6
CONTINUOUS
10
107.729
20
-67.9785
11
107.729
21
-67.4035
0
LINE
8
BLACK
6
CONTINUOUS
10
107.729
20
-67.4035
11
107.743
21
-67.3223
0
LINE
8
BLACK
6
CONTINUOUS
10
107.743
20
-67.3223
11
107.785
21
-67.2508
0
LINE
8
BLACK
6
CONTINUOUS
10
107.785
20
-67.2508
11
107.848
21
-67.1978
0
LINE
8
BLACK
6
CONTINUOUS
10
107.848
20
-67.1978
11
107.966
21
-67.166
0
LINE
8
BLACK
6
CONTINUOUS
10
107.966
20
-67.166
11
108.441
21
-67.166
0
LINE
8
BLACK
6
CONTINUOUS
10
108.441
20
-67.166
11
108.523
21
-67.1803
0
LINE
8
BLACK
6
CONTINUOUS
10
104.459
20
-67.1803
11
104.53
21
-67.2216
0
LINE
8
BLACK
6
CONTINUOUS
10
104.53
20
-67.2216
11
104.583
21
-67.2848
0
LINE
8
BLACK
6
CONTINUOUS
10
104.583
20
-67.2848
11
104.615
21
-67.4035
0
LINE
8
BLACK
6
CONTINUOUS
10
104.615
20
-67.4035
11
104.615
21
-67.9785
0
LINE
8
BLACK
6
CONTINUOUS
10
104.615
20
-67.9785
11
104.601
21
-68.0597
0
LINE
8
BLACK
6
CONTINUOUS
10
104.601
20
-68.0597
11
104.559
21
-68.1312
0
LINE
8
BLACK
6
CONTINUOUS
10
104.559
20
-68.1312
11
104.496
21
-68.1842
0
LINE
8
BLACK
6
CONTINUOUS
10
104.496
20
-68.1842
11
104.377
21
-68.216
0
LINE
8
BLACK
6
CONTINUOUS
10
104.377
20
-68.216
11
103.902
21
-68.216
0
LINE
8
BLACK
6
CONTINUOUS
10
103.902
20
-68.216
11
103.821
21
-68.2017
0
LINE
8
BLACK
6
CONTINUOUS
10
103.821
20
-68.2017
11
103.75
21
-68.1604
0
LINE
8
BLACK
6
CONTINUOUS
10
103.75
20
-68.1604
11
103.697
21
-68.0973
0
LINE
8
BLACK
6
CONTINUOUS
10
103.697
20
-68.0973
11
103.665
21
-67.9785
0
LINE
8
BLACK
6
CONTINUOUS
10
103.665
20
-67.9785
11
103.665
21
-67.4035
0
LINE
8
BLACK
6
CONTINUOUS
10
103.665
20
-67.4035
11
103.679
21
-67.3223
0
LINE
8
BLACK
6
CONTINUOUS
10
103.679
20
-67.3223
11
103.721
21
-67.2508
0
LINE
8
BLACK
6
CONTINUOUS
10
103.721
20
-67.2508
11
103.784
21
-67.1978
0
LINE
8
BLACK
6
CONTINUOUS
10
103.784
20
-67.1978
11
103.902
21
-67.166
0
LINE
8
BLACK
6
CONTINUOUS
10
103.902
20
-67.166
11
104.377
21
-67.166
0
LINE
8
BLACK
6
CONTINUOUS
10
104.377
20
-67.166
11
104.459
21
-67.1803
0
LINE
8
BLACK
6
CONTINUOUS
10
106.491
20
-65.4303
11
106.562
21
-65.4716
0
LINE
8
BLACK
6
CONTINUOUS
10
106.562
20
-65.4716
11
106.615
21
-65.5348
0
LINE
8
BLACK
6
CONTINUOUS
10
106.615
20
-65.5348
11
106.647
21
-65.6535
0
LINE
8
BLACK
6
CONTINUOUS
10
106.647
20
-65.6535
11
106.647
21
-66.2285
0
LINE
8
BLACK
6
CONTINUOUS
10
106.647
20
-66.2285
11
106.633
21
-66.3097
0
LINE
8
BLACK
6
CONTINUOUS
10
106.633
20
-66.3097
11
106.591
21
-66.3812
0
LINE
8
BLACK
6
CONTINUOUS
10
106.591
20
-66.3812
11
106.528
21
-66.4342
0
LINE
8
BLACK
6
CONTINUOUS
10
106.528
20
-66.4342
11
106.409
21
-66.466
0
LINE
8
BLACK
6
CONTINUOUS
10
106.409
20
-66.466
11
105.934
21
-66.466
0
LINE
8
BLACK
6
CONTINUOUS
10
105.934
20
-66.466
11
105.853
21
-66.4517
0
LINE
8
BLACK
6
CONTINUOUS
10
105.853
20
-66.4517
11
105.782
21
-66.4104
0
LINE
8
BLACK
6
CONTINUOUS
10
105.782
20
-66.4104
11
105.729
21
-66.3473
0
LINE
8
BLACK
6
CONTINUOUS
10
105.729
20
-66.3473
11
105.697
21
-66.2285
0
LINE
8
BLACK
6
CONTINUOUS
10
105.697
20
-66.2285
11
105.697
21
-65.6535
0
LINE
8
BLACK
6
CONTINUOUS
10
105.697
20
-65.6535
11
105.711
21
-65.5723
0
LINE
8
BLACK
6
CONTINUOUS
10
105.711
20
-65.5723
11
105.753
21
-65.5008
0
LINE
8
BLACK
6
CONTINUOUS
10
105.753
20
-65.5008
11
105.816
21
-65.4478
0
LINE
8
BLACK
6
CONTINUOUS
10
105.816
20
-65.4478
11
105.934
21
-65.416
0
LINE
8
BLACK
6
CONTINUOUS
10
105.934
20
-65.416
11
106.409
21
-65.416
0
LINE
8
BLACK
6
CONTINUOUS
10
106.409
20
-65.416
11
106.491
21
-65.4303
0
LINE
8
BLACK
6
CONTINUOUS
10
102.427
20
-65.4303
11
102.498
21
-65.4716
0
LINE
8
BLACK
6
CONTINUOUS
10
102.498
20
-65.4716
11
102.551
21
-65.5348
0
LINE
8
BLACK
6
CONTINUOUS
10
102.551
20
-65.5348
11
102.583
21
-65.6535
0
LINE
8
BLACK
6
CONTINUOUS
10
102.583
20
-65.6535
11
102.583
21
-66.2285
0
LINE
8
BLACK
6
CONTINUOUS
10
102.583
20
-66.2285
11
102.569
21
-66.3097
0
LINE
8
BLACK
6
CONTINUOUS
10
102.569
20
-66.3097
11
102.527
21
-66.3812
0
LINE
8
BLACK
6
CONTINUOUS
10
102.527
20
-66.3812
11
102.464
21
-66.4342
0
LINE
8
BLACK
6
CONTINUOUS
10
102.464
20
-66.4342
11
102.346
21
-66.466
0
LINE
8
BLACK
6
CONTINUOUS
10
102.346
20
-66.466
11
101.87
21
-66.466
0
LINE
8
BLACK
6
CONTINUOUS
10
101.87
20
-66.466
11
101.789
21
-66.4517
0
LINE
8
BLACK
6
CONTINUOUS
10
101.789
20
-66.4517
11
101.718
21
-66.4104
0
LINE
8
BLACK
6
CONTINUOUS
10
101.718
20
-66.4104
11
101.665
21
-66.3473
0
LINE
8
BLACK
6
CONTINUOUS
10
101.665
20
-66.3473
11
101.633
21
-66.2285
0
LINE
8
BLACK
6
CONTINUOUS
10
101.633
20
-66.2285
11
101.633
21
-65.6535
0
LINE
8
BLACK
6
CONTINUOUS
10
101.633
20
-65.6535
11
101.647
21
-65.5723
0
LINE
8
BLACK
6
CONTINUOUS
10
101.647
20
-65.5723
11
101.689
21
-65.5008
0
LINE
8
BLACK
6
CONTINUOUS
10
101.689
20
-65.5008
11
101.752
21
-65.4478
0
LINE
8
BLACK
6
CONTINUOUS
10
101.752
20
-65.4478
11
101.87
21
-65.416
0
LINE
8
BLACK
6
CONTINUOUS
10
101.87
20
-65.416
11
102.346
21
-65.416
0
LINE
8
BLACK
6
CONTINUOUS
10
102.346
20
-65.416
11
102.427
21
-65.4303
0
LINE
8
BLACK
6
CONTINUOUS
10
100.395
20
-65.4303
11
100.466
21
-65.4716
0
LINE
8
BLACK
6
CONTINUOUS
10
100.466
20
-65.4716
11
100.519
21
-65.5348
0
LINE
8
BLACK
6
CONTINUOUS
10
100.519
20
-65.5348
11
100.551
21
-65.6535
0
LINE
8
BLACK
6
CONTINUOUS
10
100.551
20
-65.6535
11
100.551
21
-66.2285
0
LINE
8
BLACK
6
CONTINUOUS
10
100.551
20
-66.2285
11
100.537
21
-66.3097
0
LINE
8
BLACK
6
CONTINUOUS
10
100.537
20
-66.3097
11
100.495
21
-66.3812
0
LINE
8
BLACK
6
CONTINUOUS
10
100.495
20
-66.3812
11
100.432
21
-66.4342
0
LINE
8
BLACK
6
CONTINUOUS
10
100.432
20
-66.4342
11
100.313
21
-66.466
0
LINE
8
BLACK
6
CONTINUOUS
10
100.313
20
-66.466
11
99.8385
21
-66.466
0
LINE
8
BLACK
6
CONTINUOUS
10
99.8385
20
-66.466
11
99.7573
21
-66.4517
0
LINE
8
BLACK
6
CONTINUOUS
10
99.7573
20
-66.4517
11
99.6858
21
-66.4104
0
LINE
8
BLACK
6
CONTINUOUS
10
99.6858
20
-66.4104
11
99.6328
21
-66.3473
0
LINE
8
BLACK
6
CONTINUOUS
10
99.6328
20
-66.3473
11
99.601
21
-66.2285
0
LINE
8
BLACK
6
CONTINUOUS
10
99.601
20
-66.2285
11
99.601
21
-65.6535
0
LINE
8
BLACK
6
CONTINUOUS
10
99.601
20
-65.6535
11
99.6153
21
-65.5723
0
LINE
8
BLACK
6
CONTINUOUS
10
99.6153
20
-65.5723
11
99.6566
21
-65.5008
0
LINE
8
BLACK
6
CONTINUOUS
10
99.6566
20
-65.5008
11
99.7197
21
-65.4478
0
LINE
8
BLACK
6
CONTINUOUS
10
99.7197
20
-65.4478
11
99.8385
21
-65.416
0
LINE
8
BLACK
6
CONTINUOUS
10
99.8385
20
-65.416
11
100.313
21
-65.416
0
LINE
8
BLACK
6
CONTINUOUS
10
100.313
20
-65.416
11
100.395
21
-65.4303
0
LINE
8
BLACK
6
CONTINUOUS
10
108.523
20
-65.4303
11
108.594
21
-65.4716
0
LINE
8
BLACK
6
CONTINUOUS
10
108.594
20
-65.4716
11
108.647
21
-65.5348
0
LINE
8
BLACK
6
CONTINUOUS
10
108.647
20
-65.5348
11
108.679
21
-65.6535
0
LINE
8
BLACK
6
CONTINUOUS
10
108.679
20
-65.6535
11
108.679
21
-66.2285
0
LINE
8
BLACK
6
CONTINUOUS
10
108.679
20
-66.2285
11
108.665
21
-66.3097
0
LINE
8
BLACK
6
CONTINUOUS
10
108.665
20
-66.3097
11
108.623
21
-66.3812
0
LINE
8
BLACK
6
CONTINUOUS
10
108.623
20
-66.3812
11
108.56
21
-66.4342
0
LINE
8
BLACK
6
CONTINUOUS
10
108.56
20
-66.4342
11
108.441
21
-66.466
0
LINE
8
BLACK
6
CONTINUOUS
10
108.441
20
-66.466
11
107.966
21
-66.466
0
LINE
8
BLACK
6
CONTINUOUS
10
107.966
20
-66.466
11
107.885
21
-66.4517
0
LINE
8
BLACK
6
CONTINUOUS
10
107.885
20
-66.4517
11
107.814
21
-66.4104
0
LINE
8
BLACK
6
CONTINUOUS
10
107.814
20
-66.4104
11
107.761
21
-66.3473
0
LINE
8
BLACK
6
CONTINUOUS
10
107.761
20
-66.3473
11
107.729
21
-66.2285
0
LINE
8
BLACK
6
CONTINUOUS
10
107.729
20
-66.2285
11
107.729
21
-65.6535
0
LINE
8
BLACK
6
CONTINUOUS
10
107.729
20
-65.6535
11
107.743
21
-65.5723
0
LINE
8
BLACK
6
CONTINUOUS
10
107.743
20
-65.5723
11
107.785
21
-65.5008
0
LINE
8
BLACK
6
CONTINUOUS
10
107.785
20
-65.5008
11
107.848
21
-65.4478
0
LINE
8
BLACK
6
CONTINUOUS
10
107.848
20
-65.4478
11
107.966
21
-65.416
0
LINE
8
BLACK
6
CONTINUOUS
10
107.966
20
-65.416
11
108.441
21
-65.416
0
LINE
8
BLACK
6
CONTINUOUS
10
108.441
20
-65.416
11
108.523
21
-65.4303
0
LINE
8
BLACK
6
CONTINUOUS
10
104.459
20
-65.4303
11
104.53
21
-65.4716
0
LINE
8
BLACK
6
CONTINUOUS
10
104.53
20
-65.4716
11
104.583
21
-65.5348
0
LINE
8
BLACK
6
CONTINUOUS
10
104.583
20
-65.5348
11
104.615
21
-65.6535
0
LINE
8
BLACK
6
CONTINUOUS
10
104.615
20
-65.6535
11
104.615
21
-66.2285
0
LINE
8
BLACK
6
CONTINUOUS
10
104.615
20
-66.2285
11
104.601
21
-66.3097
0
LINE
8
BLACK
6
CONTINUOUS
10
104.601
20
-66.3097
11
104.559
21
-66.3812
0
LINE
8
BLACK
6
CONTINUOUS
10
104.559
20
-66.3812
11
104.496
21
-66.4342
0
LINE
8
BLACK
6
CONTINUOUS
10
104.496
20
-66.4342
11
104.377
21
-66.466
0
LINE
8
BLACK
6
CONTINUOUS
10
104.377
20
-66.466
11
103.902
21
-66.466
0
LINE
8
BLACK
6
CONTINUOUS
10
103.902
20
-66.466
11
103.821
21
-66.4517
0
LINE
8
BLACK
6
CONTINUOUS
10
103.821
20
-66.4517
11
103.75
21
-66.4104
0
LINE
8
BLACK
6
CONTINUOUS
10
103.75
20
-66.4104
11
103.697
21
-66.3473
0
LINE
8
BLACK
6
CONTINUOUS
10
103.697
20
-66.3473
11
103.665
21
-66.2285
0
LINE
8
BLACK
6
CONTINUOUS
10
103.665
20
-66.2285
11
103.665
21
-65.6535
0
LINE
8
BLACK
6
CONTINUOUS
10
103.665
20
-65.6535
11
103.679
21
-65.5723
0
LINE
8
BLACK
6
CONTINUOUS
10
103.679
20
-65.5723
11
103.721
21
-65.5008
0
LINE
8
BLACK
6
CONTINUOUS
10
103.721
20
-65.5008
11
103.784
21
-65.4478
0
LINE
8
BLACK
6
CONTINUOUS
10
103.784
20
-65.4478
11
103.902
21
-65.416
0
LINE
8
BLACK
6
CONTINUOUS
10
103.902
20
-65.416
11
104.377
21
-65.416
0
LINE
8
BLACK
6
CONTINUOUS
10
104.377
20
-65.416
11
104.459
21
-65.4303
  0
ENDSEC
  0
EOF
