  0
SECTION
  2
HEADER
  9
$ANGBASE
  50
0.0
  9
$ANGDIR
  70
  1
  9
$MEASUREMENT
  70
0
  0
ENDSEC
  0
SECTION
  2
TABLES
  0
TABLE
  2
LTYPE
  70
4
  0
LTYPE
  5
40F
  2
CONTINUOUS
  70
0
  3
Solid line
  72
65
  73
0
  40
0.0
  0
LTYPE
  5
410
  2
DASHDOT
 70
0
  3
Dash Dot ____ _ ____ _
 72
65
 73
4
 40
2.0
 49
1.25
 49
-0.25
 49
0.25
 49
-0.25
  0
LTYPE
  5
411
  2
DASHED
 70
0
  3
Dashed __ __ __ __ __
 72
65
 73
2
 40
0.75
 49
0.5
 49
-0.25
  0
LTYPE
  5
43B
  2
DOTTED
 70
0
  3
Dotted .  .  .  .
 72
65
 73
2
 40
0.2
 49
0.0
 49
-0.2
  0
ENDTAB
  0
TABLE
  2
STYLE
  70
4
  0
STYLE
  2
KICAD
  70
0
  40
0
  41
1
  42
1
  50
0
  71
0
  3
isocp.shx
  0
STYLE
  2
KICADB
  70
0
  40
0
  41
1
  42
1
  50
0
  71
0
  3
isocp.shx
  0
STYLE
  2
KICADI
  70
0
  40
0
  41
1
  42
1
  50
15
  71
0
  3
isocp.shx
  0
STYLE
  2
KICADBI
  70
0
  40
0
  41
1
  42
1
  50
15
  71
0
  3
isocp.shx
  0
ENDTAB
  0
TABLE
  2
LAYER
  70
30
  0
LAYER
  2
BLACK
  70
0
  62
7
  6
CONTINUOUS
  0
LAYER
  2
GRAY1
  70
0
  62
251
  6
CONTINUOUS
  0
LAYER
  2
GRAY2
  70
0
  62
8
  6
CONTINUOUS
  0
LAYER
  2
GRAY3
  70
0
  62
9
  6
CONTINUOUS
  0
LAYER
  2
WHITE
  70
0
  62
7
  6
CONTINUOUS
  0
LAYER
  2
LYELLOW
  70
0
  62
51
  6
CONTINUOUS
  0
LAYER
  2
BLUE1
  70
0
  62
178
  6
CONTINUOUS
  0
LAYER
  2
GREEN1
  70
0
  62
98
  6
CONTINUOUS
  0
LAYER
  2
CYAN1
  70
0
  62
138
  6
CONTINUOUS
  0
LAYER
  2
RED1
  70
0
  62
18
  6
CONTINUOUS
  0
LAYER
  2
MAGENTA1
  70
0
  62
228
  6
CONTINUOUS
  0
LAYER
  2
BROWN1
  70
0
  62
58
  6
CONTINUOUS
  0
LAYER
  2
BLUE2
  70
0
  62
5
  6
CONTINUOUS
  0
LAYER
  2
GREEN2
  70
0
  62
3
  6
CONTINUOUS
  0
LAYER
  2
CYAN2
  70
0
  62
4
  6
CONTINUOUS
  0
LAYER
  2
RED2
  70
0
  62
1
  6
CONTINUOUS
  0
LAYER
  2
MAGENTA2
  70
0
  62
6
  6
CONTINUOUS
  0
LAYER
  2
BROWN2
  70
0
  62
54
  6
CONTINUOUS
  0
LAYER
  2
BLUE3
  70
0
  62
171
  6
CONTINUOUS
  0
LAYER
  2
GREEN3
  70
0
  62
91
  6
CONTINUOUS
  0
LAYER
  2
CYAN3
  70
0
  62
131
  6
CONTINUOUS
  0
LAYER
  2
RED3
  70
0
  62
11
  6
CONTINUOUS
  0
LAYER
  2
MAGENTA3
  70
0
  62
221
  6
CONTINUOUS
  0
LAYER
  2
YELLOW3
  70
0
  62
2
  6
CONTINUOUS
  0
LAYER
  2
BLUE4
  70
0
  62
5
  6
CONTINUOUS
  0
LAYER
  2
GREEN4
  70
0
  62
3
  6
CONTINUOUS
  0
LAYER
  2
CYAN4
  70
0
  62
4
  6
CONTINUOUS
  0
LAYER
  2
RED4
  70
0
  62
1
  6
CONTINUOUS
  0
LAYER
  2
MAGENTA4
  70
0
  62
6
  6
CONTINUOUS
  0
LAYER
  2
YELLOW4
  70
0
  62
2
  6
CONTINUOUS
  0
ENDTAB
  0
ENDSEC
  0
SECTION
  2
ENTITIES
0
LINE
8
BLACK
6
CONTINUOUS
10
104.635
20
-139.725
11
103.645
21
-139.725
0
LINE
8
BLACK
6
CONTINUOUS
10
103.645
20
-139.725
11
103.645
21
-137.947
0
LINE
8
BLACK
6
CONTINUOUS
10
103.645
20
-137.947
11
104.635
21
-137.947
0
LINE
8
BLACK
6
CONTINUOUS
10
104.635
20
-137.947
11
104.635
21
-139.725
0
LINE
8
BLACK
6
CONTINUOUS
10
41.1353
20
-139.725
11
40.1447
21
-139.725
0
LINE
8
BLACK
6
CONTINUOUS
10
40.1447
20
-139.725
11
40.1447
21
-137.947
0
LINE
8
BLACK
6
CONTINUOUS
10
40.1447
20
-137.947
11
41.1353
21
-137.947
0
LINE
8
BLACK
6
CONTINUOUS
10
41.1353
20
-137.947
11
41.1353
21
-139.725
0
LINE
8
BLACK
6
CONTINUOUS
10
43.6753
20
-139.725
11
42.6847
21
-139.725
0
LINE
8
BLACK
6
CONTINUOUS
10
42.6847
20
-139.725
11
42.6847
21
-137.947
0
LINE
8
BLACK
6
CONTINUOUS
10
42.6847
20
-137.947
11
43.6753
21
-137.947
0
LINE
8
BLACK
6
CONTINUOUS
10
43.6753
20
-137.947
11
43.6753
21
-139.725
0
LINE
8
BLACK
6
CONTINUOUS
10
46.2153
20
-139.725
11
45.2247
21
-139.725
0
LINE
8
BLACK
6
CONTINUOUS
10
45.2247
20
-139.725
11
45.2247
21
-137.947
0
LINE
8
BLACK
6
CONTINUOUS
10
45.2247
20
-137.947
11
46.2153
21
-137.947
0
LINE
8
BLACK
6
CONTINUOUS
10
46.2153
20
-137.947
11
46.2153
21
-139.725
0
LINE
8
BLACK
6
CONTINUOUS
10
48.7553
20
-139.725
11
47.7647
21
-139.725
0
LINE
8
BLACK
6
CONTINUOUS
10
47.7647
20
-139.725
11
47.7647
21
-137.947
0
LINE
8
BLACK
6
CONTINUOUS
10
47.7647
20
-137.947
11
48.7553
21
-137.947
0
LINE
8
BLACK
6
CONTINUOUS
10
48.7553
20
-137.947
11
48.7553
21
-139.725
0
LINE
8
BLACK
6
CONTINUOUS
10
51.2953
20
-139.725
11
50.3047
21
-139.725
0
LINE
8
BLACK
6
CONTINUOUS
10
50.3047
20
-139.725
11
50.3047
21
-137.947
0
LINE
8
BLACK
6
CONTINUOUS
10
50.3047
20
-137.947
11
51.2953
21
-137.947
0
LINE
8
BLACK
6
CONTINUOUS
10
51.2953
20
-137.947
11
51.2953
21
-139.725
0
LINE
8
BLACK
6
CONTINUOUS
10
53.8353
20
-139.725
11
52.8447
21
-139.725
0
LINE
8
BLACK
6
CONTINUOUS
10
52.8447
20
-139.725
11
52.8447
21
-137.947
0
LINE
8
BLACK
6
CONTINUOUS
10
52.8447
20
-137.947
11
53.8353
21
-137.947
0
LINE
8
BLACK
6
CONTINUOUS
10
53.8353
20
-137.947
11
53.8353
21
-139.725
0
LINE
8
BLACK
6
CONTINUOUS
10
56.3753
20
-139.725
11
55.3847
21
-139.725
0
LINE
8
BLACK
6
CONTINUOUS
10
55.3847
20
-139.725
11
55.3847
21
-137.947
0
LINE
8
BLACK
6
CONTINUOUS
10
55.3847
20
-137.947
11
56.3753
21
-137.947
0
LINE
8
BLACK
6
CONTINUOUS
10
56.3753
20
-137.947
11
56.3753
21
-139.725
0
LINE
8
BLACK
6
CONTINUOUS
10
58.9153
20
-139.725
11
57.9247
21
-139.725
0
LINE
8
BLACK
6
CONTINUOUS
10
57.9247
20
-139.725
11
57.9247
21
-137.947
0
LINE
8
BLACK
6
CONTINUOUS
10
57.9247
20
-137.947
11
58.9153
21
-137.947
0
LINE
8
BLACK
6
CONTINUOUS
10
58.9153
20
-137.947
11
58.9153
21
-139.725
0
LINE
8
BLACK
6
CONTINUOUS
10
61.4553
20
-139.725
11
60.4647
21
-139.725
0
LINE
8
BLACK
6
CONTINUOUS
10
60.4647
20
-139.725
11
60.4647
21
-137.947
0
LINE
8
BLACK
6
CONTINUOUS
10
60.4647
20
-137.947
11
61.4553
21
-137.947
0
LINE
8
BLACK
6
CONTINUOUS
10
61.4553
20
-137.947
11
61.4553
21
-139.725
0
LINE
8
BLACK
6
CONTINUOUS
10
63.9953
20
-139.725
11
63.0047
21
-139.725
0
LINE
8
BLACK
6
CONTINUOUS
10
63.0047
20
-139.725
11
63.0047
21
-137.947
0
LINE
8
BLACK
6
CONTINUOUS
10
63.0047
20
-137.947
11
63.9953
21
-137.947
0
LINE
8
BLACK
6
CONTINUOUS
10
63.9953
20
-137.947
11
63.9953
21
-139.725
0
LINE
8
BLACK
6
CONTINUOUS
10
124.955
20
-139.725
11
123.965
21
-139.725
0
LINE
8
BLACK
6
CONTINUOUS
10
123.965
20
-139.725
11
123.965
21
-137.947
0
LINE
8
BLACK
6
CONTINUOUS
10
123.965
20
-137.947
11
124.955
21
-137.947
0
LINE
8
BLACK
6
CONTINUOUS
10
124.955
20
-137.947
11
124.955
21
-139.725
0
LINE
8
BLACK
6
CONTINUOUS
10
127.495
20
-139.725
11
126.505
21
-139.725
0
LINE
8
BLACK
6
CONTINUOUS
10
126.505
20
-139.725
11
126.505
21
-137.947
0
LINE
8
BLACK
6
CONTINUOUS
10
126.505
20
-137.947
11
127.495
21
-137.947
0
LINE
8
BLACK
6
CONTINUOUS
10
127.495
20
-137.947
11
127.495
21
-139.725
0
LINE
8
BLACK
6
CONTINUOUS
10
122.415
20
-139.725
11
121.425
21
-139.725
0
LINE
8
BLACK
6
CONTINUOUS
10
121.425
20
-139.725
11
121.425
21
-137.947
0
LINE
8
BLACK
6
CONTINUOUS
10
121.425
20
-137.947
11
122.415
21
-137.947
0
LINE
8
BLACK
6
CONTINUOUS
10
122.415
20
-137.947
11
122.415
21
-139.725
0
LINE
8
BLACK
6
CONTINUOUS
10
114.795
20
-139.725
11
113.805
21
-139.725
0
LINE
8
BLACK
6
CONTINUOUS
10
113.805
20
-139.725
11
113.805
21
-137.947
0
LINE
8
BLACK
6
CONTINUOUS
10
113.805
20
-137.947
11
114.795
21
-137.947
0
LINE
8
BLACK
6
CONTINUOUS
10
114.795
20
-137.947
11
114.795
21
-139.725
0
LINE
8
BLACK
6
CONTINUOUS
10
112.255
20
-139.725
11
111.265
21
-139.725
0
LINE
8
BLACK
6
CONTINUOUS
10
111.265
20
-139.725
11
111.265
21
-137.947
0
LINE
8
BLACK
6
CONTINUOUS
10
111.265
20
-137.947
11
112.255
21
-137.947
0
LINE
8
BLACK
6
CONTINUOUS
10
112.255
20
-137.947
11
112.255
21
-139.725
0
LINE
8
BLACK
6
CONTINUOUS
10
109.715
20
-139.725
11
108.725
21
-139.725
0
LINE
8
BLACK
6
CONTINUOUS
10
108.725
20
-139.725
11
108.725
21
-137.947
0
LINE
8
BLACK
6
CONTINUOUS
10
108.725
20
-137.947
11
109.715
21
-137.947
0
LINE
8
BLACK
6
CONTINUOUS
10
109.715
20
-137.947
11
109.715
21
-139.725
0
LINE
8
BLACK
6
CONTINUOUS
10
117.335
20
-139.725
11
116.345
21
-139.725
0
LINE
8
BLACK
6
CONTINUOUS
10
116.345
20
-139.725
11
116.345
21
-137.947
0
LINE
8
BLACK
6
CONTINUOUS
10
116.345
20
-137.947
11
117.335
21
-137.947
0
LINE
8
BLACK
6
CONTINUOUS
10
117.335
20
-137.947
11
117.335
21
-139.725
0
LINE
8
BLACK
6
CONTINUOUS
10
107.175
20
-139.725
11
106.185
21
-139.725
0
LINE
8
BLACK
6
CONTINUOUS
10
106.185
20
-139.725
11
106.185
21
-137.947
0
LINE
8
BLACK
6
CONTINUOUS
10
106.185
20
-137.947
11
107.175
21
-137.947
0
LINE
8
BLACK
6
CONTINUOUS
10
107.175
20
-137.947
11
107.175
21
-139.725
0
LINE
8
BLACK
6
CONTINUOUS
10
119.875
20
-139.725
11
118.885
21
-139.725
0
LINE
8
BLACK
6
CONTINUOUS
10
118.885
20
-139.725
11
118.885
21
-137.947
0
LINE
8
BLACK
6
CONTINUOUS
10
118.885
20
-137.947
11
119.875
21
-137.947
0
LINE
8
BLACK
6
CONTINUOUS
10
119.875
20
-137.947
11
119.875
21
-139.725
0
LINE
8
BLACK
6
CONTINUOUS
10
53.8353
20
-133.833
11
52.8447
21
-133.833
0
LINE
8
BLACK
6
CONTINUOUS
10
52.8447
20
-133.833
11
52.8447
21
-132.055
0
LINE
8
BLACK
6
CONTINUOUS
10
52.8447
20
-132.055
11
53.8353
21
-132.055
0
LINE
8
BLACK
6
CONTINUOUS
10
53.8353
20
-132.055
11
53.8353
21
-133.833
0
LINE
8
BLACK
6
CONTINUOUS
10
51.2953
20
-133.833
11
50.3047
21
-133.833
0
LINE
8
BLACK
6
CONTINUOUS
10
50.3047
20
-133.833
11
50.3047
21
-132.055
0
LINE
8
BLACK
6
CONTINUOUS
10
50.3047
20
-132.055
11
51.2953
21
-132.055
0
LINE
8
BLACK
6
CONTINUOUS
10
51.2953
20
-132.055
11
51.2953
21
-133.833
0
LINE
8
BLACK
6
CONTINUOUS
10
48.7553
20
-133.833
11
47.7647
21
-133.833
0
LINE
8
BLACK
6
CONTINUOUS
10
47.7647
20
-133.833
11
47.7647
21
-132.055
0
LINE
8
BLACK
6
CONTINUOUS
10
47.7647
20
-132.055
11
48.7553
21
-132.055
0
LINE
8
BLACK
6
CONTINUOUS
10
48.7553
20
-132.055
11
48.7553
21
-133.833
0
LINE
8
BLACK
6
CONTINUOUS
10
46.2153
20
-133.833
11
45.2247
21
-133.833
0
LINE
8
BLACK
6
CONTINUOUS
10
45.2247
20
-133.833
11
45.2247
21
-132.055
0
LINE
8
BLACK
6
CONTINUOUS
10
45.2247
20
-132.055
11
46.2153
21
-132.055
0
LINE
8
BLACK
6
CONTINUOUS
10
46.2153
20
-132.055
11
46.2153
21
-133.833
0
LINE
8
BLACK
6
CONTINUOUS
10
119.875
20
-133.833
11
118.885
21
-133.833
0
LINE
8
BLACK
6
CONTINUOUS
10
118.885
20
-133.833
11
118.885
21
-132.055
0
LINE
8
BLACK
6
CONTINUOUS
10
118.885
20
-132.055
11
119.875
21
-132.055
0
LINE
8
BLACK
6
CONTINUOUS
10
119.875
20
-132.055
11
119.875
21
-133.833
0
LINE
8
BLACK
6
CONTINUOUS
10
117.335
20
-133.833
11
116.345
21
-133.833
0
LINE
8
BLACK
6
CONTINUOUS
10
116.345
20
-133.833
11
116.345
21
-132.055
0
LINE
8
BLACK
6
CONTINUOUS
10
116.345
20
-132.055
11
117.335
21
-132.055
0
LINE
8
BLACK
6
CONTINUOUS
10
117.335
20
-132.055
11
117.335
21
-133.833
0
LINE
8
BLACK
6
CONTINUOUS
10
104.635
20
-133.833
11
103.645
21
-133.833
0
LINE
8
BLACK
6
CONTINUOUS
10
103.645
20
-133.833
11
103.645
21
-132.055
0
LINE
8
BLACK
6
CONTINUOUS
10
103.645
20
-132.055
11
104.635
21
-132.055
0
LINE
8
BLACK
6
CONTINUOUS
10
104.635
20
-132.055
11
104.635
21
-133.833
0
LINE
8
BLACK
6
CONTINUOUS
10
107.175
20
-133.833
11
106.185
21
-133.833
0
LINE
8
BLACK
6
CONTINUOUS
10
106.185
20
-133.833
11
106.185
21
-132.055
0
LINE
8
BLACK
6
CONTINUOUS
10
106.185
20
-132.055
11
107.175
21
-132.055
0
LINE
8
BLACK
6
CONTINUOUS
10
107.175
20
-132.055
11
107.175
21
-133.833
0
LINE
8
BLACK
6
CONTINUOUS
10
109.715
20
-133.833
11
108.725
21
-133.833
0
LINE
8
BLACK
6
CONTINUOUS
10
108.725
20
-133.833
11
108.725
21
-132.055
0
LINE
8
BLACK
6
CONTINUOUS
10
108.725
20
-132.055
11
109.715
21
-132.055
0
LINE
8
BLACK
6
CONTINUOUS
10
109.715
20
-132.055
11
109.715
21
-133.833
0
LINE
8
BLACK
6
CONTINUOUS
10
112.255
20
-133.833
11
111.265
21
-133.833
0
LINE
8
BLACK
6
CONTINUOUS
10
111.265
20
-133.833
11
111.265
21
-132.055
0
LINE
8
BLACK
6
CONTINUOUS
10
111.265
20
-132.055
11
112.255
21
-132.055
0
LINE
8
BLACK
6
CONTINUOUS
10
112.255
20
-132.055
11
112.255
21
-133.833
0
LINE
8
BLACK
6
CONTINUOUS
10
122.415
20
-133.833
11
121.425
21
-133.833
0
LINE
8
BLACK
6
CONTINUOUS
10
121.425
20
-133.833
11
121.425
21
-132.055
0
LINE
8
BLACK
6
CONTINUOUS
10
121.425
20
-132.055
11
122.415
21
-132.055
0
LINE
8
BLACK
6
CONTINUOUS
10
122.415
20
-132.055
11
122.415
21
-133.833
0
LINE
8
BLACK
6
CONTINUOUS
10
127.495
20
-133.833
11
126.505
21
-133.833
0
LINE
8
BLACK
6
CONTINUOUS
10
126.505
20
-133.833
11
126.505
21
-132.055
0
LINE
8
BLACK
6
CONTINUOUS
10
126.505
20
-132.055
11
127.495
21
-132.055
0
LINE
8
BLACK
6
CONTINUOUS
10
127.495
20
-132.055
11
127.495
21
-133.833
0
LINE
8
BLACK
6
CONTINUOUS
10
43.6753
20
-133.833
11
42.6847
21
-133.833
0
LINE
8
BLACK
6
CONTINUOUS
10
42.6847
20
-133.833
11
42.6847
21
-132.055
0
LINE
8
BLACK
6
CONTINUOUS
10
42.6847
20
-132.055
11
43.6753
21
-132.055
0
LINE
8
BLACK
6
CONTINUOUS
10
43.6753
20
-132.055
11
43.6753
21
-133.833
0
LINE
8
BLACK
6
CONTINUOUS
10
41.1353
20
-133.833
11
40.1447
21
-133.833
0
LINE
8
BLACK
6
CONTINUOUS
10
40.1447
20
-133.833
11
40.1447
21
-132.055
0
LINE
8
BLACK
6
CONTINUOUS
10
40.1447
20
-132.055
11
41.1353
21
-132.055
0
LINE
8
BLACK
6
CONTINUOUS
10
41.1353
20
-132.055
11
41.1353
21
-133.833
0
LINE
8
BLACK
6
CONTINUOUS
10
58.9153
20
-133.833
11
57.9247
21
-133.833
0
LINE
8
BLACK
6
CONTINUOUS
10
57.9247
20
-133.833
11
57.9247
21
-132.055
0
LINE
8
BLACK
6
CONTINUOUS
10
57.9247
20
-132.055
11
58.9153
21
-132.055
0
LINE
8
BLACK
6
CONTINUOUS
10
58.9153
20
-132.055
11
58.9153
21
-133.833
0
LINE
8
BLACK
6
CONTINUOUS
10
61.4553
20
-133.833
11
60.4647
21
-133.833
0
LINE
8
BLACK
6
CONTINUOUS
10
60.4647
20
-133.833
11
60.4647
21
-132.055
0
LINE
8
BLACK
6
CONTINUOUS
10
60.4647
20
-132.055
11
61.4553
21
-132.055
0
LINE
8
BLACK
6
CONTINUOUS
10
61.4553
20
-132.055
11
61.4553
21
-133.833
0
LINE
8
BLACK
6
CONTINUOUS
10
63.9953
20
-133.833
11
63.0047
21
-133.833
0
LINE
8
BLACK
6
CONTINUOUS
10
63.0047
20
-133.833
11
63.0047
21
-132.055
0
LINE
8
BLACK
6
CONTINUOUS
10
63.0047
20
-132.055
11
63.9953
21
-132.055
0
LINE
8
BLACK
6
CONTINUOUS
10
63.9953
20
-132.055
11
63.9953
21
-133.833
0
LINE
8
BLACK
6
CONTINUOUS
10
114.795
20
-133.833
11
113.805
21
-133.833
0
LINE
8
BLACK
6
CONTINUOUS
10
113.805
20
-133.833
11
113.805
21
-132.055
0
LINE
8
BLACK
6
CONTINUOUS
10
113.805
20
-132.055
11
114.795
21
-132.055
0
LINE
8
BLACK
6
CONTINUOUS
10
114.795
20
-132.055
11
114.795
21
-133.833
0
LINE
8
BLACK
6
CONTINUOUS
10
124.955
20
-133.833
11
123.965
21
-133.833
0
LINE
8
BLACK
6
CONTINUOUS
10
123.965
20
-133.833
11
123.965
21
-132.055
0
LINE
8
BLACK
6
CONTINUOUS
10
123.965
20
-132.055
11
124.955
21
-132.055
0
LINE
8
BLACK
6
CONTINUOUS
10
124.955
20
-132.055
11
124.955
21
-133.833
0
LINE
8
BLACK
6
CONTINUOUS
10
56.3753
20
-133.833
11
55.3847
21
-133.833
0
LINE
8
BLACK
6
CONTINUOUS
10
55.3847
20
-133.833
11
55.3847
21
-132.055
0
LINE
8
BLACK
6
CONTINUOUS
10
55.3847
20
-132.055
11
56.3753
21
-132.055
0
LINE
8
BLACK
6
CONTINUOUS
10
56.3753
20
-132.055
11
56.3753
21
-133.833
0
LINE
8
BLACK
6
CONTINUOUS
10
107.175
20
-96.5454
11
106.185
21
-96.5454
0
LINE
8
BLACK
6
CONTINUOUS
10
106.185
20
-96.5454
11
106.185
21
-94.7674
0
LINE
8
BLACK
6
CONTINUOUS
10
106.185
20
-94.7674
11
107.175
21
-94.7674
0
LINE
8
BLACK
6
CONTINUOUS
10
107.175
20
-94.7674
11
107.175
21
-96.5454
0
LINE
8
BLACK
6
CONTINUOUS
10
63.9953
20
-96.5454
11
63.0047
21
-96.5454
0
LINE
8
BLACK
6
CONTINUOUS
10
63.0047
20
-96.5454
11
63.0047
21
-94.7674
0
LINE
8
BLACK
6
CONTINUOUS
10
63.0047
20
-94.7674
11
63.9953
21
-94.7674
0
LINE
8
BLACK
6
CONTINUOUS
10
63.9953
20
-94.7674
11
63.9953
21
-96.5454
0
LINE
8
BLACK
6
CONTINUOUS
10
61.4553
20
-96.5454
11
60.4647
21
-96.5454
0
LINE
8
BLACK
6
CONTINUOUS
10
60.4647
20
-96.5454
11
60.4647
21
-94.7674
0
LINE
8
BLACK
6
CONTINUOUS
10
60.4647
20
-94.7674
11
61.4553
21
-94.7674
0
LINE
8
BLACK
6
CONTINUOUS
10
61.4553
20
-94.7674
11
61.4553
21
-96.5454
0
LINE
8
BLACK
6
CONTINUOUS
10
58.9153
20
-96.5454
11
57.9247
21
-96.5454
0
LINE
8
BLACK
6
CONTINUOUS
10
57.9247
20
-96.5454
11
57.9247
21
-94.7674
0
LINE
8
BLACK
6
CONTINUOUS
10
57.9247
20
-94.7674
11
58.9153
21
-94.7674
0
LINE
8
BLACK
6
CONTINUOUS
10
58.9153
20
-94.7674
11
58.9153
21
-96.5454
0
LINE
8
BLACK
6
CONTINUOUS
10
56.3753
20
-96.5454
11
55.3847
21
-96.5454
0
LINE
8
BLACK
6
CONTINUOUS
10
55.3847
20
-96.5454
11
55.3847
21
-94.7674
0
LINE
8
BLACK
6
CONTINUOUS
10
55.3847
20
-94.7674
11
56.3753
21
-94.7674
0
LINE
8
BLACK
6
CONTINUOUS
10
56.3753
20
-94.7674
11
56.3753
21
-96.5454
0
LINE
8
BLACK
6
CONTINUOUS
10
53.8353
20
-96.5454
11
52.8447
21
-96.5454
0
LINE
8
BLACK
6
CONTINUOUS
10
52.8447
20
-96.5454
11
52.8447
21
-94.7674
0
LINE
8
BLACK
6
CONTINUOUS
10
52.8447
20
-94.7674
11
53.8353
21
-94.7674
0
LINE
8
BLACK
6
CONTINUOUS
10
53.8353
20
-94.7674
11
53.8353
21
-96.5454
0
LINE
8
BLACK
6
CONTINUOUS
10
51.2953
20
-96.5454
11
50.3047
21
-96.5454
0
LINE
8
BLACK
6
CONTINUOUS
10
50.3047
20
-96.5454
11
50.3047
21
-94.7674
0
LINE
8
BLACK
6
CONTINUOUS
10
50.3047
20
-94.7674
11
51.2953
21
-94.7674
0
LINE
8
BLACK
6
CONTINUOUS
10
51.2953
20
-94.7674
11
51.2953
21
-96.5454
0
LINE
8
BLACK
6
CONTINUOUS
10
48.7553
20
-96.5454
11
47.7647
21
-96.5454
0
LINE
8
BLACK
6
CONTINUOUS
10
47.7647
20
-96.5454
11
47.7647
21
-94.7674
0
LINE
8
BLACK
6
CONTINUOUS
10
47.7647
20
-94.7674
11
48.7553
21
-94.7674
0
LINE
8
BLACK
6
CONTINUOUS
10
48.7553
20
-94.7674
11
48.7553
21
-96.5454
0
LINE
8
BLACK
6
CONTINUOUS
10
104.635
20
-96.5454
11
103.645
21
-96.5454
0
LINE
8
BLACK
6
CONTINUOUS
10
103.645
20
-96.5454
11
103.645
21
-94.7674
0
LINE
8
BLACK
6
CONTINUOUS
10
103.645
20
-94.7674
11
104.635
21
-94.7674
0
LINE
8
BLACK
6
CONTINUOUS
10
104.635
20
-94.7674
11
104.635
21
-96.5454
0
LINE
8
BLACK
6
CONTINUOUS
10
109.715
20
-96.5454
11
108.725
21
-96.5454
0
LINE
8
BLACK
6
CONTINUOUS
10
108.725
20
-96.5454
11
108.725
21
-94.7674
0
LINE
8
BLACK
6
CONTINUOUS
10
108.725
20
-94.7674
11
109.715
21
-94.7674
0
LINE
8
BLACK
6
CONTINUOUS
10
109.715
20
-94.7674
11
109.715
21
-96.5454
0
LINE
8
BLACK
6
CONTINUOUS
10
114.795
20
-96.5454
11
113.805
21
-96.5454
0
LINE
8
BLACK
6
CONTINUOUS
10
113.805
20
-96.5454
11
113.805
21
-94.7674
0
LINE
8
BLACK
6
CONTINUOUS
10
113.805
20
-94.7674
11
114.795
21
-94.7674
0
LINE
8
BLACK
6
CONTINUOUS
10
114.795
20
-94.7674
11
114.795
21
-96.5454
0
LINE
8
BLACK
6
CONTINUOUS
10
117.335
20
-96.5454
11
116.345
21
-96.5454
0
LINE
8
BLACK
6
CONTINUOUS
10
116.345
20
-96.5454
11
116.345
21
-94.7674
0
LINE
8
BLACK
6
CONTINUOUS
10
116.345
20
-94.7674
11
117.335
21
-94.7674
0
LINE
8
BLACK
6
CONTINUOUS
10
117.335
20
-94.7674
11
117.335
21
-96.5454
0
LINE
8
BLACK
6
CONTINUOUS
10
119.875
20
-96.5454
11
118.885
21
-96.5454
0
LINE
8
BLACK
6
CONTINUOUS
10
118.885
20
-96.5454
11
118.885
21
-94.7674
0
LINE
8
BLACK
6
CONTINUOUS
10
118.885
20
-94.7674
11
119.875
21
-94.7674
0
LINE
8
BLACK
6
CONTINUOUS
10
119.875
20
-94.7674
11
119.875
21
-96.5454
0
LINE
8
BLACK
6
CONTINUOUS
10
122.415
20
-96.5454
11
121.425
21
-96.5454
0
LINE
8
BLACK
6
CONTINUOUS
10
121.425
20
-96.5454
11
121.425
21
-94.7674
0
LINE
8
BLACK
6
CONTINUOUS
10
121.425
20
-94.7674
11
122.415
21
-94.7674
0
LINE
8
BLACK
6
CONTINUOUS
10
122.415
20
-94.7674
11
122.415
21
-96.5454
0
LINE
8
BLACK
6
CONTINUOUS
10
124.955
20
-96.5454
11
123.965
21
-96.5454
0
LINE
8
BLACK
6
CONTINUOUS
10
123.965
20
-96.5454
11
123.965
21
-94.7674
0
LINE
8
BLACK
6
CONTINUOUS
10
123.965
20
-94.7674
11
124.955
21
-94.7674
0
LINE
8
BLACK
6
CONTINUOUS
10
124.955
20
-94.7674
11
124.955
21
-96.5454
0
LINE
8
BLACK
6
CONTINUOUS
10
127.495
20
-96.5454
11
126.505
21
-96.5454
0
LINE
8
BLACK
6
CONTINUOUS
10
126.505
20
-96.5454
11
126.505
21
-94.7674
0
LINE
8
BLACK
6
CONTINUOUS
10
126.505
20
-94.7674
11
127.495
21
-94.7674
0
LINE
8
BLACK
6
CONTINUOUS
10
127.495
20
-94.7674
11
127.495
21
-96.5454
0
LINE
8
BLACK
6
CONTINUOUS
10
46.2153
20
-96.5454
11
45.2247
21
-96.5454
0
LINE
8
BLACK
6
CONTINUOUS
10
45.2247
20
-96.5454
11
45.2247
21
-94.7674
0
LINE
8
BLACK
6
CONTINUOUS
10
45.2247
20
-94.7674
11
46.2153
21
-94.7674
0
LINE
8
BLACK
6
CONTINUOUS
10
46.2153
20
-94.7674
11
46.2153
21
-96.5454
0
LINE
8
BLACK
6
CONTINUOUS
10
112.255
20
-96.5454
11
111.265
21
-96.5454
0
LINE
8
BLACK
6
CONTINUOUS
10
111.265
20
-96.5454
11
111.265
21
-94.7674
0
LINE
8
BLACK
6
CONTINUOUS
10
111.265
20
-94.7674
11
112.255
21
-94.7674
0
LINE
8
BLACK
6
CONTINUOUS
10
112.255
20
-94.7674
11
112.255
21
-96.5454
0
LINE
8
BLACK
6
CONTINUOUS
10
43.6753
20
-96.5454
11
42.6847
21
-96.5454
0
LINE
8
BLACK
6
CONTINUOUS
10
42.6847
20
-96.5454
11
42.6847
21
-94.7674
0
LINE
8
BLACK
6
CONTINUOUS
10
42.6847
20
-94.7674
11
43.6753
21
-94.7674
0
LINE
8
BLACK
6
CONTINUOUS
10
43.6753
20
-94.7674
11
43.6753
21
-96.5454
0
LINE
8
BLACK
6
CONTINUOUS
10
41.1353
20
-96.5454
11
40.1447
21
-96.5454
0
LINE
8
BLACK
6
CONTINUOUS
10
40.1447
20
-96.5454
11
40.1447
21
-94.7674
0
LINE
8
BLACK
6
CONTINUOUS
10
40.1447
20
-94.7674
11
41.1353
21
-94.7674
0
LINE
8
BLACK
6
CONTINUOUS
10
41.1353
20
-94.7674
11
41.1353
21
-96.5454
0
LINE
8
BLACK
6
CONTINUOUS
10
109.715
20
-90.6526
11
108.725
21
-90.6526
0
LINE
8
BLACK
6
CONTINUOUS
10
108.725
20
-90.6526
11
108.725
21
-88.8746
0
LINE
8
BLACK
6
CONTINUOUS
10
108.725
20
-88.8746
11
109.715
21
-88.8746
0
LINE
8
BLACK
6
CONTINUOUS
10
109.715
20
-88.8746
11
109.715
21
-90.6526
0
LINE
8
BLACK
6
CONTINUOUS
10
127.495
20
-90.6526
11
126.505
21
-90.6526
0
LINE
8
BLACK
6
CONTINUOUS
10
126.505
20
-90.6526
11
126.505
21
-88.8746
0
LINE
8
BLACK
6
CONTINUOUS
10
126.505
20
-88.8746
11
127.495
21
-88.8746
0
LINE
8
BLACK
6
CONTINUOUS
10
127.495
20
-88.8746
11
127.495
21
-90.6526
0
LINE
8
BLACK
6
CONTINUOUS
10
124.955
20
-90.6526
11
123.965
21
-90.6526
0
LINE
8
BLACK
6
CONTINUOUS
10
123.965
20
-90.6526
11
123.965
21
-88.8746
0
LINE
8
BLACK
6
CONTINUOUS
10
123.965
20
-88.8746
11
124.955
21
-88.8746
0
LINE
8
BLACK
6
CONTINUOUS
10
124.955
20
-88.8746
11
124.955
21
-90.6526
0
LINE
8
BLACK
6
CONTINUOUS
10
117.335
20
-90.6526
11
116.345
21
-90.6526
0
LINE
8
BLACK
6
CONTINUOUS
10
116.345
20
-90.6526
11
116.345
21
-88.8746
0
LINE
8
BLACK
6
CONTINUOUS
10
116.345
20
-88.8746
11
117.335
21
-88.8746
0
LINE
8
BLACK
6
CONTINUOUS
10
117.335
20
-88.8746
11
117.335
21
-90.6526
0
LINE
8
BLACK
6
CONTINUOUS
10
119.875
20
-90.6526
11
118.885
21
-90.6526
0
LINE
8
BLACK
6
CONTINUOUS
10
118.885
20
-90.6526
11
118.885
21
-88.8746
0
LINE
8
BLACK
6
CONTINUOUS
10
118.885
20
-88.8746
11
119.875
21
-88.8746
0
LINE
8
BLACK
6
CONTINUOUS
10
119.875
20
-88.8746
11
119.875
21
-90.6526
0
LINE
8
BLACK
6
CONTINUOUS
10
122.415
20
-90.6526
11
121.425
21
-90.6526
0
LINE
8
BLACK
6
CONTINUOUS
10
121.425
20
-90.6526
11
121.425
21
-88.8746
0
LINE
8
BLACK
6
CONTINUOUS
10
121.425
20
-88.8746
11
122.415
21
-88.8746
0
LINE
8
BLACK
6
CONTINUOUS
10
122.415
20
-88.8746
11
122.415
21
-90.6526
0
LINE
8
BLACK
6
CONTINUOUS
10
114.795
20
-90.6526
11
113.805
21
-90.6526
0
LINE
8
BLACK
6
CONTINUOUS
10
113.805
20
-90.6526
11
113.805
21
-88.8746
0
LINE
8
BLACK
6
CONTINUOUS
10
113.805
20
-88.8746
11
114.795
21
-88.8746
0
LINE
8
BLACK
6
CONTINUOUS
10
114.795
20
-88.8746
11
114.795
21
-90.6526
0
LINE
8
BLACK
6
CONTINUOUS
10
112.255
20
-90.6526
11
111.265
21
-90.6526
0
LINE
8
BLACK
6
CONTINUOUS
10
111.265
20
-90.6526
11
111.265
21
-88.8746
0
LINE
8
BLACK
6
CONTINUOUS
10
111.265
20
-88.8746
11
112.255
21
-88.8746
0
LINE
8
BLACK
6
CONTINUOUS
10
112.255
20
-88.8746
11
112.255
21
-90.6526
0
LINE
8
BLACK
6
CONTINUOUS
10
104.635
20
-90.6526
11
103.645
21
-90.6526
0
LINE
8
BLACK
6
CONTINUOUS
10
103.645
20
-90.6526
11
103.645
21
-88.8746
0
LINE
8
BLACK
6
CONTINUOUS
10
103.645
20
-88.8746
11
104.635
21
-88.8746
0
LINE
8
BLACK
6
CONTINUOUS
10
104.635
20
-88.8746
11
104.635
21
-90.6526
0
LINE
8
BLACK
6
CONTINUOUS
10
107.175
20
-90.6526
11
106.185
21
-90.6526
0
LINE
8
BLACK
6
CONTINUOUS
10
106.185
20
-90.6526
11
106.185
21
-88.8746
0
LINE
8
BLACK
6
CONTINUOUS
10
106.185
20
-88.8746
11
107.175
21
-88.8746
0
LINE
8
BLACK
6
CONTINUOUS
10
107.175
20
-88.8746
11
107.175
21
-90.6526
0
LINE
8
BLACK
6
CONTINUOUS
10
63.9953
20
-90.6526
11
63.0047
21
-90.6526
0
LINE
8
BLACK
6
CONTINUOUS
10
63.0047
20
-90.6526
11
63.0047
21
-88.8746
0
LINE
8
BLACK
6
CONTINUOUS
10
63.0047
20
-88.8746
11
63.9953
21
-88.8746
0
LINE
8
BLACK
6
CONTINUOUS
10
63.9953
20
-88.8746
11
63.9953
21
-90.6526
0
LINE
8
BLACK
6
CONTINUOUS
10
41.1353
20
-90.6526
11
40.1447
21
-90.6526
0
LINE
8
BLACK
6
CONTINUOUS
10
40.1447
20
-90.6526
11
40.1447
21
-88.8746
0
LINE
8
BLACK
6
CONTINUOUS
10
40.1447
20
-88.8746
11
41.1353
21
-88.8746
0
LINE
8
BLACK
6
CONTINUOUS
10
41.1353
20
-88.8746
11
41.1353
21
-90.6526
0
LINE
8
BLACK
6
CONTINUOUS
10
43.6753
20
-90.6526
11
42.6847
21
-90.6526
0
LINE
8
BLACK
6
CONTINUOUS
10
42.6847
20
-90.6526
11
42.6847
21
-88.8746
0
LINE
8
BLACK
6
CONTINUOUS
10
42.6847
20
-88.8746
11
43.6753
21
-88.8746
0
LINE
8
BLACK
6
CONTINUOUS
10
43.6753
20
-88.8746
11
43.6753
21
-90.6526
0
LINE
8
BLACK
6
CONTINUOUS
10
46.2153
20
-90.6526
11
45.2247
21
-90.6526
0
LINE
8
BLACK
6
CONTINUOUS
10
45.2247
20
-90.6526
11
45.2247
21
-88.8746
0
LINE
8
BLACK
6
CONTINUOUS
10
45.2247
20
-88.8746
11
46.2153
21
-88.8746
0
LINE
8
BLACK
6
CONTINUOUS
10
46.2153
20
-88.8746
11
46.2153
21
-90.6526
0
LINE
8
BLACK
6
CONTINUOUS
10
48.7553
20
-90.6526
11
47.7647
21
-90.6526
0
LINE
8
BLACK
6
CONTINUOUS
10
47.7647
20
-90.6526
11
47.7647
21
-88.8746
0
LINE
8
BLACK
6
CONTINUOUS
10
47.7647
20
-88.8746
11
48.7553
21
-88.8746
0
LINE
8
BLACK
6
CONTINUOUS
10
48.7553
20
-88.8746
11
48.7553
21
-90.6526
0
LINE
8
BLACK
6
CONTINUOUS
10
51.2953
20
-90.6526
11
50.3047
21
-90.6526
0
LINE
8
BLACK
6
CONTINUOUS
10
50.3047
20
-90.6526
11
50.3047
21
-88.8746
0
LINE
8
BLACK
6
CONTINUOUS
10
50.3047
20
-88.8746
11
51.2953
21
-88.8746
0
LINE
8
BLACK
6
CONTINUOUS
10
51.2953
20
-88.8746
11
51.2953
21
-90.6526
0
LINE
8
BLACK
6
CONTINUOUS
10
53.8353
20
-90.6526
11
52.8447
21
-90.6526
0
LINE
8
BLACK
6
CONTINUOUS
10
52.8447
20
-90.6526
11
52.8447
21
-88.8746
0
LINE
8
BLACK
6
CONTINUOUS
10
52.8447
20
-88.8746
11
53.8353
21
-88.8746
0
LINE
8
BLACK
6
CONTINUOUS
10
53.8353
20
-88.8746
11
53.8353
21
-90.6526
0
LINE
8
BLACK
6
CONTINUOUS
10
56.3753
20
-90.6526
11
55.3847
21
-90.6526
0
LINE
8
BLACK
6
CONTINUOUS
10
55.3847
20
-90.6526
11
55.3847
21
-88.8746
0
LINE
8
BLACK
6
CONTINUOUS
10
55.3847
20
-88.8746
11
56.3753
21
-88.8746
0
LINE
8
BLACK
6
CONTINUOUS
10
56.3753
20
-88.8746
11
56.3753
21
-90.6526
0
LINE
8
BLACK
6
CONTINUOUS
10
58.9153
20
-90.6526
11
57.9247
21
-90.6526
0
LINE
8
BLACK
6
CONTINUOUS
10
57.9247
20
-90.6526
11
57.9247
21
-88.8746
0
LINE
8
BLACK
6
CONTINUOUS
10
57.9247
20
-88.8746
11
58.9153
21
-88.8746
0
LINE
8
BLACK
6
CONTINUOUS
10
58.9153
20
-88.8746
11
58.9153
21
-90.6526
0
LINE
8
BLACK
6
CONTINUOUS
10
61.4553
20
-90.6526
11
60.4647
21
-90.6526
0
LINE
8
BLACK
6
CONTINUOUS
10
60.4647
20
-90.6526
11
60.4647
21
-88.8746
0
LINE
8
BLACK
6
CONTINUOUS
10
60.4647
20
-88.8746
11
61.4553
21
-88.8746
0
LINE
8
BLACK
6
CONTINUOUS
10
61.4553
20
-88.8746
11
61.4553
21
-90.6526
  0
ENDSEC
  0
EOF
