  0
SECTION
  2
HEADER
  9
$ANGBASE
  50
0.0
  9
$ANGDIR
  70
  1
  9
$MEASUREMENT
  70
0
  0
ENDSEC
  0
SECTION
  2
TABLES
  0
TABLE
  2
LTYPE
  70
4
  0
LTYPE
  5
40F
  2
CONTINUOUS
  70
0
  3
Solid line
  72
65
  73
0
  40
0.0
  0
LTYPE
  5
410
  2
DASHDOT
 70
0
  3
Dash Dot ____ _ ____ _
 72
65
 73
4
 40
2.0
 49
1.25
 49
-0.25
 49
0.25
 49
-0.25
  0
LTYPE
  5
411
  2
DASHED
 70
0
  3
Dashed __ __ __ __ __
 72
65
 73
2
 40
0.75
 49
0.5
 49
-0.25
  0
LTYPE
  5
43B
  2
DOTTED
 70
0
  3
Dotted .  .  .  .
 72
65
 73
2
 40
0.2
 49
0.0
 49
-0.2
  0
ENDTAB
  0
TABLE
  2
STYLE
  70
4
  0
STYLE
  2
KICAD
  70
0
  40
0
  41
1
  42
1
  50
0
  71
0
  3
isocp.shx
  0
STYLE
  2
KICADB
  70
0
  40
0
  41
1
  42
1
  50
0
  71
0
  3
isocp.shx
  0
STYLE
  2
KICADI
  70
0
  40
0
  41
1
  42
1
  50
15
  71
0
  3
isocp.shx
  0
STYLE
  2
KICADBI
  70
0
  40
0
  41
1
  42
1
  50
15
  71
0
  3
isocp.shx
  0
ENDTAB
  0
TABLE
  2
LAYER
  70
30
  0
LAYER
  2
BLACK
  70
0
  62
7
  6
CONTINUOUS
  0
LAYER
  2
GRAY1
  70
0
  62
251
  6
CONTINUOUS
  0
LAYER
  2
GRAY2
  70
0
  62
8
  6
CONTINUOUS
  0
LAYER
  2
GRAY3
  70
0
  62
9
  6
CONTINUOUS
  0
LAYER
  2
WHITE
  70
0
  62
7
  6
CONTINUOUS
  0
LAYER
  2
LYELLOW
  70
0
  62
51
  6
CONTINUOUS
  0
LAYER
  2
BLUE1
  70
0
  62
178
  6
CONTINUOUS
  0
LAYER
  2
GREEN1
  70
0
  62
98
  6
CONTINUOUS
  0
LAYER
  2
CYAN1
  70
0
  62
138
  6
CONTINUOUS
  0
LAYER
  2
RED1
  70
0
  62
18
  6
CONTINUOUS
  0
LAYER
  2
MAGENTA1
  70
0
  62
228
  6
CONTINUOUS
  0
LAYER
  2
BROWN1
  70
0
  62
58
  6
CONTINUOUS
  0
LAYER
  2
BLUE2
  70
0
  62
5
  6
CONTINUOUS
  0
LAYER
  2
GREEN2
  70
0
  62
3
  6
CONTINUOUS
  0
LAYER
  2
CYAN2
  70
0
  62
4
  6
CONTINUOUS
  0
LAYER
  2
RED2
  70
0
  62
1
  6
CONTINUOUS
  0
LAYER
  2
MAGENTA2
  70
0
  62
6
  6
CONTINUOUS
  0
LAYER
  2
BROWN2
  70
0
  62
54
  6
CONTINUOUS
  0
LAYER
  2
BLUE3
  70
0
  62
171
  6
CONTINUOUS
  0
LAYER
  2
GREEN3
  70
0
  62
91
  6
CONTINUOUS
  0
LAYER
  2
CYAN3
  70
0
  62
131
  6
CONTINUOUS
  0
LAYER
  2
RED3
  70
0
  62
11
  6
CONTINUOUS
  0
LAYER
  2
MAGENTA3
  70
0
  62
221
  6
CONTINUOUS
  0
LAYER
  2
YELLOW3
  70
0
  62
2
  6
CONTINUOUS
  0
LAYER
  2
BLUE4
  70
0
  62
5
  6
CONTINUOUS
  0
LAYER
  2
GREEN4
  70
0
  62
3
  6
CONTINUOUS
  0
LAYER
  2
CYAN4
  70
0
  62
4
  6
CONTINUOUS
  0
LAYER
  2
RED4
  70
0
  62
1
  6
CONTINUOUS
  0
LAYER
  2
MAGENTA4
  70
0
  62
6
  6
CONTINUOUS
  0
LAYER
  2
YELLOW4
  70
0
  62
2
  6
CONTINUOUS
  0
ENDTAB
  0
ENDSEC
  0
SECTION
  2
ENTITIES
0
LINE
8
BLACK
6
CONTINUOUS
10
59.1153
20
-139.925
11
57.7247
21
-139.925
0
LINE
8
BLACK
6
CONTINUOUS
10
57.7247
20
-139.925
11
57.7247
21
-137.747
0
LINE
8
BLACK
6
CONTINUOUS
10
57.7247
20
-137.747
11
59.1153
21
-137.747
0
LINE
8
BLACK
6
CONTINUOUS
10
59.1153
20
-137.747
11
59.1153
21
-139.925
0
LINE
8
BLACK
6
CONTINUOUS
10
107.375
20
-139.925
11
105.985
21
-139.925
0
LINE
8
BLACK
6
CONTINUOUS
10
105.985
20
-139.925
11
105.985
21
-137.747
0
LINE
8
BLACK
6
CONTINUOUS
10
105.985
20
-137.747
11
107.375
21
-137.747
0
LINE
8
BLACK
6
CONTINUOUS
10
107.375
20
-137.747
11
107.375
21
-139.925
0
LINE
8
BLACK
6
CONTINUOUS
10
109.915
20
-139.925
11
108.525
21
-139.925
0
LINE
8
BLACK
6
CONTINUOUS
10
108.525
20
-139.925
11
108.525
21
-137.747
0
LINE
8
BLACK
6
CONTINUOUS
10
108.525
20
-137.747
11
109.915
21
-137.747
0
LINE
8
BLACK
6
CONTINUOUS
10
109.915
20
-137.747
11
109.915
21
-139.925
0
LINE
8
BLACK
6
CONTINUOUS
10
112.455
20
-139.925
11
111.065
21
-139.925
0
LINE
8
BLACK
6
CONTINUOUS
10
111.065
20
-139.925
11
111.065
21
-137.747
0
LINE
8
BLACK
6
CONTINUOUS
10
111.065
20
-137.747
11
112.455
21
-137.747
0
LINE
8
BLACK
6
CONTINUOUS
10
112.455
20
-137.747
11
112.455
21
-139.925
0
LINE
8
BLACK
6
CONTINUOUS
10
114.995
20
-139.925
11
113.605
21
-139.925
0
LINE
8
BLACK
6
CONTINUOUS
10
113.605
20
-139.925
11
113.605
21
-137.747
0
LINE
8
BLACK
6
CONTINUOUS
10
113.605
20
-137.747
11
114.995
21
-137.747
0
LINE
8
BLACK
6
CONTINUOUS
10
114.995
20
-137.747
11
114.995
21
-139.925
0
LINE
8
BLACK
6
CONTINUOUS
10
122.615
20
-139.925
11
121.225
21
-139.925
0
LINE
8
BLACK
6
CONTINUOUS
10
121.225
20
-139.925
11
121.225
21
-137.747
0
LINE
8
BLACK
6
CONTINUOUS
10
121.225
20
-137.747
11
122.615
21
-137.747
0
LINE
8
BLACK
6
CONTINUOUS
10
122.615
20
-137.747
11
122.615
21
-139.925
0
LINE
8
BLACK
6
CONTINUOUS
10
127.695
20
-139.925
11
126.305
21
-139.925
0
LINE
8
BLACK
6
CONTINUOUS
10
126.305
20
-139.925
11
126.305
21
-137.747
0
LINE
8
BLACK
6
CONTINUOUS
10
126.305
20
-137.747
11
127.695
21
-137.747
0
LINE
8
BLACK
6
CONTINUOUS
10
127.695
20
-137.747
11
127.695
21
-139.925
0
LINE
8
BLACK
6
CONTINUOUS
10
64.1953
20
-139.925
11
62.8047
21
-139.925
0
LINE
8
BLACK
6
CONTINUOUS
10
62.8047
20
-139.925
11
62.8047
21
-137.747
0
LINE
8
BLACK
6
CONTINUOUS
10
62.8047
20
-137.747
11
64.1953
21
-137.747
0
LINE
8
BLACK
6
CONTINUOUS
10
64.1953
20
-137.747
11
64.1953
21
-139.925
0
LINE
8
BLACK
6
CONTINUOUS
10
61.6553
20
-139.925
11
60.2647
21
-139.925
0
LINE
8
BLACK
6
CONTINUOUS
10
60.2647
20
-139.925
11
60.2647
21
-137.747
0
LINE
8
BLACK
6
CONTINUOUS
10
60.2647
20
-137.747
11
61.6553
21
-137.747
0
LINE
8
BLACK
6
CONTINUOUS
10
61.6553
20
-137.747
11
61.6553
21
-139.925
0
LINE
8
BLACK
6
CONTINUOUS
10
117.535
20
-139.925
11
116.145
21
-139.925
0
LINE
8
BLACK
6
CONTINUOUS
10
116.145
20
-139.925
11
116.145
21
-137.747
0
LINE
8
BLACK
6
CONTINUOUS
10
116.145
20
-137.747
11
117.535
21
-137.747
0
LINE
8
BLACK
6
CONTINUOUS
10
117.535
20
-137.747
11
117.535
21
-139.925
0
LINE
8
BLACK
6
CONTINUOUS
10
56.5753
20
-139.925
11
55.1847
21
-139.925
0
LINE
8
BLACK
6
CONTINUOUS
10
55.1847
20
-139.925
11
55.1847
21
-137.747
0
LINE
8
BLACK
6
CONTINUOUS
10
55.1847
20
-137.747
11
56.5753
21
-137.747
0
LINE
8
BLACK
6
CONTINUOUS
10
56.5753
20
-137.747
11
56.5753
21
-139.925
0
LINE
8
BLACK
6
CONTINUOUS
10
54.0353
20
-139.925
11
52.6447
21
-139.925
0
LINE
8
BLACK
6
CONTINUOUS
10
52.6447
20
-139.925
11
52.6447
21
-137.747
0
LINE
8
BLACK
6
CONTINUOUS
10
52.6447
20
-137.747
11
54.0353
21
-137.747
0
LINE
8
BLACK
6
CONTINUOUS
10
54.0353
20
-137.747
11
54.0353
21
-139.925
0
LINE
8
BLACK
6
CONTINUOUS
10
51.4953
20
-139.925
11
50.1047
21
-139.925
0
LINE
8
BLACK
6
CONTINUOUS
10
50.1047
20
-139.925
11
50.1047
21
-137.747
0
LINE
8
BLACK
6
CONTINUOUS
10
50.1047
20
-137.747
11
51.4953
21
-137.747
0
LINE
8
BLACK
6
CONTINUOUS
10
51.4953
20
-137.747
11
51.4953
21
-139.925
0
LINE
8
BLACK
6
CONTINUOUS
10
48.9553
20
-139.925
11
47.5647
21
-139.925
0
LINE
8
BLACK
6
CONTINUOUS
10
47.5647
20
-139.925
11
47.5647
21
-137.747
0
LINE
8
BLACK
6
CONTINUOUS
10
47.5647
20
-137.747
11
48.9553
21
-137.747
0
LINE
8
BLACK
6
CONTINUOUS
10
48.9553
20
-137.747
11
48.9553
21
-139.925
0
LINE
8
BLACK
6
CONTINUOUS
10
46.4153
20
-139.925
11
45.0247
21
-139.925
0
LINE
8
BLACK
6
CONTINUOUS
10
45.0247
20
-139.925
11
45.0247
21
-137.747
0
LINE
8
BLACK
6
CONTINUOUS
10
45.0247
20
-137.747
11
46.4153
21
-137.747
0
LINE
8
BLACK
6
CONTINUOUS
10
46.4153
20
-137.747
11
46.4153
21
-139.925
0
LINE
8
BLACK
6
CONTINUOUS
10
41.3353
20
-139.925
11
39.9447
21
-139.925
0
LINE
8
BLACK
6
CONTINUOUS
10
39.9447
20
-139.925
11
39.9447
21
-137.747
0
LINE
8
BLACK
6
CONTINUOUS
10
39.9447
20
-137.747
11
41.3353
21
-137.747
0
LINE
8
BLACK
6
CONTINUOUS
10
41.3353
20
-137.747
11
41.3353
21
-139.925
0
LINE
8
BLACK
6
CONTINUOUS
10
43.8753
20
-139.925
11
42.4847
21
-139.925
0
LINE
8
BLACK
6
CONTINUOUS
10
42.4847
20
-139.925
11
42.4847
21
-137.747
0
LINE
8
BLACK
6
CONTINUOUS
10
42.4847
20
-137.747
11
43.8753
21
-137.747
0
LINE
8
BLACK
6
CONTINUOUS
10
43.8753
20
-137.747
11
43.8753
21
-139.925
0
LINE
8
BLACK
6
CONTINUOUS
10
104.835
20
-139.925
11
103.445
21
-139.925
0
LINE
8
BLACK
6
CONTINUOUS
10
103.445
20
-139.925
11
103.445
21
-137.747
0
LINE
8
BLACK
6
CONTINUOUS
10
103.445
20
-137.747
11
104.835
21
-137.747
0
LINE
8
BLACK
6
CONTINUOUS
10
104.835
20
-137.747
11
104.835
21
-139.925
0
LINE
8
BLACK
6
CONTINUOUS
10
120.075
20
-139.925
11
118.685
21
-139.925
0
LINE
8
BLACK
6
CONTINUOUS
10
118.685
20
-139.925
11
118.685
21
-137.747
0
LINE
8
BLACK
6
CONTINUOUS
10
118.685
20
-137.747
11
120.075
21
-137.747
0
LINE
8
BLACK
6
CONTINUOUS
10
120.075
20
-137.747
11
120.075
21
-139.925
0
LINE
8
BLACK
6
CONTINUOUS
10
125.155
20
-139.925
11
123.765
21
-139.925
0
LINE
8
BLACK
6
CONTINUOUS
10
123.765
20
-139.925
11
123.765
21
-137.747
0
LINE
8
BLACK
6
CONTINUOUS
10
123.765
20
-137.747
11
125.155
21
-137.747
0
LINE
8
BLACK
6
CONTINUOUS
10
125.155
20
-137.747
11
125.155
21
-139.925
0
LINE
8
BLACK
6
CONTINUOUS
10
96.8541
20
-132.432
11
97.1479
21
-132.602
0
LINE
8
BLACK
6
CONTINUOUS
10
97.1479
20
-132.602
11
97.366
21
-132.862
0
LINE
8
BLACK
6
CONTINUOUS
10
97.366
20
-132.862
11
97.482
21
-133.18
0
LINE
8
BLACK
6
CONTINUOUS
10
97.482
20
-133.18
11
97.482
21
-133.52
0
LINE
8
BLACK
6
CONTINUOUS
10
97.482
20
-133.52
11
97.366
21
-133.838
0
LINE
8
BLACK
6
CONTINUOUS
10
97.366
20
-133.838
11
97.1479
21
-134.098
0
LINE
8
BLACK
6
CONTINUOUS
10
97.1479
20
-134.098
11
96.8541
21
-134.268
0
LINE
8
BLACK
6
CONTINUOUS
10
96.8541
20
-134.268
11
96.52
21
-134.327
0
LINE
8
BLACK
6
CONTINUOUS
10
96.52
20
-134.327
11
96.1859
21
-134.268
0
LINE
8
BLACK
6
CONTINUOUS
10
96.1859
20
-134.268
11
95.8921
21
-134.098
0
LINE
8
BLACK
6
CONTINUOUS
10
95.8921
20
-134.098
11
95.674
21
-133.838
0
LINE
8
BLACK
6
CONTINUOUS
10
95.674
20
-133.838
11
95.558
21
-133.52
0
LINE
8
BLACK
6
CONTINUOUS
10
95.558
20
-133.52
11
95.558
21
-133.18
0
LINE
8
BLACK
6
CONTINUOUS
10
95.558
20
-133.18
11
95.674
21
-132.862
0
LINE
8
BLACK
6
CONTINUOUS
10
95.674
20
-132.862
11
95.8921
21
-132.602
0
LINE
8
BLACK
6
CONTINUOUS
10
95.8921
20
-132.602
11
96.1859
21
-132.432
0
LINE
8
BLACK
6
CONTINUOUS
10
96.1859
20
-132.432
11
96.52
21
-132.373
0
LINE
8
BLACK
6
CONTINUOUS
10
96.52
20
-132.373
11
96.8541
21
-132.432
0
LINE
8
BLACK
6
CONTINUOUS
10
99.3941
20
-132.432
11
99.6879
21
-132.602
0
LINE
8
BLACK
6
CONTINUOUS
10
99.6879
20
-132.602
11
99.906
21
-132.862
0
LINE
8
BLACK
6
CONTINUOUS
10
99.906
20
-132.862
11
100.022
21
-133.18
0
LINE
8
BLACK
6
CONTINUOUS
10
100.022
20
-133.18
11
100.022
21
-133.52
0
LINE
8
BLACK
6
CONTINUOUS
10
100.022
20
-133.52
11
99.906
21
-133.838
0
LINE
8
BLACK
6
CONTINUOUS
10
99.906
20
-133.838
11
99.6879
21
-134.098
0
LINE
8
BLACK
6
CONTINUOUS
10
99.6879
20
-134.098
11
99.3941
21
-134.268
0
LINE
8
BLACK
6
CONTINUOUS
10
99.3941
20
-134.268
11
99.06
21
-134.327
0
LINE
8
BLACK
6
CONTINUOUS
10
99.06
20
-134.327
11
98.7259
21
-134.268
0
LINE
8
BLACK
6
CONTINUOUS
10
98.7259
20
-134.268
11
98.4321
21
-134.098
0
LINE
8
BLACK
6
CONTINUOUS
10
98.4321
20
-134.098
11
98.214
21
-133.838
0
LINE
8
BLACK
6
CONTINUOUS
10
98.214
20
-133.838
11
98.098
21
-133.52
0
LINE
8
BLACK
6
CONTINUOUS
10
98.098
20
-133.52
11
98.098
21
-133.18
0
LINE
8
BLACK
6
CONTINUOUS
10
98.098
20
-133.18
11
98.214
21
-132.862
0
LINE
8
BLACK
6
CONTINUOUS
10
98.214
20
-132.862
11
98.4321
21
-132.602
0
LINE
8
BLACK
6
CONTINUOUS
10
98.4321
20
-132.602
11
98.7259
21
-132.432
0
LINE
8
BLACK
6
CONTINUOUS
10
98.7259
20
-132.432
11
99.06
21
-132.373
0
LINE
8
BLACK
6
CONTINUOUS
10
99.06
20
-132.373
11
99.3941
21
-132.432
0
LINE
8
BLACK
6
CONTINUOUS
10
72.7241
20
-132.432
11
73.0179
21
-132.602
0
LINE
8
BLACK
6
CONTINUOUS
10
73.0179
20
-132.602
11
73.236
21
-132.862
0
LINE
8
BLACK
6
CONTINUOUS
10
73.236
20
-132.862
11
73.352
21
-133.18
0
LINE
8
BLACK
6
CONTINUOUS
10
73.352
20
-133.18
11
73.352
21
-133.52
0
LINE
8
BLACK
6
CONTINUOUS
10
73.352
20
-133.52
11
73.236
21
-133.838
0
LINE
8
BLACK
6
CONTINUOUS
10
73.236
20
-133.838
11
73.0179
21
-134.098
0
LINE
8
BLACK
6
CONTINUOUS
10
73.0179
20
-134.098
11
72.7241
21
-134.268
0
LINE
8
BLACK
6
CONTINUOUS
10
72.7241
20
-134.268
11
72.39
21
-134.327
0
LINE
8
BLACK
6
CONTINUOUS
10
72.39
20
-134.327
11
72.0559
21
-134.268
0
LINE
8
BLACK
6
CONTINUOUS
10
72.0559
20
-134.268
11
71.7621
21
-134.098
0
LINE
8
BLACK
6
CONTINUOUS
10
71.7621
20
-134.098
11
71.544
21
-133.838
0
LINE
8
BLACK
6
CONTINUOUS
10
71.544
20
-133.838
11
71.428
21
-133.52
0
LINE
8
BLACK
6
CONTINUOUS
10
71.428
20
-133.52
11
71.428
21
-133.18
0
LINE
8
BLACK
6
CONTINUOUS
10
71.428
20
-133.18
11
71.544
21
-132.862
0
LINE
8
BLACK
6
CONTINUOUS
10
71.544
20
-132.862
11
71.7621
21
-132.602
0
LINE
8
BLACK
6
CONTINUOUS
10
71.7621
20
-132.602
11
72.0559
21
-132.432
0
LINE
8
BLACK
6
CONTINUOUS
10
72.0559
20
-132.432
11
72.39
21
-132.373
0
LINE
8
BLACK
6
CONTINUOUS
10
72.39
20
-132.373
11
72.7241
21
-132.432
0
LINE
8
BLACK
6
CONTINUOUS
10
70.1841
20
-132.432
11
70.4779
21
-132.602
0
LINE
8
BLACK
6
CONTINUOUS
10
70.4779
20
-132.602
11
70.696
21
-132.862
0
LINE
8
BLACK
6
CONTINUOUS
10
70.696
20
-132.862
11
70.812
21
-133.18
0
LINE
8
BLACK
6
CONTINUOUS
10
70.812
20
-133.18
11
70.812
21
-133.52
0
LINE
8
BLACK
6
CONTINUOUS
10
70.812
20
-133.52
11
70.696
21
-133.838
0
LINE
8
BLACK
6
CONTINUOUS
10
70.696
20
-133.838
11
70.4779
21
-134.098
0
LINE
8
BLACK
6
CONTINUOUS
10
70.4779
20
-134.098
11
70.1841
21
-134.268
0
LINE
8
BLACK
6
CONTINUOUS
10
70.1841
20
-134.268
11
69.85
21
-134.327
0
LINE
8
BLACK
6
CONTINUOUS
10
69.85
20
-134.327
11
69.5159
21
-134.268
0
LINE
8
BLACK
6
CONTINUOUS
10
69.5159
20
-134.268
11
69.2221
21
-134.098
0
LINE
8
BLACK
6
CONTINUOUS
10
69.2221
20
-134.098
11
69.004
21
-133.838
0
LINE
8
BLACK
6
CONTINUOUS
10
69.004
20
-133.838
11
68.888
21
-133.52
0
LINE
8
BLACK
6
CONTINUOUS
10
68.888
20
-133.52
11
68.888
21
-133.18
0
LINE
8
BLACK
6
CONTINUOUS
10
68.888
20
-133.18
11
69.004
21
-132.862
0
LINE
8
BLACK
6
CONTINUOUS
10
69.004
20
-132.862
11
69.2221
21
-132.602
0
LINE
8
BLACK
6
CONTINUOUS
10
69.2221
20
-132.602
11
69.5159
21
-132.432
0
LINE
8
BLACK
6
CONTINUOUS
10
69.5159
20
-132.432
11
69.85
21
-132.373
0
LINE
8
BLACK
6
CONTINUOUS
10
69.85
20
-132.373
11
70.1841
21
-132.432
0
LINE
8
BLACK
6
CONTINUOUS
10
79.0741
20
-132.432
11
79.3679
21
-132.602
0
LINE
8
BLACK
6
CONTINUOUS
10
79.3679
20
-132.602
11
79.586
21
-132.862
0
LINE
8
BLACK
6
CONTINUOUS
10
79.586
20
-132.862
11
79.702
21
-133.18
0
LINE
8
BLACK
6
CONTINUOUS
10
79.702
20
-133.18
11
79.702
21
-133.52
0
LINE
8
BLACK
6
CONTINUOUS
10
79.702
20
-133.52
11
79.586
21
-133.838
0
LINE
8
BLACK
6
CONTINUOUS
10
79.586
20
-133.838
11
79.3679
21
-134.098
0
LINE
8
BLACK
6
CONTINUOUS
10
79.3679
20
-134.098
11
79.0741
21
-134.268
0
LINE
8
BLACK
6
CONTINUOUS
10
79.0741
20
-134.268
11
78.74
21
-134.327
0
LINE
8
BLACK
6
CONTINUOUS
10
78.74
20
-134.327
11
78.4059
21
-134.268
0
LINE
8
BLACK
6
CONTINUOUS
10
78.4059
20
-134.268
11
78.1121
21
-134.098
0
LINE
8
BLACK
6
CONTINUOUS
10
78.1121
20
-134.098
11
77.894
21
-133.838
0
LINE
8
BLACK
6
CONTINUOUS
10
77.894
20
-133.838
11
77.778
21
-133.52
0
LINE
8
BLACK
6
CONTINUOUS
10
77.778
20
-133.52
11
77.778
21
-133.18
0
LINE
8
BLACK
6
CONTINUOUS
10
77.778
20
-133.18
11
77.894
21
-132.862
0
LINE
8
BLACK
6
CONTINUOUS
10
77.894
20
-132.862
11
78.1121
21
-132.602
0
LINE
8
BLACK
6
CONTINUOUS
10
78.1121
20
-132.602
11
78.4059
21
-132.432
0
LINE
8
BLACK
6
CONTINUOUS
10
78.4059
20
-132.432
11
78.74
21
-132.373
0
LINE
8
BLACK
6
CONTINUOUS
10
78.74
20
-132.373
11
79.0741
21
-132.432
0
LINE
8
BLACK
6
CONTINUOUS
10
81.6141
20
-132.432
11
81.9079
21
-132.602
0
LINE
8
BLACK
6
CONTINUOUS
10
81.9079
20
-132.602
11
82.126
21
-132.862
0
LINE
8
BLACK
6
CONTINUOUS
10
82.126
20
-132.862
11
82.242
21
-133.18
0
LINE
8
BLACK
6
CONTINUOUS
10
82.242
20
-133.18
11
82.242
21
-133.52
0
LINE
8
BLACK
6
CONTINUOUS
10
82.242
20
-133.52
11
82.126
21
-133.838
0
LINE
8
BLACK
6
CONTINUOUS
10
82.126
20
-133.838
11
81.9079
21
-134.098
0
LINE
8
BLACK
6
CONTINUOUS
10
81.9079
20
-134.098
11
81.6141
21
-134.268
0
LINE
8
BLACK
6
CONTINUOUS
10
81.6141
20
-134.268
11
81.28
21
-134.327
0
LINE
8
BLACK
6
CONTINUOUS
10
81.28
20
-134.327
11
80.9459
21
-134.268
0
LINE
8
BLACK
6
CONTINUOUS
10
80.9459
20
-134.268
11
80.6521
21
-134.098
0
LINE
8
BLACK
6
CONTINUOUS
10
80.6521
20
-134.098
11
80.434
21
-133.838
0
LINE
8
BLACK
6
CONTINUOUS
10
80.434
20
-133.838
11
80.318
21
-133.52
0
LINE
8
BLACK
6
CONTINUOUS
10
80.318
20
-133.52
11
80.318
21
-133.18
0
LINE
8
BLACK
6
CONTINUOUS
10
80.318
20
-133.18
11
80.434
21
-132.862
0
LINE
8
BLACK
6
CONTINUOUS
10
80.434
20
-132.862
11
80.6521
21
-132.602
0
LINE
8
BLACK
6
CONTINUOUS
10
80.6521
20
-132.602
11
80.9459
21
-132.432
0
LINE
8
BLACK
6
CONTINUOUS
10
80.9459
20
-132.432
11
81.28
21
-132.373
0
LINE
8
BLACK
6
CONTINUOUS
10
81.28
20
-132.373
11
81.6141
21
-132.432
0
LINE
8
BLACK
6
CONTINUOUS
10
90.5041
20
-132.432
11
90.7979
21
-132.602
0
LINE
8
BLACK
6
CONTINUOUS
10
90.7979
20
-132.602
11
91.016
21
-132.862
0
LINE
8
BLACK
6
CONTINUOUS
10
91.016
20
-132.862
11
91.132
21
-133.18
0
LINE
8
BLACK
6
CONTINUOUS
10
91.132
20
-133.18
11
91.132
21
-133.52
0
LINE
8
BLACK
6
CONTINUOUS
10
91.132
20
-133.52
11
91.016
21
-133.838
0
LINE
8
BLACK
6
CONTINUOUS
10
91.016
20
-133.838
11
90.7979
21
-134.098
0
LINE
8
BLACK
6
CONTINUOUS
10
90.7979
20
-134.098
11
90.5041
21
-134.268
0
LINE
8
BLACK
6
CONTINUOUS
10
90.5041
20
-134.268
11
90.17
21
-134.327
0
LINE
8
BLACK
6
CONTINUOUS
10
90.17
20
-134.327
11
89.8359
21
-134.268
0
LINE
8
BLACK
6
CONTINUOUS
10
89.8359
20
-134.268
11
89.5421
21
-134.098
0
LINE
8
BLACK
6
CONTINUOUS
10
89.5421
20
-134.098
11
89.324
21
-133.838
0
LINE
8
BLACK
6
CONTINUOUS
10
89.324
20
-133.838
11
89.208
21
-133.52
0
LINE
8
BLACK
6
CONTINUOUS
10
89.208
20
-133.52
11
89.208
21
-133.18
0
LINE
8
BLACK
6
CONTINUOUS
10
89.208
20
-133.18
11
89.324
21
-132.862
0
LINE
8
BLACK
6
CONTINUOUS
10
89.324
20
-132.862
11
89.5421
21
-132.602
0
LINE
8
BLACK
6
CONTINUOUS
10
89.5421
20
-132.602
11
89.8359
21
-132.432
0
LINE
8
BLACK
6
CONTINUOUS
10
89.8359
20
-132.432
11
90.17
21
-132.373
0
LINE
8
BLACK
6
CONTINUOUS
10
90.17
20
-132.373
11
90.5041
21
-132.432
0
LINE
8
BLACK
6
CONTINUOUS
10
87.9641
20
-132.432
11
88.2579
21
-132.602
0
LINE
8
BLACK
6
CONTINUOUS
10
88.2579
20
-132.602
11
88.476
21
-132.862
0
LINE
8
BLACK
6
CONTINUOUS
10
88.476
20
-132.862
11
88.592
21
-133.18
0
LINE
8
BLACK
6
CONTINUOUS
10
88.592
20
-133.18
11
88.592
21
-133.52
0
LINE
8
BLACK
6
CONTINUOUS
10
88.592
20
-133.52
11
88.476
21
-133.838
0
LINE
8
BLACK
6
CONTINUOUS
10
88.476
20
-133.838
11
88.2579
21
-134.098
0
LINE
8
BLACK
6
CONTINUOUS
10
88.2579
20
-134.098
11
87.9641
21
-134.268
0
LINE
8
BLACK
6
CONTINUOUS
10
87.9641
20
-134.268
11
87.63
21
-134.327
0
LINE
8
BLACK
6
CONTINUOUS
10
87.63
20
-134.327
11
87.2959
21
-134.268
0
LINE
8
BLACK
6
CONTINUOUS
10
87.2959
20
-134.268
11
87.0021
21
-134.098
0
LINE
8
BLACK
6
CONTINUOUS
10
87.0021
20
-134.098
11
86.784
21
-133.838
0
LINE
8
BLACK
6
CONTINUOUS
10
86.784
20
-133.838
11
86.668
21
-133.52
0
LINE
8
BLACK
6
CONTINUOUS
10
86.668
20
-133.52
11
86.668
21
-133.18
0
LINE
8
BLACK
6
CONTINUOUS
10
86.668
20
-133.18
11
86.784
21
-132.862
0
LINE
8
BLACK
6
CONTINUOUS
10
86.784
20
-132.862
11
87.0021
21
-132.602
0
LINE
8
BLACK
6
CONTINUOUS
10
87.0021
20
-132.602
11
87.2959
21
-132.432
0
LINE
8
BLACK
6
CONTINUOUS
10
87.2959
20
-132.432
11
87.63
21
-132.373
0
LINE
8
BLACK
6
CONTINUOUS
10
87.63
20
-132.373
11
87.9641
21
-132.432
0
LINE
8
BLACK
6
CONTINUOUS
10
46.4153
20
-134.033
11
45.0247
21
-134.033
0
LINE
8
BLACK
6
CONTINUOUS
10
45.0247
20
-134.033
11
45.0247
21
-131.855
0
LINE
8
BLACK
6
CONTINUOUS
10
45.0247
20
-131.855
11
46.4153
21
-131.855
0
LINE
8
BLACK
6
CONTINUOUS
10
46.4153
20
-131.855
11
46.4153
21
-134.033
0
LINE
8
BLACK
6
CONTINUOUS
10
107.375
20
-134.033
11
105.985
21
-134.033
0
LINE
8
BLACK
6
CONTINUOUS
10
105.985
20
-134.033
11
105.985
21
-131.855
0
LINE
8
BLACK
6
CONTINUOUS
10
105.985
20
-131.855
11
107.375
21
-131.855
0
LINE
8
BLACK
6
CONTINUOUS
10
107.375
20
-131.855
11
107.375
21
-134.033
0
LINE
8
BLACK
6
CONTINUOUS
10
43.8753
20
-134.033
11
42.4847
21
-134.033
0
LINE
8
BLACK
6
CONTINUOUS
10
42.4847
20
-134.033
11
42.4847
21
-131.855
0
LINE
8
BLACK
6
CONTINUOUS
10
42.4847
20
-131.855
11
43.8753
21
-131.855
0
LINE
8
BLACK
6
CONTINUOUS
10
43.8753
20
-131.855
11
43.8753
21
-134.033
0
LINE
8
BLACK
6
CONTINUOUS
10
48.9553
20
-134.033
11
47.5647
21
-134.033
0
LINE
8
BLACK
6
CONTINUOUS
10
47.5647
20
-134.033
11
47.5647
21
-131.855
0
LINE
8
BLACK
6
CONTINUOUS
10
47.5647
20
-131.855
11
48.9553
21
-131.855
0
LINE
8
BLACK
6
CONTINUOUS
10
48.9553
20
-131.855
11
48.9553
21
-134.033
0
LINE
8
BLACK
6
CONTINUOUS
10
51.4953
20
-134.033
11
50.1047
21
-134.033
0
LINE
8
BLACK
6
CONTINUOUS
10
50.1047
20
-134.033
11
50.1047
21
-131.855
0
LINE
8
BLACK
6
CONTINUOUS
10
50.1047
20
-131.855
11
51.4953
21
-131.855
0
LINE
8
BLACK
6
CONTINUOUS
10
51.4953
20
-131.855
11
51.4953
21
-134.033
0
LINE
8
BLACK
6
CONTINUOUS
10
54.0353
20
-134.033
11
52.6447
21
-134.033
0
LINE
8
BLACK
6
CONTINUOUS
10
52.6447
20
-134.033
11
52.6447
21
-131.855
0
LINE
8
BLACK
6
CONTINUOUS
10
52.6447
20
-131.855
11
54.0353
21
-131.855
0
LINE
8
BLACK
6
CONTINUOUS
10
54.0353
20
-131.855
11
54.0353
21
-134.033
0
LINE
8
BLACK
6
CONTINUOUS
10
56.5753
20
-134.033
11
55.1847
21
-134.033
0
LINE
8
BLACK
6
CONTINUOUS
10
55.1847
20
-134.033
11
55.1847
21
-131.855
0
LINE
8
BLACK
6
CONTINUOUS
10
55.1847
20
-131.855
11
56.5753
21
-131.855
0
LINE
8
BLACK
6
CONTINUOUS
10
56.5753
20
-131.855
11
56.5753
21
-134.033
0
LINE
8
BLACK
6
CONTINUOUS
10
59.1153
20
-134.033
11
57.7247
21
-134.033
0
LINE
8
BLACK
6
CONTINUOUS
10
57.7247
20
-134.033
11
57.7247
21
-131.855
0
LINE
8
BLACK
6
CONTINUOUS
10
57.7247
20
-131.855
11
59.1153
21
-131.855
0
LINE
8
BLACK
6
CONTINUOUS
10
59.1153
20
-131.855
11
59.1153
21
-134.033
0
LINE
8
BLACK
6
CONTINUOUS
10
61.6553
20
-134.033
11
60.2647
21
-134.033
0
LINE
8
BLACK
6
CONTINUOUS
10
60.2647
20
-134.033
11
60.2647
21
-131.855
0
LINE
8
BLACK
6
CONTINUOUS
10
60.2647
20
-131.855
11
61.6553
21
-131.855
0
LINE
8
BLACK
6
CONTINUOUS
10
61.6553
20
-131.855
11
61.6553
21
-134.033
0
LINE
8
BLACK
6
CONTINUOUS
10
41.3353
20
-134.033
11
39.9447
21
-134.033
0
LINE
8
BLACK
6
CONTINUOUS
10
39.9447
20
-134.033
11
39.9447
21
-131.855
0
LINE
8
BLACK
6
CONTINUOUS
10
39.9447
20
-131.855
11
41.3353
21
-131.855
0
LINE
8
BLACK
6
CONTINUOUS
10
41.3353
20
-131.855
11
41.3353
21
-134.033
0
LINE
8
BLACK
6
CONTINUOUS
10
64.1953
20
-134.033
11
62.8047
21
-134.033
0
LINE
8
BLACK
6
CONTINUOUS
10
62.8047
20
-134.033
11
62.8047
21
-131.855
0
LINE
8
BLACK
6
CONTINUOUS
10
62.8047
20
-131.855
11
64.1953
21
-131.855
0
LINE
8
BLACK
6
CONTINUOUS
10
64.1953
20
-131.855
11
64.1953
21
-134.033
0
LINE
8
BLACK
6
CONTINUOUS
10
114.995
20
-134.033
11
113.605
21
-134.033
0
LINE
8
BLACK
6
CONTINUOUS
10
113.605
20
-134.033
11
113.605
21
-131.855
0
LINE
8
BLACK
6
CONTINUOUS
10
113.605
20
-131.855
11
114.995
21
-131.855
0
LINE
8
BLACK
6
CONTINUOUS
10
114.995
20
-131.855
11
114.995
21
-134.033
0
LINE
8
BLACK
6
CONTINUOUS
10
125.155
20
-134.033
11
123.765
21
-134.033
0
LINE
8
BLACK
6
CONTINUOUS
10
123.765
20
-134.033
11
123.765
21
-131.855
0
LINE
8
BLACK
6
CONTINUOUS
10
123.765
20
-131.855
11
125.155
21
-131.855
0
LINE
8
BLACK
6
CONTINUOUS
10
125.155
20
-131.855
11
125.155
21
-134.033
0
LINE
8
BLACK
6
CONTINUOUS
10
120.075
20
-134.033
11
118.685
21
-134.033
0
LINE
8
BLACK
6
CONTINUOUS
10
118.685
20
-134.033
11
118.685
21
-131.855
0
LINE
8
BLACK
6
CONTINUOUS
10
118.685
20
-131.855
11
120.075
21
-131.855
0
LINE
8
BLACK
6
CONTINUOUS
10
120.075
20
-131.855
11
120.075
21
-134.033
0
LINE
8
BLACK
6
CONTINUOUS
10
117.535
20
-134.033
11
116.145
21
-134.033
0
LINE
8
BLACK
6
CONTINUOUS
10
116.145
20
-134.033
11
116.145
21
-131.855
0
LINE
8
BLACK
6
CONTINUOUS
10
116.145
20
-131.855
11
117.535
21
-131.855
0
LINE
8
BLACK
6
CONTINUOUS
10
117.535
20
-131.855
11
117.535
21
-134.033
0
LINE
8
BLACK
6
CONTINUOUS
10
127.695
20
-134.033
11
126.305
21
-134.033
0
LINE
8
BLACK
6
CONTINUOUS
10
126.305
20
-134.033
11
126.305
21
-131.855
0
LINE
8
BLACK
6
CONTINUOUS
10
126.305
20
-131.855
11
127.695
21
-131.855
0
LINE
8
BLACK
6
CONTINUOUS
10
127.695
20
-131.855
11
127.695
21
-134.033
0
LINE
8
BLACK
6
CONTINUOUS
10
122.615
20
-134.033
11
121.225
21
-134.033
0
LINE
8
BLACK
6
CONTINUOUS
10
121.225
20
-134.033
11
121.225
21
-131.855
0
LINE
8
BLACK
6
CONTINUOUS
10
121.225
20
-131.855
11
122.615
21
-131.855
0
LINE
8
BLACK
6
CONTINUOUS
10
122.615
20
-131.855
11
122.615
21
-134.033
0
LINE
8
BLACK
6
CONTINUOUS
10
112.455
20
-134.033
11
111.065
21
-134.033
0
LINE
8
BLACK
6
CONTINUOUS
10
111.065
20
-134.033
11
111.065
21
-131.855
0
LINE
8
BLACK
6
CONTINUOUS
10
111.065
20
-131.855
11
112.455
21
-131.855
0
LINE
8
BLACK
6
CONTINUOUS
10
112.455
20
-131.855
11
112.455
21
-134.033
0
LINE
8
BLACK
6
CONTINUOUS
10
109.915
20
-134.033
11
108.525
21
-134.033
0
LINE
8
BLACK
6
CONTINUOUS
10
108.525
20
-134.033
11
108.525
21
-131.855
0
LINE
8
BLACK
6
CONTINUOUS
10
108.525
20
-131.855
11
109.915
21
-131.855
0
LINE
8
BLACK
6
CONTINUOUS
10
109.915
20
-131.855
11
109.915
21
-134.033
0
LINE
8
BLACK
6
CONTINUOUS
10
104.835
20
-134.033
11
103.445
21
-134.033
0
LINE
8
BLACK
6
CONTINUOUS
10
103.445
20
-134.033
11
103.445
21
-131.855
0
LINE
8
BLACK
6
CONTINUOUS
10
103.445
20
-131.855
11
104.835
21
-131.855
0
LINE
8
BLACK
6
CONTINUOUS
10
104.835
20
-131.855
11
104.835
21
-134.033
0
LINE
8
BLACK
6
CONTINUOUS
10
122.254
20
-123.542
11
122.548
21
-123.712
0
LINE
8
BLACK
6
CONTINUOUS
10
122.548
20
-123.712
11
122.766
21
-123.972
0
LINE
8
BLACK
6
CONTINUOUS
10
122.766
20
-123.972
11
122.882
21
-124.29
0
LINE
8
BLACK
6
CONTINUOUS
10
122.882
20
-124.29
11
122.882
21
-124.63
0
LINE
8
BLACK
6
CONTINUOUS
10
122.882
20
-124.63
11
122.766
21
-124.948
0
LINE
8
BLACK
6
CONTINUOUS
10
122.766
20
-124.948
11
122.548
21
-125.208
0
LINE
8
BLACK
6
CONTINUOUS
10
122.548
20
-125.208
11
122.254
21
-125.378
0
LINE
8
BLACK
6
CONTINUOUS
10
122.254
20
-125.378
11
121.92
21
-125.437
0
LINE
8
BLACK
6
CONTINUOUS
10
121.92
20
-125.437
11
121.586
21
-125.378
0
LINE
8
BLACK
6
CONTINUOUS
10
121.586
20
-125.378
11
121.292
21
-125.208
0
LINE
8
BLACK
6
CONTINUOUS
10
121.292
20
-125.208
11
121.074
21
-124.948
0
LINE
8
BLACK
6
CONTINUOUS
10
121.074
20
-124.948
11
120.958
21
-124.63
0
LINE
8
BLACK
6
CONTINUOUS
10
120.958
20
-124.63
11
120.958
21
-124.29
0
LINE
8
BLACK
6
CONTINUOUS
10
120.958
20
-124.29
11
121.074
21
-123.972
0
LINE
8
BLACK
6
CONTINUOUS
10
121.074
20
-123.972
11
121.292
21
-123.712
0
LINE
8
BLACK
6
CONTINUOUS
10
121.292
20
-123.712
11
121.586
21
-123.542
0
LINE
8
BLACK
6
CONTINUOUS
10
121.586
20
-123.542
11
121.92
21
-123.483
0
LINE
8
BLACK
6
CONTINUOUS
10
121.92
20
-123.483
11
122.254
21
-123.542
0
LINE
8
BLACK
6
CONTINUOUS
10
119.714
20
-123.542
11
120.008
21
-123.712
0
LINE
8
BLACK
6
CONTINUOUS
10
120.008
20
-123.712
11
120.226
21
-123.972
0
LINE
8
BLACK
6
CONTINUOUS
10
120.226
20
-123.972
11
120.342
21
-124.29
0
LINE
8
BLACK
6
CONTINUOUS
10
120.342
20
-124.29
11
120.342
21
-124.63
0
LINE
8
BLACK
6
CONTINUOUS
10
120.342
20
-124.63
11
120.226
21
-124.948
0
LINE
8
BLACK
6
CONTINUOUS
10
120.226
20
-124.948
11
120.008
21
-125.208
0
LINE
8
BLACK
6
CONTINUOUS
10
120.008
20
-125.208
11
119.714
21
-125.378
0
LINE
8
BLACK
6
CONTINUOUS
10
119.714
20
-125.378
11
119.38
21
-125.437
0
LINE
8
BLACK
6
CONTINUOUS
10
119.38
20
-125.437
11
119.046
21
-125.378
0
LINE
8
BLACK
6
CONTINUOUS
10
119.046
20
-125.378
11
118.752
21
-125.208
0
LINE
8
BLACK
6
CONTINUOUS
10
118.752
20
-125.208
11
118.534
21
-124.948
0
LINE
8
BLACK
6
CONTINUOUS
10
118.534
20
-124.948
11
118.418
21
-124.63
0
LINE
8
BLACK
6
CONTINUOUS
10
118.418
20
-124.63
11
118.418
21
-124.29
0
LINE
8
BLACK
6
CONTINUOUS
10
118.418
20
-124.29
11
118.534
21
-123.972
0
LINE
8
BLACK
6
CONTINUOUS
10
118.534
20
-123.972
11
118.752
21
-123.712
0
LINE
8
BLACK
6
CONTINUOUS
10
118.752
20
-123.712
11
119.046
21
-123.542
0
LINE
8
BLACK
6
CONTINUOUS
10
119.046
20
-123.542
11
119.38
21
-123.483
0
LINE
8
BLACK
6
CONTINUOUS
10
119.38
20
-123.483
11
119.714
21
-123.542
0
LINE
8
BLACK
6
CONTINUOUS
10
107.014
20
-123.542
11
107.308
21
-123.712
0
LINE
8
BLACK
6
CONTINUOUS
10
107.308
20
-123.712
11
107.526
21
-123.972
0
LINE
8
BLACK
6
CONTINUOUS
10
107.526
20
-123.972
11
107.642
21
-124.29
0
LINE
8
BLACK
6
CONTINUOUS
10
107.642
20
-124.29
11
107.642
21
-124.63
0
LINE
8
BLACK
6
CONTINUOUS
10
107.642
20
-124.63
11
107.526
21
-124.948
0
LINE
8
BLACK
6
CONTINUOUS
10
107.526
20
-124.948
11
107.308
21
-125.208
0
LINE
8
BLACK
6
CONTINUOUS
10
107.308
20
-125.208
11
107.014
21
-125.378
0
LINE
8
BLACK
6
CONTINUOUS
10
107.014
20
-125.378
11
106.68
21
-125.437
0
LINE
8
BLACK
6
CONTINUOUS
10
106.68
20
-125.437
11
106.346
21
-125.378
0
LINE
8
BLACK
6
CONTINUOUS
10
106.346
20
-125.378
11
106.052
21
-125.208
0
LINE
8
BLACK
6
CONTINUOUS
10
106.052
20
-125.208
11
105.834
21
-124.948
0
LINE
8
BLACK
6
CONTINUOUS
10
105.834
20
-124.948
11
105.718
21
-124.63
0
LINE
8
BLACK
6
CONTINUOUS
10
105.718
20
-124.63
11
105.718
21
-124.29
0
LINE
8
BLACK
6
CONTINUOUS
10
105.718
20
-124.29
11
105.834
21
-123.972
0
LINE
8
BLACK
6
CONTINUOUS
10
105.834
20
-123.972
11
106.052
21
-123.712
0
LINE
8
BLACK
6
CONTINUOUS
10
106.052
20
-123.712
11
106.346
21
-123.542
0
LINE
8
BLACK
6
CONTINUOUS
10
106.346
20
-123.542
11
106.68
21
-123.483
0
LINE
8
BLACK
6
CONTINUOUS
10
106.68
20
-123.483
11
107.014
21
-123.542
0
LINE
8
BLACK
6
CONTINUOUS
10
124.794
20
-123.542
11
125.088
21
-123.712
0
LINE
8
BLACK
6
CONTINUOUS
10
125.088
20
-123.712
11
125.306
21
-123.972
0
LINE
8
BLACK
6
CONTINUOUS
10
125.306
20
-123.972
11
125.422
21
-124.29
0
LINE
8
BLACK
6
CONTINUOUS
10
125.422
20
-124.29
11
125.422
21
-124.63
0
LINE
8
BLACK
6
CONTINUOUS
10
125.422
20
-124.63
11
125.306
21
-124.948
0
LINE
8
BLACK
6
CONTINUOUS
10
125.306
20
-124.948
11
125.088
21
-125.208
0
LINE
8
BLACK
6
CONTINUOUS
10
125.088
20
-125.208
11
124.794
21
-125.378
0
LINE
8
BLACK
6
CONTINUOUS
10
124.794
20
-125.378
11
124.46
21
-125.437
0
LINE
8
BLACK
6
CONTINUOUS
10
124.46
20
-125.437
11
124.126
21
-125.378
0
LINE
8
BLACK
6
CONTINUOUS
10
124.126
20
-125.378
11
123.832
21
-125.208
0
LINE
8
BLACK
6
CONTINUOUS
10
123.832
20
-125.208
11
123.614
21
-124.948
0
LINE
8
BLACK
6
CONTINUOUS
10
123.614
20
-124.948
11
123.498
21
-124.63
0
LINE
8
BLACK
6
CONTINUOUS
10
123.498
20
-124.63
11
123.498
21
-124.29
0
LINE
8
BLACK
6
CONTINUOUS
10
123.498
20
-124.29
11
123.614
21
-123.972
0
LINE
8
BLACK
6
CONTINUOUS
10
123.614
20
-123.972
11
123.832
21
-123.712
0
LINE
8
BLACK
6
CONTINUOUS
10
123.832
20
-123.712
11
124.126
21
-123.542
0
LINE
8
BLACK
6
CONTINUOUS
10
124.126
20
-123.542
11
124.46
21
-123.483
0
LINE
8
BLACK
6
CONTINUOUS
10
124.46
20
-123.483
11
124.794
21
-123.542
0
LINE
8
BLACK
6
CONTINUOUS
10
109.554
20
-123.542
11
109.848
21
-123.712
0
LINE
8
BLACK
6
CONTINUOUS
10
109.848
20
-123.712
11
110.066
21
-123.972
0
LINE
8
BLACK
6
CONTINUOUS
10
110.066
20
-123.972
11
110.182
21
-124.29
0
LINE
8
BLACK
6
CONTINUOUS
10
110.182
20
-124.29
11
110.182
21
-124.63
0
LINE
8
BLACK
6
CONTINUOUS
10
110.182
20
-124.63
11
110.066
21
-124.948
0
LINE
8
BLACK
6
CONTINUOUS
10
110.066
20
-124.948
11
109.848
21
-125.208
0
LINE
8
BLACK
6
CONTINUOUS
10
109.848
20
-125.208
11
109.554
21
-125.378
0
LINE
8
BLACK
6
CONTINUOUS
10
109.554
20
-125.378
11
109.22
21
-125.437
0
LINE
8
BLACK
6
CONTINUOUS
10
109.22
20
-125.437
11
108.886
21
-125.378
0
LINE
8
BLACK
6
CONTINUOUS
10
108.886
20
-125.378
11
108.592
21
-125.208
0
LINE
8
BLACK
6
CONTINUOUS
10
108.592
20
-125.208
11
108.374
21
-124.948
0
LINE
8
BLACK
6
CONTINUOUS
10
108.374
20
-124.948
11
108.258
21
-124.63
0
LINE
8
BLACK
6
CONTINUOUS
10
108.258
20
-124.63
11
108.258
21
-124.29
0
LINE
8
BLACK
6
CONTINUOUS
10
108.258
20
-124.29
11
108.374
21
-123.972
0
LINE
8
BLACK
6
CONTINUOUS
10
108.374
20
-123.972
11
108.592
21
-123.712
0
LINE
8
BLACK
6
CONTINUOUS
10
108.592
20
-123.712
11
108.886
21
-123.542
0
LINE
8
BLACK
6
CONTINUOUS
10
108.886
20
-123.542
11
109.22
21
-123.483
0
LINE
8
BLACK
6
CONTINUOUS
10
109.22
20
-123.483
11
109.554
21
-123.542
0
LINE
8
BLACK
6
CONTINUOUS
10
112.094
20
-123.542
11
112.388
21
-123.712
0
LINE
8
BLACK
6
CONTINUOUS
10
112.388
20
-123.712
11
112.606
21
-123.972
0
LINE
8
BLACK
6
CONTINUOUS
10
112.606
20
-123.972
11
112.722
21
-124.29
0
LINE
8
BLACK
6
CONTINUOUS
10
112.722
20
-124.29
11
112.722
21
-124.63
0
LINE
8
BLACK
6
CONTINUOUS
10
112.722
20
-124.63
11
112.606
21
-124.948
0
LINE
8
BLACK
6
CONTINUOUS
10
112.606
20
-124.948
11
112.388
21
-125.208
0
LINE
8
BLACK
6
CONTINUOUS
10
112.388
20
-125.208
11
112.094
21
-125.378
0
LINE
8
BLACK
6
CONTINUOUS
10
112.094
20
-125.378
11
111.76
21
-125.437
0
LINE
8
BLACK
6
CONTINUOUS
10
111.76
20
-125.437
11
111.426
21
-125.378
0
LINE
8
BLACK
6
CONTINUOUS
10
111.426
20
-125.378
11
111.132
21
-125.208
0
LINE
8
BLACK
6
CONTINUOUS
10
111.132
20
-125.208
11
110.914
21
-124.948
0
LINE
8
BLACK
6
CONTINUOUS
10
110.914
20
-124.948
11
110.798
21
-124.63
0
LINE
8
BLACK
6
CONTINUOUS
10
110.798
20
-124.63
11
110.798
21
-124.29
0
LINE
8
BLACK
6
CONTINUOUS
10
110.798
20
-124.29
11
110.914
21
-123.972
0
LINE
8
BLACK
6
CONTINUOUS
10
110.914
20
-123.972
11
111.132
21
-123.712
0
LINE
8
BLACK
6
CONTINUOUS
10
111.132
20
-123.712
11
111.426
21
-123.542
0
LINE
8
BLACK
6
CONTINUOUS
10
111.426
20
-123.542
11
111.76
21
-123.483
0
LINE
8
BLACK
6
CONTINUOUS
10
111.76
20
-123.483
11
112.094
21
-123.542
0
LINE
8
BLACK
6
CONTINUOUS
10
99.3941
20
-118.462
11
99.6879
21
-118.632
0
LINE
8
BLACK
6
CONTINUOUS
10
99.6879
20
-118.632
11
99.906
21
-118.892
0
LINE
8
BLACK
6
CONTINUOUS
10
99.906
20
-118.892
11
100.022
21
-119.21
0
LINE
8
BLACK
6
CONTINUOUS
10
100.022
20
-119.21
11
100.022
21
-119.55
0
LINE
8
BLACK
6
CONTINUOUS
10
100.022
20
-119.55
11
99.906
21
-119.868
0
LINE
8
BLACK
6
CONTINUOUS
10
99.906
20
-119.868
11
99.6879
21
-120.128
0
LINE
8
BLACK
6
CONTINUOUS
10
99.6879
20
-120.128
11
99.3941
21
-120.298
0
LINE
8
BLACK
6
CONTINUOUS
10
99.3941
20
-120.298
11
99.06
21
-120.357
0
LINE
8
BLACK
6
CONTINUOUS
10
99.06
20
-120.357
11
98.7259
21
-120.298
0
LINE
8
BLACK
6
CONTINUOUS
10
98.7259
20
-120.298
11
98.4321
21
-120.128
0
LINE
8
BLACK
6
CONTINUOUS
10
98.4321
20
-120.128
11
98.214
21
-119.868
0
LINE
8
BLACK
6
CONTINUOUS
10
98.214
20
-119.868
11
98.098
21
-119.55
0
LINE
8
BLACK
6
CONTINUOUS
10
98.098
20
-119.55
11
98.098
21
-119.21
0
LINE
8
BLACK
6
CONTINUOUS
10
98.098
20
-119.21
11
98.214
21
-118.892
0
LINE
8
BLACK
6
CONTINUOUS
10
98.214
20
-118.892
11
98.4321
21
-118.632
0
LINE
8
BLACK
6
CONTINUOUS
10
98.4321
20
-118.632
11
98.7259
21
-118.462
0
LINE
8
BLACK
6
CONTINUOUS
10
98.7259
20
-118.462
11
99.06
21
-118.403
0
LINE
8
BLACK
6
CONTINUOUS
10
99.06
20
-118.403
11
99.3941
21
-118.462
0
LINE
8
BLACK
6
CONTINUOUS
10
87.9641
20
-118.462
11
88.2579
21
-118.632
0
LINE
8
BLACK
6
CONTINUOUS
10
88.2579
20
-118.632
11
88.476
21
-118.892
0
LINE
8
BLACK
6
CONTINUOUS
10
88.476
20
-118.892
11
88.592
21
-119.21
0
LINE
8
BLACK
6
CONTINUOUS
10
88.592
20
-119.21
11
88.592
21
-119.55
0
LINE
8
BLACK
6
CONTINUOUS
10
88.592
20
-119.55
11
88.476
21
-119.868
0
LINE
8
BLACK
6
CONTINUOUS
10
88.476
20
-119.868
11
88.2579
21
-120.128
0
LINE
8
BLACK
6
CONTINUOUS
10
88.2579
20
-120.128
11
87.9641
21
-120.298
0
LINE
8
BLACK
6
CONTINUOUS
10
87.9641
20
-120.298
11
87.63
21
-120.357
0
LINE
8
BLACK
6
CONTINUOUS
10
87.63
20
-120.357
11
87.2959
21
-120.298
0
LINE
8
BLACK
6
CONTINUOUS
10
87.2959
20
-120.298
11
87.0021
21
-120.128
0
LINE
8
BLACK
6
CONTINUOUS
10
87.0021
20
-120.128
11
86.784
21
-119.868
0
LINE
8
BLACK
6
CONTINUOUS
10
86.784
20
-119.868
11
86.668
21
-119.55
0
LINE
8
BLACK
6
CONTINUOUS
10
86.668
20
-119.55
11
86.668
21
-119.21
0
LINE
8
BLACK
6
CONTINUOUS
10
86.668
20
-119.21
11
86.784
21
-118.892
0
LINE
8
BLACK
6
CONTINUOUS
10
86.784
20
-118.892
11
87.0021
21
-118.632
0
LINE
8
BLACK
6
CONTINUOUS
10
87.0021
20
-118.632
11
87.2959
21
-118.462
0
LINE
8
BLACK
6
CONTINUOUS
10
87.2959
20
-118.462
11
87.63
21
-118.403
0
LINE
8
BLACK
6
CONTINUOUS
10
87.63
20
-118.403
11
87.9641
21
-118.462
0
LINE
8
BLACK
6
CONTINUOUS
10
90.5041
20
-118.462
11
90.7979
21
-118.632
0
LINE
8
BLACK
6
CONTINUOUS
10
90.7979
20
-118.632
11
91.016
21
-118.892
0
LINE
8
BLACK
6
CONTINUOUS
10
91.016
20
-118.892
11
91.132
21
-119.21
0
LINE
8
BLACK
6
CONTINUOUS
10
91.132
20
-119.21
11
91.132
21
-119.55
0
LINE
8
BLACK
6
CONTINUOUS
10
91.132
20
-119.55
11
91.016
21
-119.868
0
LINE
8
BLACK
6
CONTINUOUS
10
91.016
20
-119.868
11
90.7979
21
-120.128
0
LINE
8
BLACK
6
CONTINUOUS
10
90.7979
20
-120.128
11
90.5041
21
-120.298
0
LINE
8
BLACK
6
CONTINUOUS
10
90.5041
20
-120.298
11
90.17
21
-120.357
0
LINE
8
BLACK
6
CONTINUOUS
10
90.17
20
-120.357
11
89.8359
21
-120.298
0
LINE
8
BLACK
6
CONTINUOUS
10
89.8359
20
-120.298
11
89.5421
21
-120.128
0
LINE
8
BLACK
6
CONTINUOUS
10
89.5421
20
-120.128
11
89.324
21
-119.868
0
LINE
8
BLACK
6
CONTINUOUS
10
89.324
20
-119.868
11
89.208
21
-119.55
0
LINE
8
BLACK
6
CONTINUOUS
10
89.208
20
-119.55
11
89.208
21
-119.21
0
LINE
8
BLACK
6
CONTINUOUS
10
89.208
20
-119.21
11
89.324
21
-118.892
0
LINE
8
BLACK
6
CONTINUOUS
10
89.324
20
-118.892
11
89.5421
21
-118.632
0
LINE
8
BLACK
6
CONTINUOUS
10
89.5421
20
-118.632
11
89.8359
21
-118.462
0
LINE
8
BLACK
6
CONTINUOUS
10
89.8359
20
-118.462
11
90.17
21
-118.403
0
LINE
8
BLACK
6
CONTINUOUS
10
90.17
20
-118.403
11
90.5041
21
-118.462
0
LINE
8
BLACK
6
CONTINUOUS
10
81.6141
20
-118.462
11
81.9079
21
-118.632
0
LINE
8
BLACK
6
CONTINUOUS
10
81.9079
20
-118.632
11
82.126
21
-118.892
0
LINE
8
BLACK
6
CONTINUOUS
10
82.126
20
-118.892
11
82.242
21
-119.21
0
LINE
8
BLACK
6
CONTINUOUS
10
82.242
20
-119.21
11
82.242
21
-119.55
0
LINE
8
BLACK
6
CONTINUOUS
10
82.242
20
-119.55
11
82.126
21
-119.868
0
LINE
8
BLACK
6
CONTINUOUS
10
82.126
20
-119.868
11
81.9079
21
-120.128
0
LINE
8
BLACK
6
CONTINUOUS
10
81.9079
20
-120.128
11
81.6141
21
-120.298
0
LINE
8
BLACK
6
CONTINUOUS
10
81.6141
20
-120.298
11
81.28
21
-120.357
0
LINE
8
BLACK
6
CONTINUOUS
10
81.28
20
-120.357
11
80.9459
21
-120.298
0
LINE
8
BLACK
6
CONTINUOUS
10
80.9459
20
-120.298
11
80.6521
21
-120.128
0
LINE
8
BLACK
6
CONTINUOUS
10
80.6521
20
-120.128
11
80.434
21
-119.868
0
LINE
8
BLACK
6
CONTINUOUS
10
80.434
20
-119.868
11
80.318
21
-119.55
0
LINE
8
BLACK
6
CONTINUOUS
10
80.318
20
-119.55
11
80.318
21
-119.21
0
LINE
8
BLACK
6
CONTINUOUS
10
80.318
20
-119.21
11
80.434
21
-118.892
0
LINE
8
BLACK
6
CONTINUOUS
10
80.434
20
-118.892
11
80.6521
21
-118.632
0
LINE
8
BLACK
6
CONTINUOUS
10
80.6521
20
-118.632
11
80.9459
21
-118.462
0
LINE
8
BLACK
6
CONTINUOUS
10
80.9459
20
-118.462
11
81.28
21
-118.403
0
LINE
8
BLACK
6
CONTINUOUS
10
81.28
20
-118.403
11
81.6141
21
-118.462
0
LINE
8
BLACK
6
CONTINUOUS
10
79.0741
20
-118.462
11
79.3679
21
-118.632
0
LINE
8
BLACK
6
CONTINUOUS
10
79.3679
20
-118.632
11
79.586
21
-118.892
0
LINE
8
BLACK
6
CONTINUOUS
10
79.586
20
-118.892
11
79.702
21
-119.21
0
LINE
8
BLACK
6
CONTINUOUS
10
79.702
20
-119.21
11
79.702
21
-119.55
0
LINE
8
BLACK
6
CONTINUOUS
10
79.702
20
-119.55
11
79.586
21
-119.868
0
LINE
8
BLACK
6
CONTINUOUS
10
79.586
20
-119.868
11
79.3679
21
-120.128
0
LINE
8
BLACK
6
CONTINUOUS
10
79.3679
20
-120.128
11
79.0741
21
-120.298
0
LINE
8
BLACK
6
CONTINUOUS
10
79.0741
20
-120.298
11
78.74
21
-120.357
0
LINE
8
BLACK
6
CONTINUOUS
10
78.74
20
-120.357
11
78.4059
21
-120.298
0
LINE
8
BLACK
6
CONTINUOUS
10
78.4059
20
-120.298
11
78.1121
21
-120.128
0
LINE
8
BLACK
6
CONTINUOUS
10
78.1121
20
-120.128
11
77.894
21
-119.868
0
LINE
8
BLACK
6
CONTINUOUS
10
77.894
20
-119.868
11
77.778
21
-119.55
0
LINE
8
BLACK
6
CONTINUOUS
10
77.778
20
-119.55
11
77.778
21
-119.21
0
LINE
8
BLACK
6
CONTINUOUS
10
77.778
20
-119.21
11
77.894
21
-118.892
0
LINE
8
BLACK
6
CONTINUOUS
10
77.894
20
-118.892
11
78.1121
21
-118.632
0
LINE
8
BLACK
6
CONTINUOUS
10
78.1121
20
-118.632
11
78.4059
21
-118.462
0
LINE
8
BLACK
6
CONTINUOUS
10
78.4059
20
-118.462
11
78.74
21
-118.403
0
LINE
8
BLACK
6
CONTINUOUS
10
78.74
20
-118.403
11
79.0741
21
-118.462
0
LINE
8
BLACK
6
CONTINUOUS
10
72.7241
20
-118.462
11
73.0179
21
-118.632
0
LINE
8
BLACK
6
CONTINUOUS
10
73.0179
20
-118.632
11
73.236
21
-118.892
0
LINE
8
BLACK
6
CONTINUOUS
10
73.236
20
-118.892
11
73.352
21
-119.21
0
LINE
8
BLACK
6
CONTINUOUS
10
73.352
20
-119.21
11
73.352
21
-119.55
0
LINE
8
BLACK
6
CONTINUOUS
10
73.352
20
-119.55
11
73.236
21
-119.868
0
LINE
8
BLACK
6
CONTINUOUS
10
73.236
20
-119.868
11
73.0179
21
-120.128
0
LINE
8
BLACK
6
CONTINUOUS
10
73.0179
20
-120.128
11
72.7241
21
-120.298
0
LINE
8
BLACK
6
CONTINUOUS
10
72.7241
20
-120.298
11
72.39
21
-120.357
0
LINE
8
BLACK
6
CONTINUOUS
10
72.39
20
-120.357
11
72.0559
21
-120.298
0
LINE
8
BLACK
6
CONTINUOUS
10
72.0559
20
-120.298
11
71.7621
21
-120.128
0
LINE
8
BLACK
6
CONTINUOUS
10
71.7621
20
-120.128
11
71.544
21
-119.868
0
LINE
8
BLACK
6
CONTINUOUS
10
71.544
20
-119.868
11
71.428
21
-119.55
0
LINE
8
BLACK
6
CONTINUOUS
10
71.428
20
-119.55
11
71.428
21
-119.21
0
LINE
8
BLACK
6
CONTINUOUS
10
71.428
20
-119.21
11
71.544
21
-118.892
0
LINE
8
BLACK
6
CONTINUOUS
10
71.544
20
-118.892
11
71.7621
21
-118.632
0
LINE
8
BLACK
6
CONTINUOUS
10
71.7621
20
-118.632
11
72.0559
21
-118.462
0
LINE
8
BLACK
6
CONTINUOUS
10
72.0559
20
-118.462
11
72.39
21
-118.403
0
LINE
8
BLACK
6
CONTINUOUS
10
72.39
20
-118.403
11
72.7241
21
-118.462
0
LINE
8
BLACK
6
CONTINUOUS
10
70.1841
20
-118.462
11
70.4779
21
-118.632
0
LINE
8
BLACK
6
CONTINUOUS
10
70.4779
20
-118.632
11
70.696
21
-118.892
0
LINE
8
BLACK
6
CONTINUOUS
10
70.696
20
-118.892
11
70.812
21
-119.21
0
LINE
8
BLACK
6
CONTINUOUS
10
70.812
20
-119.21
11
70.812
21
-119.55
0
LINE
8
BLACK
6
CONTINUOUS
10
70.812
20
-119.55
11
70.696
21
-119.868
0
LINE
8
BLACK
6
CONTINUOUS
10
70.696
20
-119.868
11
70.4779
21
-120.128
0
LINE
8
BLACK
6
CONTINUOUS
10
70.4779
20
-120.128
11
70.1841
21
-120.298
0
LINE
8
BLACK
6
CONTINUOUS
10
70.1841
20
-120.298
11
69.85
21
-120.357
0
LINE
8
BLACK
6
CONTINUOUS
10
69.85
20
-120.357
11
69.5159
21
-120.298
0
LINE
8
BLACK
6
CONTINUOUS
10
69.5159
20
-120.298
11
69.2221
21
-120.128
0
LINE
8
BLACK
6
CONTINUOUS
10
69.2221
20
-120.128
11
69.004
21
-119.868
0
LINE
8
BLACK
6
CONTINUOUS
10
69.004
20
-119.868
11
68.888
21
-119.55
0
LINE
8
BLACK
6
CONTINUOUS
10
68.888
20
-119.55
11
68.888
21
-119.21
0
LINE
8
BLACK
6
CONTINUOUS
10
68.888
20
-119.21
11
69.004
21
-118.892
0
LINE
8
BLACK
6
CONTINUOUS
10
69.004
20
-118.892
11
69.2221
21
-118.632
0
LINE
8
BLACK
6
CONTINUOUS
10
69.2221
20
-118.632
11
69.5159
21
-118.462
0
LINE
8
BLACK
6
CONTINUOUS
10
69.5159
20
-118.462
11
69.85
21
-118.403
0
LINE
8
BLACK
6
CONTINUOUS
10
69.85
20
-118.403
11
70.1841
21
-118.462
0
LINE
8
BLACK
6
CONTINUOUS
10
96.8541
20
-118.462
11
97.1479
21
-118.632
0
LINE
8
BLACK
6
CONTINUOUS
10
97.1479
20
-118.632
11
97.366
21
-118.892
0
LINE
8
BLACK
6
CONTINUOUS
10
97.366
20
-118.892
11
97.482
21
-119.21
0
LINE
8
BLACK
6
CONTINUOUS
10
97.482
20
-119.21
11
97.482
21
-119.55
0
LINE
8
BLACK
6
CONTINUOUS
10
97.482
20
-119.55
11
97.366
21
-119.868
0
LINE
8
BLACK
6
CONTINUOUS
10
97.366
20
-119.868
11
97.1479
21
-120.128
0
LINE
8
BLACK
6
CONTINUOUS
10
97.1479
20
-120.128
11
96.8541
21
-120.298
0
LINE
8
BLACK
6
CONTINUOUS
10
96.8541
20
-120.298
11
96.52
21
-120.357
0
LINE
8
BLACK
6
CONTINUOUS
10
96.52
20
-120.357
11
96.1859
21
-120.298
0
LINE
8
BLACK
6
CONTINUOUS
10
96.1859
20
-120.298
11
95.8921
21
-120.128
0
LINE
8
BLACK
6
CONTINUOUS
10
95.8921
20
-120.128
11
95.674
21
-119.868
0
LINE
8
BLACK
6
CONTINUOUS
10
95.674
20
-119.868
11
95.558
21
-119.55
0
LINE
8
BLACK
6
CONTINUOUS
10
95.558
20
-119.55
11
95.558
21
-119.21
0
LINE
8
BLACK
6
CONTINUOUS
10
95.558
20
-119.21
11
95.674
21
-118.892
0
LINE
8
BLACK
6
CONTINUOUS
10
95.674
20
-118.892
11
95.8921
21
-118.632
0
LINE
8
BLACK
6
CONTINUOUS
10
95.8921
20
-118.632
11
96.1859
21
-118.462
0
LINE
8
BLACK
6
CONTINUOUS
10
96.1859
20
-118.462
11
96.52
21
-118.403
0
LINE
8
BLACK
6
CONTINUOUS
10
96.52
20
-118.403
11
96.8541
21
-118.462
0
LINE
8
BLACK
6
CONTINUOUS
10
42.7399
20
-114.854
11
43.0301
21
-115.021
0
LINE
8
BLACK
6
CONTINUOUS
10
43.0301
20
-115.021
11
43.2454
21
-115.278
0
LINE
8
BLACK
6
CONTINUOUS
10
43.2454
20
-115.278
11
43.36
21
-115.592
0
LINE
8
BLACK
6
CONTINUOUS
10
43.36
20
-115.592
11
43.36
21
-115.928
0
LINE
8
BLACK
6
CONTINUOUS
10
43.36
20
-115.928
11
43.2454
21
-116.242
0
LINE
8
BLACK
6
CONTINUOUS
10
43.2454
20
-116.242
11
43.0301
21
-116.499
0
LINE
8
BLACK
6
CONTINUOUS
10
43.0301
20
-116.499
11
42.8657
21
-116.594
0
LINE
8
BLACK
6
CONTINUOUS
10
42.8657
20
-116.594
11
43.0115
21
-116.62
0
LINE
8
BLACK
6
CONTINUOUS
10
43.0115
20
-116.62
11
43.4085
21
-116.849
0
LINE
8
BLACK
6
CONTINUOUS
10
43.4085
20
-116.849
11
43.7032
21
-117.2
0
LINE
8
BLACK
6
CONTINUOUS
10
43.7032
20
-117.2
11
43.86
21
-117.631
0
LINE
8
BLACK
6
CONTINUOUS
10
43.86
20
-117.631
11
43.86
21
-118.089
0
LINE
8
BLACK
6
CONTINUOUS
10
43.86
20
-118.089
11
43.7032
21
-118.52
0
LINE
8
BLACK
6
CONTINUOUS
10
43.7032
20
-118.52
11
43.4085
21
-118.871
0
LINE
8
BLACK
6
CONTINUOUS
10
43.4085
20
-118.871
11
43.0115
21
-119.1
0
LINE
8
BLACK
6
CONTINUOUS
10
43.0115
20
-119.1
11
42.6737
21
-119.16
0
LINE
8
BLACK
6
CONTINUOUS
10
42.6737
20
-119.16
11
41.1463
21
-119.16
0
LINE
8
BLACK
6
CONTINUOUS
10
41.1463
20
-119.16
11
40.8085
21
-119.1
0
LINE
8
BLACK
6
CONTINUOUS
10
40.8085
20
-119.1
11
40.4115
21
-118.871
0
LINE
8
BLACK
6
CONTINUOUS
10
40.4115
20
-118.871
11
40.1168
21
-118.52
0
LINE
8
BLACK
6
CONTINUOUS
10
40.1168
20
-118.52
11
39.96
21
-118.089
0
LINE
8
BLACK
6
CONTINUOUS
10
39.96
20
-118.089
11
39.96
21
-117.631
0
LINE
8
BLACK
6
CONTINUOUS
10
39.96
20
-117.631
11
40.1168
21
-117.2
0
LINE
8
BLACK
6
CONTINUOUS
10
40.1168
20
-117.2
11
40.4115
21
-116.849
0
LINE
8
BLACK
6
CONTINUOUS
10
40.4115
20
-116.849
11
40.8085
21
-116.62
0
LINE
8
BLACK
6
CONTINUOUS
10
40.8085
20
-116.62
11
40.9543
21
-116.594
0
LINE
8
BLACK
6
CONTINUOUS
10
40.9543
20
-116.594
11
40.7899
21
-116.499
0
LINE
8
BLACK
6
CONTINUOUS
10
40.7899
20
-116.499
11
40.5746
21
-116.242
0
LINE
8
BLACK
6
CONTINUOUS
10
40.5746
20
-116.242
11
40.46
21
-115.928
0
LINE
8
BLACK
6
CONTINUOUS
10
40.46
20
-115.928
11
40.46
21
-115.592
0
LINE
8
BLACK
6
CONTINUOUS
10
40.46
20
-115.592
11
40.5746
21
-115.278
0
LINE
8
BLACK
6
CONTINUOUS
10
40.5746
20
-115.278
11
40.7899
21
-115.021
0
LINE
8
BLACK
6
CONTINUOUS
10
40.7899
20
-115.021
11
41.0801
21
-114.854
0
LINE
8
BLACK
6
CONTINUOUS
10
41.0801
20
-114.854
11
41.3269
21
-114.81
0
LINE
8
BLACK
6
CONTINUOUS
10
41.3269
20
-114.81
11
42.4931
21
-114.81
0
LINE
8
BLACK
6
CONTINUOUS
10
42.4931
20
-114.81
11
42.7399
21
-114.854
0
LINE
8
BLACK
6
CONTINUOUS
10
42.7399
20
-112.854
11
43.0301
21
-113.021
0
LINE
8
BLACK
6
CONTINUOUS
10
43.0301
20
-113.021
11
43.2454
21
-113.278
0
LINE
8
BLACK
6
CONTINUOUS
10
43.2454
20
-113.278
11
43.36
21
-113.592
0
LINE
8
BLACK
6
CONTINUOUS
10
43.36
20
-113.592
11
43.36
21
-113.928
0
LINE
8
BLACK
6
CONTINUOUS
10
43.36
20
-113.928
11
43.2454
21
-114.242
0
LINE
8
BLACK
6
CONTINUOUS
10
43.2454
20
-114.242
11
43.0301
21
-114.499
0
LINE
8
BLACK
6
CONTINUOUS
10
43.0301
20
-114.499
11
42.7399
21
-114.666
0
LINE
8
BLACK
6
CONTINUOUS
10
42.7399
20
-114.666
11
42.4931
21
-114.71
0
LINE
8
BLACK
6
CONTINUOUS
10
42.4931
20
-114.71
11
41.3269
21
-114.71
0
LINE
8
BLACK
6
CONTINUOUS
10
41.3269
20
-114.71
11
41.0801
21
-114.666
0
LINE
8
BLACK
6
CONTINUOUS
10
41.0801
20
-114.666
11
40.7899
21
-114.499
0
LINE
8
BLACK
6
CONTINUOUS
10
40.7899
20
-114.499
11
40.5746
21
-114.242
0
LINE
8
BLACK
6
CONTINUOUS
10
40.5746
20
-114.242
11
40.46
21
-113.928
0
LINE
8
BLACK
6
CONTINUOUS
10
40.46
20
-113.928
11
40.46
21
-113.592
0
LINE
8
BLACK
6
CONTINUOUS
10
40.46
20
-113.592
11
40.5746
21
-113.278
0
LINE
8
BLACK
6
CONTINUOUS
10
40.5746
20
-113.278
11
40.7899
21
-113.021
0
LINE
8
BLACK
6
CONTINUOUS
10
40.7899
20
-113.021
11
41.0801
21
-112.854
0
LINE
8
BLACK
6
CONTINUOUS
10
41.0801
20
-112.854
11
41.3269
21
-112.81
0
LINE
8
BLACK
6
CONTINUOUS
10
41.3269
20
-112.81
11
42.4931
21
-112.81
0
LINE
8
BLACK
6
CONTINUOUS
10
42.4931
20
-112.81
11
42.7399
21
-112.854
0
LINE
8
BLACK
6
CONTINUOUS
10
159.084
20
-111.35
11
159.378
21
-111.52
0
LINE
8
BLACK
6
CONTINUOUS
10
159.378
20
-111.52
11
159.596
21
-111.78
0
LINE
8
BLACK
6
CONTINUOUS
10
159.596
20
-111.78
11
159.712
21
-112.098
0
LINE
8
BLACK
6
CONTINUOUS
10
159.712
20
-112.098
11
159.712
21
-112.438
0
LINE
8
BLACK
6
CONTINUOUS
10
159.712
20
-112.438
11
159.596
21
-112.756
0
LINE
8
BLACK
6
CONTINUOUS
10
159.596
20
-112.756
11
159.378
21
-113.016
0
LINE
8
BLACK
6
CONTINUOUS
10
159.378
20
-113.016
11
159.084
21
-113.186
0
LINE
8
BLACK
6
CONTINUOUS
10
159.084
20
-113.186
11
158.75
21
-113.245
0
LINE
8
BLACK
6
CONTINUOUS
10
158.75
20
-113.245
11
158.416
21
-113.186
0
LINE
8
BLACK
6
CONTINUOUS
10
158.416
20
-113.186
11
158.122
21
-113.016
0
LINE
8
BLACK
6
CONTINUOUS
10
158.122
20
-113.016
11
157.904
21
-112.756
0
LINE
8
BLACK
6
CONTINUOUS
10
157.904
20
-112.756
11
157.788
21
-112.438
0
LINE
8
BLACK
6
CONTINUOUS
10
157.788
20
-112.438
11
157.788
21
-112.098
0
LINE
8
BLACK
6
CONTINUOUS
10
157.788
20
-112.098
11
157.904
21
-111.78
0
LINE
8
BLACK
6
CONTINUOUS
10
157.904
20
-111.78
11
158.122
21
-111.52
0
LINE
8
BLACK
6
CONTINUOUS
10
158.122
20
-111.52
11
158.416
21
-111.35
0
LINE
8
BLACK
6
CONTINUOUS
10
158.416
20
-111.35
11
158.75
21
-111.291
0
LINE
8
BLACK
6
CONTINUOUS
10
158.75
20
-111.291
11
159.084
21
-111.35
0
LINE
8
BLACK
6
CONTINUOUS
10
43.0115
20
-108.42
11
43.4085
21
-108.649
0
LINE
8
BLACK
6
CONTINUOUS
10
43.4085
20
-108.649
11
43.7032
21
-109
0
LINE
8
BLACK
6
CONTINUOUS
10
43.7032
20
-109
11
43.86
21
-109.431
0
LINE
8
BLACK
6
CONTINUOUS
10
43.86
20
-109.431
11
43.86
21
-109.889
0
LINE
8
BLACK
6
CONTINUOUS
10
43.86
20
-109.889
11
43.7032
21
-110.32
0
LINE
8
BLACK
6
CONTINUOUS
10
43.7032
20
-110.32
11
43.4085
21
-110.671
0
LINE
8
BLACK
6
CONTINUOUS
10
43.4085
20
-110.671
11
43.1681
21
-110.81
0
LINE
8
BLACK
6
CONTINUOUS
10
43.1681
20
-110.81
11
43.36
21
-110.81
0
LINE
8
BLACK
6
CONTINUOUS
10
43.36
20
-110.81
11
43.36
21
-112.71
0
LINE
8
BLACK
6
CONTINUOUS
10
43.36
20
-112.71
11
40.46
21
-112.71
0
LINE
8
BLACK
6
CONTINUOUS
10
40.46
20
-112.71
11
40.46
21
-110.81
0
LINE
8
BLACK
6
CONTINUOUS
10
40.46
20
-110.81
11
40.6519
21
-110.81
0
LINE
8
BLACK
6
CONTINUOUS
10
40.6519
20
-110.81
11
40.4115
21
-110.671
0
LINE
8
BLACK
6
CONTINUOUS
10
40.4115
20
-110.671
11
40.1168
21
-110.32
0
LINE
8
BLACK
6
CONTINUOUS
10
40.1168
20
-110.32
11
39.96
21
-109.889
0
LINE
8
BLACK
6
CONTINUOUS
10
39.96
20
-109.889
11
39.96
21
-109.431
0
LINE
8
BLACK
6
CONTINUOUS
10
39.96
20
-109.431
11
40.1168
21
-109
0
LINE
8
BLACK
6
CONTINUOUS
10
40.1168
20
-109
11
40.4115
21
-108.649
0
LINE
8
BLACK
6
CONTINUOUS
10
40.4115
20
-108.649
11
40.8085
21
-108.42
0
LINE
8
BLACK
6
CONTINUOUS
10
40.8085
20
-108.42
11
41.1463
21
-108.36
0
LINE
8
BLACK
6
CONTINUOUS
10
41.1463
20
-108.36
11
42.6737
21
-108.36
0
LINE
8
BLACK
6
CONTINUOUS
10
42.6737
20
-108.36
11
43.0115
21
-108.42
0
LINE
8
BLACK
6
CONTINUOUS
10
46.4269
20
-110.914
11
46.5284
21
-110.973
0
LINE
8
BLACK
6
CONTINUOUS
10
46.5284
20
-110.973
11
46.6038
21
-111.063
0
LINE
8
BLACK
6
CONTINUOUS
10
46.6038
20
-111.063
11
46.649
21
-111.231
0
LINE
8
BLACK
6
CONTINUOUS
10
46.649
20
-111.231
11
46.649
21
-112.006
0
LINE
8
BLACK
6
CONTINUOUS
10
46.649
20
-112.006
11
46.6286
21
-112.122
0
LINE
8
BLACK
6
CONTINUOUS
10
46.6286
20
-112.122
11
46.57
21
-112.223
0
LINE
8
BLACK
6
CONTINUOUS
10
46.57
20
-112.223
11
46.4802
21
-112.299
0
LINE
8
BLACK
6
CONTINUOUS
10
46.4802
20
-112.299
11
46.3115
21
-112.344
0
LINE
8
BLACK
6
CONTINUOUS
10
46.3115
20
-112.344
11
45.6365
21
-112.344
0
LINE
8
BLACK
6
CONTINUOUS
10
45.6365
20
-112.344
11
45.5211
21
-112.324
0
LINE
8
BLACK
6
CONTINUOUS
10
45.5211
20
-112.324
11
45.4196
21
-112.265
0
LINE
8
BLACK
6
CONTINUOUS
10
45.4196
20
-112.265
11
45.3442
21
-112.175
0
LINE
8
BLACK
6
CONTINUOUS
10
45.3442
20
-112.175
11
45.299
21
-112.006
0
LINE
8
BLACK
6
CONTINUOUS
10
45.299
20
-112.006
11
45.299
21
-111.231
0
LINE
8
BLACK
6
CONTINUOUS
10
45.299
20
-111.231
11
45.3194
21
-111.116
0
LINE
8
BLACK
6
CONTINUOUS
10
45.3194
20
-111.116
11
45.378
21
-111.015
0
LINE
8
BLACK
6
CONTINUOUS
10
45.378
20
-111.015
11
45.4677
21
-110.939
0
LINE
8
BLACK
6
CONTINUOUS
10
45.4677
20
-110.939
11
45.6365
21
-110.894
0
LINE
8
BLACK
6
CONTINUOUS
10
45.6365
20
-110.894
11
46.3115
21
-110.894
0
LINE
8
BLACK
6
CONTINUOUS
10
46.3115
20
-110.894
11
46.4269
21
-110.914
0
LINE
8
BLACK
6
CONTINUOUS
10
143.201
20
-110.801
11
143.302
21
-110.86
0
LINE
8
BLACK
6
CONTINUOUS
10
143.302
20
-110.86
11
143.378
21
-110.95
0
LINE
8
BLACK
6
CONTINUOUS
10
143.378
20
-110.95
11
143.423
21
-111.118
0
LINE
8
BLACK
6
CONTINUOUS
10
143.423
20
-111.118
11
143.423
21
-111.893
0
LINE
8
BLACK
6
CONTINUOUS
10
143.423
20
-111.893
11
143.403
21
-112.009
0
LINE
8
BLACK
6
CONTINUOUS
10
143.403
20
-112.009
11
143.344
21
-112.11
0
LINE
8
BLACK
6
CONTINUOUS
10
143.344
20
-112.11
11
143.254
21
-112.186
0
LINE
8
BLACK
6
CONTINUOUS
10
143.254
20
-112.186
11
143.085
21
-112.231
0
LINE
8
BLACK
6
CONTINUOUS
10
143.085
20
-112.231
11
142.41
21
-112.231
0
LINE
8
BLACK
6
CONTINUOUS
10
142.41
20
-112.231
11
142.295
21
-112.211
0
LINE
8
BLACK
6
CONTINUOUS
10
142.295
20
-112.211
11
142.194
21
-112.152
0
LINE
8
BLACK
6
CONTINUOUS
10
142.194
20
-112.152
11
142.118
21
-112.062
0
LINE
8
BLACK
6
CONTINUOUS
10
142.118
20
-112.062
11
142.073
21
-111.893
0
LINE
8
BLACK
6
CONTINUOUS
10
142.073
20
-111.893
11
142.073
21
-111.118
0
LINE
8
BLACK
6
CONTINUOUS
10
142.073
20
-111.118
11
142.093
21
-111.003
0
LINE
8
BLACK
6
CONTINUOUS
10
142.093
20
-111.003
11
142.152
21
-110.902
0
LINE
8
BLACK
6
CONTINUOUS
10
142.152
20
-110.902
11
142.242
21
-110.826
0
LINE
8
BLACK
6
CONTINUOUS
10
142.242
20
-110.826
11
142.41
21
-110.781
0
LINE
8
BLACK
6
CONTINUOUS
10
142.41
20
-110.781
11
143.085
21
-110.781
0
LINE
8
BLACK
6
CONTINUOUS
10
143.085
20
-110.781
11
143.201
21
-110.801
0
LINE
8
BLACK
6
CONTINUOUS
10
159.084
20
-108.81
11
159.378
21
-108.98
0
LINE
8
BLACK
6
CONTINUOUS
10
159.378
20
-108.98
11
159.596
21
-109.24
0
LINE
8
BLACK
6
CONTINUOUS
10
159.596
20
-109.24
11
159.712
21
-109.558
0
LINE
8
BLACK
6
CONTINUOUS
10
159.712
20
-109.558
11
159.712
21
-109.898
0
LINE
8
BLACK
6
CONTINUOUS
10
159.712
20
-109.898
11
159.596
21
-110.216
0
LINE
8
BLACK
6
CONTINUOUS
10
159.596
20
-110.216
11
159.378
21
-110.476
0
LINE
8
BLACK
6
CONTINUOUS
10
159.378
20
-110.476
11
159.084
21
-110.646
0
LINE
8
BLACK
6
CONTINUOUS
10
159.084
20
-110.646
11
158.75
21
-110.705
0
LINE
8
BLACK
6
CONTINUOUS
10
158.75
20
-110.705
11
158.416
21
-110.646
0
LINE
8
BLACK
6
CONTINUOUS
10
158.416
20
-110.646
11
158.122
21
-110.476
0
LINE
8
BLACK
6
CONTINUOUS
10
158.122
20
-110.476
11
157.904
21
-110.216
0
LINE
8
BLACK
6
CONTINUOUS
10
157.904
20
-110.216
11
157.788
21
-109.898
0
LINE
8
BLACK
6
CONTINUOUS
10
157.788
20
-109.898
11
157.788
21
-109.558
0
LINE
8
BLACK
6
CONTINUOUS
10
157.788
20
-109.558
11
157.904
21
-109.24
0
LINE
8
BLACK
6
CONTINUOUS
10
157.904
20
-109.24
11
158.122
21
-108.98
0
LINE
8
BLACK
6
CONTINUOUS
10
158.122
20
-108.98
11
158.416
21
-108.81
0
LINE
8
BLACK
6
CONTINUOUS
10
158.416
20
-108.81
11
158.75
21
-108.751
0
LINE
8
BLACK
6
CONTINUOUS
10
158.75
20
-108.751
11
159.084
21
-108.81
0
LINE
8
BLACK
6
CONTINUOUS
10
46.4269
20
-109.164
11
46.5284
21
-109.223
0
LINE
8
BLACK
6
CONTINUOUS
10
46.5284
20
-109.223
11
46.6038
21
-109.313
0
LINE
8
BLACK
6
CONTINUOUS
10
46.6038
20
-109.313
11
46.649
21
-109.481
0
LINE
8
BLACK
6
CONTINUOUS
10
46.649
20
-109.481
11
46.649
21
-110.256
0
LINE
8
BLACK
6
CONTINUOUS
10
46.649
20
-110.256
11
46.6286
21
-110.372
0
LINE
8
BLACK
6
CONTINUOUS
10
46.6286
20
-110.372
11
46.57
21
-110.473
0
LINE
8
BLACK
6
CONTINUOUS
10
46.57
20
-110.473
11
46.4802
21
-110.549
0
LINE
8
BLACK
6
CONTINUOUS
10
46.4802
20
-110.549
11
46.3115
21
-110.594
0
LINE
8
BLACK
6
CONTINUOUS
10
46.3115
20
-110.594
11
45.6365
21
-110.594
0
LINE
8
BLACK
6
CONTINUOUS
10
45.6365
20
-110.594
11
45.5211
21
-110.574
0
LINE
8
BLACK
6
CONTINUOUS
10
45.5211
20
-110.574
11
45.4196
21
-110.515
0
LINE
8
BLACK
6
CONTINUOUS
10
45.4196
20
-110.515
11
45.3442
21
-110.425
0
LINE
8
BLACK
6
CONTINUOUS
10
45.3442
20
-110.425
11
45.299
21
-110.256
0
LINE
8
BLACK
6
CONTINUOUS
10
45.299
20
-110.256
11
45.299
21
-109.481
0
LINE
8
BLACK
6
CONTINUOUS
10
45.299
20
-109.481
11
45.3194
21
-109.366
0
LINE
8
BLACK
6
CONTINUOUS
10
45.3194
20
-109.366
11
45.378
21
-109.265
0
LINE
8
BLACK
6
CONTINUOUS
10
45.378
20
-109.265
11
45.4677
21
-109.189
0
LINE
8
BLACK
6
CONTINUOUS
10
45.4677
20
-109.189
11
45.6365
21
-109.144
0
LINE
8
BLACK
6
CONTINUOUS
10
45.6365
20
-109.144
11
46.3115
21
-109.144
0
LINE
8
BLACK
6
CONTINUOUS
10
46.3115
20
-109.144
11
46.4269
21
-109.164
0
LINE
8
BLACK
6
CONTINUOUS
10
143.201
20
-109.051
11
143.302
21
-109.11
0
LINE
8
BLACK
6
CONTINUOUS
10
143.302
20
-109.11
11
143.378
21
-109.2
0
LINE
8
BLACK
6
CONTINUOUS
10
143.378
20
-109.2
11
143.423
21
-109.368
0
LINE
8
BLACK
6
CONTINUOUS
10
143.423
20
-109.368
11
143.423
21
-110.143
0
LINE
8
BLACK
6
CONTINUOUS
10
143.423
20
-110.143
11
143.403
21
-110.259
0
LINE
8
BLACK
6
CONTINUOUS
10
143.403
20
-110.259
11
143.344
21
-110.36
0
LINE
8
BLACK
6
CONTINUOUS
10
143.344
20
-110.36
11
143.254
21
-110.436
0
LINE
8
BLACK
6
CONTINUOUS
10
143.254
20
-110.436
11
143.085
21
-110.481
0
LINE
8
BLACK
6
CONTINUOUS
10
143.085
20
-110.481
11
142.41
21
-110.481
0
LINE
8
BLACK
6
CONTINUOUS
10
142.41
20
-110.481
11
142.295
21
-110.461
0
LINE
8
BLACK
6
CONTINUOUS
10
142.295
20
-110.461
11
142.194
21
-110.402
0
LINE
8
BLACK
6
CONTINUOUS
10
142.194
20
-110.402
11
142.118
21
-110.312
0
LINE
8
BLACK
6
CONTINUOUS
10
142.118
20
-110.312
11
142.073
21
-110.143
0
LINE
8
BLACK
6
CONTINUOUS
10
142.073
20
-110.143
11
142.073
21
-109.368
0
LINE
8
BLACK
6
CONTINUOUS
10
142.073
20
-109.368
11
142.093
21
-109.253
0
LINE
8
BLACK
6
CONTINUOUS
10
142.093
20
-109.253
11
142.152
21
-109.152
0
LINE
8
BLACK
6
CONTINUOUS
10
142.152
20
-109.152
11
142.242
21
-109.076
0
LINE
8
BLACK
6
CONTINUOUS
10
142.242
20
-109.076
11
142.41
21
-109.031
0
LINE
8
BLACK
6
CONTINUOUS
10
142.41
20
-109.031
11
143.085
21
-109.031
0
LINE
8
BLACK
6
CONTINUOUS
10
143.085
20
-109.031
11
143.201
21
-109.051
0
LINE
8
BLACK
6
CONTINUOUS
10
109.554
20
-107.032
11
109.848
21
-107.202
0
LINE
8
BLACK
6
CONTINUOUS
10
109.848
20
-107.202
11
110.066
21
-107.462
0
LINE
8
BLACK
6
CONTINUOUS
10
110.066
20
-107.462
11
110.182
21
-107.78
0
LINE
8
BLACK
6
CONTINUOUS
10
110.182
20
-107.78
11
110.182
21
-108.12
0
LINE
8
BLACK
6
CONTINUOUS
10
110.182
20
-108.12
11
110.066
21
-108.438
0
LINE
8
BLACK
6
CONTINUOUS
10
110.066
20
-108.438
11
109.848
21
-108.698
0
LINE
8
BLACK
6
CONTINUOUS
10
109.848
20
-108.698
11
109.554
21
-108.868
0
LINE
8
BLACK
6
CONTINUOUS
10
109.554
20
-108.868
11
109.22
21
-108.927
0
LINE
8
BLACK
6
CONTINUOUS
10
109.22
20
-108.927
11
108.886
21
-108.868
0
LINE
8
BLACK
6
CONTINUOUS
10
108.886
20
-108.868
11
108.592
21
-108.698
0
LINE
8
BLACK
6
CONTINUOUS
10
108.592
20
-108.698
11
108.374
21
-108.438
0
LINE
8
BLACK
6
CONTINUOUS
10
108.374
20
-108.438
11
108.258
21
-108.12
0
LINE
8
BLACK
6
CONTINUOUS
10
108.258
20
-108.12
11
108.258
21
-107.78
0
LINE
8
BLACK
6
CONTINUOUS
10
108.258
20
-107.78
11
108.374
21
-107.462
0
LINE
8
BLACK
6
CONTINUOUS
10
108.374
20
-107.462
11
108.592
21
-107.202
0
LINE
8
BLACK
6
CONTINUOUS
10
108.592
20
-107.202
11
108.886
21
-107.032
0
LINE
8
BLACK
6
CONTINUOUS
10
108.886
20
-107.032
11
109.22
21
-106.973
0
LINE
8
BLACK
6
CONTINUOUS
10
109.22
20
-106.973
11
109.554
21
-107.032
0
LINE
8
BLACK
6
CONTINUOUS
10
124.794
20
-107.032
11
125.088
21
-107.202
0
LINE
8
BLACK
6
CONTINUOUS
10
125.088
20
-107.202
11
125.306
21
-107.462
0
LINE
8
BLACK
6
CONTINUOUS
10
125.306
20
-107.462
11
125.422
21
-107.78
0
LINE
8
BLACK
6
CONTINUOUS
10
125.422
20
-107.78
11
125.422
21
-108.12
0
LINE
8
BLACK
6
CONTINUOUS
10
125.422
20
-108.12
11
125.306
21
-108.438
0
LINE
8
BLACK
6
CONTINUOUS
10
125.306
20
-108.438
11
125.088
21
-108.698
0
LINE
8
BLACK
6
CONTINUOUS
10
125.088
20
-108.698
11
124.794
21
-108.868
0
LINE
8
BLACK
6
CONTINUOUS
10
124.794
20
-108.868
11
124.46
21
-108.927
0
LINE
8
BLACK
6
CONTINUOUS
10
124.46
20
-108.927
11
124.126
21
-108.868
0
LINE
8
BLACK
6
CONTINUOUS
10
124.126
20
-108.868
11
123.832
21
-108.698
0
LINE
8
BLACK
6
CONTINUOUS
10
123.832
20
-108.698
11
123.614
21
-108.438
0
LINE
8
BLACK
6
CONTINUOUS
10
123.614
20
-108.438
11
123.498
21
-108.12
0
LINE
8
BLACK
6
CONTINUOUS
10
123.498
20
-108.12
11
123.498
21
-107.78
0
LINE
8
BLACK
6
CONTINUOUS
10
123.498
20
-107.78
11
123.614
21
-107.462
0
LINE
8
BLACK
6
CONTINUOUS
10
123.614
20
-107.462
11
123.832
21
-107.202
0
LINE
8
BLACK
6
CONTINUOUS
10
123.832
20
-107.202
11
124.126
21
-107.032
0
LINE
8
BLACK
6
CONTINUOUS
10
124.126
20
-107.032
11
124.46
21
-106.973
0
LINE
8
BLACK
6
CONTINUOUS
10
124.46
20
-106.973
11
124.794
21
-107.032
0
LINE
8
BLACK
6
CONTINUOUS
10
122.254
20
-107.032
11
122.548
21
-107.202
0
LINE
8
BLACK
6
CONTINUOUS
10
122.548
20
-107.202
11
122.766
21
-107.462
0
LINE
8
BLACK
6
CONTINUOUS
10
122.766
20
-107.462
11
122.882
21
-107.78
0
LINE
8
BLACK
6
CONTINUOUS
10
122.882
20
-107.78
11
122.882
21
-108.12
0
LINE
8
BLACK
6
CONTINUOUS
10
122.882
20
-108.12
11
122.766
21
-108.438
0
LINE
8
BLACK
6
CONTINUOUS
10
122.766
20
-108.438
11
122.548
21
-108.698
0
LINE
8
BLACK
6
CONTINUOUS
10
122.548
20
-108.698
11
122.254
21
-108.868
0
LINE
8
BLACK
6
CONTINUOUS
10
122.254
20
-108.868
11
121.92
21
-108.927
0
LINE
8
BLACK
6
CONTINUOUS
10
121.92
20
-108.927
11
121.586
21
-108.868
0
LINE
8
BLACK
6
CONTINUOUS
10
121.586
20
-108.868
11
121.292
21
-108.698
0
LINE
8
BLACK
6
CONTINUOUS
10
121.292
20
-108.698
11
121.074
21
-108.438
0
LINE
8
BLACK
6
CONTINUOUS
10
121.074
20
-108.438
11
120.958
21
-108.12
0
LINE
8
BLACK
6
CONTINUOUS
10
120.958
20
-108.12
11
120.958
21
-107.78
0
LINE
8
BLACK
6
CONTINUOUS
10
120.958
20
-107.78
11
121.074
21
-107.462
0
LINE
8
BLACK
6
CONTINUOUS
10
121.074
20
-107.462
11
121.292
21
-107.202
0
LINE
8
BLACK
6
CONTINUOUS
10
121.292
20
-107.202
11
121.586
21
-107.032
0
LINE
8
BLACK
6
CONTINUOUS
10
121.586
20
-107.032
11
121.92
21
-106.973
0
LINE
8
BLACK
6
CONTINUOUS
10
121.92
20
-106.973
11
122.254
21
-107.032
0
LINE
8
BLACK
6
CONTINUOUS
10
119.714
20
-107.032
11
120.008
21
-107.202
0
LINE
8
BLACK
6
CONTINUOUS
10
120.008
20
-107.202
11
120.226
21
-107.462
0
LINE
8
BLACK
6
CONTINUOUS
10
120.226
20
-107.462
11
120.342
21
-107.78
0
LINE
8
BLACK
6
CONTINUOUS
10
120.342
20
-107.78
11
120.342
21
-108.12
0
LINE
8
BLACK
6
CONTINUOUS
10
120.342
20
-108.12
11
120.226
21
-108.438
0
LINE
8
BLACK
6
CONTINUOUS
10
120.226
20
-108.438
11
120.008
21
-108.698
0
LINE
8
BLACK
6
CONTINUOUS
10
120.008
20
-108.698
11
119.714
21
-108.868
0
LINE
8
BLACK
6
CONTINUOUS
10
119.714
20
-108.868
11
119.38
21
-108.927
0
LINE
8
BLACK
6
CONTINUOUS
10
119.38
20
-108.927
11
119.046
21
-108.868
0
LINE
8
BLACK
6
CONTINUOUS
10
119.046
20
-108.868
11
118.752
21
-108.698
0
LINE
8
BLACK
6
CONTINUOUS
10
118.752
20
-108.698
11
118.534
21
-108.438
0
LINE
8
BLACK
6
CONTINUOUS
10
118.534
20
-108.438
11
118.418
21
-108.12
0
LINE
8
BLACK
6
CONTINUOUS
10
118.418
20
-108.12
11
118.418
21
-107.78
0
LINE
8
BLACK
6
CONTINUOUS
10
118.418
20
-107.78
11
118.534
21
-107.462
0
LINE
8
BLACK
6
CONTINUOUS
10
118.534
20
-107.462
11
118.752
21
-107.202
0
LINE
8
BLACK
6
CONTINUOUS
10
118.752
20
-107.202
11
119.046
21
-107.032
0
LINE
8
BLACK
6
CONTINUOUS
10
119.046
20
-107.032
11
119.38
21
-106.973
0
LINE
8
BLACK
6
CONTINUOUS
10
119.38
20
-106.973
11
119.714
21
-107.032
0
LINE
8
BLACK
6
CONTINUOUS
10
107.014
20
-107.032
11
107.308
21
-107.202
0
LINE
8
BLACK
6
CONTINUOUS
10
107.308
20
-107.202
11
107.526
21
-107.462
0
LINE
8
BLACK
6
CONTINUOUS
10
107.526
20
-107.462
11
107.642
21
-107.78
0
LINE
8
BLACK
6
CONTINUOUS
10
107.642
20
-107.78
11
107.642
21
-108.12
0
LINE
8
BLACK
6
CONTINUOUS
10
107.642
20
-108.12
11
107.526
21
-108.438
0
LINE
8
BLACK
6
CONTINUOUS
10
107.526
20
-108.438
11
107.308
21
-108.698
0
LINE
8
BLACK
6
CONTINUOUS
10
107.308
20
-108.698
11
107.014
21
-108.868
0
LINE
8
BLACK
6
CONTINUOUS
10
107.014
20
-108.868
11
106.68
21
-108.927
0
LINE
8
BLACK
6
CONTINUOUS
10
106.68
20
-108.927
11
106.346
21
-108.868
0
LINE
8
BLACK
6
CONTINUOUS
10
106.346
20
-108.868
11
106.052
21
-108.698
0
LINE
8
BLACK
6
CONTINUOUS
10
106.052
20
-108.698
11
105.834
21
-108.438
0
LINE
8
BLACK
6
CONTINUOUS
10
105.834
20
-108.438
11
105.718
21
-108.12
0
LINE
8
BLACK
6
CONTINUOUS
10
105.718
20
-108.12
11
105.718
21
-107.78
0
LINE
8
BLACK
6
CONTINUOUS
10
105.718
20
-107.78
11
105.834
21
-107.462
0
LINE
8
BLACK
6
CONTINUOUS
10
105.834
20
-107.462
11
106.052
21
-107.202
0
LINE
8
BLACK
6
CONTINUOUS
10
106.052
20
-107.202
11
106.346
21
-107.032
0
LINE
8
BLACK
6
CONTINUOUS
10
106.346
20
-107.032
11
106.68
21
-106.973
0
LINE
8
BLACK
6
CONTINUOUS
10
106.68
20
-106.973
11
107.014
21
-107.032
0
LINE
8
BLACK
6
CONTINUOUS
10
112.094
20
-107.032
11
112.388
21
-107.202
0
LINE
8
BLACK
6
CONTINUOUS
10
112.388
20
-107.202
11
112.606
21
-107.462
0
LINE
8
BLACK
6
CONTINUOUS
10
112.606
20
-107.462
11
112.722
21
-107.78
0
LINE
8
BLACK
6
CONTINUOUS
10
112.722
20
-107.78
11
112.722
21
-108.12
0
LINE
8
BLACK
6
CONTINUOUS
10
112.722
20
-108.12
11
112.606
21
-108.438
0
LINE
8
BLACK
6
CONTINUOUS
10
112.606
20
-108.438
11
112.388
21
-108.698
0
LINE
8
BLACK
6
CONTINUOUS
10
112.388
20
-108.698
11
112.094
21
-108.868
0
LINE
8
BLACK
6
CONTINUOUS
10
112.094
20
-108.868
11
111.76
21
-108.927
0
LINE
8
BLACK
6
CONTINUOUS
10
111.76
20
-108.927
11
111.426
21
-108.868
0
LINE
8
BLACK
6
CONTINUOUS
10
111.426
20
-108.868
11
111.132
21
-108.698
0
LINE
8
BLACK
6
CONTINUOUS
10
111.132
20
-108.698
11
110.914
21
-108.438
0
LINE
8
BLACK
6
CONTINUOUS
10
110.914
20
-108.438
11
110.798
21
-108.12
0
LINE
8
BLACK
6
CONTINUOUS
10
110.798
20
-108.12
11
110.798
21
-107.78
0
LINE
8
BLACK
6
CONTINUOUS
10
110.798
20
-107.78
11
110.914
21
-107.462
0
LINE
8
BLACK
6
CONTINUOUS
10
110.914
20
-107.462
11
111.132
21
-107.202
0
LINE
8
BLACK
6
CONTINUOUS
10
111.132
20
-107.202
11
111.426
21
-107.032
0
LINE
8
BLACK
6
CONTINUOUS
10
111.426
20
-107.032
11
111.76
21
-106.973
0
LINE
8
BLACK
6
CONTINUOUS
10
111.76
20
-106.973
11
112.094
21
-107.032
0
LINE
8
BLACK
6
CONTINUOUS
10
159.084
20
-106.27
11
159.378
21
-106.44
0
LINE
8
BLACK
6
CONTINUOUS
10
159.378
20
-106.44
11
159.596
21
-106.7
0
LINE
8
BLACK
6
CONTINUOUS
10
159.596
20
-106.7
11
159.712
21
-107.018
0
LINE
8
BLACK
6
CONTINUOUS
10
159.712
20
-107.018
11
159.712
21
-107.358
0
LINE
8
BLACK
6
CONTINUOUS
10
159.712
20
-107.358
11
159.596
21
-107.676
0
LINE
8
BLACK
6
CONTINUOUS
10
159.596
20
-107.676
11
159.378
21
-107.936
0
LINE
8
BLACK
6
CONTINUOUS
10
159.378
20
-107.936
11
159.084
21
-108.106
0
LINE
8
BLACK
6
CONTINUOUS
10
159.084
20
-108.106
11
158.75
21
-108.165
0
LINE
8
BLACK
6
CONTINUOUS
10
158.75
20
-108.165
11
158.416
21
-108.106
0
LINE
8
BLACK
6
CONTINUOUS
10
158.416
20
-108.106
11
158.122
21
-107.936
0
LINE
8
BLACK
6
CONTINUOUS
10
158.122
20
-107.936
11
157.904
21
-107.676
0
LINE
8
BLACK
6
CONTINUOUS
10
157.904
20
-107.676
11
157.788
21
-107.358
0
LINE
8
BLACK
6
CONTINUOUS
10
157.788
20
-107.358
11
157.788
21
-107.018
0
LINE
8
BLACK
6
CONTINUOUS
10
157.788
20
-107.018
11
157.904
21
-106.7
0
LINE
8
BLACK
6
CONTINUOUS
10
157.904
20
-106.7
11
158.122
21
-106.44
0
LINE
8
BLACK
6
CONTINUOUS
10
158.122
20
-106.44
11
158.416
21
-106.27
0
LINE
8
BLACK
6
CONTINUOUS
10
158.416
20
-106.27
11
158.75
21
-106.211
0
LINE
8
BLACK
6
CONTINUOUS
10
158.75
20
-106.211
11
159.084
21
-106.27
0
LINE
8
BLACK
6
CONTINUOUS
10
159.084
20
-103.73
11
159.378
21
-103.9
0
LINE
8
BLACK
6
CONTINUOUS
10
159.378
20
-103.9
11
159.596
21
-104.16
0
LINE
8
BLACK
6
CONTINUOUS
10
159.596
20
-104.16
11
159.712
21
-104.478
0
LINE
8
BLACK
6
CONTINUOUS
10
159.712
20
-104.478
11
159.712
21
-104.818
0
LINE
8
BLACK
6
CONTINUOUS
10
159.712
20
-104.818
11
159.596
21
-105.136
0
LINE
8
BLACK
6
CONTINUOUS
10
159.596
20
-105.136
11
159.378
21
-105.396
0
LINE
8
BLACK
6
CONTINUOUS
10
159.378
20
-105.396
11
159.084
21
-105.566
0
LINE
8
BLACK
6
CONTINUOUS
10
159.084
20
-105.566
11
158.75
21
-105.625
0
LINE
8
BLACK
6
CONTINUOUS
10
158.75
20
-105.625
11
158.416
21
-105.566
0
LINE
8
BLACK
6
CONTINUOUS
10
158.416
20
-105.566
11
158.122
21
-105.396
0
LINE
8
BLACK
6
CONTINUOUS
10
158.122
20
-105.396
11
157.904
21
-105.136
0
LINE
8
BLACK
6
CONTINUOUS
10
157.904
20
-105.136
11
157.788
21
-104.818
0
LINE
8
BLACK
6
CONTINUOUS
10
157.788
20
-104.818
11
157.788
21
-104.478
0
LINE
8
BLACK
6
CONTINUOUS
10
157.788
20
-104.478
11
157.904
21
-104.16
0
LINE
8
BLACK
6
CONTINUOUS
10
157.904
20
-104.16
11
158.122
21
-103.9
0
LINE
8
BLACK
6
CONTINUOUS
10
158.122
20
-103.9
11
158.416
21
-103.73
0
LINE
8
BLACK
6
CONTINUOUS
10
158.416
20
-103.73
11
158.75
21
-103.671
0
LINE
8
BLACK
6
CONTINUOUS
10
158.75
20
-103.671
11
159.084
21
-103.73
0
LINE
8
BLACK
6
CONTINUOUS
10
159.084
20
-101.19
11
159.378
21
-101.36
0
LINE
8
BLACK
6
CONTINUOUS
10
159.378
20
-101.36
11
159.596
21
-101.62
0
LINE
8
BLACK
6
CONTINUOUS
10
159.596
20
-101.62
11
159.712
21
-101.938
0
LINE
8
BLACK
6
CONTINUOUS
10
159.712
20
-101.938
11
159.712
21
-102.278
0
LINE
8
BLACK
6
CONTINUOUS
10
159.712
20
-102.278
11
159.596
21
-102.596
0
LINE
8
BLACK
6
CONTINUOUS
10
159.596
20
-102.596
11
159.378
21
-102.856
0
LINE
8
BLACK
6
CONTINUOUS
10
159.378
20
-102.856
11
159.084
21
-103.026
0
LINE
8
BLACK
6
CONTINUOUS
10
159.084
20
-103.026
11
158.75
21
-103.085
0
LINE
8
BLACK
6
CONTINUOUS
10
158.75
20
-103.085
11
158.416
21
-103.026
0
LINE
8
BLACK
6
CONTINUOUS
10
158.416
20
-103.026
11
158.122
21
-102.856
0
LINE
8
BLACK
6
CONTINUOUS
10
158.122
20
-102.856
11
157.904
21
-102.596
0
LINE
8
BLACK
6
CONTINUOUS
10
157.904
20
-102.596
11
157.788
21
-102.278
0
LINE
8
BLACK
6
CONTINUOUS
10
157.788
20
-102.278
11
157.788
21
-101.938
0
LINE
8
BLACK
6
CONTINUOUS
10
157.788
20
-101.938
11
157.904
21
-101.62
0
LINE
8
BLACK
6
CONTINUOUS
10
157.904
20
-101.62
11
158.122
21
-101.36
0
LINE
8
BLACK
6
CONTINUOUS
10
158.122
20
-101.36
11
158.416
21
-101.19
0
LINE
8
BLACK
6
CONTINUOUS
10
158.416
20
-101.19
11
158.75
21
-101.131
0
LINE
8
BLACK
6
CONTINUOUS
10
158.75
20
-101.131
11
159.084
21
-101.19
0
LINE
8
BLACK
6
CONTINUOUS
10
43.8753
20
-96.7454
11
42.4847
21
-96.7454
0
LINE
8
BLACK
6
CONTINUOUS
10
42.4847
20
-96.7454
11
42.4847
21
-94.5674
0
LINE
8
BLACK
6
CONTINUOUS
10
42.4847
20
-94.5674
11
43.8753
21
-94.5674
0
LINE
8
BLACK
6
CONTINUOUS
10
43.8753
20
-94.5674
11
43.8753
21
-96.7454
0
LINE
8
BLACK
6
CONTINUOUS
10
64.1953
20
-96.7454
11
62.8047
21
-96.7454
0
LINE
8
BLACK
6
CONTINUOUS
10
62.8047
20
-96.7454
11
62.8047
21
-94.5674
0
LINE
8
BLACK
6
CONTINUOUS
10
62.8047
20
-94.5674
11
64.1953
21
-94.5674
0
LINE
8
BLACK
6
CONTINUOUS
10
64.1953
20
-94.5674
11
64.1953
21
-96.7454
0
LINE
8
BLACK
6
CONTINUOUS
10
127.695
20
-96.7454
11
126.305
21
-96.7454
0
LINE
8
BLACK
6
CONTINUOUS
10
126.305
20
-96.7454
11
126.305
21
-94.5674
0
LINE
8
BLACK
6
CONTINUOUS
10
126.305
20
-94.5674
11
127.695
21
-94.5674
0
LINE
8
BLACK
6
CONTINUOUS
10
127.695
20
-94.5674
11
127.695
21
-96.7454
0
LINE
8
BLACK
6
CONTINUOUS
10
125.155
20
-96.7454
11
123.765
21
-96.7454
0
LINE
8
BLACK
6
CONTINUOUS
10
123.765
20
-96.7454
11
123.765
21
-94.5674
0
LINE
8
BLACK
6
CONTINUOUS
10
123.765
20
-94.5674
11
125.155
21
-94.5674
0
LINE
8
BLACK
6
CONTINUOUS
10
125.155
20
-94.5674
11
125.155
21
-96.7454
0
LINE
8
BLACK
6
CONTINUOUS
10
122.615
20
-96.7454
11
121.225
21
-96.7454
0
LINE
8
BLACK
6
CONTINUOUS
10
121.225
20
-96.7454
11
121.225
21
-94.5674
0
LINE
8
BLACK
6
CONTINUOUS
10
121.225
20
-94.5674
11
122.615
21
-94.5674
0
LINE
8
BLACK
6
CONTINUOUS
10
122.615
20
-94.5674
11
122.615
21
-96.7454
0
LINE
8
BLACK
6
CONTINUOUS
10
120.075
20
-96.7454
11
118.685
21
-96.7454
0
LINE
8
BLACK
6
CONTINUOUS
10
118.685
20
-96.7454
11
118.685
21
-94.5674
0
LINE
8
BLACK
6
CONTINUOUS
10
118.685
20
-94.5674
11
120.075
21
-94.5674
0
LINE
8
BLACK
6
CONTINUOUS
10
120.075
20
-94.5674
11
120.075
21
-96.7454
0
LINE
8
BLACK
6
CONTINUOUS
10
41.3353
20
-96.7454
11
39.9447
21
-96.7454
0
LINE
8
BLACK
6
CONTINUOUS
10
39.9447
20
-96.7454
11
39.9447
21
-94.5674
0
LINE
8
BLACK
6
CONTINUOUS
10
39.9447
20
-94.5674
11
41.3353
21
-94.5674
0
LINE
8
BLACK
6
CONTINUOUS
10
41.3353
20
-94.5674
11
41.3353
21
-96.7454
0
LINE
8
BLACK
6
CONTINUOUS
10
117.535
20
-96.7454
11
116.145
21
-96.7454
0
LINE
8
BLACK
6
CONTINUOUS
10
116.145
20
-96.7454
11
116.145
21
-94.5674
0
LINE
8
BLACK
6
CONTINUOUS
10
116.145
20
-94.5674
11
117.535
21
-94.5674
0
LINE
8
BLACK
6
CONTINUOUS
10
117.535
20
-94.5674
11
117.535
21
-96.7454
0
LINE
8
BLACK
6
CONTINUOUS
10
46.4153
20
-96.7454
11
45.0247
21
-96.7454
0
LINE
8
BLACK
6
CONTINUOUS
10
45.0247
20
-96.7454
11
45.0247
21
-94.5674
0
LINE
8
BLACK
6
CONTINUOUS
10
45.0247
20
-94.5674
11
46.4153
21
-94.5674
0
LINE
8
BLACK
6
CONTINUOUS
10
46.4153
20
-94.5674
11
46.4153
21
-96.7454
0
LINE
8
BLACK
6
CONTINUOUS
10
48.9553
20
-96.7454
11
47.5647
21
-96.7454
0
LINE
8
BLACK
6
CONTINUOUS
10
47.5647
20
-96.7454
11
47.5647
21
-94.5674
0
LINE
8
BLACK
6
CONTINUOUS
10
47.5647
20
-94.5674
11
48.9553
21
-94.5674
0
LINE
8
BLACK
6
CONTINUOUS
10
48.9553
20
-94.5674
11
48.9553
21
-96.7454
0
LINE
8
BLACK
6
CONTINUOUS
10
51.4953
20
-96.7454
11
50.1047
21
-96.7454
0
LINE
8
BLACK
6
CONTINUOUS
10
50.1047
20
-96.7454
11
50.1047
21
-94.5674
0
LINE
8
BLACK
6
CONTINUOUS
10
50.1047
20
-94.5674
11
51.4953
21
-94.5674
0
LINE
8
BLACK
6
CONTINUOUS
10
51.4953
20
-94.5674
11
51.4953
21
-96.7454
0
LINE
8
BLACK
6
CONTINUOUS
10
54.0353
20
-96.7454
11
52.6447
21
-96.7454
0
LINE
8
BLACK
6
CONTINUOUS
10
52.6447
20
-96.7454
11
52.6447
21
-94.5674
0
LINE
8
BLACK
6
CONTINUOUS
10
52.6447
20
-94.5674
11
54.0353
21
-94.5674
0
LINE
8
BLACK
6
CONTINUOUS
10
54.0353
20
-94.5674
11
54.0353
21
-96.7454
0
LINE
8
BLACK
6
CONTINUOUS
10
56.5753
20
-96.7454
11
55.1847
21
-96.7454
0
LINE
8
BLACK
6
CONTINUOUS
10
55.1847
20
-96.7454
11
55.1847
21
-94.5674
0
LINE
8
BLACK
6
CONTINUOUS
10
55.1847
20
-94.5674
11
56.5753
21
-94.5674
0
LINE
8
BLACK
6
CONTINUOUS
10
56.5753
20
-94.5674
11
56.5753
21
-96.7454
0
LINE
8
BLACK
6
CONTINUOUS
10
59.1153
20
-96.7454
11
57.7247
21
-96.7454
0
LINE
8
BLACK
6
CONTINUOUS
10
57.7247
20
-96.7454
11
57.7247
21
-94.5674
0
LINE
8
BLACK
6
CONTINUOUS
10
57.7247
20
-94.5674
11
59.1153
21
-94.5674
0
LINE
8
BLACK
6
CONTINUOUS
10
59.1153
20
-94.5674
11
59.1153
21
-96.7454
0
LINE
8
BLACK
6
CONTINUOUS
10
61.6553
20
-96.7454
11
60.2647
21
-96.7454
0
LINE
8
BLACK
6
CONTINUOUS
10
60.2647
20
-96.7454
11
60.2647
21
-94.5674
0
LINE
8
BLACK
6
CONTINUOUS
10
60.2647
20
-94.5674
11
61.6553
21
-94.5674
0
LINE
8
BLACK
6
CONTINUOUS
10
61.6553
20
-94.5674
11
61.6553
21
-96.7454
0
LINE
8
BLACK
6
CONTINUOUS
10
114.995
20
-96.7454
11
113.605
21
-96.7454
0
LINE
8
BLACK
6
CONTINUOUS
10
113.605
20
-96.7454
11
113.605
21
-94.5674
0
LINE
8
BLACK
6
CONTINUOUS
10
113.605
20
-94.5674
11
114.995
21
-94.5674
0
LINE
8
BLACK
6
CONTINUOUS
10
114.995
20
-94.5674
11
114.995
21
-96.7454
0
LINE
8
BLACK
6
CONTINUOUS
10
112.455
20
-96.7454
11
111.065
21
-96.7454
0
LINE
8
BLACK
6
CONTINUOUS
10
111.065
20
-96.7454
11
111.065
21
-94.5674
0
LINE
8
BLACK
6
CONTINUOUS
10
111.065
20
-94.5674
11
112.455
21
-94.5674
0
LINE
8
BLACK
6
CONTINUOUS
10
112.455
20
-94.5674
11
112.455
21
-96.7454
0
LINE
8
BLACK
6
CONTINUOUS
10
109.915
20
-96.7454
11
108.525
21
-96.7454
0
LINE
8
BLACK
6
CONTINUOUS
10
108.525
20
-96.7454
11
108.525
21
-94.5674
0
LINE
8
BLACK
6
CONTINUOUS
10
108.525
20
-94.5674
11
109.915
21
-94.5674
0
LINE
8
BLACK
6
CONTINUOUS
10
109.915
20
-94.5674
11
109.915
21
-96.7454
0
LINE
8
BLACK
6
CONTINUOUS
10
107.375
20
-96.7454
11
105.985
21
-96.7454
0
LINE
8
BLACK
6
CONTINUOUS
10
105.985
20
-96.7454
11
105.985
21
-94.5674
0
LINE
8
BLACK
6
CONTINUOUS
10
105.985
20
-94.5674
11
107.375
21
-94.5674
0
LINE
8
BLACK
6
CONTINUOUS
10
107.375
20
-94.5674
11
107.375
21
-96.7454
0
LINE
8
BLACK
6
CONTINUOUS
10
104.835
20
-96.7454
11
103.445
21
-96.7454
0
LINE
8
BLACK
6
CONTINUOUS
10
103.445
20
-96.7454
11
103.445
21
-94.5674
0
LINE
8
BLACK
6
CONTINUOUS
10
103.445
20
-94.5674
11
104.835
21
-94.5674
0
LINE
8
BLACK
6
CONTINUOUS
10
104.835
20
-94.5674
11
104.835
21
-96.7454
0
LINE
8
BLACK
6
CONTINUOUS
10
64.1953
20
-90.8526
11
62.8047
21
-90.8526
0
LINE
8
BLACK
6
CONTINUOUS
10
62.8047
20
-90.8526
11
62.8047
21
-88.6746
0
LINE
8
BLACK
6
CONTINUOUS
10
62.8047
20
-88.6746
11
64.1953
21
-88.6746
0
LINE
8
BLACK
6
CONTINUOUS
10
64.1953
20
-88.6746
11
64.1953
21
-90.8526
0
LINE
8
BLACK
6
CONTINUOUS
10
112.455
20
-90.8526
11
111.065
21
-90.8526
0
LINE
8
BLACK
6
CONTINUOUS
10
111.065
20
-90.8526
11
111.065
21
-88.6746
0
LINE
8
BLACK
6
CONTINUOUS
10
111.065
20
-88.6746
11
112.455
21
-88.6746
0
LINE
8
BLACK
6
CONTINUOUS
10
112.455
20
-88.6746
11
112.455
21
-90.8526
0
LINE
8
BLACK
6
CONTINUOUS
10
114.995
20
-90.8526
11
113.605
21
-90.8526
0
LINE
8
BLACK
6
CONTINUOUS
10
113.605
20
-90.8526
11
113.605
21
-88.6746
0
LINE
8
BLACK
6
CONTINUOUS
10
113.605
20
-88.6746
11
114.995
21
-88.6746
0
LINE
8
BLACK
6
CONTINUOUS
10
114.995
20
-88.6746
11
114.995
21
-90.8526
0
LINE
8
BLACK
6
CONTINUOUS
10
122.615
20
-90.8526
11
121.225
21
-90.8526
0
LINE
8
BLACK
6
CONTINUOUS
10
121.225
20
-90.8526
11
121.225
21
-88.6746
0
LINE
8
BLACK
6
CONTINUOUS
10
121.225
20
-88.6746
11
122.615
21
-88.6746
0
LINE
8
BLACK
6
CONTINUOUS
10
122.615
20
-88.6746
11
122.615
21
-90.8526
0
LINE
8
BLACK
6
CONTINUOUS
10
120.075
20
-90.8526
11
118.685
21
-90.8526
0
LINE
8
BLACK
6
CONTINUOUS
10
118.685
20
-90.8526
11
118.685
21
-88.6746
0
LINE
8
BLACK
6
CONTINUOUS
10
118.685
20
-88.6746
11
120.075
21
-88.6746
0
LINE
8
BLACK
6
CONTINUOUS
10
120.075
20
-88.6746
11
120.075
21
-90.8526
0
LINE
8
BLACK
6
CONTINUOUS
10
117.535
20
-90.8526
11
116.145
21
-90.8526
0
LINE
8
BLACK
6
CONTINUOUS
10
116.145
20
-90.8526
11
116.145
21
-88.6746
0
LINE
8
BLACK
6
CONTINUOUS
10
116.145
20
-88.6746
11
117.535
21
-88.6746
0
LINE
8
BLACK
6
CONTINUOUS
10
117.535
20
-88.6746
11
117.535
21
-90.8526
0
LINE
8
BLACK
6
CONTINUOUS
10
125.155
20
-90.8526
11
123.765
21
-90.8526
0
LINE
8
BLACK
6
CONTINUOUS
10
123.765
20
-90.8526
11
123.765
21
-88.6746
0
LINE
8
BLACK
6
CONTINUOUS
10
123.765
20
-88.6746
11
125.155
21
-88.6746
0
LINE
8
BLACK
6
CONTINUOUS
10
125.155
20
-88.6746
11
125.155
21
-90.8526
0
LINE
8
BLACK
6
CONTINUOUS
10
127.695
20
-90.8526
11
126.305
21
-90.8526
0
LINE
8
BLACK
6
CONTINUOUS
10
126.305
20
-90.8526
11
126.305
21
-88.6746
0
LINE
8
BLACK
6
CONTINUOUS
10
126.305
20
-88.6746
11
127.695
21
-88.6746
0
LINE
8
BLACK
6
CONTINUOUS
10
127.695
20
-88.6746
11
127.695
21
-90.8526
0
LINE
8
BLACK
6
CONTINUOUS
10
107.375
20
-90.8526
11
105.985
21
-90.8526
0
LINE
8
BLACK
6
CONTINUOUS
10
105.985
20
-90.8526
11
105.985
21
-88.6746
0
LINE
8
BLACK
6
CONTINUOUS
10
105.985
20
-88.6746
11
107.375
21
-88.6746
0
LINE
8
BLACK
6
CONTINUOUS
10
107.375
20
-88.6746
11
107.375
21
-90.8526
0
LINE
8
BLACK
6
CONTINUOUS
10
61.6553
20
-90.8526
11
60.2647
21
-90.8526
0
LINE
8
BLACK
6
CONTINUOUS
10
60.2647
20
-90.8526
11
60.2647
21
-88.6746
0
LINE
8
BLACK
6
CONTINUOUS
10
60.2647
20
-88.6746
11
61.6553
21
-88.6746
0
LINE
8
BLACK
6
CONTINUOUS
10
61.6553
20
-88.6746
11
61.6553
21
-90.8526
0
LINE
8
BLACK
6
CONTINUOUS
10
59.1153
20
-90.8526
11
57.7247
21
-90.8526
0
LINE
8
BLACK
6
CONTINUOUS
10
57.7247
20
-90.8526
11
57.7247
21
-88.6746
0
LINE
8
BLACK
6
CONTINUOUS
10
57.7247
20
-88.6746
11
59.1153
21
-88.6746
0
LINE
8
BLACK
6
CONTINUOUS
10
59.1153
20
-88.6746
11
59.1153
21
-90.8526
0
LINE
8
BLACK
6
CONTINUOUS
10
56.5753
20
-90.8526
11
55.1847
21
-90.8526
0
LINE
8
BLACK
6
CONTINUOUS
10
55.1847
20
-90.8526
11
55.1847
21
-88.6746
0
LINE
8
BLACK
6
CONTINUOUS
10
55.1847
20
-88.6746
11
56.5753
21
-88.6746
0
LINE
8
BLACK
6
CONTINUOUS
10
56.5753
20
-88.6746
11
56.5753
21
-90.8526
0
LINE
8
BLACK
6
CONTINUOUS
10
54.0353
20
-90.8526
11
52.6447
21
-90.8526
0
LINE
8
BLACK
6
CONTINUOUS
10
52.6447
20
-90.8526
11
52.6447
21
-88.6746
0
LINE
8
BLACK
6
CONTINUOUS
10
52.6447
20
-88.6746
11
54.0353
21
-88.6746
0
LINE
8
BLACK
6
CONTINUOUS
10
54.0353
20
-88.6746
11
54.0353
21
-90.8526
0
LINE
8
BLACK
6
CONTINUOUS
10
51.4953
20
-90.8526
11
50.1047
21
-90.8526
0
LINE
8
BLACK
6
CONTINUOUS
10
50.1047
20
-90.8526
11
50.1047
21
-88.6746
0
LINE
8
BLACK
6
CONTINUOUS
10
50.1047
20
-88.6746
11
51.4953
21
-88.6746
0
LINE
8
BLACK
6
CONTINUOUS
10
51.4953
20
-88.6746
11
51.4953
21
-90.8526
0
LINE
8
BLACK
6
CONTINUOUS
10
48.9553
20
-90.8526
11
47.5647
21
-90.8526
0
LINE
8
BLACK
6
CONTINUOUS
10
47.5647
20
-90.8526
11
47.5647
21
-88.6746
0
LINE
8
BLACK
6
CONTINUOUS
10
47.5647
20
-88.6746
11
48.9553
21
-88.6746
0
LINE
8
BLACK
6
CONTINUOUS
10
48.9553
20
-88.6746
11
48.9553
21
-90.8526
0
LINE
8
BLACK
6
CONTINUOUS
10
46.4153
20
-90.8526
11
45.0247
21
-90.8526
0
LINE
8
BLACK
6
CONTINUOUS
10
45.0247
20
-90.8526
11
45.0247
21
-88.6746
0
LINE
8
BLACK
6
CONTINUOUS
10
45.0247
20
-88.6746
11
46.4153
21
-88.6746
0
LINE
8
BLACK
6
CONTINUOUS
10
46.4153
20
-88.6746
11
46.4153
21
-90.8526
0
LINE
8
BLACK
6
CONTINUOUS
10
43.8753
20
-90.8526
11
42.4847
21
-90.8526
0
LINE
8
BLACK
6
CONTINUOUS
10
42.4847
20
-90.8526
11
42.4847
21
-88.6746
0
LINE
8
BLACK
6
CONTINUOUS
10
42.4847
20
-88.6746
11
43.8753
21
-88.6746
0
LINE
8
BLACK
6
CONTINUOUS
10
43.8753
20
-88.6746
11
43.8753
21
-90.8526
0
LINE
8
BLACK
6
CONTINUOUS
10
41.3353
20
-90.8526
11
39.9447
21
-90.8526
0
LINE
8
BLACK
6
CONTINUOUS
10
39.9447
20
-90.8526
11
39.9447
21
-88.6746
0
LINE
8
BLACK
6
CONTINUOUS
10
39.9447
20
-88.6746
11
41.3353
21
-88.6746
0
LINE
8
BLACK
6
CONTINUOUS
10
41.3353
20
-88.6746
11
41.3353
21
-90.8526
0
LINE
8
BLACK
6
CONTINUOUS
10
109.915
20
-90.8526
11
108.525
21
-90.8526
0
LINE
8
BLACK
6
CONTINUOUS
10
108.525
20
-90.8526
11
108.525
21
-88.6746
0
LINE
8
BLACK
6
CONTINUOUS
10
108.525
20
-88.6746
11
109.915
21
-88.6746
0
LINE
8
BLACK
6
CONTINUOUS
10
109.915
20
-88.6746
11
109.915
21
-90.8526
0
LINE
8
BLACK
6
CONTINUOUS
10
104.835
20
-90.8526
11
103.445
21
-90.8526
0
LINE
8
BLACK
6
CONTINUOUS
10
103.445
20
-90.8526
11
103.445
21
-88.6746
0
LINE
8
BLACK
6
CONTINUOUS
10
103.445
20
-88.6746
11
104.835
21
-88.6746
0
LINE
8
BLACK
6
CONTINUOUS
10
104.835
20
-88.6746
11
104.835
21
-90.8526
0
LINE
8
BLACK
6
CONTINUOUS
10
53.8429
20
-85.1974
11
53.9444
21
-85.256
0
LINE
8
BLACK
6
CONTINUOUS
10
53.9444
20
-85.256
11
54.0198
21
-85.3457
0
LINE
8
BLACK
6
CONTINUOUS
10
54.0198
20
-85.3457
11
54.065
21
-85.5145
0
LINE
8
BLACK
6
CONTINUOUS
10
54.065
20
-85.5145
11
54.065
21
-86.1895
0
LINE
8
BLACK
6
CONTINUOUS
10
54.065
20
-86.1895
11
54.0446
21
-86.3049
0
LINE
8
BLACK
6
CONTINUOUS
10
54.0446
20
-86.3049
11
53.986
21
-86.4064
0
LINE
8
BLACK
6
CONTINUOUS
10
53.986
20
-86.4064
11
53.8962
21
-86.4818
0
LINE
8
BLACK
6
CONTINUOUS
10
53.8962
20
-86.4818
11
53.7275
21
-86.527
0
LINE
8
BLACK
6
CONTINUOUS
10
53.7275
20
-86.527
11
52.9525
21
-86.527
0
LINE
8
BLACK
6
CONTINUOUS
10
52.9525
20
-86.527
11
52.8371
21
-86.5066
0
LINE
8
BLACK
6
CONTINUOUS
10
52.8371
20
-86.5066
11
52.7356
21
-86.448
0
LINE
8
BLACK
6
CONTINUOUS
10
52.7356
20
-86.448
11
52.6602
21
-86.3582
0
LINE
8
BLACK
6
CONTINUOUS
10
52.6602
20
-86.3582
11
52.615
21
-86.1895
0
LINE
8
BLACK
6
CONTINUOUS
10
52.615
20
-86.1895
11
52.615
21
-85.5145
0
LINE
8
BLACK
6
CONTINUOUS
10
52.615
20
-85.5145
11
52.6354
21
-85.3991
0
LINE
8
BLACK
6
CONTINUOUS
10
52.6354
20
-85.3991
11
52.694
21
-85.2976
0
LINE
8
BLACK
6
CONTINUOUS
10
52.694
20
-85.2976
11
52.7837
21
-85.2222
0
LINE
8
BLACK
6
CONTINUOUS
10
52.7837
20
-85.2222
11
52.9525
21
-85.177
0
LINE
8
BLACK
6
CONTINUOUS
10
52.9525
20
-85.177
11
53.7275
21
-85.177
0
LINE
8
BLACK
6
CONTINUOUS
10
53.7275
20
-85.177
11
53.8429
21
-85.1974
0
LINE
8
BLACK
6
CONTINUOUS
10
55.5929
20
-85.1974
11
55.6944
21
-85.256
0
LINE
8
BLACK
6
CONTINUOUS
10
55.6944
20
-85.256
11
55.7698
21
-85.3457
0
LINE
8
BLACK
6
CONTINUOUS
10
55.7698
20
-85.3457
11
55.815
21
-85.5145
0
LINE
8
BLACK
6
CONTINUOUS
10
55.815
20
-85.5145
11
55.815
21
-86.1895
0
LINE
8
BLACK
6
CONTINUOUS
10
55.815
20
-86.1895
11
55.7946
21
-86.3049
0
LINE
8
BLACK
6
CONTINUOUS
10
55.7946
20
-86.3049
11
55.736
21
-86.4064
0
LINE
8
BLACK
6
CONTINUOUS
10
55.736
20
-86.4064
11
55.6462
21
-86.4818
0
LINE
8
BLACK
6
CONTINUOUS
10
55.6462
20
-86.4818
11
55.4775
21
-86.527
0
LINE
8
BLACK
6
CONTINUOUS
10
55.4775
20
-86.527
11
54.7025
21
-86.527
0
LINE
8
BLACK
6
CONTINUOUS
10
54.7025
20
-86.527
11
54.5871
21
-86.5066
0
LINE
8
BLACK
6
CONTINUOUS
10
54.5871
20
-86.5066
11
54.4856
21
-86.448
0
LINE
8
BLACK
6
CONTINUOUS
10
54.4856
20
-86.448
11
54.4102
21
-86.3582
0
LINE
8
BLACK
6
CONTINUOUS
10
54.4102
20
-86.3582
11
54.365
21
-86.1895
0
LINE
8
BLACK
6
CONTINUOUS
10
54.365
20
-86.1895
11
54.365
21
-85.5145
0
LINE
8
BLACK
6
CONTINUOUS
10
54.365
20
-85.5145
11
54.3854
21
-85.3991
0
LINE
8
BLACK
6
CONTINUOUS
10
54.3854
20
-85.3991
11
54.444
21
-85.2976
0
LINE
8
BLACK
6
CONTINUOUS
10
54.444
20
-85.2976
11
54.5337
21
-85.2222
0
LINE
8
BLACK
6
CONTINUOUS
10
54.5337
20
-85.2222
11
54.7025
21
-85.177
0
LINE
8
BLACK
6
CONTINUOUS
10
54.7025
20
-85.177
11
55.4775
21
-85.177
0
LINE
8
BLACK
6
CONTINUOUS
10
55.4775
20
-85.177
11
55.5929
21
-85.1974
0
LINE
8
BLACK
6
CONTINUOUS
10
95.3301
20
-72.7421
11
95.6239
21
-72.9117
0
LINE
8
BLACK
6
CONTINUOUS
10
95.6239
20
-72.9117
11
95.842
21
-73.1716
0
LINE
8
BLACK
6
CONTINUOUS
10
95.842
20
-73.1716
11
95.958
21
-73.4904
0
LINE
8
BLACK
6
CONTINUOUS
10
95.958
20
-73.4904
11
95.958
21
-73.8296
0
LINE
8
BLACK
6
CONTINUOUS
10
95.958
20
-73.8296
11
95.842
21
-74.1484
0
LINE
8
BLACK
6
CONTINUOUS
10
95.842
20
-74.1484
11
95.6239
21
-74.4083
0
LINE
8
BLACK
6
CONTINUOUS
10
95.6239
20
-74.4083
11
95.3301
21
-74.5779
0
LINE
8
BLACK
6
CONTINUOUS
10
95.3301
20
-74.5779
11
94.996
21
-74.6368
0
LINE
8
BLACK
6
CONTINUOUS
10
94.996
20
-74.6368
11
94.6619
21
-74.5779
0
LINE
8
BLACK
6
CONTINUOUS
10
94.6619
20
-74.5779
11
94.3681
21
-74.4083
0
LINE
8
BLACK
6
CONTINUOUS
10
94.3681
20
-74.4083
11
94.15
21
-74.1484
0
LINE
8
BLACK
6
CONTINUOUS
10
94.15
20
-74.1484
11
94.034
21
-73.8296
0
LINE
8
BLACK
6
CONTINUOUS
10
94.034
20
-73.8296
11
94.034
21
-73.4904
0
LINE
8
BLACK
6
CONTINUOUS
10
94.034
20
-73.4904
11
94.15
21
-73.1716
0
LINE
8
BLACK
6
CONTINUOUS
10
94.15
20
-73.1716
11
94.3681
21
-72.9117
0
LINE
8
BLACK
6
CONTINUOUS
10
94.3681
20
-72.9117
11
94.6619
21
-72.7421
0
LINE
8
BLACK
6
CONTINUOUS
10
94.6619
20
-72.7421
11
94.996
21
-72.6832
0
LINE
8
BLACK
6
CONTINUOUS
10
94.996
20
-72.6832
11
95.3301
21
-72.7421
0
LINE
8
BLACK
6
CONTINUOUS
10
90.2501
20
-72.7421
11
90.5439
21
-72.9117
0
LINE
8
BLACK
6
CONTINUOUS
10
90.5439
20
-72.9117
11
90.762
21
-73.1716
0
LINE
8
BLACK
6
CONTINUOUS
10
90.762
20
-73.1716
11
90.878
21
-73.4904
0
LINE
8
BLACK
6
CONTINUOUS
10
90.878
20
-73.4904
11
90.878
21
-73.8296
0
LINE
8
BLACK
6
CONTINUOUS
10
90.878
20
-73.8296
11
90.762
21
-74.1484
0
LINE
8
BLACK
6
CONTINUOUS
10
90.762
20
-74.1484
11
90.5439
21
-74.4083
0
LINE
8
BLACK
6
CONTINUOUS
10
90.5439
20
-74.4083
11
90.2501
21
-74.5779
0
LINE
8
BLACK
6
CONTINUOUS
10
90.2501
20
-74.5779
11
89.916
21
-74.6368
0
LINE
8
BLACK
6
CONTINUOUS
10
89.916
20
-74.6368
11
89.5819
21
-74.5779
0
LINE
8
BLACK
6
CONTINUOUS
10
89.5819
20
-74.5779
11
89.2881
21
-74.4083
0
LINE
8
BLACK
6
CONTINUOUS
10
89.2881
20
-74.4083
11
89.07
21
-74.1484
0
LINE
8
BLACK
6
CONTINUOUS
10
89.07
20
-74.1484
11
88.954
21
-73.8296
0
LINE
8
BLACK
6
CONTINUOUS
10
88.954
20
-73.8296
11
88.954
21
-73.4904
0
LINE
8
BLACK
6
CONTINUOUS
10
88.954
20
-73.4904
11
89.07
21
-73.1716
0
LINE
8
BLACK
6
CONTINUOUS
10
89.07
20
-73.1716
11
89.2881
21
-72.9117
0
LINE
8
BLACK
6
CONTINUOUS
10
89.2881
20
-72.9117
11
89.5819
21
-72.7421
0
LINE
8
BLACK
6
CONTINUOUS
10
89.5819
20
-72.7421
11
89.916
21
-72.6832
0
LINE
8
BLACK
6
CONTINUOUS
10
89.916
20
-72.6832
11
90.2501
21
-72.7421
0
LINE
8
BLACK
6
CONTINUOUS
10
92.7901
20
-72.7421
11
93.0839
21
-72.9117
0
LINE
8
BLACK
6
CONTINUOUS
10
93.0839
20
-72.9117
11
93.302
21
-73.1716
0
LINE
8
BLACK
6
CONTINUOUS
10
93.302
20
-73.1716
11
93.418
21
-73.4904
0
LINE
8
BLACK
6
CONTINUOUS
10
93.418
20
-73.4904
11
93.418
21
-73.8296
0
LINE
8
BLACK
6
CONTINUOUS
10
93.418
20
-73.8296
11
93.302
21
-74.1484
0
LINE
8
BLACK
6
CONTINUOUS
10
93.302
20
-74.1484
11
93.0839
21
-74.4083
0
LINE
8
BLACK
6
CONTINUOUS
10
93.0839
20
-74.4083
11
92.7901
21
-74.5779
0
LINE
8
BLACK
6
CONTINUOUS
10
92.7901
20
-74.5779
11
92.456
21
-74.6368
0
LINE
8
BLACK
6
CONTINUOUS
10
92.456
20
-74.6368
11
92.1219
21
-74.5779
0
LINE
8
BLACK
6
CONTINUOUS
10
92.1219
20
-74.5779
11
91.8281
21
-74.4083
0
LINE
8
BLACK
6
CONTINUOUS
10
91.8281
20
-74.4083
11
91.61
21
-74.1484
0
LINE
8
BLACK
6
CONTINUOUS
10
91.61
20
-74.1484
11
91.494
21
-73.8296
0
LINE
8
BLACK
6
CONTINUOUS
10
91.494
20
-73.8296
11
91.494
21
-73.4904
0
LINE
8
BLACK
6
CONTINUOUS
10
91.494
20
-73.4904
11
91.61
21
-73.1716
0
LINE
8
BLACK
6
CONTINUOUS
10
91.61
20
-73.1716
11
91.8281
21
-72.9117
0
LINE
8
BLACK
6
CONTINUOUS
10
91.8281
20
-72.9117
11
92.1219
21
-72.7421
0
LINE
8
BLACK
6
CONTINUOUS
10
92.1219
20
-72.7421
11
92.456
21
-72.6832
0
LINE
8
BLACK
6
CONTINUOUS
10
92.456
20
-72.6832
11
92.7901
21
-72.7421
0
LINE
8
BLACK
6
CONTINUOUS
10
113.237
20
-72.7421
11
113.531
21
-72.9117
0
LINE
8
BLACK
6
CONTINUOUS
10
113.531
20
-72.9117
11
113.749
21
-73.1716
0
LINE
8
BLACK
6
CONTINUOUS
10
113.749
20
-73.1716
11
113.865
21
-73.4904
0
LINE
8
BLACK
6
CONTINUOUS
10
113.865
20
-73.4904
11
113.865
21
-73.8296
0
LINE
8
BLACK
6
CONTINUOUS
10
113.865
20
-73.8296
11
113.749
21
-74.1484
0
LINE
8
BLACK
6
CONTINUOUS
10
113.749
20
-74.1484
11
113.531
21
-74.4083
0
LINE
8
BLACK
6
CONTINUOUS
10
113.531
20
-74.4083
11
113.237
21
-74.5779
0
LINE
8
BLACK
6
CONTINUOUS
10
113.237
20
-74.5779
11
112.903
21
-74.6368
0
LINE
8
BLACK
6
CONTINUOUS
10
112.903
20
-74.6368
11
112.569
21
-74.5779
0
LINE
8
BLACK
6
CONTINUOUS
10
112.569
20
-74.5779
11
112.275
21
-74.4083
0
LINE
8
BLACK
6
CONTINUOUS
10
112.275
20
-74.4083
11
112.057
21
-74.1484
0
LINE
8
BLACK
6
CONTINUOUS
10
112.057
20
-74.1484
11
111.941
21
-73.8296
0
LINE
8
BLACK
6
CONTINUOUS
10
111.941
20
-73.8296
11
111.941
21
-73.4904
0
LINE
8
BLACK
6
CONTINUOUS
10
111.941
20
-73.4904
11
112.057
21
-73.1716
0
LINE
8
BLACK
6
CONTINUOUS
10
112.057
20
-73.1716
11
112.275
21
-72.9117
0
LINE
8
BLACK
6
CONTINUOUS
10
112.275
20
-72.9117
11
112.569
21
-72.7421
0
LINE
8
BLACK
6
CONTINUOUS
10
112.569
20
-72.7421
11
112.903
21
-72.6832
0
LINE
8
BLACK
6
CONTINUOUS
10
112.903
20
-72.6832
11
113.237
21
-72.7421
0
LINE
8
BLACK
6
CONTINUOUS
10
110.697
20
-72.7421
11
110.991
21
-72.9117
0
LINE
8
BLACK
6
CONTINUOUS
10
110.991
20
-72.9117
11
111.209
21
-73.1716
0
LINE
8
BLACK
6
CONTINUOUS
10
111.209
20
-73.1716
11
111.325
21
-73.4904
0
LINE
8
BLACK
6
CONTINUOUS
10
111.325
20
-73.4904
11
111.325
21
-73.8296
0
LINE
8
BLACK
6
CONTINUOUS
10
111.325
20
-73.8296
11
111.209
21
-74.1484
0
LINE
8
BLACK
6
CONTINUOUS
10
111.209
20
-74.1484
11
110.991
21
-74.4083
0
LINE
8
BLACK
6
CONTINUOUS
10
110.991
20
-74.4083
11
110.697
21
-74.5779
0
LINE
8
BLACK
6
CONTINUOUS
10
110.697
20
-74.5779
11
110.363
21
-74.6368
0
LINE
8
BLACK
6
CONTINUOUS
10
110.363
20
-74.6368
11
110.029
21
-74.5779
0
LINE
8
BLACK
6
CONTINUOUS
10
110.029
20
-74.5779
11
109.735
21
-74.4083
0
LINE
8
BLACK
6
CONTINUOUS
10
109.735
20
-74.4083
11
109.517
21
-74.1484
0
LINE
8
BLACK
6
CONTINUOUS
10
109.517
20
-74.1484
11
109.401
21
-73.8296
0
LINE
8
BLACK
6
CONTINUOUS
10
109.401
20
-73.8296
11
109.401
21
-73.4904
0
LINE
8
BLACK
6
CONTINUOUS
10
109.401
20
-73.4904
11
109.517
21
-73.1716
0
LINE
8
BLACK
6
CONTINUOUS
10
109.517
20
-73.1716
11
109.735
21
-72.9117
0
LINE
8
BLACK
6
CONTINUOUS
10
109.735
20
-72.9117
11
110.029
21
-72.7421
0
LINE
8
BLACK
6
CONTINUOUS
10
110.029
20
-72.7421
11
110.363
21
-72.6832
0
LINE
8
BLACK
6
CONTINUOUS
10
110.363
20
-72.6832
11
110.697
21
-72.7421
0
LINE
8
BLACK
6
CONTINUOUS
10
108.157
20
-72.7421
11
108.451
21
-72.9117
0
LINE
8
BLACK
6
CONTINUOUS
10
108.451
20
-72.9117
11
108.669
21
-73.1716
0
LINE
8
BLACK
6
CONTINUOUS
10
108.669
20
-73.1716
11
108.785
21
-73.4904
0
LINE
8
BLACK
6
CONTINUOUS
10
108.785
20
-73.4904
11
108.785
21
-73.8296
0
LINE
8
BLACK
6
CONTINUOUS
10
108.785
20
-73.8296
11
108.669
21
-74.1484
0
LINE
8
BLACK
6
CONTINUOUS
10
108.669
20
-74.1484
11
108.451
21
-74.4083
0
LINE
8
BLACK
6
CONTINUOUS
10
108.451
20
-74.4083
11
108.157
21
-74.5779
0
LINE
8
BLACK
6
CONTINUOUS
10
108.157
20
-74.5779
11
107.823
21
-74.6368
0
LINE
8
BLACK
6
CONTINUOUS
10
107.823
20
-74.6368
11
107.489
21
-74.5779
0
LINE
8
BLACK
6
CONTINUOUS
10
107.489
20
-74.5779
11
107.195
21
-74.4083
0
LINE
8
BLACK
6
CONTINUOUS
10
107.195
20
-74.4083
11
106.977
21
-74.1484
0
LINE
8
BLACK
6
CONTINUOUS
10
106.977
20
-74.1484
11
106.861
21
-73.8296
0
LINE
8
BLACK
6
CONTINUOUS
10
106.861
20
-73.8296
11
106.861
21
-73.4904
0
LINE
8
BLACK
6
CONTINUOUS
10
106.861
20
-73.4904
11
106.977
21
-73.1716
0
LINE
8
BLACK
6
CONTINUOUS
10
106.977
20
-73.1716
11
107.195
21
-72.9117
0
LINE
8
BLACK
6
CONTINUOUS
10
107.195
20
-72.9117
11
107.489
21
-72.7421
0
LINE
8
BLACK
6
CONTINUOUS
10
107.489
20
-72.7421
11
107.823
21
-72.6832
0
LINE
8
BLACK
6
CONTINUOUS
10
107.823
20
-72.6832
11
108.157
21
-72.7421
0
LINE
8
BLACK
6
CONTINUOUS
10
104.593
20
-66.9864
11
104.694
21
-67.045
0
LINE
8
BLACK
6
CONTINUOUS
10
104.694
20
-67.045
11
104.77
21
-67.1347
0
LINE
8
BLACK
6
CONTINUOUS
10
104.77
20
-67.1347
11
104.815
21
-67.3035
0
LINE
8
BLACK
6
CONTINUOUS
10
104.815
20
-67.3035
11
104.815
21
-68.0785
0
LINE
8
BLACK
6
CONTINUOUS
10
104.815
20
-68.0785
11
104.795
21
-68.1939
0
LINE
8
BLACK
6
CONTINUOUS
10
104.795
20
-68.1939
11
104.736
21
-68.2954
0
LINE
8
BLACK
6
CONTINUOUS
10
104.736
20
-68.2954
11
104.646
21
-68.3708
0
LINE
8
BLACK
6
CONTINUOUS
10
104.646
20
-68.3708
11
104.477
21
-68.416
0
LINE
8
BLACK
6
CONTINUOUS
10
104.477
20
-68.416
11
103.802
21
-68.416
0
LINE
8
BLACK
6
CONTINUOUS
10
103.802
20
-68.416
11
103.687
21
-68.3956
0
LINE
8
BLACK
6
CONTINUOUS
10
103.687
20
-68.3956
11
103.586
21
-68.337
0
LINE
8
BLACK
6
CONTINUOUS
10
103.586
20
-68.337
11
103.51
21
-68.2472
0
LINE
8
BLACK
6
CONTINUOUS
10
103.51
20
-68.2472
11
103.465
21
-68.0785
0
LINE
8
BLACK
6
CONTINUOUS
10
103.465
20
-68.0785
11
103.465
21
-67.3035
0
LINE
8
BLACK
6
CONTINUOUS
10
103.465
20
-67.3035
11
103.485
21
-67.1881
0
LINE
8
BLACK
6
CONTINUOUS
10
103.485
20
-67.1881
11
103.544
21
-67.0866
0
LINE
8
BLACK
6
CONTINUOUS
10
103.544
20
-67.0866
11
103.634
21
-67.0112
0
LINE
8
BLACK
6
CONTINUOUS
10
103.634
20
-67.0112
11
103.802
21
-66.966
0
LINE
8
BLACK
6
CONTINUOUS
10
103.802
20
-66.966
11
104.477
21
-66.966
0
LINE
8
BLACK
6
CONTINUOUS
10
104.477
20
-66.966
11
104.593
21
-66.9864
0
LINE
8
BLACK
6
CONTINUOUS
10
108.657
20
-66.9864
11
108.758
21
-67.045
0
LINE
8
BLACK
6
CONTINUOUS
10
108.758
20
-67.045
11
108.834
21
-67.1347
0
LINE
8
BLACK
6
CONTINUOUS
10
108.834
20
-67.1347
11
108.879
21
-67.3035
0
LINE
8
BLACK
6
CONTINUOUS
10
108.879
20
-67.3035
11
108.879
21
-68.0785
0
LINE
8
BLACK
6
CONTINUOUS
10
108.879
20
-68.0785
11
108.859
21
-68.1939
0
LINE
8
BLACK
6
CONTINUOUS
10
108.859
20
-68.1939
11
108.8
21
-68.2954
0
LINE
8
BLACK
6
CONTINUOUS
10
108.8
20
-68.2954
11
108.71
21
-68.3708
0
LINE
8
BLACK
6
CONTINUOUS
10
108.71
20
-68.3708
11
108.541
21
-68.416
0
LINE
8
BLACK
6
CONTINUOUS
10
108.541
20
-68.416
11
107.867
21
-68.416
0
LINE
8
BLACK
6
CONTINUOUS
10
107.867
20
-68.416
11
107.751
21
-68.3956
0
LINE
8
BLACK
6
CONTINUOUS
10
107.751
20
-68.3956
11
107.65
21
-68.337
0
LINE
8
BLACK
6
CONTINUOUS
10
107.65
20
-68.337
11
107.574
21
-68.2472
0
LINE
8
BLACK
6
CONTINUOUS
10
107.574
20
-68.2472
11
107.529
21
-68.0785
0
LINE
8
BLACK
6
CONTINUOUS
10
107.529
20
-68.0785
11
107.529
21
-67.3035
0
LINE
8
BLACK
6
CONTINUOUS
10
107.529
20
-67.3035
11
107.549
21
-67.1881
0
LINE
8
BLACK
6
CONTINUOUS
10
107.549
20
-67.1881
11
107.608
21
-67.0866
0
LINE
8
BLACK
6
CONTINUOUS
10
107.608
20
-67.0866
11
107.698
21
-67.0112
0
LINE
8
BLACK
6
CONTINUOUS
10
107.698
20
-67.0112
11
107.867
21
-66.966
0
LINE
8
BLACK
6
CONTINUOUS
10
107.867
20
-66.966
11
108.541
21
-66.966
0
LINE
8
BLACK
6
CONTINUOUS
10
108.541
20
-66.966
11
108.657
21
-66.9864
0
LINE
8
BLACK
6
CONTINUOUS
10
102.561
20
-66.9864
11
102.662
21
-67.045
0
LINE
8
BLACK
6
CONTINUOUS
10
102.662
20
-67.045
11
102.738
21
-67.1347
0
LINE
8
BLACK
6
CONTINUOUS
10
102.738
20
-67.1347
11
102.783
21
-67.3035
0
LINE
8
BLACK
6
CONTINUOUS
10
102.783
20
-67.3035
11
102.783
21
-68.0785
0
LINE
8
BLACK
6
CONTINUOUS
10
102.783
20
-68.0785
11
102.763
21
-68.1939
0
LINE
8
BLACK
6
CONTINUOUS
10
102.763
20
-68.1939
11
102.704
21
-68.2954
0
LINE
8
BLACK
6
CONTINUOUS
10
102.704
20
-68.2954
11
102.614
21
-68.3708
0
LINE
8
BLACK
6
CONTINUOUS
10
102.614
20
-68.3708
11
102.445
21
-68.416
0
LINE
8
BLACK
6
CONTINUOUS
10
102.445
20
-68.416
11
101.77
21
-68.416
0
LINE
8
BLACK
6
CONTINUOUS
10
101.77
20
-68.416
11
101.655
21
-68.3956
0
LINE
8
BLACK
6
CONTINUOUS
10
101.655
20
-68.3956
11
101.554
21
-68.337
0
LINE
8
BLACK
6
CONTINUOUS
10
101.554
20
-68.337
11
101.478
21
-68.2472
0
LINE
8
BLACK
6
CONTINUOUS
10
101.478
20
-68.2472
11
101.433
21
-68.0785
0
LINE
8
BLACK
6
CONTINUOUS
10
101.433
20
-68.0785
11
101.433
21
-67.3035
0
LINE
8
BLACK
6
CONTINUOUS
10
101.433
20
-67.3035
11
101.453
21
-67.1881
0
LINE
8
BLACK
6
CONTINUOUS
10
101.453
20
-67.1881
11
101.512
21
-67.0866
0
LINE
8
BLACK
6
CONTINUOUS
10
101.512
20
-67.0866
11
101.602
21
-67.0112
0
LINE
8
BLACK
6
CONTINUOUS
10
101.602
20
-67.0112
11
101.77
21
-66.966
0
LINE
8
BLACK
6
CONTINUOUS
10
101.77
20
-66.966
11
102.445
21
-66.966
0
LINE
8
BLACK
6
CONTINUOUS
10
102.445
20
-66.966
11
102.561
21
-66.9864
0
LINE
8
BLACK
6
CONTINUOUS
10
106.625
20
-66.9864
11
106.726
21
-67.045
0
LINE
8
BLACK
6
CONTINUOUS
10
106.726
20
-67.045
11
106.802
21
-67.1347
0
LINE
8
BLACK
6
CONTINUOUS
10
106.802
20
-67.1347
11
106.847
21
-67.3035
0
LINE
8
BLACK
6
CONTINUOUS
10
106.847
20
-67.3035
11
106.847
21
-68.0785
0
LINE
8
BLACK
6
CONTINUOUS
10
106.847
20
-68.0785
11
106.827
21
-68.1939
0
LINE
8
BLACK
6
CONTINUOUS
10
106.827
20
-68.1939
11
106.768
21
-68.2954
0
LINE
8
BLACK
6
CONTINUOUS
10
106.768
20
-68.2954
11
106.678
21
-68.3708
0
LINE
8
BLACK
6
CONTINUOUS
10
106.678
20
-68.3708
11
106.509
21
-68.416
0
LINE
8
BLACK
6
CONTINUOUS
10
106.509
20
-68.416
11
105.834
21
-68.416
0
LINE
8
BLACK
6
CONTINUOUS
10
105.834
20
-68.416
11
105.719
21
-68.3956
0
LINE
8
BLACK
6
CONTINUOUS
10
105.719
20
-68.3956
11
105.618
21
-68.337
0
LINE
8
BLACK
6
CONTINUOUS
10
105.618
20
-68.337
11
105.542
21
-68.2472
0
LINE
8
BLACK
6
CONTINUOUS
10
105.542
20
-68.2472
11
105.497
21
-68.0785
0
LINE
8
BLACK
6
CONTINUOUS
10
105.497
20
-68.0785
11
105.497
21
-67.3035
0
LINE
8
BLACK
6
CONTINUOUS
10
105.497
20
-67.3035
11
105.517
21
-67.1881
0
LINE
8
BLACK
6
CONTINUOUS
10
105.517
20
-67.1881
11
105.576
21
-67.0866
0
LINE
8
BLACK
6
CONTINUOUS
10
105.576
20
-67.0866
11
105.666
21
-67.0112
0
LINE
8
BLACK
6
CONTINUOUS
10
105.666
20
-67.0112
11
105.834
21
-66.966
0
LINE
8
BLACK
6
CONTINUOUS
10
105.834
20
-66.966
11
106.509
21
-66.966
0
LINE
8
BLACK
6
CONTINUOUS
10
106.509
20
-66.966
11
106.625
21
-66.9864
0
LINE
8
BLACK
6
CONTINUOUS
10
100.529
20
-66.9864
11
100.63
21
-67.045
0
LINE
8
BLACK
6
CONTINUOUS
10
100.63
20
-67.045
11
100.706
21
-67.1347
0
LINE
8
BLACK
6
CONTINUOUS
10
100.706
20
-67.1347
11
100.751
21
-67.3035
0
LINE
8
BLACK
6
CONTINUOUS
10
100.751
20
-67.3035
11
100.751
21
-68.0785
0
LINE
8
BLACK
6
CONTINUOUS
10
100.751
20
-68.0785
11
100.731
21
-68.1939
0
LINE
8
BLACK
6
CONTINUOUS
10
100.731
20
-68.1939
11
100.672
21
-68.2954
0
LINE
8
BLACK
6
CONTINUOUS
10
100.672
20
-68.2954
11
100.582
21
-68.3708
0
LINE
8
BLACK
6
CONTINUOUS
10
100.582
20
-68.3708
11
100.413
21
-68.416
0
LINE
8
BLACK
6
CONTINUOUS
10
100.413
20
-68.416
11
99.7385
21
-68.416
0
LINE
8
BLACK
6
CONTINUOUS
10
99.7385
20
-68.416
11
99.6231
21
-68.3956
0
LINE
8
BLACK
6
CONTINUOUS
10
99.6231
20
-68.3956
11
99.5216
21
-68.337
0
LINE
8
BLACK
6
CONTINUOUS
10
99.5216
20
-68.337
11
99.4462
21
-68.2472
0
LINE
8
BLACK
6
CONTINUOUS
10
99.4462
20
-68.2472
11
99.401
21
-68.0785
0
LINE
8
BLACK
6
CONTINUOUS
10
99.401
20
-68.0785
11
99.401
21
-67.3035
0
LINE
8
BLACK
6
CONTINUOUS
10
99.401
20
-67.3035
11
99.4214
21
-67.1881
0
LINE
8
BLACK
6
CONTINUOUS
10
99.4214
20
-67.1881
11
99.48
21
-67.0866
0
LINE
8
BLACK
6
CONTINUOUS
10
99.48
20
-67.0866
11
99.5697
21
-67.0112
0
LINE
8
BLACK
6
CONTINUOUS
10
99.5697
20
-67.0112
11
99.7385
21
-66.966
0
LINE
8
BLACK
6
CONTINUOUS
10
99.7385
20
-66.966
11
100.413
21
-66.966
0
LINE
8
BLACK
6
CONTINUOUS
10
100.413
20
-66.966
11
100.529
21
-66.9864
0
LINE
8
BLACK
6
CONTINUOUS
10
100.529
20
-65.2364
11
100.63
21
-65.295
0
LINE
8
BLACK
6
CONTINUOUS
10
100.63
20
-65.295
11
100.706
21
-65.3847
0
LINE
8
BLACK
6
CONTINUOUS
10
100.706
20
-65.3847
11
100.751
21
-65.5535
0
LINE
8
BLACK
6
CONTINUOUS
10
100.751
20
-65.5535
11
100.751
21
-66.3285
0
LINE
8
BLACK
6
CONTINUOUS
10
100.751
20
-66.3285
11
100.731
21
-66.4439
0
LINE
8
BLACK
6
CONTINUOUS
10
100.731
20
-66.4439
11
100.672
21
-66.5454
0
LINE
8
BLACK
6
CONTINUOUS
10
100.672
20
-66.5454
11
100.582
21
-66.6208
0
LINE
8
BLACK
6
CONTINUOUS
10
100.582
20
-66.6208
11
100.413
21
-66.666
0
LINE
8
BLACK
6
CONTINUOUS
10
100.413
20
-66.666
11
99.7385
21
-66.666
0
LINE
8
BLACK
6
CONTINUOUS
10
99.7385
20
-66.666
11
99.6231
21
-66.6456
0
LINE
8
BLACK
6
CONTINUOUS
10
99.6231
20
-66.6456
11
99.5216
21
-66.587
0
LINE
8
BLACK
6
CONTINUOUS
10
99.5216
20
-66.587
11
99.4462
21
-66.4972
0
LINE
8
BLACK
6
CONTINUOUS
10
99.4462
20
-66.4972
11
99.401
21
-66.3285
0
LINE
8
BLACK
6
CONTINUOUS
10
99.401
20
-66.3285
11
99.401
21
-65.5535
0
LINE
8
BLACK
6
CONTINUOUS
10
99.401
20
-65.5535
11
99.4214
21
-65.4381
0
LINE
8
BLACK
6
CONTINUOUS
10
99.4214
20
-65.4381
11
99.48
21
-65.3366
0
LINE
8
BLACK
6
CONTINUOUS
10
99.48
20
-65.3366
11
99.5697
21
-65.2612
0
LINE
8
BLACK
6
CONTINUOUS
10
99.5697
20
-65.2612
11
99.7385
21
-65.216
0
LINE
8
BLACK
6
CONTINUOUS
10
99.7385
20
-65.216
11
100.413
21
-65.216
0
LINE
8
BLACK
6
CONTINUOUS
10
100.413
20
-65.216
11
100.529
21
-65.2364
0
LINE
8
BLACK
6
CONTINUOUS
10
104.593
20
-65.2364
11
104.694
21
-65.295
0
LINE
8
BLACK
6
CONTINUOUS
10
104.694
20
-65.295
11
104.77
21
-65.3847
0
LINE
8
BLACK
6
CONTINUOUS
10
104.77
20
-65.3847
11
104.815
21
-65.5535
0
LINE
8
BLACK
6
CONTINUOUS
10
104.815
20
-65.5535
11
104.815
21
-66.3285
0
LINE
8
BLACK
6
CONTINUOUS
10
104.815
20
-66.3285
11
104.795
21
-66.4439
0
LINE
8
BLACK
6
CONTINUOUS
10
104.795
20
-66.4439
11
104.736
21
-66.5454
0
LINE
8
BLACK
6
CONTINUOUS
10
104.736
20
-66.5454
11
104.646
21
-66.6208
0
LINE
8
BLACK
6
CONTINUOUS
10
104.646
20
-66.6208
11
104.477
21
-66.666
0
LINE
8
BLACK
6
CONTINUOUS
10
104.477
20
-66.666
11
103.802
21
-66.666
0
LINE
8
BLACK
6
CONTINUOUS
10
103.802
20
-66.666
11
103.687
21
-66.6456
0
LINE
8
BLACK
6
CONTINUOUS
10
103.687
20
-66.6456
11
103.586
21
-66.587
0
LINE
8
BLACK
6
CONTINUOUS
10
103.586
20
-66.587
11
103.51
21
-66.4972
0
LINE
8
BLACK
6
CONTINUOUS
10
103.51
20
-66.4972
11
103.465
21
-66.3285
0
LINE
8
BLACK
6
CONTINUOUS
10
103.465
20
-66.3285
11
103.465
21
-65.5535
0
LINE
8
BLACK
6
CONTINUOUS
10
103.465
20
-65.5535
11
103.485
21
-65.4381
0
LINE
8
BLACK
6
CONTINUOUS
10
103.485
20
-65.4381
11
103.544
21
-65.3366
0
LINE
8
BLACK
6
CONTINUOUS
10
103.544
20
-65.3366
11
103.634
21
-65.2612
0
LINE
8
BLACK
6
CONTINUOUS
10
103.634
20
-65.2612
11
103.802
21
-65.216
0
LINE
8
BLACK
6
CONTINUOUS
10
103.802
20
-65.216
11
104.477
21
-65.216
0
LINE
8
BLACK
6
CONTINUOUS
10
104.477
20
-65.216
11
104.593
21
-65.2364
0
LINE
8
BLACK
6
CONTINUOUS
10
108.657
20
-65.2364
11
108.758
21
-65.295
0
LINE
8
BLACK
6
CONTINUOUS
10
108.758
20
-65.295
11
108.834
21
-65.3847
0
LINE
8
BLACK
6
CONTINUOUS
10
108.834
20
-65.3847
11
108.879
21
-65.5535
0
LINE
8
BLACK
6
CONTINUOUS
10
108.879
20
-65.5535
11
108.879
21
-66.3285
0
LINE
8
BLACK
6
CONTINUOUS
10
108.879
20
-66.3285
11
108.859
21
-66.4439
0
LINE
8
BLACK
6
CONTINUOUS
10
108.859
20
-66.4439
11
108.8
21
-66.5454
0
LINE
8
BLACK
6
CONTINUOUS
10
108.8
20
-66.5454
11
108.71
21
-66.6208
0
LINE
8
BLACK
6
CONTINUOUS
10
108.71
20
-66.6208
11
108.541
21
-66.666
0
LINE
8
BLACK
6
CONTINUOUS
10
108.541
20
-66.666
11
107.867
21
-66.666
0
LINE
8
BLACK
6
CONTINUOUS
10
107.867
20
-66.666
11
107.751
21
-66.6456
0
LINE
8
BLACK
6
CONTINUOUS
10
107.751
20
-66.6456
11
107.65
21
-66.587
0
LINE
8
BLACK
6
CONTINUOUS
10
107.65
20
-66.587
11
107.574
21
-66.4972
0
LINE
8
BLACK
6
CONTINUOUS
10
107.574
20
-66.4972
11
107.529
21
-66.3285
0
LINE
8
BLACK
6
CONTINUOUS
10
107.529
20
-66.3285
11
107.529
21
-65.5535
0
LINE
8
BLACK
6
CONTINUOUS
10
107.529
20
-65.5535
11
107.549
21
-65.4381
0
LINE
8
BLACK
6
CONTINUOUS
10
107.549
20
-65.4381
11
107.608
21
-65.3366
0
LINE
8
BLACK
6
CONTINUOUS
10
107.608
20
-65.3366
11
107.698
21
-65.2612
0
LINE
8
BLACK
6
CONTINUOUS
10
107.698
20
-65.2612
11
107.867
21
-65.216
0
LINE
8
BLACK
6
CONTINUOUS
10
107.867
20
-65.216
11
108.541
21
-65.216
0
LINE
8
BLACK
6
CONTINUOUS
10
108.541
20
-65.216
11
108.657
21
-65.2364
0
LINE
8
BLACK
6
CONTINUOUS
10
102.561
20
-65.2364
11
102.662
21
-65.295
0
LINE
8
BLACK
6
CONTINUOUS
10
102.662
20
-65.295
11
102.738
21
-65.3847
0
LINE
8
BLACK
6
CONTINUOUS
10
102.738
20
-65.3847
11
102.783
21
-65.5535
0
LINE
8
BLACK
6
CONTINUOUS
10
102.783
20
-65.5535
11
102.783
21
-66.3285
0
LINE
8
BLACK
6
CONTINUOUS
10
102.783
20
-66.3285
11
102.763
21
-66.4439
0
LINE
8
BLACK
6
CONTINUOUS
10
102.763
20
-66.4439
11
102.704
21
-66.5454
0
LINE
8
BLACK
6
CONTINUOUS
10
102.704
20
-66.5454
11
102.614
21
-66.6208
0
LINE
8
BLACK
6
CONTINUOUS
10
102.614
20
-66.6208
11
102.445
21
-66.666
0
LINE
8
BLACK
6
CONTINUOUS
10
102.445
20
-66.666
11
101.77
21
-66.666
0
LINE
8
BLACK
6
CONTINUOUS
10
101.77
20
-66.666
11
101.655
21
-66.6456
0
LINE
8
BLACK
6
CONTINUOUS
10
101.655
20
-66.6456
11
101.554
21
-66.587
0
LINE
8
BLACK
6
CONTINUOUS
10
101.554
20
-66.587
11
101.478
21
-66.4972
0
LINE
8
BLACK
6
CONTINUOUS
10
101.478
20
-66.4972
11
101.433
21
-66.3285
0
LINE
8
BLACK
6
CONTINUOUS
10
101.433
20
-66.3285
11
101.433
21
-65.5535
0
LINE
8
BLACK
6
CONTINUOUS
10
101.433
20
-65.5535
11
101.453
21
-65.4381
0
LINE
8
BLACK
6
CONTINUOUS
10
101.453
20
-65.4381
11
101.512
21
-65.3366
0
LINE
8
BLACK
6
CONTINUOUS
10
101.512
20
-65.3366
11
101.602
21
-65.2612
0
LINE
8
BLACK
6
CONTINUOUS
10
101.602
20
-65.2612
11
101.77
21
-65.216
0
LINE
8
BLACK
6
CONTINUOUS
10
101.77
20
-65.216
11
102.445
21
-65.216
0
LINE
8
BLACK
6
CONTINUOUS
10
102.445
20
-65.216
11
102.561
21
-65.2364
0
LINE
8
BLACK
6
CONTINUOUS
10
106.625
20
-65.2364
11
106.726
21
-65.295
0
LINE
8
BLACK
6
CONTINUOUS
10
106.726
20
-65.295
11
106.802
21
-65.3847
0
LINE
8
BLACK
6
CONTINUOUS
10
106.802
20
-65.3847
11
106.847
21
-65.5535
0
LINE
8
BLACK
6
CONTINUOUS
10
106.847
20
-65.5535
11
106.847
21
-66.3285
0
LINE
8
BLACK
6
CONTINUOUS
10
106.847
20
-66.3285
11
106.827
21
-66.4439
0
LINE
8
BLACK
6
CONTINUOUS
10
106.827
20
-66.4439
11
106.768
21
-66.5454
0
LINE
8
BLACK
6
CONTINUOUS
10
106.768
20
-66.5454
11
106.678
21
-66.6208
0
LINE
8
BLACK
6
CONTINUOUS
10
106.678
20
-66.6208
11
106.509
21
-66.666
0
LINE
8
BLACK
6
CONTINUOUS
10
106.509
20
-66.666
11
105.834
21
-66.666
0
LINE
8
BLACK
6
CONTINUOUS
10
105.834
20
-66.666
11
105.719
21
-66.6456
0
LINE
8
BLACK
6
CONTINUOUS
10
105.719
20
-66.6456
11
105.618
21
-66.587
0
LINE
8
BLACK
6
CONTINUOUS
10
105.618
20
-66.587
11
105.542
21
-66.4972
0
LINE
8
BLACK
6
CONTINUOUS
10
105.542
20
-66.4972
11
105.497
21
-66.3285
0
LINE
8
BLACK
6
CONTINUOUS
10
105.497
20
-66.3285
11
105.497
21
-65.5535
0
LINE
8
BLACK
6
CONTINUOUS
10
105.497
20
-65.5535
11
105.517
21
-65.4381
0
LINE
8
BLACK
6
CONTINUOUS
10
105.517
20
-65.4381
11
105.576
21
-65.3366
0
LINE
8
BLACK
6
CONTINUOUS
10
105.576
20
-65.3366
11
105.666
21
-65.2612
0
LINE
8
BLACK
6
CONTINUOUS
10
105.666
20
-65.2612
11
105.834
21
-65.216
0
LINE
8
BLACK
6
CONTINUOUS
10
105.834
20
-65.216
11
106.509
21
-65.216
0
LINE
8
BLACK
6
CONTINUOUS
10
106.509
20
-65.216
11
106.625
21
-65.2364
0
LINE
8
BLACK
6
CONTINUOUS
10
110.806
20
-42.8769
11
111.642
21
-43.3601
0
LINE
8
BLACK
6
CONTINUOUS
10
111.642
20
-43.3601
11
112.264
21
-44.1003
0
LINE
8
BLACK
6
CONTINUOUS
10
112.264
20
-44.1003
11
112.594
21
-45.0083
0
LINE
8
BLACK
6
CONTINUOUS
10
112.594
20
-45.0083
11
112.594
21
-45.9745
0
LINE
8
BLACK
6
CONTINUOUS
10
112.594
20
-45.9745
11
112.264
21
-46.8825
0
LINE
8
BLACK
6
CONTINUOUS
10
112.264
20
-46.8825
11
111.642
21
-47.6227
0
LINE
8
BLACK
6
CONTINUOUS
10
111.642
20
-47.6227
11
110.806
21
-48.1059
0
LINE
8
BLACK
6
CONTINUOUS
10
110.806
20
-48.1059
11
109.854
21
-48.2737
0
LINE
8
BLACK
6
CONTINUOUS
10
109.854
20
-48.2737
11
108.902
21
-48.1059
0
LINE
8
BLACK
6
CONTINUOUS
10
108.902
20
-48.1059
11
108.066
21
-47.6227
0
LINE
8
BLACK
6
CONTINUOUS
10
108.066
20
-47.6227
11
107.444
21
-46.8825
0
LINE
8
BLACK
6
CONTINUOUS
10
107.444
20
-46.8825
11
107.114
21
-45.9745
0
LINE
8
BLACK
6
CONTINUOUS
10
107.114
20
-45.9745
11
107.114
21
-45.0083
0
LINE
8
BLACK
6
CONTINUOUS
10
107.114
20
-45.0083
11
107.444
21
-44.1003
0
LINE
8
BLACK
6
CONTINUOUS
10
107.444
20
-44.1003
11
108.066
21
-43.3601
0
LINE
8
BLACK
6
CONTINUOUS
10
108.066
20
-43.3601
11
108.902
21
-42.8769
0
LINE
8
BLACK
6
CONTINUOUS
10
108.902
20
-42.8769
11
109.854
21
-42.7091
0
LINE
8
BLACK
6
CONTINUOUS
10
109.854
20
-42.7091
11
110.806
21
-42.8769
0
LINE
8
BLACK
6
CONTINUOUS
10
149.16
20
-42.8769
11
149.996
21
-43.3601
0
LINE
8
BLACK
6
CONTINUOUS
10
149.996
20
-43.3601
11
150.618
21
-44.1003
0
LINE
8
BLACK
6
CONTINUOUS
10
150.618
20
-44.1003
11
150.948
21
-45.0083
0
LINE
8
BLACK
6
CONTINUOUS
10
150.948
20
-45.0083
11
150.948
21
-45.9745
0
LINE
8
BLACK
6
CONTINUOUS
10
150.948
20
-45.9745
11
150.618
21
-46.8825
0
LINE
8
BLACK
6
CONTINUOUS
10
150.618
20
-46.8825
11
149.996
21
-47.6227
0
LINE
8
BLACK
6
CONTINUOUS
10
149.996
20
-47.6227
11
149.16
21
-48.1059
0
LINE
8
BLACK
6
CONTINUOUS
10
149.16
20
-48.1059
11
148.208
21
-48.2737
0
LINE
8
BLACK
6
CONTINUOUS
10
148.208
20
-48.2737
11
147.256
21
-48.1059
0
LINE
8
BLACK
6
CONTINUOUS
10
147.256
20
-48.1059
11
146.42
21
-47.6227
0
LINE
8
BLACK
6
CONTINUOUS
10
146.42
20
-47.6227
11
145.798
21
-46.8825
0
LINE
8
BLACK
6
CONTINUOUS
10
145.798
20
-46.8825
11
145.468
21
-45.9745
0
LINE
8
BLACK
6
CONTINUOUS
10
145.468
20
-45.9745
11
145.468
21
-45.0083
0
LINE
8
BLACK
6
CONTINUOUS
10
145.468
20
-45.0083
11
145.798
21
-44.1003
0
LINE
8
BLACK
6
CONTINUOUS
10
145.798
20
-44.1003
11
146.42
21
-43.3601
0
LINE
8
BLACK
6
CONTINUOUS
10
146.42
20
-43.3601
11
147.256
21
-42.8769
0
LINE
8
BLACK
6
CONTINUOUS
10
147.256
20
-42.8769
11
148.208
21
-42.7091
0
LINE
8
BLACK
6
CONTINUOUS
10
148.208
20
-42.7091
11
149.16
21
-42.8769
0
LINE
8
BLACK
6
CONTINUOUS
10
157.161
20
-42.8769
11
157.997
21
-43.3601
0
LINE
8
BLACK
6
CONTINUOUS
10
157.997
20
-43.3601
11
158.619
21
-44.1003
0
LINE
8
BLACK
6
CONTINUOUS
10
158.619
20
-44.1003
11
158.949
21
-45.0083
0
LINE
8
BLACK
6
CONTINUOUS
10
158.949
20
-45.0083
11
158.949
21
-45.9745
0
LINE
8
BLACK
6
CONTINUOUS
10
158.949
20
-45.9745
11
158.619
21
-46.8825
0
LINE
8
BLACK
6
CONTINUOUS
10
158.619
20
-46.8825
11
157.997
21
-47.6227
0
LINE
8
BLACK
6
CONTINUOUS
10
157.997
20
-47.6227
11
157.161
21
-48.1059
0
LINE
8
BLACK
6
CONTINUOUS
10
157.161
20
-48.1059
11
156.209
21
-48.2737
0
LINE
8
BLACK
6
CONTINUOUS
10
156.209
20
-48.2737
11
155.257
21
-48.1059
0
LINE
8
BLACK
6
CONTINUOUS
10
155.257
20
-48.1059
11
154.421
21
-47.6227
0
LINE
8
BLACK
6
CONTINUOUS
10
154.421
20
-47.6227
11
153.799
21
-46.8825
0
LINE
8
BLACK
6
CONTINUOUS
10
153.799
20
-46.8825
11
153.469
21
-45.9745
0
LINE
8
BLACK
6
CONTINUOUS
10
153.469
20
-45.9745
11
153.469
21
-45.0083
0
LINE
8
BLACK
6
CONTINUOUS
10
153.469
20
-45.0083
11
153.799
21
-44.1003
0
LINE
8
BLACK
6
CONTINUOUS
10
153.799
20
-44.1003
11
154.421
21
-43.3601
0
LINE
8
BLACK
6
CONTINUOUS
10
154.421
20
-43.3601
11
155.257
21
-42.8769
0
LINE
8
BLACK
6
CONTINUOUS
10
155.257
20
-42.8769
11
156.209
21
-42.7091
0
LINE
8
BLACK
6
CONTINUOUS
10
156.209
20
-42.7091
11
157.161
21
-42.8769
0
LINE
8
BLACK
6
CONTINUOUS
10
133.031
20
-42.8769
11
133.867
21
-43.3601
0
LINE
8
BLACK
6
CONTINUOUS
10
133.867
20
-43.3601
11
134.489
21
-44.1003
0
LINE
8
BLACK
6
CONTINUOUS
10
134.489
20
-44.1003
11
134.819
21
-45.0083
0
LINE
8
BLACK
6
CONTINUOUS
10
134.819
20
-45.0083
11
134.819
21
-45.9745
0
LINE
8
BLACK
6
CONTINUOUS
10
134.819
20
-45.9745
11
134.489
21
-46.8825
0
LINE
8
BLACK
6
CONTINUOUS
10
134.489
20
-46.8825
11
133.867
21
-47.6227
0
LINE
8
BLACK
6
CONTINUOUS
10
133.867
20
-47.6227
11
133.031
21
-48.1059
0
LINE
8
BLACK
6
CONTINUOUS
10
133.031
20
-48.1059
11
132.079
21
-48.2737
0
LINE
8
BLACK
6
CONTINUOUS
10
132.079
20
-48.2737
11
131.127
21
-48.1059
0
LINE
8
BLACK
6
CONTINUOUS
10
131.127
20
-48.1059
11
130.291
21
-47.6227
0
LINE
8
BLACK
6
CONTINUOUS
10
130.291
20
-47.6227
11
129.669
21
-46.8825
0
LINE
8
BLACK
6
CONTINUOUS
10
129.669
20
-46.8825
11
129.339
21
-45.9745
0
LINE
8
BLACK
6
CONTINUOUS
10
129.339
20
-45.9745
11
129.339
21
-45.0083
0
LINE
8
BLACK
6
CONTINUOUS
10
129.339
20
-45.0083
11
129.669
21
-44.1003
0
LINE
8
BLACK
6
CONTINUOUS
10
129.669
20
-44.1003
11
130.291
21
-43.3601
0
LINE
8
BLACK
6
CONTINUOUS
10
130.291
20
-43.3601
11
131.127
21
-42.8769
0
LINE
8
BLACK
6
CONTINUOUS
10
131.127
20
-42.8769
11
132.079
21
-42.7091
0
LINE
8
BLACK
6
CONTINUOUS
10
132.079
20
-42.7091
11
133.031
21
-42.8769
0
LINE
8
BLACK
6
CONTINUOUS
10
125.03
20
-42.8769
11
125.866
21
-43.3601
0
LINE
8
BLACK
6
CONTINUOUS
10
125.866
20
-43.3601
11
126.488
21
-44.1003
0
LINE
8
BLACK
6
CONTINUOUS
10
126.488
20
-44.1003
11
126.818
21
-45.0083
0
LINE
8
BLACK
6
CONTINUOUS
10
126.818
20
-45.0083
11
126.818
21
-45.9745
0
LINE
8
BLACK
6
CONTINUOUS
10
126.818
20
-45.9745
11
126.488
21
-46.8825
0
LINE
8
BLACK
6
CONTINUOUS
10
126.488
20
-46.8825
11
125.866
21
-47.6227
0
LINE
8
BLACK
6
CONTINUOUS
10
125.866
20
-47.6227
11
125.03
21
-48.1059
0
LINE
8
BLACK
6
CONTINUOUS
10
125.03
20
-48.1059
11
124.078
21
-48.2737
0
LINE
8
BLACK
6
CONTINUOUS
10
124.078
20
-48.2737
11
123.126
21
-48.1059
0
LINE
8
BLACK
6
CONTINUOUS
10
123.126
20
-48.1059
11
122.29
21
-47.6227
0
LINE
8
BLACK
6
CONTINUOUS
10
122.29
20
-47.6227
11
121.668
21
-46.8825
0
LINE
8
BLACK
6
CONTINUOUS
10
121.668
20
-46.8825
11
121.338
21
-45.9745
0
LINE
8
BLACK
6
CONTINUOUS
10
121.338
20
-45.9745
11
121.338
21
-45.0083
0
LINE
8
BLACK
6
CONTINUOUS
10
121.338
20
-45.0083
11
121.668
21
-44.1003
0
LINE
8
BLACK
6
CONTINUOUS
10
121.668
20
-44.1003
11
122.29
21
-43.3601
0
LINE
8
BLACK
6
CONTINUOUS
10
122.29
20
-43.3601
11
123.126
21
-42.8769
0
LINE
8
BLACK
6
CONTINUOUS
10
123.126
20
-42.8769
11
124.078
21
-42.7091
0
LINE
8
BLACK
6
CONTINUOUS
10
124.078
20
-42.7091
11
125.03
21
-42.8769
0
LINE
8
BLACK
6
CONTINUOUS
10
70.4196
20
-42.8769
11
71.2564
21
-43.3601
0
LINE
8
BLACK
6
CONTINUOUS
10
71.2564
20
-43.3601
11
71.8775
21
-44.1003
0
LINE
8
BLACK
6
CONTINUOUS
10
71.8775
20
-44.1003
11
72.208
21
-45.0083
0
LINE
8
BLACK
6
CONTINUOUS
10
72.208
20
-45.0083
11
72.208
21
-45.9745
0
LINE
8
BLACK
6
CONTINUOUS
10
72.208
20
-45.9745
11
71.8775
21
-46.8825
0
LINE
8
BLACK
6
CONTINUOUS
10
71.8775
20
-46.8825
11
71.2564
21
-47.6227
0
LINE
8
BLACK
6
CONTINUOUS
10
71.2564
20
-47.6227
11
70.4196
21
-48.1059
0
LINE
8
BLACK
6
CONTINUOUS
10
70.4196
20
-48.1059
11
69.468
21
-48.2737
0
LINE
8
BLACK
6
CONTINUOUS
10
69.468
20
-48.2737
11
68.5164
21
-48.1059
0
LINE
8
BLACK
6
CONTINUOUS
10
68.5164
20
-48.1059
11
67.6796
21
-47.6227
0
LINE
8
BLACK
6
CONTINUOUS
10
67.6796
20
-47.6227
11
67.0585
21
-46.8825
0
LINE
8
BLACK
6
CONTINUOUS
10
67.0585
20
-46.8825
11
66.728
21
-45.9745
0
LINE
8
BLACK
6
CONTINUOUS
10
66.728
20
-45.9745
11
66.728
21
-45.0083
0
LINE
8
BLACK
6
CONTINUOUS
10
66.728
20
-45.0083
11
67.0585
21
-44.1003
0
LINE
8
BLACK
6
CONTINUOUS
10
67.0585
20
-44.1003
11
67.6796
21
-43.3601
0
LINE
8
BLACK
6
CONTINUOUS
10
67.6796
20
-43.3601
11
68.5164
21
-42.8769
0
LINE
8
BLACK
6
CONTINUOUS
10
68.5164
20
-42.8769
11
69.468
21
-42.7091
0
LINE
8
BLACK
6
CONTINUOUS
10
69.468
20
-42.7091
11
70.4196
21
-42.8769
0
LINE
8
BLACK
6
CONTINUOUS
10
78.4206
20
-42.8769
11
79.2574
21
-43.3601
0
LINE
8
BLACK
6
CONTINUOUS
10
79.2574
20
-43.3601
11
79.8785
21
-44.1003
0
LINE
8
BLACK
6
CONTINUOUS
10
79.8785
20
-44.1003
11
80.209
21
-45.0083
0
LINE
8
BLACK
6
CONTINUOUS
10
80.209
20
-45.0083
11
80.209
21
-45.9745
0
LINE
8
BLACK
6
CONTINUOUS
10
80.209
20
-45.9745
11
79.8785
21
-46.8825
0
LINE
8
BLACK
6
CONTINUOUS
10
79.8785
20
-46.8825
11
79.2574
21
-47.6227
0
LINE
8
BLACK
6
CONTINUOUS
10
79.2574
20
-47.6227
11
78.4206
21
-48.1059
0
LINE
8
BLACK
6
CONTINUOUS
10
78.4206
20
-48.1059
11
77.469
21
-48.2737
0
LINE
8
BLACK
6
CONTINUOUS
10
77.469
20
-48.2737
11
76.5174
21
-48.1059
0
LINE
8
BLACK
6
CONTINUOUS
10
76.5174
20
-48.1059
11
75.6806
21
-47.6227
0
LINE
8
BLACK
6
CONTINUOUS
10
75.6806
20
-47.6227
11
75.0595
21
-46.8825
0
LINE
8
BLACK
6
CONTINUOUS
10
75.0595
20
-46.8825
11
74.729
21
-45.9745
0
LINE
8
BLACK
6
CONTINUOUS
10
74.729
20
-45.9745
11
74.729
21
-45.0083
0
LINE
8
BLACK
6
CONTINUOUS
10
74.729
20
-45.0083
11
75.0595
21
-44.1003
0
LINE
8
BLACK
6
CONTINUOUS
10
75.0595
20
-44.1003
11
75.6806
21
-43.3601
0
LINE
8
BLACK
6
CONTINUOUS
10
75.6806
20
-43.3601
11
76.5174
21
-42.8769
0
LINE
8
BLACK
6
CONTINUOUS
10
76.5174
20
-42.8769
11
77.469
21
-42.7091
0
LINE
8
BLACK
6
CONTINUOUS
10
77.469
20
-42.7091
11
78.4206
21
-42.8769
0
LINE
8
BLACK
6
CONTINUOUS
10
55.5616
20
-42.8769
11
56.3984
21
-43.3601
0
LINE
8
BLACK
6
CONTINUOUS
10
56.3984
20
-43.3601
11
57.0195
21
-44.1003
0
LINE
8
BLACK
6
CONTINUOUS
10
57.0195
20
-44.1003
11
57.35
21
-45.0083
0
LINE
8
BLACK
6
CONTINUOUS
10
57.35
20
-45.0083
11
57.35
21
-45.9745
0
LINE
8
BLACK
6
CONTINUOUS
10
57.35
20
-45.9745
11
57.0195
21
-46.8825
0
LINE
8
BLACK
6
CONTINUOUS
10
57.0195
20
-46.8825
11
56.3984
21
-47.6227
0
LINE
8
BLACK
6
CONTINUOUS
10
56.3984
20
-47.6227
11
55.5616
21
-48.1059
0
LINE
8
BLACK
6
CONTINUOUS
10
55.5616
20
-48.1059
11
54.61
21
-48.2737
0
LINE
8
BLACK
6
CONTINUOUS
10
54.61
20
-48.2737
11
53.6584
21
-48.1059
0
LINE
8
BLACK
6
CONTINUOUS
10
53.6584
20
-48.1059
11
52.8216
21
-47.6227
0
LINE
8
BLACK
6
CONTINUOUS
10
52.8216
20
-47.6227
11
52.2005
21
-46.8825
0
LINE
8
BLACK
6
CONTINUOUS
10
52.2005
20
-46.8825
11
51.87
21
-45.9745
0
LINE
8
BLACK
6
CONTINUOUS
10
51.87
20
-45.9745
11
51.87
21
-45.0083
0
LINE
8
BLACK
6
CONTINUOUS
10
51.87
20
-45.0083
11
52.2005
21
-44.1003
0
LINE
8
BLACK
6
CONTINUOUS
10
52.2005
20
-44.1003
11
52.8216
21
-43.3601
0
LINE
8
BLACK
6
CONTINUOUS
10
52.8216
20
-43.3601
11
53.6584
21
-42.8769
0
LINE
8
BLACK
6
CONTINUOUS
10
53.6584
20
-42.8769
11
54.61
21
-42.7091
0
LINE
8
BLACK
6
CONTINUOUS
10
54.61
20
-42.7091
11
55.5616
21
-42.8769
0
LINE
8
BLACK
6
CONTINUOUS
10
47.5606
20
-42.8769
11
48.3974
21
-43.3601
0
LINE
8
BLACK
6
CONTINUOUS
10
48.3974
20
-43.3601
11
49.0185
21
-44.1003
0
LINE
8
BLACK
6
CONTINUOUS
10
49.0185
20
-44.1003
11
49.349
21
-45.0083
0
LINE
8
BLACK
6
CONTINUOUS
10
49.349
20
-45.0083
11
49.349
21
-45.9745
0
LINE
8
BLACK
6
CONTINUOUS
10
49.349
20
-45.9745
11
49.0185
21
-46.8825
0
LINE
8
BLACK
6
CONTINUOUS
10
49.0185
20
-46.8825
11
48.3974
21
-47.6227
0
LINE
8
BLACK
6
CONTINUOUS
10
48.3974
20
-47.6227
11
47.5606
21
-48.1059
0
LINE
8
BLACK
6
CONTINUOUS
10
47.5606
20
-48.1059
11
46.609
21
-48.2737
0
LINE
8
BLACK
6
CONTINUOUS
10
46.609
20
-48.2737
11
45.6574
21
-48.1059
0
LINE
8
BLACK
6
CONTINUOUS
10
45.6574
20
-48.1059
11
44.8206
21
-47.6227
0
LINE
8
BLACK
6
CONTINUOUS
10
44.8206
20
-47.6227
11
44.1995
21
-46.8825
0
LINE
8
BLACK
6
CONTINUOUS
10
44.1995
20
-46.8825
11
43.869
21
-45.9745
0
LINE
8
BLACK
6
CONTINUOUS
10
43.869
20
-45.9745
11
43.869
21
-45.0083
0
LINE
8
BLACK
6
CONTINUOUS
10
43.869
20
-45.0083
11
44.1995
21
-44.1003
0
LINE
8
BLACK
6
CONTINUOUS
10
44.1995
20
-44.1003
11
44.8206
21
-43.3601
0
LINE
8
BLACK
6
CONTINUOUS
10
44.8206
20
-43.3601
11
45.6574
21
-42.8769
0
LINE
8
BLACK
6
CONTINUOUS
10
45.6574
20
-42.8769
11
46.609
21
-42.7091
0
LINE
8
BLACK
6
CONTINUOUS
10
46.609
20
-42.7091
11
47.5606
21
-42.8769
0
LINE
8
BLACK
6
CONTINUOUS
10
94.8056
20
-42.8769
11
95.6424
21
-43.3601
0
LINE
8
BLACK
6
CONTINUOUS
10
95.6424
20
-43.3601
11
96.2635
21
-44.1003
0
LINE
8
BLACK
6
CONTINUOUS
10
96.2635
20
-44.1003
11
96.594
21
-45.0083
0
LINE
8
BLACK
6
CONTINUOUS
10
96.594
20
-45.0083
11
96.594
21
-45.9745
0
LINE
8
BLACK
6
CONTINUOUS
10
96.594
20
-45.9745
11
96.2635
21
-46.8825
0
LINE
8
BLACK
6
CONTINUOUS
10
96.2635
20
-46.8825
11
95.6424
21
-47.6227
0
LINE
8
BLACK
6
CONTINUOUS
10
95.6424
20
-47.6227
11
94.8056
21
-48.1059
0
LINE
8
BLACK
6
CONTINUOUS
10
94.8056
20
-48.1059
11
93.854
21
-48.2737
0
LINE
8
BLACK
6
CONTINUOUS
10
93.854
20
-48.2737
11
92.9024
21
-48.1059
0
LINE
8
BLACK
6
CONTINUOUS
10
92.9024
20
-48.1059
11
92.0656
21
-47.6227
0
LINE
8
BLACK
6
CONTINUOUS
10
92.0656
20
-47.6227
11
91.4445
21
-46.8825
0
LINE
8
BLACK
6
CONTINUOUS
10
91.4445
20
-46.8825
11
91.114
21
-45.9745
0
LINE
8
BLACK
6
CONTINUOUS
10
91.114
20
-45.9745
11
91.114
21
-45.0083
0
LINE
8
BLACK
6
CONTINUOUS
10
91.114
20
-45.0083
11
91.4445
21
-44.1003
0
LINE
8
BLACK
6
CONTINUOUS
10
91.4445
20
-44.1003
11
92.0656
21
-43.3601
0
LINE
8
BLACK
6
CONTINUOUS
10
92.0656
20
-43.3601
11
92.9024
21
-42.8769
0
LINE
8
BLACK
6
CONTINUOUS
10
92.9024
20
-42.8769
11
93.854
21
-42.7091
0
LINE
8
BLACK
6
CONTINUOUS
10
93.854
20
-42.7091
11
94.8056
21
-42.8769
0
LINE
8
BLACK
6
CONTINUOUS
10
102.805
20
-42.8769
11
103.641
21
-43.3601
0
LINE
8
BLACK
6
CONTINUOUS
10
103.641
20
-43.3601
11
104.263
21
-44.1003
0
LINE
8
BLACK
6
CONTINUOUS
10
104.263
20
-44.1003
11
104.593
21
-45.0083
0
LINE
8
BLACK
6
CONTINUOUS
10
104.593
20
-45.0083
11
104.593
21
-45.9745
0
LINE
8
BLACK
6
CONTINUOUS
10
104.593
20
-45.9745
11
104.263
21
-46.8825
0
LINE
8
BLACK
6
CONTINUOUS
10
104.263
20
-46.8825
11
103.641
21
-47.6227
0
LINE
8
BLACK
6
CONTINUOUS
10
103.641
20
-47.6227
11
102.805
21
-48.1059
0
LINE
8
BLACK
6
CONTINUOUS
10
102.805
20
-48.1059
11
101.853
21
-48.2737
0
LINE
8
BLACK
6
CONTINUOUS
10
101.853
20
-48.2737
11
100.901
21
-48.1059
0
LINE
8
BLACK
6
CONTINUOUS
10
100.901
20
-48.1059
11
100.065
21
-47.6227
0
LINE
8
BLACK
6
CONTINUOUS
10
100.065
20
-47.6227
11
99.4435
21
-46.8825
0
LINE
8
BLACK
6
CONTINUOUS
10
99.4435
20
-46.8825
11
99.113
21
-45.9745
0
LINE
8
BLACK
6
CONTINUOUS
10
99.113
20
-45.9745
11
99.113
21
-45.0083
0
LINE
8
BLACK
6
CONTINUOUS
10
99.113
20
-45.0083
11
99.4435
21
-44.1003
0
LINE
8
BLACK
6
CONTINUOUS
10
99.4435
20
-44.1003
11
100.065
21
-43.3601
0
LINE
8
BLACK
6
CONTINUOUS
10
100.065
20
-43.3601
11
100.901
21
-42.8769
0
LINE
8
BLACK
6
CONTINUOUS
10
100.901
20
-42.8769
11
101.853
21
-42.7091
0
LINE
8
BLACK
6
CONTINUOUS
10
101.853
20
-42.7091
11
102.805
21
-42.8769
  0
ENDSEC
  0
EOF
