  0
SECTION
  2
HEADER
  9
$ANGBASE
  50
0.0
  9
$ANGDIR
  70
  1
  9
$MEASUREMENT
  70
0
  0
ENDSEC
  0
SECTION
  2
TABLES
  0
TABLE
  2
LTYPE
  70
4
  0
LTYPE
  5
40F
  2
CONTINUOUS
  70
0
  3
Solid line
  72
65
  73
0
  40
0.0
  0
LTYPE
  5
410
  2
DASHDOT
 70
0
  3
Dash Dot ____ _ ____ _
 72
65
 73
4
 40
2.0
 49
1.25
 49
-0.25
 49
0.25
 49
-0.25
  0
LTYPE
  5
411
  2
DASHED
 70
0
  3
Dashed __ __ __ __ __
 72
65
 73
2
 40
0.75
 49
0.5
 49
-0.25
  0
LTYPE
  5
43B
  2
DOTTED
 70
0
  3
Dotted .  .  .  .
 72
65
 73
2
 40
0.2
 49
0.0
 49
-0.2
  0
ENDTAB
  0
TABLE
  2
STYLE
  70
4
  0
STYLE
  2
KICAD
  70
0
  40
0
  41
1
  42
1
  50
0
  71
0
  3
isocp.shx
  0
STYLE
  2
KICADB
  70
0
  40
0
  41
1
  42
1
  50
0
  71
0
  3
isocp.shx
  0
STYLE
  2
KICADI
  70
0
  40
0
  41
1
  42
1
  50
15
  71
0
  3
isocp.shx
  0
STYLE
  2
KICADBI
  70
0
  40
0
  41
1
  42
1
  50
15
  71
0
  3
isocp.shx
  0
ENDTAB
  0
TABLE
  2
LAYER
  70
30
  0
LAYER
  2
BLACK
  70
0
  62
7
  6
CONTINUOUS
  0
LAYER
  2
GRAY1
  70
0
  62
251
  6
CONTINUOUS
  0
LAYER
  2
GRAY2
  70
0
  62
8
  6
CONTINUOUS
  0
LAYER
  2
GRAY3
  70
0
  62
9
  6
CONTINUOUS
  0
LAYER
  2
WHITE
  70
0
  62
7
  6
CONTINUOUS
  0
LAYER
  2
LYELLOW
  70
0
  62
51
  6
CONTINUOUS
  0
LAYER
  2
BLUE1
  70
0
  62
178
  6
CONTINUOUS
  0
LAYER
  2
GREEN1
  70
0
  62
98
  6
CONTINUOUS
  0
LAYER
  2
CYAN1
  70
0
  62
138
  6
CONTINUOUS
  0
LAYER
  2
RED1
  70
0
  62
18
  6
CONTINUOUS
  0
LAYER
  2
MAGENTA1
  70
0
  62
228
  6
CONTINUOUS
  0
LAYER
  2
BROWN1
  70
0
  62
58
  6
CONTINUOUS
  0
LAYER
  2
BLUE2
  70
0
  62
5
  6
CONTINUOUS
  0
LAYER
  2
GREEN2
  70
0
  62
3
  6
CONTINUOUS
  0
LAYER
  2
CYAN2
  70
0
  62
4
  6
CONTINUOUS
  0
LAYER
  2
RED2
  70
0
  62
1
  6
CONTINUOUS
  0
LAYER
  2
MAGENTA2
  70
0
  62
6
  6
CONTINUOUS
  0
LAYER
  2
BROWN2
  70
0
  62
54
  6
CONTINUOUS
  0
LAYER
  2
BLUE3
  70
0
  62
171
  6
CONTINUOUS
  0
LAYER
  2
GREEN3
  70
0
  62
91
  6
CONTINUOUS
  0
LAYER
  2
CYAN3
  70
0
  62
131
  6
CONTINUOUS
  0
LAYER
  2
RED3
  70
0
  62
11
  6
CONTINUOUS
  0
LAYER
  2
MAGENTA3
  70
0
  62
221
  6
CONTINUOUS
  0
LAYER
  2
YELLOW3
  70
0
  62
2
  6
CONTINUOUS
  0
LAYER
  2
BLUE4
  70
0
  62
5
  6
CONTINUOUS
  0
LAYER
  2
GREEN4
  70
0
  62
3
  6
CONTINUOUS
  0
LAYER
  2
CYAN4
  70
0
  62
4
  6
CONTINUOUS
  0
LAYER
  2
RED4
  70
0
  62
1
  6
CONTINUOUS
  0
LAYER
  2
MAGENTA4
  70
0
  62
6
  6
CONTINUOUS
  0
LAYER
  2
YELLOW4
  70
0
  62
2
  6
CONTINUOUS
  0
ENDTAB
  0
ENDSEC
  0
SECTION
  2
ENTITIES
0
LINE
8
BLACK
6
CONTINUOUS
10
44.4304
20
-111.313
11
44.4347
21
-111.312
0
LINE
8
BLACK
6
CONTINUOUS
10
44.4347
20
-111.312
11
44.4431
21
-111.315
0
LINE
8
BLACK
6
CONTINUOUS
10
44.4431
20
-111.315
11
44.4518
21
-111.316
0
LINE
8
BLACK
6
CONTINUOUS
10
44.4518
20
-111.316
11
44.4555
21
-111.319
0
LINE
8
BLACK
6
CONTINUOUS
10
44.4555
20
-111.319
11
44.4597
21
-111.32
0
LINE
8
BLACK
6
CONTINUOUS
10
44.4597
20
-111.32
11
44.5549
21
-111.367
0
LINE
8
BLACK
6
CONTINUOUS
10
44.5549
20
-111.367
11
44.5646
21
-111.375
0
LINE
8
BLACK
6
CONTINUOUS
10
44.5646
20
-111.375
11
44.5744
21
-111.381
0
LINE
8
BLACK
6
CONTINUOUS
10
44.5744
20
-111.381
11
44.622
21
-111.429
0
LINE
8
BLACK
6
CONTINUOUS
10
44.622
20
-111.429
11
44.6289
21
-111.439
0
LINE
8
BLACK
6
CONTINUOUS
10
44.6289
20
-111.439
11
44.6361
21
-111.449
0
LINE
8
BLACK
6
CONTINUOUS
10
44.6361
20
-111.449
11
44.6837
21
-111.544
0
LINE
8
BLACK
6
CONTINUOUS
10
44.6837
20
-111.544
11
44.6849
21
-111.548
0
LINE
8
BLACK
6
CONTINUOUS
10
44.6849
20
-111.548
11
44.6871
21
-111.552
0
LINE
8
BLACK
6
CONTINUOUS
10
44.6871
20
-111.552
11
44.6886
21
-111.56
0
LINE
8
BLACK
6
CONTINUOUS
10
44.6886
20
-111.56
11
44.6911
21
-111.569
0
LINE
8
BLACK
6
CONTINUOUS
10
44.6911
20
-111.569
11
44.6909
21
-111.573
0
LINE
8
BLACK
6
CONTINUOUS
10
44.6909
20
-111.573
11
44.6916
21
-111.577
0
LINE
8
BLACK
6
CONTINUOUS
10
44.6916
20
-111.577
11
44.6916
21
-111.958
0
LINE
8
BLACK
6
CONTINUOUS
10
44.6916
20
-111.958
11
44.6905
21
-111.965
0
LINE
8
BLACK
6
CONTINUOUS
10
44.6905
20
-111.965
11
44.6905
21
-111.971
0
LINE
8
BLACK
6
CONTINUOUS
10
44.6905
20
-111.971
11
44.6882
21
-111.977
0
LINE
8
BLACK
6
CONTINUOUS
10
44.6882
20
-111.977
11
44.6871
21
-111.984
0
LINE
8
BLACK
6
CONTINUOUS
10
44.6871
20
-111.984
11
44.6838
21
-111.99
0
LINE
8
BLACK
6
CONTINUOUS
10
44.6838
20
-111.99
11
44.6816
21
-111.996
0
LINE
8
BLACK
6
CONTINUOUS
10
44.6816
20
-111.996
11
44.6774
21
-112.001
0
LINE
8
BLACK
6
CONTINUOUS
10
44.6774
20
-112.001
11
44.6741
21
-112.006
0
LINE
8
BLACK
6
CONTINUOUS
10
44.6741
20
-112.006
11
44.669
21
-112.011
0
LINE
8
BLACK
6
CONTINUOUS
10
44.669
20
-112.011
11
44.6648
21
-112.016
0
LINE
8
BLACK
6
CONTINUOUS
10
44.6648
20
-112.016
11
44.6591
21
-112.019
0
LINE
8
BLACK
6
CONTINUOUS
10
44.6591
20
-112.019
11
44.6541
21
-112.023
0
LINE
8
BLACK
6
CONTINUOUS
10
44.6541
20
-112.023
11
44.648
21
-112.025
0
LINE
8
BLACK
6
CONTINUOUS
10
44.648
20
-112.025
11
44.6423
21
-112.029
0
LINE
8
BLACK
6
CONTINUOUS
10
44.6423
20
-112.029
11
44.6358
21
-112.03
0
LINE
8
BLACK
6
CONTINUOUS
10
44.6358
20
-112.03
11
44.6296
21
-112.032
0
LINE
8
BLACK
6
CONTINUOUS
10
44.6296
20
-112.032
11
44.6231
21
-112.032
0
LINE
8
BLACK
6
CONTINUOUS
10
44.6231
20
-112.032
11
44.6166
21
-112.033
0
LINE
8
BLACK
6
CONTINUOUS
10
44.6166
20
-112.033
11
43.6166
21
-112.033
0
LINE
8
BLACK
6
CONTINUOUS
10
43.6166
20
-112.033
11
43.591
21
-112.029
0
LINE
8
BLACK
6
CONTINUOUS
10
43.591
20
-112.029
11
43.5684
21
-112.016
0
LINE
8
BLACK
6
CONTINUOUS
10
43.5684
20
-112.016
11
43.5517
21
-111.996
0
LINE
8
BLACK
6
CONTINUOUS
10
43.5517
20
-111.996
11
43.5428
21
-111.971
0
LINE
8
BLACK
6
CONTINUOUS
10
43.5428
20
-111.971
11
43.5428
21
-111.945
0
LINE
8
BLACK
6
CONTINUOUS
10
43.5428
20
-111.945
11
43.5517
21
-111.921
0
LINE
8
BLACK
6
CONTINUOUS
10
43.5517
20
-111.921
11
43.5684
21
-111.901
0
LINE
8
BLACK
6
CONTINUOUS
10
43.5684
20
-111.901
11
43.591
21
-111.888
0
LINE
8
BLACK
6
CONTINUOUS
10
43.591
20
-111.888
11
43.6166
21
-111.883
0
LINE
8
BLACK
6
CONTINUOUS
10
43.6166
20
-111.883
11
44.0178
21
-111.883
0
LINE
8
BLACK
6
CONTINUOUS
10
44.0178
20
-111.883
11
44.0178
21
-111.759
0
LINE
8
BLACK
6
CONTINUOUS
10
44.0178
20
-111.759
11
43.5736
21
-111.448
0
LINE
8
BLACK
6
CONTINUOUS
10
43.5736
20
-111.448
11
43.5552
21
-111.43
0
LINE
8
BLACK
6
CONTINUOUS
10
43.5552
20
-111.43
11
43.5442
21
-111.406
0
LINE
8
BLACK
6
CONTINUOUS
10
43.5442
20
-111.406
11
43.5419
21
-111.38
0
LINE
8
BLACK
6
CONTINUOUS
10
43.5419
20
-111.38
11
43.5486
21
-111.355
0
LINE
8
BLACK
6
CONTINUOUS
10
43.5486
20
-111.355
11
43.5636
21
-111.334
0
LINE
8
BLACK
6
CONTINUOUS
10
43.5636
20
-111.334
11
43.5849
21
-111.319
0
LINE
8
BLACK
6
CONTINUOUS
10
43.5849
20
-111.319
11
43.6101
21
-111.312
0
LINE
8
BLACK
6
CONTINUOUS
10
43.6101
20
-111.312
11
43.636
21
-111.314
0
LINE
8
BLACK
6
CONTINUOUS
10
43.636
20
-111.314
11
43.6596
21
-111.325
0
LINE
8
BLACK
6
CONTINUOUS
10
43.6596
20
-111.325
11
44.018
21
-111.576
0
LINE
8
BLACK
6
CONTINUOUS
10
44.018
20
-111.576
11
44.0186
21
-111.573
0
LINE
8
BLACK
6
CONTINUOUS
10
44.0186
20
-111.573
11
44.0183
21
-111.569
0
LINE
8
BLACK
6
CONTINUOUS
10
44.0183
20
-111.569
11
44.0208
21
-111.56
0
LINE
8
BLACK
6
CONTINUOUS
10
44.0208
20
-111.56
11
44.0223
21
-111.552
0
LINE
8
BLACK
6
CONTINUOUS
10
44.0223
20
-111.552
11
44.0245
21
-111.548
0
LINE
8
BLACK
6
CONTINUOUS
10
44.0245
20
-111.548
11
44.0257
21
-111.544
0
LINE
8
BLACK
6
CONTINUOUS
10
44.0257
20
-111.544
11
44.0733
21
-111.449
0
LINE
8
BLACK
6
CONTINUOUS
10
44.0733
20
-111.449
11
44.0805
21
-111.439
0
LINE
8
BLACK
6
CONTINUOUS
10
44.0805
20
-111.439
11
44.0874
21
-111.429
0
LINE
8
BLACK
6
CONTINUOUS
10
44.0874
20
-111.429
11
44.135
21
-111.381
0
LINE
8
BLACK
6
CONTINUOUS
10
44.135
20
-111.381
11
44.1448
21
-111.375
0
LINE
8
BLACK
6
CONTINUOUS
10
44.1448
20
-111.375
11
44.1545
21
-111.367
0
LINE
8
BLACK
6
CONTINUOUS
10
44.1545
20
-111.367
11
44.2497
21
-111.32
0
LINE
8
BLACK
6
CONTINUOUS
10
44.2497
20
-111.32
11
44.2539
21
-111.319
0
LINE
8
BLACK
6
CONTINUOUS
10
44.2539
20
-111.319
11
44.2576
21
-111.316
0
LINE
8
BLACK
6
CONTINUOUS
10
44.2576
20
-111.316
11
44.2663
21
-111.315
0
LINE
8
BLACK
6
CONTINUOUS
10
44.2663
20
-111.315
11
44.2747
21
-111.312
0
LINE
8
BLACK
6
CONTINUOUS
10
44.2747
20
-111.312
11
44.279
21
-111.313
0
LINE
8
BLACK
6
CONTINUOUS
10
44.279
20
-111.313
11
44.2833
21
-111.312
0
LINE
8
BLACK
6
CONTINUOUS
10
44.2833
20
-111.312
11
44.4261
21
-111.312
0
LINE
8
BLACK
6
CONTINUOUS
10
44.4261
20
-111.312
11
44.4304
21
-111.313
0
LINE
8
BLACK
6
CONTINUOUS
10
44.301
20
-111.462
11
44.2325
21
-111.496
0
LINE
8
BLACK
6
CONTINUOUS
10
44.2325
20
-111.496
11
44.2021
21
-111.527
0
LINE
8
BLACK
6
CONTINUOUS
10
44.2021
20
-111.527
11
44.1678
21
-111.595
0
LINE
8
BLACK
6
CONTINUOUS
10
44.1678
20
-111.595
11
44.1678
21
-111.883
0
LINE
8
BLACK
6
CONTINUOUS
10
44.1678
20
-111.883
11
44.5416
21
-111.883
0
LINE
8
BLACK
6
CONTINUOUS
10
44.5416
20
-111.883
11
44.5416
21
-111.595
0
LINE
8
BLACK
6
CONTINUOUS
10
44.5416
20
-111.595
11
44.5074
21
-111.527
0
LINE
8
BLACK
6
CONTINUOUS
10
44.5074
20
-111.527
11
44.477
21
-111.496
0
LINE
8
BLACK
6
CONTINUOUS
10
44.477
20
-111.496
11
44.4084
21
-111.462
0
LINE
8
BLACK
6
CONTINUOUS
10
44.4084
20
-111.462
11
44.301
21
-111.462
0
LINE
8
BLACK
6
CONTINUOUS
10
43.9875
20
-110.322
11
44.0074
21
-110.339
0
LINE
8
BLACK
6
CONTINUOUS
10
44.0074
20
-110.339
11
44.0204
21
-110.361
0
LINE
8
BLACK
6
CONTINUOUS
10
44.0204
20
-110.361
11
44.025
21
-110.387
0
LINE
8
BLACK
6
CONTINUOUS
10
44.025
20
-110.387
11
44.025
21
-110.455
0
LINE
8
BLACK
6
CONTINUOUS
10
44.025
20
-110.455
11
44.2833
21
-110.455
0
LINE
8
BLACK
6
CONTINUOUS
10
44.2833
20
-110.455
11
44.3089
21
-110.459
0
LINE
8
BLACK
6
CONTINUOUS
10
44.3089
20
-110.459
11
44.3315
21
-110.472
0
LINE
8
BLACK
6
CONTINUOUS
10
44.3315
20
-110.472
11
44.3482
21
-110.492
0
LINE
8
BLACK
6
CONTINUOUS
10
44.3482
20
-110.492
11
44.3571
21
-110.517
0
LINE
8
BLACK
6
CONTINUOUS
10
44.3571
20
-110.517
11
44.3571
21
-110.543
0
LINE
8
BLACK
6
CONTINUOUS
10
44.3571
20
-110.543
11
44.3482
21
-110.567
0
LINE
8
BLACK
6
CONTINUOUS
10
44.3482
20
-110.567
11
44.3315
21
-110.587
0
LINE
8
BLACK
6
CONTINUOUS
10
44.3315
20
-110.587
11
44.3089
21
-110.6
0
LINE
8
BLACK
6
CONTINUOUS
10
44.3089
20
-110.6
11
44.2833
21
-110.605
0
LINE
8
BLACK
6
CONTINUOUS
10
44.2833
20
-110.605
11
44.025
21
-110.605
0
LINE
8
BLACK
6
CONTINUOUS
10
44.025
20
-110.605
11
44.025
21
-110.902
0
LINE
8
BLACK
6
CONTINUOUS
10
44.025
20
-110.902
11
44.6405
21
-110.697
0
LINE
8
BLACK
6
CONTINUOUS
10
44.6405
20
-110.697
11
44.6663
21
-110.693
0
LINE
8
BLACK
6
CONTINUOUS
10
44.6663
20
-110.693
11
44.6918
21
-110.698
0
LINE
8
BLACK
6
CONTINUOUS
10
44.6918
20
-110.698
11
44.714
21
-110.712
0
LINE
8
BLACK
6
CONTINUOUS
10
44.714
20
-110.712
11
44.7302
21
-110.732
0
LINE
8
BLACK
6
CONTINUOUS
10
44.7302
20
-110.732
11
44.7384
21
-110.757
0
LINE
8
BLACK
6
CONTINUOUS
10
44.7384
20
-110.757
11
44.7377
21
-110.783
0
LINE
8
BLACK
6
CONTINUOUS
10
44.7377
20
-110.783
11
44.7281
21
-110.807
0
LINE
8
BLACK
6
CONTINUOUS
10
44.7281
20
-110.807
11
44.7109
21
-110.827
0
LINE
8
BLACK
6
CONTINUOUS
10
44.7109
20
-110.827
11
44.688
21
-110.839
0
LINE
8
BLACK
6
CONTINUOUS
10
44.688
20
-110.839
11
43.9737
21
-111.077
0
LINE
8
BLACK
6
CONTINUOUS
10
43.9737
20
-111.077
11
43.9682
21
-111.078
0
LINE
8
BLACK
6
CONTINUOUS
10
43.9682
20
-111.078
11
43.963
21
-111.08
0
LINE
8
BLACK
6
CONTINUOUS
10
43.963
20
-111.08
11
43.9554
21
-111.08
0
LINE
8
BLACK
6
CONTINUOUS
10
43.9554
20
-111.08
11
43.9479
21
-111.081
0
LINE
8
BLACK
6
CONTINUOUS
10
43.9479
20
-111.081
11
43.9425
21
-111.08
0
LINE
8
BLACK
6
CONTINUOUS
10
43.9425
20
-111.08
11
43.9369
21
-111.08
0
LINE
8
BLACK
6
CONTINUOUS
10
43.9369
20
-111.08
11
43.9298
21
-111.077
0
LINE
8
BLACK
6
CONTINUOUS
10
43.9298
20
-111.077
11
43.9224
21
-111.076
0
LINE
8
BLACK
6
CONTINUOUS
10
43.9224
20
-111.076
11
43.9177
21
-111.073
0
LINE
8
BLACK
6
CONTINUOUS
10
43.9177
20
-111.073
11
43.9125
21
-111.071
0
LINE
8
BLACK
6
CONTINUOUS
10
43.9125
20
-111.071
11
43.9066
21
-111.066
0
LINE
8
BLACK
6
CONTINUOUS
10
43.9066
20
-111.066
11
43.9002
21
-111.062
0
LINE
8
BLACK
6
CONTINUOUS
10
43.9002
20
-111.062
11
43.8967
21
-111.058
0
LINE
8
BLACK
6
CONTINUOUS
10
43.8967
20
-111.058
11
43.8925
21
-111.054
0
LINE
8
BLACK
6
CONTINUOUS
10
43.8925
20
-111.054
11
43.8887
21
-111.048
0
LINE
8
BLACK
6
CONTINUOUS
10
43.8887
20
-111.048
11
43.884
21
-111.042
0
LINE
8
BLACK
6
CONTINUOUS
10
43.884
20
-111.042
11
43.8822
21
-111.036
0
LINE
8
BLACK
6
CONTINUOUS
10
43.8822
20
-111.036
11
43.8795
21
-111.032
0
LINE
8
BLACK
6
CONTINUOUS
10
43.8795
20
-111.032
11
43.8782
21
-111.024
0
LINE
8
BLACK
6
CONTINUOUS
10
43.8782
20
-111.024
11
43.8758
21
-111.017
0
LINE
8
BLACK
6
CONTINUOUS
10
43.8758
20
-111.017
11
43.8759
21
-111.011
0
LINE
8
BLACK
6
CONTINUOUS
10
43.8759
20
-111.011
11
43.875
21
-111.006
0
LINE
8
BLACK
6
CONTINUOUS
10
43.875
20
-111.006
11
43.875
21
-110.605
0
LINE
8
BLACK
6
CONTINUOUS
10
43.875
20
-110.605
11
43.6166
21
-110.605
0
LINE
8
BLACK
6
CONTINUOUS
10
43.6166
20
-110.605
11
43.591
21
-110.6
0
LINE
8
BLACK
6
CONTINUOUS
10
43.591
20
-110.6
11
43.5684
21
-110.587
0
LINE
8
BLACK
6
CONTINUOUS
10
43.5684
20
-110.587
11
43.5517
21
-110.567
0
LINE
8
BLACK
6
CONTINUOUS
10
43.5517
20
-110.567
11
43.5428
21
-110.543
0
LINE
8
BLACK
6
CONTINUOUS
10
43.5428
20
-110.543
11
43.5428
21
-110.517
0
LINE
8
BLACK
6
CONTINUOUS
10
43.5428
20
-110.517
11
43.5517
21
-110.492
0
LINE
8
BLACK
6
CONTINUOUS
10
43.5517
20
-110.492
11
43.5684
21
-110.472
0
LINE
8
BLACK
6
CONTINUOUS
10
43.5684
20
-110.472
11
43.591
21
-110.459
0
LINE
8
BLACK
6
CONTINUOUS
10
43.591
20
-110.459
11
43.6166
21
-110.455
0
LINE
8
BLACK
6
CONTINUOUS
10
43.6166
20
-110.455
11
43.875
21
-110.455
0
LINE
8
BLACK
6
CONTINUOUS
10
43.875
20
-110.455
11
43.875
21
-110.387
0
LINE
8
BLACK
6
CONTINUOUS
10
43.875
20
-110.387
11
43.8795
21
-110.361
0
LINE
8
BLACK
6
CONTINUOUS
10
43.8795
20
-110.361
11
43.8925
21
-110.339
0
LINE
8
BLACK
6
CONTINUOUS
10
43.8925
20
-110.339
11
43.9125
21
-110.322
0
LINE
8
BLACK
6
CONTINUOUS
10
43.9125
20
-110.322
11
43.9369
21
-110.313
0
LINE
8
BLACK
6
CONTINUOUS
10
43.9369
20
-110.313
11
43.963
21
-110.313
0
LINE
8
BLACK
6
CONTINUOUS
10
43.963
20
-110.313
11
43.9875
21
-110.322
0
LINE
8
BLACK
6
CONTINUOUS
10
46.5145
20
-110.52
11
46.5307
21
-110.534
0
LINE
8
BLACK
6
CONTINUOUS
10
46.5307
20
-110.534
11
46.5413
21
-110.552
0
LINE
8
BLACK
6
CONTINUOUS
10
46.5413
20
-110.552
11
46.544
21
-110.567
0
LINE
8
BLACK
6
CONTINUOUS
10
46.544
20
-110.567
11
46.544
21
-110.921
0
LINE
8
BLACK
6
CONTINUOUS
10
46.544
20
-110.921
11
46.5413
21
-110.936
0
LINE
8
BLACK
6
CONTINUOUS
10
46.5413
20
-110.936
11
46.5307
21
-110.954
0
LINE
8
BLACK
6
CONTINUOUS
10
46.5307
20
-110.954
11
46.5145
21
-110.968
0
LINE
8
BLACK
6
CONTINUOUS
10
46.5145
20
-110.968
11
46.4946
21
-110.975
0
LINE
8
BLACK
6
CONTINUOUS
10
46.4946
20
-110.975
11
46.4734
21
-110.975
0
LINE
8
BLACK
6
CONTINUOUS
10
46.4734
20
-110.975
11
46.4535
21
-110.968
0
LINE
8
BLACK
6
CONTINUOUS
10
46.4535
20
-110.968
11
46.4373
21
-110.954
0
LINE
8
BLACK
6
CONTINUOUS
10
46.4373
20
-110.954
11
46.4267
21
-110.936
0
LINE
8
BLACK
6
CONTINUOUS
10
46.4267
20
-110.936
11
46.424
21
-110.921
0
LINE
8
BLACK
6
CONTINUOUS
10
46.424
20
-110.921
11
46.424
21
-110.567
0
LINE
8
BLACK
6
CONTINUOUS
10
46.424
20
-110.567
11
46.4267
21
-110.552
0
LINE
8
BLACK
6
CONTINUOUS
10
46.4267
20
-110.552
11
46.4373
21
-110.534
0
LINE
8
BLACK
6
CONTINUOUS
10
46.4373
20
-110.534
11
46.4535
21
-110.52
0
LINE
8
BLACK
6
CONTINUOUS
10
46.4535
20
-110.52
11
46.4734
21
-110.513
0
LINE
8
BLACK
6
CONTINUOUS
10
46.4734
20
-110.513
11
46.4946
21
-110.513
0
LINE
8
BLACK
6
CONTINUOUS
10
46.4946
20
-110.513
11
46.5145
21
-110.52
0
LINE
8
BLACK
6
CONTINUOUS
10
45.4945
20
-110.52
11
45.5107
21
-110.534
0
LINE
8
BLACK
6
CONTINUOUS
10
45.5107
20
-110.534
11
45.5213
21
-110.552
0
LINE
8
BLACK
6
CONTINUOUS
10
45.5213
20
-110.552
11
45.524
21
-110.567
0
LINE
8
BLACK
6
CONTINUOUS
10
45.524
20
-110.567
11
45.524
21
-110.921
0
LINE
8
BLACK
6
CONTINUOUS
10
45.524
20
-110.921
11
45.5213
21
-110.936
0
LINE
8
BLACK
6
CONTINUOUS
10
45.5213
20
-110.936
11
45.5107
21
-110.954
0
LINE
8
BLACK
6
CONTINUOUS
10
45.5107
20
-110.954
11
45.4945
21
-110.968
0
LINE
8
BLACK
6
CONTINUOUS
10
45.4945
20
-110.968
11
45.4746
21
-110.975
0
LINE
8
BLACK
6
CONTINUOUS
10
45.4746
20
-110.975
11
45.4534
21
-110.975
0
LINE
8
BLACK
6
CONTINUOUS
10
45.4534
20
-110.975
11
45.4335
21
-110.968
0
LINE
8
BLACK
6
CONTINUOUS
10
45.4335
20
-110.968
11
45.4173
21
-110.954
0
LINE
8
BLACK
6
CONTINUOUS
10
45.4173
20
-110.954
11
45.4067
21
-110.936
0
LINE
8
BLACK
6
CONTINUOUS
10
45.4067
20
-110.936
11
45.404
21
-110.921
0
LINE
8
BLACK
6
CONTINUOUS
10
45.404
20
-110.921
11
45.404
21
-110.567
0
LINE
8
BLACK
6
CONTINUOUS
10
45.404
20
-110.567
11
45.4067
21
-110.552
0
LINE
8
BLACK
6
CONTINUOUS
10
45.4067
20
-110.552
11
45.4173
21
-110.534
0
LINE
8
BLACK
6
CONTINUOUS
10
45.4173
20
-110.534
11
45.4335
21
-110.52
0
LINE
8
BLACK
6
CONTINUOUS
10
45.4335
20
-110.52
11
45.4534
21
-110.513
0
LINE
8
BLACK
6
CONTINUOUS
10
45.4534
20
-110.513
11
45.4746
21
-110.513
0
LINE
8
BLACK
6
CONTINUOUS
10
45.4746
20
-110.513
11
45.4945
21
-110.52
0
LINE
8
BLACK
6
CONTINUOUS
10
143.288
20
-110.407
11
143.305
21
-110.421
0
LINE
8
BLACK
6
CONTINUOUS
10
143.305
20
-110.421
11
143.315
21
-110.439
0
LINE
8
BLACK
6
CONTINUOUS
10
143.315
20
-110.439
11
143.318
21
-110.454
0
LINE
8
BLACK
6
CONTINUOUS
10
143.318
20
-110.454
11
143.318
21
-110.808
0
LINE
8
BLACK
6
CONTINUOUS
10
143.318
20
-110.808
11
143.315
21
-110.823
0
LINE
8
BLACK
6
CONTINUOUS
10
143.315
20
-110.823
11
143.305
21
-110.841
0
LINE
8
BLACK
6
CONTINUOUS
10
143.305
20
-110.841
11
143.288
21
-110.855
0
LINE
8
BLACK
6
CONTINUOUS
10
143.288
20
-110.855
11
143.269
21
-110.862
0
LINE
8
BLACK
6
CONTINUOUS
10
143.269
20
-110.862
11
143.247
21
-110.862
0
LINE
8
BLACK
6
CONTINUOUS
10
143.247
20
-110.862
11
143.228
21
-110.855
0
LINE
8
BLACK
6
CONTINUOUS
10
143.228
20
-110.855
11
143.211
21
-110.841
0
LINE
8
BLACK
6
CONTINUOUS
10
143.211
20
-110.841
11
143.201
21
-110.823
0
LINE
8
BLACK
6
CONTINUOUS
10
143.201
20
-110.823
11
143.198
21
-110.808
0
LINE
8
BLACK
6
CONTINUOUS
10
143.198
20
-110.808
11
143.198
21
-110.454
0
LINE
8
BLACK
6
CONTINUOUS
10
143.198
20
-110.454
11
143.201
21
-110.439
0
LINE
8
BLACK
6
CONTINUOUS
10
143.201
20
-110.439
11
143.211
21
-110.421
0
LINE
8
BLACK
6
CONTINUOUS
10
143.211
20
-110.421
11
143.228
21
-110.407
0
LINE
8
BLACK
6
CONTINUOUS
10
143.228
20
-110.407
11
143.247
21
-110.4
0
LINE
8
BLACK
6
CONTINUOUS
10
143.247
20
-110.4
11
143.269
21
-110.4
0
LINE
8
BLACK
6
CONTINUOUS
10
143.269
20
-110.4
11
143.288
21
-110.407
0
LINE
8
BLACK
6
CONTINUOUS
10
142.268
20
-110.407
11
142.285
21
-110.421
0
LINE
8
BLACK
6
CONTINUOUS
10
142.285
20
-110.421
11
142.295
21
-110.439
0
LINE
8
BLACK
6
CONTINUOUS
10
142.295
20
-110.439
11
142.298
21
-110.454
0
LINE
8
BLACK
6
CONTINUOUS
10
142.298
20
-110.454
11
142.298
21
-110.808
0
LINE
8
BLACK
6
CONTINUOUS
10
142.298
20
-110.808
11
142.295
21
-110.823
0
LINE
8
BLACK
6
CONTINUOUS
10
142.295
20
-110.823
11
142.285
21
-110.841
0
LINE
8
BLACK
6
CONTINUOUS
10
142.285
20
-110.841
11
142.268
21
-110.855
0
LINE
8
BLACK
6
CONTINUOUS
10
142.268
20
-110.855
11
142.249
21
-110.862
0
LINE
8
BLACK
6
CONTINUOUS
10
142.249
20
-110.862
11
142.227
21
-110.862
0
LINE
8
BLACK
6
CONTINUOUS
10
142.227
20
-110.862
11
142.208
21
-110.855
0
LINE
8
BLACK
6
CONTINUOUS
10
142.208
20
-110.855
11
142.191
21
-110.841
0
LINE
8
BLACK
6
CONTINUOUS
10
142.191
20
-110.841
11
142.181
21
-110.823
0
LINE
8
BLACK
6
CONTINUOUS
10
142.181
20
-110.823
11
142.178
21
-110.808
0
LINE
8
BLACK
6
CONTINUOUS
10
142.178
20
-110.808
11
142.178
21
-110.454
0
LINE
8
BLACK
6
CONTINUOUS
10
142.178
20
-110.454
11
142.181
21
-110.439
0
LINE
8
BLACK
6
CONTINUOUS
10
142.181
20
-110.439
11
142.191
21
-110.421
0
LINE
8
BLACK
6
CONTINUOUS
10
142.191
20
-110.421
11
142.208
21
-110.407
0
LINE
8
BLACK
6
CONTINUOUS
10
142.208
20
-110.407
11
142.227
21
-110.4
0
LINE
8
BLACK
6
CONTINUOUS
10
142.227
20
-110.4
11
142.249
21
-110.4
0
LINE
8
BLACK
6
CONTINUOUS
10
142.249
20
-110.4
11
142.268
21
-110.407
0
LINE
8
BLACK
6
CONTINUOUS
10
44.0018
20
-109.408
11
44.0061
21
-109.408
0
LINE
8
BLACK
6
CONTINUOUS
10
44.0061
20
-109.408
11
44.0146
21
-109.41
0
LINE
8
BLACK
6
CONTINUOUS
10
44.0146
20
-109.41
11
44.0232
21
-109.412
0
LINE
8
BLACK
6
CONTINUOUS
10
44.0232
20
-109.412
11
44.027
21
-109.414
0
LINE
8
BLACK
6
CONTINUOUS
10
44.027
20
-109.414
11
44.0311
21
-109.415
0
LINE
8
BLACK
6
CONTINUOUS
10
44.0311
20
-109.415
11
44.1263
21
-109.463
0
LINE
8
BLACK
6
CONTINUOUS
10
44.1263
20
-109.463
11
44.136
21
-109.47
0
LINE
8
BLACK
6
CONTINUOUS
10
44.136
20
-109.47
11
44.1458
21
-109.477
0
LINE
8
BLACK
6
CONTINUOUS
10
44.1458
20
-109.477
11
44.188
21
-109.519
0
LINE
8
BLACK
6
CONTINUOUS
10
44.188
20
-109.519
11
44.2303
21
-109.477
0
LINE
8
BLACK
6
CONTINUOUS
10
44.2303
20
-109.477
11
44.2401
21
-109.47
0
LINE
8
BLACK
6
CONTINUOUS
10
44.2401
20
-109.47
11
44.2497
21
-109.463
0
LINE
8
BLACK
6
CONTINUOUS
10
44.2497
20
-109.463
11
44.345
21
-109.415
0
LINE
8
BLACK
6
CONTINUOUS
10
44.345
20
-109.415
11
44.3491
21
-109.414
0
LINE
8
BLACK
6
CONTINUOUS
10
44.3491
20
-109.414
11
44.3529
21
-109.412
0
LINE
8
BLACK
6
CONTINUOUS
10
44.3529
20
-109.412
11
44.3615
21
-109.41
0
LINE
8
BLACK
6
CONTINUOUS
10
44.3615
20
-109.41
11
44.3699
21
-109.408
0
LINE
8
BLACK
6
CONTINUOUS
10
44.3699
20
-109.408
11
44.3743
21
-109.408
0
LINE
8
BLACK
6
CONTINUOUS
10
44.3743
20
-109.408
11
44.3785
21
-109.407
0
LINE
8
BLACK
6
CONTINUOUS
10
44.3785
20
-109.407
11
44.4261
21
-109.407
0
LINE
8
BLACK
6
CONTINUOUS
10
44.4261
20
-109.407
11
44.4304
21
-109.408
0
LINE
8
BLACK
6
CONTINUOUS
10
44.4304
20
-109.408
11
44.4347
21
-109.408
0
LINE
8
BLACK
6
CONTINUOUS
10
44.4347
20
-109.408
11
44.4431
21
-109.41
0
LINE
8
BLACK
6
CONTINUOUS
10
44.4431
20
-109.41
11
44.4518
21
-109.412
0
LINE
8
BLACK
6
CONTINUOUS
10
44.4518
20
-109.412
11
44.4555
21
-109.414
0
LINE
8
BLACK
6
CONTINUOUS
10
44.4555
20
-109.414
11
44.4597
21
-109.415
0
LINE
8
BLACK
6
CONTINUOUS
10
44.4597
20
-109.415
11
44.5549
21
-109.463
0
LINE
8
BLACK
6
CONTINUOUS
10
44.5549
20
-109.463
11
44.5646
21
-109.47
0
LINE
8
BLACK
6
CONTINUOUS
10
44.5646
20
-109.47
11
44.5744
21
-109.477
0
LINE
8
BLACK
6
CONTINUOUS
10
44.5744
20
-109.477
11
44.622
21
-109.524
0
LINE
8
BLACK
6
CONTINUOUS
10
44.622
20
-109.524
11
44.6289
21
-109.534
0
LINE
8
BLACK
6
CONTINUOUS
10
44.6289
20
-109.534
11
44.6361
21
-109.544
0
LINE
8
BLACK
6
CONTINUOUS
10
44.6361
20
-109.544
11
44.6837
21
-109.639
0
LINE
8
BLACK
6
CONTINUOUS
10
44.6837
20
-109.639
11
44.6849
21
-109.643
0
LINE
8
BLACK
6
CONTINUOUS
10
44.6849
20
-109.643
11
44.6871
21
-109.647
0
LINE
8
BLACK
6
CONTINUOUS
10
44.6871
20
-109.647
11
44.6886
21
-109.656
0
LINE
8
BLACK
6
CONTINUOUS
10
44.6886
20
-109.656
11
44.6911
21
-109.664
0
LINE
8
BLACK
6
CONTINUOUS
10
44.6911
20
-109.664
11
44.6909
21
-109.668
0
LINE
8
BLACK
6
CONTINUOUS
10
44.6909
20
-109.668
11
44.6916
21
-109.673
0
LINE
8
BLACK
6
CONTINUOUS
10
44.6916
20
-109.673
11
44.6916
21
-109.863
0
LINE
8
BLACK
6
CONTINUOUS
10
44.6916
20
-109.863
11
44.6909
21
-109.867
0
LINE
8
BLACK
6
CONTINUOUS
10
44.6909
20
-109.867
11
44.6911
21
-109.872
0
LINE
8
BLACK
6
CONTINUOUS
10
44.6911
20
-109.872
11
44.6886
21
-109.88
0
LINE
8
BLACK
6
CONTINUOUS
10
44.6886
20
-109.88
11
44.6871
21
-109.889
0
LINE
8
BLACK
6
CONTINUOUS
10
44.6871
20
-109.889
11
44.6849
21
-109.892
0
LINE
8
BLACK
6
CONTINUOUS
10
44.6849
20
-109.892
11
44.6837
21
-109.897
0
LINE
8
BLACK
6
CONTINUOUS
10
44.6837
20
-109.897
11
44.6361
21
-109.992
0
LINE
8
BLACK
6
CONTINUOUS
10
44.6361
20
-109.992
11
44.6289
21
-110.001
0
LINE
8
BLACK
6
CONTINUOUS
10
44.6289
20
-110.001
11
44.622
21
-110.011
0
LINE
8
BLACK
6
CONTINUOUS
10
44.622
20
-110.011
11
44.5744
21
-110.059
0
LINE
8
BLACK
6
CONTINUOUS
10
44.5744
20
-110.059
11
44.5646
21
-110.066
0
LINE
8
BLACK
6
CONTINUOUS
10
44.5646
20
-110.066
11
44.5549
21
-110.073
0
LINE
8
BLACK
6
CONTINUOUS
10
44.5549
20
-110.073
11
44.4597
21
-110.121
0
LINE
8
BLACK
6
CONTINUOUS
10
44.4597
20
-110.121
11
44.4555
21
-110.122
0
LINE
8
BLACK
6
CONTINUOUS
10
44.4555
20
-110.122
11
44.4518
21
-110.124
0
LINE
8
BLACK
6
CONTINUOUS
10
44.4518
20
-110.124
11
44.4431
21
-110.126
0
LINE
8
BLACK
6
CONTINUOUS
10
44.4431
20
-110.126
11
44.4347
21
-110.128
0
LINE
8
BLACK
6
CONTINUOUS
10
44.4347
20
-110.128
11
44.4304
21
-110.128
0
LINE
8
BLACK
6
CONTINUOUS
10
44.4304
20
-110.128
11
44.4261
21
-110.129
0
LINE
8
BLACK
6
CONTINUOUS
10
44.4261
20
-110.129
11
44.3785
21
-110.129
0
LINE
8
BLACK
6
CONTINUOUS
10
44.3785
20
-110.129
11
44.3743
21
-110.128
0
LINE
8
BLACK
6
CONTINUOUS
10
44.3743
20
-110.128
11
44.3699
21
-110.128
0
LINE
8
BLACK
6
CONTINUOUS
10
44.3699
20
-110.128
11
44.3615
21
-110.126
0
LINE
8
BLACK
6
CONTINUOUS
10
44.3615
20
-110.126
11
44.3529
21
-110.124
0
LINE
8
BLACK
6
CONTINUOUS
10
44.3529
20
-110.124
11
44.3491
21
-110.122
0
LINE
8
BLACK
6
CONTINUOUS
10
44.3491
20
-110.122
11
44.345
21
-110.121
0
LINE
8
BLACK
6
CONTINUOUS
10
44.345
20
-110.121
11
44.2497
21
-110.073
0
LINE
8
BLACK
6
CONTINUOUS
10
44.2497
20
-110.073
11
44.2401
21
-110.066
0
LINE
8
BLACK
6
CONTINUOUS
10
44.2401
20
-110.066
11
44.2303
21
-110.059
0
LINE
8
BLACK
6
CONTINUOUS
10
44.2303
20
-110.059
11
44.188
21
-110.017
0
LINE
8
BLACK
6
CONTINUOUS
10
44.188
20
-110.017
11
44.1458
21
-110.059
0
LINE
8
BLACK
6
CONTINUOUS
10
44.1458
20
-110.059
11
44.136
21
-110.066
0
LINE
8
BLACK
6
CONTINUOUS
10
44.136
20
-110.066
11
44.1263
21
-110.073
0
LINE
8
BLACK
6
CONTINUOUS
10
44.1263
20
-110.073
11
44.0311
21
-110.121
0
LINE
8
BLACK
6
CONTINUOUS
10
44.0311
20
-110.121
11
44.027
21
-110.122
0
LINE
8
BLACK
6
CONTINUOUS
10
44.027
20
-110.122
11
44.0232
21
-110.124
0
LINE
8
BLACK
6
CONTINUOUS
10
44.0232
20
-110.124
11
44.0146
21
-110.126
0
LINE
8
BLACK
6
CONTINUOUS
10
44.0146
20
-110.126
11
44.0061
21
-110.128
0
LINE
8
BLACK
6
CONTINUOUS
10
44.0061
20
-110.128
11
44.0018
21
-110.128
0
LINE
8
BLACK
6
CONTINUOUS
10
44.0018
20
-110.128
11
43.9976
21
-110.129
0
LINE
8
BLACK
6
CONTINUOUS
10
43.9976
20
-110.129
11
43.8071
21
-110.129
0
LINE
8
BLACK
6
CONTINUOUS
10
43.8071
20
-110.129
11
43.8028
21
-110.128
0
LINE
8
BLACK
6
CONTINUOUS
10
43.8028
20
-110.128
11
43.7985
21
-110.128
0
LINE
8
BLACK
6
CONTINUOUS
10
43.7985
20
-110.128
11
43.7901
21
-110.126
0
LINE
8
BLACK
6
CONTINUOUS
10
43.7901
20
-110.126
11
43.7814
21
-110.124
0
LINE
8
BLACK
6
CONTINUOUS
10
43.7814
20
-110.124
11
43.7777
21
-110.122
0
LINE
8
BLACK
6
CONTINUOUS
10
43.7777
20
-110.122
11
43.7736
21
-110.121
0
LINE
8
BLACK
6
CONTINUOUS
10
43.7736
20
-110.121
11
43.6783
21
-110.073
0
LINE
8
BLACK
6
CONTINUOUS
10
43.6783
20
-110.073
11
43.6687
21
-110.066
0
LINE
8
BLACK
6
CONTINUOUS
10
43.6687
20
-110.066
11
43.6588
21
-110.059
0
LINE
8
BLACK
6
CONTINUOUS
10
43.6588
20
-110.059
11
43.6112
21
-110.011
0
LINE
8
BLACK
6
CONTINUOUS
10
43.6112
20
-110.011
11
43.6043
21
-110.001
0
LINE
8
BLACK
6
CONTINUOUS
10
43.6043
20
-110.001
11
43.5972
21
-109.992
0
LINE
8
BLACK
6
CONTINUOUS
10
43.5972
20
-109.992
11
43.5495
21
-109.897
0
LINE
8
BLACK
6
CONTINUOUS
10
43.5495
20
-109.897
11
43.5483
21
-109.892
0
LINE
8
BLACK
6
CONTINUOUS
10
43.5483
20
-109.892
11
43.5461
21
-109.889
0
LINE
8
BLACK
6
CONTINUOUS
10
43.5461
20
-109.889
11
43.5446
21
-109.88
0
LINE
8
BLACK
6
CONTINUOUS
10
43.5446
20
-109.88
11
43.5421
21
-109.872
0
LINE
8
BLACK
6
CONTINUOUS
10
43.5421
20
-109.872
11
43.5424
21
-109.867
0
LINE
8
BLACK
6
CONTINUOUS
10
43.5424
20
-109.867
11
43.5416
21
-109.863
0
LINE
8
BLACK
6
CONTINUOUS
10
43.5416
20
-109.863
11
43.5416
21
-109.673
0
LINE
8
BLACK
6
CONTINUOUS
10
43.5416
20
-109.673
11
43.5424
21
-109.668
0
LINE
8
BLACK
6
CONTINUOUS
10
43.5424
20
-109.668
11
43.5421
21
-109.664
0
LINE
8
BLACK
6
CONTINUOUS
10
43.5421
20
-109.664
11
43.5446
21
-109.656
0
LINE
8
BLACK
6
CONTINUOUS
10
43.5446
20
-109.656
11
43.5461
21
-109.647
0
LINE
8
BLACK
6
CONTINUOUS
10
43.5461
20
-109.647
11
43.5483
21
-109.643
0
LINE
8
BLACK
6
CONTINUOUS
10
43.5483
20
-109.643
11
43.5495
21
-109.639
0
LINE
8
BLACK
6
CONTINUOUS
10
43.5495
20
-109.639
11
43.5972
21
-109.544
0
LINE
8
BLACK
6
CONTINUOUS
10
43.5972
20
-109.544
11
43.6043
21
-109.534
0
LINE
8
BLACK
6
CONTINUOUS
10
43.6043
20
-109.534
11
43.6112
21
-109.524
0
LINE
8
BLACK
6
CONTINUOUS
10
43.6112
20
-109.524
11
43.6588
21
-109.477
0
LINE
8
BLACK
6
CONTINUOUS
10
43.6588
20
-109.477
11
43.6687
21
-109.47
0
LINE
8
BLACK
6
CONTINUOUS
10
43.6687
20
-109.47
11
43.6783
21
-109.463
0
LINE
8
BLACK
6
CONTINUOUS
10
43.6783
20
-109.463
11
43.7736
21
-109.415
0
LINE
8
BLACK
6
CONTINUOUS
10
43.7736
20
-109.415
11
43.7777
21
-109.414
0
LINE
8
BLACK
6
CONTINUOUS
10
43.7777
20
-109.414
11
43.7814
21
-109.412
0
LINE
8
BLACK
6
CONTINUOUS
10
43.7814
20
-109.412
11
43.7901
21
-109.41
0
LINE
8
BLACK
6
CONTINUOUS
10
43.7901
20
-109.41
11
43.7985
21
-109.408
0
LINE
8
BLACK
6
CONTINUOUS
10
43.7985
20
-109.408
11
43.8028
21
-109.408
0
LINE
8
BLACK
6
CONTINUOUS
10
43.8028
20
-109.408
11
43.8071
21
-109.407
0
LINE
8
BLACK
6
CONTINUOUS
10
43.8071
20
-109.407
11
43.9976
21
-109.407
0
LINE
8
BLACK
6
CONTINUOUS
10
43.9976
20
-109.407
11
44.0018
21
-109.408
0
LINE
8
BLACK
6
CONTINUOUS
10
44.3962
20
-109.557
11
44.3277
21
-109.591
0
LINE
8
BLACK
6
CONTINUOUS
10
44.3277
20
-109.591
11
44.2973
21
-109.622
0
LINE
8
BLACK
6
CONTINUOUS
10
44.2973
20
-109.622
11
44.263
21
-109.69
0
LINE
8
BLACK
6
CONTINUOUS
10
44.263
20
-109.69
11
44.263
21
-109.845
0
LINE
8
BLACK
6
CONTINUOUS
10
44.263
20
-109.845
11
44.2973
21
-109.914
0
LINE
8
BLACK
6
CONTINUOUS
10
44.2973
20
-109.914
11
44.3277
21
-109.944
0
LINE
8
BLACK
6
CONTINUOUS
10
44.3277
20
-109.944
11
44.3962
21
-109.979
0
LINE
8
BLACK
6
CONTINUOUS
10
44.3962
20
-109.979
11
44.4084
21
-109.979
0
LINE
8
BLACK
6
CONTINUOUS
10
44.4084
20
-109.979
11
44.477
21
-109.944
0
LINE
8
BLACK
6
CONTINUOUS
10
44.477
20
-109.944
11
44.5074
21
-109.914
0
LINE
8
BLACK
6
CONTINUOUS
10
44.5074
20
-109.914
11
44.5416
21
-109.845
0
LINE
8
BLACK
6
CONTINUOUS
10
44.5416
20
-109.845
11
44.5416
21
-109.69
0
LINE
8
BLACK
6
CONTINUOUS
10
44.5416
20
-109.69
11
44.5074
21
-109.622
0
LINE
8
BLACK
6
CONTINUOUS
10
44.5074
20
-109.622
11
44.477
21
-109.591
0
LINE
8
BLACK
6
CONTINUOUS
10
44.477
20
-109.591
11
44.4084
21
-109.557
0
LINE
8
BLACK
6
CONTINUOUS
10
44.4084
20
-109.557
11
44.3962
21
-109.557
0
LINE
8
BLACK
6
CONTINUOUS
10
43.8248
20
-109.557
11
43.7563
21
-109.591
0
LINE
8
BLACK
6
CONTINUOUS
10
43.7563
20
-109.591
11
43.7259
21
-109.622
0
LINE
8
BLACK
6
CONTINUOUS
10
43.7259
20
-109.622
11
43.6916
21
-109.69
0
LINE
8
BLACK
6
CONTINUOUS
10
43.6916
20
-109.69
11
43.6916
21
-109.845
0
LINE
8
BLACK
6
CONTINUOUS
10
43.6916
20
-109.845
11
43.7259
21
-109.914
0
LINE
8
BLACK
6
CONTINUOUS
10
43.7259
20
-109.914
11
43.7563
21
-109.944
0
LINE
8
BLACK
6
CONTINUOUS
10
43.7563
20
-109.944
11
43.8248
21
-109.979
0
LINE
8
BLACK
6
CONTINUOUS
10
43.8248
20
-109.979
11
43.9799
21
-109.979
0
LINE
8
BLACK
6
CONTINUOUS
10
43.9799
20
-109.979
11
44.0484
21
-109.944
0
LINE
8
BLACK
6
CONTINUOUS
10
44.0484
20
-109.944
11
44.0788
21
-109.914
0
LINE
8
BLACK
6
CONTINUOUS
10
44.0788
20
-109.914
11
44.113
21
-109.845
0
LINE
8
BLACK
6
CONTINUOUS
10
44.113
20
-109.845
11
44.113
21
-109.69
0
LINE
8
BLACK
6
CONTINUOUS
10
44.113
20
-109.69
11
44.0788
21
-109.622
0
LINE
8
BLACK
6
CONTINUOUS
10
44.0788
20
-109.622
11
44.0484
21
-109.591
0
LINE
8
BLACK
6
CONTINUOUS
10
44.0484
20
-109.591
11
43.9799
21
-109.557
0
LINE
8
BLACK
6
CONTINUOUS
10
43.9799
20
-109.557
11
43.8248
21
-109.557
0
LINE
8
BLACK
6
CONTINUOUS
10
141.824
20
-107.328
11
141.828
21
-107.328
0
LINE
8
BLACK
6
CONTINUOUS
10
141.828
20
-107.328
11
141.836
21
-107.33
0
LINE
8
BLACK
6
CONTINUOUS
10
141.836
20
-107.33
11
141.845
21
-107.332
0
LINE
8
BLACK
6
CONTINUOUS
10
141.845
20
-107.332
11
141.849
21
-107.334
0
LINE
8
BLACK
6
CONTINUOUS
10
141.849
20
-107.334
11
141.853
21
-107.335
0
LINE
8
BLACK
6
CONTINUOUS
10
141.853
20
-107.335
11
141.948
21
-107.383
0
LINE
8
BLACK
6
CONTINUOUS
10
141.948
20
-107.383
11
141.958
21
-107.39
0
LINE
8
BLACK
6
CONTINUOUS
10
141.958
20
-107.39
11
141.968
21
-107.397
0
LINE
8
BLACK
6
CONTINUOUS
10
141.968
20
-107.397
11
142.015
21
-107.445
0
LINE
8
BLACK
6
CONTINUOUS
10
142.015
20
-107.445
11
142.022
21
-107.454
0
LINE
8
BLACK
6
CONTINUOUS
10
142.022
20
-107.454
11
142.029
21
-107.464
0
LINE
8
BLACK
6
CONTINUOUS
10
142.029
20
-107.464
11
142.077
21
-107.559
0
LINE
8
BLACK
6
CONTINUOUS
10
142.077
20
-107.559
11
142.079
21
-107.567
0
LINE
8
BLACK
6
CONTINUOUS
10
142.079
20
-107.567
11
142.083
21
-107.575
0
LINE
8
BLACK
6
CONTINUOUS
10
142.083
20
-107.575
11
142.13
21
-107.765
0
LINE
8
BLACK
6
CONTINUOUS
10
142.13
20
-107.765
11
142.131
21
-107.774
0
LINE
8
BLACK
6
CONTINUOUS
10
142.131
20
-107.774
11
142.133
21
-107.783
0
LINE
8
BLACK
6
CONTINUOUS
10
142.133
20
-107.783
11
142.133
21
-108.021
0
LINE
8
BLACK
6
CONTINUOUS
10
142.133
20
-108.021
11
142.131
21
-108.03
0
LINE
8
BLACK
6
CONTINUOUS
10
142.131
20
-108.03
11
142.13
21
-108.04
0
LINE
8
BLACK
6
CONTINUOUS
10
142.13
20
-108.04
11
142.083
21
-108.23
0
LINE
8
BLACK
6
CONTINUOUS
10
142.083
20
-108.23
11
142.079
21
-108.238
0
LINE
8
BLACK
6
CONTINUOUS
10
142.079
20
-108.238
11
142.077
21
-108.245
0
LINE
8
BLACK
6
CONTINUOUS
10
142.077
20
-108.245
11
142.029
21
-108.341
0
LINE
8
BLACK
6
CONTINUOUS
10
142.029
20
-108.341
11
142.022
21
-108.35
0
LINE
8
BLACK
6
CONTINUOUS
10
142.022
20
-108.35
11
142.015
21
-108.36
0
LINE
8
BLACK
6
CONTINUOUS
10
142.015
20
-108.36
11
141.968
21
-108.408
0
LINE
8
BLACK
6
CONTINUOUS
10
141.968
20
-108.408
11
141.958
21
-108.415
0
LINE
8
BLACK
6
CONTINUOUS
10
141.958
20
-108.415
11
141.948
21
-108.422
0
LINE
8
BLACK
6
CONTINUOUS
10
141.948
20
-108.422
11
141.853
21
-108.469
0
LINE
8
BLACK
6
CONTINUOUS
10
141.853
20
-108.469
11
141.849
21
-108.471
0
LINE
8
BLACK
6
CONTINUOUS
10
141.849
20
-108.471
11
141.845
21
-108.473
0
LINE
8
BLACK
6
CONTINUOUS
10
141.845
20
-108.473
11
141.836
21
-108.474
0
LINE
8
BLACK
6
CONTINUOUS
10
141.836
20
-108.474
11
141.828
21
-108.477
0
LINE
8
BLACK
6
CONTINUOUS
10
141.828
20
-108.477
11
141.824
21
-108.477
0
LINE
8
BLACK
6
CONTINUOUS
10
141.824
20
-108.477
11
141.819
21
-108.477
0
LINE
8
BLACK
6
CONTINUOUS
10
141.819
20
-108.477
11
141.724
21
-108.477
0
LINE
8
BLACK
6
CONTINUOUS
10
141.724
20
-108.477
11
141.72
21
-108.477
0
LINE
8
BLACK
6
CONTINUOUS
10
141.72
20
-108.477
11
141.716
21
-108.477
0
LINE
8
BLACK
6
CONTINUOUS
10
141.716
20
-108.477
11
141.707
21
-108.474
0
LINE
8
BLACK
6
CONTINUOUS
10
141.707
20
-108.474
11
141.699
21
-108.473
0
LINE
8
BLACK
6
CONTINUOUS
10
141.699
20
-108.473
11
141.695
21
-108.471
0
LINE
8
BLACK
6
CONTINUOUS
10
141.695
20
-108.471
11
141.691
21
-108.469
0
LINE
8
BLACK
6
CONTINUOUS
10
141.691
20
-108.469
11
141.595
21
-108.422
0
LINE
8
BLACK
6
CONTINUOUS
10
141.595
20
-108.422
11
141.586
21
-108.415
0
LINE
8
BLACK
6
CONTINUOUS
10
141.586
20
-108.415
11
141.576
21
-108.408
0
LINE
8
BLACK
6
CONTINUOUS
10
141.576
20
-108.408
11
141.528
21
-108.36
0
LINE
8
BLACK
6
CONTINUOUS
10
141.528
20
-108.36
11
141.521
21
-108.35
0
LINE
8
BLACK
6
CONTINUOUS
10
141.521
20
-108.35
11
141.514
21
-108.341
0
LINE
8
BLACK
6
CONTINUOUS
10
141.514
20
-108.341
11
141.467
21
-108.245
0
LINE
8
BLACK
6
CONTINUOUS
10
141.467
20
-108.245
11
141.464
21
-108.238
0
LINE
8
BLACK
6
CONTINUOUS
10
141.464
20
-108.238
11
141.461
21
-108.23
0
LINE
8
BLACK
6
CONTINUOUS
10
141.461
20
-108.23
11
141.413
21
-108.04
0
LINE
8
BLACK
6
CONTINUOUS
10
141.413
20
-108.04
11
141.413
21
-108.03
0
LINE
8
BLACK
6
CONTINUOUS
10
141.413
20
-108.03
11
141.411
21
-108.021
0
LINE
8
BLACK
6
CONTINUOUS
10
141.411
20
-108.021
11
141.411
21
-107.783
0
LINE
8
BLACK
6
CONTINUOUS
10
141.411
20
-107.783
11
141.413
21
-107.774
0
LINE
8
BLACK
6
CONTINUOUS
10
141.413
20
-107.774
11
141.413
21
-107.765
0
LINE
8
BLACK
6
CONTINUOUS
10
141.413
20
-107.765
11
141.461
21
-107.575
0
LINE
8
BLACK
6
CONTINUOUS
10
141.461
20
-107.575
11
141.464
21
-107.567
0
LINE
8
BLACK
6
CONTINUOUS
10
141.464
20
-107.567
11
141.467
21
-107.559
0
LINE
8
BLACK
6
CONTINUOUS
10
141.467
20
-107.559
11
141.514
21
-107.464
0
LINE
8
BLACK
6
CONTINUOUS
10
141.514
20
-107.464
11
141.521
21
-107.454
0
LINE
8
BLACK
6
CONTINUOUS
10
141.521
20
-107.454
11
141.528
21
-107.445
0
LINE
8
BLACK
6
CONTINUOUS
10
141.528
20
-107.445
11
141.576
21
-107.397
0
LINE
8
BLACK
6
CONTINUOUS
10
141.576
20
-107.397
11
141.586
21
-107.39
0
LINE
8
BLACK
6
CONTINUOUS
10
141.586
20
-107.39
11
141.595
21
-107.383
0
LINE
8
BLACK
6
CONTINUOUS
10
141.595
20
-107.383
11
141.691
21
-107.335
0
LINE
8
BLACK
6
CONTINUOUS
10
141.691
20
-107.335
11
141.695
21
-107.334
0
LINE
8
BLACK
6
CONTINUOUS
10
141.695
20
-107.334
11
141.699
21
-107.332
0
LINE
8
BLACK
6
CONTINUOUS
10
141.699
20
-107.332
11
141.707
21
-107.33
0
LINE
8
BLACK
6
CONTINUOUS
10
141.707
20
-107.33
11
141.716
21
-107.328
0
LINE
8
BLACK
6
CONTINUOUS
10
141.716
20
-107.328
11
141.72
21
-107.328
0
LINE
8
BLACK
6
CONTINUOUS
10
141.72
20
-107.328
11
141.724
21
-107.327
0
LINE
8
BLACK
6
CONTINUOUS
10
141.724
20
-107.327
11
141.819
21
-107.327
0
LINE
8
BLACK
6
CONTINUOUS
10
141.819
20
-107.327
11
141.824
21
-107.328
0
LINE
8
BLACK
6
CONTINUOUS
10
141.742
20
-107.477
11
141.673
21
-107.512
0
LINE
8
BLACK
6
CONTINUOUS
10
141.673
20
-107.512
11
141.643
21
-107.542
0
LINE
8
BLACK
6
CONTINUOUS
10
141.643
20
-107.542
11
141.604
21
-107.619
0
LINE
8
BLACK
6
CONTINUOUS
10
141.604
20
-107.619
11
141.561
21
-107.793
0
LINE
8
BLACK
6
CONTINUOUS
10
141.561
20
-107.793
11
141.561
21
-108.012
0
LINE
8
BLACK
6
CONTINUOUS
10
141.561
20
-108.012
11
141.604
21
-108.186
0
LINE
8
BLACK
6
CONTINUOUS
10
141.604
20
-108.186
11
141.643
21
-108.263
0
LINE
8
BLACK
6
CONTINUOUS
10
141.643
20
-108.263
11
141.673
21
-108.293
0
LINE
8
BLACK
6
CONTINUOUS
10
141.673
20
-108.293
11
141.742
21
-108.327
0
LINE
8
BLACK
6
CONTINUOUS
10
141.742
20
-108.327
11
141.802
21
-108.327
0
LINE
8
BLACK
6
CONTINUOUS
10
141.802
20
-108.327
11
141.87
21
-108.293
0
LINE
8
BLACK
6
CONTINUOUS
10
141.87
20
-108.293
11
141.901
21
-108.263
0
LINE
8
BLACK
6
CONTINUOUS
10
141.901
20
-108.263
11
141.939
21
-108.186
0
LINE
8
BLACK
6
CONTINUOUS
10
141.939
20
-108.186
11
141.983
21
-108.012
0
LINE
8
BLACK
6
CONTINUOUS
10
141.983
20
-108.012
11
141.983
21
-107.793
0
LINE
8
BLACK
6
CONTINUOUS
10
141.983
20
-107.793
11
141.939
21
-107.619
0
LINE
8
BLACK
6
CONTINUOUS
10
141.939
20
-107.619
11
141.901
21
-107.542
0
LINE
8
BLACK
6
CONTINUOUS
10
141.901
20
-107.542
11
141.87
21
-107.512
0
LINE
8
BLACK
6
CONTINUOUS
10
141.87
20
-107.512
11
141.802
21
-107.477
0
LINE
8
BLACK
6
CONTINUOUS
10
141.802
20
-107.477
11
141.742
21
-107.477
0
LINE
8
BLACK
6
CONTINUOUS
10
142.728
20
-107.329
11
142.737
21
-107.329
0
LINE
8
BLACK
6
CONTINUOUS
10
142.737
20
-107.329
11
142.741
21
-107.33
0
LINE
8
BLACK
6
CONTINUOUS
10
142.741
20
-107.33
11
142.745
21
-107.33
0
LINE
8
BLACK
6
CONTINUOUS
10
142.745
20
-107.33
11
142.753
21
-107.334
0
LINE
8
BLACK
6
CONTINUOUS
10
142.753
20
-107.334
11
142.762
21
-107.337
0
LINE
8
BLACK
6
CONTINUOUS
10
142.762
20
-107.337
11
142.765
21
-107.34
0
LINE
8
BLACK
6
CONTINUOUS
10
142.765
20
-107.34
11
142.769
21
-107.342
0
LINE
8
BLACK
6
CONTINUOUS
10
142.769
20
-107.342
11
142.775
21
-107.348
0
LINE
8
BLACK
6
CONTINUOUS
10
142.775
20
-107.348
11
142.782
21
-107.354
0
LINE
8
BLACK
6
CONTINUOUS
10
142.782
20
-107.354
11
142.784
21
-107.358
0
LINE
8
BLACK
6
CONTINUOUS
10
142.784
20
-107.358
11
142.787
21
-107.361
0
LINE
8
BLACK
6
CONTINUOUS
10
142.787
20
-107.361
11
142.878
21
-107.497
0
LINE
8
BLACK
6
CONTINUOUS
10
142.878
20
-107.497
11
142.959
21
-107.579
0
LINE
8
BLACK
6
CONTINUOUS
10
142.959
20
-107.579
11
143.043
21
-107.621
0
LINE
8
BLACK
6
CONTINUOUS
10
143.043
20
-107.621
11
143.064
21
-107.637
0
LINE
8
BLACK
6
CONTINUOUS
10
143.064
20
-107.637
11
143.079
21
-107.658
0
LINE
8
BLACK
6
CONTINUOUS
10
143.079
20
-107.658
11
143.085
21
-107.684
0
LINE
8
BLACK
6
CONTINUOUS
10
143.085
20
-107.684
11
143.082
21
-107.709
0
LINE
8
BLACK
6
CONTINUOUS
10
143.082
20
-107.709
11
143.07
21
-107.733
0
LINE
8
BLACK
6
CONTINUOUS
10
143.07
20
-107.733
11
143.051
21
-107.751
0
LINE
8
BLACK
6
CONTINUOUS
10
143.051
20
-107.751
11
143.027
21
-107.761
0
LINE
8
BLACK
6
CONTINUOUS
10
143.027
20
-107.761
11
143.001
21
-107.763
0
LINE
8
BLACK
6
CONTINUOUS
10
143.001
20
-107.763
11
142.976
21
-107.755
0
LINE
8
BLACK
6
CONTINUOUS
10
142.976
20
-107.755
11
142.881
21
-107.708
0
LINE
8
BLACK
6
CONTINUOUS
10
142.881
20
-107.708
11
142.871
21
-107.7
0
LINE
8
BLACK
6
CONTINUOUS
10
142.871
20
-107.7
11
142.862
21
-107.694
0
LINE
8
BLACK
6
CONTINUOUS
10
142.862
20
-107.694
11
142.799
21
-107.631
0
LINE
8
BLACK
6
CONTINUOUS
10
142.799
20
-107.631
11
142.799
21
-108.327
0
LINE
8
BLACK
6
CONTINUOUS
10
142.799
20
-108.327
11
143.01
21
-108.327
0
LINE
8
BLACK
6
CONTINUOUS
10
143.01
20
-108.327
11
143.036
21
-108.332
0
LINE
8
BLACK
6
CONTINUOUS
10
143.036
20
-108.332
11
143.058
21
-108.345
0
LINE
8
BLACK
6
CONTINUOUS
10
143.058
20
-108.345
11
143.075
21
-108.365
0
LINE
8
BLACK
6
CONTINUOUS
10
143.075
20
-108.365
11
143.084
21
-108.389
0
LINE
8
BLACK
6
CONTINUOUS
10
143.084
20
-108.389
11
143.084
21
-108.415
0
LINE
8
BLACK
6
CONTINUOUS
10
143.084
20
-108.415
11
143.075
21
-108.44
0
LINE
8
BLACK
6
CONTINUOUS
10
143.075
20
-108.44
11
143.058
21
-108.46
0
LINE
8
BLACK
6
CONTINUOUS
10
143.058
20
-108.46
11
143.036
21
-108.473
0
LINE
8
BLACK
6
CONTINUOUS
10
143.036
20
-108.473
11
143.01
21
-108.477
0
LINE
8
BLACK
6
CONTINUOUS
10
143.01
20
-108.477
11
142.438
21
-108.477
0
LINE
8
BLACK
6
CONTINUOUS
10
142.438
20
-108.477
11
142.413
21
-108.473
0
LINE
8
BLACK
6
CONTINUOUS
10
142.413
20
-108.473
11
142.39
21
-108.46
0
LINE
8
BLACK
6
CONTINUOUS
10
142.39
20
-108.46
11
142.374
21
-108.44
0
LINE
8
BLACK
6
CONTINUOUS
10
142.374
20
-108.44
11
142.365
21
-108.415
0
LINE
8
BLACK
6
CONTINUOUS
10
142.365
20
-108.415
11
142.365
21
-108.389
0
LINE
8
BLACK
6
CONTINUOUS
10
142.365
20
-108.389
11
142.374
21
-108.365
0
LINE
8
BLACK
6
CONTINUOUS
10
142.374
20
-108.365
11
142.39
21
-108.345
0
LINE
8
BLACK
6
CONTINUOUS
10
142.39
20
-108.345
11
142.413
21
-108.332
0
LINE
8
BLACK
6
CONTINUOUS
10
142.413
20
-108.332
11
142.438
21
-108.327
0
LINE
8
BLACK
6
CONTINUOUS
10
142.438
20
-108.327
11
142.649
21
-108.327
0
LINE
8
BLACK
6
CONTINUOUS
10
142.649
20
-108.327
11
142.649
21
-107.402
0
LINE
8
BLACK
6
CONTINUOUS
10
142.649
20
-107.402
11
142.65
21
-107.398
0
LINE
8
BLACK
6
CONTINUOUS
10
142.65
20
-107.398
11
142.65
21
-107.394
0
LINE
8
BLACK
6
CONTINUOUS
10
142.65
20
-107.394
11
142.652
21
-107.386
0
LINE
8
BLACK
6
CONTINUOUS
10
142.652
20
-107.386
11
142.654
21
-107.377
0
LINE
8
BLACK
6
CONTINUOUS
10
142.654
20
-107.377
11
142.656
21
-107.373
0
LINE
8
BLACK
6
CONTINUOUS
10
142.656
20
-107.373
11
142.657
21
-107.369
0
LINE
8
BLACK
6
CONTINUOUS
10
142.657
20
-107.369
11
142.662
21
-107.362
0
LINE
8
BLACK
6
CONTINUOUS
10
142.662
20
-107.362
11
142.667
21
-107.354
0
LINE
8
BLACK
6
CONTINUOUS
10
142.667
20
-107.354
11
142.67
21
-107.352
0
LINE
8
BLACK
6
CONTINUOUS
10
142.67
20
-107.352
11
142.672
21
-107.348
0
LINE
8
BLACK
6
CONTINUOUS
10
142.672
20
-107.348
11
142.68
21
-107.343
0
LINE
8
BLACK
6
CONTINUOUS
10
142.68
20
-107.343
11
142.687
21
-107.337
0
LINE
8
BLACK
6
CONTINUOUS
10
142.687
20
-107.337
11
142.691
21
-107.336
0
LINE
8
BLACK
6
CONTINUOUS
10
142.691
20
-107.336
11
142.694
21
-107.334
0
LINE
8
BLACK
6
CONTINUOUS
10
142.694
20
-107.334
11
142.703
21
-107.332
0
LINE
8
BLACK
6
CONTINUOUS
10
142.703
20
-107.332
11
142.711
21
-107.329
0
LINE
8
BLACK
6
CONTINUOUS
10
142.711
20
-107.329
11
142.715
21
-107.329
0
LINE
8
BLACK
6
CONTINUOUS
10
142.715
20
-107.329
11
142.719
21
-107.328
0
LINE
8
BLACK
6
CONTINUOUS
10
142.719
20
-107.328
11
142.728
21
-107.329
0
LINE
8
BLACK
6
CONTINUOUS
10
143.688
20
-107.329
11
143.7
21
-107.331
0
LINE
8
BLACK
6
CONTINUOUS
10
143.7
20
-107.331
11
143.843
21
-107.379
0
LINE
8
BLACK
6
CONTINUOUS
10
143.843
20
-107.379
11
143.847
21
-107.381
0
LINE
8
BLACK
6
CONTINUOUS
10
143.847
20
-107.381
11
143.851
21
-107.382
0
LINE
8
BLACK
6
CONTINUOUS
10
143.851
20
-107.382
11
143.858
21
-107.387
0
LINE
8
BLACK
6
CONTINUOUS
10
143.858
20
-107.387
11
143.866
21
-107.391
0
LINE
8
BLACK
6
CONTINUOUS
10
143.866
20
-107.391
11
143.869
21
-107.394
0
LINE
8
BLACK
6
CONTINUOUS
10
143.869
20
-107.394
11
143.872
21
-107.397
0
LINE
8
BLACK
6
CONTINUOUS
10
143.872
20
-107.397
11
143.968
21
-107.492
0
LINE
8
BLACK
6
CONTINUOUS
10
143.968
20
-107.492
11
143.975
21
-107.502
0
LINE
8
BLACK
6
CONTINUOUS
10
143.975
20
-107.502
11
143.982
21
-107.512
0
LINE
8
BLACK
6
CONTINUOUS
10
143.982
20
-107.512
11
144.029
21
-107.607
0
LINE
8
BLACK
6
CONTINUOUS
10
144.029
20
-107.607
11
144.032
21
-107.615
0
LINE
8
BLACK
6
CONTINUOUS
10
144.032
20
-107.615
11
144.035
21
-107.622
0
LINE
8
BLACK
6
CONTINUOUS
10
144.035
20
-107.622
11
144.083
21
-107.813
0
LINE
8
BLACK
6
CONTINUOUS
10
144.083
20
-107.813
11
144.083
21
-107.822
0
LINE
8
BLACK
6
CONTINUOUS
10
144.083
20
-107.822
11
144.085
21
-107.831
0
LINE
8
BLACK
6
CONTINUOUS
10
144.085
20
-107.831
11
144.085
21
-107.974
0
LINE
8
BLACK
6
CONTINUOUS
10
144.085
20
-107.974
11
144.083
21
-107.983
0
LINE
8
BLACK
6
CONTINUOUS
10
144.083
20
-107.983
11
144.083
21
-107.992
0
LINE
8
BLACK
6
CONTINUOUS
10
144.083
20
-107.992
11
144.035
21
-108.182
0
LINE
8
BLACK
6
CONTINUOUS
10
144.035
20
-108.182
11
144.032
21
-108.19
0
LINE
8
BLACK
6
CONTINUOUS
10
144.032
20
-108.19
11
144.029
21
-108.198
0
LINE
8
BLACK
6
CONTINUOUS
10
144.029
20
-108.198
11
143.982
21
-108.293
0
LINE
8
BLACK
6
CONTINUOUS
10
143.982
20
-108.293
11
143.975
21
-108.303
0
LINE
8
BLACK
6
CONTINUOUS
10
143.975
20
-108.303
11
143.968
21
-108.313
0
LINE
8
BLACK
6
CONTINUOUS
10
143.968
20
-108.313
11
143.872
21
-108.408
0
LINE
8
BLACK
6
CONTINUOUS
10
143.872
20
-108.408
11
143.869
21
-108.41
0
LINE
8
BLACK
6
CONTINUOUS
10
143.869
20
-108.41
11
143.866
21
-108.414
0
LINE
8
BLACK
6
CONTINUOUS
10
143.866
20
-108.414
11
143.858
21
-108.418
0
LINE
8
BLACK
6
CONTINUOUS
10
143.858
20
-108.418
11
143.851
21
-108.423
0
LINE
8
BLACK
6
CONTINUOUS
10
143.851
20
-108.423
11
143.847
21
-108.424
0
LINE
8
BLACK
6
CONTINUOUS
10
143.847
20
-108.424
11
143.843
21
-108.426
0
LINE
8
BLACK
6
CONTINUOUS
10
143.843
20
-108.426
11
143.7
21
-108.474
0
LINE
8
BLACK
6
CONTINUOUS
10
143.7
20
-108.474
11
143.688
21
-108.475
0
LINE
8
BLACK
6
CONTINUOUS
10
143.688
20
-108.475
11
143.677
21
-108.477
0
LINE
8
BLACK
6
CONTINUOUS
10
143.677
20
-108.477
11
143.581
21
-108.477
0
LINE
8
BLACK
6
CONTINUOUS
10
143.581
20
-108.477
11
143.569
21
-108.475
0
LINE
8
BLACK
6
CONTINUOUS
10
143.569
20
-108.475
11
143.558
21
-108.474
0
LINE
8
BLACK
6
CONTINUOUS
10
143.558
20
-108.474
11
143.415
21
-108.426
0
LINE
8
BLACK
6
CONTINUOUS
10
143.415
20
-108.426
11
143.411
21
-108.424
0
LINE
8
BLACK
6
CONTINUOUS
10
143.411
20
-108.424
11
143.407
21
-108.423
0
LINE
8
BLACK
6
CONTINUOUS
10
143.407
20
-108.423
11
143.4
21
-108.418
0
LINE
8
BLACK
6
CONTINUOUS
10
143.4
20
-108.418
11
143.392
21
-108.414
0
LINE
8
BLACK
6
CONTINUOUS
10
143.392
20
-108.414
11
143.389
21
-108.41
0
LINE
8
BLACK
6
CONTINUOUS
10
143.389
20
-108.41
11
143.385
21
-108.408
0
LINE
8
BLACK
6
CONTINUOUS
10
143.385
20
-108.408
11
143.338
21
-108.36
0
LINE
8
BLACK
6
CONTINUOUS
10
143.338
20
-108.36
11
143.323
21
-108.339
0
LINE
8
BLACK
6
CONTINUOUS
10
143.323
20
-108.339
11
143.316
21
-108.314
0
LINE
8
BLACK
6
CONTINUOUS
10
143.316
20
-108.314
11
143.318
21
-108.288
0
LINE
8
BLACK
6
CONTINUOUS
10
143.318
20
-108.288
11
143.329
21
-108.264
0
LINE
8
BLACK
6
CONTINUOUS
10
143.329
20
-108.264
11
143.348
21
-108.246
0
LINE
8
BLACK
6
CONTINUOUS
10
143.348
20
-108.246
11
143.371
21
-108.235
0
LINE
8
BLACK
6
CONTINUOUS
10
143.371
20
-108.235
11
143.397
21
-108.232
0
LINE
8
BLACK
6
CONTINUOUS
10
143.397
20
-108.232
11
143.423
21
-108.239
0
LINE
8
BLACK
6
CONTINUOUS
10
143.423
20
-108.239
11
143.444
21
-108.254
0
LINE
8
BLACK
6
CONTINUOUS
10
143.444
20
-108.254
11
143.479
21
-108.289
0
LINE
8
BLACK
6
CONTINUOUS
10
143.479
20
-108.289
11
143.594
21
-108.327
0
LINE
8
BLACK
6
CONTINUOUS
10
143.594
20
-108.327
11
143.664
21
-108.327
0
LINE
8
BLACK
6
CONTINUOUS
10
143.664
20
-108.327
11
143.779
21
-108.289
0
LINE
8
BLACK
6
CONTINUOUS
10
143.779
20
-108.289
11
143.853
21
-108.215
0
LINE
8
BLACK
6
CONTINUOUS
10
143.853
20
-108.215
11
143.892
21
-108.138
0
LINE
8
BLACK
6
CONTINUOUS
10
143.892
20
-108.138
11
143.935
21
-107.965
0
LINE
8
BLACK
6
CONTINUOUS
10
143.935
20
-107.965
11
143.935
21
-107.84
0
LINE
8
BLACK
6
CONTINUOUS
10
143.935
20
-107.84
11
143.892
21
-107.667
0
LINE
8
BLACK
6
CONTINUOUS
10
143.892
20
-107.667
11
143.853
21
-107.59
0
LINE
8
BLACK
6
CONTINUOUS
10
143.853
20
-107.59
11
143.779
21
-107.516
0
LINE
8
BLACK
6
CONTINUOUS
10
143.779
20
-107.516
11
143.664
21
-107.477
0
LINE
8
BLACK
6
CONTINUOUS
10
143.664
20
-107.477
11
143.594
21
-107.477
0
LINE
8
BLACK
6
CONTINUOUS
10
143.594
20
-107.477
11
143.479
21
-107.516
0
LINE
8
BLACK
6
CONTINUOUS
10
143.479
20
-107.516
11
143.444
21
-107.551
0
LINE
8
BLACK
6
CONTINUOUS
10
143.444
20
-107.551
11
143.423
21
-107.566
0
LINE
8
BLACK
6
CONTINUOUS
10
143.423
20
-107.566
11
143.397
21
-107.572
0
LINE
8
BLACK
6
CONTINUOUS
10
143.397
20
-107.572
11
143.371
21
-107.57
0
LINE
8
BLACK
6
CONTINUOUS
10
143.371
20
-107.57
11
143.348
21
-107.559
0
LINE
8
BLACK
6
CONTINUOUS
10
143.348
20
-107.559
11
143.329
21
-107.541
0
LINE
8
BLACK
6
CONTINUOUS
10
143.329
20
-107.541
11
143.318
21
-107.517
0
LINE
8
BLACK
6
CONTINUOUS
10
143.318
20
-107.517
11
143.316
21
-107.491
0
LINE
8
BLACK
6
CONTINUOUS
10
143.316
20
-107.491
11
143.323
21
-107.466
0
LINE
8
BLACK
6
CONTINUOUS
10
143.323
20
-107.466
11
143.338
21
-107.445
0
LINE
8
BLACK
6
CONTINUOUS
10
143.338
20
-107.445
11
143.385
21
-107.397
0
LINE
8
BLACK
6
CONTINUOUS
10
143.385
20
-107.397
11
143.389
21
-107.394
0
LINE
8
BLACK
6
CONTINUOUS
10
143.389
20
-107.394
11
143.392
21
-107.391
0
LINE
8
BLACK
6
CONTINUOUS
10
143.392
20
-107.391
11
143.4
21
-107.387
0
LINE
8
BLACK
6
CONTINUOUS
10
143.4
20
-107.387
11
143.407
21
-107.382
0
LINE
8
BLACK
6
CONTINUOUS
10
143.407
20
-107.382
11
143.411
21
-107.381
0
LINE
8
BLACK
6
CONTINUOUS
10
143.411
20
-107.381
11
143.415
21
-107.379
0
LINE
8
BLACK
6
CONTINUOUS
10
143.415
20
-107.379
11
143.558
21
-107.331
0
LINE
8
BLACK
6
CONTINUOUS
10
143.558
20
-107.331
11
143.569
21
-107.329
0
LINE
8
BLACK
6
CONTINUOUS
10
143.569
20
-107.329
11
143.581
21
-107.327
0
LINE
8
BLACK
6
CONTINUOUS
10
143.581
20
-107.327
11
143.677
21
-107.327
0
LINE
8
BLACK
6
CONTINUOUS
10
143.677
20
-107.327
11
143.688
21
-107.329
0
LINE
8
BLACK
6
CONTINUOUS
10
55.8803
20
-85.057
11
55.8856
21
-85.057
0
LINE
8
BLACK
6
CONTINUOUS
10
55.8856
20
-85.057
11
55.8906
21
-85.0588
0
LINE
8
BLACK
6
CONTINUOUS
10
55.8906
20
-85.0588
11
55.8958
21
-85.0597
0
LINE
8
BLACK
6
CONTINUOUS
10
55.8958
20
-85.0597
11
55.9005
21
-85.0624
0
LINE
8
BLACK
6
CONTINUOUS
10
55.9005
20
-85.0624
11
55.9055
21
-85.0642
0
LINE
8
BLACK
6
CONTINUOUS
10
55.9055
20
-85.0642
11
55.9095
21
-85.0677
0
LINE
8
BLACK
6
CONTINUOUS
10
55.9095
20
-85.0677
11
55.9142
21
-85.0703
0
LINE
8
BLACK
6
CONTINUOUS
10
55.9142
20
-85.0703
11
55.9176
21
-85.0744
0
LINE
8
BLACK
6
CONTINUOUS
10
55.9176
20
-85.0744
11
55.9217
21
-85.0778
0
LINE
8
BLACK
6
CONTINUOUS
10
55.9217
20
-85.0778
11
55.9243
21
-85.0825
0
LINE
8
BLACK
6
CONTINUOUS
10
55.9243
20
-85.0825
11
55.9278
21
-85.0865
0
LINE
8
BLACK
6
CONTINUOUS
10
55.9278
20
-85.0865
11
55.9296
21
-85.0915
0
LINE
8
BLACK
6
CONTINUOUS
10
55.9296
20
-85.0915
11
55.9323
21
-85.0962
0
LINE
8
BLACK
6
CONTINUOUS
10
55.9323
20
-85.0962
11
55.9332
21
-85.1014
0
LINE
8
BLACK
6
CONTINUOUS
10
55.9332
20
-85.1014
11
55.935
21
-85.1064
0
LINE
8
BLACK
6
CONTINUOUS
10
55.935
20
-85.1064
11
55.935
21
-85.1117
0
LINE
8
BLACK
6
CONTINUOUS
10
55.935
20
-85.1117
11
55.935
21
-85.1118
0
LINE
8
BLACK
6
CONTINUOUS
10
55.935
20
-85.1118
11
55.935
21
-86.5922
0
LINE
8
BLACK
6
CONTINUOUS
10
55.935
20
-86.5922
11
55.935
21
-86.5923
0
LINE
8
BLACK
6
CONTINUOUS
10
55.935
20
-86.5923
11
55.935
21
-86.5976
0
LINE
8
BLACK
6
CONTINUOUS
10
55.935
20
-86.5976
11
55.9332
21
-86.6026
0
LINE
8
BLACK
6
CONTINUOUS
10
55.9332
20
-86.6026
11
55.9323
21
-86.6078
0
LINE
8
BLACK
6
CONTINUOUS
10
55.9323
20
-86.6078
11
55.9296
21
-86.6125
0
LINE
8
BLACK
6
CONTINUOUS
10
55.9296
20
-86.6125
11
55.9278
21
-86.6175
0
LINE
8
BLACK
6
CONTINUOUS
10
55.9278
20
-86.6175
11
55.9243
21
-86.6215
0
LINE
8
BLACK
6
CONTINUOUS
10
55.9243
20
-86.6215
11
55.9217
21
-86.6262
0
LINE
8
BLACK
6
CONTINUOUS
10
55.9217
20
-86.6262
11
55.9176
21
-86.6296
0
LINE
8
BLACK
6
CONTINUOUS
10
55.9176
20
-86.6296
11
55.9142
21
-86.6337
0
LINE
8
BLACK
6
CONTINUOUS
10
55.9142
20
-86.6337
11
55.9095
21
-86.6363
0
LINE
8
BLACK
6
CONTINUOUS
10
55.9095
20
-86.6363
11
55.9055
21
-86.6398
0
LINE
8
BLACK
6
CONTINUOUS
10
55.9055
20
-86.6398
11
55.9005
21
-86.6416
0
LINE
8
BLACK
6
CONTINUOUS
10
55.9005
20
-86.6416
11
55.8958
21
-86.6443
0
LINE
8
BLACK
6
CONTINUOUS
10
55.8958
20
-86.6443
11
55.8906
21
-86.6452
0
LINE
8
BLACK
6
CONTINUOUS
10
55.8906
20
-86.6452
11
55.8856
21
-86.647
0
LINE
8
BLACK
6
CONTINUOUS
10
55.8856
20
-86.647
11
55.8803
21
-86.647
0
LINE
8
BLACK
6
CONTINUOUS
10
55.8803
20
-86.647
11
55.8802
21
-86.647
0
LINE
8
BLACK
6
CONTINUOUS
10
55.8802
20
-86.647
11
53.4098
21
-86.647
0
LINE
8
BLACK
6
CONTINUOUS
10
53.4098
20
-86.647
11
53.3942
21
-86.6443
0
LINE
8
BLACK
6
CONTINUOUS
10
53.3942
20
-86.6443
11
53.3758
21
-86.6337
0
LINE
8
BLACK
6
CONTINUOUS
10
53.3758
20
-86.6337
11
53.3622
21
-86.6175
0
LINE
8
BLACK
6
CONTINUOUS
10
53.3622
20
-86.6175
11
53.355
21
-86.5976
0
LINE
8
BLACK
6
CONTINUOUS
10
53.355
20
-86.5976
11
53.355
21
-86.5764
0
LINE
8
BLACK
6
CONTINUOUS
10
53.355
20
-86.5764
11
53.3622
21
-86.5565
0
LINE
8
BLACK
6
CONTINUOUS
10
53.3622
20
-86.5565
11
53.3758
21
-86.5403
0
LINE
8
BLACK
6
CONTINUOUS
10
53.3758
20
-86.5403
11
53.3942
21
-86.5297
0
LINE
8
BLACK
6
CONTINUOUS
10
53.3942
20
-86.5297
11
53.4098
21
-86.527
0
LINE
8
BLACK
6
CONTINUOUS
10
53.4098
20
-86.527
11
55.815
21
-86.527
0
LINE
8
BLACK
6
CONTINUOUS
10
55.815
20
-86.527
11
55.815
21
-85.177
0
LINE
8
BLACK
6
CONTINUOUS
10
55.815
20
-85.177
11
53.4098
21
-85.177
0
LINE
8
BLACK
6
CONTINUOUS
10
53.4098
20
-85.177
11
53.3942
21
-85.1743
0
LINE
8
BLACK
6
CONTINUOUS
10
53.3942
20
-85.1743
11
53.3758
21
-85.1637
0
LINE
8
BLACK
6
CONTINUOUS
10
53.3758
20
-85.1637
11
53.3622
21
-85.1475
0
LINE
8
BLACK
6
CONTINUOUS
10
53.3622
20
-85.1475
11
53.355
21
-85.1276
0
LINE
8
BLACK
6
CONTINUOUS
10
53.355
20
-85.1276
11
53.355
21
-85.1064
0
LINE
8
BLACK
6
CONTINUOUS
10
53.355
20
-85.1064
11
53.3622
21
-85.0865
0
LINE
8
BLACK
6
CONTINUOUS
10
53.3622
20
-85.0865
11
53.3758
21
-85.0703
0
LINE
8
BLACK
6
CONTINUOUS
10
53.3758
20
-85.0703
11
53.3942
21
-85.0597
0
LINE
8
BLACK
6
CONTINUOUS
10
53.3942
20
-85.0597
11
53.4098
21
-85.057
0
LINE
8
BLACK
6
CONTINUOUS
10
53.4098
20
-85.057
11
55.8802
21
-85.057
0
LINE
8
BLACK
6
CONTINUOUS
10
55.8802
20
-85.057
11
55.8803
21
-85.057
0
LINE
8
BLACK
6
CONTINUOUS
10
53.3383
20
-83.8001
11
53.3426
21
-83.7999
0
LINE
8
BLACK
6
CONTINUOUS
10
53.3426
20
-83.7999
11
53.351
21
-83.8024
0
LINE
8
BLACK
6
CONTINUOUS
10
53.351
20
-83.8024
11
53.3597
21
-83.8039
0
LINE
8
BLACK
6
CONTINUOUS
10
53.3597
20
-83.8039
11
53.3634
21
-83.8061
0
LINE
8
BLACK
6
CONTINUOUS
10
53.3634
20
-83.8061
11
53.3676
21
-83.8073
0
LINE
8
BLACK
6
CONTINUOUS
10
53.3676
20
-83.8073
11
53.4628
21
-83.8549
0
LINE
8
BLACK
6
CONTINUOUS
10
53.4628
20
-83.8549
11
53.4725
21
-83.8621
0
LINE
8
BLACK
6
CONTINUOUS
10
53.4725
20
-83.8621
11
53.4823
21
-83.869
0
LINE
8
BLACK
6
CONTINUOUS
10
53.4823
20
-83.869
11
53.5299
21
-83.9166
0
LINE
8
BLACK
6
CONTINUOUS
10
53.5299
20
-83.9166
11
53.5368
21
-83.9264
0
LINE
8
BLACK
6
CONTINUOUS
10
53.5368
20
-83.9264
11
53.544
21
-83.9361
0
LINE
8
BLACK
6
CONTINUOUS
10
53.544
20
-83.9361
11
53.5916
21
-84.0313
0
LINE
8
BLACK
6
CONTINUOUS
10
53.5916
20
-84.0313
11
53.5928
21
-84.0355
0
LINE
8
BLACK
6
CONTINUOUS
10
53.5928
20
-84.0355
11
53.595
21
-84.0392
0
LINE
8
BLACK
6
CONTINUOUS
10
53.595
20
-84.0392
11
53.5965
21
-84.0479
0
LINE
8
BLACK
6
CONTINUOUS
10
53.5965
20
-84.0479
11
53.599
21
-84.0563
0
LINE
8
BLACK
6
CONTINUOUS
10
53.599
20
-84.0563
11
53.5988
21
-84.0606
0
LINE
8
BLACK
6
CONTINUOUS
10
53.5988
20
-84.0606
11
53.5995
21
-84.0649
0
LINE
8
BLACK
6
CONTINUOUS
10
53.5995
20
-84.0649
11
53.5995
21
-84.1125
0
LINE
8
BLACK
6
CONTINUOUS
10
53.5995
20
-84.1125
11
53.5988
21
-84.1167
0
LINE
8
BLACK
6
CONTINUOUS
10
53.5988
20
-84.1167
11
53.599
21
-84.1211
0
LINE
8
BLACK
6
CONTINUOUS
10
53.599
20
-84.1211
11
53.5965
21
-84.1295
0
LINE
8
BLACK
6
CONTINUOUS
10
53.5965
20
-84.1295
11
53.595
21
-84.1381
0
LINE
8
BLACK
6
CONTINUOUS
10
53.595
20
-84.1381
11
53.5928
21
-84.1419
0
LINE
8
BLACK
6
CONTINUOUS
10
53.5928
20
-84.1419
11
53.5916
21
-84.146
0
LINE
8
BLACK
6
CONTINUOUS
10
53.5916
20
-84.146
11
53.544
21
-84.2413
0
LINE
8
BLACK
6
CONTINUOUS
10
53.544
20
-84.2413
11
53.5368
21
-84.2509
0
LINE
8
BLACK
6
CONTINUOUS
10
53.5368
20
-84.2509
11
53.5299
21
-84.2607
0
LINE
8
BLACK
6
CONTINUOUS
10
53.5299
20
-84.2607
11
53.4877
21
-84.303
0
LINE
8
BLACK
6
CONTINUOUS
10
53.4877
20
-84.303
11
53.5299
21
-84.3452
0
LINE
8
BLACK
6
CONTINUOUS
10
53.5299
20
-84.3452
11
53.5368
21
-84.355
0
LINE
8
BLACK
6
CONTINUOUS
10
53.5368
20
-84.355
11
53.544
21
-84.3646
0
LINE
8
BLACK
6
CONTINUOUS
10
53.544
20
-84.3646
11
53.5916
21
-84.4599
0
LINE
8
BLACK
6
CONTINUOUS
10
53.5916
20
-84.4599
11
53.5928
21
-84.464
0
LINE
8
BLACK
6
CONTINUOUS
10
53.5928
20
-84.464
11
53.595
21
-84.4678
0
LINE
8
BLACK
6
CONTINUOUS
10
53.595
20
-84.4678
11
53.5965
21
-84.4764
0
LINE
8
BLACK
6
CONTINUOUS
10
53.5965
20
-84.4764
11
53.599
21
-84.4849
0
LINE
8
BLACK
6
CONTINUOUS
10
53.599
20
-84.4849
11
53.5988
21
-84.4892
0
LINE
8
BLACK
6
CONTINUOUS
10
53.5988
20
-84.4892
11
53.5995
21
-84.4934
0
LINE
8
BLACK
6
CONTINUOUS
10
53.5995
20
-84.4934
11
53.5995
21
-84.6839
0
LINE
8
BLACK
6
CONTINUOUS
10
53.5995
20
-84.6839
11
53.5988
21
-84.6882
0
LINE
8
BLACK
6
CONTINUOUS
10
53.5988
20
-84.6882
11
53.599
21
-84.6925
0
LINE
8
BLACK
6
CONTINUOUS
10
53.599
20
-84.6925
11
53.5965
21
-84.7009
0
LINE
8
BLACK
6
CONTINUOUS
10
53.5965
20
-84.7009
11
53.595
21
-84.7096
0
LINE
8
BLACK
6
CONTINUOUS
10
53.595
20
-84.7096
11
53.5928
21
-84.7133
0
LINE
8
BLACK
6
CONTINUOUS
10
53.5928
20
-84.7133
11
53.5916
21
-84.7174
0
LINE
8
BLACK
6
CONTINUOUS
10
53.5916
20
-84.7174
11
53.544
21
-84.8127
0
LINE
8
BLACK
6
CONTINUOUS
10
53.544
20
-84.8127
11
53.5368
21
-84.8223
0
LINE
8
BLACK
6
CONTINUOUS
10
53.5368
20
-84.8223
11
53.5299
21
-84.8322
0
LINE
8
BLACK
6
CONTINUOUS
10
53.5299
20
-84.8322
11
53.4823
21
-84.8798
0
LINE
8
BLACK
6
CONTINUOUS
10
53.4823
20
-84.8798
11
53.4725
21
-84.8867
0
LINE
8
BLACK
6
CONTINUOUS
10
53.4725
20
-84.8867
11
53.4628
21
-84.8938
0
LINE
8
BLACK
6
CONTINUOUS
10
53.4628
20
-84.8938
11
53.3676
21
-84.9415
0
LINE
8
BLACK
6
CONTINUOUS
10
53.3676
20
-84.9415
11
53.3634
21
-84.9427
0
LINE
8
BLACK
6
CONTINUOUS
10
53.3634
20
-84.9427
11
53.3597
21
-84.9449
0
LINE
8
BLACK
6
CONTINUOUS
10
53.3597
20
-84.9449
11
53.351
21
-84.9464
0
LINE
8
BLACK
6
CONTINUOUS
10
53.351
20
-84.9464
11
53.3426
21
-84.9489
0
LINE
8
BLACK
6
CONTINUOUS
10
53.3426
20
-84.9489
11
53.3383
21
-84.9486
0
LINE
8
BLACK
6
CONTINUOUS
10
53.3383
20
-84.9486
11
53.334
21
-84.9494
0
LINE
8
BLACK
6
CONTINUOUS
10
53.334
20
-84.9494
11
53.1436
21
-84.9494
0
LINE
8
BLACK
6
CONTINUOUS
10
53.1436
20
-84.9494
11
53.1393
21
-84.9486
0
LINE
8
BLACK
6
CONTINUOUS
10
53.1393
20
-84.9486
11
53.135
21
-84.9489
0
LINE
8
BLACK
6
CONTINUOUS
10
53.135
20
-84.9489
11
53.1266
21
-84.9464
0
LINE
8
BLACK
6
CONTINUOUS
10
53.1266
20
-84.9464
11
53.1179
21
-84.9449
0
LINE
8
BLACK
6
CONTINUOUS
10
53.1179
20
-84.9449
11
53.1142
21
-84.9427
0
LINE
8
BLACK
6
CONTINUOUS
10
53.1142
20
-84.9427
11
53.11
21
-84.9415
0
LINE
8
BLACK
6
CONTINUOUS
10
53.11
20
-84.9415
11
53.0148
21
-84.8938
0
LINE
8
BLACK
6
CONTINUOUS
10
53.0148
20
-84.8938
11
53.0051
21
-84.8867
0
LINE
8
BLACK
6
CONTINUOUS
10
53.0051
20
-84.8867
11
52.9953
21
-84.8798
0
LINE
8
BLACK
6
CONTINUOUS
10
52.9953
20
-84.8798
11
52.9477
21
-84.8322
0
LINE
8
BLACK
6
CONTINUOUS
10
52.9477
20
-84.8322
11
52.9408
21
-84.8223
0
LINE
8
BLACK
6
CONTINUOUS
10
52.9408
20
-84.8223
11
52.9336
21
-84.8127
0
LINE
8
BLACK
6
CONTINUOUS
10
52.9336
20
-84.8127
11
52.886
21
-84.7174
0
LINE
8
BLACK
6
CONTINUOUS
10
52.886
20
-84.7174
11
52.8848
21
-84.7133
0
LINE
8
BLACK
6
CONTINUOUS
10
52.8848
20
-84.7133
11
52.8826
21
-84.7096
0
LINE
8
BLACK
6
CONTINUOUS
10
52.8826
20
-84.7096
11
52.8811
21
-84.7009
0
LINE
8
BLACK
6
CONTINUOUS
10
52.8811
20
-84.7009
11
52.8786
21
-84.6925
0
LINE
8
BLACK
6
CONTINUOUS
10
52.8786
20
-84.6925
11
52.8788
21
-84.6882
0
LINE
8
BLACK
6
CONTINUOUS
10
52.8788
20
-84.6882
11
52.8781
21
-84.6839
0
LINE
8
BLACK
6
CONTINUOUS
10
52.8781
20
-84.6839
11
52.8781
21
-84.4934
0
LINE
8
BLACK
6
CONTINUOUS
10
52.8781
20
-84.4934
11
52.8788
21
-84.4892
0
LINE
8
BLACK
6
CONTINUOUS
10
52.8788
20
-84.4892
11
52.8786
21
-84.4849
0
LINE
8
BLACK
6
CONTINUOUS
10
52.8786
20
-84.4849
11
52.8811
21
-84.4764
0
LINE
8
BLACK
6
CONTINUOUS
10
52.8811
20
-84.4764
11
52.8826
21
-84.4678
0
LINE
8
BLACK
6
CONTINUOUS
10
52.8826
20
-84.4678
11
52.8848
21
-84.464
0
LINE
8
BLACK
6
CONTINUOUS
10
52.8848
20
-84.464
11
52.886
21
-84.4599
0
LINE
8
BLACK
6
CONTINUOUS
10
52.886
20
-84.4599
11
52.9336
21
-84.3646
0
LINE
8
BLACK
6
CONTINUOUS
10
52.9336
20
-84.3646
11
52.9408
21
-84.355
0
LINE
8
BLACK
6
CONTINUOUS
10
52.9408
20
-84.355
11
52.9477
21
-84.3452
0
LINE
8
BLACK
6
CONTINUOUS
10
52.9477
20
-84.3452
11
52.9899
21
-84.303
0
LINE
8
BLACK
6
CONTINUOUS
10
52.9899
20
-84.303
11
52.9477
21
-84.2607
0
LINE
8
BLACK
6
CONTINUOUS
10
52.9477
20
-84.2607
11
52.9408
21
-84.2509
0
LINE
8
BLACK
6
CONTINUOUS
10
52.9408
20
-84.2509
11
52.9336
21
-84.2413
0
LINE
8
BLACK
6
CONTINUOUS
10
52.9336
20
-84.2413
11
52.886
21
-84.146
0
LINE
8
BLACK
6
CONTINUOUS
10
52.886
20
-84.146
11
52.8848
21
-84.1419
0
LINE
8
BLACK
6
CONTINUOUS
10
52.8848
20
-84.1419
11
52.8826
21
-84.1381
0
LINE
8
BLACK
6
CONTINUOUS
10
52.8826
20
-84.1381
11
52.8811
21
-84.1295
0
LINE
8
BLACK
6
CONTINUOUS
10
52.8811
20
-84.1295
11
52.8786
21
-84.121
0
LINE
8
BLACK
6
CONTINUOUS
10
52.8786
20
-84.121
11
52.8788
21
-84.1167
0
LINE
8
BLACK
6
CONTINUOUS
10
52.8788
20
-84.1167
11
52.8781
21
-84.1125
0
LINE
8
BLACK
6
CONTINUOUS
10
52.8781
20
-84.1125
11
52.8781
21
-84.0649
0
LINE
8
BLACK
6
CONTINUOUS
10
52.8781
20
-84.0649
11
52.8788
21
-84.0606
0
LINE
8
BLACK
6
CONTINUOUS
10
52.8788
20
-84.0606
11
52.8786
21
-84.0563
0
LINE
8
BLACK
6
CONTINUOUS
10
52.8786
20
-84.0563
11
52.8811
21
-84.0479
0
LINE
8
BLACK
6
CONTINUOUS
10
52.8811
20
-84.0479
11
52.8826
21
-84.0392
0
LINE
8
BLACK
6
CONTINUOUS
10
52.8826
20
-84.0392
11
52.8848
21
-84.0355
0
LINE
8
BLACK
6
CONTINUOUS
10
52.8848
20
-84.0355
11
52.886
21
-84.0313
0
LINE
8
BLACK
6
CONTINUOUS
10
52.886
20
-84.0313
11
52.9336
21
-83.9361
0
LINE
8
BLACK
6
CONTINUOUS
10
52.9336
20
-83.9361
11
52.9408
21
-83.9264
0
LINE
8
BLACK
6
CONTINUOUS
10
52.9408
20
-83.9264
11
52.9477
21
-83.9166
0
LINE
8
BLACK
6
CONTINUOUS
10
52.9477
20
-83.9166
11
52.9953
21
-83.869
0
LINE
8
BLACK
6
CONTINUOUS
10
52.9953
20
-83.869
11
53.0051
21
-83.8621
0
LINE
8
BLACK
6
CONTINUOUS
10
53.0051
20
-83.8621
11
53.0148
21
-83.8549
0
LINE
8
BLACK
6
CONTINUOUS
10
53.0148
20
-83.8549
11
53.11
21
-83.8073
0
LINE
8
BLACK
6
CONTINUOUS
10
53.11
20
-83.8073
11
53.1142
21
-83.8061
0
LINE
8
BLACK
6
CONTINUOUS
10
53.1142
20
-83.8061
11
53.1179
21
-83.8039
0
LINE
8
BLACK
6
CONTINUOUS
10
53.1179
20
-83.8039
11
53.1266
21
-83.8024
0
LINE
8
BLACK
6
CONTINUOUS
10
53.1266
20
-83.8024
11
53.135
21
-83.7999
0
LINE
8
BLACK
6
CONTINUOUS
10
53.135
20
-83.7999
11
53.1393
21
-83.8001
0
LINE
8
BLACK
6
CONTINUOUS
10
53.1393
20
-83.8001
11
53.1436
21
-83.7994
0
LINE
8
BLACK
6
CONTINUOUS
10
53.1436
20
-83.7994
11
53.334
21
-83.7994
0
LINE
8
BLACK
6
CONTINUOUS
10
53.334
20
-83.7994
11
53.3383
21
-83.8001
0
LINE
8
BLACK
6
CONTINUOUS
10
53.1613
20
-84.378
11
53.0928
21
-84.4122
0
LINE
8
BLACK
6
CONTINUOUS
10
53.0928
20
-84.4122
11
53.0624
21
-84.4426
0
LINE
8
BLACK
6
CONTINUOUS
10
53.0624
20
-84.4426
11
53.0281
21
-84.5111
0
LINE
8
BLACK
6
CONTINUOUS
10
53.0281
20
-84.5111
11
53.0281
21
-84.6662
0
LINE
8
BLACK
6
CONTINUOUS
10
53.0281
20
-84.6662
11
53.0624
21
-84.7347
0
LINE
8
BLACK
6
CONTINUOUS
10
53.0624
20
-84.7347
11
53.0928
21
-84.7651
0
LINE
8
BLACK
6
CONTINUOUS
10
53.0928
20
-84.7651
11
53.1613
21
-84.7994
0
LINE
8
BLACK
6
CONTINUOUS
10
53.1613
20
-84.7994
11
53.3163
21
-84.7994
0
LINE
8
BLACK
6
CONTINUOUS
10
53.3163
20
-84.7994
11
53.3849
21
-84.7651
0
LINE
8
BLACK
6
CONTINUOUS
10
53.3849
20
-84.7651
11
53.4153
21
-84.7347
0
LINE
8
BLACK
6
CONTINUOUS
10
53.4153
20
-84.7347
11
53.4495
21
-84.6662
0
LINE
8
BLACK
6
CONTINUOUS
10
53.4495
20
-84.6662
11
53.4495
21
-84.5111
0
LINE
8
BLACK
6
CONTINUOUS
10
53.4495
20
-84.5111
11
53.4153
21
-84.4426
0
LINE
8
BLACK
6
CONTINUOUS
10
53.4153
20
-84.4426
11
53.3849
21
-84.4122
0
LINE
8
BLACK
6
CONTINUOUS
10
53.3849
20
-84.4122
11
53.3163
21
-84.378
0
LINE
8
BLACK
6
CONTINUOUS
10
53.3163
20
-84.378
11
53.1613
21
-84.378
0
LINE
8
BLACK
6
CONTINUOUS
10
53.1613
20
-83.9494
11
53.0928
21
-83.9836
0
LINE
8
BLACK
6
CONTINUOUS
10
53.0928
20
-83.9836
11
53.0624
21
-84.014
0
LINE
8
BLACK
6
CONTINUOUS
10
53.0624
20
-84.014
11
53.0281
21
-84.0826
0
LINE
8
BLACK
6
CONTINUOUS
10
53.0281
20
-84.0826
11
53.0281
21
-84.0948
0
LINE
8
BLACK
6
CONTINUOUS
10
53.0281
20
-84.0948
11
53.0624
21
-84.1633
0
LINE
8
BLACK
6
CONTINUOUS
10
53.0624
20
-84.1633
11
53.0928
21
-84.1937
0
LINE
8
BLACK
6
CONTINUOUS
10
53.0928
20
-84.1937
11
53.1613
21
-84.228
0
LINE
8
BLACK
6
CONTINUOUS
10
53.1613
20
-84.228
11
53.3163
21
-84.228
0
LINE
8
BLACK
6
CONTINUOUS
10
53.3163
20
-84.228
11
53.3849
21
-84.1937
0
LINE
8
BLACK
6
CONTINUOUS
10
53.3849
20
-84.1937
11
53.4153
21
-84.1633
0
LINE
8
BLACK
6
CONTINUOUS
10
53.4153
20
-84.1633
11
53.4495
21
-84.0948
0
LINE
8
BLACK
6
CONTINUOUS
10
53.4495
20
-84.0948
11
53.4495
21
-84.0826
0
LINE
8
BLACK
6
CONTINUOUS
10
53.4495
20
-84.0826
11
53.4153
21
-84.014
0
LINE
8
BLACK
6
CONTINUOUS
10
53.4153
20
-84.014
11
53.3849
21
-83.9836
0
LINE
8
BLACK
6
CONTINUOUS
10
53.3849
20
-83.9836
11
53.3163
21
-83.9494
0
LINE
8
BLACK
6
CONTINUOUS
10
53.3163
20
-83.9494
11
53.1613
21
-83.9494
0
LINE
8
BLACK
6
CONTINUOUS
10
54.1953
20
-83.8005
11
54.2042
21
-83.8005
0
LINE
8
BLACK
6
CONTINUOUS
10
54.2042
20
-83.8005
11
54.2081
21
-83.8019
0
LINE
8
BLACK
6
CONTINUOUS
10
54.2081
20
-83.8019
11
54.2123
21
-83.8024
0
LINE
8
BLACK
6
CONTINUOUS
10
54.2123
20
-83.8024
11
54.2203
21
-83.8064
0
LINE
8
BLACK
6
CONTINUOUS
10
54.2203
20
-83.8064
11
54.2287
21
-83.8094
0
LINE
8
BLACK
6
CONTINUOUS
10
54.2287
20
-83.8094
11
54.2319
21
-83.8121
0
LINE
8
BLACK
6
CONTINUOUS
10
54.2319
20
-83.8121
11
54.2356
21
-83.8139
0
LINE
8
BLACK
6
CONTINUOUS
10
54.2356
20
-83.8139
11
54.2418
21
-83.8204
0
LINE
8
BLACK
6
CONTINUOUS
10
54.2418
20
-83.8204
11
54.2486
21
-83.8262
0
LINE
8
BLACK
6
CONTINUOUS
10
54.2486
20
-83.8262
11
54.2507
21
-83.8298
0
LINE
8
BLACK
6
CONTINUOUS
10
54.2507
20
-83.8298
11
54.2536
21
-83.8328
0
LINE
8
BLACK
6
CONTINUOUS
10
54.2536
20
-83.8328
11
54.3447
21
-83.9695
0
LINE
8
BLACK
6
CONTINUOUS
10
54.3447
20
-83.9695
11
54.4261
21
-84.0508
0
LINE
8
BLACK
6
CONTINUOUS
10
54.4261
20
-84.0508
11
54.5104
21
-84.093
0
LINE
8
BLACK
6
CONTINUOUS
10
54.5104
20
-84.093
11
54.5314
21
-84.1085
0
LINE
8
BLACK
6
CONTINUOUS
10
54.5314
20
-84.1085
11
54.5457
21
-84.1303
0
LINE
8
BLACK
6
CONTINUOUS
10
54.5457
20
-84.1303
11
54.5518
21
-84.1556
0
LINE
8
BLACK
6
CONTINUOUS
10
54.5518
20
-84.1556
11
54.5488
21
-84.1815
0
LINE
8
BLACK
6
CONTINUOUS
10
54.5488
20
-84.1815
11
54.5371
21
-84.2048
0
LINE
8
BLACK
6
CONTINUOUS
10
54.5371
20
-84.2048
11
54.5182
21
-84.2227
0
LINE
8
BLACK
6
CONTINUOUS
10
54.5182
20
-84.2227
11
54.4943
21
-84.233
0
LINE
8
BLACK
6
CONTINUOUS
10
54.4943
20
-84.233
11
54.4683
21
-84.2346
0
LINE
8
BLACK
6
CONTINUOUS
10
54.4683
20
-84.2346
11
54.4434
21
-84.2272
0
LINE
8
BLACK
6
CONTINUOUS
10
54.4434
20
-84.2272
11
54.3481
21
-84.1796
0
LINE
8
BLACK
6
CONTINUOUS
10
54.3481
20
-84.1796
11
54.3385
21
-84.1724
0
LINE
8
BLACK
6
CONTINUOUS
10
54.3385
20
-84.1724
11
54.3286
21
-84.1655
0
LINE
8
BLACK
6
CONTINUOUS
10
54.3286
20
-84.1655
11
54.2662
21
-84.1031
0
LINE
8
BLACK
6
CONTINUOUS
10
54.2662
20
-84.1031
11
54.2662
21
-84.7994
0
LINE
8
BLACK
6
CONTINUOUS
10
54.2662
20
-84.7994
11
54.4769
21
-84.7994
0
LINE
8
BLACK
6
CONTINUOUS
10
54.4769
20
-84.7994
11
54.5026
21
-84.8039
0
LINE
8
BLACK
6
CONTINUOUS
10
54.5026
20
-84.8039
11
54.5251
21
-84.8169
0
LINE
8
BLACK
6
CONTINUOUS
10
54.5251
20
-84.8169
11
54.5419
21
-84.8369
0
LINE
8
BLACK
6
CONTINUOUS
10
54.5419
20
-84.8369
11
54.5508
21
-84.8614
0
LINE
8
BLACK
6
CONTINUOUS
10
54.5508
20
-84.8614
11
54.5508
21
-84.8874
0
LINE
8
BLACK
6
CONTINUOUS
10
54.5508
20
-84.8874
11
54.5419
21
-84.9119
0
LINE
8
BLACK
6
CONTINUOUS
10
54.5419
20
-84.9119
11
54.5251
21
-84.9318
0
LINE
8
BLACK
6
CONTINUOUS
10
54.5251
20
-84.9318
11
54.5026
21
-84.9449
0
LINE
8
BLACK
6
CONTINUOUS
10
54.5026
20
-84.9449
11
54.4769
21
-84.9494
0
LINE
8
BLACK
6
CONTINUOUS
10
54.4769
20
-84.9494
11
53.9055
21
-84.9494
0
LINE
8
BLACK
6
CONTINUOUS
10
53.9055
20
-84.9494
11
53.8798
21
-84.9449
0
LINE
8
BLACK
6
CONTINUOUS
10
53.8798
20
-84.9449
11
53.8573
21
-84.9318
0
LINE
8
BLACK
6
CONTINUOUS
10
53.8573
20
-84.9318
11
53.8405
21
-84.9119
0
LINE
8
BLACK
6
CONTINUOUS
10
53.8405
20
-84.9119
11
53.8316
21
-84.8874
0
LINE
8
BLACK
6
CONTINUOUS
10
53.8316
20
-84.8874
11
53.8316
21
-84.8614
0
LINE
8
BLACK
6
CONTINUOUS
10
53.8316
20
-84.8614
11
53.8405
21
-84.8369
0
LINE
8
BLACK
6
CONTINUOUS
10
53.8405
20
-84.8369
11
53.8573
21
-84.8169
0
LINE
8
BLACK
6
CONTINUOUS
10
53.8573
20
-84.8169
11
53.8798
21
-84.8039
0
LINE
8
BLACK
6
CONTINUOUS
10
53.8798
20
-84.8039
11
53.9055
21
-84.7994
0
LINE
8
BLACK
6
CONTINUOUS
10
53.9055
20
-84.7994
11
54.1162
21
-84.7994
0
LINE
8
BLACK
6
CONTINUOUS
10
54.1162
20
-84.7994
11
54.1162
21
-83.8744
0
LINE
8
BLACK
6
CONTINUOUS
10
54.1162
20
-83.8744
11
54.1169
21
-83.8703
0
LINE
8
BLACK
6
CONTINUOUS
10
54.1169
20
-83.8703
11
54.1166
21
-83.8661
0
LINE
8
BLACK
6
CONTINUOUS
10
54.1166
20
-83.8661
11
54.1192
21
-83.8575
0
LINE
8
BLACK
6
CONTINUOUS
10
54.1192
20
-83.8575
11
54.1207
21
-83.8487
0
LINE
8
BLACK
6
CONTINUOUS
10
54.1207
20
-83.8487
11
54.1228
21
-83.8451
0
LINE
8
BLACK
6
CONTINUOUS
10
54.1228
20
-83.8451
11
54.124
21
-83.8411
0
LINE
8
BLACK
6
CONTINUOUS
10
54.124
20
-83.8411
11
54.1293
21
-83.8339
0
LINE
8
BLACK
6
CONTINUOUS
10
54.1293
20
-83.8339
11
54.1337
21
-83.8262
0
LINE
8
BLACK
6
CONTINUOUS
10
54.1337
20
-83.8262
11
54.1369
21
-83.8235
0
LINE
8
BLACK
6
CONTINUOUS
10
54.1369
20
-83.8235
11
54.1394
21
-83.8201
0
LINE
8
BLACK
6
CONTINUOUS
10
54.1394
20
-83.8201
11
54.1468
21
-83.8152
0
LINE
8
BLACK
6
CONTINUOUS
10
54.1468
20
-83.8152
11
54.1537
21
-83.8094
0
LINE
8
BLACK
6
CONTINUOUS
10
54.1537
20
-83.8094
11
54.1576
21
-83.808
0
LINE
8
BLACK
6
CONTINUOUS
10
54.1576
20
-83.808
11
54.1611
21
-83.8057
0
LINE
8
BLACK
6
CONTINUOUS
10
54.1611
20
-83.8057
11
54.1698
21
-83.8036
0
LINE
8
BLACK
6
CONTINUOUS
10
54.1698
20
-83.8036
11
54.1782
21
-83.8005
0
LINE
8
BLACK
6
CONTINUOUS
10
54.1782
20
-83.8005
11
54.1823
21
-83.8005
0
LINE
8
BLACK
6
CONTINUOUS
10
54.1823
20
-83.8005
11
54.1864
21
-83.7995
0
LINE
8
BLACK
6
CONTINUOUS
10
54.1864
20
-83.7995
11
54.1953
21
-83.8005
0
LINE
8
BLACK
6
CONTINUOUS
10
55.4357
20
-83.8005
11
55.4423
21
-83.8005
0
LINE
8
BLACK
6
CONTINUOUS
10
55.4423
20
-83.8005
11
55.4485
21
-83.8028
0
LINE
8
BLACK
6
CONTINUOUS
10
55.4485
20
-83.8028
11
55.4549
21
-83.8039
0
LINE
8
BLACK
6
CONTINUOUS
10
55.4549
20
-83.8039
11
55.4606
21
-83.8072
0
LINE
8
BLACK
6
CONTINUOUS
10
55.4606
20
-83.8072
11
55.4668
21
-83.8094
0
LINE
8
BLACK
6
CONTINUOUS
10
55.4668
20
-83.8094
11
55.4718
21
-83.8136
0
LINE
8
BLACK
6
CONTINUOUS
10
55.4718
20
-83.8136
11
55.4775
21
-83.8169
0
LINE
8
BLACK
6
CONTINUOUS
10
55.4775
20
-83.8169
11
55.4817
21
-83.822
0
LINE
8
BLACK
6
CONTINUOUS
10
55.4817
20
-83.822
11
55.4867
21
-83.8262
0
LINE
8
BLACK
6
CONTINUOUS
10
55.4867
20
-83.8262
11
55.49
21
-83.8319
0
LINE
8
BLACK
6
CONTINUOUS
10
55.49
20
-83.8319
11
55.4942
21
-83.8369
0
LINE
8
BLACK
6
CONTINUOUS
10
55.4942
20
-83.8369
11
55.4965
21
-83.843
0
LINE
8
BLACK
6
CONTINUOUS
10
55.4965
20
-83.843
11
55.4998
21
-83.8487
0
LINE
8
BLACK
6
CONTINUOUS
10
55.4998
20
-83.8487
11
55.5009
21
-83.8552
0
LINE
8
BLACK
6
CONTINUOUS
10
55.5009
20
-83.8552
11
55.5031
21
-83.8614
0
LINE
8
BLACK
6
CONTINUOUS
10
55.5031
20
-83.8614
11
55.5031
21
-83.8679
0
LINE
8
BLACK
6
CONTINUOUS
10
55.5031
20
-83.8679
11
55.5043
21
-83.8744
0
LINE
8
BLACK
6
CONTINUOUS
10
55.5043
20
-83.8744
11
55.5043
21
-84.8744
0
LINE
8
BLACK
6
CONTINUOUS
10
55.5043
20
-84.8744
11
55.5031
21
-84.8808
0
LINE
8
BLACK
6
CONTINUOUS
10
55.5031
20
-84.8808
11
55.5031
21
-84.8874
0
LINE
8
BLACK
6
CONTINUOUS
10
55.5031
20
-84.8874
11
55.5009
21
-84.8936
0
LINE
8
BLACK
6
CONTINUOUS
10
55.5009
20
-84.8936
11
55.4998
21
-84.9
0
LINE
8
BLACK
6
CONTINUOUS
10
55.4998
20
-84.9
11
55.4965
21
-84.9057
0
LINE
8
BLACK
6
CONTINUOUS
10
55.4965
20
-84.9057
11
55.4942
21
-84.9119
0
LINE
8
BLACK
6
CONTINUOUS
10
55.4942
20
-84.9119
11
55.49
21
-84.9169
0
LINE
8
BLACK
6
CONTINUOUS
10
55.49
20
-84.9169
11
55.4867
21
-84.9226
0
LINE
8
BLACK
6
CONTINUOUS
10
55.4867
20
-84.9226
11
55.4817
21
-84.9268
0
LINE
8
BLACK
6
CONTINUOUS
10
55.4817
20
-84.9268
11
55.4775
21
-84.9318
0
LINE
8
BLACK
6
CONTINUOUS
10
55.4775
20
-84.9318
11
55.4718
21
-84.9351
0
LINE
8
BLACK
6
CONTINUOUS
10
55.4718
20
-84.9351
11
55.4668
21
-84.9393
0
LINE
8
BLACK
6
CONTINUOUS
10
55.4668
20
-84.9393
11
55.4606
21
-84.9416
0
LINE
8
BLACK
6
CONTINUOUS
10
55.4606
20
-84.9416
11
55.4549
21
-84.9449
0
LINE
8
BLACK
6
CONTINUOUS
10
55.4549
20
-84.9449
11
55.4485
21
-84.946
0
LINE
8
BLACK
6
CONTINUOUS
10
55.4485
20
-84.946
11
55.4423
21
-84.9482
0
LINE
8
BLACK
6
CONTINUOUS
10
55.4423
20
-84.9482
11
55.4357
21
-84.9482
0
LINE
8
BLACK
6
CONTINUOUS
10
55.4357
20
-84.9482
11
55.4293
21
-84.9494
0
LINE
8
BLACK
6
CONTINUOUS
10
55.4293
20
-84.9494
11
55.1912
21
-84.9494
0
LINE
8
BLACK
6
CONTINUOUS
10
55.1912
20
-84.9494
11
55.1794
21
-84.9473
0
LINE
8
BLACK
6
CONTINUOUS
10
55.1794
20
-84.9473
11
55.1675
21
-84.9455
0
LINE
8
BLACK
6
CONTINUOUS
10
55.1675
20
-84.9455
11
55.0246
21
-84.8979
0
LINE
8
BLACK
6
CONTINUOUS
10
55.0246
20
-84.8979
11
55.0208
21
-84.8959
0
LINE
8
BLACK
6
CONTINUOUS
10
55.0208
20
-84.8959
11
55.0166
21
-84.8947
0
LINE
8
BLACK
6
CONTINUOUS
10
55.0166
20
-84.8947
11
55.0094
21
-84.8897
0
LINE
8
BLACK
6
CONTINUOUS
10
55.0094
20
-84.8897
11
55.0017
21
-84.8855
0
LINE
8
BLACK
6
CONTINUOUS
10
55.0017
20
-84.8855
11
54.9988
21
-84.8823
0
LINE
8
BLACK
6
CONTINUOUS
10
54.9988
20
-84.8823
11
54.9953
21
-84.8798
0
LINE
8
BLACK
6
CONTINUOUS
10
54.9953
20
-84.8798
11
54.9001
21
-84.7846
0
LINE
8
BLACK
6
CONTINUOUS
10
54.9001
20
-84.7846
11
54.8932
21
-84.7747
0
LINE
8
BLACK
6
CONTINUOUS
10
54.8932
20
-84.7747
11
54.886
21
-84.7651
0
LINE
8
BLACK
6
CONTINUOUS
10
54.886
20
-84.7651
11
54.8384
21
-84.6698
0
LINE
8
BLACK
6
CONTINUOUS
10
54.8384
20
-84.6698
11
54.8361
21
-84.662
0
LINE
8
BLACK
6
CONTINUOUS
10
54.8361
20
-84.662
11
54.8327
21
-84.6545
0
LINE
8
BLACK
6
CONTINUOUS
10
54.8327
20
-84.6545
11
54.7851
21
-84.464
0
LINE
8
BLACK
6
CONTINUOUS
10
54.7851
20
-84.464
11
54.7844
21
-84.4548
0
LINE
8
BLACK
6
CONTINUOUS
10
54.7844
20
-84.4548
11
54.7829
21
-84.4458
0
LINE
8
BLACK
6
CONTINUOUS
10
54.7829
20
-84.4458
11
54.7829
21
-84.303
0
LINE
8
BLACK
6
CONTINUOUS
10
54.7829
20
-84.303
11
54.7844
21
-84.2939
0
LINE
8
BLACK
6
CONTINUOUS
10
54.7844
20
-84.2939
11
54.7851
21
-84.2848
0
LINE
8
BLACK
6
CONTINUOUS
10
54.7851
20
-84.2848
11
54.8327
21
-84.0943
0
LINE
8
BLACK
6
CONTINUOUS
10
54.8327
20
-84.0943
11
54.8361
21
-84.0868
0
LINE
8
BLACK
6
CONTINUOUS
10
54.8361
20
-84.0868
11
54.8384
21
-84.0789
0
LINE
8
BLACK
6
CONTINUOUS
10
54.8384
20
-84.0789
11
54.886
21
-83.9837
0
LINE
8
BLACK
6
CONTINUOUS
10
54.886
20
-83.9837
11
54.8932
21
-83.974
0
LINE
8
BLACK
6
CONTINUOUS
10
54.8932
20
-83.974
11
54.9001
21
-83.9642
0
LINE
8
BLACK
6
CONTINUOUS
10
54.9001
20
-83.9642
11
54.9953
21
-83.869
0
LINE
8
BLACK
6
CONTINUOUS
10
54.9953
20
-83.869
11
54.9988
21
-83.8665
0
LINE
8
BLACK
6
CONTINUOUS
10
54.9988
20
-83.8665
11
55.0017
21
-83.8633
0
LINE
8
BLACK
6
CONTINUOUS
10
55.0017
20
-83.8633
11
55.0094
21
-83.8591
0
LINE
8
BLACK
6
CONTINUOUS
10
55.0094
20
-83.8591
11
55.0166
21
-83.854
0
LINE
8
BLACK
6
CONTINUOUS
10
55.0166
20
-83.854
11
55.0208
21
-83.8529
0
LINE
8
BLACK
6
CONTINUOUS
10
55.0208
20
-83.8529
11
55.0246
21
-83.8508
0
LINE
8
BLACK
6
CONTINUOUS
10
55.0246
20
-83.8508
11
55.1675
21
-83.8032
0
LINE
8
BLACK
6
CONTINUOUS
10
55.1675
20
-83.8032
11
55.1793
21
-83.8015
0
LINE
8
BLACK
6
CONTINUOUS
10
55.1793
20
-83.8015
11
55.1912
21
-83.7994
0
LINE
8
BLACK
6
CONTINUOUS
10
55.1912
20
-83.7994
11
55.4293
21
-83.7994
0
LINE
8
BLACK
6
CONTINUOUS
10
55.4293
20
-83.7994
11
55.4357
21
-83.8005
0
LINE
8
BLACK
6
CONTINUOUS
10
55.2034
20
-83.9494
11
55.0888
21
-83.9876
0
LINE
8
BLACK
6
CONTINUOUS
10
55.0888
20
-83.9876
11
55.0147
21
-84.0617
0
LINE
8
BLACK
6
CONTINUOUS
10
55.0147
20
-84.0617
11
54.9762
21
-84.1387
0
LINE
8
BLACK
6
CONTINUOUS
10
54.9762
20
-84.1387
11
54.9329
21
-84.3122
0
LINE
8
BLACK
6
CONTINUOUS
10
54.9329
20
-84.3122
11
54.9329
21
-84.4366
0
LINE
8
BLACK
6
CONTINUOUS
10
54.9329
20
-84.4366
11
54.9762
21
-84.6101
0
LINE
8
BLACK
6
CONTINUOUS
10
54.9762
20
-84.6101
11
55.0147
21
-84.6871
0
LINE
8
BLACK
6
CONTINUOUS
10
55.0147
20
-84.6871
11
55.0888
21
-84.7612
0
LINE
8
BLACK
6
CONTINUOUS
10
55.0888
20
-84.7612
11
55.2034
21
-84.7994
0
LINE
8
BLACK
6
CONTINUOUS
10
55.2034
20
-84.7994
11
55.3543
21
-84.7994
0
LINE
8
BLACK
6
CONTINUOUS
10
55.3543
20
-84.7994
11
55.3543
21
-83.9494
0
LINE
8
BLACK
6
CONTINUOUS
10
55.3543
20
-83.9494
11
55.2034
21
-83.9494
0
LINE
8
BLACK
6
CONTINUOUS
10
106.128
20
-68.4675
11
106.14
21
-68.4692
0
LINE
8
BLACK
6
CONTINUOUS
10
106.14
20
-68.4692
11
106.283
21
-68.5168
0
LINE
8
BLACK
6
CONTINUOUS
10
106.283
20
-68.5168
11
106.287
21
-68.5189
0
LINE
8
BLACK
6
CONTINUOUS
10
106.287
20
-68.5189
11
106.291
21
-68.52
0
LINE
8
BLACK
6
CONTINUOUS
10
106.291
20
-68.52
11
106.298
21
-68.5251
0
LINE
8
BLACK
6
CONTINUOUS
10
106.298
20
-68.5251
11
106.306
21
-68.5293
0
LINE
8
BLACK
6
CONTINUOUS
10
106.306
20
-68.5293
11
106.309
21
-68.5325
0
LINE
8
BLACK
6
CONTINUOUS
10
106.309
20
-68.5325
11
106.312
21
-68.535
0
LINE
8
BLACK
6
CONTINUOUS
10
106.312
20
-68.535
11
106.408
21
-68.6302
0
LINE
8
BLACK
6
CONTINUOUS
10
106.408
20
-68.6302
11
106.414
21
-68.6401
0
LINE
8
BLACK
6
CONTINUOUS
10
106.414
20
-68.6401
11
106.422
21
-68.6497
0
LINE
8
BLACK
6
CONTINUOUS
10
106.422
20
-68.6497
11
106.469
21
-68.7449
0
LINE
8
BLACK
6
CONTINUOUS
10
106.469
20
-68.7449
11
106.472
21
-68.7528
0
LINE
8
BLACK
6
CONTINUOUS
10
106.472
20
-68.7528
11
106.475
21
-68.7603
0
LINE
8
BLACK
6
CONTINUOUS
10
106.475
20
-68.7603
11
106.522
21
-68.9508
0
LINE
8
BLACK
6
CONTINUOUS
10
106.522
20
-68.9508
11
106.523
21
-68.9599
0
LINE
8
BLACK
6
CONTINUOUS
10
106.523
20
-68.9599
11
106.525
21
-68.969
0
LINE
8
BLACK
6
CONTINUOUS
10
106.525
20
-68.969
11
106.525
21
-69.1118
0
LINE
8
BLACK
6
CONTINUOUS
10
106.525
20
-69.1118
11
106.523
21
-69.1208
0
LINE
8
BLACK
6
CONTINUOUS
10
106.523
20
-69.1208
11
106.522
21
-69.13
0
LINE
8
BLACK
6
CONTINUOUS
10
106.522
20
-69.13
11
106.475
21
-69.3205
0
LINE
8
BLACK
6
CONTINUOUS
10
106.475
20
-69.3205
11
106.472
21
-69.328
0
LINE
8
BLACK
6
CONTINUOUS
10
106.472
20
-69.328
11
106.469
21
-69.3358
0
LINE
8
BLACK
6
CONTINUOUS
10
106.469
20
-69.3358
11
106.422
21
-69.4311
0
LINE
8
BLACK
6
CONTINUOUS
10
106.422
20
-69.4311
11
106.414
21
-69.4407
0
LINE
8
BLACK
6
CONTINUOUS
10
106.414
20
-69.4407
11
106.408
21
-69.4506
0
LINE
8
BLACK
6
CONTINUOUS
10
106.408
20
-69.4506
11
106.312
21
-69.5458
0
LINE
8
BLACK
6
CONTINUOUS
10
106.312
20
-69.5458
11
106.309
21
-69.5483
0
LINE
8
BLACK
6
CONTINUOUS
10
106.309
20
-69.5483
11
106.306
21
-69.5515
0
LINE
8
BLACK
6
CONTINUOUS
10
106.306
20
-69.5515
11
106.298
21
-69.5557
0
LINE
8
BLACK
6
CONTINUOUS
10
106.298
20
-69.5557
11
106.291
21
-69.5607
0
LINE
8
BLACK
6
CONTINUOUS
10
106.291
20
-69.5607
11
106.287
21
-69.5619
0
LINE
8
BLACK
6
CONTINUOUS
10
106.287
20
-69.5619
11
106.283
21
-69.5639
0
LINE
8
BLACK
6
CONTINUOUS
10
106.283
20
-69.5639
11
106.14
21
-69.6115
0
LINE
8
BLACK
6
CONTINUOUS
10
106.14
20
-69.6115
11
106.128
21
-69.6133
0
LINE
8
BLACK
6
CONTINUOUS
10
106.128
20
-69.6133
11
106.116
21
-69.6154
0
LINE
8
BLACK
6
CONTINUOUS
10
106.116
20
-69.6154
11
106.021
21
-69.6154
0
LINE
8
BLACK
6
CONTINUOUS
10
106.021
20
-69.6154
11
106.009
21
-69.6133
0
LINE
8
BLACK
6
CONTINUOUS
10
106.009
20
-69.6133
11
105.997
21
-69.6115
0
LINE
8
BLACK
6
CONTINUOUS
10
105.997
20
-69.6115
11
105.855
21
-69.5639
0
LINE
8
BLACK
6
CONTINUOUS
10
105.855
20
-69.5639
11
105.851
21
-69.5619
0
LINE
8
BLACK
6
CONTINUOUS
10
105.851
20
-69.5619
11
105.847
21
-69.5607
0
LINE
8
BLACK
6
CONTINUOUS
10
105.847
20
-69.5607
11
105.839
21
-69.5557
0
LINE
8
BLACK
6
CONTINUOUS
10
105.839
20
-69.5557
11
105.832
21
-69.5515
0
LINE
8
BLACK
6
CONTINUOUS
10
105.832
20
-69.5515
11
105.829
21
-69.5483
0
LINE
8
BLACK
6
CONTINUOUS
10
105.829
20
-69.5483
11
105.825
21
-69.5458
0
LINE
8
BLACK
6
CONTINUOUS
10
105.825
20
-69.5458
11
105.778
21
-69.4982
0
LINE
8
BLACK
6
CONTINUOUS
10
105.778
20
-69.4982
11
105.763
21
-69.4768
0
LINE
8
BLACK
6
CONTINUOUS
10
105.763
20
-69.4768
11
105.756
21
-69.4517
0
LINE
8
BLACK
6
CONTINUOUS
10
105.756
20
-69.4517
11
105.758
21
-69.4257
0
LINE
8
BLACK
6
CONTINUOUS
10
105.758
20
-69.4257
11
105.769
21
-69.4021
0
LINE
8
BLACK
6
CONTINUOUS
10
105.769
20
-69.4021
11
105.788
21
-69.3837
0
LINE
8
BLACK
6
CONTINUOUS
10
105.788
20
-69.3837
11
105.811
21
-69.3727
0
LINE
8
BLACK
6
CONTINUOUS
10
105.811
20
-69.3727
11
105.837
21
-69.3704
0
LINE
8
BLACK
6
CONTINUOUS
10
105.837
20
-69.3704
11
105.862
21
-69.3772
0
LINE
8
BLACK
6
CONTINUOUS
10
105.862
20
-69.3772
11
105.884
21
-69.3921
0
LINE
8
BLACK
6
CONTINUOUS
10
105.884
20
-69.3921
11
105.919
21
-69.4272
0
LINE
8
BLACK
6
CONTINUOUS
10
105.919
20
-69.4272
11
106.033
21
-69.4654
0
LINE
8
BLACK
6
CONTINUOUS
10
106.033
20
-69.4654
11
106.104
21
-69.4654
0
LINE
8
BLACK
6
CONTINUOUS
10
106.104
20
-69.4654
11
106.219
21
-69.4272
0
LINE
8
BLACK
6
CONTINUOUS
10
106.219
20
-69.4272
11
106.293
21
-69.3531
0
LINE
8
BLACK
6
CONTINUOUS
10
106.293
20
-69.3531
11
106.331
21
-69.2761
0
LINE
8
BLACK
6
CONTINUOUS
10
106.331
20
-69.2761
11
106.375
21
-69.1026
0
LINE
8
BLACK
6
CONTINUOUS
10
106.375
20
-69.1026
11
106.375
21
-68.9782
0
LINE
8
BLACK
6
CONTINUOUS
10
106.375
20
-68.9782
11
106.331
21
-68.8047
0
LINE
8
BLACK
6
CONTINUOUS
10
106.331
20
-68.8047
11
106.293
21
-68.7277
0
LINE
8
BLACK
6
CONTINUOUS
10
106.293
20
-68.7277
11
106.219
21
-68.6536
0
LINE
8
BLACK
6
CONTINUOUS
10
106.219
20
-68.6536
11
106.104
21
-68.6154
0
LINE
8
BLACK
6
CONTINUOUS
10
106.104
20
-68.6154
11
106.033
21
-68.6154
0
LINE
8
BLACK
6
CONTINUOUS
10
106.033
20
-68.6154
11
105.919
21
-68.6536
0
LINE
8
BLACK
6
CONTINUOUS
10
105.919
20
-68.6536
11
105.884
21
-68.6887
0
LINE
8
BLACK
6
CONTINUOUS
10
105.884
20
-68.6887
11
105.862
21
-68.7036
0
LINE
8
BLACK
6
CONTINUOUS
10
105.862
20
-68.7036
11
105.837
21
-68.7103
0
LINE
8
BLACK
6
CONTINUOUS
10
105.837
20
-68.7103
11
105.811
21
-68.7081
0
LINE
8
BLACK
6
CONTINUOUS
10
105.811
20
-68.7081
11
105.788
21
-68.6971
0
LINE
8
BLACK
6
CONTINUOUS
10
105.788
20
-68.6971
11
105.769
21
-68.6786
0
LINE
8
BLACK
6
CONTINUOUS
10
105.769
20
-68.6786
11
105.758
21
-68.655
0
LINE
8
BLACK
6
CONTINUOUS
10
105.758
20
-68.655
11
105.756
21
-68.6291
0
LINE
8
BLACK
6
CONTINUOUS
10
105.756
20
-68.6291
11
105.763
21
-68.6039
0
LINE
8
BLACK
6
CONTINUOUS
10
105.763
20
-68.6039
11
105.778
21
-68.5826
0
LINE
8
BLACK
6
CONTINUOUS
10
105.778
20
-68.5826
11
105.825
21
-68.535
0
LINE
8
BLACK
6
CONTINUOUS
10
105.825
20
-68.535
11
105.829
21
-68.5325
0
LINE
8
BLACK
6
CONTINUOUS
10
105.829
20
-68.5325
11
105.832
21
-68.5293
0
LINE
8
BLACK
6
CONTINUOUS
10
105.832
20
-68.5293
11
105.839
21
-68.5251
0
LINE
8
BLACK
6
CONTINUOUS
10
105.839
20
-68.5251
11
105.847
21
-68.52
0
LINE
8
BLACK
6
CONTINUOUS
10
105.847
20
-68.52
11
105.851
21
-68.5189
0
LINE
8
BLACK
6
CONTINUOUS
10
105.851
20
-68.5189
11
105.855
21
-68.5168
0
LINE
8
BLACK
6
CONTINUOUS
10
105.855
20
-68.5168
11
105.997
21
-68.4692
0
LINE
8
BLACK
6
CONTINUOUS
10
105.997
20
-68.4692
11
106.009
21
-68.4675
0
LINE
8
BLACK
6
CONTINUOUS
10
106.009
20
-68.4675
11
106.021
21
-68.4654
0
LINE
8
BLACK
6
CONTINUOUS
10
106.021
20
-68.4654
11
106.116
21
-68.4654
0
LINE
8
BLACK
6
CONTINUOUS
10
106.116
20
-68.4654
11
106.128
21
-68.4675
0
LINE
8
BLACK
6
CONTINUOUS
10
101.231
20
-68.4661
11
101.236
21
-68.4659
0
LINE
8
BLACK
6
CONTINUOUS
10
101.236
20
-68.4659
11
101.244
21
-68.4684
0
LINE
8
BLACK
6
CONTINUOUS
10
101.244
20
-68.4684
11
101.253
21
-68.4699
0
LINE
8
BLACK
6
CONTINUOUS
10
101.253
20
-68.4699
11
101.256
21
-68.4721
0
LINE
8
BLACK
6
CONTINUOUS
10
101.256
20
-68.4721
11
101.261
21
-68.4733
0
LINE
8
BLACK
6
CONTINUOUS
10
101.261
20
-68.4733
11
101.356
21
-68.5209
0
LINE
8
BLACK
6
CONTINUOUS
10
101.356
20
-68.5209
11
101.365
21
-68.5281
0
LINE
8
BLACK
6
CONTINUOUS
10
101.365
20
-68.5281
11
101.375
21
-68.535
0
LINE
8
BLACK
6
CONTINUOUS
10
101.375
20
-68.535
11
101.423
21
-68.5826
0
LINE
8
BLACK
6
CONTINUOUS
10
101.423
20
-68.5826
11
101.427
21
-68.5887
0
LINE
8
BLACK
6
CONTINUOUS
10
101.427
20
-68.5887
11
101.432
21
-68.594
0
LINE
8
BLACK
6
CONTINUOUS
10
101.432
20
-68.594
11
101.527
21
-68.7369
0
LINE
8
BLACK
6
CONTINUOUS
10
101.527
20
-68.7369
11
101.533
21
-68.7486
0
LINE
8
BLACK
6
CONTINUOUS
10
101.533
20
-68.7486
11
101.538
21
-68.7603
0
LINE
8
BLACK
6
CONTINUOUS
10
101.538
20
-68.7603
11
101.585
21
-68.9508
0
LINE
8
BLACK
6
CONTINUOUS
10
101.585
20
-68.9508
11
101.586
21
-68.9599
0
LINE
8
BLACK
6
CONTINUOUS
10
101.586
20
-68.9599
11
101.588
21
-68.969
0
LINE
8
BLACK
6
CONTINUOUS
10
101.588
20
-68.969
11
101.588
21
-69.3499
0
LINE
8
BLACK
6
CONTINUOUS
10
101.588
20
-69.3499
11
101.587
21
-69.3542
0
LINE
8
BLACK
6
CONTINUOUS
10
101.587
20
-69.3542
11
101.587
21
-69.3585
0
LINE
8
BLACK
6
CONTINUOUS
10
101.587
20
-69.3585
11
101.585
21
-69.3669
0
LINE
8
BLACK
6
CONTINUOUS
10
101.585
20
-69.3669
11
101.583
21
-69.3756
0
LINE
8
BLACK
6
CONTINUOUS
10
101.583
20
-69.3756
11
101.581
21
-69.3793
0
LINE
8
BLACK
6
CONTINUOUS
10
101.581
20
-69.3793
11
101.58
21
-69.3834
0
LINE
8
BLACK
6
CONTINUOUS
10
101.58
20
-69.3834
11
101.532
21
-69.4787
0
LINE
8
BLACK
6
CONTINUOUS
10
101.532
20
-69.4787
11
101.525
21
-69.4883
0
LINE
8
BLACK
6
CONTINUOUS
10
101.525
20
-69.4883
11
101.518
21
-69.4982
0
LINE
8
BLACK
6
CONTINUOUS
10
101.518
20
-69.4982
11
101.471
21
-69.5458
0
LINE
8
BLACK
6
CONTINUOUS
10
101.471
20
-69.5458
11
101.461
21
-69.5527
0
LINE
8
BLACK
6
CONTINUOUS
10
101.461
20
-69.5527
11
101.451
21
-69.5598
0
LINE
8
BLACK
6
CONTINUOUS
10
101.451
20
-69.5598
11
101.356
21
-69.6075
0
LINE
8
BLACK
6
CONTINUOUS
10
101.356
20
-69.6075
11
101.352
21
-69.6087
0
LINE
8
BLACK
6
CONTINUOUS
10
101.352
20
-69.6087
11
101.348
21
-69.6109
0
LINE
8
BLACK
6
CONTINUOUS
10
101.348
20
-69.6109
11
101.339
21
-69.6124
0
LINE
8
BLACK
6
CONTINUOUS
10
101.339
20
-69.6124
11
101.331
21
-69.6149
0
LINE
8
BLACK
6
CONTINUOUS
10
101.331
20
-69.6149
11
101.326
21
-69.6146
0
LINE
8
BLACK
6
CONTINUOUS
10
101.326
20
-69.6146
11
101.322
21
-69.6154
0
LINE
8
BLACK
6
CONTINUOUS
10
101.322
20
-69.6154
11
101.132
21
-69.6154
0
LINE
8
BLACK
6
CONTINUOUS
10
101.132
20
-69.6154
11
101.128
21
-69.6146
0
LINE
8
BLACK
6
CONTINUOUS
10
101.128
20
-69.6146
11
101.123
21
-69.6149
0
LINE
8
BLACK
6
CONTINUOUS
10
101.123
20
-69.6149
11
101.115
21
-69.6124
0
LINE
8
BLACK
6
CONTINUOUS
10
101.115
20
-69.6124
11
101.106
21
-69.6109
0
LINE
8
BLACK
6
CONTINUOUS
10
101.106
20
-69.6109
11
101.102
21
-69.6087
0
LINE
8
BLACK
6
CONTINUOUS
10
101.102
20
-69.6087
11
101.098
21
-69.6075
0
LINE
8
BLACK
6
CONTINUOUS
10
101.098
20
-69.6075
11
101.003
21
-69.5598
0
LINE
8
BLACK
6
CONTINUOUS
10
101.003
20
-69.5598
11
100.993
21
-69.5527
0
LINE
8
BLACK
6
CONTINUOUS
10
100.993
20
-69.5527
11
100.983
21
-69.5458
0
LINE
8
BLACK
6
CONTINUOUS
10
100.983
20
-69.5458
11
100.936
21
-69.4982
0
LINE
8
BLACK
6
CONTINUOUS
10
100.936
20
-69.4982
11
100.929
21
-69.4883
0
LINE
8
BLACK
6
CONTINUOUS
10
100.929
20
-69.4883
11
100.922
21
-69.4787
0
LINE
8
BLACK
6
CONTINUOUS
10
100.922
20
-69.4787
11
100.874
21
-69.3834
0
LINE
8
BLACK
6
CONTINUOUS
10
100.874
20
-69.3834
11
100.873
21
-69.3793
0
LINE
8
BLACK
6
CONTINUOUS
10
100.873
20
-69.3793
11
100.871
21
-69.3756
0
LINE
8
BLACK
6
CONTINUOUS
10
100.871
20
-69.3756
11
100.869
21
-69.3669
0
LINE
8
BLACK
6
CONTINUOUS
10
100.869
20
-69.3669
11
100.867
21
-69.3585
0
LINE
8
BLACK
6
CONTINUOUS
10
100.867
20
-69.3585
11
100.867
21
-69.3542
0
LINE
8
BLACK
6
CONTINUOUS
10
100.867
20
-69.3542
11
100.866
21
-69.3499
0
LINE
8
BLACK
6
CONTINUOUS
10
100.866
20
-69.3499
11
100.866
21
-69.1118
0
LINE
8
BLACK
6
CONTINUOUS
10
100.866
20
-69.1118
11
100.867
21
-69.1076
0
LINE
8
BLACK
6
CONTINUOUS
10
100.867
20
-69.1076
11
100.867
21
-69.1032
0
LINE
8
BLACK
6
CONTINUOUS
10
100.867
20
-69.1032
11
100.869
21
-69.0948
0
LINE
8
BLACK
6
CONTINUOUS
10
100.869
20
-69.0948
11
100.871
21
-69.0862
0
LINE
8
BLACK
6
CONTINUOUS
10
100.871
20
-69.0862
11
100.873
21
-69.0824
0
LINE
8
BLACK
6
CONTINUOUS
10
100.873
20
-69.0824
11
100.874
21
-69.0783
0
LINE
8
BLACK
6
CONTINUOUS
10
100.874
20
-69.0783
11
100.922
21
-68.983
0
LINE
8
BLACK
6
CONTINUOUS
10
100.922
20
-68.983
11
100.929
21
-68.9734
0
LINE
8
BLACK
6
CONTINUOUS
10
100.929
20
-68.9734
11
100.936
21
-68.9635
0
LINE
8
BLACK
6
CONTINUOUS
10
100.936
20
-68.9635
11
100.983
21
-68.9159
0
LINE
8
BLACK
6
CONTINUOUS
10
100.983
20
-68.9159
11
100.993
21
-68.909
0
LINE
8
BLACK
6
CONTINUOUS
10
100.993
20
-68.909
11
101.003
21
-68.9019
0
LINE
8
BLACK
6
CONTINUOUS
10
101.003
20
-68.9019
11
101.098
21
-68.8543
0
LINE
8
BLACK
6
CONTINUOUS
10
101.098
20
-68.8543
11
101.102
21
-68.853
0
LINE
8
BLACK
6
CONTINUOUS
10
101.102
20
-68.853
11
101.106
21
-68.8509
0
LINE
8
BLACK
6
CONTINUOUS
10
101.106
20
-68.8509
11
101.115
21
-68.8493
0
LINE
8
BLACK
6
CONTINUOUS
10
101.115
20
-68.8493
11
101.123
21
-68.8468
0
LINE
8
BLACK
6
CONTINUOUS
10
101.123
20
-68.8468
11
101.128
21
-68.8471
0
LINE
8
BLACK
6
CONTINUOUS
10
101.128
20
-68.8471
11
101.132
21
-68.8463
0
LINE
8
BLACK
6
CONTINUOUS
10
101.132
20
-68.8463
11
101.322
21
-68.8463
0
LINE
8
BLACK
6
CONTINUOUS
10
101.322
20
-68.8463
11
101.326
21
-68.8471
0
LINE
8
BLACK
6
CONTINUOUS
10
101.326
20
-68.8471
11
101.331
21
-68.8468
0
LINE
8
BLACK
6
CONTINUOUS
10
101.331
20
-68.8468
11
101.339
21
-68.8493
0
LINE
8
BLACK
6
CONTINUOUS
10
101.339
20
-68.8493
11
101.348
21
-68.8509
0
LINE
8
BLACK
6
CONTINUOUS
10
101.348
20
-68.8509
11
101.352
21
-68.853
0
LINE
8
BLACK
6
CONTINUOUS
10
101.352
20
-68.853
11
101.356
21
-68.8543
0
LINE
8
BLACK
6
CONTINUOUS
10
101.356
20
-68.8543
11
101.414
21
-68.8834
0
LINE
8
BLACK
6
CONTINUOUS
10
101.414
20
-68.8834
11
101.395
21
-68.8093
0
LINE
8
BLACK
6
CONTINUOUS
10
101.395
20
-68.8093
11
101.312
21
-68.6834
0
LINE
8
BLACK
6
CONTINUOUS
10
101.312
20
-68.6834
11
101.278
21
-68.6496
0
LINE
8
BLACK
6
CONTINUOUS
10
101.278
20
-68.6496
11
101.209
21
-68.6154
0
LINE
8
BLACK
6
CONTINUOUS
10
101.209
20
-68.6154
11
101.037
21
-68.6154
0
LINE
8
BLACK
6
CONTINUOUS
10
101.037
20
-68.6154
11
101.011
21
-68.6109
0
LINE
8
BLACK
6
CONTINUOUS
10
101.011
20
-68.6109
11
100.988
21
-68.5978
0
LINE
8
BLACK
6
CONTINUOUS
10
100.988
20
-68.5978
11
100.972
21
-68.5779
0
LINE
8
BLACK
6
CONTINUOUS
10
100.972
20
-68.5779
11
100.963
21
-68.5534
0
LINE
8
BLACK
6
CONTINUOUS
10
100.963
20
-68.5534
11
100.963
21
-68.5274
0
LINE
8
BLACK
6
CONTINUOUS
10
100.963
20
-68.5274
11
100.972
21
-68.5029
0
LINE
8
BLACK
6
CONTINUOUS
10
100.972
20
-68.5029
11
100.988
21
-68.4829
0
LINE
8
BLACK
6
CONTINUOUS
10
100.988
20
-68.4829
11
101.011
21
-68.4699
0
LINE
8
BLACK
6
CONTINUOUS
10
101.011
20
-68.4699
11
101.037
21
-68.4654
0
LINE
8
BLACK
6
CONTINUOUS
10
101.037
20
-68.4654
11
101.227
21
-68.4654
0
LINE
8
BLACK
6
CONTINUOUS
10
101.227
20
-68.4654
11
101.231
21
-68.4661
0
LINE
8
BLACK
6
CONTINUOUS
10
101.149
20
-68.9963
11
101.081
21
-69.0306
0
LINE
8
BLACK
6
CONTINUOUS
10
101.081
20
-69.0306
11
101.051
21
-69.061
0
LINE
8
BLACK
6
CONTINUOUS
10
101.051
20
-69.061
11
101.016
21
-69.1295
0
LINE
8
BLACK
6
CONTINUOUS
10
101.016
20
-69.1295
11
101.016
21
-69.3322
0
LINE
8
BLACK
6
CONTINUOUS
10
101.016
20
-69.3322
11
101.051
21
-69.4007
0
LINE
8
BLACK
6
CONTINUOUS
10
101.051
20
-69.4007
11
101.081
21
-69.4311
0
LINE
8
BLACK
6
CONTINUOUS
10
101.081
20
-69.4311
11
101.149
21
-69.4654
0
LINE
8
BLACK
6
CONTINUOUS
10
101.149
20
-69.4654
11
101.305
21
-69.4654
0
LINE
8
BLACK
6
CONTINUOUS
10
101.305
20
-69.4654
11
101.373
21
-69.4311
0
LINE
8
BLACK
6
CONTINUOUS
10
101.373
20
-69.4311
11
101.403
21
-69.4007
0
LINE
8
BLACK
6
CONTINUOUS
10
101.403
20
-69.4007
11
101.438
21
-69.3322
0
LINE
8
BLACK
6
CONTINUOUS
10
101.438
20
-69.3322
11
101.438
21
-69.1295
0
LINE
8
BLACK
6
CONTINUOUS
10
101.438
20
-69.1295
11
101.403
21
-69.061
0
LINE
8
BLACK
6
CONTINUOUS
10
101.403
20
-69.061
11
101.373
21
-69.0306
0
LINE
8
BLACK
6
CONTINUOUS
10
101.373
20
-69.0306
11
101.305
21
-68.9963
0
LINE
8
BLACK
6
CONTINUOUS
10
101.305
20
-68.9963
11
101.149
21
-68.9963
0
LINE
8
BLACK
6
CONTINUOUS
10
107.327
20
-68.4665
11
107.336
21
-68.4665
0
LINE
8
BLACK
6
CONTINUOUS
10
107.336
20
-68.4665
11
107.34
21
-68.4679
0
LINE
8
BLACK
6
CONTINUOUS
10
107.34
20
-68.4679
11
107.344
21
-68.4684
0
LINE
8
BLACK
6
CONTINUOUS
10
107.344
20
-68.4684
11
107.352
21
-68.4724
0
LINE
8
BLACK
6
CONTINUOUS
10
107.352
20
-68.4724
11
107.361
21
-68.4754
0
LINE
8
BLACK
6
CONTINUOUS
10
107.361
20
-68.4754
11
107.364
21
-68.4781
0
LINE
8
BLACK
6
CONTINUOUS
10
107.364
20
-68.4781
11
107.367
21
-68.4799
0
LINE
8
BLACK
6
CONTINUOUS
10
107.367
20
-68.4799
11
107.374
21
-68.4864
0
LINE
8
BLACK
6
CONTINUOUS
10
107.374
20
-68.4864
11
107.38
21
-68.4922
0
LINE
8
BLACK
6
CONTINUOUS
10
107.38
20
-68.4922
11
107.383
21
-68.4958
0
LINE
8
BLACK
6
CONTINUOUS
10
107.383
20
-68.4958
11
107.385
21
-68.4988
0
LINE
8
BLACK
6
CONTINUOUS
10
107.385
20
-68.4988
11
107.477
21
-68.6355
0
LINE
8
BLACK
6
CONTINUOUS
10
107.477
20
-68.6355
11
107.558
21
-68.7168
0
LINE
8
BLACK
6
CONTINUOUS
10
107.558
20
-68.7168
11
107.642
21
-68.759
0
LINE
8
BLACK
6
CONTINUOUS
10
107.642
20
-68.759
11
107.663
21
-68.7745
0
LINE
8
BLACK
6
CONTINUOUS
10
107.663
20
-68.7745
11
107.678
21
-68.7963
0
LINE
8
BLACK
6
CONTINUOUS
10
107.678
20
-68.7963
11
107.684
21
-68.8216
0
LINE
8
BLACK
6
CONTINUOUS
10
107.684
20
-68.8216
11
107.681
21
-68.8475
0
LINE
8
BLACK
6
CONTINUOUS
10
107.681
20
-68.8475
11
107.669
21
-68.8708
0
LINE
8
BLACK
6
CONTINUOUS
10
107.669
20
-68.8708
11
107.65
21
-68.8887
0
LINE
8
BLACK
6
CONTINUOUS
10
107.65
20
-68.8887
11
107.626
21
-68.899
0
LINE
8
BLACK
6
CONTINUOUS
10
107.626
20
-68.899
11
107.6
21
-68.9006
0
LINE
8
BLACK
6
CONTINUOUS
10
107.6
20
-68.9006
11
107.575
21
-68.8932
0
LINE
8
BLACK
6
CONTINUOUS
10
107.575
20
-68.8932
11
107.48
21
-68.8456
0
LINE
8
BLACK
6
CONTINUOUS
10
107.48
20
-68.8456
11
107.47
21
-68.8384
0
LINE
8
BLACK
6
CONTINUOUS
10
107.47
20
-68.8384
11
107.46
21
-68.8315
0
LINE
8
BLACK
6
CONTINUOUS
10
107.46
20
-68.8315
11
107.398
21
-68.7691
0
LINE
8
BLACK
6
CONTINUOUS
10
107.398
20
-68.7691
11
107.398
21
-69.4654
0
LINE
8
BLACK
6
CONTINUOUS
10
107.398
20
-69.4654
11
107.609
21
-69.4654
0
LINE
8
BLACK
6
CONTINUOUS
10
107.609
20
-69.4654
11
107.634
21
-69.4699
0
LINE
8
BLACK
6
CONTINUOUS
10
107.634
20
-69.4699
11
107.657
21
-69.4829
0
LINE
8
BLACK
6
CONTINUOUS
10
107.657
20
-69.4829
11
107.674
21
-69.5029
0
LINE
8
BLACK
6
CONTINUOUS
10
107.674
20
-69.5029
11
107.683
21
-69.5274
0
LINE
8
BLACK
6
CONTINUOUS
10
107.683
20
-69.5274
11
107.683
21
-69.5534
0
LINE
8
BLACK
6
CONTINUOUS
10
107.683
20
-69.5534
11
107.674
21
-69.5779
0
LINE
8
BLACK
6
CONTINUOUS
10
107.674
20
-69.5779
11
107.657
21
-69.5978
0
LINE
8
BLACK
6
CONTINUOUS
10
107.657
20
-69.5978
11
107.634
21
-69.6109
0
LINE
8
BLACK
6
CONTINUOUS
10
107.634
20
-69.6109
11
107.609
21
-69.6154
0
LINE
8
BLACK
6
CONTINUOUS
10
107.609
20
-69.6154
11
107.037
21
-69.6154
0
LINE
8
BLACK
6
CONTINUOUS
10
107.037
20
-69.6154
11
107.012
21
-69.6109
0
LINE
8
BLACK
6
CONTINUOUS
10
107.012
20
-69.6109
11
106.989
21
-69.5978
0
LINE
8
BLACK
6
CONTINUOUS
10
106.989
20
-69.5978
11
106.972
21
-69.5779
0
LINE
8
BLACK
6
CONTINUOUS
10
106.972
20
-69.5779
11
106.963
21
-69.5534
0
LINE
8
BLACK
6
CONTINUOUS
10
106.963
20
-69.5534
11
106.963
21
-69.5274
0
LINE
8
BLACK
6
CONTINUOUS
10
106.963
20
-69.5274
11
106.972
21
-69.5029
0
LINE
8
BLACK
6
CONTINUOUS
10
106.972
20
-69.5029
11
106.989
21
-69.4829
0
LINE
8
BLACK
6
CONTINUOUS
10
106.989
20
-69.4829
11
107.012
21
-69.4699
0
LINE
8
BLACK
6
CONTINUOUS
10
107.012
20
-69.4699
11
107.037
21
-69.4654
0
LINE
8
BLACK
6
CONTINUOUS
10
107.037
20
-69.4654
11
107.248
21
-69.4654
0
LINE
8
BLACK
6
CONTINUOUS
10
107.248
20
-69.4654
11
107.248
21
-68.5404
0
LINE
8
BLACK
6
CONTINUOUS
10
107.248
20
-68.5404
11
107.249
21
-68.5363
0
LINE
8
BLACK
6
CONTINUOUS
10
107.249
20
-68.5363
11
107.248
21
-68.5321
0
LINE
8
BLACK
6
CONTINUOUS
10
107.248
20
-68.5321
11
107.251
21
-68.5235
0
LINE
8
BLACK
6
CONTINUOUS
10
107.251
20
-68.5235
11
107.253
21
-68.5147
0
LINE
8
BLACK
6
CONTINUOUS
10
107.253
20
-68.5147
11
107.255
21
-68.5111
0
LINE
8
BLACK
6
CONTINUOUS
10
107.255
20
-68.5111
11
107.256
21
-68.5071
0
LINE
8
BLACK
6
CONTINUOUS
10
107.256
20
-68.5071
11
107.261
21
-68.4999
0
LINE
8
BLACK
6
CONTINUOUS
10
107.261
20
-68.4999
11
107.266
21
-68.4922
0
LINE
8
BLACK
6
CONTINUOUS
10
107.266
20
-68.4922
11
107.269
21
-68.4895
0
LINE
8
BLACK
6
CONTINUOUS
10
107.269
20
-68.4895
11
107.271
21
-68.4861
0
LINE
8
BLACK
6
CONTINUOUS
10
107.271
20
-68.4861
11
107.279
21
-68.4812
0
LINE
8
BLACK
6
CONTINUOUS
10
107.279
20
-68.4812
11
107.285
21
-68.4754
0
LINE
8
BLACK
6
CONTINUOUS
10
107.285
20
-68.4754
11
107.289
21
-68.474
0
LINE
8
BLACK
6
CONTINUOUS
10
107.289
20
-68.474
11
107.293
21
-68.4717
0
LINE
8
BLACK
6
CONTINUOUS
10
107.293
20
-68.4717
11
107.302
21
-68.4696
0
LINE
8
BLACK
6
CONTINUOUS
10
107.302
20
-68.4696
11
107.31
21
-68.4665
0
LINE
8
BLACK
6
CONTINUOUS
10
107.31
20
-68.4665
11
107.314
21
-68.4665
0
LINE
8
BLACK
6
CONTINUOUS
10
107.314
20
-68.4665
11
107.318
21
-68.4655
0
LINE
8
BLACK
6
CONTINUOUS
10
107.318
20
-68.4655
11
107.327
21
-68.4665
0
LINE
8
BLACK
6
CONTINUOUS
10
100.032
20
-68.4675
11
100.044
21
-68.4692
0
LINE
8
BLACK
6
CONTINUOUS
10
100.044
20
-68.4692
11
100.187
21
-68.5168
0
LINE
8
BLACK
6
CONTINUOUS
10
100.187
20
-68.5168
11
100.191
21
-68.5189
0
LINE
8
BLACK
6
CONTINUOUS
10
100.191
20
-68.5189
11
100.195
21
-68.52
0
LINE
8
BLACK
6
CONTINUOUS
10
100.195
20
-68.52
11
100.202
21
-68.5251
0
LINE
8
BLACK
6
CONTINUOUS
10
100.202
20
-68.5251
11
100.21
21
-68.5293
0
LINE
8
BLACK
6
CONTINUOUS
10
100.21
20
-68.5293
11
100.213
21
-68.5325
0
LINE
8
BLACK
6
CONTINUOUS
10
100.213
20
-68.5325
11
100.216
21
-68.535
0
LINE
8
BLACK
6
CONTINUOUS
10
100.216
20
-68.535
11
100.312
21
-68.6302
0
LINE
8
BLACK
6
CONTINUOUS
10
100.312
20
-68.6302
11
100.318
21
-68.6401
0
LINE
8
BLACK
6
CONTINUOUS
10
100.318
20
-68.6401
11
100.326
21
-68.6497
0
LINE
8
BLACK
6
CONTINUOUS
10
100.326
20
-68.6497
11
100.373
21
-68.7449
0
LINE
8
BLACK
6
CONTINUOUS
10
100.373
20
-68.7449
11
100.376
21
-68.7528
0
LINE
8
BLACK
6
CONTINUOUS
10
100.376
20
-68.7528
11
100.379
21
-68.7603
0
LINE
8
BLACK
6
CONTINUOUS
10
100.379
20
-68.7603
11
100.426
21
-68.9508
0
LINE
8
BLACK
6
CONTINUOUS
10
100.426
20
-68.9508
11
100.427
21
-68.9599
0
LINE
8
BLACK
6
CONTINUOUS
10
100.427
20
-68.9599
11
100.429
21
-68.969
0
LINE
8
BLACK
6
CONTINUOUS
10
100.429
20
-68.969
11
100.429
21
-69.1118
0
LINE
8
BLACK
6
CONTINUOUS
10
100.429
20
-69.1118
11
100.427
21
-69.1208
0
LINE
8
BLACK
6
CONTINUOUS
10
100.427
20
-69.1208
11
100.426
21
-69.13
0
LINE
8
BLACK
6
CONTINUOUS
10
100.426
20
-69.13
11
100.379
21
-69.3205
0
LINE
8
BLACK
6
CONTINUOUS
10
100.379
20
-69.3205
11
100.376
21
-69.328
0
LINE
8
BLACK
6
CONTINUOUS
10
100.376
20
-69.328
11
100.373
21
-69.3358
0
LINE
8
BLACK
6
CONTINUOUS
10
100.373
20
-69.3358
11
100.326
21
-69.4311
0
LINE
8
BLACK
6
CONTINUOUS
10
100.326
20
-69.4311
11
100.318
21
-69.4407
0
LINE
8
BLACK
6
CONTINUOUS
10
100.318
20
-69.4407
11
100.312
21
-69.4506
0
LINE
8
BLACK
6
CONTINUOUS
10
100.312
20
-69.4506
11
100.216
21
-69.5458
0
LINE
8
BLACK
6
CONTINUOUS
10
100.216
20
-69.5458
11
100.213
21
-69.5483
0
LINE
8
BLACK
6
CONTINUOUS
10
100.213
20
-69.5483
11
100.21
21
-69.5515
0
LINE
8
BLACK
6
CONTINUOUS
10
100.21
20
-69.5515
11
100.202
21
-69.5557
0
LINE
8
BLACK
6
CONTINUOUS
10
100.202
20
-69.5557
11
100.195
21
-69.5607
0
LINE
8
BLACK
6
CONTINUOUS
10
100.195
20
-69.5607
11
100.191
21
-69.5619
0
LINE
8
BLACK
6
CONTINUOUS
10
100.191
20
-69.5619
11
100.187
21
-69.5639
0
LINE
8
BLACK
6
CONTINUOUS
10
100.187
20
-69.5639
11
100.044
21
-69.6115
0
LINE
8
BLACK
6
CONTINUOUS
10
100.044
20
-69.6115
11
100.032
21
-69.6133
0
LINE
8
BLACK
6
CONTINUOUS
10
100.032
20
-69.6133
11
100.02
21
-69.6154
0
LINE
8
BLACK
6
CONTINUOUS
10
100.02
20
-69.6154
11
99.9251
21
-69.6154
0
LINE
8
BLACK
6
CONTINUOUS
10
99.9251
20
-69.6154
11
99.9133
21
-69.6133
0
LINE
8
BLACK
6
CONTINUOUS
10
99.9133
20
-69.6133
11
99.9014
21
-69.6115
0
LINE
8
BLACK
6
CONTINUOUS
10
99.9014
20
-69.6115
11
99.7586
21
-69.5639
0
LINE
8
BLACK
6
CONTINUOUS
10
99.7586
20
-69.5639
11
99.7548
21
-69.5619
0
LINE
8
BLACK
6
CONTINUOUS
10
99.7548
20
-69.5619
11
99.7506
21
-69.5607
0
LINE
8
BLACK
6
CONTINUOUS
10
99.7506
20
-69.5607
11
99.7434
21
-69.5557
0
LINE
8
BLACK
6
CONTINUOUS
10
99.7434
20
-69.5557
11
99.7357
21
-69.5515
0
LINE
8
BLACK
6
CONTINUOUS
10
99.7357
20
-69.5515
11
99.7328
21
-69.5483
0
LINE
8
BLACK
6
CONTINUOUS
10
99.7328
20
-69.5483
11
99.7293
21
-69.5458
0
LINE
8
BLACK
6
CONTINUOUS
10
99.7293
20
-69.5458
11
99.6816
21
-69.4982
0
LINE
8
BLACK
6
CONTINUOUS
10
99.6816
20
-69.4982
11
99.6667
21
-69.4768
0
LINE
8
BLACK
6
CONTINUOUS
10
99.6667
20
-69.4768
11
99.66
21
-69.4517
0
LINE
8
BLACK
6
CONTINUOUS
10
99.66
20
-69.4517
11
99.6622
21
-69.4257
0
LINE
8
BLACK
6
CONTINUOUS
10
99.6622
20
-69.4257
11
99.6732
21
-69.4021
0
LINE
8
BLACK
6
CONTINUOUS
10
99.6732
20
-69.4021
11
99.6916
21
-69.3837
0
LINE
8
BLACK
6
CONTINUOUS
10
99.6916
20
-69.3837
11
99.7153
21
-69.3727
0
LINE
8
BLACK
6
CONTINUOUS
10
99.7153
20
-69.3727
11
99.7412
21
-69.3704
0
LINE
8
BLACK
6
CONTINUOUS
10
99.7412
20
-69.3704
11
99.7664
21
-69.3772
0
LINE
8
BLACK
6
CONTINUOUS
10
99.7664
20
-69.3772
11
99.7877
21
-69.3921
0
LINE
8
BLACK
6
CONTINUOUS
10
99.7877
20
-69.3921
11
99.8228
21
-69.4272
0
LINE
8
BLACK
6
CONTINUOUS
10
99.8228
20
-69.4272
11
99.9373
21
-69.4654
0
LINE
8
BLACK
6
CONTINUOUS
10
99.9373
20
-69.4654
11
100.008
21
-69.4654
0
LINE
8
BLACK
6
CONTINUOUS
10
100.008
20
-69.4654
11
100.123
21
-69.4272
0
LINE
8
BLACK
6
CONTINUOUS
10
100.123
20
-69.4272
11
100.197
21
-69.3531
0
LINE
8
BLACK
6
CONTINUOUS
10
100.197
20
-69.3531
11
100.235
21
-69.2761
0
LINE
8
BLACK
6
CONTINUOUS
10
100.235
20
-69.2761
11
100.279
21
-69.1026
0
LINE
8
BLACK
6
CONTINUOUS
10
100.279
20
-69.1026
11
100.279
21
-68.9782
0
LINE
8
BLACK
6
CONTINUOUS
10
100.279
20
-68.9782
11
100.235
21
-68.8047
0
LINE
8
BLACK
6
CONTINUOUS
10
100.235
20
-68.8047
11
100.197
21
-68.7277
0
LINE
8
BLACK
6
CONTINUOUS
10
100.197
20
-68.7277
11
100.123
21
-68.6536
0
LINE
8
BLACK
6
CONTINUOUS
10
100.123
20
-68.6536
11
100.008
21
-68.6154
0
LINE
8
BLACK
6
CONTINUOUS
10
100.008
20
-68.6154
11
99.9373
21
-68.6154
0
LINE
8
BLACK
6
CONTINUOUS
10
99.9373
20
-68.6154
11
99.8228
21
-68.6536
0
LINE
8
BLACK
6
CONTINUOUS
10
99.8228
20
-68.6536
11
99.7877
21
-68.6887
0
LINE
8
BLACK
6
CONTINUOUS
10
99.7877
20
-68.6887
11
99.7664
21
-68.7036
0
LINE
8
BLACK
6
CONTINUOUS
10
99.7664
20
-68.7036
11
99.7412
21
-68.7103
0
LINE
8
BLACK
6
CONTINUOUS
10
99.7412
20
-68.7103
11
99.7153
21
-68.7081
0
LINE
8
BLACK
6
CONTINUOUS
10
99.7153
20
-68.7081
11
99.6916
21
-68.6971
0
LINE
8
BLACK
6
CONTINUOUS
10
99.6916
20
-68.6971
11
99.6732
21
-68.6786
0
LINE
8
BLACK
6
CONTINUOUS
10
99.6732
20
-68.6786
11
99.6622
21
-68.655
0
LINE
8
BLACK
6
CONTINUOUS
10
99.6622
20
-68.655
11
99.66
21
-68.6291
0
LINE
8
BLACK
6
CONTINUOUS
10
99.66
20
-68.6291
11
99.6667
21
-68.6039
0
LINE
8
BLACK
6
CONTINUOUS
10
99.6667
20
-68.6039
11
99.6816
21
-68.5826
0
LINE
8
BLACK
6
CONTINUOUS
10
99.6816
20
-68.5826
11
99.7293
21
-68.535
0
LINE
8
BLACK
6
CONTINUOUS
10
99.7293
20
-68.535
11
99.7328
21
-68.5325
0
LINE
8
BLACK
6
CONTINUOUS
10
99.7328
20
-68.5325
11
99.7357
21
-68.5293
0
LINE
8
BLACK
6
CONTINUOUS
10
99.7357
20
-68.5293
11
99.7434
21
-68.5251
0
LINE
8
BLACK
6
CONTINUOUS
10
99.7434
20
-68.5251
11
99.7506
21
-68.52
0
LINE
8
BLACK
6
CONTINUOUS
10
99.7506
20
-68.52
11
99.7548
21
-68.5189
0
LINE
8
BLACK
6
CONTINUOUS
10
99.7548
20
-68.5189
11
99.7586
21
-68.5168
0
LINE
8
BLACK
6
CONTINUOUS
10
99.7586
20
-68.5168
11
99.9014
21
-68.4692
0
LINE
8
BLACK
6
CONTINUOUS
10
99.9014
20
-68.4692
11
99.9133
21
-68.4675
0
LINE
8
BLACK
6
CONTINUOUS
10
99.9133
20
-68.4675
11
99.9251
21
-68.4654
0
LINE
8
BLACK
6
CONTINUOUS
10
99.9251
20
-68.4654
11
100.02
21
-68.4654
0
LINE
8
BLACK
6
CONTINUOUS
10
100.02
20
-68.4654
11
100.032
21
-68.4675
0
LINE
8
BLACK
6
CONTINUOUS
10
108.287
20
-68.4675
11
108.299
21
-68.4692
0
LINE
8
BLACK
6
CONTINUOUS
10
108.299
20
-68.4692
11
108.442
21
-68.5168
0
LINE
8
BLACK
6
CONTINUOUS
10
108.442
20
-68.5168
11
108.446
21
-68.5189
0
LINE
8
BLACK
6
CONTINUOUS
10
108.446
20
-68.5189
11
108.45
21
-68.52
0
LINE
8
BLACK
6
CONTINUOUS
10
108.45
20
-68.52
11
108.457
21
-68.5251
0
LINE
8
BLACK
6
CONTINUOUS
10
108.457
20
-68.5251
11
108.465
21
-68.5293
0
LINE
8
BLACK
6
CONTINUOUS
10
108.465
20
-68.5293
11
108.468
21
-68.5325
0
LINE
8
BLACK
6
CONTINUOUS
10
108.468
20
-68.5325
11
108.471
21
-68.535
0
LINE
8
BLACK
6
CONTINUOUS
10
108.471
20
-68.535
11
108.567
21
-68.6302
0
LINE
8
BLACK
6
CONTINUOUS
10
108.567
20
-68.6302
11
108.573
21
-68.6401
0
LINE
8
BLACK
6
CONTINUOUS
10
108.573
20
-68.6401
11
108.581
21
-68.6497
0
LINE
8
BLACK
6
CONTINUOUS
10
108.581
20
-68.6497
11
108.628
21
-68.7449
0
LINE
8
BLACK
6
CONTINUOUS
10
108.628
20
-68.7449
11
108.631
21
-68.7528
0
LINE
8
BLACK
6
CONTINUOUS
10
108.631
20
-68.7528
11
108.634
21
-68.7603
0
LINE
8
BLACK
6
CONTINUOUS
10
108.634
20
-68.7603
11
108.681
21
-68.9508
0
LINE
8
BLACK
6
CONTINUOUS
10
108.681
20
-68.9508
11
108.682
21
-68.9599
0
LINE
8
BLACK
6
CONTINUOUS
10
108.682
20
-68.9599
11
108.684
21
-68.969
0
LINE
8
BLACK
6
CONTINUOUS
10
108.684
20
-68.969
11
108.684
21
-69.1118
0
LINE
8
BLACK
6
CONTINUOUS
10
108.684
20
-69.1118
11
108.682
21
-69.1208
0
LINE
8
BLACK
6
CONTINUOUS
10
108.682
20
-69.1208
11
108.681
21
-69.13
0
LINE
8
BLACK
6
CONTINUOUS
10
108.681
20
-69.13
11
108.634
21
-69.3205
0
LINE
8
BLACK
6
CONTINUOUS
10
108.634
20
-69.3205
11
108.631
21
-69.328
0
LINE
8
BLACK
6
CONTINUOUS
10
108.631
20
-69.328
11
108.628
21
-69.3358
0
LINE
8
BLACK
6
CONTINUOUS
10
108.628
20
-69.3358
11
108.581
21
-69.4311
0
LINE
8
BLACK
6
CONTINUOUS
10
108.581
20
-69.4311
11
108.573
21
-69.4407
0
LINE
8
BLACK
6
CONTINUOUS
10
108.573
20
-69.4407
11
108.567
21
-69.4506
0
LINE
8
BLACK
6
CONTINUOUS
10
108.567
20
-69.4506
11
108.471
21
-69.5458
0
LINE
8
BLACK
6
CONTINUOUS
10
108.471
20
-69.5458
11
108.468
21
-69.5483
0
LINE
8
BLACK
6
CONTINUOUS
10
108.468
20
-69.5483
11
108.465
21
-69.5515
0
LINE
8
BLACK
6
CONTINUOUS
10
108.465
20
-69.5515
11
108.457
21
-69.5557
0
LINE
8
BLACK
6
CONTINUOUS
10
108.457
20
-69.5557
11
108.45
21
-69.5607
0
LINE
8
BLACK
6
CONTINUOUS
10
108.45
20
-69.5607
11
108.446
21
-69.5619
0
LINE
8
BLACK
6
CONTINUOUS
10
108.446
20
-69.5619
11
108.442
21
-69.5639
0
LINE
8
BLACK
6
CONTINUOUS
10
108.442
20
-69.5639
11
108.299
21
-69.6115
0
LINE
8
BLACK
6
CONTINUOUS
10
108.299
20
-69.6115
11
108.287
21
-69.6133
0
LINE
8
BLACK
6
CONTINUOUS
10
108.287
20
-69.6133
11
108.275
21
-69.6154
0
LINE
8
BLACK
6
CONTINUOUS
10
108.275
20
-69.6154
11
108.18
21
-69.6154
0
LINE
8
BLACK
6
CONTINUOUS
10
108.18
20
-69.6154
11
108.168
21
-69.6133
0
LINE
8
BLACK
6
CONTINUOUS
10
108.168
20
-69.6133
11
108.156
21
-69.6115
0
LINE
8
BLACK
6
CONTINUOUS
10
108.156
20
-69.6115
11
108.014
21
-69.5639
0
LINE
8
BLACK
6
CONTINUOUS
10
108.014
20
-69.5639
11
108.01
21
-69.5619
0
LINE
8
BLACK
6
CONTINUOUS
10
108.01
20
-69.5619
11
108.006
21
-69.5607
0
LINE
8
BLACK
6
CONTINUOUS
10
108.006
20
-69.5607
11
107.998
21
-69.5557
0
LINE
8
BLACK
6
CONTINUOUS
10
107.998
20
-69.5557
11
107.991
21
-69.5515
0
LINE
8
BLACK
6
CONTINUOUS
10
107.991
20
-69.5515
11
107.988
21
-69.5483
0
LINE
8
BLACK
6
CONTINUOUS
10
107.988
20
-69.5483
11
107.984
21
-69.5458
0
LINE
8
BLACK
6
CONTINUOUS
10
107.984
20
-69.5458
11
107.937
21
-69.4982
0
LINE
8
BLACK
6
CONTINUOUS
10
107.937
20
-69.4982
11
107.922
21
-69.4768
0
LINE
8
BLACK
6
CONTINUOUS
10
107.922
20
-69.4768
11
107.915
21
-69.4517
0
LINE
8
BLACK
6
CONTINUOUS
10
107.915
20
-69.4517
11
107.917
21
-69.4257
0
LINE
8
BLACK
6
CONTINUOUS
10
107.917
20
-69.4257
11
107.928
21
-69.4021
0
LINE
8
BLACK
6
CONTINUOUS
10
107.928
20
-69.4021
11
107.947
21
-69.3837
0
LINE
8
BLACK
6
CONTINUOUS
10
107.947
20
-69.3837
11
107.97
21
-69.3727
0
LINE
8
BLACK
6
CONTINUOUS
10
107.97
20
-69.3727
11
107.996
21
-69.3704
0
LINE
8
BLACK
6
CONTINUOUS
10
107.996
20
-69.3704
11
108.021
21
-69.3772
0
LINE
8
BLACK
6
CONTINUOUS
10
108.021
20
-69.3772
11
108.043
21
-69.3921
0
LINE
8
BLACK
6
CONTINUOUS
10
108.043
20
-69.3921
11
108.078
21
-69.4272
0
LINE
8
BLACK
6
CONTINUOUS
10
108.078
20
-69.4272
11
108.192
21
-69.4654
0
LINE
8
BLACK
6
CONTINUOUS
10
108.192
20
-69.4654
11
108.263
21
-69.4654
0
LINE
8
BLACK
6
CONTINUOUS
10
108.263
20
-69.4654
11
108.378
21
-69.4272
0
LINE
8
BLACK
6
CONTINUOUS
10
108.378
20
-69.4272
11
108.452
21
-69.3531
0
LINE
8
BLACK
6
CONTINUOUS
10
108.452
20
-69.3531
11
108.49
21
-69.2761
0
LINE
8
BLACK
6
CONTINUOUS
10
108.49
20
-69.2761
11
108.534
21
-69.1026
0
LINE
8
BLACK
6
CONTINUOUS
10
108.534
20
-69.1026
11
108.534
21
-68.9782
0
LINE
8
BLACK
6
CONTINUOUS
10
108.534
20
-68.9782
11
108.49
21
-68.8047
0
LINE
8
BLACK
6
CONTINUOUS
10
108.49
20
-68.8047
11
108.452
21
-68.7277
0
LINE
8
BLACK
6
CONTINUOUS
10
108.452
20
-68.7277
11
108.378
21
-68.6536
0
LINE
8
BLACK
6
CONTINUOUS
10
108.378
20
-68.6536
11
108.263
21
-68.6154
0
LINE
8
BLACK
6
CONTINUOUS
10
108.263
20
-68.6154
11
108.192
21
-68.6154
0
LINE
8
BLACK
6
CONTINUOUS
10
108.192
20
-68.6154
11
108.078
21
-68.6536
0
LINE
8
BLACK
6
CONTINUOUS
10
108.078
20
-68.6536
11
108.043
21
-68.6887
0
LINE
8
BLACK
6
CONTINUOUS
10
108.043
20
-68.6887
11
108.021
21
-68.7036
0
LINE
8
BLACK
6
CONTINUOUS
10
108.021
20
-68.7036
11
107.996
21
-68.7103
0
LINE
8
BLACK
6
CONTINUOUS
10
107.996
20
-68.7103
11
107.97
21
-68.7081
0
LINE
8
BLACK
6
CONTINUOUS
10
107.97
20
-68.7081
11
107.947
21
-68.6971
0
LINE
8
BLACK
6
CONTINUOUS
10
107.947
20
-68.6971
11
107.928
21
-68.6786
0
LINE
8
BLACK
6
CONTINUOUS
10
107.928
20
-68.6786
11
107.917
21
-68.655
0
LINE
8
BLACK
6
CONTINUOUS
10
107.917
20
-68.655
11
107.915
21
-68.6291
0
LINE
8
BLACK
6
CONTINUOUS
10
107.915
20
-68.6291
11
107.922
21
-68.6039
0
LINE
8
BLACK
6
CONTINUOUS
10
107.922
20
-68.6039
11
107.937
21
-68.5826
0
LINE
8
BLACK
6
CONTINUOUS
10
107.937
20
-68.5826
11
107.984
21
-68.535
0
LINE
8
BLACK
6
CONTINUOUS
10
107.984
20
-68.535
11
107.988
21
-68.5325
0
LINE
8
BLACK
6
CONTINUOUS
10
107.988
20
-68.5325
11
107.991
21
-68.5293
0
LINE
8
BLACK
6
CONTINUOUS
10
107.991
20
-68.5293
11
107.998
21
-68.5251
0
LINE
8
BLACK
6
CONTINUOUS
10
107.998
20
-68.5251
11
108.006
21
-68.52
0
LINE
8
BLACK
6
CONTINUOUS
10
108.006
20
-68.52
11
108.01
21
-68.5189
0
LINE
8
BLACK
6
CONTINUOUS
10
108.01
20
-68.5189
11
108.014
21
-68.5168
0
LINE
8
BLACK
6
CONTINUOUS
10
108.014
20
-68.5168
11
108.156
21
-68.4692
0
LINE
8
BLACK
6
CONTINUOUS
10
108.156
20
-68.4692
11
108.168
21
-68.4675
0
LINE
8
BLACK
6
CONTINUOUS
10
108.168
20
-68.4675
11
108.18
21
-68.4654
0
LINE
8
BLACK
6
CONTINUOUS
10
108.18
20
-68.4654
11
108.275
21
-68.4654
0
LINE
8
BLACK
6
CONTINUOUS
10
108.275
20
-68.4654
11
108.287
21
-68.4675
0
LINE
8
BLACK
6
CONTINUOUS
10
103.627
20
-68.4659
11
103.63
21
-68.4656
0
LINE
8
BLACK
6
CONTINUOUS
10
103.63
20
-68.4656
11
103.64
21
-68.4681
0
LINE
8
BLACK
6
CONTINUOUS
10
103.64
20
-68.4681
11
103.65
21
-68.4699
0
LINE
8
BLACK
6
CONTINUOUS
10
103.65
20
-68.4699
11
103.652
21
-68.4713
0
LINE
8
BLACK
6
CONTINUOUS
10
103.652
20
-68.4713
11
103.655
21
-68.472
0
LINE
8
BLACK
6
CONTINUOUS
10
103.655
20
-68.472
11
103.663
21
-68.4778
0
LINE
8
BLACK
6
CONTINUOUS
10
103.663
20
-68.4778
11
103.672
21
-68.4829
0
LINE
8
BLACK
6
CONTINUOUS
10
103.672
20
-68.4829
11
103.674
21
-68.4851
0
LINE
8
BLACK
6
CONTINUOUS
10
103.674
20
-68.4851
11
103.676
21
-68.4867
0
LINE
8
BLACK
6
CONTINUOUS
10
103.676
20
-68.4867
11
103.682
21
-68.495
0
LINE
8
BLACK
6
CONTINUOUS
10
103.682
20
-68.495
11
103.689
21
-68.5029
0
LINE
8
BLACK
6
CONTINUOUS
10
103.689
20
-68.5029
11
103.69
21
-68.5055
0
LINE
8
BLACK
6
CONTINUOUS
10
103.69
20
-68.5055
11
103.692
21
-68.5078
0
LINE
8
BLACK
6
CONTINUOUS
10
103.692
20
-68.5078
11
103.694
21
-68.5177
0
LINE
8
BLACK
6
CONTINUOUS
10
103.694
20
-68.5177
11
103.698
21
-68.5274
0
LINE
8
BLACK
6
CONTINUOUS
10
103.698
20
-68.5274
11
103.698
21
-68.5302
0
LINE
8
BLACK
6
CONTINUOUS
10
103.698
20
-68.5302
11
103.699
21
-68.5329
0
LINE
8
BLACK
6
CONTINUOUS
10
103.699
20
-68.5329
11
103.746
21
-69.0091
0
LINE
8
BLACK
6
CONTINUOUS
10
103.746
20
-69.0091
11
103.746
21
-69.0096
0
LINE
8
BLACK
6
CONTINUOUS
10
103.746
20
-69.0096
11
103.746
21
-69.01
0
LINE
8
BLACK
6
CONTINUOUS
10
103.746
20
-69.01
11
103.745
21
-69.0225
0
LINE
8
BLACK
6
CONTINUOUS
10
103.745
20
-69.0225
11
103.744
21
-69.0351
0
LINE
8
BLACK
6
CONTINUOUS
10
103.744
20
-69.0351
11
103.744
21
-69.0355
0
LINE
8
BLACK
6
CONTINUOUS
10
103.744
20
-69.0355
11
103.744
21
-69.036
0
LINE
8
BLACK
6
CONTINUOUS
10
103.744
20
-69.036
11
103.739
21
-69.0474
0
LINE
8
BLACK
6
CONTINUOUS
10
103.739
20
-69.0474
11
103.734
21
-69.0588
0
LINE
8
BLACK
6
CONTINUOUS
10
103.734
20
-69.0588
11
103.733
21
-69.0592
0
LINE
8
BLACK
6
CONTINUOUS
10
103.733
20
-69.0592
11
103.733
21
-69.0596
0
LINE
8
BLACK
6
CONTINUOUS
10
103.733
20
-69.0596
11
103.724
21
-69.0685
0
LINE
8
BLACK
6
CONTINUOUS
10
103.724
20
-69.0685
11
103.715
21
-69.0775
0
LINE
8
BLACK
6
CONTINUOUS
10
103.715
20
-69.0775
11
103.715
21
-69.0777
0
LINE
8
BLACK
6
CONTINUOUS
10
103.715
20
-69.0777
11
103.715
21
-69.078
0
LINE
8
BLACK
6
CONTINUOUS
10
103.715
20
-69.078
11
103.703
21
-69.0833
0
LINE
8
BLACK
6
CONTINUOUS
10
103.703
20
-69.0833
11
103.692
21
-69.0888
0
LINE
8
BLACK
6
CONTINUOUS
10
103.692
20
-69.0888
11
103.692
21
-69.0888
0
LINE
8
BLACK
6
CONTINUOUS
10
103.692
20
-69.0888
11
103.691
21
-69.089
0
LINE
8
BLACK
6
CONTINUOUS
10
103.691
20
-69.089
11
103.679
21
-69.0901
0
LINE
8
BLACK
6
CONTINUOUS
10
103.679
20
-69.0901
11
103.666
21
-69.0914
0
LINE
8
BLACK
6
CONTINUOUS
10
103.666
20
-69.0914
11
103.666
21
-69.0912
0
LINE
8
BLACK
6
CONTINUOUS
10
103.666
20
-69.0912
11
103.665
21
-69.0913
0
LINE
8
BLACK
6
CONTINUOUS
10
103.665
20
-69.0913
11
103.653
21
-69.088
0
LINE
8
BLACK
6
CONTINUOUS
10
103.653
20
-69.088
11
103.641
21
-69.0849
0
LINE
8
BLACK
6
CONTINUOUS
10
103.641
20
-69.0849
11
103.64
21
-69.0847
0
LINE
8
BLACK
6
CONTINUOUS
10
103.64
20
-69.0847
11
103.64
21
-69.0845
0
LINE
8
BLACK
6
CONTINUOUS
10
103.64
20
-69.0845
11
103.63
21
-69.0773
0
LINE
8
BLACK
6
CONTINUOUS
10
103.63
20
-69.0773
11
103.619
21
-69.0703
0
LINE
8
BLACK
6
CONTINUOUS
10
103.619
20
-69.0703
11
103.619
21
-69.0699
0
LINE
8
BLACK
6
CONTINUOUS
10
103.619
20
-69.0699
11
103.619
21
-69.0696
0
LINE
8
BLACK
6
CONTINUOUS
10
103.619
20
-69.0696
11
103.58
21
-69.0306
0
LINE
8
BLACK
6
CONTINUOUS
10
103.58
20
-69.0306
11
103.511
21
-68.9963
0
LINE
8
BLACK
6
CONTINUOUS
10
103.511
20
-68.9963
11
103.308
21
-68.9963
0
LINE
8
BLACK
6
CONTINUOUS
10
103.308
20
-68.9963
11
103.24
21
-69.0306
0
LINE
8
BLACK
6
CONTINUOUS
10
103.24
20
-69.0306
11
103.21
21
-69.061
0
LINE
8
BLACK
6
CONTINUOUS
10
103.21
20
-69.061
11
103.175
21
-69.1295
0
LINE
8
BLACK
6
CONTINUOUS
10
103.175
20
-69.1295
11
103.175
21
-69.3322
0
LINE
8
BLACK
6
CONTINUOUS
10
103.175
20
-69.3322
11
103.21
21
-69.4007
0
LINE
8
BLACK
6
CONTINUOUS
10
103.21
20
-69.4007
11
103.24
21
-69.4311
0
LINE
8
BLACK
6
CONTINUOUS
10
103.24
20
-69.4311
11
103.308
21
-69.4654
0
LINE
8
BLACK
6
CONTINUOUS
10
103.308
20
-69.4654
11
103.511
21
-69.4654
0
LINE
8
BLACK
6
CONTINUOUS
10
103.511
20
-69.4654
11
103.58
21
-69.4311
0
LINE
8
BLACK
6
CONTINUOUS
10
103.58
20
-69.4311
11
103.619
21
-69.3921
0
LINE
8
BLACK
6
CONTINUOUS
10
103.619
20
-69.3921
11
103.64
21
-69.3772
0
LINE
8
BLACK
6
CONTINUOUS
10
103.64
20
-69.3772
11
103.665
21
-69.3704
0
LINE
8
BLACK
6
CONTINUOUS
10
103.665
20
-69.3704
11
103.691
21
-69.3727
0
LINE
8
BLACK
6
CONTINUOUS
10
103.691
20
-69.3727
11
103.715
21
-69.3837
0
LINE
8
BLACK
6
CONTINUOUS
10
103.715
20
-69.3837
11
103.733
21
-69.4021
0
LINE
8
BLACK
6
CONTINUOUS
10
103.733
20
-69.4021
11
103.744
21
-69.4257
0
LINE
8
BLACK
6
CONTINUOUS
10
103.744
20
-69.4257
11
103.746
21
-69.4517
0
LINE
8
BLACK
6
CONTINUOUS
10
103.746
20
-69.4517
11
103.74
21
-69.4768
0
LINE
8
BLACK
6
CONTINUOUS
10
103.74
20
-69.4768
11
103.725
21
-69.4982
0
LINE
8
BLACK
6
CONTINUOUS
10
103.725
20
-69.4982
11
103.677
21
-69.5458
0
LINE
8
BLACK
6
CONTINUOUS
10
103.677
20
-69.5458
11
103.667
21
-69.5527
0
LINE
8
BLACK
6
CONTINUOUS
10
103.667
20
-69.5527
11
103.658
21
-69.5598
0
LINE
8
BLACK
6
CONTINUOUS
10
103.658
20
-69.5598
11
103.562
21
-69.6075
0
LINE
8
BLACK
6
CONTINUOUS
10
103.562
20
-69.6075
11
103.558
21
-69.6087
0
LINE
8
BLACK
6
CONTINUOUS
10
103.558
20
-69.6087
11
103.555
21
-69.6109
0
LINE
8
BLACK
6
CONTINUOUS
10
103.555
20
-69.6109
11
103.546
21
-69.6124
0
LINE
8
BLACK
6
CONTINUOUS
10
103.546
20
-69.6124
11
103.537
21
-69.6149
0
LINE
8
BLACK
6
CONTINUOUS
10
103.537
20
-69.6149
11
103.533
21
-69.6146
0
LINE
8
BLACK
6
CONTINUOUS
10
103.533
20
-69.6146
11
103.529
21
-69.6154
0
LINE
8
BLACK
6
CONTINUOUS
10
103.529
20
-69.6154
11
103.291
21
-69.6154
0
LINE
8
BLACK
6
CONTINUOUS
10
103.291
20
-69.6154
11
103.287
21
-69.6146
0
LINE
8
BLACK
6
CONTINUOUS
10
103.287
20
-69.6146
11
103.282
21
-69.6149
0
LINE
8
BLACK
6
CONTINUOUS
10
103.282
20
-69.6149
11
103.274
21
-69.6124
0
LINE
8
BLACK
6
CONTINUOUS
10
103.274
20
-69.6124
11
103.265
21
-69.6109
0
LINE
8
BLACK
6
CONTINUOUS
10
103.265
20
-69.6109
11
103.261
21
-69.6087
0
LINE
8
BLACK
6
CONTINUOUS
10
103.261
20
-69.6087
11
103.257
21
-69.6075
0
LINE
8
BLACK
6
CONTINUOUS
10
103.257
20
-69.6075
11
103.162
21
-69.5598
0
LINE
8
BLACK
6
CONTINUOUS
10
103.162
20
-69.5598
11
103.152
21
-69.5527
0
LINE
8
BLACK
6
CONTINUOUS
10
103.152
20
-69.5527
11
103.142
21
-69.5458
0
LINE
8
BLACK
6
CONTINUOUS
10
103.142
20
-69.5458
11
103.095
21
-69.4982
0
LINE
8
BLACK
6
CONTINUOUS
10
103.095
20
-69.4982
11
103.088
21
-69.4883
0
LINE
8
BLACK
6
CONTINUOUS
10
103.088
20
-69.4883
11
103.081
21
-69.4787
0
LINE
8
BLACK
6
CONTINUOUS
10
103.081
20
-69.4787
11
103.033
21
-69.3834
0
LINE
8
BLACK
6
CONTINUOUS
10
103.033
20
-69.3834
11
103.032
21
-69.3793
0
LINE
8
BLACK
6
CONTINUOUS
10
103.032
20
-69.3793
11
103.03
21
-69.3756
0
LINE
8
BLACK
6
CONTINUOUS
10
103.03
20
-69.3756
11
103.028
21
-69.3669
0
LINE
8
BLACK
6
CONTINUOUS
10
103.028
20
-69.3669
11
103.026
21
-69.3585
0
LINE
8
BLACK
6
CONTINUOUS
10
103.026
20
-69.3585
11
103.026
21
-69.3542
0
LINE
8
BLACK
6
CONTINUOUS
10
103.026
20
-69.3542
11
103.025
21
-69.3499
0
LINE
8
BLACK
6
CONTINUOUS
10
103.025
20
-69.3499
11
103.025
21
-69.1118
0
LINE
8
BLACK
6
CONTINUOUS
10
103.025
20
-69.1118
11
103.026
21
-69.1076
0
LINE
8
BLACK
6
CONTINUOUS
10
103.026
20
-69.1076
11
103.026
21
-69.1032
0
LINE
8
BLACK
6
CONTINUOUS
10
103.026
20
-69.1032
11
103.028
21
-69.0948
0
LINE
8
BLACK
6
CONTINUOUS
10
103.028
20
-69.0948
11
103.03
21
-69.0862
0
LINE
8
BLACK
6
CONTINUOUS
10
103.03
20
-69.0862
11
103.032
21
-69.0824
0
LINE
8
BLACK
6
CONTINUOUS
10
103.032
20
-69.0824
11
103.033
21
-69.0783
0
LINE
8
BLACK
6
CONTINUOUS
10
103.033
20
-69.0783
11
103.081
21
-68.983
0
LINE
8
BLACK
6
CONTINUOUS
10
103.081
20
-68.983
11
103.088
21
-68.9734
0
LINE
8
BLACK
6
CONTINUOUS
10
103.088
20
-68.9734
11
103.095
21
-68.9635
0
LINE
8
BLACK
6
CONTINUOUS
10
103.095
20
-68.9635
11
103.142
21
-68.9159
0
LINE
8
BLACK
6
CONTINUOUS
10
103.142
20
-68.9159
11
103.152
21
-68.909
0
LINE
8
BLACK
6
CONTINUOUS
10
103.152
20
-68.909
11
103.162
21
-68.9019
0
LINE
8
BLACK
6
CONTINUOUS
10
103.162
20
-68.9019
11
103.257
21
-68.8543
0
LINE
8
BLACK
6
CONTINUOUS
10
103.257
20
-68.8543
11
103.261
21
-68.853
0
LINE
8
BLACK
6
CONTINUOUS
10
103.261
20
-68.853
11
103.265
21
-68.8509
0
LINE
8
BLACK
6
CONTINUOUS
10
103.265
20
-68.8509
11
103.274
21
-68.8493
0
LINE
8
BLACK
6
CONTINUOUS
10
103.274
20
-68.8493
11
103.282
21
-68.8468
0
LINE
8
BLACK
6
CONTINUOUS
10
103.282
20
-68.8468
11
103.287
21
-68.8471
0
LINE
8
BLACK
6
CONTINUOUS
10
103.287
20
-68.8471
11
103.291
21
-68.8463
0
LINE
8
BLACK
6
CONTINUOUS
10
103.291
20
-68.8463
11
103.529
21
-68.8463
0
LINE
8
BLACK
6
CONTINUOUS
10
103.529
20
-68.8463
11
103.533
21
-68.8471
0
LINE
8
BLACK
6
CONTINUOUS
10
103.533
20
-68.8471
11
103.537
21
-68.8468
0
LINE
8
BLACK
6
CONTINUOUS
10
103.537
20
-68.8468
11
103.546
21
-68.8493
0
LINE
8
BLACK
6
CONTINUOUS
10
103.546
20
-68.8493
11
103.555
21
-68.8509
0
LINE
8
BLACK
6
CONTINUOUS
10
103.555
20
-68.8509
11
103.558
21
-68.853
0
LINE
8
BLACK
6
CONTINUOUS
10
103.558
20
-68.853
11
103.562
21
-68.8543
0
LINE
8
BLACK
6
CONTINUOUS
10
103.562
20
-68.8543
11
103.581
21
-68.8636
0
LINE
8
BLACK
6
CONTINUOUS
10
103.581
20
-68.8636
11
103.556
21
-68.6154
0
LINE
8
BLACK
6
CONTINUOUS
10
103.556
20
-68.6154
11
103.148
21
-68.6154
0
LINE
8
BLACK
6
CONTINUOUS
10
103.148
20
-68.6154
11
103.122
21
-68.6109
0
LINE
8
BLACK
6
CONTINUOUS
10
103.122
20
-68.6109
11
103.1
21
-68.5978
0
LINE
8
BLACK
6
CONTINUOUS
10
103.1
20
-68.5978
11
103.083
21
-68.5779
0
LINE
8
BLACK
6
CONTINUOUS
10
103.083
20
-68.5779
11
103.074
21
-68.5534
0
LINE
8
BLACK
6
CONTINUOUS
10
103.074
20
-68.5534
11
103.074
21
-68.5274
0
LINE
8
BLACK
6
CONTINUOUS
10
103.074
20
-68.5274
11
103.083
21
-68.5029
0
LINE
8
BLACK
6
CONTINUOUS
10
103.083
20
-68.5029
11
103.1
21
-68.4829
0
LINE
8
BLACK
6
CONTINUOUS
10
103.1
20
-68.4829
11
103.122
21
-68.4699
0
LINE
8
BLACK
6
CONTINUOUS
10
103.122
20
-68.4699
11
103.148
21
-68.4654
0
LINE
8
BLACK
6
CONTINUOUS
10
103.148
20
-68.4654
11
103.624
21
-68.4654
0
LINE
8
BLACK
6
CONTINUOUS
10
103.624
20
-68.4654
11
103.627
21
-68.4659
0
LINE
8
BLACK
6
CONTINUOUS
10
104.35
20
-68.4675
11
104.362
21
-68.4692
0
LINE
8
BLACK
6
CONTINUOUS
10
104.362
20
-68.4692
11
104.505
21
-68.5168
0
LINE
8
BLACK
6
CONTINUOUS
10
104.505
20
-68.5168
11
104.509
21
-68.5189
0
LINE
8
BLACK
6
CONTINUOUS
10
104.509
20
-68.5189
11
104.513
21
-68.52
0
LINE
8
BLACK
6
CONTINUOUS
10
104.513
20
-68.52
11
104.52
21
-68.5251
0
LINE
8
BLACK
6
CONTINUOUS
10
104.52
20
-68.5251
11
104.528
21
-68.5293
0
LINE
8
BLACK
6
CONTINUOUS
10
104.528
20
-68.5293
11
104.531
21
-68.5325
0
LINE
8
BLACK
6
CONTINUOUS
10
104.531
20
-68.5325
11
104.534
21
-68.535
0
LINE
8
BLACK
6
CONTINUOUS
10
104.534
20
-68.535
11
104.63
21
-68.6302
0
LINE
8
BLACK
6
CONTINUOUS
10
104.63
20
-68.6302
11
104.636
21
-68.6401
0
LINE
8
BLACK
6
CONTINUOUS
10
104.636
20
-68.6401
11
104.644
21
-68.6497
0
LINE
8
BLACK
6
CONTINUOUS
10
104.644
20
-68.6497
11
104.691
21
-68.7449
0
LINE
8
BLACK
6
CONTINUOUS
10
104.691
20
-68.7449
11
104.694
21
-68.7528
0
LINE
8
BLACK
6
CONTINUOUS
10
104.694
20
-68.7528
11
104.697
21
-68.7603
0
LINE
8
BLACK
6
CONTINUOUS
10
104.697
20
-68.7603
11
104.744
21
-68.9508
0
LINE
8
BLACK
6
CONTINUOUS
10
104.744
20
-68.9508
11
104.745
21
-68.9599
0
LINE
8
BLACK
6
CONTINUOUS
10
104.745
20
-68.9599
11
104.747
21
-68.969
0
LINE
8
BLACK
6
CONTINUOUS
10
104.747
20
-68.969
11
104.747
21
-69.1118
0
LINE
8
BLACK
6
CONTINUOUS
10
104.747
20
-69.1118
11
104.745
21
-69.1208
0
LINE
8
BLACK
6
CONTINUOUS
10
104.745
20
-69.1208
11
104.744
21
-69.13
0
LINE
8
BLACK
6
CONTINUOUS
10
104.744
20
-69.13
11
104.697
21
-69.3205
0
LINE
8
BLACK
6
CONTINUOUS
10
104.697
20
-69.3205
11
104.694
21
-69.328
0
LINE
8
BLACK
6
CONTINUOUS
10
104.694
20
-69.328
11
104.691
21
-69.3358
0
LINE
8
BLACK
6
CONTINUOUS
10
104.691
20
-69.3358
11
104.644
21
-69.4311
0
LINE
8
BLACK
6
CONTINUOUS
10
104.644
20
-69.4311
11
104.636
21
-69.4407
0
LINE
8
BLACK
6
CONTINUOUS
10
104.636
20
-69.4407
11
104.63
21
-69.4506
0
LINE
8
BLACK
6
CONTINUOUS
10
104.63
20
-69.4506
11
104.534
21
-69.5458
0
LINE
8
BLACK
6
CONTINUOUS
10
104.534
20
-69.5458
11
104.531
21
-69.5483
0
LINE
8
BLACK
6
CONTINUOUS
10
104.531
20
-69.5483
11
104.528
21
-69.5515
0
LINE
8
BLACK
6
CONTINUOUS
10
104.528
20
-69.5515
11
104.52
21
-69.5557
0
LINE
8
BLACK
6
CONTINUOUS
10
104.52
20
-69.5557
11
104.513
21
-69.5607
0
LINE
8
BLACK
6
CONTINUOUS
10
104.513
20
-69.5607
11
104.509
21
-69.5619
0
LINE
8
BLACK
6
CONTINUOUS
10
104.509
20
-69.5619
11
104.505
21
-69.5639
0
LINE
8
BLACK
6
CONTINUOUS
10
104.505
20
-69.5639
11
104.362
21
-69.6115
0
LINE
8
BLACK
6
CONTINUOUS
10
104.362
20
-69.6115
11
104.35
21
-69.6133
0
LINE
8
BLACK
6
CONTINUOUS
10
104.35
20
-69.6133
11
104.338
21
-69.6154
0
LINE
8
BLACK
6
CONTINUOUS
10
104.338
20
-69.6154
11
104.243
21
-69.6154
0
LINE
8
BLACK
6
CONTINUOUS
10
104.243
20
-69.6154
11
104.231
21
-69.6133
0
LINE
8
BLACK
6
CONTINUOUS
10
104.231
20
-69.6133
11
104.219
21
-69.6115
0
LINE
8
BLACK
6
CONTINUOUS
10
104.219
20
-69.6115
11
104.077
21
-69.5639
0
LINE
8
BLACK
6
CONTINUOUS
10
104.077
20
-69.5639
11
104.073
21
-69.5619
0
LINE
8
BLACK
6
CONTINUOUS
10
104.073
20
-69.5619
11
104.069
21
-69.5607
0
LINE
8
BLACK
6
CONTINUOUS
10
104.069
20
-69.5607
11
104.061
21
-69.5557
0
LINE
8
BLACK
6
CONTINUOUS
10
104.061
20
-69.5557
11
104.054
21
-69.5515
0
LINE
8
BLACK
6
CONTINUOUS
10
104.054
20
-69.5515
11
104.051
21
-69.5483
0
LINE
8
BLACK
6
CONTINUOUS
10
104.051
20
-69.5483
11
104.047
21
-69.5458
0
LINE
8
BLACK
6
CONTINUOUS
10
104.047
20
-69.5458
11
104
21
-69.4982
0
LINE
8
BLACK
6
CONTINUOUS
10
104
20
-69.4982
11
103.985
21
-69.4768
0
LINE
8
BLACK
6
CONTINUOUS
10
103.985
20
-69.4768
11
103.978
21
-69.4517
0
LINE
8
BLACK
6
CONTINUOUS
10
103.978
20
-69.4517
11
103.98
21
-69.4257
0
LINE
8
BLACK
6
CONTINUOUS
10
103.98
20
-69.4257
11
103.991
21
-69.4021
0
LINE
8
BLACK
6
CONTINUOUS
10
103.991
20
-69.4021
11
104.01
21
-69.3837
0
LINE
8
BLACK
6
CONTINUOUS
10
104.01
20
-69.3837
11
104.033
21
-69.3727
0
LINE
8
BLACK
6
CONTINUOUS
10
104.033
20
-69.3727
11
104.059
21
-69.3704
0
LINE
8
BLACK
6
CONTINUOUS
10
104.059
20
-69.3704
11
104.084
21
-69.3772
0
LINE
8
BLACK
6
CONTINUOUS
10
104.084
20
-69.3772
11
104.106
21
-69.3921
0
LINE
8
BLACK
6
CONTINUOUS
10
104.106
20
-69.3921
11
104.141
21
-69.4272
0
LINE
8
BLACK
6
CONTINUOUS
10
104.141
20
-69.4272
11
104.255
21
-69.4654
0
LINE
8
BLACK
6
CONTINUOUS
10
104.255
20
-69.4654
11
104.326
21
-69.4654
0
LINE
8
BLACK
6
CONTINUOUS
10
104.326
20
-69.4654
11
104.441
21
-69.4272
0
LINE
8
BLACK
6
CONTINUOUS
10
104.441
20
-69.4272
11
104.515
21
-69.3531
0
LINE
8
BLACK
6
CONTINUOUS
10
104.515
20
-69.3531
11
104.553
21
-69.2761
0
LINE
8
BLACK
6
CONTINUOUS
10
104.553
20
-69.2761
11
104.597
21
-69.1026
0
LINE
8
BLACK
6
CONTINUOUS
10
104.597
20
-69.1026
11
104.597
21
-68.9782
0
LINE
8
BLACK
6
CONTINUOUS
10
104.597
20
-68.9782
11
104.553
21
-68.8047
0
LINE
8
BLACK
6
CONTINUOUS
10
104.553
20
-68.8047
11
104.515
21
-68.7277
0
LINE
8
BLACK
6
CONTINUOUS
10
104.515
20
-68.7277
11
104.441
21
-68.6536
0
LINE
8
BLACK
6
CONTINUOUS
10
104.441
20
-68.6536
11
104.326
21
-68.6154
0
LINE
8
BLACK
6
CONTINUOUS
10
104.326
20
-68.6154
11
104.255
21
-68.6154
0
LINE
8
BLACK
6
CONTINUOUS
10
104.255
20
-68.6154
11
104.141
21
-68.6536
0
LINE
8
BLACK
6
CONTINUOUS
10
104.141
20
-68.6536
11
104.106
21
-68.6887
0
LINE
8
BLACK
6
CONTINUOUS
10
104.106
20
-68.6887
11
104.084
21
-68.7036
0
LINE
8
BLACK
6
CONTINUOUS
10
104.084
20
-68.7036
11
104.059
21
-68.7103
0
LINE
8
BLACK
6
CONTINUOUS
10
104.059
20
-68.7103
11
104.033
21
-68.7081
0
LINE
8
BLACK
6
CONTINUOUS
10
104.033
20
-68.7081
11
104.01
21
-68.6971
0
LINE
8
BLACK
6
CONTINUOUS
10
104.01
20
-68.6971
11
103.991
21
-68.6786
0
LINE
8
BLACK
6
CONTINUOUS
10
103.991
20
-68.6786
11
103.98
21
-68.655
0
LINE
8
BLACK
6
CONTINUOUS
10
103.98
20
-68.655
11
103.978
21
-68.6291
0
LINE
8
BLACK
6
CONTINUOUS
10
103.978
20
-68.6291
11
103.985
21
-68.6039
0
LINE
8
BLACK
6
CONTINUOUS
10
103.985
20
-68.6039
11
104
21
-68.5826
0
LINE
8
BLACK
6
CONTINUOUS
10
104
20
-68.5826
11
104.047
21
-68.535
0
LINE
8
BLACK
6
CONTINUOUS
10
104.047
20
-68.535
11
104.051
21
-68.5325
0
LINE
8
BLACK
6
CONTINUOUS
10
104.051
20
-68.5325
11
104.054
21
-68.5293
0
LINE
8
BLACK
6
CONTINUOUS
10
104.054
20
-68.5293
11
104.061
21
-68.5251
0
LINE
8
BLACK
6
CONTINUOUS
10
104.061
20
-68.5251
11
104.069
21
-68.52
0
LINE
8
BLACK
6
CONTINUOUS
10
104.069
20
-68.52
11
104.073
21
-68.5189
0
LINE
8
BLACK
6
CONTINUOUS
10
104.073
20
-68.5189
11
104.077
21
-68.5168
0
LINE
8
BLACK
6
CONTINUOUS
10
104.077
20
-68.5168
11
104.219
21
-68.4692
0
LINE
8
BLACK
6
CONTINUOUS
10
104.219
20
-68.4692
11
104.231
21
-68.4675
0
LINE
8
BLACK
6
CONTINUOUS
10
104.231
20
-68.4675
11
104.243
21
-68.4654
0
LINE
8
BLACK
6
CONTINUOUS
10
104.243
20
-68.4654
11
104.338
21
-68.4654
0
LINE
8
BLACK
6
CONTINUOUS
10
104.338
20
-68.4654
11
104.35
21
-68.4675
0
LINE
8
BLACK
6
CONTINUOUS
10
102.191
20
-68.4675
11
102.203
21
-68.4692
0
LINE
8
BLACK
6
CONTINUOUS
10
102.203
20
-68.4692
11
102.346
21
-68.5168
0
LINE
8
BLACK
6
CONTINUOUS
10
102.346
20
-68.5168
11
102.35
21
-68.5189
0
LINE
8
BLACK
6
CONTINUOUS
10
102.35
20
-68.5189
11
102.354
21
-68.52
0
LINE
8
BLACK
6
CONTINUOUS
10
102.354
20
-68.52
11
102.361
21
-68.5251
0
LINE
8
BLACK
6
CONTINUOUS
10
102.361
20
-68.5251
11
102.369
21
-68.5293
0
LINE
8
BLACK
6
CONTINUOUS
10
102.369
20
-68.5293
11
102.372
21
-68.5325
0
LINE
8
BLACK
6
CONTINUOUS
10
102.372
20
-68.5325
11
102.375
21
-68.535
0
LINE
8
BLACK
6
CONTINUOUS
10
102.375
20
-68.535
11
102.471
21
-68.6302
0
LINE
8
BLACK
6
CONTINUOUS
10
102.471
20
-68.6302
11
102.477
21
-68.6401
0
LINE
8
BLACK
6
CONTINUOUS
10
102.477
20
-68.6401
11
102.485
21
-68.6497
0
LINE
8
BLACK
6
CONTINUOUS
10
102.485
20
-68.6497
11
102.532
21
-68.7449
0
LINE
8
BLACK
6
CONTINUOUS
10
102.532
20
-68.7449
11
102.535
21
-68.7528
0
LINE
8
BLACK
6
CONTINUOUS
10
102.535
20
-68.7528
11
102.538
21
-68.7603
0
LINE
8
BLACK
6
CONTINUOUS
10
102.538
20
-68.7603
11
102.585
21
-68.9508
0
LINE
8
BLACK
6
CONTINUOUS
10
102.585
20
-68.9508
11
102.586
21
-68.9599
0
LINE
8
BLACK
6
CONTINUOUS
10
102.586
20
-68.9599
11
102.588
21
-68.969
0
LINE
8
BLACK
6
CONTINUOUS
10
102.588
20
-68.969
11
102.588
21
-69.1118
0
LINE
8
BLACK
6
CONTINUOUS
10
102.588
20
-69.1118
11
102.586
21
-69.1208
0
LINE
8
BLACK
6
CONTINUOUS
10
102.586
20
-69.1208
11
102.585
21
-69.13
0
LINE
8
BLACK
6
CONTINUOUS
10
102.585
20
-69.13
11
102.538
21
-69.3205
0
LINE
8
BLACK
6
CONTINUOUS
10
102.538
20
-69.3205
11
102.535
21
-69.328
0
LINE
8
BLACK
6
CONTINUOUS
10
102.535
20
-69.328
11
102.532
21
-69.3358
0
LINE
8
BLACK
6
CONTINUOUS
10
102.532
20
-69.3358
11
102.485
21
-69.4311
0
LINE
8
BLACK
6
CONTINUOUS
10
102.485
20
-69.4311
11
102.477
21
-69.4407
0
LINE
8
BLACK
6
CONTINUOUS
10
102.477
20
-69.4407
11
102.471
21
-69.4506
0
LINE
8
BLACK
6
CONTINUOUS
10
102.471
20
-69.4506
11
102.375
21
-69.5458
0
LINE
8
BLACK
6
CONTINUOUS
10
102.375
20
-69.5458
11
102.372
21
-69.5483
0
LINE
8
BLACK
6
CONTINUOUS
10
102.372
20
-69.5483
11
102.369
21
-69.5515
0
LINE
8
BLACK
6
CONTINUOUS
10
102.369
20
-69.5515
11
102.361
21
-69.5557
0
LINE
8
BLACK
6
CONTINUOUS
10
102.361
20
-69.5557
11
102.354
21
-69.5607
0
LINE
8
BLACK
6
CONTINUOUS
10
102.354
20
-69.5607
11
102.35
21
-69.5619
0
LINE
8
BLACK
6
CONTINUOUS
10
102.35
20
-69.5619
11
102.346
21
-69.5639
0
LINE
8
BLACK
6
CONTINUOUS
10
102.346
20
-69.5639
11
102.203
21
-69.6115
0
LINE
8
BLACK
6
CONTINUOUS
10
102.203
20
-69.6115
11
102.191
21
-69.6133
0
LINE
8
BLACK
6
CONTINUOUS
10
102.191
20
-69.6133
11
102.179
21
-69.6154
0
LINE
8
BLACK
6
CONTINUOUS
10
102.179
20
-69.6154
11
102.084
21
-69.6154
0
LINE
8
BLACK
6
CONTINUOUS
10
102.084
20
-69.6154
11
102.072
21
-69.6133
0
LINE
8
BLACK
6
CONTINUOUS
10
102.072
20
-69.6133
11
102.06
21
-69.6115
0
LINE
8
BLACK
6
CONTINUOUS
10
102.06
20
-69.6115
11
101.918
21
-69.5639
0
LINE
8
BLACK
6
CONTINUOUS
10
101.918
20
-69.5639
11
101.914
21
-69.5619
0
LINE
8
BLACK
6
CONTINUOUS
10
101.914
20
-69.5619
11
101.91
21
-69.5607
0
LINE
8
BLACK
6
CONTINUOUS
10
101.91
20
-69.5607
11
101.902
21
-69.5557
0
LINE
8
BLACK
6
CONTINUOUS
10
101.902
20
-69.5557
11
101.895
21
-69.5515
0
LINE
8
BLACK
6
CONTINUOUS
10
101.895
20
-69.5515
11
101.892
21
-69.5483
0
LINE
8
BLACK
6
CONTINUOUS
10
101.892
20
-69.5483
11
101.888
21
-69.5458
0
LINE
8
BLACK
6
CONTINUOUS
10
101.888
20
-69.5458
11
101.841
21
-69.4982
0
LINE
8
BLACK
6
CONTINUOUS
10
101.841
20
-69.4982
11
101.826
21
-69.4768
0
LINE
8
BLACK
6
CONTINUOUS
10
101.826
20
-69.4768
11
101.819
21
-69.4517
0
LINE
8
BLACK
6
CONTINUOUS
10
101.819
20
-69.4517
11
101.821
21
-69.4257
0
LINE
8
BLACK
6
CONTINUOUS
10
101.821
20
-69.4257
11
101.832
21
-69.4021
0
LINE
8
BLACK
6
CONTINUOUS
10
101.832
20
-69.4021
11
101.851
21
-69.3837
0
LINE
8
BLACK
6
CONTINUOUS
10
101.851
20
-69.3837
11
101.874
21
-69.3727
0
LINE
8
BLACK
6
CONTINUOUS
10
101.874
20
-69.3727
11
101.9
21
-69.3704
0
LINE
8
BLACK
6
CONTINUOUS
10
101.9
20
-69.3704
11
101.925
21
-69.3772
0
LINE
8
BLACK
6
CONTINUOUS
10
101.925
20
-69.3772
11
101.947
21
-69.3921
0
LINE
8
BLACK
6
CONTINUOUS
10
101.947
20
-69.3921
11
101.982
21
-69.4272
0
LINE
8
BLACK
6
CONTINUOUS
10
101.982
20
-69.4272
11
102.096
21
-69.4654
0
LINE
8
BLACK
6
CONTINUOUS
10
102.096
20
-69.4654
11
102.167
21
-69.4654
0
LINE
8
BLACK
6
CONTINUOUS
10
102.167
20
-69.4654
11
102.282
21
-69.4272
0
LINE
8
BLACK
6
CONTINUOUS
10
102.282
20
-69.4272
11
102.356
21
-69.3531
0
LINE
8
BLACK
6
CONTINUOUS
10
102.356
20
-69.3531
11
102.394
21
-69.2761
0
LINE
8
BLACK
6
CONTINUOUS
10
102.394
20
-69.2761
11
102.438
21
-69.1026
0
LINE
8
BLACK
6
CONTINUOUS
10
102.438
20
-69.1026
11
102.438
21
-68.9782
0
LINE
8
BLACK
6
CONTINUOUS
10
102.438
20
-68.9782
11
102.394
21
-68.8047
0
LINE
8
BLACK
6
CONTINUOUS
10
102.394
20
-68.8047
11
102.356
21
-68.7277
0
LINE
8
BLACK
6
CONTINUOUS
10
102.356
20
-68.7277
11
102.282
21
-68.6536
0
LINE
8
BLACK
6
CONTINUOUS
10
102.282
20
-68.6536
11
102.167
21
-68.6154
0
LINE
8
BLACK
6
CONTINUOUS
10
102.167
20
-68.6154
11
102.096
21
-68.6154
0
LINE
8
BLACK
6
CONTINUOUS
10
102.096
20
-68.6154
11
101.982
21
-68.6536
0
LINE
8
BLACK
6
CONTINUOUS
10
101.982
20
-68.6536
11
101.947
21
-68.6887
0
LINE
8
BLACK
6
CONTINUOUS
10
101.947
20
-68.6887
11
101.925
21
-68.7036
0
LINE
8
BLACK
6
CONTINUOUS
10
101.925
20
-68.7036
11
101.9
21
-68.7103
0
LINE
8
BLACK
6
CONTINUOUS
10
101.9
20
-68.7103
11
101.874
21
-68.7081
0
LINE
8
BLACK
6
CONTINUOUS
10
101.874
20
-68.7081
11
101.851
21
-68.6971
0
LINE
8
BLACK
6
CONTINUOUS
10
101.851
20
-68.6971
11
101.832
21
-68.6786
0
LINE
8
BLACK
6
CONTINUOUS
10
101.832
20
-68.6786
11
101.821
21
-68.655
0
LINE
8
BLACK
6
CONTINUOUS
10
101.821
20
-68.655
11
101.819
21
-68.6291
0
LINE
8
BLACK
6
CONTINUOUS
10
101.819
20
-68.6291
11
101.826
21
-68.6039
0
LINE
8
BLACK
6
CONTINUOUS
10
101.826
20
-68.6039
11
101.841
21
-68.5826
0
LINE
8
BLACK
6
CONTINUOUS
10
101.841
20
-68.5826
11
101.888
21
-68.535
0
LINE
8
BLACK
6
CONTINUOUS
10
101.888
20
-68.535
11
101.892
21
-68.5325
0
LINE
8
BLACK
6
CONTINUOUS
10
101.892
20
-68.5325
11
101.895
21
-68.5293
0
LINE
8
BLACK
6
CONTINUOUS
10
101.895
20
-68.5293
11
101.902
21
-68.5251
0
LINE
8
BLACK
6
CONTINUOUS
10
101.902
20
-68.5251
11
101.91
21
-68.52
0
LINE
8
BLACK
6
CONTINUOUS
10
101.91
20
-68.52
11
101.914
21
-68.5189
0
LINE
8
BLACK
6
CONTINUOUS
10
101.914
20
-68.5189
11
101.918
21
-68.5168
0
LINE
8
BLACK
6
CONTINUOUS
10
101.918
20
-68.5168
11
102.06
21
-68.4692
0
LINE
8
BLACK
6
CONTINUOUS
10
102.06
20
-68.4692
11
102.072
21
-68.4675
0
LINE
8
BLACK
6
CONTINUOUS
10
102.072
20
-68.4675
11
102.084
21
-68.4654
0
LINE
8
BLACK
6
CONTINUOUS
10
102.084
20
-68.4654
11
102.179
21
-68.4654
0
LINE
8
BLACK
6
CONTINUOUS
10
102.179
20
-68.4654
11
102.191
21
-68.4675
0
LINE
8
BLACK
6
CONTINUOUS
10
99.1675
20
-68.4661
11
99.1718
21
-68.4659
0
LINE
8
BLACK
6
CONTINUOUS
10
99.1718
20
-68.4659
11
99.1802
21
-68.4684
0
LINE
8
BLACK
6
CONTINUOUS
10
99.1802
20
-68.4684
11
99.1889
21
-68.4699
0
LINE
8
BLACK
6
CONTINUOUS
10
99.1889
20
-68.4699
11
99.1926
21
-68.4721
0
LINE
8
BLACK
6
CONTINUOUS
10
99.1926
20
-68.4721
11
99.1968
21
-68.4733
0
LINE
8
BLACK
6
CONTINUOUS
10
99.1968
20
-68.4733
11
99.292
21
-68.5209
0
LINE
8
BLACK
6
CONTINUOUS
10
99.292
20
-68.5209
11
99.3017
21
-68.5281
0
LINE
8
BLACK
6
CONTINUOUS
10
99.3017
20
-68.5281
11
99.3115
21
-68.535
0
LINE
8
BLACK
6
CONTINUOUS
10
99.3115
20
-68.535
11
99.3591
21
-68.5826
0
LINE
8
BLACK
6
CONTINUOUS
10
99.3591
20
-68.5826
11
99.366
21
-68.5924
0
LINE
8
BLACK
6
CONTINUOUS
10
99.366
20
-68.5924
11
99.3732
21
-68.6021
0
LINE
8
BLACK
6
CONTINUOUS
10
99.3732
20
-68.6021
11
99.4208
21
-68.6973
0
LINE
8
BLACK
6
CONTINUOUS
10
99.4208
20
-68.6973
11
99.422
21
-68.7015
0
LINE
8
BLACK
6
CONTINUOUS
10
99.422
20
-68.7015
11
99.4242
21
-68.7052
0
LINE
8
BLACK
6
CONTINUOUS
10
99.4242
20
-68.7052
11
99.4257
21
-68.7139
0
LINE
8
BLACK
6
CONTINUOUS
10
99.4257
20
-68.7139
11
99.4282
21
-68.7223
0
LINE
8
BLACK
6
CONTINUOUS
10
99.4282
20
-68.7223
11
99.428
21
-68.7266
0
LINE
8
BLACK
6
CONTINUOUS
10
99.428
20
-68.7266
11
99.4287
21
-68.7309
0
LINE
8
BLACK
6
CONTINUOUS
10
99.4287
20
-68.7309
11
99.4287
21
-68.969
0
LINE
8
BLACK
6
CONTINUOUS
10
99.4287
20
-68.969
11
99.428
21
-68.9732
0
LINE
8
BLACK
6
CONTINUOUS
10
99.428
20
-68.9732
11
99.4282
21
-68.9775
0
LINE
8
BLACK
6
CONTINUOUS
10
99.4282
20
-68.9775
11
99.4257
21
-68.9859
0
LINE
8
BLACK
6
CONTINUOUS
10
99.4257
20
-68.9859
11
99.4242
21
-68.9946
0
LINE
8
BLACK
6
CONTINUOUS
10
99.4242
20
-68.9946
11
99.422
21
-68.9983
0
LINE
8
BLACK
6
CONTINUOUS
10
99.422
20
-68.9983
11
99.4208
21
-69.0025
0
LINE
8
BLACK
6
CONTINUOUS
10
99.4208
20
-69.0025
11
99.3732
21
-69.0977
0
LINE
8
BLACK
6
CONTINUOUS
10
99.3732
20
-69.0977
11
99.366
21
-69.1074
0
LINE
8
BLACK
6
CONTINUOUS
10
99.366
20
-69.1074
11
99.3591
21
-69.1172
0
LINE
8
BLACK
6
CONTINUOUS
10
99.3591
20
-69.1172
11
99.3115
21
-69.1648
0
LINE
8
BLACK
6
CONTINUOUS
10
99.3115
20
-69.1648
11
99.3017
21
-69.1717
0
LINE
8
BLACK
6
CONTINUOUS
10
99.3017
20
-69.1717
11
99.292
21
-69.1789
0
LINE
8
BLACK
6
CONTINUOUS
10
99.292
20
-69.1789
11
99.1968
21
-69.2265
0
LINE
8
BLACK
6
CONTINUOUS
10
99.1968
20
-69.2265
11
99.1926
21
-69.2277
0
LINE
8
BLACK
6
CONTINUOUS
10
99.1926
20
-69.2277
11
99.1889
21
-69.2299
0
LINE
8
BLACK
6
CONTINUOUS
10
99.1889
20
-69.2299
11
99.1802
21
-69.2314
0
LINE
8
BLACK
6
CONTINUOUS
10
99.1802
20
-69.2314
11
99.1718
21
-69.2339
0
LINE
8
BLACK
6
CONTINUOUS
10
99.1718
20
-69.2339
11
99.1675
21
-69.2337
0
LINE
8
BLACK
6
CONTINUOUS
10
99.1675
20
-69.2337
11
99.1632
21
-69.2344
0
LINE
8
BLACK
6
CONTINUOUS
10
99.1632
20
-69.2344
11
98.9728
21
-69.2344
0
LINE
8
BLACK
6
CONTINUOUS
10
98.9728
20
-69.2344
11
98.9685
21
-69.2337
0
LINE
8
BLACK
6
CONTINUOUS
10
98.9685
20
-69.2337
11
98.9642
21
-69.2339
0
LINE
8
BLACK
6
CONTINUOUS
10
98.9642
20
-69.2339
11
98.9558
21
-69.2314
0
LINE
8
BLACK
6
CONTINUOUS
10
98.9558
20
-69.2314
11
98.9471
21
-69.2299
0
LINE
8
BLACK
6
CONTINUOUS
10
98.9471
20
-69.2299
11
98.9434
21
-69.2277
0
LINE
8
BLACK
6
CONTINUOUS
10
98.9434
20
-69.2277
11
98.9392
21
-69.2265
0
LINE
8
BLACK
6
CONTINUOUS
10
98.9392
20
-69.2265
11
98.881
21
-69.1974
0
LINE
8
BLACK
6
CONTINUOUS
10
98.881
20
-69.1974
11
98.8995
21
-69.2715
0
LINE
8
BLACK
6
CONTINUOUS
10
98.8995
20
-69.2715
11
98.9834
21
-69.3974
0
LINE
8
BLACK
6
CONTINUOUS
10
98.9834
20
-69.3974
11
99.0172
21
-69.4311
0
LINE
8
BLACK
6
CONTINUOUS
10
99.0172
20
-69.4311
11
99.0857
21
-69.4654
0
LINE
8
BLACK
6
CONTINUOUS
10
99.0857
20
-69.4654
11
99.2585
21
-69.4654
0
LINE
8
BLACK
6
CONTINUOUS
10
99.2585
20
-69.4654
11
99.2841
21
-69.4699
0
LINE
8
BLACK
6
CONTINUOUS
10
99.2841
20
-69.4699
11
99.3067
21
-69.4829
0
LINE
8
BLACK
6
CONTINUOUS
10
99.3067
20
-69.4829
11
99.3234
21
-69.5029
0
LINE
8
BLACK
6
CONTINUOUS
10
99.3234
20
-69.5029
11
99.3323
21
-69.5274
0
LINE
8
BLACK
6
CONTINUOUS
10
99.3323
20
-69.5274
11
99.3323
21
-69.5534
0
LINE
8
BLACK
6
CONTINUOUS
10
99.3323
20
-69.5534
11
99.3234
21
-69.5779
0
LINE
8
BLACK
6
CONTINUOUS
10
99.3234
20
-69.5779
11
99.3067
21
-69.5978
0
LINE
8
BLACK
6
CONTINUOUS
10
99.3067
20
-69.5978
11
99.2841
21
-69.6109
0
LINE
8
BLACK
6
CONTINUOUS
10
99.2841
20
-69.6109
11
99.2585
21
-69.6154
0
LINE
8
BLACK
6
CONTINUOUS
10
99.2585
20
-69.6154
11
99.068
21
-69.6154
0
LINE
8
BLACK
6
CONTINUOUS
10
99.068
20
-69.6154
11
99.0637
21
-69.6146
0
LINE
8
BLACK
6
CONTINUOUS
10
99.0637
20
-69.6146
11
99.0594
21
-69.6149
0
LINE
8
BLACK
6
CONTINUOUS
10
99.0594
20
-69.6149
11
99.051
21
-69.6124
0
LINE
8
BLACK
6
CONTINUOUS
10
99.051
20
-69.6124
11
99.0423
21
-69.6109
0
LINE
8
BLACK
6
CONTINUOUS
10
99.0423
20
-69.6109
11
99.0386
21
-69.6087
0
LINE
8
BLACK
6
CONTINUOUS
10
99.0386
20
-69.6087
11
99.0345
21
-69.6075
0
LINE
8
BLACK
6
CONTINUOUS
10
99.0345
20
-69.6075
11
98.9392
21
-69.5598
0
LINE
8
BLACK
6
CONTINUOUS
10
98.9392
20
-69.5598
11
98.9296
21
-69.5527
0
LINE
8
BLACK
6
CONTINUOUS
10
98.9296
20
-69.5527
11
98.9197
21
-69.5458
0
LINE
8
BLACK
6
CONTINUOUS
10
98.9197
20
-69.5458
11
98.8721
21
-69.4982
0
LINE
8
BLACK
6
CONTINUOUS
10
98.8721
20
-69.4982
11
98.8679
21
-69.4921
0
LINE
8
BLACK
6
CONTINUOUS
10
98.8679
20
-69.4921
11
98.8627
21
-69.4867
0
LINE
8
BLACK
6
CONTINUOUS
10
98.8627
20
-69.4867
11
98.7675
21
-69.3439
0
LINE
8
BLACK
6
CONTINUOUS
10
98.7675
20
-69.3439
11
98.7623
21
-69.3321
0
LINE
8
BLACK
6
CONTINUOUS
10
98.7623
20
-69.3321
11
98.7571
21
-69.3205
0
LINE
8
BLACK
6
CONTINUOUS
10
98.7571
20
-69.3205
11
98.7095
21
-69.13
0
LINE
8
BLACK
6
CONTINUOUS
10
98.7095
20
-69.13
11
98.7089
21
-69.1208
0
LINE
8
BLACK
6
CONTINUOUS
10
98.7089
20
-69.1208
11
98.7073
21
-69.1118
0
LINE
8
BLACK
6
CONTINUOUS
10
98.7073
20
-69.1118
11
98.7073
21
-68.7309
0
LINE
8
BLACK
6
CONTINUOUS
10
98.7073
20
-68.7309
11
98.708
21
-68.7266
0
LINE
8
BLACK
6
CONTINUOUS
10
98.708
20
-68.7266
11
98.7078
21
-68.7223
0
LINE
8
BLACK
6
CONTINUOUS
10
98.7078
20
-68.7223
11
98.7103
21
-68.7139
0
LINE
8
BLACK
6
CONTINUOUS
10
98.7103
20
-68.7139
11
98.7118
21
-68.7052
0
LINE
8
BLACK
6
CONTINUOUS
10
98.7118
20
-68.7052
11
98.714
21
-68.7015
0
LINE
8
BLACK
6
CONTINUOUS
10
98.714
20
-68.7015
11
98.7152
21
-68.6973
0
LINE
8
BLACK
6
CONTINUOUS
10
98.7152
20
-68.6973
11
98.7628
21
-68.6021
0
LINE
8
BLACK
6
CONTINUOUS
10
98.7628
20
-68.6021
11
98.77
21
-68.5924
0
LINE
8
BLACK
6
CONTINUOUS
10
98.77
20
-68.5924
11
98.7769
21
-68.5826
0
LINE
8
BLACK
6
CONTINUOUS
10
98.7769
20
-68.5826
11
98.8245
21
-68.535
0
LINE
8
BLACK
6
CONTINUOUS
10
98.8245
20
-68.535
11
98.8343
21
-68.5281
0
LINE
8
BLACK
6
CONTINUOUS
10
98.8343
20
-68.5281
11
98.844
21
-68.5209
0
LINE
8
BLACK
6
CONTINUOUS
10
98.844
20
-68.5209
11
98.9392
21
-68.4733
0
LINE
8
BLACK
6
CONTINUOUS
10
98.9392
20
-68.4733
11
98.9434
21
-68.4721
0
LINE
8
BLACK
6
CONTINUOUS
10
98.9434
20
-68.4721
11
98.9471
21
-68.4699
0
LINE
8
BLACK
6
CONTINUOUS
10
98.9471
20
-68.4699
11
98.9558
21
-68.4684
0
LINE
8
BLACK
6
CONTINUOUS
10
98.9558
20
-68.4684
11
98.9642
21
-68.4659
0
LINE
8
BLACK
6
CONTINUOUS
10
98.9642
20
-68.4659
11
98.9685
21
-68.4661
0
LINE
8
BLACK
6
CONTINUOUS
10
98.9685
20
-68.4661
11
98.9728
21
-68.4654
0
LINE
8
BLACK
6
CONTINUOUS
10
98.9728
20
-68.4654
11
99.1632
21
-68.4654
0
LINE
8
BLACK
6
CONTINUOUS
10
99.1632
20
-68.4654
11
99.1675
21
-68.4661
0
LINE
8
BLACK
6
CONTINUOUS
10
98.9905
20
-68.6154
11
98.9219
21
-68.6496
0
LINE
8
BLACK
6
CONTINUOUS
10
98.9219
20
-68.6496
11
98.8915
21
-68.68
0
LINE
8
BLACK
6
CONTINUOUS
10
98.8915
20
-68.68
11
98.8573
21
-68.7486
0
LINE
8
BLACK
6
CONTINUOUS
10
98.8573
20
-68.7486
11
98.8573
21
-68.9512
0
LINE
8
BLACK
6
CONTINUOUS
10
98.8573
20
-68.9512
11
98.8915
21
-69.0198
0
LINE
8
BLACK
6
CONTINUOUS
10
98.8915
20
-69.0198
11
98.9219
21
-69.0502
0
LINE
8
BLACK
6
CONTINUOUS
10
98.9219
20
-69.0502
11
98.9905
21
-69.0844
0
LINE
8
BLACK
6
CONTINUOUS
10
98.9905
20
-69.0844
11
99.1455
21
-69.0844
0
LINE
8
BLACK
6
CONTINUOUS
10
99.1455
20
-69.0844
11
99.214
21
-69.0502
0
LINE
8
BLACK
6
CONTINUOUS
10
99.214
20
-69.0502
11
99.2445
21
-69.0198
0
LINE
8
BLACK
6
CONTINUOUS
10
99.2445
20
-69.0198
11
99.2787
21
-68.9512
0
LINE
8
BLACK
6
CONTINUOUS
10
99.2787
20
-68.9512
11
99.2787
21
-68.7486
0
LINE
8
BLACK
6
CONTINUOUS
10
99.2787
20
-68.7486
11
99.2445
21
-68.68
0
LINE
8
BLACK
6
CONTINUOUS
10
99.2445
20
-68.68
11
99.214
21
-68.6496
0
LINE
8
BLACK
6
CONTINUOUS
10
99.214
20
-68.6496
11
99.1455
21
-68.6154
0
LINE
8
BLACK
6
CONTINUOUS
10
99.1455
20
-68.6154
11
98.9905
21
-68.6154
0
LINE
8
BLACK
6
CONTINUOUS
10
105.227
20
-68.4193
11
105.251
21
-68.4289
0
LINE
8
BLACK
6
CONTINUOUS
10
105.251
20
-68.4289
11
105.27
21
-68.4461
0
LINE
8
BLACK
6
CONTINUOUS
10
105.27
20
-68.4461
11
105.283
21
-68.469
0
LINE
8
BLACK
6
CONTINUOUS
10
105.283
20
-68.469
11
105.521
21
-69.1833
0
LINE
8
BLACK
6
CONTINUOUS
10
105.521
20
-69.1833
11
105.522
21
-69.1888
0
LINE
8
BLACK
6
CONTINUOUS
10
105.522
20
-69.1888
11
105.524
21
-69.194
0
LINE
8
BLACK
6
CONTINUOUS
10
105.524
20
-69.194
11
105.524
21
-69.2016
0
LINE
8
BLACK
6
CONTINUOUS
10
105.524
20
-69.2016
11
105.525
21
-69.2091
0
LINE
8
BLACK
6
CONTINUOUS
10
105.525
20
-69.2091
11
105.524
21
-69.2145
0
LINE
8
BLACK
6
CONTINUOUS
10
105.524
20
-69.2145
11
105.524
21
-69.2201
0
LINE
8
BLACK
6
CONTINUOUS
10
105.524
20
-69.2201
11
105.521
21
-69.2272
0
LINE
8
BLACK
6
CONTINUOUS
10
105.521
20
-69.2272
11
105.519
21
-69.2346
0
LINE
8
BLACK
6
CONTINUOUS
10
105.519
20
-69.2346
11
105.517
21
-69.2393
0
LINE
8
BLACK
6
CONTINUOUS
10
105.517
20
-69.2393
11
105.515
21
-69.2445
0
LINE
8
BLACK
6
CONTINUOUS
10
105.515
20
-69.2445
11
105.51
21
-69.2504
0
LINE
8
BLACK
6
CONTINUOUS
10
105.51
20
-69.2504
11
105.506
21
-69.2568
0
LINE
8
BLACK
6
CONTINUOUS
10
105.506
20
-69.2568
11
105.501
21
-69.2603
0
LINE
8
BLACK
6
CONTINUOUS
10
105.501
20
-69.2603
11
105.498
21
-69.2645
0
LINE
8
BLACK
6
CONTINUOUS
10
105.498
20
-69.2645
11
105.491
21
-69.2683
0
LINE
8
BLACK
6
CONTINUOUS
10
105.491
20
-69.2683
11
105.485
21
-69.273
0
LINE
8
BLACK
6
CONTINUOUS
10
105.485
20
-69.273
11
105.48
21
-69.2748
0
LINE
8
BLACK
6
CONTINUOUS
10
105.48
20
-69.2748
11
105.475
21
-69.2775
0
LINE
8
BLACK
6
CONTINUOUS
10
105.475
20
-69.2775
11
105.468
21
-69.2788
0
LINE
8
BLACK
6
CONTINUOUS
10
105.468
20
-69.2788
11
105.461
21
-69.2812
0
LINE
8
BLACK
6
CONTINUOUS
10
105.461
20
-69.2812
11
105.455
21
-69.2811
0
LINE
8
BLACK
6
CONTINUOUS
10
105.455
20
-69.2811
11
105.45
21
-69.282
0
LINE
8
BLACK
6
CONTINUOUS
10
105.45
20
-69.282
11
105.049
21
-69.282
0
LINE
8
BLACK
6
CONTINUOUS
10
105.049
20
-69.282
11
105.049
21
-69.5404
0
LINE
8
BLACK
6
CONTINUOUS
10
105.049
20
-69.5404
11
105.044
21
-69.566
0
LINE
8
BLACK
6
CONTINUOUS
10
105.044
20
-69.566
11
105.031
21
-69.5886
0
LINE
8
BLACK
6
CONTINUOUS
10
105.031
20
-69.5886
11
105.011
21
-69.6053
0
LINE
8
BLACK
6
CONTINUOUS
10
105.011
20
-69.6053
11
104.987
21
-69.6142
0
LINE
8
BLACK
6
CONTINUOUS
10
104.987
20
-69.6142
11
104.96
21
-69.6142
0
LINE
8
BLACK
6
CONTINUOUS
10
104.96
20
-69.6142
11
104.936
21
-69.6053
0
LINE
8
BLACK
6
CONTINUOUS
10
104.936
20
-69.6053
11
104.916
21
-69.5886
0
LINE
8
BLACK
6
CONTINUOUS
10
104.916
20
-69.5886
11
104.903
21
-69.566
0
LINE
8
BLACK
6
CONTINUOUS
10
104.903
20
-69.566
11
104.899
21
-69.5404
0
LINE
8
BLACK
6
CONTINUOUS
10
104.899
20
-69.5404
11
104.899
21
-69.282
0
LINE
8
BLACK
6
CONTINUOUS
10
104.899
20
-69.282
11
104.831
21
-69.282
0
LINE
8
BLACK
6
CONTINUOUS
10
104.831
20
-69.282
11
104.805
21
-69.2775
0
LINE
8
BLACK
6
CONTINUOUS
10
104.805
20
-69.2775
11
104.782
21
-69.2645
0
LINE
8
BLACK
6
CONTINUOUS
10
104.782
20
-69.2645
11
104.766
21
-69.2445
0
LINE
8
BLACK
6
CONTINUOUS
10
104.766
20
-69.2445
11
104.757
21
-69.2201
0
LINE
8
BLACK
6
CONTINUOUS
10
104.757
20
-69.2201
11
104.757
21
-69.194
0
LINE
8
BLACK
6
CONTINUOUS
10
104.757
20
-69.194
11
104.766
21
-69.1695
0
LINE
8
BLACK
6
CONTINUOUS
10
104.766
20
-69.1695
11
104.782
21
-69.1496
0
LINE
8
BLACK
6
CONTINUOUS
10
104.782
20
-69.1496
11
104.805
21
-69.1366
0
LINE
8
BLACK
6
CONTINUOUS
10
104.805
20
-69.1366
11
104.831
21
-69.132
0
LINE
8
BLACK
6
CONTINUOUS
10
104.831
20
-69.132
11
104.899
21
-69.132
0
LINE
8
BLACK
6
CONTINUOUS
10
104.899
20
-69.132
11
104.899
21
-68.8737
0
LINE
8
BLACK
6
CONTINUOUS
10
104.899
20
-68.8737
11
104.903
21
-68.8481
0
LINE
8
BLACK
6
CONTINUOUS
10
104.903
20
-68.8481
11
104.916
21
-68.8255
0
LINE
8
BLACK
6
CONTINUOUS
10
104.916
20
-68.8255
11
104.936
21
-68.8088
0
LINE
8
BLACK
6
CONTINUOUS
10
104.936
20
-68.8088
11
104.96
21
-68.7999
0
LINE
8
BLACK
6
CONTINUOUS
10
104.96
20
-68.7999
11
104.987
21
-68.7999
0
LINE
8
BLACK
6
CONTINUOUS
10
104.987
20
-68.7999
11
105.011
21
-68.8088
0
LINE
8
BLACK
6
CONTINUOUS
10
105.011
20
-68.8088
11
105.031
21
-68.8255
0
LINE
8
BLACK
6
CONTINUOUS
10
105.031
20
-68.8255
11
105.044
21
-68.8481
0
LINE
8
BLACK
6
CONTINUOUS
10
105.044
20
-68.8481
11
105.049
21
-68.8737
0
LINE
8
BLACK
6
CONTINUOUS
10
105.049
20
-68.8737
11
105.049
21
-69.132
0
LINE
8
BLACK
6
CONTINUOUS
10
105.049
20
-69.132
11
105.346
21
-69.132
0
LINE
8
BLACK
6
CONTINUOUS
10
105.346
20
-69.132
11
105.14
21
-68.5165
0
LINE
8
BLACK
6
CONTINUOUS
10
105.14
20
-68.5165
11
105.137
21
-68.4907
0
LINE
8
BLACK
6
CONTINUOUS
10
105.137
20
-68.4907
11
105.142
21
-68.4652
0
LINE
8
BLACK
6
CONTINUOUS
10
105.142
20
-68.4652
11
105.156
21
-68.443
0
LINE
8
BLACK
6
CONTINUOUS
10
105.156
20
-68.443
11
105.176
21
-68.4268
0
LINE
8
BLACK
6
CONTINUOUS
10
105.176
20
-68.4268
11
105.201
21
-68.4186
0
LINE
8
BLACK
6
CONTINUOUS
10
105.201
20
-68.4186
11
105.227
21
-68.4193
0
LINE
8
BLACK
6
CONTINUOUS
10
103.66
20
-66.592
11
103.677
21
-66.6056
0
LINE
8
BLACK
6
CONTINUOUS
10
103.677
20
-66.6056
11
103.687
21
-66.6239
0
LINE
8
BLACK
6
CONTINUOUS
10
103.687
20
-66.6239
11
103.69
21
-66.6395
0
LINE
8
BLACK
6
CONTINUOUS
10
103.69
20
-66.6395
11
103.69
21
-66.9925
0
LINE
8
BLACK
6
CONTINUOUS
10
103.69
20
-66.9925
11
103.687
21
-67.0081
0
LINE
8
BLACK
6
CONTINUOUS
10
103.687
20
-67.0081
11
103.677
21
-67.0264
0
LINE
8
BLACK
6
CONTINUOUS
10
103.677
20
-67.0264
11
103.66
21
-67.04
0
LINE
8
BLACK
6
CONTINUOUS
10
103.66
20
-67.04
11
103.641
21
-67.0473
0
LINE
8
BLACK
6
CONTINUOUS
10
103.641
20
-67.0473
11
103.619
21
-67.0473
0
LINE
8
BLACK
6
CONTINUOUS
10
103.619
20
-67.0473
11
103.6
21
-67.04
0
LINE
8
BLACK
6
CONTINUOUS
10
103.6
20
-67.04
11
103.583
21
-67.0264
0
LINE
8
BLACK
6
CONTINUOUS
10
103.583
20
-67.0264
11
103.573
21
-67.0081
0
LINE
8
BLACK
6
CONTINUOUS
10
103.573
20
-67.0081
11
103.57
21
-66.9925
0
LINE
8
BLACK
6
CONTINUOUS
10
103.57
20
-66.9925
11
103.57
21
-66.6395
0
LINE
8
BLACK
6
CONTINUOUS
10
103.57
20
-66.6395
11
103.573
21
-66.6239
0
LINE
8
BLACK
6
CONTINUOUS
10
103.573
20
-66.6239
11
103.583
21
-66.6056
0
LINE
8
BLACK
6
CONTINUOUS
10
103.583
20
-66.6056
11
103.6
21
-66.592
0
LINE
8
BLACK
6
CONTINUOUS
10
103.6
20
-66.592
11
103.619
21
-66.5847
0
LINE
8
BLACK
6
CONTINUOUS
10
103.619
20
-66.5847
11
103.641
21
-66.5847
0
LINE
8
BLACK
6
CONTINUOUS
10
103.641
20
-66.5847
11
103.66
21
-66.592
0
LINE
8
BLACK
6
CONTINUOUS
10
99.5965
20
-66.592
11
99.6127
21
-66.6056
0
LINE
8
BLACK
6
CONTINUOUS
10
99.6127
20
-66.6056
11
99.6233
21
-66.6239
0
LINE
8
BLACK
6
CONTINUOUS
10
99.6233
20
-66.6239
11
99.626
21
-66.6395
0
LINE
8
BLACK
6
CONTINUOUS
10
99.626
20
-66.6395
11
99.626
21
-66.9925
0
LINE
8
BLACK
6
CONTINUOUS
10
99.626
20
-66.9925
11
99.6233
21
-67.0081
0
LINE
8
BLACK
6
CONTINUOUS
10
99.6233
20
-67.0081
11
99.6127
21
-67.0264
0
LINE
8
BLACK
6
CONTINUOUS
10
99.6127
20
-67.0264
11
99.5965
21
-67.04
0
LINE
8
BLACK
6
CONTINUOUS
10
99.5965
20
-67.04
11
99.5766
21
-67.0473
0
LINE
8
BLACK
6
CONTINUOUS
10
99.5766
20
-67.0473
11
99.5554
21
-67.0473
0
LINE
8
BLACK
6
CONTINUOUS
10
99.5554
20
-67.0473
11
99.5355
21
-67.04
0
LINE
8
BLACK
6
CONTINUOUS
10
99.5355
20
-67.04
11
99.5193
21
-67.0264
0
LINE
8
BLACK
6
CONTINUOUS
10
99.5193
20
-67.0264
11
99.5087
21
-67.0081
0
LINE
8
BLACK
6
CONTINUOUS
10
99.5087
20
-67.0081
11
99.506
21
-66.9925
0
LINE
8
BLACK
6
CONTINUOUS
10
99.506
20
-66.9925
11
99.506
21
-66.6395
0
LINE
8
BLACK
6
CONTINUOUS
10
99.506
20
-66.6395
11
99.5087
21
-66.6239
0
LINE
8
BLACK
6
CONTINUOUS
10
99.5087
20
-66.6239
11
99.5193
21
-66.6056
0
LINE
8
BLACK
6
CONTINUOUS
10
99.5193
20
-66.6056
11
99.5355
21
-66.592
0
LINE
8
BLACK
6
CONTINUOUS
10
99.5355
20
-66.592
11
99.5554
21
-66.5847
0
LINE
8
BLACK
6
CONTINUOUS
10
99.5554
20
-66.5847
11
99.5766
21
-66.5847
0
LINE
8
BLACK
6
CONTINUOUS
10
99.5766
20
-66.5847
11
99.5965
21
-66.592
0
LINE
8
BLACK
6
CONTINUOUS
10
100.616
20
-66.592
11
100.633
21
-66.6056
0
LINE
8
BLACK
6
CONTINUOUS
10
100.633
20
-66.6056
11
100.643
21
-66.6239
0
LINE
8
BLACK
6
CONTINUOUS
10
100.643
20
-66.6239
11
100.646
21
-66.6395
0
LINE
8
BLACK
6
CONTINUOUS
10
100.646
20
-66.6395
11
100.646
21
-66.9925
0
LINE
8
BLACK
6
CONTINUOUS
10
100.646
20
-66.9925
11
100.643
21
-67.0081
0
LINE
8
BLACK
6
CONTINUOUS
10
100.643
20
-67.0081
11
100.633
21
-67.0264
0
LINE
8
BLACK
6
CONTINUOUS
10
100.633
20
-67.0264
11
100.616
21
-67.04
0
LINE
8
BLACK
6
CONTINUOUS
10
100.616
20
-67.04
11
100.597
21
-67.0473
0
LINE
8
BLACK
6
CONTINUOUS
10
100.597
20
-67.0473
11
100.575
21
-67.0473
0
LINE
8
BLACK
6
CONTINUOUS
10
100.575
20
-67.0473
11
100.556
21
-67.04
0
LINE
8
BLACK
6
CONTINUOUS
10
100.556
20
-67.04
11
100.539
21
-67.0264
0
LINE
8
BLACK
6
CONTINUOUS
10
100.539
20
-67.0264
11
100.529
21
-67.0081
0
LINE
8
BLACK
6
CONTINUOUS
10
100.529
20
-67.0081
11
100.526
21
-66.9925
0
LINE
8
BLACK
6
CONTINUOUS
10
100.526
20
-66.9925
11
100.526
21
-66.6395
0
LINE
8
BLACK
6
CONTINUOUS
10
100.526
20
-66.6395
11
100.529
21
-66.6239
0
LINE
8
BLACK
6
CONTINUOUS
10
100.529
20
-66.6239
11
100.539
21
-66.6056
0
LINE
8
BLACK
6
CONTINUOUS
10
100.539
20
-66.6056
11
100.556
21
-66.592
0
LINE
8
BLACK
6
CONTINUOUS
10
100.556
20
-66.592
11
100.575
21
-66.5847
0
LINE
8
BLACK
6
CONTINUOUS
10
100.575
20
-66.5847
11
100.597
21
-66.5847
0
LINE
8
BLACK
6
CONTINUOUS
10
100.597
20
-66.5847
11
100.616
21
-66.592
0
LINE
8
BLACK
6
CONTINUOUS
10
104.68
20
-66.592
11
104.697
21
-66.6056
0
LINE
8
BLACK
6
CONTINUOUS
10
104.697
20
-66.6056
11
104.707
21
-66.6239
0
LINE
8
BLACK
6
CONTINUOUS
10
104.707
20
-66.6239
11
104.71
21
-66.6395
0
LINE
8
BLACK
6
CONTINUOUS
10
104.71
20
-66.6395
11
104.71
21
-66.9925
0
LINE
8
BLACK
6
CONTINUOUS
10
104.71
20
-66.9925
11
104.707
21
-67.0081
0
LINE
8
BLACK
6
CONTINUOUS
10
104.707
20
-67.0081
11
104.697
21
-67.0264
0
LINE
8
BLACK
6
CONTINUOUS
10
104.697
20
-67.0264
11
104.68
21
-67.04
0
LINE
8
BLACK
6
CONTINUOUS
10
104.68
20
-67.04
11
104.661
21
-67.0473
0
LINE
8
BLACK
6
CONTINUOUS
10
104.661
20
-67.0473
11
104.639
21
-67.0473
0
LINE
8
BLACK
6
CONTINUOUS
10
104.639
20
-67.0473
11
104.62
21
-67.04
0
LINE
8
BLACK
6
CONTINUOUS
10
104.62
20
-67.04
11
104.603
21
-67.0264
0
LINE
8
BLACK
6
CONTINUOUS
10
104.603
20
-67.0264
11
104.593
21
-67.0081
0
LINE
8
BLACK
6
CONTINUOUS
10
104.593
20
-67.0081
11
104.59
21
-66.9925
0
LINE
8
BLACK
6
CONTINUOUS
10
104.59
20
-66.9925
11
104.59
21
-66.6395
0
LINE
8
BLACK
6
CONTINUOUS
10
104.59
20
-66.6395
11
104.593
21
-66.6239
0
LINE
8
BLACK
6
CONTINUOUS
10
104.593
20
-66.6239
11
104.603
21
-66.6056
0
LINE
8
BLACK
6
CONTINUOUS
10
104.603
20
-66.6056
11
104.62
21
-66.592
0
LINE
8
BLACK
6
CONTINUOUS
10
104.62
20
-66.592
11
104.639
21
-66.5847
0
LINE
8
BLACK
6
CONTINUOUS
10
104.639
20
-66.5847
11
104.661
21
-66.5847
0
LINE
8
BLACK
6
CONTINUOUS
10
104.661
20
-66.5847
11
104.68
21
-66.592
0
LINE
8
BLACK
6
CONTINUOUS
10
108.744
20
-66.592
11
108.761
21
-66.6056
0
LINE
8
BLACK
6
CONTINUOUS
10
108.761
20
-66.6056
11
108.771
21
-66.6239
0
LINE
8
BLACK
6
CONTINUOUS
10
108.771
20
-66.6239
11
108.774
21
-66.6395
0
LINE
8
BLACK
6
CONTINUOUS
10
108.774
20
-66.6395
11
108.774
21
-66.9925
0
LINE
8
BLACK
6
CONTINUOUS
10
108.774
20
-66.9925
11
108.771
21
-67.0081
0
LINE
8
BLACK
6
CONTINUOUS
10
108.771
20
-67.0081
11
108.761
21
-67.0264
0
LINE
8
BLACK
6
CONTINUOUS
10
108.761
20
-67.0264
11
108.744
21
-67.04
0
LINE
8
BLACK
6
CONTINUOUS
10
108.744
20
-67.04
11
108.725
21
-67.0473
0
LINE
8
BLACK
6
CONTINUOUS
10
108.725
20
-67.0473
11
108.703
21
-67.0473
0
LINE
8
BLACK
6
CONTINUOUS
10
108.703
20
-67.0473
11
108.684
21
-67.04
0
LINE
8
BLACK
6
CONTINUOUS
10
108.684
20
-67.04
11
108.667
21
-67.0264
0
LINE
8
BLACK
6
CONTINUOUS
10
108.667
20
-67.0264
11
108.657
21
-67.0081
0
LINE
8
BLACK
6
CONTINUOUS
10
108.657
20
-67.0081
11
108.654
21
-66.9925
0
LINE
8
BLACK
6
CONTINUOUS
10
108.654
20
-66.9925
11
108.654
21
-66.6395
0
LINE
8
BLACK
6
CONTINUOUS
10
108.654
20
-66.6395
11
108.657
21
-66.6239
0
LINE
8
BLACK
6
CONTINUOUS
10
108.657
20
-66.6239
11
108.667
21
-66.6056
0
LINE
8
BLACK
6
CONTINUOUS
10
108.667
20
-66.6056
11
108.684
21
-66.592
0
LINE
8
BLACK
6
CONTINUOUS
10
108.684
20
-66.592
11
108.703
21
-66.5847
0
LINE
8
BLACK
6
CONTINUOUS
10
108.703
20
-66.5847
11
108.725
21
-66.5847
0
LINE
8
BLACK
6
CONTINUOUS
10
108.725
20
-66.5847
11
108.744
21
-66.592
0
LINE
8
BLACK
6
CONTINUOUS
10
107.724
20
-66.592
11
107.741
21
-66.6056
0
LINE
8
BLACK
6
CONTINUOUS
10
107.741
20
-66.6056
11
107.751
21
-66.6239
0
LINE
8
BLACK
6
CONTINUOUS
10
107.751
20
-66.6239
11
107.754
21
-66.6395
0
LINE
8
BLACK
6
CONTINUOUS
10
107.754
20
-66.6395
11
107.754
21
-66.9925
0
LINE
8
BLACK
6
CONTINUOUS
10
107.754
20
-66.9925
11
107.751
21
-67.0081
0
LINE
8
BLACK
6
CONTINUOUS
10
107.751
20
-67.0081
11
107.741
21
-67.0264
0
LINE
8
BLACK
6
CONTINUOUS
10
107.741
20
-67.0264
11
107.724
21
-67.04
0
LINE
8
BLACK
6
CONTINUOUS
10
107.724
20
-67.04
11
107.705
21
-67.0473
0
LINE
8
BLACK
6
CONTINUOUS
10
107.705
20
-67.0473
11
107.683
21
-67.0473
0
LINE
8
BLACK
6
CONTINUOUS
10
107.683
20
-67.0473
11
107.664
21
-67.04
0
LINE
8
BLACK
6
CONTINUOUS
10
107.664
20
-67.04
11
107.647
21
-67.0264
0
LINE
8
BLACK
6
CONTINUOUS
10
107.647
20
-67.0264
11
107.637
21
-67.0081
0
LINE
8
BLACK
6
CONTINUOUS
10
107.637
20
-67.0081
11
107.634
21
-66.9925
0
LINE
8
BLACK
6
CONTINUOUS
10
107.634
20
-66.9925
11
107.634
21
-66.6395
0
LINE
8
BLACK
6
CONTINUOUS
10
107.634
20
-66.6395
11
107.637
21
-66.6239
0
LINE
8
BLACK
6
CONTINUOUS
10
107.637
20
-66.6239
11
107.647
21
-66.6056
0
LINE
8
BLACK
6
CONTINUOUS
10
107.647
20
-66.6056
11
107.664
21
-66.592
0
LINE
8
BLACK
6
CONTINUOUS
10
107.664
20
-66.592
11
107.683
21
-66.5847
0
LINE
8
BLACK
6
CONTINUOUS
10
107.683
20
-66.5847
11
107.705
21
-66.5847
0
LINE
8
BLACK
6
CONTINUOUS
10
107.705
20
-66.5847
11
107.724
21
-66.592
0
LINE
8
BLACK
6
CONTINUOUS
10
101.628
20
-66.592
11
101.645
21
-66.6056
0
LINE
8
BLACK
6
CONTINUOUS
10
101.645
20
-66.6056
11
101.655
21
-66.6239
0
LINE
8
BLACK
6
CONTINUOUS
10
101.655
20
-66.6239
11
101.658
21
-66.6395
0
LINE
8
BLACK
6
CONTINUOUS
10
101.658
20
-66.6395
11
101.658
21
-66.9925
0
LINE
8
BLACK
6
CONTINUOUS
10
101.658
20
-66.9925
11
101.655
21
-67.0081
0
LINE
8
BLACK
6
CONTINUOUS
10
101.655
20
-67.0081
11
101.645
21
-67.0264
0
LINE
8
BLACK
6
CONTINUOUS
10
101.645
20
-67.0264
11
101.628
21
-67.04
0
LINE
8
BLACK
6
CONTINUOUS
10
101.628
20
-67.04
11
101.609
21
-67.0473
0
LINE
8
BLACK
6
CONTINUOUS
10
101.609
20
-67.0473
11
101.587
21
-67.0473
0
LINE
8
BLACK
6
CONTINUOUS
10
101.587
20
-67.0473
11
101.568
21
-67.04
0
LINE
8
BLACK
6
CONTINUOUS
10
101.568
20
-67.04
11
101.551
21
-67.0264
0
LINE
8
BLACK
6
CONTINUOUS
10
101.551
20
-67.0264
11
101.541
21
-67.0081
0
LINE
8
BLACK
6
CONTINUOUS
10
101.541
20
-67.0081
11
101.538
21
-66.9925
0
LINE
8
BLACK
6
CONTINUOUS
10
101.538
20
-66.9925
11
101.538
21
-66.6395
0
LINE
8
BLACK
6
CONTINUOUS
10
101.538
20
-66.6395
11
101.541
21
-66.6239
0
LINE
8
BLACK
6
CONTINUOUS
10
101.541
20
-66.6239
11
101.551
21
-66.6056
0
LINE
8
BLACK
6
CONTINUOUS
10
101.551
20
-66.6056
11
101.568
21
-66.592
0
LINE
8
BLACK
6
CONTINUOUS
10
101.568
20
-66.592
11
101.587
21
-66.5847
0
LINE
8
BLACK
6
CONTINUOUS
10
101.587
20
-66.5847
11
101.609
21
-66.5847
0
LINE
8
BLACK
6
CONTINUOUS
10
101.609
20
-66.5847
11
101.628
21
-66.592
0
LINE
8
BLACK
6
CONTINUOUS
10
102.648
20
-66.592
11
102.665
21
-66.6056
0
LINE
8
BLACK
6
CONTINUOUS
10
102.665
20
-66.6056
11
102.675
21
-66.6239
0
LINE
8
BLACK
6
CONTINUOUS
10
102.675
20
-66.6239
11
102.678
21
-66.6395
0
LINE
8
BLACK
6
CONTINUOUS
10
102.678
20
-66.6395
11
102.678
21
-66.9925
0
LINE
8
BLACK
6
CONTINUOUS
10
102.678
20
-66.9925
11
102.675
21
-67.0081
0
LINE
8
BLACK
6
CONTINUOUS
10
102.675
20
-67.0081
11
102.665
21
-67.0264
0
LINE
8
BLACK
6
CONTINUOUS
10
102.665
20
-67.0264
11
102.648
21
-67.04
0
LINE
8
BLACK
6
CONTINUOUS
10
102.648
20
-67.04
11
102.629
21
-67.0473
0
LINE
8
BLACK
6
CONTINUOUS
10
102.629
20
-67.0473
11
102.607
21
-67.0473
0
LINE
8
BLACK
6
CONTINUOUS
10
102.607
20
-67.0473
11
102.588
21
-67.04
0
LINE
8
BLACK
6
CONTINUOUS
10
102.588
20
-67.04
11
102.571
21
-67.0264
0
LINE
8
BLACK
6
CONTINUOUS
10
102.571
20
-67.0264
11
102.561
21
-67.0081
0
LINE
8
BLACK
6
CONTINUOUS
10
102.561
20
-67.0081
11
102.558
21
-66.9925
0
LINE
8
BLACK
6
CONTINUOUS
10
102.558
20
-66.9925
11
102.558
21
-66.6395
0
LINE
8
BLACK
6
CONTINUOUS
10
102.558
20
-66.6395
11
102.561
21
-66.6239
0
LINE
8
BLACK
6
CONTINUOUS
10
102.561
20
-66.6239
11
102.571
21
-66.6056
0
LINE
8
BLACK
6
CONTINUOUS
10
102.571
20
-66.6056
11
102.588
21
-66.592
0
LINE
8
BLACK
6
CONTINUOUS
10
102.588
20
-66.592
11
102.607
21
-66.5847
0
LINE
8
BLACK
6
CONTINUOUS
10
102.607
20
-66.5847
11
102.629
21
-66.5847
0
LINE
8
BLACK
6
CONTINUOUS
10
102.629
20
-66.5847
11
102.648
21
-66.592
0
LINE
8
BLACK
6
CONTINUOUS
10
106.712
20
-66.592
11
106.729
21
-66.6056
0
LINE
8
BLACK
6
CONTINUOUS
10
106.729
20
-66.6056
11
106.739
21
-66.6239
0
LINE
8
BLACK
6
CONTINUOUS
10
106.739
20
-66.6239
11
106.742
21
-66.6395
0
LINE
8
BLACK
6
CONTINUOUS
10
106.742
20
-66.6395
11
106.742
21
-66.9925
0
LINE
8
BLACK
6
CONTINUOUS
10
106.742
20
-66.9925
11
106.739
21
-67.0081
0
LINE
8
BLACK
6
CONTINUOUS
10
106.739
20
-67.0081
11
106.729
21
-67.0264
0
LINE
8
BLACK
6
CONTINUOUS
10
106.729
20
-67.0264
11
106.712
21
-67.04
0
LINE
8
BLACK
6
CONTINUOUS
10
106.712
20
-67.04
11
106.693
21
-67.0473
0
LINE
8
BLACK
6
CONTINUOUS
10
106.693
20
-67.0473
11
106.671
21
-67.0473
0
LINE
8
BLACK
6
CONTINUOUS
10
106.671
20
-67.0473
11
106.652
21
-67.04
0
LINE
8
BLACK
6
CONTINUOUS
10
106.652
20
-67.04
11
106.635
21
-67.0264
0
LINE
8
BLACK
6
CONTINUOUS
10
106.635
20
-67.0264
11
106.625
21
-67.0081
0
LINE
8
BLACK
6
CONTINUOUS
10
106.625
20
-67.0081
11
106.622
21
-66.9925
0
LINE
8
BLACK
6
CONTINUOUS
10
106.622
20
-66.9925
11
106.622
21
-66.6395
0
LINE
8
BLACK
6
CONTINUOUS
10
106.622
20
-66.6395
11
106.625
21
-66.6239
0
LINE
8
BLACK
6
CONTINUOUS
10
106.625
20
-66.6239
11
106.635
21
-66.6056
0
LINE
8
BLACK
6
CONTINUOUS
10
106.635
20
-66.6056
11
106.652
21
-66.592
0
LINE
8
BLACK
6
CONTINUOUS
10
106.652
20
-66.592
11
106.671
21
-66.5847
0
LINE
8
BLACK
6
CONTINUOUS
10
106.671
20
-66.5847
11
106.693
21
-66.5847
0
LINE
8
BLACK
6
CONTINUOUS
10
106.693
20
-66.5847
11
106.712
21
-66.592
0
LINE
8
BLACK
6
CONTINUOUS
10
105.692
20
-66.592
11
105.709
21
-66.6056
0
LINE
8
BLACK
6
CONTINUOUS
10
105.709
20
-66.6056
11
105.719
21
-66.6239
0
LINE
8
BLACK
6
CONTINUOUS
10
105.719
20
-66.6239
11
105.722
21
-66.6395
0
LINE
8
BLACK
6
CONTINUOUS
10
105.722
20
-66.6395
11
105.722
21
-66.9925
0
LINE
8
BLACK
6
CONTINUOUS
10
105.722
20
-66.9925
11
105.719
21
-67.0081
0
LINE
8
BLACK
6
CONTINUOUS
10
105.719
20
-67.0081
11
105.709
21
-67.0264
0
LINE
8
BLACK
6
CONTINUOUS
10
105.709
20
-67.0264
11
105.692
21
-67.04
0
LINE
8
BLACK
6
CONTINUOUS
10
105.692
20
-67.04
11
105.673
21
-67.0473
0
LINE
8
BLACK
6
CONTINUOUS
10
105.673
20
-67.0473
11
105.651
21
-67.0473
0
LINE
8
BLACK
6
CONTINUOUS
10
105.651
20
-67.0473
11
105.632
21
-67.04
0
LINE
8
BLACK
6
CONTINUOUS
10
105.632
20
-67.04
11
105.615
21
-67.0264
0
LINE
8
BLACK
6
CONTINUOUS
10
105.615
20
-67.0264
11
105.605
21
-67.0081
0
LINE
8
BLACK
6
CONTINUOUS
10
105.605
20
-67.0081
11
105.602
21
-66.9925
0
LINE
8
BLACK
6
CONTINUOUS
10
105.602
20
-66.9925
11
105.602
21
-66.6395
0
LINE
8
BLACK
6
CONTINUOUS
10
105.602
20
-66.6395
11
105.605
21
-66.6239
0
LINE
8
BLACK
6
CONTINUOUS
10
105.605
20
-66.6239
11
105.615
21
-66.6056
0
LINE
8
BLACK
6
CONTINUOUS
10
105.615
20
-66.6056
11
105.632
21
-66.592
0
LINE
8
BLACK
6
CONTINUOUS
10
105.632
20
-66.592
11
105.651
21
-66.5847
0
LINE
8
BLACK
6
CONTINUOUS
10
105.651
20
-66.5847
11
105.673
21
-66.5847
0
LINE
8
BLACK
6
CONTINUOUS
10
105.673
20
-66.5847
11
105.692
21
-66.592
  0
ENDSEC
  0
EOF
