  0
SECTION
  2
HEADER
  9
$ANGBASE
  50
0.0
  9
$ANGDIR
  70
  1
  9
$MEASUREMENT
  70
0
  0
ENDSEC
  0
SECTION
  2
TABLES
  0
TABLE
  2
LTYPE
  70
4
  0
LTYPE
  5
40F
  2
CONTINUOUS
  70
0
  3
Solid line
  72
65
  73
0
  40
0.0
  0
LTYPE
  5
410
  2
DASHDOT
 70
0
  3
Dash Dot ____ _ ____ _
 72
65
 73
4
 40
2.0
 49
1.25
 49
-0.25
 49
0.25
 49
-0.25
  0
LTYPE
  5
411
  2
DASHED
 70
0
  3
Dashed __ __ __ __ __
 72
65
 73
2
 40
0.75
 49
0.5
 49
-0.25
  0
LTYPE
  5
43B
  2
DOTTED
 70
0
  3
Dotted .  .  .  .
 72
65
 73
2
 40
0.2
 49
0.0
 49
-0.2
  0
ENDTAB
  0
TABLE
  2
STYLE
  70
4
  0
STYLE
  2
KICAD
  70
0
  40
0
  41
1
  42
1
  50
0
  71
0
  3
isocp.shx
  0
STYLE
  2
KICADB
  70
0
  40
0
  41
1
  42
1
  50
0
  71
0
  3
isocp.shx
  0
STYLE
  2
KICADI
  70
0
  40
0
  41
1
  42
1
  50
15
  71
0
  3
isocp.shx
  0
STYLE
  2
KICADBI
  70
0
  40
0
  41
1
  42
1
  50
15
  71
0
  3
isocp.shx
  0
ENDTAB
  0
TABLE
  2
LAYER
  70
30
  0
LAYER
  2
BLACK
  70
0
  62
7
  6
CONTINUOUS
  0
LAYER
  2
GRAY1
  70
0
  62
251
  6
CONTINUOUS
  0
LAYER
  2
GRAY2
  70
0
  62
8
  6
CONTINUOUS
  0
LAYER
  2
GRAY3
  70
0
  62
9
  6
CONTINUOUS
  0
LAYER
  2
WHITE
  70
0
  62
7
  6
CONTINUOUS
  0
LAYER
  2
LYELLOW
  70
0
  62
51
  6
CONTINUOUS
  0
LAYER
  2
BLUE1
  70
0
  62
178
  6
CONTINUOUS
  0
LAYER
  2
GREEN1
  70
0
  62
98
  6
CONTINUOUS
  0
LAYER
  2
CYAN1
  70
0
  62
138
  6
CONTINUOUS
  0
LAYER
  2
RED1
  70
0
  62
18
  6
CONTINUOUS
  0
LAYER
  2
MAGENTA1
  70
0
  62
228
  6
CONTINUOUS
  0
LAYER
  2
BROWN1
  70
0
  62
58
  6
CONTINUOUS
  0
LAYER
  2
BLUE2
  70
0
  62
5
  6
CONTINUOUS
  0
LAYER
  2
GREEN2
  70
0
  62
3
  6
CONTINUOUS
  0
LAYER
  2
CYAN2
  70
0
  62
4
  6
CONTINUOUS
  0
LAYER
  2
RED2
  70
0
  62
1
  6
CONTINUOUS
  0
LAYER
  2
MAGENTA2
  70
0
  62
6
  6
CONTINUOUS
  0
LAYER
  2
BROWN2
  70
0
  62
54
  6
CONTINUOUS
  0
LAYER
  2
BLUE3
  70
0
  62
171
  6
CONTINUOUS
  0
LAYER
  2
GREEN3
  70
0
  62
91
  6
CONTINUOUS
  0
LAYER
  2
CYAN3
  70
0
  62
131
  6
CONTINUOUS
  0
LAYER
  2
RED3
  70
0
  62
11
  6
CONTINUOUS
  0
LAYER
  2
MAGENTA3
  70
0
  62
221
  6
CONTINUOUS
  0
LAYER
  2
YELLOW3
  70
0
  62
2
  6
CONTINUOUS
  0
LAYER
  2
BLUE4
  70
0
  62
5
  6
CONTINUOUS
  0
LAYER
  2
GREEN4
  70
0
  62
3
  6
CONTINUOUS
  0
LAYER
  2
CYAN4
  70
0
  62
4
  6
CONTINUOUS
  0
LAYER
  2
RED4
  70
0
  62
1
  6
CONTINUOUS
  0
LAYER
  2
MAGENTA4
  70
0
  62
6
  6
CONTINUOUS
  0
LAYER
  2
YELLOW4
  70
0
  62
2
  6
CONTINUOUS
  0
ENDTAB
  0
ENDSEC
  0
SECTION
  2
ENTITIES
0
LINE
8
BLACK
6
CONTINUOUS
10
46.4153
20
-139.925
11
45.0247
21
-139.925
0
LINE
8
BLACK
6
CONTINUOUS
10
45.0247
20
-139.925
11
45.0247
21
-137.747
0
LINE
8
BLACK
6
CONTINUOUS
10
45.0247
20
-137.747
11
46.4153
21
-137.747
0
LINE
8
BLACK
6
CONTINUOUS
10
46.4153
20
-137.747
11
46.4153
21
-139.925
0
LINE
8
BLACK
6
CONTINUOUS
10
104.835
20
-139.925
11
103.445
21
-139.925
0
LINE
8
BLACK
6
CONTINUOUS
10
103.445
20
-139.925
11
103.445
21
-137.747
0
LINE
8
BLACK
6
CONTINUOUS
10
103.445
20
-137.747
11
104.835
21
-137.747
0
LINE
8
BLACK
6
CONTINUOUS
10
104.835
20
-137.747
11
104.835
21
-139.925
0
LINE
8
BLACK
6
CONTINUOUS
10
120.075
20
-139.925
11
118.685
21
-139.925
0
LINE
8
BLACK
6
CONTINUOUS
10
118.685
20
-139.925
11
118.685
21
-137.747
0
LINE
8
BLACK
6
CONTINUOUS
10
118.685
20
-137.747
11
120.075
21
-137.747
0
LINE
8
BLACK
6
CONTINUOUS
10
120.075
20
-137.747
11
120.075
21
-139.925
0
LINE
8
BLACK
6
CONTINUOUS
10
125.155
20
-139.925
11
123.765
21
-139.925
0
LINE
8
BLACK
6
CONTINUOUS
10
123.765
20
-139.925
11
123.765
21
-137.747
0
LINE
8
BLACK
6
CONTINUOUS
10
123.765
20
-137.747
11
125.155
21
-137.747
0
LINE
8
BLACK
6
CONTINUOUS
10
125.155
20
-137.747
11
125.155
21
-139.925
0
LINE
8
BLACK
6
CONTINUOUS
10
61.6553
20
-139.925
11
60.2647
21
-139.925
0
LINE
8
BLACK
6
CONTINUOUS
10
60.2647
20
-139.925
11
60.2647
21
-137.747
0
LINE
8
BLACK
6
CONTINUOUS
10
60.2647
20
-137.747
11
61.6553
21
-137.747
0
LINE
8
BLACK
6
CONTINUOUS
10
61.6553
20
-137.747
11
61.6553
21
-139.925
0
LINE
8
BLACK
6
CONTINUOUS
10
59.1153
20
-139.925
11
57.7247
21
-139.925
0
LINE
8
BLACK
6
CONTINUOUS
10
57.7247
20
-139.925
11
57.7247
21
-137.747
0
LINE
8
BLACK
6
CONTINUOUS
10
57.7247
20
-137.747
11
59.1153
21
-137.747
0
LINE
8
BLACK
6
CONTINUOUS
10
59.1153
20
-137.747
11
59.1153
21
-139.925
0
LINE
8
BLACK
6
CONTINUOUS
10
56.5753
20
-139.925
11
55.1847
21
-139.925
0
LINE
8
BLACK
6
CONTINUOUS
10
55.1847
20
-139.925
11
55.1847
21
-137.747
0
LINE
8
BLACK
6
CONTINUOUS
10
55.1847
20
-137.747
11
56.5753
21
-137.747
0
LINE
8
BLACK
6
CONTINUOUS
10
56.5753
20
-137.747
11
56.5753
21
-139.925
0
LINE
8
BLACK
6
CONTINUOUS
10
54.0353
20
-139.925
11
52.6447
21
-139.925
0
LINE
8
BLACK
6
CONTINUOUS
10
52.6447
20
-139.925
11
52.6447
21
-137.747
0
LINE
8
BLACK
6
CONTINUOUS
10
52.6447
20
-137.747
11
54.0353
21
-137.747
0
LINE
8
BLACK
6
CONTINUOUS
10
54.0353
20
-137.747
11
54.0353
21
-139.925
0
LINE
8
BLACK
6
CONTINUOUS
10
51.4953
20
-139.925
11
50.1047
21
-139.925
0
LINE
8
BLACK
6
CONTINUOUS
10
50.1047
20
-139.925
11
50.1047
21
-137.747
0
LINE
8
BLACK
6
CONTINUOUS
10
50.1047
20
-137.747
11
51.4953
21
-137.747
0
LINE
8
BLACK
6
CONTINUOUS
10
51.4953
20
-137.747
11
51.4953
21
-139.925
0
LINE
8
BLACK
6
CONTINUOUS
10
48.9553
20
-139.925
11
47.5647
21
-139.925
0
LINE
8
BLACK
6
CONTINUOUS
10
47.5647
20
-139.925
11
47.5647
21
-137.747
0
LINE
8
BLACK
6
CONTINUOUS
10
47.5647
20
-137.747
11
48.9553
21
-137.747
0
LINE
8
BLACK
6
CONTINUOUS
10
48.9553
20
-137.747
11
48.9553
21
-139.925
0
LINE
8
BLACK
6
CONTINUOUS
10
64.1953
20
-139.925
11
62.8047
21
-139.925
0
LINE
8
BLACK
6
CONTINUOUS
10
62.8047
20
-139.925
11
62.8047
21
-137.747
0
LINE
8
BLACK
6
CONTINUOUS
10
62.8047
20
-137.747
11
64.1953
21
-137.747
0
LINE
8
BLACK
6
CONTINUOUS
10
64.1953
20
-137.747
11
64.1953
21
-139.925
0
LINE
8
BLACK
6
CONTINUOUS
10
43.8753
20
-139.925
11
42.4847
21
-139.925
0
LINE
8
BLACK
6
CONTINUOUS
10
42.4847
20
-139.925
11
42.4847
21
-137.747
0
LINE
8
BLACK
6
CONTINUOUS
10
42.4847
20
-137.747
11
43.8753
21
-137.747
0
LINE
8
BLACK
6
CONTINUOUS
10
43.8753
20
-137.747
11
43.8753
21
-139.925
0
LINE
8
BLACK
6
CONTINUOUS
10
41.3353
20
-139.925
11
39.9447
21
-139.925
0
LINE
8
BLACK
6
CONTINUOUS
10
39.9447
20
-139.925
11
39.9447
21
-137.747
0
LINE
8
BLACK
6
CONTINUOUS
10
39.9447
20
-137.747
11
41.3353
21
-137.747
0
LINE
8
BLACK
6
CONTINUOUS
10
41.3353
20
-137.747
11
41.3353
21
-139.925
0
LINE
8
BLACK
6
CONTINUOUS
10
107.375
20
-139.925
11
105.985
21
-139.925
0
LINE
8
BLACK
6
CONTINUOUS
10
105.985
20
-139.925
11
105.985
21
-137.747
0
LINE
8
BLACK
6
CONTINUOUS
10
105.985
20
-137.747
11
107.375
21
-137.747
0
LINE
8
BLACK
6
CONTINUOUS
10
107.375
20
-137.747
11
107.375
21
-139.925
0
LINE
8
BLACK
6
CONTINUOUS
10
109.915
20
-139.925
11
108.525
21
-139.925
0
LINE
8
BLACK
6
CONTINUOUS
10
108.525
20
-139.925
11
108.525
21
-137.747
0
LINE
8
BLACK
6
CONTINUOUS
10
108.525
20
-137.747
11
109.915
21
-137.747
0
LINE
8
BLACK
6
CONTINUOUS
10
109.915
20
-137.747
11
109.915
21
-139.925
0
LINE
8
BLACK
6
CONTINUOUS
10
112.455
20
-139.925
11
111.065
21
-139.925
0
LINE
8
BLACK
6
CONTINUOUS
10
111.065
20
-139.925
11
111.065
21
-137.747
0
LINE
8
BLACK
6
CONTINUOUS
10
111.065
20
-137.747
11
112.455
21
-137.747
0
LINE
8
BLACK
6
CONTINUOUS
10
112.455
20
-137.747
11
112.455
21
-139.925
0
LINE
8
BLACK
6
CONTINUOUS
10
114.995
20
-139.925
11
113.605
21
-139.925
0
LINE
8
BLACK
6
CONTINUOUS
10
113.605
20
-139.925
11
113.605
21
-137.747
0
LINE
8
BLACK
6
CONTINUOUS
10
113.605
20
-137.747
11
114.995
21
-137.747
0
LINE
8
BLACK
6
CONTINUOUS
10
114.995
20
-137.747
11
114.995
21
-139.925
0
LINE
8
BLACK
6
CONTINUOUS
10
117.535
20
-139.925
11
116.145
21
-139.925
0
LINE
8
BLACK
6
CONTINUOUS
10
116.145
20
-139.925
11
116.145
21
-137.747
0
LINE
8
BLACK
6
CONTINUOUS
10
116.145
20
-137.747
11
117.535
21
-137.747
0
LINE
8
BLACK
6
CONTINUOUS
10
117.535
20
-137.747
11
117.535
21
-139.925
0
LINE
8
BLACK
6
CONTINUOUS
10
122.615
20
-139.925
11
121.225
21
-139.925
0
LINE
8
BLACK
6
CONTINUOUS
10
121.225
20
-139.925
11
121.225
21
-137.747
0
LINE
8
BLACK
6
CONTINUOUS
10
121.225
20
-137.747
11
122.615
21
-137.747
0
LINE
8
BLACK
6
CONTINUOUS
10
122.615
20
-137.747
11
122.615
21
-139.925
0
LINE
8
BLACK
6
CONTINUOUS
10
127.695
20
-139.925
11
126.305
21
-139.925
0
LINE
8
BLACK
6
CONTINUOUS
10
126.305
20
-139.925
11
126.305
21
-137.747
0
LINE
8
BLACK
6
CONTINUOUS
10
126.305
20
-137.747
11
127.695
21
-137.747
0
LINE
8
BLACK
6
CONTINUOUS
10
127.695
20
-137.747
11
127.695
21
-139.925
0
LINE
8
BLACK
6
CONTINUOUS
10
89.3611
20
-134.591
11
89.6549
21
-134.761
0
LINE
8
BLACK
6
CONTINUOUS
10
89.6549
20
-134.761
11
89.873
21
-135.021
0
LINE
8
BLACK
6
CONTINUOUS
10
89.873
20
-135.021
11
89.989
21
-135.339
0
LINE
8
BLACK
6
CONTINUOUS
10
89.989
20
-135.339
11
89.989
21
-135.679
0
LINE
8
BLACK
6
CONTINUOUS
10
89.989
20
-135.679
11
89.873
21
-135.997
0
LINE
8
BLACK
6
CONTINUOUS
10
89.873
20
-135.997
11
89.6549
21
-136.257
0
LINE
8
BLACK
6
CONTINUOUS
10
89.6549
20
-136.257
11
89.3611
21
-136.427
0
LINE
8
BLACK
6
CONTINUOUS
10
89.3611
20
-136.427
11
89.027
21
-136.486
0
LINE
8
BLACK
6
CONTINUOUS
10
89.027
20
-136.486
11
88.6929
21
-136.427
0
LINE
8
BLACK
6
CONTINUOUS
10
88.6929
20
-136.427
11
88.3991
21
-136.257
0
LINE
8
BLACK
6
CONTINUOUS
10
88.3991
20
-136.257
11
88.181
21
-135.997
0
LINE
8
BLACK
6
CONTINUOUS
10
88.181
20
-135.997
11
88.065
21
-135.679
0
LINE
8
BLACK
6
CONTINUOUS
10
88.065
20
-135.679
11
88.065
21
-135.339
0
LINE
8
BLACK
6
CONTINUOUS
10
88.065
20
-135.339
11
88.181
21
-135.021
0
LINE
8
BLACK
6
CONTINUOUS
10
88.181
20
-135.021
11
88.3991
21
-134.761
0
LINE
8
BLACK
6
CONTINUOUS
10
88.3991
20
-134.761
11
88.6929
21
-134.591
0
LINE
8
BLACK
6
CONTINUOUS
10
88.6929
20
-134.591
11
89.027
21
-134.532
0
LINE
8
BLACK
6
CONTINUOUS
10
89.027
20
-134.532
11
89.3611
21
-134.591
0
LINE
8
BLACK
6
CONTINUOUS
10
77.9311
20
-134.591
11
78.2249
21
-134.761
0
LINE
8
BLACK
6
CONTINUOUS
10
78.2249
20
-134.761
11
78.443
21
-135.021
0
LINE
8
BLACK
6
CONTINUOUS
10
78.443
20
-135.021
11
78.559
21
-135.339
0
LINE
8
BLACK
6
CONTINUOUS
10
78.559
20
-135.339
11
78.559
21
-135.679
0
LINE
8
BLACK
6
CONTINUOUS
10
78.559
20
-135.679
11
78.443
21
-135.997
0
LINE
8
BLACK
6
CONTINUOUS
10
78.443
20
-135.997
11
78.2249
21
-136.257
0
LINE
8
BLACK
6
CONTINUOUS
10
78.2249
20
-136.257
11
77.9311
21
-136.427
0
LINE
8
BLACK
6
CONTINUOUS
10
77.9311
20
-136.427
11
77.597
21
-136.486
0
LINE
8
BLACK
6
CONTINUOUS
10
77.597
20
-136.486
11
77.2629
21
-136.427
0
LINE
8
BLACK
6
CONTINUOUS
10
77.2629
20
-136.427
11
76.9691
21
-136.257
0
LINE
8
BLACK
6
CONTINUOUS
10
76.9691
20
-136.257
11
76.751
21
-135.997
0
LINE
8
BLACK
6
CONTINUOUS
10
76.751
20
-135.997
11
76.635
21
-135.679
0
LINE
8
BLACK
6
CONTINUOUS
10
76.635
20
-135.679
11
76.635
21
-135.339
0
LINE
8
BLACK
6
CONTINUOUS
10
76.635
20
-135.339
11
76.751
21
-135.021
0
LINE
8
BLACK
6
CONTINUOUS
10
76.751
20
-135.021
11
76.9691
21
-134.761
0
LINE
8
BLACK
6
CONTINUOUS
10
76.9691
20
-134.761
11
77.2629
21
-134.591
0
LINE
8
BLACK
6
CONTINUOUS
10
77.2629
20
-134.591
11
77.597
21
-134.532
0
LINE
8
BLACK
6
CONTINUOUS
10
77.597
20
-134.532
11
77.9311
21
-134.591
0
LINE
8
BLACK
6
CONTINUOUS
10
80.4711
20
-134.591
11
80.7649
21
-134.761
0
LINE
8
BLACK
6
CONTINUOUS
10
80.7649
20
-134.761
11
80.983
21
-135.021
0
LINE
8
BLACK
6
CONTINUOUS
10
80.983
20
-135.021
11
81.099
21
-135.339
0
LINE
8
BLACK
6
CONTINUOUS
10
81.099
20
-135.339
11
81.099
21
-135.679
0
LINE
8
BLACK
6
CONTINUOUS
10
81.099
20
-135.679
11
80.983
21
-135.997
0
LINE
8
BLACK
6
CONTINUOUS
10
80.983
20
-135.997
11
80.7649
21
-136.257
0
LINE
8
BLACK
6
CONTINUOUS
10
80.7649
20
-136.257
11
80.4711
21
-136.427
0
LINE
8
BLACK
6
CONTINUOUS
10
80.4711
20
-136.427
11
80.137
21
-136.486
0
LINE
8
BLACK
6
CONTINUOUS
10
80.137
20
-136.486
11
79.8029
21
-136.427
0
LINE
8
BLACK
6
CONTINUOUS
10
79.8029
20
-136.427
11
79.5091
21
-136.257
0
LINE
8
BLACK
6
CONTINUOUS
10
79.5091
20
-136.257
11
79.291
21
-135.997
0
LINE
8
BLACK
6
CONTINUOUS
10
79.291
20
-135.997
11
79.175
21
-135.679
0
LINE
8
BLACK
6
CONTINUOUS
10
79.175
20
-135.679
11
79.175
21
-135.339
0
LINE
8
BLACK
6
CONTINUOUS
10
79.175
20
-135.339
11
79.291
21
-135.021
0
LINE
8
BLACK
6
CONTINUOUS
10
79.291
20
-135.021
11
79.5091
21
-134.761
0
LINE
8
BLACK
6
CONTINUOUS
10
79.5091
20
-134.761
11
79.8029
21
-134.591
0
LINE
8
BLACK
6
CONTINUOUS
10
79.8029
20
-134.591
11
80.137
21
-134.532
0
LINE
8
BLACK
6
CONTINUOUS
10
80.137
20
-134.532
11
80.4711
21
-134.591
0
LINE
8
BLACK
6
CONTINUOUS
10
69.0411
20
-134.591
11
69.3349
21
-134.761
0
LINE
8
BLACK
6
CONTINUOUS
10
69.3349
20
-134.761
11
69.553
21
-135.021
0
LINE
8
BLACK
6
CONTINUOUS
10
69.553
20
-135.021
11
69.669
21
-135.339
0
LINE
8
BLACK
6
CONTINUOUS
10
69.669
20
-135.339
11
69.669
21
-135.679
0
LINE
8
BLACK
6
CONTINUOUS
10
69.669
20
-135.679
11
69.553
21
-135.997
0
LINE
8
BLACK
6
CONTINUOUS
10
69.553
20
-135.997
11
69.3349
21
-136.257
0
LINE
8
BLACK
6
CONTINUOUS
10
69.3349
20
-136.257
11
69.0411
21
-136.427
0
LINE
8
BLACK
6
CONTINUOUS
10
69.0411
20
-136.427
11
68.707
21
-136.486
0
LINE
8
BLACK
6
CONTINUOUS
10
68.707
20
-136.486
11
68.3729
21
-136.427
0
LINE
8
BLACK
6
CONTINUOUS
10
68.3729
20
-136.427
11
68.0791
21
-136.257
0
LINE
8
BLACK
6
CONTINUOUS
10
68.0791
20
-136.257
11
67.861
21
-135.997
0
LINE
8
BLACK
6
CONTINUOUS
10
67.861
20
-135.997
11
67.745
21
-135.679
0
LINE
8
BLACK
6
CONTINUOUS
10
67.745
20
-135.679
11
67.745
21
-135.339
0
LINE
8
BLACK
6
CONTINUOUS
10
67.745
20
-135.339
11
67.861
21
-135.021
0
LINE
8
BLACK
6
CONTINUOUS
10
67.861
20
-135.021
11
68.0791
21
-134.761
0
LINE
8
BLACK
6
CONTINUOUS
10
68.0791
20
-134.761
11
68.3729
21
-134.591
0
LINE
8
BLACK
6
CONTINUOUS
10
68.3729
20
-134.591
11
68.707
21
-134.532
0
LINE
8
BLACK
6
CONTINUOUS
10
68.707
20
-134.532
11
69.0411
21
-134.591
0
LINE
8
BLACK
6
CONTINUOUS
10
95.7111
20
-134.591
11
96.0049
21
-134.761
0
LINE
8
BLACK
6
CONTINUOUS
10
96.0049
20
-134.761
11
96.223
21
-135.021
0
LINE
8
BLACK
6
CONTINUOUS
10
96.223
20
-135.021
11
96.339
21
-135.339
0
LINE
8
BLACK
6
CONTINUOUS
10
96.339
20
-135.339
11
96.339
21
-135.679
0
LINE
8
BLACK
6
CONTINUOUS
10
96.339
20
-135.679
11
96.223
21
-135.997
0
LINE
8
BLACK
6
CONTINUOUS
10
96.223
20
-135.997
11
96.0049
21
-136.257
0
LINE
8
BLACK
6
CONTINUOUS
10
96.0049
20
-136.257
11
95.7111
21
-136.427
0
LINE
8
BLACK
6
CONTINUOUS
10
95.7111
20
-136.427
11
95.377
21
-136.486
0
LINE
8
BLACK
6
CONTINUOUS
10
95.377
20
-136.486
11
95.0429
21
-136.427
0
LINE
8
BLACK
6
CONTINUOUS
10
95.0429
20
-136.427
11
94.7491
21
-136.257
0
LINE
8
BLACK
6
CONTINUOUS
10
94.7491
20
-136.257
11
94.531
21
-135.997
0
LINE
8
BLACK
6
CONTINUOUS
10
94.531
20
-135.997
11
94.415
21
-135.679
0
LINE
8
BLACK
6
CONTINUOUS
10
94.415
20
-135.679
11
94.415
21
-135.339
0
LINE
8
BLACK
6
CONTINUOUS
10
94.415
20
-135.339
11
94.531
21
-135.021
0
LINE
8
BLACK
6
CONTINUOUS
10
94.531
20
-135.021
11
94.7491
21
-134.761
0
LINE
8
BLACK
6
CONTINUOUS
10
94.7491
20
-134.761
11
95.0429
21
-134.591
0
LINE
8
BLACK
6
CONTINUOUS
10
95.0429
20
-134.591
11
95.377
21
-134.532
0
LINE
8
BLACK
6
CONTINUOUS
10
95.377
20
-134.532
11
95.7111
21
-134.591
0
LINE
8
BLACK
6
CONTINUOUS
10
71.5811
20
-134.591
11
71.8749
21
-134.761
0
LINE
8
BLACK
6
CONTINUOUS
10
71.8749
20
-134.761
11
72.093
21
-135.021
0
LINE
8
BLACK
6
CONTINUOUS
10
72.093
20
-135.021
11
72.209
21
-135.339
0
LINE
8
BLACK
6
CONTINUOUS
10
72.209
20
-135.339
11
72.209
21
-135.679
0
LINE
8
BLACK
6
CONTINUOUS
10
72.209
20
-135.679
11
72.093
21
-135.997
0
LINE
8
BLACK
6
CONTINUOUS
10
72.093
20
-135.997
11
71.8749
21
-136.257
0
LINE
8
BLACK
6
CONTINUOUS
10
71.8749
20
-136.257
11
71.5811
21
-136.427
0
LINE
8
BLACK
6
CONTINUOUS
10
71.5811
20
-136.427
11
71.247
21
-136.486
0
LINE
8
BLACK
6
CONTINUOUS
10
71.247
20
-136.486
11
70.9129
21
-136.427
0
LINE
8
BLACK
6
CONTINUOUS
10
70.9129
20
-136.427
11
70.6191
21
-136.257
0
LINE
8
BLACK
6
CONTINUOUS
10
70.6191
20
-136.257
11
70.401
21
-135.997
0
LINE
8
BLACK
6
CONTINUOUS
10
70.401
20
-135.997
11
70.285
21
-135.679
0
LINE
8
BLACK
6
CONTINUOUS
10
70.285
20
-135.679
11
70.285
21
-135.339
0
LINE
8
BLACK
6
CONTINUOUS
10
70.285
20
-135.339
11
70.401
21
-135.021
0
LINE
8
BLACK
6
CONTINUOUS
10
70.401
20
-135.021
11
70.6191
21
-134.761
0
LINE
8
BLACK
6
CONTINUOUS
10
70.6191
20
-134.761
11
70.9129
21
-134.591
0
LINE
8
BLACK
6
CONTINUOUS
10
70.9129
20
-134.591
11
71.247
21
-134.532
0
LINE
8
BLACK
6
CONTINUOUS
10
71.247
20
-134.532
11
71.5811
21
-134.591
0
LINE
8
BLACK
6
CONTINUOUS
10
98.2511
20
-134.591
11
98.5449
21
-134.761
0
LINE
8
BLACK
6
CONTINUOUS
10
98.5449
20
-134.761
11
98.763
21
-135.021
0
LINE
8
BLACK
6
CONTINUOUS
10
98.763
20
-135.021
11
98.879
21
-135.339
0
LINE
8
BLACK
6
CONTINUOUS
10
98.879
20
-135.339
11
98.879
21
-135.679
0
LINE
8
BLACK
6
CONTINUOUS
10
98.879
20
-135.679
11
98.763
21
-135.997
0
LINE
8
BLACK
6
CONTINUOUS
10
98.763
20
-135.997
11
98.5449
21
-136.257
0
LINE
8
BLACK
6
CONTINUOUS
10
98.5449
20
-136.257
11
98.2511
21
-136.427
0
LINE
8
BLACK
6
CONTINUOUS
10
98.2511
20
-136.427
11
97.917
21
-136.486
0
LINE
8
BLACK
6
CONTINUOUS
10
97.917
20
-136.486
11
97.5829
21
-136.427
0
LINE
8
BLACK
6
CONTINUOUS
10
97.5829
20
-136.427
11
97.2891
21
-136.257
0
LINE
8
BLACK
6
CONTINUOUS
10
97.2891
20
-136.257
11
97.071
21
-135.997
0
LINE
8
BLACK
6
CONTINUOUS
10
97.071
20
-135.997
11
96.955
21
-135.679
0
LINE
8
BLACK
6
CONTINUOUS
10
96.955
20
-135.679
11
96.955
21
-135.339
0
LINE
8
BLACK
6
CONTINUOUS
10
96.955
20
-135.339
11
97.071
21
-135.021
0
LINE
8
BLACK
6
CONTINUOUS
10
97.071
20
-135.021
11
97.2891
21
-134.761
0
LINE
8
BLACK
6
CONTINUOUS
10
97.2891
20
-134.761
11
97.5829
21
-134.591
0
LINE
8
BLACK
6
CONTINUOUS
10
97.5829
20
-134.591
11
97.917
21
-134.532
0
LINE
8
BLACK
6
CONTINUOUS
10
97.917
20
-134.532
11
98.2511
21
-134.591
0
LINE
8
BLACK
6
CONTINUOUS
10
86.8211
20
-134.591
11
87.1149
21
-134.761
0
LINE
8
BLACK
6
CONTINUOUS
10
87.1149
20
-134.761
11
87.333
21
-135.021
0
LINE
8
BLACK
6
CONTINUOUS
10
87.333
20
-135.021
11
87.449
21
-135.339
0
LINE
8
BLACK
6
CONTINUOUS
10
87.449
20
-135.339
11
87.449
21
-135.679
0
LINE
8
BLACK
6
CONTINUOUS
10
87.449
20
-135.679
11
87.333
21
-135.997
0
LINE
8
BLACK
6
CONTINUOUS
10
87.333
20
-135.997
11
87.1149
21
-136.257
0
LINE
8
BLACK
6
CONTINUOUS
10
87.1149
20
-136.257
11
86.8211
21
-136.427
0
LINE
8
BLACK
6
CONTINUOUS
10
86.8211
20
-136.427
11
86.487
21
-136.486
0
LINE
8
BLACK
6
CONTINUOUS
10
86.487
20
-136.486
11
86.1529
21
-136.427
0
LINE
8
BLACK
6
CONTINUOUS
10
86.1529
20
-136.427
11
85.8591
21
-136.257
0
LINE
8
BLACK
6
CONTINUOUS
10
85.8591
20
-136.257
11
85.641
21
-135.997
0
LINE
8
BLACK
6
CONTINUOUS
10
85.641
20
-135.997
11
85.525
21
-135.679
0
LINE
8
BLACK
6
CONTINUOUS
10
85.525
20
-135.679
11
85.525
21
-135.339
0
LINE
8
BLACK
6
CONTINUOUS
10
85.525
20
-135.339
11
85.641
21
-135.021
0
LINE
8
BLACK
6
CONTINUOUS
10
85.641
20
-135.021
11
85.8591
21
-134.761
0
LINE
8
BLACK
6
CONTINUOUS
10
85.8591
20
-134.761
11
86.1529
21
-134.591
0
LINE
8
BLACK
6
CONTINUOUS
10
86.1529
20
-134.591
11
86.487
21
-134.532
0
LINE
8
BLACK
6
CONTINUOUS
10
86.487
20
-134.532
11
86.8211
21
-134.591
0
LINE
8
BLACK
6
CONTINUOUS
10
56.5753
20
-134.033
11
55.1847
21
-134.033
0
LINE
8
BLACK
6
CONTINUOUS
10
55.1847
20
-134.033
11
55.1847
21
-131.855
0
LINE
8
BLACK
6
CONTINUOUS
10
55.1847
20
-131.855
11
56.5753
21
-131.855
0
LINE
8
BLACK
6
CONTINUOUS
10
56.5753
20
-131.855
11
56.5753
21
-134.033
0
LINE
8
BLACK
6
CONTINUOUS
10
64.1953
20
-134.033
11
62.8047
21
-134.033
0
LINE
8
BLACK
6
CONTINUOUS
10
62.8047
20
-134.033
11
62.8047
21
-131.855
0
LINE
8
BLACK
6
CONTINUOUS
10
62.8047
20
-131.855
11
64.1953
21
-131.855
0
LINE
8
BLACK
6
CONTINUOUS
10
64.1953
20
-131.855
11
64.1953
21
-134.033
0
LINE
8
BLACK
6
CONTINUOUS
10
61.6553
20
-134.033
11
60.2647
21
-134.033
0
LINE
8
BLACK
6
CONTINUOUS
10
60.2647
20
-134.033
11
60.2647
21
-131.855
0
LINE
8
BLACK
6
CONTINUOUS
10
60.2647
20
-131.855
11
61.6553
21
-131.855
0
LINE
8
BLACK
6
CONTINUOUS
10
61.6553
20
-131.855
11
61.6553
21
-134.033
0
LINE
8
BLACK
6
CONTINUOUS
10
59.1153
20
-134.033
11
57.7247
21
-134.033
0
LINE
8
BLACK
6
CONTINUOUS
10
57.7247
20
-134.033
11
57.7247
21
-131.855
0
LINE
8
BLACK
6
CONTINUOUS
10
57.7247
20
-131.855
11
59.1153
21
-131.855
0
LINE
8
BLACK
6
CONTINUOUS
10
59.1153
20
-131.855
11
59.1153
21
-134.033
0
LINE
8
BLACK
6
CONTINUOUS
10
107.375
20
-134.033
11
105.985
21
-134.033
0
LINE
8
BLACK
6
CONTINUOUS
10
105.985
20
-134.033
11
105.985
21
-131.855
0
LINE
8
BLACK
6
CONTINUOUS
10
105.985
20
-131.855
11
107.375
21
-131.855
0
LINE
8
BLACK
6
CONTINUOUS
10
107.375
20
-131.855
11
107.375
21
-134.033
0
LINE
8
BLACK
6
CONTINUOUS
10
54.0353
20
-134.033
11
52.6447
21
-134.033
0
LINE
8
BLACK
6
CONTINUOUS
10
52.6447
20
-134.033
11
52.6447
21
-131.855
0
LINE
8
BLACK
6
CONTINUOUS
10
52.6447
20
-131.855
11
54.0353
21
-131.855
0
LINE
8
BLACK
6
CONTINUOUS
10
54.0353
20
-131.855
11
54.0353
21
-134.033
0
LINE
8
BLACK
6
CONTINUOUS
10
51.4953
20
-134.033
11
50.1047
21
-134.033
0
LINE
8
BLACK
6
CONTINUOUS
10
50.1047
20
-134.033
11
50.1047
21
-131.855
0
LINE
8
BLACK
6
CONTINUOUS
10
50.1047
20
-131.855
11
51.4953
21
-131.855
0
LINE
8
BLACK
6
CONTINUOUS
10
51.4953
20
-131.855
11
51.4953
21
-134.033
0
LINE
8
BLACK
6
CONTINUOUS
10
48.9553
20
-134.033
11
47.5647
21
-134.033
0
LINE
8
BLACK
6
CONTINUOUS
10
47.5647
20
-134.033
11
47.5647
21
-131.855
0
LINE
8
BLACK
6
CONTINUOUS
10
47.5647
20
-131.855
11
48.9553
21
-131.855
0
LINE
8
BLACK
6
CONTINUOUS
10
48.9553
20
-131.855
11
48.9553
21
-134.033
0
LINE
8
BLACK
6
CONTINUOUS
10
46.4153
20
-134.033
11
45.0247
21
-134.033
0
LINE
8
BLACK
6
CONTINUOUS
10
45.0247
20
-134.033
11
45.0247
21
-131.855
0
LINE
8
BLACK
6
CONTINUOUS
10
45.0247
20
-131.855
11
46.4153
21
-131.855
0
LINE
8
BLACK
6
CONTINUOUS
10
46.4153
20
-131.855
11
46.4153
21
-134.033
0
LINE
8
BLACK
6
CONTINUOUS
10
43.8753
20
-134.033
11
42.4847
21
-134.033
0
LINE
8
BLACK
6
CONTINUOUS
10
42.4847
20
-134.033
11
42.4847
21
-131.855
0
LINE
8
BLACK
6
CONTINUOUS
10
42.4847
20
-131.855
11
43.8753
21
-131.855
0
LINE
8
BLACK
6
CONTINUOUS
10
43.8753
20
-131.855
11
43.8753
21
-134.033
0
LINE
8
BLACK
6
CONTINUOUS
10
41.3353
20
-134.033
11
39.9447
21
-134.033
0
LINE
8
BLACK
6
CONTINUOUS
10
39.9447
20
-134.033
11
39.9447
21
-131.855
0
LINE
8
BLACK
6
CONTINUOUS
10
39.9447
20
-131.855
11
41.3353
21
-131.855
0
LINE
8
BLACK
6
CONTINUOUS
10
41.3353
20
-131.855
11
41.3353
21
-134.033
0
LINE
8
BLACK
6
CONTINUOUS
10
109.915
20
-134.033
11
108.525
21
-134.033
0
LINE
8
BLACK
6
CONTINUOUS
10
108.525
20
-134.033
11
108.525
21
-131.855
0
LINE
8
BLACK
6
CONTINUOUS
10
108.525
20
-131.855
11
109.915
21
-131.855
0
LINE
8
BLACK
6
CONTINUOUS
10
109.915
20
-131.855
11
109.915
21
-134.033
0
LINE
8
BLACK
6
CONTINUOUS
10
112.455
20
-134.033
11
111.065
21
-134.033
0
LINE
8
BLACK
6
CONTINUOUS
10
111.065
20
-134.033
11
111.065
21
-131.855
0
LINE
8
BLACK
6
CONTINUOUS
10
111.065
20
-131.855
11
112.455
21
-131.855
0
LINE
8
BLACK
6
CONTINUOUS
10
112.455
20
-131.855
11
112.455
21
-134.033
0
LINE
8
BLACK
6
CONTINUOUS
10
122.615
20
-134.033
11
121.225
21
-134.033
0
LINE
8
BLACK
6
CONTINUOUS
10
121.225
20
-134.033
11
121.225
21
-131.855
0
LINE
8
BLACK
6
CONTINUOUS
10
121.225
20
-131.855
11
122.615
21
-131.855
0
LINE
8
BLACK
6
CONTINUOUS
10
122.615
20
-131.855
11
122.615
21
-134.033
0
LINE
8
BLACK
6
CONTINUOUS
10
127.695
20
-134.033
11
126.305
21
-134.033
0
LINE
8
BLACK
6
CONTINUOUS
10
126.305
20
-134.033
11
126.305
21
-131.855
0
LINE
8
BLACK
6
CONTINUOUS
10
126.305
20
-131.855
11
127.695
21
-131.855
0
LINE
8
BLACK
6
CONTINUOUS
10
127.695
20
-131.855
11
127.695
21
-134.033
0
LINE
8
BLACK
6
CONTINUOUS
10
104.835
20
-134.033
11
103.445
21
-134.033
0
LINE
8
BLACK
6
CONTINUOUS
10
103.445
20
-134.033
11
103.445
21
-131.855
0
LINE
8
BLACK
6
CONTINUOUS
10
103.445
20
-131.855
11
104.835
21
-131.855
0
LINE
8
BLACK
6
CONTINUOUS
10
104.835
20
-131.855
11
104.835
21
-134.033
0
LINE
8
BLACK
6
CONTINUOUS
10
117.535
20
-134.033
11
116.145
21
-134.033
0
LINE
8
BLACK
6
CONTINUOUS
10
116.145
20
-134.033
11
116.145
21
-131.855
0
LINE
8
BLACK
6
CONTINUOUS
10
116.145
20
-131.855
11
117.535
21
-131.855
0
LINE
8
BLACK
6
CONTINUOUS
10
117.535
20
-131.855
11
117.535
21
-134.033
0
LINE
8
BLACK
6
CONTINUOUS
10
120.075
20
-134.033
11
118.685
21
-134.033
0
LINE
8
BLACK
6
CONTINUOUS
10
118.685
20
-134.033
11
118.685
21
-131.855
0
LINE
8
BLACK
6
CONTINUOUS
10
118.685
20
-131.855
11
120.075
21
-131.855
0
LINE
8
BLACK
6
CONTINUOUS
10
120.075
20
-131.855
11
120.075
21
-134.033
0
LINE
8
BLACK
6
CONTINUOUS
10
125.155
20
-134.033
11
123.765
21
-134.033
0
LINE
8
BLACK
6
CONTINUOUS
10
123.765
20
-134.033
11
123.765
21
-131.855
0
LINE
8
BLACK
6
CONTINUOUS
10
123.765
20
-131.855
11
125.155
21
-131.855
0
LINE
8
BLACK
6
CONTINUOUS
10
125.155
20
-131.855
11
125.155
21
-134.033
0
LINE
8
BLACK
6
CONTINUOUS
10
114.995
20
-134.033
11
113.605
21
-134.033
0
LINE
8
BLACK
6
CONTINUOUS
10
113.605
20
-134.033
11
113.605
21
-131.855
0
LINE
8
BLACK
6
CONTINUOUS
10
113.605
20
-131.855
11
114.995
21
-131.855
0
LINE
8
BLACK
6
CONTINUOUS
10
114.995
20
-131.855
11
114.995
21
-134.033
0
LINE
8
BLACK
6
CONTINUOUS
10
112.094
20
-123.542
11
112.388
21
-123.712
0
LINE
8
BLACK
6
CONTINUOUS
10
112.388
20
-123.712
11
112.606
21
-123.972
0
LINE
8
BLACK
6
CONTINUOUS
10
112.606
20
-123.972
11
112.722
21
-124.29
0
LINE
8
BLACK
6
CONTINUOUS
10
112.722
20
-124.29
11
112.722
21
-124.63
0
LINE
8
BLACK
6
CONTINUOUS
10
112.722
20
-124.63
11
112.606
21
-124.948
0
LINE
8
BLACK
6
CONTINUOUS
10
112.606
20
-124.948
11
112.388
21
-125.208
0
LINE
8
BLACK
6
CONTINUOUS
10
112.388
20
-125.208
11
112.094
21
-125.378
0
LINE
8
BLACK
6
CONTINUOUS
10
112.094
20
-125.378
11
111.76
21
-125.437
0
LINE
8
BLACK
6
CONTINUOUS
10
111.76
20
-125.437
11
111.426
21
-125.378
0
LINE
8
BLACK
6
CONTINUOUS
10
111.426
20
-125.378
11
111.132
21
-125.208
0
LINE
8
BLACK
6
CONTINUOUS
10
111.132
20
-125.208
11
110.914
21
-124.948
0
LINE
8
BLACK
6
CONTINUOUS
10
110.914
20
-124.948
11
110.798
21
-124.63
0
LINE
8
BLACK
6
CONTINUOUS
10
110.798
20
-124.63
11
110.798
21
-124.29
0
LINE
8
BLACK
6
CONTINUOUS
10
110.798
20
-124.29
11
110.914
21
-123.972
0
LINE
8
BLACK
6
CONTINUOUS
10
110.914
20
-123.972
11
111.132
21
-123.712
0
LINE
8
BLACK
6
CONTINUOUS
10
111.132
20
-123.712
11
111.426
21
-123.542
0
LINE
8
BLACK
6
CONTINUOUS
10
111.426
20
-123.542
11
111.76
21
-123.483
0
LINE
8
BLACK
6
CONTINUOUS
10
111.76
20
-123.483
11
112.094
21
-123.542
0
LINE
8
BLACK
6
CONTINUOUS
10
109.554
20
-123.542
11
109.848
21
-123.712
0
LINE
8
BLACK
6
CONTINUOUS
10
109.848
20
-123.712
11
110.066
21
-123.972
0
LINE
8
BLACK
6
CONTINUOUS
10
110.066
20
-123.972
11
110.182
21
-124.29
0
LINE
8
BLACK
6
CONTINUOUS
10
110.182
20
-124.29
11
110.182
21
-124.63
0
LINE
8
BLACK
6
CONTINUOUS
10
110.182
20
-124.63
11
110.066
21
-124.948
0
LINE
8
BLACK
6
CONTINUOUS
10
110.066
20
-124.948
11
109.848
21
-125.208
0
LINE
8
BLACK
6
CONTINUOUS
10
109.848
20
-125.208
11
109.554
21
-125.378
0
LINE
8
BLACK
6
CONTINUOUS
10
109.554
20
-125.378
11
109.22
21
-125.437
0
LINE
8
BLACK
6
CONTINUOUS
10
109.22
20
-125.437
11
108.886
21
-125.378
0
LINE
8
BLACK
6
CONTINUOUS
10
108.886
20
-125.378
11
108.592
21
-125.208
0
LINE
8
BLACK
6
CONTINUOUS
10
108.592
20
-125.208
11
108.374
21
-124.948
0
LINE
8
BLACK
6
CONTINUOUS
10
108.374
20
-124.948
11
108.258
21
-124.63
0
LINE
8
BLACK
6
CONTINUOUS
10
108.258
20
-124.63
11
108.258
21
-124.29
0
LINE
8
BLACK
6
CONTINUOUS
10
108.258
20
-124.29
11
108.374
21
-123.972
0
LINE
8
BLACK
6
CONTINUOUS
10
108.374
20
-123.972
11
108.592
21
-123.712
0
LINE
8
BLACK
6
CONTINUOUS
10
108.592
20
-123.712
11
108.886
21
-123.542
0
LINE
8
BLACK
6
CONTINUOUS
10
108.886
20
-123.542
11
109.22
21
-123.483
0
LINE
8
BLACK
6
CONTINUOUS
10
109.22
20
-123.483
11
109.554
21
-123.542
0
LINE
8
BLACK
6
CONTINUOUS
10
107.014
20
-123.542
11
107.308
21
-123.712
0
LINE
8
BLACK
6
CONTINUOUS
10
107.308
20
-123.712
11
107.526
21
-123.972
0
LINE
8
BLACK
6
CONTINUOUS
10
107.526
20
-123.972
11
107.642
21
-124.29
0
LINE
8
BLACK
6
CONTINUOUS
10
107.642
20
-124.29
11
107.642
21
-124.63
0
LINE
8
BLACK
6
CONTINUOUS
10
107.642
20
-124.63
11
107.526
21
-124.948
0
LINE
8
BLACK
6
CONTINUOUS
10
107.526
20
-124.948
11
107.308
21
-125.208
0
LINE
8
BLACK
6
CONTINUOUS
10
107.308
20
-125.208
11
107.014
21
-125.378
0
LINE
8
BLACK
6
CONTINUOUS
10
107.014
20
-125.378
11
106.68
21
-125.437
0
LINE
8
BLACK
6
CONTINUOUS
10
106.68
20
-125.437
11
106.346
21
-125.378
0
LINE
8
BLACK
6
CONTINUOUS
10
106.346
20
-125.378
11
106.052
21
-125.208
0
LINE
8
BLACK
6
CONTINUOUS
10
106.052
20
-125.208
11
105.834
21
-124.948
0
LINE
8
BLACK
6
CONTINUOUS
10
105.834
20
-124.948
11
105.718
21
-124.63
0
LINE
8
BLACK
6
CONTINUOUS
10
105.718
20
-124.63
11
105.718
21
-124.29
0
LINE
8
BLACK
6
CONTINUOUS
10
105.718
20
-124.29
11
105.834
21
-123.972
0
LINE
8
BLACK
6
CONTINUOUS
10
105.834
20
-123.972
11
106.052
21
-123.712
0
LINE
8
BLACK
6
CONTINUOUS
10
106.052
20
-123.712
11
106.346
21
-123.542
0
LINE
8
BLACK
6
CONTINUOUS
10
106.346
20
-123.542
11
106.68
21
-123.483
0
LINE
8
BLACK
6
CONTINUOUS
10
106.68
20
-123.483
11
107.014
21
-123.542
0
LINE
8
BLACK
6
CONTINUOUS
10
124.794
20
-123.542
11
125.088
21
-123.712
0
LINE
8
BLACK
6
CONTINUOUS
10
125.088
20
-123.712
11
125.306
21
-123.972
0
LINE
8
BLACK
6
CONTINUOUS
10
125.306
20
-123.972
11
125.422
21
-124.29
0
LINE
8
BLACK
6
CONTINUOUS
10
125.422
20
-124.29
11
125.422
21
-124.63
0
LINE
8
BLACK
6
CONTINUOUS
10
125.422
20
-124.63
11
125.306
21
-124.948
0
LINE
8
BLACK
6
CONTINUOUS
10
125.306
20
-124.948
11
125.088
21
-125.208
0
LINE
8
BLACK
6
CONTINUOUS
10
125.088
20
-125.208
11
124.794
21
-125.378
0
LINE
8
BLACK
6
CONTINUOUS
10
124.794
20
-125.378
11
124.46
21
-125.437
0
LINE
8
BLACK
6
CONTINUOUS
10
124.46
20
-125.437
11
124.126
21
-125.378
0
LINE
8
BLACK
6
CONTINUOUS
10
124.126
20
-125.378
11
123.832
21
-125.208
0
LINE
8
BLACK
6
CONTINUOUS
10
123.832
20
-125.208
11
123.614
21
-124.948
0
LINE
8
BLACK
6
CONTINUOUS
10
123.614
20
-124.948
11
123.498
21
-124.63
0
LINE
8
BLACK
6
CONTINUOUS
10
123.498
20
-124.63
11
123.498
21
-124.29
0
LINE
8
BLACK
6
CONTINUOUS
10
123.498
20
-124.29
11
123.614
21
-123.972
0
LINE
8
BLACK
6
CONTINUOUS
10
123.614
20
-123.972
11
123.832
21
-123.712
0
LINE
8
BLACK
6
CONTINUOUS
10
123.832
20
-123.712
11
124.126
21
-123.542
0
LINE
8
BLACK
6
CONTINUOUS
10
124.126
20
-123.542
11
124.46
21
-123.483
0
LINE
8
BLACK
6
CONTINUOUS
10
124.46
20
-123.483
11
124.794
21
-123.542
0
LINE
8
BLACK
6
CONTINUOUS
10
119.714
20
-123.542
11
120.008
21
-123.712
0
LINE
8
BLACK
6
CONTINUOUS
10
120.008
20
-123.712
11
120.226
21
-123.972
0
LINE
8
BLACK
6
CONTINUOUS
10
120.226
20
-123.972
11
120.342
21
-124.29
0
LINE
8
BLACK
6
CONTINUOUS
10
120.342
20
-124.29
11
120.342
21
-124.63
0
LINE
8
BLACK
6
CONTINUOUS
10
120.342
20
-124.63
11
120.226
21
-124.948
0
LINE
8
BLACK
6
CONTINUOUS
10
120.226
20
-124.948
11
120.008
21
-125.208
0
LINE
8
BLACK
6
CONTINUOUS
10
120.008
20
-125.208
11
119.714
21
-125.378
0
LINE
8
BLACK
6
CONTINUOUS
10
119.714
20
-125.378
11
119.38
21
-125.437
0
LINE
8
BLACK
6
CONTINUOUS
10
119.38
20
-125.437
11
119.046
21
-125.378
0
LINE
8
BLACK
6
CONTINUOUS
10
119.046
20
-125.378
11
118.752
21
-125.208
0
LINE
8
BLACK
6
CONTINUOUS
10
118.752
20
-125.208
11
118.534
21
-124.948
0
LINE
8
BLACK
6
CONTINUOUS
10
118.534
20
-124.948
11
118.418
21
-124.63
0
LINE
8
BLACK
6
CONTINUOUS
10
118.418
20
-124.63
11
118.418
21
-124.29
0
LINE
8
BLACK
6
CONTINUOUS
10
118.418
20
-124.29
11
118.534
21
-123.972
0
LINE
8
BLACK
6
CONTINUOUS
10
118.534
20
-123.972
11
118.752
21
-123.712
0
LINE
8
BLACK
6
CONTINUOUS
10
118.752
20
-123.712
11
119.046
21
-123.542
0
LINE
8
BLACK
6
CONTINUOUS
10
119.046
20
-123.542
11
119.38
21
-123.483
0
LINE
8
BLACK
6
CONTINUOUS
10
119.38
20
-123.483
11
119.714
21
-123.542
0
LINE
8
BLACK
6
CONTINUOUS
10
122.254
20
-123.542
11
122.548
21
-123.712
0
LINE
8
BLACK
6
CONTINUOUS
10
122.548
20
-123.712
11
122.766
21
-123.972
0
LINE
8
BLACK
6
CONTINUOUS
10
122.766
20
-123.972
11
122.882
21
-124.29
0
LINE
8
BLACK
6
CONTINUOUS
10
122.882
20
-124.29
11
122.882
21
-124.63
0
LINE
8
BLACK
6
CONTINUOUS
10
122.882
20
-124.63
11
122.766
21
-124.948
0
LINE
8
BLACK
6
CONTINUOUS
10
122.766
20
-124.948
11
122.548
21
-125.208
0
LINE
8
BLACK
6
CONTINUOUS
10
122.548
20
-125.208
11
122.254
21
-125.378
0
LINE
8
BLACK
6
CONTINUOUS
10
122.254
20
-125.378
11
121.92
21
-125.437
0
LINE
8
BLACK
6
CONTINUOUS
10
121.92
20
-125.437
11
121.586
21
-125.378
0
LINE
8
BLACK
6
CONTINUOUS
10
121.586
20
-125.378
11
121.292
21
-125.208
0
LINE
8
BLACK
6
CONTINUOUS
10
121.292
20
-125.208
11
121.074
21
-124.948
0
LINE
8
BLACK
6
CONTINUOUS
10
121.074
20
-124.948
11
120.958
21
-124.63
0
LINE
8
BLACK
6
CONTINUOUS
10
120.958
20
-124.63
11
120.958
21
-124.29
0
LINE
8
BLACK
6
CONTINUOUS
10
120.958
20
-124.29
11
121.074
21
-123.972
0
LINE
8
BLACK
6
CONTINUOUS
10
121.074
20
-123.972
11
121.292
21
-123.712
0
LINE
8
BLACK
6
CONTINUOUS
10
121.292
20
-123.712
11
121.586
21
-123.542
0
LINE
8
BLACK
6
CONTINUOUS
10
121.586
20
-123.542
11
121.92
21
-123.483
0
LINE
8
BLACK
6
CONTINUOUS
10
121.92
20
-123.483
11
122.254
21
-123.542
0
LINE
8
BLACK
6
CONTINUOUS
10
95.7111
20
-120.621
11
96.0049
21
-120.791
0
LINE
8
BLACK
6
CONTINUOUS
10
96.0049
20
-120.791
11
96.223
21
-121.051
0
LINE
8
BLACK
6
CONTINUOUS
10
96.223
20
-121.051
11
96.339
21
-121.369
0
LINE
8
BLACK
6
CONTINUOUS
10
96.339
20
-121.369
11
96.339
21
-121.709
0
LINE
8
BLACK
6
CONTINUOUS
10
96.339
20
-121.709
11
96.223
21
-122.027
0
LINE
8
BLACK
6
CONTINUOUS
10
96.223
20
-122.027
11
96.0049
21
-122.287
0
LINE
8
BLACK
6
CONTINUOUS
10
96.0049
20
-122.287
11
95.7111
21
-122.457
0
LINE
8
BLACK
6
CONTINUOUS
10
95.7111
20
-122.457
11
95.377
21
-122.516
0
LINE
8
BLACK
6
CONTINUOUS
10
95.377
20
-122.516
11
95.0429
21
-122.457
0
LINE
8
BLACK
6
CONTINUOUS
10
95.0429
20
-122.457
11
94.7491
21
-122.287
0
LINE
8
BLACK
6
CONTINUOUS
10
94.7491
20
-122.287
11
94.531
21
-122.027
0
LINE
8
BLACK
6
CONTINUOUS
10
94.531
20
-122.027
11
94.415
21
-121.709
0
LINE
8
BLACK
6
CONTINUOUS
10
94.415
20
-121.709
11
94.415
21
-121.369
0
LINE
8
BLACK
6
CONTINUOUS
10
94.415
20
-121.369
11
94.531
21
-121.051
0
LINE
8
BLACK
6
CONTINUOUS
10
94.531
20
-121.051
11
94.7491
21
-120.791
0
LINE
8
BLACK
6
CONTINUOUS
10
94.7491
20
-120.791
11
95.0429
21
-120.621
0
LINE
8
BLACK
6
CONTINUOUS
10
95.0429
20
-120.621
11
95.377
21
-120.562
0
LINE
8
BLACK
6
CONTINUOUS
10
95.377
20
-120.562
11
95.7111
21
-120.621
0
LINE
8
BLACK
6
CONTINUOUS
10
98.2511
20
-120.621
11
98.5449
21
-120.791
0
LINE
8
BLACK
6
CONTINUOUS
10
98.5449
20
-120.791
11
98.763
21
-121.051
0
LINE
8
BLACK
6
CONTINUOUS
10
98.763
20
-121.051
11
98.879
21
-121.369
0
LINE
8
BLACK
6
CONTINUOUS
10
98.879
20
-121.369
11
98.879
21
-121.709
0
LINE
8
BLACK
6
CONTINUOUS
10
98.879
20
-121.709
11
98.763
21
-122.027
0
LINE
8
BLACK
6
CONTINUOUS
10
98.763
20
-122.027
11
98.5449
21
-122.287
0
LINE
8
BLACK
6
CONTINUOUS
10
98.5449
20
-122.287
11
98.2511
21
-122.457
0
LINE
8
BLACK
6
CONTINUOUS
10
98.2511
20
-122.457
11
97.917
21
-122.516
0
LINE
8
BLACK
6
CONTINUOUS
10
97.917
20
-122.516
11
97.5829
21
-122.457
0
LINE
8
BLACK
6
CONTINUOUS
10
97.5829
20
-122.457
11
97.2891
21
-122.287
0
LINE
8
BLACK
6
CONTINUOUS
10
97.2891
20
-122.287
11
97.071
21
-122.027
0
LINE
8
BLACK
6
CONTINUOUS
10
97.071
20
-122.027
11
96.955
21
-121.709
0
LINE
8
BLACK
6
CONTINUOUS
10
96.955
20
-121.709
11
96.955
21
-121.369
0
LINE
8
BLACK
6
CONTINUOUS
10
96.955
20
-121.369
11
97.071
21
-121.051
0
LINE
8
BLACK
6
CONTINUOUS
10
97.071
20
-121.051
11
97.2891
21
-120.791
0
LINE
8
BLACK
6
CONTINUOUS
10
97.2891
20
-120.791
11
97.5829
21
-120.621
0
LINE
8
BLACK
6
CONTINUOUS
10
97.5829
20
-120.621
11
97.917
21
-120.562
0
LINE
8
BLACK
6
CONTINUOUS
10
97.917
20
-120.562
11
98.2511
21
-120.621
0
LINE
8
BLACK
6
CONTINUOUS
10
86.8211
20
-120.621
11
87.1149
21
-120.791
0
LINE
8
BLACK
6
CONTINUOUS
10
87.1149
20
-120.791
11
87.333
21
-121.051
0
LINE
8
BLACK
6
CONTINUOUS
10
87.333
20
-121.051
11
87.449
21
-121.369
0
LINE
8
BLACK
6
CONTINUOUS
10
87.449
20
-121.369
11
87.449
21
-121.709
0
LINE
8
BLACK
6
CONTINUOUS
10
87.449
20
-121.709
11
87.333
21
-122.027
0
LINE
8
BLACK
6
CONTINUOUS
10
87.333
20
-122.027
11
87.1149
21
-122.287
0
LINE
8
BLACK
6
CONTINUOUS
10
87.1149
20
-122.287
11
86.8211
21
-122.457
0
LINE
8
BLACK
6
CONTINUOUS
10
86.8211
20
-122.457
11
86.487
21
-122.516
0
LINE
8
BLACK
6
CONTINUOUS
10
86.487
20
-122.516
11
86.1529
21
-122.457
0
LINE
8
BLACK
6
CONTINUOUS
10
86.1529
20
-122.457
11
85.8591
21
-122.287
0
LINE
8
BLACK
6
CONTINUOUS
10
85.8591
20
-122.287
11
85.641
21
-122.027
0
LINE
8
BLACK
6
CONTINUOUS
10
85.641
20
-122.027
11
85.525
21
-121.709
0
LINE
8
BLACK
6
CONTINUOUS
10
85.525
20
-121.709
11
85.525
21
-121.369
0
LINE
8
BLACK
6
CONTINUOUS
10
85.525
20
-121.369
11
85.641
21
-121.051
0
LINE
8
BLACK
6
CONTINUOUS
10
85.641
20
-121.051
11
85.8591
21
-120.791
0
LINE
8
BLACK
6
CONTINUOUS
10
85.8591
20
-120.791
11
86.1529
21
-120.621
0
LINE
8
BLACK
6
CONTINUOUS
10
86.1529
20
-120.621
11
86.487
21
-120.562
0
LINE
8
BLACK
6
CONTINUOUS
10
86.487
20
-120.562
11
86.8211
21
-120.621
0
LINE
8
BLACK
6
CONTINUOUS
10
89.3611
20
-120.621
11
89.6549
21
-120.791
0
LINE
8
BLACK
6
CONTINUOUS
10
89.6549
20
-120.791
11
89.873
21
-121.051
0
LINE
8
BLACK
6
CONTINUOUS
10
89.873
20
-121.051
11
89.989
21
-121.369
0
LINE
8
BLACK
6
CONTINUOUS
10
89.989
20
-121.369
11
89.989
21
-121.709
0
LINE
8
BLACK
6
CONTINUOUS
10
89.989
20
-121.709
11
89.873
21
-122.027
0
LINE
8
BLACK
6
CONTINUOUS
10
89.873
20
-122.027
11
89.6549
21
-122.287
0
LINE
8
BLACK
6
CONTINUOUS
10
89.6549
20
-122.287
11
89.3611
21
-122.457
0
LINE
8
BLACK
6
CONTINUOUS
10
89.3611
20
-122.457
11
89.027
21
-122.516
0
LINE
8
BLACK
6
CONTINUOUS
10
89.027
20
-122.516
11
88.6929
21
-122.457
0
LINE
8
BLACK
6
CONTINUOUS
10
88.6929
20
-122.457
11
88.3991
21
-122.287
0
LINE
8
BLACK
6
CONTINUOUS
10
88.3991
20
-122.287
11
88.181
21
-122.027
0
LINE
8
BLACK
6
CONTINUOUS
10
88.181
20
-122.027
11
88.065
21
-121.709
0
LINE
8
BLACK
6
CONTINUOUS
10
88.065
20
-121.709
11
88.065
21
-121.369
0
LINE
8
BLACK
6
CONTINUOUS
10
88.065
20
-121.369
11
88.181
21
-121.051
0
LINE
8
BLACK
6
CONTINUOUS
10
88.181
20
-121.051
11
88.3991
21
-120.791
0
LINE
8
BLACK
6
CONTINUOUS
10
88.3991
20
-120.791
11
88.6929
21
-120.621
0
LINE
8
BLACK
6
CONTINUOUS
10
88.6929
20
-120.621
11
89.027
21
-120.562
0
LINE
8
BLACK
6
CONTINUOUS
10
89.027
20
-120.562
11
89.3611
21
-120.621
0
LINE
8
BLACK
6
CONTINUOUS
10
77.9311
20
-120.621
11
78.2249
21
-120.791
0
LINE
8
BLACK
6
CONTINUOUS
10
78.2249
20
-120.791
11
78.443
21
-121.051
0
LINE
8
BLACK
6
CONTINUOUS
10
78.443
20
-121.051
11
78.559
21
-121.369
0
LINE
8
BLACK
6
CONTINUOUS
10
78.559
20
-121.369
11
78.559
21
-121.709
0
LINE
8
BLACK
6
CONTINUOUS
10
78.559
20
-121.709
11
78.443
21
-122.027
0
LINE
8
BLACK
6
CONTINUOUS
10
78.443
20
-122.027
11
78.2249
21
-122.287
0
LINE
8
BLACK
6
CONTINUOUS
10
78.2249
20
-122.287
11
77.9311
21
-122.457
0
LINE
8
BLACK
6
CONTINUOUS
10
77.9311
20
-122.457
11
77.597
21
-122.516
0
LINE
8
BLACK
6
CONTINUOUS
10
77.597
20
-122.516
11
77.2629
21
-122.457
0
LINE
8
BLACK
6
CONTINUOUS
10
77.2629
20
-122.457
11
76.9691
21
-122.287
0
LINE
8
BLACK
6
CONTINUOUS
10
76.9691
20
-122.287
11
76.751
21
-122.027
0
LINE
8
BLACK
6
CONTINUOUS
10
76.751
20
-122.027
11
76.635
21
-121.709
0
LINE
8
BLACK
6
CONTINUOUS
10
76.635
20
-121.709
11
76.635
21
-121.369
0
LINE
8
BLACK
6
CONTINUOUS
10
76.635
20
-121.369
11
76.751
21
-121.051
0
LINE
8
BLACK
6
CONTINUOUS
10
76.751
20
-121.051
11
76.9691
21
-120.791
0
LINE
8
BLACK
6
CONTINUOUS
10
76.9691
20
-120.791
11
77.2629
21
-120.621
0
LINE
8
BLACK
6
CONTINUOUS
10
77.2629
20
-120.621
11
77.597
21
-120.562
0
LINE
8
BLACK
6
CONTINUOUS
10
77.597
20
-120.562
11
77.9311
21
-120.621
0
LINE
8
BLACK
6
CONTINUOUS
10
71.5811
20
-120.621
11
71.8749
21
-120.791
0
LINE
8
BLACK
6
CONTINUOUS
10
71.8749
20
-120.791
11
72.093
21
-121.051
0
LINE
8
BLACK
6
CONTINUOUS
10
72.093
20
-121.051
11
72.209
21
-121.369
0
LINE
8
BLACK
6
CONTINUOUS
10
72.209
20
-121.369
11
72.209
21
-121.709
0
LINE
8
BLACK
6
CONTINUOUS
10
72.209
20
-121.709
11
72.093
21
-122.027
0
LINE
8
BLACK
6
CONTINUOUS
10
72.093
20
-122.027
11
71.8749
21
-122.287
0
LINE
8
BLACK
6
CONTINUOUS
10
71.8749
20
-122.287
11
71.5811
21
-122.457
0
LINE
8
BLACK
6
CONTINUOUS
10
71.5811
20
-122.457
11
71.247
21
-122.516
0
LINE
8
BLACK
6
CONTINUOUS
10
71.247
20
-122.516
11
70.9129
21
-122.457
0
LINE
8
BLACK
6
CONTINUOUS
10
70.9129
20
-122.457
11
70.6191
21
-122.287
0
LINE
8
BLACK
6
CONTINUOUS
10
70.6191
20
-122.287
11
70.401
21
-122.027
0
LINE
8
BLACK
6
CONTINUOUS
10
70.401
20
-122.027
11
70.285
21
-121.709
0
LINE
8
BLACK
6
CONTINUOUS
10
70.285
20
-121.709
11
70.285
21
-121.369
0
LINE
8
BLACK
6
CONTINUOUS
10
70.285
20
-121.369
11
70.401
21
-121.051
0
LINE
8
BLACK
6
CONTINUOUS
10
70.401
20
-121.051
11
70.6191
21
-120.791
0
LINE
8
BLACK
6
CONTINUOUS
10
70.6191
20
-120.791
11
70.9129
21
-120.621
0
LINE
8
BLACK
6
CONTINUOUS
10
70.9129
20
-120.621
11
71.247
21
-120.562
0
LINE
8
BLACK
6
CONTINUOUS
10
71.247
20
-120.562
11
71.5811
21
-120.621
0
LINE
8
BLACK
6
CONTINUOUS
10
69.0411
20
-120.621
11
69.3349
21
-120.791
0
LINE
8
BLACK
6
CONTINUOUS
10
69.3349
20
-120.791
11
69.553
21
-121.051
0
LINE
8
BLACK
6
CONTINUOUS
10
69.553
20
-121.051
11
69.669
21
-121.369
0
LINE
8
BLACK
6
CONTINUOUS
10
69.669
20
-121.369
11
69.669
21
-121.709
0
LINE
8
BLACK
6
CONTINUOUS
10
69.669
20
-121.709
11
69.553
21
-122.027
0
LINE
8
BLACK
6
CONTINUOUS
10
69.553
20
-122.027
11
69.3349
21
-122.287
0
LINE
8
BLACK
6
CONTINUOUS
10
69.3349
20
-122.287
11
69.0411
21
-122.457
0
LINE
8
BLACK
6
CONTINUOUS
10
69.0411
20
-122.457
11
68.707
21
-122.516
0
LINE
8
BLACK
6
CONTINUOUS
10
68.707
20
-122.516
11
68.3729
21
-122.457
0
LINE
8
BLACK
6
CONTINUOUS
10
68.3729
20
-122.457
11
68.0791
21
-122.287
0
LINE
8
BLACK
6
CONTINUOUS
10
68.0791
20
-122.287
11
67.861
21
-122.027
0
LINE
8
BLACK
6
CONTINUOUS
10
67.861
20
-122.027
11
67.745
21
-121.709
0
LINE
8
BLACK
6
CONTINUOUS
10
67.745
20
-121.709
11
67.745
21
-121.369
0
LINE
8
BLACK
6
CONTINUOUS
10
67.745
20
-121.369
11
67.861
21
-121.051
0
LINE
8
BLACK
6
CONTINUOUS
10
67.861
20
-121.051
11
68.0791
21
-120.791
0
LINE
8
BLACK
6
CONTINUOUS
10
68.0791
20
-120.791
11
68.3729
21
-120.621
0
LINE
8
BLACK
6
CONTINUOUS
10
68.3729
20
-120.621
11
68.707
21
-120.562
0
LINE
8
BLACK
6
CONTINUOUS
10
68.707
20
-120.562
11
69.0411
21
-120.621
0
LINE
8
BLACK
6
CONTINUOUS
10
80.4711
20
-120.621
11
80.7649
21
-120.791
0
LINE
8
BLACK
6
CONTINUOUS
10
80.7649
20
-120.791
11
80.983
21
-121.051
0
LINE
8
BLACK
6
CONTINUOUS
10
80.983
20
-121.051
11
81.099
21
-121.369
0
LINE
8
BLACK
6
CONTINUOUS
10
81.099
20
-121.369
11
81.099
21
-121.709
0
LINE
8
BLACK
6
CONTINUOUS
10
81.099
20
-121.709
11
80.983
21
-122.027
0
LINE
8
BLACK
6
CONTINUOUS
10
80.983
20
-122.027
11
80.7649
21
-122.287
0
LINE
8
BLACK
6
CONTINUOUS
10
80.7649
20
-122.287
11
80.4711
21
-122.457
0
LINE
8
BLACK
6
CONTINUOUS
10
80.4711
20
-122.457
11
80.137
21
-122.516
0
LINE
8
BLACK
6
CONTINUOUS
10
80.137
20
-122.516
11
79.8029
21
-122.457
0
LINE
8
BLACK
6
CONTINUOUS
10
79.8029
20
-122.457
11
79.5091
21
-122.287
0
LINE
8
BLACK
6
CONTINUOUS
10
79.5091
20
-122.287
11
79.291
21
-122.027
0
LINE
8
BLACK
6
CONTINUOUS
10
79.291
20
-122.027
11
79.175
21
-121.709
0
LINE
8
BLACK
6
CONTINUOUS
10
79.175
20
-121.709
11
79.175
21
-121.369
0
LINE
8
BLACK
6
CONTINUOUS
10
79.175
20
-121.369
11
79.291
21
-121.051
0
LINE
8
BLACK
6
CONTINUOUS
10
79.291
20
-121.051
11
79.5091
21
-120.791
0
LINE
8
BLACK
6
CONTINUOUS
10
79.5091
20
-120.791
11
79.8029
21
-120.621
0
LINE
8
BLACK
6
CONTINUOUS
10
79.8029
20
-120.621
11
80.137
21
-120.562
0
LINE
8
BLACK
6
CONTINUOUS
10
80.137
20
-120.562
11
80.4711
21
-120.621
0
LINE
8
BLACK
6
CONTINUOUS
10
42.7399
20
-114.854
11
43.0301
21
-115.021
0
LINE
8
BLACK
6
CONTINUOUS
10
43.0301
20
-115.021
11
43.2454
21
-115.278
0
LINE
8
BLACK
6
CONTINUOUS
10
43.2454
20
-115.278
11
43.36
21
-115.592
0
LINE
8
BLACK
6
CONTINUOUS
10
43.36
20
-115.592
11
43.36
21
-115.928
0
LINE
8
BLACK
6
CONTINUOUS
10
43.36
20
-115.928
11
43.2454
21
-116.242
0
LINE
8
BLACK
6
CONTINUOUS
10
43.2454
20
-116.242
11
43.0301
21
-116.499
0
LINE
8
BLACK
6
CONTINUOUS
10
43.0301
20
-116.499
11
42.8657
21
-116.594
0
LINE
8
BLACK
6
CONTINUOUS
10
42.8657
20
-116.594
11
43.0115
21
-116.62
0
LINE
8
BLACK
6
CONTINUOUS
10
43.0115
20
-116.62
11
43.4085
21
-116.849
0
LINE
8
BLACK
6
CONTINUOUS
10
43.4085
20
-116.849
11
43.7032
21
-117.2
0
LINE
8
BLACK
6
CONTINUOUS
10
43.7032
20
-117.2
11
43.86
21
-117.631
0
LINE
8
BLACK
6
CONTINUOUS
10
43.86
20
-117.631
11
43.86
21
-118.089
0
LINE
8
BLACK
6
CONTINUOUS
10
43.86
20
-118.089
11
43.7032
21
-118.52
0
LINE
8
BLACK
6
CONTINUOUS
10
43.7032
20
-118.52
11
43.4085
21
-118.871
0
LINE
8
BLACK
6
CONTINUOUS
10
43.4085
20
-118.871
11
43.0115
21
-119.1
0
LINE
8
BLACK
6
CONTINUOUS
10
43.0115
20
-119.1
11
42.6737
21
-119.16
0
LINE
8
BLACK
6
CONTINUOUS
10
42.6737
20
-119.16
11
41.1463
21
-119.16
0
LINE
8
BLACK
6
CONTINUOUS
10
41.1463
20
-119.16
11
40.8085
21
-119.1
0
LINE
8
BLACK
6
CONTINUOUS
10
40.8085
20
-119.1
11
40.4115
21
-118.871
0
LINE
8
BLACK
6
CONTINUOUS
10
40.4115
20
-118.871
11
40.1168
21
-118.52
0
LINE
8
BLACK
6
CONTINUOUS
10
40.1168
20
-118.52
11
39.96
21
-118.089
0
LINE
8
BLACK
6
CONTINUOUS
10
39.96
20
-118.089
11
39.96
21
-117.631
0
LINE
8
BLACK
6
CONTINUOUS
10
39.96
20
-117.631
11
40.1168
21
-117.2
0
LINE
8
BLACK
6
CONTINUOUS
10
40.1168
20
-117.2
11
40.4115
21
-116.849
0
LINE
8
BLACK
6
CONTINUOUS
10
40.4115
20
-116.849
11
40.8085
21
-116.62
0
LINE
8
BLACK
6
CONTINUOUS
10
40.8085
20
-116.62
11
40.9543
21
-116.594
0
LINE
8
BLACK
6
CONTINUOUS
10
40.9543
20
-116.594
11
40.7899
21
-116.499
0
LINE
8
BLACK
6
CONTINUOUS
10
40.7899
20
-116.499
11
40.5746
21
-116.242
0
LINE
8
BLACK
6
CONTINUOUS
10
40.5746
20
-116.242
11
40.46
21
-115.928
0
LINE
8
BLACK
6
CONTINUOUS
10
40.46
20
-115.928
11
40.46
21
-115.592
0
LINE
8
BLACK
6
CONTINUOUS
10
40.46
20
-115.592
11
40.5746
21
-115.278
0
LINE
8
BLACK
6
CONTINUOUS
10
40.5746
20
-115.278
11
40.7899
21
-115.021
0
LINE
8
BLACK
6
CONTINUOUS
10
40.7899
20
-115.021
11
41.0801
21
-114.854
0
LINE
8
BLACK
6
CONTINUOUS
10
41.0801
20
-114.854
11
41.3269
21
-114.81
0
LINE
8
BLACK
6
CONTINUOUS
10
41.3269
20
-114.81
11
42.4931
21
-114.81
0
LINE
8
BLACK
6
CONTINUOUS
10
42.4931
20
-114.81
11
42.7399
21
-114.854
0
LINE
8
BLACK
6
CONTINUOUS
10
42.7399
20
-112.854
11
43.0301
21
-113.021
0
LINE
8
BLACK
6
CONTINUOUS
10
43.0301
20
-113.021
11
43.2454
21
-113.278
0
LINE
8
BLACK
6
CONTINUOUS
10
43.2454
20
-113.278
11
43.36
21
-113.592
0
LINE
8
BLACK
6
CONTINUOUS
10
43.36
20
-113.592
11
43.36
21
-113.928
0
LINE
8
BLACK
6
CONTINUOUS
10
43.36
20
-113.928
11
43.2454
21
-114.242
0
LINE
8
BLACK
6
CONTINUOUS
10
43.2454
20
-114.242
11
43.0301
21
-114.499
0
LINE
8
BLACK
6
CONTINUOUS
10
43.0301
20
-114.499
11
42.7399
21
-114.666
0
LINE
8
BLACK
6
CONTINUOUS
10
42.7399
20
-114.666
11
42.4931
21
-114.71
0
LINE
8
BLACK
6
CONTINUOUS
10
42.4931
20
-114.71
11
41.3269
21
-114.71
0
LINE
8
BLACK
6
CONTINUOUS
10
41.3269
20
-114.71
11
41.0801
21
-114.666
0
LINE
8
BLACK
6
CONTINUOUS
10
41.0801
20
-114.666
11
40.7899
21
-114.499
0
LINE
8
BLACK
6
CONTINUOUS
10
40.7899
20
-114.499
11
40.5746
21
-114.242
0
LINE
8
BLACK
6
CONTINUOUS
10
40.5746
20
-114.242
11
40.46
21
-113.928
0
LINE
8
BLACK
6
CONTINUOUS
10
40.46
20
-113.928
11
40.46
21
-113.592
0
LINE
8
BLACK
6
CONTINUOUS
10
40.46
20
-113.592
11
40.5746
21
-113.278
0
LINE
8
BLACK
6
CONTINUOUS
10
40.5746
20
-113.278
11
40.7899
21
-113.021
0
LINE
8
BLACK
6
CONTINUOUS
10
40.7899
20
-113.021
11
41.0801
21
-112.854
0
LINE
8
BLACK
6
CONTINUOUS
10
41.0801
20
-112.854
11
41.3269
21
-112.81
0
LINE
8
BLACK
6
CONTINUOUS
10
41.3269
20
-112.81
11
42.4931
21
-112.81
0
LINE
8
BLACK
6
CONTINUOUS
10
42.4931
20
-112.81
11
42.7399
21
-112.854
0
LINE
8
BLACK
6
CONTINUOUS
10
159.084
20
-111.35
11
159.378
21
-111.52
0
LINE
8
BLACK
6
CONTINUOUS
10
159.378
20
-111.52
11
159.596
21
-111.78
0
LINE
8
BLACK
6
CONTINUOUS
10
159.596
20
-111.78
11
159.712
21
-112.098
0
LINE
8
BLACK
6
CONTINUOUS
10
159.712
20
-112.098
11
159.712
21
-112.438
0
LINE
8
BLACK
6
CONTINUOUS
10
159.712
20
-112.438
11
159.596
21
-112.756
0
LINE
8
BLACK
6
CONTINUOUS
10
159.596
20
-112.756
11
159.378
21
-113.016
0
LINE
8
BLACK
6
CONTINUOUS
10
159.378
20
-113.016
11
159.084
21
-113.186
0
LINE
8
BLACK
6
CONTINUOUS
10
159.084
20
-113.186
11
158.75
21
-113.245
0
LINE
8
BLACK
6
CONTINUOUS
10
158.75
20
-113.245
11
158.416
21
-113.186
0
LINE
8
BLACK
6
CONTINUOUS
10
158.416
20
-113.186
11
158.122
21
-113.016
0
LINE
8
BLACK
6
CONTINUOUS
10
158.122
20
-113.016
11
157.904
21
-112.756
0
LINE
8
BLACK
6
CONTINUOUS
10
157.904
20
-112.756
11
157.788
21
-112.438
0
LINE
8
BLACK
6
CONTINUOUS
10
157.788
20
-112.438
11
157.788
21
-112.098
0
LINE
8
BLACK
6
CONTINUOUS
10
157.788
20
-112.098
11
157.904
21
-111.78
0
LINE
8
BLACK
6
CONTINUOUS
10
157.904
20
-111.78
11
158.122
21
-111.52
0
LINE
8
BLACK
6
CONTINUOUS
10
158.122
20
-111.52
11
158.416
21
-111.35
0
LINE
8
BLACK
6
CONTINUOUS
10
158.416
20
-111.35
11
158.75
21
-111.291
0
LINE
8
BLACK
6
CONTINUOUS
10
158.75
20
-111.291
11
159.084
21
-111.35
0
LINE
8
BLACK
6
CONTINUOUS
10
43.0115
20
-108.42
11
43.4085
21
-108.649
0
LINE
8
BLACK
6
CONTINUOUS
10
43.4085
20
-108.649
11
43.7032
21
-109
0
LINE
8
BLACK
6
CONTINUOUS
10
43.7032
20
-109
11
43.86
21
-109.431
0
LINE
8
BLACK
6
CONTINUOUS
10
43.86
20
-109.431
11
43.86
21
-109.889
0
LINE
8
BLACK
6
CONTINUOUS
10
43.86
20
-109.889
11
43.7032
21
-110.32
0
LINE
8
BLACK
6
CONTINUOUS
10
43.7032
20
-110.32
11
43.4085
21
-110.671
0
LINE
8
BLACK
6
CONTINUOUS
10
43.4085
20
-110.671
11
43.1681
21
-110.81
0
LINE
8
BLACK
6
CONTINUOUS
10
43.1681
20
-110.81
11
43.36
21
-110.81
0
LINE
8
BLACK
6
CONTINUOUS
10
43.36
20
-110.81
11
43.36
21
-112.71
0
LINE
8
BLACK
6
CONTINUOUS
10
43.36
20
-112.71
11
40.46
21
-112.71
0
LINE
8
BLACK
6
CONTINUOUS
10
40.46
20
-112.71
11
40.46
21
-110.81
0
LINE
8
BLACK
6
CONTINUOUS
10
40.46
20
-110.81
11
40.6519
21
-110.81
0
LINE
8
BLACK
6
CONTINUOUS
10
40.6519
20
-110.81
11
40.4115
21
-110.671
0
LINE
8
BLACK
6
CONTINUOUS
10
40.4115
20
-110.671
11
40.1168
21
-110.32
0
LINE
8
BLACK
6
CONTINUOUS
10
40.1168
20
-110.32
11
39.96
21
-109.889
0
LINE
8
BLACK
6
CONTINUOUS
10
39.96
20
-109.889
11
39.96
21
-109.431
0
LINE
8
BLACK
6
CONTINUOUS
10
39.96
20
-109.431
11
40.1168
21
-109
0
LINE
8
BLACK
6
CONTINUOUS
10
40.1168
20
-109
11
40.4115
21
-108.649
0
LINE
8
BLACK
6
CONTINUOUS
10
40.4115
20
-108.649
11
40.8085
21
-108.42
0
LINE
8
BLACK
6
CONTINUOUS
10
40.8085
20
-108.42
11
41.1463
21
-108.36
0
LINE
8
BLACK
6
CONTINUOUS
10
41.1463
20
-108.36
11
42.6737
21
-108.36
0
LINE
8
BLACK
6
CONTINUOUS
10
42.6737
20
-108.36
11
43.0115
21
-108.42
0
LINE
8
BLACK
6
CONTINUOUS
10
159.084
20
-108.81
11
159.378
21
-108.98
0
LINE
8
BLACK
6
CONTINUOUS
10
159.378
20
-108.98
11
159.596
21
-109.24
0
LINE
8
BLACK
6
CONTINUOUS
10
159.596
20
-109.24
11
159.712
21
-109.558
0
LINE
8
BLACK
6
CONTINUOUS
10
159.712
20
-109.558
11
159.712
21
-109.898
0
LINE
8
BLACK
6
CONTINUOUS
10
159.712
20
-109.898
11
159.596
21
-110.216
0
LINE
8
BLACK
6
CONTINUOUS
10
159.596
20
-110.216
11
159.378
21
-110.476
0
LINE
8
BLACK
6
CONTINUOUS
10
159.378
20
-110.476
11
159.084
21
-110.646
0
LINE
8
BLACK
6
CONTINUOUS
10
159.084
20
-110.646
11
158.75
21
-110.705
0
LINE
8
BLACK
6
CONTINUOUS
10
158.75
20
-110.705
11
158.416
21
-110.646
0
LINE
8
BLACK
6
CONTINUOUS
10
158.416
20
-110.646
11
158.122
21
-110.476
0
LINE
8
BLACK
6
CONTINUOUS
10
158.122
20
-110.476
11
157.904
21
-110.216
0
LINE
8
BLACK
6
CONTINUOUS
10
157.904
20
-110.216
11
157.788
21
-109.898
0
LINE
8
BLACK
6
CONTINUOUS
10
157.788
20
-109.898
11
157.788
21
-109.558
0
LINE
8
BLACK
6
CONTINUOUS
10
157.788
20
-109.558
11
157.904
21
-109.24
0
LINE
8
BLACK
6
CONTINUOUS
10
157.904
20
-109.24
11
158.122
21
-108.98
0
LINE
8
BLACK
6
CONTINUOUS
10
158.122
20
-108.98
11
158.416
21
-108.81
0
LINE
8
BLACK
6
CONTINUOUS
10
158.416
20
-108.81
11
158.75
21
-108.751
0
LINE
8
BLACK
6
CONTINUOUS
10
158.75
20
-108.751
11
159.084
21
-108.81
0
LINE
8
BLACK
6
CONTINUOUS
10
119.714
20
-107.032
11
120.008
21
-107.202
0
LINE
8
BLACK
6
CONTINUOUS
10
120.008
20
-107.202
11
120.226
21
-107.462
0
LINE
8
BLACK
6
CONTINUOUS
10
120.226
20
-107.462
11
120.342
21
-107.78
0
LINE
8
BLACK
6
CONTINUOUS
10
120.342
20
-107.78
11
120.342
21
-108.12
0
LINE
8
BLACK
6
CONTINUOUS
10
120.342
20
-108.12
11
120.226
21
-108.438
0
LINE
8
BLACK
6
CONTINUOUS
10
120.226
20
-108.438
11
120.008
21
-108.698
0
LINE
8
BLACK
6
CONTINUOUS
10
120.008
20
-108.698
11
119.714
21
-108.868
0
LINE
8
BLACK
6
CONTINUOUS
10
119.714
20
-108.868
11
119.38
21
-108.927
0
LINE
8
BLACK
6
CONTINUOUS
10
119.38
20
-108.927
11
119.046
21
-108.868
0
LINE
8
BLACK
6
CONTINUOUS
10
119.046
20
-108.868
11
118.752
21
-108.698
0
LINE
8
BLACK
6
CONTINUOUS
10
118.752
20
-108.698
11
118.534
21
-108.438
0
LINE
8
BLACK
6
CONTINUOUS
10
118.534
20
-108.438
11
118.418
21
-108.12
0
LINE
8
BLACK
6
CONTINUOUS
10
118.418
20
-108.12
11
118.418
21
-107.78
0
LINE
8
BLACK
6
CONTINUOUS
10
118.418
20
-107.78
11
118.534
21
-107.462
0
LINE
8
BLACK
6
CONTINUOUS
10
118.534
20
-107.462
11
118.752
21
-107.202
0
LINE
8
BLACK
6
CONTINUOUS
10
118.752
20
-107.202
11
119.046
21
-107.032
0
LINE
8
BLACK
6
CONTINUOUS
10
119.046
20
-107.032
11
119.38
21
-106.973
0
LINE
8
BLACK
6
CONTINUOUS
10
119.38
20
-106.973
11
119.714
21
-107.032
0
LINE
8
BLACK
6
CONTINUOUS
10
122.254
20
-107.032
11
122.548
21
-107.202
0
LINE
8
BLACK
6
CONTINUOUS
10
122.548
20
-107.202
11
122.766
21
-107.462
0
LINE
8
BLACK
6
CONTINUOUS
10
122.766
20
-107.462
11
122.882
21
-107.78
0
LINE
8
BLACK
6
CONTINUOUS
10
122.882
20
-107.78
11
122.882
21
-108.12
0
LINE
8
BLACK
6
CONTINUOUS
10
122.882
20
-108.12
11
122.766
21
-108.438
0
LINE
8
BLACK
6
CONTINUOUS
10
122.766
20
-108.438
11
122.548
21
-108.698
0
LINE
8
BLACK
6
CONTINUOUS
10
122.548
20
-108.698
11
122.254
21
-108.868
0
LINE
8
BLACK
6
CONTINUOUS
10
122.254
20
-108.868
11
121.92
21
-108.927
0
LINE
8
BLACK
6
CONTINUOUS
10
121.92
20
-108.927
11
121.586
21
-108.868
0
LINE
8
BLACK
6
CONTINUOUS
10
121.586
20
-108.868
11
121.292
21
-108.698
0
LINE
8
BLACK
6
CONTINUOUS
10
121.292
20
-108.698
11
121.074
21
-108.438
0
LINE
8
BLACK
6
CONTINUOUS
10
121.074
20
-108.438
11
120.958
21
-108.12
0
LINE
8
BLACK
6
CONTINUOUS
10
120.958
20
-108.12
11
120.958
21
-107.78
0
LINE
8
BLACK
6
CONTINUOUS
10
120.958
20
-107.78
11
121.074
21
-107.462
0
LINE
8
BLACK
6
CONTINUOUS
10
121.074
20
-107.462
11
121.292
21
-107.202
0
LINE
8
BLACK
6
CONTINUOUS
10
121.292
20
-107.202
11
121.586
21
-107.032
0
LINE
8
BLACK
6
CONTINUOUS
10
121.586
20
-107.032
11
121.92
21
-106.973
0
LINE
8
BLACK
6
CONTINUOUS
10
121.92
20
-106.973
11
122.254
21
-107.032
0
LINE
8
BLACK
6
CONTINUOUS
10
124.794
20
-107.032
11
125.088
21
-107.202
0
LINE
8
BLACK
6
CONTINUOUS
10
125.088
20
-107.202
11
125.306
21
-107.462
0
LINE
8
BLACK
6
CONTINUOUS
10
125.306
20
-107.462
11
125.422
21
-107.78
0
LINE
8
BLACK
6
CONTINUOUS
10
125.422
20
-107.78
11
125.422
21
-108.12
0
LINE
8
BLACK
6
CONTINUOUS
10
125.422
20
-108.12
11
125.306
21
-108.438
0
LINE
8
BLACK
6
CONTINUOUS
10
125.306
20
-108.438
11
125.088
21
-108.698
0
LINE
8
BLACK
6
CONTINUOUS
10
125.088
20
-108.698
11
124.794
21
-108.868
0
LINE
8
BLACK
6
CONTINUOUS
10
124.794
20
-108.868
11
124.46
21
-108.927
0
LINE
8
BLACK
6
CONTINUOUS
10
124.46
20
-108.927
11
124.126
21
-108.868
0
LINE
8
BLACK
6
CONTINUOUS
10
124.126
20
-108.868
11
123.832
21
-108.698
0
LINE
8
BLACK
6
CONTINUOUS
10
123.832
20
-108.698
11
123.614
21
-108.438
0
LINE
8
BLACK
6
CONTINUOUS
10
123.614
20
-108.438
11
123.498
21
-108.12
0
LINE
8
BLACK
6
CONTINUOUS
10
123.498
20
-108.12
11
123.498
21
-107.78
0
LINE
8
BLACK
6
CONTINUOUS
10
123.498
20
-107.78
11
123.614
21
-107.462
0
LINE
8
BLACK
6
CONTINUOUS
10
123.614
20
-107.462
11
123.832
21
-107.202
0
LINE
8
BLACK
6
CONTINUOUS
10
123.832
20
-107.202
11
124.126
21
-107.032
0
LINE
8
BLACK
6
CONTINUOUS
10
124.126
20
-107.032
11
124.46
21
-106.973
0
LINE
8
BLACK
6
CONTINUOUS
10
124.46
20
-106.973
11
124.794
21
-107.032
0
LINE
8
BLACK
6
CONTINUOUS
10
107.014
20
-107.032
11
107.308
21
-107.202
0
LINE
8
BLACK
6
CONTINUOUS
10
107.308
20
-107.202
11
107.526
21
-107.462
0
LINE
8
BLACK
6
CONTINUOUS
10
107.526
20
-107.462
11
107.642
21
-107.78
0
LINE
8
BLACK
6
CONTINUOUS
10
107.642
20
-107.78
11
107.642
21
-108.12
0
LINE
8
BLACK
6
CONTINUOUS
10
107.642
20
-108.12
11
107.526
21
-108.438
0
LINE
8
BLACK
6
CONTINUOUS
10
107.526
20
-108.438
11
107.308
21
-108.698
0
LINE
8
BLACK
6
CONTINUOUS
10
107.308
20
-108.698
11
107.014
21
-108.868
0
LINE
8
BLACK
6
CONTINUOUS
10
107.014
20
-108.868
11
106.68
21
-108.927
0
LINE
8
BLACK
6
CONTINUOUS
10
106.68
20
-108.927
11
106.346
21
-108.868
0
LINE
8
BLACK
6
CONTINUOUS
10
106.346
20
-108.868
11
106.052
21
-108.698
0
LINE
8
BLACK
6
CONTINUOUS
10
106.052
20
-108.698
11
105.834
21
-108.438
0
LINE
8
BLACK
6
CONTINUOUS
10
105.834
20
-108.438
11
105.718
21
-108.12
0
LINE
8
BLACK
6
CONTINUOUS
10
105.718
20
-108.12
11
105.718
21
-107.78
0
LINE
8
BLACK
6
CONTINUOUS
10
105.718
20
-107.78
11
105.834
21
-107.462
0
LINE
8
BLACK
6
CONTINUOUS
10
105.834
20
-107.462
11
106.052
21
-107.202
0
LINE
8
BLACK
6
CONTINUOUS
10
106.052
20
-107.202
11
106.346
21
-107.032
0
LINE
8
BLACK
6
CONTINUOUS
10
106.346
20
-107.032
11
106.68
21
-106.973
0
LINE
8
BLACK
6
CONTINUOUS
10
106.68
20
-106.973
11
107.014
21
-107.032
0
LINE
8
BLACK
6
CONTINUOUS
10
109.554
20
-107.032
11
109.848
21
-107.202
0
LINE
8
BLACK
6
CONTINUOUS
10
109.848
20
-107.202
11
110.066
21
-107.462
0
LINE
8
BLACK
6
CONTINUOUS
10
110.066
20
-107.462
11
110.182
21
-107.78
0
LINE
8
BLACK
6
CONTINUOUS
10
110.182
20
-107.78
11
110.182
21
-108.12
0
LINE
8
BLACK
6
CONTINUOUS
10
110.182
20
-108.12
11
110.066
21
-108.438
0
LINE
8
BLACK
6
CONTINUOUS
10
110.066
20
-108.438
11
109.848
21
-108.698
0
LINE
8
BLACK
6
CONTINUOUS
10
109.848
20
-108.698
11
109.554
21
-108.868
0
LINE
8
BLACK
6
CONTINUOUS
10
109.554
20
-108.868
11
109.22
21
-108.927
0
LINE
8
BLACK
6
CONTINUOUS
10
109.22
20
-108.927
11
108.886
21
-108.868
0
LINE
8
BLACK
6
CONTINUOUS
10
108.886
20
-108.868
11
108.592
21
-108.698
0
LINE
8
BLACK
6
CONTINUOUS
10
108.592
20
-108.698
11
108.374
21
-108.438
0
LINE
8
BLACK
6
CONTINUOUS
10
108.374
20
-108.438
11
108.258
21
-108.12
0
LINE
8
BLACK
6
CONTINUOUS
10
108.258
20
-108.12
11
108.258
21
-107.78
0
LINE
8
BLACK
6
CONTINUOUS
10
108.258
20
-107.78
11
108.374
21
-107.462
0
LINE
8
BLACK
6
CONTINUOUS
10
108.374
20
-107.462
11
108.592
21
-107.202
0
LINE
8
BLACK
6
CONTINUOUS
10
108.592
20
-107.202
11
108.886
21
-107.032
0
LINE
8
BLACK
6
CONTINUOUS
10
108.886
20
-107.032
11
109.22
21
-106.973
0
LINE
8
BLACK
6
CONTINUOUS
10
109.22
20
-106.973
11
109.554
21
-107.032
0
LINE
8
BLACK
6
CONTINUOUS
10
112.094
20
-107.032
11
112.388
21
-107.202
0
LINE
8
BLACK
6
CONTINUOUS
10
112.388
20
-107.202
11
112.606
21
-107.462
0
LINE
8
BLACK
6
CONTINUOUS
10
112.606
20
-107.462
11
112.722
21
-107.78
0
LINE
8
BLACK
6
CONTINUOUS
10
112.722
20
-107.78
11
112.722
21
-108.12
0
LINE
8
BLACK
6
CONTINUOUS
10
112.722
20
-108.12
11
112.606
21
-108.438
0
LINE
8
BLACK
6
CONTINUOUS
10
112.606
20
-108.438
11
112.388
21
-108.698
0
LINE
8
BLACK
6
CONTINUOUS
10
112.388
20
-108.698
11
112.094
21
-108.868
0
LINE
8
BLACK
6
CONTINUOUS
10
112.094
20
-108.868
11
111.76
21
-108.927
0
LINE
8
BLACK
6
CONTINUOUS
10
111.76
20
-108.927
11
111.426
21
-108.868
0
LINE
8
BLACK
6
CONTINUOUS
10
111.426
20
-108.868
11
111.132
21
-108.698
0
LINE
8
BLACK
6
CONTINUOUS
10
111.132
20
-108.698
11
110.914
21
-108.438
0
LINE
8
BLACK
6
CONTINUOUS
10
110.914
20
-108.438
11
110.798
21
-108.12
0
LINE
8
BLACK
6
CONTINUOUS
10
110.798
20
-108.12
11
110.798
21
-107.78
0
LINE
8
BLACK
6
CONTINUOUS
10
110.798
20
-107.78
11
110.914
21
-107.462
0
LINE
8
BLACK
6
CONTINUOUS
10
110.914
20
-107.462
11
111.132
21
-107.202
0
LINE
8
BLACK
6
CONTINUOUS
10
111.132
20
-107.202
11
111.426
21
-107.032
0
LINE
8
BLACK
6
CONTINUOUS
10
111.426
20
-107.032
11
111.76
21
-106.973
0
LINE
8
BLACK
6
CONTINUOUS
10
111.76
20
-106.973
11
112.094
21
-107.032
0
LINE
8
BLACK
6
CONTINUOUS
10
159.084
20
-106.27
11
159.378
21
-106.44
0
LINE
8
BLACK
6
CONTINUOUS
10
159.378
20
-106.44
11
159.596
21
-106.7
0
LINE
8
BLACK
6
CONTINUOUS
10
159.596
20
-106.7
11
159.712
21
-107.018
0
LINE
8
BLACK
6
CONTINUOUS
10
159.712
20
-107.018
11
159.712
21
-107.358
0
LINE
8
BLACK
6
CONTINUOUS
10
159.712
20
-107.358
11
159.596
21
-107.676
0
LINE
8
BLACK
6
CONTINUOUS
10
159.596
20
-107.676
11
159.378
21
-107.936
0
LINE
8
BLACK
6
CONTINUOUS
10
159.378
20
-107.936
11
159.084
21
-108.106
0
LINE
8
BLACK
6
CONTINUOUS
10
159.084
20
-108.106
11
158.75
21
-108.165
0
LINE
8
BLACK
6
CONTINUOUS
10
158.75
20
-108.165
11
158.416
21
-108.106
0
LINE
8
BLACK
6
CONTINUOUS
10
158.416
20
-108.106
11
158.122
21
-107.936
0
LINE
8
BLACK
6
CONTINUOUS
10
158.122
20
-107.936
11
157.904
21
-107.676
0
LINE
8
BLACK
6
CONTINUOUS
10
157.904
20
-107.676
11
157.788
21
-107.358
0
LINE
8
BLACK
6
CONTINUOUS
10
157.788
20
-107.358
11
157.788
21
-107.018
0
LINE
8
BLACK
6
CONTINUOUS
10
157.788
20
-107.018
11
157.904
21
-106.7
0
LINE
8
BLACK
6
CONTINUOUS
10
157.904
20
-106.7
11
158.122
21
-106.44
0
LINE
8
BLACK
6
CONTINUOUS
10
158.122
20
-106.44
11
158.416
21
-106.27
0
LINE
8
BLACK
6
CONTINUOUS
10
158.416
20
-106.27
11
158.75
21
-106.211
0
LINE
8
BLACK
6
CONTINUOUS
10
158.75
20
-106.211
11
159.084
21
-106.27
0
LINE
8
BLACK
6
CONTINUOUS
10
159.084
20
-103.73
11
159.378
21
-103.9
0
LINE
8
BLACK
6
CONTINUOUS
10
159.378
20
-103.9
11
159.596
21
-104.16
0
LINE
8
BLACK
6
CONTINUOUS
10
159.596
20
-104.16
11
159.712
21
-104.478
0
LINE
8
BLACK
6
CONTINUOUS
10
159.712
20
-104.478
11
159.712
21
-104.818
0
LINE
8
BLACK
6
CONTINUOUS
10
159.712
20
-104.818
11
159.596
21
-105.136
0
LINE
8
BLACK
6
CONTINUOUS
10
159.596
20
-105.136
11
159.378
21
-105.396
0
LINE
8
BLACK
6
CONTINUOUS
10
159.378
20
-105.396
11
159.084
21
-105.566
0
LINE
8
BLACK
6
CONTINUOUS
10
159.084
20
-105.566
11
158.75
21
-105.625
0
LINE
8
BLACK
6
CONTINUOUS
10
158.75
20
-105.625
11
158.416
21
-105.566
0
LINE
8
BLACK
6
CONTINUOUS
10
158.416
20
-105.566
11
158.122
21
-105.396
0
LINE
8
BLACK
6
CONTINUOUS
10
158.122
20
-105.396
11
157.904
21
-105.136
0
LINE
8
BLACK
6
CONTINUOUS
10
157.904
20
-105.136
11
157.788
21
-104.818
0
LINE
8
BLACK
6
CONTINUOUS
10
157.788
20
-104.818
11
157.788
21
-104.478
0
LINE
8
BLACK
6
CONTINUOUS
10
157.788
20
-104.478
11
157.904
21
-104.16
0
LINE
8
BLACK
6
CONTINUOUS
10
157.904
20
-104.16
11
158.122
21
-103.9
0
LINE
8
BLACK
6
CONTINUOUS
10
158.122
20
-103.9
11
158.416
21
-103.73
0
LINE
8
BLACK
6
CONTINUOUS
10
158.416
20
-103.73
11
158.75
21
-103.671
0
LINE
8
BLACK
6
CONTINUOUS
10
158.75
20
-103.671
11
159.084
21
-103.73
0
LINE
8
BLACK
6
CONTINUOUS
10
159.084
20
-101.19
11
159.378
21
-101.36
0
LINE
8
BLACK
6
CONTINUOUS
10
159.378
20
-101.36
11
159.596
21
-101.62
0
LINE
8
BLACK
6
CONTINUOUS
10
159.596
20
-101.62
11
159.712
21
-101.938
0
LINE
8
BLACK
6
CONTINUOUS
10
159.712
20
-101.938
11
159.712
21
-102.278
0
LINE
8
BLACK
6
CONTINUOUS
10
159.712
20
-102.278
11
159.596
21
-102.596
0
LINE
8
BLACK
6
CONTINUOUS
10
159.596
20
-102.596
11
159.378
21
-102.856
0
LINE
8
BLACK
6
CONTINUOUS
10
159.378
20
-102.856
11
159.084
21
-103.026
0
LINE
8
BLACK
6
CONTINUOUS
10
159.084
20
-103.026
11
158.75
21
-103.085
0
LINE
8
BLACK
6
CONTINUOUS
10
158.75
20
-103.085
11
158.416
21
-103.026
0
LINE
8
BLACK
6
CONTINUOUS
10
158.416
20
-103.026
11
158.122
21
-102.856
0
LINE
8
BLACK
6
CONTINUOUS
10
158.122
20
-102.856
11
157.904
21
-102.596
0
LINE
8
BLACK
6
CONTINUOUS
10
157.904
20
-102.596
11
157.788
21
-102.278
0
LINE
8
BLACK
6
CONTINUOUS
10
157.788
20
-102.278
11
157.788
21
-101.938
0
LINE
8
BLACK
6
CONTINUOUS
10
157.788
20
-101.938
11
157.904
21
-101.62
0
LINE
8
BLACK
6
CONTINUOUS
10
157.904
20
-101.62
11
158.122
21
-101.36
0
LINE
8
BLACK
6
CONTINUOUS
10
158.122
20
-101.36
11
158.416
21
-101.19
0
LINE
8
BLACK
6
CONTINUOUS
10
158.416
20
-101.19
11
158.75
21
-101.131
0
LINE
8
BLACK
6
CONTINUOUS
10
158.75
20
-101.131
11
159.084
21
-101.19
0
LINE
8
BLACK
6
CONTINUOUS
10
107.375
20
-96.7454
11
105.985
21
-96.7454
0
LINE
8
BLACK
6
CONTINUOUS
10
105.985
20
-96.7454
11
105.985
21
-94.5674
0
LINE
8
BLACK
6
CONTINUOUS
10
105.985
20
-94.5674
11
107.375
21
-94.5674
0
LINE
8
BLACK
6
CONTINUOUS
10
107.375
20
-94.5674
11
107.375
21
-96.7454
0
LINE
8
BLACK
6
CONTINUOUS
10
64.1953
20
-96.7454
11
62.8047
21
-96.7454
0
LINE
8
BLACK
6
CONTINUOUS
10
62.8047
20
-96.7454
11
62.8047
21
-94.5674
0
LINE
8
BLACK
6
CONTINUOUS
10
62.8047
20
-94.5674
11
64.1953
21
-94.5674
0
LINE
8
BLACK
6
CONTINUOUS
10
64.1953
20
-94.5674
11
64.1953
21
-96.7454
0
LINE
8
BLACK
6
CONTINUOUS
10
61.6553
20
-96.7454
11
60.2647
21
-96.7454
0
LINE
8
BLACK
6
CONTINUOUS
10
60.2647
20
-96.7454
11
60.2647
21
-94.5674
0
LINE
8
BLACK
6
CONTINUOUS
10
60.2647
20
-94.5674
11
61.6553
21
-94.5674
0
LINE
8
BLACK
6
CONTINUOUS
10
61.6553
20
-94.5674
11
61.6553
21
-96.7454
0
LINE
8
BLACK
6
CONTINUOUS
10
59.1153
20
-96.7454
11
57.7247
21
-96.7454
0
LINE
8
BLACK
6
CONTINUOUS
10
57.7247
20
-96.7454
11
57.7247
21
-94.5674
0
LINE
8
BLACK
6
CONTINUOUS
10
57.7247
20
-94.5674
11
59.1153
21
-94.5674
0
LINE
8
BLACK
6
CONTINUOUS
10
59.1153
20
-94.5674
11
59.1153
21
-96.7454
0
LINE
8
BLACK
6
CONTINUOUS
10
56.5753
20
-96.7454
11
55.1847
21
-96.7454
0
LINE
8
BLACK
6
CONTINUOUS
10
55.1847
20
-96.7454
11
55.1847
21
-94.5674
0
LINE
8
BLACK
6
CONTINUOUS
10
55.1847
20
-94.5674
11
56.5753
21
-94.5674
0
LINE
8
BLACK
6
CONTINUOUS
10
56.5753
20
-94.5674
11
56.5753
21
-96.7454
0
LINE
8
BLACK
6
CONTINUOUS
10
54.0353
20
-96.7454
11
52.6447
21
-96.7454
0
LINE
8
BLACK
6
CONTINUOUS
10
52.6447
20
-96.7454
11
52.6447
21
-94.5674
0
LINE
8
BLACK
6
CONTINUOUS
10
52.6447
20
-94.5674
11
54.0353
21
-94.5674
0
LINE
8
BLACK
6
CONTINUOUS
10
54.0353
20
-94.5674
11
54.0353
21
-96.7454
0
LINE
8
BLACK
6
CONTINUOUS
10
46.4153
20
-96.7454
11
45.0247
21
-96.7454
0
LINE
8
BLACK
6
CONTINUOUS
10
45.0247
20
-96.7454
11
45.0247
21
-94.5674
0
LINE
8
BLACK
6
CONTINUOUS
10
45.0247
20
-94.5674
11
46.4153
21
-94.5674
0
LINE
8
BLACK
6
CONTINUOUS
10
46.4153
20
-94.5674
11
46.4153
21
-96.7454
0
LINE
8
BLACK
6
CONTINUOUS
10
43.8753
20
-96.7454
11
42.4847
21
-96.7454
0
LINE
8
BLACK
6
CONTINUOUS
10
42.4847
20
-96.7454
11
42.4847
21
-94.5674
0
LINE
8
BLACK
6
CONTINUOUS
10
42.4847
20
-94.5674
11
43.8753
21
-94.5674
0
LINE
8
BLACK
6
CONTINUOUS
10
43.8753
20
-94.5674
11
43.8753
21
-96.7454
0
LINE
8
BLACK
6
CONTINUOUS
10
41.3353
20
-96.7454
11
39.9447
21
-96.7454
0
LINE
8
BLACK
6
CONTINUOUS
10
39.9447
20
-96.7454
11
39.9447
21
-94.5674
0
LINE
8
BLACK
6
CONTINUOUS
10
39.9447
20
-94.5674
11
41.3353
21
-94.5674
0
LINE
8
BLACK
6
CONTINUOUS
10
41.3353
20
-94.5674
11
41.3353
21
-96.7454
0
LINE
8
BLACK
6
CONTINUOUS
10
48.9553
20
-96.7454
11
47.5647
21
-96.7454
0
LINE
8
BLACK
6
CONTINUOUS
10
47.5647
20
-96.7454
11
47.5647
21
-94.5674
0
LINE
8
BLACK
6
CONTINUOUS
10
47.5647
20
-94.5674
11
48.9553
21
-94.5674
0
LINE
8
BLACK
6
CONTINUOUS
10
48.9553
20
-94.5674
11
48.9553
21
-96.7454
0
LINE
8
BLACK
6
CONTINUOUS
10
127.695
20
-96.7454
11
126.305
21
-96.7454
0
LINE
8
BLACK
6
CONTINUOUS
10
126.305
20
-96.7454
11
126.305
21
-94.5674
0
LINE
8
BLACK
6
CONTINUOUS
10
126.305
20
-94.5674
11
127.695
21
-94.5674
0
LINE
8
BLACK
6
CONTINUOUS
10
127.695
20
-94.5674
11
127.695
21
-96.7454
0
LINE
8
BLACK
6
CONTINUOUS
10
125.155
20
-96.7454
11
123.765
21
-96.7454
0
LINE
8
BLACK
6
CONTINUOUS
10
123.765
20
-96.7454
11
123.765
21
-94.5674
0
LINE
8
BLACK
6
CONTINUOUS
10
123.765
20
-94.5674
11
125.155
21
-94.5674
0
LINE
8
BLACK
6
CONTINUOUS
10
125.155
20
-94.5674
11
125.155
21
-96.7454
0
LINE
8
BLACK
6
CONTINUOUS
10
122.615
20
-96.7454
11
121.225
21
-96.7454
0
LINE
8
BLACK
6
CONTINUOUS
10
121.225
20
-96.7454
11
121.225
21
-94.5674
0
LINE
8
BLACK
6
CONTINUOUS
10
121.225
20
-94.5674
11
122.615
21
-94.5674
0
LINE
8
BLACK
6
CONTINUOUS
10
122.615
20
-94.5674
11
122.615
21
-96.7454
0
LINE
8
BLACK
6
CONTINUOUS
10
120.075
20
-96.7454
11
118.685
21
-96.7454
0
LINE
8
BLACK
6
CONTINUOUS
10
118.685
20
-96.7454
11
118.685
21
-94.5674
0
LINE
8
BLACK
6
CONTINUOUS
10
118.685
20
-94.5674
11
120.075
21
-94.5674
0
LINE
8
BLACK
6
CONTINUOUS
10
120.075
20
-94.5674
11
120.075
21
-96.7454
0
LINE
8
BLACK
6
CONTINUOUS
10
117.535
20
-96.7454
11
116.145
21
-96.7454
0
LINE
8
BLACK
6
CONTINUOUS
10
116.145
20
-96.7454
11
116.145
21
-94.5674
0
LINE
8
BLACK
6
CONTINUOUS
10
116.145
20
-94.5674
11
117.535
21
-94.5674
0
LINE
8
BLACK
6
CONTINUOUS
10
117.535
20
-94.5674
11
117.535
21
-96.7454
0
LINE
8
BLACK
6
CONTINUOUS
10
114.995
20
-96.7454
11
113.605
21
-96.7454
0
LINE
8
BLACK
6
CONTINUOUS
10
113.605
20
-96.7454
11
113.605
21
-94.5674
0
LINE
8
BLACK
6
CONTINUOUS
10
113.605
20
-94.5674
11
114.995
21
-94.5674
0
LINE
8
BLACK
6
CONTINUOUS
10
114.995
20
-94.5674
11
114.995
21
-96.7454
0
LINE
8
BLACK
6
CONTINUOUS
10
112.455
20
-96.7454
11
111.065
21
-96.7454
0
LINE
8
BLACK
6
CONTINUOUS
10
111.065
20
-96.7454
11
111.065
21
-94.5674
0
LINE
8
BLACK
6
CONTINUOUS
10
111.065
20
-94.5674
11
112.455
21
-94.5674
0
LINE
8
BLACK
6
CONTINUOUS
10
112.455
20
-94.5674
11
112.455
21
-96.7454
0
LINE
8
BLACK
6
CONTINUOUS
10
109.915
20
-96.7454
11
108.525
21
-96.7454
0
LINE
8
BLACK
6
CONTINUOUS
10
108.525
20
-96.7454
11
108.525
21
-94.5674
0
LINE
8
BLACK
6
CONTINUOUS
10
108.525
20
-94.5674
11
109.915
21
-94.5674
0
LINE
8
BLACK
6
CONTINUOUS
10
109.915
20
-94.5674
11
109.915
21
-96.7454
0
LINE
8
BLACK
6
CONTINUOUS
10
51.4953
20
-96.7454
11
50.1047
21
-96.7454
0
LINE
8
BLACK
6
CONTINUOUS
10
50.1047
20
-96.7454
11
50.1047
21
-94.5674
0
LINE
8
BLACK
6
CONTINUOUS
10
50.1047
20
-94.5674
11
51.4953
21
-94.5674
0
LINE
8
BLACK
6
CONTINUOUS
10
51.4953
20
-94.5674
11
51.4953
21
-96.7454
0
LINE
8
BLACK
6
CONTINUOUS
10
104.835
20
-96.7454
11
103.445
21
-96.7454
0
LINE
8
BLACK
6
CONTINUOUS
10
103.445
20
-96.7454
11
103.445
21
-94.5674
0
LINE
8
BLACK
6
CONTINUOUS
10
103.445
20
-94.5674
11
104.835
21
-94.5674
0
LINE
8
BLACK
6
CONTINUOUS
10
104.835
20
-94.5674
11
104.835
21
-96.7454
0
LINE
8
BLACK
6
CONTINUOUS
10
104.835
20
-90.8526
11
103.445
21
-90.8526
0
LINE
8
BLACK
6
CONTINUOUS
10
103.445
20
-90.8526
11
103.445
21
-88.6746
0
LINE
8
BLACK
6
CONTINUOUS
10
103.445
20
-88.6746
11
104.835
21
-88.6746
0
LINE
8
BLACK
6
CONTINUOUS
10
104.835
20
-88.6746
11
104.835
21
-90.8526
0
LINE
8
BLACK
6
CONTINUOUS
10
107.375
20
-90.8526
11
105.985
21
-90.8526
0
LINE
8
BLACK
6
CONTINUOUS
10
105.985
20
-90.8526
11
105.985
21
-88.6746
0
LINE
8
BLACK
6
CONTINUOUS
10
105.985
20
-88.6746
11
107.375
21
-88.6746
0
LINE
8
BLACK
6
CONTINUOUS
10
107.375
20
-88.6746
11
107.375
21
-90.8526
0
LINE
8
BLACK
6
CONTINUOUS
10
109.915
20
-90.8526
11
108.525
21
-90.8526
0
LINE
8
BLACK
6
CONTINUOUS
10
108.525
20
-90.8526
11
108.525
21
-88.6746
0
LINE
8
BLACK
6
CONTINUOUS
10
108.525
20
-88.6746
11
109.915
21
-88.6746
0
LINE
8
BLACK
6
CONTINUOUS
10
109.915
20
-88.6746
11
109.915
21
-90.8526
0
LINE
8
BLACK
6
CONTINUOUS
10
122.615
20
-90.8526
11
121.225
21
-90.8526
0
LINE
8
BLACK
6
CONTINUOUS
10
121.225
20
-90.8526
11
121.225
21
-88.6746
0
LINE
8
BLACK
6
CONTINUOUS
10
121.225
20
-88.6746
11
122.615
21
-88.6746
0
LINE
8
BLACK
6
CONTINUOUS
10
122.615
20
-88.6746
11
122.615
21
-90.8526
0
LINE
8
BLACK
6
CONTINUOUS
10
64.1953
20
-90.8526
11
62.8047
21
-90.8526
0
LINE
8
BLACK
6
CONTINUOUS
10
62.8047
20
-90.8526
11
62.8047
21
-88.6746
0
LINE
8
BLACK
6
CONTINUOUS
10
62.8047
20
-88.6746
11
64.1953
21
-88.6746
0
LINE
8
BLACK
6
CONTINUOUS
10
64.1953
20
-88.6746
11
64.1953
21
-90.8526
0
LINE
8
BLACK
6
CONTINUOUS
10
61.6553
20
-90.8526
11
60.2647
21
-90.8526
0
LINE
8
BLACK
6
CONTINUOUS
10
60.2647
20
-90.8526
11
60.2647
21
-88.6746
0
LINE
8
BLACK
6
CONTINUOUS
10
60.2647
20
-88.6746
11
61.6553
21
-88.6746
0
LINE
8
BLACK
6
CONTINUOUS
10
61.6553
20
-88.6746
11
61.6553
21
-90.8526
0
LINE
8
BLACK
6
CONTINUOUS
10
56.5753
20
-90.8526
11
55.1847
21
-90.8526
0
LINE
8
BLACK
6
CONTINUOUS
10
55.1847
20
-90.8526
11
55.1847
21
-88.6746
0
LINE
8
BLACK
6
CONTINUOUS
10
55.1847
20
-88.6746
11
56.5753
21
-88.6746
0
LINE
8
BLACK
6
CONTINUOUS
10
56.5753
20
-88.6746
11
56.5753
21
-90.8526
0
LINE
8
BLACK
6
CONTINUOUS
10
120.075
20
-90.8526
11
118.685
21
-90.8526
0
LINE
8
BLACK
6
CONTINUOUS
10
118.685
20
-90.8526
11
118.685
21
-88.6746
0
LINE
8
BLACK
6
CONTINUOUS
10
118.685
20
-88.6746
11
120.075
21
-88.6746
0
LINE
8
BLACK
6
CONTINUOUS
10
120.075
20
-88.6746
11
120.075
21
-90.8526
0
LINE
8
BLACK
6
CONTINUOUS
10
117.535
20
-90.8526
11
116.145
21
-90.8526
0
LINE
8
BLACK
6
CONTINUOUS
10
116.145
20
-90.8526
11
116.145
21
-88.6746
0
LINE
8
BLACK
6
CONTINUOUS
10
116.145
20
-88.6746
11
117.535
21
-88.6746
0
LINE
8
BLACK
6
CONTINUOUS
10
117.535
20
-88.6746
11
117.535
21
-90.8526
0
LINE
8
BLACK
6
CONTINUOUS
10
125.155
20
-90.8526
11
123.765
21
-90.8526
0
LINE
8
BLACK
6
CONTINUOUS
10
123.765
20
-90.8526
11
123.765
21
-88.6746
0
LINE
8
BLACK
6
CONTINUOUS
10
123.765
20
-88.6746
11
125.155
21
-88.6746
0
LINE
8
BLACK
6
CONTINUOUS
10
125.155
20
-88.6746
11
125.155
21
-90.8526
0
LINE
8
BLACK
6
CONTINUOUS
10
127.695
20
-90.8526
11
126.305
21
-90.8526
0
LINE
8
BLACK
6
CONTINUOUS
10
126.305
20
-90.8526
11
126.305
21
-88.6746
0
LINE
8
BLACK
6
CONTINUOUS
10
126.305
20
-88.6746
11
127.695
21
-88.6746
0
LINE
8
BLACK
6
CONTINUOUS
10
127.695
20
-88.6746
11
127.695
21
-90.8526
0
LINE
8
BLACK
6
CONTINUOUS
10
114.995
20
-90.8526
11
113.605
21
-90.8526
0
LINE
8
BLACK
6
CONTINUOUS
10
113.605
20
-90.8526
11
113.605
21
-88.6746
0
LINE
8
BLACK
6
CONTINUOUS
10
113.605
20
-88.6746
11
114.995
21
-88.6746
0
LINE
8
BLACK
6
CONTINUOUS
10
114.995
20
-88.6746
11
114.995
21
-90.8526
0
LINE
8
BLACK
6
CONTINUOUS
10
112.455
20
-90.8526
11
111.065
21
-90.8526
0
LINE
8
BLACK
6
CONTINUOUS
10
111.065
20
-90.8526
11
111.065
21
-88.6746
0
LINE
8
BLACK
6
CONTINUOUS
10
111.065
20
-88.6746
11
112.455
21
-88.6746
0
LINE
8
BLACK
6
CONTINUOUS
10
112.455
20
-88.6746
11
112.455
21
-90.8526
0
LINE
8
BLACK
6
CONTINUOUS
10
41.3353
20
-90.8526
11
39.9447
21
-90.8526
0
LINE
8
BLACK
6
CONTINUOUS
10
39.9447
20
-90.8526
11
39.9447
21
-88.6746
0
LINE
8
BLACK
6
CONTINUOUS
10
39.9447
20
-88.6746
11
41.3353
21
-88.6746
0
LINE
8
BLACK
6
CONTINUOUS
10
41.3353
20
-88.6746
11
41.3353
21
-90.8526
0
LINE
8
BLACK
6
CONTINUOUS
10
43.8753
20
-90.8526
11
42.4847
21
-90.8526
0
LINE
8
BLACK
6
CONTINUOUS
10
42.4847
20
-90.8526
11
42.4847
21
-88.6746
0
LINE
8
BLACK
6
CONTINUOUS
10
42.4847
20
-88.6746
11
43.8753
21
-88.6746
0
LINE
8
BLACK
6
CONTINUOUS
10
43.8753
20
-88.6746
11
43.8753
21
-90.8526
0
LINE
8
BLACK
6
CONTINUOUS
10
46.4153
20
-90.8526
11
45.0247
21
-90.8526
0
LINE
8
BLACK
6
CONTINUOUS
10
45.0247
20
-90.8526
11
45.0247
21
-88.6746
0
LINE
8
BLACK
6
CONTINUOUS
10
45.0247
20
-88.6746
11
46.4153
21
-88.6746
0
LINE
8
BLACK
6
CONTINUOUS
10
46.4153
20
-88.6746
11
46.4153
21
-90.8526
0
LINE
8
BLACK
6
CONTINUOUS
10
48.9553
20
-90.8526
11
47.5647
21
-90.8526
0
LINE
8
BLACK
6
CONTINUOUS
10
47.5647
20
-90.8526
11
47.5647
21
-88.6746
0
LINE
8
BLACK
6
CONTINUOUS
10
47.5647
20
-88.6746
11
48.9553
21
-88.6746
0
LINE
8
BLACK
6
CONTINUOUS
10
48.9553
20
-88.6746
11
48.9553
21
-90.8526
0
LINE
8
BLACK
6
CONTINUOUS
10
51.4953
20
-90.8526
11
50.1047
21
-90.8526
0
LINE
8
BLACK
6
CONTINUOUS
10
50.1047
20
-90.8526
11
50.1047
21
-88.6746
0
LINE
8
BLACK
6
CONTINUOUS
10
50.1047
20
-88.6746
11
51.4953
21
-88.6746
0
LINE
8
BLACK
6
CONTINUOUS
10
51.4953
20
-88.6746
11
51.4953
21
-90.8526
0
LINE
8
BLACK
6
CONTINUOUS
10
54.0353
20
-90.8526
11
52.6447
21
-90.8526
0
LINE
8
BLACK
6
CONTINUOUS
10
52.6447
20
-90.8526
11
52.6447
21
-88.6746
0
LINE
8
BLACK
6
CONTINUOUS
10
52.6447
20
-88.6746
11
54.0353
21
-88.6746
0
LINE
8
BLACK
6
CONTINUOUS
10
54.0353
20
-88.6746
11
54.0353
21
-90.8526
0
LINE
8
BLACK
6
CONTINUOUS
10
59.1153
20
-90.8526
11
57.7247
21
-90.8526
0
LINE
8
BLACK
6
CONTINUOUS
10
57.7247
20
-90.8526
11
57.7247
21
-88.6746
0
LINE
8
BLACK
6
CONTINUOUS
10
57.7247
20
-88.6746
11
59.1153
21
-88.6746
0
LINE
8
BLACK
6
CONTINUOUS
10
59.1153
20
-88.6746
11
59.1153
21
-90.8526
0
LINE
8
BLACK
6
CONTINUOUS
10
115.904
20
-79.4731
11
116.198
21
-79.6427
0
LINE
8
BLACK
6
CONTINUOUS
10
116.198
20
-79.6427
11
116.416
21
-79.9026
0
LINE
8
BLACK
6
CONTINUOUS
10
116.416
20
-79.9026
11
116.532
21
-80.2214
0
LINE
8
BLACK
6
CONTINUOUS
10
116.532
20
-80.2214
11
116.532
21
-80.5606
0
LINE
8
BLACK
6
CONTINUOUS
10
116.532
20
-80.5606
11
116.416
21
-80.8794
0
LINE
8
BLACK
6
CONTINUOUS
10
116.416
20
-80.8794
11
116.198
21
-81.1393
0
LINE
8
BLACK
6
CONTINUOUS
10
116.198
20
-81.1393
11
115.904
21
-81.3089
0
LINE
8
BLACK
6
CONTINUOUS
10
115.904
20
-81.3089
11
115.57
21
-81.3678
0
LINE
8
BLACK
6
CONTINUOUS
10
115.57
20
-81.3678
11
115.236
21
-81.3089
0
LINE
8
BLACK
6
CONTINUOUS
10
115.236
20
-81.3089
11
114.942
21
-81.1393
0
LINE
8
BLACK
6
CONTINUOUS
10
114.942
20
-81.1393
11
114.724
21
-80.8794
0
LINE
8
BLACK
6
CONTINUOUS
10
114.724
20
-80.8794
11
114.608
21
-80.5606
0
LINE
8
BLACK
6
CONTINUOUS
10
114.608
20
-80.5606
11
114.608
21
-80.2214
0
LINE
8
BLACK
6
CONTINUOUS
10
114.608
20
-80.2214
11
114.724
21
-79.9026
0
LINE
8
BLACK
6
CONTINUOUS
10
114.724
20
-79.9026
11
114.942
21
-79.6427
0
LINE
8
BLACK
6
CONTINUOUS
10
114.942
20
-79.6427
11
115.236
21
-79.4731
0
LINE
8
BLACK
6
CONTINUOUS
10
115.236
20
-79.4731
11
115.57
21
-79.4142
0
LINE
8
BLACK
6
CONTINUOUS
10
115.57
20
-79.4142
11
115.904
21
-79.4731
0
LINE
8
BLACK
6
CONTINUOUS
10
113.364
20
-79.4731
11
113.658
21
-79.6427
0
LINE
8
BLACK
6
CONTINUOUS
10
113.658
20
-79.6427
11
113.876
21
-79.9026
0
LINE
8
BLACK
6
CONTINUOUS
10
113.876
20
-79.9026
11
113.992
21
-80.2214
0
LINE
8
BLACK
6
CONTINUOUS
10
113.992
20
-80.2214
11
113.992
21
-80.5606
0
LINE
8
BLACK
6
CONTINUOUS
10
113.992
20
-80.5606
11
113.876
21
-80.8794
0
LINE
8
BLACK
6
CONTINUOUS
10
113.876
20
-80.8794
11
113.658
21
-81.1393
0
LINE
8
BLACK
6
CONTINUOUS
10
113.658
20
-81.1393
11
113.364
21
-81.3089
0
LINE
8
BLACK
6
CONTINUOUS
10
113.364
20
-81.3089
11
113.03
21
-81.3678
0
LINE
8
BLACK
6
CONTINUOUS
10
113.03
20
-81.3678
11
112.696
21
-81.3089
0
LINE
8
BLACK
6
CONTINUOUS
10
112.696
20
-81.3089
11
112.402
21
-81.1393
0
LINE
8
BLACK
6
CONTINUOUS
10
112.402
20
-81.1393
11
112.184
21
-80.8794
0
LINE
8
BLACK
6
CONTINUOUS
10
112.184
20
-80.8794
11
112.068
21
-80.5606
0
LINE
8
BLACK
6
CONTINUOUS
10
112.068
20
-80.5606
11
112.068
21
-80.2214
0
LINE
8
BLACK
6
CONTINUOUS
10
112.068
20
-80.2214
11
112.184
21
-79.9026
0
LINE
8
BLACK
6
CONTINUOUS
10
112.184
20
-79.9026
11
112.402
21
-79.6427
0
LINE
8
BLACK
6
CONTINUOUS
10
112.402
20
-79.6427
11
112.696
21
-79.4731
0
LINE
8
BLACK
6
CONTINUOUS
10
112.696
20
-79.4731
11
113.03
21
-79.4142
0
LINE
8
BLACK
6
CONTINUOUS
10
113.03
20
-79.4142
11
113.364
21
-79.4731
0
LINE
8
BLACK
6
CONTINUOUS
10
110.824
20
-79.4731
11
111.118
21
-79.6427
0
LINE
8
BLACK
6
CONTINUOUS
10
111.118
20
-79.6427
11
111.336
21
-79.9026
0
LINE
8
BLACK
6
CONTINUOUS
10
111.336
20
-79.9026
11
111.452
21
-80.2214
0
LINE
8
BLACK
6
CONTINUOUS
10
111.452
20
-80.2214
11
111.452
21
-80.5606
0
LINE
8
BLACK
6
CONTINUOUS
10
111.452
20
-80.5606
11
111.336
21
-80.8794
0
LINE
8
BLACK
6
CONTINUOUS
10
111.336
20
-80.8794
11
111.118
21
-81.1393
0
LINE
8
BLACK
6
CONTINUOUS
10
111.118
20
-81.1393
11
110.824
21
-81.3089
0
LINE
8
BLACK
6
CONTINUOUS
10
110.824
20
-81.3089
11
110.49
21
-81.3678
0
LINE
8
BLACK
6
CONTINUOUS
10
110.49
20
-81.3678
11
110.156
21
-81.3089
0
LINE
8
BLACK
6
CONTINUOUS
10
110.156
20
-81.3089
11
109.862
21
-81.1393
0
LINE
8
BLACK
6
CONTINUOUS
10
109.862
20
-81.1393
11
109.644
21
-80.8794
0
LINE
8
BLACK
6
CONTINUOUS
10
109.644
20
-80.8794
11
109.528
21
-80.5606
0
LINE
8
BLACK
6
CONTINUOUS
10
109.528
20
-80.5606
11
109.528
21
-80.2214
0
LINE
8
BLACK
6
CONTINUOUS
10
109.528
20
-80.2214
11
109.644
21
-79.9026
0
LINE
8
BLACK
6
CONTINUOUS
10
109.644
20
-79.9026
11
109.862
21
-79.6427
0
LINE
8
BLACK
6
CONTINUOUS
10
109.862
20
-79.6427
11
110.156
21
-79.4731
0
LINE
8
BLACK
6
CONTINUOUS
10
110.156
20
-79.4731
11
110.49
21
-79.4142
0
LINE
8
BLACK
6
CONTINUOUS
10
110.49
20
-79.4142
11
110.824
21
-79.4731
0
LINE
8
BLACK
6
CONTINUOUS
10
99.7751
20
-79.4731
11
100.069
21
-79.6427
0
LINE
8
BLACK
6
CONTINUOUS
10
100.069
20
-79.6427
11
100.287
21
-79.9026
0
LINE
8
BLACK
6
CONTINUOUS
10
100.287
20
-79.9026
11
100.403
21
-80.2214
0
LINE
8
BLACK
6
CONTINUOUS
10
100.403
20
-80.2214
11
100.403
21
-80.5606
0
LINE
8
BLACK
6
CONTINUOUS
10
100.403
20
-80.5606
11
100.287
21
-80.8794
0
LINE
8
BLACK
6
CONTINUOUS
10
100.287
20
-80.8794
11
100.069
21
-81.1393
0
LINE
8
BLACK
6
CONTINUOUS
10
100.069
20
-81.1393
11
99.7751
21
-81.3089
0
LINE
8
BLACK
6
CONTINUOUS
10
99.7751
20
-81.3089
11
99.441
21
-81.3678
0
LINE
8
BLACK
6
CONTINUOUS
10
99.441
20
-81.3678
11
99.1069
21
-81.3089
0
LINE
8
BLACK
6
CONTINUOUS
10
99.1069
20
-81.3089
11
98.8131
21
-81.1393
0
LINE
8
BLACK
6
CONTINUOUS
10
98.8131
20
-81.1393
11
98.595
21
-80.8794
0
LINE
8
BLACK
6
CONTINUOUS
10
98.595
20
-80.8794
11
98.479
21
-80.5606
0
LINE
8
BLACK
6
CONTINUOUS
10
98.479
20
-80.5606
11
98.479
21
-80.2214
0
LINE
8
BLACK
6
CONTINUOUS
10
98.479
20
-80.2214
11
98.595
21
-79.9026
0
LINE
8
BLACK
6
CONTINUOUS
10
98.595
20
-79.9026
11
98.8131
21
-79.6427
0
LINE
8
BLACK
6
CONTINUOUS
10
98.8131
20
-79.6427
11
99.1069
21
-79.4731
0
LINE
8
BLACK
6
CONTINUOUS
10
99.1069
20
-79.4731
11
99.441
21
-79.4142
0
LINE
8
BLACK
6
CONTINUOUS
10
99.441
20
-79.4142
11
99.7751
21
-79.4731
0
LINE
8
BLACK
6
CONTINUOUS
10
102.315
20
-79.4731
11
102.609
21
-79.6427
0
LINE
8
BLACK
6
CONTINUOUS
10
102.609
20
-79.6427
11
102.827
21
-79.9026
0
LINE
8
BLACK
6
CONTINUOUS
10
102.827
20
-79.9026
11
102.943
21
-80.2214
0
LINE
8
BLACK
6
CONTINUOUS
10
102.943
20
-80.2214
11
102.943
21
-80.5606
0
LINE
8
BLACK
6
CONTINUOUS
10
102.943
20
-80.5606
11
102.827
21
-80.8794
0
LINE
8
BLACK
6
CONTINUOUS
10
102.827
20
-80.8794
11
102.609
21
-81.1393
0
LINE
8
BLACK
6
CONTINUOUS
10
102.609
20
-81.1393
11
102.315
21
-81.3089
0
LINE
8
BLACK
6
CONTINUOUS
10
102.315
20
-81.3089
11
101.981
21
-81.3678
0
LINE
8
BLACK
6
CONTINUOUS
10
101.981
20
-81.3678
11
101.647
21
-81.3089
0
LINE
8
BLACK
6
CONTINUOUS
10
101.647
20
-81.3089
11
101.353
21
-81.1393
0
LINE
8
BLACK
6
CONTINUOUS
10
101.353
20
-81.1393
11
101.135
21
-80.8794
0
LINE
8
BLACK
6
CONTINUOUS
10
101.135
20
-80.8794
11
101.019
21
-80.5606
0
LINE
8
BLACK
6
CONTINUOUS
10
101.019
20
-80.5606
11
101.019
21
-80.2214
0
LINE
8
BLACK
6
CONTINUOUS
10
101.019
20
-80.2214
11
101.135
21
-79.9026
0
LINE
8
BLACK
6
CONTINUOUS
10
101.135
20
-79.9026
11
101.353
21
-79.6427
0
LINE
8
BLACK
6
CONTINUOUS
10
101.353
20
-79.6427
11
101.647
21
-79.4731
0
LINE
8
BLACK
6
CONTINUOUS
10
101.647
20
-79.4731
11
101.981
21
-79.4142
0
LINE
8
BLACK
6
CONTINUOUS
10
101.981
20
-79.4142
11
102.315
21
-79.4731
0
LINE
8
BLACK
6
CONTINUOUS
10
104.855
20
-79.4731
11
105.149
21
-79.6427
0
LINE
8
BLACK
6
CONTINUOUS
10
105.149
20
-79.6427
11
105.367
21
-79.9026
0
LINE
8
BLACK
6
CONTINUOUS
10
105.367
20
-79.9026
11
105.483
21
-80.2214
0
LINE
8
BLACK
6
CONTINUOUS
10
105.483
20
-80.2214
11
105.483
21
-80.5606
0
LINE
8
BLACK
6
CONTINUOUS
10
105.483
20
-80.5606
11
105.367
21
-80.8794
0
LINE
8
BLACK
6
CONTINUOUS
10
105.367
20
-80.8794
11
105.149
21
-81.1393
0
LINE
8
BLACK
6
CONTINUOUS
10
105.149
20
-81.1393
11
104.855
21
-81.3089
0
LINE
8
BLACK
6
CONTINUOUS
10
104.855
20
-81.3089
11
104.521
21
-81.3678
0
LINE
8
BLACK
6
CONTINUOUS
10
104.521
20
-81.3678
11
104.187
21
-81.3089
0
LINE
8
BLACK
6
CONTINUOUS
10
104.187
20
-81.3089
11
103.893
21
-81.1393
0
LINE
8
BLACK
6
CONTINUOUS
10
103.893
20
-81.1393
11
103.675
21
-80.8794
0
LINE
8
BLACK
6
CONTINUOUS
10
103.675
20
-80.8794
11
103.559
21
-80.5606
0
LINE
8
BLACK
6
CONTINUOUS
10
103.559
20
-80.5606
11
103.559
21
-80.2214
0
LINE
8
BLACK
6
CONTINUOUS
10
103.559
20
-80.2214
11
103.675
21
-79.9026
0
LINE
8
BLACK
6
CONTINUOUS
10
103.675
20
-79.9026
11
103.893
21
-79.6427
0
LINE
8
BLACK
6
CONTINUOUS
10
103.893
20
-79.6427
11
104.187
21
-79.4731
0
LINE
8
BLACK
6
CONTINUOUS
10
104.187
20
-79.4731
11
104.521
21
-79.4142
0
LINE
8
BLACK
6
CONTINUOUS
10
104.521
20
-79.4142
11
104.855
21
-79.4731
0
LINE
8
BLACK
6
CONTINUOUS
10
103.441
20
-60.2505
11
104.277
21
-60.7337
0
LINE
8
BLACK
6
CONTINUOUS
10
104.277
20
-60.7337
11
104.899
21
-61.4739
0
LINE
8
BLACK
6
CONTINUOUS
10
104.899
20
-61.4739
11
105.229
21
-62.3819
0
LINE
8
BLACK
6
CONTINUOUS
10
105.229
20
-62.3819
11
105.229
21
-63.3481
0
LINE
8
BLACK
6
CONTINUOUS
10
105.229
20
-63.3481
11
104.899
21
-64.2561
0
LINE
8
BLACK
6
CONTINUOUS
10
104.899
20
-64.2561
11
104.277
21
-64.9963
0
LINE
8
BLACK
6
CONTINUOUS
10
104.277
20
-64.9963
11
103.441
21
-65.4795
0
LINE
8
BLACK
6
CONTINUOUS
10
103.441
20
-65.4795
11
102.489
21
-65.6473
0
LINE
8
BLACK
6
CONTINUOUS
10
102.489
20
-65.6473
11
101.537
21
-65.4795
0
LINE
8
BLACK
6
CONTINUOUS
10
101.537
20
-65.4795
11
100.701
21
-64.9963
0
LINE
8
BLACK
6
CONTINUOUS
10
100.701
20
-64.9963
11
100.079
21
-64.2561
0
LINE
8
BLACK
6
CONTINUOUS
10
100.079
20
-64.2561
11
99.749
21
-63.3481
0
LINE
8
BLACK
6
CONTINUOUS
10
99.749
20
-63.3481
11
99.749
21
-62.3819
0
LINE
8
BLACK
6
CONTINUOUS
10
99.749
20
-62.3819
11
100.079
21
-61.4739
0
LINE
8
BLACK
6
CONTINUOUS
10
100.079
20
-61.4739
11
100.701
21
-60.7337
0
LINE
8
BLACK
6
CONTINUOUS
10
100.701
20
-60.7337
11
101.537
21
-60.2505
0
LINE
8
BLACK
6
CONTINUOUS
10
101.537
20
-60.2505
11
102.489
21
-60.0827
0
LINE
8
BLACK
6
CONTINUOUS
10
102.489
20
-60.0827
11
103.441
21
-60.2505
0
LINE
8
BLACK
6
CONTINUOUS
10
156.146
20
-60.2505
11
156.982
21
-60.7337
0
LINE
8
BLACK
6
CONTINUOUS
10
156.982
20
-60.7337
11
157.604
21
-61.4739
0
LINE
8
BLACK
6
CONTINUOUS
10
157.604
20
-61.4739
11
157.934
21
-62.3819
0
LINE
8
BLACK
6
CONTINUOUS
10
157.934
20
-62.3819
11
157.934
21
-63.3481
0
LINE
8
BLACK
6
CONTINUOUS
10
157.934
20
-63.3481
11
157.604
21
-64.2561
0
LINE
8
BLACK
6
CONTINUOUS
10
157.604
20
-64.2561
11
156.982
21
-64.9963
0
LINE
8
BLACK
6
CONTINUOUS
10
156.982
20
-64.9963
11
156.146
21
-65.4795
0
LINE
8
BLACK
6
CONTINUOUS
10
156.146
20
-65.4795
11
155.194
21
-65.6473
0
LINE
8
BLACK
6
CONTINUOUS
10
155.194
20
-65.6473
11
154.242
21
-65.4795
0
LINE
8
BLACK
6
CONTINUOUS
10
154.242
20
-65.4795
11
153.406
21
-64.9963
0
LINE
8
BLACK
6
CONTINUOUS
10
153.406
20
-64.9963
11
152.784
21
-64.2561
0
LINE
8
BLACK
6
CONTINUOUS
10
152.784
20
-64.2561
11
152.454
21
-63.3481
0
LINE
8
BLACK
6
CONTINUOUS
10
152.454
20
-63.3481
11
152.454
21
-62.3819
0
LINE
8
BLACK
6
CONTINUOUS
10
152.454
20
-62.3819
11
152.784
21
-61.4739
0
LINE
8
BLACK
6
CONTINUOUS
10
152.784
20
-61.4739
11
153.406
21
-60.7337
0
LINE
8
BLACK
6
CONTINUOUS
10
153.406
20
-60.7337
11
154.242
21
-60.2505
0
LINE
8
BLACK
6
CONTINUOUS
10
154.242
20
-60.2505
11
155.194
21
-60.0827
0
LINE
8
BLACK
6
CONTINUOUS
10
155.194
20
-60.0827
11
156.146
21
-60.2505
0
LINE
8
BLACK
6
CONTINUOUS
10
148.272
20
-60.2505
11
149.108
21
-60.7337
0
LINE
8
BLACK
6
CONTINUOUS
10
149.108
20
-60.7337
11
149.73
21
-61.4739
0
LINE
8
BLACK
6
CONTINUOUS
10
149.73
20
-61.4739
11
150.06
21
-62.3819
0
LINE
8
BLACK
6
CONTINUOUS
10
150.06
20
-62.3819
11
150.06
21
-63.3481
0
LINE
8
BLACK
6
CONTINUOUS
10
150.06
20
-63.3481
11
149.73
21
-64.2561
0
LINE
8
BLACK
6
CONTINUOUS
10
149.73
20
-64.2561
11
149.108
21
-64.9963
0
LINE
8
BLACK
6
CONTINUOUS
10
149.108
20
-64.9963
11
148.272
21
-65.4795
0
LINE
8
BLACK
6
CONTINUOUS
10
148.272
20
-65.4795
11
147.32
21
-65.6473
0
LINE
8
BLACK
6
CONTINUOUS
10
147.32
20
-65.6473
11
146.368
21
-65.4795
0
LINE
8
BLACK
6
CONTINUOUS
10
146.368
20
-65.4795
11
145.532
21
-64.9963
0
LINE
8
BLACK
6
CONTINUOUS
10
145.532
20
-64.9963
11
144.91
21
-64.2561
0
LINE
8
BLACK
6
CONTINUOUS
10
144.91
20
-64.2561
11
144.58
21
-63.3481
0
LINE
8
BLACK
6
CONTINUOUS
10
144.58
20
-63.3481
11
144.58
21
-62.3819
0
LINE
8
BLACK
6
CONTINUOUS
10
144.58
20
-62.3819
11
144.91
21
-61.4739
0
LINE
8
BLACK
6
CONTINUOUS
10
144.91
20
-61.4739
11
145.532
21
-60.7337
0
LINE
8
BLACK
6
CONTINUOUS
10
145.532
20
-60.7337
11
146.368
21
-60.2505
0
LINE
8
BLACK
6
CONTINUOUS
10
146.368
20
-60.2505
11
147.32
21
-60.0827
0
LINE
8
BLACK
6
CONTINUOUS
10
147.32
20
-60.0827
11
148.272
21
-60.2505
0
LINE
8
BLACK
6
CONTINUOUS
10
125.412
20
-60.2505
11
126.248
21
-60.7337
0
LINE
8
BLACK
6
CONTINUOUS
10
126.248
20
-60.7337
11
126.87
21
-61.4739
0
LINE
8
BLACK
6
CONTINUOUS
10
126.87
20
-61.4739
11
127.2
21
-62.3819
0
LINE
8
BLACK
6
CONTINUOUS
10
127.2
20
-62.3819
11
127.2
21
-63.3481
0
LINE
8
BLACK
6
CONTINUOUS
10
127.2
20
-63.3481
11
126.87
21
-64.2561
0
LINE
8
BLACK
6
CONTINUOUS
10
126.87
20
-64.2561
11
126.248
21
-64.9963
0
LINE
8
BLACK
6
CONTINUOUS
10
126.248
20
-64.9963
11
125.412
21
-65.4795
0
LINE
8
BLACK
6
CONTINUOUS
10
125.412
20
-65.4795
11
124.46
21
-65.6473
0
LINE
8
BLACK
6
CONTINUOUS
10
124.46
20
-65.6473
11
123.508
21
-65.4795
0
LINE
8
BLACK
6
CONTINUOUS
10
123.508
20
-65.4795
11
122.672
21
-64.9963
0
LINE
8
BLACK
6
CONTINUOUS
10
122.672
20
-64.9963
11
122.05
21
-64.2561
0
LINE
8
BLACK
6
CONTINUOUS
10
122.05
20
-64.2561
11
121.72
21
-63.3481
0
LINE
8
BLACK
6
CONTINUOUS
10
121.72
20
-63.3481
11
121.72
21
-62.3819
0
LINE
8
BLACK
6
CONTINUOUS
10
121.72
20
-62.3819
11
122.05
21
-61.4739
0
LINE
8
BLACK
6
CONTINUOUS
10
122.05
20
-61.4739
11
122.672
21
-60.7337
0
LINE
8
BLACK
6
CONTINUOUS
10
122.672
20
-60.7337
11
123.508
21
-60.2505
0
LINE
8
BLACK
6
CONTINUOUS
10
123.508
20
-60.2505
11
124.46
21
-60.0827
0
LINE
8
BLACK
6
CONTINUOUS
10
124.46
20
-60.0827
11
125.412
21
-60.2505
0
LINE
8
BLACK
6
CONTINUOUS
10
133.286
20
-60.2505
11
134.122
21
-60.7337
0
LINE
8
BLACK
6
CONTINUOUS
10
134.122
20
-60.7337
11
134.744
21
-61.4739
0
LINE
8
BLACK
6
CONTINUOUS
10
134.744
20
-61.4739
11
135.074
21
-62.3819
0
LINE
8
BLACK
6
CONTINUOUS
10
135.074
20
-62.3819
11
135.074
21
-63.3481
0
LINE
8
BLACK
6
CONTINUOUS
10
135.074
20
-63.3481
11
134.744
21
-64.2561
0
LINE
8
BLACK
6
CONTINUOUS
10
134.744
20
-64.2561
11
134.122
21
-64.9963
0
LINE
8
BLACK
6
CONTINUOUS
10
134.122
20
-64.9963
11
133.286
21
-65.4795
0
LINE
8
BLACK
6
CONTINUOUS
10
133.286
20
-65.4795
11
132.334
21
-65.6473
0
LINE
8
BLACK
6
CONTINUOUS
10
132.334
20
-65.6473
11
131.382
21
-65.4795
0
LINE
8
BLACK
6
CONTINUOUS
10
131.382
20
-65.4795
11
130.546
21
-64.9963
0
LINE
8
BLACK
6
CONTINUOUS
10
130.546
20
-64.9963
11
129.924
21
-64.2561
0
LINE
8
BLACK
6
CONTINUOUS
10
129.924
20
-64.2561
11
129.594
21
-63.3481
0
LINE
8
BLACK
6
CONTINUOUS
10
129.594
20
-63.3481
11
129.594
21
-62.3819
0
LINE
8
BLACK
6
CONTINUOUS
10
129.594
20
-62.3819
11
129.924
21
-61.4739
0
LINE
8
BLACK
6
CONTINUOUS
10
129.924
20
-61.4739
11
130.546
21
-60.7337
0
LINE
8
BLACK
6
CONTINUOUS
10
130.546
20
-60.7337
11
131.382
21
-60.2505
0
LINE
8
BLACK
6
CONTINUOUS
10
131.382
20
-60.2505
11
132.334
21
-60.0827
0
LINE
8
BLACK
6
CONTINUOUS
10
132.334
20
-60.0827
11
133.286
21
-60.2505
0
LINE
8
BLACK
6
CONTINUOUS
10
70.8016
20
-60.2505
11
71.6384
21
-60.7337
0
LINE
8
BLACK
6
CONTINUOUS
10
71.6384
20
-60.7337
11
72.2595
21
-61.4739
0
LINE
8
BLACK
6
CONTINUOUS
10
72.2595
20
-61.4739
11
72.59
21
-62.3819
0
LINE
8
BLACK
6
CONTINUOUS
10
72.59
20
-62.3819
11
72.59
21
-63.3481
0
LINE
8
BLACK
6
CONTINUOUS
10
72.59
20
-63.3481
11
72.2595
21
-64.2561
0
LINE
8
BLACK
6
CONTINUOUS
10
72.2595
20
-64.2561
11
71.6384
21
-64.9963
0
LINE
8
BLACK
6
CONTINUOUS
10
71.6384
20
-64.9963
11
70.8016
21
-65.4795
0
LINE
8
BLACK
6
CONTINUOUS
10
70.8016
20
-65.4795
11
69.85
21
-65.6473
0
LINE
8
BLACK
6
CONTINUOUS
10
69.85
20
-65.6473
11
68.8984
21
-65.4795
0
LINE
8
BLACK
6
CONTINUOUS
10
68.8984
20
-65.4795
11
68.0616
21
-64.9963
0
LINE
8
BLACK
6
CONTINUOUS
10
68.0616
20
-64.9963
11
67.4405
21
-64.2561
0
LINE
8
BLACK
6
CONTINUOUS
10
67.4405
20
-64.2561
11
67.11
21
-63.3481
0
LINE
8
BLACK
6
CONTINUOUS
10
67.11
20
-63.3481
11
67.11
21
-62.3819
0
LINE
8
BLACK
6
CONTINUOUS
10
67.11
20
-62.3819
11
67.4405
21
-61.4739
0
LINE
8
BLACK
6
CONTINUOUS
10
67.4405
20
-61.4739
11
68.0616
21
-60.7337
0
LINE
8
BLACK
6
CONTINUOUS
10
68.0616
20
-60.7337
11
68.8984
21
-60.2505
0
LINE
8
BLACK
6
CONTINUOUS
10
68.8984
20
-60.2505
11
69.85
21
-60.0827
0
LINE
8
BLACK
6
CONTINUOUS
10
69.85
20
-60.0827
11
70.8016
21
-60.2505
0
LINE
8
BLACK
6
CONTINUOUS
10
78.6756
20
-60.2505
11
79.5124
21
-60.7337
0
LINE
8
BLACK
6
CONTINUOUS
10
79.5124
20
-60.7337
11
80.1335
21
-61.4739
0
LINE
8
BLACK
6
CONTINUOUS
10
80.1335
20
-61.4739
11
80.464
21
-62.3819
0
LINE
8
BLACK
6
CONTINUOUS
10
80.464
20
-62.3819
11
80.464
21
-63.3481
0
LINE
8
BLACK
6
CONTINUOUS
10
80.464
20
-63.3481
11
80.1335
21
-64.2561
0
LINE
8
BLACK
6
CONTINUOUS
10
80.1335
20
-64.2561
11
79.5124
21
-64.9963
0
LINE
8
BLACK
6
CONTINUOUS
10
79.5124
20
-64.9963
11
78.6756
21
-65.4795
0
LINE
8
BLACK
6
CONTINUOUS
10
78.6756
20
-65.4795
11
77.724
21
-65.6473
0
LINE
8
BLACK
6
CONTINUOUS
10
77.724
20
-65.6473
11
76.7724
21
-65.4795
0
LINE
8
BLACK
6
CONTINUOUS
10
76.7724
20
-65.4795
11
75.9356
21
-64.9963
0
LINE
8
BLACK
6
CONTINUOUS
10
75.9356
20
-64.9963
11
75.3145
21
-64.2561
0
LINE
8
BLACK
6
CONTINUOUS
10
75.3145
20
-64.2561
11
74.984
21
-63.3481
0
LINE
8
BLACK
6
CONTINUOUS
10
74.984
20
-63.3481
11
74.984
21
-62.3819
0
LINE
8
BLACK
6
CONTINUOUS
10
74.984
20
-62.3819
11
75.3145
21
-61.4739
0
LINE
8
BLACK
6
CONTINUOUS
10
75.3145
20
-61.4739
11
75.9356
21
-60.7337
0
LINE
8
BLACK
6
CONTINUOUS
10
75.9356
20
-60.7337
11
76.7724
21
-60.2505
0
LINE
8
BLACK
6
CONTINUOUS
10
76.7724
20
-60.2505
11
77.724
21
-60.0827
0
LINE
8
BLACK
6
CONTINUOUS
10
77.724
20
-60.0827
11
78.6756
21
-60.2505
0
LINE
8
BLACK
6
CONTINUOUS
10
47.9416
20
-60.2505
11
48.7784
21
-60.7337
0
LINE
8
BLACK
6
CONTINUOUS
10
48.7784
20
-60.7337
11
49.3995
21
-61.4739
0
LINE
8
BLACK
6
CONTINUOUS
10
49.3995
20
-61.4739
11
49.73
21
-62.3819
0
LINE
8
BLACK
6
CONTINUOUS
10
49.73
20
-62.3819
11
49.73
21
-63.3481
0
LINE
8
BLACK
6
CONTINUOUS
10
49.73
20
-63.3481
11
49.3995
21
-64.2561
0
LINE
8
BLACK
6
CONTINUOUS
10
49.3995
20
-64.2561
11
48.7784
21
-64.9963
0
LINE
8
BLACK
6
CONTINUOUS
10
48.7784
20
-64.9963
11
47.9416
21
-65.4795
0
LINE
8
BLACK
6
CONTINUOUS
10
47.9416
20
-65.4795
11
46.99
21
-65.6473
0
LINE
8
BLACK
6
CONTINUOUS
10
46.99
20
-65.6473
11
46.0384
21
-65.4795
0
LINE
8
BLACK
6
CONTINUOUS
10
46.0384
20
-65.4795
11
45.2016
21
-64.9963
0
LINE
8
BLACK
6
CONTINUOUS
10
45.2016
20
-64.9963
11
44.5805
21
-64.2561
0
LINE
8
BLACK
6
CONTINUOUS
10
44.5805
20
-64.2561
11
44.25
21
-63.3481
0
LINE
8
BLACK
6
CONTINUOUS
10
44.25
20
-63.3481
11
44.25
21
-62.3819
0
LINE
8
BLACK
6
CONTINUOUS
10
44.25
20
-62.3819
11
44.5805
21
-61.4739
0
LINE
8
BLACK
6
CONTINUOUS
10
44.5805
20
-61.4739
11
45.2016
21
-60.7337
0
LINE
8
BLACK
6
CONTINUOUS
10
45.2016
20
-60.7337
11
46.0384
21
-60.2505
0
LINE
8
BLACK
6
CONTINUOUS
10
46.0384
20
-60.2505
11
46.99
21
-60.0827
0
LINE
8
BLACK
6
CONTINUOUS
10
46.99
20
-60.0827
11
47.9416
21
-60.2505
0
LINE
8
BLACK
6
CONTINUOUS
10
55.8156
20
-60.2505
11
56.6524
21
-60.7337
0
LINE
8
BLACK
6
CONTINUOUS
10
56.6524
20
-60.7337
11
57.2735
21
-61.4739
0
LINE
8
BLACK
6
CONTINUOUS
10
57.2735
20
-61.4739
11
57.604
21
-62.3819
0
LINE
8
BLACK
6
CONTINUOUS
10
57.604
20
-62.3819
11
57.604
21
-63.3481
0
LINE
8
BLACK
6
CONTINUOUS
10
57.604
20
-63.3481
11
57.2735
21
-64.2561
0
LINE
8
BLACK
6
CONTINUOUS
10
57.2735
20
-64.2561
11
56.6524
21
-64.9963
0
LINE
8
BLACK
6
CONTINUOUS
10
56.6524
20
-64.9963
11
55.8156
21
-65.4795
0
LINE
8
BLACK
6
CONTINUOUS
10
55.8156
20
-65.4795
11
54.864
21
-65.6473
0
LINE
8
BLACK
6
CONTINUOUS
10
54.864
20
-65.6473
11
53.9124
21
-65.4795
0
LINE
8
BLACK
6
CONTINUOUS
10
53.9124
20
-65.4795
11
53.0756
21
-64.9963
0
LINE
8
BLACK
6
CONTINUOUS
10
53.0756
20
-64.9963
11
52.4545
21
-64.2561
0
LINE
8
BLACK
6
CONTINUOUS
10
52.4545
20
-64.2561
11
52.124
21
-63.3481
0
LINE
8
BLACK
6
CONTINUOUS
10
52.124
20
-63.3481
11
52.124
21
-62.3819
0
LINE
8
BLACK
6
CONTINUOUS
10
52.124
20
-62.3819
11
52.4545
21
-61.4739
0
LINE
8
BLACK
6
CONTINUOUS
10
52.4545
20
-61.4739
11
53.0756
21
-60.7337
0
LINE
8
BLACK
6
CONTINUOUS
10
53.0756
20
-60.7337
11
53.9124
21
-60.2505
0
LINE
8
BLACK
6
CONTINUOUS
10
53.9124
20
-60.2505
11
54.864
21
-60.0827
0
LINE
8
BLACK
6
CONTINUOUS
10
54.864
20
-60.0827
11
55.8156
21
-60.2505
0
LINE
8
BLACK
6
CONTINUOUS
10
111.315
20
-60.2505
11
112.151
21
-60.7337
0
LINE
8
BLACK
6
CONTINUOUS
10
112.151
20
-60.7337
11
112.773
21
-61.4739
0
LINE
8
BLACK
6
CONTINUOUS
10
112.773
20
-61.4739
11
113.103
21
-62.3819
0
LINE
8
BLACK
6
CONTINUOUS
10
113.103
20
-62.3819
11
113.103
21
-63.3481
0
LINE
8
BLACK
6
CONTINUOUS
10
113.103
20
-63.3481
11
112.773
21
-64.2561
0
LINE
8
BLACK
6
CONTINUOUS
10
112.773
20
-64.2561
11
112.151
21
-64.9963
0
LINE
8
BLACK
6
CONTINUOUS
10
112.151
20
-64.9963
11
111.315
21
-65.4795
0
LINE
8
BLACK
6
CONTINUOUS
10
111.315
20
-65.4795
11
110.363
21
-65.6473
0
LINE
8
BLACK
6
CONTINUOUS
10
110.363
20
-65.6473
11
109.411
21
-65.4795
0
LINE
8
BLACK
6
CONTINUOUS
10
109.411
20
-65.4795
11
108.575
21
-64.9963
0
LINE
8
BLACK
6
CONTINUOUS
10
108.575
20
-64.9963
11
107.953
21
-64.2561
0
LINE
8
BLACK
6
CONTINUOUS
10
107.953
20
-64.2561
11
107.623
21
-63.3481
0
LINE
8
BLACK
6
CONTINUOUS
10
107.623
20
-63.3481
11
107.623
21
-62.3819
0
LINE
8
BLACK
6
CONTINUOUS
10
107.623
20
-62.3819
11
107.953
21
-61.4739
0
LINE
8
BLACK
6
CONTINUOUS
10
107.953
20
-61.4739
11
108.575
21
-60.7337
0
LINE
8
BLACK
6
CONTINUOUS
10
108.575
20
-60.7337
11
109.411
21
-60.2505
0
LINE
8
BLACK
6
CONTINUOUS
10
109.411
20
-60.2505
11
110.363
21
-60.0827
0
LINE
8
BLACK
6
CONTINUOUS
10
110.363
20
-60.0827
11
111.315
21
-60.2505
0
LINE
8
BLACK
6
CONTINUOUS
10
95.5666
20
-60.2505
11
96.4034
21
-60.7337
0
LINE
8
BLACK
6
CONTINUOUS
10
96.4034
20
-60.7337
11
97.0245
21
-61.4739
0
LINE
8
BLACK
6
CONTINUOUS
10
97.0245
20
-61.4739
11
97.355
21
-62.3819
0
LINE
8
BLACK
6
CONTINUOUS
10
97.355
20
-62.3819
11
97.355
21
-63.3481
0
LINE
8
BLACK
6
CONTINUOUS
10
97.355
20
-63.3481
11
97.0245
21
-64.2561
0
LINE
8
BLACK
6
CONTINUOUS
10
97.0245
20
-64.2561
11
96.4034
21
-64.9963
0
LINE
8
BLACK
6
CONTINUOUS
10
96.4034
20
-64.9963
11
95.5666
21
-65.4795
0
LINE
8
BLACK
6
CONTINUOUS
10
95.5666
20
-65.4795
11
94.615
21
-65.6473
0
LINE
8
BLACK
6
CONTINUOUS
10
94.615
20
-65.6473
11
93.6634
21
-65.4795
0
LINE
8
BLACK
6
CONTINUOUS
10
93.6634
20
-65.4795
11
92.8266
21
-64.9963
0
LINE
8
BLACK
6
CONTINUOUS
10
92.8266
20
-64.9963
11
92.2055
21
-64.2561
0
LINE
8
BLACK
6
CONTINUOUS
10
92.2055
20
-64.2561
11
91.875
21
-63.3481
0
LINE
8
BLACK
6
CONTINUOUS
10
91.875
20
-63.3481
11
91.875
21
-62.3819
0
LINE
8
BLACK
6
CONTINUOUS
10
91.875
20
-62.3819
11
92.2055
21
-61.4739
0
LINE
8
BLACK
6
CONTINUOUS
10
92.2055
20
-61.4739
11
92.8266
21
-60.7337
0
LINE
8
BLACK
6
CONTINUOUS
10
92.8266
20
-60.7337
11
93.6634
21
-60.2505
0
LINE
8
BLACK
6
CONTINUOUS
10
93.6634
20
-60.2505
11
94.615
21
-60.0827
0
LINE
8
BLACK
6
CONTINUOUS
10
94.615
20
-60.0827
11
95.5666
21
-60.2505
0
LINE
8
BLACK
6
CONTINUOUS
10
63.484
20
-65.008
11
61.484
21
-65.008
0
LINE
8
BLACK
6
CONTINUOUS
10
61.484
20
-65.008
11
61.484
21
-63.008
0
LINE
8
BLACK
6
CONTINUOUS
10
61.484
20
-63.008
11
63.484
21
-63.008
0
LINE
8
BLACK
6
CONTINUOUS
10
63.484
20
-63.008
11
63.484
21
-65.008
0
LINE
8
BLACK
6
CONTINUOUS
10
141.081
20
-65.008
11
139.081
21
-65.008
0
LINE
8
BLACK
6
CONTINUOUS
10
139.081
20
-65.008
11
139.081
21
-63.008
0
LINE
8
BLACK
6
CONTINUOUS
10
139.081
20
-63.008
11
141.081
21
-63.008
0
LINE
8
BLACK
6
CONTINUOUS
10
141.081
20
-63.008
11
141.081
21
-65.008
0
LINE
8
BLACK
6
CONTINUOUS
10
62.8313
20
-60.5538
11
63.1367
21
-60.7301
0
LINE
8
BLACK
6
CONTINUOUS
10
63.1367
20
-60.7301
11
63.3634
21
-61.0003
0
LINE
8
BLACK
6
CONTINUOUS
10
63.3634
20
-61.0003
11
63.484
21
-61.3317
0
LINE
8
BLACK
6
CONTINUOUS
10
63.484
20
-61.3317
11
63.484
21
-61.6843
0
LINE
8
BLACK
6
CONTINUOUS
10
63.484
20
-61.6843
11
63.3634
21
-62.0157
0
LINE
8
BLACK
6
CONTINUOUS
10
63.3634
20
-62.0157
11
63.1367
21
-62.2859
0
LINE
8
BLACK
6
CONTINUOUS
10
63.1367
20
-62.2859
11
62.8313
21
-62.4622
0
LINE
8
BLACK
6
CONTINUOUS
10
62.8313
20
-62.4622
11
62.484
21
-62.5234
0
LINE
8
BLACK
6
CONTINUOUS
10
62.484
20
-62.5234
11
62.1367
21
-62.4622
0
LINE
8
BLACK
6
CONTINUOUS
10
62.1367
20
-62.4622
11
61.8313
21
-62.2859
0
LINE
8
BLACK
6
CONTINUOUS
10
61.8313
20
-62.2859
11
61.6046
21
-62.0157
0
LINE
8
BLACK
6
CONTINUOUS
10
61.6046
20
-62.0157
11
61.484
21
-61.6843
0
LINE
8
BLACK
6
CONTINUOUS
10
61.484
20
-61.6843
11
61.484
21
-61.3317
0
LINE
8
BLACK
6
CONTINUOUS
10
61.484
20
-61.3317
11
61.6046
21
-61.0003
0
LINE
8
BLACK
6
CONTINUOUS
10
61.6046
20
-61.0003
11
61.8313
21
-60.7301
0
LINE
8
BLACK
6
CONTINUOUS
10
61.8313
20
-60.7301
11
62.1367
21
-60.5538
0
LINE
8
BLACK
6
CONTINUOUS
10
62.1367
20
-60.5538
11
62.484
21
-60.4926
0
LINE
8
BLACK
6
CONTINUOUS
10
62.484
20
-60.4926
11
62.8313
21
-60.5538
0
LINE
8
BLACK
6
CONTINUOUS
10
140.428
20
-60.5538
11
140.734
21
-60.7301
0
LINE
8
BLACK
6
CONTINUOUS
10
140.734
20
-60.7301
11
140.96
21
-61.0003
0
LINE
8
BLACK
6
CONTINUOUS
10
140.96
20
-61.0003
11
141.081
21
-61.3317
0
LINE
8
BLACK
6
CONTINUOUS
10
141.081
20
-61.3317
11
141.081
21
-61.6843
0
LINE
8
BLACK
6
CONTINUOUS
10
141.081
20
-61.6843
11
140.96
21
-62.0157
0
LINE
8
BLACK
6
CONTINUOUS
10
140.96
20
-62.0157
11
140.734
21
-62.2859
0
LINE
8
BLACK
6
CONTINUOUS
10
140.734
20
-62.2859
11
140.428
21
-62.4622
0
LINE
8
BLACK
6
CONTINUOUS
10
140.428
20
-62.4622
11
140.081
21
-62.5234
0
LINE
8
BLACK
6
CONTINUOUS
10
140.081
20
-62.5234
11
139.734
21
-62.4622
0
LINE
8
BLACK
6
CONTINUOUS
10
139.734
20
-62.4622
11
139.428
21
-62.2859
0
LINE
8
BLACK
6
CONTINUOUS
10
139.428
20
-62.2859
11
139.202
21
-62.0157
0
LINE
8
BLACK
6
CONTINUOUS
10
139.202
20
-62.0157
11
139.081
21
-61.6843
0
LINE
8
BLACK
6
CONTINUOUS
10
139.081
20
-61.6843
11
139.081
21
-61.3317
0
LINE
8
BLACK
6
CONTINUOUS
10
139.081
20
-61.3317
11
139.202
21
-61.0003
0
LINE
8
BLACK
6
CONTINUOUS
10
139.202
20
-61.0003
11
139.428
21
-60.7301
0
LINE
8
BLACK
6
CONTINUOUS
10
139.428
20
-60.7301
11
139.734
21
-60.5538
0
LINE
8
BLACK
6
CONTINUOUS
10
139.734
20
-60.5538
11
140.081
21
-60.4926
0
LINE
8
BLACK
6
CONTINUOUS
10
140.081
20
-60.4926
11
140.428
21
-60.5538
  0
ENDSEC
  0
EOF
