  0
SECTION
  2
HEADER
  9
$ANGBASE
  50
0.0
  9
$ANGDIR
  70
  1
  9
$MEASUREMENT
  70
0
  0
ENDSEC
  0
SECTION
  2
TABLES
  0
TABLE
  2
LTYPE
  70
4
  0
LTYPE
  5
40F
  2
CONTINUOUS
  70
0
  3
Solid line
  72
65
  73
0
  40
0.0
  0
LTYPE
  5
410
  2
DASHDOT
 70
0
  3
Dash Dot ____ _ ____ _
 72
65
 73
4
 40
2.0
 49
1.25
 49
-0.25
 49
0.25
 49
-0.25
  0
LTYPE
  5
411
  2
DASHED
 70
0
  3
Dashed __ __ __ __ __
 72
65
 73
2
 40
0.75
 49
0.5
 49
-0.25
  0
LTYPE
  5
43B
  2
DOTTED
 70
0
  3
Dotted .  .  .  .
 72
65
 73
2
 40
0.2
 49
0.0
 49
-0.2
  0
ENDTAB
  0
TABLE
  2
STYLE
  70
4
  0
STYLE
  2
KICAD
  70
0
  40
0
  41
1
  42
1
  50
0
  71
0
  3
isocp.shx
  0
STYLE
  2
KICADB
  70
0
  40
0
  41
1
  42
1
  50
0
  71
0
  3
isocp.shx
  0
STYLE
  2
KICADI
  70
0
  40
0
  41
1
  42
1
  50
15
  71
0
  3
isocp.shx
  0
STYLE
  2
KICADBI
  70
0
  40
0
  41
1
  42
1
  50
15
  71
0
  3
isocp.shx
  0
ENDTAB
  0
TABLE
  2
LAYER
  70
30
  0
LAYER
  2
BLACK
  70
0
  62
7
  6
CONTINUOUS
  0
LAYER
  2
GRAY1
  70
0
  62
251
  6
CONTINUOUS
  0
LAYER
  2
GRAY2
  70
0
  62
8
  6
CONTINUOUS
  0
LAYER
  2
GRAY3
  70
0
  62
9
  6
CONTINUOUS
  0
LAYER
  2
WHITE
  70
0
  62
7
  6
CONTINUOUS
  0
LAYER
  2
LYELLOW
  70
0
  62
51
  6
CONTINUOUS
  0
LAYER
  2
BLUE1
  70
0
  62
178
  6
CONTINUOUS
  0
LAYER
  2
GREEN1
  70
0
  62
98
  6
CONTINUOUS
  0
LAYER
  2
CYAN1
  70
0
  62
138
  6
CONTINUOUS
  0
LAYER
  2
RED1
  70
0
  62
18
  6
CONTINUOUS
  0
LAYER
  2
MAGENTA1
  70
0
  62
228
  6
CONTINUOUS
  0
LAYER
  2
BROWN1
  70
0
  62
58
  6
CONTINUOUS
  0
LAYER
  2
BLUE2
  70
0
  62
5
  6
CONTINUOUS
  0
LAYER
  2
GREEN2
  70
0
  62
3
  6
CONTINUOUS
  0
LAYER
  2
CYAN2
  70
0
  62
4
  6
CONTINUOUS
  0
LAYER
  2
RED2
  70
0
  62
1
  6
CONTINUOUS
  0
LAYER
  2
MAGENTA2
  70
0
  62
6
  6
CONTINUOUS
  0
LAYER
  2
BROWN2
  70
0
  62
54
  6
CONTINUOUS
  0
LAYER
  2
BLUE3
  70
0
  62
171
  6
CONTINUOUS
  0
LAYER
  2
GREEN3
  70
0
  62
91
  6
CONTINUOUS
  0
LAYER
  2
CYAN3
  70
0
  62
131
  6
CONTINUOUS
  0
LAYER
  2
RED3
  70
0
  62
11
  6
CONTINUOUS
  0
LAYER
  2
MAGENTA3
  70
0
  62
221
  6
CONTINUOUS
  0
LAYER
  2
YELLOW3
  70
0
  62
2
  6
CONTINUOUS
  0
LAYER
  2
BLUE4
  70
0
  62
5
  6
CONTINUOUS
  0
LAYER
  2
GREEN4
  70
0
  62
3
  6
CONTINUOUS
  0
LAYER
  2
CYAN4
  70
0
  62
4
  6
CONTINUOUS
  0
LAYER
  2
RED4
  70
0
  62
1
  6
CONTINUOUS
  0
LAYER
  2
MAGENTA4
  70
0
  62
6
  6
CONTINUOUS
  0
LAYER
  2
YELLOW4
  70
0
  62
2
  6
CONTINUOUS
  0
ENDTAB
  0
ENDSEC
  0
SECTION
  2
ENTITIES
0
LINE
8
BLACK
6
CONTINUOUS
10
161.81
20
-58.8539
11
162.379
21
-58.9354
0
LINE
8
BLACK
6
CONTINUOUS
10
162.379
20
-58.9354
11
162.38
21
-58.9356
0
LINE
8
BLACK
6
CONTINUOUS
10
162.38
20
-58.9356
11
162.39
21
-58.9386
0
LINE
8
BLACK
6
CONTINUOUS
10
162.39
20
-58.9386
11
162.399
21
-58.9414
0
LINE
8
BLACK
6
CONTINUOUS
10
162.399
20
-58.9414
11
162.924
21
-59.1799
0
LINE
8
BLACK
6
CONTINUOUS
10
162.924
20
-59.1799
11
162.925
21
-59.1802
0
LINE
8
BLACK
6
CONTINUOUS
10
162.925
20
-59.1802
11
162.933
21
-59.1859
0
LINE
8
BLACK
6
CONTINUOUS
10
162.933
20
-59.1859
11
162.942
21
-59.1913
0
LINE
8
BLACK
6
CONTINUOUS
10
162.942
20
-59.1913
11
163.378
21
-59.5674
0
LINE
8
BLACK
6
CONTINUOUS
10
163.378
20
-59.5674
11
163.379
21
-59.568
0
LINE
8
BLACK
6
CONTINUOUS
10
163.379
20
-59.568
11
163.385
21
-59.5758
0
LINE
8
BLACK
6
CONTINUOUS
10
163.385
20
-59.5758
11
163.392
21
-59.5834
0
LINE
8
BLACK
6
CONTINUOUS
10
163.392
20
-59.5834
11
163.706
21
-60.0669
0
LINE
8
BLACK
6
CONTINUOUS
10
163.706
20
-60.0669
11
163.706
21
-60.0677
0
LINE
8
BLACK
6
CONTINUOUS
10
163.706
20
-60.0677
11
163.71
21
-60.077
0
LINE
8
BLACK
6
CONTINUOUS
10
163.71
20
-60.077
11
163.714
21
-60.0862
0
LINE
8
BLACK
6
CONTINUOUS
10
163.714
20
-60.0862
11
163.88
21
-60.6382
0
LINE
8
BLACK
6
CONTINUOUS
10
163.88
20
-60.6382
11
163.88
21
-60.639
0
LINE
8
BLACK
6
CONTINUOUS
10
163.88
20
-60.639
11
163.881
21
-60.6466
0
LINE
8
BLACK
6
CONTINUOUS
10
163.881
20
-60.6466
11
163.882
21
-60.6541
0
LINE
8
BLACK
6
CONTINUOUS
10
163.882
20
-60.6541
11
163.905
21
-60.9507
0
LINE
8
BLACK
6
CONTINUOUS
10
163.905
20
-60.9507
11
163.905
21
-60.9534
0
LINE
8
BLACK
6
CONTINUOUS
10
163.905
20
-60.9534
11
163.905
21
-116.085
0
LINE
8
BLACK
6
CONTINUOUS
10
163.905
20
-116.085
11
163.904
21
-116.09
0
LINE
8
BLACK
6
CONTINUOUS
10
163.904
20
-116.09
11
163.823
21
-116.659
0
LINE
8
BLACK
6
CONTINUOUS
10
163.823
20
-116.659
11
163.822
21
-116.66
0
LINE
8
BLACK
6
CONTINUOUS
10
163.822
20
-116.66
11
163.819
21
-116.67
0
LINE
8
BLACK
6
CONTINUOUS
10
163.819
20
-116.67
11
163.817
21
-116.679
0
LINE
8
BLACK
6
CONTINUOUS
10
163.817
20
-116.679
11
163.578
21
-117.204
0
LINE
8
BLACK
6
CONTINUOUS
10
163.578
20
-117.204
11
163.578
21
-117.205
0
LINE
8
BLACK
6
CONTINUOUS
10
163.578
20
-117.205
11
163.572
21
-117.213
0
LINE
8
BLACK
6
CONTINUOUS
10
163.572
20
-117.213
11
163.567
21
-117.222
0
LINE
8
BLACK
6
CONTINUOUS
10
163.567
20
-117.222
11
163.191
21
-117.658
0
LINE
8
BLACK
6
CONTINUOUS
10
163.191
20
-117.658
11
163.19
21
-117.659
0
LINE
8
BLACK
6
CONTINUOUS
10
163.19
20
-117.659
11
163.182
21
-117.666
0
LINE
8
BLACK
6
CONTINUOUS
10
163.182
20
-117.666
11
163.175
21
-117.672
0
LINE
8
BLACK
6
CONTINUOUS
10
163.175
20
-117.672
11
162.691
21
-117.986
0
LINE
8
BLACK
6
CONTINUOUS
10
162.691
20
-117.986
11
162.69
21
-117.986
0
LINE
8
BLACK
6
CONTINUOUS
10
162.69
20
-117.986
11
162.681
21
-117.99
0
LINE
8
BLACK
6
CONTINUOUS
10
162.681
20
-117.99
11
162.672
21
-117.994
0
LINE
8
BLACK
6
CONTINUOUS
10
162.672
20
-117.994
11
162.12
21
-118.16
0
LINE
8
BLACK
6
CONTINUOUS
10
162.12
20
-118.16
11
162.119
21
-118.16
0
LINE
8
BLACK
6
CONTINUOUS
10
162.119
20
-118.16
11
162.111
21
-118.161
0
LINE
8
BLACK
6
CONTINUOUS
10
162.111
20
-118.161
11
162.104
21
-118.162
0
LINE
8
BLACK
6
CONTINUOUS
10
162.104
20
-118.162
11
161.807
21
-118.185
0
LINE
8
BLACK
6
CONTINUOUS
10
161.807
20
-118.185
11
161.805
21
-118.185
0
LINE
8
BLACK
6
CONTINUOUS
10
161.805
20
-118.185
11
146.125
21
-118.185
0
LINE
8
BLACK
6
CONTINUOUS
10
146.125
20
-118.185
11
146.125
21
-138.863
0
LINE
8
BLACK
6
CONTINUOUS
10
146.125
20
-138.863
11
161.805
21
-138.863
0
LINE
8
BLACK
6
CONTINUOUS
10
161.805
20
-138.863
11
161.81
21
-138.864
0
LINE
8
BLACK
6
CONTINUOUS
10
161.81
20
-138.864
11
162.379
21
-138.945
0
LINE
8
BLACK
6
CONTINUOUS
10
162.379
20
-138.945
11
162.38
21
-138.946
0
LINE
8
BLACK
6
CONTINUOUS
10
162.38
20
-138.946
11
162.39
21
-138.949
0
LINE
8
BLACK
6
CONTINUOUS
10
162.39
20
-138.949
11
162.399
21
-138.951
0
LINE
8
BLACK
6
CONTINUOUS
10
162.399
20
-138.951
11
162.924
21
-139.19
0
LINE
8
BLACK
6
CONTINUOUS
10
162.924
20
-139.19
11
162.925
21
-139.19
0
LINE
8
BLACK
6
CONTINUOUS
10
162.925
20
-139.19
11
162.933
21
-139.196
0
LINE
8
BLACK
6
CONTINUOUS
10
162.933
20
-139.196
11
162.942
21
-139.201
0
LINE
8
BLACK
6
CONTINUOUS
10
162.942
20
-139.201
11
163.378
21
-139.577
0
LINE
8
BLACK
6
CONTINUOUS
10
163.378
20
-139.577
11
163.379
21
-139.578
0
LINE
8
BLACK
6
CONTINUOUS
10
163.379
20
-139.578
11
163.385
21
-139.586
0
LINE
8
BLACK
6
CONTINUOUS
10
163.385
20
-139.586
11
163.392
21
-139.593
0
LINE
8
BLACK
6
CONTINUOUS
10
163.392
20
-139.593
11
163.706
21
-140.077
0
LINE
8
BLACK
6
CONTINUOUS
10
163.706
20
-140.077
11
163.706
21
-140.078
0
LINE
8
BLACK
6
CONTINUOUS
10
163.706
20
-140.078
11
163.71
21
-140.087
0
LINE
8
BLACK
6
CONTINUOUS
10
163.71
20
-140.087
11
163.714
21
-140.096
0
LINE
8
BLACK
6
CONTINUOUS
10
163.714
20
-140.096
11
163.88
21
-140.648
0
LINE
8
BLACK
6
CONTINUOUS
10
163.88
20
-140.648
11
163.88
21
-140.649
0
LINE
8
BLACK
6
CONTINUOUS
10
163.88
20
-140.649
11
163.881
21
-140.657
0
LINE
8
BLACK
6
CONTINUOUS
10
163.881
20
-140.657
11
163.882
21
-140.664
0
LINE
8
BLACK
6
CONTINUOUS
10
163.882
20
-140.664
11
163.905
21
-140.961
0
LINE
8
BLACK
6
CONTINUOUS
10
163.905
20
-140.961
11
163.905
21
-140.963
0
LINE
8
BLACK
6
CONTINUOUS
10
163.905
20
-140.963
11
163.905
21
-149.105
0
LINE
8
BLACK
6
CONTINUOUS
10
163.905
20
-149.105
11
163.902
21
-149.124
0
LINE
8
BLACK
6
CONTINUOUS
10
163.902
20
-149.124
11
163.888
21
-149.147
0
LINE
8
BLACK
6
CONTINUOUS
10
163.888
20
-149.147
11
163.868
21
-149.164
0
LINE
8
BLACK
6
CONTINUOUS
10
163.868
20
-149.164
11
163.843
21
-149.173
0
LINE
8
BLACK
6
CONTINUOUS
10
163.843
20
-149.173
11
163.833
21
-149.173
0
LINE
8
BLACK
6
CONTINUOUS
10
163.833
20
-149.173
11
163.543
21
-149.195
0
LINE
8
BLACK
6
CONTINUOUS
10
163.543
20
-149.195
11
163.009
21
-149.354
0
LINE
8
BLACK
6
CONTINUOUS
10
163.009
20
-149.354
11
162.544
21
-149.656
0
LINE
8
BLACK
6
CONTINUOUS
10
162.544
20
-149.656
11
162.182
21
-150.076
0
LINE
8
BLACK
6
CONTINUOUS
10
162.182
20
-150.076
11
161.952
21
-150.581
0
LINE
8
BLACK
6
CONTINUOUS
10
161.952
20
-150.581
11
161.873
21
-151.133
0
LINE
8
BLACK
6
CONTINUOUS
10
161.873
20
-151.133
11
161.895
21
-151.417
0
LINE
8
BLACK
6
CONTINUOUS
10
161.895
20
-151.417
11
162.054
21
-151.951
0
LINE
8
BLACK
6
CONTINUOUS
10
162.054
20
-151.951
11
162.356
21
-152.416
0
LINE
8
BLACK
6
CONTINUOUS
10
162.356
20
-152.416
11
162.776
21
-152.778
0
LINE
8
BLACK
6
CONTINUOUS
10
162.776
20
-152.778
11
163.281
21
-153.008
0
LINE
8
BLACK
6
CONTINUOUS
10
163.281
20
-153.008
11
163.835
21
-153.087
0
LINE
8
BLACK
6
CONTINUOUS
10
163.835
20
-153.087
11
163.843
21
-153.087
0
LINE
8
BLACK
6
CONTINUOUS
10
163.843
20
-153.087
11
163.868
21
-153.096
0
LINE
8
BLACK
6
CONTINUOUS
10
163.868
20
-153.096
11
163.888
21
-153.113
0
LINE
8
BLACK
6
CONTINUOUS
10
163.888
20
-153.113
11
163.902
21
-153.136
0
LINE
8
BLACK
6
CONTINUOUS
10
163.902
20
-153.136
11
163.905
21
-153.155
0
LINE
8
BLACK
6
CONTINUOUS
10
163.905
20
-153.155
11
163.905
21
-161.805
0
LINE
8
BLACK
6
CONTINUOUS
10
163.905
20
-161.805
11
163.904
21
-161.81
0
LINE
8
BLACK
6
CONTINUOUS
10
163.904
20
-161.81
11
163.823
21
-162.379
0
LINE
8
BLACK
6
CONTINUOUS
10
163.823
20
-162.379
11
163.822
21
-162.38
0
LINE
8
BLACK
6
CONTINUOUS
10
163.822
20
-162.38
11
163.819
21
-162.39
0
LINE
8
BLACK
6
CONTINUOUS
10
163.819
20
-162.39
11
163.817
21
-162.399
0
LINE
8
BLACK
6
CONTINUOUS
10
163.817
20
-162.399
11
163.578
21
-162.924
0
LINE
8
BLACK
6
CONTINUOUS
10
163.578
20
-162.924
11
163.578
21
-162.925
0
LINE
8
BLACK
6
CONTINUOUS
10
163.578
20
-162.925
11
163.572
21
-162.933
0
LINE
8
BLACK
6
CONTINUOUS
10
163.572
20
-162.933
11
163.567
21
-162.942
0
LINE
8
BLACK
6
CONTINUOUS
10
163.567
20
-162.942
11
163.191
21
-163.378
0
LINE
8
BLACK
6
CONTINUOUS
10
163.191
20
-163.378
11
163.19
21
-163.379
0
LINE
8
BLACK
6
CONTINUOUS
10
163.19
20
-163.379
11
163.182
21
-163.386
0
LINE
8
BLACK
6
CONTINUOUS
10
163.182
20
-163.386
11
163.175
21
-163.392
0
LINE
8
BLACK
6
CONTINUOUS
10
163.175
20
-163.392
11
162.691
21
-163.706
0
LINE
8
BLACK
6
CONTINUOUS
10
162.691
20
-163.706
11
162.69
21
-163.706
0
LINE
8
BLACK
6
CONTINUOUS
10
162.69
20
-163.706
11
162.681
21
-163.71
0
LINE
8
BLACK
6
CONTINUOUS
10
162.681
20
-163.71
11
162.672
21
-163.714
0
LINE
8
BLACK
6
CONTINUOUS
10
162.672
20
-163.714
11
162.12
21
-163.88
0
LINE
8
BLACK
6
CONTINUOUS
10
162.12
20
-163.88
11
162.119
21
-163.88
0
LINE
8
BLACK
6
CONTINUOUS
10
162.119
20
-163.88
11
162.111
21
-163.881
0
LINE
8
BLACK
6
CONTINUOUS
10
162.111
20
-163.881
11
162.104
21
-163.882
0
LINE
8
BLACK
6
CONTINUOUS
10
162.104
20
-163.882
11
161.807
21
-163.905
0
LINE
8
BLACK
6
CONTINUOUS
10
161.807
20
-163.905
11
161.805
21
-163.905
0
LINE
8
BLACK
6
CONTINUOUS
10
161.805
20
-163.905
11
41.3954
21
-163.905
0
LINE
8
BLACK
6
CONTINUOUS
10
41.3954
20
-163.905
11
41.3902
21
-163.904
0
LINE
8
BLACK
6
CONTINUOUS
10
41.3902
20
-163.904
11
40.8211
21
-163.823
0
LINE
8
BLACK
6
CONTINUOUS
10
40.8211
20
-163.823
11
40.8201
21
-163.822
0
LINE
8
BLACK
6
CONTINUOUS
10
40.8201
20
-163.822
11
40.8104
21
-163.819
0
LINE
8
BLACK
6
CONTINUOUS
10
40.8104
20
-163.819
11
40.8006
21
-163.817
0
LINE
8
BLACK
6
CONTINUOUS
10
40.8006
20
-163.817
11
40.2762
21
-163.578
0
LINE
8
BLACK
6
CONTINUOUS
10
40.2762
20
-163.578
11
40.2753
21
-163.578
0
LINE
8
BLACK
6
CONTINUOUS
10
40.2753
20
-163.578
11
40.2668
21
-163.572
0
LINE
8
BLACK
6
CONTINUOUS
10
40.2668
20
-163.572
11
40.2583
21
-163.567
0
LINE
8
BLACK
6
CONTINUOUS
10
40.2583
20
-163.567
11
39.8218
21
-163.191
0
LINE
8
BLACK
6
CONTINUOUS
10
39.8218
20
-163.191
11
39.8211
21
-163.19
0
LINE
8
BLACK
6
CONTINUOUS
10
39.8211
20
-163.19
11
39.8145
21
-163.182
0
LINE
8
BLACK
6
CONTINUOUS
10
39.8145
20
-163.182
11
39.8078
21
-163.175
0
LINE
8
BLACK
6
CONTINUOUS
10
39.8078
20
-163.175
11
39.4945
21
-162.691
0
LINE
8
BLACK
6
CONTINUOUS
10
39.4945
20
-162.691
11
39.494
21
-162.69
0
LINE
8
BLACK
6
CONTINUOUS
10
39.494
20
-162.69
11
39.4898
21
-162.681
0
LINE
8
BLACK
6
CONTINUOUS
10
39.4898
20
-162.681
11
39.4855
21
-162.672
0
LINE
8
BLACK
6
CONTINUOUS
10
39.4855
20
-162.672
11
39.3205
21
-162.12
0
LINE
8
BLACK
6
CONTINUOUS
10
39.3205
20
-162.12
11
39.3202
21
-162.119
0
LINE
8
BLACK
6
CONTINUOUS
10
39.3202
20
-162.119
11
39.3192
21
-162.111
0
LINE
8
BLACK
6
CONTINUOUS
10
39.3192
20
-162.111
11
39.3175
21
-162.104
0
LINE
8
BLACK
6
CONTINUOUS
10
39.3175
20
-162.104
11
39.2955
21
-161.807
0
LINE
8
BLACK
6
CONTINUOUS
10
39.2955
20
-161.807
11
39.295
21
-161.805
0
LINE
8
BLACK
6
CONTINUOUS
10
39.295
20
-161.805
11
39.295
21
-153.155
0
LINE
8
BLACK
6
CONTINUOUS
10
39.295
20
-153.155
11
39.2984
21
-153.136
0
LINE
8
BLACK
6
CONTINUOUS
10
39.2984
20
-153.136
11
39.3117
21
-153.113
0
LINE
8
BLACK
6
CONTINUOUS
10
39.3117
20
-153.113
11
39.3319
21
-153.096
0
LINE
8
BLACK
6
CONTINUOUS
10
39.3319
20
-153.096
11
39.3568
21
-153.087
0
LINE
8
BLACK
6
CONTINUOUS
10
39.3568
20
-153.087
11
39.3695
21
-153.087
0
LINE
8
BLACK
6
CONTINUOUS
10
39.3695
20
-153.087
11
39.3888
21
-153.087
0
LINE
8
BLACK
6
CONTINUOUS
10
39.3888
20
-153.087
11
39.9419
21
-153.001
0
LINE
8
BLACK
6
CONTINUOUS
10
39.9419
20
-153.001
11
40.444
21
-152.765
0
LINE
8
BLACK
6
CONTINUOUS
10
40.444
20
-152.765
11
40.8597
21
-152.398
0
LINE
8
BLACK
6
CONTINUOUS
10
40.8597
20
-152.398
11
41.1557
21
-151.929
0
LINE
8
BLACK
6
CONTINUOUS
10
41.1557
20
-151.929
11
41.3081
21
-151.395
0
LINE
8
BLACK
6
CONTINUOUS
10
41.3081
20
-151.395
11
41.3047
21
-150.841
0
LINE
8
BLACK
6
CONTINUOUS
10
41.3047
20
-150.841
11
41.1458
21
-150.309
0
LINE
8
BLACK
6
CONTINUOUS
10
41.1458
20
-150.309
11
40.8441
21
-149.844
0
LINE
8
BLACK
6
CONTINUOUS
10
40.8441
20
-149.844
11
40.424
21
-149.482
0
LINE
8
BLACK
6
CONTINUOUS
10
40.424
20
-149.482
11
39.9191
21
-149.252
0
LINE
8
BLACK
6
CONTINUOUS
10
39.9191
20
-149.252
11
39.3646
21
-149.173
0
LINE
8
BLACK
6
CONTINUOUS
10
39.3646
20
-149.173
11
39.3568
21
-149.173
0
LINE
8
BLACK
6
CONTINUOUS
10
39.3568
20
-149.173
11
39.3319
21
-149.164
0
LINE
8
BLACK
6
CONTINUOUS
10
39.3319
20
-149.164
11
39.3117
21
-149.147
0
LINE
8
BLACK
6
CONTINUOUS
10
39.3117
20
-149.147
11
39.2984
21
-149.124
0
LINE
8
BLACK
6
CONTINUOUS
10
39.2984
20
-149.124
11
39.295
21
-149.105
0
LINE
8
BLACK
6
CONTINUOUS
10
39.295
20
-149.105
11
39.295
21
-60.9534
0
LINE
8
BLACK
6
CONTINUOUS
10
39.295
20
-60.9534
11
39.2959
21
-60.9482
0
LINE
8
BLACK
6
CONTINUOUS
10
39.2959
20
-60.9482
11
39.3774
21
-60.3791
0
LINE
8
BLACK
6
CONTINUOUS
10
39.3774
20
-60.3791
11
39.3776
21
-60.3781
0
LINE
8
BLACK
6
CONTINUOUS
10
39.3776
20
-60.3781
11
39.3806
21
-60.3684
0
LINE
8
BLACK
6
CONTINUOUS
10
39.3806
20
-60.3684
11
39.3834
21
-60.3586
0
LINE
8
BLACK
6
CONTINUOUS
10
39.3834
20
-60.3586
11
39.6219
21
-59.8342
0
LINE
8
BLACK
6
CONTINUOUS
10
39.6219
20
-59.8342
11
39.6222
21
-59.8333
0
LINE
8
BLACK
6
CONTINUOUS
10
39.6222
20
-59.8333
11
39.6279
21
-59.8248
0
LINE
8
BLACK
6
CONTINUOUS
10
39.6279
20
-59.8248
11
39.6333
21
-59.8163
0
LINE
8
BLACK
6
CONTINUOUS
10
39.6333
20
-59.8163
11
40.0094
21
-59.3798
0
LINE
8
BLACK
6
CONTINUOUS
10
40.0094
20
-59.3798
11
40.01
21
-59.3791
0
LINE
8
BLACK
6
CONTINUOUS
10
40.01
20
-59.3791
11
40.0178
21
-59.3725
0
LINE
8
BLACK
6
CONTINUOUS
10
40.0178
20
-59.3725
11
40.0254
21
-59.3658
0
LINE
8
BLACK
6
CONTINUOUS
10
40.0254
20
-59.3658
11
40.5089
21
-59.0525
0
LINE
8
BLACK
6
CONTINUOUS
10
40.5089
20
-59.0525
11
40.5097
21
-59.052
0
LINE
8
BLACK
6
CONTINUOUS
10
40.5097
20
-59.052
11
40.519
21
-59.0478
0
LINE
8
BLACK
6
CONTINUOUS
10
40.519
20
-59.0478
11
40.5282
21
-59.0435
0
LINE
8
BLACK
6
CONTINUOUS
10
40.5282
20
-59.0435
11
41.0802
21
-58.8785
0
LINE
8
BLACK
6
CONTINUOUS
10
41.0802
20
-58.8785
11
41.081
21
-58.8782
0
LINE
8
BLACK
6
CONTINUOUS
10
41.081
20
-58.8782
11
41.0886
21
-58.8772
0
LINE
8
BLACK
6
CONTINUOUS
10
41.0886
20
-58.8772
11
41.0961
21
-58.8755
0
LINE
8
BLACK
6
CONTINUOUS
10
41.0961
20
-58.8755
11
41.3927
21
-58.8535
0
LINE
8
BLACK
6
CONTINUOUS
10
41.3927
20
-58.8535
11
41.3954
21
-58.853
0
LINE
8
BLACK
6
CONTINUOUS
10
41.3954
20
-58.853
11
161.805
21
-58.853
0
LINE
8
BLACK
6
CONTINUOUS
10
161.805
20
-58.853
11
161.81
21
-58.8539
0
LINE
8
BLACK
6
CONTINUOUS
10
41.4048
20
-59.003
11
41.1153
21
-59.0245
0
LINE
8
BLACK
6
CONTINUOUS
10
41.1153
20
-59.0245
11
40.5815
21
-59.1842
0
LINE
8
BLACK
6
CONTINUOUS
10
40.5815
20
-59.1842
11
40.116
21
-59.4859
0
LINE
8
BLACK
6
CONTINUOUS
10
40.116
20
-59.4859
11
39.754
21
-59.906
0
LINE
8
BLACK
6
CONTINUOUS
10
39.754
20
-59.906
11
39.5244
21
-60.4109
0
LINE
8
BLACK
6
CONTINUOUS
10
39.5244
20
-60.4109
11
39.445
21
-60.9653
0
LINE
8
BLACK
6
CONTINUOUS
10
39.445
20
-60.9653
11
39.445
21
-149.033
0
LINE
8
BLACK
6
CONTINUOUS
10
39.445
20
-149.033
11
39.9509
21
-149.105
0
LINE
8
BLACK
6
CONTINUOUS
10
39.9509
20
-149.105
11
39.9519
21
-149.106
0
LINE
8
BLACK
6
CONTINUOUS
10
39.9519
20
-149.106
11
39.9616
21
-149.109
0
LINE
8
BLACK
6
CONTINUOUS
10
39.9616
20
-149.109
11
39.9714
21
-149.111
0
LINE
8
BLACK
6
CONTINUOUS
10
39.9714
20
-149.111
11
40.4958
21
-149.35
0
LINE
8
BLACK
6
CONTINUOUS
10
40.4958
20
-149.35
11
40.4967
21
-149.35
0
LINE
8
BLACK
6
CONTINUOUS
10
40.4967
20
-149.35
11
40.5052
21
-149.356
0
LINE
8
BLACK
6
CONTINUOUS
10
40.5052
20
-149.356
11
40.5137
21
-149.361
0
LINE
8
BLACK
6
CONTINUOUS
10
40.5137
20
-149.361
11
40.9502
21
-149.737
0
LINE
8
BLACK
6
CONTINUOUS
10
40.9502
20
-149.737
11
40.9509
21
-149.738
0
LINE
8
BLACK
6
CONTINUOUS
10
40.9509
20
-149.738
11
40.9575
21
-149.746
0
LINE
8
BLACK
6
CONTINUOUS
10
40.9575
20
-149.746
11
40.9642
21
-149.753
0
LINE
8
BLACK
6
CONTINUOUS
10
40.9642
20
-149.753
11
41.2775
21
-150.237
0
LINE
8
BLACK
6
CONTINUOUS
10
41.2775
20
-150.237
11
41.278
21
-150.238
0
LINE
8
BLACK
6
CONTINUOUS
10
41.278
20
-150.238
11
41.2822
21
-150.247
0
LINE
8
BLACK
6
CONTINUOUS
10
41.2822
20
-150.247
11
41.2865
21
-150.256
0
LINE
8
BLACK
6
CONTINUOUS
10
41.2865
20
-150.256
11
41.4515
21
-150.808
0
LINE
8
BLACK
6
CONTINUOUS
10
41.4515
20
-150.808
11
41.4518
21
-150.809
0
LINE
8
BLACK
6
CONTINUOUS
10
41.4518
20
-150.809
11
41.4532
21
-150.819
0
LINE
8
BLACK
6
CONTINUOUS
10
41.4532
20
-150.819
11
41.4547
21
-150.829
0
LINE
8
BLACK
6
CONTINUOUS
10
41.4547
20
-150.829
11
41.4582
21
-151.405
0
LINE
8
BLACK
6
CONTINUOUS
10
41.4582
20
-151.405
11
41.4582
21
-151.406
0
LINE
8
BLACK
6
CONTINUOUS
10
41.4582
20
-151.406
11
41.4567
21
-151.416
0
LINE
8
BLACK
6
CONTINUOUS
10
41.4567
20
-151.416
11
41.4553
21
-151.426
0
LINE
8
BLACK
6
CONTINUOUS
10
41.4553
20
-151.426
11
41.297
21
-151.98
0
LINE
8
BLACK
6
CONTINUOUS
10
41.297
20
-151.98
11
41.2967
21
-151.981
0
LINE
8
BLACK
6
CONTINUOUS
10
41.2967
20
-151.981
11
41.2925
21
-151.99
0
LINE
8
BLACK
6
CONTINUOUS
10
41.2925
20
-151.99
11
41.2883
21
-152
0
LINE
8
BLACK
6
CONTINUOUS
10
41.2883
20
-152
11
40.9809
21
-152.487
0
LINE
8
BLACK
6
CONTINUOUS
10
40.9809
20
-152.487
11
40.9804
21
-152.488
0
LINE
8
BLACK
6
CONTINUOUS
10
40.9804
20
-152.488
11
40.9737
21
-152.495
0
LINE
8
BLACK
6
CONTINUOUS
10
40.9737
20
-152.495
11
40.9671
21
-152.503
0
LINE
8
BLACK
6
CONTINUOUS
10
40.9671
20
-152.503
11
40.5353
21
-152.885
0
LINE
8
BLACK
6
CONTINUOUS
10
40.5353
20
-152.885
11
40.5346
21
-152.885
0
LINE
8
BLACK
6
CONTINUOUS
10
40.5346
20
-152.885
11
40.526
21
-152.891
0
LINE
8
BLACK
6
CONTINUOUS
10
40.526
20
-152.891
11
40.5175
21
-152.896
0
LINE
8
BLACK
6
CONTINUOUS
10
40.5175
20
-152.896
11
39.996
21
-153.141
0
LINE
8
BLACK
6
CONTINUOUS
10
39.996
20
-153.141
11
39.9951
21
-153.141
0
LINE
8
BLACK
6
CONTINUOUS
10
39.9951
20
-153.141
11
39.9854
21
-153.144
0
LINE
8
BLACK
6
CONTINUOUS
10
39.9854
20
-153.144
11
39.9756
21
-153.147
0
LINE
8
BLACK
6
CONTINUOUS
10
39.9756
20
-153.147
11
39.445
21
-153.23
0
LINE
8
BLACK
6
CONTINUOUS
10
39.445
20
-153.23
11
39.445
21
-161.795
0
LINE
8
BLACK
6
CONTINUOUS
10
39.445
20
-161.795
11
39.4665
21
-162.085
0
LINE
8
BLACK
6
CONTINUOUS
10
39.4665
20
-162.085
11
39.6262
21
-162.619
0
LINE
8
BLACK
6
CONTINUOUS
10
39.6262
20
-162.619
11
39.9279
21
-163.084
0
LINE
8
BLACK
6
CONTINUOUS
10
39.9279
20
-163.084
11
40.348
21
-163.446
0
LINE
8
BLACK
6
CONTINUOUS
10
40.348
20
-163.446
11
40.8529
21
-163.676
0
LINE
8
BLACK
6
CONTINUOUS
10
40.8529
20
-163.676
11
41.4073
21
-163.755
0
LINE
8
BLACK
6
CONTINUOUS
10
41.4073
20
-163.755
11
161.795
21
-163.755
0
LINE
8
BLACK
6
CONTINUOUS
10
161.795
20
-163.755
11
162.085
21
-163.733
0
LINE
8
BLACK
6
CONTINUOUS
10
162.085
20
-163.733
11
162.619
21
-163.574
0
LINE
8
BLACK
6
CONTINUOUS
10
162.619
20
-163.574
11
163.084
21
-163.272
0
LINE
8
BLACK
6
CONTINUOUS
10
163.084
20
-163.272
11
163.446
21
-162.852
0
LINE
8
BLACK
6
CONTINUOUS
10
163.446
20
-162.852
11
163.676
21
-162.347
0
LINE
8
BLACK
6
CONTINUOUS
10
163.676
20
-162.347
11
163.755
21
-161.793
0
LINE
8
BLACK
6
CONTINUOUS
10
163.755
20
-161.793
11
163.755
21
-153.227
0
LINE
8
BLACK
6
CONTINUOUS
10
163.755
20
-153.227
11
163.249
21
-153.155
0
LINE
8
BLACK
6
CONTINUOUS
10
163.249
20
-153.155
11
163.248
21
-153.154
0
LINE
8
BLACK
6
CONTINUOUS
10
163.248
20
-153.154
11
163.238
21
-153.151
0
LINE
8
BLACK
6
CONTINUOUS
10
163.238
20
-153.151
11
163.229
21
-153.149
0
LINE
8
BLACK
6
CONTINUOUS
10
163.229
20
-153.149
11
162.704
21
-152.91
0
LINE
8
BLACK
6
CONTINUOUS
10
162.704
20
-152.91
11
162.703
21
-152.91
0
LINE
8
BLACK
6
CONTINUOUS
10
162.703
20
-152.91
11
162.695
21
-152.904
0
LINE
8
BLACK
6
CONTINUOUS
10
162.695
20
-152.904
11
162.686
21
-152.899
0
LINE
8
BLACK
6
CONTINUOUS
10
162.686
20
-152.899
11
162.25
21
-152.523
0
LINE
8
BLACK
6
CONTINUOUS
10
162.25
20
-152.523
11
162.249
21
-152.522
0
LINE
8
BLACK
6
CONTINUOUS
10
162.249
20
-152.522
11
162.242
21
-152.514
0
LINE
8
BLACK
6
CONTINUOUS
10
162.242
20
-152.514
11
162.236
21
-152.507
0
LINE
8
BLACK
6
CONTINUOUS
10
162.236
20
-152.507
11
161.922
21
-152.023
0
LINE
8
BLACK
6
CONTINUOUS
10
161.922
20
-152.023
11
161.922
21
-152.022
0
LINE
8
BLACK
6
CONTINUOUS
10
161.922
20
-152.022
11
161.918
21
-152.013
0
LINE
8
BLACK
6
CONTINUOUS
10
161.918
20
-152.013
11
161.914
21
-152.004
0
LINE
8
BLACK
6
CONTINUOUS
10
161.914
20
-152.004
11
161.748
21
-151.452
0
LINE
8
BLACK
6
CONTINUOUS
10
161.748
20
-151.452
11
161.748
21
-151.451
0
LINE
8
BLACK
6
CONTINUOUS
10
161.748
20
-151.451
11
161.747
21
-151.443
0
LINE
8
BLACK
6
CONTINUOUS
10
161.747
20
-151.443
11
161.746
21
-151.436
0
LINE
8
BLACK
6
CONTINUOUS
10
161.746
20
-151.436
11
161.723
21
-151.136
0
LINE
8
BLACK
6
CONTINUOUS
10
161.723
20
-151.136
11
161.723
21
-151.135
0
LINE
8
BLACK
6
CONTINUOUS
10
161.723
20
-151.135
11
161.724
21
-151.127
0
LINE
8
BLACK
6
CONTINUOUS
10
161.724
20
-151.127
11
161.724
21
-151.119
0
LINE
8
BLACK
6
CONTINUOUS
10
161.724
20
-151.119
11
161.805
21
-150.549
0
LINE
8
BLACK
6
CONTINUOUS
10
161.805
20
-150.549
11
161.806
21
-150.548
0
LINE
8
BLACK
6
CONTINUOUS
10
161.806
20
-150.548
11
161.809
21
-150.538
0
LINE
8
BLACK
6
CONTINUOUS
10
161.809
20
-150.538
11
161.811
21
-150.529
0
LINE
8
BLACK
6
CONTINUOUS
10
161.811
20
-150.529
11
162.05
21
-150.004
0
LINE
8
BLACK
6
CONTINUOUS
10
162.05
20
-150.004
11
162.05
21
-150.003
0
LINE
8
BLACK
6
CONTINUOUS
10
162.05
20
-150.003
11
162.056
21
-149.995
0
LINE
8
BLACK
6
CONTINUOUS
10
162.056
20
-149.995
11
162.061
21
-149.986
0
LINE
8
BLACK
6
CONTINUOUS
10
162.061
20
-149.986
11
162.437
21
-149.55
0
LINE
8
BLACK
6
CONTINUOUS
10
162.437
20
-149.55
11
162.438
21
-149.549
0
LINE
8
BLACK
6
CONTINUOUS
10
162.438
20
-149.549
11
162.446
21
-149.543
0
LINE
8
BLACK
6
CONTINUOUS
10
162.446
20
-149.543
11
162.453
21
-149.536
0
LINE
8
BLACK
6
CONTINUOUS
10
162.453
20
-149.536
11
162.937
21
-149.222
0
LINE
8
BLACK
6
CONTINUOUS
10
162.937
20
-149.222
11
162.938
21
-149.222
0
LINE
8
BLACK
6
CONTINUOUS
10
162.938
20
-149.222
11
162.947
21
-149.218
0
LINE
8
BLACK
6
CONTINUOUS
10
162.947
20
-149.218
11
162.956
21
-149.214
0
LINE
8
BLACK
6
CONTINUOUS
10
162.956
20
-149.214
11
163.508
21
-149.048
0
LINE
8
BLACK
6
CONTINUOUS
10
163.508
20
-149.048
11
163.509
21
-149.048
0
LINE
8
BLACK
6
CONTINUOUS
10
163.509
20
-149.048
11
163.517
21
-149.047
0
LINE
8
BLACK
6
CONTINUOUS
10
163.517
20
-149.047
11
163.524
21
-149.046
0
LINE
8
BLACK
6
CONTINUOUS
10
163.524
20
-149.046
11
163.755
21
-149.028
0
LINE
8
BLACK
6
CONTINUOUS
10
163.755
20
-149.028
11
163.755
21
-140.973
0
LINE
8
BLACK
6
CONTINUOUS
10
163.755
20
-140.973
11
163.733
21
-140.683
0
LINE
8
BLACK
6
CONTINUOUS
10
163.733
20
-140.683
11
163.574
21
-140.149
0
LINE
8
BLACK
6
CONTINUOUS
10
163.574
20
-140.149
11
163.272
21
-139.684
0
LINE
8
BLACK
6
CONTINUOUS
10
163.272
20
-139.684
11
162.852
21
-139.322
0
LINE
8
BLACK
6
CONTINUOUS
10
162.852
20
-139.322
11
162.347
21
-139.092
0
LINE
8
BLACK
6
CONTINUOUS
10
162.347
20
-139.092
11
161.793
21
-139.013
0
LINE
8
BLACK
6
CONTINUOUS
10
161.793
20
-139.013
11
146.043
21
-139.013
0
LINE
8
BLACK
6
CONTINUOUS
10
146.043
20
-139.013
11
146.043
21
-139.013
0
LINE
8
BLACK
6
CONTINUOUS
10
146.043
20
-139.013
11
146.037
21
-139.013
0
LINE
8
BLACK
6
CONTINUOUS
10
146.037
20
-139.013
11
146.031
21
-139.011
0
LINE
8
BLACK
6
CONTINUOUS
10
146.031
20
-139.011
11
146.024
21
-139.01
0
LINE
8
BLACK
6
CONTINUOUS
10
146.024
20
-139.01
11
146.018
21
-139.006
0
LINE
8
BLACK
6
CONTINUOUS
10
146.018
20
-139.006
11
146.012
21
-139.004
0
LINE
8
BLACK
6
CONTINUOUS
10
146.012
20
-139.004
11
146.007
21
-139
0
LINE
8
BLACK
6
CONTINUOUS
10
146.007
20
-139
11
146.001
21
-138.996
0
LINE
8
BLACK
6
CONTINUOUS
10
146.001
20
-138.996
11
145.997
21
-138.991
0
LINE
8
BLACK
6
CONTINUOUS
10
145.997
20
-138.991
11
145.992
21
-138.987
0
LINE
8
BLACK
6
CONTINUOUS
10
145.992
20
-138.987
11
145.988
21
-138.981
0
LINE
8
BLACK
6
CONTINUOUS
10
145.988
20
-138.981
11
145.984
21
-138.976
0
LINE
8
BLACK
6
CONTINUOUS
10
145.984
20
-138.976
11
145.982
21
-138.97
0
LINE
8
BLACK
6
CONTINUOUS
10
145.982
20
-138.97
11
145.978
21
-138.964
0
LINE
8
BLACK
6
CONTINUOUS
10
145.978
20
-138.964
11
145.977
21
-138.957
0
LINE
8
BLACK
6
CONTINUOUS
10
145.977
20
-138.957
11
145.975
21
-138.951
0
LINE
8
BLACK
6
CONTINUOUS
10
145.975
20
-138.951
11
145.975
21
-138.945
0
LINE
8
BLACK
6
CONTINUOUS
10
145.975
20
-138.945
11
145.975
21
-138.945
0
LINE
8
BLACK
6
CONTINUOUS
10
145.975
20
-138.945
11
145.975
21
-118.103
0
LINE
8
BLACK
6
CONTINUOUS
10
145.975
20
-118.103
11
145.975
21
-118.097
0
LINE
8
BLACK
6
CONTINUOUS
10
145.975
20
-118.097
11
145.977
21
-118.091
0
LINE
8
BLACK
6
CONTINUOUS
10
145.977
20
-118.091
11
145.978
21
-118.084
0
LINE
8
BLACK
6
CONTINUOUS
10
145.978
20
-118.084
11
145.982
21
-118.078
0
LINE
8
BLACK
6
CONTINUOUS
10
145.982
20
-118.078
11
145.984
21
-118.072
0
LINE
8
BLACK
6
CONTINUOUS
10
145.984
20
-118.072
11
145.988
21
-118.067
0
LINE
8
BLACK
6
CONTINUOUS
10
145.988
20
-118.067
11
145.992
21
-118.061
0
LINE
8
BLACK
6
CONTINUOUS
10
145.992
20
-118.061
11
145.997
21
-118.057
0
LINE
8
BLACK
6
CONTINUOUS
10
145.997
20
-118.057
11
146.001
21
-118.052
0
LINE
8
BLACK
6
CONTINUOUS
10
146.001
20
-118.052
11
146.007
21
-118.048
0
LINE
8
BLACK
6
CONTINUOUS
10
146.007
20
-118.048
11
146.012
21
-118.044
0
LINE
8
BLACK
6
CONTINUOUS
10
146.012
20
-118.044
11
146.018
21
-118.042
0
LINE
8
BLACK
6
CONTINUOUS
10
146.018
20
-118.042
11
146.024
21
-118.038
0
LINE
8
BLACK
6
CONTINUOUS
10
146.024
20
-118.038
11
146.031
21
-118.037
0
LINE
8
BLACK
6
CONTINUOUS
10
146.031
20
-118.037
11
146.037
21
-118.035
0
LINE
8
BLACK
6
CONTINUOUS
10
146.037
20
-118.035
11
146.043
21
-118.035
0
LINE
8
BLACK
6
CONTINUOUS
10
146.043
20
-118.035
11
146.043
21
-118.035
0
LINE
8
BLACK
6
CONTINUOUS
10
146.043
20
-118.035
11
161.795
21
-118.035
0
LINE
8
BLACK
6
CONTINUOUS
10
161.795
20
-118.035
11
162.085
21
-118.013
0
LINE
8
BLACK
6
CONTINUOUS
10
162.085
20
-118.013
11
162.619
21
-117.854
0
LINE
8
BLACK
6
CONTINUOUS
10
162.619
20
-117.854
11
163.084
21
-117.552
0
LINE
8
BLACK
6
CONTINUOUS
10
163.084
20
-117.552
11
163.446
21
-117.132
0
LINE
8
BLACK
6
CONTINUOUS
10
163.446
20
-117.132
11
163.676
21
-116.627
0
LINE
8
BLACK
6
CONTINUOUS
10
163.676
20
-116.627
11
163.755
21
-116.073
0
LINE
8
BLACK
6
CONTINUOUS
10
163.755
20
-116.073
11
163.755
21
-60.9628
0
LINE
8
BLACK
6
CONTINUOUS
10
163.755
20
-60.9628
11
163.733
21
-60.6733
0
LINE
8
BLACK
6
CONTINUOUS
10
163.733
20
-60.6733
11
163.574
21
-60.1395
0
LINE
8
BLACK
6
CONTINUOUS
10
163.574
20
-60.1395
11
163.272
21
-59.674
0
LINE
8
BLACK
6
CONTINUOUS
10
163.272
20
-59.674
11
162.852
21
-59.312
0
LINE
8
BLACK
6
CONTINUOUS
10
162.852
20
-59.312
11
162.347
21
-59.0824
0
LINE
8
BLACK
6
CONTINUOUS
10
162.347
20
-59.0824
11
161.793
21
-59.003
0
LINE
8
BLACK
6
CONTINUOUS
10
161.793
20
-59.003
11
41.4048
21
-59.003
  0
ENDSEC
  0
EOF
