%TF.GenerationSoftware,KiCad,Pcbnew,9.0.8-9.0.8~ubuntu22.04.1*%
%TF.CreationDate,2026-03-23T12:58:11-05:00*%
%TF.ProjectId,ArmBoard,41726d42-6f61-4726-942e-6b696361645f,rev?*%
%TF.SameCoordinates,Original*%
%TF.FileFunction,Soldermask,Top*%
%TF.FilePolarity,Negative*%
%FSLAX46Y46*%
G04 Gerber Fmt 4.6, Leading zero omitted, Abs format (unit mm)*
G04 Created by KiCad (PCBNEW 9.0.8-9.0.8~ubuntu22.04.1) date 2026-03-23 12:58:11*
%MOMM*%
%LPD*%
G01*
G04 APERTURE LIST*
G04 Aperture macros list*
%AMRoundRect*
0 Rectangle with rounded corners*
0 $1 Rounding radius*
0 $2 $3 $4 $5 $6 $7 $8 $9 X,Y pos of 4 corners*
0 Add a 4 corners polygon primitive as box body*
4,1,4,$2,$3,$4,$5,$6,$7,$8,$9,$2,$3,0*
0 Add four circle primitives for the rounded corners*
1,1,$1+$1,$2,$3*
1,1,$1+$1,$4,$5*
1,1,$1+$1,$6,$7*
1,1,$1+$1,$8,$9*
0 Add four rect primitives between the rounded corners*
20,1,$1+$1,$2,$3,$4,$5,0*
20,1,$1+$1,$4,$5,$6,$7,0*
20,1,$1+$1,$6,$7,$8,$9,0*
20,1,$1+$1,$8,$9,$2,$3,0*%
G04 Aperture macros list end*
%ADD10RoundRect,0.237500X-0.237500X0.300000X-0.237500X-0.300000X0.237500X-0.300000X0.237500X0.300000X0*%
%ADD11RoundRect,0.237500X0.300000X0.237500X-0.300000X0.237500X-0.300000X-0.237500X0.300000X-0.237500X0*%
%ADD12R,1.600000X1.400000*%
%ADD13RoundRect,0.237500X-0.250000X-0.237500X0.250000X-0.237500X0.250000X0.237500X-0.250000X0.237500X0*%
%ADD14RoundRect,0.150000X-0.587500X-0.150000X0.587500X-0.150000X0.587500X0.150000X-0.587500X0.150000X0*%
%ADD15C,1.524000*%
%ADD16RoundRect,0.150000X0.150000X-0.825000X0.150000X0.825000X-0.150000X0.825000X-0.150000X-0.825000X0*%
%ADD17RoundRect,0.237500X0.237500X-0.250000X0.237500X0.250000X-0.237500X0.250000X-0.237500X-0.250000X0*%
%ADD18R,1.500000X1.500000*%
%ADD19RoundRect,0.237500X-0.237500X0.287500X-0.237500X-0.287500X0.237500X-0.287500X0.237500X0.287500X0*%
%ADD20RoundRect,0.250000X0.550000X-0.550000X0.550000X0.550000X-0.550000X0.550000X-0.550000X-0.550000X0*%
%ADD21C,1.600000*%
%ADD22RoundRect,0.237500X0.250000X0.237500X-0.250000X0.237500X-0.250000X-0.237500X0.250000X-0.237500X0*%
%ADD23RoundRect,0.237500X-0.300000X-0.237500X0.300000X-0.237500X0.300000X0.237500X-0.300000X0.237500X0*%
%ADD24C,1.100000*%
%ADD25C,1.400000*%
%ADD26C,4.000000*%
%ADD27C,2.000000*%
%ADD28RoundRect,0.237500X-0.237500X0.250000X-0.237500X-0.250000X0.237500X-0.250000X0.237500X0.250000X0*%
%ADD29RoundRect,0.237500X-0.287500X-0.237500X0.287500X-0.237500X0.287500X0.237500X-0.287500X0.237500X0*%
%ADD30C,1.308000*%
%ADD31C,1.208000*%
%ADD32R,0.508000X1.270000*%
%ADD33C,0.800000*%
%ADD34C,6.400000*%
%ADD35C,2.362200*%
%ADD36O,2.200000X3.500000*%
%ADD37R,1.500000X2.500000*%
%ADD38O,1.500000X2.500000*%
%ADD39R,0.914400X0.711200*%
G04 APERTURE END LIST*
D10*
%TO.C,C13*%
X116715000Y-140387500D03*
X116715000Y-142112500D03*
%TD*%
D11*
%TO.C,C15*%
X89462500Y-149750000D03*
X87737500Y-149750000D03*
%TD*%
D12*
%TO.C,SW14*%
X71711000Y-90829000D03*
X78911000Y-90829000D03*
X71711000Y-93829000D03*
X78911000Y-93829000D03*
%TD*%
D13*
%TO.C,R10*%
X89637500Y-170700000D03*
X91462500Y-170700000D03*
%TD*%
D14*
%TO.C,Q1*%
X111506000Y-144592000D03*
X111506000Y-146492000D03*
X113381000Y-145542000D03*
%TD*%
D15*
%TO.C,U3*%
X110210000Y-157465000D03*
X112750000Y-157465000D03*
X115290000Y-157465000D03*
%TD*%
%TO.C,Conn5*%
X125857000Y-110744000D03*
X125857000Y-108204000D03*
X125857000Y-105664000D03*
%TD*%
%TO.C,Conn10*%
X125844300Y-142913100D03*
X125844300Y-140373100D03*
%TD*%
D16*
%TO.C,U6*%
X114810000Y-137200000D03*
X116080000Y-137200000D03*
X117350000Y-137200000D03*
X118620000Y-137200000D03*
X118620000Y-132250000D03*
X117350000Y-132250000D03*
X116080000Y-132250000D03*
X114810000Y-132250000D03*
%TD*%
D12*
%TO.C,SW5*%
X82227000Y-124611000D03*
X89427000Y-124611000D03*
X82227000Y-127611000D03*
X89427000Y-127611000D03*
%TD*%
D17*
%TO.C,R9*%
X116715000Y-129312500D03*
X116715000Y-127487500D03*
%TD*%
D18*
%TO.C,TP2*%
X127250000Y-153150000D03*
%TD*%
D15*
%TO.C,Conn8*%
X131445000Y-94996000D03*
X131445000Y-97536000D03*
X131445000Y-100076000D03*
%TD*%
D12*
%TO.C,SW11*%
X82227000Y-104291000D03*
X89427000Y-104291000D03*
X82227000Y-107291000D03*
X89427000Y-107291000D03*
%TD*%
D15*
%TO.C,Conn11*%
X131559300Y-140500100D03*
X131559300Y-143040100D03*
%TD*%
D17*
%TO.C,R5*%
X116715000Y-111062500D03*
X116715000Y-109237500D03*
%TD*%
D15*
%TO.C,Conn7*%
X125857000Y-100076000D03*
X125857000Y-97536000D03*
X125857000Y-94996000D03*
%TD*%
D19*
%TO.C,D3*%
X98950000Y-161375000D03*
X98950000Y-163125000D03*
%TD*%
D20*
%TO.C,C1*%
X89916000Y-157480000D03*
D21*
X89916000Y-154980000D03*
%TD*%
D19*
%TO.C,D2*%
X98950000Y-165425000D03*
X98950000Y-167175000D03*
%TD*%
D12*
%TO.C,SW4*%
X71711000Y-124611000D03*
X78911000Y-124611000D03*
X71711000Y-127611000D03*
X78911000Y-127611000D03*
%TD*%
D10*
%TO.C,C8*%
X116715000Y-122387500D03*
X116715000Y-124112500D03*
%TD*%
D22*
%TO.C,R26*%
X117012500Y-148200000D03*
X115187500Y-148200000D03*
%TD*%
D23*
%TO.C,C4*%
X115337500Y-155198000D03*
X117062500Y-155198000D03*
%TD*%
D24*
%TO.C,J1*%
X82000000Y-140550000D03*
X84540000Y-141820000D03*
X82000000Y-143090000D03*
X84540000Y-144360000D03*
X82000000Y-145630000D03*
X84540000Y-146900000D03*
X82000000Y-148170000D03*
X84540000Y-149440000D03*
D25*
X70570000Y-138670000D03*
X72360000Y-141210000D03*
X70570000Y-148780000D03*
X72360000Y-151320000D03*
D26*
X75650000Y-139280000D03*
X75650000Y-150710000D03*
D27*
X78700000Y-137120000D03*
X78700000Y-152870000D03*
%TD*%
D28*
%TO.C,R2*%
X97200000Y-165387500D03*
X97200000Y-167212500D03*
%TD*%
D15*
%TO.C,Conn2*%
X125793500Y-127228600D03*
X125793500Y-124688600D03*
%TD*%
D29*
%TO.C,D4*%
X122075000Y-148100000D03*
X123825000Y-148100000D03*
%TD*%
D12*
%TO.C,SW3*%
X82227000Y-131191000D03*
X89427000Y-131191000D03*
X82227000Y-134191000D03*
X89427000Y-134191000D03*
%TD*%
D15*
%TO.C,U2*%
X121060000Y-157465000D03*
X123600000Y-157465000D03*
X126140000Y-157465000D03*
%TD*%
D18*
%TO.C,TP1*%
X108900000Y-153250000D03*
%TD*%
D12*
%TO.C,SW15*%
X82227000Y-90829000D03*
X89427000Y-90829000D03*
X82227000Y-93829000D03*
X89427000Y-93829000D03*
%TD*%
D28*
%TO.C,R1*%
X97155000Y-169013500D03*
X97155000Y-170838500D03*
%TD*%
D12*
%TO.C,SW9*%
X82227000Y-110895000D03*
X89427000Y-110895000D03*
X82227000Y-113895000D03*
X89427000Y-113895000D03*
%TD*%
D15*
%TO.C,Conn13*%
X125793500Y-135039100D03*
X125793500Y-132499100D03*
%TD*%
%TO.C,Conn4*%
X131508500Y-132626100D03*
X131508500Y-135166100D03*
%TD*%
D12*
%TO.C,SW7*%
X82227000Y-117753000D03*
X89427000Y-117753000D03*
X82227000Y-120753000D03*
X89427000Y-120753000D03*
%TD*%
D23*
%TO.C,C5*%
X115337500Y-152200000D03*
X117062500Y-152200000D03*
%TD*%
D11*
%TO.C,C2*%
X121038000Y-155198000D03*
X119313000Y-155198000D03*
%TD*%
D10*
%TO.C,C10*%
X116715000Y-104987500D03*
X116715000Y-106712500D03*
%TD*%
D17*
%TO.C,R7*%
X116715000Y-94362500D03*
X116715000Y-92537500D03*
%TD*%
D16*
%TO.C,U4*%
X114810000Y-119475000D03*
X116080000Y-119475000D03*
X117350000Y-119475000D03*
X118620000Y-119475000D03*
X118620000Y-114525000D03*
X117350000Y-114525000D03*
X116080000Y-114525000D03*
X114810000Y-114525000D03*
%TD*%
D19*
%TO.C,D1*%
X98900000Y-169051000D03*
X98900000Y-170801000D03*
%TD*%
D15*
%TO.C,Conn3*%
X125793500Y-119100600D03*
X125793500Y-116560600D03*
%TD*%
D30*
%TO.C,U1*%
X108610400Y-142290800D03*
X108610400Y-139750800D03*
X108610400Y-137210800D03*
X108610400Y-134670800D03*
X108610400Y-109270800D03*
X93370400Y-139750800D03*
X108610400Y-132130800D03*
X108610400Y-129590800D03*
X108610400Y-127050800D03*
X108610400Y-124510800D03*
X108610400Y-121970800D03*
X108610400Y-119430800D03*
X108610400Y-116890800D03*
X108610400Y-114350800D03*
X108610400Y-111810800D03*
X93370400Y-111810800D03*
X93370400Y-114350800D03*
X93370400Y-116890800D03*
X93370400Y-119430800D03*
X93370400Y-121970800D03*
X93370400Y-124510800D03*
X93370400Y-127050800D03*
X93370400Y-129590800D03*
X93370400Y-132130800D03*
X93370400Y-134670800D03*
X93370400Y-137210800D03*
X108610400Y-106730800D03*
X108610400Y-104190800D03*
X108610400Y-101650800D03*
X108610400Y-99110800D03*
X108610400Y-96570800D03*
X108610400Y-94030800D03*
X108610400Y-91490800D03*
X108610400Y-88950800D03*
X108610400Y-86410800D03*
X93370400Y-86410800D03*
X93370400Y-88950800D03*
X93370400Y-91490800D03*
X93370400Y-94030800D03*
X93370400Y-96570800D03*
X93370400Y-99110800D03*
X93370400Y-101650800D03*
X93370400Y-104190800D03*
X93370400Y-106730800D03*
X108610400Y-144830800D03*
X93370400Y-109270800D03*
X93370400Y-142290800D03*
D31*
X97820400Y-129860800D03*
X97820400Y-131860800D03*
X95820400Y-131860800D03*
X95820400Y-129860800D03*
X99820400Y-129860800D03*
X99820400Y-131860800D03*
D30*
X93370400Y-144830800D03*
%TD*%
D28*
%TO.C,R3*%
X97227200Y-161337500D03*
X97227200Y-163162500D03*
%TD*%
D16*
%TO.C,U5*%
X114810000Y-102075000D03*
X116080000Y-102075000D03*
X117350000Y-102075000D03*
X118620000Y-102075000D03*
X118620000Y-97125000D03*
X117350000Y-97125000D03*
X116080000Y-97125000D03*
X114810000Y-97125000D03*
%TD*%
D15*
%TO.C,Conn9*%
X126370000Y-88950000D03*
X128910000Y-88950000D03*
X131450000Y-88950000D03*
%TD*%
%TO.C,Conn15*%
X131508500Y-116687600D03*
X131508500Y-119227600D03*
%TD*%
D12*
%TO.C,SW10*%
X71711000Y-104291000D03*
X78911000Y-104291000D03*
X71711000Y-107291000D03*
X78911000Y-107291000D03*
%TD*%
D32*
%TO.C,MOSFET1*%
X87045000Y-166666200D03*
X88315000Y-166666200D03*
X89585000Y-166666200D03*
X90855000Y-166666200D03*
X90855000Y-161433800D03*
X89585000Y-161433800D03*
X88315000Y-161433800D03*
X87045000Y-161433800D03*
%TD*%
D12*
%TO.C,SW6*%
X71711000Y-117753000D03*
X78911000Y-117753000D03*
X71711000Y-120753000D03*
X78911000Y-120753000D03*
%TD*%
D33*
%TO.C,H2*%
X130947700Y-77677600D03*
X131650644Y-75980544D03*
X131650644Y-79374656D03*
X133347700Y-75277600D03*
D34*
X133347700Y-77677600D03*
D33*
X133347700Y-80077600D03*
X135044756Y-75980544D03*
X135044756Y-79374656D03*
X135747700Y-77677600D03*
%TD*%
%TO.C,H1*%
X72332160Y-80091560D03*
X70635104Y-79388616D03*
X74029216Y-79388616D03*
X69932160Y-77691560D03*
D34*
X72332160Y-77691560D03*
D33*
X74732160Y-77691560D03*
X70635104Y-75994504D03*
X74029216Y-75994504D03*
X72332160Y-75291560D03*
%TD*%
D12*
%TO.C,SW13*%
X82227000Y-97433000D03*
X89427000Y-97433000D03*
X82227000Y-100433000D03*
X89427000Y-100433000D03*
%TD*%
D15*
%TO.C,Conn14*%
X131508500Y-124815600D03*
X131508500Y-127355600D03*
%TD*%
D12*
%TO.C,SW2*%
X71711000Y-131191000D03*
X78911000Y-131191000D03*
X71711000Y-134191000D03*
X78911000Y-134191000D03*
%TD*%
%TO.C,SW12*%
X71711000Y-97687000D03*
X78911000Y-97687000D03*
X71711000Y-100687000D03*
X78911000Y-100687000D03*
%TD*%
D11*
%TO.C,C3*%
X121012500Y-152200000D03*
X119287500Y-152200000D03*
%TD*%
D12*
%TO.C,SW8*%
X71711000Y-110895000D03*
X78911000Y-110895000D03*
X71711000Y-113895000D03*
X78911000Y-113895000D03*
%TD*%
D35*
%TO.C,J3*%
X78740000Y-160439600D03*
X84239999Y-160439600D03*
%TD*%
D15*
%TO.C,Conn6*%
X131445000Y-105664000D03*
X131445000Y-108204000D03*
X131445000Y-110744000D03*
%TD*%
D33*
%TO.C,H4*%
X74739200Y-169214800D03*
X74036256Y-170911856D03*
X74036256Y-167517744D03*
X72339200Y-171614800D03*
D34*
X72339200Y-169214800D03*
D33*
X72339200Y-166814800D03*
X70642144Y-170911856D03*
X70642144Y-167517744D03*
X69939200Y-169214800D03*
%TD*%
D36*
%TO.C,SW1*%
X84836000Y-83820000D03*
X76636000Y-83820000D03*
D37*
X82736000Y-83820000D03*
D38*
X80736000Y-83820000D03*
X78736000Y-83820000D03*
%TD*%
D39*
%TO.C,D5*%
X84124800Y-170688000D03*
X87376000Y-170688000D03*
%TD*%
D33*
%TO.C,H3*%
X133350000Y-166814800D03*
X135047056Y-167517744D03*
X131652944Y-167517744D03*
X135750000Y-169214800D03*
D34*
X133350000Y-169214800D03*
D33*
X130950000Y-169214800D03*
X135047056Y-170911856D03*
X131652944Y-170911856D03*
X133350000Y-171614800D03*
%TD*%
G36*
X133348461Y-73648251D02*
G01*
X133540142Y-73650521D01*
X133550828Y-73651109D01*
X133933204Y-73688770D01*
X133945241Y-73690556D01*
X134321342Y-73765368D01*
X134333146Y-73768324D01*
X134700124Y-73879645D01*
X134711582Y-73883745D01*
X135065873Y-74030497D01*
X135076873Y-74035700D01*
X135415067Y-74216469D01*
X135425505Y-74222725D01*
X135744360Y-74435778D01*
X135754134Y-74443027D01*
X136050571Y-74686306D01*
X136059587Y-74694478D01*
X136330745Y-74965636D01*
X136338918Y-74974653D01*
X136582196Y-75271090D01*
X136589444Y-75280863D01*
X136802497Y-75599719D01*
X136808753Y-75610157D01*
X136989521Y-75948352D01*
X136994724Y-75959352D01*
X137141476Y-76313643D01*
X137145576Y-76325101D01*
X137256897Y-76692079D01*
X137259853Y-76703883D01*
X137334664Y-77079983D01*
X137336450Y-77092020D01*
X137374110Y-77474398D01*
X137374698Y-77485080D01*
X137376974Y-77676794D01*
X137376983Y-77678272D01*
X137372487Y-169214015D01*
X137372478Y-169215530D01*
X137370129Y-169406966D01*
X137369541Y-169417599D01*
X137331945Y-169799319D01*
X137330159Y-169811356D01*
X137255480Y-170186792D01*
X137252524Y-170198596D01*
X137141399Y-170564924D01*
X137137299Y-170576382D01*
X136990807Y-170930047D01*
X136985604Y-170941047D01*
X136805155Y-171278644D01*
X136798899Y-171289082D01*
X136586223Y-171607373D01*
X136578974Y-171617147D01*
X136336125Y-171913059D01*
X136327953Y-171922075D01*
X136057275Y-172192753D01*
X136048259Y-172200925D01*
X135752347Y-172443774D01*
X135742573Y-172451023D01*
X135424282Y-172663699D01*
X135413844Y-172669955D01*
X135076247Y-172850404D01*
X135065247Y-172855607D01*
X134711582Y-173002099D01*
X134700124Y-173006199D01*
X134333796Y-173117324D01*
X134321992Y-173120280D01*
X133946556Y-173194959D01*
X133934519Y-173196745D01*
X133552799Y-173234341D01*
X133542166Y-173234929D01*
X133350743Y-173237277D01*
X133349203Y-173237286D01*
X72339906Y-173228001D01*
X72338452Y-173227992D01*
X72147517Y-173225723D01*
X72136836Y-173225135D01*
X71756033Y-173187630D01*
X71743996Y-173185844D01*
X71369447Y-173111341D01*
X71357643Y-173108385D01*
X70992180Y-172997523D01*
X70980722Y-172993423D01*
X70627893Y-172847277D01*
X70616893Y-172842074D01*
X70280093Y-172662051D01*
X70269655Y-172655795D01*
X69952116Y-172443622D01*
X69942342Y-172436373D01*
X69647129Y-172194098D01*
X69638113Y-172185926D01*
X69368074Y-171915887D01*
X69359902Y-171906871D01*
X69117627Y-171611658D01*
X69110378Y-171601884D01*
X68898205Y-171284344D01*
X68891949Y-171273906D01*
X68711926Y-170937107D01*
X68706723Y-170926107D01*
X68560576Y-170573278D01*
X68556476Y-170561820D01*
X68445614Y-170196357D01*
X68442658Y-170184553D01*
X68368155Y-169810004D01*
X68366369Y-169797967D01*
X68328864Y-169417165D01*
X68328276Y-169406484D01*
X68326008Y-169215554D01*
X68325999Y-169214091D01*
X68324827Y-153968199D01*
X68344506Y-153901158D01*
X68397307Y-153855399D01*
X68466465Y-153845450D01*
X68530023Y-153874470D01*
X68536508Y-153880508D01*
X69559770Y-154903770D01*
X69593255Y-154965093D01*
X69596089Y-154991234D01*
X69620995Y-169212378D01*
X69620951Y-169214999D01*
X69621000Y-169217346D01*
X69621000Y-169340471D01*
X69644188Y-169590727D01*
X69644189Y-169590728D01*
X69690374Y-169837799D01*
X69759153Y-170079533D01*
X69759158Y-170079548D01*
X69849951Y-170313915D01*
X69849952Y-170313916D01*
X69961977Y-170538893D01*
X69961980Y-170538899D01*
X70094296Y-170752596D01*
X70245755Y-170953159D01*
X70245762Y-170953168D01*
X70415089Y-171138910D01*
X70600831Y-171308237D01*
X70600840Y-171308244D01*
X70801403Y-171459703D01*
X71015100Y-171592019D01*
X71015106Y-171592022D01*
X71240083Y-171704047D01*
X71240084Y-171704048D01*
X71474451Y-171794841D01*
X71474466Y-171794846D01*
X71716200Y-171863625D01*
X71963271Y-171909810D01*
X71963272Y-171909811D01*
X72213530Y-171933001D01*
X72329741Y-171933001D01*
X72330184Y-171932997D01*
X72331323Y-171932992D01*
X133350207Y-171942287D01*
X133476102Y-171942287D01*
X133727210Y-171919018D01*
X133727211Y-171919017D01*
X133975138Y-171872672D01*
X134217685Y-171803661D01*
X134452866Y-171712552D01*
X134678631Y-171600135D01*
X134678638Y-171600131D01*
X134893044Y-171467376D01*
X135094299Y-171315396D01*
X135094307Y-171315389D01*
X135280684Y-171145484D01*
X135450589Y-170959107D01*
X135450596Y-170959099D01*
X135602576Y-170757844D01*
X135735331Y-170543438D01*
X135735335Y-170543431D01*
X135847752Y-170317666D01*
X135938861Y-170082485D01*
X136007872Y-169839938D01*
X136054217Y-169592011D01*
X136054218Y-169592010D01*
X136077487Y-169340900D01*
X136077487Y-169214737D01*
X136081984Y-77677489D01*
X136081984Y-77551146D01*
X136058655Y-77299387D01*
X136058655Y-77299386D01*
X136012198Y-77050868D01*
X135943006Y-76807681D01*
X135851679Y-76571938D01*
X135738977Y-76345601D01*
X135738972Y-76345594D01*
X135605881Y-76130643D01*
X135453524Y-75928889D01*
X135453517Y-75928881D01*
X135283186Y-75742038D01*
X135096343Y-75571707D01*
X135096335Y-75571700D01*
X134894581Y-75419343D01*
X134679630Y-75286252D01*
X134679623Y-75286247D01*
X134453286Y-75173545D01*
X134217543Y-75082218D01*
X133974356Y-75013026D01*
X133725837Y-74966569D01*
X133474077Y-74943242D01*
X133350359Y-74943242D01*
X133349094Y-74943216D01*
X133346888Y-74943237D01*
X133345772Y-74943243D01*
X72334902Y-74973360D01*
X72332565Y-74973339D01*
X72330877Y-74973308D01*
X72328880Y-74973361D01*
X72206492Y-74973361D01*
X71956233Y-74996549D01*
X71956232Y-74996550D01*
X71709161Y-75042735D01*
X71467427Y-75111514D01*
X71467412Y-75111519D01*
X71233045Y-75202312D01*
X71233044Y-75202313D01*
X71008067Y-75314338D01*
X71008061Y-75314341D01*
X70794364Y-75446657D01*
X70593801Y-75598116D01*
X70593792Y-75598123D01*
X70408050Y-75767450D01*
X70238723Y-75953192D01*
X70238716Y-75953201D01*
X70087257Y-76153764D01*
X69954941Y-76367461D01*
X69954938Y-76367467D01*
X69842913Y-76592444D01*
X69842912Y-76592445D01*
X69752119Y-76826812D01*
X69752114Y-76826827D01*
X69683335Y-77068561D01*
X69637150Y-77315632D01*
X69637149Y-77315633D01*
X69613961Y-77565889D01*
X69613961Y-77691565D01*
X69618257Y-135076104D01*
X69598577Y-135143145D01*
X69581300Y-135164428D01*
X68534496Y-136196161D01*
X68472932Y-136229200D01*
X68403278Y-136223711D01*
X68347650Y-136181435D01*
X68323708Y-136115795D01*
X68323453Y-136107856D01*
X68318961Y-77692357D01*
X68318970Y-77690824D01*
X68321315Y-77499851D01*
X68321903Y-77489219D01*
X68359413Y-77108408D01*
X68361199Y-77096371D01*
X68435704Y-76721821D01*
X68438661Y-76710017D01*
X68549518Y-76344578D01*
X68553617Y-76333121D01*
X68699763Y-75980299D01*
X68704966Y-75969299D01*
X68884990Y-75632500D01*
X68891246Y-75622062D01*
X69103412Y-75304534D01*
X69110661Y-75294760D01*
X69352932Y-74999553D01*
X69361104Y-74990537D01*
X69631137Y-74720504D01*
X69640153Y-74712332D01*
X69935360Y-74470061D01*
X69945134Y-74462812D01*
X70262662Y-74250646D01*
X70273100Y-74244390D01*
X70609899Y-74064366D01*
X70620899Y-74059163D01*
X70973721Y-73913017D01*
X70985178Y-73908918D01*
X71350617Y-73798061D01*
X71362421Y-73795104D01*
X71736971Y-73720599D01*
X71749008Y-73718813D01*
X72129819Y-73681303D01*
X72140452Y-73680715D01*
X72331459Y-73678370D01*
X72332920Y-73678361D01*
X133346932Y-73648242D01*
X133348461Y-73648251D01*
G37*
M02*
