%TF.GenerationSoftware,KiCad,Pcbnew,9.0.8-9.0.8~ubuntu22.04.1*%
%TF.CreationDate,2026-03-23T12:58:11-05:00*%
%TF.ProjectId,ArmBoard,41726d42-6f61-4726-942e-6b696361645f,rev?*%
%TF.SameCoordinates,Original*%
%TF.FileFunction,Paste,Top*%
%TF.FilePolarity,Positive*%
%FSLAX46Y46*%
G04 Gerber Fmt 4.6, Leading zero omitted, Abs format (unit mm)*
G04 Created by KiCad (PCBNEW 9.0.8-9.0.8~ubuntu22.04.1) date 2026-03-23 12:58:11*
%MOMM*%
%LPD*%
G01*
G04 APERTURE LIST*
G04 Aperture macros list*
%AMRoundRect*
0 Rectangle with rounded corners*
0 $1 Rounding radius*
0 $2 $3 $4 $5 $6 $7 $8 $9 X,Y pos of 4 corners*
0 Add a 4 corners polygon primitive as box body*
4,1,4,$2,$3,$4,$5,$6,$7,$8,$9,$2,$3,0*
0 Add four circle primitives for the rounded corners*
1,1,$1+$1,$2,$3*
1,1,$1+$1,$4,$5*
1,1,$1+$1,$6,$7*
1,1,$1+$1,$8,$9*
0 Add four rect primitives between the rounded corners*
20,1,$1+$1,$2,$3,$4,$5,0*
20,1,$1+$1,$4,$5,$6,$7,0*
20,1,$1+$1,$6,$7,$8,$9,0*
20,1,$1+$1,$8,$9,$2,$3,0*%
G04 Aperture macros list end*
%ADD10RoundRect,0.237500X-0.237500X0.300000X-0.237500X-0.300000X0.237500X-0.300000X0.237500X0.300000X0*%
%ADD11RoundRect,0.237500X0.300000X0.237500X-0.300000X0.237500X-0.300000X-0.237500X0.300000X-0.237500X0*%
%ADD12R,1.600000X1.400000*%
%ADD13RoundRect,0.237500X-0.250000X-0.237500X0.250000X-0.237500X0.250000X0.237500X-0.250000X0.237500X0*%
%ADD14RoundRect,0.150000X-0.587500X-0.150000X0.587500X-0.150000X0.587500X0.150000X-0.587500X0.150000X0*%
%ADD15RoundRect,0.150000X0.150000X-0.825000X0.150000X0.825000X-0.150000X0.825000X-0.150000X-0.825000X0*%
%ADD16RoundRect,0.237500X0.237500X-0.250000X0.237500X0.250000X-0.237500X0.250000X-0.237500X-0.250000X0*%
%ADD17RoundRect,0.237500X-0.237500X0.287500X-0.237500X-0.287500X0.237500X-0.287500X0.237500X0.287500X0*%
%ADD18RoundRect,0.237500X0.250000X0.237500X-0.250000X0.237500X-0.250000X-0.237500X0.250000X-0.237500X0*%
%ADD19RoundRect,0.237500X-0.300000X-0.237500X0.300000X-0.237500X0.300000X0.237500X-0.300000X0.237500X0*%
%ADD20RoundRect,0.237500X-0.237500X0.250000X-0.237500X-0.250000X0.237500X-0.250000X0.237500X0.250000X0*%
%ADD21RoundRect,0.237500X-0.287500X-0.237500X0.287500X-0.237500X0.287500X0.237500X-0.287500X0.237500X0*%
%ADD22R,0.508000X1.270000*%
%ADD23R,0.914400X0.711200*%
G04 APERTURE END LIST*
D10*
%TO.C,C13*%
X116715000Y-140387500D03*
X116715000Y-142112500D03*
%TD*%
D11*
%TO.C,C15*%
X89462500Y-149750000D03*
X87737500Y-149750000D03*
%TD*%
D12*
%TO.C,SW14*%
X71711000Y-90829000D03*
X78911000Y-90829000D03*
X71711000Y-93829000D03*
X78911000Y-93829000D03*
%TD*%
D13*
%TO.C,R10*%
X89637500Y-170700000D03*
X91462500Y-170700000D03*
%TD*%
D14*
%TO.C,Q1*%
X111506000Y-144592000D03*
X111506000Y-146492000D03*
X113381000Y-145542000D03*
%TD*%
D15*
%TO.C,U6*%
X114810000Y-137200000D03*
X116080000Y-137200000D03*
X117350000Y-137200000D03*
X118620000Y-137200000D03*
X118620000Y-132250000D03*
X117350000Y-132250000D03*
X116080000Y-132250000D03*
X114810000Y-132250000D03*
%TD*%
D12*
%TO.C,SW5*%
X82227000Y-124611000D03*
X89427000Y-124611000D03*
X82227000Y-127611000D03*
X89427000Y-127611000D03*
%TD*%
D16*
%TO.C,R9*%
X116715000Y-129312500D03*
X116715000Y-127487500D03*
%TD*%
D12*
%TO.C,SW11*%
X82227000Y-104291000D03*
X89427000Y-104291000D03*
X82227000Y-107291000D03*
X89427000Y-107291000D03*
%TD*%
D16*
%TO.C,R5*%
X116715000Y-111062500D03*
X116715000Y-109237500D03*
%TD*%
D17*
%TO.C,D3*%
X98950000Y-161375000D03*
X98950000Y-163125000D03*
%TD*%
%TO.C,D2*%
X98950000Y-165425000D03*
X98950000Y-167175000D03*
%TD*%
D12*
%TO.C,SW4*%
X71711000Y-124611000D03*
X78911000Y-124611000D03*
X71711000Y-127611000D03*
X78911000Y-127611000D03*
%TD*%
D10*
%TO.C,C8*%
X116715000Y-122387500D03*
X116715000Y-124112500D03*
%TD*%
D18*
%TO.C,R26*%
X117012500Y-148200000D03*
X115187500Y-148200000D03*
%TD*%
D19*
%TO.C,C4*%
X115337500Y-155198000D03*
X117062500Y-155198000D03*
%TD*%
D20*
%TO.C,R2*%
X97200000Y-165387500D03*
X97200000Y-167212500D03*
%TD*%
D21*
%TO.C,D4*%
X122075000Y-148100000D03*
X123825000Y-148100000D03*
%TD*%
D12*
%TO.C,SW3*%
X82227000Y-131191000D03*
X89427000Y-131191000D03*
X82227000Y-134191000D03*
X89427000Y-134191000D03*
%TD*%
%TO.C,SW15*%
X82227000Y-90829000D03*
X89427000Y-90829000D03*
X82227000Y-93829000D03*
X89427000Y-93829000D03*
%TD*%
D20*
%TO.C,R1*%
X97155000Y-169013500D03*
X97155000Y-170838500D03*
%TD*%
D12*
%TO.C,SW9*%
X82227000Y-110895000D03*
X89427000Y-110895000D03*
X82227000Y-113895000D03*
X89427000Y-113895000D03*
%TD*%
%TO.C,SW7*%
X82227000Y-117753000D03*
X89427000Y-117753000D03*
X82227000Y-120753000D03*
X89427000Y-120753000D03*
%TD*%
D19*
%TO.C,C5*%
X115337500Y-152200000D03*
X117062500Y-152200000D03*
%TD*%
D11*
%TO.C,C2*%
X121038000Y-155198000D03*
X119313000Y-155198000D03*
%TD*%
D10*
%TO.C,C10*%
X116715000Y-104987500D03*
X116715000Y-106712500D03*
%TD*%
D16*
%TO.C,R7*%
X116715000Y-94362500D03*
X116715000Y-92537500D03*
%TD*%
D15*
%TO.C,U4*%
X114810000Y-119475000D03*
X116080000Y-119475000D03*
X117350000Y-119475000D03*
X118620000Y-119475000D03*
X118620000Y-114525000D03*
X117350000Y-114525000D03*
X116080000Y-114525000D03*
X114810000Y-114525000D03*
%TD*%
D17*
%TO.C,D1*%
X98900000Y-169051000D03*
X98900000Y-170801000D03*
%TD*%
D20*
%TO.C,R3*%
X97227200Y-161337500D03*
X97227200Y-163162500D03*
%TD*%
D15*
%TO.C,U5*%
X114810000Y-102075000D03*
X116080000Y-102075000D03*
X117350000Y-102075000D03*
X118620000Y-102075000D03*
X118620000Y-97125000D03*
X117350000Y-97125000D03*
X116080000Y-97125000D03*
X114810000Y-97125000D03*
%TD*%
D12*
%TO.C,SW10*%
X71711000Y-104291000D03*
X78911000Y-104291000D03*
X71711000Y-107291000D03*
X78911000Y-107291000D03*
%TD*%
D22*
%TO.C,MOSFET1*%
X87045000Y-166666200D03*
X88315000Y-166666200D03*
X89585000Y-166666200D03*
X90855000Y-166666200D03*
X90855000Y-161433800D03*
X89585000Y-161433800D03*
X88315000Y-161433800D03*
X87045000Y-161433800D03*
%TD*%
D12*
%TO.C,SW6*%
X71711000Y-117753000D03*
X78911000Y-117753000D03*
X71711000Y-120753000D03*
X78911000Y-120753000D03*
%TD*%
%TO.C,SW13*%
X82227000Y-97433000D03*
X89427000Y-97433000D03*
X82227000Y-100433000D03*
X89427000Y-100433000D03*
%TD*%
%TO.C,SW2*%
X71711000Y-131191000D03*
X78911000Y-131191000D03*
X71711000Y-134191000D03*
X78911000Y-134191000D03*
%TD*%
%TO.C,SW12*%
X71711000Y-97687000D03*
X78911000Y-97687000D03*
X71711000Y-100687000D03*
X78911000Y-100687000D03*
%TD*%
D11*
%TO.C,C3*%
X121012500Y-152200000D03*
X119287500Y-152200000D03*
%TD*%
D12*
%TO.C,SW8*%
X71711000Y-110895000D03*
X78911000Y-110895000D03*
X71711000Y-113895000D03*
X78911000Y-113895000D03*
%TD*%
D23*
%TO.C,D5*%
X84124800Y-170688000D03*
X87376000Y-170688000D03*
%TD*%
M02*
