M48
; DRILL file {KiCad 9.0.8-9.0.8~ubuntu22.04.1} date 2026-03-23T12:58:04-0500
; FORMAT={-:-/ absolute / inch / decimal}
; #@! TF.CreationDate,2026-03-23T12:58:04-05:00
; #@! TF.GenerationSoftware,Kicad,Pcbnew,9.0.8-9.0.8~ubuntu22.04.1
; #@! TF.FileFunction,Plated,1,2,PTH
FMAT,2
INCH
; #@! TA.AperFunction,Plated,PTH,ViaDrill
T1C0.0118
; #@! TA.AperFunction,Plated,PTH,ComponentDrill
T2C0.0197
; #@! TA.AperFunction,Plated,PTH,ComponentDrill
T3C0.0276
; #@! TA.AperFunction,Plated,PTH,ComponentDrill
T4C0.0315
; #@! TA.AperFunction,Plated,PTH,ComponentDrill
T5C0.0350
; #@! TA.AperFunction,Plated,PTH,ComponentDrill
T6C0.0354
; #@! TA.AperFunction,Plated,PTH,ComponentDrill
T7C0.0402
; #@! TA.AperFunction,Plated,PTH,ComponentDrill
T8C0.0591
; #@! TA.AperFunction,Plated,PTH,ComponentDrill
T9C0.0630
; #@! TA.AperFunction,Plated,PTH,ComponentDrill
T10C0.0730
; #@! TA.AperFunction,Plated,PTH,ComponentDrill
T11C0.1160
; #@! TA.AperFunction,Plated,PTH,ComponentDrill
T12C0.1280
%
G90
G05
T1
X2.72Y-3.165
X2.72Y-3.365
X2.72Y-3.565
X2.72Y-3.765
X2.72Y-3.965
X2.72Y-4.165
X2.72Y-4.365
X2.72Y-4.565
X2.72Y-4.765
X2.72Y-4.965
X2.72Y-5.165
X2.72Y-5.3
X2.72Y-5.375
X2.72Y-5.565
X2.72Y-5.765
X2.72Y-5.965
X2.72Y-6.1
X2.72Y-6.165
X2.72Y-6.365
X2.72Y-6.565
X2.8799Y-5.5138
X2.89Y-3.27
X2.89Y-3.4
X2.89Y-3.51
X2.89Y-3.63
X2.89Y-3.78
X2.89Y-3.9
X2.89Y-4.04
X2.89Y-4.16
X2.89Y-4.3
X2.89Y-4.42
X2.89Y-4.57
X2.89Y-4.69
X2.89Y-4.84
X2.89Y-4.96
X2.89Y-5.1
X2.89Y-5.22
X2.89Y-5.39
X2.89Y-5.61
X2.89Y-5.73
X2.93Y-6.22
X2.935Y-5.7815
X2.945Y-2.93
X2.965Y-6.79
X3.01Y-6.54
X3.01Y-6.635
X3.01Y-6.74
X3.0217Y-6.0295
X3.0374Y-5.3878
X3.09Y-3.51
X3.09Y-3.63
X3.09Y-3.78
X3.09Y-3.9
X3.09Y-4.04
X3.09Y-4.16
X3.09Y-4.3
X3.09Y-4.42
X3.09Y-4.57
X3.09Y-4.69
X3.09Y-4.84
X3.09Y-4.96
X3.09Y-5.1
X3.09Y-5.22
X3.09Y-5.51
X3.09Y-5.61
X3.09Y-5.73
X3.1Y-2.93
X3.1Y-3.16
X3.13Y-5.82
X3.13Y-6.22
X3.13Y-6.54
X3.13Y-6.74
X3.1614Y-6.0138
X3.165Y-6.79
X3.175Y-6.405
X3.235Y-6.74
X3.275Y-6.54
X3.275Y-6.635
X3.29Y-3.51
X3.29Y-3.63
X3.29Y-3.78
X3.29Y-3.9
X3.29Y-4.04
X3.29Y-4.16
X3.29Y-4.3
X3.29Y-4.42
X3.29Y-4.57
X3.29Y-4.69
X3.29Y-4.84
X3.29Y-4.96
X3.29Y-5.1
X3.29Y-5.22
X3.29Y-5.39
X3.29Y-5.61
X3.3Y-2.93
X3.3Y-3.16
X3.3Y-6.46
X3.3012Y-6.0197
X3.33Y-6.22
X3.365Y-6.79
X3.44Y-5.8
X3.49Y-3.51
X3.49Y-3.63
X3.49Y-3.78
X3.49Y-3.9
X3.49Y-4.04
X3.49Y-4.16
X3.49Y-4.3
X3.49Y-4.42
X3.49Y-4.57
X3.49Y-4.69
X3.49Y-4.84
X3.49Y-4.96
X3.49Y-5.1
X3.49Y-5.22
X3.49Y-5.39
X3.49Y-5.73
X3.5Y-2.93
X3.5Y-3.16
X3.53Y-5.94
X3.5335Y-6.6102
X3.56Y-5.8
X3.565Y-6.79
X3.5853Y-3.3807
X3.626Y-6.0
X3.6417Y-5.9331
X3.7Y-2.93
X3.7Y-3.16
X3.7323Y-5.8386
X3.76Y-6.59
X3.76Y-6.75
X3.7618Y-5.5649
X3.7618Y-6.6339
X3.765Y-6.79
X3.78Y-3.42
X3.78Y-3.62
X3.78Y-3.82
X3.78Y-4.02
X3.78Y-4.22
X3.78Y-4.42
X3.78Y-4.62
X3.78Y-4.82
X3.7855Y-5.5886
X3.9Y-2.93
X3.9Y-3.16
X3.955Y-6.65
X3.96Y-6.59
X3.96Y-6.75
X3.965Y-6.79
X3.98Y-3.42
X3.98Y-3.62
X3.98Y-3.82
X3.98Y-4.02
X3.98Y-4.22
X3.98Y-4.42
X3.98Y-4.62
X3.98Y-4.82
X3.98Y-5.02
X3.98Y-5.42
X3.98Y-5.62
X3.98Y-5.84
X4.086Y-6.382
X4.1Y-2.93
X4.1Y-3.16
X4.1Y-6.03
X4.13Y-5.84
X4.16Y-6.58
X4.16Y-6.75
X4.1634Y-3.9665
X4.164Y-4.996
X4.165Y-6.79
X4.18Y-3.42
X4.18Y-3.62
X4.18Y-3.82
X4.18Y-4.02
X4.18Y-4.22
X4.18Y-4.42
X4.18Y-4.62
X4.18Y-4.82
X4.18Y-5.62
X4.2Y-5.91
X4.2Y-6.05
X4.2158Y-3.59
X4.27Y-5.91
X4.3Y-2.93
X4.3Y-3.16
X4.318Y-4.262
X4.33Y-5.78
X4.3307Y-6.3406
X4.333Y-5.373
X4.3346Y-3.5748
X4.3425Y-4.3228
X4.3543Y-5.4606
X4.357Y-4.072
X4.36Y-3.94
X4.36Y-6.57
X4.36Y-6.75
X4.3642Y-5.5866
X4.365Y-6.79
X4.3661Y-3.6024
X4.3681Y-6.05
X4.38Y-6.338
X4.3839Y-4.7657
X4.402Y-3.502
X4.4035Y-4.0098
X4.41Y-5.646
X4.419Y-4.919
X4.42Y-4.78
X4.43Y-4.45
X4.43Y-4.66
X4.46Y-5.03
X4.46Y-5.23
X4.4606Y-5.439
X4.48Y-4.22
X4.5Y-2.93
X4.5Y-3.16
X4.5079Y-5.0197
X4.52Y-4.9
X4.5256Y-4.4154
X4.53Y-5.66
X4.5315Y-5.1181
X4.54Y-4.45
X4.54Y-6.47
X4.54Y-6.67
X4.5453Y-5.5571
X4.55Y-4.79
X4.5512Y-4.9685
X4.565Y-6.79
X4.57Y-5.79
X4.57Y-5.88
X4.58Y-3.93
X4.5984Y-4.9685
X4.6024Y-5.1437
X4.61Y-6.05
X4.611Y-3.322
X4.6122Y-5.6575
X4.62Y-5.95
X4.6201Y-4.439
X4.6378Y-4.4055
X4.6437Y-4.2205
X4.6535Y-3.7618
X4.6535Y-5.872
X4.66Y-4.9
X4.6614Y-3.6654
X4.6614Y-5.8209
X4.685Y-4.0846
X4.6856Y-4.7663
X4.689Y-4.5846
X4.69Y-5.66
X4.69Y-5.79
X4.69Y-5.94
X4.69Y-6.05
X4.6989Y-5.8845
X4.7Y-2.93
X4.7Y-3.16
X4.7Y-5.51
X4.71Y-4.39
X4.71Y-4.96
X4.7126Y-4.4331
X4.7126Y-4.8937
X4.7172Y-4.1068
X4.72Y-5.23
X4.7217Y-5.4327
X4.7382Y-4.7894
X4.74Y-3.61
X4.74Y-3.71
X4.74Y-3.85
X4.74Y-3.99
X4.74Y-6.47
X4.74Y-6.67
X4.76Y-5.7677
X4.7617Y-4.5796
X4.7638Y-3.7362
X4.765Y-6.79
X4.7854Y-5.935
X4.793Y-3.7149
X4.793Y-4.576
X4.7953Y-5.4882
X4.7983Y-4.72
X4.8228Y-3.8406
X4.8228Y-3.8917
X4.8228Y-5.4567
X4.8228Y-5.626
X4.823Y-4.2894
X4.823Y-4.435
X4.8248Y-3.6181
X4.83Y-6.05
X4.87Y-4.17
X4.87Y-4.326
X4.88Y-3.73
X4.8819Y-6.0315
X4.89Y-4.55
X4.89Y-4.86
X4.89Y-5.17
X4.89Y-5.48
X4.89Y-5.98
X4.891Y-5.728
X4.9Y-2.93
X4.9Y-3.16
X4.9Y-3.36
X4.94Y-6.47
X4.94Y-6.67
X4.9449Y-3.5748
X4.95Y-4.02
X4.965Y-6.79
X4.99Y-5.76
X5.01Y-4.31
X5.01Y-5.7
X5.03Y-4.55
X5.03Y-4.86
X5.03Y-5.17
X5.03Y-5.48
X5.04Y-5.86
X5.042Y-5.32
X5.048Y-4.686
X5.057Y-5.015
X5.07Y-3.61
X5.09Y-4.17
X5.105Y-2.93
X5.11Y-3.79
X5.11Y-4.65
X5.11Y-4.96
X5.11Y-5.27
X5.11Y-5.58
X5.11Y-5.76
X5.14Y-6.47
X5.165Y-6.79
X5.25Y-3.36
X5.25Y-3.56
X5.25Y-3.76
X5.25Y-3.96
X5.25Y-4.16
X5.25Y-4.36
X5.25Y-4.56
X5.25Y-4.76
X5.25Y-4.96
X5.25Y-5.16
X5.25Y-5.36
X5.25Y-5.56
X5.25Y-5.76
X5.25Y-5.96
X5.25Y-6.16
X5.25Y-6.36
X5.38Y-3.185
X5.38Y-3.36
X5.38Y-3.56
X5.38Y-3.76
X5.38Y-3.96
X5.38Y-4.16
X5.38Y-4.36
X5.38Y-4.56
X5.38Y-4.76
X5.38Y-4.96
X5.38Y-5.16
X5.38Y-5.36
X5.38Y-5.56
X5.38Y-5.76
X5.38Y-5.96
X5.38Y-6.16
X5.38Y-6.36
X5.38Y-6.51
T2
X2.7532Y-3.0587
X2.7535Y-6.662
X2.7809Y-2.9919
X2.7809Y-3.1255
X2.7812Y-6.5952
X2.7812Y-6.7288
X2.8477Y-2.9642
X2.8477Y-3.1532
X2.848Y-6.5675
X2.848Y-6.7565
X2.9145Y-2.9919
X2.9145Y-3.1255
X2.9148Y-6.5952
X2.9148Y-6.7288
X2.9422Y-3.0587
X2.9425Y-6.662
X5.1554Y-3.0582
X5.1555Y-6.662
X5.1831Y-2.9914
X5.1831Y-3.125
X5.1832Y-6.5952
X5.1832Y-6.7288
X5.2499Y-2.9637
X5.2499Y-3.1527
X5.25Y-6.5675
X5.25Y-6.7565
X5.3167Y-2.9914
X5.3167Y-3.125
X5.3168Y-6.5952
X5.3168Y-6.7288
X5.3444Y-3.0582
X5.3445Y-6.662
T3
X3.7725Y-5.1126
X3.7725Y-5.1914
X3.8512Y-5.1126
X3.8512Y-5.1914
X3.9299Y-5.1126
X3.9299Y-5.1914
T4
X3.54Y-6.1016
X3.54Y-6.2
X3.676Y-3.402
X3.676Y-3.502
X3.676Y-3.602
X3.676Y-3.702
X3.676Y-3.802
X3.676Y-3.902
X3.676Y-4.002
X3.676Y-4.102
X3.676Y-4.202
X3.676Y-4.302
X3.676Y-4.402
X3.676Y-4.502
X3.676Y-4.602
X3.676Y-4.702
X3.676Y-4.802
X3.676Y-4.902
X3.676Y-5.002
X3.676Y-5.102
X3.676Y-5.202
X3.676Y-5.302
X3.676Y-5.402
X3.676Y-5.502
X3.676Y-5.602
X3.676Y-5.702
X4.276Y-3.402
X4.276Y-3.502
X4.276Y-3.602
X4.276Y-3.702
X4.276Y-3.802
X4.276Y-3.902
X4.276Y-4.002
X4.276Y-4.102
X4.276Y-4.202
X4.276Y-4.302
X4.276Y-4.402
X4.276Y-4.502
X4.276Y-4.602
X4.276Y-4.702
X4.276Y-4.802
X4.276Y-4.902
X4.276Y-5.002
X4.276Y-5.102
X4.276Y-5.202
X4.276Y-5.302
X4.276Y-5.402
X4.276Y-5.502
X4.276Y-5.602
X4.276Y-5.702
T5
X4.339Y-6.1994
X4.439Y-6.1994
X4.539Y-6.1994
X4.7661Y-6.1994
X4.8661Y-6.1994
X4.9661Y-6.1994
T6
X3.0998Y-3.3
X3.1786Y-3.3
X3.2283Y-5.5335
X3.2283Y-5.6335
X3.2283Y-5.7335
X3.2283Y-5.8335
X3.2573Y-3.3
X3.3283Y-5.5835
X3.3283Y-5.6835
X3.3283Y-5.7835
X3.3283Y-5.8835
X4.9525Y-4.589
X4.9525Y-4.689
X4.9525Y-4.909
X4.9525Y-5.009
X4.9525Y-5.2165
X4.9525Y-5.3165
X4.9545Y-5.5265
X4.9545Y-5.6265
X4.955Y-3.74
X4.955Y-3.84
X4.955Y-3.94
X4.955Y-4.16
X4.955Y-4.26
X4.955Y-4.36
X4.9752Y-3.502
X5.0752Y-3.502
X5.175Y-3.74
X5.175Y-3.84
X5.175Y-3.94
X5.175Y-4.16
X5.175Y-4.26
X5.175Y-4.36
X5.1752Y-3.502
X5.1775Y-4.594
X5.1775Y-4.694
X5.1775Y-4.914
X5.1775Y-5.014
X5.1775Y-5.2215
X5.1775Y-5.3215
X5.1795Y-5.5315
X5.1795Y-5.6315
T7
X2.7783Y-5.4594
X2.7783Y-5.8575
X2.8488Y-5.5594
X2.8488Y-5.9575
T8
X3.0172Y-3.3
X3.34Y-3.3
T9
X3.0984Y-5.3984
X3.0984Y-6.0185
T10
X3.1Y-6.3165
X3.3165Y-6.3165
T11
X2.8477Y-3.0587
X2.848Y-6.662
X5.2499Y-3.0582
X5.25Y-6.662
T12
X2.9783Y-5.4835
X2.9783Y-5.9335
M30
