G75*
%MOIN*%
%OFA0B0*%
%FSLAX24Y24*%
%IPPOS*%
%LPD*%
%AMOC8*
5,1,8,0,0,1.08239X$1,22.5*
%
%ADD10C,0.0000*%
%ADD11R,0.0150X0.0300*%
%ADD12C,0.0220*%
%ADD13R,0.0300X0.0150*%
%ADD14C,0.0080*%
D10*
X010443Y007143D02*
X010443Y027843D01*
X073193Y027843D01*
X073193Y007143D01*
X010443Y007143D01*
X024973Y016393D02*
X024975Y016424D01*
X024981Y016455D01*
X024991Y016485D01*
X025004Y016513D01*
X025021Y016540D01*
X025041Y016564D01*
X025064Y016586D01*
X025089Y016604D01*
X025117Y016619D01*
X025146Y016631D01*
X025176Y016639D01*
X025207Y016643D01*
X025239Y016643D01*
X025270Y016639D01*
X025300Y016631D01*
X025329Y016619D01*
X025357Y016604D01*
X025382Y016586D01*
X025405Y016564D01*
X025425Y016540D01*
X025442Y016513D01*
X025455Y016485D01*
X025465Y016455D01*
X025471Y016424D01*
X025473Y016393D01*
X025471Y016362D01*
X025465Y016331D01*
X025455Y016301D01*
X025442Y016273D01*
X025425Y016246D01*
X025405Y016222D01*
X025382Y016200D01*
X025357Y016182D01*
X025329Y016167D01*
X025300Y016155D01*
X025270Y016147D01*
X025239Y016143D01*
X025207Y016143D01*
X025176Y016147D01*
X025146Y016155D01*
X025117Y016167D01*
X025089Y016182D01*
X025064Y016200D01*
X025041Y016222D01*
X025021Y016246D01*
X025004Y016273D01*
X024991Y016301D01*
X024981Y016331D01*
X024975Y016362D01*
X024973Y016393D01*
X029693Y016393D02*
X029695Y016424D01*
X029701Y016455D01*
X029711Y016485D01*
X029724Y016513D01*
X029741Y016540D01*
X029761Y016564D01*
X029784Y016586D01*
X029809Y016604D01*
X029837Y016619D01*
X029866Y016631D01*
X029896Y016639D01*
X029927Y016643D01*
X029959Y016643D01*
X029990Y016639D01*
X030020Y016631D01*
X030049Y016619D01*
X030077Y016604D01*
X030102Y016586D01*
X030125Y016564D01*
X030145Y016540D01*
X030162Y016513D01*
X030175Y016485D01*
X030185Y016455D01*
X030191Y016424D01*
X030193Y016393D01*
X030191Y016362D01*
X030185Y016331D01*
X030175Y016301D01*
X030162Y016273D01*
X030145Y016246D01*
X030125Y016222D01*
X030102Y016200D01*
X030077Y016182D01*
X030049Y016167D01*
X030020Y016155D01*
X029990Y016147D01*
X029959Y016143D01*
X029927Y016143D01*
X029896Y016147D01*
X029866Y016155D01*
X029837Y016167D01*
X029809Y016182D01*
X029784Y016200D01*
X029761Y016222D01*
X029741Y016246D01*
X029724Y016273D01*
X029711Y016301D01*
X029701Y016331D01*
X029695Y016362D01*
X029693Y016393D01*
X029693Y019643D02*
X029695Y019674D01*
X029701Y019705D01*
X029711Y019735D01*
X029724Y019763D01*
X029741Y019790D01*
X029761Y019814D01*
X029784Y019836D01*
X029809Y019854D01*
X029837Y019869D01*
X029866Y019881D01*
X029896Y019889D01*
X029927Y019893D01*
X029959Y019893D01*
X029990Y019889D01*
X030020Y019881D01*
X030049Y019869D01*
X030077Y019854D01*
X030102Y019836D01*
X030125Y019814D01*
X030145Y019790D01*
X030162Y019763D01*
X030175Y019735D01*
X030185Y019705D01*
X030191Y019674D01*
X030193Y019643D01*
X030191Y019612D01*
X030185Y019581D01*
X030175Y019551D01*
X030162Y019523D01*
X030145Y019496D01*
X030125Y019472D01*
X030102Y019450D01*
X030077Y019432D01*
X030049Y019417D01*
X030020Y019405D01*
X029990Y019397D01*
X029959Y019393D01*
X029927Y019393D01*
X029896Y019397D01*
X029866Y019405D01*
X029837Y019417D01*
X029809Y019432D01*
X029784Y019450D01*
X029761Y019472D01*
X029741Y019496D01*
X029724Y019523D01*
X029711Y019551D01*
X029701Y019581D01*
X029695Y019612D01*
X029693Y019643D01*
X024973Y019643D02*
X024975Y019674D01*
X024981Y019705D01*
X024991Y019735D01*
X025004Y019763D01*
X025021Y019790D01*
X025041Y019814D01*
X025064Y019836D01*
X025089Y019854D01*
X025117Y019869D01*
X025146Y019881D01*
X025176Y019889D01*
X025207Y019893D01*
X025239Y019893D01*
X025270Y019889D01*
X025300Y019881D01*
X025329Y019869D01*
X025357Y019854D01*
X025382Y019836D01*
X025405Y019814D01*
X025425Y019790D01*
X025442Y019763D01*
X025455Y019735D01*
X025465Y019705D01*
X025471Y019674D01*
X025473Y019643D01*
X025471Y019612D01*
X025465Y019581D01*
X025455Y019551D01*
X025442Y019523D01*
X025425Y019496D01*
X025405Y019472D01*
X025382Y019450D01*
X025357Y019432D01*
X025329Y019417D01*
X025300Y019405D01*
X025270Y019397D01*
X025239Y019393D01*
X025207Y019393D01*
X025176Y019397D01*
X025146Y019405D01*
X025117Y019417D01*
X025089Y019432D01*
X025064Y019450D01*
X025041Y019472D01*
X025021Y019496D01*
X025004Y019523D01*
X024991Y019551D01*
X024981Y019581D01*
X024975Y019612D01*
X024973Y019643D01*
X024973Y022893D02*
X024975Y022924D01*
X024981Y022955D01*
X024991Y022985D01*
X025004Y023013D01*
X025021Y023040D01*
X025041Y023064D01*
X025064Y023086D01*
X025089Y023104D01*
X025117Y023119D01*
X025146Y023131D01*
X025176Y023139D01*
X025207Y023143D01*
X025239Y023143D01*
X025270Y023139D01*
X025300Y023131D01*
X025329Y023119D01*
X025357Y023104D01*
X025382Y023086D01*
X025405Y023064D01*
X025425Y023040D01*
X025442Y023013D01*
X025455Y022985D01*
X025465Y022955D01*
X025471Y022924D01*
X025473Y022893D01*
X025471Y022862D01*
X025465Y022831D01*
X025455Y022801D01*
X025442Y022773D01*
X025425Y022746D01*
X025405Y022722D01*
X025382Y022700D01*
X025357Y022682D01*
X025329Y022667D01*
X025300Y022655D01*
X025270Y022647D01*
X025239Y022643D01*
X025207Y022643D01*
X025176Y022647D01*
X025146Y022655D01*
X025117Y022667D01*
X025089Y022682D01*
X025064Y022700D01*
X025041Y022722D01*
X025021Y022746D01*
X025004Y022773D01*
X024991Y022801D01*
X024981Y022831D01*
X024975Y022862D01*
X024973Y022893D01*
X022693Y022893D02*
X022695Y022924D01*
X022701Y022955D01*
X022711Y022985D01*
X022724Y023013D01*
X022741Y023040D01*
X022761Y023064D01*
X022784Y023086D01*
X022809Y023104D01*
X022837Y023119D01*
X022866Y023131D01*
X022896Y023139D01*
X022927Y023143D01*
X022959Y023143D01*
X022990Y023139D01*
X023020Y023131D01*
X023049Y023119D01*
X023077Y023104D01*
X023102Y023086D01*
X023125Y023064D01*
X023145Y023040D01*
X023162Y023013D01*
X023175Y022985D01*
X023185Y022955D01*
X023191Y022924D01*
X023193Y022893D01*
X023191Y022862D01*
X023185Y022831D01*
X023175Y022801D01*
X023162Y022773D01*
X023145Y022746D01*
X023125Y022722D01*
X023102Y022700D01*
X023077Y022682D01*
X023049Y022667D01*
X023020Y022655D01*
X022990Y022647D01*
X022959Y022643D01*
X022927Y022643D01*
X022896Y022647D01*
X022866Y022655D01*
X022837Y022667D01*
X022809Y022682D01*
X022784Y022700D01*
X022761Y022722D01*
X022741Y022746D01*
X022724Y022773D01*
X022711Y022801D01*
X022701Y022831D01*
X022695Y022862D01*
X022693Y022893D01*
X017973Y022893D02*
X017975Y022924D01*
X017981Y022955D01*
X017991Y022985D01*
X018004Y023013D01*
X018021Y023040D01*
X018041Y023064D01*
X018064Y023086D01*
X018089Y023104D01*
X018117Y023119D01*
X018146Y023131D01*
X018176Y023139D01*
X018207Y023143D01*
X018239Y023143D01*
X018270Y023139D01*
X018300Y023131D01*
X018329Y023119D01*
X018357Y023104D01*
X018382Y023086D01*
X018405Y023064D01*
X018425Y023040D01*
X018442Y023013D01*
X018455Y022985D01*
X018465Y022955D01*
X018471Y022924D01*
X018473Y022893D01*
X018471Y022862D01*
X018465Y022831D01*
X018455Y022801D01*
X018442Y022773D01*
X018425Y022746D01*
X018405Y022722D01*
X018382Y022700D01*
X018357Y022682D01*
X018329Y022667D01*
X018300Y022655D01*
X018270Y022647D01*
X018239Y022643D01*
X018207Y022643D01*
X018176Y022647D01*
X018146Y022655D01*
X018117Y022667D01*
X018089Y022682D01*
X018064Y022700D01*
X018041Y022722D01*
X018021Y022746D01*
X018004Y022773D01*
X017991Y022801D01*
X017981Y022831D01*
X017975Y022862D01*
X017973Y022893D01*
X015693Y022893D02*
X015695Y022924D01*
X015701Y022955D01*
X015711Y022985D01*
X015724Y023013D01*
X015741Y023040D01*
X015761Y023064D01*
X015784Y023086D01*
X015809Y023104D01*
X015837Y023119D01*
X015866Y023131D01*
X015896Y023139D01*
X015927Y023143D01*
X015959Y023143D01*
X015990Y023139D01*
X016020Y023131D01*
X016049Y023119D01*
X016077Y023104D01*
X016102Y023086D01*
X016125Y023064D01*
X016145Y023040D01*
X016162Y023013D01*
X016175Y022985D01*
X016185Y022955D01*
X016191Y022924D01*
X016193Y022893D01*
X016191Y022862D01*
X016185Y022831D01*
X016175Y022801D01*
X016162Y022773D01*
X016145Y022746D01*
X016125Y022722D01*
X016102Y022700D01*
X016077Y022682D01*
X016049Y022667D01*
X016020Y022655D01*
X015990Y022647D01*
X015959Y022643D01*
X015927Y022643D01*
X015896Y022647D01*
X015866Y022655D01*
X015837Y022667D01*
X015809Y022682D01*
X015784Y022700D01*
X015761Y022722D01*
X015741Y022746D01*
X015724Y022773D01*
X015711Y022801D01*
X015701Y022831D01*
X015695Y022862D01*
X015693Y022893D01*
X010973Y022893D02*
X010975Y022924D01*
X010981Y022955D01*
X010991Y022985D01*
X011004Y023013D01*
X011021Y023040D01*
X011041Y023064D01*
X011064Y023086D01*
X011089Y023104D01*
X011117Y023119D01*
X011146Y023131D01*
X011176Y023139D01*
X011207Y023143D01*
X011239Y023143D01*
X011270Y023139D01*
X011300Y023131D01*
X011329Y023119D01*
X011357Y023104D01*
X011382Y023086D01*
X011405Y023064D01*
X011425Y023040D01*
X011442Y023013D01*
X011455Y022985D01*
X011465Y022955D01*
X011471Y022924D01*
X011473Y022893D01*
X011471Y022862D01*
X011465Y022831D01*
X011455Y022801D01*
X011442Y022773D01*
X011425Y022746D01*
X011405Y022722D01*
X011382Y022700D01*
X011357Y022682D01*
X011329Y022667D01*
X011300Y022655D01*
X011270Y022647D01*
X011239Y022643D01*
X011207Y022643D01*
X011176Y022647D01*
X011146Y022655D01*
X011117Y022667D01*
X011089Y022682D01*
X011064Y022700D01*
X011041Y022722D01*
X011021Y022746D01*
X011004Y022773D01*
X010991Y022801D01*
X010981Y022831D01*
X010975Y022862D01*
X010973Y022893D01*
X010973Y025893D02*
X010975Y025924D01*
X010981Y025955D01*
X010991Y025985D01*
X011004Y026013D01*
X011021Y026040D01*
X011041Y026064D01*
X011064Y026086D01*
X011089Y026104D01*
X011117Y026119D01*
X011146Y026131D01*
X011176Y026139D01*
X011207Y026143D01*
X011239Y026143D01*
X011270Y026139D01*
X011300Y026131D01*
X011329Y026119D01*
X011357Y026104D01*
X011382Y026086D01*
X011405Y026064D01*
X011425Y026040D01*
X011442Y026013D01*
X011455Y025985D01*
X011465Y025955D01*
X011471Y025924D01*
X011473Y025893D01*
X011471Y025862D01*
X011465Y025831D01*
X011455Y025801D01*
X011442Y025773D01*
X011425Y025746D01*
X011405Y025722D01*
X011382Y025700D01*
X011357Y025682D01*
X011329Y025667D01*
X011300Y025655D01*
X011270Y025647D01*
X011239Y025643D01*
X011207Y025643D01*
X011176Y025647D01*
X011146Y025655D01*
X011117Y025667D01*
X011089Y025682D01*
X011064Y025700D01*
X011041Y025722D01*
X011021Y025746D01*
X011004Y025773D01*
X010991Y025801D01*
X010981Y025831D01*
X010975Y025862D01*
X010973Y025893D01*
X015693Y025893D02*
X015695Y025924D01*
X015701Y025955D01*
X015711Y025985D01*
X015724Y026013D01*
X015741Y026040D01*
X015761Y026064D01*
X015784Y026086D01*
X015809Y026104D01*
X015837Y026119D01*
X015866Y026131D01*
X015896Y026139D01*
X015927Y026143D01*
X015959Y026143D01*
X015990Y026139D01*
X016020Y026131D01*
X016049Y026119D01*
X016077Y026104D01*
X016102Y026086D01*
X016125Y026064D01*
X016145Y026040D01*
X016162Y026013D01*
X016175Y025985D01*
X016185Y025955D01*
X016191Y025924D01*
X016193Y025893D01*
X016191Y025862D01*
X016185Y025831D01*
X016175Y025801D01*
X016162Y025773D01*
X016145Y025746D01*
X016125Y025722D01*
X016102Y025700D01*
X016077Y025682D01*
X016049Y025667D01*
X016020Y025655D01*
X015990Y025647D01*
X015959Y025643D01*
X015927Y025643D01*
X015896Y025647D01*
X015866Y025655D01*
X015837Y025667D01*
X015809Y025682D01*
X015784Y025700D01*
X015761Y025722D01*
X015741Y025746D01*
X015724Y025773D01*
X015711Y025801D01*
X015701Y025831D01*
X015695Y025862D01*
X015693Y025893D01*
X017973Y025893D02*
X017975Y025924D01*
X017981Y025955D01*
X017991Y025985D01*
X018004Y026013D01*
X018021Y026040D01*
X018041Y026064D01*
X018064Y026086D01*
X018089Y026104D01*
X018117Y026119D01*
X018146Y026131D01*
X018176Y026139D01*
X018207Y026143D01*
X018239Y026143D01*
X018270Y026139D01*
X018300Y026131D01*
X018329Y026119D01*
X018357Y026104D01*
X018382Y026086D01*
X018405Y026064D01*
X018425Y026040D01*
X018442Y026013D01*
X018455Y025985D01*
X018465Y025955D01*
X018471Y025924D01*
X018473Y025893D01*
X018471Y025862D01*
X018465Y025831D01*
X018455Y025801D01*
X018442Y025773D01*
X018425Y025746D01*
X018405Y025722D01*
X018382Y025700D01*
X018357Y025682D01*
X018329Y025667D01*
X018300Y025655D01*
X018270Y025647D01*
X018239Y025643D01*
X018207Y025643D01*
X018176Y025647D01*
X018146Y025655D01*
X018117Y025667D01*
X018089Y025682D01*
X018064Y025700D01*
X018041Y025722D01*
X018021Y025746D01*
X018004Y025773D01*
X017991Y025801D01*
X017981Y025831D01*
X017975Y025862D01*
X017973Y025893D01*
X022693Y025893D02*
X022695Y025924D01*
X022701Y025955D01*
X022711Y025985D01*
X022724Y026013D01*
X022741Y026040D01*
X022761Y026064D01*
X022784Y026086D01*
X022809Y026104D01*
X022837Y026119D01*
X022866Y026131D01*
X022896Y026139D01*
X022927Y026143D01*
X022959Y026143D01*
X022990Y026139D01*
X023020Y026131D01*
X023049Y026119D01*
X023077Y026104D01*
X023102Y026086D01*
X023125Y026064D01*
X023145Y026040D01*
X023162Y026013D01*
X023175Y025985D01*
X023185Y025955D01*
X023191Y025924D01*
X023193Y025893D01*
X023191Y025862D01*
X023185Y025831D01*
X023175Y025801D01*
X023162Y025773D01*
X023145Y025746D01*
X023125Y025722D01*
X023102Y025700D01*
X023077Y025682D01*
X023049Y025667D01*
X023020Y025655D01*
X022990Y025647D01*
X022959Y025643D01*
X022927Y025643D01*
X022896Y025647D01*
X022866Y025655D01*
X022837Y025667D01*
X022809Y025682D01*
X022784Y025700D01*
X022761Y025722D01*
X022741Y025746D01*
X022724Y025773D01*
X022711Y025801D01*
X022701Y025831D01*
X022695Y025862D01*
X022693Y025893D01*
X024973Y025893D02*
X024975Y025924D01*
X024981Y025955D01*
X024991Y025985D01*
X025004Y026013D01*
X025021Y026040D01*
X025041Y026064D01*
X025064Y026086D01*
X025089Y026104D01*
X025117Y026119D01*
X025146Y026131D01*
X025176Y026139D01*
X025207Y026143D01*
X025239Y026143D01*
X025270Y026139D01*
X025300Y026131D01*
X025329Y026119D01*
X025357Y026104D01*
X025382Y026086D01*
X025405Y026064D01*
X025425Y026040D01*
X025442Y026013D01*
X025455Y025985D01*
X025465Y025955D01*
X025471Y025924D01*
X025473Y025893D01*
X025471Y025862D01*
X025465Y025831D01*
X025455Y025801D01*
X025442Y025773D01*
X025425Y025746D01*
X025405Y025722D01*
X025382Y025700D01*
X025357Y025682D01*
X025329Y025667D01*
X025300Y025655D01*
X025270Y025647D01*
X025239Y025643D01*
X025207Y025643D01*
X025176Y025647D01*
X025146Y025655D01*
X025117Y025667D01*
X025089Y025682D01*
X025064Y025700D01*
X025041Y025722D01*
X025021Y025746D01*
X025004Y025773D01*
X024991Y025801D01*
X024981Y025831D01*
X024975Y025862D01*
X024973Y025893D01*
X029693Y025893D02*
X029695Y025924D01*
X029701Y025955D01*
X029711Y025985D01*
X029724Y026013D01*
X029741Y026040D01*
X029761Y026064D01*
X029784Y026086D01*
X029809Y026104D01*
X029837Y026119D01*
X029866Y026131D01*
X029896Y026139D01*
X029927Y026143D01*
X029959Y026143D01*
X029990Y026139D01*
X030020Y026131D01*
X030049Y026119D01*
X030077Y026104D01*
X030102Y026086D01*
X030125Y026064D01*
X030145Y026040D01*
X030162Y026013D01*
X030175Y025985D01*
X030185Y025955D01*
X030191Y025924D01*
X030193Y025893D01*
X030191Y025862D01*
X030185Y025831D01*
X030175Y025801D01*
X030162Y025773D01*
X030145Y025746D01*
X030125Y025722D01*
X030102Y025700D01*
X030077Y025682D01*
X030049Y025667D01*
X030020Y025655D01*
X029990Y025647D01*
X029959Y025643D01*
X029927Y025643D01*
X029896Y025647D01*
X029866Y025655D01*
X029837Y025667D01*
X029809Y025682D01*
X029784Y025700D01*
X029761Y025722D01*
X029741Y025746D01*
X029724Y025773D01*
X029711Y025801D01*
X029701Y025831D01*
X029695Y025862D01*
X029693Y025893D01*
X032223Y025893D02*
X032225Y025924D01*
X032231Y025955D01*
X032241Y025985D01*
X032254Y026013D01*
X032271Y026040D01*
X032291Y026064D01*
X032314Y026086D01*
X032339Y026104D01*
X032367Y026119D01*
X032396Y026131D01*
X032426Y026139D01*
X032457Y026143D01*
X032489Y026143D01*
X032520Y026139D01*
X032550Y026131D01*
X032579Y026119D01*
X032607Y026104D01*
X032632Y026086D01*
X032655Y026064D01*
X032675Y026040D01*
X032692Y026013D01*
X032705Y025985D01*
X032715Y025955D01*
X032721Y025924D01*
X032723Y025893D01*
X032721Y025862D01*
X032715Y025831D01*
X032705Y025801D01*
X032692Y025773D01*
X032675Y025746D01*
X032655Y025722D01*
X032632Y025700D01*
X032607Y025682D01*
X032579Y025667D01*
X032550Y025655D01*
X032520Y025647D01*
X032489Y025643D01*
X032457Y025643D01*
X032426Y025647D01*
X032396Y025655D01*
X032367Y025667D01*
X032339Y025682D01*
X032314Y025700D01*
X032291Y025722D01*
X032271Y025746D01*
X032254Y025773D01*
X032241Y025801D01*
X032231Y025831D01*
X032225Y025862D01*
X032223Y025893D01*
X036943Y025893D02*
X036945Y025924D01*
X036951Y025955D01*
X036961Y025985D01*
X036974Y026013D01*
X036991Y026040D01*
X037011Y026064D01*
X037034Y026086D01*
X037059Y026104D01*
X037087Y026119D01*
X037116Y026131D01*
X037146Y026139D01*
X037177Y026143D01*
X037209Y026143D01*
X037240Y026139D01*
X037270Y026131D01*
X037299Y026119D01*
X037327Y026104D01*
X037352Y026086D01*
X037375Y026064D01*
X037395Y026040D01*
X037412Y026013D01*
X037425Y025985D01*
X037435Y025955D01*
X037441Y025924D01*
X037443Y025893D01*
X037441Y025862D01*
X037435Y025831D01*
X037425Y025801D01*
X037412Y025773D01*
X037395Y025746D01*
X037375Y025722D01*
X037352Y025700D01*
X037327Y025682D01*
X037299Y025667D01*
X037270Y025655D01*
X037240Y025647D01*
X037209Y025643D01*
X037177Y025643D01*
X037146Y025647D01*
X037116Y025655D01*
X037087Y025667D01*
X037059Y025682D01*
X037034Y025700D01*
X037011Y025722D01*
X036991Y025746D01*
X036974Y025773D01*
X036961Y025801D01*
X036951Y025831D01*
X036945Y025862D01*
X036943Y025893D01*
X039223Y025893D02*
X039225Y025924D01*
X039231Y025955D01*
X039241Y025985D01*
X039254Y026013D01*
X039271Y026040D01*
X039291Y026064D01*
X039314Y026086D01*
X039339Y026104D01*
X039367Y026119D01*
X039396Y026131D01*
X039426Y026139D01*
X039457Y026143D01*
X039489Y026143D01*
X039520Y026139D01*
X039550Y026131D01*
X039579Y026119D01*
X039607Y026104D01*
X039632Y026086D01*
X039655Y026064D01*
X039675Y026040D01*
X039692Y026013D01*
X039705Y025985D01*
X039715Y025955D01*
X039721Y025924D01*
X039723Y025893D01*
X039721Y025862D01*
X039715Y025831D01*
X039705Y025801D01*
X039692Y025773D01*
X039675Y025746D01*
X039655Y025722D01*
X039632Y025700D01*
X039607Y025682D01*
X039579Y025667D01*
X039550Y025655D01*
X039520Y025647D01*
X039489Y025643D01*
X039457Y025643D01*
X039426Y025647D01*
X039396Y025655D01*
X039367Y025667D01*
X039339Y025682D01*
X039314Y025700D01*
X039291Y025722D01*
X039271Y025746D01*
X039254Y025773D01*
X039241Y025801D01*
X039231Y025831D01*
X039225Y025862D01*
X039223Y025893D01*
X043943Y025893D02*
X043945Y025924D01*
X043951Y025955D01*
X043961Y025985D01*
X043974Y026013D01*
X043991Y026040D01*
X044011Y026064D01*
X044034Y026086D01*
X044059Y026104D01*
X044087Y026119D01*
X044116Y026131D01*
X044146Y026139D01*
X044177Y026143D01*
X044209Y026143D01*
X044240Y026139D01*
X044270Y026131D01*
X044299Y026119D01*
X044327Y026104D01*
X044352Y026086D01*
X044375Y026064D01*
X044395Y026040D01*
X044412Y026013D01*
X044425Y025985D01*
X044435Y025955D01*
X044441Y025924D01*
X044443Y025893D01*
X044441Y025862D01*
X044435Y025831D01*
X044425Y025801D01*
X044412Y025773D01*
X044395Y025746D01*
X044375Y025722D01*
X044352Y025700D01*
X044327Y025682D01*
X044299Y025667D01*
X044270Y025655D01*
X044240Y025647D01*
X044209Y025643D01*
X044177Y025643D01*
X044146Y025647D01*
X044116Y025655D01*
X044087Y025667D01*
X044059Y025682D01*
X044034Y025700D01*
X044011Y025722D01*
X043991Y025746D01*
X043974Y025773D01*
X043961Y025801D01*
X043951Y025831D01*
X043945Y025862D01*
X043943Y025893D01*
X046223Y025893D02*
X046225Y025924D01*
X046231Y025955D01*
X046241Y025985D01*
X046254Y026013D01*
X046271Y026040D01*
X046291Y026064D01*
X046314Y026086D01*
X046339Y026104D01*
X046367Y026119D01*
X046396Y026131D01*
X046426Y026139D01*
X046457Y026143D01*
X046489Y026143D01*
X046520Y026139D01*
X046550Y026131D01*
X046579Y026119D01*
X046607Y026104D01*
X046632Y026086D01*
X046655Y026064D01*
X046675Y026040D01*
X046692Y026013D01*
X046705Y025985D01*
X046715Y025955D01*
X046721Y025924D01*
X046723Y025893D01*
X046721Y025862D01*
X046715Y025831D01*
X046705Y025801D01*
X046692Y025773D01*
X046675Y025746D01*
X046655Y025722D01*
X046632Y025700D01*
X046607Y025682D01*
X046579Y025667D01*
X046550Y025655D01*
X046520Y025647D01*
X046489Y025643D01*
X046457Y025643D01*
X046426Y025647D01*
X046396Y025655D01*
X046367Y025667D01*
X046339Y025682D01*
X046314Y025700D01*
X046291Y025722D01*
X046271Y025746D01*
X046254Y025773D01*
X046241Y025801D01*
X046231Y025831D01*
X046225Y025862D01*
X046223Y025893D01*
X050943Y025893D02*
X050945Y025924D01*
X050951Y025955D01*
X050961Y025985D01*
X050974Y026013D01*
X050991Y026040D01*
X051011Y026064D01*
X051034Y026086D01*
X051059Y026104D01*
X051087Y026119D01*
X051116Y026131D01*
X051146Y026139D01*
X051177Y026143D01*
X051209Y026143D01*
X051240Y026139D01*
X051270Y026131D01*
X051299Y026119D01*
X051327Y026104D01*
X051352Y026086D01*
X051375Y026064D01*
X051395Y026040D01*
X051412Y026013D01*
X051425Y025985D01*
X051435Y025955D01*
X051441Y025924D01*
X051443Y025893D01*
X051441Y025862D01*
X051435Y025831D01*
X051425Y025801D01*
X051412Y025773D01*
X051395Y025746D01*
X051375Y025722D01*
X051352Y025700D01*
X051327Y025682D01*
X051299Y025667D01*
X051270Y025655D01*
X051240Y025647D01*
X051209Y025643D01*
X051177Y025643D01*
X051146Y025647D01*
X051116Y025655D01*
X051087Y025667D01*
X051059Y025682D01*
X051034Y025700D01*
X051011Y025722D01*
X050991Y025746D01*
X050974Y025773D01*
X050961Y025801D01*
X050951Y025831D01*
X050945Y025862D01*
X050943Y025893D01*
X053473Y025893D02*
X053475Y025924D01*
X053481Y025955D01*
X053491Y025985D01*
X053504Y026013D01*
X053521Y026040D01*
X053541Y026064D01*
X053564Y026086D01*
X053589Y026104D01*
X053617Y026119D01*
X053646Y026131D01*
X053676Y026139D01*
X053707Y026143D01*
X053739Y026143D01*
X053770Y026139D01*
X053800Y026131D01*
X053829Y026119D01*
X053857Y026104D01*
X053882Y026086D01*
X053905Y026064D01*
X053925Y026040D01*
X053942Y026013D01*
X053955Y025985D01*
X053965Y025955D01*
X053971Y025924D01*
X053973Y025893D01*
X053971Y025862D01*
X053965Y025831D01*
X053955Y025801D01*
X053942Y025773D01*
X053925Y025746D01*
X053905Y025722D01*
X053882Y025700D01*
X053857Y025682D01*
X053829Y025667D01*
X053800Y025655D01*
X053770Y025647D01*
X053739Y025643D01*
X053707Y025643D01*
X053676Y025647D01*
X053646Y025655D01*
X053617Y025667D01*
X053589Y025682D01*
X053564Y025700D01*
X053541Y025722D01*
X053521Y025746D01*
X053504Y025773D01*
X053491Y025801D01*
X053481Y025831D01*
X053475Y025862D01*
X053473Y025893D01*
X058193Y025893D02*
X058195Y025924D01*
X058201Y025955D01*
X058211Y025985D01*
X058224Y026013D01*
X058241Y026040D01*
X058261Y026064D01*
X058284Y026086D01*
X058309Y026104D01*
X058337Y026119D01*
X058366Y026131D01*
X058396Y026139D01*
X058427Y026143D01*
X058459Y026143D01*
X058490Y026139D01*
X058520Y026131D01*
X058549Y026119D01*
X058577Y026104D01*
X058602Y026086D01*
X058625Y026064D01*
X058645Y026040D01*
X058662Y026013D01*
X058675Y025985D01*
X058685Y025955D01*
X058691Y025924D01*
X058693Y025893D01*
X058691Y025862D01*
X058685Y025831D01*
X058675Y025801D01*
X058662Y025773D01*
X058645Y025746D01*
X058625Y025722D01*
X058602Y025700D01*
X058577Y025682D01*
X058549Y025667D01*
X058520Y025655D01*
X058490Y025647D01*
X058459Y025643D01*
X058427Y025643D01*
X058396Y025647D01*
X058366Y025655D01*
X058337Y025667D01*
X058309Y025682D01*
X058284Y025700D01*
X058261Y025722D01*
X058241Y025746D01*
X058224Y025773D01*
X058211Y025801D01*
X058201Y025831D01*
X058195Y025862D01*
X058193Y025893D01*
X060473Y025893D02*
X060475Y025924D01*
X060481Y025955D01*
X060491Y025985D01*
X060504Y026013D01*
X060521Y026040D01*
X060541Y026064D01*
X060564Y026086D01*
X060589Y026104D01*
X060617Y026119D01*
X060646Y026131D01*
X060676Y026139D01*
X060707Y026143D01*
X060739Y026143D01*
X060770Y026139D01*
X060800Y026131D01*
X060829Y026119D01*
X060857Y026104D01*
X060882Y026086D01*
X060905Y026064D01*
X060925Y026040D01*
X060942Y026013D01*
X060955Y025985D01*
X060965Y025955D01*
X060971Y025924D01*
X060973Y025893D01*
X060971Y025862D01*
X060965Y025831D01*
X060955Y025801D01*
X060942Y025773D01*
X060925Y025746D01*
X060905Y025722D01*
X060882Y025700D01*
X060857Y025682D01*
X060829Y025667D01*
X060800Y025655D01*
X060770Y025647D01*
X060739Y025643D01*
X060707Y025643D01*
X060676Y025647D01*
X060646Y025655D01*
X060617Y025667D01*
X060589Y025682D01*
X060564Y025700D01*
X060541Y025722D01*
X060521Y025746D01*
X060504Y025773D01*
X060491Y025801D01*
X060481Y025831D01*
X060475Y025862D01*
X060473Y025893D01*
X065193Y025893D02*
X065195Y025924D01*
X065201Y025955D01*
X065211Y025985D01*
X065224Y026013D01*
X065241Y026040D01*
X065261Y026064D01*
X065284Y026086D01*
X065309Y026104D01*
X065337Y026119D01*
X065366Y026131D01*
X065396Y026139D01*
X065427Y026143D01*
X065459Y026143D01*
X065490Y026139D01*
X065520Y026131D01*
X065549Y026119D01*
X065577Y026104D01*
X065602Y026086D01*
X065625Y026064D01*
X065645Y026040D01*
X065662Y026013D01*
X065675Y025985D01*
X065685Y025955D01*
X065691Y025924D01*
X065693Y025893D01*
X065691Y025862D01*
X065685Y025831D01*
X065675Y025801D01*
X065662Y025773D01*
X065645Y025746D01*
X065625Y025722D01*
X065602Y025700D01*
X065577Y025682D01*
X065549Y025667D01*
X065520Y025655D01*
X065490Y025647D01*
X065459Y025643D01*
X065427Y025643D01*
X065396Y025647D01*
X065366Y025655D01*
X065337Y025667D01*
X065309Y025682D01*
X065284Y025700D01*
X065261Y025722D01*
X065241Y025746D01*
X065224Y025773D01*
X065211Y025801D01*
X065201Y025831D01*
X065195Y025862D01*
X065193Y025893D01*
X067473Y025893D02*
X067475Y025924D01*
X067481Y025955D01*
X067491Y025985D01*
X067504Y026013D01*
X067521Y026040D01*
X067541Y026064D01*
X067564Y026086D01*
X067589Y026104D01*
X067617Y026119D01*
X067646Y026131D01*
X067676Y026139D01*
X067707Y026143D01*
X067739Y026143D01*
X067770Y026139D01*
X067800Y026131D01*
X067829Y026119D01*
X067857Y026104D01*
X067882Y026086D01*
X067905Y026064D01*
X067925Y026040D01*
X067942Y026013D01*
X067955Y025985D01*
X067965Y025955D01*
X067971Y025924D01*
X067973Y025893D01*
X067971Y025862D01*
X067965Y025831D01*
X067955Y025801D01*
X067942Y025773D01*
X067925Y025746D01*
X067905Y025722D01*
X067882Y025700D01*
X067857Y025682D01*
X067829Y025667D01*
X067800Y025655D01*
X067770Y025647D01*
X067739Y025643D01*
X067707Y025643D01*
X067676Y025647D01*
X067646Y025655D01*
X067617Y025667D01*
X067589Y025682D01*
X067564Y025700D01*
X067541Y025722D01*
X067521Y025746D01*
X067504Y025773D01*
X067491Y025801D01*
X067481Y025831D01*
X067475Y025862D01*
X067473Y025893D01*
X072193Y025893D02*
X072195Y025924D01*
X072201Y025955D01*
X072211Y025985D01*
X072224Y026013D01*
X072241Y026040D01*
X072261Y026064D01*
X072284Y026086D01*
X072309Y026104D01*
X072337Y026119D01*
X072366Y026131D01*
X072396Y026139D01*
X072427Y026143D01*
X072459Y026143D01*
X072490Y026139D01*
X072520Y026131D01*
X072549Y026119D01*
X072577Y026104D01*
X072602Y026086D01*
X072625Y026064D01*
X072645Y026040D01*
X072662Y026013D01*
X072675Y025985D01*
X072685Y025955D01*
X072691Y025924D01*
X072693Y025893D01*
X072691Y025862D01*
X072685Y025831D01*
X072675Y025801D01*
X072662Y025773D01*
X072645Y025746D01*
X072625Y025722D01*
X072602Y025700D01*
X072577Y025682D01*
X072549Y025667D01*
X072520Y025655D01*
X072490Y025647D01*
X072459Y025643D01*
X072427Y025643D01*
X072396Y025647D01*
X072366Y025655D01*
X072337Y025667D01*
X072309Y025682D01*
X072284Y025700D01*
X072261Y025722D01*
X072241Y025746D01*
X072224Y025773D01*
X072211Y025801D01*
X072201Y025831D01*
X072195Y025862D01*
X072193Y025893D01*
X072193Y022893D02*
X072195Y022924D01*
X072201Y022955D01*
X072211Y022985D01*
X072224Y023013D01*
X072241Y023040D01*
X072261Y023064D01*
X072284Y023086D01*
X072309Y023104D01*
X072337Y023119D01*
X072366Y023131D01*
X072396Y023139D01*
X072427Y023143D01*
X072459Y023143D01*
X072490Y023139D01*
X072520Y023131D01*
X072549Y023119D01*
X072577Y023104D01*
X072602Y023086D01*
X072625Y023064D01*
X072645Y023040D01*
X072662Y023013D01*
X072675Y022985D01*
X072685Y022955D01*
X072691Y022924D01*
X072693Y022893D01*
X072691Y022862D01*
X072685Y022831D01*
X072675Y022801D01*
X072662Y022773D01*
X072645Y022746D01*
X072625Y022722D01*
X072602Y022700D01*
X072577Y022682D01*
X072549Y022667D01*
X072520Y022655D01*
X072490Y022647D01*
X072459Y022643D01*
X072427Y022643D01*
X072396Y022647D01*
X072366Y022655D01*
X072337Y022667D01*
X072309Y022682D01*
X072284Y022700D01*
X072261Y022722D01*
X072241Y022746D01*
X072224Y022773D01*
X072211Y022801D01*
X072201Y022831D01*
X072195Y022862D01*
X072193Y022893D01*
X067473Y022893D02*
X067475Y022924D01*
X067481Y022955D01*
X067491Y022985D01*
X067504Y023013D01*
X067521Y023040D01*
X067541Y023064D01*
X067564Y023086D01*
X067589Y023104D01*
X067617Y023119D01*
X067646Y023131D01*
X067676Y023139D01*
X067707Y023143D01*
X067739Y023143D01*
X067770Y023139D01*
X067800Y023131D01*
X067829Y023119D01*
X067857Y023104D01*
X067882Y023086D01*
X067905Y023064D01*
X067925Y023040D01*
X067942Y023013D01*
X067955Y022985D01*
X067965Y022955D01*
X067971Y022924D01*
X067973Y022893D01*
X067971Y022862D01*
X067965Y022831D01*
X067955Y022801D01*
X067942Y022773D01*
X067925Y022746D01*
X067905Y022722D01*
X067882Y022700D01*
X067857Y022682D01*
X067829Y022667D01*
X067800Y022655D01*
X067770Y022647D01*
X067739Y022643D01*
X067707Y022643D01*
X067676Y022647D01*
X067646Y022655D01*
X067617Y022667D01*
X067589Y022682D01*
X067564Y022700D01*
X067541Y022722D01*
X067521Y022746D01*
X067504Y022773D01*
X067491Y022801D01*
X067481Y022831D01*
X067475Y022862D01*
X067473Y022893D01*
X065193Y022893D02*
X065195Y022924D01*
X065201Y022955D01*
X065211Y022985D01*
X065224Y023013D01*
X065241Y023040D01*
X065261Y023064D01*
X065284Y023086D01*
X065309Y023104D01*
X065337Y023119D01*
X065366Y023131D01*
X065396Y023139D01*
X065427Y023143D01*
X065459Y023143D01*
X065490Y023139D01*
X065520Y023131D01*
X065549Y023119D01*
X065577Y023104D01*
X065602Y023086D01*
X065625Y023064D01*
X065645Y023040D01*
X065662Y023013D01*
X065675Y022985D01*
X065685Y022955D01*
X065691Y022924D01*
X065693Y022893D01*
X065691Y022862D01*
X065685Y022831D01*
X065675Y022801D01*
X065662Y022773D01*
X065645Y022746D01*
X065625Y022722D01*
X065602Y022700D01*
X065577Y022682D01*
X065549Y022667D01*
X065520Y022655D01*
X065490Y022647D01*
X065459Y022643D01*
X065427Y022643D01*
X065396Y022647D01*
X065366Y022655D01*
X065337Y022667D01*
X065309Y022682D01*
X065284Y022700D01*
X065261Y022722D01*
X065241Y022746D01*
X065224Y022773D01*
X065211Y022801D01*
X065201Y022831D01*
X065195Y022862D01*
X065193Y022893D01*
X060473Y022893D02*
X060475Y022924D01*
X060481Y022955D01*
X060491Y022985D01*
X060504Y023013D01*
X060521Y023040D01*
X060541Y023064D01*
X060564Y023086D01*
X060589Y023104D01*
X060617Y023119D01*
X060646Y023131D01*
X060676Y023139D01*
X060707Y023143D01*
X060739Y023143D01*
X060770Y023139D01*
X060800Y023131D01*
X060829Y023119D01*
X060857Y023104D01*
X060882Y023086D01*
X060905Y023064D01*
X060925Y023040D01*
X060942Y023013D01*
X060955Y022985D01*
X060965Y022955D01*
X060971Y022924D01*
X060973Y022893D01*
X060971Y022862D01*
X060965Y022831D01*
X060955Y022801D01*
X060942Y022773D01*
X060925Y022746D01*
X060905Y022722D01*
X060882Y022700D01*
X060857Y022682D01*
X060829Y022667D01*
X060800Y022655D01*
X060770Y022647D01*
X060739Y022643D01*
X060707Y022643D01*
X060676Y022647D01*
X060646Y022655D01*
X060617Y022667D01*
X060589Y022682D01*
X060564Y022700D01*
X060541Y022722D01*
X060521Y022746D01*
X060504Y022773D01*
X060491Y022801D01*
X060481Y022831D01*
X060475Y022862D01*
X060473Y022893D01*
X058193Y022893D02*
X058195Y022924D01*
X058201Y022955D01*
X058211Y022985D01*
X058224Y023013D01*
X058241Y023040D01*
X058261Y023064D01*
X058284Y023086D01*
X058309Y023104D01*
X058337Y023119D01*
X058366Y023131D01*
X058396Y023139D01*
X058427Y023143D01*
X058459Y023143D01*
X058490Y023139D01*
X058520Y023131D01*
X058549Y023119D01*
X058577Y023104D01*
X058602Y023086D01*
X058625Y023064D01*
X058645Y023040D01*
X058662Y023013D01*
X058675Y022985D01*
X058685Y022955D01*
X058691Y022924D01*
X058693Y022893D01*
X058691Y022862D01*
X058685Y022831D01*
X058675Y022801D01*
X058662Y022773D01*
X058645Y022746D01*
X058625Y022722D01*
X058602Y022700D01*
X058577Y022682D01*
X058549Y022667D01*
X058520Y022655D01*
X058490Y022647D01*
X058459Y022643D01*
X058427Y022643D01*
X058396Y022647D01*
X058366Y022655D01*
X058337Y022667D01*
X058309Y022682D01*
X058284Y022700D01*
X058261Y022722D01*
X058241Y022746D01*
X058224Y022773D01*
X058211Y022801D01*
X058201Y022831D01*
X058195Y022862D01*
X058193Y022893D01*
X053473Y022893D02*
X053475Y022924D01*
X053481Y022955D01*
X053491Y022985D01*
X053504Y023013D01*
X053521Y023040D01*
X053541Y023064D01*
X053564Y023086D01*
X053589Y023104D01*
X053617Y023119D01*
X053646Y023131D01*
X053676Y023139D01*
X053707Y023143D01*
X053739Y023143D01*
X053770Y023139D01*
X053800Y023131D01*
X053829Y023119D01*
X053857Y023104D01*
X053882Y023086D01*
X053905Y023064D01*
X053925Y023040D01*
X053942Y023013D01*
X053955Y022985D01*
X053965Y022955D01*
X053971Y022924D01*
X053973Y022893D01*
X053971Y022862D01*
X053965Y022831D01*
X053955Y022801D01*
X053942Y022773D01*
X053925Y022746D01*
X053905Y022722D01*
X053882Y022700D01*
X053857Y022682D01*
X053829Y022667D01*
X053800Y022655D01*
X053770Y022647D01*
X053739Y022643D01*
X053707Y022643D01*
X053676Y022647D01*
X053646Y022655D01*
X053617Y022667D01*
X053589Y022682D01*
X053564Y022700D01*
X053541Y022722D01*
X053521Y022746D01*
X053504Y022773D01*
X053491Y022801D01*
X053481Y022831D01*
X053475Y022862D01*
X053473Y022893D01*
X050943Y022893D02*
X050945Y022924D01*
X050951Y022955D01*
X050961Y022985D01*
X050974Y023013D01*
X050991Y023040D01*
X051011Y023064D01*
X051034Y023086D01*
X051059Y023104D01*
X051087Y023119D01*
X051116Y023131D01*
X051146Y023139D01*
X051177Y023143D01*
X051209Y023143D01*
X051240Y023139D01*
X051270Y023131D01*
X051299Y023119D01*
X051327Y023104D01*
X051352Y023086D01*
X051375Y023064D01*
X051395Y023040D01*
X051412Y023013D01*
X051425Y022985D01*
X051435Y022955D01*
X051441Y022924D01*
X051443Y022893D01*
X051441Y022862D01*
X051435Y022831D01*
X051425Y022801D01*
X051412Y022773D01*
X051395Y022746D01*
X051375Y022722D01*
X051352Y022700D01*
X051327Y022682D01*
X051299Y022667D01*
X051270Y022655D01*
X051240Y022647D01*
X051209Y022643D01*
X051177Y022643D01*
X051146Y022647D01*
X051116Y022655D01*
X051087Y022667D01*
X051059Y022682D01*
X051034Y022700D01*
X051011Y022722D01*
X050991Y022746D01*
X050974Y022773D01*
X050961Y022801D01*
X050951Y022831D01*
X050945Y022862D01*
X050943Y022893D01*
X046223Y022893D02*
X046225Y022924D01*
X046231Y022955D01*
X046241Y022985D01*
X046254Y023013D01*
X046271Y023040D01*
X046291Y023064D01*
X046314Y023086D01*
X046339Y023104D01*
X046367Y023119D01*
X046396Y023131D01*
X046426Y023139D01*
X046457Y023143D01*
X046489Y023143D01*
X046520Y023139D01*
X046550Y023131D01*
X046579Y023119D01*
X046607Y023104D01*
X046632Y023086D01*
X046655Y023064D01*
X046675Y023040D01*
X046692Y023013D01*
X046705Y022985D01*
X046715Y022955D01*
X046721Y022924D01*
X046723Y022893D01*
X046721Y022862D01*
X046715Y022831D01*
X046705Y022801D01*
X046692Y022773D01*
X046675Y022746D01*
X046655Y022722D01*
X046632Y022700D01*
X046607Y022682D01*
X046579Y022667D01*
X046550Y022655D01*
X046520Y022647D01*
X046489Y022643D01*
X046457Y022643D01*
X046426Y022647D01*
X046396Y022655D01*
X046367Y022667D01*
X046339Y022682D01*
X046314Y022700D01*
X046291Y022722D01*
X046271Y022746D01*
X046254Y022773D01*
X046241Y022801D01*
X046231Y022831D01*
X046225Y022862D01*
X046223Y022893D01*
X043943Y022893D02*
X043945Y022924D01*
X043951Y022955D01*
X043961Y022985D01*
X043974Y023013D01*
X043991Y023040D01*
X044011Y023064D01*
X044034Y023086D01*
X044059Y023104D01*
X044087Y023119D01*
X044116Y023131D01*
X044146Y023139D01*
X044177Y023143D01*
X044209Y023143D01*
X044240Y023139D01*
X044270Y023131D01*
X044299Y023119D01*
X044327Y023104D01*
X044352Y023086D01*
X044375Y023064D01*
X044395Y023040D01*
X044412Y023013D01*
X044425Y022985D01*
X044435Y022955D01*
X044441Y022924D01*
X044443Y022893D01*
X044441Y022862D01*
X044435Y022831D01*
X044425Y022801D01*
X044412Y022773D01*
X044395Y022746D01*
X044375Y022722D01*
X044352Y022700D01*
X044327Y022682D01*
X044299Y022667D01*
X044270Y022655D01*
X044240Y022647D01*
X044209Y022643D01*
X044177Y022643D01*
X044146Y022647D01*
X044116Y022655D01*
X044087Y022667D01*
X044059Y022682D01*
X044034Y022700D01*
X044011Y022722D01*
X043991Y022746D01*
X043974Y022773D01*
X043961Y022801D01*
X043951Y022831D01*
X043945Y022862D01*
X043943Y022893D01*
X039223Y022893D02*
X039225Y022924D01*
X039231Y022955D01*
X039241Y022985D01*
X039254Y023013D01*
X039271Y023040D01*
X039291Y023064D01*
X039314Y023086D01*
X039339Y023104D01*
X039367Y023119D01*
X039396Y023131D01*
X039426Y023139D01*
X039457Y023143D01*
X039489Y023143D01*
X039520Y023139D01*
X039550Y023131D01*
X039579Y023119D01*
X039607Y023104D01*
X039632Y023086D01*
X039655Y023064D01*
X039675Y023040D01*
X039692Y023013D01*
X039705Y022985D01*
X039715Y022955D01*
X039721Y022924D01*
X039723Y022893D01*
X039721Y022862D01*
X039715Y022831D01*
X039705Y022801D01*
X039692Y022773D01*
X039675Y022746D01*
X039655Y022722D01*
X039632Y022700D01*
X039607Y022682D01*
X039579Y022667D01*
X039550Y022655D01*
X039520Y022647D01*
X039489Y022643D01*
X039457Y022643D01*
X039426Y022647D01*
X039396Y022655D01*
X039367Y022667D01*
X039339Y022682D01*
X039314Y022700D01*
X039291Y022722D01*
X039271Y022746D01*
X039254Y022773D01*
X039241Y022801D01*
X039231Y022831D01*
X039225Y022862D01*
X039223Y022893D01*
X036943Y022893D02*
X036945Y022924D01*
X036951Y022955D01*
X036961Y022985D01*
X036974Y023013D01*
X036991Y023040D01*
X037011Y023064D01*
X037034Y023086D01*
X037059Y023104D01*
X037087Y023119D01*
X037116Y023131D01*
X037146Y023139D01*
X037177Y023143D01*
X037209Y023143D01*
X037240Y023139D01*
X037270Y023131D01*
X037299Y023119D01*
X037327Y023104D01*
X037352Y023086D01*
X037375Y023064D01*
X037395Y023040D01*
X037412Y023013D01*
X037425Y022985D01*
X037435Y022955D01*
X037441Y022924D01*
X037443Y022893D01*
X037441Y022862D01*
X037435Y022831D01*
X037425Y022801D01*
X037412Y022773D01*
X037395Y022746D01*
X037375Y022722D01*
X037352Y022700D01*
X037327Y022682D01*
X037299Y022667D01*
X037270Y022655D01*
X037240Y022647D01*
X037209Y022643D01*
X037177Y022643D01*
X037146Y022647D01*
X037116Y022655D01*
X037087Y022667D01*
X037059Y022682D01*
X037034Y022700D01*
X037011Y022722D01*
X036991Y022746D01*
X036974Y022773D01*
X036961Y022801D01*
X036951Y022831D01*
X036945Y022862D01*
X036943Y022893D01*
X032223Y022893D02*
X032225Y022924D01*
X032231Y022955D01*
X032241Y022985D01*
X032254Y023013D01*
X032271Y023040D01*
X032291Y023064D01*
X032314Y023086D01*
X032339Y023104D01*
X032367Y023119D01*
X032396Y023131D01*
X032426Y023139D01*
X032457Y023143D01*
X032489Y023143D01*
X032520Y023139D01*
X032550Y023131D01*
X032579Y023119D01*
X032607Y023104D01*
X032632Y023086D01*
X032655Y023064D01*
X032675Y023040D01*
X032692Y023013D01*
X032705Y022985D01*
X032715Y022955D01*
X032721Y022924D01*
X032723Y022893D01*
X032721Y022862D01*
X032715Y022831D01*
X032705Y022801D01*
X032692Y022773D01*
X032675Y022746D01*
X032655Y022722D01*
X032632Y022700D01*
X032607Y022682D01*
X032579Y022667D01*
X032550Y022655D01*
X032520Y022647D01*
X032489Y022643D01*
X032457Y022643D01*
X032426Y022647D01*
X032396Y022655D01*
X032367Y022667D01*
X032339Y022682D01*
X032314Y022700D01*
X032291Y022722D01*
X032271Y022746D01*
X032254Y022773D01*
X032241Y022801D01*
X032231Y022831D01*
X032225Y022862D01*
X032223Y022893D01*
X029693Y022893D02*
X029695Y022924D01*
X029701Y022955D01*
X029711Y022985D01*
X029724Y023013D01*
X029741Y023040D01*
X029761Y023064D01*
X029784Y023086D01*
X029809Y023104D01*
X029837Y023119D01*
X029866Y023131D01*
X029896Y023139D01*
X029927Y023143D01*
X029959Y023143D01*
X029990Y023139D01*
X030020Y023131D01*
X030049Y023119D01*
X030077Y023104D01*
X030102Y023086D01*
X030125Y023064D01*
X030145Y023040D01*
X030162Y023013D01*
X030175Y022985D01*
X030185Y022955D01*
X030191Y022924D01*
X030193Y022893D01*
X030191Y022862D01*
X030185Y022831D01*
X030175Y022801D01*
X030162Y022773D01*
X030145Y022746D01*
X030125Y022722D01*
X030102Y022700D01*
X030077Y022682D01*
X030049Y022667D01*
X030020Y022655D01*
X029990Y022647D01*
X029959Y022643D01*
X029927Y022643D01*
X029896Y022647D01*
X029866Y022655D01*
X029837Y022667D01*
X029809Y022682D01*
X029784Y022700D01*
X029761Y022722D01*
X029741Y022746D01*
X029724Y022773D01*
X029711Y022801D01*
X029701Y022831D01*
X029695Y022862D01*
X029693Y022893D01*
X046223Y019643D02*
X046225Y019674D01*
X046231Y019705D01*
X046241Y019735D01*
X046254Y019763D01*
X046271Y019790D01*
X046291Y019814D01*
X046314Y019836D01*
X046339Y019854D01*
X046367Y019869D01*
X046396Y019881D01*
X046426Y019889D01*
X046457Y019893D01*
X046489Y019893D01*
X046520Y019889D01*
X046550Y019881D01*
X046579Y019869D01*
X046607Y019854D01*
X046632Y019836D01*
X046655Y019814D01*
X046675Y019790D01*
X046692Y019763D01*
X046705Y019735D01*
X046715Y019705D01*
X046721Y019674D01*
X046723Y019643D01*
X046721Y019612D01*
X046715Y019581D01*
X046705Y019551D01*
X046692Y019523D01*
X046675Y019496D01*
X046655Y019472D01*
X046632Y019450D01*
X046607Y019432D01*
X046579Y019417D01*
X046550Y019405D01*
X046520Y019397D01*
X046489Y019393D01*
X046457Y019393D01*
X046426Y019397D01*
X046396Y019405D01*
X046367Y019417D01*
X046339Y019432D01*
X046314Y019450D01*
X046291Y019472D01*
X046271Y019496D01*
X046254Y019523D01*
X046241Y019551D01*
X046231Y019581D01*
X046225Y019612D01*
X046223Y019643D01*
X050943Y019643D02*
X050945Y019674D01*
X050951Y019705D01*
X050961Y019735D01*
X050974Y019763D01*
X050991Y019790D01*
X051011Y019814D01*
X051034Y019836D01*
X051059Y019854D01*
X051087Y019869D01*
X051116Y019881D01*
X051146Y019889D01*
X051177Y019893D01*
X051209Y019893D01*
X051240Y019889D01*
X051270Y019881D01*
X051299Y019869D01*
X051327Y019854D01*
X051352Y019836D01*
X051375Y019814D01*
X051395Y019790D01*
X051412Y019763D01*
X051425Y019735D01*
X051435Y019705D01*
X051441Y019674D01*
X051443Y019643D01*
X051441Y019612D01*
X051435Y019581D01*
X051425Y019551D01*
X051412Y019523D01*
X051395Y019496D01*
X051375Y019472D01*
X051352Y019450D01*
X051327Y019432D01*
X051299Y019417D01*
X051270Y019405D01*
X051240Y019397D01*
X051209Y019393D01*
X051177Y019393D01*
X051146Y019397D01*
X051116Y019405D01*
X051087Y019417D01*
X051059Y019432D01*
X051034Y019450D01*
X051011Y019472D01*
X050991Y019496D01*
X050974Y019523D01*
X050961Y019551D01*
X050951Y019581D01*
X050945Y019612D01*
X050943Y019643D01*
X050943Y016393D02*
X050945Y016424D01*
X050951Y016455D01*
X050961Y016485D01*
X050974Y016513D01*
X050991Y016540D01*
X051011Y016564D01*
X051034Y016586D01*
X051059Y016604D01*
X051087Y016619D01*
X051116Y016631D01*
X051146Y016639D01*
X051177Y016643D01*
X051209Y016643D01*
X051240Y016639D01*
X051270Y016631D01*
X051299Y016619D01*
X051327Y016604D01*
X051352Y016586D01*
X051375Y016564D01*
X051395Y016540D01*
X051412Y016513D01*
X051425Y016485D01*
X051435Y016455D01*
X051441Y016424D01*
X051443Y016393D01*
X051441Y016362D01*
X051435Y016331D01*
X051425Y016301D01*
X051412Y016273D01*
X051395Y016246D01*
X051375Y016222D01*
X051352Y016200D01*
X051327Y016182D01*
X051299Y016167D01*
X051270Y016155D01*
X051240Y016147D01*
X051209Y016143D01*
X051177Y016143D01*
X051146Y016147D01*
X051116Y016155D01*
X051087Y016167D01*
X051059Y016182D01*
X051034Y016200D01*
X051011Y016222D01*
X050991Y016246D01*
X050974Y016273D01*
X050961Y016301D01*
X050951Y016331D01*
X050945Y016362D01*
X050943Y016393D01*
X046223Y016393D02*
X046225Y016424D01*
X046231Y016455D01*
X046241Y016485D01*
X046254Y016513D01*
X046271Y016540D01*
X046291Y016564D01*
X046314Y016586D01*
X046339Y016604D01*
X046367Y016619D01*
X046396Y016631D01*
X046426Y016639D01*
X046457Y016643D01*
X046489Y016643D01*
X046520Y016639D01*
X046550Y016631D01*
X046579Y016619D01*
X046607Y016604D01*
X046632Y016586D01*
X046655Y016564D01*
X046675Y016540D01*
X046692Y016513D01*
X046705Y016485D01*
X046715Y016455D01*
X046721Y016424D01*
X046723Y016393D01*
X046721Y016362D01*
X046715Y016331D01*
X046705Y016301D01*
X046692Y016273D01*
X046675Y016246D01*
X046655Y016222D01*
X046632Y016200D01*
X046607Y016182D01*
X046579Y016167D01*
X046550Y016155D01*
X046520Y016147D01*
X046489Y016143D01*
X046457Y016143D01*
X046426Y016147D01*
X046396Y016155D01*
X046367Y016167D01*
X046339Y016182D01*
X046314Y016200D01*
X046291Y016222D01*
X046271Y016246D01*
X046254Y016273D01*
X046241Y016301D01*
X046231Y016331D01*
X046225Y016362D01*
X046223Y016393D01*
X067473Y016393D02*
X067475Y016424D01*
X067481Y016455D01*
X067491Y016485D01*
X067504Y016513D01*
X067521Y016540D01*
X067541Y016564D01*
X067564Y016586D01*
X067589Y016604D01*
X067617Y016619D01*
X067646Y016631D01*
X067676Y016639D01*
X067707Y016643D01*
X067739Y016643D01*
X067770Y016639D01*
X067800Y016631D01*
X067829Y016619D01*
X067857Y016604D01*
X067882Y016586D01*
X067905Y016564D01*
X067925Y016540D01*
X067942Y016513D01*
X067955Y016485D01*
X067965Y016455D01*
X067971Y016424D01*
X067973Y016393D01*
X067971Y016362D01*
X067965Y016331D01*
X067955Y016301D01*
X067942Y016273D01*
X067925Y016246D01*
X067905Y016222D01*
X067882Y016200D01*
X067857Y016182D01*
X067829Y016167D01*
X067800Y016155D01*
X067770Y016147D01*
X067739Y016143D01*
X067707Y016143D01*
X067676Y016147D01*
X067646Y016155D01*
X067617Y016167D01*
X067589Y016182D01*
X067564Y016200D01*
X067541Y016222D01*
X067521Y016246D01*
X067504Y016273D01*
X067491Y016301D01*
X067481Y016331D01*
X067475Y016362D01*
X067473Y016393D01*
X072193Y016393D02*
X072195Y016424D01*
X072201Y016455D01*
X072211Y016485D01*
X072224Y016513D01*
X072241Y016540D01*
X072261Y016564D01*
X072284Y016586D01*
X072309Y016604D01*
X072337Y016619D01*
X072366Y016631D01*
X072396Y016639D01*
X072427Y016643D01*
X072459Y016643D01*
X072490Y016639D01*
X072520Y016631D01*
X072549Y016619D01*
X072577Y016604D01*
X072602Y016586D01*
X072625Y016564D01*
X072645Y016540D01*
X072662Y016513D01*
X072675Y016485D01*
X072685Y016455D01*
X072691Y016424D01*
X072693Y016393D01*
X072691Y016362D01*
X072685Y016331D01*
X072675Y016301D01*
X072662Y016273D01*
X072645Y016246D01*
X072625Y016222D01*
X072602Y016200D01*
X072577Y016182D01*
X072549Y016167D01*
X072520Y016155D01*
X072490Y016147D01*
X072459Y016143D01*
X072427Y016143D01*
X072396Y016147D01*
X072366Y016155D01*
X072337Y016167D01*
X072309Y016182D01*
X072284Y016200D01*
X072261Y016222D01*
X072241Y016246D01*
X072224Y016273D01*
X072211Y016301D01*
X072201Y016331D01*
X072195Y016362D01*
X072193Y016393D01*
X072193Y019643D02*
X072195Y019674D01*
X072201Y019705D01*
X072211Y019735D01*
X072224Y019763D01*
X072241Y019790D01*
X072261Y019814D01*
X072284Y019836D01*
X072309Y019854D01*
X072337Y019869D01*
X072366Y019881D01*
X072396Y019889D01*
X072427Y019893D01*
X072459Y019893D01*
X072490Y019889D01*
X072520Y019881D01*
X072549Y019869D01*
X072577Y019854D01*
X072602Y019836D01*
X072625Y019814D01*
X072645Y019790D01*
X072662Y019763D01*
X072675Y019735D01*
X072685Y019705D01*
X072691Y019674D01*
X072693Y019643D01*
X072691Y019612D01*
X072685Y019581D01*
X072675Y019551D01*
X072662Y019523D01*
X072645Y019496D01*
X072625Y019472D01*
X072602Y019450D01*
X072577Y019432D01*
X072549Y019417D01*
X072520Y019405D01*
X072490Y019397D01*
X072459Y019393D01*
X072427Y019393D01*
X072396Y019397D01*
X072366Y019405D01*
X072337Y019417D01*
X072309Y019432D01*
X072284Y019450D01*
X072261Y019472D01*
X072241Y019496D01*
X072224Y019523D01*
X072211Y019551D01*
X072201Y019581D01*
X072195Y019612D01*
X072193Y019643D01*
X067473Y019643D02*
X067475Y019674D01*
X067481Y019705D01*
X067491Y019735D01*
X067504Y019763D01*
X067521Y019790D01*
X067541Y019814D01*
X067564Y019836D01*
X067589Y019854D01*
X067617Y019869D01*
X067646Y019881D01*
X067676Y019889D01*
X067707Y019893D01*
X067739Y019893D01*
X067770Y019889D01*
X067800Y019881D01*
X067829Y019869D01*
X067857Y019854D01*
X067882Y019836D01*
X067905Y019814D01*
X067925Y019790D01*
X067942Y019763D01*
X067955Y019735D01*
X067965Y019705D01*
X067971Y019674D01*
X067973Y019643D01*
X067971Y019612D01*
X067965Y019581D01*
X067955Y019551D01*
X067942Y019523D01*
X067925Y019496D01*
X067905Y019472D01*
X067882Y019450D01*
X067857Y019432D01*
X067829Y019417D01*
X067800Y019405D01*
X067770Y019397D01*
X067739Y019393D01*
X067707Y019393D01*
X067676Y019397D01*
X067646Y019405D01*
X067617Y019417D01*
X067589Y019432D01*
X067564Y019450D01*
X067541Y019472D01*
X067521Y019496D01*
X067504Y019523D01*
X067491Y019551D01*
X067481Y019581D01*
X067475Y019612D01*
X067473Y019643D01*
D11*
X066243Y020193D03*
X064893Y020193D03*
X064893Y020843D03*
X066243Y020843D03*
X062393Y017893D03*
X062393Y017143D03*
X044993Y020193D03*
X043643Y020193D03*
X043643Y020843D03*
X044993Y020843D03*
X041143Y017893D03*
X041143Y017143D03*
X023743Y020193D03*
X022393Y020193D03*
X022393Y020843D03*
X023743Y020843D03*
X019893Y017893D03*
X019893Y017143D03*
X019743Y009293D03*
X019743Y008543D03*
X019743Y007793D03*
X040993Y007793D03*
X040993Y008543D03*
X040993Y009293D03*
X062243Y009293D03*
X062243Y008543D03*
X062243Y007793D03*
D12*
X061355Y017543D02*
X061331Y017543D01*
X040105Y017543D02*
X040081Y017543D01*
X018855Y017543D02*
X018831Y017543D01*
D13*
X020943Y017593D03*
X022193Y017643D03*
X023093Y017493D03*
X020943Y020593D03*
X042193Y020593D03*
X042193Y017593D03*
X043443Y017643D03*
X044343Y017493D03*
X063443Y017593D03*
X064693Y017643D03*
X065593Y017493D03*
X063443Y020593D03*
D14*
X060105Y014123D02*
X060105Y012863D01*
X059081Y012863D02*
X059081Y014123D01*
X058855Y014123D02*
X058855Y012863D01*
X057831Y012863D02*
X057831Y014123D01*
X057605Y014123D02*
X057605Y012863D01*
X056581Y012863D02*
X056581Y014123D01*
X056355Y014123D02*
X056355Y012863D01*
X055331Y012863D02*
X055331Y014123D01*
X055105Y014123D02*
X055105Y012863D01*
X054081Y012863D02*
X054081Y014123D01*
X054081Y012123D02*
X054081Y010863D01*
X055105Y010863D02*
X055105Y012123D01*
X055331Y012123D02*
X055331Y010863D01*
X056355Y010863D02*
X056355Y012123D01*
X056581Y012123D02*
X056581Y010863D01*
X057605Y010863D02*
X057605Y012123D01*
X057831Y012123D02*
X057831Y010863D01*
X058855Y010863D02*
X058855Y012123D01*
X059081Y012123D02*
X059081Y010863D01*
X060105Y010863D02*
X060105Y012123D01*
X038855Y012123D02*
X038855Y010863D01*
X037831Y010863D02*
X037831Y012123D01*
X037605Y012123D02*
X037605Y010863D01*
X036581Y010863D02*
X036581Y012123D01*
X036355Y012123D02*
X036355Y010863D01*
X035331Y010863D02*
X035331Y012123D01*
X035105Y012123D02*
X035105Y010863D01*
X034081Y010863D02*
X034081Y012123D01*
X033855Y012123D02*
X033855Y010863D01*
X032831Y010863D02*
X032831Y012123D01*
X032831Y012863D02*
X032831Y014123D01*
X033855Y014123D02*
X033855Y012863D01*
X034081Y012863D02*
X034081Y014123D01*
X035105Y014123D02*
X035105Y012863D01*
X035331Y012863D02*
X035331Y014123D01*
X036355Y014123D02*
X036355Y012863D01*
X036581Y012863D02*
X036581Y014123D01*
X037605Y014123D02*
X037605Y012863D01*
X037831Y012863D02*
X037831Y014123D01*
X038855Y014123D02*
X038855Y012863D01*
X017605Y012863D02*
X017605Y014123D01*
X016581Y014123D02*
X016581Y012863D01*
X016355Y012863D02*
X016355Y014123D01*
X015331Y014123D02*
X015331Y012863D01*
X015105Y012863D02*
X015105Y014123D01*
X014081Y014123D02*
X014081Y012863D01*
X013855Y012863D02*
X013855Y014123D01*
X012831Y014123D02*
X012831Y012863D01*
X012605Y012863D02*
X012605Y014123D01*
X011581Y014123D02*
X011581Y012863D01*
X011581Y012123D02*
X011581Y010863D01*
X012605Y010863D02*
X012605Y012123D01*
X012831Y012123D02*
X012831Y010863D01*
X013855Y010863D02*
X013855Y012123D01*
X014081Y012123D02*
X014081Y010863D01*
X015105Y010863D02*
X015105Y012123D01*
X015331Y012123D02*
X015331Y010863D01*
X016355Y010863D02*
X016355Y012123D01*
X016581Y012123D02*
X016581Y010863D01*
X017605Y010863D02*
X017605Y012123D01*
M02*
