%
M48
M72
T01C0.0150
T02C0.0236
T03C0.0350
T04C0.0394
T05C0.0400
T06C0.0500
T07C0.0551
%
T01
X19043Y7793
X18193Y8143
X19043Y8543
X20443Y9293
X21643Y11593
X22043Y11593
X22443Y11593
X22993Y11393
X22643Y13093
X22193Y13093
X22193Y13543
X22643Y13543
X21693Y13543
X21693Y13093
X21693Y14243
X21693Y14693
X22193Y14693
X22193Y14243
X22643Y14243
X22643Y14693
X24693Y15243
X22443Y16193
X22043Y16193
X21643Y16193
X20193Y16643
X21593Y17393
X23093Y16943
X23793Y16593
X24643Y17493
X23593Y19643
X21593Y20493
X20293Y20593
X23443Y20793
X17393Y22393
X15443Y22243
X15043Y22593
X16593Y23343
X17193Y24743
X16693Y25593
X23293Y24393
X24043Y25143
X14593Y21193
X13593Y21243
X17343Y17743
X34843Y21243
X35843Y21193
X36693Y22243
X36293Y22593
X37843Y23343
X38643Y22393
X41543Y20593
X42843Y20493
X44693Y20793
X44843Y19643
X45893Y17493
X44343Y16943
X45043Y16593
X43693Y16193
X43293Y16193
X42893Y16193
X41443Y16643
X42843Y17393
X38593Y17743
X45943Y15243
X43893Y14693
X43893Y14243
X43443Y14243
X43443Y14693
X42943Y14693
X42943Y14243
X42943Y13543
X42943Y13093
X43443Y13093
X43893Y13093
X43893Y13543
X43443Y13543
X43293Y11593
X43693Y11593
X44243Y11393
X42893Y11593
X41693Y9293
X40293Y8543
X39443Y8143
X40293Y7793
X33443Y9893
X32193Y9643
X12193Y9893
X10943Y9643
X44543Y24393
X45293Y25143
X38443Y24743
X37943Y25593
X56093Y21243
X57093Y21193
X57943Y22243
X57543Y22593
X59093Y23343
X59893Y22393
X62793Y20593
X64093Y20493
X65943Y20793
X66093Y19643
X67143Y17493
X65593Y16943
X66293Y16593
X64943Y16193
X64543Y16193
X64143Y16193
X62693Y16643
X64093Y17393
X59843Y17743
X67193Y15243
X65143Y14693
X65143Y14243
X64693Y14243
X64693Y14693
X64193Y14693
X64193Y14243
X64193Y13543
X64193Y13093
X64693Y13093
X65143Y13093
X65143Y13543
X64693Y13543
X64543Y11593
X64943Y11593
X65493Y11393
X64143Y11593
X62943Y9293
X61543Y8543
X60693Y8143
X61543Y7793
X54693Y9893
X53443Y9643
X65793Y24393
X66543Y25143
X59693Y24743
X59193Y25593
T02
X61443Y25143
X61193Y23893
X55443Y24143
X55193Y22393
X40193Y25143
X39943Y23893
X34193Y24143
X33943Y22393
X18943Y25143
X18693Y23893
X12943Y24143
X12693Y22393
T03
X26693Y10143
X26693Y9143
X26693Y8143
X47943Y8143
X47943Y9143
X47943Y10143
X69193Y10143
X69193Y9143
X69193Y8143
T04
X66593Y18743
X65593Y18743
X64593Y18743
X63593Y18743
X62593Y18743
X61593Y18743
X60593Y18743
X59593Y18743
X58593Y18743
X57593Y18743
X56593Y18743
X55593Y18743
X54593Y18743
X53593Y18743
X53593Y21743
X54593Y21743
X55593Y21743
X56593Y21743
X57593Y21743
X58593Y21743
X59593Y21743
X60593Y21743
X61593Y21743
X62593Y21743
X63593Y21743
X64593Y21743
X65593Y21743
X66593Y21743
X45343Y21743
X44343Y21743
X43343Y21743
X42343Y21743
X41343Y21743
X40343Y21743
X39343Y21743
X38343Y21743
X37343Y21743
X36343Y21743
X35343Y21743
X34343Y21743
X33343Y21743
X32343Y21743
X32343Y18743
X33343Y18743
X34343Y18743
X35343Y18743
X36343Y18743
X37343Y18743
X38343Y18743
X39343Y18743
X40343Y18743
X41343Y18743
X42343Y18743
X43343Y18743
X44343Y18743
X45343Y18743
X24093Y18743
X23093Y18743
X22093Y18743
X21093Y18743
X20093Y18743
X19093Y18743
X18093Y18743
X17093Y18743
X16093Y18743
X15093Y18743
X14093Y18743
X13093Y18743
X12093Y18743
X11093Y18743
X11093Y21743
X12093Y21743
X13093Y21743
X14093Y21743
X15093Y21743
X16093Y21743
X17093Y21743
X18093Y21743
X19093Y21743
X20093Y21743
X21093Y21743
X22093Y21743
X23093Y21743
X24093Y21743
T05
X26403Y20413
X27583Y20413
X28763Y20413
X28763Y17163
X27583Y17163
X26403Y17163
X26403Y23663
X27583Y23663
X28763Y23663
X33653Y23663
X34833Y23663
X36013Y23663
X40653Y23663
X41833Y23663
X43013Y23663
X47653Y23663
X48833Y23663
X50013Y23663
X54903Y23663
X56083Y23663
X57263Y23663
X61903Y23663
X63083Y23663
X64263Y23663
X68903Y23663
X70083Y23663
X71263Y23663
X71263Y26663
X70083Y26663
X68903Y26663
X64263Y26663
X63083Y26663
X61903Y26663
X57263Y26663
X56083Y26663
X54903Y26663
X50013Y26663
X48833Y26663
X47653Y26663
X43013Y26663
X41833Y26663
X40653Y26663
X36013Y26663
X34833Y26663
X33653Y26663
X28763Y26663
X27583Y26663
X26403Y26663
X21763Y26663
X20583Y26663
X19403Y26663
X14763Y26663
X13583Y26663
X12403Y26663
X12403Y23663
X13583Y23663
X14763Y23663
X19403Y23663
X20583Y23663
X21763Y23663
X47653Y20413
X48833Y20413
X50013Y20413
X50013Y17163
X48833Y17163
X47653Y17163
X68903Y17163
X70083Y17163
X71263Y17163
X71263Y20413
X70083Y20413
X68903Y20413
T06
X67723Y19643
X72443Y19643
X72443Y22893
X67723Y22893
X65443Y22893
X60723Y22893
X58443Y22893
X53723Y22893
X51193Y22893
X46473Y22893
X44193Y22893
X39473Y22893
X37193Y22893
X32473Y22893
X29943Y22893
X25223Y22893
X22943Y22893
X18223Y22893
X15943Y22893
X11223Y22893
X11223Y25893
X15943Y25893
X18223Y25893
X22943Y25893
X25223Y25893
X29943Y25893
X32473Y25893
X37193Y25893
X39473Y25893
X44193Y25893
X46473Y25893
X51193Y25893
X53723Y25893
X58443Y25893
X60723Y25893
X65443Y25893
X67723Y25893
X72443Y25893
X51193Y19643
X46473Y19643
X46473Y16393
X51193Y16393
X67723Y16393
X72443Y16393
X29943Y16393
X25223Y16393
X25223Y19643
X29943Y19643
T07
X29335Y14096
X29335Y12128
X29335Y10146
X29335Y8178
X50585Y8178
X50585Y10146
X50585Y12128
X50585Y14096
X71835Y14096
X71835Y12128
X71835Y10146
X71835Y8178
M30
