G75*
%MOIN*%
%OFA0B0*%
%FSLAX24Y24*%
%IPPOS*%
%LPD*%
%AMOC8*
5,1,8,0,0,1.08239X$1,22.5*
%
%ADD10C,0.0000*%
%ADD11C,0.0010*%
%ADD12C,0.0040*%
%ADD13C,0.0050*%
%ADD14C,0.0080*%
D10*
X010443Y007143D02*
X010443Y027843D01*
X073193Y027843D01*
X073193Y007143D01*
X010443Y007143D01*
X024973Y016393D02*
X024975Y016424D01*
X024981Y016455D01*
X024991Y016485D01*
X025004Y016513D01*
X025021Y016540D01*
X025041Y016564D01*
X025064Y016586D01*
X025089Y016604D01*
X025117Y016619D01*
X025146Y016631D01*
X025176Y016639D01*
X025207Y016643D01*
X025239Y016643D01*
X025270Y016639D01*
X025300Y016631D01*
X025329Y016619D01*
X025357Y016604D01*
X025382Y016586D01*
X025405Y016564D01*
X025425Y016540D01*
X025442Y016513D01*
X025455Y016485D01*
X025465Y016455D01*
X025471Y016424D01*
X025473Y016393D01*
X025471Y016362D01*
X025465Y016331D01*
X025455Y016301D01*
X025442Y016273D01*
X025425Y016246D01*
X025405Y016222D01*
X025382Y016200D01*
X025357Y016182D01*
X025329Y016167D01*
X025300Y016155D01*
X025270Y016147D01*
X025239Y016143D01*
X025207Y016143D01*
X025176Y016147D01*
X025146Y016155D01*
X025117Y016167D01*
X025089Y016182D01*
X025064Y016200D01*
X025041Y016222D01*
X025021Y016246D01*
X025004Y016273D01*
X024991Y016301D01*
X024981Y016331D01*
X024975Y016362D01*
X024973Y016393D01*
X029693Y016393D02*
X029695Y016424D01*
X029701Y016455D01*
X029711Y016485D01*
X029724Y016513D01*
X029741Y016540D01*
X029761Y016564D01*
X029784Y016586D01*
X029809Y016604D01*
X029837Y016619D01*
X029866Y016631D01*
X029896Y016639D01*
X029927Y016643D01*
X029959Y016643D01*
X029990Y016639D01*
X030020Y016631D01*
X030049Y016619D01*
X030077Y016604D01*
X030102Y016586D01*
X030125Y016564D01*
X030145Y016540D01*
X030162Y016513D01*
X030175Y016485D01*
X030185Y016455D01*
X030191Y016424D01*
X030193Y016393D01*
X030191Y016362D01*
X030185Y016331D01*
X030175Y016301D01*
X030162Y016273D01*
X030145Y016246D01*
X030125Y016222D01*
X030102Y016200D01*
X030077Y016182D01*
X030049Y016167D01*
X030020Y016155D01*
X029990Y016147D01*
X029959Y016143D01*
X029927Y016143D01*
X029896Y016147D01*
X029866Y016155D01*
X029837Y016167D01*
X029809Y016182D01*
X029784Y016200D01*
X029761Y016222D01*
X029741Y016246D01*
X029724Y016273D01*
X029711Y016301D01*
X029701Y016331D01*
X029695Y016362D01*
X029693Y016393D01*
X029693Y019643D02*
X029695Y019674D01*
X029701Y019705D01*
X029711Y019735D01*
X029724Y019763D01*
X029741Y019790D01*
X029761Y019814D01*
X029784Y019836D01*
X029809Y019854D01*
X029837Y019869D01*
X029866Y019881D01*
X029896Y019889D01*
X029927Y019893D01*
X029959Y019893D01*
X029990Y019889D01*
X030020Y019881D01*
X030049Y019869D01*
X030077Y019854D01*
X030102Y019836D01*
X030125Y019814D01*
X030145Y019790D01*
X030162Y019763D01*
X030175Y019735D01*
X030185Y019705D01*
X030191Y019674D01*
X030193Y019643D01*
X030191Y019612D01*
X030185Y019581D01*
X030175Y019551D01*
X030162Y019523D01*
X030145Y019496D01*
X030125Y019472D01*
X030102Y019450D01*
X030077Y019432D01*
X030049Y019417D01*
X030020Y019405D01*
X029990Y019397D01*
X029959Y019393D01*
X029927Y019393D01*
X029896Y019397D01*
X029866Y019405D01*
X029837Y019417D01*
X029809Y019432D01*
X029784Y019450D01*
X029761Y019472D01*
X029741Y019496D01*
X029724Y019523D01*
X029711Y019551D01*
X029701Y019581D01*
X029695Y019612D01*
X029693Y019643D01*
X024973Y019643D02*
X024975Y019674D01*
X024981Y019705D01*
X024991Y019735D01*
X025004Y019763D01*
X025021Y019790D01*
X025041Y019814D01*
X025064Y019836D01*
X025089Y019854D01*
X025117Y019869D01*
X025146Y019881D01*
X025176Y019889D01*
X025207Y019893D01*
X025239Y019893D01*
X025270Y019889D01*
X025300Y019881D01*
X025329Y019869D01*
X025357Y019854D01*
X025382Y019836D01*
X025405Y019814D01*
X025425Y019790D01*
X025442Y019763D01*
X025455Y019735D01*
X025465Y019705D01*
X025471Y019674D01*
X025473Y019643D01*
X025471Y019612D01*
X025465Y019581D01*
X025455Y019551D01*
X025442Y019523D01*
X025425Y019496D01*
X025405Y019472D01*
X025382Y019450D01*
X025357Y019432D01*
X025329Y019417D01*
X025300Y019405D01*
X025270Y019397D01*
X025239Y019393D01*
X025207Y019393D01*
X025176Y019397D01*
X025146Y019405D01*
X025117Y019417D01*
X025089Y019432D01*
X025064Y019450D01*
X025041Y019472D01*
X025021Y019496D01*
X025004Y019523D01*
X024991Y019551D01*
X024981Y019581D01*
X024975Y019612D01*
X024973Y019643D01*
X024973Y022893D02*
X024975Y022924D01*
X024981Y022955D01*
X024991Y022985D01*
X025004Y023013D01*
X025021Y023040D01*
X025041Y023064D01*
X025064Y023086D01*
X025089Y023104D01*
X025117Y023119D01*
X025146Y023131D01*
X025176Y023139D01*
X025207Y023143D01*
X025239Y023143D01*
X025270Y023139D01*
X025300Y023131D01*
X025329Y023119D01*
X025357Y023104D01*
X025382Y023086D01*
X025405Y023064D01*
X025425Y023040D01*
X025442Y023013D01*
X025455Y022985D01*
X025465Y022955D01*
X025471Y022924D01*
X025473Y022893D01*
X025471Y022862D01*
X025465Y022831D01*
X025455Y022801D01*
X025442Y022773D01*
X025425Y022746D01*
X025405Y022722D01*
X025382Y022700D01*
X025357Y022682D01*
X025329Y022667D01*
X025300Y022655D01*
X025270Y022647D01*
X025239Y022643D01*
X025207Y022643D01*
X025176Y022647D01*
X025146Y022655D01*
X025117Y022667D01*
X025089Y022682D01*
X025064Y022700D01*
X025041Y022722D01*
X025021Y022746D01*
X025004Y022773D01*
X024991Y022801D01*
X024981Y022831D01*
X024975Y022862D01*
X024973Y022893D01*
X022693Y022893D02*
X022695Y022924D01*
X022701Y022955D01*
X022711Y022985D01*
X022724Y023013D01*
X022741Y023040D01*
X022761Y023064D01*
X022784Y023086D01*
X022809Y023104D01*
X022837Y023119D01*
X022866Y023131D01*
X022896Y023139D01*
X022927Y023143D01*
X022959Y023143D01*
X022990Y023139D01*
X023020Y023131D01*
X023049Y023119D01*
X023077Y023104D01*
X023102Y023086D01*
X023125Y023064D01*
X023145Y023040D01*
X023162Y023013D01*
X023175Y022985D01*
X023185Y022955D01*
X023191Y022924D01*
X023193Y022893D01*
X023191Y022862D01*
X023185Y022831D01*
X023175Y022801D01*
X023162Y022773D01*
X023145Y022746D01*
X023125Y022722D01*
X023102Y022700D01*
X023077Y022682D01*
X023049Y022667D01*
X023020Y022655D01*
X022990Y022647D01*
X022959Y022643D01*
X022927Y022643D01*
X022896Y022647D01*
X022866Y022655D01*
X022837Y022667D01*
X022809Y022682D01*
X022784Y022700D01*
X022761Y022722D01*
X022741Y022746D01*
X022724Y022773D01*
X022711Y022801D01*
X022701Y022831D01*
X022695Y022862D01*
X022693Y022893D01*
X017973Y022893D02*
X017975Y022924D01*
X017981Y022955D01*
X017991Y022985D01*
X018004Y023013D01*
X018021Y023040D01*
X018041Y023064D01*
X018064Y023086D01*
X018089Y023104D01*
X018117Y023119D01*
X018146Y023131D01*
X018176Y023139D01*
X018207Y023143D01*
X018239Y023143D01*
X018270Y023139D01*
X018300Y023131D01*
X018329Y023119D01*
X018357Y023104D01*
X018382Y023086D01*
X018405Y023064D01*
X018425Y023040D01*
X018442Y023013D01*
X018455Y022985D01*
X018465Y022955D01*
X018471Y022924D01*
X018473Y022893D01*
X018471Y022862D01*
X018465Y022831D01*
X018455Y022801D01*
X018442Y022773D01*
X018425Y022746D01*
X018405Y022722D01*
X018382Y022700D01*
X018357Y022682D01*
X018329Y022667D01*
X018300Y022655D01*
X018270Y022647D01*
X018239Y022643D01*
X018207Y022643D01*
X018176Y022647D01*
X018146Y022655D01*
X018117Y022667D01*
X018089Y022682D01*
X018064Y022700D01*
X018041Y022722D01*
X018021Y022746D01*
X018004Y022773D01*
X017991Y022801D01*
X017981Y022831D01*
X017975Y022862D01*
X017973Y022893D01*
X015693Y022893D02*
X015695Y022924D01*
X015701Y022955D01*
X015711Y022985D01*
X015724Y023013D01*
X015741Y023040D01*
X015761Y023064D01*
X015784Y023086D01*
X015809Y023104D01*
X015837Y023119D01*
X015866Y023131D01*
X015896Y023139D01*
X015927Y023143D01*
X015959Y023143D01*
X015990Y023139D01*
X016020Y023131D01*
X016049Y023119D01*
X016077Y023104D01*
X016102Y023086D01*
X016125Y023064D01*
X016145Y023040D01*
X016162Y023013D01*
X016175Y022985D01*
X016185Y022955D01*
X016191Y022924D01*
X016193Y022893D01*
X016191Y022862D01*
X016185Y022831D01*
X016175Y022801D01*
X016162Y022773D01*
X016145Y022746D01*
X016125Y022722D01*
X016102Y022700D01*
X016077Y022682D01*
X016049Y022667D01*
X016020Y022655D01*
X015990Y022647D01*
X015959Y022643D01*
X015927Y022643D01*
X015896Y022647D01*
X015866Y022655D01*
X015837Y022667D01*
X015809Y022682D01*
X015784Y022700D01*
X015761Y022722D01*
X015741Y022746D01*
X015724Y022773D01*
X015711Y022801D01*
X015701Y022831D01*
X015695Y022862D01*
X015693Y022893D01*
X010973Y022893D02*
X010975Y022924D01*
X010981Y022955D01*
X010991Y022985D01*
X011004Y023013D01*
X011021Y023040D01*
X011041Y023064D01*
X011064Y023086D01*
X011089Y023104D01*
X011117Y023119D01*
X011146Y023131D01*
X011176Y023139D01*
X011207Y023143D01*
X011239Y023143D01*
X011270Y023139D01*
X011300Y023131D01*
X011329Y023119D01*
X011357Y023104D01*
X011382Y023086D01*
X011405Y023064D01*
X011425Y023040D01*
X011442Y023013D01*
X011455Y022985D01*
X011465Y022955D01*
X011471Y022924D01*
X011473Y022893D01*
X011471Y022862D01*
X011465Y022831D01*
X011455Y022801D01*
X011442Y022773D01*
X011425Y022746D01*
X011405Y022722D01*
X011382Y022700D01*
X011357Y022682D01*
X011329Y022667D01*
X011300Y022655D01*
X011270Y022647D01*
X011239Y022643D01*
X011207Y022643D01*
X011176Y022647D01*
X011146Y022655D01*
X011117Y022667D01*
X011089Y022682D01*
X011064Y022700D01*
X011041Y022722D01*
X011021Y022746D01*
X011004Y022773D01*
X010991Y022801D01*
X010981Y022831D01*
X010975Y022862D01*
X010973Y022893D01*
X010973Y025893D02*
X010975Y025924D01*
X010981Y025955D01*
X010991Y025985D01*
X011004Y026013D01*
X011021Y026040D01*
X011041Y026064D01*
X011064Y026086D01*
X011089Y026104D01*
X011117Y026119D01*
X011146Y026131D01*
X011176Y026139D01*
X011207Y026143D01*
X011239Y026143D01*
X011270Y026139D01*
X011300Y026131D01*
X011329Y026119D01*
X011357Y026104D01*
X011382Y026086D01*
X011405Y026064D01*
X011425Y026040D01*
X011442Y026013D01*
X011455Y025985D01*
X011465Y025955D01*
X011471Y025924D01*
X011473Y025893D01*
X011471Y025862D01*
X011465Y025831D01*
X011455Y025801D01*
X011442Y025773D01*
X011425Y025746D01*
X011405Y025722D01*
X011382Y025700D01*
X011357Y025682D01*
X011329Y025667D01*
X011300Y025655D01*
X011270Y025647D01*
X011239Y025643D01*
X011207Y025643D01*
X011176Y025647D01*
X011146Y025655D01*
X011117Y025667D01*
X011089Y025682D01*
X011064Y025700D01*
X011041Y025722D01*
X011021Y025746D01*
X011004Y025773D01*
X010991Y025801D01*
X010981Y025831D01*
X010975Y025862D01*
X010973Y025893D01*
X015693Y025893D02*
X015695Y025924D01*
X015701Y025955D01*
X015711Y025985D01*
X015724Y026013D01*
X015741Y026040D01*
X015761Y026064D01*
X015784Y026086D01*
X015809Y026104D01*
X015837Y026119D01*
X015866Y026131D01*
X015896Y026139D01*
X015927Y026143D01*
X015959Y026143D01*
X015990Y026139D01*
X016020Y026131D01*
X016049Y026119D01*
X016077Y026104D01*
X016102Y026086D01*
X016125Y026064D01*
X016145Y026040D01*
X016162Y026013D01*
X016175Y025985D01*
X016185Y025955D01*
X016191Y025924D01*
X016193Y025893D01*
X016191Y025862D01*
X016185Y025831D01*
X016175Y025801D01*
X016162Y025773D01*
X016145Y025746D01*
X016125Y025722D01*
X016102Y025700D01*
X016077Y025682D01*
X016049Y025667D01*
X016020Y025655D01*
X015990Y025647D01*
X015959Y025643D01*
X015927Y025643D01*
X015896Y025647D01*
X015866Y025655D01*
X015837Y025667D01*
X015809Y025682D01*
X015784Y025700D01*
X015761Y025722D01*
X015741Y025746D01*
X015724Y025773D01*
X015711Y025801D01*
X015701Y025831D01*
X015695Y025862D01*
X015693Y025893D01*
X017973Y025893D02*
X017975Y025924D01*
X017981Y025955D01*
X017991Y025985D01*
X018004Y026013D01*
X018021Y026040D01*
X018041Y026064D01*
X018064Y026086D01*
X018089Y026104D01*
X018117Y026119D01*
X018146Y026131D01*
X018176Y026139D01*
X018207Y026143D01*
X018239Y026143D01*
X018270Y026139D01*
X018300Y026131D01*
X018329Y026119D01*
X018357Y026104D01*
X018382Y026086D01*
X018405Y026064D01*
X018425Y026040D01*
X018442Y026013D01*
X018455Y025985D01*
X018465Y025955D01*
X018471Y025924D01*
X018473Y025893D01*
X018471Y025862D01*
X018465Y025831D01*
X018455Y025801D01*
X018442Y025773D01*
X018425Y025746D01*
X018405Y025722D01*
X018382Y025700D01*
X018357Y025682D01*
X018329Y025667D01*
X018300Y025655D01*
X018270Y025647D01*
X018239Y025643D01*
X018207Y025643D01*
X018176Y025647D01*
X018146Y025655D01*
X018117Y025667D01*
X018089Y025682D01*
X018064Y025700D01*
X018041Y025722D01*
X018021Y025746D01*
X018004Y025773D01*
X017991Y025801D01*
X017981Y025831D01*
X017975Y025862D01*
X017973Y025893D01*
X022693Y025893D02*
X022695Y025924D01*
X022701Y025955D01*
X022711Y025985D01*
X022724Y026013D01*
X022741Y026040D01*
X022761Y026064D01*
X022784Y026086D01*
X022809Y026104D01*
X022837Y026119D01*
X022866Y026131D01*
X022896Y026139D01*
X022927Y026143D01*
X022959Y026143D01*
X022990Y026139D01*
X023020Y026131D01*
X023049Y026119D01*
X023077Y026104D01*
X023102Y026086D01*
X023125Y026064D01*
X023145Y026040D01*
X023162Y026013D01*
X023175Y025985D01*
X023185Y025955D01*
X023191Y025924D01*
X023193Y025893D01*
X023191Y025862D01*
X023185Y025831D01*
X023175Y025801D01*
X023162Y025773D01*
X023145Y025746D01*
X023125Y025722D01*
X023102Y025700D01*
X023077Y025682D01*
X023049Y025667D01*
X023020Y025655D01*
X022990Y025647D01*
X022959Y025643D01*
X022927Y025643D01*
X022896Y025647D01*
X022866Y025655D01*
X022837Y025667D01*
X022809Y025682D01*
X022784Y025700D01*
X022761Y025722D01*
X022741Y025746D01*
X022724Y025773D01*
X022711Y025801D01*
X022701Y025831D01*
X022695Y025862D01*
X022693Y025893D01*
X024973Y025893D02*
X024975Y025924D01*
X024981Y025955D01*
X024991Y025985D01*
X025004Y026013D01*
X025021Y026040D01*
X025041Y026064D01*
X025064Y026086D01*
X025089Y026104D01*
X025117Y026119D01*
X025146Y026131D01*
X025176Y026139D01*
X025207Y026143D01*
X025239Y026143D01*
X025270Y026139D01*
X025300Y026131D01*
X025329Y026119D01*
X025357Y026104D01*
X025382Y026086D01*
X025405Y026064D01*
X025425Y026040D01*
X025442Y026013D01*
X025455Y025985D01*
X025465Y025955D01*
X025471Y025924D01*
X025473Y025893D01*
X025471Y025862D01*
X025465Y025831D01*
X025455Y025801D01*
X025442Y025773D01*
X025425Y025746D01*
X025405Y025722D01*
X025382Y025700D01*
X025357Y025682D01*
X025329Y025667D01*
X025300Y025655D01*
X025270Y025647D01*
X025239Y025643D01*
X025207Y025643D01*
X025176Y025647D01*
X025146Y025655D01*
X025117Y025667D01*
X025089Y025682D01*
X025064Y025700D01*
X025041Y025722D01*
X025021Y025746D01*
X025004Y025773D01*
X024991Y025801D01*
X024981Y025831D01*
X024975Y025862D01*
X024973Y025893D01*
X029693Y025893D02*
X029695Y025924D01*
X029701Y025955D01*
X029711Y025985D01*
X029724Y026013D01*
X029741Y026040D01*
X029761Y026064D01*
X029784Y026086D01*
X029809Y026104D01*
X029837Y026119D01*
X029866Y026131D01*
X029896Y026139D01*
X029927Y026143D01*
X029959Y026143D01*
X029990Y026139D01*
X030020Y026131D01*
X030049Y026119D01*
X030077Y026104D01*
X030102Y026086D01*
X030125Y026064D01*
X030145Y026040D01*
X030162Y026013D01*
X030175Y025985D01*
X030185Y025955D01*
X030191Y025924D01*
X030193Y025893D01*
X030191Y025862D01*
X030185Y025831D01*
X030175Y025801D01*
X030162Y025773D01*
X030145Y025746D01*
X030125Y025722D01*
X030102Y025700D01*
X030077Y025682D01*
X030049Y025667D01*
X030020Y025655D01*
X029990Y025647D01*
X029959Y025643D01*
X029927Y025643D01*
X029896Y025647D01*
X029866Y025655D01*
X029837Y025667D01*
X029809Y025682D01*
X029784Y025700D01*
X029761Y025722D01*
X029741Y025746D01*
X029724Y025773D01*
X029711Y025801D01*
X029701Y025831D01*
X029695Y025862D01*
X029693Y025893D01*
X032223Y025893D02*
X032225Y025924D01*
X032231Y025955D01*
X032241Y025985D01*
X032254Y026013D01*
X032271Y026040D01*
X032291Y026064D01*
X032314Y026086D01*
X032339Y026104D01*
X032367Y026119D01*
X032396Y026131D01*
X032426Y026139D01*
X032457Y026143D01*
X032489Y026143D01*
X032520Y026139D01*
X032550Y026131D01*
X032579Y026119D01*
X032607Y026104D01*
X032632Y026086D01*
X032655Y026064D01*
X032675Y026040D01*
X032692Y026013D01*
X032705Y025985D01*
X032715Y025955D01*
X032721Y025924D01*
X032723Y025893D01*
X032721Y025862D01*
X032715Y025831D01*
X032705Y025801D01*
X032692Y025773D01*
X032675Y025746D01*
X032655Y025722D01*
X032632Y025700D01*
X032607Y025682D01*
X032579Y025667D01*
X032550Y025655D01*
X032520Y025647D01*
X032489Y025643D01*
X032457Y025643D01*
X032426Y025647D01*
X032396Y025655D01*
X032367Y025667D01*
X032339Y025682D01*
X032314Y025700D01*
X032291Y025722D01*
X032271Y025746D01*
X032254Y025773D01*
X032241Y025801D01*
X032231Y025831D01*
X032225Y025862D01*
X032223Y025893D01*
X036943Y025893D02*
X036945Y025924D01*
X036951Y025955D01*
X036961Y025985D01*
X036974Y026013D01*
X036991Y026040D01*
X037011Y026064D01*
X037034Y026086D01*
X037059Y026104D01*
X037087Y026119D01*
X037116Y026131D01*
X037146Y026139D01*
X037177Y026143D01*
X037209Y026143D01*
X037240Y026139D01*
X037270Y026131D01*
X037299Y026119D01*
X037327Y026104D01*
X037352Y026086D01*
X037375Y026064D01*
X037395Y026040D01*
X037412Y026013D01*
X037425Y025985D01*
X037435Y025955D01*
X037441Y025924D01*
X037443Y025893D01*
X037441Y025862D01*
X037435Y025831D01*
X037425Y025801D01*
X037412Y025773D01*
X037395Y025746D01*
X037375Y025722D01*
X037352Y025700D01*
X037327Y025682D01*
X037299Y025667D01*
X037270Y025655D01*
X037240Y025647D01*
X037209Y025643D01*
X037177Y025643D01*
X037146Y025647D01*
X037116Y025655D01*
X037087Y025667D01*
X037059Y025682D01*
X037034Y025700D01*
X037011Y025722D01*
X036991Y025746D01*
X036974Y025773D01*
X036961Y025801D01*
X036951Y025831D01*
X036945Y025862D01*
X036943Y025893D01*
X039223Y025893D02*
X039225Y025924D01*
X039231Y025955D01*
X039241Y025985D01*
X039254Y026013D01*
X039271Y026040D01*
X039291Y026064D01*
X039314Y026086D01*
X039339Y026104D01*
X039367Y026119D01*
X039396Y026131D01*
X039426Y026139D01*
X039457Y026143D01*
X039489Y026143D01*
X039520Y026139D01*
X039550Y026131D01*
X039579Y026119D01*
X039607Y026104D01*
X039632Y026086D01*
X039655Y026064D01*
X039675Y026040D01*
X039692Y026013D01*
X039705Y025985D01*
X039715Y025955D01*
X039721Y025924D01*
X039723Y025893D01*
X039721Y025862D01*
X039715Y025831D01*
X039705Y025801D01*
X039692Y025773D01*
X039675Y025746D01*
X039655Y025722D01*
X039632Y025700D01*
X039607Y025682D01*
X039579Y025667D01*
X039550Y025655D01*
X039520Y025647D01*
X039489Y025643D01*
X039457Y025643D01*
X039426Y025647D01*
X039396Y025655D01*
X039367Y025667D01*
X039339Y025682D01*
X039314Y025700D01*
X039291Y025722D01*
X039271Y025746D01*
X039254Y025773D01*
X039241Y025801D01*
X039231Y025831D01*
X039225Y025862D01*
X039223Y025893D01*
X043943Y025893D02*
X043945Y025924D01*
X043951Y025955D01*
X043961Y025985D01*
X043974Y026013D01*
X043991Y026040D01*
X044011Y026064D01*
X044034Y026086D01*
X044059Y026104D01*
X044087Y026119D01*
X044116Y026131D01*
X044146Y026139D01*
X044177Y026143D01*
X044209Y026143D01*
X044240Y026139D01*
X044270Y026131D01*
X044299Y026119D01*
X044327Y026104D01*
X044352Y026086D01*
X044375Y026064D01*
X044395Y026040D01*
X044412Y026013D01*
X044425Y025985D01*
X044435Y025955D01*
X044441Y025924D01*
X044443Y025893D01*
X044441Y025862D01*
X044435Y025831D01*
X044425Y025801D01*
X044412Y025773D01*
X044395Y025746D01*
X044375Y025722D01*
X044352Y025700D01*
X044327Y025682D01*
X044299Y025667D01*
X044270Y025655D01*
X044240Y025647D01*
X044209Y025643D01*
X044177Y025643D01*
X044146Y025647D01*
X044116Y025655D01*
X044087Y025667D01*
X044059Y025682D01*
X044034Y025700D01*
X044011Y025722D01*
X043991Y025746D01*
X043974Y025773D01*
X043961Y025801D01*
X043951Y025831D01*
X043945Y025862D01*
X043943Y025893D01*
X046223Y025893D02*
X046225Y025924D01*
X046231Y025955D01*
X046241Y025985D01*
X046254Y026013D01*
X046271Y026040D01*
X046291Y026064D01*
X046314Y026086D01*
X046339Y026104D01*
X046367Y026119D01*
X046396Y026131D01*
X046426Y026139D01*
X046457Y026143D01*
X046489Y026143D01*
X046520Y026139D01*
X046550Y026131D01*
X046579Y026119D01*
X046607Y026104D01*
X046632Y026086D01*
X046655Y026064D01*
X046675Y026040D01*
X046692Y026013D01*
X046705Y025985D01*
X046715Y025955D01*
X046721Y025924D01*
X046723Y025893D01*
X046721Y025862D01*
X046715Y025831D01*
X046705Y025801D01*
X046692Y025773D01*
X046675Y025746D01*
X046655Y025722D01*
X046632Y025700D01*
X046607Y025682D01*
X046579Y025667D01*
X046550Y025655D01*
X046520Y025647D01*
X046489Y025643D01*
X046457Y025643D01*
X046426Y025647D01*
X046396Y025655D01*
X046367Y025667D01*
X046339Y025682D01*
X046314Y025700D01*
X046291Y025722D01*
X046271Y025746D01*
X046254Y025773D01*
X046241Y025801D01*
X046231Y025831D01*
X046225Y025862D01*
X046223Y025893D01*
X050943Y025893D02*
X050945Y025924D01*
X050951Y025955D01*
X050961Y025985D01*
X050974Y026013D01*
X050991Y026040D01*
X051011Y026064D01*
X051034Y026086D01*
X051059Y026104D01*
X051087Y026119D01*
X051116Y026131D01*
X051146Y026139D01*
X051177Y026143D01*
X051209Y026143D01*
X051240Y026139D01*
X051270Y026131D01*
X051299Y026119D01*
X051327Y026104D01*
X051352Y026086D01*
X051375Y026064D01*
X051395Y026040D01*
X051412Y026013D01*
X051425Y025985D01*
X051435Y025955D01*
X051441Y025924D01*
X051443Y025893D01*
X051441Y025862D01*
X051435Y025831D01*
X051425Y025801D01*
X051412Y025773D01*
X051395Y025746D01*
X051375Y025722D01*
X051352Y025700D01*
X051327Y025682D01*
X051299Y025667D01*
X051270Y025655D01*
X051240Y025647D01*
X051209Y025643D01*
X051177Y025643D01*
X051146Y025647D01*
X051116Y025655D01*
X051087Y025667D01*
X051059Y025682D01*
X051034Y025700D01*
X051011Y025722D01*
X050991Y025746D01*
X050974Y025773D01*
X050961Y025801D01*
X050951Y025831D01*
X050945Y025862D01*
X050943Y025893D01*
X053473Y025893D02*
X053475Y025924D01*
X053481Y025955D01*
X053491Y025985D01*
X053504Y026013D01*
X053521Y026040D01*
X053541Y026064D01*
X053564Y026086D01*
X053589Y026104D01*
X053617Y026119D01*
X053646Y026131D01*
X053676Y026139D01*
X053707Y026143D01*
X053739Y026143D01*
X053770Y026139D01*
X053800Y026131D01*
X053829Y026119D01*
X053857Y026104D01*
X053882Y026086D01*
X053905Y026064D01*
X053925Y026040D01*
X053942Y026013D01*
X053955Y025985D01*
X053965Y025955D01*
X053971Y025924D01*
X053973Y025893D01*
X053971Y025862D01*
X053965Y025831D01*
X053955Y025801D01*
X053942Y025773D01*
X053925Y025746D01*
X053905Y025722D01*
X053882Y025700D01*
X053857Y025682D01*
X053829Y025667D01*
X053800Y025655D01*
X053770Y025647D01*
X053739Y025643D01*
X053707Y025643D01*
X053676Y025647D01*
X053646Y025655D01*
X053617Y025667D01*
X053589Y025682D01*
X053564Y025700D01*
X053541Y025722D01*
X053521Y025746D01*
X053504Y025773D01*
X053491Y025801D01*
X053481Y025831D01*
X053475Y025862D01*
X053473Y025893D01*
X058193Y025893D02*
X058195Y025924D01*
X058201Y025955D01*
X058211Y025985D01*
X058224Y026013D01*
X058241Y026040D01*
X058261Y026064D01*
X058284Y026086D01*
X058309Y026104D01*
X058337Y026119D01*
X058366Y026131D01*
X058396Y026139D01*
X058427Y026143D01*
X058459Y026143D01*
X058490Y026139D01*
X058520Y026131D01*
X058549Y026119D01*
X058577Y026104D01*
X058602Y026086D01*
X058625Y026064D01*
X058645Y026040D01*
X058662Y026013D01*
X058675Y025985D01*
X058685Y025955D01*
X058691Y025924D01*
X058693Y025893D01*
X058691Y025862D01*
X058685Y025831D01*
X058675Y025801D01*
X058662Y025773D01*
X058645Y025746D01*
X058625Y025722D01*
X058602Y025700D01*
X058577Y025682D01*
X058549Y025667D01*
X058520Y025655D01*
X058490Y025647D01*
X058459Y025643D01*
X058427Y025643D01*
X058396Y025647D01*
X058366Y025655D01*
X058337Y025667D01*
X058309Y025682D01*
X058284Y025700D01*
X058261Y025722D01*
X058241Y025746D01*
X058224Y025773D01*
X058211Y025801D01*
X058201Y025831D01*
X058195Y025862D01*
X058193Y025893D01*
X060473Y025893D02*
X060475Y025924D01*
X060481Y025955D01*
X060491Y025985D01*
X060504Y026013D01*
X060521Y026040D01*
X060541Y026064D01*
X060564Y026086D01*
X060589Y026104D01*
X060617Y026119D01*
X060646Y026131D01*
X060676Y026139D01*
X060707Y026143D01*
X060739Y026143D01*
X060770Y026139D01*
X060800Y026131D01*
X060829Y026119D01*
X060857Y026104D01*
X060882Y026086D01*
X060905Y026064D01*
X060925Y026040D01*
X060942Y026013D01*
X060955Y025985D01*
X060965Y025955D01*
X060971Y025924D01*
X060973Y025893D01*
X060971Y025862D01*
X060965Y025831D01*
X060955Y025801D01*
X060942Y025773D01*
X060925Y025746D01*
X060905Y025722D01*
X060882Y025700D01*
X060857Y025682D01*
X060829Y025667D01*
X060800Y025655D01*
X060770Y025647D01*
X060739Y025643D01*
X060707Y025643D01*
X060676Y025647D01*
X060646Y025655D01*
X060617Y025667D01*
X060589Y025682D01*
X060564Y025700D01*
X060541Y025722D01*
X060521Y025746D01*
X060504Y025773D01*
X060491Y025801D01*
X060481Y025831D01*
X060475Y025862D01*
X060473Y025893D01*
X065193Y025893D02*
X065195Y025924D01*
X065201Y025955D01*
X065211Y025985D01*
X065224Y026013D01*
X065241Y026040D01*
X065261Y026064D01*
X065284Y026086D01*
X065309Y026104D01*
X065337Y026119D01*
X065366Y026131D01*
X065396Y026139D01*
X065427Y026143D01*
X065459Y026143D01*
X065490Y026139D01*
X065520Y026131D01*
X065549Y026119D01*
X065577Y026104D01*
X065602Y026086D01*
X065625Y026064D01*
X065645Y026040D01*
X065662Y026013D01*
X065675Y025985D01*
X065685Y025955D01*
X065691Y025924D01*
X065693Y025893D01*
X065691Y025862D01*
X065685Y025831D01*
X065675Y025801D01*
X065662Y025773D01*
X065645Y025746D01*
X065625Y025722D01*
X065602Y025700D01*
X065577Y025682D01*
X065549Y025667D01*
X065520Y025655D01*
X065490Y025647D01*
X065459Y025643D01*
X065427Y025643D01*
X065396Y025647D01*
X065366Y025655D01*
X065337Y025667D01*
X065309Y025682D01*
X065284Y025700D01*
X065261Y025722D01*
X065241Y025746D01*
X065224Y025773D01*
X065211Y025801D01*
X065201Y025831D01*
X065195Y025862D01*
X065193Y025893D01*
X067473Y025893D02*
X067475Y025924D01*
X067481Y025955D01*
X067491Y025985D01*
X067504Y026013D01*
X067521Y026040D01*
X067541Y026064D01*
X067564Y026086D01*
X067589Y026104D01*
X067617Y026119D01*
X067646Y026131D01*
X067676Y026139D01*
X067707Y026143D01*
X067739Y026143D01*
X067770Y026139D01*
X067800Y026131D01*
X067829Y026119D01*
X067857Y026104D01*
X067882Y026086D01*
X067905Y026064D01*
X067925Y026040D01*
X067942Y026013D01*
X067955Y025985D01*
X067965Y025955D01*
X067971Y025924D01*
X067973Y025893D01*
X067971Y025862D01*
X067965Y025831D01*
X067955Y025801D01*
X067942Y025773D01*
X067925Y025746D01*
X067905Y025722D01*
X067882Y025700D01*
X067857Y025682D01*
X067829Y025667D01*
X067800Y025655D01*
X067770Y025647D01*
X067739Y025643D01*
X067707Y025643D01*
X067676Y025647D01*
X067646Y025655D01*
X067617Y025667D01*
X067589Y025682D01*
X067564Y025700D01*
X067541Y025722D01*
X067521Y025746D01*
X067504Y025773D01*
X067491Y025801D01*
X067481Y025831D01*
X067475Y025862D01*
X067473Y025893D01*
X072193Y025893D02*
X072195Y025924D01*
X072201Y025955D01*
X072211Y025985D01*
X072224Y026013D01*
X072241Y026040D01*
X072261Y026064D01*
X072284Y026086D01*
X072309Y026104D01*
X072337Y026119D01*
X072366Y026131D01*
X072396Y026139D01*
X072427Y026143D01*
X072459Y026143D01*
X072490Y026139D01*
X072520Y026131D01*
X072549Y026119D01*
X072577Y026104D01*
X072602Y026086D01*
X072625Y026064D01*
X072645Y026040D01*
X072662Y026013D01*
X072675Y025985D01*
X072685Y025955D01*
X072691Y025924D01*
X072693Y025893D01*
X072691Y025862D01*
X072685Y025831D01*
X072675Y025801D01*
X072662Y025773D01*
X072645Y025746D01*
X072625Y025722D01*
X072602Y025700D01*
X072577Y025682D01*
X072549Y025667D01*
X072520Y025655D01*
X072490Y025647D01*
X072459Y025643D01*
X072427Y025643D01*
X072396Y025647D01*
X072366Y025655D01*
X072337Y025667D01*
X072309Y025682D01*
X072284Y025700D01*
X072261Y025722D01*
X072241Y025746D01*
X072224Y025773D01*
X072211Y025801D01*
X072201Y025831D01*
X072195Y025862D01*
X072193Y025893D01*
X072193Y022893D02*
X072195Y022924D01*
X072201Y022955D01*
X072211Y022985D01*
X072224Y023013D01*
X072241Y023040D01*
X072261Y023064D01*
X072284Y023086D01*
X072309Y023104D01*
X072337Y023119D01*
X072366Y023131D01*
X072396Y023139D01*
X072427Y023143D01*
X072459Y023143D01*
X072490Y023139D01*
X072520Y023131D01*
X072549Y023119D01*
X072577Y023104D01*
X072602Y023086D01*
X072625Y023064D01*
X072645Y023040D01*
X072662Y023013D01*
X072675Y022985D01*
X072685Y022955D01*
X072691Y022924D01*
X072693Y022893D01*
X072691Y022862D01*
X072685Y022831D01*
X072675Y022801D01*
X072662Y022773D01*
X072645Y022746D01*
X072625Y022722D01*
X072602Y022700D01*
X072577Y022682D01*
X072549Y022667D01*
X072520Y022655D01*
X072490Y022647D01*
X072459Y022643D01*
X072427Y022643D01*
X072396Y022647D01*
X072366Y022655D01*
X072337Y022667D01*
X072309Y022682D01*
X072284Y022700D01*
X072261Y022722D01*
X072241Y022746D01*
X072224Y022773D01*
X072211Y022801D01*
X072201Y022831D01*
X072195Y022862D01*
X072193Y022893D01*
X067473Y022893D02*
X067475Y022924D01*
X067481Y022955D01*
X067491Y022985D01*
X067504Y023013D01*
X067521Y023040D01*
X067541Y023064D01*
X067564Y023086D01*
X067589Y023104D01*
X067617Y023119D01*
X067646Y023131D01*
X067676Y023139D01*
X067707Y023143D01*
X067739Y023143D01*
X067770Y023139D01*
X067800Y023131D01*
X067829Y023119D01*
X067857Y023104D01*
X067882Y023086D01*
X067905Y023064D01*
X067925Y023040D01*
X067942Y023013D01*
X067955Y022985D01*
X067965Y022955D01*
X067971Y022924D01*
X067973Y022893D01*
X067971Y022862D01*
X067965Y022831D01*
X067955Y022801D01*
X067942Y022773D01*
X067925Y022746D01*
X067905Y022722D01*
X067882Y022700D01*
X067857Y022682D01*
X067829Y022667D01*
X067800Y022655D01*
X067770Y022647D01*
X067739Y022643D01*
X067707Y022643D01*
X067676Y022647D01*
X067646Y022655D01*
X067617Y022667D01*
X067589Y022682D01*
X067564Y022700D01*
X067541Y022722D01*
X067521Y022746D01*
X067504Y022773D01*
X067491Y022801D01*
X067481Y022831D01*
X067475Y022862D01*
X067473Y022893D01*
X065193Y022893D02*
X065195Y022924D01*
X065201Y022955D01*
X065211Y022985D01*
X065224Y023013D01*
X065241Y023040D01*
X065261Y023064D01*
X065284Y023086D01*
X065309Y023104D01*
X065337Y023119D01*
X065366Y023131D01*
X065396Y023139D01*
X065427Y023143D01*
X065459Y023143D01*
X065490Y023139D01*
X065520Y023131D01*
X065549Y023119D01*
X065577Y023104D01*
X065602Y023086D01*
X065625Y023064D01*
X065645Y023040D01*
X065662Y023013D01*
X065675Y022985D01*
X065685Y022955D01*
X065691Y022924D01*
X065693Y022893D01*
X065691Y022862D01*
X065685Y022831D01*
X065675Y022801D01*
X065662Y022773D01*
X065645Y022746D01*
X065625Y022722D01*
X065602Y022700D01*
X065577Y022682D01*
X065549Y022667D01*
X065520Y022655D01*
X065490Y022647D01*
X065459Y022643D01*
X065427Y022643D01*
X065396Y022647D01*
X065366Y022655D01*
X065337Y022667D01*
X065309Y022682D01*
X065284Y022700D01*
X065261Y022722D01*
X065241Y022746D01*
X065224Y022773D01*
X065211Y022801D01*
X065201Y022831D01*
X065195Y022862D01*
X065193Y022893D01*
X060473Y022893D02*
X060475Y022924D01*
X060481Y022955D01*
X060491Y022985D01*
X060504Y023013D01*
X060521Y023040D01*
X060541Y023064D01*
X060564Y023086D01*
X060589Y023104D01*
X060617Y023119D01*
X060646Y023131D01*
X060676Y023139D01*
X060707Y023143D01*
X060739Y023143D01*
X060770Y023139D01*
X060800Y023131D01*
X060829Y023119D01*
X060857Y023104D01*
X060882Y023086D01*
X060905Y023064D01*
X060925Y023040D01*
X060942Y023013D01*
X060955Y022985D01*
X060965Y022955D01*
X060971Y022924D01*
X060973Y022893D01*
X060971Y022862D01*
X060965Y022831D01*
X060955Y022801D01*
X060942Y022773D01*
X060925Y022746D01*
X060905Y022722D01*
X060882Y022700D01*
X060857Y022682D01*
X060829Y022667D01*
X060800Y022655D01*
X060770Y022647D01*
X060739Y022643D01*
X060707Y022643D01*
X060676Y022647D01*
X060646Y022655D01*
X060617Y022667D01*
X060589Y022682D01*
X060564Y022700D01*
X060541Y022722D01*
X060521Y022746D01*
X060504Y022773D01*
X060491Y022801D01*
X060481Y022831D01*
X060475Y022862D01*
X060473Y022893D01*
X058193Y022893D02*
X058195Y022924D01*
X058201Y022955D01*
X058211Y022985D01*
X058224Y023013D01*
X058241Y023040D01*
X058261Y023064D01*
X058284Y023086D01*
X058309Y023104D01*
X058337Y023119D01*
X058366Y023131D01*
X058396Y023139D01*
X058427Y023143D01*
X058459Y023143D01*
X058490Y023139D01*
X058520Y023131D01*
X058549Y023119D01*
X058577Y023104D01*
X058602Y023086D01*
X058625Y023064D01*
X058645Y023040D01*
X058662Y023013D01*
X058675Y022985D01*
X058685Y022955D01*
X058691Y022924D01*
X058693Y022893D01*
X058691Y022862D01*
X058685Y022831D01*
X058675Y022801D01*
X058662Y022773D01*
X058645Y022746D01*
X058625Y022722D01*
X058602Y022700D01*
X058577Y022682D01*
X058549Y022667D01*
X058520Y022655D01*
X058490Y022647D01*
X058459Y022643D01*
X058427Y022643D01*
X058396Y022647D01*
X058366Y022655D01*
X058337Y022667D01*
X058309Y022682D01*
X058284Y022700D01*
X058261Y022722D01*
X058241Y022746D01*
X058224Y022773D01*
X058211Y022801D01*
X058201Y022831D01*
X058195Y022862D01*
X058193Y022893D01*
X053473Y022893D02*
X053475Y022924D01*
X053481Y022955D01*
X053491Y022985D01*
X053504Y023013D01*
X053521Y023040D01*
X053541Y023064D01*
X053564Y023086D01*
X053589Y023104D01*
X053617Y023119D01*
X053646Y023131D01*
X053676Y023139D01*
X053707Y023143D01*
X053739Y023143D01*
X053770Y023139D01*
X053800Y023131D01*
X053829Y023119D01*
X053857Y023104D01*
X053882Y023086D01*
X053905Y023064D01*
X053925Y023040D01*
X053942Y023013D01*
X053955Y022985D01*
X053965Y022955D01*
X053971Y022924D01*
X053973Y022893D01*
X053971Y022862D01*
X053965Y022831D01*
X053955Y022801D01*
X053942Y022773D01*
X053925Y022746D01*
X053905Y022722D01*
X053882Y022700D01*
X053857Y022682D01*
X053829Y022667D01*
X053800Y022655D01*
X053770Y022647D01*
X053739Y022643D01*
X053707Y022643D01*
X053676Y022647D01*
X053646Y022655D01*
X053617Y022667D01*
X053589Y022682D01*
X053564Y022700D01*
X053541Y022722D01*
X053521Y022746D01*
X053504Y022773D01*
X053491Y022801D01*
X053481Y022831D01*
X053475Y022862D01*
X053473Y022893D01*
X050943Y022893D02*
X050945Y022924D01*
X050951Y022955D01*
X050961Y022985D01*
X050974Y023013D01*
X050991Y023040D01*
X051011Y023064D01*
X051034Y023086D01*
X051059Y023104D01*
X051087Y023119D01*
X051116Y023131D01*
X051146Y023139D01*
X051177Y023143D01*
X051209Y023143D01*
X051240Y023139D01*
X051270Y023131D01*
X051299Y023119D01*
X051327Y023104D01*
X051352Y023086D01*
X051375Y023064D01*
X051395Y023040D01*
X051412Y023013D01*
X051425Y022985D01*
X051435Y022955D01*
X051441Y022924D01*
X051443Y022893D01*
X051441Y022862D01*
X051435Y022831D01*
X051425Y022801D01*
X051412Y022773D01*
X051395Y022746D01*
X051375Y022722D01*
X051352Y022700D01*
X051327Y022682D01*
X051299Y022667D01*
X051270Y022655D01*
X051240Y022647D01*
X051209Y022643D01*
X051177Y022643D01*
X051146Y022647D01*
X051116Y022655D01*
X051087Y022667D01*
X051059Y022682D01*
X051034Y022700D01*
X051011Y022722D01*
X050991Y022746D01*
X050974Y022773D01*
X050961Y022801D01*
X050951Y022831D01*
X050945Y022862D01*
X050943Y022893D01*
X046223Y022893D02*
X046225Y022924D01*
X046231Y022955D01*
X046241Y022985D01*
X046254Y023013D01*
X046271Y023040D01*
X046291Y023064D01*
X046314Y023086D01*
X046339Y023104D01*
X046367Y023119D01*
X046396Y023131D01*
X046426Y023139D01*
X046457Y023143D01*
X046489Y023143D01*
X046520Y023139D01*
X046550Y023131D01*
X046579Y023119D01*
X046607Y023104D01*
X046632Y023086D01*
X046655Y023064D01*
X046675Y023040D01*
X046692Y023013D01*
X046705Y022985D01*
X046715Y022955D01*
X046721Y022924D01*
X046723Y022893D01*
X046721Y022862D01*
X046715Y022831D01*
X046705Y022801D01*
X046692Y022773D01*
X046675Y022746D01*
X046655Y022722D01*
X046632Y022700D01*
X046607Y022682D01*
X046579Y022667D01*
X046550Y022655D01*
X046520Y022647D01*
X046489Y022643D01*
X046457Y022643D01*
X046426Y022647D01*
X046396Y022655D01*
X046367Y022667D01*
X046339Y022682D01*
X046314Y022700D01*
X046291Y022722D01*
X046271Y022746D01*
X046254Y022773D01*
X046241Y022801D01*
X046231Y022831D01*
X046225Y022862D01*
X046223Y022893D01*
X043943Y022893D02*
X043945Y022924D01*
X043951Y022955D01*
X043961Y022985D01*
X043974Y023013D01*
X043991Y023040D01*
X044011Y023064D01*
X044034Y023086D01*
X044059Y023104D01*
X044087Y023119D01*
X044116Y023131D01*
X044146Y023139D01*
X044177Y023143D01*
X044209Y023143D01*
X044240Y023139D01*
X044270Y023131D01*
X044299Y023119D01*
X044327Y023104D01*
X044352Y023086D01*
X044375Y023064D01*
X044395Y023040D01*
X044412Y023013D01*
X044425Y022985D01*
X044435Y022955D01*
X044441Y022924D01*
X044443Y022893D01*
X044441Y022862D01*
X044435Y022831D01*
X044425Y022801D01*
X044412Y022773D01*
X044395Y022746D01*
X044375Y022722D01*
X044352Y022700D01*
X044327Y022682D01*
X044299Y022667D01*
X044270Y022655D01*
X044240Y022647D01*
X044209Y022643D01*
X044177Y022643D01*
X044146Y022647D01*
X044116Y022655D01*
X044087Y022667D01*
X044059Y022682D01*
X044034Y022700D01*
X044011Y022722D01*
X043991Y022746D01*
X043974Y022773D01*
X043961Y022801D01*
X043951Y022831D01*
X043945Y022862D01*
X043943Y022893D01*
X039223Y022893D02*
X039225Y022924D01*
X039231Y022955D01*
X039241Y022985D01*
X039254Y023013D01*
X039271Y023040D01*
X039291Y023064D01*
X039314Y023086D01*
X039339Y023104D01*
X039367Y023119D01*
X039396Y023131D01*
X039426Y023139D01*
X039457Y023143D01*
X039489Y023143D01*
X039520Y023139D01*
X039550Y023131D01*
X039579Y023119D01*
X039607Y023104D01*
X039632Y023086D01*
X039655Y023064D01*
X039675Y023040D01*
X039692Y023013D01*
X039705Y022985D01*
X039715Y022955D01*
X039721Y022924D01*
X039723Y022893D01*
X039721Y022862D01*
X039715Y022831D01*
X039705Y022801D01*
X039692Y022773D01*
X039675Y022746D01*
X039655Y022722D01*
X039632Y022700D01*
X039607Y022682D01*
X039579Y022667D01*
X039550Y022655D01*
X039520Y022647D01*
X039489Y022643D01*
X039457Y022643D01*
X039426Y022647D01*
X039396Y022655D01*
X039367Y022667D01*
X039339Y022682D01*
X039314Y022700D01*
X039291Y022722D01*
X039271Y022746D01*
X039254Y022773D01*
X039241Y022801D01*
X039231Y022831D01*
X039225Y022862D01*
X039223Y022893D01*
X036943Y022893D02*
X036945Y022924D01*
X036951Y022955D01*
X036961Y022985D01*
X036974Y023013D01*
X036991Y023040D01*
X037011Y023064D01*
X037034Y023086D01*
X037059Y023104D01*
X037087Y023119D01*
X037116Y023131D01*
X037146Y023139D01*
X037177Y023143D01*
X037209Y023143D01*
X037240Y023139D01*
X037270Y023131D01*
X037299Y023119D01*
X037327Y023104D01*
X037352Y023086D01*
X037375Y023064D01*
X037395Y023040D01*
X037412Y023013D01*
X037425Y022985D01*
X037435Y022955D01*
X037441Y022924D01*
X037443Y022893D01*
X037441Y022862D01*
X037435Y022831D01*
X037425Y022801D01*
X037412Y022773D01*
X037395Y022746D01*
X037375Y022722D01*
X037352Y022700D01*
X037327Y022682D01*
X037299Y022667D01*
X037270Y022655D01*
X037240Y022647D01*
X037209Y022643D01*
X037177Y022643D01*
X037146Y022647D01*
X037116Y022655D01*
X037087Y022667D01*
X037059Y022682D01*
X037034Y022700D01*
X037011Y022722D01*
X036991Y022746D01*
X036974Y022773D01*
X036961Y022801D01*
X036951Y022831D01*
X036945Y022862D01*
X036943Y022893D01*
X032223Y022893D02*
X032225Y022924D01*
X032231Y022955D01*
X032241Y022985D01*
X032254Y023013D01*
X032271Y023040D01*
X032291Y023064D01*
X032314Y023086D01*
X032339Y023104D01*
X032367Y023119D01*
X032396Y023131D01*
X032426Y023139D01*
X032457Y023143D01*
X032489Y023143D01*
X032520Y023139D01*
X032550Y023131D01*
X032579Y023119D01*
X032607Y023104D01*
X032632Y023086D01*
X032655Y023064D01*
X032675Y023040D01*
X032692Y023013D01*
X032705Y022985D01*
X032715Y022955D01*
X032721Y022924D01*
X032723Y022893D01*
X032721Y022862D01*
X032715Y022831D01*
X032705Y022801D01*
X032692Y022773D01*
X032675Y022746D01*
X032655Y022722D01*
X032632Y022700D01*
X032607Y022682D01*
X032579Y022667D01*
X032550Y022655D01*
X032520Y022647D01*
X032489Y022643D01*
X032457Y022643D01*
X032426Y022647D01*
X032396Y022655D01*
X032367Y022667D01*
X032339Y022682D01*
X032314Y022700D01*
X032291Y022722D01*
X032271Y022746D01*
X032254Y022773D01*
X032241Y022801D01*
X032231Y022831D01*
X032225Y022862D01*
X032223Y022893D01*
X029693Y022893D02*
X029695Y022924D01*
X029701Y022955D01*
X029711Y022985D01*
X029724Y023013D01*
X029741Y023040D01*
X029761Y023064D01*
X029784Y023086D01*
X029809Y023104D01*
X029837Y023119D01*
X029866Y023131D01*
X029896Y023139D01*
X029927Y023143D01*
X029959Y023143D01*
X029990Y023139D01*
X030020Y023131D01*
X030049Y023119D01*
X030077Y023104D01*
X030102Y023086D01*
X030125Y023064D01*
X030145Y023040D01*
X030162Y023013D01*
X030175Y022985D01*
X030185Y022955D01*
X030191Y022924D01*
X030193Y022893D01*
X030191Y022862D01*
X030185Y022831D01*
X030175Y022801D01*
X030162Y022773D01*
X030145Y022746D01*
X030125Y022722D01*
X030102Y022700D01*
X030077Y022682D01*
X030049Y022667D01*
X030020Y022655D01*
X029990Y022647D01*
X029959Y022643D01*
X029927Y022643D01*
X029896Y022647D01*
X029866Y022655D01*
X029837Y022667D01*
X029809Y022682D01*
X029784Y022700D01*
X029761Y022722D01*
X029741Y022746D01*
X029724Y022773D01*
X029711Y022801D01*
X029701Y022831D01*
X029695Y022862D01*
X029693Y022893D01*
X046223Y019643D02*
X046225Y019674D01*
X046231Y019705D01*
X046241Y019735D01*
X046254Y019763D01*
X046271Y019790D01*
X046291Y019814D01*
X046314Y019836D01*
X046339Y019854D01*
X046367Y019869D01*
X046396Y019881D01*
X046426Y019889D01*
X046457Y019893D01*
X046489Y019893D01*
X046520Y019889D01*
X046550Y019881D01*
X046579Y019869D01*
X046607Y019854D01*
X046632Y019836D01*
X046655Y019814D01*
X046675Y019790D01*
X046692Y019763D01*
X046705Y019735D01*
X046715Y019705D01*
X046721Y019674D01*
X046723Y019643D01*
X046721Y019612D01*
X046715Y019581D01*
X046705Y019551D01*
X046692Y019523D01*
X046675Y019496D01*
X046655Y019472D01*
X046632Y019450D01*
X046607Y019432D01*
X046579Y019417D01*
X046550Y019405D01*
X046520Y019397D01*
X046489Y019393D01*
X046457Y019393D01*
X046426Y019397D01*
X046396Y019405D01*
X046367Y019417D01*
X046339Y019432D01*
X046314Y019450D01*
X046291Y019472D01*
X046271Y019496D01*
X046254Y019523D01*
X046241Y019551D01*
X046231Y019581D01*
X046225Y019612D01*
X046223Y019643D01*
X050943Y019643D02*
X050945Y019674D01*
X050951Y019705D01*
X050961Y019735D01*
X050974Y019763D01*
X050991Y019790D01*
X051011Y019814D01*
X051034Y019836D01*
X051059Y019854D01*
X051087Y019869D01*
X051116Y019881D01*
X051146Y019889D01*
X051177Y019893D01*
X051209Y019893D01*
X051240Y019889D01*
X051270Y019881D01*
X051299Y019869D01*
X051327Y019854D01*
X051352Y019836D01*
X051375Y019814D01*
X051395Y019790D01*
X051412Y019763D01*
X051425Y019735D01*
X051435Y019705D01*
X051441Y019674D01*
X051443Y019643D01*
X051441Y019612D01*
X051435Y019581D01*
X051425Y019551D01*
X051412Y019523D01*
X051395Y019496D01*
X051375Y019472D01*
X051352Y019450D01*
X051327Y019432D01*
X051299Y019417D01*
X051270Y019405D01*
X051240Y019397D01*
X051209Y019393D01*
X051177Y019393D01*
X051146Y019397D01*
X051116Y019405D01*
X051087Y019417D01*
X051059Y019432D01*
X051034Y019450D01*
X051011Y019472D01*
X050991Y019496D01*
X050974Y019523D01*
X050961Y019551D01*
X050951Y019581D01*
X050945Y019612D01*
X050943Y019643D01*
X050943Y016393D02*
X050945Y016424D01*
X050951Y016455D01*
X050961Y016485D01*
X050974Y016513D01*
X050991Y016540D01*
X051011Y016564D01*
X051034Y016586D01*
X051059Y016604D01*
X051087Y016619D01*
X051116Y016631D01*
X051146Y016639D01*
X051177Y016643D01*
X051209Y016643D01*
X051240Y016639D01*
X051270Y016631D01*
X051299Y016619D01*
X051327Y016604D01*
X051352Y016586D01*
X051375Y016564D01*
X051395Y016540D01*
X051412Y016513D01*
X051425Y016485D01*
X051435Y016455D01*
X051441Y016424D01*
X051443Y016393D01*
X051441Y016362D01*
X051435Y016331D01*
X051425Y016301D01*
X051412Y016273D01*
X051395Y016246D01*
X051375Y016222D01*
X051352Y016200D01*
X051327Y016182D01*
X051299Y016167D01*
X051270Y016155D01*
X051240Y016147D01*
X051209Y016143D01*
X051177Y016143D01*
X051146Y016147D01*
X051116Y016155D01*
X051087Y016167D01*
X051059Y016182D01*
X051034Y016200D01*
X051011Y016222D01*
X050991Y016246D01*
X050974Y016273D01*
X050961Y016301D01*
X050951Y016331D01*
X050945Y016362D01*
X050943Y016393D01*
X046223Y016393D02*
X046225Y016424D01*
X046231Y016455D01*
X046241Y016485D01*
X046254Y016513D01*
X046271Y016540D01*
X046291Y016564D01*
X046314Y016586D01*
X046339Y016604D01*
X046367Y016619D01*
X046396Y016631D01*
X046426Y016639D01*
X046457Y016643D01*
X046489Y016643D01*
X046520Y016639D01*
X046550Y016631D01*
X046579Y016619D01*
X046607Y016604D01*
X046632Y016586D01*
X046655Y016564D01*
X046675Y016540D01*
X046692Y016513D01*
X046705Y016485D01*
X046715Y016455D01*
X046721Y016424D01*
X046723Y016393D01*
X046721Y016362D01*
X046715Y016331D01*
X046705Y016301D01*
X046692Y016273D01*
X046675Y016246D01*
X046655Y016222D01*
X046632Y016200D01*
X046607Y016182D01*
X046579Y016167D01*
X046550Y016155D01*
X046520Y016147D01*
X046489Y016143D01*
X046457Y016143D01*
X046426Y016147D01*
X046396Y016155D01*
X046367Y016167D01*
X046339Y016182D01*
X046314Y016200D01*
X046291Y016222D01*
X046271Y016246D01*
X046254Y016273D01*
X046241Y016301D01*
X046231Y016331D01*
X046225Y016362D01*
X046223Y016393D01*
X067473Y016393D02*
X067475Y016424D01*
X067481Y016455D01*
X067491Y016485D01*
X067504Y016513D01*
X067521Y016540D01*
X067541Y016564D01*
X067564Y016586D01*
X067589Y016604D01*
X067617Y016619D01*
X067646Y016631D01*
X067676Y016639D01*
X067707Y016643D01*
X067739Y016643D01*
X067770Y016639D01*
X067800Y016631D01*
X067829Y016619D01*
X067857Y016604D01*
X067882Y016586D01*
X067905Y016564D01*
X067925Y016540D01*
X067942Y016513D01*
X067955Y016485D01*
X067965Y016455D01*
X067971Y016424D01*
X067973Y016393D01*
X067971Y016362D01*
X067965Y016331D01*
X067955Y016301D01*
X067942Y016273D01*
X067925Y016246D01*
X067905Y016222D01*
X067882Y016200D01*
X067857Y016182D01*
X067829Y016167D01*
X067800Y016155D01*
X067770Y016147D01*
X067739Y016143D01*
X067707Y016143D01*
X067676Y016147D01*
X067646Y016155D01*
X067617Y016167D01*
X067589Y016182D01*
X067564Y016200D01*
X067541Y016222D01*
X067521Y016246D01*
X067504Y016273D01*
X067491Y016301D01*
X067481Y016331D01*
X067475Y016362D01*
X067473Y016393D01*
X072193Y016393D02*
X072195Y016424D01*
X072201Y016455D01*
X072211Y016485D01*
X072224Y016513D01*
X072241Y016540D01*
X072261Y016564D01*
X072284Y016586D01*
X072309Y016604D01*
X072337Y016619D01*
X072366Y016631D01*
X072396Y016639D01*
X072427Y016643D01*
X072459Y016643D01*
X072490Y016639D01*
X072520Y016631D01*
X072549Y016619D01*
X072577Y016604D01*
X072602Y016586D01*
X072625Y016564D01*
X072645Y016540D01*
X072662Y016513D01*
X072675Y016485D01*
X072685Y016455D01*
X072691Y016424D01*
X072693Y016393D01*
X072691Y016362D01*
X072685Y016331D01*
X072675Y016301D01*
X072662Y016273D01*
X072645Y016246D01*
X072625Y016222D01*
X072602Y016200D01*
X072577Y016182D01*
X072549Y016167D01*
X072520Y016155D01*
X072490Y016147D01*
X072459Y016143D01*
X072427Y016143D01*
X072396Y016147D01*
X072366Y016155D01*
X072337Y016167D01*
X072309Y016182D01*
X072284Y016200D01*
X072261Y016222D01*
X072241Y016246D01*
X072224Y016273D01*
X072211Y016301D01*
X072201Y016331D01*
X072195Y016362D01*
X072193Y016393D01*
X072193Y019643D02*
X072195Y019674D01*
X072201Y019705D01*
X072211Y019735D01*
X072224Y019763D01*
X072241Y019790D01*
X072261Y019814D01*
X072284Y019836D01*
X072309Y019854D01*
X072337Y019869D01*
X072366Y019881D01*
X072396Y019889D01*
X072427Y019893D01*
X072459Y019893D01*
X072490Y019889D01*
X072520Y019881D01*
X072549Y019869D01*
X072577Y019854D01*
X072602Y019836D01*
X072625Y019814D01*
X072645Y019790D01*
X072662Y019763D01*
X072675Y019735D01*
X072685Y019705D01*
X072691Y019674D01*
X072693Y019643D01*
X072691Y019612D01*
X072685Y019581D01*
X072675Y019551D01*
X072662Y019523D01*
X072645Y019496D01*
X072625Y019472D01*
X072602Y019450D01*
X072577Y019432D01*
X072549Y019417D01*
X072520Y019405D01*
X072490Y019397D01*
X072459Y019393D01*
X072427Y019393D01*
X072396Y019397D01*
X072366Y019405D01*
X072337Y019417D01*
X072309Y019432D01*
X072284Y019450D01*
X072261Y019472D01*
X072241Y019496D01*
X072224Y019523D01*
X072211Y019551D01*
X072201Y019581D01*
X072195Y019612D01*
X072193Y019643D01*
X067473Y019643D02*
X067475Y019674D01*
X067481Y019705D01*
X067491Y019735D01*
X067504Y019763D01*
X067521Y019790D01*
X067541Y019814D01*
X067564Y019836D01*
X067589Y019854D01*
X067617Y019869D01*
X067646Y019881D01*
X067676Y019889D01*
X067707Y019893D01*
X067739Y019893D01*
X067770Y019889D01*
X067800Y019881D01*
X067829Y019869D01*
X067857Y019854D01*
X067882Y019836D01*
X067905Y019814D01*
X067925Y019790D01*
X067942Y019763D01*
X067955Y019735D01*
X067965Y019705D01*
X067971Y019674D01*
X067973Y019643D01*
X067971Y019612D01*
X067965Y019581D01*
X067955Y019551D01*
X067942Y019523D01*
X067925Y019496D01*
X067905Y019472D01*
X067882Y019450D01*
X067857Y019432D01*
X067829Y019417D01*
X067800Y019405D01*
X067770Y019397D01*
X067739Y019393D01*
X067707Y019393D01*
X067676Y019397D01*
X067646Y019405D01*
X067617Y019417D01*
X067589Y019432D01*
X067564Y019450D01*
X067541Y019472D01*
X067521Y019496D01*
X067504Y019523D01*
X067491Y019551D01*
X067481Y019581D01*
X067475Y019612D01*
X067473Y019643D01*
D11*
X060413Y009890D02*
X060438Y009865D01*
X060438Y009815D01*
X060413Y009790D01*
X060363Y009790D02*
X060338Y009840D01*
X060338Y009865D01*
X060363Y009890D01*
X060413Y009890D01*
X060363Y009790D02*
X060288Y009790D01*
X060288Y009890D01*
X060288Y009693D02*
X060438Y009693D01*
X060438Y009643D02*
X060438Y009743D01*
X060338Y009643D02*
X060288Y009693D01*
X060313Y009596D02*
X060288Y009571D01*
X060288Y009521D01*
X060313Y009496D01*
X060338Y009496D01*
X060363Y009521D01*
X060363Y009571D01*
X060388Y009596D01*
X060413Y009596D01*
X060438Y009571D01*
X060438Y009521D01*
X060413Y009496D01*
X060413Y009448D02*
X060288Y009448D01*
X060288Y009348D02*
X060413Y009348D01*
X060438Y009373D01*
X060438Y009423D01*
X060413Y009448D01*
X060463Y009546D02*
X060263Y009546D01*
X062303Y009013D02*
X062378Y009013D01*
X062403Y008988D01*
X062403Y008888D01*
X062378Y008863D01*
X062303Y008863D01*
X062303Y009013D01*
X062451Y008963D02*
X062501Y009013D01*
X062501Y008863D01*
X062451Y008863D02*
X062551Y008863D01*
X062526Y008263D02*
X062551Y008238D01*
X062551Y008213D01*
X062526Y008188D01*
X062551Y008163D01*
X062551Y008138D01*
X062526Y008113D01*
X062476Y008113D01*
X062451Y008138D01*
X062403Y008138D02*
X062403Y008238D01*
X062378Y008263D01*
X062303Y008263D01*
X062303Y008113D01*
X062378Y008113D01*
X062403Y008138D01*
X062501Y008188D02*
X062526Y008188D01*
X062526Y008263D02*
X062476Y008263D01*
X062451Y008238D01*
X062145Y008198D02*
X062120Y008223D01*
X062070Y008223D01*
X062045Y008198D01*
X061998Y008198D02*
X061973Y008223D01*
X061898Y008223D01*
X061898Y008073D01*
X061973Y008073D01*
X061998Y008098D01*
X061998Y008198D01*
X062045Y008073D02*
X062145Y008173D01*
X062145Y008198D01*
X062145Y008073D02*
X062045Y008073D01*
X041301Y008138D02*
X041276Y008113D01*
X041226Y008113D01*
X041201Y008138D01*
X041153Y008138D02*
X041153Y008238D01*
X041128Y008263D01*
X041053Y008263D01*
X041053Y008113D01*
X041128Y008113D01*
X041153Y008138D01*
X041251Y008188D02*
X041276Y008188D01*
X041301Y008163D01*
X041301Y008138D01*
X041276Y008188D02*
X041301Y008213D01*
X041301Y008238D01*
X041276Y008263D01*
X041226Y008263D01*
X041201Y008238D01*
X040895Y008198D02*
X040870Y008223D01*
X040820Y008223D01*
X040795Y008198D01*
X040748Y008198D02*
X040723Y008223D01*
X040648Y008223D01*
X040648Y008073D01*
X040723Y008073D01*
X040748Y008098D01*
X040748Y008198D01*
X040795Y008073D02*
X040895Y008173D01*
X040895Y008198D01*
X040895Y008073D02*
X040795Y008073D01*
X041053Y008863D02*
X041128Y008863D01*
X041153Y008888D01*
X041153Y008988D01*
X041128Y009013D01*
X041053Y009013D01*
X041053Y008863D01*
X041201Y008863D02*
X041301Y008863D01*
X041251Y008863D02*
X041251Y009013D01*
X041201Y008963D01*
X039188Y009373D02*
X039188Y009423D01*
X039163Y009448D01*
X039038Y009448D01*
X039063Y009496D02*
X039038Y009521D01*
X039038Y009571D01*
X039063Y009596D01*
X039088Y009643D02*
X039038Y009693D01*
X039188Y009693D01*
X039188Y009643D02*
X039188Y009743D01*
X039163Y009790D02*
X039188Y009815D01*
X039188Y009865D01*
X039163Y009890D01*
X039113Y009890D01*
X039088Y009865D01*
X039088Y009840D01*
X039113Y009790D01*
X039038Y009790D01*
X039038Y009890D01*
X039138Y009596D02*
X039113Y009571D01*
X039113Y009521D01*
X039088Y009496D01*
X039063Y009496D01*
X039013Y009546D02*
X039213Y009546D01*
X039188Y009571D02*
X039163Y009596D01*
X039138Y009596D01*
X039188Y009571D02*
X039188Y009521D01*
X039163Y009496D01*
X039188Y009373D02*
X039163Y009348D01*
X039038Y009348D01*
X020051Y008863D02*
X019951Y008863D01*
X020001Y008863D02*
X020001Y009013D01*
X019951Y008963D01*
X019903Y008988D02*
X019878Y009013D01*
X019803Y009013D01*
X019803Y008863D01*
X019878Y008863D01*
X019903Y008888D01*
X019903Y008988D01*
X019878Y008263D02*
X019803Y008263D01*
X019803Y008113D01*
X019878Y008113D01*
X019903Y008138D01*
X019903Y008238D01*
X019878Y008263D01*
X019951Y008238D02*
X019976Y008263D01*
X020026Y008263D01*
X020051Y008238D01*
X020051Y008213D01*
X020026Y008188D01*
X020051Y008163D01*
X020051Y008138D01*
X020026Y008113D01*
X019976Y008113D01*
X019951Y008138D01*
X020001Y008188D02*
X020026Y008188D01*
X019645Y008198D02*
X019620Y008223D01*
X019570Y008223D01*
X019545Y008198D01*
X019498Y008198D02*
X019473Y008223D01*
X019398Y008223D01*
X019398Y008073D01*
X019473Y008073D01*
X019498Y008098D01*
X019498Y008198D01*
X019545Y008073D02*
X019645Y008173D01*
X019645Y008198D01*
X019645Y008073D02*
X019545Y008073D01*
X017938Y009373D02*
X017938Y009423D01*
X017913Y009448D01*
X017788Y009448D01*
X017813Y009496D02*
X017788Y009521D01*
X017788Y009571D01*
X017813Y009596D01*
X017838Y009643D02*
X017788Y009693D01*
X017938Y009693D01*
X017938Y009643D02*
X017938Y009743D01*
X017913Y009790D02*
X017938Y009815D01*
X017938Y009865D01*
X017913Y009890D01*
X017863Y009890D01*
X017838Y009865D01*
X017838Y009840D01*
X017863Y009790D01*
X017788Y009790D01*
X017788Y009890D01*
X017888Y009596D02*
X017863Y009571D01*
X017863Y009521D01*
X017838Y009496D01*
X017813Y009496D01*
X017763Y009546D02*
X017963Y009546D01*
X017938Y009571D02*
X017913Y009596D01*
X017888Y009596D01*
X017938Y009571D02*
X017938Y009521D01*
X017913Y009496D01*
X017938Y009373D02*
X017913Y009348D01*
X017788Y009348D01*
D12*
X017900Y012163D02*
X017823Y012240D01*
X018130Y012547D01*
X018130Y012240D01*
X018053Y012163D01*
X017900Y012163D01*
X017823Y012240D01*
X017823Y012547D01*
X017900Y012624D01*
X018053Y012624D01*
X018130Y012547D01*
X017823Y012240D01*
X017823Y012547D01*
X017900Y012624D01*
X018053Y012624D01*
X018130Y012547D01*
X018130Y012240D01*
X018053Y012163D01*
X017900Y012163D01*
X017670Y012163D02*
X017363Y012163D01*
X017670Y012470D01*
X017670Y012547D01*
X017593Y012624D01*
X017439Y012624D01*
X017363Y012547D01*
X017439Y012624D01*
X017593Y012624D01*
X017670Y012547D01*
X017670Y012470D01*
X017363Y012163D01*
X017670Y012163D01*
X018283Y012163D02*
X018590Y012163D01*
X018283Y012163D01*
X018437Y012163D02*
X018437Y012624D01*
X018283Y012470D01*
X018437Y012624D01*
X018437Y012163D01*
X018744Y012240D02*
X018820Y012163D01*
X018974Y012163D01*
X019051Y012240D01*
X019051Y012317D01*
X018974Y012394D01*
X018744Y012394D01*
X018744Y012240D01*
X018820Y012163D01*
X018974Y012163D01*
X019051Y012240D01*
X019051Y012317D01*
X018974Y012394D01*
X018744Y012394D01*
X018897Y012547D01*
X019051Y012624D01*
X018897Y012547D01*
X018744Y012394D01*
X018744Y012240D01*
X018705Y012913D02*
X018475Y012913D01*
X018398Y012990D01*
X018475Y013067D01*
X018705Y013067D01*
X018475Y013067D01*
X018398Y012990D01*
X018475Y012913D01*
X018705Y012913D01*
X018705Y013144D01*
X018629Y013220D01*
X018475Y013220D01*
X018629Y013220D01*
X018705Y013144D01*
X018705Y012913D01*
X018859Y012913D02*
X018859Y013220D01*
X018859Y012913D01*
X018859Y013067D02*
X019012Y013220D01*
X019089Y013220D01*
X019012Y013220D01*
X018859Y013067D01*
X019243Y013144D02*
X019319Y013220D01*
X019549Y013220D01*
X019319Y013220D01*
X019243Y013144D01*
X019243Y012990D01*
X019319Y012913D01*
X019549Y012913D01*
X019549Y013374D01*
X019549Y012913D01*
X019319Y012913D01*
X019243Y012990D01*
X019243Y013144D01*
X018245Y013144D02*
X018245Y012990D01*
X018168Y012913D01*
X018015Y012913D01*
X017938Y012990D01*
X017938Y013144D01*
X018015Y013220D01*
X018168Y013220D01*
X018245Y013144D01*
X018168Y013220D01*
X018015Y013220D01*
X017938Y013144D01*
X017938Y012990D01*
X018015Y012913D01*
X018168Y012913D01*
X018245Y012990D01*
X018245Y013144D01*
X017785Y013220D02*
X017708Y013144D01*
X017478Y013144D01*
X017708Y013144D01*
X017785Y013067D01*
X017785Y012990D01*
X017708Y012913D01*
X017478Y012913D01*
X017478Y013374D01*
X017708Y013374D01*
X017785Y013297D01*
X017785Y013220D01*
X017708Y013144D01*
X017785Y013067D01*
X017785Y012990D01*
X017708Y012913D01*
X017478Y012913D01*
X017478Y013374D01*
X017708Y013374D01*
X017785Y013297D01*
X017785Y013220D01*
X017631Y013510D02*
X017708Y013587D01*
X017708Y013970D01*
X017478Y013970D01*
X017401Y013894D01*
X017401Y013740D01*
X017478Y013663D01*
X017708Y013663D01*
X017478Y013663D01*
X017401Y013740D01*
X017401Y013894D01*
X017478Y013970D01*
X017708Y013970D01*
X017708Y013587D01*
X017631Y013510D01*
X017554Y013510D01*
X017631Y013510D01*
X017861Y013663D02*
X017861Y013970D01*
X018092Y013970D01*
X018168Y013894D01*
X018168Y013663D01*
X018168Y013894D01*
X018092Y013970D01*
X017861Y013970D01*
X017861Y013663D01*
X017247Y013663D02*
X017094Y013663D01*
X017247Y013663D01*
X017171Y013663D02*
X017171Y013970D01*
X017094Y013970D01*
X017171Y013970D01*
X017171Y013663D01*
X016941Y013740D02*
X016864Y013817D01*
X016710Y013817D01*
X016634Y013894D01*
X016710Y013970D01*
X016941Y013970D01*
X016710Y013970D01*
X016634Y013894D01*
X016710Y013817D01*
X016864Y013817D01*
X016941Y013740D01*
X016864Y013663D01*
X016634Y013663D01*
X016864Y013663D01*
X016941Y013740D01*
X017171Y014124D02*
X017171Y014200D01*
X017171Y014124D01*
X016480Y013894D02*
X016480Y013817D01*
X016173Y013817D01*
X016480Y013817D01*
X016480Y013894D01*
X016403Y013970D01*
X016250Y013970D01*
X016173Y013894D01*
X016173Y013740D01*
X016250Y013663D01*
X016403Y013663D01*
X016250Y013663D01*
X016173Y013740D01*
X016173Y013894D01*
X016250Y013970D01*
X016403Y013970D01*
X016480Y013894D01*
X016020Y014047D02*
X016020Y013740D01*
X015943Y013663D01*
X015713Y013663D01*
X015713Y014124D01*
X015943Y014124D01*
X016020Y014047D01*
X015943Y014124D01*
X015713Y014124D01*
X015713Y013663D01*
X015943Y013663D01*
X016020Y013740D01*
X016020Y014047D01*
X016173Y013450D02*
X016173Y013374D01*
X016173Y013450D01*
X016173Y013220D02*
X016173Y012913D01*
X016173Y013220D01*
X016096Y013220D01*
X016173Y013220D01*
X015943Y013220D02*
X015866Y013220D01*
X015713Y013067D01*
X015866Y013220D01*
X015943Y013220D01*
X015713Y013220D02*
X015713Y012913D01*
X015713Y013220D01*
X015559Y013297D02*
X015483Y013374D01*
X015252Y013374D01*
X015252Y012913D01*
X015483Y012913D01*
X015559Y012990D01*
X015559Y013297D01*
X015483Y013374D01*
X015252Y013374D01*
X015252Y012913D01*
X015483Y012913D01*
X015559Y012990D01*
X015559Y013297D01*
X016096Y012913D02*
X016250Y012913D01*
X016096Y012913D01*
X016403Y012913D02*
X016557Y012913D01*
X016403Y012913D01*
X016480Y012913D02*
X016480Y013374D01*
X016403Y013374D01*
X016480Y013374D01*
X016480Y012913D01*
X016710Y012913D02*
X016864Y012913D01*
X016710Y012913D01*
X016787Y012913D02*
X016787Y013374D01*
X016710Y013374D01*
X016787Y013374D01*
X016787Y012913D01*
X016749Y012624D02*
X016749Y012163D01*
X016749Y012624D01*
X016135Y012470D02*
X015905Y012470D01*
X015828Y012394D01*
X015905Y012317D01*
X016058Y012317D01*
X016135Y012240D01*
X016058Y012163D01*
X015828Y012163D01*
X016058Y012163D01*
X016135Y012240D01*
X016058Y012317D01*
X015905Y012317D01*
X015828Y012394D01*
X015905Y012470D01*
X016135Y012470D01*
X015674Y012394D02*
X015674Y012317D01*
X015368Y012317D01*
X015674Y012317D01*
X015674Y012394D01*
X015598Y012470D01*
X015444Y012470D01*
X015368Y012394D01*
X015368Y012240D01*
X015444Y012163D01*
X015598Y012163D01*
X015444Y012163D01*
X015368Y012240D01*
X015368Y012394D01*
X015444Y012470D01*
X015598Y012470D01*
X015674Y012394D01*
X015214Y012163D02*
X015061Y012163D01*
X015214Y012163D01*
X015137Y012163D02*
X015137Y012624D01*
X015061Y012624D01*
X015137Y012624D01*
X015137Y012163D01*
X014907Y012163D02*
X014754Y012163D01*
X014907Y012163D01*
X014830Y012163D02*
X014830Y012470D01*
X014754Y012470D01*
X014830Y012470D01*
X014830Y012163D01*
X014600Y012163D02*
X014600Y012624D01*
X014447Y012470D01*
X014293Y012624D01*
X014293Y012163D01*
X014293Y012624D01*
X014447Y012470D01*
X014600Y012624D01*
X014600Y012163D01*
X013679Y012317D02*
X013373Y012317D01*
X013679Y012317D01*
X013679Y012394D01*
X013603Y012470D01*
X013449Y012470D01*
X013373Y012394D01*
X013373Y012240D01*
X013449Y012163D01*
X013603Y012163D01*
X013449Y012163D01*
X013373Y012240D01*
X013373Y012394D01*
X013449Y012470D01*
X013603Y012470D01*
X013679Y012394D01*
X013679Y012317D01*
X013219Y012470D02*
X012989Y012317D01*
X013219Y012163D01*
X012989Y012317D01*
X013219Y012470D01*
X012989Y012624D02*
X012989Y012163D01*
X012989Y012624D01*
X012759Y012624D02*
X012759Y012700D01*
X012759Y012624D01*
X012759Y012470D02*
X012759Y012163D01*
X012759Y012470D01*
X012682Y012470D01*
X012759Y012470D01*
X012528Y012624D02*
X012375Y012470D01*
X012222Y012624D01*
X012222Y012163D01*
X012222Y012624D01*
X012375Y012470D01*
X012528Y012624D01*
X012528Y012163D01*
X012528Y012624D01*
X012413Y012913D02*
X012260Y012913D01*
X012183Y012990D01*
X012183Y013144D01*
X012260Y013220D01*
X012413Y013220D01*
X012490Y013144D01*
X012490Y013067D01*
X012183Y013067D01*
X012490Y013067D01*
X012490Y013144D01*
X012413Y013220D01*
X012260Y013220D01*
X012183Y013144D01*
X012183Y012990D01*
X012260Y012913D01*
X012413Y012913D01*
X012644Y012913D02*
X012644Y013220D01*
X012874Y013220D01*
X012950Y013144D01*
X012950Y012913D01*
X012950Y013144D01*
X012874Y013220D01*
X012644Y013220D01*
X012644Y012913D01*
X013104Y012913D02*
X013257Y012913D01*
X013104Y012913D01*
X013181Y012913D02*
X013181Y013220D01*
X013104Y013220D01*
X013181Y013220D01*
X013181Y012913D01*
X013488Y012990D02*
X013564Y012913D01*
X013488Y012990D01*
X013488Y013297D01*
X013488Y012990D01*
X013718Y012913D02*
X013718Y013374D01*
X013718Y012913D01*
X013718Y013144D02*
X013795Y013220D01*
X013948Y013220D01*
X014025Y013144D01*
X014025Y012913D01*
X014025Y013144D01*
X013948Y013220D01*
X013795Y013220D01*
X013718Y013144D01*
X013564Y013220D02*
X013411Y013220D01*
X013564Y013220D01*
X013181Y013374D02*
X013181Y013450D01*
X013181Y013374D01*
X013334Y013663D02*
X013181Y013817D01*
X013334Y013663D01*
X013257Y013817D02*
X013027Y013817D01*
X013257Y013817D01*
X013334Y013894D01*
X013334Y014047D01*
X013257Y014124D01*
X013027Y014124D01*
X013027Y013663D01*
X013027Y014124D01*
X013257Y014124D01*
X013334Y014047D01*
X013334Y013894D01*
X013257Y013817D01*
X013488Y013894D02*
X013488Y013740D01*
X013564Y013663D01*
X013718Y013663D01*
X013795Y013740D01*
X013795Y013894D01*
X013718Y013970D01*
X013564Y013970D01*
X013488Y013894D01*
X013488Y013740D01*
X013564Y013663D01*
X013718Y013663D01*
X013795Y013740D01*
X013795Y013894D01*
X013718Y013970D01*
X013564Y013970D01*
X013488Y013894D01*
X013948Y013970D02*
X014101Y013663D01*
X014255Y013970D01*
X014101Y013663D01*
X013948Y013970D01*
X014408Y013894D02*
X014485Y013970D01*
X014639Y013970D01*
X014715Y013894D01*
X014715Y013817D01*
X014408Y013817D01*
X014715Y013817D01*
X014715Y013894D01*
X014639Y013970D01*
X014485Y013970D01*
X014408Y013894D01*
X014408Y013740D01*
X014485Y013663D01*
X014639Y013663D01*
X014485Y013663D01*
X014408Y013740D01*
X014408Y013894D01*
X014869Y013970D02*
X014869Y013663D01*
X014869Y013970D01*
X014869Y013817D02*
X015022Y013970D01*
X015099Y013970D01*
X015022Y013970D01*
X014869Y013817D01*
X014639Y013374D02*
X014639Y012913D01*
X014639Y013374D01*
X014830Y012700D02*
X014830Y012624D01*
X014830Y012700D01*
X012835Y012163D02*
X012682Y012163D01*
X012835Y012163D01*
X012030Y012913D02*
X011723Y012913D01*
X011723Y012990D01*
X012030Y013297D01*
X012030Y013374D01*
X011723Y013374D01*
X012030Y013374D01*
X012030Y013297D01*
X011723Y012990D01*
X011723Y012913D01*
X012030Y012913D01*
X012106Y013663D02*
X012337Y013663D01*
X012413Y013740D01*
X012337Y013817D01*
X012183Y013817D01*
X012106Y013894D01*
X012183Y013970D01*
X012413Y013970D01*
X012183Y013970D01*
X012106Y013894D01*
X012183Y013817D01*
X012337Y013817D01*
X012413Y013740D01*
X012337Y013663D01*
X012106Y013663D01*
X011953Y013970D02*
X011876Y013970D01*
X011723Y013817D01*
X011876Y013970D01*
X011953Y013970D01*
X011723Y013970D02*
X011723Y013663D01*
X011723Y013970D01*
X011569Y013894D02*
X011493Y013970D01*
X011339Y013970D01*
X011493Y013970D01*
X011569Y013894D01*
X011569Y013663D01*
X011339Y013663D01*
X011262Y013740D01*
X011339Y013817D01*
X011569Y013817D01*
X011339Y013817D01*
X011262Y013740D01*
X011339Y013663D01*
X011569Y013663D01*
X011569Y013894D01*
X011109Y014124D02*
X011109Y013663D01*
X011109Y014124D01*
X010955Y013970D01*
X010802Y014124D01*
X010802Y013663D01*
X010802Y014124D01*
X010955Y013970D01*
X011109Y014124D01*
X018782Y014124D02*
X019089Y014124D01*
X018782Y014124D01*
X018936Y014124D02*
X018936Y013663D01*
X018936Y014124D01*
X019243Y013894D02*
X019319Y013970D01*
X019473Y013970D01*
X019549Y013894D01*
X019549Y013817D01*
X019243Y013817D01*
X019549Y013817D01*
X019549Y013894D01*
X019473Y013970D01*
X019319Y013970D01*
X019243Y013894D01*
X019243Y013740D01*
X019319Y013663D01*
X019473Y013663D01*
X019319Y013663D01*
X019243Y013740D01*
X019243Y013894D01*
X019703Y013740D02*
X019780Y013817D01*
X020010Y013817D01*
X019780Y013817D01*
X019703Y013740D01*
X019780Y013663D01*
X020010Y013663D01*
X020010Y013894D01*
X019933Y013970D01*
X019780Y013970D01*
X019933Y013970D01*
X020010Y013894D01*
X020010Y013663D01*
X019780Y013663D01*
X019703Y013740D01*
X020163Y013663D02*
X020163Y013970D01*
X020240Y013970D01*
X020317Y013894D01*
X020393Y013970D01*
X020470Y013894D01*
X020470Y013663D01*
X020470Y013894D01*
X020393Y013970D01*
X020317Y013894D01*
X020317Y013663D01*
X020317Y013894D01*
X020240Y013970D01*
X020163Y013970D01*
X020163Y013663D01*
X025113Y018213D02*
X025113Y018674D01*
X025266Y018520D01*
X025420Y018674D01*
X025420Y018213D01*
X025573Y018213D02*
X025880Y018520D01*
X025880Y018597D01*
X025803Y018674D01*
X025650Y018674D01*
X025573Y018597D01*
X025573Y018213D02*
X025880Y018213D01*
X025880Y021463D02*
X025573Y021463D01*
X025880Y021770D01*
X025880Y021847D01*
X025803Y021924D01*
X025650Y021924D01*
X025573Y021847D01*
X025420Y021924D02*
X025113Y021924D01*
X025266Y021924D02*
X025266Y021463D01*
X025113Y024713D02*
X025113Y025174D01*
X025266Y025020D01*
X025420Y025174D01*
X025420Y024713D01*
X025573Y024713D02*
X025880Y024713D01*
X025727Y024713D02*
X025727Y025174D01*
X025573Y025020D01*
X024880Y027213D02*
X024573Y027213D01*
X024727Y027213D02*
X024727Y027674D01*
X024573Y027520D01*
X024420Y027674D02*
X024113Y027674D01*
X024266Y027674D02*
X024266Y027213D01*
X018880Y025097D02*
X018880Y025020D01*
X018803Y024944D01*
X018880Y024867D01*
X018880Y024790D01*
X018803Y024713D01*
X018650Y024713D01*
X018573Y024790D01*
X018420Y024713D02*
X018420Y025174D01*
X018266Y025020D01*
X018113Y025174D01*
X018113Y024713D01*
X018727Y024944D02*
X018803Y024944D01*
X018880Y025097D02*
X018803Y025174D01*
X018650Y025174D01*
X018573Y025097D01*
X017803Y027213D02*
X017650Y027213D01*
X017573Y027290D01*
X017727Y027444D02*
X017803Y027444D01*
X017880Y027367D01*
X017880Y027290D01*
X017803Y027213D01*
X017803Y027444D02*
X017880Y027520D01*
X017880Y027597D01*
X017803Y027674D01*
X017650Y027674D01*
X017573Y027597D01*
X017420Y027674D02*
X017113Y027674D01*
X017266Y027674D02*
X017266Y027213D01*
X016880Y027444D02*
X016573Y027444D01*
X016803Y027674D01*
X016803Y027213D01*
X016266Y027213D02*
X016266Y027674D01*
X016113Y027674D02*
X016420Y027674D01*
X011803Y025174D02*
X011573Y024944D01*
X011880Y024944D01*
X011803Y025174D02*
X011803Y024713D01*
X011420Y024713D02*
X011420Y025174D01*
X011266Y025020D01*
X011113Y025174D01*
X011113Y024713D01*
X032363Y024713D02*
X032363Y025174D01*
X032516Y025020D01*
X032670Y025174D01*
X032670Y024713D01*
X032823Y024944D02*
X033130Y024944D01*
X033053Y025174D02*
X032823Y024944D01*
X033053Y024713D02*
X033053Y025174D01*
X037516Y027213D02*
X037516Y027674D01*
X037363Y027674D02*
X037670Y027674D01*
X037823Y027444D02*
X038130Y027444D01*
X038053Y027674D02*
X038053Y027213D01*
X037823Y027444D02*
X038053Y027674D01*
X038363Y027674D02*
X038670Y027674D01*
X038516Y027674D02*
X038516Y027213D01*
X038823Y027290D02*
X038900Y027213D01*
X039053Y027213D01*
X039130Y027290D01*
X039130Y027367D01*
X039053Y027444D01*
X038977Y027444D01*
X039053Y027444D02*
X039130Y027520D01*
X039130Y027597D01*
X039053Y027674D01*
X038900Y027674D01*
X038823Y027597D01*
X039363Y025174D02*
X039516Y025020D01*
X039670Y025174D01*
X039670Y024713D01*
X039823Y024790D02*
X039900Y024713D01*
X040053Y024713D01*
X040130Y024790D01*
X040130Y024867D01*
X040053Y024944D01*
X039977Y024944D01*
X040053Y024944D02*
X040130Y025020D01*
X040130Y025097D01*
X040053Y025174D01*
X039900Y025174D01*
X039823Y025097D01*
X039363Y025174D02*
X039363Y024713D01*
X045516Y027213D02*
X045516Y027674D01*
X045363Y027674D02*
X045670Y027674D01*
X045823Y027520D02*
X045977Y027674D01*
X045977Y027213D01*
X046130Y027213D02*
X045823Y027213D01*
X046363Y025174D02*
X046516Y025020D01*
X046670Y025174D01*
X046670Y024713D01*
X046823Y024713D02*
X047130Y024713D01*
X046977Y024713D02*
X046977Y025174D01*
X046823Y025020D01*
X046363Y025174D02*
X046363Y024713D01*
X046363Y021924D02*
X046670Y021924D01*
X046516Y021924D02*
X046516Y021463D01*
X046823Y021463D02*
X047130Y021770D01*
X047130Y021847D01*
X047053Y021924D01*
X046900Y021924D01*
X046823Y021847D01*
X046823Y021463D02*
X047130Y021463D01*
X047053Y018674D02*
X046900Y018674D01*
X046823Y018597D01*
X046670Y018674D02*
X046670Y018213D01*
X046823Y018213D02*
X047130Y018520D01*
X047130Y018597D01*
X047053Y018674D01*
X046670Y018674D02*
X046516Y018520D01*
X046363Y018674D01*
X046363Y018213D01*
X046823Y018213D02*
X047130Y018213D01*
X041720Y013894D02*
X041643Y013970D01*
X041567Y013894D01*
X041567Y013663D01*
X041720Y013663D02*
X041720Y013894D01*
X041567Y013894D02*
X041490Y013970D01*
X041413Y013970D01*
X041413Y013663D01*
X041260Y013663D02*
X041030Y013663D01*
X040953Y013740D01*
X041030Y013817D01*
X041260Y013817D01*
X041260Y013894D02*
X041260Y013663D01*
X041260Y013894D02*
X041183Y013970D01*
X041030Y013970D01*
X040799Y013894D02*
X040799Y013817D01*
X040493Y013817D01*
X040493Y013894D02*
X040569Y013970D01*
X040723Y013970D01*
X040799Y013894D01*
X040723Y013663D02*
X040569Y013663D01*
X040493Y013740D01*
X040493Y013894D01*
X040339Y014124D02*
X040032Y014124D01*
X040186Y014124D02*
X040186Y013663D01*
X039418Y013663D02*
X039418Y013894D01*
X039342Y013970D01*
X039111Y013970D01*
X039111Y013663D01*
X038958Y013663D02*
X038728Y013663D01*
X038651Y013740D01*
X038651Y013894D01*
X038728Y013970D01*
X038958Y013970D01*
X038958Y013587D01*
X038881Y013510D01*
X038804Y013510D01*
X038728Y013374D02*
X038958Y013374D01*
X039035Y013297D01*
X039035Y013220D01*
X038958Y013144D01*
X038728Y013144D01*
X038728Y013374D02*
X038728Y012913D01*
X038958Y012913D01*
X039035Y012990D01*
X039035Y013067D01*
X038958Y013144D01*
X039188Y013144D02*
X039188Y012990D01*
X039265Y012913D01*
X039418Y012913D01*
X039495Y012990D01*
X039495Y013144D01*
X039418Y013220D01*
X039265Y013220D01*
X039188Y013144D01*
X039648Y012990D02*
X039725Y013067D01*
X039955Y013067D01*
X039955Y013144D02*
X039955Y012913D01*
X039725Y012913D01*
X039648Y012990D01*
X039725Y013220D02*
X039879Y013220D01*
X039955Y013144D01*
X040109Y013220D02*
X040109Y012913D01*
X040109Y013067D02*
X040262Y013220D01*
X040339Y013220D01*
X040493Y013144D02*
X040569Y013220D01*
X040799Y013220D01*
X040799Y013374D02*
X040799Y012913D01*
X040569Y012913D01*
X040493Y012990D01*
X040493Y013144D01*
X040301Y012624D02*
X040147Y012547D01*
X039994Y012394D01*
X040224Y012394D01*
X040301Y012317D01*
X040301Y012240D01*
X040224Y012163D01*
X040070Y012163D01*
X039994Y012240D01*
X039994Y012394D01*
X039840Y012163D02*
X039533Y012163D01*
X039687Y012163D02*
X039687Y012624D01*
X039533Y012470D01*
X039380Y012547D02*
X039073Y012240D01*
X039150Y012163D01*
X039303Y012163D01*
X039380Y012240D01*
X039380Y012547D01*
X039303Y012624D01*
X039150Y012624D01*
X039073Y012547D01*
X039073Y012240D01*
X038920Y012163D02*
X038613Y012163D01*
X038920Y012470D01*
X038920Y012547D01*
X038843Y012624D01*
X038689Y012624D01*
X038613Y012547D01*
X037999Y012624D02*
X037999Y012163D01*
X037385Y012240D02*
X037308Y012317D01*
X037155Y012317D01*
X037078Y012394D01*
X037155Y012470D01*
X037385Y012470D01*
X037385Y012240D02*
X037308Y012163D01*
X037078Y012163D01*
X036924Y012317D02*
X036618Y012317D01*
X036618Y012394D02*
X036694Y012470D01*
X036848Y012470D01*
X036924Y012394D01*
X036924Y012317D01*
X036848Y012163D02*
X036694Y012163D01*
X036618Y012240D01*
X036618Y012394D01*
X036464Y012163D02*
X036311Y012163D01*
X036387Y012163D02*
X036387Y012624D01*
X036311Y012624D01*
X036080Y012624D02*
X036080Y012700D01*
X036080Y012470D02*
X036080Y012163D01*
X036004Y012163D02*
X036157Y012163D01*
X035850Y012163D02*
X035850Y012624D01*
X035697Y012470D01*
X035543Y012624D01*
X035543Y012163D01*
X036004Y012470D02*
X036080Y012470D01*
X034929Y012394D02*
X034929Y012317D01*
X034623Y012317D01*
X034623Y012394D02*
X034699Y012470D01*
X034853Y012470D01*
X034929Y012394D01*
X034853Y012163D02*
X034699Y012163D01*
X034623Y012240D01*
X034623Y012394D01*
X034469Y012470D02*
X034239Y012317D01*
X034469Y012163D01*
X034239Y012163D02*
X034239Y012624D01*
X034009Y012624D02*
X034009Y012700D01*
X034009Y012470D02*
X034009Y012163D01*
X034085Y012163D02*
X033932Y012163D01*
X033778Y012163D02*
X033778Y012624D01*
X033625Y012470D01*
X033472Y012624D01*
X033472Y012163D01*
X033932Y012470D02*
X034009Y012470D01*
X033894Y012913D02*
X033894Y013220D01*
X034124Y013220D01*
X034200Y013144D01*
X034200Y012913D01*
X034354Y012913D02*
X034507Y012913D01*
X034431Y012913D02*
X034431Y013220D01*
X034354Y013220D01*
X034431Y013374D02*
X034431Y013450D01*
X034584Y013663D02*
X034431Y013817D01*
X034507Y013817D02*
X034277Y013817D01*
X034277Y013663D02*
X034277Y014124D01*
X034507Y014124D01*
X034584Y014047D01*
X034584Y013894D01*
X034507Y013817D01*
X034738Y013894D02*
X034738Y013740D01*
X034814Y013663D01*
X034968Y013663D01*
X035045Y013740D01*
X035045Y013894D01*
X034968Y013970D01*
X034814Y013970D01*
X034738Y013894D01*
X035198Y013970D02*
X035351Y013663D01*
X035505Y013970D01*
X035658Y013894D02*
X035735Y013970D01*
X035889Y013970D01*
X035965Y013894D01*
X035965Y013817D01*
X035658Y013817D01*
X035658Y013740D02*
X035658Y013894D01*
X035658Y013740D02*
X035735Y013663D01*
X035889Y013663D01*
X036119Y013663D02*
X036119Y013970D01*
X036119Y013817D02*
X036272Y013970D01*
X036349Y013970D01*
X036963Y014124D02*
X036963Y013663D01*
X037193Y013663D01*
X037270Y013740D01*
X037270Y014047D01*
X037193Y014124D01*
X036963Y014124D01*
X037423Y013894D02*
X037500Y013970D01*
X037653Y013970D01*
X037730Y013894D01*
X037730Y013817D01*
X037423Y013817D01*
X037423Y013740D02*
X037423Y013894D01*
X037423Y013740D02*
X037500Y013663D01*
X037653Y013663D01*
X037884Y013663D02*
X038114Y013663D01*
X038191Y013740D01*
X038114Y013817D01*
X037960Y013817D01*
X037884Y013894D01*
X037960Y013970D01*
X038191Y013970D01*
X038344Y013970D02*
X038421Y013970D01*
X038421Y013663D01*
X038497Y013663D02*
X038344Y013663D01*
X038421Y014124D02*
X038421Y014200D01*
X037423Y013450D02*
X037423Y013374D01*
X037423Y013220D02*
X037423Y012913D01*
X037346Y012913D02*
X037500Y012913D01*
X037653Y012913D02*
X037807Y012913D01*
X037730Y012913D02*
X037730Y013374D01*
X037653Y013374D01*
X037423Y013220D02*
X037346Y013220D01*
X037193Y013220D02*
X037116Y013220D01*
X036963Y013067D01*
X036963Y013220D02*
X036963Y012913D01*
X036809Y012990D02*
X036809Y013297D01*
X036733Y013374D01*
X036502Y013374D01*
X036502Y012913D01*
X036733Y012913D01*
X036809Y012990D01*
X035889Y012913D02*
X035889Y013374D01*
X035275Y013144D02*
X035275Y012913D01*
X035275Y013144D02*
X035198Y013220D01*
X035045Y013220D01*
X034968Y013144D01*
X034814Y013220D02*
X034661Y013220D01*
X034738Y013297D02*
X034738Y012990D01*
X034814Y012913D01*
X034968Y012913D02*
X034968Y013374D01*
X033740Y013144D02*
X033740Y013067D01*
X033433Y013067D01*
X033433Y012990D02*
X033433Y013144D01*
X033510Y013220D01*
X033663Y013220D01*
X033740Y013144D01*
X033663Y012913D02*
X033510Y012913D01*
X033433Y012990D01*
X033280Y012913D02*
X032973Y012913D01*
X032973Y012990D01*
X033280Y013297D01*
X033280Y013374D01*
X032973Y013374D01*
X032973Y013663D02*
X032973Y013970D01*
X032973Y013817D02*
X033126Y013970D01*
X033203Y013970D01*
X033356Y013894D02*
X033433Y013970D01*
X033663Y013970D01*
X033587Y013817D02*
X033433Y013817D01*
X033356Y013894D01*
X033356Y013663D02*
X033587Y013663D01*
X033663Y013740D01*
X033587Y013817D01*
X032819Y013817D02*
X032589Y013817D01*
X032512Y013740D01*
X032589Y013663D01*
X032819Y013663D01*
X032819Y013894D01*
X032743Y013970D01*
X032589Y013970D01*
X032359Y014124D02*
X032359Y013663D01*
X032052Y013663D02*
X032052Y014124D01*
X032205Y013970D01*
X032359Y014124D01*
X037960Y013374D02*
X038037Y013374D01*
X038037Y012913D01*
X037960Y012913D02*
X038114Y012913D01*
X027773Y008991D02*
X027773Y008684D01*
X027773Y008838D02*
X027312Y008838D01*
X027466Y008684D01*
X027389Y008531D02*
X027312Y008454D01*
X027312Y008300D01*
X027389Y008224D01*
X027466Y008224D01*
X027543Y008300D01*
X027543Y008454D01*
X027619Y008531D01*
X027696Y008531D01*
X027773Y008454D01*
X027773Y008300D01*
X027696Y008224D01*
X027696Y008070D02*
X027312Y008070D01*
X027312Y007763D02*
X027696Y007763D01*
X027773Y007840D01*
X027773Y007994D01*
X027696Y008070D01*
X027850Y008377D02*
X027236Y008377D01*
X048486Y008377D02*
X049100Y008377D01*
X049023Y008300D02*
X049023Y008454D01*
X048946Y008531D01*
X048869Y008531D01*
X048793Y008454D01*
X048793Y008300D01*
X048716Y008224D01*
X048639Y008224D01*
X048562Y008300D01*
X048562Y008454D01*
X048639Y008531D01*
X048716Y008684D02*
X048562Y008838D01*
X049023Y008838D01*
X049023Y008991D02*
X049023Y008684D01*
X049023Y008300D02*
X048946Y008224D01*
X048946Y008070D02*
X048562Y008070D01*
X048562Y007763D02*
X048946Y007763D01*
X049023Y007840D01*
X049023Y007994D01*
X048946Y008070D01*
X054722Y012163D02*
X054722Y012624D01*
X054875Y012470D01*
X055028Y012624D01*
X055028Y012163D01*
X055182Y012163D02*
X055335Y012163D01*
X055259Y012163D02*
X055259Y012470D01*
X055182Y012470D01*
X055259Y012624D02*
X055259Y012700D01*
X055489Y012624D02*
X055489Y012163D01*
X055489Y012317D02*
X055719Y012163D01*
X055873Y012240D02*
X055949Y012163D01*
X056103Y012163D01*
X056179Y012317D02*
X055873Y012317D01*
X055873Y012394D02*
X055949Y012470D01*
X056103Y012470D01*
X056179Y012394D01*
X056179Y012317D01*
X055873Y012240D02*
X055873Y012394D01*
X055719Y012470D02*
X055489Y012317D01*
X056793Y012163D02*
X056793Y012624D01*
X056947Y012470D01*
X057100Y012624D01*
X057100Y012163D01*
X057254Y012163D02*
X057407Y012163D01*
X057330Y012163D02*
X057330Y012470D01*
X057254Y012470D01*
X057330Y012624D02*
X057330Y012700D01*
X057561Y012624D02*
X057637Y012624D01*
X057637Y012163D01*
X057561Y012163D02*
X057714Y012163D01*
X057868Y012240D02*
X057944Y012163D01*
X058098Y012163D01*
X058174Y012317D02*
X057868Y012317D01*
X057868Y012394D02*
X057944Y012470D01*
X058098Y012470D01*
X058174Y012394D01*
X058174Y012317D01*
X058328Y012394D02*
X058405Y012470D01*
X058635Y012470D01*
X058558Y012317D02*
X058405Y012317D01*
X058328Y012394D01*
X058328Y012163D02*
X058558Y012163D01*
X058635Y012240D01*
X058558Y012317D01*
X057868Y012240D02*
X057868Y012394D01*
X057983Y012913D02*
X058059Y012990D01*
X058059Y013297D01*
X057983Y013374D01*
X057752Y013374D01*
X057752Y012913D01*
X057983Y012913D01*
X058213Y012913D02*
X058213Y013220D01*
X058213Y013067D02*
X058366Y013220D01*
X058443Y013220D01*
X058596Y013220D02*
X058673Y013220D01*
X058673Y012913D01*
X058596Y012913D02*
X058750Y012913D01*
X058903Y012913D02*
X059057Y012913D01*
X058980Y012913D02*
X058980Y013374D01*
X058903Y013374D01*
X058673Y013374D02*
X058673Y013450D01*
X058750Y013663D02*
X058673Y013740D01*
X058673Y013894D01*
X058750Y013970D01*
X058903Y013970D01*
X058980Y013894D01*
X058980Y013817D01*
X058673Y013817D01*
X058520Y013740D02*
X058520Y014047D01*
X058443Y014124D01*
X058213Y014124D01*
X058213Y013663D01*
X058443Y013663D01*
X058520Y013740D01*
X058750Y013663D02*
X058903Y013663D01*
X059134Y013663D02*
X059364Y013663D01*
X059441Y013740D01*
X059364Y013817D01*
X059210Y013817D01*
X059134Y013894D01*
X059210Y013970D01*
X059441Y013970D01*
X059594Y013970D02*
X059671Y013970D01*
X059671Y013663D01*
X059747Y013663D02*
X059594Y013663D01*
X059901Y013740D02*
X059978Y013663D01*
X060208Y013663D01*
X060208Y013587D02*
X060208Y013970D01*
X059978Y013970D01*
X059901Y013894D01*
X059901Y013740D01*
X060054Y013510D02*
X060131Y013510D01*
X060208Y013587D01*
X060361Y013663D02*
X060361Y013970D01*
X060592Y013970D01*
X060668Y013894D01*
X060668Y013663D01*
X061436Y013663D02*
X061436Y014124D01*
X061589Y014124D02*
X061282Y014124D01*
X061743Y013894D02*
X061819Y013970D01*
X061973Y013970D01*
X062049Y013894D01*
X062049Y013817D01*
X061743Y013817D01*
X061743Y013740D02*
X061743Y013894D01*
X061743Y013740D02*
X061819Y013663D01*
X061973Y013663D01*
X062203Y013740D02*
X062280Y013817D01*
X062510Y013817D01*
X062510Y013894D02*
X062510Y013663D01*
X062280Y013663D01*
X062203Y013740D01*
X062280Y013970D02*
X062433Y013970D01*
X062510Y013894D01*
X062663Y013970D02*
X062663Y013663D01*
X062817Y013663D02*
X062817Y013894D01*
X062893Y013970D01*
X062970Y013894D01*
X062970Y013663D01*
X062817Y013894D02*
X062740Y013970D01*
X062663Y013970D01*
X062049Y013374D02*
X062049Y012913D01*
X061819Y012913D01*
X061743Y012990D01*
X061743Y013144D01*
X061819Y013220D01*
X062049Y013220D01*
X061589Y013220D02*
X061512Y013220D01*
X061359Y013067D01*
X061359Y013220D02*
X061359Y012913D01*
X061205Y012913D02*
X060975Y012913D01*
X060898Y012990D01*
X060975Y013067D01*
X061205Y013067D01*
X061205Y013144D02*
X061205Y012913D01*
X061205Y013144D02*
X061129Y013220D01*
X060975Y013220D01*
X060745Y013144D02*
X060668Y013220D01*
X060515Y013220D01*
X060438Y013144D01*
X060438Y012990D01*
X060515Y012913D01*
X060668Y012913D01*
X060745Y012990D01*
X060745Y013144D01*
X060285Y013220D02*
X060208Y013144D01*
X059978Y013144D01*
X059978Y013374D02*
X060208Y013374D01*
X060285Y013297D01*
X060285Y013220D01*
X060208Y013144D02*
X060285Y013067D01*
X060285Y012990D01*
X060208Y012913D01*
X059978Y012913D01*
X059978Y013374D01*
X059287Y013374D02*
X059287Y012913D01*
X059210Y012913D02*
X059364Y012913D01*
X059249Y012624D02*
X059249Y012163D01*
X059863Y012163D02*
X060170Y012470D01*
X060170Y012547D01*
X060093Y012624D01*
X059939Y012624D01*
X059863Y012547D01*
X060323Y012547D02*
X060323Y012240D01*
X060630Y012547D01*
X060630Y012240D01*
X060553Y012163D01*
X060400Y012163D01*
X060323Y012240D01*
X060170Y012163D02*
X059863Y012163D01*
X060323Y012547D02*
X060400Y012624D01*
X060553Y012624D01*
X060630Y012547D01*
X060783Y012470D02*
X060937Y012624D01*
X060937Y012163D01*
X061090Y012163D02*
X060783Y012163D01*
X061244Y012240D02*
X061320Y012163D01*
X061474Y012163D01*
X061551Y012240D01*
X061551Y012317D01*
X061474Y012394D01*
X061244Y012394D01*
X061244Y012240D01*
X061244Y012394D02*
X061397Y012547D01*
X061551Y012624D01*
X059287Y013374D02*
X059210Y013374D01*
X059671Y014124D02*
X059671Y014200D01*
X057599Y013970D02*
X057522Y013970D01*
X057369Y013817D01*
X057369Y013970D02*
X057369Y013663D01*
X057215Y013817D02*
X056908Y013817D01*
X056908Y013894D02*
X056985Y013970D01*
X057139Y013970D01*
X057215Y013894D01*
X057215Y013817D01*
X057139Y013663D02*
X056985Y013663D01*
X056908Y013740D01*
X056908Y013894D01*
X056755Y013970D02*
X056601Y013663D01*
X056448Y013970D01*
X056295Y013894D02*
X056218Y013970D01*
X056064Y013970D01*
X055988Y013894D01*
X055988Y013740D01*
X056064Y013663D01*
X056218Y013663D01*
X056295Y013740D01*
X056295Y013894D01*
X055834Y013894D02*
X055834Y014047D01*
X055757Y014124D01*
X055527Y014124D01*
X055527Y013663D01*
X055527Y013817D02*
X055757Y013817D01*
X055834Y013894D01*
X055681Y013817D02*
X055834Y013663D01*
X055681Y013450D02*
X055681Y013374D01*
X055681Y013220D02*
X055681Y012913D01*
X055757Y012913D02*
X055604Y012913D01*
X055450Y012913D02*
X055450Y013144D01*
X055374Y013220D01*
X055144Y013220D01*
X055144Y012913D01*
X054990Y013067D02*
X054683Y013067D01*
X054683Y012990D02*
X054683Y013144D01*
X054760Y013220D01*
X054913Y013220D01*
X054990Y013144D01*
X054990Y013067D01*
X054913Y012913D02*
X054760Y012913D01*
X054683Y012990D01*
X054530Y012913D02*
X054223Y012913D01*
X054223Y012990D01*
X054530Y013297D01*
X054530Y013374D01*
X054223Y013374D01*
X054223Y013663D02*
X054223Y013970D01*
X054223Y013817D02*
X054376Y013970D01*
X054453Y013970D01*
X054606Y013894D02*
X054683Y013970D01*
X054913Y013970D01*
X054837Y013817D02*
X054683Y013817D01*
X054606Y013894D01*
X054606Y013663D02*
X054837Y013663D01*
X054913Y013740D01*
X054837Y013817D01*
X054069Y013817D02*
X053839Y013817D01*
X053762Y013740D01*
X053839Y013663D01*
X054069Y013663D01*
X054069Y013894D01*
X053993Y013970D01*
X053839Y013970D01*
X053609Y014124D02*
X053609Y013663D01*
X053302Y013663D02*
X053302Y014124D01*
X053455Y013970D01*
X053609Y014124D01*
X055604Y013220D02*
X055681Y013220D01*
X055911Y013220D02*
X056064Y013220D01*
X055988Y013297D02*
X055988Y012990D01*
X056064Y012913D01*
X056218Y012913D02*
X056218Y013374D01*
X056295Y013220D02*
X056448Y013220D01*
X056525Y013144D01*
X056525Y012913D01*
X056295Y013220D02*
X056218Y013144D01*
X057139Y013374D02*
X057139Y012913D01*
X069736Y008377D02*
X070350Y008377D01*
X070273Y008300D02*
X070273Y008454D01*
X070196Y008531D01*
X070119Y008531D01*
X070043Y008454D01*
X070043Y008300D01*
X069966Y008224D01*
X069889Y008224D01*
X069812Y008300D01*
X069812Y008454D01*
X069889Y008531D01*
X069966Y008684D02*
X069812Y008838D01*
X070273Y008838D01*
X070273Y008991D02*
X070273Y008684D01*
X070273Y008300D02*
X070196Y008224D01*
X070196Y008070D02*
X069812Y008070D01*
X069812Y007763D02*
X070196Y007763D01*
X070273Y007840D01*
X070273Y007994D01*
X070196Y008070D01*
X068380Y018213D02*
X068073Y018213D01*
X068380Y018520D01*
X068380Y018597D01*
X068303Y018674D01*
X068150Y018674D01*
X068073Y018597D01*
X067920Y018674D02*
X067920Y018213D01*
X067613Y018213D02*
X067613Y018674D01*
X067766Y018520D01*
X067920Y018674D01*
X068073Y021463D02*
X068380Y021770D01*
X068380Y021847D01*
X068303Y021924D01*
X068150Y021924D01*
X068073Y021847D01*
X067920Y021924D02*
X067613Y021924D01*
X067766Y021924D02*
X067766Y021463D01*
X068073Y021463D02*
X068380Y021463D01*
X068380Y024713D02*
X068073Y024713D01*
X067920Y024713D02*
X067920Y025174D01*
X067766Y025020D01*
X067613Y025174D01*
X067613Y024713D01*
X068073Y025020D02*
X068227Y025174D01*
X068227Y024713D01*
X067380Y027213D02*
X067073Y027213D01*
X067227Y027213D02*
X067227Y027674D01*
X067073Y027520D01*
X066920Y027674D02*
X066613Y027674D01*
X066766Y027674D02*
X066766Y027213D01*
X061380Y025097D02*
X061380Y025020D01*
X061303Y024944D01*
X061380Y024867D01*
X061380Y024790D01*
X061303Y024713D01*
X061150Y024713D01*
X061073Y024790D01*
X060920Y024713D02*
X060920Y025174D01*
X060766Y025020D01*
X060613Y025174D01*
X060613Y024713D01*
X061227Y024944D02*
X061303Y024944D01*
X061380Y025097D02*
X061303Y025174D01*
X061150Y025174D01*
X061073Y025097D01*
X060303Y027213D02*
X060150Y027213D01*
X060073Y027290D01*
X060227Y027444D02*
X060303Y027444D01*
X060380Y027367D01*
X060380Y027290D01*
X060303Y027213D01*
X060303Y027444D02*
X060380Y027520D01*
X060380Y027597D01*
X060303Y027674D01*
X060150Y027674D01*
X060073Y027597D01*
X059920Y027674D02*
X059613Y027674D01*
X059766Y027674D02*
X059766Y027213D01*
X059380Y027444D02*
X059073Y027444D01*
X059303Y027674D01*
X059303Y027213D01*
X058766Y027213D02*
X058766Y027674D01*
X058613Y027674D02*
X058920Y027674D01*
X054303Y025174D02*
X054073Y024944D01*
X054380Y024944D01*
X054303Y025174D02*
X054303Y024713D01*
X053920Y024713D02*
X053920Y025174D01*
X053766Y025020D01*
X053613Y025174D01*
X053613Y024713D01*
D13*
X053089Y022212D02*
X053089Y018275D01*
X067089Y018275D01*
X067089Y022212D01*
X053089Y022212D01*
X045839Y022212D02*
X031839Y022212D01*
X031839Y018275D01*
X045839Y018275D01*
X045839Y022212D01*
X024589Y022212D02*
X024589Y018275D01*
X010589Y018275D01*
X010589Y022212D01*
X024589Y022212D01*
D14*
X018648Y017666D02*
X018431Y017666D01*
X018431Y016682D02*
X018648Y016682D01*
X010833Y016682D02*
X010577Y016682D01*
X010577Y017666D02*
X010833Y017666D01*
X031827Y017666D02*
X032083Y017666D01*
X032083Y016682D02*
X031827Y016682D01*
X039681Y016682D02*
X039898Y016682D01*
X039898Y017666D02*
X039681Y017666D01*
X053077Y017666D02*
X053333Y017666D01*
X053333Y016682D02*
X053077Y016682D01*
X060931Y016682D02*
X061148Y016682D01*
X061148Y017666D02*
X060931Y017666D01*
X062176Y009474D02*
X062176Y009293D01*
X062298Y009385D01*
X062176Y009293D02*
X062176Y009112D01*
X062298Y009207D02*
X062182Y009283D01*
X061148Y009005D02*
X060931Y009005D01*
X062176Y008724D02*
X062176Y008543D01*
X062298Y008635D01*
X062176Y008543D02*
X062176Y008362D01*
X062298Y008457D02*
X062182Y008533D01*
X062310Y007974D02*
X062310Y007793D01*
X062188Y007701D01*
X062310Y007612D02*
X062310Y007793D01*
X062304Y007803D02*
X062188Y007879D01*
X061148Y008020D02*
X060931Y008020D01*
X053333Y008020D02*
X053077Y008020D01*
X053077Y009005D02*
X053333Y009005D01*
X041048Y009207D02*
X040932Y009283D01*
X040926Y009293D02*
X041048Y009385D01*
X040926Y009474D02*
X040926Y009293D01*
X040926Y009112D01*
X039898Y009005D02*
X039681Y009005D01*
X040926Y008724D02*
X040926Y008543D01*
X041048Y008635D01*
X040926Y008543D02*
X040926Y008362D01*
X041048Y008457D02*
X040932Y008533D01*
X041060Y007974D02*
X041060Y007793D01*
X040938Y007701D01*
X041060Y007612D02*
X041060Y007793D01*
X041054Y007803D02*
X040938Y007879D01*
X039898Y008020D02*
X039681Y008020D01*
X032083Y008020D02*
X031827Y008020D01*
X031827Y009005D02*
X032083Y009005D01*
X019798Y009207D02*
X019682Y009283D01*
X019676Y009293D02*
X019798Y009385D01*
X019676Y009474D02*
X019676Y009293D01*
X019676Y009112D01*
X018648Y009005D02*
X018431Y009005D01*
X019676Y008724D02*
X019676Y008543D01*
X019798Y008635D01*
X019676Y008543D02*
X019676Y008362D01*
X019798Y008457D02*
X019682Y008533D01*
X019810Y007974D02*
X019810Y007793D01*
X019688Y007701D01*
X019810Y007612D02*
X019810Y007793D01*
X019804Y007803D02*
X019688Y007879D01*
X018648Y008020D02*
X018431Y008020D01*
X010833Y008020D02*
X010577Y008020D01*
X010577Y009005D02*
X010833Y009005D01*
M02*
