G75*
%MOIN*%
%OFA0B0*%
%FSLAX24Y24*%
%IPPOS*%
%LPD*%
%AMOC8*
5,1,8,0,0,1.08239X$1,22.5*
%
%ADD10C,0.0630*%
%ADD11C,0.0907*%
%ADD12R,0.0513X0.0474*%
%ADD13R,0.0474X0.0513*%
%ADD14R,0.0674X0.0674*%
%ADD15C,0.0674*%
%ADD16C,0.0580*%
%ADD17C,0.0680*%
%ADD18R,0.0867X0.0552*%
%ADD19C,0.0390*%
%ADD20C,0.0476*%
D10*
X026693Y008143D03*
X026693Y009143D03*
X026693Y010143D03*
X047943Y010143D03*
X047943Y009143D03*
X047943Y008143D03*
X069193Y008143D03*
X069193Y009143D03*
X069193Y010143D03*
D11*
X071835Y010146D03*
X071835Y008178D03*
X071835Y012128D03*
X071835Y014096D03*
X050585Y014096D03*
X050585Y012128D03*
X050585Y010146D03*
X050585Y008178D03*
X029335Y008178D03*
X029335Y010146D03*
X029335Y012128D03*
X029335Y014096D03*
D12*
X020227Y017143D03*
X019558Y017143D03*
X019558Y017893D03*
X020227Y017893D03*
X022058Y020193D03*
X022727Y020193D03*
X023408Y020193D03*
X024077Y020193D03*
X024077Y020843D03*
X023408Y020843D03*
X022727Y020843D03*
X022058Y020843D03*
X040808Y017893D03*
X041477Y017893D03*
X041477Y017143D03*
X040808Y017143D03*
X043308Y020193D03*
X043977Y020193D03*
X044658Y020193D03*
X045327Y020193D03*
X045327Y020843D03*
X044658Y020843D03*
X043977Y020843D03*
X043308Y020843D03*
X062058Y017893D03*
X062727Y017893D03*
X062727Y017143D03*
X062058Y017143D03*
X064558Y020193D03*
X065227Y020193D03*
X065908Y020193D03*
X066577Y020193D03*
X066577Y020843D03*
X065908Y020843D03*
X065227Y020843D03*
X064558Y020843D03*
X062577Y009293D03*
X061908Y009293D03*
X061908Y008543D03*
X062577Y008543D03*
X062577Y007793D03*
X061908Y007793D03*
X041327Y007793D03*
X040658Y007793D03*
X040658Y008543D03*
X041327Y008543D03*
X041327Y009293D03*
X040658Y009293D03*
X020077Y009293D03*
X019408Y009293D03*
X019408Y008543D03*
X020077Y008543D03*
X020077Y007793D03*
X019408Y007793D03*
D13*
X018843Y017209D03*
X018843Y017878D03*
X020943Y017928D03*
X020943Y017259D03*
X022193Y017309D03*
X023093Y017159D03*
X023093Y017828D03*
X022193Y017978D03*
X020943Y020259D03*
X020943Y020928D03*
X040093Y017878D03*
X040093Y017209D03*
X042193Y017259D03*
X042193Y017928D03*
X043443Y017978D03*
X044343Y017828D03*
X044343Y017159D03*
X043443Y017309D03*
X042193Y020259D03*
X042193Y020928D03*
X061343Y017878D03*
X061343Y017209D03*
X063443Y017259D03*
X063443Y017928D03*
X064693Y017978D03*
X065593Y017828D03*
X065593Y017159D03*
X064693Y017309D03*
X063443Y020259D03*
X063443Y020928D03*
D14*
X053593Y018743D03*
X032343Y018743D03*
X011093Y018743D03*
D15*
X012093Y018743D03*
X013093Y018743D03*
X014093Y018743D03*
X015093Y018743D03*
X016093Y018743D03*
X017093Y018743D03*
X018093Y018743D03*
X019093Y018743D03*
X020093Y018743D03*
X021093Y018743D03*
X022093Y018743D03*
X023093Y018743D03*
X024093Y018743D03*
X024093Y021743D03*
X023093Y021743D03*
X022093Y021743D03*
X021093Y021743D03*
X020093Y021743D03*
X019093Y021743D03*
X018093Y021743D03*
X017093Y021743D03*
X016093Y021743D03*
X015093Y021743D03*
X014093Y021743D03*
X013093Y021743D03*
X012093Y021743D03*
X011093Y021743D03*
X032343Y021743D03*
X033343Y021743D03*
X034343Y021743D03*
X035343Y021743D03*
X036343Y021743D03*
X037343Y021743D03*
X038343Y021743D03*
X039343Y021743D03*
X040343Y021743D03*
X041343Y021743D03*
X042343Y021743D03*
X043343Y021743D03*
X044343Y021743D03*
X045343Y021743D03*
X045343Y018743D03*
X044343Y018743D03*
X043343Y018743D03*
X042343Y018743D03*
X041343Y018743D03*
X040343Y018743D03*
X039343Y018743D03*
X038343Y018743D03*
X037343Y018743D03*
X036343Y018743D03*
X035343Y018743D03*
X034343Y018743D03*
X033343Y018743D03*
X053593Y021743D03*
X054593Y021743D03*
X055593Y021743D03*
X056593Y021743D03*
X057593Y021743D03*
X058593Y021743D03*
X059593Y021743D03*
X060593Y021743D03*
X061593Y021743D03*
X062593Y021743D03*
X063593Y021743D03*
X064593Y021743D03*
X065593Y021743D03*
X066593Y021743D03*
X066593Y018743D03*
X065593Y018743D03*
X064593Y018743D03*
X063593Y018743D03*
X062593Y018743D03*
X061593Y018743D03*
X060593Y018743D03*
X059593Y018743D03*
X058593Y018743D03*
X057593Y018743D03*
X056593Y018743D03*
X055593Y018743D03*
X054593Y018743D03*
D16*
X051193Y019643D03*
X046473Y019643D03*
X046473Y022893D03*
X044193Y022893D03*
X039473Y022893D03*
X037193Y022893D03*
X032473Y022893D03*
X029943Y022893D03*
X025223Y022893D03*
X022943Y022893D03*
X018223Y022893D03*
X015943Y022893D03*
X011223Y022893D03*
X011223Y025893D03*
X015943Y025893D03*
X018223Y025893D03*
X022943Y025893D03*
X025223Y025893D03*
X029943Y025893D03*
X032473Y025893D03*
X037193Y025893D03*
X039473Y025893D03*
X044193Y025893D03*
X046473Y025893D03*
X051193Y025893D03*
X053723Y025893D03*
X058443Y025893D03*
X060723Y025893D03*
X065443Y025893D03*
X067723Y025893D03*
X072443Y025893D03*
X072443Y022893D03*
X067723Y022893D03*
X065443Y022893D03*
X060723Y022893D03*
X058443Y022893D03*
X053723Y022893D03*
X051193Y022893D03*
X067723Y019643D03*
X072443Y019643D03*
X072443Y016393D03*
X067723Y016393D03*
X051193Y016393D03*
X046473Y016393D03*
X029943Y016393D03*
X025223Y016393D03*
X025223Y019643D03*
X029943Y019643D03*
D17*
X028763Y020413D03*
X027583Y020413D03*
X026403Y020413D03*
X026403Y017163D03*
X027583Y017163D03*
X028763Y017163D03*
X028763Y023663D03*
X027583Y023663D03*
X026403Y023663D03*
X021763Y023663D03*
X020583Y023663D03*
X019403Y023663D03*
X014763Y023663D03*
X013583Y023663D03*
X012403Y023663D03*
X012403Y026663D03*
X013583Y026663D03*
X014763Y026663D03*
X019403Y026663D03*
X020583Y026663D03*
X021763Y026663D03*
X026403Y026663D03*
X027583Y026663D03*
X028763Y026663D03*
X033653Y026663D03*
X034833Y026663D03*
X036013Y026663D03*
X040653Y026663D03*
X041833Y026663D03*
X043013Y026663D03*
X047653Y026663D03*
X048833Y026663D03*
X050013Y026663D03*
X054903Y026663D03*
X056083Y026663D03*
X057263Y026663D03*
X061903Y026663D03*
X063083Y026663D03*
X064263Y026663D03*
X068903Y026663D03*
X070083Y026663D03*
X071263Y026663D03*
X071263Y023663D03*
X070083Y023663D03*
X068903Y023663D03*
X064263Y023663D03*
X063083Y023663D03*
X061903Y023663D03*
X057263Y023663D03*
X056083Y023663D03*
X054903Y023663D03*
X050013Y023663D03*
X048833Y023663D03*
X047653Y023663D03*
X043013Y023663D03*
X041833Y023663D03*
X040653Y023663D03*
X036013Y023663D03*
X034833Y023663D03*
X033653Y023663D03*
X047653Y020413D03*
X048833Y020413D03*
X050013Y020413D03*
X050013Y017163D03*
X048833Y017163D03*
X047653Y017163D03*
X068903Y017163D03*
X070083Y017163D03*
X071263Y017163D03*
X071263Y020413D03*
X070083Y020413D03*
X068903Y020413D03*
D18*
X059593Y014123D03*
X058343Y014123D03*
X057093Y014123D03*
X055843Y014123D03*
X054593Y014123D03*
X054593Y012863D03*
X055843Y012863D03*
X057093Y012863D03*
X058343Y012863D03*
X059593Y012863D03*
X059593Y012123D03*
X058343Y012123D03*
X057093Y012123D03*
X055843Y012123D03*
X054593Y012123D03*
X054593Y010863D03*
X055843Y010863D03*
X057093Y010863D03*
X058343Y010863D03*
X059593Y010863D03*
X038343Y010863D03*
X037093Y010863D03*
X035843Y010863D03*
X034593Y010863D03*
X033343Y010863D03*
X033343Y012123D03*
X034593Y012123D03*
X035843Y012123D03*
X037093Y012123D03*
X038343Y012123D03*
X038343Y012863D03*
X037093Y012863D03*
X035843Y012863D03*
X034593Y012863D03*
X033343Y012863D03*
X033343Y014123D03*
X034593Y014123D03*
X035843Y014123D03*
X037093Y014123D03*
X038343Y014123D03*
X017093Y014123D03*
X015843Y014123D03*
X014593Y014123D03*
X013343Y014123D03*
X012093Y014123D03*
X012093Y012863D03*
X013343Y012863D03*
X014593Y012863D03*
X015843Y012863D03*
X017093Y012863D03*
X017093Y012123D03*
X015843Y012123D03*
X014593Y012123D03*
X013343Y012123D03*
X012093Y012123D03*
X012093Y010863D03*
X013343Y010863D03*
X014593Y010863D03*
X015843Y010863D03*
X017093Y010863D03*
D19*
X019043Y007793D03*
X018193Y008143D03*
X019043Y008543D03*
X020443Y009293D03*
X021643Y011593D03*
X022043Y011593D03*
X022443Y011593D03*
X022993Y011393D03*
X022643Y013093D03*
X022193Y013093D03*
X022193Y013543D03*
X022643Y013543D03*
X021693Y013543D03*
X021693Y013093D03*
X021693Y014243D03*
X021693Y014693D03*
X022193Y014693D03*
X022193Y014243D03*
X022643Y014243D03*
X022643Y014693D03*
X024693Y015243D03*
X022443Y016193D03*
X022043Y016193D03*
X021643Y016193D03*
X020193Y016643D03*
X021593Y017393D03*
X023093Y016943D03*
X023793Y016593D03*
X024643Y017493D03*
X023593Y019643D03*
X021593Y020493D03*
X020293Y020593D03*
X023443Y020793D03*
X017393Y022393D03*
X015443Y022243D03*
X015043Y022593D03*
X016593Y023343D03*
X017193Y024743D03*
X016693Y025593D03*
X023293Y024393D03*
X024043Y025143D03*
X014593Y021193D03*
X013593Y021243D03*
X017343Y017743D03*
X034843Y021243D03*
X035843Y021193D03*
X036693Y022243D03*
X036293Y022593D03*
X037843Y023343D03*
X038643Y022393D03*
X041543Y020593D03*
X042843Y020493D03*
X044693Y020793D03*
X044843Y019643D03*
X045893Y017493D03*
X044343Y016943D03*
X045043Y016593D03*
X043693Y016193D03*
X043293Y016193D03*
X042893Y016193D03*
X041443Y016643D03*
X042843Y017393D03*
X038593Y017743D03*
X045943Y015243D03*
X043893Y014693D03*
X043893Y014243D03*
X043443Y014243D03*
X043443Y014693D03*
X042943Y014693D03*
X042943Y014243D03*
X042943Y013543D03*
X042943Y013093D03*
X043443Y013093D03*
X043893Y013093D03*
X043893Y013543D03*
X043443Y013543D03*
X043293Y011593D03*
X043693Y011593D03*
X044243Y011393D03*
X042893Y011593D03*
X041693Y009293D03*
X040293Y008543D03*
X039443Y008143D03*
X040293Y007793D03*
X033443Y009893D03*
X032193Y009643D03*
X012193Y009893D03*
X010943Y009643D03*
X044543Y024393D03*
X045293Y025143D03*
X038443Y024743D03*
X037943Y025593D03*
X056093Y021243D03*
X057093Y021193D03*
X057943Y022243D03*
X057543Y022593D03*
X059093Y023343D03*
X059893Y022393D03*
X062793Y020593D03*
X064093Y020493D03*
X065943Y020793D03*
X066093Y019643D03*
X067143Y017493D03*
X065593Y016943D03*
X066293Y016593D03*
X064943Y016193D03*
X064543Y016193D03*
X064143Y016193D03*
X062693Y016643D03*
X064093Y017393D03*
X059843Y017743D03*
X067193Y015243D03*
X065143Y014693D03*
X065143Y014243D03*
X064693Y014243D03*
X064693Y014693D03*
X064193Y014693D03*
X064193Y014243D03*
X064193Y013543D03*
X064193Y013093D03*
X064693Y013093D03*
X065143Y013093D03*
X065143Y013543D03*
X064693Y013543D03*
X064543Y011593D03*
X064943Y011593D03*
X065493Y011393D03*
X064143Y011593D03*
X062943Y009293D03*
X061543Y008543D03*
X060693Y008143D03*
X061543Y007793D03*
X054693Y009893D03*
X053443Y009643D03*
X065793Y024393D03*
X066543Y025143D03*
X059693Y024743D03*
X059193Y025593D03*
D20*
X061443Y025143D03*
X061193Y023893D03*
X055443Y024143D03*
X055193Y022393D03*
X040193Y025143D03*
X039943Y023893D03*
X034193Y024143D03*
X033943Y022393D03*
X018943Y025143D03*
X018693Y023893D03*
X012943Y024143D03*
X012693Y022393D03*
M02*
