M48
;DRILL file {KiCad (5.0.0)} date 12/21/18 14:53:52
;FORMAT={-:-/ absolute / inch / decimal}
FMAT,2
INCH,TZ
T1C0.0157
T2C0.0300
T3C0.0350
T4C0.0394
T5C0.0400
T6C0.1598
%
G90
G05
M72
T1
X5.8559Y-3.0177
X6.15Y-2.745
X6.515Y-2.75
X7.29Y-2.69
X7.685Y-2.75
X8.16Y-2.75
X8.745Y-2.94
X8.81Y-3.16
X9.065Y-3.06
X9.1757Y-3.41
X9.275Y-2.985
X9.32Y-2.985
T2
X7.21Y-2.69
X7.405Y-4.505
X7.49Y-4.505
X7.58Y-4.505
X6.8051Y-2.49
X6.9051Y-2.49
X6.4451Y-2.4906
X6.5451Y-2.4906
X9.33Y-2.49
X9.43Y-2.49
X9.53Y-2.49
X7.305Y-2.491
X7.405Y-2.491
X7.505Y-2.491
X8.87Y-2.49
X8.97Y-2.49
X9.07Y-2.49
X7.772Y-2.494
X7.872Y-2.494
X7.972Y-2.494
X8.235Y-2.491
X8.335Y-2.491
X8.435Y-2.491
X5.895Y-2.49
X5.995Y-2.49
T3
X6.76Y-3.98
X6.86Y-3.98
X6.96Y-3.98
T4
X4.8Y-3.02
X4.8Y-3.12
X4.8Y-4.72
X4.8Y-4.82
X4.9Y-3.02
X4.9Y-3.12
X4.9Y-4.72
X4.9Y-4.82
X5.Y-3.02
X5.Y-3.12
X5.Y-4.72
X5.Y-4.82
X5.1Y-3.02
X5.1Y-3.12
X5.1Y-4.72
X5.1Y-4.82
X5.2Y-3.02
X5.2Y-3.12
X5.2Y-4.72
X5.2Y-4.82
X5.3Y-3.02
X5.3Y-3.12
X5.3Y-4.72
X5.3Y-4.82
X5.4Y-3.02
X5.4Y-3.12
X5.4Y-4.72
X5.4Y-4.82
X5.5Y-3.02
X5.5Y-3.12
X5.5Y-4.72
X5.5Y-4.82
X5.6Y-3.02
X5.6Y-3.12
X5.6Y-4.72
X5.6Y-4.82
X5.7Y-3.02
X5.7Y-3.12
X5.7Y-4.72
X5.7Y-4.82
X7.3Y-3.02
X7.3Y-3.12
X7.3Y-4.72
X7.3Y-4.82
X7.4Y-3.02
X7.4Y-3.12
X7.4Y-4.72
X7.4Y-4.82
X7.5Y-3.02
X7.5Y-3.12
X7.5Y-4.72
X7.5Y-4.82
X7.6Y-3.02
X7.6Y-3.12
X7.6Y-4.72
X7.6Y-4.82
X7.7Y-3.02
X7.7Y-3.12
X7.7Y-4.72
X7.7Y-4.82
X7.8Y-3.02
X7.8Y-3.12
X7.8Y-4.72
X7.8Y-4.82
X7.9Y-3.02
X7.9Y-3.12
X7.9Y-4.72
X7.9Y-4.82
X8.Y-3.02
X8.Y-3.12
X8.Y-4.72
X8.Y-4.82
X8.1Y-3.02
X8.1Y-3.12
X8.1Y-4.72
X8.1Y-4.82
X8.2Y-3.02
X8.2Y-3.12
X8.2Y-4.72
X8.2Y-4.82
T5
X9.26Y-3.29
T6
X4.914Y-2.688
X5.229Y-2.688
X5.9242Y-3.6614
X5.9242Y-3.9764
X5.9242Y-4.2913
X5.4724Y-3.6614
X5.4724Y-3.9764
X5.4724Y-4.2913
X6.378Y-3.6614
X6.378Y-3.9764
X6.378Y-4.2913
T0
M30
