  0
SECTION
  2
HEADER
  9
$ANGBASE
  50
0.0
  9
$ANGDIR
  70
  1
  9
$MEASUREMENT
  70
0
  0
ENDSEC
  0
SECTION
  2
TABLES
  0
TABLE
  2
LTYPE
  70
4
  0
LTYPE
  5
40F
  2
CONTINUOUS
  70
0
  3
Solid line
  72
65
  73
0
  40
0.0
  0
LTYPE
  5
410
  2
DASHDOT
 70
0
  3
Dash Dot ____ _ ____ _
 72
65
 73
4
 40
2.0
 49
1.25
 49
-0.25
 49
0.25
 49
-0.25
  0
LTYPE
  5
411
  2
DASHED
 70
0
  3
Dashed __ __ __ __ __
 72
65
 73
2
 40
0.75
 49
0.5
 49
-0.25
  0
LTYPE
  5
43B
  2
DOTTED
 70
0
  3
Dotted .  .  .  .
 72
65
 73
2
 40
0.2
 49
0.0
 49
-0.2
  0
ENDTAB
  0
TABLE
  2
STYLE
  70
4
  0
STYLE
  2
KICAD
  70
0
  40
0
  41
1
  42
1
  50
0
  71
0
  3
isocp.shx
  0
STYLE
  2
KICADB
  70
0
  40
0
  41
1
  42
1
  50
0
  71
0
  3
isocp.shx
  0
STYLE
  2
KICADI
  70
0
  40
0
  41
1
  42
1
  50
15
  71
0
  3
isocp.shx
  0
STYLE
  2
KICADBI
  70
0
  40
0
  41
1
  42
1
  50
15
  71
0
  3
isocp.shx
  0
ENDTAB
  0
TABLE
  2
LAYER
  70
30
  0
LAYER
  2
BLACK
  70
0
  62
7
  6
CONTINUOUS
  0
LAYER
  2
GRAY1
  70
0
  62
251
  6
CONTINUOUS
  0
LAYER
  2
GRAY2
  70
0
  62
8
  6
CONTINUOUS
  0
LAYER
  2
GRAY3
  70
0
  62
9
  6
CONTINUOUS
  0
LAYER
  2
WHITE
  70
0
  62
7
  6
CONTINUOUS
  0
LAYER
  2
LYELLOW
  70
0
  62
51
  6
CONTINUOUS
  0
LAYER
  2
BLUE1
  70
0
  62
178
  6
CONTINUOUS
  0
LAYER
  2
GREEN1
  70
0
  62
98
  6
CONTINUOUS
  0
LAYER
  2
CYAN1
  70
0
  62
138
  6
CONTINUOUS
  0
LAYER
  2
RED1
  70
0
  62
18
  6
CONTINUOUS
  0
LAYER
  2
MAGENTA1
  70
0
  62
228
  6
CONTINUOUS
  0
LAYER
  2
BROWN1
  70
0
  62
58
  6
CONTINUOUS
  0
LAYER
  2
BLUE2
  70
0
  62
5
  6
CONTINUOUS
  0
LAYER
  2
GREEN2
  70
0
  62
3
  6
CONTINUOUS
  0
LAYER
  2
CYAN2
  70
0
  62
4
  6
CONTINUOUS
  0
LAYER
  2
RED2
  70
0
  62
1
  6
CONTINUOUS
  0
LAYER
  2
MAGENTA2
  70
0
  62
6
  6
CONTINUOUS
  0
LAYER
  2
BROWN2
  70
0
  62
54
  6
CONTINUOUS
  0
LAYER
  2
BLUE3
  70
0
  62
171
  6
CONTINUOUS
  0
LAYER
  2
GREEN3
  70
0
  62
91
  6
CONTINUOUS
  0
LAYER
  2
CYAN3
  70
0
  62
131
  6
CONTINUOUS
  0
LAYER
  2
RED3
  70
0
  62
11
  6
CONTINUOUS
  0
LAYER
  2
MAGENTA3
  70
0
  62
221
  6
CONTINUOUS
  0
LAYER
  2
YELLOW3
  70
0
  62
2
  6
CONTINUOUS
  0
LAYER
  2
BLUE4
  70
0
  62
5
  6
CONTINUOUS
  0
LAYER
  2
GREEN4
  70
0
  62
3
  6
CONTINUOUS
  0
LAYER
  2
CYAN4
  70
0
  62
4
  6
CONTINUOUS
  0
LAYER
  2
RED4
  70
0
  62
1
  6
CONTINUOUS
  0
LAYER
  2
MAGENTA4
  70
0
  62
6
  6
CONTINUOUS
  0
LAYER
  2
YELLOW4
  70
0
  62
2
  6
CONTINUOUS
  0
ENDTAB
  0
ENDSEC
  0
SECTION
  2
ENTITIES
0
LINE
8
BLACK
6
CONTINUOUS
10
203.464
20
-121.703
11
203.696
21
-121.837
0
LINE
8
BLACK
6
CONTINUOUS
10
203.696
20
-121.837
11
203.868
21
-122.042
0
LINE
8
BLACK
6
CONTINUOUS
10
203.868
20
-122.042
11
203.96
21
-122.294
0
LINE
8
BLACK
6
CONTINUOUS
10
203.96
20
-122.294
11
203.96
21
-122.562
0
LINE
8
BLACK
6
CONTINUOUS
10
203.96
20
-122.562
11
203.868
21
-122.814
0
LINE
8
BLACK
6
CONTINUOUS
10
203.868
20
-122.814
11
203.696
21
-123.019
0
LINE
8
BLACK
6
CONTINUOUS
10
203.696
20
-123.019
11
203.464
21
-123.153
0
LINE
8
BLACK
6
CONTINUOUS
10
203.464
20
-123.153
11
203.2
21
-123.2
0
LINE
8
BLACK
6
CONTINUOUS
10
203.2
20
-123.2
11
202.936
21
-123.153
0
LINE
8
BLACK
6
CONTINUOUS
10
202.936
20
-123.153
11
202.704
21
-123.019
0
LINE
8
BLACK
6
CONTINUOUS
10
202.704
20
-123.019
11
202.532
21
-122.814
0
LINE
8
BLACK
6
CONTINUOUS
10
202.532
20
-122.814
11
202.44
21
-122.562
0
LINE
8
BLACK
6
CONTINUOUS
10
202.44
20
-122.562
11
202.44
21
-122.294
0
LINE
8
BLACK
6
CONTINUOUS
10
202.44
20
-122.294
11
202.532
21
-122.042
0
LINE
8
BLACK
6
CONTINUOUS
10
202.532
20
-122.042
11
202.704
21
-121.837
0
LINE
8
BLACK
6
CONTINUOUS
10
202.704
20
-121.837
11
202.936
21
-121.703
0
LINE
8
BLACK
6
CONTINUOUS
10
202.936
20
-121.703
11
203.2
21
-121.656
0
LINE
8
BLACK
6
CONTINUOUS
10
203.2
20
-121.656
11
203.464
21
-121.703
0
LINE
8
BLACK
6
CONTINUOUS
10
185.684
20
-121.703
11
185.916
21
-121.837
0
LINE
8
BLACK
6
CONTINUOUS
10
185.916
20
-121.837
11
186.088
21
-122.042
0
LINE
8
BLACK
6
CONTINUOUS
10
186.088
20
-122.042
11
186.18
21
-122.294
0
LINE
8
BLACK
6
CONTINUOUS
10
186.18
20
-122.294
11
186.18
21
-122.562
0
LINE
8
BLACK
6
CONTINUOUS
10
186.18
20
-122.562
11
186.088
21
-122.814
0
LINE
8
BLACK
6
CONTINUOUS
10
186.088
20
-122.814
11
185.916
21
-123.019
0
LINE
8
BLACK
6
CONTINUOUS
10
185.916
20
-123.019
11
185.684
21
-123.153
0
LINE
8
BLACK
6
CONTINUOUS
10
185.684
20
-123.153
11
185.42
21
-123.2
0
LINE
8
BLACK
6
CONTINUOUS
10
185.42
20
-123.2
11
185.156
21
-123.153
0
LINE
8
BLACK
6
CONTINUOUS
10
185.156
20
-123.153
11
184.924
21
-123.019
0
LINE
8
BLACK
6
CONTINUOUS
10
184.924
20
-123.019
11
184.752
21
-122.814
0
LINE
8
BLACK
6
CONTINUOUS
10
184.752
20
-122.814
11
184.66
21
-122.562
0
LINE
8
BLACK
6
CONTINUOUS
10
184.66
20
-122.562
11
184.66
21
-122.294
0
LINE
8
BLACK
6
CONTINUOUS
10
184.66
20
-122.294
11
184.752
21
-122.042
0
LINE
8
BLACK
6
CONTINUOUS
10
184.752
20
-122.042
11
184.924
21
-121.837
0
LINE
8
BLACK
6
CONTINUOUS
10
184.924
20
-121.837
11
185.156
21
-121.703
0
LINE
8
BLACK
6
CONTINUOUS
10
185.156
20
-121.703
11
185.42
21
-121.656
0
LINE
8
BLACK
6
CONTINUOUS
10
185.42
20
-121.656
11
185.684
21
-121.703
0
LINE
8
BLACK
6
CONTINUOUS
10
200.924
20
-121.703
11
201.156
21
-121.837
0
LINE
8
BLACK
6
CONTINUOUS
10
201.156
20
-121.837
11
201.328
21
-122.042
0
LINE
8
BLACK
6
CONTINUOUS
10
201.328
20
-122.042
11
201.42
21
-122.294
0
LINE
8
BLACK
6
CONTINUOUS
10
201.42
20
-122.294
11
201.42
21
-122.562
0
LINE
8
BLACK
6
CONTINUOUS
10
201.42
20
-122.562
11
201.328
21
-122.814
0
LINE
8
BLACK
6
CONTINUOUS
10
201.328
20
-122.814
11
201.156
21
-123.019
0
LINE
8
BLACK
6
CONTINUOUS
10
201.156
20
-123.019
11
200.924
21
-123.153
0
LINE
8
BLACK
6
CONTINUOUS
10
200.924
20
-123.153
11
200.66
21
-123.2
0
LINE
8
BLACK
6
CONTINUOUS
10
200.66
20
-123.2
11
200.396
21
-123.153
0
LINE
8
BLACK
6
CONTINUOUS
10
200.396
20
-123.153
11
200.164
21
-123.019
0
LINE
8
BLACK
6
CONTINUOUS
10
200.164
20
-123.019
11
199.992
21
-122.814
0
LINE
8
BLACK
6
CONTINUOUS
10
199.992
20
-122.814
11
199.9
21
-122.562
0
LINE
8
BLACK
6
CONTINUOUS
10
199.9
20
-122.562
11
199.9
21
-122.294
0
LINE
8
BLACK
6
CONTINUOUS
10
199.9
20
-122.294
11
199.992
21
-122.042
0
LINE
8
BLACK
6
CONTINUOUS
10
199.992
20
-122.042
11
200.164
21
-121.837
0
LINE
8
BLACK
6
CONTINUOUS
10
200.164
20
-121.837
11
200.396
21
-121.703
0
LINE
8
BLACK
6
CONTINUOUS
10
200.396
20
-121.703
11
200.66
21
-121.656
0
LINE
8
BLACK
6
CONTINUOUS
10
200.66
20
-121.656
11
200.924
21
-121.703
0
LINE
8
BLACK
6
CONTINUOUS
10
206.004
20
-121.703
11
206.236
21
-121.837
0
LINE
8
BLACK
6
CONTINUOUS
10
206.236
20
-121.837
11
206.408
21
-122.042
0
LINE
8
BLACK
6
CONTINUOUS
10
206.408
20
-122.042
11
206.5
21
-122.294
0
LINE
8
BLACK
6
CONTINUOUS
10
206.5
20
-122.294
11
206.5
21
-122.562
0
LINE
8
BLACK
6
CONTINUOUS
10
206.5
20
-122.562
11
206.408
21
-122.814
0
LINE
8
BLACK
6
CONTINUOUS
10
206.408
20
-122.814
11
206.236
21
-123.019
0
LINE
8
BLACK
6
CONTINUOUS
10
206.236
20
-123.019
11
206.004
21
-123.153
0
LINE
8
BLACK
6
CONTINUOUS
10
206.004
20
-123.153
11
205.74
21
-123.2
0
LINE
8
BLACK
6
CONTINUOUS
10
205.74
20
-123.2
11
205.476
21
-123.153
0
LINE
8
BLACK
6
CONTINUOUS
10
205.476
20
-123.153
11
205.244
21
-123.019
0
LINE
8
BLACK
6
CONTINUOUS
10
205.244
20
-123.019
11
205.072
21
-122.814
0
LINE
8
BLACK
6
CONTINUOUS
10
205.072
20
-122.814
11
204.98
21
-122.562
0
LINE
8
BLACK
6
CONTINUOUS
10
204.98
20
-122.562
11
204.98
21
-122.294
0
LINE
8
BLACK
6
CONTINUOUS
10
204.98
20
-122.294
11
205.072
21
-122.042
0
LINE
8
BLACK
6
CONTINUOUS
10
205.072
20
-122.042
11
205.244
21
-121.837
0
LINE
8
BLACK
6
CONTINUOUS
10
205.244
20
-121.837
11
205.476
21
-121.703
0
LINE
8
BLACK
6
CONTINUOUS
10
205.476
20
-121.703
11
205.74
21
-121.656
0
LINE
8
BLACK
6
CONTINUOUS
10
205.74
20
-121.656
11
206.004
21
-121.703
0
LINE
8
BLACK
6
CONTINUOUS
10
188.224
20
-121.703
11
188.456
21
-121.837
0
LINE
8
BLACK
6
CONTINUOUS
10
188.456
20
-121.837
11
188.628
21
-122.042
0
LINE
8
BLACK
6
CONTINUOUS
10
188.628
20
-122.042
11
188.72
21
-122.294
0
LINE
8
BLACK
6
CONTINUOUS
10
188.72
20
-122.294
11
188.72
21
-122.562
0
LINE
8
BLACK
6
CONTINUOUS
10
188.72
20
-122.562
11
188.628
21
-122.814
0
LINE
8
BLACK
6
CONTINUOUS
10
188.628
20
-122.814
11
188.456
21
-123.019
0
LINE
8
BLACK
6
CONTINUOUS
10
188.456
20
-123.019
11
188.224
21
-123.153
0
LINE
8
BLACK
6
CONTINUOUS
10
188.224
20
-123.153
11
187.96
21
-123.2
0
LINE
8
BLACK
6
CONTINUOUS
10
187.96
20
-123.2
11
187.696
21
-123.153
0
LINE
8
BLACK
6
CONTINUOUS
10
187.696
20
-123.153
11
187.464
21
-123.019
0
LINE
8
BLACK
6
CONTINUOUS
10
187.464
20
-123.019
11
187.292
21
-122.814
0
LINE
8
BLACK
6
CONTINUOUS
10
187.292
20
-122.814
11
187.2
21
-122.562
0
LINE
8
BLACK
6
CONTINUOUS
10
187.2
20
-122.562
11
187.2
21
-122.294
0
LINE
8
BLACK
6
CONTINUOUS
10
187.2
20
-122.294
11
187.292
21
-122.042
0
LINE
8
BLACK
6
CONTINUOUS
10
187.292
20
-122.042
11
187.464
21
-121.837
0
LINE
8
BLACK
6
CONTINUOUS
10
187.464
20
-121.837
11
187.696
21
-121.703
0
LINE
8
BLACK
6
CONTINUOUS
10
187.696
20
-121.703
11
187.96
21
-121.656
0
LINE
8
BLACK
6
CONTINUOUS
10
187.96
20
-121.656
11
188.224
21
-121.703
0
LINE
8
BLACK
6
CONTINUOUS
10
190.764
20
-121.703
11
190.996
21
-121.837
0
LINE
8
BLACK
6
CONTINUOUS
10
190.996
20
-121.837
11
191.168
21
-122.042
0
LINE
8
BLACK
6
CONTINUOUS
10
191.168
20
-122.042
11
191.26
21
-122.294
0
LINE
8
BLACK
6
CONTINUOUS
10
191.26
20
-122.294
11
191.26
21
-122.562
0
LINE
8
BLACK
6
CONTINUOUS
10
191.26
20
-122.562
11
191.168
21
-122.814
0
LINE
8
BLACK
6
CONTINUOUS
10
191.168
20
-122.814
11
190.996
21
-123.019
0
LINE
8
BLACK
6
CONTINUOUS
10
190.996
20
-123.019
11
190.764
21
-123.153
0
LINE
8
BLACK
6
CONTINUOUS
10
190.764
20
-123.153
11
190.5
21
-123.2
0
LINE
8
BLACK
6
CONTINUOUS
10
190.5
20
-123.2
11
190.236
21
-123.153
0
LINE
8
BLACK
6
CONTINUOUS
10
190.236
20
-123.153
11
190.004
21
-123.019
0
LINE
8
BLACK
6
CONTINUOUS
10
190.004
20
-123.019
11
189.832
21
-122.814
0
LINE
8
BLACK
6
CONTINUOUS
10
189.832
20
-122.814
11
189.74
21
-122.562
0
LINE
8
BLACK
6
CONTINUOUS
10
189.74
20
-122.562
11
189.74
21
-122.294
0
LINE
8
BLACK
6
CONTINUOUS
10
189.74
20
-122.294
11
189.832
21
-122.042
0
LINE
8
BLACK
6
CONTINUOUS
10
189.832
20
-122.042
11
190.004
21
-121.837
0
LINE
8
BLACK
6
CONTINUOUS
10
190.004
20
-121.837
11
190.236
21
-121.703
0
LINE
8
BLACK
6
CONTINUOUS
10
190.236
20
-121.703
11
190.5
21
-121.656
0
LINE
8
BLACK
6
CONTINUOUS
10
190.5
20
-121.656
11
190.764
21
-121.703
0
LINE
8
BLACK
6
CONTINUOUS
10
193.304
20
-121.703
11
193.536
21
-121.837
0
LINE
8
BLACK
6
CONTINUOUS
10
193.536
20
-121.837
11
193.708
21
-122.042
0
LINE
8
BLACK
6
CONTINUOUS
10
193.708
20
-122.042
11
193.8
21
-122.294
0
LINE
8
BLACK
6
CONTINUOUS
10
193.8
20
-122.294
11
193.8
21
-122.562
0
LINE
8
BLACK
6
CONTINUOUS
10
193.8
20
-122.562
11
193.708
21
-122.814
0
LINE
8
BLACK
6
CONTINUOUS
10
193.708
20
-122.814
11
193.536
21
-123.019
0
LINE
8
BLACK
6
CONTINUOUS
10
193.536
20
-123.019
11
193.304
21
-123.153
0
LINE
8
BLACK
6
CONTINUOUS
10
193.304
20
-123.153
11
193.04
21
-123.2
0
LINE
8
BLACK
6
CONTINUOUS
10
193.04
20
-123.2
11
192.776
21
-123.153
0
LINE
8
BLACK
6
CONTINUOUS
10
192.776
20
-123.153
11
192.544
21
-123.019
0
LINE
8
BLACK
6
CONTINUOUS
10
192.544
20
-123.019
11
192.372
21
-122.814
0
LINE
8
BLACK
6
CONTINUOUS
10
192.372
20
-122.814
11
192.28
21
-122.562
0
LINE
8
BLACK
6
CONTINUOUS
10
192.28
20
-122.562
11
192.28
21
-122.294
0
LINE
8
BLACK
6
CONTINUOUS
10
192.28
20
-122.294
11
192.372
21
-122.042
0
LINE
8
BLACK
6
CONTINUOUS
10
192.372
20
-122.042
11
192.544
21
-121.837
0
LINE
8
BLACK
6
CONTINUOUS
10
192.544
20
-121.837
11
192.776
21
-121.703
0
LINE
8
BLACK
6
CONTINUOUS
10
192.776
20
-121.703
11
193.04
21
-121.656
0
LINE
8
BLACK
6
CONTINUOUS
10
193.04
20
-121.656
11
193.304
21
-121.703
0
LINE
8
BLACK
6
CONTINUOUS
10
195.844
20
-121.703
11
196.076
21
-121.837
0
LINE
8
BLACK
6
CONTINUOUS
10
196.076
20
-121.837
11
196.248
21
-122.042
0
LINE
8
BLACK
6
CONTINUOUS
10
196.248
20
-122.042
11
196.34
21
-122.294
0
LINE
8
BLACK
6
CONTINUOUS
10
196.34
20
-122.294
11
196.34
21
-122.562
0
LINE
8
BLACK
6
CONTINUOUS
10
196.34
20
-122.562
11
196.248
21
-122.814
0
LINE
8
BLACK
6
CONTINUOUS
10
196.248
20
-122.814
11
196.076
21
-123.019
0
LINE
8
BLACK
6
CONTINUOUS
10
196.076
20
-123.019
11
195.844
21
-123.153
0
LINE
8
BLACK
6
CONTINUOUS
10
195.844
20
-123.153
11
195.58
21
-123.2
0
LINE
8
BLACK
6
CONTINUOUS
10
195.58
20
-123.2
11
195.316
21
-123.153
0
LINE
8
BLACK
6
CONTINUOUS
10
195.316
20
-123.153
11
195.084
21
-123.019
0
LINE
8
BLACK
6
CONTINUOUS
10
195.084
20
-123.019
11
194.912
21
-122.814
0
LINE
8
BLACK
6
CONTINUOUS
10
194.912
20
-122.814
11
194.82
21
-122.562
0
LINE
8
BLACK
6
CONTINUOUS
10
194.82
20
-122.562
11
194.82
21
-122.294
0
LINE
8
BLACK
6
CONTINUOUS
10
194.82
20
-122.294
11
194.912
21
-122.042
0
LINE
8
BLACK
6
CONTINUOUS
10
194.912
20
-122.042
11
195.084
21
-121.837
0
LINE
8
BLACK
6
CONTINUOUS
10
195.084
20
-121.837
11
195.316
21
-121.703
0
LINE
8
BLACK
6
CONTINUOUS
10
195.316
20
-121.703
11
195.58
21
-121.656
0
LINE
8
BLACK
6
CONTINUOUS
10
195.58
20
-121.656
11
195.844
21
-121.703
0
LINE
8
BLACK
6
CONTINUOUS
10
198.384
20
-121.703
11
198.616
21
-121.837
0
LINE
8
BLACK
6
CONTINUOUS
10
198.616
20
-121.837
11
198.788
21
-122.042
0
LINE
8
BLACK
6
CONTINUOUS
10
198.788
20
-122.042
11
198.88
21
-122.294
0
LINE
8
BLACK
6
CONTINUOUS
10
198.88
20
-122.294
11
198.88
21
-122.562
0
LINE
8
BLACK
6
CONTINUOUS
10
198.88
20
-122.562
11
198.788
21
-122.814
0
LINE
8
BLACK
6
CONTINUOUS
10
198.788
20
-122.814
11
198.616
21
-123.019
0
LINE
8
BLACK
6
CONTINUOUS
10
198.616
20
-123.019
11
198.384
21
-123.153
0
LINE
8
BLACK
6
CONTINUOUS
10
198.384
20
-123.153
11
198.12
21
-123.2
0
LINE
8
BLACK
6
CONTINUOUS
10
198.12
20
-123.2
11
197.856
21
-123.153
0
LINE
8
BLACK
6
CONTINUOUS
10
197.856
20
-123.153
11
197.624
21
-123.019
0
LINE
8
BLACK
6
CONTINUOUS
10
197.624
20
-123.019
11
197.452
21
-122.814
0
LINE
8
BLACK
6
CONTINUOUS
10
197.452
20
-122.814
11
197.36
21
-122.562
0
LINE
8
BLACK
6
CONTINUOUS
10
197.36
20
-122.562
11
197.36
21
-122.294
0
LINE
8
BLACK
6
CONTINUOUS
10
197.36
20
-122.294
11
197.452
21
-122.042
0
LINE
8
BLACK
6
CONTINUOUS
10
197.452
20
-122.042
11
197.624
21
-121.837
0
LINE
8
BLACK
6
CONTINUOUS
10
197.624
20
-121.837
11
197.856
21
-121.703
0
LINE
8
BLACK
6
CONTINUOUS
10
197.856
20
-121.703
11
198.12
21
-121.656
0
LINE
8
BLACK
6
CONTINUOUS
10
198.12
20
-121.656
11
198.384
21
-121.703
0
LINE
8
BLACK
6
CONTINUOUS
10
208.544
20
-121.703
11
208.776
21
-121.837
0
LINE
8
BLACK
6
CONTINUOUS
10
208.776
20
-121.837
11
208.948
21
-122.042
0
LINE
8
BLACK
6
CONTINUOUS
10
208.948
20
-122.042
11
209.04
21
-122.294
0
LINE
8
BLACK
6
CONTINUOUS
10
209.04
20
-122.294
11
209.04
21
-122.562
0
LINE
8
BLACK
6
CONTINUOUS
10
209.04
20
-122.562
11
208.948
21
-122.814
0
LINE
8
BLACK
6
CONTINUOUS
10
208.948
20
-122.814
11
208.776
21
-123.019
0
LINE
8
BLACK
6
CONTINUOUS
10
208.776
20
-123.019
11
208.544
21
-123.153
0
LINE
8
BLACK
6
CONTINUOUS
10
208.544
20
-123.153
11
208.28
21
-123.2
0
LINE
8
BLACK
6
CONTINUOUS
10
208.28
20
-123.2
11
208.016
21
-123.153
0
LINE
8
BLACK
6
CONTINUOUS
10
208.016
20
-123.153
11
207.784
21
-123.019
0
LINE
8
BLACK
6
CONTINUOUS
10
207.784
20
-123.019
11
207.612
21
-122.814
0
LINE
8
BLACK
6
CONTINUOUS
10
207.612
20
-122.814
11
207.52
21
-122.562
0
LINE
8
BLACK
6
CONTINUOUS
10
207.52
20
-122.562
11
207.52
21
-122.294
0
LINE
8
BLACK
6
CONTINUOUS
10
207.52
20
-122.294
11
207.612
21
-122.042
0
LINE
8
BLACK
6
CONTINUOUS
10
207.612
20
-122.042
11
207.784
21
-121.837
0
LINE
8
BLACK
6
CONTINUOUS
10
207.784
20
-121.837
11
208.016
21
-121.703
0
LINE
8
BLACK
6
CONTINUOUS
10
208.016
20
-121.703
11
208.28
21
-121.656
0
LINE
8
BLACK
6
CONTINUOUS
10
208.28
20
-121.656
11
208.544
21
-121.703
0
LINE
8
BLACK
6
CONTINUOUS
10
122.184
20
-121.703
11
122.416
21
-121.837
0
LINE
8
BLACK
6
CONTINUOUS
10
122.416
20
-121.837
11
122.588
21
-122.042
0
LINE
8
BLACK
6
CONTINUOUS
10
122.588
20
-122.042
11
122.68
21
-122.294
0
LINE
8
BLACK
6
CONTINUOUS
10
122.68
20
-122.294
11
122.68
21
-122.562
0
LINE
8
BLACK
6
CONTINUOUS
10
122.68
20
-122.562
11
122.588
21
-122.814
0
LINE
8
BLACK
6
CONTINUOUS
10
122.588
20
-122.814
11
122.416
21
-123.019
0
LINE
8
BLACK
6
CONTINUOUS
10
122.416
20
-123.019
11
122.184
21
-123.153
0
LINE
8
BLACK
6
CONTINUOUS
10
122.184
20
-123.153
11
121.92
21
-123.2
0
LINE
8
BLACK
6
CONTINUOUS
10
121.92
20
-123.2
11
121.656
21
-123.153
0
LINE
8
BLACK
6
CONTINUOUS
10
121.656
20
-123.153
11
121.424
21
-123.019
0
LINE
8
BLACK
6
CONTINUOUS
10
121.424
20
-123.019
11
121.252
21
-122.814
0
LINE
8
BLACK
6
CONTINUOUS
10
121.252
20
-122.814
11
121.16
21
-122.562
0
LINE
8
BLACK
6
CONTINUOUS
10
121.16
20
-122.562
11
121.16
21
-122.294
0
LINE
8
BLACK
6
CONTINUOUS
10
121.16
20
-122.294
11
121.252
21
-122.042
0
LINE
8
BLACK
6
CONTINUOUS
10
121.252
20
-122.042
11
121.424
21
-121.837
0
LINE
8
BLACK
6
CONTINUOUS
10
121.424
20
-121.837
11
121.656
21
-121.703
0
LINE
8
BLACK
6
CONTINUOUS
10
121.656
20
-121.703
11
121.92
21
-121.656
0
LINE
8
BLACK
6
CONTINUOUS
10
121.92
20
-121.656
11
122.184
21
-121.703
0
LINE
8
BLACK
6
CONTINUOUS
10
127.264
20
-121.703
11
127.496
21
-121.837
0
LINE
8
BLACK
6
CONTINUOUS
10
127.496
20
-121.837
11
127.668
21
-122.042
0
LINE
8
BLACK
6
CONTINUOUS
10
127.668
20
-122.042
11
127.76
21
-122.294
0
LINE
8
BLACK
6
CONTINUOUS
10
127.76
20
-122.294
11
127.76
21
-122.562
0
LINE
8
BLACK
6
CONTINUOUS
10
127.76
20
-122.562
11
127.668
21
-122.814
0
LINE
8
BLACK
6
CONTINUOUS
10
127.668
20
-122.814
11
127.496
21
-123.019
0
LINE
8
BLACK
6
CONTINUOUS
10
127.496
20
-123.019
11
127.264
21
-123.153
0
LINE
8
BLACK
6
CONTINUOUS
10
127.264
20
-123.153
11
127
21
-123.2
0
LINE
8
BLACK
6
CONTINUOUS
10
127
20
-123.2
11
126.736
21
-123.153
0
LINE
8
BLACK
6
CONTINUOUS
10
126.736
20
-123.153
11
126.504
21
-123.019
0
LINE
8
BLACK
6
CONTINUOUS
10
126.504
20
-123.019
11
126.332
21
-122.814
0
LINE
8
BLACK
6
CONTINUOUS
10
126.332
20
-122.814
11
126.24
21
-122.562
0
LINE
8
BLACK
6
CONTINUOUS
10
126.24
20
-122.562
11
126.24
21
-122.294
0
LINE
8
BLACK
6
CONTINUOUS
10
126.24
20
-122.294
11
126.332
21
-122.042
0
LINE
8
BLACK
6
CONTINUOUS
10
126.332
20
-122.042
11
126.504
21
-121.837
0
LINE
8
BLACK
6
CONTINUOUS
10
126.504
20
-121.837
11
126.736
21
-121.703
0
LINE
8
BLACK
6
CONTINUOUS
10
126.736
20
-121.703
11
127
21
-121.656
0
LINE
8
BLACK
6
CONTINUOUS
10
127
20
-121.656
11
127.264
21
-121.703
0
LINE
8
BLACK
6
CONTINUOUS
10
142.504
20
-121.703
11
142.736
21
-121.837
0
LINE
8
BLACK
6
CONTINUOUS
10
142.736
20
-121.837
11
142.908
21
-122.042
0
LINE
8
BLACK
6
CONTINUOUS
10
142.908
20
-122.042
11
143
21
-122.294
0
LINE
8
BLACK
6
CONTINUOUS
10
143
20
-122.294
11
143
21
-122.562
0
LINE
8
BLACK
6
CONTINUOUS
10
143
20
-122.562
11
142.908
21
-122.814
0
LINE
8
BLACK
6
CONTINUOUS
10
142.908
20
-122.814
11
142.736
21
-123.019
0
LINE
8
BLACK
6
CONTINUOUS
10
142.736
20
-123.019
11
142.504
21
-123.153
0
LINE
8
BLACK
6
CONTINUOUS
10
142.504
20
-123.153
11
142.24
21
-123.2
0
LINE
8
BLACK
6
CONTINUOUS
10
142.24
20
-123.2
11
141.976
21
-123.153
0
LINE
8
BLACK
6
CONTINUOUS
10
141.976
20
-123.153
11
141.744
21
-123.019
0
LINE
8
BLACK
6
CONTINUOUS
10
141.744
20
-123.019
11
141.572
21
-122.814
0
LINE
8
BLACK
6
CONTINUOUS
10
141.572
20
-122.814
11
141.48
21
-122.562
0
LINE
8
BLACK
6
CONTINUOUS
10
141.48
20
-122.562
11
141.48
21
-122.294
0
LINE
8
BLACK
6
CONTINUOUS
10
141.48
20
-122.294
11
141.572
21
-122.042
0
LINE
8
BLACK
6
CONTINUOUS
10
141.572
20
-122.042
11
141.744
21
-121.837
0
LINE
8
BLACK
6
CONTINUOUS
10
141.744
20
-121.837
11
141.976
21
-121.703
0
LINE
8
BLACK
6
CONTINUOUS
10
141.976
20
-121.703
11
142.24
21
-121.656
0
LINE
8
BLACK
6
CONTINUOUS
10
142.24
20
-121.656
11
142.504
21
-121.703
0
LINE
8
BLACK
6
CONTINUOUS
10
139.964
20
-121.703
11
140.196
21
-121.837
0
LINE
8
BLACK
6
CONTINUOUS
10
140.196
20
-121.837
11
140.368
21
-122.042
0
LINE
8
BLACK
6
CONTINUOUS
10
140.368
20
-122.042
11
140.46
21
-122.294
0
LINE
8
BLACK
6
CONTINUOUS
10
140.46
20
-122.294
11
140.46
21
-122.562
0
LINE
8
BLACK
6
CONTINUOUS
10
140.46
20
-122.562
11
140.368
21
-122.814
0
LINE
8
BLACK
6
CONTINUOUS
10
140.368
20
-122.814
11
140.196
21
-123.019
0
LINE
8
BLACK
6
CONTINUOUS
10
140.196
20
-123.019
11
139.964
21
-123.153
0
LINE
8
BLACK
6
CONTINUOUS
10
139.964
20
-123.153
11
139.7
21
-123.2
0
LINE
8
BLACK
6
CONTINUOUS
10
139.7
20
-123.2
11
139.436
21
-123.153
0
LINE
8
BLACK
6
CONTINUOUS
10
139.436
20
-123.153
11
139.204
21
-123.019
0
LINE
8
BLACK
6
CONTINUOUS
10
139.204
20
-123.019
11
139.032
21
-122.814
0
LINE
8
BLACK
6
CONTINUOUS
10
139.032
20
-122.814
11
138.94
21
-122.562
0
LINE
8
BLACK
6
CONTINUOUS
10
138.94
20
-122.562
11
138.94
21
-122.294
0
LINE
8
BLACK
6
CONTINUOUS
10
138.94
20
-122.294
11
139.032
21
-122.042
0
LINE
8
BLACK
6
CONTINUOUS
10
139.032
20
-122.042
11
139.204
21
-121.837
0
LINE
8
BLACK
6
CONTINUOUS
10
139.204
20
-121.837
11
139.436
21
-121.703
0
LINE
8
BLACK
6
CONTINUOUS
10
139.436
20
-121.703
11
139.7
21
-121.656
0
LINE
8
BLACK
6
CONTINUOUS
10
139.7
20
-121.656
11
139.964
21
-121.703
0
LINE
8
BLACK
6
CONTINUOUS
10
137.424
20
-121.703
11
137.656
21
-121.837
0
LINE
8
BLACK
6
CONTINUOUS
10
137.656
20
-121.837
11
137.828
21
-122.042
0
LINE
8
BLACK
6
CONTINUOUS
10
137.828
20
-122.042
11
137.92
21
-122.294
0
LINE
8
BLACK
6
CONTINUOUS
10
137.92
20
-122.294
11
137.92
21
-122.562
0
LINE
8
BLACK
6
CONTINUOUS
10
137.92
20
-122.562
11
137.828
21
-122.814
0
LINE
8
BLACK
6
CONTINUOUS
10
137.828
20
-122.814
11
137.656
21
-123.019
0
LINE
8
BLACK
6
CONTINUOUS
10
137.656
20
-123.019
11
137.424
21
-123.153
0
LINE
8
BLACK
6
CONTINUOUS
10
137.424
20
-123.153
11
137.16
21
-123.2
0
LINE
8
BLACK
6
CONTINUOUS
10
137.16
20
-123.2
11
136.896
21
-123.153
0
LINE
8
BLACK
6
CONTINUOUS
10
136.896
20
-123.153
11
136.664
21
-123.019
0
LINE
8
BLACK
6
CONTINUOUS
10
136.664
20
-123.019
11
136.492
21
-122.814
0
LINE
8
BLACK
6
CONTINUOUS
10
136.492
20
-122.814
11
136.4
21
-122.562
0
LINE
8
BLACK
6
CONTINUOUS
10
136.4
20
-122.562
11
136.4
21
-122.294
0
LINE
8
BLACK
6
CONTINUOUS
10
136.4
20
-122.294
11
136.492
21
-122.042
0
LINE
8
BLACK
6
CONTINUOUS
10
136.492
20
-122.042
11
136.664
21
-121.837
0
LINE
8
BLACK
6
CONTINUOUS
10
136.664
20
-121.837
11
136.896
21
-121.703
0
LINE
8
BLACK
6
CONTINUOUS
10
136.896
20
-121.703
11
137.16
21
-121.656
0
LINE
8
BLACK
6
CONTINUOUS
10
137.16
20
-121.656
11
137.424
21
-121.703
0
LINE
8
BLACK
6
CONTINUOUS
10
134.884
20
-121.703
11
135.116
21
-121.837
0
LINE
8
BLACK
6
CONTINUOUS
10
135.116
20
-121.837
11
135.288
21
-122.042
0
LINE
8
BLACK
6
CONTINUOUS
10
135.288
20
-122.042
11
135.38
21
-122.294
0
LINE
8
BLACK
6
CONTINUOUS
10
135.38
20
-122.294
11
135.38
21
-122.562
0
LINE
8
BLACK
6
CONTINUOUS
10
135.38
20
-122.562
11
135.288
21
-122.814
0
LINE
8
BLACK
6
CONTINUOUS
10
135.288
20
-122.814
11
135.116
21
-123.019
0
LINE
8
BLACK
6
CONTINUOUS
10
135.116
20
-123.019
11
134.884
21
-123.153
0
LINE
8
BLACK
6
CONTINUOUS
10
134.884
20
-123.153
11
134.62
21
-123.2
0
LINE
8
BLACK
6
CONTINUOUS
10
134.62
20
-123.2
11
134.356
21
-123.153
0
LINE
8
BLACK
6
CONTINUOUS
10
134.356
20
-123.153
11
134.124
21
-123.019
0
LINE
8
BLACK
6
CONTINUOUS
10
134.124
20
-123.019
11
133.952
21
-122.814
0
LINE
8
BLACK
6
CONTINUOUS
10
133.952
20
-122.814
11
133.86
21
-122.562
0
LINE
8
BLACK
6
CONTINUOUS
10
133.86
20
-122.562
11
133.86
21
-122.294
0
LINE
8
BLACK
6
CONTINUOUS
10
133.86
20
-122.294
11
133.952
21
-122.042
0
LINE
8
BLACK
6
CONTINUOUS
10
133.952
20
-122.042
11
134.124
21
-121.837
0
LINE
8
BLACK
6
CONTINUOUS
10
134.124
20
-121.837
11
134.356
21
-121.703
0
LINE
8
BLACK
6
CONTINUOUS
10
134.356
20
-121.703
11
134.62
21
-121.656
0
LINE
8
BLACK
6
CONTINUOUS
10
134.62
20
-121.656
11
134.884
21
-121.703
0
LINE
8
BLACK
6
CONTINUOUS
10
132.344
20
-121.703
11
132.576
21
-121.837
0
LINE
8
BLACK
6
CONTINUOUS
10
132.576
20
-121.837
11
132.748
21
-122.042
0
LINE
8
BLACK
6
CONTINUOUS
10
132.748
20
-122.042
11
132.84
21
-122.294
0
LINE
8
BLACK
6
CONTINUOUS
10
132.84
20
-122.294
11
132.84
21
-122.562
0
LINE
8
BLACK
6
CONTINUOUS
10
132.84
20
-122.562
11
132.748
21
-122.814
0
LINE
8
BLACK
6
CONTINUOUS
10
132.748
20
-122.814
11
132.576
21
-123.019
0
LINE
8
BLACK
6
CONTINUOUS
10
132.576
20
-123.019
11
132.344
21
-123.153
0
LINE
8
BLACK
6
CONTINUOUS
10
132.344
20
-123.153
11
132.08
21
-123.2
0
LINE
8
BLACK
6
CONTINUOUS
10
132.08
20
-123.2
11
131.816
21
-123.153
0
LINE
8
BLACK
6
CONTINUOUS
10
131.816
20
-123.153
11
131.584
21
-123.019
0
LINE
8
BLACK
6
CONTINUOUS
10
131.584
20
-123.019
11
131.412
21
-122.814
0
LINE
8
BLACK
6
CONTINUOUS
10
131.412
20
-122.814
11
131.32
21
-122.562
0
LINE
8
BLACK
6
CONTINUOUS
10
131.32
20
-122.562
11
131.32
21
-122.294
0
LINE
8
BLACK
6
CONTINUOUS
10
131.32
20
-122.294
11
131.412
21
-122.042
0
LINE
8
BLACK
6
CONTINUOUS
10
131.412
20
-122.042
11
131.584
21
-121.837
0
LINE
8
BLACK
6
CONTINUOUS
10
131.584
20
-121.837
11
131.816
21
-121.703
0
LINE
8
BLACK
6
CONTINUOUS
10
131.816
20
-121.703
11
132.08
21
-121.656
0
LINE
8
BLACK
6
CONTINUOUS
10
132.08
20
-121.656
11
132.344
21
-121.703
0
LINE
8
BLACK
6
CONTINUOUS
10
124.724
20
-121.703
11
124.956
21
-121.837
0
LINE
8
BLACK
6
CONTINUOUS
10
124.956
20
-121.837
11
125.128
21
-122.042
0
LINE
8
BLACK
6
CONTINUOUS
10
125.128
20
-122.042
11
125.22
21
-122.294
0
LINE
8
BLACK
6
CONTINUOUS
10
125.22
20
-122.294
11
125.22
21
-122.562
0
LINE
8
BLACK
6
CONTINUOUS
10
125.22
20
-122.562
11
125.128
21
-122.814
0
LINE
8
BLACK
6
CONTINUOUS
10
125.128
20
-122.814
11
124.956
21
-123.019
0
LINE
8
BLACK
6
CONTINUOUS
10
124.956
20
-123.019
11
124.724
21
-123.153
0
LINE
8
BLACK
6
CONTINUOUS
10
124.724
20
-123.153
11
124.46
21
-123.2
0
LINE
8
BLACK
6
CONTINUOUS
10
124.46
20
-123.2
11
124.196
21
-123.153
0
LINE
8
BLACK
6
CONTINUOUS
10
124.196
20
-123.153
11
123.964
21
-123.019
0
LINE
8
BLACK
6
CONTINUOUS
10
123.964
20
-123.019
11
123.792
21
-122.814
0
LINE
8
BLACK
6
CONTINUOUS
10
123.792
20
-122.814
11
123.7
21
-122.562
0
LINE
8
BLACK
6
CONTINUOUS
10
123.7
20
-122.562
11
123.7
21
-122.294
0
LINE
8
BLACK
6
CONTINUOUS
10
123.7
20
-122.294
11
123.792
21
-122.042
0
LINE
8
BLACK
6
CONTINUOUS
10
123.792
20
-122.042
11
123.964
21
-121.837
0
LINE
8
BLACK
6
CONTINUOUS
10
123.964
20
-121.837
11
124.196
21
-121.703
0
LINE
8
BLACK
6
CONTINUOUS
10
124.196
20
-121.703
11
124.46
21
-121.656
0
LINE
8
BLACK
6
CONTINUOUS
10
124.46
20
-121.656
11
124.724
21
-121.703
0
LINE
8
BLACK
6
CONTINUOUS
10
129.804
20
-121.703
11
130.036
21
-121.837
0
LINE
8
BLACK
6
CONTINUOUS
10
130.036
20
-121.837
11
130.208
21
-122.042
0
LINE
8
BLACK
6
CONTINUOUS
10
130.208
20
-122.042
11
130.3
21
-122.294
0
LINE
8
BLACK
6
CONTINUOUS
10
130.3
20
-122.294
11
130.3
21
-122.562
0
LINE
8
BLACK
6
CONTINUOUS
10
130.3
20
-122.562
11
130.208
21
-122.814
0
LINE
8
BLACK
6
CONTINUOUS
10
130.208
20
-122.814
11
130.036
21
-123.019
0
LINE
8
BLACK
6
CONTINUOUS
10
130.036
20
-123.019
11
129.804
21
-123.153
0
LINE
8
BLACK
6
CONTINUOUS
10
129.804
20
-123.153
11
129.54
21
-123.2
0
LINE
8
BLACK
6
CONTINUOUS
10
129.54
20
-123.2
11
129.276
21
-123.153
0
LINE
8
BLACK
6
CONTINUOUS
10
129.276
20
-123.153
11
129.044
21
-123.019
0
LINE
8
BLACK
6
CONTINUOUS
10
129.044
20
-123.019
11
128.872
21
-122.814
0
LINE
8
BLACK
6
CONTINUOUS
10
128.872
20
-122.814
11
128.78
21
-122.562
0
LINE
8
BLACK
6
CONTINUOUS
10
128.78
20
-122.562
11
128.78
21
-122.294
0
LINE
8
BLACK
6
CONTINUOUS
10
128.78
20
-122.294
11
128.872
21
-122.042
0
LINE
8
BLACK
6
CONTINUOUS
10
128.872
20
-122.042
11
129.044
21
-121.837
0
LINE
8
BLACK
6
CONTINUOUS
10
129.044
20
-121.837
11
129.276
21
-121.703
0
LINE
8
BLACK
6
CONTINUOUS
10
129.276
20
-121.703
11
129.54
21
-121.656
0
LINE
8
BLACK
6
CONTINUOUS
10
129.54
20
-121.656
11
129.804
21
-121.703
0
LINE
8
BLACK
6
CONTINUOUS
10
145.044
20
-121.703
11
145.276
21
-121.837
0
LINE
8
BLACK
6
CONTINUOUS
10
145.276
20
-121.837
11
145.448
21
-122.042
0
LINE
8
BLACK
6
CONTINUOUS
10
145.448
20
-122.042
11
145.54
21
-122.294
0
LINE
8
BLACK
6
CONTINUOUS
10
145.54
20
-122.294
11
145.54
21
-122.562
0
LINE
8
BLACK
6
CONTINUOUS
10
145.54
20
-122.562
11
145.448
21
-122.814
0
LINE
8
BLACK
6
CONTINUOUS
10
145.448
20
-122.814
11
145.276
21
-123.019
0
LINE
8
BLACK
6
CONTINUOUS
10
145.276
20
-123.019
11
145.044
21
-123.153
0
LINE
8
BLACK
6
CONTINUOUS
10
145.044
20
-123.153
11
144.78
21
-123.2
0
LINE
8
BLACK
6
CONTINUOUS
10
144.78
20
-123.2
11
144.516
21
-123.153
0
LINE
8
BLACK
6
CONTINUOUS
10
144.516
20
-123.153
11
144.284
21
-123.019
0
LINE
8
BLACK
6
CONTINUOUS
10
144.284
20
-123.019
11
144.112
21
-122.814
0
LINE
8
BLACK
6
CONTINUOUS
10
144.112
20
-122.814
11
144.02
21
-122.562
0
LINE
8
BLACK
6
CONTINUOUS
10
144.02
20
-122.562
11
144.02
21
-122.294
0
LINE
8
BLACK
6
CONTINUOUS
10
144.02
20
-122.294
11
144.112
21
-122.042
0
LINE
8
BLACK
6
CONTINUOUS
10
144.112
20
-122.042
11
144.284
21
-121.837
0
LINE
8
BLACK
6
CONTINUOUS
10
144.284
20
-121.837
11
144.516
21
-121.703
0
LINE
8
BLACK
6
CONTINUOUS
10
144.516
20
-121.703
11
144.78
21
-121.656
0
LINE
8
BLACK
6
CONTINUOUS
10
144.78
20
-121.656
11
145.044
21
-121.703
0
LINE
8
BLACK
6
CONTINUOUS
10
188.224
20
-119.163
11
188.456
21
-119.297
0
LINE
8
BLACK
6
CONTINUOUS
10
188.456
20
-119.297
11
188.628
21
-119.502
0
LINE
8
BLACK
6
CONTINUOUS
10
188.628
20
-119.502
11
188.72
21
-119.754
0
LINE
8
BLACK
6
CONTINUOUS
10
188.72
20
-119.754
11
188.72
21
-120.022
0
LINE
8
BLACK
6
CONTINUOUS
10
188.72
20
-120.022
11
188.628
21
-120.274
0
LINE
8
BLACK
6
CONTINUOUS
10
188.628
20
-120.274
11
188.456
21
-120.479
0
LINE
8
BLACK
6
CONTINUOUS
10
188.456
20
-120.479
11
188.224
21
-120.613
0
LINE
8
BLACK
6
CONTINUOUS
10
188.224
20
-120.613
11
187.96
21
-120.66
0
LINE
8
BLACK
6
CONTINUOUS
10
187.96
20
-120.66
11
187.696
21
-120.613
0
LINE
8
BLACK
6
CONTINUOUS
10
187.696
20
-120.613
11
187.464
21
-120.479
0
LINE
8
BLACK
6
CONTINUOUS
10
187.464
20
-120.479
11
187.292
21
-120.274
0
LINE
8
BLACK
6
CONTINUOUS
10
187.292
20
-120.274
11
187.2
21
-120.022
0
LINE
8
BLACK
6
CONTINUOUS
10
187.2
20
-120.022
11
187.2
21
-119.754
0
LINE
8
BLACK
6
CONTINUOUS
10
187.2
20
-119.754
11
187.292
21
-119.502
0
LINE
8
BLACK
6
CONTINUOUS
10
187.292
20
-119.502
11
187.464
21
-119.297
0
LINE
8
BLACK
6
CONTINUOUS
10
187.464
20
-119.297
11
187.696
21
-119.163
0
LINE
8
BLACK
6
CONTINUOUS
10
187.696
20
-119.163
11
187.96
21
-119.116
0
LINE
8
BLACK
6
CONTINUOUS
10
187.96
20
-119.116
11
188.224
21
-119.163
0
LINE
8
BLACK
6
CONTINUOUS
10
190.764
20
-119.163
11
190.996
21
-119.297
0
LINE
8
BLACK
6
CONTINUOUS
10
190.996
20
-119.297
11
191.168
21
-119.502
0
LINE
8
BLACK
6
CONTINUOUS
10
191.168
20
-119.502
11
191.26
21
-119.754
0
LINE
8
BLACK
6
CONTINUOUS
10
191.26
20
-119.754
11
191.26
21
-120.022
0
LINE
8
BLACK
6
CONTINUOUS
10
191.26
20
-120.022
11
191.168
21
-120.274
0
LINE
8
BLACK
6
CONTINUOUS
10
191.168
20
-120.274
11
190.996
21
-120.479
0
LINE
8
BLACK
6
CONTINUOUS
10
190.996
20
-120.479
11
190.764
21
-120.613
0
LINE
8
BLACK
6
CONTINUOUS
10
190.764
20
-120.613
11
190.5
21
-120.66
0
LINE
8
BLACK
6
CONTINUOUS
10
190.5
20
-120.66
11
190.236
21
-120.613
0
LINE
8
BLACK
6
CONTINUOUS
10
190.236
20
-120.613
11
190.004
21
-120.479
0
LINE
8
BLACK
6
CONTINUOUS
10
190.004
20
-120.479
11
189.832
21
-120.274
0
LINE
8
BLACK
6
CONTINUOUS
10
189.832
20
-120.274
11
189.74
21
-120.022
0
LINE
8
BLACK
6
CONTINUOUS
10
189.74
20
-120.022
11
189.74
21
-119.754
0
LINE
8
BLACK
6
CONTINUOUS
10
189.74
20
-119.754
11
189.832
21
-119.502
0
LINE
8
BLACK
6
CONTINUOUS
10
189.832
20
-119.502
11
190.004
21
-119.297
0
LINE
8
BLACK
6
CONTINUOUS
10
190.004
20
-119.297
11
190.236
21
-119.163
0
LINE
8
BLACK
6
CONTINUOUS
10
190.236
20
-119.163
11
190.5
21
-119.116
0
LINE
8
BLACK
6
CONTINUOUS
10
190.5
20
-119.116
11
190.764
21
-119.163
0
LINE
8
BLACK
6
CONTINUOUS
10
193.304
20
-119.163
11
193.536
21
-119.297
0
LINE
8
BLACK
6
CONTINUOUS
10
193.536
20
-119.297
11
193.708
21
-119.502
0
LINE
8
BLACK
6
CONTINUOUS
10
193.708
20
-119.502
11
193.8
21
-119.754
0
LINE
8
BLACK
6
CONTINUOUS
10
193.8
20
-119.754
11
193.8
21
-120.022
0
LINE
8
BLACK
6
CONTINUOUS
10
193.8
20
-120.022
11
193.708
21
-120.274
0
LINE
8
BLACK
6
CONTINUOUS
10
193.708
20
-120.274
11
193.536
21
-120.479
0
LINE
8
BLACK
6
CONTINUOUS
10
193.536
20
-120.479
11
193.304
21
-120.613
0
LINE
8
BLACK
6
CONTINUOUS
10
193.304
20
-120.613
11
193.04
21
-120.66
0
LINE
8
BLACK
6
CONTINUOUS
10
193.04
20
-120.66
11
192.776
21
-120.613
0
LINE
8
BLACK
6
CONTINUOUS
10
192.776
20
-120.613
11
192.544
21
-120.479
0
LINE
8
BLACK
6
CONTINUOUS
10
192.544
20
-120.479
11
192.372
21
-120.274
0
LINE
8
BLACK
6
CONTINUOUS
10
192.372
20
-120.274
11
192.28
21
-120.022
0
LINE
8
BLACK
6
CONTINUOUS
10
192.28
20
-120.022
11
192.28
21
-119.754
0
LINE
8
BLACK
6
CONTINUOUS
10
192.28
20
-119.754
11
192.372
21
-119.502
0
LINE
8
BLACK
6
CONTINUOUS
10
192.372
20
-119.502
11
192.544
21
-119.297
0
LINE
8
BLACK
6
CONTINUOUS
10
192.544
20
-119.297
11
192.776
21
-119.163
0
LINE
8
BLACK
6
CONTINUOUS
10
192.776
20
-119.163
11
193.04
21
-119.116
0
LINE
8
BLACK
6
CONTINUOUS
10
193.04
20
-119.116
11
193.304
21
-119.163
0
LINE
8
BLACK
6
CONTINUOUS
10
203.464
20
-119.163
11
203.696
21
-119.297
0
LINE
8
BLACK
6
CONTINUOUS
10
203.696
20
-119.297
11
203.868
21
-119.502
0
LINE
8
BLACK
6
CONTINUOUS
10
203.868
20
-119.502
11
203.96
21
-119.754
0
LINE
8
BLACK
6
CONTINUOUS
10
203.96
20
-119.754
11
203.96
21
-120.022
0
LINE
8
BLACK
6
CONTINUOUS
10
203.96
20
-120.022
11
203.868
21
-120.274
0
LINE
8
BLACK
6
CONTINUOUS
10
203.868
20
-120.274
11
203.696
21
-120.479
0
LINE
8
BLACK
6
CONTINUOUS
10
203.696
20
-120.479
11
203.464
21
-120.613
0
LINE
8
BLACK
6
CONTINUOUS
10
203.464
20
-120.613
11
203.2
21
-120.66
0
LINE
8
BLACK
6
CONTINUOUS
10
203.2
20
-120.66
11
202.936
21
-120.613
0
LINE
8
BLACK
6
CONTINUOUS
10
202.936
20
-120.613
11
202.704
21
-120.479
0
LINE
8
BLACK
6
CONTINUOUS
10
202.704
20
-120.479
11
202.532
21
-120.274
0
LINE
8
BLACK
6
CONTINUOUS
10
202.532
20
-120.274
11
202.44
21
-120.022
0
LINE
8
BLACK
6
CONTINUOUS
10
202.44
20
-120.022
11
202.44
21
-119.754
0
LINE
8
BLACK
6
CONTINUOUS
10
202.44
20
-119.754
11
202.532
21
-119.502
0
LINE
8
BLACK
6
CONTINUOUS
10
202.532
20
-119.502
11
202.704
21
-119.297
0
LINE
8
BLACK
6
CONTINUOUS
10
202.704
20
-119.297
11
202.936
21
-119.163
0
LINE
8
BLACK
6
CONTINUOUS
10
202.936
20
-119.163
11
203.2
21
-119.116
0
LINE
8
BLACK
6
CONTINUOUS
10
203.2
20
-119.116
11
203.464
21
-119.163
0
LINE
8
BLACK
6
CONTINUOUS
10
185.684
20
-119.163
11
185.916
21
-119.297
0
LINE
8
BLACK
6
CONTINUOUS
10
185.916
20
-119.297
11
186.088
21
-119.502
0
LINE
8
BLACK
6
CONTINUOUS
10
186.088
20
-119.502
11
186.18
21
-119.754
0
LINE
8
BLACK
6
CONTINUOUS
10
186.18
20
-119.754
11
186.18
21
-120.022
0
LINE
8
BLACK
6
CONTINUOUS
10
186.18
20
-120.022
11
186.088
21
-120.274
0
LINE
8
BLACK
6
CONTINUOUS
10
186.088
20
-120.274
11
185.916
21
-120.479
0
LINE
8
BLACK
6
CONTINUOUS
10
185.916
20
-120.479
11
185.684
21
-120.613
0
LINE
8
BLACK
6
CONTINUOUS
10
185.684
20
-120.613
11
185.42
21
-120.66
0
LINE
8
BLACK
6
CONTINUOUS
10
185.42
20
-120.66
11
185.156
21
-120.613
0
LINE
8
BLACK
6
CONTINUOUS
10
185.156
20
-120.613
11
184.924
21
-120.479
0
LINE
8
BLACK
6
CONTINUOUS
10
184.924
20
-120.479
11
184.752
21
-120.274
0
LINE
8
BLACK
6
CONTINUOUS
10
184.752
20
-120.274
11
184.66
21
-120.022
0
LINE
8
BLACK
6
CONTINUOUS
10
184.66
20
-120.022
11
184.66
21
-119.754
0
LINE
8
BLACK
6
CONTINUOUS
10
184.66
20
-119.754
11
184.752
21
-119.502
0
LINE
8
BLACK
6
CONTINUOUS
10
184.752
20
-119.502
11
184.924
21
-119.297
0
LINE
8
BLACK
6
CONTINUOUS
10
184.924
20
-119.297
11
185.156
21
-119.163
0
LINE
8
BLACK
6
CONTINUOUS
10
185.156
20
-119.163
11
185.42
21
-119.116
0
LINE
8
BLACK
6
CONTINUOUS
10
185.42
20
-119.116
11
185.684
21
-119.163
0
LINE
8
BLACK
6
CONTINUOUS
10
198.384
20
-119.163
11
198.616
21
-119.297
0
LINE
8
BLACK
6
CONTINUOUS
10
198.616
20
-119.297
11
198.788
21
-119.502
0
LINE
8
BLACK
6
CONTINUOUS
10
198.788
20
-119.502
11
198.88
21
-119.754
0
LINE
8
BLACK
6
CONTINUOUS
10
198.88
20
-119.754
11
198.88
21
-120.022
0
LINE
8
BLACK
6
CONTINUOUS
10
198.88
20
-120.022
11
198.788
21
-120.274
0
LINE
8
BLACK
6
CONTINUOUS
10
198.788
20
-120.274
11
198.616
21
-120.479
0
LINE
8
BLACK
6
CONTINUOUS
10
198.616
20
-120.479
11
198.384
21
-120.613
0
LINE
8
BLACK
6
CONTINUOUS
10
198.384
20
-120.613
11
198.12
21
-120.66
0
LINE
8
BLACK
6
CONTINUOUS
10
198.12
20
-120.66
11
197.856
21
-120.613
0
LINE
8
BLACK
6
CONTINUOUS
10
197.856
20
-120.613
11
197.624
21
-120.479
0
LINE
8
BLACK
6
CONTINUOUS
10
197.624
20
-120.479
11
197.452
21
-120.274
0
LINE
8
BLACK
6
CONTINUOUS
10
197.452
20
-120.274
11
197.36
21
-120.022
0
LINE
8
BLACK
6
CONTINUOUS
10
197.36
20
-120.022
11
197.36
21
-119.754
0
LINE
8
BLACK
6
CONTINUOUS
10
197.36
20
-119.754
11
197.452
21
-119.502
0
LINE
8
BLACK
6
CONTINUOUS
10
197.452
20
-119.502
11
197.624
21
-119.297
0
LINE
8
BLACK
6
CONTINUOUS
10
197.624
20
-119.297
11
197.856
21
-119.163
0
LINE
8
BLACK
6
CONTINUOUS
10
197.856
20
-119.163
11
198.12
21
-119.116
0
LINE
8
BLACK
6
CONTINUOUS
10
198.12
20
-119.116
11
198.384
21
-119.163
0
LINE
8
BLACK
6
CONTINUOUS
10
200.924
20
-119.163
11
201.156
21
-119.297
0
LINE
8
BLACK
6
CONTINUOUS
10
201.156
20
-119.297
11
201.328
21
-119.502
0
LINE
8
BLACK
6
CONTINUOUS
10
201.328
20
-119.502
11
201.42
21
-119.754
0
LINE
8
BLACK
6
CONTINUOUS
10
201.42
20
-119.754
11
201.42
21
-120.022
0
LINE
8
BLACK
6
CONTINUOUS
10
201.42
20
-120.022
11
201.328
21
-120.274
0
LINE
8
BLACK
6
CONTINUOUS
10
201.328
20
-120.274
11
201.156
21
-120.479
0
LINE
8
BLACK
6
CONTINUOUS
10
201.156
20
-120.479
11
200.924
21
-120.613
0
LINE
8
BLACK
6
CONTINUOUS
10
200.924
20
-120.613
11
200.66
21
-120.66
0
LINE
8
BLACK
6
CONTINUOUS
10
200.66
20
-120.66
11
200.396
21
-120.613
0
LINE
8
BLACK
6
CONTINUOUS
10
200.396
20
-120.613
11
200.164
21
-120.479
0
LINE
8
BLACK
6
CONTINUOUS
10
200.164
20
-120.479
11
199.992
21
-120.274
0
LINE
8
BLACK
6
CONTINUOUS
10
199.992
20
-120.274
11
199.9
21
-120.022
0
LINE
8
BLACK
6
CONTINUOUS
10
199.9
20
-120.022
11
199.9
21
-119.754
0
LINE
8
BLACK
6
CONTINUOUS
10
199.9
20
-119.754
11
199.992
21
-119.502
0
LINE
8
BLACK
6
CONTINUOUS
10
199.992
20
-119.502
11
200.164
21
-119.297
0
LINE
8
BLACK
6
CONTINUOUS
10
200.164
20
-119.297
11
200.396
21
-119.163
0
LINE
8
BLACK
6
CONTINUOUS
10
200.396
20
-119.163
11
200.66
21
-119.116
0
LINE
8
BLACK
6
CONTINUOUS
10
200.66
20
-119.116
11
200.924
21
-119.163
0
LINE
8
BLACK
6
CONTINUOUS
10
206.004
20
-119.163
11
206.236
21
-119.297
0
LINE
8
BLACK
6
CONTINUOUS
10
206.236
20
-119.297
11
206.408
21
-119.502
0
LINE
8
BLACK
6
CONTINUOUS
10
206.408
20
-119.502
11
206.5
21
-119.754
0
LINE
8
BLACK
6
CONTINUOUS
10
206.5
20
-119.754
11
206.5
21
-120.022
0
LINE
8
BLACK
6
CONTINUOUS
10
206.5
20
-120.022
11
206.408
21
-120.274
0
LINE
8
BLACK
6
CONTINUOUS
10
206.408
20
-120.274
11
206.236
21
-120.479
0
LINE
8
BLACK
6
CONTINUOUS
10
206.236
20
-120.479
11
206.004
21
-120.613
0
LINE
8
BLACK
6
CONTINUOUS
10
206.004
20
-120.613
11
205.74
21
-120.66
0
LINE
8
BLACK
6
CONTINUOUS
10
205.74
20
-120.66
11
205.476
21
-120.613
0
LINE
8
BLACK
6
CONTINUOUS
10
205.476
20
-120.613
11
205.244
21
-120.479
0
LINE
8
BLACK
6
CONTINUOUS
10
205.244
20
-120.479
11
205.072
21
-120.274
0
LINE
8
BLACK
6
CONTINUOUS
10
205.072
20
-120.274
11
204.98
21
-120.022
0
LINE
8
BLACK
6
CONTINUOUS
10
204.98
20
-120.022
11
204.98
21
-119.754
0
LINE
8
BLACK
6
CONTINUOUS
10
204.98
20
-119.754
11
205.072
21
-119.502
0
LINE
8
BLACK
6
CONTINUOUS
10
205.072
20
-119.502
11
205.244
21
-119.297
0
LINE
8
BLACK
6
CONTINUOUS
10
205.244
20
-119.297
11
205.476
21
-119.163
0
LINE
8
BLACK
6
CONTINUOUS
10
205.476
20
-119.163
11
205.74
21
-119.116
0
LINE
8
BLACK
6
CONTINUOUS
10
205.74
20
-119.116
11
206.004
21
-119.163
0
LINE
8
BLACK
6
CONTINUOUS
10
195.844
20
-119.163
11
196.076
21
-119.297
0
LINE
8
BLACK
6
CONTINUOUS
10
196.076
20
-119.297
11
196.248
21
-119.502
0
LINE
8
BLACK
6
CONTINUOUS
10
196.248
20
-119.502
11
196.34
21
-119.754
0
LINE
8
BLACK
6
CONTINUOUS
10
196.34
20
-119.754
11
196.34
21
-120.022
0
LINE
8
BLACK
6
CONTINUOUS
10
196.34
20
-120.022
11
196.248
21
-120.274
0
LINE
8
BLACK
6
CONTINUOUS
10
196.248
20
-120.274
11
196.076
21
-120.479
0
LINE
8
BLACK
6
CONTINUOUS
10
196.076
20
-120.479
11
195.844
21
-120.613
0
LINE
8
BLACK
6
CONTINUOUS
10
195.844
20
-120.613
11
195.58
21
-120.66
0
LINE
8
BLACK
6
CONTINUOUS
10
195.58
20
-120.66
11
195.316
21
-120.613
0
LINE
8
BLACK
6
CONTINUOUS
10
195.316
20
-120.613
11
195.084
21
-120.479
0
LINE
8
BLACK
6
CONTINUOUS
10
195.084
20
-120.479
11
194.912
21
-120.274
0
LINE
8
BLACK
6
CONTINUOUS
10
194.912
20
-120.274
11
194.82
21
-120.022
0
LINE
8
BLACK
6
CONTINUOUS
10
194.82
20
-120.022
11
194.82
21
-119.754
0
LINE
8
BLACK
6
CONTINUOUS
10
194.82
20
-119.754
11
194.912
21
-119.502
0
LINE
8
BLACK
6
CONTINUOUS
10
194.912
20
-119.502
11
195.084
21
-119.297
0
LINE
8
BLACK
6
CONTINUOUS
10
195.084
20
-119.297
11
195.316
21
-119.163
0
LINE
8
BLACK
6
CONTINUOUS
10
195.316
20
-119.163
11
195.58
21
-119.116
0
LINE
8
BLACK
6
CONTINUOUS
10
195.58
20
-119.116
11
195.844
21
-119.163
0
LINE
8
BLACK
6
CONTINUOUS
10
208.544
20
-119.163
11
208.776
21
-119.297
0
LINE
8
BLACK
6
CONTINUOUS
10
208.776
20
-119.297
11
208.948
21
-119.502
0
LINE
8
BLACK
6
CONTINUOUS
10
208.948
20
-119.502
11
209.04
21
-119.754
0
LINE
8
BLACK
6
CONTINUOUS
10
209.04
20
-119.754
11
209.04
21
-120.022
0
LINE
8
BLACK
6
CONTINUOUS
10
209.04
20
-120.022
11
208.948
21
-120.274
0
LINE
8
BLACK
6
CONTINUOUS
10
208.948
20
-120.274
11
208.776
21
-120.479
0
LINE
8
BLACK
6
CONTINUOUS
10
208.776
20
-120.479
11
208.544
21
-120.613
0
LINE
8
BLACK
6
CONTINUOUS
10
208.544
20
-120.613
11
208.28
21
-120.66
0
LINE
8
BLACK
6
CONTINUOUS
10
208.28
20
-120.66
11
208.016
21
-120.613
0
LINE
8
BLACK
6
CONTINUOUS
10
208.016
20
-120.613
11
207.784
21
-120.479
0
LINE
8
BLACK
6
CONTINUOUS
10
207.784
20
-120.479
11
207.612
21
-120.274
0
LINE
8
BLACK
6
CONTINUOUS
10
207.612
20
-120.274
11
207.52
21
-120.022
0
LINE
8
BLACK
6
CONTINUOUS
10
207.52
20
-120.022
11
207.52
21
-119.754
0
LINE
8
BLACK
6
CONTINUOUS
10
207.52
20
-119.754
11
207.612
21
-119.502
0
LINE
8
BLACK
6
CONTINUOUS
10
207.612
20
-119.502
11
207.784
21
-119.297
0
LINE
8
BLACK
6
CONTINUOUS
10
207.784
20
-119.297
11
208.016
21
-119.163
0
LINE
8
BLACK
6
CONTINUOUS
10
208.016
20
-119.163
11
208.28
21
-119.116
0
LINE
8
BLACK
6
CONTINUOUS
10
208.28
20
-119.116
11
208.544
21
-119.163
0
LINE
8
BLACK
6
CONTINUOUS
10
122.184
20
-119.163
11
122.416
21
-119.297
0
LINE
8
BLACK
6
CONTINUOUS
10
122.416
20
-119.297
11
122.588
21
-119.502
0
LINE
8
BLACK
6
CONTINUOUS
10
122.588
20
-119.502
11
122.68
21
-119.754
0
LINE
8
BLACK
6
CONTINUOUS
10
122.68
20
-119.754
11
122.68
21
-120.022
0
LINE
8
BLACK
6
CONTINUOUS
10
122.68
20
-120.022
11
122.588
21
-120.274
0
LINE
8
BLACK
6
CONTINUOUS
10
122.588
20
-120.274
11
122.416
21
-120.479
0
LINE
8
BLACK
6
CONTINUOUS
10
122.416
20
-120.479
11
122.184
21
-120.613
0
LINE
8
BLACK
6
CONTINUOUS
10
122.184
20
-120.613
11
121.92
21
-120.66
0
LINE
8
BLACK
6
CONTINUOUS
10
121.92
20
-120.66
11
121.656
21
-120.613
0
LINE
8
BLACK
6
CONTINUOUS
10
121.656
20
-120.613
11
121.424
21
-120.479
0
LINE
8
BLACK
6
CONTINUOUS
10
121.424
20
-120.479
11
121.252
21
-120.274
0
LINE
8
BLACK
6
CONTINUOUS
10
121.252
20
-120.274
11
121.16
21
-120.022
0
LINE
8
BLACK
6
CONTINUOUS
10
121.16
20
-120.022
11
121.16
21
-119.754
0
LINE
8
BLACK
6
CONTINUOUS
10
121.16
20
-119.754
11
121.252
21
-119.502
0
LINE
8
BLACK
6
CONTINUOUS
10
121.252
20
-119.502
11
121.424
21
-119.297
0
LINE
8
BLACK
6
CONTINUOUS
10
121.424
20
-119.297
11
121.656
21
-119.163
0
LINE
8
BLACK
6
CONTINUOUS
10
121.656
20
-119.163
11
121.92
21
-119.116
0
LINE
8
BLACK
6
CONTINUOUS
10
121.92
20
-119.116
11
122.184
21
-119.163
0
LINE
8
BLACK
6
CONTINUOUS
10
124.724
20
-119.163
11
124.956
21
-119.297
0
LINE
8
BLACK
6
CONTINUOUS
10
124.956
20
-119.297
11
125.128
21
-119.502
0
LINE
8
BLACK
6
CONTINUOUS
10
125.128
20
-119.502
11
125.22
21
-119.754
0
LINE
8
BLACK
6
CONTINUOUS
10
125.22
20
-119.754
11
125.22
21
-120.022
0
LINE
8
BLACK
6
CONTINUOUS
10
125.22
20
-120.022
11
125.128
21
-120.274
0
LINE
8
BLACK
6
CONTINUOUS
10
125.128
20
-120.274
11
124.956
21
-120.479
0
LINE
8
BLACK
6
CONTINUOUS
10
124.956
20
-120.479
11
124.724
21
-120.613
0
LINE
8
BLACK
6
CONTINUOUS
10
124.724
20
-120.613
11
124.46
21
-120.66
0
LINE
8
BLACK
6
CONTINUOUS
10
124.46
20
-120.66
11
124.196
21
-120.613
0
LINE
8
BLACK
6
CONTINUOUS
10
124.196
20
-120.613
11
123.964
21
-120.479
0
LINE
8
BLACK
6
CONTINUOUS
10
123.964
20
-120.479
11
123.792
21
-120.274
0
LINE
8
BLACK
6
CONTINUOUS
10
123.792
20
-120.274
11
123.7
21
-120.022
0
LINE
8
BLACK
6
CONTINUOUS
10
123.7
20
-120.022
11
123.7
21
-119.754
0
LINE
8
BLACK
6
CONTINUOUS
10
123.7
20
-119.754
11
123.792
21
-119.502
0
LINE
8
BLACK
6
CONTINUOUS
10
123.792
20
-119.502
11
123.964
21
-119.297
0
LINE
8
BLACK
6
CONTINUOUS
10
123.964
20
-119.297
11
124.196
21
-119.163
0
LINE
8
BLACK
6
CONTINUOUS
10
124.196
20
-119.163
11
124.46
21
-119.116
0
LINE
8
BLACK
6
CONTINUOUS
10
124.46
20
-119.116
11
124.724
21
-119.163
0
LINE
8
BLACK
6
CONTINUOUS
10
127.264
20
-119.163
11
127.496
21
-119.297
0
LINE
8
BLACK
6
CONTINUOUS
10
127.496
20
-119.297
11
127.668
21
-119.502
0
LINE
8
BLACK
6
CONTINUOUS
10
127.668
20
-119.502
11
127.76
21
-119.754
0
LINE
8
BLACK
6
CONTINUOUS
10
127.76
20
-119.754
11
127.76
21
-120.022
0
LINE
8
BLACK
6
CONTINUOUS
10
127.76
20
-120.022
11
127.668
21
-120.274
0
LINE
8
BLACK
6
CONTINUOUS
10
127.668
20
-120.274
11
127.496
21
-120.479
0
LINE
8
BLACK
6
CONTINUOUS
10
127.496
20
-120.479
11
127.264
21
-120.613
0
LINE
8
BLACK
6
CONTINUOUS
10
127.264
20
-120.613
11
127
21
-120.66
0
LINE
8
BLACK
6
CONTINUOUS
10
127
20
-120.66
11
126.736
21
-120.613
0
LINE
8
BLACK
6
CONTINUOUS
10
126.736
20
-120.613
11
126.504
21
-120.479
0
LINE
8
BLACK
6
CONTINUOUS
10
126.504
20
-120.479
11
126.332
21
-120.274
0
LINE
8
BLACK
6
CONTINUOUS
10
126.332
20
-120.274
11
126.24
21
-120.022
0
LINE
8
BLACK
6
CONTINUOUS
10
126.24
20
-120.022
11
126.24
21
-119.754
0
LINE
8
BLACK
6
CONTINUOUS
10
126.24
20
-119.754
11
126.332
21
-119.502
0
LINE
8
BLACK
6
CONTINUOUS
10
126.332
20
-119.502
11
126.504
21
-119.297
0
LINE
8
BLACK
6
CONTINUOUS
10
126.504
20
-119.297
11
126.736
21
-119.163
0
LINE
8
BLACK
6
CONTINUOUS
10
126.736
20
-119.163
11
127
21
-119.116
0
LINE
8
BLACK
6
CONTINUOUS
10
127
20
-119.116
11
127.264
21
-119.163
0
LINE
8
BLACK
6
CONTINUOUS
10
129.804
20
-119.163
11
130.036
21
-119.297
0
LINE
8
BLACK
6
CONTINUOUS
10
130.036
20
-119.297
11
130.208
21
-119.502
0
LINE
8
BLACK
6
CONTINUOUS
10
130.208
20
-119.502
11
130.3
21
-119.754
0
LINE
8
BLACK
6
CONTINUOUS
10
130.3
20
-119.754
11
130.3
21
-120.022
0
LINE
8
BLACK
6
CONTINUOUS
10
130.3
20
-120.022
11
130.208
21
-120.274
0
LINE
8
BLACK
6
CONTINUOUS
10
130.208
20
-120.274
11
130.036
21
-120.479
0
LINE
8
BLACK
6
CONTINUOUS
10
130.036
20
-120.479
11
129.804
21
-120.613
0
LINE
8
BLACK
6
CONTINUOUS
10
129.804
20
-120.613
11
129.54
21
-120.66
0
LINE
8
BLACK
6
CONTINUOUS
10
129.54
20
-120.66
11
129.276
21
-120.613
0
LINE
8
BLACK
6
CONTINUOUS
10
129.276
20
-120.613
11
129.044
21
-120.479
0
LINE
8
BLACK
6
CONTINUOUS
10
129.044
20
-120.479
11
128.872
21
-120.274
0
LINE
8
BLACK
6
CONTINUOUS
10
128.872
20
-120.274
11
128.78
21
-120.022
0
LINE
8
BLACK
6
CONTINUOUS
10
128.78
20
-120.022
11
128.78
21
-119.754
0
LINE
8
BLACK
6
CONTINUOUS
10
128.78
20
-119.754
11
128.872
21
-119.502
0
LINE
8
BLACK
6
CONTINUOUS
10
128.872
20
-119.502
11
129.044
21
-119.297
0
LINE
8
BLACK
6
CONTINUOUS
10
129.044
20
-119.297
11
129.276
21
-119.163
0
LINE
8
BLACK
6
CONTINUOUS
10
129.276
20
-119.163
11
129.54
21
-119.116
0
LINE
8
BLACK
6
CONTINUOUS
10
129.54
20
-119.116
11
129.804
21
-119.163
0
LINE
8
BLACK
6
CONTINUOUS
10
132.344
20
-119.163
11
132.576
21
-119.297
0
LINE
8
BLACK
6
CONTINUOUS
10
132.576
20
-119.297
11
132.748
21
-119.502
0
LINE
8
BLACK
6
CONTINUOUS
10
132.748
20
-119.502
11
132.84
21
-119.754
0
LINE
8
BLACK
6
CONTINUOUS
10
132.84
20
-119.754
11
132.84
21
-120.022
0
LINE
8
BLACK
6
CONTINUOUS
10
132.84
20
-120.022
11
132.748
21
-120.274
0
LINE
8
BLACK
6
CONTINUOUS
10
132.748
20
-120.274
11
132.576
21
-120.479
0
LINE
8
BLACK
6
CONTINUOUS
10
132.576
20
-120.479
11
132.344
21
-120.613
0
LINE
8
BLACK
6
CONTINUOUS
10
132.344
20
-120.613
11
132.08
21
-120.66
0
LINE
8
BLACK
6
CONTINUOUS
10
132.08
20
-120.66
11
131.816
21
-120.613
0
LINE
8
BLACK
6
CONTINUOUS
10
131.816
20
-120.613
11
131.584
21
-120.479
0
LINE
8
BLACK
6
CONTINUOUS
10
131.584
20
-120.479
11
131.412
21
-120.274
0
LINE
8
BLACK
6
CONTINUOUS
10
131.412
20
-120.274
11
131.32
21
-120.022
0
LINE
8
BLACK
6
CONTINUOUS
10
131.32
20
-120.022
11
131.32
21
-119.754
0
LINE
8
BLACK
6
CONTINUOUS
10
131.32
20
-119.754
11
131.412
21
-119.502
0
LINE
8
BLACK
6
CONTINUOUS
10
131.412
20
-119.502
11
131.584
21
-119.297
0
LINE
8
BLACK
6
CONTINUOUS
10
131.584
20
-119.297
11
131.816
21
-119.163
0
LINE
8
BLACK
6
CONTINUOUS
10
131.816
20
-119.163
11
132.08
21
-119.116
0
LINE
8
BLACK
6
CONTINUOUS
10
132.08
20
-119.116
11
132.344
21
-119.163
0
LINE
8
BLACK
6
CONTINUOUS
10
134.884
20
-119.163
11
135.116
21
-119.297
0
LINE
8
BLACK
6
CONTINUOUS
10
135.116
20
-119.297
11
135.288
21
-119.502
0
LINE
8
BLACK
6
CONTINUOUS
10
135.288
20
-119.502
11
135.38
21
-119.754
0
LINE
8
BLACK
6
CONTINUOUS
10
135.38
20
-119.754
11
135.38
21
-120.022
0
LINE
8
BLACK
6
CONTINUOUS
10
135.38
20
-120.022
11
135.288
21
-120.274
0
LINE
8
BLACK
6
CONTINUOUS
10
135.288
20
-120.274
11
135.116
21
-120.479
0
LINE
8
BLACK
6
CONTINUOUS
10
135.116
20
-120.479
11
134.884
21
-120.613
0
LINE
8
BLACK
6
CONTINUOUS
10
134.884
20
-120.613
11
134.62
21
-120.66
0
LINE
8
BLACK
6
CONTINUOUS
10
134.62
20
-120.66
11
134.356
21
-120.613
0
LINE
8
BLACK
6
CONTINUOUS
10
134.356
20
-120.613
11
134.124
21
-120.479
0
LINE
8
BLACK
6
CONTINUOUS
10
134.124
20
-120.479
11
133.952
21
-120.274
0
LINE
8
BLACK
6
CONTINUOUS
10
133.952
20
-120.274
11
133.86
21
-120.022
0
LINE
8
BLACK
6
CONTINUOUS
10
133.86
20
-120.022
11
133.86
21
-119.754
0
LINE
8
BLACK
6
CONTINUOUS
10
133.86
20
-119.754
11
133.952
21
-119.502
0
LINE
8
BLACK
6
CONTINUOUS
10
133.952
20
-119.502
11
134.124
21
-119.297
0
LINE
8
BLACK
6
CONTINUOUS
10
134.124
20
-119.297
11
134.356
21
-119.163
0
LINE
8
BLACK
6
CONTINUOUS
10
134.356
20
-119.163
11
134.62
21
-119.116
0
LINE
8
BLACK
6
CONTINUOUS
10
134.62
20
-119.116
11
134.884
21
-119.163
0
LINE
8
BLACK
6
CONTINUOUS
10
137.424
20
-119.163
11
137.656
21
-119.297
0
LINE
8
BLACK
6
CONTINUOUS
10
137.656
20
-119.297
11
137.828
21
-119.502
0
LINE
8
BLACK
6
CONTINUOUS
10
137.828
20
-119.502
11
137.92
21
-119.754
0
LINE
8
BLACK
6
CONTINUOUS
10
137.92
20
-119.754
11
137.92
21
-120.022
0
LINE
8
BLACK
6
CONTINUOUS
10
137.92
20
-120.022
11
137.828
21
-120.274
0
LINE
8
BLACK
6
CONTINUOUS
10
137.828
20
-120.274
11
137.656
21
-120.479
0
LINE
8
BLACK
6
CONTINUOUS
10
137.656
20
-120.479
11
137.424
21
-120.613
0
LINE
8
BLACK
6
CONTINUOUS
10
137.424
20
-120.613
11
137.16
21
-120.66
0
LINE
8
BLACK
6
CONTINUOUS
10
137.16
20
-120.66
11
136.896
21
-120.613
0
LINE
8
BLACK
6
CONTINUOUS
10
136.896
20
-120.613
11
136.664
21
-120.479
0
LINE
8
BLACK
6
CONTINUOUS
10
136.664
20
-120.479
11
136.492
21
-120.274
0
LINE
8
BLACK
6
CONTINUOUS
10
136.492
20
-120.274
11
136.4
21
-120.022
0
LINE
8
BLACK
6
CONTINUOUS
10
136.4
20
-120.022
11
136.4
21
-119.754
0
LINE
8
BLACK
6
CONTINUOUS
10
136.4
20
-119.754
11
136.492
21
-119.502
0
LINE
8
BLACK
6
CONTINUOUS
10
136.492
20
-119.502
11
136.664
21
-119.297
0
LINE
8
BLACK
6
CONTINUOUS
10
136.664
20
-119.297
11
136.896
21
-119.163
0
LINE
8
BLACK
6
CONTINUOUS
10
136.896
20
-119.163
11
137.16
21
-119.116
0
LINE
8
BLACK
6
CONTINUOUS
10
137.16
20
-119.116
11
137.424
21
-119.163
0
LINE
8
BLACK
6
CONTINUOUS
10
139.964
20
-119.163
11
140.196
21
-119.297
0
LINE
8
BLACK
6
CONTINUOUS
10
140.196
20
-119.297
11
140.368
21
-119.502
0
LINE
8
BLACK
6
CONTINUOUS
10
140.368
20
-119.502
11
140.46
21
-119.754
0
LINE
8
BLACK
6
CONTINUOUS
10
140.46
20
-119.754
11
140.46
21
-120.022
0
LINE
8
BLACK
6
CONTINUOUS
10
140.46
20
-120.022
11
140.368
21
-120.274
0
LINE
8
BLACK
6
CONTINUOUS
10
140.368
20
-120.274
11
140.196
21
-120.479
0
LINE
8
BLACK
6
CONTINUOUS
10
140.196
20
-120.479
11
139.964
21
-120.613
0
LINE
8
BLACK
6
CONTINUOUS
10
139.964
20
-120.613
11
139.7
21
-120.66
0
LINE
8
BLACK
6
CONTINUOUS
10
139.7
20
-120.66
11
139.436
21
-120.613
0
LINE
8
BLACK
6
CONTINUOUS
10
139.436
20
-120.613
11
139.204
21
-120.479
0
LINE
8
BLACK
6
CONTINUOUS
10
139.204
20
-120.479
11
139.032
21
-120.274
0
LINE
8
BLACK
6
CONTINUOUS
10
139.032
20
-120.274
11
138.94
21
-120.022
0
LINE
8
BLACK
6
CONTINUOUS
10
138.94
20
-120.022
11
138.94
21
-119.754
0
LINE
8
BLACK
6
CONTINUOUS
10
138.94
20
-119.754
11
139.032
21
-119.502
0
LINE
8
BLACK
6
CONTINUOUS
10
139.032
20
-119.502
11
139.204
21
-119.297
0
LINE
8
BLACK
6
CONTINUOUS
10
139.204
20
-119.297
11
139.436
21
-119.163
0
LINE
8
BLACK
6
CONTINUOUS
10
139.436
20
-119.163
11
139.7
21
-119.116
0
LINE
8
BLACK
6
CONTINUOUS
10
139.7
20
-119.116
11
139.964
21
-119.163
0
LINE
8
BLACK
6
CONTINUOUS
10
145.044
20
-119.163
11
145.276
21
-119.297
0
LINE
8
BLACK
6
CONTINUOUS
10
145.276
20
-119.297
11
145.448
21
-119.502
0
LINE
8
BLACK
6
CONTINUOUS
10
145.448
20
-119.502
11
145.54
21
-119.754
0
LINE
8
BLACK
6
CONTINUOUS
10
145.54
20
-119.754
11
145.54
21
-120.022
0
LINE
8
BLACK
6
CONTINUOUS
10
145.54
20
-120.022
11
145.448
21
-120.274
0
LINE
8
BLACK
6
CONTINUOUS
10
145.448
20
-120.274
11
145.276
21
-120.479
0
LINE
8
BLACK
6
CONTINUOUS
10
145.276
20
-120.479
11
145.044
21
-120.613
0
LINE
8
BLACK
6
CONTINUOUS
10
145.044
20
-120.613
11
144.78
21
-120.66
0
LINE
8
BLACK
6
CONTINUOUS
10
144.78
20
-120.66
11
144.516
21
-120.613
0
LINE
8
BLACK
6
CONTINUOUS
10
144.516
20
-120.613
11
144.284
21
-120.479
0
LINE
8
BLACK
6
CONTINUOUS
10
144.284
20
-120.479
11
144.112
21
-120.274
0
LINE
8
BLACK
6
CONTINUOUS
10
144.112
20
-120.274
11
144.02
21
-120.022
0
LINE
8
BLACK
6
CONTINUOUS
10
144.02
20
-120.022
11
144.02
21
-119.754
0
LINE
8
BLACK
6
CONTINUOUS
10
144.02
20
-119.754
11
144.112
21
-119.502
0
LINE
8
BLACK
6
CONTINUOUS
10
144.112
20
-119.502
11
144.284
21
-119.297
0
LINE
8
BLACK
6
CONTINUOUS
10
144.284
20
-119.297
11
144.516
21
-119.163
0
LINE
8
BLACK
6
CONTINUOUS
10
144.516
20
-119.163
11
144.78
21
-119.116
0
LINE
8
BLACK
6
CONTINUOUS
10
144.78
20
-119.116
11
145.044
21
-119.163
0
LINE
8
BLACK
6
CONTINUOUS
10
142.504
20
-119.163
11
142.736
21
-119.297
0
LINE
8
BLACK
6
CONTINUOUS
10
142.736
20
-119.297
11
142.908
21
-119.502
0
LINE
8
BLACK
6
CONTINUOUS
10
142.908
20
-119.502
11
143
21
-119.754
0
LINE
8
BLACK
6
CONTINUOUS
10
143
20
-119.754
11
143
21
-120.022
0
LINE
8
BLACK
6
CONTINUOUS
10
143
20
-120.022
11
142.908
21
-120.274
0
LINE
8
BLACK
6
CONTINUOUS
10
142.908
20
-120.274
11
142.736
21
-120.479
0
LINE
8
BLACK
6
CONTINUOUS
10
142.736
20
-120.479
11
142.504
21
-120.613
0
LINE
8
BLACK
6
CONTINUOUS
10
142.504
20
-120.613
11
142.24
21
-120.66
0
LINE
8
BLACK
6
CONTINUOUS
10
142.24
20
-120.66
11
141.976
21
-120.613
0
LINE
8
BLACK
6
CONTINUOUS
10
141.976
20
-120.613
11
141.744
21
-120.479
0
LINE
8
BLACK
6
CONTINUOUS
10
141.744
20
-120.479
11
141.572
21
-120.274
0
LINE
8
BLACK
6
CONTINUOUS
10
141.572
20
-120.274
11
141.48
21
-120.022
0
LINE
8
BLACK
6
CONTINUOUS
10
141.48
20
-120.022
11
141.48
21
-119.754
0
LINE
8
BLACK
6
CONTINUOUS
10
141.48
20
-119.754
11
141.572
21
-119.502
0
LINE
8
BLACK
6
CONTINUOUS
10
141.572
20
-119.502
11
141.744
21
-119.297
0
LINE
8
BLACK
6
CONTINUOUS
10
141.744
20
-119.297
11
141.976
21
-119.163
0
LINE
8
BLACK
6
CONTINUOUS
10
141.976
20
-119.163
11
142.24
21
-119.116
0
LINE
8
BLACK
6
CONTINUOUS
10
142.24
20
-119.116
11
142.504
21
-119.163
0
LINE
8
BLACK
6
CONTINUOUS
10
139.882
20
-106.576
11
140.658
21
-107.024
0
LINE
8
BLACK
6
CONTINUOUS
10
140.658
20
-107.024
11
141.234
21
-107.71
0
LINE
8
BLACK
6
CONTINUOUS
10
141.234
20
-107.71
11
141.54
21
-108.552
0
LINE
8
BLACK
6
CONTINUOUS
10
141.54
20
-108.552
11
141.54
21
-109.448
0
LINE
8
BLACK
6
CONTINUOUS
10
141.54
20
-109.448
11
141.234
21
-110.29
0
LINE
8
BLACK
6
CONTINUOUS
10
141.234
20
-110.29
11
140.658
21
-110.976
0
LINE
8
BLACK
6
CONTINUOUS
10
140.658
20
-110.976
11
139.882
21
-111.424
0
LINE
8
BLACK
6
CONTINUOUS
10
139.882
20
-111.424
11
139
21
-111.579
0
LINE
8
BLACK
6
CONTINUOUS
10
139
20
-111.579
11
138.118
21
-111.424
0
LINE
8
BLACK
6
CONTINUOUS
10
138.118
20
-111.424
11
137.342
21
-110.976
0
LINE
8
BLACK
6
CONTINUOUS
10
137.342
20
-110.976
11
136.766
21
-110.29
0
LINE
8
BLACK
6
CONTINUOUS
10
136.766
20
-110.29
11
136.46
21
-109.448
0
LINE
8
BLACK
6
CONTINUOUS
10
136.46
20
-109.448
11
136.46
21
-108.552
0
LINE
8
BLACK
6
CONTINUOUS
10
136.46
20
-108.552
11
136.766
21
-107.71
0
LINE
8
BLACK
6
CONTINUOUS
10
136.766
20
-107.71
11
137.342
21
-107.024
0
LINE
8
BLACK
6
CONTINUOUS
10
137.342
20
-107.024
11
138.118
21
-106.576
0
LINE
8
BLACK
6
CONTINUOUS
10
138.118
20
-106.576
11
139
21
-106.421
0
LINE
8
BLACK
6
CONTINUOUS
10
139
20
-106.421
11
139.882
21
-106.576
0
LINE
8
BLACK
6
CONTINUOUS
10
162.882
20
-106.576
11
163.658
21
-107.024
0
LINE
8
BLACK
6
CONTINUOUS
10
163.658
20
-107.024
11
164.234
21
-107.71
0
LINE
8
BLACK
6
CONTINUOUS
10
164.234
20
-107.71
11
164.54
21
-108.552
0
LINE
8
BLACK
6
CONTINUOUS
10
164.54
20
-108.552
11
164.54
21
-109.448
0
LINE
8
BLACK
6
CONTINUOUS
10
164.54
20
-109.448
11
164.234
21
-110.29
0
LINE
8
BLACK
6
CONTINUOUS
10
164.234
20
-110.29
11
163.658
21
-110.976
0
LINE
8
BLACK
6
CONTINUOUS
10
163.658
20
-110.976
11
162.882
21
-111.424
0
LINE
8
BLACK
6
CONTINUOUS
10
162.882
20
-111.424
11
162
21
-111.579
0
LINE
8
BLACK
6
CONTINUOUS
10
162
20
-111.579
11
161.118
21
-111.424
0
LINE
8
BLACK
6
CONTINUOUS
10
161.118
20
-111.424
11
160.342
21
-110.976
0
LINE
8
BLACK
6
CONTINUOUS
10
160.342
20
-110.976
11
159.766
21
-110.29
0
LINE
8
BLACK
6
CONTINUOUS
10
159.766
20
-110.29
11
159.46
21
-109.448
0
LINE
8
BLACK
6
CONTINUOUS
10
159.46
20
-109.448
11
159.46
21
-108.552
0
LINE
8
BLACK
6
CONTINUOUS
10
159.46
20
-108.552
11
159.766
21
-107.71
0
LINE
8
BLACK
6
CONTINUOUS
10
159.766
20
-107.71
11
160.342
21
-107.024
0
LINE
8
BLACK
6
CONTINUOUS
10
160.342
20
-107.024
11
161.118
21
-106.576
0
LINE
8
BLACK
6
CONTINUOUS
10
161.118
20
-106.576
11
162
21
-106.421
0
LINE
8
BLACK
6
CONTINUOUS
10
162
20
-106.421
11
162.882
21
-106.576
0
LINE
8
BLACK
6
CONTINUOUS
10
151.357
20
-106.576
11
152.133
21
-107.024
0
LINE
8
BLACK
6
CONTINUOUS
10
152.133
20
-107.024
11
152.709
21
-107.71
0
LINE
8
BLACK
6
CONTINUOUS
10
152.709
20
-107.71
11
153.015
21
-108.552
0
LINE
8
BLACK
6
CONTINUOUS
10
153.015
20
-108.552
11
153.015
21
-109.448
0
LINE
8
BLACK
6
CONTINUOUS
10
153.015
20
-109.448
11
152.709
21
-110.29
0
LINE
8
BLACK
6
CONTINUOUS
10
152.709
20
-110.29
11
152.133
21
-110.976
0
LINE
8
BLACK
6
CONTINUOUS
10
152.133
20
-110.976
11
151.357
21
-111.424
0
LINE
8
BLACK
6
CONTINUOUS
10
151.357
20
-111.424
11
150.475
21
-111.579
0
LINE
8
BLACK
6
CONTINUOUS
10
150.475
20
-111.579
11
149.593
21
-111.424
0
LINE
8
BLACK
6
CONTINUOUS
10
149.593
20
-111.424
11
148.817
21
-110.976
0
LINE
8
BLACK
6
CONTINUOUS
10
148.817
20
-110.976
11
148.241
21
-110.29
0
LINE
8
BLACK
6
CONTINUOUS
10
148.241
20
-110.29
11
147.935
21
-109.448
0
LINE
8
BLACK
6
CONTINUOUS
10
147.935
20
-109.448
11
147.935
21
-108.552
0
LINE
8
BLACK
6
CONTINUOUS
10
147.935
20
-108.552
11
148.241
21
-107.71
0
LINE
8
BLACK
6
CONTINUOUS
10
148.241
20
-107.71
11
148.817
21
-107.024
0
LINE
8
BLACK
6
CONTINUOUS
10
148.817
20
-107.024
11
149.593
21
-106.576
0
LINE
8
BLACK
6
CONTINUOUS
10
149.593
20
-106.576
11
150.475
21
-106.421
0
LINE
8
BLACK
6
CONTINUOUS
10
150.475
20
-106.421
11
151.357
21
-106.576
0
LINE
8
BLACK
6
CONTINUOUS
10
151.357
20
-98.5774
11
152.133
21
-99.0252
0
LINE
8
BLACK
6
CONTINUOUS
10
152.133
20
-99.0252
11
152.709
21
-99.7114
0
LINE
8
BLACK
6
CONTINUOUS
10
152.709
20
-99.7114
11
153.015
21
-100.553
0
LINE
8
BLACK
6
CONTINUOUS
10
153.015
20
-100.553
11
153.015
21
-101.449
0
LINE
8
BLACK
6
CONTINUOUS
10
153.015
20
-101.449
11
152.709
21
-102.291
0
LINE
8
BLACK
6
CONTINUOUS
10
152.709
20
-102.291
11
152.133
21
-102.977
0
LINE
8
BLACK
6
CONTINUOUS
10
152.133
20
-102.977
11
151.357
21
-103.425
0
LINE
8
BLACK
6
CONTINUOUS
10
151.357
20
-103.425
11
150.475
21
-103.58
0
LINE
8
BLACK
6
CONTINUOUS
10
150.475
20
-103.58
11
149.593
21
-103.425
0
LINE
8
BLACK
6
CONTINUOUS
10
149.593
20
-103.425
11
148.817
21
-102.977
0
LINE
8
BLACK
6
CONTINUOUS
10
148.817
20
-102.977
11
148.241
21
-102.291
0
LINE
8
BLACK
6
CONTINUOUS
10
148.241
20
-102.291
11
147.935
21
-101.449
0
LINE
8
BLACK
6
CONTINUOUS
10
147.935
20
-101.449
11
147.935
21
-100.553
0
LINE
8
BLACK
6
CONTINUOUS
10
147.935
20
-100.553
11
148.241
21
-99.7114
0
LINE
8
BLACK
6
CONTINUOUS
10
148.241
20
-99.7114
11
148.817
21
-99.0252
0
LINE
8
BLACK
6
CONTINUOUS
10
148.817
20
-99.0252
11
149.593
21
-98.5774
0
LINE
8
BLACK
6
CONTINUOUS
10
149.593
20
-98.5774
11
150.475
21
-98.4218
0
LINE
8
BLACK
6
CONTINUOUS
10
150.475
20
-98.4218
11
151.357
21
-98.5774
0
LINE
8
BLACK
6
CONTINUOUS
10
139.882
20
-98.5774
11
140.658
21
-99.0252
0
LINE
8
BLACK
6
CONTINUOUS
10
140.658
20
-99.0252
11
141.234
21
-99.7114
0
LINE
8
BLACK
6
CONTINUOUS
10
141.234
20
-99.7114
11
141.54
21
-100.553
0
LINE
8
BLACK
6
CONTINUOUS
10
141.54
20
-100.553
11
141.54
21
-101.449
0
LINE
8
BLACK
6
CONTINUOUS
10
141.54
20
-101.449
11
141.234
21
-102.291
0
LINE
8
BLACK
6
CONTINUOUS
10
141.234
20
-102.291
11
140.658
21
-102.977
0
LINE
8
BLACK
6
CONTINUOUS
10
140.658
20
-102.977
11
139.882
21
-103.425
0
LINE
8
BLACK
6
CONTINUOUS
10
139.882
20
-103.425
11
139
21
-103.58
0
LINE
8
BLACK
6
CONTINUOUS
10
139
20
-103.58
11
138.118
21
-103.425
0
LINE
8
BLACK
6
CONTINUOUS
10
138.118
20
-103.425
11
137.342
21
-102.977
0
LINE
8
BLACK
6
CONTINUOUS
10
137.342
20
-102.977
11
136.766
21
-102.291
0
LINE
8
BLACK
6
CONTINUOUS
10
136.766
20
-102.291
11
136.46
21
-101.449
0
LINE
8
BLACK
6
CONTINUOUS
10
136.46
20
-101.449
11
136.46
21
-100.553
0
LINE
8
BLACK
6
CONTINUOUS
10
136.46
20
-100.553
11
136.766
21
-99.7114
0
LINE
8
BLACK
6
CONTINUOUS
10
136.766
20
-99.7114
11
137.342
21
-99.0252
0
LINE
8
BLACK
6
CONTINUOUS
10
137.342
20
-99.0252
11
138.118
21
-98.5774
0
LINE
8
BLACK
6
CONTINUOUS
10
138.118
20
-98.5774
11
139
21
-98.4218
0
LINE
8
BLACK
6
CONTINUOUS
10
139
20
-98.4218
11
139.882
21
-98.5774
0
LINE
8
BLACK
6
CONTINUOUS
10
162.882
20
-98.5774
11
163.658
21
-99.0252
0
LINE
8
BLACK
6
CONTINUOUS
10
163.658
20
-99.0252
11
164.234
21
-99.7114
0
LINE
8
BLACK
6
CONTINUOUS
10
164.234
20
-99.7114
11
164.54
21
-100.553
0
LINE
8
BLACK
6
CONTINUOUS
10
164.54
20
-100.553
11
164.54
21
-101.449
0
LINE
8
BLACK
6
CONTINUOUS
10
164.54
20
-101.449
11
164.234
21
-102.291
0
LINE
8
BLACK
6
CONTINUOUS
10
164.234
20
-102.291
11
163.658
21
-102.977
0
LINE
8
BLACK
6
CONTINUOUS
10
163.658
20
-102.977
11
162.882
21
-103.425
0
LINE
8
BLACK
6
CONTINUOUS
10
162.882
20
-103.425
11
162
21
-103.58
0
LINE
8
BLACK
6
CONTINUOUS
10
162
20
-103.58
11
161.118
21
-103.425
0
LINE
8
BLACK
6
CONTINUOUS
10
161.118
20
-103.425
11
160.342
21
-102.977
0
LINE
8
BLACK
6
CONTINUOUS
10
160.342
20
-102.977
11
159.766
21
-102.291
0
LINE
8
BLACK
6
CONTINUOUS
10
159.766
20
-102.291
11
159.46
21
-101.449
0
LINE
8
BLACK
6
CONTINUOUS
10
159.46
20
-101.449
11
159.46
21
-100.553
0
LINE
8
BLACK
6
CONTINUOUS
10
159.46
20
-100.553
11
159.766
21
-99.7114
0
LINE
8
BLACK
6
CONTINUOUS
10
159.766
20
-99.7114
11
160.342
21
-99.0252
0
LINE
8
BLACK
6
CONTINUOUS
10
160.342
20
-99.0252
11
161.118
21
-98.5774
0
LINE
8
BLACK
6
CONTINUOUS
10
161.118
20
-98.5774
11
162
21
-98.4218
0
LINE
8
BLACK
6
CONTINUOUS
10
162
20
-98.4218
11
162.882
21
-98.5774
0
LINE
8
BLACK
6
CONTINUOUS
10
171.969
20
-100.365
11
172.201
21
-100.499
0
LINE
8
BLACK
6
CONTINUOUS
10
172.201
20
-100.499
11
172.374
21
-100.705
0
LINE
8
BLACK
6
CONTINUOUS
10
172.374
20
-100.705
11
172.466
21
-100.958
0
LINE
8
BLACK
6
CONTINUOUS
10
172.466
20
-100.958
11
172.466
21
-101.226
0
LINE
8
BLACK
6
CONTINUOUS
10
172.466
20
-101.226
11
172.374
21
-101.479
0
LINE
8
BLACK
6
CONTINUOUS
10
172.374
20
-101.479
11
172.201
21
-101.685
0
LINE
8
BLACK
6
CONTINUOUS
10
172.201
20
-101.685
11
171.969
21
-101.819
0
LINE
8
BLACK
6
CONTINUOUS
10
171.969
20
-101.819
11
171.704
21
-101.866
0
LINE
8
BLACK
6
CONTINUOUS
10
171.704
20
-101.866
11
171.439
21
-101.819
0
LINE
8
BLACK
6
CONTINUOUS
10
171.439
20
-101.819
11
171.207
21
-101.685
0
LINE
8
BLACK
6
CONTINUOUS
10
171.207
20
-101.685
11
171.034
21
-101.479
0
LINE
8
BLACK
6
CONTINUOUS
10
171.034
20
-101.479
11
170.942
21
-101.226
0
LINE
8
BLACK
6
CONTINUOUS
10
170.942
20
-101.226
11
170.942
21
-100.958
0
LINE
8
BLACK
6
CONTINUOUS
10
170.942
20
-100.958
11
171.034
21
-100.705
0
LINE
8
BLACK
6
CONTINUOUS
10
171.034
20
-100.705
11
171.207
21
-100.499
0
LINE
8
BLACK
6
CONTINUOUS
10
171.207
20
-100.499
11
171.439
21
-100.365
0
LINE
8
BLACK
6
CONTINUOUS
10
171.439
20
-100.365
11
171.704
21
-100.318
0
LINE
8
BLACK
6
CONTINUOUS
10
171.704
20
-100.318
11
171.969
21
-100.365
0
LINE
8
BLACK
6
CONTINUOUS
10
177.049
20
-100.365
11
177.281
21
-100.499
0
LINE
8
BLACK
6
CONTINUOUS
10
177.281
20
-100.499
11
177.454
21
-100.705
0
LINE
8
BLACK
6
CONTINUOUS
10
177.454
20
-100.705
11
177.546
21
-100.958
0
LINE
8
BLACK
6
CONTINUOUS
10
177.546
20
-100.958
11
177.546
21
-101.226
0
LINE
8
BLACK
6
CONTINUOUS
10
177.546
20
-101.226
11
177.454
21
-101.479
0
LINE
8
BLACK
6
CONTINUOUS
10
177.454
20
-101.479
11
177.281
21
-101.685
0
LINE
8
BLACK
6
CONTINUOUS
10
177.281
20
-101.685
11
177.049
21
-101.819
0
LINE
8
BLACK
6
CONTINUOUS
10
177.049
20
-101.819
11
176.784
21
-101.866
0
LINE
8
BLACK
6
CONTINUOUS
10
176.784
20
-101.866
11
176.519
21
-101.819
0
LINE
8
BLACK
6
CONTINUOUS
10
176.519
20
-101.819
11
176.287
21
-101.685
0
LINE
8
BLACK
6
CONTINUOUS
10
176.287
20
-101.685
11
176.114
21
-101.479
0
LINE
8
BLACK
6
CONTINUOUS
10
176.114
20
-101.479
11
176.022
21
-101.226
0
LINE
8
BLACK
6
CONTINUOUS
10
176.022
20
-101.226
11
176.022
21
-100.958
0
LINE
8
BLACK
6
CONTINUOUS
10
176.022
20
-100.958
11
176.114
21
-100.705
0
LINE
8
BLACK
6
CONTINUOUS
10
176.114
20
-100.705
11
176.287
21
-100.499
0
LINE
8
BLACK
6
CONTINUOUS
10
176.287
20
-100.499
11
176.519
21
-100.365
0
LINE
8
BLACK
6
CONTINUOUS
10
176.519
20
-100.365
11
176.784
21
-100.318
0
LINE
8
BLACK
6
CONTINUOUS
10
176.784
20
-100.318
11
177.049
21
-100.365
0
LINE
8
BLACK
6
CONTINUOUS
10
174.509
20
-100.365
11
174.741
21
-100.499
0
LINE
8
BLACK
6
CONTINUOUS
10
174.741
20
-100.499
11
174.914
21
-100.705
0
LINE
8
BLACK
6
CONTINUOUS
10
174.914
20
-100.705
11
175.006
21
-100.958
0
LINE
8
BLACK
6
CONTINUOUS
10
175.006
20
-100.958
11
175.006
21
-101.226
0
LINE
8
BLACK
6
CONTINUOUS
10
175.006
20
-101.226
11
174.914
21
-101.479
0
LINE
8
BLACK
6
CONTINUOUS
10
174.914
20
-101.479
11
174.741
21
-101.685
0
LINE
8
BLACK
6
CONTINUOUS
10
174.741
20
-101.685
11
174.509
21
-101.819
0
LINE
8
BLACK
6
CONTINUOUS
10
174.509
20
-101.819
11
174.244
21
-101.866
0
LINE
8
BLACK
6
CONTINUOUS
10
174.244
20
-101.866
11
173.979
21
-101.819
0
LINE
8
BLACK
6
CONTINUOUS
10
173.979
20
-101.819
11
173.747
21
-101.685
0
LINE
8
BLACK
6
CONTINUOUS
10
173.747
20
-101.685
11
173.574
21
-101.479
0
LINE
8
BLACK
6
CONTINUOUS
10
173.574
20
-101.479
11
173.482
21
-101.226
0
LINE
8
BLACK
6
CONTINUOUS
10
173.482
20
-101.226
11
173.482
21
-100.958
0
LINE
8
BLACK
6
CONTINUOUS
10
173.482
20
-100.958
11
173.574
21
-100.705
0
LINE
8
BLACK
6
CONTINUOUS
10
173.574
20
-100.705
11
173.747
21
-100.499
0
LINE
8
BLACK
6
CONTINUOUS
10
173.747
20
-100.499
11
173.979
21
-100.365
0
LINE
8
BLACK
6
CONTINUOUS
10
173.979
20
-100.365
11
174.244
21
-100.318
0
LINE
8
BLACK
6
CONTINUOUS
10
174.244
20
-100.318
11
174.509
21
-100.365
0
LINE
8
BLACK
6
CONTINUOUS
10
162.882
20
-90.5764
11
163.658
21
-91.0242
0
LINE
8
BLACK
6
CONTINUOUS
10
163.658
20
-91.0242
11
164.234
21
-91.7104
0
LINE
8
BLACK
6
CONTINUOUS
10
164.234
20
-91.7104
11
164.54
21
-92.5521
0
LINE
8
BLACK
6
CONTINUOUS
10
164.54
20
-92.5521
11
164.54
21
-93.4479
0
LINE
8
BLACK
6
CONTINUOUS
10
164.54
20
-93.4479
11
164.234
21
-94.2896
0
LINE
8
BLACK
6
CONTINUOUS
10
164.234
20
-94.2896
11
163.658
21
-94.9758
0
LINE
8
BLACK
6
CONTINUOUS
10
163.658
20
-94.9758
11
162.882
21
-95.4236
0
LINE
8
BLACK
6
CONTINUOUS
10
162.882
20
-95.4236
11
162
21
-95.5792
0
LINE
8
BLACK
6
CONTINUOUS
10
162
20
-95.5792
11
161.118
21
-95.4236
0
LINE
8
BLACK
6
CONTINUOUS
10
161.118
20
-95.4236
11
160.342
21
-94.9758
0
LINE
8
BLACK
6
CONTINUOUS
10
160.342
20
-94.9758
11
159.766
21
-94.2896
0
LINE
8
BLACK
6
CONTINUOUS
10
159.766
20
-94.2896
11
159.46
21
-93.4479
0
LINE
8
BLACK
6
CONTINUOUS
10
159.46
20
-93.4479
11
159.46
21
-92.5521
0
LINE
8
BLACK
6
CONTINUOUS
10
159.46
20
-92.5521
11
159.766
21
-91.7104
0
LINE
8
BLACK
6
CONTINUOUS
10
159.766
20
-91.7104
11
160.342
21
-91.0242
0
LINE
8
BLACK
6
CONTINUOUS
10
160.342
20
-91.0242
11
161.118
21
-90.5764
0
LINE
8
BLACK
6
CONTINUOUS
10
161.118
20
-90.5764
11
162
21
-90.4208
0
LINE
8
BLACK
6
CONTINUOUS
10
162
20
-90.4208
11
162.882
21
-90.5764
0
LINE
8
BLACK
6
CONTINUOUS
10
151.357
20
-90.5764
11
152.133
21
-91.0242
0
LINE
8
BLACK
6
CONTINUOUS
10
152.133
20
-91.0242
11
152.709
21
-91.7104
0
LINE
8
BLACK
6
CONTINUOUS
10
152.709
20
-91.7104
11
153.015
21
-92.5521
0
LINE
8
BLACK
6
CONTINUOUS
10
153.015
20
-92.5521
11
153.015
21
-93.4479
0
LINE
8
BLACK
6
CONTINUOUS
10
153.015
20
-93.4479
11
152.709
21
-94.2896
0
LINE
8
BLACK
6
CONTINUOUS
10
152.709
20
-94.2896
11
152.133
21
-94.9758
0
LINE
8
BLACK
6
CONTINUOUS
10
152.133
20
-94.9758
11
151.357
21
-95.4236
0
LINE
8
BLACK
6
CONTINUOUS
10
151.357
20
-95.4236
11
150.475
21
-95.5792
0
LINE
8
BLACK
6
CONTINUOUS
10
150.475
20
-95.5792
11
149.593
21
-95.4236
0
LINE
8
BLACK
6
CONTINUOUS
10
149.593
20
-95.4236
11
148.817
21
-94.9758
0
LINE
8
BLACK
6
CONTINUOUS
10
148.817
20
-94.9758
11
148.241
21
-94.2896
0
LINE
8
BLACK
6
CONTINUOUS
10
148.241
20
-94.2896
11
147.935
21
-93.4479
0
LINE
8
BLACK
6
CONTINUOUS
10
147.935
20
-93.4479
11
147.935
21
-92.5521
0
LINE
8
BLACK
6
CONTINUOUS
10
147.935
20
-92.5521
11
148.241
21
-91.7104
0
LINE
8
BLACK
6
CONTINUOUS
10
148.241
20
-91.7104
11
148.817
21
-91.0242
0
LINE
8
BLACK
6
CONTINUOUS
10
148.817
20
-91.0242
11
149.593
21
-90.5764
0
LINE
8
BLACK
6
CONTINUOUS
10
149.593
20
-90.5764
11
150.475
21
-90.4208
0
LINE
8
BLACK
6
CONTINUOUS
10
150.475
20
-90.4208
11
151.357
21
-90.5764
0
LINE
8
BLACK
6
CONTINUOUS
10
139.882
20
-90.5764
11
140.658
21
-91.0242
0
LINE
8
BLACK
6
CONTINUOUS
10
140.658
20
-91.0242
11
141.234
21
-91.7104
0
LINE
8
BLACK
6
CONTINUOUS
10
141.234
20
-91.7104
11
141.54
21
-92.5521
0
LINE
8
BLACK
6
CONTINUOUS
10
141.54
20
-92.5521
11
141.54
21
-93.4479
0
LINE
8
BLACK
6
CONTINUOUS
10
141.54
20
-93.4479
11
141.234
21
-94.2896
0
LINE
8
BLACK
6
CONTINUOUS
10
141.234
20
-94.2896
11
140.658
21
-94.9758
0
LINE
8
BLACK
6
CONTINUOUS
10
140.658
20
-94.9758
11
139.882
21
-95.4236
0
LINE
8
BLACK
6
CONTINUOUS
10
139.882
20
-95.4236
11
139
21
-95.5792
0
LINE
8
BLACK
6
CONTINUOUS
10
139
20
-95.5792
11
138.118
21
-95.4236
0
LINE
8
BLACK
6
CONTINUOUS
10
138.118
20
-95.4236
11
137.342
21
-94.9758
0
LINE
8
BLACK
6
CONTINUOUS
10
137.342
20
-94.9758
11
136.766
21
-94.2896
0
LINE
8
BLACK
6
CONTINUOUS
10
136.766
20
-94.2896
11
136.46
21
-93.4479
0
LINE
8
BLACK
6
CONTINUOUS
10
136.46
20
-93.4479
11
136.46
21
-92.5521
0
LINE
8
BLACK
6
CONTINUOUS
10
136.46
20
-92.5521
11
136.766
21
-91.7104
0
LINE
8
BLACK
6
CONTINUOUS
10
136.766
20
-91.7104
11
137.342
21
-91.0242
0
LINE
8
BLACK
6
CONTINUOUS
10
137.342
20
-91.0242
11
138.118
21
-90.5764
0
LINE
8
BLACK
6
CONTINUOUS
10
138.118
20
-90.5764
11
139
21
-90.4208
0
LINE
8
BLACK
6
CONTINUOUS
10
139
20
-90.4208
11
139.882
21
-90.5764
0
LINE
8
BLACK
6
CONTINUOUS
10
145.044
20
-78.5228
11
145.276
21
-78.6568
0
LINE
8
BLACK
6
CONTINUOUS
10
145.276
20
-78.6568
11
145.448
21
-78.8621
0
LINE
8
BLACK
6
CONTINUOUS
10
145.448
20
-78.8621
11
145.54
21
-79.114
0
LINE
8
BLACK
6
CONTINUOUS
10
145.54
20
-79.114
11
145.54
21
-79.382
0
LINE
8
BLACK
6
CONTINUOUS
10
145.54
20
-79.382
11
145.448
21
-79.6339
0
LINE
8
BLACK
6
CONTINUOUS
10
145.448
20
-79.6339
11
145.276
21
-79.8392
0
LINE
8
BLACK
6
CONTINUOUS
10
145.276
20
-79.8392
11
145.044
21
-79.9732
0
LINE
8
BLACK
6
CONTINUOUS
10
145.044
20
-79.9732
11
144.78
21
-80.0197
0
LINE
8
BLACK
6
CONTINUOUS
10
144.78
20
-80.0197
11
144.516
21
-79.9732
0
LINE
8
BLACK
6
CONTINUOUS
10
144.516
20
-79.9732
11
144.284
21
-79.8392
0
LINE
8
BLACK
6
CONTINUOUS
10
144.284
20
-79.8392
11
144.112
21
-79.6339
0
LINE
8
BLACK
6
CONTINUOUS
10
144.112
20
-79.6339
11
144.02
21
-79.382
0
LINE
8
BLACK
6
CONTINUOUS
10
144.02
20
-79.382
11
144.02
21
-79.114
0
LINE
8
BLACK
6
CONTINUOUS
10
144.02
20
-79.114
11
144.112
21
-78.8621
0
LINE
8
BLACK
6
CONTINUOUS
10
144.112
20
-78.8621
11
144.284
21
-78.6568
0
LINE
8
BLACK
6
CONTINUOUS
10
144.284
20
-78.6568
11
144.516
21
-78.5228
0
LINE
8
BLACK
6
CONTINUOUS
10
144.516
20
-78.5228
11
144.78
21
-78.4763
0
LINE
8
BLACK
6
CONTINUOUS
10
144.78
20
-78.4763
11
145.044
21
-78.5228
0
LINE
8
BLACK
6
CONTINUOUS
10
185.684
20
-78.5228
11
185.916
21
-78.6568
0
LINE
8
BLACK
6
CONTINUOUS
10
185.916
20
-78.6568
11
186.088
21
-78.8621
0
LINE
8
BLACK
6
CONTINUOUS
10
186.088
20
-78.8621
11
186.18
21
-79.114
0
LINE
8
BLACK
6
CONTINUOUS
10
186.18
20
-79.114
11
186.18
21
-79.382
0
LINE
8
BLACK
6
CONTINUOUS
10
186.18
20
-79.382
11
186.088
21
-79.6339
0
LINE
8
BLACK
6
CONTINUOUS
10
186.088
20
-79.6339
11
185.916
21
-79.8392
0
LINE
8
BLACK
6
CONTINUOUS
10
185.916
20
-79.8392
11
185.684
21
-79.9732
0
LINE
8
BLACK
6
CONTINUOUS
10
185.684
20
-79.9732
11
185.42
21
-80.0197
0
LINE
8
BLACK
6
CONTINUOUS
10
185.42
20
-80.0197
11
185.156
21
-79.9732
0
LINE
8
BLACK
6
CONTINUOUS
10
185.156
20
-79.9732
11
184.924
21
-79.8392
0
LINE
8
BLACK
6
CONTINUOUS
10
184.924
20
-79.8392
11
184.752
21
-79.6339
0
LINE
8
BLACK
6
CONTINUOUS
10
184.752
20
-79.6339
11
184.66
21
-79.382
0
LINE
8
BLACK
6
CONTINUOUS
10
184.66
20
-79.382
11
184.66
21
-79.114
0
LINE
8
BLACK
6
CONTINUOUS
10
184.66
20
-79.114
11
184.752
21
-78.8621
0
LINE
8
BLACK
6
CONTINUOUS
10
184.752
20
-78.8621
11
184.924
21
-78.6568
0
LINE
8
BLACK
6
CONTINUOUS
10
184.924
20
-78.6568
11
185.156
21
-78.5228
0
LINE
8
BLACK
6
CONTINUOUS
10
185.156
20
-78.5228
11
185.42
21
-78.4763
0
LINE
8
BLACK
6
CONTINUOUS
10
185.42
20
-78.4763
11
185.684
21
-78.5228
0
LINE
8
BLACK
6
CONTINUOUS
10
188.224
20
-78.5228
11
188.456
21
-78.6568
0
LINE
8
BLACK
6
CONTINUOUS
10
188.456
20
-78.6568
11
188.628
21
-78.8621
0
LINE
8
BLACK
6
CONTINUOUS
10
188.628
20
-78.8621
11
188.72
21
-79.114
0
LINE
8
BLACK
6
CONTINUOUS
10
188.72
20
-79.114
11
188.72
21
-79.382
0
LINE
8
BLACK
6
CONTINUOUS
10
188.72
20
-79.382
11
188.628
21
-79.6339
0
LINE
8
BLACK
6
CONTINUOUS
10
188.628
20
-79.6339
11
188.456
21
-79.8392
0
LINE
8
BLACK
6
CONTINUOUS
10
188.456
20
-79.8392
11
188.224
21
-79.9732
0
LINE
8
BLACK
6
CONTINUOUS
10
188.224
20
-79.9732
11
187.96
21
-80.0197
0
LINE
8
BLACK
6
CONTINUOUS
10
187.96
20
-80.0197
11
187.696
21
-79.9732
0
LINE
8
BLACK
6
CONTINUOUS
10
187.696
20
-79.9732
11
187.464
21
-79.8392
0
LINE
8
BLACK
6
CONTINUOUS
10
187.464
20
-79.8392
11
187.292
21
-79.6339
0
LINE
8
BLACK
6
CONTINUOUS
10
187.292
20
-79.6339
11
187.2
21
-79.382
0
LINE
8
BLACK
6
CONTINUOUS
10
187.2
20
-79.382
11
187.2
21
-79.114
0
LINE
8
BLACK
6
CONTINUOUS
10
187.2
20
-79.114
11
187.292
21
-78.8621
0
LINE
8
BLACK
6
CONTINUOUS
10
187.292
20
-78.8621
11
187.464
21
-78.6568
0
LINE
8
BLACK
6
CONTINUOUS
10
187.464
20
-78.6568
11
187.696
21
-78.5228
0
LINE
8
BLACK
6
CONTINUOUS
10
187.696
20
-78.5228
11
187.96
21
-78.4763
0
LINE
8
BLACK
6
CONTINUOUS
10
187.96
20
-78.4763
11
188.224
21
-78.5228
0
LINE
8
BLACK
6
CONTINUOUS
10
190.764
20
-78.5228
11
190.996
21
-78.6568
0
LINE
8
BLACK
6
CONTINUOUS
10
190.996
20
-78.6568
11
191.168
21
-78.8621
0
LINE
8
BLACK
6
CONTINUOUS
10
191.168
20
-78.8621
11
191.26
21
-79.114
0
LINE
8
BLACK
6
CONTINUOUS
10
191.26
20
-79.114
11
191.26
21
-79.382
0
LINE
8
BLACK
6
CONTINUOUS
10
191.26
20
-79.382
11
191.168
21
-79.6339
0
LINE
8
BLACK
6
CONTINUOUS
10
191.168
20
-79.6339
11
190.996
21
-79.8392
0
LINE
8
BLACK
6
CONTINUOUS
10
190.996
20
-79.8392
11
190.764
21
-79.9732
0
LINE
8
BLACK
6
CONTINUOUS
10
190.764
20
-79.9732
11
190.5
21
-80.0197
0
LINE
8
BLACK
6
CONTINUOUS
10
190.5
20
-80.0197
11
190.236
21
-79.9732
0
LINE
8
BLACK
6
CONTINUOUS
10
190.236
20
-79.9732
11
190.004
21
-79.8392
0
LINE
8
BLACK
6
CONTINUOUS
10
190.004
20
-79.8392
11
189.832
21
-79.6339
0
LINE
8
BLACK
6
CONTINUOUS
10
189.832
20
-79.6339
11
189.74
21
-79.382
0
LINE
8
BLACK
6
CONTINUOUS
10
189.74
20
-79.382
11
189.74
21
-79.114
0
LINE
8
BLACK
6
CONTINUOUS
10
189.74
20
-79.114
11
189.832
21
-78.8621
0
LINE
8
BLACK
6
CONTINUOUS
10
189.832
20
-78.8621
11
190.004
21
-78.6568
0
LINE
8
BLACK
6
CONTINUOUS
10
190.004
20
-78.6568
11
190.236
21
-78.5228
0
LINE
8
BLACK
6
CONTINUOUS
10
190.236
20
-78.5228
11
190.5
21
-78.4763
0
LINE
8
BLACK
6
CONTINUOUS
10
190.5
20
-78.4763
11
190.764
21
-78.5228
0
LINE
8
BLACK
6
CONTINUOUS
10
193.304
20
-78.5228
11
193.536
21
-78.6568
0
LINE
8
BLACK
6
CONTINUOUS
10
193.536
20
-78.6568
11
193.708
21
-78.8621
0
LINE
8
BLACK
6
CONTINUOUS
10
193.708
20
-78.8621
11
193.8
21
-79.114
0
LINE
8
BLACK
6
CONTINUOUS
10
193.8
20
-79.114
11
193.8
21
-79.382
0
LINE
8
BLACK
6
CONTINUOUS
10
193.8
20
-79.382
11
193.708
21
-79.6339
0
LINE
8
BLACK
6
CONTINUOUS
10
193.708
20
-79.6339
11
193.536
21
-79.8392
0
LINE
8
BLACK
6
CONTINUOUS
10
193.536
20
-79.8392
11
193.304
21
-79.9732
0
LINE
8
BLACK
6
CONTINUOUS
10
193.304
20
-79.9732
11
193.04
21
-80.0197
0
LINE
8
BLACK
6
CONTINUOUS
10
193.04
20
-80.0197
11
192.776
21
-79.9732
0
LINE
8
BLACK
6
CONTINUOUS
10
192.776
20
-79.9732
11
192.544
21
-79.8392
0
LINE
8
BLACK
6
CONTINUOUS
10
192.544
20
-79.8392
11
192.372
21
-79.6339
0
LINE
8
BLACK
6
CONTINUOUS
10
192.372
20
-79.6339
11
192.28
21
-79.382
0
LINE
8
BLACK
6
CONTINUOUS
10
192.28
20
-79.382
11
192.28
21
-79.114
0
LINE
8
BLACK
6
CONTINUOUS
10
192.28
20
-79.114
11
192.372
21
-78.8621
0
LINE
8
BLACK
6
CONTINUOUS
10
192.372
20
-78.8621
11
192.544
21
-78.6568
0
LINE
8
BLACK
6
CONTINUOUS
10
192.544
20
-78.6568
11
192.776
21
-78.5228
0
LINE
8
BLACK
6
CONTINUOUS
10
192.776
20
-78.5228
11
193.04
21
-78.4763
0
LINE
8
BLACK
6
CONTINUOUS
10
193.04
20
-78.4763
11
193.304
21
-78.5228
0
LINE
8
BLACK
6
CONTINUOUS
10
195.844
20
-78.5228
11
196.076
21
-78.6568
0
LINE
8
BLACK
6
CONTINUOUS
10
196.076
20
-78.6568
11
196.248
21
-78.8621
0
LINE
8
BLACK
6
CONTINUOUS
10
196.248
20
-78.8621
11
196.34
21
-79.114
0
LINE
8
BLACK
6
CONTINUOUS
10
196.34
20
-79.114
11
196.34
21
-79.382
0
LINE
8
BLACK
6
CONTINUOUS
10
196.34
20
-79.382
11
196.248
21
-79.6339
0
LINE
8
BLACK
6
CONTINUOUS
10
196.248
20
-79.6339
11
196.076
21
-79.8392
0
LINE
8
BLACK
6
CONTINUOUS
10
196.076
20
-79.8392
11
195.844
21
-79.9732
0
LINE
8
BLACK
6
CONTINUOUS
10
195.844
20
-79.9732
11
195.58
21
-80.0197
0
LINE
8
BLACK
6
CONTINUOUS
10
195.58
20
-80.0197
11
195.316
21
-79.9732
0
LINE
8
BLACK
6
CONTINUOUS
10
195.316
20
-79.9732
11
195.084
21
-79.8392
0
LINE
8
BLACK
6
CONTINUOUS
10
195.084
20
-79.8392
11
194.912
21
-79.6339
0
LINE
8
BLACK
6
CONTINUOUS
10
194.912
20
-79.6339
11
194.82
21
-79.382
0
LINE
8
BLACK
6
CONTINUOUS
10
194.82
20
-79.382
11
194.82
21
-79.114
0
LINE
8
BLACK
6
CONTINUOUS
10
194.82
20
-79.114
11
194.912
21
-78.8621
0
LINE
8
BLACK
6
CONTINUOUS
10
194.912
20
-78.8621
11
195.084
21
-78.6568
0
LINE
8
BLACK
6
CONTINUOUS
10
195.084
20
-78.6568
11
195.316
21
-78.5228
0
LINE
8
BLACK
6
CONTINUOUS
10
195.316
20
-78.5228
11
195.58
21
-78.4763
0
LINE
8
BLACK
6
CONTINUOUS
10
195.58
20
-78.4763
11
195.844
21
-78.5228
0
LINE
8
BLACK
6
CONTINUOUS
10
198.384
20
-78.5228
11
198.616
21
-78.6568
0
LINE
8
BLACK
6
CONTINUOUS
10
198.616
20
-78.6568
11
198.788
21
-78.8621
0
LINE
8
BLACK
6
CONTINUOUS
10
198.788
20
-78.8621
11
198.88
21
-79.114
0
LINE
8
BLACK
6
CONTINUOUS
10
198.88
20
-79.114
11
198.88
21
-79.382
0
LINE
8
BLACK
6
CONTINUOUS
10
198.88
20
-79.382
11
198.788
21
-79.6339
0
LINE
8
BLACK
6
CONTINUOUS
10
198.788
20
-79.6339
11
198.616
21
-79.8392
0
LINE
8
BLACK
6
CONTINUOUS
10
198.616
20
-79.8392
11
198.384
21
-79.9732
0
LINE
8
BLACK
6
CONTINUOUS
10
198.384
20
-79.9732
11
198.12
21
-80.0197
0
LINE
8
BLACK
6
CONTINUOUS
10
198.12
20
-80.0197
11
197.856
21
-79.9732
0
LINE
8
BLACK
6
CONTINUOUS
10
197.856
20
-79.9732
11
197.624
21
-79.8392
0
LINE
8
BLACK
6
CONTINUOUS
10
197.624
20
-79.8392
11
197.452
21
-79.6339
0
LINE
8
BLACK
6
CONTINUOUS
10
197.452
20
-79.6339
11
197.36
21
-79.382
0
LINE
8
BLACK
6
CONTINUOUS
10
197.36
20
-79.382
11
197.36
21
-79.114
0
LINE
8
BLACK
6
CONTINUOUS
10
197.36
20
-79.114
11
197.452
21
-78.8621
0
LINE
8
BLACK
6
CONTINUOUS
10
197.452
20
-78.8621
11
197.624
21
-78.6568
0
LINE
8
BLACK
6
CONTINUOUS
10
197.624
20
-78.6568
11
197.856
21
-78.5228
0
LINE
8
BLACK
6
CONTINUOUS
10
197.856
20
-78.5228
11
198.12
21
-78.4763
0
LINE
8
BLACK
6
CONTINUOUS
10
198.12
20
-78.4763
11
198.384
21
-78.5228
0
LINE
8
BLACK
6
CONTINUOUS
10
200.924
20
-78.5228
11
201.156
21
-78.6568
0
LINE
8
BLACK
6
CONTINUOUS
10
201.156
20
-78.6568
11
201.328
21
-78.8621
0
LINE
8
BLACK
6
CONTINUOUS
10
201.328
20
-78.8621
11
201.42
21
-79.114
0
LINE
8
BLACK
6
CONTINUOUS
10
201.42
20
-79.114
11
201.42
21
-79.382
0
LINE
8
BLACK
6
CONTINUOUS
10
201.42
20
-79.382
11
201.328
21
-79.6339
0
LINE
8
BLACK
6
CONTINUOUS
10
201.328
20
-79.6339
11
201.156
21
-79.8392
0
LINE
8
BLACK
6
CONTINUOUS
10
201.156
20
-79.8392
11
200.924
21
-79.9732
0
LINE
8
BLACK
6
CONTINUOUS
10
200.924
20
-79.9732
11
200.66
21
-80.0197
0
LINE
8
BLACK
6
CONTINUOUS
10
200.66
20
-80.0197
11
200.396
21
-79.9732
0
LINE
8
BLACK
6
CONTINUOUS
10
200.396
20
-79.9732
11
200.164
21
-79.8392
0
LINE
8
BLACK
6
CONTINUOUS
10
200.164
20
-79.8392
11
199.992
21
-79.6339
0
LINE
8
BLACK
6
CONTINUOUS
10
199.992
20
-79.6339
11
199.9
21
-79.382
0
LINE
8
BLACK
6
CONTINUOUS
10
199.9
20
-79.382
11
199.9
21
-79.114
0
LINE
8
BLACK
6
CONTINUOUS
10
199.9
20
-79.114
11
199.992
21
-78.8621
0
LINE
8
BLACK
6
CONTINUOUS
10
199.992
20
-78.8621
11
200.164
21
-78.6568
0
LINE
8
BLACK
6
CONTINUOUS
10
200.164
20
-78.6568
11
200.396
21
-78.5228
0
LINE
8
BLACK
6
CONTINUOUS
10
200.396
20
-78.5228
11
200.66
21
-78.4763
0
LINE
8
BLACK
6
CONTINUOUS
10
200.66
20
-78.4763
11
200.924
21
-78.5228
0
LINE
8
BLACK
6
CONTINUOUS
10
203.464
20
-78.5228
11
203.696
21
-78.6568
0
LINE
8
BLACK
6
CONTINUOUS
10
203.696
20
-78.6568
11
203.868
21
-78.8621
0
LINE
8
BLACK
6
CONTINUOUS
10
203.868
20
-78.8621
11
203.96
21
-79.114
0
LINE
8
BLACK
6
CONTINUOUS
10
203.96
20
-79.114
11
203.96
21
-79.382
0
LINE
8
BLACK
6
CONTINUOUS
10
203.96
20
-79.382
11
203.868
21
-79.6339
0
LINE
8
BLACK
6
CONTINUOUS
10
203.868
20
-79.6339
11
203.696
21
-79.8392
0
LINE
8
BLACK
6
CONTINUOUS
10
203.696
20
-79.8392
11
203.464
21
-79.9732
0
LINE
8
BLACK
6
CONTINUOUS
10
203.464
20
-79.9732
11
203.2
21
-80.0197
0
LINE
8
BLACK
6
CONTINUOUS
10
203.2
20
-80.0197
11
202.936
21
-79.9732
0
LINE
8
BLACK
6
CONTINUOUS
10
202.936
20
-79.9732
11
202.704
21
-79.8392
0
LINE
8
BLACK
6
CONTINUOUS
10
202.704
20
-79.8392
11
202.532
21
-79.6339
0
LINE
8
BLACK
6
CONTINUOUS
10
202.532
20
-79.6339
11
202.44
21
-79.382
0
LINE
8
BLACK
6
CONTINUOUS
10
202.44
20
-79.382
11
202.44
21
-79.114
0
LINE
8
BLACK
6
CONTINUOUS
10
202.44
20
-79.114
11
202.532
21
-78.8621
0
LINE
8
BLACK
6
CONTINUOUS
10
202.532
20
-78.8621
11
202.704
21
-78.6568
0
LINE
8
BLACK
6
CONTINUOUS
10
202.704
20
-78.6568
11
202.936
21
-78.5228
0
LINE
8
BLACK
6
CONTINUOUS
10
202.936
20
-78.5228
11
203.2
21
-78.4763
0
LINE
8
BLACK
6
CONTINUOUS
10
203.2
20
-78.4763
11
203.464
21
-78.5228
0
LINE
8
BLACK
6
CONTINUOUS
10
206.004
20
-78.5228
11
206.236
21
-78.6568
0
LINE
8
BLACK
6
CONTINUOUS
10
206.236
20
-78.6568
11
206.408
21
-78.8621
0
LINE
8
BLACK
6
CONTINUOUS
10
206.408
20
-78.8621
11
206.5
21
-79.114
0
LINE
8
BLACK
6
CONTINUOUS
10
206.5
20
-79.114
11
206.5
21
-79.382
0
LINE
8
BLACK
6
CONTINUOUS
10
206.5
20
-79.382
11
206.408
21
-79.6339
0
LINE
8
BLACK
6
CONTINUOUS
10
206.408
20
-79.6339
11
206.236
21
-79.8392
0
LINE
8
BLACK
6
CONTINUOUS
10
206.236
20
-79.8392
11
206.004
21
-79.9732
0
LINE
8
BLACK
6
CONTINUOUS
10
206.004
20
-79.9732
11
205.74
21
-80.0197
0
LINE
8
BLACK
6
CONTINUOUS
10
205.74
20
-80.0197
11
205.476
21
-79.9732
0
LINE
8
BLACK
6
CONTINUOUS
10
205.476
20
-79.9732
11
205.244
21
-79.8392
0
LINE
8
BLACK
6
CONTINUOUS
10
205.244
20
-79.8392
11
205.072
21
-79.6339
0
LINE
8
BLACK
6
CONTINUOUS
10
205.072
20
-79.6339
11
204.98
21
-79.382
0
LINE
8
BLACK
6
CONTINUOUS
10
204.98
20
-79.382
11
204.98
21
-79.114
0
LINE
8
BLACK
6
CONTINUOUS
10
204.98
20
-79.114
11
205.072
21
-78.8621
0
LINE
8
BLACK
6
CONTINUOUS
10
205.072
20
-78.8621
11
205.244
21
-78.6568
0
LINE
8
BLACK
6
CONTINUOUS
10
205.244
20
-78.6568
11
205.476
21
-78.5228
0
LINE
8
BLACK
6
CONTINUOUS
10
205.476
20
-78.5228
11
205.74
21
-78.4763
0
LINE
8
BLACK
6
CONTINUOUS
10
205.74
20
-78.4763
11
206.004
21
-78.5228
0
LINE
8
BLACK
6
CONTINUOUS
10
208.544
20
-78.5228
11
208.776
21
-78.6568
0
LINE
8
BLACK
6
CONTINUOUS
10
208.776
20
-78.6568
11
208.948
21
-78.8621
0
LINE
8
BLACK
6
CONTINUOUS
10
208.948
20
-78.8621
11
209.04
21
-79.114
0
LINE
8
BLACK
6
CONTINUOUS
10
209.04
20
-79.114
11
209.04
21
-79.382
0
LINE
8
BLACK
6
CONTINUOUS
10
209.04
20
-79.382
11
208.948
21
-79.6339
0
LINE
8
BLACK
6
CONTINUOUS
10
208.948
20
-79.6339
11
208.776
21
-79.8392
0
LINE
8
BLACK
6
CONTINUOUS
10
208.776
20
-79.8392
11
208.544
21
-79.9732
0
LINE
8
BLACK
6
CONTINUOUS
10
208.544
20
-79.9732
11
208.28
21
-80.0197
0
LINE
8
BLACK
6
CONTINUOUS
10
208.28
20
-80.0197
11
208.016
21
-79.9732
0
LINE
8
BLACK
6
CONTINUOUS
10
208.016
20
-79.9732
11
207.784
21
-79.8392
0
LINE
8
BLACK
6
CONTINUOUS
10
207.784
20
-79.8392
11
207.612
21
-79.6339
0
LINE
8
BLACK
6
CONTINUOUS
10
207.612
20
-79.6339
11
207.52
21
-79.382
0
LINE
8
BLACK
6
CONTINUOUS
10
207.52
20
-79.382
11
207.52
21
-79.114
0
LINE
8
BLACK
6
CONTINUOUS
10
207.52
20
-79.114
11
207.612
21
-78.8621
0
LINE
8
BLACK
6
CONTINUOUS
10
207.612
20
-78.8621
11
207.784
21
-78.6568
0
LINE
8
BLACK
6
CONTINUOUS
10
207.784
20
-78.6568
11
208.016
21
-78.5228
0
LINE
8
BLACK
6
CONTINUOUS
10
208.016
20
-78.5228
11
208.28
21
-78.4763
0
LINE
8
BLACK
6
CONTINUOUS
10
208.28
20
-78.4763
11
208.544
21
-78.5228
0
LINE
8
BLACK
6
CONTINUOUS
10
142.504
20
-78.5228
11
142.736
21
-78.6568
0
LINE
8
BLACK
6
CONTINUOUS
10
142.736
20
-78.6568
11
142.908
21
-78.8621
0
LINE
8
BLACK
6
CONTINUOUS
10
142.908
20
-78.8621
11
143
21
-79.114
0
LINE
8
BLACK
6
CONTINUOUS
10
143
20
-79.114
11
143
21
-79.382
0
LINE
8
BLACK
6
CONTINUOUS
10
143
20
-79.382
11
142.908
21
-79.6339
0
LINE
8
BLACK
6
CONTINUOUS
10
142.908
20
-79.6339
11
142.736
21
-79.8392
0
LINE
8
BLACK
6
CONTINUOUS
10
142.736
20
-79.8392
11
142.504
21
-79.9732
0
LINE
8
BLACK
6
CONTINUOUS
10
142.504
20
-79.9732
11
142.24
21
-80.0197
0
LINE
8
BLACK
6
CONTINUOUS
10
142.24
20
-80.0197
11
141.976
21
-79.9732
0
LINE
8
BLACK
6
CONTINUOUS
10
141.976
20
-79.9732
11
141.744
21
-79.8392
0
LINE
8
BLACK
6
CONTINUOUS
10
141.744
20
-79.8392
11
141.572
21
-79.6339
0
LINE
8
BLACK
6
CONTINUOUS
10
141.572
20
-79.6339
11
141.48
21
-79.382
0
LINE
8
BLACK
6
CONTINUOUS
10
141.48
20
-79.382
11
141.48
21
-79.114
0
LINE
8
BLACK
6
CONTINUOUS
10
141.48
20
-79.114
11
141.572
21
-78.8621
0
LINE
8
BLACK
6
CONTINUOUS
10
141.572
20
-78.8621
11
141.744
21
-78.6568
0
LINE
8
BLACK
6
CONTINUOUS
10
141.744
20
-78.6568
11
141.976
21
-78.5228
0
LINE
8
BLACK
6
CONTINUOUS
10
141.976
20
-78.5228
11
142.24
21
-78.4763
0
LINE
8
BLACK
6
CONTINUOUS
10
142.24
20
-78.4763
11
142.504
21
-78.5228
0
LINE
8
BLACK
6
CONTINUOUS
10
139.964
20
-78.5228
11
140.196
21
-78.6568
0
LINE
8
BLACK
6
CONTINUOUS
10
140.196
20
-78.6568
11
140.368
21
-78.8621
0
LINE
8
BLACK
6
CONTINUOUS
10
140.368
20
-78.8621
11
140.46
21
-79.114
0
LINE
8
BLACK
6
CONTINUOUS
10
140.46
20
-79.114
11
140.46
21
-79.382
0
LINE
8
BLACK
6
CONTINUOUS
10
140.46
20
-79.382
11
140.368
21
-79.6339
0
LINE
8
BLACK
6
CONTINUOUS
10
140.368
20
-79.6339
11
140.196
21
-79.8392
0
LINE
8
BLACK
6
CONTINUOUS
10
140.196
20
-79.8392
11
139.964
21
-79.9732
0
LINE
8
BLACK
6
CONTINUOUS
10
139.964
20
-79.9732
11
139.7
21
-80.0197
0
LINE
8
BLACK
6
CONTINUOUS
10
139.7
20
-80.0197
11
139.436
21
-79.9732
0
LINE
8
BLACK
6
CONTINUOUS
10
139.436
20
-79.9732
11
139.204
21
-79.8392
0
LINE
8
BLACK
6
CONTINUOUS
10
139.204
20
-79.8392
11
139.032
21
-79.6339
0
LINE
8
BLACK
6
CONTINUOUS
10
139.032
20
-79.6339
11
138.94
21
-79.382
0
LINE
8
BLACK
6
CONTINUOUS
10
138.94
20
-79.382
11
138.94
21
-79.114
0
LINE
8
BLACK
6
CONTINUOUS
10
138.94
20
-79.114
11
139.032
21
-78.8621
0
LINE
8
BLACK
6
CONTINUOUS
10
139.032
20
-78.8621
11
139.204
21
-78.6568
0
LINE
8
BLACK
6
CONTINUOUS
10
139.204
20
-78.6568
11
139.436
21
-78.5228
0
LINE
8
BLACK
6
CONTINUOUS
10
139.436
20
-78.5228
11
139.7
21
-78.4763
0
LINE
8
BLACK
6
CONTINUOUS
10
139.7
20
-78.4763
11
139.964
21
-78.5228
0
LINE
8
BLACK
6
CONTINUOUS
10
137.424
20
-78.5228
11
137.656
21
-78.6568
0
LINE
8
BLACK
6
CONTINUOUS
10
137.656
20
-78.6568
11
137.828
21
-78.8621
0
LINE
8
BLACK
6
CONTINUOUS
10
137.828
20
-78.8621
11
137.92
21
-79.114
0
LINE
8
BLACK
6
CONTINUOUS
10
137.92
20
-79.114
11
137.92
21
-79.382
0
LINE
8
BLACK
6
CONTINUOUS
10
137.92
20
-79.382
11
137.828
21
-79.6339
0
LINE
8
BLACK
6
CONTINUOUS
10
137.828
20
-79.6339
11
137.656
21
-79.8392
0
LINE
8
BLACK
6
CONTINUOUS
10
137.656
20
-79.8392
11
137.424
21
-79.9732
0
LINE
8
BLACK
6
CONTINUOUS
10
137.424
20
-79.9732
11
137.16
21
-80.0197
0
LINE
8
BLACK
6
CONTINUOUS
10
137.16
20
-80.0197
11
136.896
21
-79.9732
0
LINE
8
BLACK
6
CONTINUOUS
10
136.896
20
-79.9732
11
136.664
21
-79.8392
0
LINE
8
BLACK
6
CONTINUOUS
10
136.664
20
-79.8392
11
136.492
21
-79.6339
0
LINE
8
BLACK
6
CONTINUOUS
10
136.492
20
-79.6339
11
136.4
21
-79.382
0
LINE
8
BLACK
6
CONTINUOUS
10
136.4
20
-79.382
11
136.4
21
-79.114
0
LINE
8
BLACK
6
CONTINUOUS
10
136.4
20
-79.114
11
136.492
21
-78.8621
0
LINE
8
BLACK
6
CONTINUOUS
10
136.492
20
-78.8621
11
136.664
21
-78.6568
0
LINE
8
BLACK
6
CONTINUOUS
10
136.664
20
-78.6568
11
136.896
21
-78.5228
0
LINE
8
BLACK
6
CONTINUOUS
10
136.896
20
-78.5228
11
137.16
21
-78.4763
0
LINE
8
BLACK
6
CONTINUOUS
10
137.16
20
-78.4763
11
137.424
21
-78.5228
0
LINE
8
BLACK
6
CONTINUOUS
10
134.884
20
-78.5228
11
135.116
21
-78.6568
0
LINE
8
BLACK
6
CONTINUOUS
10
135.116
20
-78.6568
11
135.288
21
-78.8621
0
LINE
8
BLACK
6
CONTINUOUS
10
135.288
20
-78.8621
11
135.38
21
-79.114
0
LINE
8
BLACK
6
CONTINUOUS
10
135.38
20
-79.114
11
135.38
21
-79.382
0
LINE
8
BLACK
6
CONTINUOUS
10
135.38
20
-79.382
11
135.288
21
-79.6339
0
LINE
8
BLACK
6
CONTINUOUS
10
135.288
20
-79.6339
11
135.116
21
-79.8392
0
LINE
8
BLACK
6
CONTINUOUS
10
135.116
20
-79.8392
11
134.884
21
-79.9732
0
LINE
8
BLACK
6
CONTINUOUS
10
134.884
20
-79.9732
11
134.62
21
-80.0197
0
LINE
8
BLACK
6
CONTINUOUS
10
134.62
20
-80.0197
11
134.356
21
-79.9732
0
LINE
8
BLACK
6
CONTINUOUS
10
134.356
20
-79.9732
11
134.124
21
-79.8392
0
LINE
8
BLACK
6
CONTINUOUS
10
134.124
20
-79.8392
11
133.952
21
-79.6339
0
LINE
8
BLACK
6
CONTINUOUS
10
133.952
20
-79.6339
11
133.86
21
-79.382
0
LINE
8
BLACK
6
CONTINUOUS
10
133.86
20
-79.382
11
133.86
21
-79.114
0
LINE
8
BLACK
6
CONTINUOUS
10
133.86
20
-79.114
11
133.952
21
-78.8621
0
LINE
8
BLACK
6
CONTINUOUS
10
133.952
20
-78.8621
11
134.124
21
-78.6568
0
LINE
8
BLACK
6
CONTINUOUS
10
134.124
20
-78.6568
11
134.356
21
-78.5228
0
LINE
8
BLACK
6
CONTINUOUS
10
134.356
20
-78.5228
11
134.62
21
-78.4763
0
LINE
8
BLACK
6
CONTINUOUS
10
134.62
20
-78.4763
11
134.884
21
-78.5228
0
LINE
8
BLACK
6
CONTINUOUS
10
132.344
20
-78.5228
11
132.576
21
-78.6568
0
LINE
8
BLACK
6
CONTINUOUS
10
132.576
20
-78.6568
11
132.748
21
-78.8621
0
LINE
8
BLACK
6
CONTINUOUS
10
132.748
20
-78.8621
11
132.84
21
-79.114
0
LINE
8
BLACK
6
CONTINUOUS
10
132.84
20
-79.114
11
132.84
21
-79.382
0
LINE
8
BLACK
6
CONTINUOUS
10
132.84
20
-79.382
11
132.748
21
-79.6339
0
LINE
8
BLACK
6
CONTINUOUS
10
132.748
20
-79.6339
11
132.576
21
-79.8392
0
LINE
8
BLACK
6
CONTINUOUS
10
132.576
20
-79.8392
11
132.344
21
-79.9732
0
LINE
8
BLACK
6
CONTINUOUS
10
132.344
20
-79.9732
11
132.08
21
-80.0197
0
LINE
8
BLACK
6
CONTINUOUS
10
132.08
20
-80.0197
11
131.816
21
-79.9732
0
LINE
8
BLACK
6
CONTINUOUS
10
131.816
20
-79.9732
11
131.584
21
-79.8392
0
LINE
8
BLACK
6
CONTINUOUS
10
131.584
20
-79.8392
11
131.412
21
-79.6339
0
LINE
8
BLACK
6
CONTINUOUS
10
131.412
20
-79.6339
11
131.32
21
-79.382
0
LINE
8
BLACK
6
CONTINUOUS
10
131.32
20
-79.382
11
131.32
21
-79.114
0
LINE
8
BLACK
6
CONTINUOUS
10
131.32
20
-79.114
11
131.412
21
-78.8621
0
LINE
8
BLACK
6
CONTINUOUS
10
131.412
20
-78.8621
11
131.584
21
-78.6568
0
LINE
8
BLACK
6
CONTINUOUS
10
131.584
20
-78.6568
11
131.816
21
-78.5228
0
LINE
8
BLACK
6
CONTINUOUS
10
131.816
20
-78.5228
11
132.08
21
-78.4763
0
LINE
8
BLACK
6
CONTINUOUS
10
132.08
20
-78.4763
11
132.344
21
-78.5228
0
LINE
8
BLACK
6
CONTINUOUS
10
129.804
20
-78.5228
11
130.036
21
-78.6568
0
LINE
8
BLACK
6
CONTINUOUS
10
130.036
20
-78.6568
11
130.208
21
-78.8621
0
LINE
8
BLACK
6
CONTINUOUS
10
130.208
20
-78.8621
11
130.3
21
-79.114
0
LINE
8
BLACK
6
CONTINUOUS
10
130.3
20
-79.114
11
130.3
21
-79.382
0
LINE
8
BLACK
6
CONTINUOUS
10
130.3
20
-79.382
11
130.208
21
-79.6339
0
LINE
8
BLACK
6
CONTINUOUS
10
130.208
20
-79.6339
11
130.036
21
-79.8392
0
LINE
8
BLACK
6
CONTINUOUS
10
130.036
20
-79.8392
11
129.804
21
-79.9732
0
LINE
8
BLACK
6
CONTINUOUS
10
129.804
20
-79.9732
11
129.54
21
-80.0197
0
LINE
8
BLACK
6
CONTINUOUS
10
129.54
20
-80.0197
11
129.276
21
-79.9732
0
LINE
8
BLACK
6
CONTINUOUS
10
129.276
20
-79.9732
11
129.044
21
-79.8392
0
LINE
8
BLACK
6
CONTINUOUS
10
129.044
20
-79.8392
11
128.872
21
-79.6339
0
LINE
8
BLACK
6
CONTINUOUS
10
128.872
20
-79.6339
11
128.78
21
-79.382
0
LINE
8
BLACK
6
CONTINUOUS
10
128.78
20
-79.382
11
128.78
21
-79.114
0
LINE
8
BLACK
6
CONTINUOUS
10
128.78
20
-79.114
11
128.872
21
-78.8621
0
LINE
8
BLACK
6
CONTINUOUS
10
128.872
20
-78.8621
11
129.044
21
-78.6568
0
LINE
8
BLACK
6
CONTINUOUS
10
129.044
20
-78.6568
11
129.276
21
-78.5228
0
LINE
8
BLACK
6
CONTINUOUS
10
129.276
20
-78.5228
11
129.54
21
-78.4763
0
LINE
8
BLACK
6
CONTINUOUS
10
129.54
20
-78.4763
11
129.804
21
-78.5228
0
LINE
8
BLACK
6
CONTINUOUS
10
127.264
20
-78.5228
11
127.496
21
-78.6568
0
LINE
8
BLACK
6
CONTINUOUS
10
127.496
20
-78.6568
11
127.668
21
-78.8621
0
LINE
8
BLACK
6
CONTINUOUS
10
127.668
20
-78.8621
11
127.76
21
-79.114
0
LINE
8
BLACK
6
CONTINUOUS
10
127.76
20
-79.114
11
127.76
21
-79.382
0
LINE
8
BLACK
6
CONTINUOUS
10
127.76
20
-79.382
11
127.668
21
-79.6339
0
LINE
8
BLACK
6
CONTINUOUS
10
127.668
20
-79.6339
11
127.496
21
-79.8392
0
LINE
8
BLACK
6
CONTINUOUS
10
127.496
20
-79.8392
11
127.264
21
-79.9732
0
LINE
8
BLACK
6
CONTINUOUS
10
127.264
20
-79.9732
11
127
21
-80.0197
0
LINE
8
BLACK
6
CONTINUOUS
10
127
20
-80.0197
11
126.736
21
-79.9732
0
LINE
8
BLACK
6
CONTINUOUS
10
126.736
20
-79.9732
11
126.504
21
-79.8392
0
LINE
8
BLACK
6
CONTINUOUS
10
126.504
20
-79.8392
11
126.332
21
-79.6339
0
LINE
8
BLACK
6
CONTINUOUS
10
126.332
20
-79.6339
11
126.24
21
-79.382
0
LINE
8
BLACK
6
CONTINUOUS
10
126.24
20
-79.382
11
126.24
21
-79.114
0
LINE
8
BLACK
6
CONTINUOUS
10
126.24
20
-79.114
11
126.332
21
-78.8621
0
LINE
8
BLACK
6
CONTINUOUS
10
126.332
20
-78.8621
11
126.504
21
-78.6568
0
LINE
8
BLACK
6
CONTINUOUS
10
126.504
20
-78.6568
11
126.736
21
-78.5228
0
LINE
8
BLACK
6
CONTINUOUS
10
126.736
20
-78.5228
11
127
21
-78.4763
0
LINE
8
BLACK
6
CONTINUOUS
10
127
20
-78.4763
11
127.264
21
-78.5228
0
LINE
8
BLACK
6
CONTINUOUS
10
124.724
20
-78.5228
11
124.956
21
-78.6568
0
LINE
8
BLACK
6
CONTINUOUS
10
124.956
20
-78.6568
11
125.128
21
-78.8621
0
LINE
8
BLACK
6
CONTINUOUS
10
125.128
20
-78.8621
11
125.22
21
-79.114
0
LINE
8
BLACK
6
CONTINUOUS
10
125.22
20
-79.114
11
125.22
21
-79.382
0
LINE
8
BLACK
6
CONTINUOUS
10
125.22
20
-79.382
11
125.128
21
-79.6339
0
LINE
8
BLACK
6
CONTINUOUS
10
125.128
20
-79.6339
11
124.956
21
-79.8392
0
LINE
8
BLACK
6
CONTINUOUS
10
124.956
20
-79.8392
11
124.724
21
-79.9732
0
LINE
8
BLACK
6
CONTINUOUS
10
124.724
20
-79.9732
11
124.46
21
-80.0197
0
LINE
8
BLACK
6
CONTINUOUS
10
124.46
20
-80.0197
11
124.196
21
-79.9732
0
LINE
8
BLACK
6
CONTINUOUS
10
124.196
20
-79.9732
11
123.964
21
-79.8392
0
LINE
8
BLACK
6
CONTINUOUS
10
123.964
20
-79.8392
11
123.792
21
-79.6339
0
LINE
8
BLACK
6
CONTINUOUS
10
123.792
20
-79.6339
11
123.7
21
-79.382
0
LINE
8
BLACK
6
CONTINUOUS
10
123.7
20
-79.382
11
123.7
21
-79.114
0
LINE
8
BLACK
6
CONTINUOUS
10
123.7
20
-79.114
11
123.792
21
-78.8621
0
LINE
8
BLACK
6
CONTINUOUS
10
123.792
20
-78.8621
11
123.964
21
-78.6568
0
LINE
8
BLACK
6
CONTINUOUS
10
123.964
20
-78.6568
11
124.196
21
-78.5228
0
LINE
8
BLACK
6
CONTINUOUS
10
124.196
20
-78.5228
11
124.46
21
-78.4763
0
LINE
8
BLACK
6
CONTINUOUS
10
124.46
20
-78.4763
11
124.724
21
-78.5228
0
LINE
8
BLACK
6
CONTINUOUS
10
122.184
20
-78.5228
11
122.416
21
-78.6568
0
LINE
8
BLACK
6
CONTINUOUS
10
122.416
20
-78.6568
11
122.588
21
-78.8621
0
LINE
8
BLACK
6
CONTINUOUS
10
122.588
20
-78.8621
11
122.68
21
-79.114
0
LINE
8
BLACK
6
CONTINUOUS
10
122.68
20
-79.114
11
122.68
21
-79.382
0
LINE
8
BLACK
6
CONTINUOUS
10
122.68
20
-79.382
11
122.588
21
-79.6339
0
LINE
8
BLACK
6
CONTINUOUS
10
122.588
20
-79.6339
11
122.416
21
-79.8392
0
LINE
8
BLACK
6
CONTINUOUS
10
122.416
20
-79.8392
11
122.184
21
-79.9732
0
LINE
8
BLACK
6
CONTINUOUS
10
122.184
20
-79.9732
11
121.92
21
-80.0197
0
LINE
8
BLACK
6
CONTINUOUS
10
121.92
20
-80.0197
11
121.656
21
-79.9732
0
LINE
8
BLACK
6
CONTINUOUS
10
121.656
20
-79.9732
11
121.424
21
-79.8392
0
LINE
8
BLACK
6
CONTINUOUS
10
121.424
20
-79.8392
11
121.252
21
-79.6339
0
LINE
8
BLACK
6
CONTINUOUS
10
121.252
20
-79.6339
11
121.16
21
-79.382
0
LINE
8
BLACK
6
CONTINUOUS
10
121.16
20
-79.382
11
121.16
21
-79.114
0
LINE
8
BLACK
6
CONTINUOUS
10
121.16
20
-79.114
11
121.252
21
-78.8621
0
LINE
8
BLACK
6
CONTINUOUS
10
121.252
20
-78.8621
11
121.424
21
-78.6568
0
LINE
8
BLACK
6
CONTINUOUS
10
121.424
20
-78.6568
11
121.656
21
-78.5228
0
LINE
8
BLACK
6
CONTINUOUS
10
121.656
20
-78.5228
11
121.92
21
-78.4763
0
LINE
8
BLACK
6
CONTINUOUS
10
121.92
20
-78.4763
11
122.184
21
-78.5228
0
LINE
8
BLACK
6
CONTINUOUS
10
190.764
20
-75.9828
11
190.996
21
-76.1168
0
LINE
8
BLACK
6
CONTINUOUS
10
190.996
20
-76.1168
11
191.168
21
-76.3221
0
LINE
8
BLACK
6
CONTINUOUS
10
191.168
20
-76.3221
11
191.26
21
-76.574
0
LINE
8
BLACK
6
CONTINUOUS
10
191.26
20
-76.574
11
191.26
21
-76.842
0
LINE
8
BLACK
6
CONTINUOUS
10
191.26
20
-76.842
11
191.168
21
-77.0939
0
LINE
8
BLACK
6
CONTINUOUS
10
191.168
20
-77.0939
11
190.996
21
-77.2992
0
LINE
8
BLACK
6
CONTINUOUS
10
190.996
20
-77.2992
11
190.764
21
-77.4332
0
LINE
8
BLACK
6
CONTINUOUS
10
190.764
20
-77.4332
11
190.5
21
-77.4797
0
LINE
8
BLACK
6
CONTINUOUS
10
190.5
20
-77.4797
11
190.236
21
-77.4332
0
LINE
8
BLACK
6
CONTINUOUS
10
190.236
20
-77.4332
11
190.004
21
-77.2992
0
LINE
8
BLACK
6
CONTINUOUS
10
190.004
20
-77.2992
11
189.832
21
-77.0939
0
LINE
8
BLACK
6
CONTINUOUS
10
189.832
20
-77.0939
11
189.74
21
-76.842
0
LINE
8
BLACK
6
CONTINUOUS
10
189.74
20
-76.842
11
189.74
21
-76.574
0
LINE
8
BLACK
6
CONTINUOUS
10
189.74
20
-76.574
11
189.832
21
-76.3221
0
LINE
8
BLACK
6
CONTINUOUS
10
189.832
20
-76.3221
11
190.004
21
-76.1168
0
LINE
8
BLACK
6
CONTINUOUS
10
190.004
20
-76.1168
11
190.236
21
-75.9828
0
LINE
8
BLACK
6
CONTINUOUS
10
190.236
20
-75.9828
11
190.5
21
-75.9363
0
LINE
8
BLACK
6
CONTINUOUS
10
190.5
20
-75.9363
11
190.764
21
-75.9828
0
LINE
8
BLACK
6
CONTINUOUS
10
188.224
20
-75.9828
11
188.456
21
-76.1168
0
LINE
8
BLACK
6
CONTINUOUS
10
188.456
20
-76.1168
11
188.628
21
-76.3221
0
LINE
8
BLACK
6
CONTINUOUS
10
188.628
20
-76.3221
11
188.72
21
-76.574
0
LINE
8
BLACK
6
CONTINUOUS
10
188.72
20
-76.574
11
188.72
21
-76.842
0
LINE
8
BLACK
6
CONTINUOUS
10
188.72
20
-76.842
11
188.628
21
-77.0939
0
LINE
8
BLACK
6
CONTINUOUS
10
188.628
20
-77.0939
11
188.456
21
-77.2992
0
LINE
8
BLACK
6
CONTINUOUS
10
188.456
20
-77.2992
11
188.224
21
-77.4332
0
LINE
8
BLACK
6
CONTINUOUS
10
188.224
20
-77.4332
11
187.96
21
-77.4797
0
LINE
8
BLACK
6
CONTINUOUS
10
187.96
20
-77.4797
11
187.696
21
-77.4332
0
LINE
8
BLACK
6
CONTINUOUS
10
187.696
20
-77.4332
11
187.464
21
-77.2992
0
LINE
8
BLACK
6
CONTINUOUS
10
187.464
20
-77.2992
11
187.292
21
-77.0939
0
LINE
8
BLACK
6
CONTINUOUS
10
187.292
20
-77.0939
11
187.2
21
-76.842
0
LINE
8
BLACK
6
CONTINUOUS
10
187.2
20
-76.842
11
187.2
21
-76.574
0
LINE
8
BLACK
6
CONTINUOUS
10
187.2
20
-76.574
11
187.292
21
-76.3221
0
LINE
8
BLACK
6
CONTINUOUS
10
187.292
20
-76.3221
11
187.464
21
-76.1168
0
LINE
8
BLACK
6
CONTINUOUS
10
187.464
20
-76.1168
11
187.696
21
-75.9828
0
LINE
8
BLACK
6
CONTINUOUS
10
187.696
20
-75.9828
11
187.96
21
-75.9363
0
LINE
8
BLACK
6
CONTINUOUS
10
187.96
20
-75.9363
11
188.224
21
-75.9828
0
LINE
8
BLACK
6
CONTINUOUS
10
185.684
20
-75.9828
11
185.916
21
-76.1168
0
LINE
8
BLACK
6
CONTINUOUS
10
185.916
20
-76.1168
11
186.088
21
-76.3221
0
LINE
8
BLACK
6
CONTINUOUS
10
186.088
20
-76.3221
11
186.18
21
-76.574
0
LINE
8
BLACK
6
CONTINUOUS
10
186.18
20
-76.574
11
186.18
21
-76.842
0
LINE
8
BLACK
6
CONTINUOUS
10
186.18
20
-76.842
11
186.088
21
-77.0939
0
LINE
8
BLACK
6
CONTINUOUS
10
186.088
20
-77.0939
11
185.916
21
-77.2992
0
LINE
8
BLACK
6
CONTINUOUS
10
185.916
20
-77.2992
11
185.684
21
-77.4332
0
LINE
8
BLACK
6
CONTINUOUS
10
185.684
20
-77.4332
11
185.42
21
-77.4797
0
LINE
8
BLACK
6
CONTINUOUS
10
185.42
20
-77.4797
11
185.156
21
-77.4332
0
LINE
8
BLACK
6
CONTINUOUS
10
185.156
20
-77.4332
11
184.924
21
-77.2992
0
LINE
8
BLACK
6
CONTINUOUS
10
184.924
20
-77.2992
11
184.752
21
-77.0939
0
LINE
8
BLACK
6
CONTINUOUS
10
184.752
20
-77.0939
11
184.66
21
-76.842
0
LINE
8
BLACK
6
CONTINUOUS
10
184.66
20
-76.842
11
184.66
21
-76.574
0
LINE
8
BLACK
6
CONTINUOUS
10
184.66
20
-76.574
11
184.752
21
-76.3221
0
LINE
8
BLACK
6
CONTINUOUS
10
184.752
20
-76.3221
11
184.924
21
-76.1168
0
LINE
8
BLACK
6
CONTINUOUS
10
184.924
20
-76.1168
11
185.156
21
-75.9828
0
LINE
8
BLACK
6
CONTINUOUS
10
185.156
20
-75.9828
11
185.42
21
-75.9363
0
LINE
8
BLACK
6
CONTINUOUS
10
185.42
20
-75.9363
11
185.684
21
-75.9828
0
LINE
8
BLACK
6
CONTINUOUS
10
206.004
20
-75.9828
11
206.236
21
-76.1168
0
LINE
8
BLACK
6
CONTINUOUS
10
206.236
20
-76.1168
11
206.408
21
-76.3221
0
LINE
8
BLACK
6
CONTINUOUS
10
206.408
20
-76.3221
11
206.5
21
-76.574
0
LINE
8
BLACK
6
CONTINUOUS
10
206.5
20
-76.574
11
206.5
21
-76.842
0
LINE
8
BLACK
6
CONTINUOUS
10
206.5
20
-76.842
11
206.408
21
-77.0939
0
LINE
8
BLACK
6
CONTINUOUS
10
206.408
20
-77.0939
11
206.236
21
-77.2992
0
LINE
8
BLACK
6
CONTINUOUS
10
206.236
20
-77.2992
11
206.004
21
-77.4332
0
LINE
8
BLACK
6
CONTINUOUS
10
206.004
20
-77.4332
11
205.74
21
-77.4797
0
LINE
8
BLACK
6
CONTINUOUS
10
205.74
20
-77.4797
11
205.476
21
-77.4332
0
LINE
8
BLACK
6
CONTINUOUS
10
205.476
20
-77.4332
11
205.244
21
-77.2992
0
LINE
8
BLACK
6
CONTINUOUS
10
205.244
20
-77.2992
11
205.072
21
-77.0939
0
LINE
8
BLACK
6
CONTINUOUS
10
205.072
20
-77.0939
11
204.98
21
-76.842
0
LINE
8
BLACK
6
CONTINUOUS
10
204.98
20
-76.842
11
204.98
21
-76.574
0
LINE
8
BLACK
6
CONTINUOUS
10
204.98
20
-76.574
11
205.072
21
-76.3221
0
LINE
8
BLACK
6
CONTINUOUS
10
205.072
20
-76.3221
11
205.244
21
-76.1168
0
LINE
8
BLACK
6
CONTINUOUS
10
205.244
20
-76.1168
11
205.476
21
-75.9828
0
LINE
8
BLACK
6
CONTINUOUS
10
205.476
20
-75.9828
11
205.74
21
-75.9363
0
LINE
8
BLACK
6
CONTINUOUS
10
205.74
20
-75.9363
11
206.004
21
-75.9828
0
LINE
8
BLACK
6
CONTINUOUS
10
145.044
20
-75.9828
11
145.276
21
-76.1168
0
LINE
8
BLACK
6
CONTINUOUS
10
145.276
20
-76.1168
11
145.448
21
-76.3221
0
LINE
8
BLACK
6
CONTINUOUS
10
145.448
20
-76.3221
11
145.54
21
-76.574
0
LINE
8
BLACK
6
CONTINUOUS
10
145.54
20
-76.574
11
145.54
21
-76.842
0
LINE
8
BLACK
6
CONTINUOUS
10
145.54
20
-76.842
11
145.448
21
-77.0939
0
LINE
8
BLACK
6
CONTINUOUS
10
145.448
20
-77.0939
11
145.276
21
-77.2992
0
LINE
8
BLACK
6
CONTINUOUS
10
145.276
20
-77.2992
11
145.044
21
-77.4332
0
LINE
8
BLACK
6
CONTINUOUS
10
145.044
20
-77.4332
11
144.78
21
-77.4797
0
LINE
8
BLACK
6
CONTINUOUS
10
144.78
20
-77.4797
11
144.516
21
-77.4332
0
LINE
8
BLACK
6
CONTINUOUS
10
144.516
20
-77.4332
11
144.284
21
-77.2992
0
LINE
8
BLACK
6
CONTINUOUS
10
144.284
20
-77.2992
11
144.112
21
-77.0939
0
LINE
8
BLACK
6
CONTINUOUS
10
144.112
20
-77.0939
11
144.02
21
-76.842
0
LINE
8
BLACK
6
CONTINUOUS
10
144.02
20
-76.842
11
144.02
21
-76.574
0
LINE
8
BLACK
6
CONTINUOUS
10
144.02
20
-76.574
11
144.112
21
-76.3221
0
LINE
8
BLACK
6
CONTINUOUS
10
144.112
20
-76.3221
11
144.284
21
-76.1168
0
LINE
8
BLACK
6
CONTINUOUS
10
144.284
20
-76.1168
11
144.516
21
-75.9828
0
LINE
8
BLACK
6
CONTINUOUS
10
144.516
20
-75.9828
11
144.78
21
-75.9363
0
LINE
8
BLACK
6
CONTINUOUS
10
144.78
20
-75.9363
11
145.044
21
-75.9828
0
LINE
8
BLACK
6
CONTINUOUS
10
195.844
20
-75.9828
11
196.076
21
-76.1168
0
LINE
8
BLACK
6
CONTINUOUS
10
196.076
20
-76.1168
11
196.248
21
-76.3221
0
LINE
8
BLACK
6
CONTINUOUS
10
196.248
20
-76.3221
11
196.34
21
-76.574
0
LINE
8
BLACK
6
CONTINUOUS
10
196.34
20
-76.574
11
196.34
21
-76.842
0
LINE
8
BLACK
6
CONTINUOUS
10
196.34
20
-76.842
11
196.248
21
-77.0939
0
LINE
8
BLACK
6
CONTINUOUS
10
196.248
20
-77.0939
11
196.076
21
-77.2992
0
LINE
8
BLACK
6
CONTINUOUS
10
196.076
20
-77.2992
11
195.844
21
-77.4332
0
LINE
8
BLACK
6
CONTINUOUS
10
195.844
20
-77.4332
11
195.58
21
-77.4797
0
LINE
8
BLACK
6
CONTINUOUS
10
195.58
20
-77.4797
11
195.316
21
-77.4332
0
LINE
8
BLACK
6
CONTINUOUS
10
195.316
20
-77.4332
11
195.084
21
-77.2992
0
LINE
8
BLACK
6
CONTINUOUS
10
195.084
20
-77.2992
11
194.912
21
-77.0939
0
LINE
8
BLACK
6
CONTINUOUS
10
194.912
20
-77.0939
11
194.82
21
-76.842
0
LINE
8
BLACK
6
CONTINUOUS
10
194.82
20
-76.842
11
194.82
21
-76.574
0
LINE
8
BLACK
6
CONTINUOUS
10
194.82
20
-76.574
11
194.912
21
-76.3221
0
LINE
8
BLACK
6
CONTINUOUS
10
194.912
20
-76.3221
11
195.084
21
-76.1168
0
LINE
8
BLACK
6
CONTINUOUS
10
195.084
20
-76.1168
11
195.316
21
-75.9828
0
LINE
8
BLACK
6
CONTINUOUS
10
195.316
20
-75.9828
11
195.58
21
-75.9363
0
LINE
8
BLACK
6
CONTINUOUS
10
195.58
20
-75.9363
11
195.844
21
-75.9828
0
LINE
8
BLACK
6
CONTINUOUS
10
193.304
20
-75.9828
11
193.536
21
-76.1168
0
LINE
8
BLACK
6
CONTINUOUS
10
193.536
20
-76.1168
11
193.708
21
-76.3221
0
LINE
8
BLACK
6
CONTINUOUS
10
193.708
20
-76.3221
11
193.8
21
-76.574
0
LINE
8
BLACK
6
CONTINUOUS
10
193.8
20
-76.574
11
193.8
21
-76.842
0
LINE
8
BLACK
6
CONTINUOUS
10
193.8
20
-76.842
11
193.708
21
-77.0939
0
LINE
8
BLACK
6
CONTINUOUS
10
193.708
20
-77.0939
11
193.536
21
-77.2992
0
LINE
8
BLACK
6
CONTINUOUS
10
193.536
20
-77.2992
11
193.304
21
-77.4332
0
LINE
8
BLACK
6
CONTINUOUS
10
193.304
20
-77.4332
11
193.04
21
-77.4797
0
LINE
8
BLACK
6
CONTINUOUS
10
193.04
20
-77.4797
11
192.776
21
-77.4332
0
LINE
8
BLACK
6
CONTINUOUS
10
192.776
20
-77.4332
11
192.544
21
-77.2992
0
LINE
8
BLACK
6
CONTINUOUS
10
192.544
20
-77.2992
11
192.372
21
-77.0939
0
LINE
8
BLACK
6
CONTINUOUS
10
192.372
20
-77.0939
11
192.28
21
-76.842
0
LINE
8
BLACK
6
CONTINUOUS
10
192.28
20
-76.842
11
192.28
21
-76.574
0
LINE
8
BLACK
6
CONTINUOUS
10
192.28
20
-76.574
11
192.372
21
-76.3221
0
LINE
8
BLACK
6
CONTINUOUS
10
192.372
20
-76.3221
11
192.544
21
-76.1168
0
LINE
8
BLACK
6
CONTINUOUS
10
192.544
20
-76.1168
11
192.776
21
-75.9828
0
LINE
8
BLACK
6
CONTINUOUS
10
192.776
20
-75.9828
11
193.04
21
-75.9363
0
LINE
8
BLACK
6
CONTINUOUS
10
193.04
20
-75.9363
11
193.304
21
-75.9828
0
LINE
8
BLACK
6
CONTINUOUS
10
208.544
20
-75.9828
11
208.776
21
-76.1168
0
LINE
8
BLACK
6
CONTINUOUS
10
208.776
20
-76.1168
11
208.948
21
-76.3221
0
LINE
8
BLACK
6
CONTINUOUS
10
208.948
20
-76.3221
11
209.04
21
-76.574
0
LINE
8
BLACK
6
CONTINUOUS
10
209.04
20
-76.574
11
209.04
21
-76.842
0
LINE
8
BLACK
6
CONTINUOUS
10
209.04
20
-76.842
11
208.948
21
-77.0939
0
LINE
8
BLACK
6
CONTINUOUS
10
208.948
20
-77.0939
11
208.776
21
-77.2992
0
LINE
8
BLACK
6
CONTINUOUS
10
208.776
20
-77.2992
11
208.544
21
-77.4332
0
LINE
8
BLACK
6
CONTINUOUS
10
208.544
20
-77.4332
11
208.28
21
-77.4797
0
LINE
8
BLACK
6
CONTINUOUS
10
208.28
20
-77.4797
11
208.016
21
-77.4332
0
LINE
8
BLACK
6
CONTINUOUS
10
208.016
20
-77.4332
11
207.784
21
-77.2992
0
LINE
8
BLACK
6
CONTINUOUS
10
207.784
20
-77.2992
11
207.612
21
-77.0939
0
LINE
8
BLACK
6
CONTINUOUS
10
207.612
20
-77.0939
11
207.52
21
-76.842
0
LINE
8
BLACK
6
CONTINUOUS
10
207.52
20
-76.842
11
207.52
21
-76.574
0
LINE
8
BLACK
6
CONTINUOUS
10
207.52
20
-76.574
11
207.612
21
-76.3221
0
LINE
8
BLACK
6
CONTINUOUS
10
207.612
20
-76.3221
11
207.784
21
-76.1168
0
LINE
8
BLACK
6
CONTINUOUS
10
207.784
20
-76.1168
11
208.016
21
-75.9828
0
LINE
8
BLACK
6
CONTINUOUS
10
208.016
20
-75.9828
11
208.28
21
-75.9363
0
LINE
8
BLACK
6
CONTINUOUS
10
208.28
20
-75.9363
11
208.544
21
-75.9828
0
LINE
8
BLACK
6
CONTINUOUS
10
203.464
20
-75.9828
11
203.696
21
-76.1168
0
LINE
8
BLACK
6
CONTINUOUS
10
203.696
20
-76.1168
11
203.868
21
-76.3221
0
LINE
8
BLACK
6
CONTINUOUS
10
203.868
20
-76.3221
11
203.96
21
-76.574
0
LINE
8
BLACK
6
CONTINUOUS
10
203.96
20
-76.574
11
203.96
21
-76.842
0
LINE
8
BLACK
6
CONTINUOUS
10
203.96
20
-76.842
11
203.868
21
-77.0939
0
LINE
8
BLACK
6
CONTINUOUS
10
203.868
20
-77.0939
11
203.696
21
-77.2992
0
LINE
8
BLACK
6
CONTINUOUS
10
203.696
20
-77.2992
11
203.464
21
-77.4332
0
LINE
8
BLACK
6
CONTINUOUS
10
203.464
20
-77.4332
11
203.2
21
-77.4797
0
LINE
8
BLACK
6
CONTINUOUS
10
203.2
20
-77.4797
11
202.936
21
-77.4332
0
LINE
8
BLACK
6
CONTINUOUS
10
202.936
20
-77.4332
11
202.704
21
-77.2992
0
LINE
8
BLACK
6
CONTINUOUS
10
202.704
20
-77.2992
11
202.532
21
-77.0939
0
LINE
8
BLACK
6
CONTINUOUS
10
202.532
20
-77.0939
11
202.44
21
-76.842
0
LINE
8
BLACK
6
CONTINUOUS
10
202.44
20
-76.842
11
202.44
21
-76.574
0
LINE
8
BLACK
6
CONTINUOUS
10
202.44
20
-76.574
11
202.532
21
-76.3221
0
LINE
8
BLACK
6
CONTINUOUS
10
202.532
20
-76.3221
11
202.704
21
-76.1168
0
LINE
8
BLACK
6
CONTINUOUS
10
202.704
20
-76.1168
11
202.936
21
-75.9828
0
LINE
8
BLACK
6
CONTINUOUS
10
202.936
20
-75.9828
11
203.2
21
-75.9363
0
LINE
8
BLACK
6
CONTINUOUS
10
203.2
20
-75.9363
11
203.464
21
-75.9828
0
LINE
8
BLACK
6
CONTINUOUS
10
200.924
20
-75.9828
11
201.156
21
-76.1168
0
LINE
8
BLACK
6
CONTINUOUS
10
201.156
20
-76.1168
11
201.328
21
-76.3221
0
LINE
8
BLACK
6
CONTINUOUS
10
201.328
20
-76.3221
11
201.42
21
-76.574
0
LINE
8
BLACK
6
CONTINUOUS
10
201.42
20
-76.574
11
201.42
21
-76.842
0
LINE
8
BLACK
6
CONTINUOUS
10
201.42
20
-76.842
11
201.328
21
-77.0939
0
LINE
8
BLACK
6
CONTINUOUS
10
201.328
20
-77.0939
11
201.156
21
-77.2992
0
LINE
8
BLACK
6
CONTINUOUS
10
201.156
20
-77.2992
11
200.924
21
-77.4332
0
LINE
8
BLACK
6
CONTINUOUS
10
200.924
20
-77.4332
11
200.66
21
-77.4797
0
LINE
8
BLACK
6
CONTINUOUS
10
200.66
20
-77.4797
11
200.396
21
-77.4332
0
LINE
8
BLACK
6
CONTINUOUS
10
200.396
20
-77.4332
11
200.164
21
-77.2992
0
LINE
8
BLACK
6
CONTINUOUS
10
200.164
20
-77.2992
11
199.992
21
-77.0939
0
LINE
8
BLACK
6
CONTINUOUS
10
199.992
20
-77.0939
11
199.9
21
-76.842
0
LINE
8
BLACK
6
CONTINUOUS
10
199.9
20
-76.842
11
199.9
21
-76.574
0
LINE
8
BLACK
6
CONTINUOUS
10
199.9
20
-76.574
11
199.992
21
-76.3221
0
LINE
8
BLACK
6
CONTINUOUS
10
199.992
20
-76.3221
11
200.164
21
-76.1168
0
LINE
8
BLACK
6
CONTINUOUS
10
200.164
20
-76.1168
11
200.396
21
-75.9828
0
LINE
8
BLACK
6
CONTINUOUS
10
200.396
20
-75.9828
11
200.66
21
-75.9363
0
LINE
8
BLACK
6
CONTINUOUS
10
200.66
20
-75.9363
11
200.924
21
-75.9828
0
LINE
8
BLACK
6
CONTINUOUS
10
198.384
20
-75.9828
11
198.616
21
-76.1168
0
LINE
8
BLACK
6
CONTINUOUS
10
198.616
20
-76.1168
11
198.788
21
-76.3221
0
LINE
8
BLACK
6
CONTINUOUS
10
198.788
20
-76.3221
11
198.88
21
-76.574
0
LINE
8
BLACK
6
CONTINUOUS
10
198.88
20
-76.574
11
198.88
21
-76.842
0
LINE
8
BLACK
6
CONTINUOUS
10
198.88
20
-76.842
11
198.788
21
-77.0939
0
LINE
8
BLACK
6
CONTINUOUS
10
198.788
20
-77.0939
11
198.616
21
-77.2992
0
LINE
8
BLACK
6
CONTINUOUS
10
198.616
20
-77.2992
11
198.384
21
-77.4332
0
LINE
8
BLACK
6
CONTINUOUS
10
198.384
20
-77.4332
11
198.12
21
-77.4797
0
LINE
8
BLACK
6
CONTINUOUS
10
198.12
20
-77.4797
11
197.856
21
-77.4332
0
LINE
8
BLACK
6
CONTINUOUS
10
197.856
20
-77.4332
11
197.624
21
-77.2992
0
LINE
8
BLACK
6
CONTINUOUS
10
197.624
20
-77.2992
11
197.452
21
-77.0939
0
LINE
8
BLACK
6
CONTINUOUS
10
197.452
20
-77.0939
11
197.36
21
-76.842
0
LINE
8
BLACK
6
CONTINUOUS
10
197.36
20
-76.842
11
197.36
21
-76.574
0
LINE
8
BLACK
6
CONTINUOUS
10
197.36
20
-76.574
11
197.452
21
-76.3221
0
LINE
8
BLACK
6
CONTINUOUS
10
197.452
20
-76.3221
11
197.624
21
-76.1168
0
LINE
8
BLACK
6
CONTINUOUS
10
197.624
20
-76.1168
11
197.856
21
-75.9828
0
LINE
8
BLACK
6
CONTINUOUS
10
197.856
20
-75.9828
11
198.12
21
-75.9363
0
LINE
8
BLACK
6
CONTINUOUS
10
198.12
20
-75.9363
11
198.384
21
-75.9828
0
LINE
8
BLACK
6
CONTINUOUS
10
122.184
20
-75.9828
11
122.416
21
-76.1168
0
LINE
8
BLACK
6
CONTINUOUS
10
122.416
20
-76.1168
11
122.588
21
-76.3221
0
LINE
8
BLACK
6
CONTINUOUS
10
122.588
20
-76.3221
11
122.68
21
-76.574
0
LINE
8
BLACK
6
CONTINUOUS
10
122.68
20
-76.574
11
122.68
21
-76.842
0
LINE
8
BLACK
6
CONTINUOUS
10
122.68
20
-76.842
11
122.588
21
-77.0939
0
LINE
8
BLACK
6
CONTINUOUS
10
122.588
20
-77.0939
11
122.416
21
-77.2992
0
LINE
8
BLACK
6
CONTINUOUS
10
122.416
20
-77.2992
11
122.184
21
-77.4332
0
LINE
8
BLACK
6
CONTINUOUS
10
122.184
20
-77.4332
11
121.92
21
-77.4797
0
LINE
8
BLACK
6
CONTINUOUS
10
121.92
20
-77.4797
11
121.656
21
-77.4332
0
LINE
8
BLACK
6
CONTINUOUS
10
121.656
20
-77.4332
11
121.424
21
-77.2992
0
LINE
8
BLACK
6
CONTINUOUS
10
121.424
20
-77.2992
11
121.252
21
-77.0939
0
LINE
8
BLACK
6
CONTINUOUS
10
121.252
20
-77.0939
11
121.16
21
-76.842
0
LINE
8
BLACK
6
CONTINUOUS
10
121.16
20
-76.842
11
121.16
21
-76.574
0
LINE
8
BLACK
6
CONTINUOUS
10
121.16
20
-76.574
11
121.252
21
-76.3221
0
LINE
8
BLACK
6
CONTINUOUS
10
121.252
20
-76.3221
11
121.424
21
-76.1168
0
LINE
8
BLACK
6
CONTINUOUS
10
121.424
20
-76.1168
11
121.656
21
-75.9828
0
LINE
8
BLACK
6
CONTINUOUS
10
121.656
20
-75.9828
11
121.92
21
-75.9363
0
LINE
8
BLACK
6
CONTINUOUS
10
121.92
20
-75.9363
11
122.184
21
-75.9828
0
LINE
8
BLACK
6
CONTINUOUS
10
142.504
20
-75.9828
11
142.736
21
-76.1168
0
LINE
8
BLACK
6
CONTINUOUS
10
142.736
20
-76.1168
11
142.908
21
-76.3221
0
LINE
8
BLACK
6
CONTINUOUS
10
142.908
20
-76.3221
11
143
21
-76.574
0
LINE
8
BLACK
6
CONTINUOUS
10
143
20
-76.574
11
143
21
-76.842
0
LINE
8
BLACK
6
CONTINUOUS
10
143
20
-76.842
11
142.908
21
-77.0939
0
LINE
8
BLACK
6
CONTINUOUS
10
142.908
20
-77.0939
11
142.736
21
-77.2992
0
LINE
8
BLACK
6
CONTINUOUS
10
142.736
20
-77.2992
11
142.504
21
-77.4332
0
LINE
8
BLACK
6
CONTINUOUS
10
142.504
20
-77.4332
11
142.24
21
-77.4797
0
LINE
8
BLACK
6
CONTINUOUS
10
142.24
20
-77.4797
11
141.976
21
-77.4332
0
LINE
8
BLACK
6
CONTINUOUS
10
141.976
20
-77.4332
11
141.744
21
-77.2992
0
LINE
8
BLACK
6
CONTINUOUS
10
141.744
20
-77.2992
11
141.572
21
-77.0939
0
LINE
8
BLACK
6
CONTINUOUS
10
141.572
20
-77.0939
11
141.48
21
-76.842
0
LINE
8
BLACK
6
CONTINUOUS
10
141.48
20
-76.842
11
141.48
21
-76.574
0
LINE
8
BLACK
6
CONTINUOUS
10
141.48
20
-76.574
11
141.572
21
-76.3221
0
LINE
8
BLACK
6
CONTINUOUS
10
141.572
20
-76.3221
11
141.744
21
-76.1168
0
LINE
8
BLACK
6
CONTINUOUS
10
141.744
20
-76.1168
11
141.976
21
-75.9828
0
LINE
8
BLACK
6
CONTINUOUS
10
141.976
20
-75.9828
11
142.24
21
-75.9363
0
LINE
8
BLACK
6
CONTINUOUS
10
142.24
20
-75.9363
11
142.504
21
-75.9828
0
LINE
8
BLACK
6
CONTINUOUS
10
139.964
20
-75.9828
11
140.196
21
-76.1168
0
LINE
8
BLACK
6
CONTINUOUS
10
140.196
20
-76.1168
11
140.368
21
-76.3221
0
LINE
8
BLACK
6
CONTINUOUS
10
140.368
20
-76.3221
11
140.46
21
-76.574
0
LINE
8
BLACK
6
CONTINUOUS
10
140.46
20
-76.574
11
140.46
21
-76.842
0
LINE
8
BLACK
6
CONTINUOUS
10
140.46
20
-76.842
11
140.368
21
-77.0939
0
LINE
8
BLACK
6
CONTINUOUS
10
140.368
20
-77.0939
11
140.196
21
-77.2992
0
LINE
8
BLACK
6
CONTINUOUS
10
140.196
20
-77.2992
11
139.964
21
-77.4332
0
LINE
8
BLACK
6
CONTINUOUS
10
139.964
20
-77.4332
11
139.7
21
-77.4797
0
LINE
8
BLACK
6
CONTINUOUS
10
139.7
20
-77.4797
11
139.436
21
-77.4332
0
LINE
8
BLACK
6
CONTINUOUS
10
139.436
20
-77.4332
11
139.204
21
-77.2992
0
LINE
8
BLACK
6
CONTINUOUS
10
139.204
20
-77.2992
11
139.032
21
-77.0939
0
LINE
8
BLACK
6
CONTINUOUS
10
139.032
20
-77.0939
11
138.94
21
-76.842
0
LINE
8
BLACK
6
CONTINUOUS
10
138.94
20
-76.842
11
138.94
21
-76.574
0
LINE
8
BLACK
6
CONTINUOUS
10
138.94
20
-76.574
11
139.032
21
-76.3221
0
LINE
8
BLACK
6
CONTINUOUS
10
139.032
20
-76.3221
11
139.204
21
-76.1168
0
LINE
8
BLACK
6
CONTINUOUS
10
139.204
20
-76.1168
11
139.436
21
-75.9828
0
LINE
8
BLACK
6
CONTINUOUS
10
139.436
20
-75.9828
11
139.7
21
-75.9363
0
LINE
8
BLACK
6
CONTINUOUS
10
139.7
20
-75.9363
11
139.964
21
-75.9828
0
LINE
8
BLACK
6
CONTINUOUS
10
137.424
20
-75.9828
11
137.656
21
-76.1168
0
LINE
8
BLACK
6
CONTINUOUS
10
137.656
20
-76.1168
11
137.828
21
-76.3221
0
LINE
8
BLACK
6
CONTINUOUS
10
137.828
20
-76.3221
11
137.92
21
-76.574
0
LINE
8
BLACK
6
CONTINUOUS
10
137.92
20
-76.574
11
137.92
21
-76.842
0
LINE
8
BLACK
6
CONTINUOUS
10
137.92
20
-76.842
11
137.828
21
-77.0939
0
LINE
8
BLACK
6
CONTINUOUS
10
137.828
20
-77.0939
11
137.656
21
-77.2992
0
LINE
8
BLACK
6
CONTINUOUS
10
137.656
20
-77.2992
11
137.424
21
-77.4332
0
LINE
8
BLACK
6
CONTINUOUS
10
137.424
20
-77.4332
11
137.16
21
-77.4797
0
LINE
8
BLACK
6
CONTINUOUS
10
137.16
20
-77.4797
11
136.896
21
-77.4332
0
LINE
8
BLACK
6
CONTINUOUS
10
136.896
20
-77.4332
11
136.664
21
-77.2992
0
LINE
8
BLACK
6
CONTINUOUS
10
136.664
20
-77.2992
11
136.492
21
-77.0939
0
LINE
8
BLACK
6
CONTINUOUS
10
136.492
20
-77.0939
11
136.4
21
-76.842
0
LINE
8
BLACK
6
CONTINUOUS
10
136.4
20
-76.842
11
136.4
21
-76.574
0
LINE
8
BLACK
6
CONTINUOUS
10
136.4
20
-76.574
11
136.492
21
-76.3221
0
LINE
8
BLACK
6
CONTINUOUS
10
136.492
20
-76.3221
11
136.664
21
-76.1168
0
LINE
8
BLACK
6
CONTINUOUS
10
136.664
20
-76.1168
11
136.896
21
-75.9828
0
LINE
8
BLACK
6
CONTINUOUS
10
136.896
20
-75.9828
11
137.16
21
-75.9363
0
LINE
8
BLACK
6
CONTINUOUS
10
137.16
20
-75.9363
11
137.424
21
-75.9828
0
LINE
8
BLACK
6
CONTINUOUS
10
134.884
20
-75.9828
11
135.116
21
-76.1168
0
LINE
8
BLACK
6
CONTINUOUS
10
135.116
20
-76.1168
11
135.288
21
-76.3221
0
LINE
8
BLACK
6
CONTINUOUS
10
135.288
20
-76.3221
11
135.38
21
-76.574
0
LINE
8
BLACK
6
CONTINUOUS
10
135.38
20
-76.574
11
135.38
21
-76.842
0
LINE
8
BLACK
6
CONTINUOUS
10
135.38
20
-76.842
11
135.288
21
-77.0939
0
LINE
8
BLACK
6
CONTINUOUS
10
135.288
20
-77.0939
11
135.116
21
-77.2992
0
LINE
8
BLACK
6
CONTINUOUS
10
135.116
20
-77.2992
11
134.884
21
-77.4332
0
LINE
8
BLACK
6
CONTINUOUS
10
134.884
20
-77.4332
11
134.62
21
-77.4797
0
LINE
8
BLACK
6
CONTINUOUS
10
134.62
20
-77.4797
11
134.356
21
-77.4332
0
LINE
8
BLACK
6
CONTINUOUS
10
134.356
20
-77.4332
11
134.124
21
-77.2992
0
LINE
8
BLACK
6
CONTINUOUS
10
134.124
20
-77.2992
11
133.952
21
-77.0939
0
LINE
8
BLACK
6
CONTINUOUS
10
133.952
20
-77.0939
11
133.86
21
-76.842
0
LINE
8
BLACK
6
CONTINUOUS
10
133.86
20
-76.842
11
133.86
21
-76.574
0
LINE
8
BLACK
6
CONTINUOUS
10
133.86
20
-76.574
11
133.952
21
-76.3221
0
LINE
8
BLACK
6
CONTINUOUS
10
133.952
20
-76.3221
11
134.124
21
-76.1168
0
LINE
8
BLACK
6
CONTINUOUS
10
134.124
20
-76.1168
11
134.356
21
-75.9828
0
LINE
8
BLACK
6
CONTINUOUS
10
134.356
20
-75.9828
11
134.62
21
-75.9363
0
LINE
8
BLACK
6
CONTINUOUS
10
134.62
20
-75.9363
11
134.884
21
-75.9828
0
LINE
8
BLACK
6
CONTINUOUS
10
132.344
20
-75.9828
11
132.576
21
-76.1168
0
LINE
8
BLACK
6
CONTINUOUS
10
132.576
20
-76.1168
11
132.748
21
-76.3221
0
LINE
8
BLACK
6
CONTINUOUS
10
132.748
20
-76.3221
11
132.84
21
-76.574
0
LINE
8
BLACK
6
CONTINUOUS
10
132.84
20
-76.574
11
132.84
21
-76.842
0
LINE
8
BLACK
6
CONTINUOUS
10
132.84
20
-76.842
11
132.748
21
-77.0939
0
LINE
8
BLACK
6
CONTINUOUS
10
132.748
20
-77.0939
11
132.576
21
-77.2992
0
LINE
8
BLACK
6
CONTINUOUS
10
132.576
20
-77.2992
11
132.344
21
-77.4332
0
LINE
8
BLACK
6
CONTINUOUS
10
132.344
20
-77.4332
11
132.08
21
-77.4797
0
LINE
8
BLACK
6
CONTINUOUS
10
132.08
20
-77.4797
11
131.816
21
-77.4332
0
LINE
8
BLACK
6
CONTINUOUS
10
131.816
20
-77.4332
11
131.584
21
-77.2992
0
LINE
8
BLACK
6
CONTINUOUS
10
131.584
20
-77.2992
11
131.412
21
-77.0939
0
LINE
8
BLACK
6
CONTINUOUS
10
131.412
20
-77.0939
11
131.32
21
-76.842
0
LINE
8
BLACK
6
CONTINUOUS
10
131.32
20
-76.842
11
131.32
21
-76.574
0
LINE
8
BLACK
6
CONTINUOUS
10
131.32
20
-76.574
11
131.412
21
-76.3221
0
LINE
8
BLACK
6
CONTINUOUS
10
131.412
20
-76.3221
11
131.584
21
-76.1168
0
LINE
8
BLACK
6
CONTINUOUS
10
131.584
20
-76.1168
11
131.816
21
-75.9828
0
LINE
8
BLACK
6
CONTINUOUS
10
131.816
20
-75.9828
11
132.08
21
-75.9363
0
LINE
8
BLACK
6
CONTINUOUS
10
132.08
20
-75.9363
11
132.344
21
-75.9828
0
LINE
8
BLACK
6
CONTINUOUS
10
129.804
20
-75.9828
11
130.036
21
-76.1168
0
LINE
8
BLACK
6
CONTINUOUS
10
130.036
20
-76.1168
11
130.208
21
-76.3221
0
LINE
8
BLACK
6
CONTINUOUS
10
130.208
20
-76.3221
11
130.3
21
-76.574
0
LINE
8
BLACK
6
CONTINUOUS
10
130.3
20
-76.574
11
130.3
21
-76.842
0
LINE
8
BLACK
6
CONTINUOUS
10
130.3
20
-76.842
11
130.208
21
-77.0939
0
LINE
8
BLACK
6
CONTINUOUS
10
130.208
20
-77.0939
11
130.036
21
-77.2992
0
LINE
8
BLACK
6
CONTINUOUS
10
130.036
20
-77.2992
11
129.804
21
-77.4332
0
LINE
8
BLACK
6
CONTINUOUS
10
129.804
20
-77.4332
11
129.54
21
-77.4797
0
LINE
8
BLACK
6
CONTINUOUS
10
129.54
20
-77.4797
11
129.276
21
-77.4332
0
LINE
8
BLACK
6
CONTINUOUS
10
129.276
20
-77.4332
11
129.044
21
-77.2992
0
LINE
8
BLACK
6
CONTINUOUS
10
129.044
20
-77.2992
11
128.872
21
-77.0939
0
LINE
8
BLACK
6
CONTINUOUS
10
128.872
20
-77.0939
11
128.78
21
-76.842
0
LINE
8
BLACK
6
CONTINUOUS
10
128.78
20
-76.842
11
128.78
21
-76.574
0
LINE
8
BLACK
6
CONTINUOUS
10
128.78
20
-76.574
11
128.872
21
-76.3221
0
LINE
8
BLACK
6
CONTINUOUS
10
128.872
20
-76.3221
11
129.044
21
-76.1168
0
LINE
8
BLACK
6
CONTINUOUS
10
129.044
20
-76.1168
11
129.276
21
-75.9828
0
LINE
8
BLACK
6
CONTINUOUS
10
129.276
20
-75.9828
11
129.54
21
-75.9363
0
LINE
8
BLACK
6
CONTINUOUS
10
129.54
20
-75.9363
11
129.804
21
-75.9828
0
LINE
8
BLACK
6
CONTINUOUS
10
127.264
20
-75.9828
11
127.496
21
-76.1168
0
LINE
8
BLACK
6
CONTINUOUS
10
127.496
20
-76.1168
11
127.668
21
-76.3221
0
LINE
8
BLACK
6
CONTINUOUS
10
127.668
20
-76.3221
11
127.76
21
-76.574
0
LINE
8
BLACK
6
CONTINUOUS
10
127.76
20
-76.574
11
127.76
21
-76.842
0
LINE
8
BLACK
6
CONTINUOUS
10
127.76
20
-76.842
11
127.668
21
-77.0939
0
LINE
8
BLACK
6
CONTINUOUS
10
127.668
20
-77.0939
11
127.496
21
-77.2992
0
LINE
8
BLACK
6
CONTINUOUS
10
127.496
20
-77.2992
11
127.264
21
-77.4332
0
LINE
8
BLACK
6
CONTINUOUS
10
127.264
20
-77.4332
11
127
21
-77.4797
0
LINE
8
BLACK
6
CONTINUOUS
10
127
20
-77.4797
11
126.736
21
-77.4332
0
LINE
8
BLACK
6
CONTINUOUS
10
126.736
20
-77.4332
11
126.504
21
-77.2992
0
LINE
8
BLACK
6
CONTINUOUS
10
126.504
20
-77.2992
11
126.332
21
-77.0939
0
LINE
8
BLACK
6
CONTINUOUS
10
126.332
20
-77.0939
11
126.24
21
-76.842
0
LINE
8
BLACK
6
CONTINUOUS
10
126.24
20
-76.842
11
126.24
21
-76.574
0
LINE
8
BLACK
6
CONTINUOUS
10
126.24
20
-76.574
11
126.332
21
-76.3221
0
LINE
8
BLACK
6
CONTINUOUS
10
126.332
20
-76.3221
11
126.504
21
-76.1168
0
LINE
8
BLACK
6
CONTINUOUS
10
126.504
20
-76.1168
11
126.736
21
-75.9828
0
LINE
8
BLACK
6
CONTINUOUS
10
126.736
20
-75.9828
11
127
21
-75.9363
0
LINE
8
BLACK
6
CONTINUOUS
10
127
20
-75.9363
11
127.264
21
-75.9828
0
LINE
8
BLACK
6
CONTINUOUS
10
124.724
20
-75.9828
11
124.956
21
-76.1168
0
LINE
8
BLACK
6
CONTINUOUS
10
124.956
20
-76.1168
11
125.128
21
-76.3221
0
LINE
8
BLACK
6
CONTINUOUS
10
125.128
20
-76.3221
11
125.22
21
-76.574
0
LINE
8
BLACK
6
CONTINUOUS
10
125.22
20
-76.574
11
125.22
21
-76.842
0
LINE
8
BLACK
6
CONTINUOUS
10
125.22
20
-76.842
11
125.128
21
-77.0939
0
LINE
8
BLACK
6
CONTINUOUS
10
125.128
20
-77.0939
11
124.956
21
-77.2992
0
LINE
8
BLACK
6
CONTINUOUS
10
124.956
20
-77.2992
11
124.724
21
-77.4332
0
LINE
8
BLACK
6
CONTINUOUS
10
124.724
20
-77.4332
11
124.46
21
-77.4797
0
LINE
8
BLACK
6
CONTINUOUS
10
124.46
20
-77.4797
11
124.196
21
-77.4332
0
LINE
8
BLACK
6
CONTINUOUS
10
124.196
20
-77.4332
11
123.964
21
-77.2992
0
LINE
8
BLACK
6
CONTINUOUS
10
123.964
20
-77.2992
11
123.792
21
-77.0939
0
LINE
8
BLACK
6
CONTINUOUS
10
123.792
20
-77.0939
11
123.7
21
-76.842
0
LINE
8
BLACK
6
CONTINUOUS
10
123.7
20
-76.842
11
123.7
21
-76.574
0
LINE
8
BLACK
6
CONTINUOUS
10
123.7
20
-76.574
11
123.792
21
-76.3221
0
LINE
8
BLACK
6
CONTINUOUS
10
123.792
20
-76.3221
11
123.964
21
-76.1168
0
LINE
8
BLACK
6
CONTINUOUS
10
123.964
20
-76.1168
11
124.196
21
-75.9828
0
LINE
8
BLACK
6
CONTINUOUS
10
124.196
20
-75.9828
11
124.46
21
-75.9363
0
LINE
8
BLACK
6
CONTINUOUS
10
124.46
20
-75.9363
11
124.724
21
-75.9828
0
LINE
8
BLACK
6
CONTINUOUS
10
133.699
20
-65.8516
11
134.474
21
-66.2994
0
LINE
8
BLACK
6
CONTINUOUS
10
134.474
20
-66.2994
11
135.05
21
-66.9856
0
LINE
8
BLACK
6
CONTINUOUS
10
135.05
20
-66.9856
11
135.357
21
-67.8273
0
LINE
8
BLACK
6
CONTINUOUS
10
135.357
20
-67.8273
11
135.357
21
-68.7231
0
LINE
8
BLACK
6
CONTINUOUS
10
135.357
20
-68.7231
11
135.05
21
-69.5648
0
LINE
8
BLACK
6
CONTINUOUS
10
135.05
20
-69.5648
11
134.474
21
-70.251
0
LINE
8
BLACK
6
CONTINUOUS
10
134.474
20
-70.251
11
133.699
21
-70.6988
0
LINE
8
BLACK
6
CONTINUOUS
10
133.699
20
-70.6988
11
132.817
21
-70.8544
0
LINE
8
BLACK
6
CONTINUOUS
10
132.817
20
-70.8544
11
131.934
21
-70.6988
0
LINE
8
BLACK
6
CONTINUOUS
10
131.934
20
-70.6988
11
131.159
21
-70.251
0
LINE
8
BLACK
6
CONTINUOUS
10
131.159
20
-70.251
11
130.583
21
-69.5648
0
LINE
8
BLACK
6
CONTINUOUS
10
130.583
20
-69.5648
11
130.277
21
-68.7231
0
LINE
8
BLACK
6
CONTINUOUS
10
130.277
20
-68.7231
11
130.277
21
-67.8273
0
LINE
8
BLACK
6
CONTINUOUS
10
130.277
20
-67.8273
11
130.583
21
-66.9856
0
LINE
8
BLACK
6
CONTINUOUS
10
130.583
20
-66.9856
11
131.159
21
-66.2994
0
LINE
8
BLACK
6
CONTINUOUS
10
131.159
20
-66.2994
11
131.934
21
-65.8516
0
LINE
8
BLACK
6
CONTINUOUS
10
131.934
20
-65.8516
11
132.817
21
-65.696
0
LINE
8
BLACK
6
CONTINUOUS
10
132.817
20
-65.696
11
133.699
21
-65.8516
0
LINE
8
BLACK
6
CONTINUOUS
10
125.698
20
-65.8516
11
126.473
21
-66.2994
0
LINE
8
BLACK
6
CONTINUOUS
10
126.473
20
-66.2994
11
127.049
21
-66.9856
0
LINE
8
BLACK
6
CONTINUOUS
10
127.049
20
-66.9856
11
127.356
21
-67.8273
0
LINE
8
BLACK
6
CONTINUOUS
10
127.356
20
-67.8273
11
127.356
21
-68.7231
0
LINE
8
BLACK
6
CONTINUOUS
10
127.356
20
-68.7231
11
127.049
21
-69.5648
0
LINE
8
BLACK
6
CONTINUOUS
10
127.049
20
-69.5648
11
126.473
21
-70.251
0
LINE
8
BLACK
6
CONTINUOUS
10
126.473
20
-70.251
11
125.698
21
-70.6988
0
LINE
8
BLACK
6
CONTINUOUS
10
125.698
20
-70.6988
11
124.816
21
-70.8544
0
LINE
8
BLACK
6
CONTINUOUS
10
124.816
20
-70.8544
11
123.933
21
-70.6988
0
LINE
8
BLACK
6
CONTINUOUS
10
123.933
20
-70.6988
11
123.158
21
-70.251
0
LINE
8
BLACK
6
CONTINUOUS
10
123.158
20
-70.251
11
122.582
21
-69.5648
0
LINE
8
BLACK
6
CONTINUOUS
10
122.582
20
-69.5648
11
122.276
21
-68.7231
0
LINE
8
BLACK
6
CONTINUOUS
10
122.276
20
-68.7231
11
122.276
21
-67.8273
0
LINE
8
BLACK
6
CONTINUOUS
10
122.276
20
-67.8273
11
122.582
21
-66.9856
0
LINE
8
BLACK
6
CONTINUOUS
10
122.582
20
-66.9856
11
123.158
21
-66.2994
0
LINE
8
BLACK
6
CONTINUOUS
10
123.158
20
-66.2994
11
123.933
21
-65.8516
0
LINE
8
BLACK
6
CONTINUOUS
10
123.933
20
-65.8516
11
124.816
21
-65.696
0
LINE
8
BLACK
6
CONTINUOUS
10
124.816
20
-65.696
11
125.698
21
-65.8516
0
LINE
8
BLACK
6
CONTINUOUS
10
202.753
20
-62.6205
11
202.986
21
-62.7549
0
LINE
8
BLACK
6
CONTINUOUS
10
202.986
20
-62.7549
11
203.159
21
-62.9607
0
LINE
8
BLACK
6
CONTINUOUS
10
203.159
20
-62.9607
11
203.251
21
-63.2132
0
LINE
8
BLACK
6
CONTINUOUS
10
203.251
20
-63.2132
11
203.251
21
-63.482
0
LINE
8
BLACK
6
CONTINUOUS
10
203.251
20
-63.482
11
203.159
21
-63.7345
0
LINE
8
BLACK
6
CONTINUOUS
10
203.159
20
-63.7345
11
202.986
21
-63.9403
0
LINE
8
BLACK
6
CONTINUOUS
10
202.986
20
-63.9403
11
202.753
21
-64.0747
0
LINE
8
BLACK
6
CONTINUOUS
10
202.753
20
-64.0747
11
202.489
21
-64.1214
0
LINE
8
BLACK
6
CONTINUOUS
10
202.489
20
-64.1214
11
202.224
21
-64.0747
0
LINE
8
BLACK
6
CONTINUOUS
10
202.224
20
-64.0747
11
201.991
21
-63.9403
0
LINE
8
BLACK
6
CONTINUOUS
10
201.991
20
-63.9403
11
201.819
21
-63.7345
0
LINE
8
BLACK
6
CONTINUOUS
10
201.819
20
-63.7345
11
201.727
21
-63.482
0
LINE
8
BLACK
6
CONTINUOUS
10
201.727
20
-63.482
11
201.727
21
-63.2132
0
LINE
8
BLACK
6
CONTINUOUS
10
201.727
20
-63.2132
11
201.819
21
-62.9607
0
LINE
8
BLACK
6
CONTINUOUS
10
201.819
20
-62.9607
11
201.991
21
-62.7549
0
LINE
8
BLACK
6
CONTINUOUS
10
201.991
20
-62.7549
11
202.224
21
-62.6205
0
LINE
8
BLACK
6
CONTINUOUS
10
202.224
20
-62.6205
11
202.489
21
-62.5738
0
LINE
8
BLACK
6
CONTINUOUS
10
202.489
20
-62.5738
11
202.753
21
-62.6205
0
LINE
8
BLACK
6
CONTINUOUS
10
200.213
20
-62.6205
11
200.446
21
-62.7549
0
LINE
8
BLACK
6
CONTINUOUS
10
200.446
20
-62.7549
11
200.619
21
-62.9607
0
LINE
8
BLACK
6
CONTINUOUS
10
200.619
20
-62.9607
11
200.711
21
-63.2132
0
LINE
8
BLACK
6
CONTINUOUS
10
200.711
20
-63.2132
11
200.711
21
-63.482
0
LINE
8
BLACK
6
CONTINUOUS
10
200.711
20
-63.482
11
200.619
21
-63.7345
0
LINE
8
BLACK
6
CONTINUOUS
10
200.619
20
-63.7345
11
200.446
21
-63.9403
0
LINE
8
BLACK
6
CONTINUOUS
10
200.446
20
-63.9403
11
200.213
21
-64.0747
0
LINE
8
BLACK
6
CONTINUOUS
10
200.213
20
-64.0747
11
199.949
21
-64.1214
0
LINE
8
BLACK
6
CONTINUOUS
10
199.949
20
-64.1214
11
199.684
21
-64.0747
0
LINE
8
BLACK
6
CONTINUOUS
10
199.684
20
-64.0747
11
199.451
21
-63.9403
0
LINE
8
BLACK
6
CONTINUOUS
10
199.451
20
-63.9403
11
199.279
21
-63.7345
0
LINE
8
BLACK
6
CONTINUOUS
10
199.279
20
-63.7345
11
199.187
21
-63.482
0
LINE
8
BLACK
6
CONTINUOUS
10
199.187
20
-63.482
11
199.187
21
-63.2132
0
LINE
8
BLACK
6
CONTINUOUS
10
199.187
20
-63.2132
11
199.279
21
-62.9607
0
LINE
8
BLACK
6
CONTINUOUS
10
199.279
20
-62.9607
11
199.451
21
-62.7549
0
LINE
8
BLACK
6
CONTINUOUS
10
199.451
20
-62.7549
11
199.684
21
-62.6205
0
LINE
8
BLACK
6
CONTINUOUS
10
199.684
20
-62.6205
11
199.949
21
-62.5738
0
LINE
8
BLACK
6
CONTINUOUS
10
199.949
20
-62.5738
11
200.213
21
-62.6205
0
LINE
8
BLACK
6
CONTINUOUS
10
197.673
20
-62.6205
11
197.906
21
-62.7549
0
LINE
8
BLACK
6
CONTINUOUS
10
197.906
20
-62.7549
11
198.079
21
-62.9607
0
LINE
8
BLACK
6
CONTINUOUS
10
198.079
20
-62.9607
11
198.171
21
-63.2132
0
LINE
8
BLACK
6
CONTINUOUS
10
198.171
20
-63.2132
11
198.171
21
-63.482
0
LINE
8
BLACK
6
CONTINUOUS
10
198.171
20
-63.482
11
198.079
21
-63.7345
0
LINE
8
BLACK
6
CONTINUOUS
10
198.079
20
-63.7345
11
197.906
21
-63.9403
0
LINE
8
BLACK
6
CONTINUOUS
10
197.906
20
-63.9403
11
197.673
21
-64.0747
0
LINE
8
BLACK
6
CONTINUOUS
10
197.673
20
-64.0747
11
197.409
21
-64.1214
0
LINE
8
BLACK
6
CONTINUOUS
10
197.409
20
-64.1214
11
197.144
21
-64.0747
0
LINE
8
BLACK
6
CONTINUOUS
10
197.144
20
-64.0747
11
196.911
21
-63.9403
0
LINE
8
BLACK
6
CONTINUOUS
10
196.911
20
-63.9403
11
196.739
21
-63.7345
0
LINE
8
BLACK
6
CONTINUOUS
10
196.739
20
-63.7345
11
196.647
21
-63.482
0
LINE
8
BLACK
6
CONTINUOUS
10
196.647
20
-63.482
11
196.647
21
-63.2132
0
LINE
8
BLACK
6
CONTINUOUS
10
196.647
20
-63.2132
11
196.739
21
-62.9607
0
LINE
8
BLACK
6
CONTINUOUS
10
196.739
20
-62.9607
11
196.911
21
-62.7549
0
LINE
8
BLACK
6
CONTINUOUS
10
196.911
20
-62.7549
11
197.144
21
-62.6205
0
LINE
8
BLACK
6
CONTINUOUS
10
197.144
20
-62.6205
11
197.409
21
-62.5738
0
LINE
8
BLACK
6
CONTINUOUS
10
197.409
20
-62.5738
11
197.673
21
-62.6205
0
LINE
8
BLACK
6
CONTINUOUS
10
211.974
20
-62.5443
11
212.206
21
-62.6787
0
LINE
8
BLACK
6
CONTINUOUS
10
212.206
20
-62.6787
11
212.379
21
-62.8845
0
LINE
8
BLACK
6
CONTINUOUS
10
212.379
20
-62.8845
11
212.471
21
-63.137
0
LINE
8
BLACK
6
CONTINUOUS
10
212.471
20
-63.137
11
212.471
21
-63.4058
0
LINE
8
BLACK
6
CONTINUOUS
10
212.471
20
-63.4058
11
212.379
21
-63.6583
0
LINE
8
BLACK
6
CONTINUOUS
10
212.379
20
-63.6583
11
212.206
21
-63.8641
0
LINE
8
BLACK
6
CONTINUOUS
10
212.206
20
-63.8641
11
211.974
21
-63.9985
0
LINE
8
BLACK
6
CONTINUOUS
10
211.974
20
-63.9985
11
211.709
21
-64.0452
0
LINE
8
BLACK
6
CONTINUOUS
10
211.709
20
-64.0452
11
211.444
21
-63.9985
0
LINE
8
BLACK
6
CONTINUOUS
10
211.444
20
-63.9985
11
211.212
21
-63.8641
0
LINE
8
BLACK
6
CONTINUOUS
10
211.212
20
-63.8641
11
211.039
21
-63.6583
0
LINE
8
BLACK
6
CONTINUOUS
10
211.039
20
-63.6583
11
210.947
21
-63.4058
0
LINE
8
BLACK
6
CONTINUOUS
10
210.947
20
-63.4058
11
210.947
21
-63.137
0
LINE
8
BLACK
6
CONTINUOUS
10
210.947
20
-63.137
11
211.039
21
-62.8845
0
LINE
8
BLACK
6
CONTINUOUS
10
211.039
20
-62.8845
11
211.212
21
-62.6787
0
LINE
8
BLACK
6
CONTINUOUS
10
211.212
20
-62.6787
11
211.444
21
-62.5443
0
LINE
8
BLACK
6
CONTINUOUS
10
211.444
20
-62.5443
11
211.709
21
-62.4976
0
LINE
8
BLACK
6
CONTINUOUS
10
211.709
20
-62.4976
11
211.974
21
-62.5443
0
LINE
8
BLACK
6
CONTINUOUS
10
209.434
20
-62.5443
11
209.666
21
-62.6787
0
LINE
8
BLACK
6
CONTINUOUS
10
209.666
20
-62.6787
11
209.839
21
-62.8845
0
LINE
8
BLACK
6
CONTINUOUS
10
209.839
20
-62.8845
11
209.931
21
-63.137
0
LINE
8
BLACK
6
CONTINUOUS
10
209.931
20
-63.137
11
209.931
21
-63.4058
0
LINE
8
BLACK
6
CONTINUOUS
10
209.931
20
-63.4058
11
209.839
21
-63.6583
0
LINE
8
BLACK
6
CONTINUOUS
10
209.839
20
-63.6583
11
209.666
21
-63.8641
0
LINE
8
BLACK
6
CONTINUOUS
10
209.666
20
-63.8641
11
209.434
21
-63.9985
0
LINE
8
BLACK
6
CONTINUOUS
10
209.434
20
-63.9985
11
209.169
21
-64.0452
0
LINE
8
BLACK
6
CONTINUOUS
10
209.169
20
-64.0452
11
208.904
21
-63.9985
0
LINE
8
BLACK
6
CONTINUOUS
10
208.904
20
-63.9985
11
208.672
21
-63.8641
0
LINE
8
BLACK
6
CONTINUOUS
10
208.672
20
-63.8641
11
208.499
21
-63.6583
0
LINE
8
BLACK
6
CONTINUOUS
10
208.499
20
-63.6583
11
208.407
21
-63.4058
0
LINE
8
BLACK
6
CONTINUOUS
10
208.407
20
-63.4058
11
208.407
21
-63.137
0
LINE
8
BLACK
6
CONTINUOUS
10
208.407
20
-63.137
11
208.499
21
-62.8845
0
LINE
8
BLACK
6
CONTINUOUS
10
208.499
20
-62.8845
11
208.672
21
-62.6787
0
LINE
8
BLACK
6
CONTINUOUS
10
208.672
20
-62.6787
11
208.904
21
-62.5443
0
LINE
8
BLACK
6
CONTINUOUS
10
208.904
20
-62.5443
11
209.169
21
-62.4976
0
LINE
8
BLACK
6
CONTINUOUS
10
209.169
20
-62.4976
11
209.434
21
-62.5443
0
LINE
8
BLACK
6
CONTINUOUS
10
214.514
20
-62.5443
11
214.746
21
-62.6787
0
LINE
8
BLACK
6
CONTINUOUS
10
214.746
20
-62.6787
11
214.919
21
-62.8845
0
LINE
8
BLACK
6
CONTINUOUS
10
214.919
20
-62.8845
11
215.011
21
-63.137
0
LINE
8
BLACK
6
CONTINUOUS
10
215.011
20
-63.137
11
215.011
21
-63.4058
0
LINE
8
BLACK
6
CONTINUOUS
10
215.011
20
-63.4058
11
214.919
21
-63.6583
0
LINE
8
BLACK
6
CONTINUOUS
10
214.919
20
-63.6583
11
214.746
21
-63.8641
0
LINE
8
BLACK
6
CONTINUOUS
10
214.746
20
-63.8641
11
214.514
21
-63.9985
0
LINE
8
BLACK
6
CONTINUOUS
10
214.514
20
-63.9985
11
214.249
21
-64.0452
0
LINE
8
BLACK
6
CONTINUOUS
10
214.249
20
-64.0452
11
213.984
21
-63.9985
0
LINE
8
BLACK
6
CONTINUOUS
10
213.984
20
-63.9985
11
213.752
21
-63.8641
0
LINE
8
BLACK
6
CONTINUOUS
10
213.752
20
-63.8641
11
213.579
21
-63.6583
0
LINE
8
BLACK
6
CONTINUOUS
10
213.579
20
-63.6583
11
213.487
21
-63.4058
0
LINE
8
BLACK
6
CONTINUOUS
10
213.487
20
-63.4058
11
213.487
21
-63.137
0
LINE
8
BLACK
6
CONTINUOUS
10
213.487
20
-63.137
11
213.579
21
-62.8845
0
LINE
8
BLACK
6
CONTINUOUS
10
213.579
20
-62.8845
11
213.752
21
-62.6787
0
LINE
8
BLACK
6
CONTINUOUS
10
213.752
20
-62.6787
11
213.984
21
-62.5443
0
LINE
8
BLACK
6
CONTINUOUS
10
213.984
20
-62.5443
11
214.249
21
-62.4976
0
LINE
8
BLACK
6
CONTINUOUS
10
214.249
20
-62.4976
11
214.514
21
-62.5443
0
LINE
8
BLACK
6
CONTINUOUS
10
185.812
20
-62.5443
11
186.044
21
-62.6787
0
LINE
8
BLACK
6
CONTINUOUS
10
186.044
20
-62.6787
11
186.217
21
-62.8845
0
LINE
8
BLACK
6
CONTINUOUS
10
186.217
20
-62.8845
11
186.309
21
-63.137
0
LINE
8
BLACK
6
CONTINUOUS
10
186.309
20
-63.137
11
186.309
21
-63.4058
0
LINE
8
BLACK
6
CONTINUOUS
10
186.309
20
-63.4058
11
186.217
21
-63.6583
0
LINE
8
BLACK
6
CONTINUOUS
10
186.217
20
-63.6583
11
186.044
21
-63.8641
0
LINE
8
BLACK
6
CONTINUOUS
10
186.044
20
-63.8641
11
185.812
21
-63.9985
0
LINE
8
BLACK
6
CONTINUOUS
10
185.812
20
-63.9985
11
185.547
21
-64.0452
0
LINE
8
BLACK
6
CONTINUOUS
10
185.547
20
-64.0452
11
185.282
21
-63.9985
0
LINE
8
BLACK
6
CONTINUOUS
10
185.282
20
-63.9985
11
185.05
21
-63.8641
0
LINE
8
BLACK
6
CONTINUOUS
10
185.05
20
-63.8641
11
184.877
21
-63.6583
0
LINE
8
BLACK
6
CONTINUOUS
10
184.877
20
-63.6583
11
184.785
21
-63.4058
0
LINE
8
BLACK
6
CONTINUOUS
10
184.785
20
-63.4058
11
184.785
21
-63.137
0
LINE
8
BLACK
6
CONTINUOUS
10
184.785
20
-63.137
11
184.877
21
-62.8845
0
LINE
8
BLACK
6
CONTINUOUS
10
184.877
20
-62.8845
11
185.05
21
-62.6787
0
LINE
8
BLACK
6
CONTINUOUS
10
185.05
20
-62.6787
11
185.282
21
-62.5443
0
LINE
8
BLACK
6
CONTINUOUS
10
185.282
20
-62.5443
11
185.547
21
-62.4976
0
LINE
8
BLACK
6
CONTINUOUS
10
185.547
20
-62.4976
11
185.812
21
-62.5443
0
LINE
8
BLACK
6
CONTINUOUS
10
188.352
20
-62.5443
11
188.584
21
-62.6787
0
LINE
8
BLACK
6
CONTINUOUS
10
188.584
20
-62.6787
11
188.757
21
-62.8845
0
LINE
8
BLACK
6
CONTINUOUS
10
188.757
20
-62.8845
11
188.849
21
-63.137
0
LINE
8
BLACK
6
CONTINUOUS
10
188.849
20
-63.137
11
188.849
21
-63.4058
0
LINE
8
BLACK
6
CONTINUOUS
10
188.849
20
-63.4058
11
188.757
21
-63.6583
0
LINE
8
BLACK
6
CONTINUOUS
10
188.757
20
-63.6583
11
188.584
21
-63.8641
0
LINE
8
BLACK
6
CONTINUOUS
10
188.584
20
-63.8641
11
188.352
21
-63.9985
0
LINE
8
BLACK
6
CONTINUOUS
10
188.352
20
-63.9985
11
188.087
21
-64.0452
0
LINE
8
BLACK
6
CONTINUOUS
10
188.087
20
-64.0452
11
187.822
21
-63.9985
0
LINE
8
BLACK
6
CONTINUOUS
10
187.822
20
-63.9985
11
187.59
21
-63.8641
0
LINE
8
BLACK
6
CONTINUOUS
10
187.59
20
-63.8641
11
187.417
21
-63.6583
0
LINE
8
BLACK
6
CONTINUOUS
10
187.417
20
-63.6583
11
187.325
21
-63.4058
0
LINE
8
BLACK
6
CONTINUOUS
10
187.325
20
-63.4058
11
187.325
21
-63.137
0
LINE
8
BLACK
6
CONTINUOUS
10
187.325
20
-63.137
11
187.417
21
-62.8845
0
LINE
8
BLACK
6
CONTINUOUS
10
187.417
20
-62.8845
11
187.59
21
-62.6787
0
LINE
8
BLACK
6
CONTINUOUS
10
187.59
20
-62.6787
11
187.822
21
-62.5443
0
LINE
8
BLACK
6
CONTINUOUS
10
187.822
20
-62.5443
11
188.087
21
-62.4976
0
LINE
8
BLACK
6
CONTINUOUS
10
188.087
20
-62.4976
11
188.352
21
-62.5443
0
LINE
8
BLACK
6
CONTINUOUS
10
190.892
20
-62.5443
11
191.124
21
-62.6787
0
LINE
8
BLACK
6
CONTINUOUS
10
191.124
20
-62.6787
11
191.297
21
-62.8845
0
LINE
8
BLACK
6
CONTINUOUS
10
191.297
20
-62.8845
11
191.389
21
-63.137
0
LINE
8
BLACK
6
CONTINUOUS
10
191.389
20
-63.137
11
191.389
21
-63.4058
0
LINE
8
BLACK
6
CONTINUOUS
10
191.389
20
-63.4058
11
191.297
21
-63.6583
0
LINE
8
BLACK
6
CONTINUOUS
10
191.297
20
-63.6583
11
191.124
21
-63.8641
0
LINE
8
BLACK
6
CONTINUOUS
10
191.124
20
-63.8641
11
190.892
21
-63.9985
0
LINE
8
BLACK
6
CONTINUOUS
10
190.892
20
-63.9985
11
190.627
21
-64.0452
0
LINE
8
BLACK
6
CONTINUOUS
10
190.627
20
-64.0452
11
190.362
21
-63.9985
0
LINE
8
BLACK
6
CONTINUOUS
10
190.362
20
-63.9985
11
190.13
21
-63.8641
0
LINE
8
BLACK
6
CONTINUOUS
10
190.13
20
-63.8641
11
189.957
21
-63.6583
0
LINE
8
BLACK
6
CONTINUOUS
10
189.957
20
-63.6583
11
189.865
21
-63.4058
0
LINE
8
BLACK
6
CONTINUOUS
10
189.865
20
-63.4058
11
189.865
21
-63.137
0
LINE
8
BLACK
6
CONTINUOUS
10
189.865
20
-63.137
11
189.957
21
-62.8845
0
LINE
8
BLACK
6
CONTINUOUS
10
189.957
20
-62.8845
11
190.13
21
-62.6787
0
LINE
8
BLACK
6
CONTINUOUS
10
190.13
20
-62.6787
11
190.362
21
-62.5443
0
LINE
8
BLACK
6
CONTINUOUS
10
190.362
20
-62.5443
11
190.627
21
-62.4976
0
LINE
8
BLACK
6
CONTINUOUS
10
190.627
20
-62.4976
11
190.892
21
-62.5443
0
LINE
8
BLACK
6
CONTINUOUS
10
166.51
20
-62.5329
11
166.742
21
-62.6673
0
LINE
8
BLACK
6
CONTINUOUS
10
166.742
20
-62.6673
11
166.915
21
-62.8731
0
LINE
8
BLACK
6
CONTINUOUS
10
166.915
20
-62.8731
11
167.007
21
-63.1256
0
LINE
8
BLACK
6
CONTINUOUS
10
167.007
20
-63.1256
11
167.007
21
-63.3944
0
LINE
8
BLACK
6
CONTINUOUS
10
167.007
20
-63.3944
11
166.915
21
-63.6469
0
LINE
8
BLACK
6
CONTINUOUS
10
166.915
20
-63.6469
11
166.742
21
-63.8527
0
LINE
8
BLACK
6
CONTINUOUS
10
166.742
20
-63.8527
11
166.51
21
-63.9871
0
LINE
8
BLACK
6
CONTINUOUS
10
166.51
20
-63.9871
11
166.245
21
-64.0338
0
LINE
8
BLACK
6
CONTINUOUS
10
166.245
20
-64.0338
11
165.98
21
-63.9871
0
LINE
8
BLACK
6
CONTINUOUS
10
165.98
20
-63.9871
11
165.748
21
-63.8527
0
LINE
8
BLACK
6
CONTINUOUS
10
165.748
20
-63.8527
11
165.575
21
-63.6469
0
LINE
8
BLACK
6
CONTINUOUS
10
165.575
20
-63.6469
11
165.483
21
-63.3944
0
LINE
8
BLACK
6
CONTINUOUS
10
165.483
20
-63.3944
11
165.483
21
-63.1256
0
LINE
8
BLACK
6
CONTINUOUS
10
165.483
20
-63.1256
11
165.575
21
-62.8731
0
LINE
8
BLACK
6
CONTINUOUS
10
165.575
20
-62.8731
11
165.748
21
-62.6673
0
LINE
8
BLACK
6
CONTINUOUS
10
165.748
20
-62.6673
11
165.98
21
-62.5329
0
LINE
8
BLACK
6
CONTINUOUS
10
165.98
20
-62.5329
11
166.245
21
-62.4862
0
LINE
8
BLACK
6
CONTINUOUS
10
166.245
20
-62.4862
11
166.51
21
-62.5329
0
LINE
8
BLACK
6
CONTINUOUS
10
163.97
20
-62.5329
11
164.202
21
-62.6673
0
LINE
8
BLACK
6
CONTINUOUS
10
164.202
20
-62.6673
11
164.375
21
-62.8731
0
LINE
8
BLACK
6
CONTINUOUS
10
164.375
20
-62.8731
11
164.467
21
-63.1256
0
LINE
8
BLACK
6
CONTINUOUS
10
164.467
20
-63.1256
11
164.467
21
-63.3944
0
LINE
8
BLACK
6
CONTINUOUS
10
164.467
20
-63.3944
11
164.375
21
-63.6469
0
LINE
8
BLACK
6
CONTINUOUS
10
164.375
20
-63.6469
11
164.202
21
-63.8527
0
LINE
8
BLACK
6
CONTINUOUS
10
164.202
20
-63.8527
11
163.97
21
-63.9871
0
LINE
8
BLACK
6
CONTINUOUS
10
163.97
20
-63.9871
11
163.705
21
-64.0338
0
LINE
8
BLACK
6
CONTINUOUS
10
163.705
20
-64.0338
11
163.44
21
-63.9871
0
LINE
8
BLACK
6
CONTINUOUS
10
163.44
20
-63.9871
11
163.208
21
-63.8527
0
LINE
8
BLACK
6
CONTINUOUS
10
163.208
20
-63.8527
11
163.035
21
-63.6469
0
LINE
8
BLACK
6
CONTINUOUS
10
163.035
20
-63.6469
11
162.943
21
-63.3944
0
LINE
8
BLACK
6
CONTINUOUS
10
162.943
20
-63.3944
11
162.943
21
-63.1256
0
LINE
8
BLACK
6
CONTINUOUS
10
162.943
20
-63.1256
11
163.035
21
-62.8731
0
LINE
8
BLACK
6
CONTINUOUS
10
163.035
20
-62.8731
11
163.208
21
-62.6673
0
LINE
8
BLACK
6
CONTINUOUS
10
163.208
20
-62.6673
11
163.44
21
-62.5329
0
LINE
8
BLACK
6
CONTINUOUS
10
163.44
20
-62.5329
11
163.705
21
-62.4862
0
LINE
8
BLACK
6
CONTINUOUS
10
163.705
20
-62.4862
11
163.97
21
-62.5329
0
LINE
8
BLACK
6
CONTINUOUS
10
152.538
20
-62.5189
11
152.77
21
-62.6533
0
LINE
8
BLACK
6
CONTINUOUS
10
152.77
20
-62.6533
11
152.943
21
-62.8591
0
LINE
8
BLACK
6
CONTINUOUS
10
152.943
20
-62.8591
11
153.035
21
-63.1116
0
LINE
8
BLACK
6
CONTINUOUS
10
153.035
20
-63.1116
11
153.035
21
-63.3804
0
LINE
8
BLACK
6
CONTINUOUS
10
153.035
20
-63.3804
11
152.943
21
-63.6329
0
LINE
8
BLACK
6
CONTINUOUS
10
152.943
20
-63.6329
11
152.77
21
-63.8387
0
LINE
8
BLACK
6
CONTINUOUS
10
152.77
20
-63.8387
11
152.538
21
-63.9731
0
LINE
8
BLACK
6
CONTINUOUS
10
152.538
20
-63.9731
11
152.273
21
-64.0198
0
LINE
8
BLACK
6
CONTINUOUS
10
152.273
20
-64.0198
11
152.008
21
-63.9731
0
LINE
8
BLACK
6
CONTINUOUS
10
152.008
20
-63.9731
11
151.776
21
-63.8387
0
LINE
8
BLACK
6
CONTINUOUS
10
151.776
20
-63.8387
11
151.603
21
-63.6329
0
LINE
8
BLACK
6
CONTINUOUS
10
151.603
20
-63.6329
11
151.511
21
-63.3804
0
LINE
8
BLACK
6
CONTINUOUS
10
151.511
20
-63.3804
11
151.511
21
-63.1116
0
LINE
8
BLACK
6
CONTINUOUS
10
151.511
20
-63.1116
11
151.603
21
-62.8591
0
LINE
8
BLACK
6
CONTINUOUS
10
151.603
20
-62.8591
11
151.776
21
-62.6533
0
LINE
8
BLACK
6
CONTINUOUS
10
151.776
20
-62.6533
11
152.008
21
-62.5189
0
LINE
8
BLACK
6
CONTINUOUS
10
152.008
20
-62.5189
11
152.273
21
-62.4722
0
LINE
8
BLACK
6
CONTINUOUS
10
152.273
20
-62.4722
11
152.538
21
-62.5189
0
LINE
8
BLACK
6
CONTINUOUS
10
175.654
20
-62.5189
11
175.886
21
-62.6533
0
LINE
8
BLACK
6
CONTINUOUS
10
175.886
20
-62.6533
11
176.059
21
-62.8591
0
LINE
8
BLACK
6
CONTINUOUS
10
176.059
20
-62.8591
11
176.151
21
-63.1116
0
LINE
8
BLACK
6
CONTINUOUS
10
176.151
20
-63.1116
11
176.151
21
-63.3804
0
LINE
8
BLACK
6
CONTINUOUS
10
176.151
20
-63.3804
11
176.059
21
-63.6329
0
LINE
8
BLACK
6
CONTINUOUS
10
176.059
20
-63.6329
11
175.886
21
-63.8387
0
LINE
8
BLACK
6
CONTINUOUS
10
175.886
20
-63.8387
11
175.654
21
-63.9731
0
LINE
8
BLACK
6
CONTINUOUS
10
175.654
20
-63.9731
11
175.389
21
-64.0198
0
LINE
8
BLACK
6
CONTINUOUS
10
175.389
20
-64.0198
11
175.124
21
-63.9731
0
LINE
8
BLACK
6
CONTINUOUS
10
175.124
20
-63.9731
11
174.892
21
-63.8387
0
LINE
8
BLACK
6
CONTINUOUS
10
174.892
20
-63.8387
11
174.719
21
-63.6329
0
LINE
8
BLACK
6
CONTINUOUS
10
174.719
20
-63.6329
11
174.627
21
-63.3804
0
LINE
8
BLACK
6
CONTINUOUS
10
174.627
20
-63.3804
11
174.627
21
-63.1116
0
LINE
8
BLACK
6
CONTINUOUS
10
174.627
20
-63.1116
11
174.719
21
-62.8591
0
LINE
8
BLACK
6
CONTINUOUS
10
174.719
20
-62.8591
11
174.892
21
-62.6533
0
LINE
8
BLACK
6
CONTINUOUS
10
174.892
20
-62.6533
11
175.124
21
-62.5189
0
LINE
8
BLACK
6
CONTINUOUS
10
175.124
20
-62.5189
11
175.389
21
-62.4722
0
LINE
8
BLACK
6
CONTINUOUS
10
175.389
20
-62.4722
11
175.654
21
-62.5189
0
LINE
8
BLACK
6
CONTINUOUS
10
173.114
20
-62.5189
11
173.346
21
-62.6533
0
LINE
8
BLACK
6
CONTINUOUS
10
173.346
20
-62.6533
11
173.519
21
-62.8591
0
LINE
8
BLACK
6
CONTINUOUS
10
173.519
20
-62.8591
11
173.611
21
-63.1116
0
LINE
8
BLACK
6
CONTINUOUS
10
173.611
20
-63.1116
11
173.611
21
-63.3804
0
LINE
8
BLACK
6
CONTINUOUS
10
173.611
20
-63.3804
11
173.519
21
-63.6329
0
LINE
8
BLACK
6
CONTINUOUS
10
173.519
20
-63.6329
11
173.346
21
-63.8387
0
LINE
8
BLACK
6
CONTINUOUS
10
173.346
20
-63.8387
11
173.114
21
-63.9731
0
LINE
8
BLACK
6
CONTINUOUS
10
173.114
20
-63.9731
11
172.849
21
-64.0198
0
LINE
8
BLACK
6
CONTINUOUS
10
172.849
20
-64.0198
11
172.584
21
-63.9731
0
LINE
8
BLACK
6
CONTINUOUS
10
172.584
20
-63.9731
11
172.352
21
-63.8387
0
LINE
8
BLACK
6
CONTINUOUS
10
172.352
20
-63.8387
11
172.179
21
-63.6329
0
LINE
8
BLACK
6
CONTINUOUS
10
172.179
20
-63.6329
11
172.087
21
-63.3804
0
LINE
8
BLACK
6
CONTINUOUS
10
172.087
20
-63.3804
11
172.087
21
-63.1116
0
LINE
8
BLACK
6
CONTINUOUS
10
172.087
20
-63.1116
11
172.179
21
-62.8591
0
LINE
8
BLACK
6
CONTINUOUS
10
172.179
20
-62.8591
11
172.352
21
-62.6533
0
LINE
8
BLACK
6
CONTINUOUS
10
172.352
20
-62.6533
11
172.584
21
-62.5189
0
LINE
8
BLACK
6
CONTINUOUS
10
172.584
20
-62.5189
11
172.849
21
-62.4722
0
LINE
8
BLACK
6
CONTINUOUS
10
172.849
20
-62.4722
11
173.114
21
-62.5189
0
LINE
8
BLACK
6
CONTINUOUS
10
149.998
20
-62.5189
11
150.23
21
-62.6533
0
LINE
8
BLACK
6
CONTINUOUS
10
150.23
20
-62.6533
11
150.403
21
-62.8591
0
LINE
8
BLACK
6
CONTINUOUS
10
150.403
20
-62.8591
11
150.495
21
-63.1116
0
LINE
8
BLACK
6
CONTINUOUS
10
150.495
20
-63.1116
11
150.495
21
-63.3804
0
LINE
8
BLACK
6
CONTINUOUS
10
150.495
20
-63.3804
11
150.403
21
-63.6329
0
LINE
8
BLACK
6
CONTINUOUS
10
150.403
20
-63.6329
11
150.23
21
-63.8387
0
LINE
8
BLACK
6
CONTINUOUS
10
150.23
20
-63.8387
11
149.998
21
-63.9731
0
LINE
8
BLACK
6
CONTINUOUS
10
149.998
20
-63.9731
11
149.733
21
-64.0198
0
LINE
8
BLACK
6
CONTINUOUS
10
149.733
20
-64.0198
11
149.468
21
-63.9731
0
LINE
8
BLACK
6
CONTINUOUS
10
149.468
20
-63.9731
11
149.236
21
-63.8387
0
LINE
8
BLACK
6
CONTINUOUS
10
149.236
20
-63.8387
11
149.063
21
-63.6329
0
LINE
8
BLACK
6
CONTINUOUS
10
149.063
20
-63.6329
11
148.971
21
-63.3804
0
LINE
8
BLACK
6
CONTINUOUS
10
148.971
20
-63.3804
11
148.971
21
-63.1116
0
LINE
8
BLACK
6
CONTINUOUS
10
148.971
20
-63.1116
11
149.063
21
-62.8591
0
LINE
8
BLACK
6
CONTINUOUS
10
149.063
20
-62.8591
11
149.236
21
-62.6533
0
LINE
8
BLACK
6
CONTINUOUS
10
149.236
20
-62.6533
11
149.468
21
-62.5189
0
LINE
8
BLACK
6
CONTINUOUS
10
149.468
20
-62.5189
11
149.733
21
-62.4722
0
LINE
8
BLACK
6
CONTINUOUS
10
149.733
20
-62.4722
11
149.998
21
-62.5189
0
LINE
8
BLACK
6
CONTINUOUS
10
237.247
20
-62.5189
11
237.479
21
-62.6533
0
LINE
8
BLACK
6
CONTINUOUS
10
237.479
20
-62.6533
11
237.652
21
-62.8591
0
LINE
8
BLACK
6
CONTINUOUS
10
237.652
20
-62.8591
11
237.744
21
-63.1116
0
LINE
8
BLACK
6
CONTINUOUS
10
237.744
20
-63.1116
11
237.744
21
-63.3804
0
LINE
8
BLACK
6
CONTINUOUS
10
237.744
20
-63.3804
11
237.652
21
-63.6329
0
LINE
8
BLACK
6
CONTINUOUS
10
237.652
20
-63.6329
11
237.479
21
-63.8387
0
LINE
8
BLACK
6
CONTINUOUS
10
237.479
20
-63.8387
11
237.247
21
-63.9731
0
LINE
8
BLACK
6
CONTINUOUS
10
237.247
20
-63.9731
11
236.982
21
-64.0198
0
LINE
8
BLACK
6
CONTINUOUS
10
236.982
20
-64.0198
11
236.717
21
-63.9731
0
LINE
8
BLACK
6
CONTINUOUS
10
236.717
20
-63.9731
11
236.485
21
-63.8387
0
LINE
8
BLACK
6
CONTINUOUS
10
236.485
20
-63.8387
11
236.312
21
-63.6329
0
LINE
8
BLACK
6
CONTINUOUS
10
236.312
20
-63.6329
11
236.22
21
-63.3804
0
LINE
8
BLACK
6
CONTINUOUS
10
236.22
20
-63.3804
11
236.22
21
-63.1116
0
LINE
8
BLACK
6
CONTINUOUS
10
236.22
20
-63.1116
11
236.312
21
-62.8591
0
LINE
8
BLACK
6
CONTINUOUS
10
236.312
20
-62.8591
11
236.485
21
-62.6533
0
LINE
8
BLACK
6
CONTINUOUS
10
236.485
20
-62.6533
11
236.717
21
-62.5189
0
LINE
8
BLACK
6
CONTINUOUS
10
236.717
20
-62.5189
11
236.982
21
-62.4722
0
LINE
8
BLACK
6
CONTINUOUS
10
236.982
20
-62.4722
11
237.247
21
-62.5189
0
LINE
8
BLACK
6
CONTINUOUS
10
239.787
20
-62.5189
11
240.019
21
-62.6533
0
LINE
8
BLACK
6
CONTINUOUS
10
240.019
20
-62.6533
11
240.192
21
-62.8591
0
LINE
8
BLACK
6
CONTINUOUS
10
240.192
20
-62.8591
11
240.284
21
-63.1116
0
LINE
8
BLACK
6
CONTINUOUS
10
240.284
20
-63.1116
11
240.284
21
-63.3804
0
LINE
8
BLACK
6
CONTINUOUS
10
240.284
20
-63.3804
11
240.192
21
-63.6329
0
LINE
8
BLACK
6
CONTINUOUS
10
240.192
20
-63.6329
11
240.019
21
-63.8387
0
LINE
8
BLACK
6
CONTINUOUS
10
240.019
20
-63.8387
11
239.787
21
-63.9731
0
LINE
8
BLACK
6
CONTINUOUS
10
239.787
20
-63.9731
11
239.522
21
-64.0198
0
LINE
8
BLACK
6
CONTINUOUS
10
239.522
20
-64.0198
11
239.257
21
-63.9731
0
LINE
8
BLACK
6
CONTINUOUS
10
239.257
20
-63.9731
11
239.025
21
-63.8387
0
LINE
8
BLACK
6
CONTINUOUS
10
239.025
20
-63.8387
11
238.852
21
-63.6329
0
LINE
8
BLACK
6
CONTINUOUS
10
238.852
20
-63.6329
11
238.76
21
-63.3804
0
LINE
8
BLACK
6
CONTINUOUS
10
238.76
20
-63.3804
11
238.76
21
-63.1116
0
LINE
8
BLACK
6
CONTINUOUS
10
238.76
20
-63.1116
11
238.852
21
-62.8591
0
LINE
8
BLACK
6
CONTINUOUS
10
238.852
20
-62.8591
11
239.025
21
-62.6533
0
LINE
8
BLACK
6
CONTINUOUS
10
239.025
20
-62.6533
11
239.257
21
-62.5189
0
LINE
8
BLACK
6
CONTINUOUS
10
239.257
20
-62.5189
11
239.522
21
-62.4722
0
LINE
8
BLACK
6
CONTINUOUS
10
239.522
20
-62.4722
11
239.787
21
-62.5189
0
LINE
8
BLACK
6
CONTINUOUS
10
242.327
20
-62.5189
11
242.559
21
-62.6533
0
LINE
8
BLACK
6
CONTINUOUS
10
242.559
20
-62.6533
11
242.732
21
-62.8591
0
LINE
8
BLACK
6
CONTINUOUS
10
242.732
20
-62.8591
11
242.824
21
-63.1116
0
LINE
8
BLACK
6
CONTINUOUS
10
242.824
20
-63.1116
11
242.824
21
-63.3804
0
LINE
8
BLACK
6
CONTINUOUS
10
242.824
20
-63.3804
11
242.732
21
-63.6329
0
LINE
8
BLACK
6
CONTINUOUS
10
242.732
20
-63.6329
11
242.559
21
-63.8387
0
LINE
8
BLACK
6
CONTINUOUS
10
242.559
20
-63.8387
11
242.327
21
-63.9731
0
LINE
8
BLACK
6
CONTINUOUS
10
242.327
20
-63.9731
11
242.062
21
-64.0198
0
LINE
8
BLACK
6
CONTINUOUS
10
242.062
20
-64.0198
11
241.797
21
-63.9731
0
LINE
8
BLACK
6
CONTINUOUS
10
241.797
20
-63.9731
11
241.565
21
-63.8387
0
LINE
8
BLACK
6
CONTINUOUS
10
241.565
20
-63.8387
11
241.392
21
-63.6329
0
LINE
8
BLACK
6
CONTINUOUS
10
241.392
20
-63.6329
11
241.3
21
-63.3804
0
LINE
8
BLACK
6
CONTINUOUS
10
241.3
20
-63.3804
11
241.3
21
-63.1116
0
LINE
8
BLACK
6
CONTINUOUS
10
241.3
20
-63.1116
11
241.392
21
-62.8591
0
LINE
8
BLACK
6
CONTINUOUS
10
241.392
20
-62.8591
11
241.565
21
-62.6533
0
LINE
8
BLACK
6
CONTINUOUS
10
241.565
20
-62.6533
11
241.797
21
-62.5189
0
LINE
8
BLACK
6
CONTINUOUS
10
241.797
20
-62.5189
11
242.062
21
-62.4722
0
LINE
8
BLACK
6
CONTINUOUS
10
242.062
20
-62.4722
11
242.327
21
-62.5189
0
LINE
8
BLACK
6
CONTINUOUS
10
225.563
20
-62.5189
11
225.795
21
-62.6533
0
LINE
8
BLACK
6
CONTINUOUS
10
225.795
20
-62.6533
11
225.968
21
-62.8591
0
LINE
8
BLACK
6
CONTINUOUS
10
225.968
20
-62.8591
11
226.06
21
-63.1116
0
LINE
8
BLACK
6
CONTINUOUS
10
226.06
20
-63.1116
11
226.06
21
-63.3804
0
LINE
8
BLACK
6
CONTINUOUS
10
226.06
20
-63.3804
11
225.968
21
-63.6329
0
LINE
8
BLACK
6
CONTINUOUS
10
225.968
20
-63.6329
11
225.795
21
-63.8387
0
LINE
8
BLACK
6
CONTINUOUS
10
225.795
20
-63.8387
11
225.563
21
-63.9731
0
LINE
8
BLACK
6
CONTINUOUS
10
225.563
20
-63.9731
11
225.298
21
-64.0198
0
LINE
8
BLACK
6
CONTINUOUS
10
225.298
20
-64.0198
11
225.033
21
-63.9731
0
LINE
8
BLACK
6
CONTINUOUS
10
225.033
20
-63.9731
11
224.801
21
-63.8387
0
LINE
8
BLACK
6
CONTINUOUS
10
224.801
20
-63.8387
11
224.628
21
-63.6329
0
LINE
8
BLACK
6
CONTINUOUS
10
224.628
20
-63.6329
11
224.536
21
-63.3804
0
LINE
8
BLACK
6
CONTINUOUS
10
224.536
20
-63.3804
11
224.536
21
-63.1116
0
LINE
8
BLACK
6
CONTINUOUS
10
224.536
20
-63.1116
11
224.628
21
-62.8591
0
LINE
8
BLACK
6
CONTINUOUS
10
224.628
20
-62.8591
11
224.801
21
-62.6533
0
LINE
8
BLACK
6
CONTINUOUS
10
224.801
20
-62.6533
11
225.033
21
-62.5189
0
LINE
8
BLACK
6
CONTINUOUS
10
225.033
20
-62.5189
11
225.298
21
-62.4722
0
LINE
8
BLACK
6
CONTINUOUS
10
225.298
20
-62.4722
11
225.563
21
-62.5189
0
LINE
8
BLACK
6
CONTINUOUS
10
228.103
20
-62.5189
11
228.335
21
-62.6533
0
LINE
8
BLACK
6
CONTINUOUS
10
228.335
20
-62.6533
11
228.508
21
-62.8591
0
LINE
8
BLACK
6
CONTINUOUS
10
228.508
20
-62.8591
11
228.6
21
-63.1116
0
LINE
8
BLACK
6
CONTINUOUS
10
228.6
20
-63.1116
11
228.6
21
-63.3804
0
LINE
8
BLACK
6
CONTINUOUS
10
228.6
20
-63.3804
11
228.508
21
-63.6329
0
LINE
8
BLACK
6
CONTINUOUS
10
228.508
20
-63.6329
11
228.335
21
-63.8387
0
LINE
8
BLACK
6
CONTINUOUS
10
228.335
20
-63.8387
11
228.103
21
-63.9731
0
LINE
8
BLACK
6
CONTINUOUS
10
228.103
20
-63.9731
11
227.838
21
-64.0198
0
LINE
8
BLACK
6
CONTINUOUS
10
227.838
20
-64.0198
11
227.573
21
-63.9731
0
LINE
8
BLACK
6
CONTINUOUS
10
227.573
20
-63.9731
11
227.341
21
-63.8387
0
LINE
8
BLACK
6
CONTINUOUS
10
227.341
20
-63.8387
11
227.168
21
-63.6329
0
LINE
8
BLACK
6
CONTINUOUS
10
227.168
20
-63.6329
11
227.076
21
-63.3804
0
LINE
8
BLACK
6
CONTINUOUS
10
227.076
20
-63.3804
11
227.076
21
-63.1116
0
LINE
8
BLACK
6
CONTINUOUS
10
227.076
20
-63.1116
11
227.168
21
-62.8591
0
LINE
8
BLACK
6
CONTINUOUS
10
227.168
20
-62.8591
11
227.341
21
-62.6533
0
LINE
8
BLACK
6
CONTINUOUS
10
227.341
20
-62.6533
11
227.573
21
-62.5189
0
LINE
8
BLACK
6
CONTINUOUS
10
227.573
20
-62.5189
11
227.838
21
-62.4722
0
LINE
8
BLACK
6
CONTINUOUS
10
227.838
20
-62.4722
11
228.103
21
-62.5189
0
LINE
8
BLACK
6
CONTINUOUS
10
230.643
20
-62.5189
11
230.875
21
-62.6533
0
LINE
8
BLACK
6
CONTINUOUS
10
230.875
20
-62.6533
11
231.048
21
-62.8591
0
LINE
8
BLACK
6
CONTINUOUS
10
231.048
20
-62.8591
11
231.14
21
-63.1116
0
LINE
8
BLACK
6
CONTINUOUS
10
231.14
20
-63.1116
11
231.14
21
-63.3804
0
LINE
8
BLACK
6
CONTINUOUS
10
231.14
20
-63.3804
11
231.048
21
-63.6329
0
LINE
8
BLACK
6
CONTINUOUS
10
231.048
20
-63.6329
11
230.875
21
-63.8387
0
LINE
8
BLACK
6
CONTINUOUS
10
230.875
20
-63.8387
11
230.643
21
-63.9731
0
LINE
8
BLACK
6
CONTINUOUS
10
230.643
20
-63.9731
11
230.378
21
-64.0198
0
LINE
8
BLACK
6
CONTINUOUS
10
230.378
20
-64.0198
11
230.113
21
-63.9731
0
LINE
8
BLACK
6
CONTINUOUS
10
230.113
20
-63.9731
11
229.881
21
-63.8387
0
LINE
8
BLACK
6
CONTINUOUS
10
229.881
20
-63.8387
11
229.708
21
-63.6329
0
LINE
8
BLACK
6
CONTINUOUS
10
229.708
20
-63.6329
11
229.616
21
-63.3804
0
LINE
8
BLACK
6
CONTINUOUS
10
229.616
20
-63.3804
11
229.616
21
-63.1116
0
LINE
8
BLACK
6
CONTINUOUS
10
229.616
20
-63.1116
11
229.708
21
-62.8591
0
LINE
8
BLACK
6
CONTINUOUS
10
229.708
20
-62.8591
11
229.881
21
-62.6533
0
LINE
8
BLACK
6
CONTINUOUS
10
229.881
20
-62.6533
11
230.113
21
-62.5189
0
LINE
8
BLACK
6
CONTINUOUS
10
230.113
20
-62.5189
11
230.378
21
-62.4722
0
LINE
8
BLACK
6
CONTINUOUS
10
230.378
20
-62.4722
11
230.643
21
-62.5189
0
LINE
8
BLACK
6
CONTINUOUS
10
204.358
20
-53.0656
11
204.885
21
-53.3698
0
LINE
8
BLACK
6
CONTINUOUS
10
204.885
20
-53.3698
11
205.276
21
-53.8358
0
LINE
8
BLACK
6
CONTINUOUS
10
205.276
20
-53.8358
11
205.484
21
-54.4074
0
LINE
8
BLACK
6
CONTINUOUS
10
205.484
20
-54.4074
11
205.484
21
-55.0158
0
LINE
8
BLACK
6
CONTINUOUS
10
205.484
20
-55.0158
11
205.276
21
-55.5874
0
LINE
8
BLACK
6
CONTINUOUS
10
205.276
20
-55.5874
11
204.885
21
-56.0534
0
LINE
8
BLACK
6
CONTINUOUS
10
204.885
20
-56.0534
11
204.358
21
-56.3576
0
LINE
8
BLACK
6
CONTINUOUS
10
204.358
20
-56.3576
11
203.759
21
-56.4632
0
LINE
8
BLACK
6
CONTINUOUS
10
203.759
20
-56.4632
11
203.16
21
-56.3576
0
LINE
8
BLACK
6
CONTINUOUS
10
203.16
20
-56.3576
11
202.633
21
-56.0534
0
LINE
8
BLACK
6
CONTINUOUS
10
202.633
20
-56.0534
11
202.242
21
-55.5874
0
LINE
8
BLACK
6
CONTINUOUS
10
202.242
20
-55.5874
11
202.034
21
-55.0158
0
LINE
8
BLACK
6
CONTINUOUS
10
202.034
20
-55.0158
11
202.034
21
-54.4074
0
LINE
8
BLACK
6
CONTINUOUS
10
202.034
20
-54.4074
11
202.242
21
-53.8358
0
LINE
8
BLACK
6
CONTINUOUS
10
202.242
20
-53.8358
11
202.633
21
-53.3698
0
LINE
8
BLACK
6
CONTINUOUS
10
202.633
20
-53.3698
11
203.16
21
-53.0656
0
LINE
8
BLACK
6
CONTINUOUS
10
203.16
20
-53.0656
11
203.759
21
-52.96
0
LINE
8
BLACK
6
CONTINUOUS
10
203.759
20
-52.96
11
204.358
21
-53.0656
0
LINE
8
BLACK
6
CONTINUOUS
10
196.738
20
-53.0656
11
197.265
21
-53.3698
0
LINE
8
BLACK
6
CONTINUOUS
10
197.265
20
-53.3698
11
197.656
21
-53.8358
0
LINE
8
BLACK
6
CONTINUOUS
10
197.656
20
-53.8358
11
197.864
21
-54.4074
0
LINE
8
BLACK
6
CONTINUOUS
10
197.864
20
-54.4074
11
197.864
21
-55.0158
0
LINE
8
BLACK
6
CONTINUOUS
10
197.864
20
-55.0158
11
197.656
21
-55.5874
0
LINE
8
BLACK
6
CONTINUOUS
10
197.656
20
-55.5874
11
197.265
21
-56.0534
0
LINE
8
BLACK
6
CONTINUOUS
10
197.265
20
-56.0534
11
196.738
21
-56.3576
0
LINE
8
BLACK
6
CONTINUOUS
10
196.738
20
-56.3576
11
196.139
21
-56.4632
0
LINE
8
BLACK
6
CONTINUOUS
10
196.139
20
-56.4632
11
195.54
21
-56.3576
0
LINE
8
BLACK
6
CONTINUOUS
10
195.54
20
-56.3576
11
195.013
21
-56.0534
0
LINE
8
BLACK
6
CONTINUOUS
10
195.013
20
-56.0534
11
194.622
21
-55.5874
0
LINE
8
BLACK
6
CONTINUOUS
10
194.622
20
-55.5874
11
194.414
21
-55.0158
0
LINE
8
BLACK
6
CONTINUOUS
10
194.414
20
-55.0158
11
194.414
21
-54.4074
0
LINE
8
BLACK
6
CONTINUOUS
10
194.414
20
-54.4074
11
194.622
21
-53.8358
0
LINE
8
BLACK
6
CONTINUOUS
10
194.622
20
-53.8358
11
195.013
21
-53.3698
0
LINE
8
BLACK
6
CONTINUOUS
10
195.013
20
-53.3698
11
195.54
21
-53.0656
0
LINE
8
BLACK
6
CONTINUOUS
10
195.54
20
-53.0656
11
196.139
21
-52.96
0
LINE
8
BLACK
6
CONTINUOUS
10
196.139
20
-52.96
11
196.738
21
-53.0656
0
LINE
8
BLACK
6
CONTINUOUS
10
192.496
20
-52.9894
11
193.023
21
-53.2936
0
LINE
8
BLACK
6
CONTINUOUS
10
193.023
20
-53.2936
11
193.414
21
-53.7596
0
LINE
8
BLACK
6
CONTINUOUS
10
193.414
20
-53.7596
11
193.622
21
-54.3312
0
LINE
8
BLACK
6
CONTINUOUS
10
193.622
20
-54.3312
11
193.622
21
-54.9396
0
LINE
8
BLACK
6
CONTINUOUS
10
193.622
20
-54.9396
11
193.414
21
-55.5112
0
LINE
8
BLACK
6
CONTINUOUS
10
193.414
20
-55.5112
11
193.023
21
-55.9772
0
LINE
8
BLACK
6
CONTINUOUS
10
193.023
20
-55.9772
11
192.496
21
-56.2814
0
LINE
8
BLACK
6
CONTINUOUS
10
192.496
20
-56.2814
11
191.897
21
-56.387
0
LINE
8
BLACK
6
CONTINUOUS
10
191.897
20
-56.387
11
191.298
21
-56.2814
0
LINE
8
BLACK
6
CONTINUOUS
10
191.298
20
-56.2814
11
190.771
21
-55.9772
0
LINE
8
BLACK
6
CONTINUOUS
10
190.771
20
-55.9772
11
190.38
21
-55.5112
0
LINE
8
BLACK
6
CONTINUOUS
10
190.38
20
-55.5112
11
190.172
21
-54.9396
0
LINE
8
BLACK
6
CONTINUOUS
10
190.172
20
-54.9396
11
190.172
21
-54.3312
0
LINE
8
BLACK
6
CONTINUOUS
10
190.172
20
-54.3312
11
190.38
21
-53.7596
0
LINE
8
BLACK
6
CONTINUOUS
10
190.38
20
-53.7596
11
190.771
21
-53.2936
0
LINE
8
BLACK
6
CONTINUOUS
10
190.771
20
-53.2936
11
191.298
21
-52.9894
0
LINE
8
BLACK
6
CONTINUOUS
10
191.298
20
-52.9894
11
191.897
21
-52.8838
0
LINE
8
BLACK
6
CONTINUOUS
10
191.897
20
-52.8838
11
192.496
21
-52.9894
0
LINE
8
BLACK
6
CONTINUOUS
10
184.876
20
-52.9894
11
185.403
21
-53.2936
0
LINE
8
BLACK
6
CONTINUOUS
10
185.403
20
-53.2936
11
185.794
21
-53.7596
0
LINE
8
BLACK
6
CONTINUOUS
10
185.794
20
-53.7596
11
186.002
21
-54.3312
0
LINE
8
BLACK
6
CONTINUOUS
10
186.002
20
-54.3312
11
186.002
21
-54.9396
0
LINE
8
BLACK
6
CONTINUOUS
10
186.002
20
-54.9396
11
185.794
21
-55.5112
0
LINE
8
BLACK
6
CONTINUOUS
10
185.794
20
-55.5112
11
185.403
21
-55.9772
0
LINE
8
BLACK
6
CONTINUOUS
10
185.403
20
-55.9772
11
184.876
21
-56.2814
0
LINE
8
BLACK
6
CONTINUOUS
10
184.876
20
-56.2814
11
184.277
21
-56.387
0
LINE
8
BLACK
6
CONTINUOUS
10
184.277
20
-56.387
11
183.678
21
-56.2814
0
LINE
8
BLACK
6
CONTINUOUS
10
183.678
20
-56.2814
11
183.151
21
-55.9772
0
LINE
8
BLACK
6
CONTINUOUS
10
183.151
20
-55.9772
11
182.76
21
-55.5112
0
LINE
8
BLACK
6
CONTINUOUS
10
182.76
20
-55.5112
11
182.552
21
-54.9396
0
LINE
8
BLACK
6
CONTINUOUS
10
182.552
20
-54.9396
11
182.552
21
-54.3312
0
LINE
8
BLACK
6
CONTINUOUS
10
182.552
20
-54.3312
11
182.76
21
-53.7596
0
LINE
8
BLACK
6
CONTINUOUS
10
182.76
20
-53.7596
11
183.151
21
-53.2936
0
LINE
8
BLACK
6
CONTINUOUS
10
183.151
20
-53.2936
11
183.678
21
-52.9894
0
LINE
8
BLACK
6
CONTINUOUS
10
183.678
20
-52.9894
11
184.277
21
-52.8838
0
LINE
8
BLACK
6
CONTINUOUS
10
184.277
20
-52.8838
11
184.876
21
-52.9894
0
LINE
8
BLACK
6
CONTINUOUS
10
208.498
20
-52.9894
11
209.025
21
-53.2936
0
LINE
8
BLACK
6
CONTINUOUS
10
209.025
20
-53.2936
11
209.416
21
-53.7596
0
LINE
8
BLACK
6
CONTINUOUS
10
209.416
20
-53.7596
11
209.624
21
-54.3312
0
LINE
8
BLACK
6
CONTINUOUS
10
209.624
20
-54.3312
11
209.624
21
-54.9396
0
LINE
8
BLACK
6
CONTINUOUS
10
209.624
20
-54.9396
11
209.416
21
-55.5112
0
LINE
8
BLACK
6
CONTINUOUS
10
209.416
20
-55.5112
11
209.025
21
-55.9772
0
LINE
8
BLACK
6
CONTINUOUS
10
209.025
20
-55.9772
11
208.498
21
-56.2814
0
LINE
8
BLACK
6
CONTINUOUS
10
208.498
20
-56.2814
11
207.899
21
-56.387
0
LINE
8
BLACK
6
CONTINUOUS
10
207.899
20
-56.387
11
207.3
21
-56.2814
0
LINE
8
BLACK
6
CONTINUOUS
10
207.3
20
-56.2814
11
206.773
21
-55.9772
0
LINE
8
BLACK
6
CONTINUOUS
10
206.773
20
-55.9772
11
206.382
21
-55.5112
0
LINE
8
BLACK
6
CONTINUOUS
10
206.382
20
-55.5112
11
206.174
21
-54.9396
0
LINE
8
BLACK
6
CONTINUOUS
10
206.174
20
-54.9396
11
206.174
21
-54.3312
0
LINE
8
BLACK
6
CONTINUOUS
10
206.174
20
-54.3312
11
206.382
21
-53.7596
0
LINE
8
BLACK
6
CONTINUOUS
10
206.382
20
-53.7596
11
206.773
21
-53.2936
0
LINE
8
BLACK
6
CONTINUOUS
10
206.773
20
-53.2936
11
207.3
21
-52.9894
0
LINE
8
BLACK
6
CONTINUOUS
10
207.3
20
-52.9894
11
207.899
21
-52.8838
0
LINE
8
BLACK
6
CONTINUOUS
10
207.899
20
-52.8838
11
208.498
21
-52.9894
0
LINE
8
BLACK
6
CONTINUOUS
10
216.118
20
-52.9894
11
216.645
21
-53.2936
0
LINE
8
BLACK
6
CONTINUOUS
10
216.645
20
-53.2936
11
217.036
21
-53.7596
0
LINE
8
BLACK
6
CONTINUOUS
10
217.036
20
-53.7596
11
217.244
21
-54.3312
0
LINE
8
BLACK
6
CONTINUOUS
10
217.244
20
-54.3312
11
217.244
21
-54.9396
0
LINE
8
BLACK
6
CONTINUOUS
10
217.244
20
-54.9396
11
217.036
21
-55.5112
0
LINE
8
BLACK
6
CONTINUOUS
10
217.036
20
-55.5112
11
216.645
21
-55.9772
0
LINE
8
BLACK
6
CONTINUOUS
10
216.645
20
-55.9772
11
216.118
21
-56.2814
0
LINE
8
BLACK
6
CONTINUOUS
10
216.118
20
-56.2814
11
215.519
21
-56.387
0
LINE
8
BLACK
6
CONTINUOUS
10
215.519
20
-56.387
11
214.92
21
-56.2814
0
LINE
8
BLACK
6
CONTINUOUS
10
214.92
20
-56.2814
11
214.393
21
-55.9772
0
LINE
8
BLACK
6
CONTINUOUS
10
214.393
20
-55.9772
11
214.002
21
-55.5112
0
LINE
8
BLACK
6
CONTINUOUS
10
214.002
20
-55.5112
11
213.794
21
-54.9396
0
LINE
8
BLACK
6
CONTINUOUS
10
213.794
20
-54.9396
11
213.794
21
-54.3312
0
LINE
8
BLACK
6
CONTINUOUS
10
213.794
20
-54.3312
11
214.002
21
-53.7596
0
LINE
8
BLACK
6
CONTINUOUS
10
214.002
20
-53.7596
11
214.393
21
-53.2936
0
LINE
8
BLACK
6
CONTINUOUS
10
214.393
20
-53.2936
11
214.92
21
-52.9894
0
LINE
8
BLACK
6
CONTINUOUS
10
214.92
20
-52.9894
11
215.519
21
-52.8838
0
LINE
8
BLACK
6
CONTINUOUS
10
215.519
20
-52.8838
11
216.118
21
-52.9894
0
LINE
8
BLACK
6
CONTINUOUS
10
167.987
20
-52.978
11
168.514
21
-53.2822
0
LINE
8
BLACK
6
CONTINUOUS
10
168.514
20
-53.2822
11
168.905
21
-53.7482
0
LINE
8
BLACK
6
CONTINUOUS
10
168.905
20
-53.7482
11
169.113
21
-54.3198
0
LINE
8
BLACK
6
CONTINUOUS
10
169.113
20
-54.3198
11
169.113
21
-54.9282
0
LINE
8
BLACK
6
CONTINUOUS
10
169.113
20
-54.9282
11
168.905
21
-55.4998
0
LINE
8
BLACK
6
CONTINUOUS
10
168.905
20
-55.4998
11
168.514
21
-55.9658
0
LINE
8
BLACK
6
CONTINUOUS
10
168.514
20
-55.9658
11
167.987
21
-56.27
0
LINE
8
BLACK
6
CONTINUOUS
10
167.987
20
-56.27
11
167.388
21
-56.3756
0
LINE
8
BLACK
6
CONTINUOUS
10
167.388
20
-56.3756
11
166.789
21
-56.27
0
LINE
8
BLACK
6
CONTINUOUS
10
166.789
20
-56.27
11
166.262
21
-55.9658
0
LINE
8
BLACK
6
CONTINUOUS
10
166.262
20
-55.9658
11
165.871
21
-55.4998
0
LINE
8
BLACK
6
CONTINUOUS
10
165.871
20
-55.4998
11
165.663
21
-54.9282
0
LINE
8
BLACK
6
CONTINUOUS
10
165.663
20
-54.9282
11
165.663
21
-54.3198
0
LINE
8
BLACK
6
CONTINUOUS
10
165.663
20
-54.3198
11
165.871
21
-53.7482
0
LINE
8
BLACK
6
CONTINUOUS
10
165.871
20
-53.7482
11
166.262
21
-53.2822
0
LINE
8
BLACK
6
CONTINUOUS
10
166.262
20
-53.2822
11
166.789
21
-52.978
0
LINE
8
BLACK
6
CONTINUOUS
10
166.789
20
-52.978
11
167.388
21
-52.8724
0
LINE
8
BLACK
6
CONTINUOUS
10
167.388
20
-52.8724
11
167.987
21
-52.978
0
LINE
8
BLACK
6
CONTINUOUS
10
163.159
20
-52.974
11
163.686
21
-53.2782
0
LINE
8
BLACK
6
CONTINUOUS
10
163.686
20
-53.2782
11
164.077
21
-53.7442
0
LINE
8
BLACK
6
CONTINUOUS
10
164.077
20
-53.7442
11
164.285
21
-54.3158
0
LINE
8
BLACK
6
CONTINUOUS
10
164.285
20
-54.3158
11
164.285
21
-54.9242
0
LINE
8
BLACK
6
CONTINUOUS
10
164.285
20
-54.9242
11
164.077
21
-55.4958
0
LINE
8
BLACK
6
CONTINUOUS
10
164.077
20
-55.4958
11
163.686
21
-55.9618
0
LINE
8
BLACK
6
CONTINUOUS
10
163.686
20
-55.9618
11
163.159
21
-56.266
0
LINE
8
BLACK
6
CONTINUOUS
10
163.159
20
-56.266
11
162.56
21
-56.3716
0
LINE
8
BLACK
6
CONTINUOUS
10
162.56
20
-56.3716
11
161.961
21
-56.266
0
LINE
8
BLACK
6
CONTINUOUS
10
161.961
20
-56.266
11
161.434
21
-55.9618
0
LINE
8
BLACK
6
CONTINUOUS
10
161.434
20
-55.9618
11
161.043
21
-55.4958
0
LINE
8
BLACK
6
CONTINUOUS
10
161.043
20
-55.4958
11
160.835
21
-54.9242
0
LINE
8
BLACK
6
CONTINUOUS
10
160.835
20
-54.9242
11
160.835
21
-54.3158
0
LINE
8
BLACK
6
CONTINUOUS
10
160.835
20
-54.3158
11
161.043
21
-53.7442
0
LINE
8
BLACK
6
CONTINUOUS
10
161.043
20
-53.7442
11
161.434
21
-53.2782
0
LINE
8
BLACK
6
CONTINUOUS
10
161.434
20
-53.2782
11
161.961
21
-52.974
0
LINE
8
BLACK
6
CONTINUOUS
10
161.961
20
-52.974
11
162.56
21
-52.8684
0
LINE
8
BLACK
6
CONTINUOUS
10
162.56
20
-52.8684
11
163.159
21
-52.974
0
LINE
8
BLACK
6
CONTINUOUS
10
177.131
20
-52.964
11
177.658
21
-53.2682
0
LINE
8
BLACK
6
CONTINUOUS
10
177.658
20
-53.2682
11
178.049
21
-53.7342
0
LINE
8
BLACK
6
CONTINUOUS
10
178.049
20
-53.7342
11
178.257
21
-54.3058
0
LINE
8
BLACK
6
CONTINUOUS
10
178.257
20
-54.3058
11
178.257
21
-54.9142
0
LINE
8
BLACK
6
CONTINUOUS
10
178.257
20
-54.9142
11
178.049
21
-55.4858
0
LINE
8
BLACK
6
CONTINUOUS
10
178.049
20
-55.4858
11
177.658
21
-55.9518
0
LINE
8
BLACK
6
CONTINUOUS
10
177.658
20
-55.9518
11
177.131
21
-56.256
0
LINE
8
BLACK
6
CONTINUOUS
10
177.131
20
-56.256
11
176.532
21
-56.3616
0
LINE
8
BLACK
6
CONTINUOUS
10
176.532
20
-56.3616
11
175.933
21
-56.256
0
LINE
8
BLACK
6
CONTINUOUS
10
175.933
20
-56.256
11
175.406
21
-55.9518
0
LINE
8
BLACK
6
CONTINUOUS
10
175.406
20
-55.9518
11
175.015
21
-55.4858
0
LINE
8
BLACK
6
CONTINUOUS
10
175.015
20
-55.4858
11
174.807
21
-54.9142
0
LINE
8
BLACK
6
CONTINUOUS
10
174.807
20
-54.9142
11
174.807
21
-54.3058
0
LINE
8
BLACK
6
CONTINUOUS
10
174.807
20
-54.3058
11
175.015
21
-53.7342
0
LINE
8
BLACK
6
CONTINUOUS
10
175.015
20
-53.7342
11
175.406
21
-53.2682
0
LINE
8
BLACK
6
CONTINUOUS
10
175.406
20
-53.2682
11
175.933
21
-52.964
0
LINE
8
BLACK
6
CONTINUOUS
10
175.933
20
-52.964
11
176.532
21
-52.8584
0
LINE
8
BLACK
6
CONTINUOUS
10
176.532
20
-52.8584
11
177.131
21
-52.964
0
LINE
8
BLACK
6
CONTINUOUS
10
236.311
20
-52.964
11
236.838
21
-53.2682
0
LINE
8
BLACK
6
CONTINUOUS
10
236.838
20
-53.2682
11
237.229
21
-53.7342
0
LINE
8
BLACK
6
CONTINUOUS
10
237.229
20
-53.7342
11
237.437
21
-54.3058
0
LINE
8
BLACK
6
CONTINUOUS
10
237.437
20
-54.3058
11
237.437
21
-54.9142
0
LINE
8
BLACK
6
CONTINUOUS
10
237.437
20
-54.9142
11
237.229
21
-55.4858
0
LINE
8
BLACK
6
CONTINUOUS
10
237.229
20
-55.4858
11
236.838
21
-55.9518
0
LINE
8
BLACK
6
CONTINUOUS
10
236.838
20
-55.9518
11
236.311
21
-56.256
0
LINE
8
BLACK
6
CONTINUOUS
10
236.311
20
-56.256
11
235.712
21
-56.3616
0
LINE
8
BLACK
6
CONTINUOUS
10
235.712
20
-56.3616
11
235.113
21
-56.256
0
LINE
8
BLACK
6
CONTINUOUS
10
235.113
20
-56.256
11
234.586
21
-55.9518
0
LINE
8
BLACK
6
CONTINUOUS
10
234.586
20
-55.9518
11
234.195
21
-55.4858
0
LINE
8
BLACK
6
CONTINUOUS
10
234.195
20
-55.4858
11
233.987
21
-54.9142
0
LINE
8
BLACK
6
CONTINUOUS
10
233.987
20
-54.9142
11
233.987
21
-54.3058
0
LINE
8
BLACK
6
CONTINUOUS
10
233.987
20
-54.3058
11
234.195
21
-53.7342
0
LINE
8
BLACK
6
CONTINUOUS
10
234.195
20
-53.7342
11
234.586
21
-53.2682
0
LINE
8
BLACK
6
CONTINUOUS
10
234.586
20
-53.2682
11
235.113
21
-52.964
0
LINE
8
BLACK
6
CONTINUOUS
10
235.113
20
-52.964
11
235.712
21
-52.8584
0
LINE
8
BLACK
6
CONTINUOUS
10
235.712
20
-52.8584
11
236.311
21
-52.964
0
LINE
8
BLACK
6
CONTINUOUS
10
154.015
20
-52.964
11
154.542
21
-53.2682
0
LINE
8
BLACK
6
CONTINUOUS
10
154.542
20
-53.2682
11
154.933
21
-53.7342
0
LINE
8
BLACK
6
CONTINUOUS
10
154.933
20
-53.7342
11
155.141
21
-54.3058
0
LINE
8
BLACK
6
CONTINUOUS
10
155.141
20
-54.3058
11
155.141
21
-54.9142
0
LINE
8
BLACK
6
CONTINUOUS
10
155.141
20
-54.9142
11
154.933
21
-55.4858
0
LINE
8
BLACK
6
CONTINUOUS
10
154.933
20
-55.4858
11
154.542
21
-55.9518
0
LINE
8
BLACK
6
CONTINUOUS
10
154.542
20
-55.9518
11
154.015
21
-56.256
0
LINE
8
BLACK
6
CONTINUOUS
10
154.015
20
-56.256
11
153.416
21
-56.3616
0
LINE
8
BLACK
6
CONTINUOUS
10
153.416
20
-56.3616
11
152.817
21
-56.256
0
LINE
8
BLACK
6
CONTINUOUS
10
152.817
20
-56.256
11
152.29
21
-55.9518
0
LINE
8
BLACK
6
CONTINUOUS
10
152.29
20
-55.9518
11
151.899
21
-55.4858
0
LINE
8
BLACK
6
CONTINUOUS
10
151.899
20
-55.4858
11
151.691
21
-54.9142
0
LINE
8
BLACK
6
CONTINUOUS
10
151.691
20
-54.9142
11
151.691
21
-54.3058
0
LINE
8
BLACK
6
CONTINUOUS
10
151.691
20
-54.3058
11
151.899
21
-53.7342
0
LINE
8
BLACK
6
CONTINUOUS
10
151.899
20
-53.7342
11
152.29
21
-53.2682
0
LINE
8
BLACK
6
CONTINUOUS
10
152.29
20
-53.2682
11
152.817
21
-52.964
0
LINE
8
BLACK
6
CONTINUOUS
10
152.817
20
-52.964
11
153.416
21
-52.8584
0
LINE
8
BLACK
6
CONTINUOUS
10
153.416
20
-52.8584
11
154.015
21
-52.964
0
LINE
8
BLACK
6
CONTINUOUS
10
243.931
20
-52.964
11
244.458
21
-53.2682
0
LINE
8
BLACK
6
CONTINUOUS
10
244.458
20
-53.2682
11
244.849
21
-53.7342
0
LINE
8
BLACK
6
CONTINUOUS
10
244.849
20
-53.7342
11
245.057
21
-54.3058
0
LINE
8
BLACK
6
CONTINUOUS
10
245.057
20
-54.3058
11
245.057
21
-54.9142
0
LINE
8
BLACK
6
CONTINUOUS
10
245.057
20
-54.9142
11
244.849
21
-55.4858
0
LINE
8
BLACK
6
CONTINUOUS
10
244.849
20
-55.4858
11
244.458
21
-55.9518
0
LINE
8
BLACK
6
CONTINUOUS
10
244.458
20
-55.9518
11
243.931
21
-56.256
0
LINE
8
BLACK
6
CONTINUOUS
10
243.931
20
-56.256
11
243.332
21
-56.3616
0
LINE
8
BLACK
6
CONTINUOUS
10
243.332
20
-56.3616
11
242.733
21
-56.256
0
LINE
8
BLACK
6
CONTINUOUS
10
242.733
20
-56.256
11
242.206
21
-55.9518
0
LINE
8
BLACK
6
CONTINUOUS
10
242.206
20
-55.9518
11
241.815
21
-55.4858
0
LINE
8
BLACK
6
CONTINUOUS
10
241.815
20
-55.4858
11
241.607
21
-54.9142
0
LINE
8
BLACK
6
CONTINUOUS
10
241.607
20
-54.9142
11
241.607
21
-54.3058
0
LINE
8
BLACK
6
CONTINUOUS
10
241.607
20
-54.3058
11
241.815
21
-53.7342
0
LINE
8
BLACK
6
CONTINUOUS
10
241.815
20
-53.7342
11
242.206
21
-53.2682
0
LINE
8
BLACK
6
CONTINUOUS
10
242.206
20
-53.2682
11
242.733
21
-52.964
0
LINE
8
BLACK
6
CONTINUOUS
10
242.733
20
-52.964
11
243.332
21
-52.8584
0
LINE
8
BLACK
6
CONTINUOUS
10
243.332
20
-52.8584
11
243.931
21
-52.964
0
LINE
8
BLACK
6
CONTINUOUS
10
232.247
20
-52.964
11
232.774
21
-53.2682
0
LINE
8
BLACK
6
CONTINUOUS
10
232.774
20
-53.2682
11
233.165
21
-53.7342
0
LINE
8
BLACK
6
CONTINUOUS
10
233.165
20
-53.7342
11
233.373
21
-54.3058
0
LINE
8
BLACK
6
CONTINUOUS
10
233.373
20
-54.3058
11
233.373
21
-54.9142
0
LINE
8
BLACK
6
CONTINUOUS
10
233.373
20
-54.9142
11
233.165
21
-55.4858
0
LINE
8
BLACK
6
CONTINUOUS
10
233.165
20
-55.4858
11
232.774
21
-55.9518
0
LINE
8
BLACK
6
CONTINUOUS
10
232.774
20
-55.9518
11
232.247
21
-56.256
0
LINE
8
BLACK
6
CONTINUOUS
10
232.247
20
-56.256
11
231.648
21
-56.3616
0
LINE
8
BLACK
6
CONTINUOUS
10
231.648
20
-56.3616
11
231.049
21
-56.256
0
LINE
8
BLACK
6
CONTINUOUS
10
231.049
20
-56.256
11
230.522
21
-55.9518
0
LINE
8
BLACK
6
CONTINUOUS
10
230.522
20
-55.9518
11
230.131
21
-55.4858
0
LINE
8
BLACK
6
CONTINUOUS
10
230.131
20
-55.4858
11
229.923
21
-54.9142
0
LINE
8
BLACK
6
CONTINUOUS
10
229.923
20
-54.9142
11
229.923
21
-54.3058
0
LINE
8
BLACK
6
CONTINUOUS
10
229.923
20
-54.3058
11
230.131
21
-53.7342
0
LINE
8
BLACK
6
CONTINUOUS
10
230.131
20
-53.7342
11
230.522
21
-53.2682
0
LINE
8
BLACK
6
CONTINUOUS
10
230.522
20
-53.2682
11
231.049
21
-52.964
0
LINE
8
BLACK
6
CONTINUOUS
10
231.049
20
-52.964
11
231.648
21
-52.8584
0
LINE
8
BLACK
6
CONTINUOUS
10
231.648
20
-52.8584
11
232.247
21
-52.964
0
LINE
8
BLACK
6
CONTINUOUS
10
224.627
20
-52.964
11
225.154
21
-53.2682
0
LINE
8
BLACK
6
CONTINUOUS
10
225.154
20
-53.2682
11
225.545
21
-53.7342
0
LINE
8
BLACK
6
CONTINUOUS
10
225.545
20
-53.7342
11
225.753
21
-54.3058
0
LINE
8
BLACK
6
CONTINUOUS
10
225.753
20
-54.3058
11
225.753
21
-54.9142
0
LINE
8
BLACK
6
CONTINUOUS
10
225.753
20
-54.9142
11
225.545
21
-55.4858
0
LINE
8
BLACK
6
CONTINUOUS
10
225.545
20
-55.4858
11
225.154
21
-55.9518
0
LINE
8
BLACK
6
CONTINUOUS
10
225.154
20
-55.9518
11
224.627
21
-56.256
0
LINE
8
BLACK
6
CONTINUOUS
10
224.627
20
-56.256
11
224.028
21
-56.3616
0
LINE
8
BLACK
6
CONTINUOUS
10
224.028
20
-56.3616
11
223.429
21
-56.256
0
LINE
8
BLACK
6
CONTINUOUS
10
223.429
20
-56.256
11
222.902
21
-55.9518
0
LINE
8
BLACK
6
CONTINUOUS
10
222.902
20
-55.9518
11
222.511
21
-55.4858
0
LINE
8
BLACK
6
CONTINUOUS
10
222.511
20
-55.4858
11
222.303
21
-54.9142
0
LINE
8
BLACK
6
CONTINUOUS
10
222.303
20
-54.9142
11
222.303
21
-54.3058
0
LINE
8
BLACK
6
CONTINUOUS
10
222.303
20
-54.3058
11
222.511
21
-53.7342
0
LINE
8
BLACK
6
CONTINUOUS
10
222.511
20
-53.7342
11
222.902
21
-53.2682
0
LINE
8
BLACK
6
CONTINUOUS
10
222.902
20
-53.2682
11
223.429
21
-52.964
0
LINE
8
BLACK
6
CONTINUOUS
10
223.429
20
-52.964
11
224.028
21
-52.8584
0
LINE
8
BLACK
6
CONTINUOUS
10
224.028
20
-52.8584
11
224.627
21
-52.964
0
LINE
8
BLACK
6
CONTINUOUS
10
172.303
20
-52.96
11
172.83
21
-53.2642
0
LINE
8
BLACK
6
CONTINUOUS
10
172.83
20
-53.2642
11
173.221
21
-53.7302
0
LINE
8
BLACK
6
CONTINUOUS
10
173.221
20
-53.7302
11
173.429
21
-54.3018
0
LINE
8
BLACK
6
CONTINUOUS
10
173.429
20
-54.3018
11
173.429
21
-54.9102
0
LINE
8
BLACK
6
CONTINUOUS
10
173.429
20
-54.9102
11
173.221
21
-55.4818
0
LINE
8
BLACK
6
CONTINUOUS
10
173.221
20
-55.4818
11
172.83
21
-55.9478
0
LINE
8
BLACK
6
CONTINUOUS
10
172.83
20
-55.9478
11
172.303
21
-56.252
0
LINE
8
BLACK
6
CONTINUOUS
10
172.303
20
-56.252
11
171.704
21
-56.3576
0
LINE
8
BLACK
6
CONTINUOUS
10
171.704
20
-56.3576
11
171.105
21
-56.252
0
LINE
8
BLACK
6
CONTINUOUS
10
171.105
20
-56.252
11
170.578
21
-55.9478
0
LINE
8
BLACK
6
CONTINUOUS
10
170.578
20
-55.9478
11
170.187
21
-55.4818
0
LINE
8
BLACK
6
CONTINUOUS
10
170.187
20
-55.4818
11
169.979
21
-54.9102
0
LINE
8
BLACK
6
CONTINUOUS
10
169.979
20
-54.9102
11
169.979
21
-54.3018
0
LINE
8
BLACK
6
CONTINUOUS
10
169.979
20
-54.3018
11
170.187
21
-53.7302
0
LINE
8
BLACK
6
CONTINUOUS
10
170.187
20
-53.7302
11
170.578
21
-53.2642
0
LINE
8
BLACK
6
CONTINUOUS
10
170.578
20
-53.2642
11
171.105
21
-52.96
0
LINE
8
BLACK
6
CONTINUOUS
10
171.105
20
-52.96
11
171.704
21
-52.8544
0
LINE
8
BLACK
6
CONTINUOUS
10
171.704
20
-52.8544
11
172.303
21
-52.96
0
LINE
8
BLACK
6
CONTINUOUS
10
149.187
20
-52.96
11
149.714
21
-53.2642
0
LINE
8
BLACK
6
CONTINUOUS
10
149.714
20
-53.2642
11
150.105
21
-53.7302
0
LINE
8
BLACK
6
CONTINUOUS
10
150.105
20
-53.7302
11
150.313
21
-54.3018
0
LINE
8
BLACK
6
CONTINUOUS
10
150.313
20
-54.3018
11
150.313
21
-54.9102
0
LINE
8
BLACK
6
CONTINUOUS
10
150.313
20
-54.9102
11
150.105
21
-55.4818
0
LINE
8
BLACK
6
CONTINUOUS
10
150.105
20
-55.4818
11
149.714
21
-55.9478
0
LINE
8
BLACK
6
CONTINUOUS
10
149.714
20
-55.9478
11
149.187
21
-56.252
0
LINE
8
BLACK
6
CONTINUOUS
10
149.187
20
-56.252
11
148.588
21
-56.3576
0
LINE
8
BLACK
6
CONTINUOUS
10
148.588
20
-56.3576
11
147.989
21
-56.252
0
LINE
8
BLACK
6
CONTINUOUS
10
147.989
20
-56.252
11
147.462
21
-55.9478
0
LINE
8
BLACK
6
CONTINUOUS
10
147.462
20
-55.9478
11
147.071
21
-55.4818
0
LINE
8
BLACK
6
CONTINUOUS
10
147.071
20
-55.4818
11
146.863
21
-54.9102
0
LINE
8
BLACK
6
CONTINUOUS
10
146.863
20
-54.9102
11
146.863
21
-54.3018
0
LINE
8
BLACK
6
CONTINUOUS
10
146.863
20
-54.3018
11
147.071
21
-53.7302
0
LINE
8
BLACK
6
CONTINUOUS
10
147.071
20
-53.7302
11
147.462
21
-53.2642
0
LINE
8
BLACK
6
CONTINUOUS
10
147.462
20
-53.2642
11
147.989
21
-52.96
0
LINE
8
BLACK
6
CONTINUOUS
10
147.989
20
-52.96
11
148.588
21
-52.8544
0
LINE
8
BLACK
6
CONTINUOUS
10
148.588
20
-52.8544
11
149.187
21
-52.96
  0
ENDSEC
  0
EOF
