  0
SECTION
  2
HEADER
  9
$ANGBASE
  50
0.0
  9
$ANGDIR
  70
  1
  9
$MEASUREMENT
  70
0
  0
ENDSEC
  0
SECTION
  2
TABLES
  0
TABLE
  2
LTYPE
  70
4
  0
LTYPE
  5
40F
  2
CONTINUOUS
  70
0
  3
Solid line
  72
65
  73
0
  40
0.0
  0
LTYPE
  5
410
  2
DASHDOT
 70
0
  3
Dash Dot ____ _ ____ _
 72
65
 73
4
 40
2.0
 49
1.25
 49
-0.25
 49
0.25
 49
-0.25
  0
LTYPE
  5
411
  2
DASHED
 70
0
  3
Dashed __ __ __ __ __
 72
65
 73
2
 40
0.75
 49
0.5
 49
-0.25
  0
LTYPE
  5
43B
  2
DOTTED
 70
0
  3
Dotted .  .  .  .
 72
65
 73
2
 40
0.2
 49
0.0
 49
-0.2
  0
ENDTAB
  0
TABLE
  2
STYLE
  70
4
  0
STYLE
  2
KICAD
  70
0
  40
0
  41
1
  42
1
  50
0
  71
0
  3
isocp.shx
  0
STYLE
  2
KICADB
  70
0
  40
0
  41
1
  42
1
  50
0
  71
0
  3
isocp.shx
  0
STYLE
  2
KICADI
  70
0
  40
0
  41
1
  42
1
  50
15
  71
0
  3
isocp.shx
  0
STYLE
  2
KICADBI
  70
0
  40
0
  41
1
  42
1
  50
15
  71
0
  3
isocp.shx
  0
ENDTAB
  0
TABLE
  2
LAYER
  70
30
  0
LAYER
  2
BLACK
  70
0
  62
7
  6
CONTINUOUS
  0
LAYER
  2
GRAY1
  70
0
  62
251
  6
CONTINUOUS
  0
LAYER
  2
GRAY2
  70
0
  62
8
  6
CONTINUOUS
  0
LAYER
  2
GRAY3
  70
0
  62
9
  6
CONTINUOUS
  0
LAYER
  2
WHITE
  70
0
  62
7
  6
CONTINUOUS
  0
LAYER
  2
LYELLOW
  70
0
  62
51
  6
CONTINUOUS
  0
LAYER
  2
BLUE1
  70
0
  62
178
  6
CONTINUOUS
  0
LAYER
  2
GREEN1
  70
0
  62
98
  6
CONTINUOUS
  0
LAYER
  2
CYAN1
  70
0
  62
138
  6
CONTINUOUS
  0
LAYER
  2
RED1
  70
0
  62
18
  6
CONTINUOUS
  0
LAYER
  2
MAGENTA1
  70
0
  62
228
  6
CONTINUOUS
  0
LAYER
  2
BROWN1
  70
0
  62
58
  6
CONTINUOUS
  0
LAYER
  2
BLUE2
  70
0
  62
5
  6
CONTINUOUS
  0
LAYER
  2
GREEN2
  70
0
  62
3
  6
CONTINUOUS
  0
LAYER
  2
CYAN2
  70
0
  62
4
  6
CONTINUOUS
  0
LAYER
  2
RED2
  70
0
  62
1
  6
CONTINUOUS
  0
LAYER
  2
MAGENTA2
  70
0
  62
6
  6
CONTINUOUS
  0
LAYER
  2
BROWN2
  70
0
  62
54
  6
CONTINUOUS
  0
LAYER
  2
BLUE3
  70
0
  62
171
  6
CONTINUOUS
  0
LAYER
  2
GREEN3
  70
0
  62
91
  6
CONTINUOUS
  0
LAYER
  2
CYAN3
  70
0
  62
131
  6
CONTINUOUS
  0
LAYER
  2
RED3
  70
0
  62
11
  6
CONTINUOUS
  0
LAYER
  2
MAGENTA3
  70
0
  62
221
  6
CONTINUOUS
  0
LAYER
  2
YELLOW3
  70
0
  62
2
  6
CONTINUOUS
  0
LAYER
  2
BLUE4
  70
0
  62
5
  6
CONTINUOUS
  0
LAYER
  2
GREEN4
  70
0
  62
3
  6
CONTINUOUS
  0
LAYER
  2
CYAN4
  70
0
  62
4
  6
CONTINUOUS
  0
LAYER
  2
RED4
  70
0
  62
1
  6
CONTINUOUS
  0
LAYER
  2
MAGENTA4
  70
0
  62
6
  6
CONTINUOUS
  0
LAYER
  2
YELLOW4
  70
0
  62
2
  6
CONTINUOUS
  0
ENDTAB
  0
ENDSEC
  0
SECTION
  2
ENTITIES
0
LINE
8
BLACK
6
CONTINUOUS
10
243.094
20
-49.9392
11
243.662
21
-50.0207
0
LINE
8
BLACK
6
CONTINUOUS
10
243.662
20
-50.0207
11
243.662
21
-50.0207
0
LINE
8
BLACK
6
CONTINUOUS
10
243.662
20
-50.0207
11
243.662
21
-50.0207
0
LINE
8
BLACK
6
CONTINUOUS
10
243.662
20
-50.0207
11
243.664
21
-50.0209
0
LINE
8
BLACK
6
CONTINUOUS
10
243.664
20
-50.0209
11
243.677
21
-50.0248
0
LINE
8
BLACK
6
CONTINUOUS
10
243.677
20
-50.0248
11
243.69
21
-50.0286
0
LINE
8
BLACK
6
CONTINUOUS
10
243.69
20
-50.0286
11
244.214
21
-50.2671
0
LINE
8
BLACK
6
CONTINUOUS
10
244.214
20
-50.2671
11
244.214
21
-50.2671
0
LINE
8
BLACK
6
CONTINUOUS
10
244.214
20
-50.2671
11
244.214
21
-50.2671
0
LINE
8
BLACK
6
CONTINUOUS
10
244.214
20
-50.2671
11
244.215
21
-50.2676
0
LINE
8
BLACK
6
CONTINUOUS
10
244.215
20
-50.2676
11
244.227
21
-50.275
0
LINE
8
BLACK
6
CONTINUOUS
10
244.227
20
-50.275
11
244.238
21
-50.2824
0
LINE
8
BLACK
6
CONTINUOUS
10
244.238
20
-50.2824
11
244.675
21
-50.6585
0
LINE
8
BLACK
6
CONTINUOUS
10
244.675
20
-50.6585
11
244.675
21
-50.6593
0
LINE
8
BLACK
6
CONTINUOUS
10
244.675
20
-50.6593
11
244.684
21
-50.6696
0
LINE
8
BLACK
6
CONTINUOUS
10
244.684
20
-50.6696
11
244.693
21
-50.6798
0
LINE
8
BLACK
6
CONTINUOUS
10
244.693
20
-50.6798
11
245.007
21
-51.1633
0
LINE
8
BLACK
6
CONTINUOUS
10
245.007
20
-51.1633
11
245.007
21
-51.1643
0
LINE
8
BLACK
6
CONTINUOUS
10
245.007
20
-51.1643
11
245.013
21
-51.1767
0
LINE
8
BLACK
6
CONTINUOUS
10
245.013
20
-51.1767
11
245.018
21
-51.189
0
LINE
8
BLACK
6
CONTINUOUS
10
245.018
20
-51.189
11
245.183
21
-51.741
0
LINE
8
BLACK
6
CONTINUOUS
10
245.183
20
-51.741
11
245.184
21
-51.7422
0
LINE
8
BLACK
6
CONTINUOUS
10
245.184
20
-51.7422
11
245.185
21
-51.7523
0
LINE
8
BLACK
6
CONTINUOUS
10
245.185
20
-51.7523
11
245.187
21
-51.7622
0
LINE
8
BLACK
6
CONTINUOUS
10
245.187
20
-51.7622
11
245.209
21
-52.0576
0
LINE
8
BLACK
6
CONTINUOUS
10
245.209
20
-52.0576
11
245.21
21
-52.0613
0
LINE
8
BLACK
6
CONTINUOUS
10
245.21
20
-52.0613
11
245.21
21
-101.355
0
LINE
8
BLACK
6
CONTINUOUS
10
245.21
20
-101.355
11
245.209
21
-101.362
0
LINE
8
BLACK
6
CONTINUOUS
10
245.209
20
-101.362
11
245.127
21
-101.93
0
LINE
8
BLACK
6
CONTINUOUS
10
245.127
20
-101.93
11
245.127
21
-101.93
0
LINE
8
BLACK
6
CONTINUOUS
10
245.127
20
-101.93
11
245.127
21
-101.93
0
LINE
8
BLACK
6
CONTINUOUS
10
245.127
20
-101.93
11
245.127
21
-101.932
0
LINE
8
BLACK
6
CONTINUOUS
10
245.127
20
-101.932
11
245.123
21
-101.945
0
LINE
8
BLACK
6
CONTINUOUS
10
245.123
20
-101.945
11
245.119
21
-101.958
0
LINE
8
BLACK
6
CONTINUOUS
10
245.119
20
-101.958
11
244.881
21
-102.482
0
LINE
8
BLACK
6
CONTINUOUS
10
244.881
20
-102.482
11
244.881
21
-102.482
0
LINE
8
BLACK
6
CONTINUOUS
10
244.881
20
-102.482
11
244.881
21
-102.482
0
LINE
8
BLACK
6
CONTINUOUS
10
244.881
20
-102.482
11
244.88
21
-102.483
0
LINE
8
BLACK
6
CONTINUOUS
10
244.88
20
-102.483
11
244.873
21
-102.495
0
LINE
8
BLACK
6
CONTINUOUS
10
244.873
20
-102.495
11
244.866
21
-102.506
0
LINE
8
BLACK
6
CONTINUOUS
10
244.866
20
-102.506
11
244.49
21
-102.943
0
LINE
8
BLACK
6
CONTINUOUS
10
244.49
20
-102.943
11
244.489
21
-102.943
0
LINE
8
BLACK
6
CONTINUOUS
10
244.489
20
-102.943
11
244.478
21
-102.952
0
LINE
8
BLACK
6
CONTINUOUS
10
244.478
20
-102.952
11
244.468
21
-102.961
0
LINE
8
BLACK
6
CONTINUOUS
10
244.468
20
-102.961
11
243.985
21
-103.275
0
LINE
8
BLACK
6
CONTINUOUS
10
243.985
20
-103.275
11
243.984
21
-103.275
0
LINE
8
BLACK
6
CONTINUOUS
10
243.984
20
-103.275
11
243.971
21
-103.281
0
LINE
8
BLACK
6
CONTINUOUS
10
243.971
20
-103.281
11
243.959
21
-103.286
0
LINE
8
BLACK
6
CONTINUOUS
10
243.959
20
-103.286
11
243.407
21
-103.451
0
LINE
8
BLACK
6
CONTINUOUS
10
243.407
20
-103.451
11
243.406
21
-103.452
0
LINE
8
BLACK
6
CONTINUOUS
10
243.406
20
-103.452
11
243.396
21
-103.453
0
LINE
8
BLACK
6
CONTINUOUS
10
243.396
20
-103.453
11
243.386
21
-103.455
0
LINE
8
BLACK
6
CONTINUOUS
10
243.386
20
-103.455
11
243.09
21
-103.477
0
LINE
8
BLACK
6
CONTINUOUS
10
243.09
20
-103.477
11
243.087
21
-103.478
0
LINE
8
BLACK
6
CONTINUOUS
10
243.087
20
-103.478
11
227.43
21
-103.478
0
LINE
8
BLACK
6
CONTINUOUS
10
227.43
20
-103.478
11
227.43
21
-124.106
0
LINE
8
BLACK
6
CONTINUOUS
10
227.43
20
-124.106
11
243.087
21
-124.106
0
LINE
8
BLACK
6
CONTINUOUS
10
243.087
20
-124.106
11
243.094
21
-124.107
0
LINE
8
BLACK
6
CONTINUOUS
10
243.094
20
-124.107
11
243.662
21
-124.189
0
LINE
8
BLACK
6
CONTINUOUS
10
243.662
20
-124.189
11
243.662
21
-124.189
0
LINE
8
BLACK
6
CONTINUOUS
10
243.662
20
-124.189
11
243.662
21
-124.189
0
LINE
8
BLACK
6
CONTINUOUS
10
243.662
20
-124.189
11
243.664
21
-124.189
0
LINE
8
BLACK
6
CONTINUOUS
10
243.664
20
-124.189
11
243.677
21
-124.193
0
LINE
8
BLACK
6
CONTINUOUS
10
243.677
20
-124.193
11
243.69
21
-124.197
0
LINE
8
BLACK
6
CONTINUOUS
10
243.69
20
-124.197
11
244.214
21
-124.435
0
LINE
8
BLACK
6
CONTINUOUS
10
244.214
20
-124.435
11
244.214
21
-124.435
0
LINE
8
BLACK
6
CONTINUOUS
10
244.214
20
-124.435
11
244.214
21
-124.435
0
LINE
8
BLACK
6
CONTINUOUS
10
244.214
20
-124.435
11
244.215
21
-124.436
0
LINE
8
BLACK
6
CONTINUOUS
10
244.215
20
-124.436
11
244.227
21
-124.443
0
LINE
8
BLACK
6
CONTINUOUS
10
244.227
20
-124.443
11
244.238
21
-124.45
0
LINE
8
BLACK
6
CONTINUOUS
10
244.238
20
-124.45
11
244.675
21
-124.826
0
LINE
8
BLACK
6
CONTINUOUS
10
244.675
20
-124.826
11
244.675
21
-124.827
0
LINE
8
BLACK
6
CONTINUOUS
10
244.675
20
-124.827
11
244.684
21
-124.838
0
LINE
8
BLACK
6
CONTINUOUS
10
244.684
20
-124.838
11
244.693
21
-124.848
0
LINE
8
BLACK
6
CONTINUOUS
10
244.693
20
-124.848
11
245.007
21
-125.331
0
LINE
8
BLACK
6
CONTINUOUS
10
245.007
20
-125.331
11
245.007
21
-125.332
0
LINE
8
BLACK
6
CONTINUOUS
10
245.007
20
-125.332
11
245.013
21
-125.345
0
LINE
8
BLACK
6
CONTINUOUS
10
245.013
20
-125.345
11
245.018
21
-125.357
0
LINE
8
BLACK
6
CONTINUOUS
10
245.018
20
-125.357
11
245.183
21
-125.909
0
LINE
8
BLACK
6
CONTINUOUS
10
245.183
20
-125.909
11
245.184
21
-125.91
0
LINE
8
BLACK
6
CONTINUOUS
10
245.184
20
-125.91
11
245.185
21
-125.92
0
LINE
8
BLACK
6
CONTINUOUS
10
245.185
20
-125.92
11
245.187
21
-125.93
0
LINE
8
BLACK
6
CONTINUOUS
10
245.187
20
-125.93
11
245.209
21
-126.226
0
LINE
8
BLACK
6
CONTINUOUS
10
245.209
20
-126.226
11
245.21
21
-126.229
0
LINE
8
BLACK
6
CONTINUOUS
10
245.21
20
-126.229
11
245.21
21
-134.375
0
LINE
8
BLACK
6
CONTINUOUS
10
245.21
20
-134.375
11
245.205
21
-134.401
0
LINE
8
BLACK
6
CONTINUOUS
10
245.205
20
-134.401
11
245.188
21
-134.431
0
LINE
8
BLACK
6
CONTINUOUS
10
245.188
20
-134.431
11
245.161
21
-134.454
0
LINE
8
BLACK
6
CONTINUOUS
10
245.161
20
-134.454
11
245.128
21
-134.466
0
LINE
8
BLACK
6
CONTINUOUS
10
245.128
20
-134.466
11
245.114
21
-134.466
0
LINE
8
BLACK
6
CONTINUOUS
10
245.114
20
-134.466
11
244.828
21
-134.487
0
LINE
8
BLACK
6
CONTINUOUS
10
244.828
20
-134.487
11
244.3
21
-134.645
0
LINE
8
BLACK
6
CONTINUOUS
10
244.3
20
-134.645
11
243.841
21
-134.943
0
LINE
8
BLACK
6
CONTINUOUS
10
243.841
20
-134.943
11
243.483
21
-135.358
0
LINE
8
BLACK
6
CONTINUOUS
10
243.483
20
-135.358
11
243.257
21
-135.856
0
LINE
8
BLACK
6
CONTINUOUS
10
243.257
20
-135.856
11
243.179
21
-136.401
0
LINE
8
BLACK
6
CONTINUOUS
10
243.179
20
-136.401
11
243.199
21
-136.68
0
LINE
8
BLACK
6
CONTINUOUS
10
243.199
20
-136.68
11
243.357
21
-137.208
0
LINE
8
BLACK
6
CONTINUOUS
10
243.357
20
-137.208
11
243.655
21
-137.667
0
LINE
8
BLACK
6
CONTINUOUS
10
243.655
20
-137.667
11
244.07
21
-138.025
0
LINE
8
BLACK
6
CONTINUOUS
10
244.07
20
-138.025
11
244.568
21
-138.251
0
LINE
8
BLACK
6
CONTINUOUS
10
244.568
20
-138.251
11
245.117
21
-138.33
0
LINE
8
BLACK
6
CONTINUOUS
10
245.117
20
-138.33
11
245.128
21
-138.33
0
LINE
8
BLACK
6
CONTINUOUS
10
245.128
20
-138.33
11
245.161
21
-138.342
0
LINE
8
BLACK
6
CONTINUOUS
10
245.161
20
-138.342
11
245.188
21
-138.365
0
LINE
8
BLACK
6
CONTINUOUS
10
245.188
20
-138.365
11
245.205
21
-138.395
0
LINE
8
BLACK
6
CONTINUOUS
10
245.205
20
-138.395
11
245.21
21
-138.421
0
LINE
8
BLACK
6
CONTINUOUS
10
245.21
20
-138.421
11
245.21
21
-147.075
0
LINE
8
BLACK
6
CONTINUOUS
10
245.21
20
-147.075
11
245.209
21
-147.082
0
LINE
8
BLACK
6
CONTINUOUS
10
245.209
20
-147.082
11
245.127
21
-147.65
0
LINE
8
BLACK
6
CONTINUOUS
10
245.127
20
-147.65
11
245.127
21
-147.65
0
LINE
8
BLACK
6
CONTINUOUS
10
245.127
20
-147.65
11
245.127
21
-147.65
0
LINE
8
BLACK
6
CONTINUOUS
10
245.127
20
-147.65
11
245.127
21
-147.652
0
LINE
8
BLACK
6
CONTINUOUS
10
245.127
20
-147.652
11
245.123
21
-147.665
0
LINE
8
BLACK
6
CONTINUOUS
10
245.123
20
-147.665
11
245.119
21
-147.678
0
LINE
8
BLACK
6
CONTINUOUS
10
245.119
20
-147.678
11
244.881
21
-148.202
0
LINE
8
BLACK
6
CONTINUOUS
10
244.881
20
-148.202
11
244.881
21
-148.202
0
LINE
8
BLACK
6
CONTINUOUS
10
244.881
20
-148.202
11
244.881
21
-148.202
0
LINE
8
BLACK
6
CONTINUOUS
10
244.881
20
-148.202
11
244.88
21
-148.203
0
LINE
8
BLACK
6
CONTINUOUS
10
244.88
20
-148.203
11
244.873
21
-148.215
0
LINE
8
BLACK
6
CONTINUOUS
10
244.873
20
-148.215
11
244.866
21
-148.226
0
LINE
8
BLACK
6
CONTINUOUS
10
244.866
20
-148.226
11
244.49
21
-148.663
0
LINE
8
BLACK
6
CONTINUOUS
10
244.49
20
-148.663
11
244.489
21
-148.663
0
LINE
8
BLACK
6
CONTINUOUS
10
244.489
20
-148.663
11
244.478
21
-148.672
0
LINE
8
BLACK
6
CONTINUOUS
10
244.478
20
-148.672
11
244.468
21
-148.681
0
LINE
8
BLACK
6
CONTINUOUS
10
244.468
20
-148.681
11
243.985
21
-148.995
0
LINE
8
BLACK
6
CONTINUOUS
10
243.985
20
-148.995
11
243.984
21
-148.995
0
LINE
8
BLACK
6
CONTINUOUS
10
243.984
20
-148.995
11
243.971
21
-149.001
0
LINE
8
BLACK
6
CONTINUOUS
10
243.971
20
-149.001
11
243.959
21
-149.006
0
LINE
8
BLACK
6
CONTINUOUS
10
243.959
20
-149.006
11
243.407
21
-149.171
0
LINE
8
BLACK
6
CONTINUOUS
10
243.407
20
-149.171
11
243.406
21
-149.172
0
LINE
8
BLACK
6
CONTINUOUS
10
243.406
20
-149.172
11
243.396
21
-149.173
0
LINE
8
BLACK
6
CONTINUOUS
10
243.396
20
-149.173
11
243.386
21
-149.175
0
LINE
8
BLACK
6
CONTINUOUS
10
243.386
20
-149.175
11
243.09
21
-149.197
0
LINE
8
BLACK
6
CONTINUOUS
10
243.09
20
-149.197
11
243.087
21
-149.198
0
LINE
8
BLACK
6
CONTINUOUS
10
243.087
20
-149.198
11
122.673
21
-149.198
0
LINE
8
BLACK
6
CONTINUOUS
10
122.673
20
-149.198
11
122.666
21
-149.197
0
LINE
8
BLACK
6
CONTINUOUS
10
122.666
20
-149.197
11
122.098
21
-149.115
0
LINE
8
BLACK
6
CONTINUOUS
10
122.098
20
-149.115
11
122.098
21
-149.115
0
LINE
8
BLACK
6
CONTINUOUS
10
122.098
20
-149.115
11
122.098
21
-149.115
0
LINE
8
BLACK
6
CONTINUOUS
10
122.098
20
-149.115
11
122.096
21
-149.115
0
LINE
8
BLACK
6
CONTINUOUS
10
122.096
20
-149.115
11
122.083
21
-149.111
0
LINE
8
BLACK
6
CONTINUOUS
10
122.083
20
-149.111
11
122.07
21
-149.107
0
LINE
8
BLACK
6
CONTINUOUS
10
122.07
20
-149.107
11
121.546
21
-148.869
0
LINE
8
BLACK
6
CONTINUOUS
10
121.546
20
-148.869
11
121.546
21
-148.869
0
LINE
8
BLACK
6
CONTINUOUS
10
121.546
20
-148.869
11
121.546
21
-148.869
0
LINE
8
BLACK
6
CONTINUOUS
10
121.546
20
-148.869
11
121.545
21
-148.868
0
LINE
8
BLACK
6
CONTINUOUS
10
121.545
20
-148.868
11
121.533
21
-148.861
0
LINE
8
BLACK
6
CONTINUOUS
10
121.533
20
-148.861
11
121.522
21
-148.854
0
LINE
8
BLACK
6
CONTINUOUS
10
121.522
20
-148.854
11
121.085
21
-148.478
0
LINE
8
BLACK
6
CONTINUOUS
10
121.085
20
-148.478
11
121.085
21
-148.477
0
LINE
8
BLACK
6
CONTINUOUS
10
121.085
20
-148.477
11
121.076
21
-148.466
0
LINE
8
BLACK
6
CONTINUOUS
10
121.076
20
-148.466
11
121.067
21
-148.456
0
LINE
8
BLACK
6
CONTINUOUS
10
121.067
20
-148.456
11
120.753
21
-147.973
0
LINE
8
BLACK
6
CONTINUOUS
10
120.753
20
-147.973
11
120.753
21
-147.972
0
LINE
8
BLACK
6
CONTINUOUS
10
120.753
20
-147.972
11
120.747
21
-147.959
0
LINE
8
BLACK
6
CONTINUOUS
10
120.747
20
-147.959
11
120.742
21
-147.947
0
LINE
8
BLACK
6
CONTINUOUS
10
120.742
20
-147.947
11
120.577
21
-147.395
0
LINE
8
BLACK
6
CONTINUOUS
10
120.577
20
-147.395
11
120.576
21
-147.394
0
LINE
8
BLACK
6
CONTINUOUS
10
120.576
20
-147.394
11
120.575
21
-147.384
0
LINE
8
BLACK
6
CONTINUOUS
10
120.575
20
-147.384
11
120.573
21
-147.374
0
LINE
8
BLACK
6
CONTINUOUS
10
120.573
20
-147.374
11
120.551
21
-147.078
0
LINE
8
BLACK
6
CONTINUOUS
10
120.551
20
-147.078
11
120.55
21
-147.075
0
LINE
8
BLACK
6
CONTINUOUS
10
120.55
20
-147.075
11
120.55
21
-138.421
0
LINE
8
BLACK
6
CONTINUOUS
10
120.55
20
-138.421
11
120.555
21
-138.395
0
LINE
8
BLACK
6
CONTINUOUS
10
120.555
20
-138.395
11
120.572
21
-138.365
0
LINE
8
BLACK
6
CONTINUOUS
10
120.572
20
-138.365
11
120.599
21
-138.342
0
LINE
8
BLACK
6
CONTINUOUS
10
120.599
20
-138.342
11
120.632
21
-138.33
0
LINE
8
BLACK
6
CONTINUOUS
10
120.632
20
-138.33
11
120.646
21
-138.33
0
LINE
8
BLACK
6
CONTINUOUS
10
120.646
20
-138.33
11
120.932
21
-138.309
0
LINE
8
BLACK
6
CONTINUOUS
10
120.932
20
-138.309
11
121.46
21
-138.151
0
LINE
8
BLACK
6
CONTINUOUS
10
121.46
20
-138.151
11
121.919
21
-137.853
0
LINE
8
BLACK
6
CONTINUOUS
10
121.919
20
-137.853
11
122.277
21
-137.438
0
LINE
8
BLACK
6
CONTINUOUS
10
122.277
20
-137.438
11
122.503
21
-136.94
0
LINE
8
BLACK
6
CONTINUOUS
10
122.503
20
-136.94
11
122.581
21
-136.395
0
LINE
8
BLACK
6
CONTINUOUS
10
122.581
20
-136.395
11
122.561
21
-136.116
0
LINE
8
BLACK
6
CONTINUOUS
10
122.561
20
-136.116
11
122.403
21
-135.588
0
LINE
8
BLACK
6
CONTINUOUS
10
122.403
20
-135.588
11
122.105
21
-135.129
0
LINE
8
BLACK
6
CONTINUOUS
10
122.105
20
-135.129
11
121.69
21
-134.771
0
LINE
8
BLACK
6
CONTINUOUS
10
121.69
20
-134.771
11
121.192
21
-134.545
0
LINE
8
BLACK
6
CONTINUOUS
10
121.192
20
-134.545
11
120.643
21
-134.466
0
LINE
8
BLACK
6
CONTINUOUS
10
120.643
20
-134.466
11
120.632
21
-134.466
0
LINE
8
BLACK
6
CONTINUOUS
10
120.632
20
-134.466
11
120.599
21
-134.454
0
LINE
8
BLACK
6
CONTINUOUS
10
120.599
20
-134.454
11
120.572
21
-134.431
0
LINE
8
BLACK
6
CONTINUOUS
10
120.572
20
-134.431
11
120.555
21
-134.401
0
LINE
8
BLACK
6
CONTINUOUS
10
120.555
20
-134.401
11
120.55
21
-134.375
0
LINE
8
BLACK
6
CONTINUOUS
10
120.55
20
-134.375
11
120.55
21
-52.0613
0
LINE
8
BLACK
6
CONTINUOUS
10
120.55
20
-52.0613
11
120.551
21
-52.0543
0
LINE
8
BLACK
6
CONTINUOUS
10
120.551
20
-52.0543
11
120.633
21
-51.4855
0
LINE
8
BLACK
6
CONTINUOUS
10
120.633
20
-51.4855
11
120.633
21
-51.4855
0
LINE
8
BLACK
6
CONTINUOUS
10
120.633
20
-51.4855
11
120.633
21
-51.4855
0
LINE
8
BLACK
6
CONTINUOUS
10
120.633
20
-51.4855
11
120.633
21
-51.4843
0
LINE
8
BLACK
6
CONTINUOUS
10
120.633
20
-51.4843
11
120.637
21
-51.4713
0
LINE
8
BLACK
6
CONTINUOUS
10
120.637
20
-51.4713
11
120.641
21
-51.4583
0
LINE
8
BLACK
6
CONTINUOUS
10
120.641
20
-51.4583
11
120.879
21
-50.9338
0
LINE
8
BLACK
6
CONTINUOUS
10
120.879
20
-50.9338
11
120.879
21
-50.9338
0
LINE
8
BLACK
6
CONTINUOUS
10
120.879
20
-50.9338
11
120.879
21
-50.9338
0
LINE
8
BLACK
6
CONTINUOUS
10
120.879
20
-50.9338
11
120.88
21
-50.9327
0
LINE
8
BLACK
6
CONTINUOUS
10
120.88
20
-50.9327
11
120.887
21
-50.9214
0
LINE
8
BLACK
6
CONTINUOUS
10
120.887
20
-50.9214
11
120.894
21
-50.9099
0
LINE
8
BLACK
6
CONTINUOUS
10
120.894
20
-50.9099
11
121.27
21
-50.4735
0
LINE
8
BLACK
6
CONTINUOUS
10
121.27
20
-50.4735
11
121.271
21
-50.4726
0
LINE
8
BLACK
6
CONTINUOUS
10
121.271
20
-50.4726
11
121.282
21
-50.4638
0
LINE
8
BLACK
6
CONTINUOUS
10
121.282
20
-50.4638
11
121.292
21
-50.4548
0
LINE
8
BLACK
6
CONTINUOUS
10
121.292
20
-50.4548
11
121.775
21
-50.1415
0
LINE
8
BLACK
6
CONTINUOUS
10
121.775
20
-50.1415
11
121.776
21
-50.1408
0
LINE
8
BLACK
6
CONTINUOUS
10
121.776
20
-50.1408
11
121.789
21
-50.1353
0
LINE
8
BLACK
6
CONTINUOUS
10
121.789
20
-50.1353
11
121.801
21
-50.1296
0
LINE
8
BLACK
6
CONTINUOUS
10
121.801
20
-50.1296
11
122.353
21
-49.9645
0
LINE
8
BLACK
6
CONTINUOUS
10
122.353
20
-49.9645
11
122.354
21
-49.9642
0
LINE
8
BLACK
6
CONTINUOUS
10
122.354
20
-49.9642
11
122.364
21
-49.9628
0
LINE
8
BLACK
6
CONTINUOUS
10
122.364
20
-49.9628
11
122.374
21
-49.9606
0
LINE
8
BLACK
6
CONTINUOUS
10
122.374
20
-49.9606
11
122.67
21
-49.9386
0
LINE
8
BLACK
6
CONTINUOUS
10
122.67
20
-49.9386
11
122.673
21
-49.938
0
LINE
8
BLACK
6
CONTINUOUS
10
122.673
20
-49.938
11
243.087
21
-49.938
0
LINE
8
BLACK
6
CONTINUOUS
10
243.087
20
-49.938
11
243.094
21
-49.9392
0
LINE
8
BLACK
6
CONTINUOUS
10
122.686
20
-50.138
11
122.4
21
-50.1592
0
LINE
8
BLACK
6
CONTINUOUS
10
122.4
20
-50.1592
11
121.872
21
-50.3171
0
LINE
8
BLACK
6
CONTINUOUS
10
121.872
20
-50.3171
11
121.413
21
-50.6149
0
LINE
8
BLACK
6
CONTINUOUS
10
121.413
20
-50.6149
11
121.055
21
-51.0296
0
LINE
8
BLACK
6
CONTINUOUS
10
121.055
20
-51.0296
11
120.829
21
-51.528
0
LINE
8
BLACK
6
CONTINUOUS
10
120.829
20
-51.528
11
120.75
21
-52.0771
0
LINE
8
BLACK
6
CONTINUOUS
10
120.75
20
-52.0771
11
120.75
21
-134.279
0
LINE
8
BLACK
6
CONTINUOUS
10
120.75
20
-134.279
11
121.234
21
-134.349
0
LINE
8
BLACK
6
CONTINUOUS
10
121.234
20
-134.349
11
121.234
21
-134.349
0
LINE
8
BLACK
6
CONTINUOUS
10
121.234
20
-134.349
11
121.234
21
-134.349
0
LINE
8
BLACK
6
CONTINUOUS
10
121.234
20
-134.349
11
121.236
21
-134.349
0
LINE
8
BLACK
6
CONTINUOUS
10
121.236
20
-134.349
11
121.249
21
-134.353
0
LINE
8
BLACK
6
CONTINUOUS
10
121.249
20
-134.353
11
121.262
21
-134.357
0
LINE
8
BLACK
6
CONTINUOUS
10
121.262
20
-134.357
11
121.786
21
-134.595
0
LINE
8
BLACK
6
CONTINUOUS
10
121.786
20
-134.595
11
121.786
21
-134.595
0
LINE
8
BLACK
6
CONTINUOUS
10
121.786
20
-134.595
11
121.786
21
-134.595
0
LINE
8
BLACK
6
CONTINUOUS
10
121.786
20
-134.595
11
121.787
21
-134.596
0
LINE
8
BLACK
6
CONTINUOUS
10
121.787
20
-134.596
11
121.799
21
-134.603
0
LINE
8
BLACK
6
CONTINUOUS
10
121.799
20
-134.603
11
121.81
21
-134.61
0
LINE
8
BLACK
6
CONTINUOUS
10
121.81
20
-134.61
11
122.247
21
-134.986
0
LINE
8
BLACK
6
CONTINUOUS
10
122.247
20
-134.986
11
122.247
21
-134.987
0
LINE
8
BLACK
6
CONTINUOUS
10
122.247
20
-134.987
11
122.256
21
-134.998
0
LINE
8
BLACK
6
CONTINUOUS
10
122.256
20
-134.998
11
122.265
21
-135.008
0
LINE
8
BLACK
6
CONTINUOUS
10
122.265
20
-135.008
11
122.579
21
-135.491
0
LINE
8
BLACK
6
CONTINUOUS
10
122.579
20
-135.491
11
122.579
21
-135.492
0
LINE
8
BLACK
6
CONTINUOUS
10
122.579
20
-135.492
11
122.585
21
-135.505
0
LINE
8
BLACK
6
CONTINUOUS
10
122.585
20
-135.505
11
122.59
21
-135.517
0
LINE
8
BLACK
6
CONTINUOUS
10
122.59
20
-135.517
11
122.755
21
-136.069
0
LINE
8
BLACK
6
CONTINUOUS
10
122.755
20
-136.069
11
122.756
21
-136.07
0
LINE
8
BLACK
6
CONTINUOUS
10
122.756
20
-136.07
11
122.757
21
-136.08
0
LINE
8
BLACK
6
CONTINUOUS
10
122.757
20
-136.08
11
122.759
21
-136.09
0
LINE
8
BLACK
6
CONTINUOUS
10
122.759
20
-136.09
11
122.782
21
-136.391
0
LINE
8
BLACK
6
CONTINUOUS
10
122.782
20
-136.391
11
122.782
21
-136.392
0
LINE
8
BLACK
6
CONTINUOUS
10
122.782
20
-136.392
11
122.781
21
-136.402
0
LINE
8
BLACK
6
CONTINUOUS
10
122.781
20
-136.402
11
122.781
21
-136.412
0
LINE
8
BLACK
6
CONTINUOUS
10
122.781
20
-136.412
11
122.699
21
-136.982
0
LINE
8
BLACK
6
CONTINUOUS
10
122.699
20
-136.982
11
122.699
21
-136.982
0
LINE
8
BLACK
6
CONTINUOUS
10
122.699
20
-136.982
11
122.699
21
-136.982
0
LINE
8
BLACK
6
CONTINUOUS
10
122.699
20
-136.982
11
122.699
21
-136.984
0
LINE
8
BLACK
6
CONTINUOUS
10
122.699
20
-136.984
11
122.695
21
-136.997
0
LINE
8
BLACK
6
CONTINUOUS
10
122.695
20
-136.997
11
122.691
21
-137.01
0
LINE
8
BLACK
6
CONTINUOUS
10
122.691
20
-137.01
11
122.453
21
-137.534
0
LINE
8
BLACK
6
CONTINUOUS
10
122.453
20
-137.534
11
122.453
21
-137.534
0
LINE
8
BLACK
6
CONTINUOUS
10
122.453
20
-137.534
11
122.453
21
-137.534
0
LINE
8
BLACK
6
CONTINUOUS
10
122.453
20
-137.534
11
122.452
21
-137.535
0
LINE
8
BLACK
6
CONTINUOUS
10
122.452
20
-137.535
11
122.445
21
-137.547
0
LINE
8
BLACK
6
CONTINUOUS
10
122.445
20
-137.547
11
122.438
21
-137.558
0
LINE
8
BLACK
6
CONTINUOUS
10
122.438
20
-137.558
11
122.062
21
-137.995
0
LINE
8
BLACK
6
CONTINUOUS
10
122.062
20
-137.995
11
122.061
21
-137.995
0
LINE
8
BLACK
6
CONTINUOUS
10
122.061
20
-137.995
11
122.05
21
-138.004
0
LINE
8
BLACK
6
CONTINUOUS
10
122.05
20
-138.004
11
122.04
21
-138.013
0
LINE
8
BLACK
6
CONTINUOUS
10
122.04
20
-138.013
11
121.557
21
-138.327
0
LINE
8
BLACK
6
CONTINUOUS
10
121.557
20
-138.327
11
121.556
21
-138.327
0
LINE
8
BLACK
6
CONTINUOUS
10
121.556
20
-138.327
11
121.543
21
-138.333
0
LINE
8
BLACK
6
CONTINUOUS
10
121.543
20
-138.333
11
121.531
21
-138.338
0
LINE
8
BLACK
6
CONTINUOUS
10
121.531
20
-138.338
11
120.979
21
-138.503
0
LINE
8
BLACK
6
CONTINUOUS
10
120.979
20
-138.503
11
120.978
21
-138.504
0
LINE
8
BLACK
6
CONTINUOUS
10
120.978
20
-138.504
11
120.968
21
-138.505
0
LINE
8
BLACK
6
CONTINUOUS
10
120.968
20
-138.505
11
120.958
21
-138.507
0
LINE
8
BLACK
6
CONTINUOUS
10
120.958
20
-138.507
11
120.75
21
-138.523
0
LINE
8
BLACK
6
CONTINUOUS
10
120.75
20
-138.523
11
120.75
21
-147.062
0
LINE
8
BLACK
6
CONTINUOUS
10
120.75
20
-147.062
11
120.771
21
-147.348
0
LINE
8
BLACK
6
CONTINUOUS
10
120.771
20
-147.348
11
120.929
21
-147.876
0
LINE
8
BLACK
6
CONTINUOUS
10
120.929
20
-147.876
11
121.227
21
-148.335
0
LINE
8
BLACK
6
CONTINUOUS
10
121.227
20
-148.335
11
121.642
21
-148.693
0
LINE
8
BLACK
6
CONTINUOUS
10
121.642
20
-148.693
11
122.14
21
-148.919
0
LINE
8
BLACK
6
CONTINUOUS
10
122.14
20
-148.919
11
122.689
21
-148.998
0
LINE
8
BLACK
6
CONTINUOUS
10
122.689
20
-148.998
11
243.074
21
-148.998
0
LINE
8
BLACK
6
CONTINUOUS
10
243.074
20
-148.998
11
243.36
21
-148.977
0
LINE
8
BLACK
6
CONTINUOUS
10
243.36
20
-148.977
11
243.888
21
-148.819
0
LINE
8
BLACK
6
CONTINUOUS
10
243.888
20
-148.819
11
244.347
21
-148.521
0
LINE
8
BLACK
6
CONTINUOUS
10
244.347
20
-148.521
11
244.705
21
-148.106
0
LINE
8
BLACK
6
CONTINUOUS
10
244.705
20
-148.106
11
244.931
21
-147.608
0
LINE
8
BLACK
6
CONTINUOUS
10
244.931
20
-147.608
11
245.01
21
-147.059
0
LINE
8
BLACK
6
CONTINUOUS
10
245.01
20
-147.059
11
245.01
21
-138.517
0
LINE
8
BLACK
6
CONTINUOUS
10
245.01
20
-138.517
11
244.526
21
-138.447
0
LINE
8
BLACK
6
CONTINUOUS
10
244.526
20
-138.447
11
244.526
21
-138.447
0
LINE
8
BLACK
6
CONTINUOUS
10
244.526
20
-138.447
11
244.526
21
-138.447
0
LINE
8
BLACK
6
CONTINUOUS
10
244.526
20
-138.447
11
244.524
21
-138.447
0
LINE
8
BLACK
6
CONTINUOUS
10
244.524
20
-138.447
11
244.511
21
-138.443
0
LINE
8
BLACK
6
CONTINUOUS
10
244.511
20
-138.443
11
244.498
21
-138.439
0
LINE
8
BLACK
6
CONTINUOUS
10
244.498
20
-138.439
11
243.974
21
-138.201
0
LINE
8
BLACK
6
CONTINUOUS
10
243.974
20
-138.201
11
243.974
21
-138.201
0
LINE
8
BLACK
6
CONTINUOUS
10
243.974
20
-138.201
11
243.974
21
-138.201
0
LINE
8
BLACK
6
CONTINUOUS
10
243.974
20
-138.201
11
243.973
21
-138.2
0
LINE
8
BLACK
6
CONTINUOUS
10
243.973
20
-138.2
11
243.961
21
-138.193
0
LINE
8
BLACK
6
CONTINUOUS
10
243.961
20
-138.193
11
243.95
21
-138.186
0
LINE
8
BLACK
6
CONTINUOUS
10
243.95
20
-138.186
11
243.513
21
-137.81
0
LINE
8
BLACK
6
CONTINUOUS
10
243.513
20
-137.81
11
243.513
21
-137.809
0
LINE
8
BLACK
6
CONTINUOUS
10
243.513
20
-137.809
11
243.504
21
-137.798
0
LINE
8
BLACK
6
CONTINUOUS
10
243.504
20
-137.798
11
243.495
21
-137.788
0
LINE
8
BLACK
6
CONTINUOUS
10
243.495
20
-137.788
11
243.181
21
-137.305
0
LINE
8
BLACK
6
CONTINUOUS
10
243.181
20
-137.305
11
243.181
21
-137.304
0
LINE
8
BLACK
6
CONTINUOUS
10
243.181
20
-137.304
11
243.175
21
-137.291
0
LINE
8
BLACK
6
CONTINUOUS
10
243.175
20
-137.291
11
243.17
21
-137.279
0
LINE
8
BLACK
6
CONTINUOUS
10
243.17
20
-137.279
11
243.005
21
-136.727
0
LINE
8
BLACK
6
CONTINUOUS
10
243.005
20
-136.727
11
243.004
21
-136.726
0
LINE
8
BLACK
6
CONTINUOUS
10
243.004
20
-136.726
11
243.003
21
-136.716
0
LINE
8
BLACK
6
CONTINUOUS
10
243.003
20
-136.716
11
243.001
21
-136.706
0
LINE
8
BLACK
6
CONTINUOUS
10
243.001
20
-136.706
11
242.978
21
-136.405
0
LINE
8
BLACK
6
CONTINUOUS
10
242.978
20
-136.405
11
242.978
21
-136.404
0
LINE
8
BLACK
6
CONTINUOUS
10
242.978
20
-136.404
11
242.979
21
-136.394
0
LINE
8
BLACK
6
CONTINUOUS
10
242.979
20
-136.394
11
242.979
21
-136.384
0
LINE
8
BLACK
6
CONTINUOUS
10
242.979
20
-136.384
11
243.061
21
-135.814
0
LINE
8
BLACK
6
CONTINUOUS
10
243.061
20
-135.814
11
243.061
21
-135.814
0
LINE
8
BLACK
6
CONTINUOUS
10
243.061
20
-135.814
11
243.061
21
-135.814
0
LINE
8
BLACK
6
CONTINUOUS
10
243.061
20
-135.814
11
243.061
21
-135.812
0
LINE
8
BLACK
6
CONTINUOUS
10
243.061
20
-135.812
11
243.065
21
-135.799
0
LINE
8
BLACK
6
CONTINUOUS
10
243.065
20
-135.799
11
243.069
21
-135.786
0
LINE
8
BLACK
6
CONTINUOUS
10
243.069
20
-135.786
11
243.307
21
-135.262
0
LINE
8
BLACK
6
CONTINUOUS
10
243.307
20
-135.262
11
243.307
21
-135.262
0
LINE
8
BLACK
6
CONTINUOUS
10
243.307
20
-135.262
11
243.307
21
-135.262
0
LINE
8
BLACK
6
CONTINUOUS
10
243.307
20
-135.262
11
243.308
21
-135.261
0
LINE
8
BLACK
6
CONTINUOUS
10
243.308
20
-135.261
11
243.315
21
-135.249
0
LINE
8
BLACK
6
CONTINUOUS
10
243.315
20
-135.249
11
243.322
21
-135.238
0
LINE
8
BLACK
6
CONTINUOUS
10
243.322
20
-135.238
11
243.698
21
-134.801
0
LINE
8
BLACK
6
CONTINUOUS
10
243.698
20
-134.801
11
243.699
21
-134.801
0
LINE
8
BLACK
6
CONTINUOUS
10
243.699
20
-134.801
11
243.71
21
-134.792
0
LINE
8
BLACK
6
CONTINUOUS
10
243.71
20
-134.792
11
243.72
21
-134.783
0
LINE
8
BLACK
6
CONTINUOUS
10
243.72
20
-134.783
11
244.203
21
-134.469
0
LINE
8
BLACK
6
CONTINUOUS
10
244.203
20
-134.469
11
244.204
21
-134.469
0
LINE
8
BLACK
6
CONTINUOUS
10
244.204
20
-134.469
11
244.217
21
-134.463
0
LINE
8
BLACK
6
CONTINUOUS
10
244.217
20
-134.463
11
244.229
21
-134.458
0
LINE
8
BLACK
6
CONTINUOUS
10
244.229
20
-134.458
11
244.781
21
-134.293
0
LINE
8
BLACK
6
CONTINUOUS
10
244.781
20
-134.293
11
244.782
21
-134.292
0
LINE
8
BLACK
6
CONTINUOUS
10
244.782
20
-134.292
11
244.792
21
-134.291
0
LINE
8
BLACK
6
CONTINUOUS
10
244.792
20
-134.291
11
244.802
21
-134.289
0
LINE
8
BLACK
6
CONTINUOUS
10
244.802
20
-134.289
11
245.01
21
-134.273
0
LINE
8
BLACK
6
CONTINUOUS
10
245.01
20
-134.273
11
245.01
21
-126.242
0
LINE
8
BLACK
6
CONTINUOUS
10
245.01
20
-126.242
11
244.989
21
-125.956
0
LINE
8
BLACK
6
CONTINUOUS
10
244.989
20
-125.956
11
244.831
21
-125.428
0
LINE
8
BLACK
6
CONTINUOUS
10
244.831
20
-125.428
11
244.533
21
-124.969
0
LINE
8
BLACK
6
CONTINUOUS
10
244.533
20
-124.969
11
244.118
21
-124.611
0
LINE
8
BLACK
6
CONTINUOUS
10
244.118
20
-124.611
11
243.62
21
-124.385
0
LINE
8
BLACK
6
CONTINUOUS
10
243.62
20
-124.385
11
243.071
21
-124.306
0
LINE
8
BLACK
6
CONTINUOUS
10
243.071
20
-124.306
11
227.321
21
-124.306
0
LINE
8
BLACK
6
CONTINUOUS
10
227.321
20
-124.306
11
227.321
21
-124.306
0
LINE
8
BLACK
6
CONTINUOUS
10
227.321
20
-124.306
11
227.312
21
-124.306
0
LINE
8
BLACK
6
CONTINUOUS
10
227.312
20
-124.306
11
227.304
21
-124.303
0
LINE
8
BLACK
6
CONTINUOUS
10
227.304
20
-124.303
11
227.295
21
-124.301
0
LINE
8
BLACK
6
CONTINUOUS
10
227.295
20
-124.301
11
227.288
21
-124.297
0
LINE
8
BLACK
6
CONTINUOUS
10
227.288
20
-124.297
11
227.279
21
-124.294
0
LINE
8
BLACK
6
CONTINUOUS
10
227.279
20
-124.294
11
227.272
21
-124.288
0
LINE
8
BLACK
6
CONTINUOUS
10
227.272
20
-124.288
11
227.265
21
-124.284
0
LINE
8
BLACK
6
CONTINUOUS
10
227.265
20
-124.284
11
227.259
21
-124.277
0
LINE
8
BLACK
6
CONTINUOUS
10
227.259
20
-124.277
11
227.252
21
-124.271
0
LINE
8
BLACK
6
CONTINUOUS
10
227.252
20
-124.271
11
227.248
21
-124.264
0
LINE
8
BLACK
6
CONTINUOUS
10
227.248
20
-124.264
11
227.242
21
-124.257
0
LINE
8
BLACK
6
CONTINUOUS
10
227.242
20
-124.257
11
227.239
21
-124.248
0
LINE
8
BLACK
6
CONTINUOUS
10
227.239
20
-124.248
11
227.235
21
-124.241
0
LINE
8
BLACK
6
CONTINUOUS
10
227.235
20
-124.241
11
227.233
21
-124.232
0
LINE
8
BLACK
6
CONTINUOUS
10
227.233
20
-124.232
11
227.23
21
-124.224
0
LINE
8
BLACK
6
CONTINUOUS
10
227.23
20
-124.224
11
227.23
21
-124.188
0
LINE
8
BLACK
6
CONTINUOUS
10
227.23
20
-124.188
11
227.23
21
-103.369
0
LINE
8
BLACK
6
CONTINUOUS
10
227.23
20
-103.369
11
227.23
21
-103.369
0
LINE
8
BLACK
6
CONTINUOUS
10
227.23
20
-103.369
11
227.23
21
-103.36
0
LINE
8
BLACK
6
CONTINUOUS
10
227.23
20
-103.36
11
227.233
21
-103.352
0
LINE
8
BLACK
6
CONTINUOUS
10
227.233
20
-103.352
11
227.235
21
-103.343
0
LINE
8
BLACK
6
CONTINUOUS
10
227.235
20
-103.343
11
227.239
21
-103.336
0
LINE
8
BLACK
6
CONTINUOUS
10
227.239
20
-103.336
11
227.242
21
-103.327
0
LINE
8
BLACK
6
CONTINUOUS
10
227.242
20
-103.327
11
227.248
21
-103.32
0
LINE
8
BLACK
6
CONTINUOUS
10
227.248
20
-103.32
11
227.252
21
-103.313
0
LINE
8
BLACK
6
CONTINUOUS
10
227.252
20
-103.313
11
227.259
21
-103.307
0
LINE
8
BLACK
6
CONTINUOUS
10
227.259
20
-103.307
11
227.265
21
-103.3
0
LINE
8
BLACK
6
CONTINUOUS
10
227.265
20
-103.3
11
227.272
21
-103.296
0
LINE
8
BLACK
6
CONTINUOUS
10
227.272
20
-103.296
11
227.279
21
-103.29
0
LINE
8
BLACK
6
CONTINUOUS
10
227.279
20
-103.29
11
227.288
21
-103.287
0
LINE
8
BLACK
6
CONTINUOUS
10
227.288
20
-103.287
11
227.295
21
-103.283
0
LINE
8
BLACK
6
CONTINUOUS
10
227.295
20
-103.283
11
227.304
21
-103.281
0
LINE
8
BLACK
6
CONTINUOUS
10
227.304
20
-103.281
11
227.312
21
-103.278
0
LINE
8
BLACK
6
CONTINUOUS
10
227.312
20
-103.278
11
227.321
21
-103.278
0
LINE
8
BLACK
6
CONTINUOUS
10
227.321
20
-103.278
11
227.321
21
-103.278
0
LINE
8
BLACK
6
CONTINUOUS
10
227.321
20
-103.278
11
243.074
21
-103.278
0
LINE
8
BLACK
6
CONTINUOUS
10
243.074
20
-103.278
11
243.36
21
-103.257
0
LINE
8
BLACK
6
CONTINUOUS
10
243.36
20
-103.257
11
243.888
21
-103.099
0
LINE
8
BLACK
6
CONTINUOUS
10
243.888
20
-103.099
11
244.347
21
-102.801
0
LINE
8
BLACK
6
CONTINUOUS
10
244.347
20
-102.801
11
244.705
21
-102.386
0
LINE
8
BLACK
6
CONTINUOUS
10
244.705
20
-102.386
11
244.931
21
-101.888
0
LINE
8
BLACK
6
CONTINUOUS
10
244.931
20
-101.888
11
245.01
21
-101.339
0
LINE
8
BLACK
6
CONTINUOUS
10
245.01
20
-101.339
11
245.01
21
-52.0737
0
LINE
8
BLACK
6
CONTINUOUS
10
245.01
20
-52.0737
11
244.989
21
-51.7879
0
LINE
8
BLACK
6
CONTINUOUS
10
244.989
20
-51.7879
11
244.831
21
-51.26
0
LINE
8
BLACK
6
CONTINUOUS
10
244.831
20
-51.26
11
244.533
21
-50.8006
0
LINE
8
BLACK
6
CONTINUOUS
10
244.533
20
-50.8006
11
244.118
21
-50.4432
0
LINE
8
BLACK
6
CONTINUOUS
10
244.118
20
-50.4432
11
243.62
21
-50.2166
0
LINE
8
BLACK
6
CONTINUOUS
10
243.62
20
-50.2166
11
243.071
21
-50.138
0
LINE
8
BLACK
6
CONTINUOUS
10
243.071
20
-50.138
11
122.686
21
-50.138
  0
ENDSEC
  0
EOF
