M48
;DRILL file {KiCad (5.0.0)} date 12/21/18 14:42:32
;FORMAT={-:-/ absolute / inch / decimal}
FMAT,2
INCH,TZ
T1C0.0157
T2C0.0300
T3C0.0350
T4C0.0354
T5C0.0591
T6C0.1598
%
G90
G05
M72
T1
X1.62Y-3.9
X1.7Y-5.14
X1.74Y-2.43
X1.74Y-2.47
X1.74Y-2.51
X1.74Y-2.55
X1.74Y-2.59
X1.75Y-3.9
X1.78Y-2.43
X1.78Y-2.47
X1.78Y-2.51
X1.78Y-2.55
X1.78Y-2.59
X1.8Y-5.38
X1.82Y-2.43
X1.82Y-2.47
X1.82Y-2.51
X1.82Y-2.55
X1.82Y-2.59
X1.82Y-2.67
X1.82Y-2.71
X1.82Y-2.75
X1.82Y-2.79
X1.82Y-2.83
X1.86Y-2.43
X1.86Y-2.47
X1.86Y-2.51
X1.86Y-2.55
X1.86Y-2.59
X1.86Y-2.67
X1.86Y-2.71
X1.86Y-2.75
X1.86Y-2.79
X1.86Y-2.83
X1.86Y-5.92
X1.88Y-3.06
X1.89Y-3.34
X1.89Y-3.39
X1.9Y-2.43
X1.9Y-2.47
X1.9Y-2.51
X1.9Y-2.55
X1.9Y-2.59
X1.9Y-2.67
X1.9Y-2.71
X1.9Y-2.75
X1.9Y-2.79
X1.9Y-2.83
X1.9Y-3.625
X1.9Y-3.96
X1.9Y-5.05
X1.92Y-2.04
X1.92Y-5.92
X1.94Y-2.43
X1.94Y-2.47
X1.94Y-2.51
X1.94Y-2.55
X1.94Y-2.59
X1.94Y-2.67
X1.94Y-2.71
X1.94Y-2.75
X1.94Y-2.79
X1.94Y-2.83
X1.98Y-2.67
X1.98Y-2.71
X1.98Y-2.75
X1.98Y-2.79
X1.98Y-2.83
X1.98Y-5.92
X2.Y-3.96
X2.Y-5.05
X2.02Y-2.67
X2.02Y-2.71
X2.02Y-2.75
X2.02Y-2.79
X2.02Y-2.83
X2.02Y-3.32
X2.04Y-3.06
X2.06Y-2.43
X2.06Y-2.47
X2.06Y-2.51
X2.06Y-2.55
X2.06Y-2.59
X2.06Y-2.67
X2.06Y-2.71
X2.06Y-2.75
X2.06Y-2.79
X2.06Y-2.83
X2.1Y-2.43
X2.1Y-2.47
X2.1Y-2.51
X2.1Y-2.55
X2.1Y-2.59
X2.1Y-2.67
X2.1Y-2.71
X2.1Y-2.75
X2.1Y-2.79
X2.1Y-2.83
X2.1Y-3.31
X2.1Y-5.725
X2.125Y-3.675
X2.14Y-2.43
X2.14Y-2.47
X2.14Y-2.51
X2.14Y-2.55
X2.14Y-2.59
X2.14Y-2.67
X2.14Y-2.71
X2.14Y-2.75
X2.14Y-2.79
X2.14Y-2.83
X2.18Y-2.43
X2.18Y-2.47
X2.18Y-2.51
X2.18Y-2.55
X2.18Y-2.59
X2.18Y-2.67
X2.18Y-2.71
X2.18Y-2.75
X2.18Y-2.79
X2.18Y-2.83
X2.2Y-5.675
X2.22Y-2.43
X2.22Y-2.47
X2.22Y-2.51
X2.22Y-2.55
X2.22Y-2.59
X2.25Y-3.625
X2.26Y-2.43
X2.26Y-2.47
X2.26Y-2.51
X2.26Y-2.55
X2.26Y-2.59
X2.27Y-3.26
X2.3Y-4.325
X2.3Y-5.625
X2.4Y-4.375
X2.4Y-5.575
X2.5Y-4.425
X2.575Y-3.775
X2.6Y-4.475
X2.64Y-2.43
X2.64Y-2.47
X2.64Y-2.51
X2.64Y-2.55
X2.64Y-2.59
X2.68Y-2.43
X2.68Y-2.47
X2.68Y-2.51
X2.68Y-2.55
X2.68Y-2.59
X2.72Y-2.43
X2.72Y-2.47
X2.72Y-2.51
X2.72Y-2.55
X2.72Y-2.59
X2.72Y-2.67
X2.72Y-2.71
X2.72Y-2.75
X2.72Y-2.79
X2.72Y-2.83
X2.75Y-3.575
X2.76Y-2.43
X2.76Y-2.47
X2.76Y-2.51
X2.76Y-2.55
X2.76Y-2.59
X2.76Y-2.67
X2.76Y-2.71
X2.76Y-2.75
X2.76Y-2.79
X2.76Y-2.83
X2.7811Y-3.06
X2.8Y-2.43
X2.8Y-2.47
X2.8Y-2.51
X2.8Y-2.55
X2.8Y-2.59
X2.8Y-2.67
X2.8Y-2.71
X2.8Y-2.75
X2.8Y-2.79
X2.8Y-2.83
X2.8Y-3.9
X2.81Y-3.1011
X2.82Y-2.04
X2.825Y-3.575
X2.84Y-2.43
X2.84Y-2.47
X2.84Y-2.51
X2.84Y-2.55
X2.84Y-2.59
X2.84Y-2.67
X2.84Y-2.71
X2.84Y-2.75
X2.84Y-2.79
X2.84Y-2.83
X2.88Y-2.67
X2.88Y-2.71
X2.88Y-2.75
X2.88Y-2.79
X2.88Y-2.83
X2.92Y-2.67
X2.92Y-2.71
X2.92Y-2.75
X2.92Y-2.79
X2.92Y-2.83
X2.94Y-3.06
X2.94Y-5.4
X2.96Y-2.43
X2.96Y-2.47
X2.96Y-2.51
X2.96Y-2.55
X2.96Y-2.59
X2.96Y-2.67
X2.96Y-2.71
X2.96Y-2.75
X2.96Y-2.79
X2.96Y-2.83
X2.96Y-3.57
X3.Y-2.43
X3.Y-2.47
X3.Y-2.51
X3.Y-2.55
X3.Y-2.59
X3.Y-2.67
X3.Y-2.71
X3.Y-2.75
X3.Y-2.79
X3.Y-2.83
X3.Y-3.31
X3.Y-3.36
X3.02Y-4.86
X3.04Y-2.43
X3.04Y-2.47
X3.04Y-2.51
X3.04Y-2.55
X3.04Y-2.59
X3.04Y-2.67
X3.04Y-2.71
X3.04Y-2.75
X3.04Y-2.79
X3.04Y-2.83
X3.08Y-2.43
X3.08Y-2.47
X3.08Y-2.51
X3.08Y-2.55
X3.08Y-2.59
X3.08Y-2.67
X3.08Y-2.71
X3.08Y-2.75
X3.08Y-2.79
X3.08Y-2.83
X3.12Y-2.43
X3.12Y-2.47
X3.12Y-2.51
X3.12Y-2.55
X3.12Y-2.59
X3.16Y-2.43
X3.16Y-2.47
X3.16Y-2.51
X3.16Y-2.55
X3.16Y-2.59
X3.28Y-2.58
X3.28Y-2.94
X3.31Y-5.41
X3.34Y-2.58
X3.34Y-2.94
X3.38Y-4.86
X3.4Y-2.58
X3.4Y-2.94
X3.45Y-3.06
X3.65Y-5.4
X3.661Y-3.623
X3.67Y-3.7
X3.675Y-3.54
X3.72Y-4.86
X3.78Y-2.04
X3.94Y-2.94
X4.02Y-2.94
X4.02Y-5.395
X4.08Y-2.5
X4.08Y-3.06
X4.1Y-2.94
X4.1Y-3.7
X4.16Y-2.5
X4.24Y-2.5
X4.35Y-5.6
X4.4Y-3.16
X4.4Y-3.875
X4.44Y-5.56
X4.45Y-5.375
X4.5Y-3.875
X4.55Y-5.1
X4.55Y-5.325
X4.56Y-4.63
X4.6Y-3.45
X4.78Y-2.43
X4.78Y-2.47
X4.78Y-2.51
X4.78Y-2.55
X4.78Y-2.59
X4.82Y-2.43
X4.82Y-2.47
X4.82Y-2.51
X4.82Y-2.55
X4.82Y-2.59
X4.86Y-2.43
X4.86Y-2.47
X4.86Y-2.51
X4.86Y-2.55
X4.86Y-2.59
X4.87Y-2.67
X4.87Y-2.71
X4.87Y-2.75
X4.87Y-2.79
X4.87Y-2.83
X4.9Y-2.43
X4.9Y-2.47
X4.9Y-2.51
X4.9Y-2.55
X4.9Y-2.59
X4.91Y-2.67
X4.91Y-2.71
X4.91Y-2.75
X4.91Y-2.79
X4.91Y-2.83
X4.93Y-3.06
X4.93Y-3.3364
X4.94Y-2.43
X4.94Y-2.47
X4.94Y-2.51
X4.94Y-2.55
X4.94Y-2.59
X4.95Y-2.67
X4.95Y-2.71
X4.95Y-2.75
X4.95Y-2.79
X4.95Y-2.83
X4.95Y-4.4
X4.95Y-4.47
X4.95Y-5.1311
X4.97Y-3.0911
X4.98Y-2.04
X4.98Y-2.43
X4.98Y-2.47
X4.98Y-2.51
X4.98Y-2.55
X4.98Y-2.59
X4.99Y-2.67
X4.99Y-2.71
X4.99Y-2.75
X4.99Y-2.79
X4.99Y-2.83
X5.03Y-2.67
X5.03Y-2.71
X5.03Y-2.75
X5.03Y-2.79
X5.03Y-2.83
X5.07Y-2.67
X5.07Y-2.71
X5.07Y-2.75
X5.07Y-2.79
X5.07Y-2.83
X5.08Y-4.56
X5.09Y-3.06
X5.1Y-3.475
X5.1Y-3.61
X5.1Y-3.65
X5.1Y-3.925
X5.1Y-4.
X5.11Y-2.67
X5.11Y-2.71
X5.11Y-2.75
X5.11Y-2.79
X5.11Y-2.83
X5.12Y-2.43
X5.12Y-2.47
X5.12Y-2.51
X5.12Y-2.55
X5.12Y-2.59
X5.15Y-2.67
X5.15Y-2.71
X5.15Y-2.75
X5.15Y-2.79
X5.15Y-2.83
X5.15Y-5.15
X5.16Y-2.43
X5.16Y-2.47
X5.16Y-2.51
X5.16Y-2.55
X5.16Y-2.59
X5.19Y-2.67
X5.19Y-2.71
X5.19Y-2.75
X5.19Y-2.79
X5.19Y-2.83
X5.2Y-2.43
X5.2Y-2.47
X5.2Y-2.51
X5.2Y-2.55
X5.2Y-2.59
X5.22Y-3.3
X5.23Y-2.67
X5.23Y-2.71
X5.23Y-2.75
X5.23Y-2.79
X5.23Y-2.83
X5.24Y-2.43
X5.24Y-2.47
X5.24Y-2.51
X5.24Y-2.55
X5.24Y-2.59
X5.28Y-2.43
X5.28Y-2.47
X5.28Y-2.51
X5.28Y-2.55
X5.28Y-2.59
X5.32Y-2.43
X5.32Y-2.47
X5.32Y-2.51
X5.32Y-2.55
X5.32Y-2.59
X5.32Y-3.3
X5.45Y-4.39
X5.49Y-4.16
X5.55Y-4.16
X5.56Y-3.79
X5.56Y-3.84
X5.7Y-4.15
X5.74Y-2.43
X5.74Y-2.47
X5.74Y-2.51
X5.74Y-2.55
X5.74Y-2.59
X5.78Y-2.43
X5.78Y-2.47
X5.78Y-2.51
X5.78Y-2.55
X5.78Y-2.59
X5.8Y-3.61
X5.82Y-2.43
X5.82Y-2.47
X5.82Y-2.51
X5.82Y-2.55
X5.82Y-2.59
X5.82Y-2.67
X5.82Y-2.71
X5.82Y-2.75
X5.82Y-2.79
X5.82Y-2.83
X5.83Y-3.79
X5.83Y-3.84
X5.86Y-2.43
X5.86Y-2.47
X5.86Y-2.51
X5.86Y-2.55
X5.86Y-2.59
X5.86Y-2.67
X5.86Y-2.71
X5.86Y-2.75
X5.86Y-2.79
X5.86Y-2.83
X5.88Y-3.06
X5.9Y-2.43
X5.9Y-2.47
X5.9Y-2.51
X5.9Y-2.55
X5.9Y-2.59
X5.9Y-2.67
X5.9Y-2.71
X5.9Y-2.75
X5.9Y-2.79
X5.9Y-2.83
X5.92Y-2.04
X5.94Y-2.43
X5.94Y-2.47
X5.94Y-2.51
X5.94Y-2.55
X5.94Y-2.59
X5.94Y-2.67
X5.94Y-2.71
X5.94Y-2.75
X5.94Y-2.79
X5.94Y-2.83
X5.98Y-2.67
X5.98Y-2.71
X5.98Y-2.75
X5.98Y-2.79
X5.98Y-2.83
X6.Y-3.37
X6.02Y-2.67
X6.02Y-2.71
X6.02Y-2.75
X6.02Y-2.79
X6.02Y-2.83
X6.04Y-3.06
X6.06Y-2.43
X6.06Y-2.47
X6.06Y-2.51
X6.06Y-2.55
X6.06Y-2.59
X6.06Y-2.67
X6.06Y-2.71
X6.06Y-2.75
X6.06Y-2.79
X6.06Y-2.83
X6.1Y-2.43
X6.1Y-2.47
X6.1Y-2.51
X6.1Y-2.55
X6.1Y-2.59
X6.1Y-2.67
X6.1Y-2.71
X6.1Y-2.75
X6.1Y-2.79
X6.1Y-2.83
X6.14Y-2.43
X6.14Y-2.47
X6.14Y-2.51
X6.14Y-2.55
X6.14Y-2.59
X6.14Y-2.67
X6.14Y-2.71
X6.14Y-2.75
X6.14Y-2.79
X6.14Y-2.83
X6.14Y-3.61
X6.15Y-3.44
X6.18Y-2.43
X6.18Y-2.47
X6.18Y-2.51
X6.18Y-2.55
X6.18Y-2.59
X6.18Y-2.67
X6.18Y-2.71
X6.18Y-2.75
X6.18Y-2.79
X6.18Y-2.83
X6.22Y-2.43
X6.22Y-2.47
X6.22Y-2.51
X6.22Y-2.55
X6.22Y-2.59
X6.25Y-4.22
X6.26Y-2.43
X6.26Y-2.47
X6.26Y-2.51
X6.26Y-2.55
X6.26Y-2.59
X6.27Y-3.44
T2
X3.45Y-4.7
X3.55Y-4.7
X4.7Y-4.9
X4.8Y-4.9
X4.9Y-4.9
X3.8Y-4.7
X3.9Y-4.7
X4.7Y-4.25
X4.8Y-4.25
X4.9Y-4.25
X6.25Y-4.02
X6.25Y-4.12
X6.25Y-4.22
X6.25Y-4.32
X6.25Y-4.42
X3.8Y-5.25
X3.9Y-5.25
X2.75Y-4.7
X2.85Y-4.7
X4.2Y-4.25
X4.3Y-4.25
X4.4Y-4.25
X3.1Y-5.25
X3.2Y-5.25
X2.75Y-5.25
X2.85Y-5.25
X3.45Y-5.25
X3.55Y-5.25
X3.1Y-4.7
X3.2Y-4.7
X4.2Y-4.9
X4.3Y-4.9
X4.4Y-4.9
T3
X4.245Y-2.9
X4.345Y-2.9
X4.445Y-2.9
X3.54Y-2.9
X3.64Y-2.9
X3.74Y-2.9
T4
X1.65Y-4.4
X1.65Y-4.4787
X1.65Y-4.5575
T5
X1.65Y-4.3173
X1.65Y-4.6402
T6
X5.835Y-1.791
X6.15Y-1.791
X2.735Y-1.791
X3.05Y-1.791
X1.835Y-1.791
X2.15Y-1.791
X3.695Y-1.791
X4.01Y-1.791
X4.325Y-1.791
X4.885Y-1.791
X5.2Y-1.791
T0
M30
