M48
; DRILL file {KiCad 8.0.5} date 2024-11-14T18:07:50-0600
; FORMAT={-:-/ absolute / metric / decimal}
; #@! TF.CreationDate,2024-11-14T18:07:50-06:00
; #@! TF.GenerationSoftware,Kicad,Pcbnew,8.0.5
; #@! TF.FileFunction,Plated,1,2,PTH
FMAT,2
METRIC
; #@! TA.AperFunction,Plated,PTH,ViaDrill
T1C0.300
; #@! TA.AperFunction,Plated,PTH,ComponentDrill
T2C0.700
; #@! TA.AperFunction,Plated,PTH,ComponentDrill
T3C0.800
; #@! TA.AperFunction,Plated,PTH,ComponentDrill
T4C0.889
; #@! TA.AperFunction,Plated,PTH,ComponentDrill
T5C0.900
; #@! TA.AperFunction,Plated,PTH,ComponentDrill
T6C1.020
; #@! TA.AperFunction,Plated,PTH,ComponentDrill
T7C1.500
; #@! TA.AperFunction,Plated,PTH,ComponentDrill
T8C1.600
; #@! TA.AperFunction,Plated,PTH,ComponentDrill
T9C2.000
; #@! TA.AperFunction,Plated,PTH,ComponentDrill
T10C3.250
%
G90
G05
T1
X47.498Y-56.007
X47.498Y-70.358
X48.768Y-62.23
X48.895Y-140.335
X49.022Y-106.68
X49.022Y-123.063
X49.022Y-129.54
X49.149Y-90.17
X49.149Y-112.903
X50.165Y-76.581
X50.165Y-80.391
X50.546Y-97.155
X50.927Y-54.102
X52.07Y-147.32
X52.578Y-62.306
X52.705Y-104.14
X52.959Y-130.683
X53.34Y-113.919
X53.848Y-62.306
X54.102Y-121.92
X54.102Y-124.714
X54.229Y-140.081
X54.229Y-142.494
X54.229Y-144.907
X54.356Y-57.785
X54.61Y-158.75
X54.864Y-108.839
X55.124Y-62.305
X55.207Y-53.932
X56.388Y-62.306
X56.778Y-114.69
X57.588Y-54.532
X57.747Y-53.09
X58.42Y-44.45
X58.42Y-147.32
X58.42Y-165.1
X58.547Y-65.024
X58.547Y-76.581
X58.547Y-80.518
X58.788Y-53.852
X59.436Y-85.09
X59.436Y-101.6
X59.563Y-90.17
X59.563Y-92.71
X59.563Y-109.093
X60.579Y-121.412
X60.579Y-125.603
X60.706Y-116.205
X61.212Y-47.16
X63.373Y-47.162
X63.373Y-59.182
X64.135Y-130.683
X64.262Y-75.311
X64.389Y-65.405
X64.643Y-46.558
X64.643Y-59.182
X64.77Y-147.32
X65.913Y-62.535
X66.04Y-43.18
X66.04Y-165.1
X66.167Y-110.236
X66.421Y-116.459
X66.548Y-143.129
X66.675Y-94.107
X66.802Y-121.412
X66.802Y-126.111
X67.183Y-53.868
X67.234Y-62.535
X68.326Y-53.09
X68.453Y-62.488
X68.707Y-77.851
X68.707Y-84.328
X68.834Y-130.683
X69.723Y-52.963
X69.723Y-62.488
X70.252Y-101.767
X70.393Y-123.19
X70.739Y-157.226
X70.993Y-52.963
X70.993Y-102.367
X71.006Y-119.761
X71.006Y-127.381
X71.12Y-72.644
X71.12Y-147.32
X71.247Y-95.377
X71.593Y-104.481
X72.206Y-103.967
X72.206Y-129.921
X72.771Y-135.636
X73.152Y-63.881
X73.279Y-52.959
X73.279Y-59.436
X73.406Y-134.493
X73.66Y-44.45
X75.692Y-100.965
X75.692Y-138.557
X76.292Y-93.091
X76.708Y-47.162
X76.835Y-90.932
X77.135Y-149.733
X77.47Y-116.078
X77.731Y-149.091
X77.978Y-46.558
X78.359Y-107.188
X78.867Y-163.83
X79.223Y-62.535
X79.375Y-77.216
X79.756Y-84.455
X79.883Y-120.269
X80.493Y-47.762
X80.543Y-62.535
X80.645Y-98.171
X81.153Y-150.911
X81.28Y-43.18
X81.763Y-48.362
X81.763Y-62.586
X81.788Y-112.649
X81.915Y-107.188
X82.042Y-150.374
X83.083Y-48.981
X83.083Y-62.535
X84.303Y-49.581
X84.615Y-121.701
X84.625Y-87.757
X85.09Y-129.54
X85.09Y-138.43
X85.214Y-122.255
X85.217Y-165.481
X85.471Y-135.255
X85.814Y-124.841
X86.614Y-62.484
X86.614Y-114.681
X86.868Y-61.214
X87.214Y-85.598
X87.214Y-90.267
X87.249Y-102.967
X87.249Y-127.381
X87.63Y-147.32
X87.884Y-104.167
X87.9Y-124.841
X88.265Y-49.022
X88.285Y-133.243
X88.9Y-44.45
X88.9Y-141.478
X89.281Y-63.627
X89.281Y-73.152
X89.281Y-79.883
X90.932Y-118.491
X91.059Y-103.632
X91.123Y-100.365
X91.948Y-70.836
X92.329Y-49.022
X92.757Y-91.821
X92.757Y-94.361
X92.757Y-122.655
X93.091Y-165.481
X93.358Y-117.856
X93.957Y-104.521
X94.361Y-98.965
X94.869Y-78.867
X94.869Y-135.001
X94.996Y-83.693
X95.25Y-44.45
X95.561Y-118.491
X95.562Y-84.293
X96.053Y-84.925
X96.139Y-129.921
X96.761Y-86.217
X96.774Y-127.381
X96.847Y-85.017
X97.161Y-87.737
X97.161Y-105.537
X97.161Y-119.761
X97.79Y-63.246
X97.79Y-76.073
X97.79Y-144.907
X98.361Y-116.332
X98.425Y-138.684
X98.702Y-95.481
X99.06Y-71.12
X99.314Y-90.551
X100.33Y-113.03
X100.838Y-119.888
X101.6Y-77.47
X101.6Y-81.28
X101.6Y-106.68
X101.6Y-133.35
X102.616Y-142.494
X102.743Y-145.542
X102.87Y-44.45
X102.87Y-91.44
X102.997Y-126.365
X103.632Y-116.586
X103.886Y-103.886
X103.977Y-134.239
X104.013Y-88.392
X104.14Y-64.77
X104.14Y-71.12
X105.12Y-103.886
X105.12Y-118.526
X105.248Y-123.514
X106.045Y-129.54
X106.39Y-103.886
X106.68Y-50.8
X107.025Y-122.914
X107.145Y-83.366
X107.569Y-128.397
X107.66Y-103.886
X108.295Y-118.11
X108.712Y-107.569
X109.182Y-87.017
X110.2Y-109.982
X110.328Y-124.714
X110.328Y-137.303
X110.49Y-44.45
X110.49Y-64.77
X110.49Y-71.12
X110.49Y-145.542
X110.744Y-142.748
X110.835Y-122.936
X111.082Y-83.693
X111.379Y-155.448
X111.597Y-137.287
X112.105Y-118.11
X113.157Y-86.995
X114.3Y-50.8
X115.019Y-83.693
X115.57Y-64.77
X115.57Y-71.12
X117.221Y-86.995
X117.602Y-142.875
X118.11Y-44.45
X118.956Y-83.693
X118.999Y-168.329
X120.65Y-59.69
X120.65Y-64.77
X120.65Y-71.12
X120.904Y-112.395
X120.904Y-124.968
X121.031Y-118.872
X121.031Y-133.858
X121.158Y-105.537
X121.92Y-50.8
X121.92Y-150.749
X122.047Y-145.796
X123.19Y-78.74
X123.19Y-85.09
X123.19Y-90.17
X123.317Y-167.386
X124.206Y-153.289
X125.73Y-44.45
X125.73Y-62.23
X125.73Y-68.58
X125.73Y-74.93
X128.234Y-105.918
X128.234Y-112.141
X128.234Y-114.589
X128.234Y-118.11
X128.234Y-124.46
X128.234Y-128.524
X128.234Y-133.096
X130.048Y-157.353
X130.556Y-162.433
X130.937Y-149.606
X131.191Y-141.224
X131.191Y-144.78
X133.35Y-93.98
X135.382Y-105.664
X135.382Y-112.141
X135.382Y-118.872
X135.382Y-125.095
X135.382Y-133.731
X137.16Y-88.9
X138.43Y-52.07
X138.43Y-63.5
X138.43Y-74.93
T2
X77.126Y-127.651
X77.126Y-129.651
X79.126Y-127.651
X79.126Y-129.651
X81.126Y-127.651
X81.126Y-129.651
T3
X48.895Y-151.511
X51.395Y-151.511
X74.676Y-84.201
X74.676Y-86.741
X74.676Y-89.281
X74.676Y-91.821
X74.676Y-94.361
X74.676Y-96.901
X74.676Y-99.441
X74.676Y-101.981
X74.676Y-104.521
X74.676Y-107.061
X74.676Y-109.601
X74.676Y-112.141
X74.676Y-114.681
X74.676Y-117.221
X74.676Y-119.761
X74.676Y-122.301
X74.676Y-124.841
X74.676Y-127.381
X74.676Y-129.921
X74.676Y-132.461
X74.676Y-135.001
X74.676Y-137.541
X74.676Y-140.081
X74.676Y-142.621
X89.916Y-84.201
X89.916Y-86.741
X89.916Y-89.281
X89.916Y-91.821
X89.916Y-94.361
X89.916Y-96.901
X89.916Y-99.441
X89.916Y-101.981
X89.916Y-104.521
X89.916Y-107.061
X89.916Y-109.601
X89.916Y-112.141
X89.916Y-114.681
X89.916Y-117.221
X89.916Y-119.761
X89.916Y-122.301
X89.916Y-124.841
X89.916Y-127.381
X89.916Y-129.921
X89.916Y-132.461
X89.916Y-135.001
X89.916Y-137.541
X89.916Y-140.081
X89.916Y-142.621
T4
X72.771Y-161.163
X72.771Y-163.703
X72.771Y-166.243
X93.599Y-153.543
X96.139Y-153.543
X98.679Y-153.543
T5
X49.276Y-73.152
X49.403Y-67.513
X50.8Y-83.82
X50.8Y-86.36
X50.8Y-88.9
X50.8Y-91.44
X50.8Y-93.98
X50.8Y-100.33
X50.8Y-102.87
X50.8Y-105.41
X50.8Y-107.95
X50.8Y-110.49
X50.8Y-116.713
X50.8Y-119.253
X50.8Y-121.793
X50.8Y-124.333
X50.8Y-126.873
X50.8Y-133.096
X50.8Y-135.636
X50.8Y-138.176
X50.8Y-140.716
X50.8Y-143.256
X51.816Y-73.152
X51.943Y-67.513
X57.023Y-83.82
X57.023Y-86.36
X57.023Y-88.9
X57.023Y-91.44
X57.023Y-93.98
X57.023Y-100.33
X57.023Y-102.87
X57.023Y-105.41
X57.023Y-107.95
X57.023Y-110.49
X57.023Y-116.713
X57.023Y-119.253
X57.023Y-121.793
X57.023Y-124.333
X57.023Y-126.873
X57.023Y-133.096
X57.023Y-135.636
X57.023Y-138.176
X57.023Y-140.716
X57.023Y-143.256
X57.328Y-73.152
X57.48Y-67.513
X59.868Y-73.152
X60.02Y-67.513
X65.405Y-73.127
X65.532Y-67.462
X67.945Y-73.127
X68.072Y-67.462
X73.482Y-73.127
X73.609Y-67.511
X76.022Y-73.127
X76.149Y-67.511
X81.559Y-73.127
X81.623Y-67.511
X84.099Y-73.127
X84.163Y-67.511
X107.036Y-152.019
X108.306Y-149.479
X109.576Y-152.019
X110.846Y-149.479
X112.116Y-152.019
X113.386Y-149.479
X114.656Y-152.019
X115.926Y-149.479
X127.128Y-165.514
X129.668Y-165.514
X129.794Y-52.959
X129.794Y-55.499
X129.794Y-58.039
X129.794Y-64.262
X129.794Y-64.262
X129.794Y-66.802
X129.794Y-69.342
X129.794Y-71.882
X129.794Y-78.105
X129.794Y-78.105
X129.794Y-80.645
X129.794Y-83.185
X129.794Y-85.725
X131.35Y-99.282
X133.35Y-99.282
X135.35Y-99.282
X136.017Y-55.753
X136.017Y-58.293
X136.017Y-60.833
X136.017Y-66.675
X136.017Y-69.215
X136.017Y-71.755
X136.017Y-78.359
X136.017Y-80.899
X136.017Y-83.439
X136.271Y-147.066
X136.271Y-149.606
X136.271Y-155.698
X136.271Y-158.238
T6
X105.156Y-163.449
X107.696Y-161.659
X115.266Y-163.449
X117.806Y-161.659
T7
X129.25Y-99.282
X137.45Y-99.282
T8
X103.606Y-155.319
X119.356Y-155.319
T10
X105.766Y-158.369
X117.196Y-158.369
T9
X57.37Y-151.322G85X59.47Y-151.322
G05
X65.244Y-151.322G85X67.344Y-151.322
G05
X107.095Y-58.99G85X104.995Y-58.99
G05
X114.969Y-58.99G85X112.869Y-58.99
G05
M30
