G04 #@! TF.GenerationSoftware,KiCad,Pcbnew,(5.0.2)-1*
G04 #@! TF.CreationDate,2019-04-17T18:14:32-05:00*
G04 #@! TF.ProjectId,ArmDriveBoard_Hardware,41726d44-7269-4766-9542-6f6172645f48,rev?*
G04 #@! TF.SameCoordinates,Original*
G04 #@! TF.FileFunction,Copper,L1,Top*
G04 #@! TF.FilePolarity,Positive*
%FSLAX46Y46*%
G04 Gerber Fmt 4.6, Leading zero omitted, Abs format (unit mm)*
G04 Created by KiCad (PCBNEW (5.0.2)-1) date 4/17/2019 6:14:32 PM*
%MOMM*%
%LPD*%
G01*
G04 APERTURE LIST*
G04 #@! TA.AperFunction,ComponentPad*
%ADD10C,2.000000*%
G04 #@! TD*
G04 #@! TA.AperFunction,Conductor*
%ADD11C,0.100000*%
G04 #@! TD*
G04 #@! TA.AperFunction,SMDPad,CuDef*
%ADD12C,0.950000*%
G04 #@! TD*
G04 #@! TA.AperFunction,ComponentPad*
%ADD13C,1.524000*%
G04 #@! TD*
G04 #@! TA.AperFunction,ComponentPad*
%ADD14C,5.080000*%
G04 #@! TD*
G04 #@! TA.AperFunction,SMDPad,CuDef*
%ADD15R,0.900000X0.800000*%
G04 #@! TD*
G04 #@! TA.AperFunction,ComponentPad*
%ADD16C,1.520000*%
G04 #@! TD*
G04 #@! TA.AperFunction,ComponentPad*
%ADD17R,1.600000X1.600000*%
G04 #@! TD*
G04 #@! TA.AperFunction,ComponentPad*
%ADD18C,1.600000*%
G04 #@! TD*
G04 #@! TA.AperFunction,ViaPad*
%ADD19C,0.800000*%
G04 #@! TD*
G04 #@! TA.AperFunction,Conductor*
%ADD20C,0.762000*%
G04 #@! TD*
G04 #@! TA.AperFunction,Conductor*
%ADD21C,0.381000*%
G04 #@! TD*
G04 #@! TA.AperFunction,Conductor*
%ADD22C,5.080000*%
G04 #@! TD*
G04 #@! TA.AperFunction,Conductor*
%ADD23C,0.254000*%
G04 #@! TD*
G04 APERTURE END LIST*
D10*
G04 #@! TO.P,REF\002A\002A,1*
G04 #@! TO.N,Servo3_PWM*
X212598000Y-121920000D03*
G04 #@! TD*
G04 #@! TO.P,REF\002A\002A,1*
G04 #@! TO.N,Servo2_PWM*
X212598000Y-109220000D03*
G04 #@! TD*
G04 #@! TO.P,REF\002A\002A,1*
G04 #@! TO.N,Servo1_PWM*
X212598000Y-96520000D03*
G04 #@! TD*
G04 #@! TO.P,REF\002A\002A,1*
G04 #@! TO.N,GND*
X167640000Y-99060000D03*
G04 #@! TD*
G04 #@! TO.P,REF\002A\002A,1*
G04 #@! TO.N,Net-(Conn4-Pad2)*
X166624000Y-88900000D03*
G04 #@! TD*
G04 #@! TO.P,REF\002A\002A,1*
G04 #@! TO.N,Net-(Conn6-Pad2)*
X177800000Y-88900000D03*
G04 #@! TD*
G04 #@! TO.P,REF\002A\002A,1*
G04 #@! TO.N,Solenoid_Control*
X172720000Y-88900000D03*
G04 #@! TD*
D11*
G04 #@! TO.N,+5V*
G04 #@! TO.C,C3*
G36*
X170970779Y-112556144D02*
X170993834Y-112559563D01*
X171016443Y-112565227D01*
X171038387Y-112573079D01*
X171059457Y-112583044D01*
X171079448Y-112595026D01*
X171098168Y-112608910D01*
X171115438Y-112624562D01*
X171131090Y-112641832D01*
X171144974Y-112660552D01*
X171156956Y-112680543D01*
X171166921Y-112701613D01*
X171174773Y-112723557D01*
X171180437Y-112746166D01*
X171183856Y-112769221D01*
X171185000Y-112792500D01*
X171185000Y-113267500D01*
X171183856Y-113290779D01*
X171180437Y-113313834D01*
X171174773Y-113336443D01*
X171166921Y-113358387D01*
X171156956Y-113379457D01*
X171144974Y-113399448D01*
X171131090Y-113418168D01*
X171115438Y-113435438D01*
X171098168Y-113451090D01*
X171079448Y-113464974D01*
X171059457Y-113476956D01*
X171038387Y-113486921D01*
X171016443Y-113494773D01*
X170993834Y-113500437D01*
X170970779Y-113503856D01*
X170947500Y-113505000D01*
X170372500Y-113505000D01*
X170349221Y-113503856D01*
X170326166Y-113500437D01*
X170303557Y-113494773D01*
X170281613Y-113486921D01*
X170260543Y-113476956D01*
X170240552Y-113464974D01*
X170221832Y-113451090D01*
X170204562Y-113435438D01*
X170188910Y-113418168D01*
X170175026Y-113399448D01*
X170163044Y-113379457D01*
X170153079Y-113358387D01*
X170145227Y-113336443D01*
X170139563Y-113313834D01*
X170136144Y-113290779D01*
X170135000Y-113267500D01*
X170135000Y-112792500D01*
X170136144Y-112769221D01*
X170139563Y-112746166D01*
X170145227Y-112723557D01*
X170153079Y-112701613D01*
X170163044Y-112680543D01*
X170175026Y-112660552D01*
X170188910Y-112641832D01*
X170204562Y-112624562D01*
X170221832Y-112608910D01*
X170240552Y-112595026D01*
X170260543Y-112583044D01*
X170281613Y-112573079D01*
X170303557Y-112565227D01*
X170326166Y-112559563D01*
X170349221Y-112556144D01*
X170372500Y-112555000D01*
X170947500Y-112555000D01*
X170970779Y-112556144D01*
X170970779Y-112556144D01*
G37*
D12*
G04 #@! TD*
G04 #@! TO.P,C3,1*
G04 #@! TO.N,+5V*
X170660000Y-113030000D03*
D11*
G04 #@! TO.N,GND*
G04 #@! TO.C,C3*
G36*
X169220779Y-112556144D02*
X169243834Y-112559563D01*
X169266443Y-112565227D01*
X169288387Y-112573079D01*
X169309457Y-112583044D01*
X169329448Y-112595026D01*
X169348168Y-112608910D01*
X169365438Y-112624562D01*
X169381090Y-112641832D01*
X169394974Y-112660552D01*
X169406956Y-112680543D01*
X169416921Y-112701613D01*
X169424773Y-112723557D01*
X169430437Y-112746166D01*
X169433856Y-112769221D01*
X169435000Y-112792500D01*
X169435000Y-113267500D01*
X169433856Y-113290779D01*
X169430437Y-113313834D01*
X169424773Y-113336443D01*
X169416921Y-113358387D01*
X169406956Y-113379457D01*
X169394974Y-113399448D01*
X169381090Y-113418168D01*
X169365438Y-113435438D01*
X169348168Y-113451090D01*
X169329448Y-113464974D01*
X169309457Y-113476956D01*
X169288387Y-113486921D01*
X169266443Y-113494773D01*
X169243834Y-113500437D01*
X169220779Y-113503856D01*
X169197500Y-113505000D01*
X168622500Y-113505000D01*
X168599221Y-113503856D01*
X168576166Y-113500437D01*
X168553557Y-113494773D01*
X168531613Y-113486921D01*
X168510543Y-113476956D01*
X168490552Y-113464974D01*
X168471832Y-113451090D01*
X168454562Y-113435438D01*
X168438910Y-113418168D01*
X168425026Y-113399448D01*
X168413044Y-113379457D01*
X168403079Y-113358387D01*
X168395227Y-113336443D01*
X168389563Y-113313834D01*
X168386144Y-113290779D01*
X168385000Y-113267500D01*
X168385000Y-112792500D01*
X168386144Y-112769221D01*
X168389563Y-112746166D01*
X168395227Y-112723557D01*
X168403079Y-112701613D01*
X168413044Y-112680543D01*
X168425026Y-112660552D01*
X168438910Y-112641832D01*
X168454562Y-112624562D01*
X168471832Y-112608910D01*
X168490552Y-112595026D01*
X168510543Y-112583044D01*
X168531613Y-112573079D01*
X168553557Y-112565227D01*
X168576166Y-112559563D01*
X168599221Y-112556144D01*
X168622500Y-112555000D01*
X169197500Y-112555000D01*
X169220779Y-112556144D01*
X169220779Y-112556144D01*
G37*
D12*
G04 #@! TD*
G04 #@! TO.P,C3,2*
G04 #@! TO.N,GND*
X168910000Y-113030000D03*
D11*
G04 #@! TO.N,/V+Log*
G04 #@! TO.C,C6*
G36*
X164930779Y-112556144D02*
X164953834Y-112559563D01*
X164976443Y-112565227D01*
X164998387Y-112573079D01*
X165019457Y-112583044D01*
X165039448Y-112595026D01*
X165058168Y-112608910D01*
X165075438Y-112624562D01*
X165091090Y-112641832D01*
X165104974Y-112660552D01*
X165116956Y-112680543D01*
X165126921Y-112701613D01*
X165134773Y-112723557D01*
X165140437Y-112746166D01*
X165143856Y-112769221D01*
X165145000Y-112792500D01*
X165145000Y-113267500D01*
X165143856Y-113290779D01*
X165140437Y-113313834D01*
X165134773Y-113336443D01*
X165126921Y-113358387D01*
X165116956Y-113379457D01*
X165104974Y-113399448D01*
X165091090Y-113418168D01*
X165075438Y-113435438D01*
X165058168Y-113451090D01*
X165039448Y-113464974D01*
X165019457Y-113476956D01*
X164998387Y-113486921D01*
X164976443Y-113494773D01*
X164953834Y-113500437D01*
X164930779Y-113503856D01*
X164907500Y-113505000D01*
X164332500Y-113505000D01*
X164309221Y-113503856D01*
X164286166Y-113500437D01*
X164263557Y-113494773D01*
X164241613Y-113486921D01*
X164220543Y-113476956D01*
X164200552Y-113464974D01*
X164181832Y-113451090D01*
X164164562Y-113435438D01*
X164148910Y-113418168D01*
X164135026Y-113399448D01*
X164123044Y-113379457D01*
X164113079Y-113358387D01*
X164105227Y-113336443D01*
X164099563Y-113313834D01*
X164096144Y-113290779D01*
X164095000Y-113267500D01*
X164095000Y-112792500D01*
X164096144Y-112769221D01*
X164099563Y-112746166D01*
X164105227Y-112723557D01*
X164113079Y-112701613D01*
X164123044Y-112680543D01*
X164135026Y-112660552D01*
X164148910Y-112641832D01*
X164164562Y-112624562D01*
X164181832Y-112608910D01*
X164200552Y-112595026D01*
X164220543Y-112583044D01*
X164241613Y-112573079D01*
X164263557Y-112565227D01*
X164286166Y-112559563D01*
X164309221Y-112556144D01*
X164332500Y-112555000D01*
X164907500Y-112555000D01*
X164930779Y-112556144D01*
X164930779Y-112556144D01*
G37*
D12*
G04 #@! TD*
G04 #@! TO.P,C6,2*
G04 #@! TO.N,/V+Log*
X164620000Y-113030000D03*
D11*
G04 #@! TO.N,GND*
G04 #@! TO.C,C6*
G36*
X166680779Y-112556144D02*
X166703834Y-112559563D01*
X166726443Y-112565227D01*
X166748387Y-112573079D01*
X166769457Y-112583044D01*
X166789448Y-112595026D01*
X166808168Y-112608910D01*
X166825438Y-112624562D01*
X166841090Y-112641832D01*
X166854974Y-112660552D01*
X166866956Y-112680543D01*
X166876921Y-112701613D01*
X166884773Y-112723557D01*
X166890437Y-112746166D01*
X166893856Y-112769221D01*
X166895000Y-112792500D01*
X166895000Y-113267500D01*
X166893856Y-113290779D01*
X166890437Y-113313834D01*
X166884773Y-113336443D01*
X166876921Y-113358387D01*
X166866956Y-113379457D01*
X166854974Y-113399448D01*
X166841090Y-113418168D01*
X166825438Y-113435438D01*
X166808168Y-113451090D01*
X166789448Y-113464974D01*
X166769457Y-113476956D01*
X166748387Y-113486921D01*
X166726443Y-113494773D01*
X166703834Y-113500437D01*
X166680779Y-113503856D01*
X166657500Y-113505000D01*
X166082500Y-113505000D01*
X166059221Y-113503856D01*
X166036166Y-113500437D01*
X166013557Y-113494773D01*
X165991613Y-113486921D01*
X165970543Y-113476956D01*
X165950552Y-113464974D01*
X165931832Y-113451090D01*
X165914562Y-113435438D01*
X165898910Y-113418168D01*
X165885026Y-113399448D01*
X165873044Y-113379457D01*
X165863079Y-113358387D01*
X165855227Y-113336443D01*
X165849563Y-113313834D01*
X165846144Y-113290779D01*
X165845000Y-113267500D01*
X165845000Y-112792500D01*
X165846144Y-112769221D01*
X165849563Y-112746166D01*
X165855227Y-112723557D01*
X165863079Y-112701613D01*
X165873044Y-112680543D01*
X165885026Y-112660552D01*
X165898910Y-112641832D01*
X165914562Y-112624562D01*
X165931832Y-112608910D01*
X165950552Y-112595026D01*
X165970543Y-112583044D01*
X165991613Y-112573079D01*
X166013557Y-112565227D01*
X166036166Y-112559563D01*
X166059221Y-112556144D01*
X166082500Y-112555000D01*
X166657500Y-112555000D01*
X166680779Y-112556144D01*
X166680779Y-112556144D01*
G37*
D12*
G04 #@! TD*
G04 #@! TO.P,C6,1*
G04 #@! TO.N,GND*
X166370000Y-113030000D03*
D13*
G04 #@! TO.P,Conn4,1*
G04 #@! TO.N,+12V*
X180340000Y-109220000D03*
G04 #@! TO.P,Conn4,2*
G04 #@! TO.N,Net-(Conn4-Pad2)*
X182880000Y-109220000D03*
G04 #@! TD*
G04 #@! TO.P,Conn5,2*
G04 #@! TO.N,Net-(Conn4-Pad2)*
X182880000Y-121920000D03*
G04 #@! TO.P,Conn5,1*
G04 #@! TO.N,+12V*
X180340000Y-121920000D03*
G04 #@! TD*
G04 #@! TO.P,Conn6,1*
G04 #@! TO.N,+12V*
X180340000Y-96520000D03*
G04 #@! TO.P,Conn6,2*
G04 #@! TO.N,Net-(Conn6-Pad2)*
X182880000Y-96520000D03*
G04 #@! TD*
G04 #@! TO.P,Conn7,3*
G04 #@! TO.N,Servo1_PWM*
X208280000Y-96520000D03*
G04 #@! TO.P,Conn7,2*
G04 #@! TO.N,+5V*
X205740000Y-96520000D03*
G04 #@! TO.P,Conn7,1*
G04 #@! TO.N,GND*
X203200000Y-96520000D03*
G04 #@! TD*
G04 #@! TO.P,Conn8,1*
G04 #@! TO.N,GND*
X203200000Y-109220000D03*
G04 #@! TO.P,Conn8,2*
G04 #@! TO.N,+5V*
X205740000Y-109220000D03*
G04 #@! TO.P,Conn8,3*
G04 #@! TO.N,Servo2_PWM*
X208280000Y-109220000D03*
G04 #@! TD*
G04 #@! TO.P,Conn9,1*
G04 #@! TO.N,GND*
X203200000Y-121920000D03*
G04 #@! TO.P,Conn9,2*
G04 #@! TO.N,+5V*
X205740000Y-121920000D03*
G04 #@! TO.P,Conn9,3*
G04 #@! TO.N,Servo3_PWM*
X208280000Y-121920000D03*
G04 #@! TD*
D14*
G04 #@! TO.P,Conn10,1*
G04 #@! TO.N,GND*
X137160000Y-101320000D03*
G04 #@! TO.P,Conn10,2*
G04 #@! TO.N,/V+Log*
X137160000Y-109220000D03*
G04 #@! TO.P,Conn10,3*
G04 #@! TO.N,+12V*
X137160000Y-117120000D03*
G04 #@! TD*
G04 #@! TO.P,Conn11,1*
G04 #@! TO.N,GND*
X147320000Y-101320000D03*
G04 #@! TO.P,Conn11,2*
G04 #@! TO.N,/V+Log*
X147320000Y-109220000D03*
G04 #@! TO.P,Conn11,3*
G04 #@! TO.N,+12V*
X147320000Y-117120000D03*
G04 #@! TD*
G04 #@! TO.P,Conn12,3*
G04 #@! TO.N,+12V*
X157480000Y-117120000D03*
G04 #@! TO.P,Conn12,2*
G04 #@! TO.N,/V+Log*
X157480000Y-109220000D03*
G04 #@! TO.P,Conn12,1*
G04 #@! TO.N,GND*
X157480000Y-101320000D03*
G04 #@! TD*
D11*
G04 #@! TO.N,Net-(Conn4-Pad2)*
G04 #@! TO.C,D1*
G36*
X188270779Y-102650144D02*
X188293834Y-102653563D01*
X188316443Y-102659227D01*
X188338387Y-102667079D01*
X188359457Y-102677044D01*
X188379448Y-102689026D01*
X188398168Y-102702910D01*
X188415438Y-102718562D01*
X188431090Y-102735832D01*
X188444974Y-102754552D01*
X188456956Y-102774543D01*
X188466921Y-102795613D01*
X188474773Y-102817557D01*
X188480437Y-102840166D01*
X188483856Y-102863221D01*
X188485000Y-102886500D01*
X188485000Y-103361500D01*
X188483856Y-103384779D01*
X188480437Y-103407834D01*
X188474773Y-103430443D01*
X188466921Y-103452387D01*
X188456956Y-103473457D01*
X188444974Y-103493448D01*
X188431090Y-103512168D01*
X188415438Y-103529438D01*
X188398168Y-103545090D01*
X188379448Y-103558974D01*
X188359457Y-103570956D01*
X188338387Y-103580921D01*
X188316443Y-103588773D01*
X188293834Y-103594437D01*
X188270779Y-103597856D01*
X188247500Y-103599000D01*
X187672500Y-103599000D01*
X187649221Y-103597856D01*
X187626166Y-103594437D01*
X187603557Y-103588773D01*
X187581613Y-103580921D01*
X187560543Y-103570956D01*
X187540552Y-103558974D01*
X187521832Y-103545090D01*
X187504562Y-103529438D01*
X187488910Y-103512168D01*
X187475026Y-103493448D01*
X187463044Y-103473457D01*
X187453079Y-103452387D01*
X187445227Y-103430443D01*
X187439563Y-103407834D01*
X187436144Y-103384779D01*
X187435000Y-103361500D01*
X187435000Y-102886500D01*
X187436144Y-102863221D01*
X187439563Y-102840166D01*
X187445227Y-102817557D01*
X187453079Y-102795613D01*
X187463044Y-102774543D01*
X187475026Y-102754552D01*
X187488910Y-102735832D01*
X187504562Y-102718562D01*
X187521832Y-102702910D01*
X187540552Y-102689026D01*
X187560543Y-102677044D01*
X187581613Y-102667079D01*
X187603557Y-102659227D01*
X187626166Y-102653563D01*
X187649221Y-102650144D01*
X187672500Y-102649000D01*
X188247500Y-102649000D01*
X188270779Y-102650144D01*
X188270779Y-102650144D01*
G37*
D12*
G04 #@! TD*
G04 #@! TO.P,D1,1*
G04 #@! TO.N,Net-(Conn4-Pad2)*
X187960000Y-103124000D03*
D11*
G04 #@! TO.N,Net-(D1-Pad2)*
G04 #@! TO.C,D1*
G36*
X190020779Y-102650144D02*
X190043834Y-102653563D01*
X190066443Y-102659227D01*
X190088387Y-102667079D01*
X190109457Y-102677044D01*
X190129448Y-102689026D01*
X190148168Y-102702910D01*
X190165438Y-102718562D01*
X190181090Y-102735832D01*
X190194974Y-102754552D01*
X190206956Y-102774543D01*
X190216921Y-102795613D01*
X190224773Y-102817557D01*
X190230437Y-102840166D01*
X190233856Y-102863221D01*
X190235000Y-102886500D01*
X190235000Y-103361500D01*
X190233856Y-103384779D01*
X190230437Y-103407834D01*
X190224773Y-103430443D01*
X190216921Y-103452387D01*
X190206956Y-103473457D01*
X190194974Y-103493448D01*
X190181090Y-103512168D01*
X190165438Y-103529438D01*
X190148168Y-103545090D01*
X190129448Y-103558974D01*
X190109457Y-103570956D01*
X190088387Y-103580921D01*
X190066443Y-103588773D01*
X190043834Y-103594437D01*
X190020779Y-103597856D01*
X189997500Y-103599000D01*
X189422500Y-103599000D01*
X189399221Y-103597856D01*
X189376166Y-103594437D01*
X189353557Y-103588773D01*
X189331613Y-103580921D01*
X189310543Y-103570956D01*
X189290552Y-103558974D01*
X189271832Y-103545090D01*
X189254562Y-103529438D01*
X189238910Y-103512168D01*
X189225026Y-103493448D01*
X189213044Y-103473457D01*
X189203079Y-103452387D01*
X189195227Y-103430443D01*
X189189563Y-103407834D01*
X189186144Y-103384779D01*
X189185000Y-103361500D01*
X189185000Y-102886500D01*
X189186144Y-102863221D01*
X189189563Y-102840166D01*
X189195227Y-102817557D01*
X189203079Y-102795613D01*
X189213044Y-102774543D01*
X189225026Y-102754552D01*
X189238910Y-102735832D01*
X189254562Y-102718562D01*
X189271832Y-102702910D01*
X189290552Y-102689026D01*
X189310543Y-102677044D01*
X189331613Y-102667079D01*
X189353557Y-102659227D01*
X189376166Y-102653563D01*
X189399221Y-102650144D01*
X189422500Y-102649000D01*
X189997500Y-102649000D01*
X190020779Y-102650144D01*
X190020779Y-102650144D01*
G37*
D12*
G04 #@! TD*
G04 #@! TO.P,D1,2*
G04 #@! TO.N,Net-(D1-Pad2)*
X189710000Y-103124000D03*
D11*
G04 #@! TO.N,Net-(Conn6-Pad2)*
G04 #@! TO.C,D3*
G36*
X188270779Y-100110144D02*
X188293834Y-100113563D01*
X188316443Y-100119227D01*
X188338387Y-100127079D01*
X188359457Y-100137044D01*
X188379448Y-100149026D01*
X188398168Y-100162910D01*
X188415438Y-100178562D01*
X188431090Y-100195832D01*
X188444974Y-100214552D01*
X188456956Y-100234543D01*
X188466921Y-100255613D01*
X188474773Y-100277557D01*
X188480437Y-100300166D01*
X188483856Y-100323221D01*
X188485000Y-100346500D01*
X188485000Y-100821500D01*
X188483856Y-100844779D01*
X188480437Y-100867834D01*
X188474773Y-100890443D01*
X188466921Y-100912387D01*
X188456956Y-100933457D01*
X188444974Y-100953448D01*
X188431090Y-100972168D01*
X188415438Y-100989438D01*
X188398168Y-101005090D01*
X188379448Y-101018974D01*
X188359457Y-101030956D01*
X188338387Y-101040921D01*
X188316443Y-101048773D01*
X188293834Y-101054437D01*
X188270779Y-101057856D01*
X188247500Y-101059000D01*
X187672500Y-101059000D01*
X187649221Y-101057856D01*
X187626166Y-101054437D01*
X187603557Y-101048773D01*
X187581613Y-101040921D01*
X187560543Y-101030956D01*
X187540552Y-101018974D01*
X187521832Y-101005090D01*
X187504562Y-100989438D01*
X187488910Y-100972168D01*
X187475026Y-100953448D01*
X187463044Y-100933457D01*
X187453079Y-100912387D01*
X187445227Y-100890443D01*
X187439563Y-100867834D01*
X187436144Y-100844779D01*
X187435000Y-100821500D01*
X187435000Y-100346500D01*
X187436144Y-100323221D01*
X187439563Y-100300166D01*
X187445227Y-100277557D01*
X187453079Y-100255613D01*
X187463044Y-100234543D01*
X187475026Y-100214552D01*
X187488910Y-100195832D01*
X187504562Y-100178562D01*
X187521832Y-100162910D01*
X187540552Y-100149026D01*
X187560543Y-100137044D01*
X187581613Y-100127079D01*
X187603557Y-100119227D01*
X187626166Y-100113563D01*
X187649221Y-100110144D01*
X187672500Y-100109000D01*
X188247500Y-100109000D01*
X188270779Y-100110144D01*
X188270779Y-100110144D01*
G37*
D12*
G04 #@! TD*
G04 #@! TO.P,D3,1*
G04 #@! TO.N,Net-(Conn6-Pad2)*
X187960000Y-100584000D03*
D11*
G04 #@! TO.N,Net-(D3-Pad2)*
G04 #@! TO.C,D3*
G36*
X190020779Y-100110144D02*
X190043834Y-100113563D01*
X190066443Y-100119227D01*
X190088387Y-100127079D01*
X190109457Y-100137044D01*
X190129448Y-100149026D01*
X190148168Y-100162910D01*
X190165438Y-100178562D01*
X190181090Y-100195832D01*
X190194974Y-100214552D01*
X190206956Y-100234543D01*
X190216921Y-100255613D01*
X190224773Y-100277557D01*
X190230437Y-100300166D01*
X190233856Y-100323221D01*
X190235000Y-100346500D01*
X190235000Y-100821500D01*
X190233856Y-100844779D01*
X190230437Y-100867834D01*
X190224773Y-100890443D01*
X190216921Y-100912387D01*
X190206956Y-100933457D01*
X190194974Y-100953448D01*
X190181090Y-100972168D01*
X190165438Y-100989438D01*
X190148168Y-101005090D01*
X190129448Y-101018974D01*
X190109457Y-101030956D01*
X190088387Y-101040921D01*
X190066443Y-101048773D01*
X190043834Y-101054437D01*
X190020779Y-101057856D01*
X189997500Y-101059000D01*
X189422500Y-101059000D01*
X189399221Y-101057856D01*
X189376166Y-101054437D01*
X189353557Y-101048773D01*
X189331613Y-101040921D01*
X189310543Y-101030956D01*
X189290552Y-101018974D01*
X189271832Y-101005090D01*
X189254562Y-100989438D01*
X189238910Y-100972168D01*
X189225026Y-100953448D01*
X189213044Y-100933457D01*
X189203079Y-100912387D01*
X189195227Y-100890443D01*
X189189563Y-100867834D01*
X189186144Y-100844779D01*
X189185000Y-100821500D01*
X189185000Y-100346500D01*
X189186144Y-100323221D01*
X189189563Y-100300166D01*
X189195227Y-100277557D01*
X189203079Y-100255613D01*
X189213044Y-100234543D01*
X189225026Y-100214552D01*
X189238910Y-100195832D01*
X189254562Y-100178562D01*
X189271832Y-100162910D01*
X189290552Y-100149026D01*
X189310543Y-100137044D01*
X189331613Y-100127079D01*
X189353557Y-100119227D01*
X189376166Y-100113563D01*
X189399221Y-100110144D01*
X189422500Y-100109000D01*
X189997500Y-100109000D01*
X190020779Y-100110144D01*
X190020779Y-100110144D01*
G37*
D12*
G04 #@! TD*
G04 #@! TO.P,D3,2*
G04 #@! TO.N,Net-(D3-Pad2)*
X189710000Y-100584000D03*
D11*
G04 #@! TO.N,GND*
G04 #@! TO.C,D8*
G36*
X253040779Y-92236144D02*
X253063834Y-92239563D01*
X253086443Y-92245227D01*
X253108387Y-92253079D01*
X253129457Y-92263044D01*
X253149448Y-92275026D01*
X253168168Y-92288910D01*
X253185438Y-92304562D01*
X253201090Y-92321832D01*
X253214974Y-92340552D01*
X253226956Y-92360543D01*
X253236921Y-92381613D01*
X253244773Y-92403557D01*
X253250437Y-92426166D01*
X253253856Y-92449221D01*
X253255000Y-92472500D01*
X253255000Y-92947500D01*
X253253856Y-92970779D01*
X253250437Y-92993834D01*
X253244773Y-93016443D01*
X253236921Y-93038387D01*
X253226956Y-93059457D01*
X253214974Y-93079448D01*
X253201090Y-93098168D01*
X253185438Y-93115438D01*
X253168168Y-93131090D01*
X253149448Y-93144974D01*
X253129457Y-93156956D01*
X253108387Y-93166921D01*
X253086443Y-93174773D01*
X253063834Y-93180437D01*
X253040779Y-93183856D01*
X253017500Y-93185000D01*
X252442500Y-93185000D01*
X252419221Y-93183856D01*
X252396166Y-93180437D01*
X252373557Y-93174773D01*
X252351613Y-93166921D01*
X252330543Y-93156956D01*
X252310552Y-93144974D01*
X252291832Y-93131090D01*
X252274562Y-93115438D01*
X252258910Y-93098168D01*
X252245026Y-93079448D01*
X252233044Y-93059457D01*
X252223079Y-93038387D01*
X252215227Y-93016443D01*
X252209563Y-92993834D01*
X252206144Y-92970779D01*
X252205000Y-92947500D01*
X252205000Y-92472500D01*
X252206144Y-92449221D01*
X252209563Y-92426166D01*
X252215227Y-92403557D01*
X252223079Y-92381613D01*
X252233044Y-92360543D01*
X252245026Y-92340552D01*
X252258910Y-92321832D01*
X252274562Y-92304562D01*
X252291832Y-92288910D01*
X252310552Y-92275026D01*
X252330543Y-92263044D01*
X252351613Y-92253079D01*
X252373557Y-92245227D01*
X252396166Y-92239563D01*
X252419221Y-92236144D01*
X252442500Y-92235000D01*
X253017500Y-92235000D01*
X253040779Y-92236144D01*
X253040779Y-92236144D01*
G37*
D12*
G04 #@! TD*
G04 #@! TO.P,D8,1*
G04 #@! TO.N,GND*
X252730000Y-92710000D03*
D11*
G04 #@! TO.N,Net-(D8-Pad2)*
G04 #@! TO.C,D8*
G36*
X251290779Y-92236144D02*
X251313834Y-92239563D01*
X251336443Y-92245227D01*
X251358387Y-92253079D01*
X251379457Y-92263044D01*
X251399448Y-92275026D01*
X251418168Y-92288910D01*
X251435438Y-92304562D01*
X251451090Y-92321832D01*
X251464974Y-92340552D01*
X251476956Y-92360543D01*
X251486921Y-92381613D01*
X251494773Y-92403557D01*
X251500437Y-92426166D01*
X251503856Y-92449221D01*
X251505000Y-92472500D01*
X251505000Y-92947500D01*
X251503856Y-92970779D01*
X251500437Y-92993834D01*
X251494773Y-93016443D01*
X251486921Y-93038387D01*
X251476956Y-93059457D01*
X251464974Y-93079448D01*
X251451090Y-93098168D01*
X251435438Y-93115438D01*
X251418168Y-93131090D01*
X251399448Y-93144974D01*
X251379457Y-93156956D01*
X251358387Y-93166921D01*
X251336443Y-93174773D01*
X251313834Y-93180437D01*
X251290779Y-93183856D01*
X251267500Y-93185000D01*
X250692500Y-93185000D01*
X250669221Y-93183856D01*
X250646166Y-93180437D01*
X250623557Y-93174773D01*
X250601613Y-93166921D01*
X250580543Y-93156956D01*
X250560552Y-93144974D01*
X250541832Y-93131090D01*
X250524562Y-93115438D01*
X250508910Y-93098168D01*
X250495026Y-93079448D01*
X250483044Y-93059457D01*
X250473079Y-93038387D01*
X250465227Y-93016443D01*
X250459563Y-92993834D01*
X250456144Y-92970779D01*
X250455000Y-92947500D01*
X250455000Y-92472500D01*
X250456144Y-92449221D01*
X250459563Y-92426166D01*
X250465227Y-92403557D01*
X250473079Y-92381613D01*
X250483044Y-92360543D01*
X250495026Y-92340552D01*
X250508910Y-92321832D01*
X250524562Y-92304562D01*
X250541832Y-92288910D01*
X250560552Y-92275026D01*
X250580543Y-92263044D01*
X250601613Y-92253079D01*
X250623557Y-92245227D01*
X250646166Y-92239563D01*
X250669221Y-92236144D01*
X250692500Y-92235000D01*
X251267500Y-92235000D01*
X251290779Y-92236144D01*
X251290779Y-92236144D01*
G37*
D12*
G04 #@! TD*
G04 #@! TO.P,D8,2*
G04 #@! TO.N,Net-(D8-Pad2)*
X250980000Y-92710000D03*
D11*
G04 #@! TO.N,GND*
G04 #@! TO.C,D9*
G36*
X253040779Y-94776144D02*
X253063834Y-94779563D01*
X253086443Y-94785227D01*
X253108387Y-94793079D01*
X253129457Y-94803044D01*
X253149448Y-94815026D01*
X253168168Y-94828910D01*
X253185438Y-94844562D01*
X253201090Y-94861832D01*
X253214974Y-94880552D01*
X253226956Y-94900543D01*
X253236921Y-94921613D01*
X253244773Y-94943557D01*
X253250437Y-94966166D01*
X253253856Y-94989221D01*
X253255000Y-95012500D01*
X253255000Y-95487500D01*
X253253856Y-95510779D01*
X253250437Y-95533834D01*
X253244773Y-95556443D01*
X253236921Y-95578387D01*
X253226956Y-95599457D01*
X253214974Y-95619448D01*
X253201090Y-95638168D01*
X253185438Y-95655438D01*
X253168168Y-95671090D01*
X253149448Y-95684974D01*
X253129457Y-95696956D01*
X253108387Y-95706921D01*
X253086443Y-95714773D01*
X253063834Y-95720437D01*
X253040779Y-95723856D01*
X253017500Y-95725000D01*
X252442500Y-95725000D01*
X252419221Y-95723856D01*
X252396166Y-95720437D01*
X252373557Y-95714773D01*
X252351613Y-95706921D01*
X252330543Y-95696956D01*
X252310552Y-95684974D01*
X252291832Y-95671090D01*
X252274562Y-95655438D01*
X252258910Y-95638168D01*
X252245026Y-95619448D01*
X252233044Y-95599457D01*
X252223079Y-95578387D01*
X252215227Y-95556443D01*
X252209563Y-95533834D01*
X252206144Y-95510779D01*
X252205000Y-95487500D01*
X252205000Y-95012500D01*
X252206144Y-94989221D01*
X252209563Y-94966166D01*
X252215227Y-94943557D01*
X252223079Y-94921613D01*
X252233044Y-94900543D01*
X252245026Y-94880552D01*
X252258910Y-94861832D01*
X252274562Y-94844562D01*
X252291832Y-94828910D01*
X252310552Y-94815026D01*
X252330543Y-94803044D01*
X252351613Y-94793079D01*
X252373557Y-94785227D01*
X252396166Y-94779563D01*
X252419221Y-94776144D01*
X252442500Y-94775000D01*
X253017500Y-94775000D01*
X253040779Y-94776144D01*
X253040779Y-94776144D01*
G37*
D12*
G04 #@! TD*
G04 #@! TO.P,D9,1*
G04 #@! TO.N,GND*
X252730000Y-95250000D03*
D11*
G04 #@! TO.N,Net-(D9-Pad2)*
G04 #@! TO.C,D9*
G36*
X251290779Y-94776144D02*
X251313834Y-94779563D01*
X251336443Y-94785227D01*
X251358387Y-94793079D01*
X251379457Y-94803044D01*
X251399448Y-94815026D01*
X251418168Y-94828910D01*
X251435438Y-94844562D01*
X251451090Y-94861832D01*
X251464974Y-94880552D01*
X251476956Y-94900543D01*
X251486921Y-94921613D01*
X251494773Y-94943557D01*
X251500437Y-94966166D01*
X251503856Y-94989221D01*
X251505000Y-95012500D01*
X251505000Y-95487500D01*
X251503856Y-95510779D01*
X251500437Y-95533834D01*
X251494773Y-95556443D01*
X251486921Y-95578387D01*
X251476956Y-95599457D01*
X251464974Y-95619448D01*
X251451090Y-95638168D01*
X251435438Y-95655438D01*
X251418168Y-95671090D01*
X251399448Y-95684974D01*
X251379457Y-95696956D01*
X251358387Y-95706921D01*
X251336443Y-95714773D01*
X251313834Y-95720437D01*
X251290779Y-95723856D01*
X251267500Y-95725000D01*
X250692500Y-95725000D01*
X250669221Y-95723856D01*
X250646166Y-95720437D01*
X250623557Y-95714773D01*
X250601613Y-95706921D01*
X250580543Y-95696956D01*
X250560552Y-95684974D01*
X250541832Y-95671090D01*
X250524562Y-95655438D01*
X250508910Y-95638168D01*
X250495026Y-95619448D01*
X250483044Y-95599457D01*
X250473079Y-95578387D01*
X250465227Y-95556443D01*
X250459563Y-95533834D01*
X250456144Y-95510779D01*
X250455000Y-95487500D01*
X250455000Y-95012500D01*
X250456144Y-94989221D01*
X250459563Y-94966166D01*
X250465227Y-94943557D01*
X250473079Y-94921613D01*
X250483044Y-94900543D01*
X250495026Y-94880552D01*
X250508910Y-94861832D01*
X250524562Y-94844562D01*
X250541832Y-94828910D01*
X250560552Y-94815026D01*
X250580543Y-94803044D01*
X250601613Y-94793079D01*
X250623557Y-94785227D01*
X250646166Y-94779563D01*
X250669221Y-94776144D01*
X250692500Y-94775000D01*
X251267500Y-94775000D01*
X251290779Y-94776144D01*
X251290779Y-94776144D01*
G37*
D12*
G04 #@! TD*
G04 #@! TO.P,D9,2*
G04 #@! TO.N,Net-(D9-Pad2)*
X250980000Y-95250000D03*
D11*
G04 #@! TO.N,GND*
G04 #@! TO.C,D10*
G36*
X253040779Y-97316144D02*
X253063834Y-97319563D01*
X253086443Y-97325227D01*
X253108387Y-97333079D01*
X253129457Y-97343044D01*
X253149448Y-97355026D01*
X253168168Y-97368910D01*
X253185438Y-97384562D01*
X253201090Y-97401832D01*
X253214974Y-97420552D01*
X253226956Y-97440543D01*
X253236921Y-97461613D01*
X253244773Y-97483557D01*
X253250437Y-97506166D01*
X253253856Y-97529221D01*
X253255000Y-97552500D01*
X253255000Y-98027500D01*
X253253856Y-98050779D01*
X253250437Y-98073834D01*
X253244773Y-98096443D01*
X253236921Y-98118387D01*
X253226956Y-98139457D01*
X253214974Y-98159448D01*
X253201090Y-98178168D01*
X253185438Y-98195438D01*
X253168168Y-98211090D01*
X253149448Y-98224974D01*
X253129457Y-98236956D01*
X253108387Y-98246921D01*
X253086443Y-98254773D01*
X253063834Y-98260437D01*
X253040779Y-98263856D01*
X253017500Y-98265000D01*
X252442500Y-98265000D01*
X252419221Y-98263856D01*
X252396166Y-98260437D01*
X252373557Y-98254773D01*
X252351613Y-98246921D01*
X252330543Y-98236956D01*
X252310552Y-98224974D01*
X252291832Y-98211090D01*
X252274562Y-98195438D01*
X252258910Y-98178168D01*
X252245026Y-98159448D01*
X252233044Y-98139457D01*
X252223079Y-98118387D01*
X252215227Y-98096443D01*
X252209563Y-98073834D01*
X252206144Y-98050779D01*
X252205000Y-98027500D01*
X252205000Y-97552500D01*
X252206144Y-97529221D01*
X252209563Y-97506166D01*
X252215227Y-97483557D01*
X252223079Y-97461613D01*
X252233044Y-97440543D01*
X252245026Y-97420552D01*
X252258910Y-97401832D01*
X252274562Y-97384562D01*
X252291832Y-97368910D01*
X252310552Y-97355026D01*
X252330543Y-97343044D01*
X252351613Y-97333079D01*
X252373557Y-97325227D01*
X252396166Y-97319563D01*
X252419221Y-97316144D01*
X252442500Y-97315000D01*
X253017500Y-97315000D01*
X253040779Y-97316144D01*
X253040779Y-97316144D01*
G37*
D12*
G04 #@! TD*
G04 #@! TO.P,D10,1*
G04 #@! TO.N,GND*
X252730000Y-97790000D03*
D11*
G04 #@! TO.N,Net-(D10-Pad2)*
G04 #@! TO.C,D10*
G36*
X251290779Y-97316144D02*
X251313834Y-97319563D01*
X251336443Y-97325227D01*
X251358387Y-97333079D01*
X251379457Y-97343044D01*
X251399448Y-97355026D01*
X251418168Y-97368910D01*
X251435438Y-97384562D01*
X251451090Y-97401832D01*
X251464974Y-97420552D01*
X251476956Y-97440543D01*
X251486921Y-97461613D01*
X251494773Y-97483557D01*
X251500437Y-97506166D01*
X251503856Y-97529221D01*
X251505000Y-97552500D01*
X251505000Y-98027500D01*
X251503856Y-98050779D01*
X251500437Y-98073834D01*
X251494773Y-98096443D01*
X251486921Y-98118387D01*
X251476956Y-98139457D01*
X251464974Y-98159448D01*
X251451090Y-98178168D01*
X251435438Y-98195438D01*
X251418168Y-98211090D01*
X251399448Y-98224974D01*
X251379457Y-98236956D01*
X251358387Y-98246921D01*
X251336443Y-98254773D01*
X251313834Y-98260437D01*
X251290779Y-98263856D01*
X251267500Y-98265000D01*
X250692500Y-98265000D01*
X250669221Y-98263856D01*
X250646166Y-98260437D01*
X250623557Y-98254773D01*
X250601613Y-98246921D01*
X250580543Y-98236956D01*
X250560552Y-98224974D01*
X250541832Y-98211090D01*
X250524562Y-98195438D01*
X250508910Y-98178168D01*
X250495026Y-98159448D01*
X250483044Y-98139457D01*
X250473079Y-98118387D01*
X250465227Y-98096443D01*
X250459563Y-98073834D01*
X250456144Y-98050779D01*
X250455000Y-98027500D01*
X250455000Y-97552500D01*
X250456144Y-97529221D01*
X250459563Y-97506166D01*
X250465227Y-97483557D01*
X250473079Y-97461613D01*
X250483044Y-97440543D01*
X250495026Y-97420552D01*
X250508910Y-97401832D01*
X250524562Y-97384562D01*
X250541832Y-97368910D01*
X250560552Y-97355026D01*
X250580543Y-97343044D01*
X250601613Y-97333079D01*
X250623557Y-97325227D01*
X250646166Y-97319563D01*
X250669221Y-97316144D01*
X250692500Y-97315000D01*
X251267500Y-97315000D01*
X251290779Y-97316144D01*
X251290779Y-97316144D01*
G37*
D12*
G04 #@! TD*
G04 #@! TO.P,D10,2*
G04 #@! TO.N,Net-(D10-Pad2)*
X250980000Y-97790000D03*
D11*
G04 #@! TO.N,Net-(D11-Pad2)*
G04 #@! TO.C,D11*
G36*
X251290779Y-99856144D02*
X251313834Y-99859563D01*
X251336443Y-99865227D01*
X251358387Y-99873079D01*
X251379457Y-99883044D01*
X251399448Y-99895026D01*
X251418168Y-99908910D01*
X251435438Y-99924562D01*
X251451090Y-99941832D01*
X251464974Y-99960552D01*
X251476956Y-99980543D01*
X251486921Y-100001613D01*
X251494773Y-100023557D01*
X251500437Y-100046166D01*
X251503856Y-100069221D01*
X251505000Y-100092500D01*
X251505000Y-100567500D01*
X251503856Y-100590779D01*
X251500437Y-100613834D01*
X251494773Y-100636443D01*
X251486921Y-100658387D01*
X251476956Y-100679457D01*
X251464974Y-100699448D01*
X251451090Y-100718168D01*
X251435438Y-100735438D01*
X251418168Y-100751090D01*
X251399448Y-100764974D01*
X251379457Y-100776956D01*
X251358387Y-100786921D01*
X251336443Y-100794773D01*
X251313834Y-100800437D01*
X251290779Y-100803856D01*
X251267500Y-100805000D01*
X250692500Y-100805000D01*
X250669221Y-100803856D01*
X250646166Y-100800437D01*
X250623557Y-100794773D01*
X250601613Y-100786921D01*
X250580543Y-100776956D01*
X250560552Y-100764974D01*
X250541832Y-100751090D01*
X250524562Y-100735438D01*
X250508910Y-100718168D01*
X250495026Y-100699448D01*
X250483044Y-100679457D01*
X250473079Y-100658387D01*
X250465227Y-100636443D01*
X250459563Y-100613834D01*
X250456144Y-100590779D01*
X250455000Y-100567500D01*
X250455000Y-100092500D01*
X250456144Y-100069221D01*
X250459563Y-100046166D01*
X250465227Y-100023557D01*
X250473079Y-100001613D01*
X250483044Y-99980543D01*
X250495026Y-99960552D01*
X250508910Y-99941832D01*
X250524562Y-99924562D01*
X250541832Y-99908910D01*
X250560552Y-99895026D01*
X250580543Y-99883044D01*
X250601613Y-99873079D01*
X250623557Y-99865227D01*
X250646166Y-99859563D01*
X250669221Y-99856144D01*
X250692500Y-99855000D01*
X251267500Y-99855000D01*
X251290779Y-99856144D01*
X251290779Y-99856144D01*
G37*
D12*
G04 #@! TD*
G04 #@! TO.P,D11,2*
G04 #@! TO.N,Net-(D11-Pad2)*
X250980000Y-100330000D03*
D11*
G04 #@! TO.N,GND*
G04 #@! TO.C,D11*
G36*
X253040779Y-99856144D02*
X253063834Y-99859563D01*
X253086443Y-99865227D01*
X253108387Y-99873079D01*
X253129457Y-99883044D01*
X253149448Y-99895026D01*
X253168168Y-99908910D01*
X253185438Y-99924562D01*
X253201090Y-99941832D01*
X253214974Y-99960552D01*
X253226956Y-99980543D01*
X253236921Y-100001613D01*
X253244773Y-100023557D01*
X253250437Y-100046166D01*
X253253856Y-100069221D01*
X253255000Y-100092500D01*
X253255000Y-100567500D01*
X253253856Y-100590779D01*
X253250437Y-100613834D01*
X253244773Y-100636443D01*
X253236921Y-100658387D01*
X253226956Y-100679457D01*
X253214974Y-100699448D01*
X253201090Y-100718168D01*
X253185438Y-100735438D01*
X253168168Y-100751090D01*
X253149448Y-100764974D01*
X253129457Y-100776956D01*
X253108387Y-100786921D01*
X253086443Y-100794773D01*
X253063834Y-100800437D01*
X253040779Y-100803856D01*
X253017500Y-100805000D01*
X252442500Y-100805000D01*
X252419221Y-100803856D01*
X252396166Y-100800437D01*
X252373557Y-100794773D01*
X252351613Y-100786921D01*
X252330543Y-100776956D01*
X252310552Y-100764974D01*
X252291832Y-100751090D01*
X252274562Y-100735438D01*
X252258910Y-100718168D01*
X252245026Y-100699448D01*
X252233044Y-100679457D01*
X252223079Y-100658387D01*
X252215227Y-100636443D01*
X252209563Y-100613834D01*
X252206144Y-100590779D01*
X252205000Y-100567500D01*
X252205000Y-100092500D01*
X252206144Y-100069221D01*
X252209563Y-100046166D01*
X252215227Y-100023557D01*
X252223079Y-100001613D01*
X252233044Y-99980543D01*
X252245026Y-99960552D01*
X252258910Y-99941832D01*
X252274562Y-99924562D01*
X252291832Y-99908910D01*
X252310552Y-99895026D01*
X252330543Y-99883044D01*
X252351613Y-99873079D01*
X252373557Y-99865227D01*
X252396166Y-99859563D01*
X252419221Y-99856144D01*
X252442500Y-99855000D01*
X253017500Y-99855000D01*
X253040779Y-99856144D01*
X253040779Y-99856144D01*
G37*
D12*
G04 #@! TD*
G04 #@! TO.P,D11,1*
G04 #@! TO.N,GND*
X252730000Y-100330000D03*
D11*
G04 #@! TO.N,Net-(D12-Pad2)*
G04 #@! TO.C,D12*
G36*
X251290779Y-102396144D02*
X251313834Y-102399563D01*
X251336443Y-102405227D01*
X251358387Y-102413079D01*
X251379457Y-102423044D01*
X251399448Y-102435026D01*
X251418168Y-102448910D01*
X251435438Y-102464562D01*
X251451090Y-102481832D01*
X251464974Y-102500552D01*
X251476956Y-102520543D01*
X251486921Y-102541613D01*
X251494773Y-102563557D01*
X251500437Y-102586166D01*
X251503856Y-102609221D01*
X251505000Y-102632500D01*
X251505000Y-103107500D01*
X251503856Y-103130779D01*
X251500437Y-103153834D01*
X251494773Y-103176443D01*
X251486921Y-103198387D01*
X251476956Y-103219457D01*
X251464974Y-103239448D01*
X251451090Y-103258168D01*
X251435438Y-103275438D01*
X251418168Y-103291090D01*
X251399448Y-103304974D01*
X251379457Y-103316956D01*
X251358387Y-103326921D01*
X251336443Y-103334773D01*
X251313834Y-103340437D01*
X251290779Y-103343856D01*
X251267500Y-103345000D01*
X250692500Y-103345000D01*
X250669221Y-103343856D01*
X250646166Y-103340437D01*
X250623557Y-103334773D01*
X250601613Y-103326921D01*
X250580543Y-103316956D01*
X250560552Y-103304974D01*
X250541832Y-103291090D01*
X250524562Y-103275438D01*
X250508910Y-103258168D01*
X250495026Y-103239448D01*
X250483044Y-103219457D01*
X250473079Y-103198387D01*
X250465227Y-103176443D01*
X250459563Y-103153834D01*
X250456144Y-103130779D01*
X250455000Y-103107500D01*
X250455000Y-102632500D01*
X250456144Y-102609221D01*
X250459563Y-102586166D01*
X250465227Y-102563557D01*
X250473079Y-102541613D01*
X250483044Y-102520543D01*
X250495026Y-102500552D01*
X250508910Y-102481832D01*
X250524562Y-102464562D01*
X250541832Y-102448910D01*
X250560552Y-102435026D01*
X250580543Y-102423044D01*
X250601613Y-102413079D01*
X250623557Y-102405227D01*
X250646166Y-102399563D01*
X250669221Y-102396144D01*
X250692500Y-102395000D01*
X251267500Y-102395000D01*
X251290779Y-102396144D01*
X251290779Y-102396144D01*
G37*
D12*
G04 #@! TD*
G04 #@! TO.P,D12,2*
G04 #@! TO.N,Net-(D12-Pad2)*
X250980000Y-102870000D03*
D11*
G04 #@! TO.N,GND*
G04 #@! TO.C,D12*
G36*
X253040779Y-102396144D02*
X253063834Y-102399563D01*
X253086443Y-102405227D01*
X253108387Y-102413079D01*
X253129457Y-102423044D01*
X253149448Y-102435026D01*
X253168168Y-102448910D01*
X253185438Y-102464562D01*
X253201090Y-102481832D01*
X253214974Y-102500552D01*
X253226956Y-102520543D01*
X253236921Y-102541613D01*
X253244773Y-102563557D01*
X253250437Y-102586166D01*
X253253856Y-102609221D01*
X253255000Y-102632500D01*
X253255000Y-103107500D01*
X253253856Y-103130779D01*
X253250437Y-103153834D01*
X253244773Y-103176443D01*
X253236921Y-103198387D01*
X253226956Y-103219457D01*
X253214974Y-103239448D01*
X253201090Y-103258168D01*
X253185438Y-103275438D01*
X253168168Y-103291090D01*
X253149448Y-103304974D01*
X253129457Y-103316956D01*
X253108387Y-103326921D01*
X253086443Y-103334773D01*
X253063834Y-103340437D01*
X253040779Y-103343856D01*
X253017500Y-103345000D01*
X252442500Y-103345000D01*
X252419221Y-103343856D01*
X252396166Y-103340437D01*
X252373557Y-103334773D01*
X252351613Y-103326921D01*
X252330543Y-103316956D01*
X252310552Y-103304974D01*
X252291832Y-103291090D01*
X252274562Y-103275438D01*
X252258910Y-103258168D01*
X252245026Y-103239448D01*
X252233044Y-103219457D01*
X252223079Y-103198387D01*
X252215227Y-103176443D01*
X252209563Y-103153834D01*
X252206144Y-103130779D01*
X252205000Y-103107500D01*
X252205000Y-102632500D01*
X252206144Y-102609221D01*
X252209563Y-102586166D01*
X252215227Y-102563557D01*
X252223079Y-102541613D01*
X252233044Y-102520543D01*
X252245026Y-102500552D01*
X252258910Y-102481832D01*
X252274562Y-102464562D01*
X252291832Y-102448910D01*
X252310552Y-102435026D01*
X252330543Y-102423044D01*
X252351613Y-102413079D01*
X252373557Y-102405227D01*
X252396166Y-102399563D01*
X252419221Y-102396144D01*
X252442500Y-102395000D01*
X253017500Y-102395000D01*
X253040779Y-102396144D01*
X253040779Y-102396144D01*
G37*
D12*
G04 #@! TD*
G04 #@! TO.P,D12,1*
G04 #@! TO.N,GND*
X252730000Y-102870000D03*
D11*
G04 #@! TO.N,Net-(D13-Pad2)*
G04 #@! TO.C,D13*
G36*
X251290779Y-104936144D02*
X251313834Y-104939563D01*
X251336443Y-104945227D01*
X251358387Y-104953079D01*
X251379457Y-104963044D01*
X251399448Y-104975026D01*
X251418168Y-104988910D01*
X251435438Y-105004562D01*
X251451090Y-105021832D01*
X251464974Y-105040552D01*
X251476956Y-105060543D01*
X251486921Y-105081613D01*
X251494773Y-105103557D01*
X251500437Y-105126166D01*
X251503856Y-105149221D01*
X251505000Y-105172500D01*
X251505000Y-105647500D01*
X251503856Y-105670779D01*
X251500437Y-105693834D01*
X251494773Y-105716443D01*
X251486921Y-105738387D01*
X251476956Y-105759457D01*
X251464974Y-105779448D01*
X251451090Y-105798168D01*
X251435438Y-105815438D01*
X251418168Y-105831090D01*
X251399448Y-105844974D01*
X251379457Y-105856956D01*
X251358387Y-105866921D01*
X251336443Y-105874773D01*
X251313834Y-105880437D01*
X251290779Y-105883856D01*
X251267500Y-105885000D01*
X250692500Y-105885000D01*
X250669221Y-105883856D01*
X250646166Y-105880437D01*
X250623557Y-105874773D01*
X250601613Y-105866921D01*
X250580543Y-105856956D01*
X250560552Y-105844974D01*
X250541832Y-105831090D01*
X250524562Y-105815438D01*
X250508910Y-105798168D01*
X250495026Y-105779448D01*
X250483044Y-105759457D01*
X250473079Y-105738387D01*
X250465227Y-105716443D01*
X250459563Y-105693834D01*
X250456144Y-105670779D01*
X250455000Y-105647500D01*
X250455000Y-105172500D01*
X250456144Y-105149221D01*
X250459563Y-105126166D01*
X250465227Y-105103557D01*
X250473079Y-105081613D01*
X250483044Y-105060543D01*
X250495026Y-105040552D01*
X250508910Y-105021832D01*
X250524562Y-105004562D01*
X250541832Y-104988910D01*
X250560552Y-104975026D01*
X250580543Y-104963044D01*
X250601613Y-104953079D01*
X250623557Y-104945227D01*
X250646166Y-104939563D01*
X250669221Y-104936144D01*
X250692500Y-104935000D01*
X251267500Y-104935000D01*
X251290779Y-104936144D01*
X251290779Y-104936144D01*
G37*
D12*
G04 #@! TD*
G04 #@! TO.P,D13,2*
G04 #@! TO.N,Net-(D13-Pad2)*
X250980000Y-105410000D03*
D11*
G04 #@! TO.N,GND*
G04 #@! TO.C,D13*
G36*
X253040779Y-104936144D02*
X253063834Y-104939563D01*
X253086443Y-104945227D01*
X253108387Y-104953079D01*
X253129457Y-104963044D01*
X253149448Y-104975026D01*
X253168168Y-104988910D01*
X253185438Y-105004562D01*
X253201090Y-105021832D01*
X253214974Y-105040552D01*
X253226956Y-105060543D01*
X253236921Y-105081613D01*
X253244773Y-105103557D01*
X253250437Y-105126166D01*
X253253856Y-105149221D01*
X253255000Y-105172500D01*
X253255000Y-105647500D01*
X253253856Y-105670779D01*
X253250437Y-105693834D01*
X253244773Y-105716443D01*
X253236921Y-105738387D01*
X253226956Y-105759457D01*
X253214974Y-105779448D01*
X253201090Y-105798168D01*
X253185438Y-105815438D01*
X253168168Y-105831090D01*
X253149448Y-105844974D01*
X253129457Y-105856956D01*
X253108387Y-105866921D01*
X253086443Y-105874773D01*
X253063834Y-105880437D01*
X253040779Y-105883856D01*
X253017500Y-105885000D01*
X252442500Y-105885000D01*
X252419221Y-105883856D01*
X252396166Y-105880437D01*
X252373557Y-105874773D01*
X252351613Y-105866921D01*
X252330543Y-105856956D01*
X252310552Y-105844974D01*
X252291832Y-105831090D01*
X252274562Y-105815438D01*
X252258910Y-105798168D01*
X252245026Y-105779448D01*
X252233044Y-105759457D01*
X252223079Y-105738387D01*
X252215227Y-105716443D01*
X252209563Y-105693834D01*
X252206144Y-105670779D01*
X252205000Y-105647500D01*
X252205000Y-105172500D01*
X252206144Y-105149221D01*
X252209563Y-105126166D01*
X252215227Y-105103557D01*
X252223079Y-105081613D01*
X252233044Y-105060543D01*
X252245026Y-105040552D01*
X252258910Y-105021832D01*
X252274562Y-105004562D01*
X252291832Y-104988910D01*
X252310552Y-104975026D01*
X252330543Y-104963044D01*
X252351613Y-104953079D01*
X252373557Y-104945227D01*
X252396166Y-104939563D01*
X252419221Y-104936144D01*
X252442500Y-104935000D01*
X253017500Y-104935000D01*
X253040779Y-104936144D01*
X253040779Y-104936144D01*
G37*
D12*
G04 #@! TD*
G04 #@! TO.P,D13,1*
G04 #@! TO.N,GND*
X252730000Y-105410000D03*
D11*
G04 #@! TO.N,Net-(D14-Pad2)*
G04 #@! TO.C,D14*
G36*
X251290779Y-107476144D02*
X251313834Y-107479563D01*
X251336443Y-107485227D01*
X251358387Y-107493079D01*
X251379457Y-107503044D01*
X251399448Y-107515026D01*
X251418168Y-107528910D01*
X251435438Y-107544562D01*
X251451090Y-107561832D01*
X251464974Y-107580552D01*
X251476956Y-107600543D01*
X251486921Y-107621613D01*
X251494773Y-107643557D01*
X251500437Y-107666166D01*
X251503856Y-107689221D01*
X251505000Y-107712500D01*
X251505000Y-108187500D01*
X251503856Y-108210779D01*
X251500437Y-108233834D01*
X251494773Y-108256443D01*
X251486921Y-108278387D01*
X251476956Y-108299457D01*
X251464974Y-108319448D01*
X251451090Y-108338168D01*
X251435438Y-108355438D01*
X251418168Y-108371090D01*
X251399448Y-108384974D01*
X251379457Y-108396956D01*
X251358387Y-108406921D01*
X251336443Y-108414773D01*
X251313834Y-108420437D01*
X251290779Y-108423856D01*
X251267500Y-108425000D01*
X250692500Y-108425000D01*
X250669221Y-108423856D01*
X250646166Y-108420437D01*
X250623557Y-108414773D01*
X250601613Y-108406921D01*
X250580543Y-108396956D01*
X250560552Y-108384974D01*
X250541832Y-108371090D01*
X250524562Y-108355438D01*
X250508910Y-108338168D01*
X250495026Y-108319448D01*
X250483044Y-108299457D01*
X250473079Y-108278387D01*
X250465227Y-108256443D01*
X250459563Y-108233834D01*
X250456144Y-108210779D01*
X250455000Y-108187500D01*
X250455000Y-107712500D01*
X250456144Y-107689221D01*
X250459563Y-107666166D01*
X250465227Y-107643557D01*
X250473079Y-107621613D01*
X250483044Y-107600543D01*
X250495026Y-107580552D01*
X250508910Y-107561832D01*
X250524562Y-107544562D01*
X250541832Y-107528910D01*
X250560552Y-107515026D01*
X250580543Y-107503044D01*
X250601613Y-107493079D01*
X250623557Y-107485227D01*
X250646166Y-107479563D01*
X250669221Y-107476144D01*
X250692500Y-107475000D01*
X251267500Y-107475000D01*
X251290779Y-107476144D01*
X251290779Y-107476144D01*
G37*
D12*
G04 #@! TD*
G04 #@! TO.P,D14,2*
G04 #@! TO.N,Net-(D14-Pad2)*
X250980000Y-107950000D03*
D11*
G04 #@! TO.N,GND*
G04 #@! TO.C,D14*
G36*
X253040779Y-107476144D02*
X253063834Y-107479563D01*
X253086443Y-107485227D01*
X253108387Y-107493079D01*
X253129457Y-107503044D01*
X253149448Y-107515026D01*
X253168168Y-107528910D01*
X253185438Y-107544562D01*
X253201090Y-107561832D01*
X253214974Y-107580552D01*
X253226956Y-107600543D01*
X253236921Y-107621613D01*
X253244773Y-107643557D01*
X253250437Y-107666166D01*
X253253856Y-107689221D01*
X253255000Y-107712500D01*
X253255000Y-108187500D01*
X253253856Y-108210779D01*
X253250437Y-108233834D01*
X253244773Y-108256443D01*
X253236921Y-108278387D01*
X253226956Y-108299457D01*
X253214974Y-108319448D01*
X253201090Y-108338168D01*
X253185438Y-108355438D01*
X253168168Y-108371090D01*
X253149448Y-108384974D01*
X253129457Y-108396956D01*
X253108387Y-108406921D01*
X253086443Y-108414773D01*
X253063834Y-108420437D01*
X253040779Y-108423856D01*
X253017500Y-108425000D01*
X252442500Y-108425000D01*
X252419221Y-108423856D01*
X252396166Y-108420437D01*
X252373557Y-108414773D01*
X252351613Y-108406921D01*
X252330543Y-108396956D01*
X252310552Y-108384974D01*
X252291832Y-108371090D01*
X252274562Y-108355438D01*
X252258910Y-108338168D01*
X252245026Y-108319448D01*
X252233044Y-108299457D01*
X252223079Y-108278387D01*
X252215227Y-108256443D01*
X252209563Y-108233834D01*
X252206144Y-108210779D01*
X252205000Y-108187500D01*
X252205000Y-107712500D01*
X252206144Y-107689221D01*
X252209563Y-107666166D01*
X252215227Y-107643557D01*
X252223079Y-107621613D01*
X252233044Y-107600543D01*
X252245026Y-107580552D01*
X252258910Y-107561832D01*
X252274562Y-107544562D01*
X252291832Y-107528910D01*
X252310552Y-107515026D01*
X252330543Y-107503044D01*
X252351613Y-107493079D01*
X252373557Y-107485227D01*
X252396166Y-107479563D01*
X252419221Y-107476144D01*
X252442500Y-107475000D01*
X253017500Y-107475000D01*
X253040779Y-107476144D01*
X253040779Y-107476144D01*
G37*
D12*
G04 #@! TD*
G04 #@! TO.P,D14,1*
G04 #@! TO.N,GND*
X252730000Y-107950000D03*
D11*
G04 #@! TO.N,Net-(D15-Pad2)*
G04 #@! TO.C,D15*
G36*
X251290779Y-110016144D02*
X251313834Y-110019563D01*
X251336443Y-110025227D01*
X251358387Y-110033079D01*
X251379457Y-110043044D01*
X251399448Y-110055026D01*
X251418168Y-110068910D01*
X251435438Y-110084562D01*
X251451090Y-110101832D01*
X251464974Y-110120552D01*
X251476956Y-110140543D01*
X251486921Y-110161613D01*
X251494773Y-110183557D01*
X251500437Y-110206166D01*
X251503856Y-110229221D01*
X251505000Y-110252500D01*
X251505000Y-110727500D01*
X251503856Y-110750779D01*
X251500437Y-110773834D01*
X251494773Y-110796443D01*
X251486921Y-110818387D01*
X251476956Y-110839457D01*
X251464974Y-110859448D01*
X251451090Y-110878168D01*
X251435438Y-110895438D01*
X251418168Y-110911090D01*
X251399448Y-110924974D01*
X251379457Y-110936956D01*
X251358387Y-110946921D01*
X251336443Y-110954773D01*
X251313834Y-110960437D01*
X251290779Y-110963856D01*
X251267500Y-110965000D01*
X250692500Y-110965000D01*
X250669221Y-110963856D01*
X250646166Y-110960437D01*
X250623557Y-110954773D01*
X250601613Y-110946921D01*
X250580543Y-110936956D01*
X250560552Y-110924974D01*
X250541832Y-110911090D01*
X250524562Y-110895438D01*
X250508910Y-110878168D01*
X250495026Y-110859448D01*
X250483044Y-110839457D01*
X250473079Y-110818387D01*
X250465227Y-110796443D01*
X250459563Y-110773834D01*
X250456144Y-110750779D01*
X250455000Y-110727500D01*
X250455000Y-110252500D01*
X250456144Y-110229221D01*
X250459563Y-110206166D01*
X250465227Y-110183557D01*
X250473079Y-110161613D01*
X250483044Y-110140543D01*
X250495026Y-110120552D01*
X250508910Y-110101832D01*
X250524562Y-110084562D01*
X250541832Y-110068910D01*
X250560552Y-110055026D01*
X250580543Y-110043044D01*
X250601613Y-110033079D01*
X250623557Y-110025227D01*
X250646166Y-110019563D01*
X250669221Y-110016144D01*
X250692500Y-110015000D01*
X251267500Y-110015000D01*
X251290779Y-110016144D01*
X251290779Y-110016144D01*
G37*
D12*
G04 #@! TD*
G04 #@! TO.P,D15,2*
G04 #@! TO.N,Net-(D15-Pad2)*
X250980000Y-110490000D03*
D11*
G04 #@! TO.N,GND*
G04 #@! TO.C,D15*
G36*
X253040779Y-110016144D02*
X253063834Y-110019563D01*
X253086443Y-110025227D01*
X253108387Y-110033079D01*
X253129457Y-110043044D01*
X253149448Y-110055026D01*
X253168168Y-110068910D01*
X253185438Y-110084562D01*
X253201090Y-110101832D01*
X253214974Y-110120552D01*
X253226956Y-110140543D01*
X253236921Y-110161613D01*
X253244773Y-110183557D01*
X253250437Y-110206166D01*
X253253856Y-110229221D01*
X253255000Y-110252500D01*
X253255000Y-110727500D01*
X253253856Y-110750779D01*
X253250437Y-110773834D01*
X253244773Y-110796443D01*
X253236921Y-110818387D01*
X253226956Y-110839457D01*
X253214974Y-110859448D01*
X253201090Y-110878168D01*
X253185438Y-110895438D01*
X253168168Y-110911090D01*
X253149448Y-110924974D01*
X253129457Y-110936956D01*
X253108387Y-110946921D01*
X253086443Y-110954773D01*
X253063834Y-110960437D01*
X253040779Y-110963856D01*
X253017500Y-110965000D01*
X252442500Y-110965000D01*
X252419221Y-110963856D01*
X252396166Y-110960437D01*
X252373557Y-110954773D01*
X252351613Y-110946921D01*
X252330543Y-110936956D01*
X252310552Y-110924974D01*
X252291832Y-110911090D01*
X252274562Y-110895438D01*
X252258910Y-110878168D01*
X252245026Y-110859448D01*
X252233044Y-110839457D01*
X252223079Y-110818387D01*
X252215227Y-110796443D01*
X252209563Y-110773834D01*
X252206144Y-110750779D01*
X252205000Y-110727500D01*
X252205000Y-110252500D01*
X252206144Y-110229221D01*
X252209563Y-110206166D01*
X252215227Y-110183557D01*
X252223079Y-110161613D01*
X252233044Y-110140543D01*
X252245026Y-110120552D01*
X252258910Y-110101832D01*
X252274562Y-110084562D01*
X252291832Y-110068910D01*
X252310552Y-110055026D01*
X252330543Y-110043044D01*
X252351613Y-110033079D01*
X252373557Y-110025227D01*
X252396166Y-110019563D01*
X252419221Y-110016144D01*
X252442500Y-110015000D01*
X253017500Y-110015000D01*
X253040779Y-110016144D01*
X253040779Y-110016144D01*
G37*
D12*
G04 #@! TD*
G04 #@! TO.P,D15,1*
G04 #@! TO.N,GND*
X252730000Y-110490000D03*
D15*
G04 #@! TO.P,Q1,3*
G04 #@! TO.N,Net-(Conn4-Pad2)*
X164560000Y-92390000D03*
G04 #@! TO.P,Q1,2*
G04 #@! TO.N,GND*
X162560000Y-93340000D03*
G04 #@! TO.P,Q1,1*
G04 #@! TO.N,Laser_Control*
X162560000Y-91440000D03*
G04 #@! TD*
G04 #@! TO.P,Q2,1*
G04 #@! TO.N,Solenoid_Control*
X172720000Y-91440000D03*
G04 #@! TO.P,Q2,2*
G04 #@! TO.N,GND*
X172720000Y-93340000D03*
G04 #@! TO.P,Q2,3*
G04 #@! TO.N,Net-(Conn6-Pad2)*
X174720000Y-92390000D03*
G04 #@! TD*
D11*
G04 #@! TO.N,+12V*
G04 #@! TO.C,R1*
G36*
X193830779Y-102650144D02*
X193853834Y-102653563D01*
X193876443Y-102659227D01*
X193898387Y-102667079D01*
X193919457Y-102677044D01*
X193939448Y-102689026D01*
X193958168Y-102702910D01*
X193975438Y-102718562D01*
X193991090Y-102735832D01*
X194004974Y-102754552D01*
X194016956Y-102774543D01*
X194026921Y-102795613D01*
X194034773Y-102817557D01*
X194040437Y-102840166D01*
X194043856Y-102863221D01*
X194045000Y-102886500D01*
X194045000Y-103361500D01*
X194043856Y-103384779D01*
X194040437Y-103407834D01*
X194034773Y-103430443D01*
X194026921Y-103452387D01*
X194016956Y-103473457D01*
X194004974Y-103493448D01*
X193991090Y-103512168D01*
X193975438Y-103529438D01*
X193958168Y-103545090D01*
X193939448Y-103558974D01*
X193919457Y-103570956D01*
X193898387Y-103580921D01*
X193876443Y-103588773D01*
X193853834Y-103594437D01*
X193830779Y-103597856D01*
X193807500Y-103599000D01*
X193232500Y-103599000D01*
X193209221Y-103597856D01*
X193186166Y-103594437D01*
X193163557Y-103588773D01*
X193141613Y-103580921D01*
X193120543Y-103570956D01*
X193100552Y-103558974D01*
X193081832Y-103545090D01*
X193064562Y-103529438D01*
X193048910Y-103512168D01*
X193035026Y-103493448D01*
X193023044Y-103473457D01*
X193013079Y-103452387D01*
X193005227Y-103430443D01*
X192999563Y-103407834D01*
X192996144Y-103384779D01*
X192995000Y-103361500D01*
X192995000Y-102886500D01*
X192996144Y-102863221D01*
X192999563Y-102840166D01*
X193005227Y-102817557D01*
X193013079Y-102795613D01*
X193023044Y-102774543D01*
X193035026Y-102754552D01*
X193048910Y-102735832D01*
X193064562Y-102718562D01*
X193081832Y-102702910D01*
X193100552Y-102689026D01*
X193120543Y-102677044D01*
X193141613Y-102667079D01*
X193163557Y-102659227D01*
X193186166Y-102653563D01*
X193209221Y-102650144D01*
X193232500Y-102649000D01*
X193807500Y-102649000D01*
X193830779Y-102650144D01*
X193830779Y-102650144D01*
G37*
D12*
G04 #@! TD*
G04 #@! TO.P,R1,2*
G04 #@! TO.N,+12V*
X193520000Y-103124000D03*
D11*
G04 #@! TO.N,Net-(D1-Pad2)*
G04 #@! TO.C,R1*
G36*
X192080779Y-102650144D02*
X192103834Y-102653563D01*
X192126443Y-102659227D01*
X192148387Y-102667079D01*
X192169457Y-102677044D01*
X192189448Y-102689026D01*
X192208168Y-102702910D01*
X192225438Y-102718562D01*
X192241090Y-102735832D01*
X192254974Y-102754552D01*
X192266956Y-102774543D01*
X192276921Y-102795613D01*
X192284773Y-102817557D01*
X192290437Y-102840166D01*
X192293856Y-102863221D01*
X192295000Y-102886500D01*
X192295000Y-103361500D01*
X192293856Y-103384779D01*
X192290437Y-103407834D01*
X192284773Y-103430443D01*
X192276921Y-103452387D01*
X192266956Y-103473457D01*
X192254974Y-103493448D01*
X192241090Y-103512168D01*
X192225438Y-103529438D01*
X192208168Y-103545090D01*
X192189448Y-103558974D01*
X192169457Y-103570956D01*
X192148387Y-103580921D01*
X192126443Y-103588773D01*
X192103834Y-103594437D01*
X192080779Y-103597856D01*
X192057500Y-103599000D01*
X191482500Y-103599000D01*
X191459221Y-103597856D01*
X191436166Y-103594437D01*
X191413557Y-103588773D01*
X191391613Y-103580921D01*
X191370543Y-103570956D01*
X191350552Y-103558974D01*
X191331832Y-103545090D01*
X191314562Y-103529438D01*
X191298910Y-103512168D01*
X191285026Y-103493448D01*
X191273044Y-103473457D01*
X191263079Y-103452387D01*
X191255227Y-103430443D01*
X191249563Y-103407834D01*
X191246144Y-103384779D01*
X191245000Y-103361500D01*
X191245000Y-102886500D01*
X191246144Y-102863221D01*
X191249563Y-102840166D01*
X191255227Y-102817557D01*
X191263079Y-102795613D01*
X191273044Y-102774543D01*
X191285026Y-102754552D01*
X191298910Y-102735832D01*
X191314562Y-102718562D01*
X191331832Y-102702910D01*
X191350552Y-102689026D01*
X191370543Y-102677044D01*
X191391613Y-102667079D01*
X191413557Y-102659227D01*
X191436166Y-102653563D01*
X191459221Y-102650144D01*
X191482500Y-102649000D01*
X192057500Y-102649000D01*
X192080779Y-102650144D01*
X192080779Y-102650144D01*
G37*
D12*
G04 #@! TD*
G04 #@! TO.P,R1,1*
G04 #@! TO.N,Net-(D1-Pad2)*
X191770000Y-103124000D03*
D11*
G04 #@! TO.N,Net-(D11-Pad2)*
G04 #@! TO.C,R2*
G36*
X249230779Y-99856144D02*
X249253834Y-99859563D01*
X249276443Y-99865227D01*
X249298387Y-99873079D01*
X249319457Y-99883044D01*
X249339448Y-99895026D01*
X249358168Y-99908910D01*
X249375438Y-99924562D01*
X249391090Y-99941832D01*
X249404974Y-99960552D01*
X249416956Y-99980543D01*
X249426921Y-100001613D01*
X249434773Y-100023557D01*
X249440437Y-100046166D01*
X249443856Y-100069221D01*
X249445000Y-100092500D01*
X249445000Y-100567500D01*
X249443856Y-100590779D01*
X249440437Y-100613834D01*
X249434773Y-100636443D01*
X249426921Y-100658387D01*
X249416956Y-100679457D01*
X249404974Y-100699448D01*
X249391090Y-100718168D01*
X249375438Y-100735438D01*
X249358168Y-100751090D01*
X249339448Y-100764974D01*
X249319457Y-100776956D01*
X249298387Y-100786921D01*
X249276443Y-100794773D01*
X249253834Y-100800437D01*
X249230779Y-100803856D01*
X249207500Y-100805000D01*
X248632500Y-100805000D01*
X248609221Y-100803856D01*
X248586166Y-100800437D01*
X248563557Y-100794773D01*
X248541613Y-100786921D01*
X248520543Y-100776956D01*
X248500552Y-100764974D01*
X248481832Y-100751090D01*
X248464562Y-100735438D01*
X248448910Y-100718168D01*
X248435026Y-100699448D01*
X248423044Y-100679457D01*
X248413079Y-100658387D01*
X248405227Y-100636443D01*
X248399563Y-100613834D01*
X248396144Y-100590779D01*
X248395000Y-100567500D01*
X248395000Y-100092500D01*
X248396144Y-100069221D01*
X248399563Y-100046166D01*
X248405227Y-100023557D01*
X248413079Y-100001613D01*
X248423044Y-99980543D01*
X248435026Y-99960552D01*
X248448910Y-99941832D01*
X248464562Y-99924562D01*
X248481832Y-99908910D01*
X248500552Y-99895026D01*
X248520543Y-99883044D01*
X248541613Y-99873079D01*
X248563557Y-99865227D01*
X248586166Y-99859563D01*
X248609221Y-99856144D01*
X248632500Y-99855000D01*
X249207500Y-99855000D01*
X249230779Y-99856144D01*
X249230779Y-99856144D01*
G37*
D12*
G04 #@! TD*
G04 #@! TO.P,R2,1*
G04 #@! TO.N,Net-(D11-Pad2)*
X248920000Y-100330000D03*
D11*
G04 #@! TO.N,+5V*
G04 #@! TO.C,R2*
G36*
X247480779Y-99856144D02*
X247503834Y-99859563D01*
X247526443Y-99865227D01*
X247548387Y-99873079D01*
X247569457Y-99883044D01*
X247589448Y-99895026D01*
X247608168Y-99908910D01*
X247625438Y-99924562D01*
X247641090Y-99941832D01*
X247654974Y-99960552D01*
X247666956Y-99980543D01*
X247676921Y-100001613D01*
X247684773Y-100023557D01*
X247690437Y-100046166D01*
X247693856Y-100069221D01*
X247695000Y-100092500D01*
X247695000Y-100567500D01*
X247693856Y-100590779D01*
X247690437Y-100613834D01*
X247684773Y-100636443D01*
X247676921Y-100658387D01*
X247666956Y-100679457D01*
X247654974Y-100699448D01*
X247641090Y-100718168D01*
X247625438Y-100735438D01*
X247608168Y-100751090D01*
X247589448Y-100764974D01*
X247569457Y-100776956D01*
X247548387Y-100786921D01*
X247526443Y-100794773D01*
X247503834Y-100800437D01*
X247480779Y-100803856D01*
X247457500Y-100805000D01*
X246882500Y-100805000D01*
X246859221Y-100803856D01*
X246836166Y-100800437D01*
X246813557Y-100794773D01*
X246791613Y-100786921D01*
X246770543Y-100776956D01*
X246750552Y-100764974D01*
X246731832Y-100751090D01*
X246714562Y-100735438D01*
X246698910Y-100718168D01*
X246685026Y-100699448D01*
X246673044Y-100679457D01*
X246663079Y-100658387D01*
X246655227Y-100636443D01*
X246649563Y-100613834D01*
X246646144Y-100590779D01*
X246645000Y-100567500D01*
X246645000Y-100092500D01*
X246646144Y-100069221D01*
X246649563Y-100046166D01*
X246655227Y-100023557D01*
X246663079Y-100001613D01*
X246673044Y-99980543D01*
X246685026Y-99960552D01*
X246698910Y-99941832D01*
X246714562Y-99924562D01*
X246731832Y-99908910D01*
X246750552Y-99895026D01*
X246770543Y-99883044D01*
X246791613Y-99873079D01*
X246813557Y-99865227D01*
X246836166Y-99859563D01*
X246859221Y-99856144D01*
X246882500Y-99855000D01*
X247457500Y-99855000D01*
X247480779Y-99856144D01*
X247480779Y-99856144D01*
G37*
D12*
G04 #@! TD*
G04 #@! TO.P,R2,2*
G04 #@! TO.N,+5V*
X247170000Y-100330000D03*
D11*
G04 #@! TO.N,+12V*
G04 #@! TO.C,R3*
G36*
X193830779Y-100110144D02*
X193853834Y-100113563D01*
X193876443Y-100119227D01*
X193898387Y-100127079D01*
X193919457Y-100137044D01*
X193939448Y-100149026D01*
X193958168Y-100162910D01*
X193975438Y-100178562D01*
X193991090Y-100195832D01*
X194004974Y-100214552D01*
X194016956Y-100234543D01*
X194026921Y-100255613D01*
X194034773Y-100277557D01*
X194040437Y-100300166D01*
X194043856Y-100323221D01*
X194045000Y-100346500D01*
X194045000Y-100821500D01*
X194043856Y-100844779D01*
X194040437Y-100867834D01*
X194034773Y-100890443D01*
X194026921Y-100912387D01*
X194016956Y-100933457D01*
X194004974Y-100953448D01*
X193991090Y-100972168D01*
X193975438Y-100989438D01*
X193958168Y-101005090D01*
X193939448Y-101018974D01*
X193919457Y-101030956D01*
X193898387Y-101040921D01*
X193876443Y-101048773D01*
X193853834Y-101054437D01*
X193830779Y-101057856D01*
X193807500Y-101059000D01*
X193232500Y-101059000D01*
X193209221Y-101057856D01*
X193186166Y-101054437D01*
X193163557Y-101048773D01*
X193141613Y-101040921D01*
X193120543Y-101030956D01*
X193100552Y-101018974D01*
X193081832Y-101005090D01*
X193064562Y-100989438D01*
X193048910Y-100972168D01*
X193035026Y-100953448D01*
X193023044Y-100933457D01*
X193013079Y-100912387D01*
X193005227Y-100890443D01*
X192999563Y-100867834D01*
X192996144Y-100844779D01*
X192995000Y-100821500D01*
X192995000Y-100346500D01*
X192996144Y-100323221D01*
X192999563Y-100300166D01*
X193005227Y-100277557D01*
X193013079Y-100255613D01*
X193023044Y-100234543D01*
X193035026Y-100214552D01*
X193048910Y-100195832D01*
X193064562Y-100178562D01*
X193081832Y-100162910D01*
X193100552Y-100149026D01*
X193120543Y-100137044D01*
X193141613Y-100127079D01*
X193163557Y-100119227D01*
X193186166Y-100113563D01*
X193209221Y-100110144D01*
X193232500Y-100109000D01*
X193807500Y-100109000D01*
X193830779Y-100110144D01*
X193830779Y-100110144D01*
G37*
D12*
G04 #@! TD*
G04 #@! TO.P,R3,1*
G04 #@! TO.N,+12V*
X193520000Y-100584000D03*
D11*
G04 #@! TO.N,Net-(D3-Pad2)*
G04 #@! TO.C,R3*
G36*
X192080779Y-100110144D02*
X192103834Y-100113563D01*
X192126443Y-100119227D01*
X192148387Y-100127079D01*
X192169457Y-100137044D01*
X192189448Y-100149026D01*
X192208168Y-100162910D01*
X192225438Y-100178562D01*
X192241090Y-100195832D01*
X192254974Y-100214552D01*
X192266956Y-100234543D01*
X192276921Y-100255613D01*
X192284773Y-100277557D01*
X192290437Y-100300166D01*
X192293856Y-100323221D01*
X192295000Y-100346500D01*
X192295000Y-100821500D01*
X192293856Y-100844779D01*
X192290437Y-100867834D01*
X192284773Y-100890443D01*
X192276921Y-100912387D01*
X192266956Y-100933457D01*
X192254974Y-100953448D01*
X192241090Y-100972168D01*
X192225438Y-100989438D01*
X192208168Y-101005090D01*
X192189448Y-101018974D01*
X192169457Y-101030956D01*
X192148387Y-101040921D01*
X192126443Y-101048773D01*
X192103834Y-101054437D01*
X192080779Y-101057856D01*
X192057500Y-101059000D01*
X191482500Y-101059000D01*
X191459221Y-101057856D01*
X191436166Y-101054437D01*
X191413557Y-101048773D01*
X191391613Y-101040921D01*
X191370543Y-101030956D01*
X191350552Y-101018974D01*
X191331832Y-101005090D01*
X191314562Y-100989438D01*
X191298910Y-100972168D01*
X191285026Y-100953448D01*
X191273044Y-100933457D01*
X191263079Y-100912387D01*
X191255227Y-100890443D01*
X191249563Y-100867834D01*
X191246144Y-100844779D01*
X191245000Y-100821500D01*
X191245000Y-100346500D01*
X191246144Y-100323221D01*
X191249563Y-100300166D01*
X191255227Y-100277557D01*
X191263079Y-100255613D01*
X191273044Y-100234543D01*
X191285026Y-100214552D01*
X191298910Y-100195832D01*
X191314562Y-100178562D01*
X191331832Y-100162910D01*
X191350552Y-100149026D01*
X191370543Y-100137044D01*
X191391613Y-100127079D01*
X191413557Y-100119227D01*
X191436166Y-100113563D01*
X191459221Y-100110144D01*
X191482500Y-100109000D01*
X192057500Y-100109000D01*
X192080779Y-100110144D01*
X192080779Y-100110144D01*
G37*
D12*
G04 #@! TD*
G04 #@! TO.P,R3,2*
G04 #@! TO.N,Net-(D3-Pad2)*
X191770000Y-100584000D03*
D11*
G04 #@! TO.N,Servo1_PWM*
G04 #@! TO.C,R8*
G36*
X247480779Y-92236144D02*
X247503834Y-92239563D01*
X247526443Y-92245227D01*
X247548387Y-92253079D01*
X247569457Y-92263044D01*
X247589448Y-92275026D01*
X247608168Y-92288910D01*
X247625438Y-92304562D01*
X247641090Y-92321832D01*
X247654974Y-92340552D01*
X247666956Y-92360543D01*
X247676921Y-92381613D01*
X247684773Y-92403557D01*
X247690437Y-92426166D01*
X247693856Y-92449221D01*
X247695000Y-92472500D01*
X247695000Y-92947500D01*
X247693856Y-92970779D01*
X247690437Y-92993834D01*
X247684773Y-93016443D01*
X247676921Y-93038387D01*
X247666956Y-93059457D01*
X247654974Y-93079448D01*
X247641090Y-93098168D01*
X247625438Y-93115438D01*
X247608168Y-93131090D01*
X247589448Y-93144974D01*
X247569457Y-93156956D01*
X247548387Y-93166921D01*
X247526443Y-93174773D01*
X247503834Y-93180437D01*
X247480779Y-93183856D01*
X247457500Y-93185000D01*
X246882500Y-93185000D01*
X246859221Y-93183856D01*
X246836166Y-93180437D01*
X246813557Y-93174773D01*
X246791613Y-93166921D01*
X246770543Y-93156956D01*
X246750552Y-93144974D01*
X246731832Y-93131090D01*
X246714562Y-93115438D01*
X246698910Y-93098168D01*
X246685026Y-93079448D01*
X246673044Y-93059457D01*
X246663079Y-93038387D01*
X246655227Y-93016443D01*
X246649563Y-92993834D01*
X246646144Y-92970779D01*
X246645000Y-92947500D01*
X246645000Y-92472500D01*
X246646144Y-92449221D01*
X246649563Y-92426166D01*
X246655227Y-92403557D01*
X246663079Y-92381613D01*
X246673044Y-92360543D01*
X246685026Y-92340552D01*
X246698910Y-92321832D01*
X246714562Y-92304562D01*
X246731832Y-92288910D01*
X246750552Y-92275026D01*
X246770543Y-92263044D01*
X246791613Y-92253079D01*
X246813557Y-92245227D01*
X246836166Y-92239563D01*
X246859221Y-92236144D01*
X246882500Y-92235000D01*
X247457500Y-92235000D01*
X247480779Y-92236144D01*
X247480779Y-92236144D01*
G37*
D12*
G04 #@! TD*
G04 #@! TO.P,R8,2*
G04 #@! TO.N,Servo1_PWM*
X247170000Y-92710000D03*
D11*
G04 #@! TO.N,Net-(D8-Pad2)*
G04 #@! TO.C,R8*
G36*
X249230779Y-92236144D02*
X249253834Y-92239563D01*
X249276443Y-92245227D01*
X249298387Y-92253079D01*
X249319457Y-92263044D01*
X249339448Y-92275026D01*
X249358168Y-92288910D01*
X249375438Y-92304562D01*
X249391090Y-92321832D01*
X249404974Y-92340552D01*
X249416956Y-92360543D01*
X249426921Y-92381613D01*
X249434773Y-92403557D01*
X249440437Y-92426166D01*
X249443856Y-92449221D01*
X249445000Y-92472500D01*
X249445000Y-92947500D01*
X249443856Y-92970779D01*
X249440437Y-92993834D01*
X249434773Y-93016443D01*
X249426921Y-93038387D01*
X249416956Y-93059457D01*
X249404974Y-93079448D01*
X249391090Y-93098168D01*
X249375438Y-93115438D01*
X249358168Y-93131090D01*
X249339448Y-93144974D01*
X249319457Y-93156956D01*
X249298387Y-93166921D01*
X249276443Y-93174773D01*
X249253834Y-93180437D01*
X249230779Y-93183856D01*
X249207500Y-93185000D01*
X248632500Y-93185000D01*
X248609221Y-93183856D01*
X248586166Y-93180437D01*
X248563557Y-93174773D01*
X248541613Y-93166921D01*
X248520543Y-93156956D01*
X248500552Y-93144974D01*
X248481832Y-93131090D01*
X248464562Y-93115438D01*
X248448910Y-93098168D01*
X248435026Y-93079448D01*
X248423044Y-93059457D01*
X248413079Y-93038387D01*
X248405227Y-93016443D01*
X248399563Y-92993834D01*
X248396144Y-92970779D01*
X248395000Y-92947500D01*
X248395000Y-92472500D01*
X248396144Y-92449221D01*
X248399563Y-92426166D01*
X248405227Y-92403557D01*
X248413079Y-92381613D01*
X248423044Y-92360543D01*
X248435026Y-92340552D01*
X248448910Y-92321832D01*
X248464562Y-92304562D01*
X248481832Y-92288910D01*
X248500552Y-92275026D01*
X248520543Y-92263044D01*
X248541613Y-92253079D01*
X248563557Y-92245227D01*
X248586166Y-92239563D01*
X248609221Y-92236144D01*
X248632500Y-92235000D01*
X249207500Y-92235000D01*
X249230779Y-92236144D01*
X249230779Y-92236144D01*
G37*
D12*
G04 #@! TD*
G04 #@! TO.P,R8,1*
G04 #@! TO.N,Net-(D8-Pad2)*
X248920000Y-92710000D03*
D11*
G04 #@! TO.N,Net-(D9-Pad2)*
G04 #@! TO.C,R9*
G36*
X249230779Y-94776144D02*
X249253834Y-94779563D01*
X249276443Y-94785227D01*
X249298387Y-94793079D01*
X249319457Y-94803044D01*
X249339448Y-94815026D01*
X249358168Y-94828910D01*
X249375438Y-94844562D01*
X249391090Y-94861832D01*
X249404974Y-94880552D01*
X249416956Y-94900543D01*
X249426921Y-94921613D01*
X249434773Y-94943557D01*
X249440437Y-94966166D01*
X249443856Y-94989221D01*
X249445000Y-95012500D01*
X249445000Y-95487500D01*
X249443856Y-95510779D01*
X249440437Y-95533834D01*
X249434773Y-95556443D01*
X249426921Y-95578387D01*
X249416956Y-95599457D01*
X249404974Y-95619448D01*
X249391090Y-95638168D01*
X249375438Y-95655438D01*
X249358168Y-95671090D01*
X249339448Y-95684974D01*
X249319457Y-95696956D01*
X249298387Y-95706921D01*
X249276443Y-95714773D01*
X249253834Y-95720437D01*
X249230779Y-95723856D01*
X249207500Y-95725000D01*
X248632500Y-95725000D01*
X248609221Y-95723856D01*
X248586166Y-95720437D01*
X248563557Y-95714773D01*
X248541613Y-95706921D01*
X248520543Y-95696956D01*
X248500552Y-95684974D01*
X248481832Y-95671090D01*
X248464562Y-95655438D01*
X248448910Y-95638168D01*
X248435026Y-95619448D01*
X248423044Y-95599457D01*
X248413079Y-95578387D01*
X248405227Y-95556443D01*
X248399563Y-95533834D01*
X248396144Y-95510779D01*
X248395000Y-95487500D01*
X248395000Y-95012500D01*
X248396144Y-94989221D01*
X248399563Y-94966166D01*
X248405227Y-94943557D01*
X248413079Y-94921613D01*
X248423044Y-94900543D01*
X248435026Y-94880552D01*
X248448910Y-94861832D01*
X248464562Y-94844562D01*
X248481832Y-94828910D01*
X248500552Y-94815026D01*
X248520543Y-94803044D01*
X248541613Y-94793079D01*
X248563557Y-94785227D01*
X248586166Y-94779563D01*
X248609221Y-94776144D01*
X248632500Y-94775000D01*
X249207500Y-94775000D01*
X249230779Y-94776144D01*
X249230779Y-94776144D01*
G37*
D12*
G04 #@! TD*
G04 #@! TO.P,R9,1*
G04 #@! TO.N,Net-(D9-Pad2)*
X248920000Y-95250000D03*
D11*
G04 #@! TO.N,Servo2_PWM*
G04 #@! TO.C,R9*
G36*
X247480779Y-94776144D02*
X247503834Y-94779563D01*
X247526443Y-94785227D01*
X247548387Y-94793079D01*
X247569457Y-94803044D01*
X247589448Y-94815026D01*
X247608168Y-94828910D01*
X247625438Y-94844562D01*
X247641090Y-94861832D01*
X247654974Y-94880552D01*
X247666956Y-94900543D01*
X247676921Y-94921613D01*
X247684773Y-94943557D01*
X247690437Y-94966166D01*
X247693856Y-94989221D01*
X247695000Y-95012500D01*
X247695000Y-95487500D01*
X247693856Y-95510779D01*
X247690437Y-95533834D01*
X247684773Y-95556443D01*
X247676921Y-95578387D01*
X247666956Y-95599457D01*
X247654974Y-95619448D01*
X247641090Y-95638168D01*
X247625438Y-95655438D01*
X247608168Y-95671090D01*
X247589448Y-95684974D01*
X247569457Y-95696956D01*
X247548387Y-95706921D01*
X247526443Y-95714773D01*
X247503834Y-95720437D01*
X247480779Y-95723856D01*
X247457500Y-95725000D01*
X246882500Y-95725000D01*
X246859221Y-95723856D01*
X246836166Y-95720437D01*
X246813557Y-95714773D01*
X246791613Y-95706921D01*
X246770543Y-95696956D01*
X246750552Y-95684974D01*
X246731832Y-95671090D01*
X246714562Y-95655438D01*
X246698910Y-95638168D01*
X246685026Y-95619448D01*
X246673044Y-95599457D01*
X246663079Y-95578387D01*
X246655227Y-95556443D01*
X246649563Y-95533834D01*
X246646144Y-95510779D01*
X246645000Y-95487500D01*
X246645000Y-95012500D01*
X246646144Y-94989221D01*
X246649563Y-94966166D01*
X246655227Y-94943557D01*
X246663079Y-94921613D01*
X246673044Y-94900543D01*
X246685026Y-94880552D01*
X246698910Y-94861832D01*
X246714562Y-94844562D01*
X246731832Y-94828910D01*
X246750552Y-94815026D01*
X246770543Y-94803044D01*
X246791613Y-94793079D01*
X246813557Y-94785227D01*
X246836166Y-94779563D01*
X246859221Y-94776144D01*
X246882500Y-94775000D01*
X247457500Y-94775000D01*
X247480779Y-94776144D01*
X247480779Y-94776144D01*
G37*
D12*
G04 #@! TD*
G04 #@! TO.P,R9,2*
G04 #@! TO.N,Servo2_PWM*
X247170000Y-95250000D03*
D11*
G04 #@! TO.N,Servo3_PWM*
G04 #@! TO.C,R10*
G36*
X247480779Y-97316144D02*
X247503834Y-97319563D01*
X247526443Y-97325227D01*
X247548387Y-97333079D01*
X247569457Y-97343044D01*
X247589448Y-97355026D01*
X247608168Y-97368910D01*
X247625438Y-97384562D01*
X247641090Y-97401832D01*
X247654974Y-97420552D01*
X247666956Y-97440543D01*
X247676921Y-97461613D01*
X247684773Y-97483557D01*
X247690437Y-97506166D01*
X247693856Y-97529221D01*
X247695000Y-97552500D01*
X247695000Y-98027500D01*
X247693856Y-98050779D01*
X247690437Y-98073834D01*
X247684773Y-98096443D01*
X247676921Y-98118387D01*
X247666956Y-98139457D01*
X247654974Y-98159448D01*
X247641090Y-98178168D01*
X247625438Y-98195438D01*
X247608168Y-98211090D01*
X247589448Y-98224974D01*
X247569457Y-98236956D01*
X247548387Y-98246921D01*
X247526443Y-98254773D01*
X247503834Y-98260437D01*
X247480779Y-98263856D01*
X247457500Y-98265000D01*
X246882500Y-98265000D01*
X246859221Y-98263856D01*
X246836166Y-98260437D01*
X246813557Y-98254773D01*
X246791613Y-98246921D01*
X246770543Y-98236956D01*
X246750552Y-98224974D01*
X246731832Y-98211090D01*
X246714562Y-98195438D01*
X246698910Y-98178168D01*
X246685026Y-98159448D01*
X246673044Y-98139457D01*
X246663079Y-98118387D01*
X246655227Y-98096443D01*
X246649563Y-98073834D01*
X246646144Y-98050779D01*
X246645000Y-98027500D01*
X246645000Y-97552500D01*
X246646144Y-97529221D01*
X246649563Y-97506166D01*
X246655227Y-97483557D01*
X246663079Y-97461613D01*
X246673044Y-97440543D01*
X246685026Y-97420552D01*
X246698910Y-97401832D01*
X246714562Y-97384562D01*
X246731832Y-97368910D01*
X246750552Y-97355026D01*
X246770543Y-97343044D01*
X246791613Y-97333079D01*
X246813557Y-97325227D01*
X246836166Y-97319563D01*
X246859221Y-97316144D01*
X246882500Y-97315000D01*
X247457500Y-97315000D01*
X247480779Y-97316144D01*
X247480779Y-97316144D01*
G37*
D12*
G04 #@! TD*
G04 #@! TO.P,R10,2*
G04 #@! TO.N,Servo3_PWM*
X247170000Y-97790000D03*
D11*
G04 #@! TO.N,Net-(D10-Pad2)*
G04 #@! TO.C,R10*
G36*
X249230779Y-97316144D02*
X249253834Y-97319563D01*
X249276443Y-97325227D01*
X249298387Y-97333079D01*
X249319457Y-97343044D01*
X249339448Y-97355026D01*
X249358168Y-97368910D01*
X249375438Y-97384562D01*
X249391090Y-97401832D01*
X249404974Y-97420552D01*
X249416956Y-97440543D01*
X249426921Y-97461613D01*
X249434773Y-97483557D01*
X249440437Y-97506166D01*
X249443856Y-97529221D01*
X249445000Y-97552500D01*
X249445000Y-98027500D01*
X249443856Y-98050779D01*
X249440437Y-98073834D01*
X249434773Y-98096443D01*
X249426921Y-98118387D01*
X249416956Y-98139457D01*
X249404974Y-98159448D01*
X249391090Y-98178168D01*
X249375438Y-98195438D01*
X249358168Y-98211090D01*
X249339448Y-98224974D01*
X249319457Y-98236956D01*
X249298387Y-98246921D01*
X249276443Y-98254773D01*
X249253834Y-98260437D01*
X249230779Y-98263856D01*
X249207500Y-98265000D01*
X248632500Y-98265000D01*
X248609221Y-98263856D01*
X248586166Y-98260437D01*
X248563557Y-98254773D01*
X248541613Y-98246921D01*
X248520543Y-98236956D01*
X248500552Y-98224974D01*
X248481832Y-98211090D01*
X248464562Y-98195438D01*
X248448910Y-98178168D01*
X248435026Y-98159448D01*
X248423044Y-98139457D01*
X248413079Y-98118387D01*
X248405227Y-98096443D01*
X248399563Y-98073834D01*
X248396144Y-98050779D01*
X248395000Y-98027500D01*
X248395000Y-97552500D01*
X248396144Y-97529221D01*
X248399563Y-97506166D01*
X248405227Y-97483557D01*
X248413079Y-97461613D01*
X248423044Y-97440543D01*
X248435026Y-97420552D01*
X248448910Y-97401832D01*
X248464562Y-97384562D01*
X248481832Y-97368910D01*
X248500552Y-97355026D01*
X248520543Y-97343044D01*
X248541613Y-97333079D01*
X248563557Y-97325227D01*
X248586166Y-97319563D01*
X248609221Y-97316144D01*
X248632500Y-97315000D01*
X249207500Y-97315000D01*
X249230779Y-97316144D01*
X249230779Y-97316144D01*
G37*
D12*
G04 #@! TD*
G04 #@! TO.P,R10,1*
G04 #@! TO.N,Net-(D10-Pad2)*
X248920000Y-97790000D03*
D11*
G04 #@! TO.N,SW_IND_1*
G04 #@! TO.C,R11*
G36*
X247480779Y-102396144D02*
X247503834Y-102399563D01*
X247526443Y-102405227D01*
X247548387Y-102413079D01*
X247569457Y-102423044D01*
X247589448Y-102435026D01*
X247608168Y-102448910D01*
X247625438Y-102464562D01*
X247641090Y-102481832D01*
X247654974Y-102500552D01*
X247666956Y-102520543D01*
X247676921Y-102541613D01*
X247684773Y-102563557D01*
X247690437Y-102586166D01*
X247693856Y-102609221D01*
X247695000Y-102632500D01*
X247695000Y-103107500D01*
X247693856Y-103130779D01*
X247690437Y-103153834D01*
X247684773Y-103176443D01*
X247676921Y-103198387D01*
X247666956Y-103219457D01*
X247654974Y-103239448D01*
X247641090Y-103258168D01*
X247625438Y-103275438D01*
X247608168Y-103291090D01*
X247589448Y-103304974D01*
X247569457Y-103316956D01*
X247548387Y-103326921D01*
X247526443Y-103334773D01*
X247503834Y-103340437D01*
X247480779Y-103343856D01*
X247457500Y-103345000D01*
X246882500Y-103345000D01*
X246859221Y-103343856D01*
X246836166Y-103340437D01*
X246813557Y-103334773D01*
X246791613Y-103326921D01*
X246770543Y-103316956D01*
X246750552Y-103304974D01*
X246731832Y-103291090D01*
X246714562Y-103275438D01*
X246698910Y-103258168D01*
X246685026Y-103239448D01*
X246673044Y-103219457D01*
X246663079Y-103198387D01*
X246655227Y-103176443D01*
X246649563Y-103153834D01*
X246646144Y-103130779D01*
X246645000Y-103107500D01*
X246645000Y-102632500D01*
X246646144Y-102609221D01*
X246649563Y-102586166D01*
X246655227Y-102563557D01*
X246663079Y-102541613D01*
X246673044Y-102520543D01*
X246685026Y-102500552D01*
X246698910Y-102481832D01*
X246714562Y-102464562D01*
X246731832Y-102448910D01*
X246750552Y-102435026D01*
X246770543Y-102423044D01*
X246791613Y-102413079D01*
X246813557Y-102405227D01*
X246836166Y-102399563D01*
X246859221Y-102396144D01*
X246882500Y-102395000D01*
X247457500Y-102395000D01*
X247480779Y-102396144D01*
X247480779Y-102396144D01*
G37*
D12*
G04 #@! TD*
G04 #@! TO.P,R11,2*
G04 #@! TO.N,SW_IND_1*
X247170000Y-102870000D03*
D11*
G04 #@! TO.N,Net-(D12-Pad2)*
G04 #@! TO.C,R11*
G36*
X249230779Y-102396144D02*
X249253834Y-102399563D01*
X249276443Y-102405227D01*
X249298387Y-102413079D01*
X249319457Y-102423044D01*
X249339448Y-102435026D01*
X249358168Y-102448910D01*
X249375438Y-102464562D01*
X249391090Y-102481832D01*
X249404974Y-102500552D01*
X249416956Y-102520543D01*
X249426921Y-102541613D01*
X249434773Y-102563557D01*
X249440437Y-102586166D01*
X249443856Y-102609221D01*
X249445000Y-102632500D01*
X249445000Y-103107500D01*
X249443856Y-103130779D01*
X249440437Y-103153834D01*
X249434773Y-103176443D01*
X249426921Y-103198387D01*
X249416956Y-103219457D01*
X249404974Y-103239448D01*
X249391090Y-103258168D01*
X249375438Y-103275438D01*
X249358168Y-103291090D01*
X249339448Y-103304974D01*
X249319457Y-103316956D01*
X249298387Y-103326921D01*
X249276443Y-103334773D01*
X249253834Y-103340437D01*
X249230779Y-103343856D01*
X249207500Y-103345000D01*
X248632500Y-103345000D01*
X248609221Y-103343856D01*
X248586166Y-103340437D01*
X248563557Y-103334773D01*
X248541613Y-103326921D01*
X248520543Y-103316956D01*
X248500552Y-103304974D01*
X248481832Y-103291090D01*
X248464562Y-103275438D01*
X248448910Y-103258168D01*
X248435026Y-103239448D01*
X248423044Y-103219457D01*
X248413079Y-103198387D01*
X248405227Y-103176443D01*
X248399563Y-103153834D01*
X248396144Y-103130779D01*
X248395000Y-103107500D01*
X248395000Y-102632500D01*
X248396144Y-102609221D01*
X248399563Y-102586166D01*
X248405227Y-102563557D01*
X248413079Y-102541613D01*
X248423044Y-102520543D01*
X248435026Y-102500552D01*
X248448910Y-102481832D01*
X248464562Y-102464562D01*
X248481832Y-102448910D01*
X248500552Y-102435026D01*
X248520543Y-102423044D01*
X248541613Y-102413079D01*
X248563557Y-102405227D01*
X248586166Y-102399563D01*
X248609221Y-102396144D01*
X248632500Y-102395000D01*
X249207500Y-102395000D01*
X249230779Y-102396144D01*
X249230779Y-102396144D01*
G37*
D12*
G04 #@! TD*
G04 #@! TO.P,R11,1*
G04 #@! TO.N,Net-(D12-Pad2)*
X248920000Y-102870000D03*
D11*
G04 #@! TO.N,Net-(D13-Pad2)*
G04 #@! TO.C,R12*
G36*
X249230779Y-104936144D02*
X249253834Y-104939563D01*
X249276443Y-104945227D01*
X249298387Y-104953079D01*
X249319457Y-104963044D01*
X249339448Y-104975026D01*
X249358168Y-104988910D01*
X249375438Y-105004562D01*
X249391090Y-105021832D01*
X249404974Y-105040552D01*
X249416956Y-105060543D01*
X249426921Y-105081613D01*
X249434773Y-105103557D01*
X249440437Y-105126166D01*
X249443856Y-105149221D01*
X249445000Y-105172500D01*
X249445000Y-105647500D01*
X249443856Y-105670779D01*
X249440437Y-105693834D01*
X249434773Y-105716443D01*
X249426921Y-105738387D01*
X249416956Y-105759457D01*
X249404974Y-105779448D01*
X249391090Y-105798168D01*
X249375438Y-105815438D01*
X249358168Y-105831090D01*
X249339448Y-105844974D01*
X249319457Y-105856956D01*
X249298387Y-105866921D01*
X249276443Y-105874773D01*
X249253834Y-105880437D01*
X249230779Y-105883856D01*
X249207500Y-105885000D01*
X248632500Y-105885000D01*
X248609221Y-105883856D01*
X248586166Y-105880437D01*
X248563557Y-105874773D01*
X248541613Y-105866921D01*
X248520543Y-105856956D01*
X248500552Y-105844974D01*
X248481832Y-105831090D01*
X248464562Y-105815438D01*
X248448910Y-105798168D01*
X248435026Y-105779448D01*
X248423044Y-105759457D01*
X248413079Y-105738387D01*
X248405227Y-105716443D01*
X248399563Y-105693834D01*
X248396144Y-105670779D01*
X248395000Y-105647500D01*
X248395000Y-105172500D01*
X248396144Y-105149221D01*
X248399563Y-105126166D01*
X248405227Y-105103557D01*
X248413079Y-105081613D01*
X248423044Y-105060543D01*
X248435026Y-105040552D01*
X248448910Y-105021832D01*
X248464562Y-105004562D01*
X248481832Y-104988910D01*
X248500552Y-104975026D01*
X248520543Y-104963044D01*
X248541613Y-104953079D01*
X248563557Y-104945227D01*
X248586166Y-104939563D01*
X248609221Y-104936144D01*
X248632500Y-104935000D01*
X249207500Y-104935000D01*
X249230779Y-104936144D01*
X249230779Y-104936144D01*
G37*
D12*
G04 #@! TD*
G04 #@! TO.P,R12,1*
G04 #@! TO.N,Net-(D13-Pad2)*
X248920000Y-105410000D03*
D11*
G04 #@! TO.N,SW_IND_2*
G04 #@! TO.C,R12*
G36*
X247480779Y-104936144D02*
X247503834Y-104939563D01*
X247526443Y-104945227D01*
X247548387Y-104953079D01*
X247569457Y-104963044D01*
X247589448Y-104975026D01*
X247608168Y-104988910D01*
X247625438Y-105004562D01*
X247641090Y-105021832D01*
X247654974Y-105040552D01*
X247666956Y-105060543D01*
X247676921Y-105081613D01*
X247684773Y-105103557D01*
X247690437Y-105126166D01*
X247693856Y-105149221D01*
X247695000Y-105172500D01*
X247695000Y-105647500D01*
X247693856Y-105670779D01*
X247690437Y-105693834D01*
X247684773Y-105716443D01*
X247676921Y-105738387D01*
X247666956Y-105759457D01*
X247654974Y-105779448D01*
X247641090Y-105798168D01*
X247625438Y-105815438D01*
X247608168Y-105831090D01*
X247589448Y-105844974D01*
X247569457Y-105856956D01*
X247548387Y-105866921D01*
X247526443Y-105874773D01*
X247503834Y-105880437D01*
X247480779Y-105883856D01*
X247457500Y-105885000D01*
X246882500Y-105885000D01*
X246859221Y-105883856D01*
X246836166Y-105880437D01*
X246813557Y-105874773D01*
X246791613Y-105866921D01*
X246770543Y-105856956D01*
X246750552Y-105844974D01*
X246731832Y-105831090D01*
X246714562Y-105815438D01*
X246698910Y-105798168D01*
X246685026Y-105779448D01*
X246673044Y-105759457D01*
X246663079Y-105738387D01*
X246655227Y-105716443D01*
X246649563Y-105693834D01*
X246646144Y-105670779D01*
X246645000Y-105647500D01*
X246645000Y-105172500D01*
X246646144Y-105149221D01*
X246649563Y-105126166D01*
X246655227Y-105103557D01*
X246663079Y-105081613D01*
X246673044Y-105060543D01*
X246685026Y-105040552D01*
X246698910Y-105021832D01*
X246714562Y-105004562D01*
X246731832Y-104988910D01*
X246750552Y-104975026D01*
X246770543Y-104963044D01*
X246791613Y-104953079D01*
X246813557Y-104945227D01*
X246836166Y-104939563D01*
X246859221Y-104936144D01*
X246882500Y-104935000D01*
X247457500Y-104935000D01*
X247480779Y-104936144D01*
X247480779Y-104936144D01*
G37*
D12*
G04 #@! TD*
G04 #@! TO.P,R12,2*
G04 #@! TO.N,SW_IND_2*
X247170000Y-105410000D03*
D11*
G04 #@! TO.N,SW_IND_3*
G04 #@! TO.C,R13*
G36*
X247480779Y-107476144D02*
X247503834Y-107479563D01*
X247526443Y-107485227D01*
X247548387Y-107493079D01*
X247569457Y-107503044D01*
X247589448Y-107515026D01*
X247608168Y-107528910D01*
X247625438Y-107544562D01*
X247641090Y-107561832D01*
X247654974Y-107580552D01*
X247666956Y-107600543D01*
X247676921Y-107621613D01*
X247684773Y-107643557D01*
X247690437Y-107666166D01*
X247693856Y-107689221D01*
X247695000Y-107712500D01*
X247695000Y-108187500D01*
X247693856Y-108210779D01*
X247690437Y-108233834D01*
X247684773Y-108256443D01*
X247676921Y-108278387D01*
X247666956Y-108299457D01*
X247654974Y-108319448D01*
X247641090Y-108338168D01*
X247625438Y-108355438D01*
X247608168Y-108371090D01*
X247589448Y-108384974D01*
X247569457Y-108396956D01*
X247548387Y-108406921D01*
X247526443Y-108414773D01*
X247503834Y-108420437D01*
X247480779Y-108423856D01*
X247457500Y-108425000D01*
X246882500Y-108425000D01*
X246859221Y-108423856D01*
X246836166Y-108420437D01*
X246813557Y-108414773D01*
X246791613Y-108406921D01*
X246770543Y-108396956D01*
X246750552Y-108384974D01*
X246731832Y-108371090D01*
X246714562Y-108355438D01*
X246698910Y-108338168D01*
X246685026Y-108319448D01*
X246673044Y-108299457D01*
X246663079Y-108278387D01*
X246655227Y-108256443D01*
X246649563Y-108233834D01*
X246646144Y-108210779D01*
X246645000Y-108187500D01*
X246645000Y-107712500D01*
X246646144Y-107689221D01*
X246649563Y-107666166D01*
X246655227Y-107643557D01*
X246663079Y-107621613D01*
X246673044Y-107600543D01*
X246685026Y-107580552D01*
X246698910Y-107561832D01*
X246714562Y-107544562D01*
X246731832Y-107528910D01*
X246750552Y-107515026D01*
X246770543Y-107503044D01*
X246791613Y-107493079D01*
X246813557Y-107485227D01*
X246836166Y-107479563D01*
X246859221Y-107476144D01*
X246882500Y-107475000D01*
X247457500Y-107475000D01*
X247480779Y-107476144D01*
X247480779Y-107476144D01*
G37*
D12*
G04 #@! TD*
G04 #@! TO.P,R13,2*
G04 #@! TO.N,SW_IND_3*
X247170000Y-107950000D03*
D11*
G04 #@! TO.N,Net-(D14-Pad2)*
G04 #@! TO.C,R13*
G36*
X249230779Y-107476144D02*
X249253834Y-107479563D01*
X249276443Y-107485227D01*
X249298387Y-107493079D01*
X249319457Y-107503044D01*
X249339448Y-107515026D01*
X249358168Y-107528910D01*
X249375438Y-107544562D01*
X249391090Y-107561832D01*
X249404974Y-107580552D01*
X249416956Y-107600543D01*
X249426921Y-107621613D01*
X249434773Y-107643557D01*
X249440437Y-107666166D01*
X249443856Y-107689221D01*
X249445000Y-107712500D01*
X249445000Y-108187500D01*
X249443856Y-108210779D01*
X249440437Y-108233834D01*
X249434773Y-108256443D01*
X249426921Y-108278387D01*
X249416956Y-108299457D01*
X249404974Y-108319448D01*
X249391090Y-108338168D01*
X249375438Y-108355438D01*
X249358168Y-108371090D01*
X249339448Y-108384974D01*
X249319457Y-108396956D01*
X249298387Y-108406921D01*
X249276443Y-108414773D01*
X249253834Y-108420437D01*
X249230779Y-108423856D01*
X249207500Y-108425000D01*
X248632500Y-108425000D01*
X248609221Y-108423856D01*
X248586166Y-108420437D01*
X248563557Y-108414773D01*
X248541613Y-108406921D01*
X248520543Y-108396956D01*
X248500552Y-108384974D01*
X248481832Y-108371090D01*
X248464562Y-108355438D01*
X248448910Y-108338168D01*
X248435026Y-108319448D01*
X248423044Y-108299457D01*
X248413079Y-108278387D01*
X248405227Y-108256443D01*
X248399563Y-108233834D01*
X248396144Y-108210779D01*
X248395000Y-108187500D01*
X248395000Y-107712500D01*
X248396144Y-107689221D01*
X248399563Y-107666166D01*
X248405227Y-107643557D01*
X248413079Y-107621613D01*
X248423044Y-107600543D01*
X248435026Y-107580552D01*
X248448910Y-107561832D01*
X248464562Y-107544562D01*
X248481832Y-107528910D01*
X248500552Y-107515026D01*
X248520543Y-107503044D01*
X248541613Y-107493079D01*
X248563557Y-107485227D01*
X248586166Y-107479563D01*
X248609221Y-107476144D01*
X248632500Y-107475000D01*
X249207500Y-107475000D01*
X249230779Y-107476144D01*
X249230779Y-107476144D01*
G37*
D12*
G04 #@! TD*
G04 #@! TO.P,R13,1*
G04 #@! TO.N,Net-(D14-Pad2)*
X248920000Y-107950000D03*
D11*
G04 #@! TO.N,Net-(D15-Pad2)*
G04 #@! TO.C,R14*
G36*
X249230779Y-110016144D02*
X249253834Y-110019563D01*
X249276443Y-110025227D01*
X249298387Y-110033079D01*
X249319457Y-110043044D01*
X249339448Y-110055026D01*
X249358168Y-110068910D01*
X249375438Y-110084562D01*
X249391090Y-110101832D01*
X249404974Y-110120552D01*
X249416956Y-110140543D01*
X249426921Y-110161613D01*
X249434773Y-110183557D01*
X249440437Y-110206166D01*
X249443856Y-110229221D01*
X249445000Y-110252500D01*
X249445000Y-110727500D01*
X249443856Y-110750779D01*
X249440437Y-110773834D01*
X249434773Y-110796443D01*
X249426921Y-110818387D01*
X249416956Y-110839457D01*
X249404974Y-110859448D01*
X249391090Y-110878168D01*
X249375438Y-110895438D01*
X249358168Y-110911090D01*
X249339448Y-110924974D01*
X249319457Y-110936956D01*
X249298387Y-110946921D01*
X249276443Y-110954773D01*
X249253834Y-110960437D01*
X249230779Y-110963856D01*
X249207500Y-110965000D01*
X248632500Y-110965000D01*
X248609221Y-110963856D01*
X248586166Y-110960437D01*
X248563557Y-110954773D01*
X248541613Y-110946921D01*
X248520543Y-110936956D01*
X248500552Y-110924974D01*
X248481832Y-110911090D01*
X248464562Y-110895438D01*
X248448910Y-110878168D01*
X248435026Y-110859448D01*
X248423044Y-110839457D01*
X248413079Y-110818387D01*
X248405227Y-110796443D01*
X248399563Y-110773834D01*
X248396144Y-110750779D01*
X248395000Y-110727500D01*
X248395000Y-110252500D01*
X248396144Y-110229221D01*
X248399563Y-110206166D01*
X248405227Y-110183557D01*
X248413079Y-110161613D01*
X248423044Y-110140543D01*
X248435026Y-110120552D01*
X248448910Y-110101832D01*
X248464562Y-110084562D01*
X248481832Y-110068910D01*
X248500552Y-110055026D01*
X248520543Y-110043044D01*
X248541613Y-110033079D01*
X248563557Y-110025227D01*
X248586166Y-110019563D01*
X248609221Y-110016144D01*
X248632500Y-110015000D01*
X249207500Y-110015000D01*
X249230779Y-110016144D01*
X249230779Y-110016144D01*
G37*
D12*
G04 #@! TD*
G04 #@! TO.P,R14,1*
G04 #@! TO.N,Net-(D15-Pad2)*
X248920000Y-110490000D03*
D11*
G04 #@! TO.N,SW_IND_ERR*
G04 #@! TO.C,R14*
G36*
X247480779Y-110016144D02*
X247503834Y-110019563D01*
X247526443Y-110025227D01*
X247548387Y-110033079D01*
X247569457Y-110043044D01*
X247589448Y-110055026D01*
X247608168Y-110068910D01*
X247625438Y-110084562D01*
X247641090Y-110101832D01*
X247654974Y-110120552D01*
X247666956Y-110140543D01*
X247676921Y-110161613D01*
X247684773Y-110183557D01*
X247690437Y-110206166D01*
X247693856Y-110229221D01*
X247695000Y-110252500D01*
X247695000Y-110727500D01*
X247693856Y-110750779D01*
X247690437Y-110773834D01*
X247684773Y-110796443D01*
X247676921Y-110818387D01*
X247666956Y-110839457D01*
X247654974Y-110859448D01*
X247641090Y-110878168D01*
X247625438Y-110895438D01*
X247608168Y-110911090D01*
X247589448Y-110924974D01*
X247569457Y-110936956D01*
X247548387Y-110946921D01*
X247526443Y-110954773D01*
X247503834Y-110960437D01*
X247480779Y-110963856D01*
X247457500Y-110965000D01*
X246882500Y-110965000D01*
X246859221Y-110963856D01*
X246836166Y-110960437D01*
X246813557Y-110954773D01*
X246791613Y-110946921D01*
X246770543Y-110936956D01*
X246750552Y-110924974D01*
X246731832Y-110911090D01*
X246714562Y-110895438D01*
X246698910Y-110878168D01*
X246685026Y-110859448D01*
X246673044Y-110839457D01*
X246663079Y-110818387D01*
X246655227Y-110796443D01*
X246649563Y-110773834D01*
X246646144Y-110750779D01*
X246645000Y-110727500D01*
X246645000Y-110252500D01*
X246646144Y-110229221D01*
X246649563Y-110206166D01*
X246655227Y-110183557D01*
X246663079Y-110161613D01*
X246673044Y-110140543D01*
X246685026Y-110120552D01*
X246698910Y-110101832D01*
X246714562Y-110084562D01*
X246731832Y-110068910D01*
X246750552Y-110055026D01*
X246770543Y-110043044D01*
X246791613Y-110033079D01*
X246813557Y-110025227D01*
X246836166Y-110019563D01*
X246859221Y-110016144D01*
X246882500Y-110015000D01*
X247457500Y-110015000D01*
X247480779Y-110016144D01*
X247480779Y-110016144D01*
G37*
D12*
G04 #@! TD*
G04 #@! TO.P,R14,2*
G04 #@! TO.N,SW_IND_ERR*
X247170000Y-110490000D03*
D16*
G04 #@! TO.P,U1,+3V3`*
G04 #@! TO.N,Net-(U1-Pad+3V3`)*
X195580000Y-132080000D03*
G04 #@! TO.P,U1,PM6*
G04 #@! TO.N,Net-(U1-PadPM6)*
X218440000Y-86360000D03*
G04 #@! TO.P,U1,PQ1*
G04 #@! TO.N,Net-(U1-PadPQ1)*
X215900000Y-86360000D03*
G04 #@! TO.P,U1,PQ2*
G04 #@! TO.N,Net-(U1-PadPQ2)*
X208280000Y-86360000D03*
G04 #@! TO.P,U1,PK0*
G04 #@! TO.N,RX_3_IC*
X205740000Y-129540000D03*
G04 #@! TO.P,U1,PQ3*
G04 #@! TO.N,Net-(U1-PadPQ3)*
X210820000Y-86360000D03*
G04 #@! TO.P,U1,PP3*
G04 #@! TO.N,Net-(U1-PadPP3)*
X213360000Y-86360000D03*
G04 #@! TO.P,U1,PQ0*
G04 #@! TO.N,Net-(U1-PadPQ0)*
X210820000Y-132080000D03*
G04 #@! TO.P,U1,PA4*
G04 #@! TO.N,RX_1_IC*
X215900000Y-129540000D03*
G04 #@! TO.P,U1,Rese`*
G04 #@! TO.N,N/C*
X205740000Y-86360000D03*
G04 #@! TO.P,U1,PA7*
G04 #@! TO.N,Net-(U1-PadPA7)*
X203200000Y-86360000D03*
G04 #@! TO.P,U1,PN5*
G04 #@! TO.N,Net-(U1-PadPN5)*
X215900000Y-132080000D03*
G04 #@! TO.P,U1,PK2*
G04 #@! TO.N,Net-(U1-PadPK2)*
X210820000Y-129540000D03*
G04 #@! TO.P,U1,PK1*
G04 #@! TO.N,TX_3_IC*
X208280000Y-129540000D03*
G04 #@! TO.P,U1,+5V`*
G04 #@! TO.N,N/C*
X195580000Y-129540000D03*
G04 #@! TO.P,U1,GND*
G04 #@! TO.N,GND*
X198120000Y-129540000D03*
G04 #@! TO.P,U1,PB4*
G04 #@! TO.N,Net-(U1-PadPB4)*
X200660000Y-129540000D03*
G04 #@! TO.P,U1,PB5*
G04 #@! TO.N,Net-(U1-PadPB5)*
X203200000Y-129540000D03*
G04 #@! TO.P,U1,PK3*
G04 #@! TO.N,Net-(U1-PadPK3)*
X213360000Y-129540000D03*
G04 #@! TO.P,U1,PA5*
G04 #@! TO.N,TX_1_IC*
X218440000Y-129540000D03*
G04 #@! TO.P,U1,PD2*
G04 #@! TO.N,Net-(U1-PadPD2)*
X198120000Y-132080000D03*
G04 #@! TO.P,U1,PP0*
G04 #@! TO.N,RX_2_IC*
X200660000Y-132080000D03*
G04 #@! TO.P,U1,PP1*
G04 #@! TO.N,TX_2_IC*
X203200000Y-132080000D03*
G04 #@! TO.P,U1,PD4*
G04 #@! TO.N,Net-(U1-PadPD4)*
X205740000Y-132080000D03*
G04 #@! TO.P,U1,PD5*
G04 #@! TO.N,Net-(U1-PadPD5)*
X208280000Y-132080000D03*
G04 #@! TO.P,U1,PP4*
G04 #@! TO.N,Net-(U1-PadPP4)*
X213360000Y-132080000D03*
G04 #@! TO.P,U1,PN4*
G04 #@! TO.N,Net-(U1-PadPN4)*
X218440000Y-132080000D03*
G04 #@! TO.P,U1,PG1*
G04 #@! TO.N,Servo3_PWM*
X195580000Y-88900000D03*
G04 #@! TO.P,U1,PK4*
G04 #@! TO.N,Servo2_PWM*
X198120000Y-88900000D03*
G04 #@! TO.P,U1,PK5*
G04 #@! TO.N,Servo1_PWM*
X200660000Y-88900000D03*
G04 #@! TO.P,U1,PM0*
G04 #@! TO.N,Net-(U1-PadPM0)*
X203200000Y-88900000D03*
G04 #@! TO.P,U1,PM1*
G04 #@! TO.N,Net-(U1-PadPM1)*
X205740000Y-88900000D03*
G04 #@! TO.P,U1,PM2*
G04 #@! TO.N,Net-(U1-PadPM2)*
X208280000Y-88900000D03*
G04 #@! TO.P,U1,PH0*
G04 #@! TO.N,SW_IND_ERR*
X210820000Y-88900000D03*
G04 #@! TO.P,U1,PH1*
G04 #@! TO.N,SW_IND_3*
X213360000Y-88900000D03*
G04 #@! TO.P,U1,PK6*
G04 #@! TO.N,SW_IND_2*
X215900000Y-88900000D03*
G04 #@! TO.P,U1,PK7*
G04 #@! TO.N,SW_IND_1*
X218440000Y-88900000D03*
G04 #@! TO.P,U1,GND*
G04 #@! TO.N,GND*
X195580000Y-86360000D03*
G04 #@! TO.P,U1,PM7*
G04 #@! TO.N,Net-(U1-PadPM7)*
X198120000Y-86360000D03*
G04 #@! TO.P,U1,PP5*
G04 #@! TO.N,Net-(U1-PadPP5)*
X200660000Y-86360000D03*
G04 #@! TO.P,U1,+5V*
G04 #@! TO.N,+5V*
X132080000Y-129540000D03*
G04 #@! TO.P,U1,GND*
G04 #@! TO.N,GND*
X134620000Y-129540000D03*
G04 #@! TO.P,U1,PE0*
G04 #@! TO.N,Net-(U1-PadPE0)*
X137160000Y-129540000D03*
G04 #@! TO.P,U1,PE1*
G04 #@! TO.N,Net-(U1-PadPE1)*
X139700000Y-129540000D03*
G04 #@! TO.P,U1,PE2*
G04 #@! TO.N,Net-(U1-PadPE2)*
X142240000Y-129540000D03*
G04 #@! TO.P,U1,PE3*
G04 #@! TO.N,Net-(U1-PadPE3)*
X144780000Y-129540000D03*
G04 #@! TO.P,U1,PD7*
G04 #@! TO.N,Net-(U1-PadPD7)*
X147320000Y-129540000D03*
G04 #@! TO.P,U1,PA6*
G04 #@! TO.N,Net-(U1-PadPA6)*
X149860000Y-129540000D03*
G04 #@! TO.P,U1,PM4*
G04 #@! TO.N,Net-(U1-PadPM4)*
X152400000Y-129540000D03*
G04 #@! TO.P,U1,PM5*
G04 #@! TO.N,Net-(U1-PadPM5)*
X154940000Y-129540000D03*
G04 #@! TO.P,U1,+3V3*
G04 #@! TO.N,Net-(U1-Pad+3V3)*
X132080000Y-132080000D03*
G04 #@! TO.P,U1,PE4*
G04 #@! TO.N,Net-(U1-PadPE4)*
X134620000Y-132080000D03*
G04 #@! TO.P,U1,PC4*
G04 #@! TO.N,RX_4_IC*
X137160000Y-132080000D03*
G04 #@! TO.P,U1,PC5*
G04 #@! TO.N,TX_4_IC*
X139700000Y-132080000D03*
G04 #@! TO.P,U1,PC6*
G04 #@! TO.N,Net-(U1-PadPC6)*
X142240000Y-132080000D03*
G04 #@! TO.P,U1,PE5*
G04 #@! TO.N,Net-(U1-PadPE5)*
X144780000Y-132080000D03*
G04 #@! TO.P,U1,PD3*
G04 #@! TO.N,Net-(U1-PadPD3)*
X147320000Y-132080000D03*
G04 #@! TO.P,U1,PC7*
G04 #@! TO.N,Net-(U1-PadPC7)*
X149860000Y-132080000D03*
G04 #@! TO.P,U1,PB2*
G04 #@! TO.N,Net-(U1-PadPB2)*
X152400000Y-132080000D03*
G04 #@! TO.P,U1,PB3*
G04 #@! TO.N,Net-(U1-PadPB3)*
X154940000Y-132080000D03*
G04 #@! TO.P,U1,PF1*
G04 #@! TO.N,Net-(U1-PadPF1)*
X132080000Y-88900000D03*
G04 #@! TO.P,U1,PF2*
G04 #@! TO.N,Net-(U1-PadPF2)*
X134620000Y-88900000D03*
G04 #@! TO.P,U1,PF3*
G04 #@! TO.N,Net-(U1-PadPF3)*
X137160000Y-88900000D03*
G04 #@! TO.P,U1,PG0*
G04 #@! TO.N,Net-(U1-PadPG0)*
X139700000Y-88900000D03*
G04 #@! TO.P,U1,PL4*
G04 #@! TO.N,Net-(U1-PadPL4)*
X142240000Y-88900000D03*
G04 #@! TO.P,U1,PL5*
G04 #@! TO.N,Net-(U1-PadPL5)*
X144780000Y-88900000D03*
G04 #@! TO.P,U1,PL0*
G04 #@! TO.N,Net-(U1-PadPL0)*
X147320000Y-88900000D03*
G04 #@! TO.P,U1,PL1*
G04 #@! TO.N,Net-(U1-PadPL1)*
X149860000Y-88900000D03*
G04 #@! TO.P,U1,PL2*
G04 #@! TO.N,Net-(U1-PadPL2)*
X152400000Y-88900000D03*
G04 #@! TO.P,U1,PL3*
G04 #@! TO.N,Net-(U1-PadPL3)*
X154940000Y-88900000D03*
G04 #@! TO.P,U1,GND*
G04 #@! TO.N,GND*
X132080000Y-86360000D03*
G04 #@! TO.P,U1,PM3*
G04 #@! TO.N,Net-(U1-PadPM3)*
X134620000Y-86360000D03*
G04 #@! TO.P,U1,PH2*
G04 #@! TO.N,Net-(U1-PadPH2)*
X137160000Y-86360000D03*
G04 #@! TO.P,U1,PH3*
G04 #@! TO.N,Net-(U1-PadPH3)*
X139700000Y-86360000D03*
G04 #@! TO.P,U1,Rese*
G04 #@! TO.N,Net-(U1-PadRese)*
X142240000Y-86360000D03*
G04 #@! TO.P,U1,PD1*
G04 #@! TO.N,Net-(U1-PadPD1)*
X144780000Y-86360000D03*
G04 #@! TO.P,U1,PD0*
G04 #@! TO.N,Net-(U1-PadPD0)*
X147320000Y-86360000D03*
G04 #@! TO.P,U1,PN2*
G04 #@! TO.N,Net-(U1-PadPN2)*
X149860000Y-86360000D03*
G04 #@! TO.P,U1,PN3*
G04 #@! TO.N,Laser_Control*
X152400000Y-86360000D03*
G04 #@! TO.P,U1,PP2*
G04 #@! TO.N,Solenoid_Control*
X154940000Y-86360000D03*
G04 #@! TD*
D13*
G04 #@! TO.P,U3,1*
G04 #@! TO.N,/V+Log*
X165100000Y-116840000D03*
G04 #@! TO.P,U3,2*
G04 #@! TO.N,GND*
X167640000Y-116840000D03*
G04 #@! TO.P,U3,3*
G04 #@! TO.N,+5V*
X170180000Y-116840000D03*
G04 #@! TD*
D17*
G04 #@! TO.P,C1,1*
G04 #@! TO.N,+5V*
X218440000Y-96520000D03*
D18*
G04 #@! TO.P,C1,2*
G04 #@! TO.N,GND*
X221940000Y-96520000D03*
G04 #@! TD*
G04 #@! TO.P,C2,2*
G04 #@! TO.N,GND*
X221940000Y-109220000D03*
D17*
G04 #@! TO.P,C2,1*
G04 #@! TO.N,+5V*
X218440000Y-109220000D03*
G04 #@! TD*
G04 #@! TO.P,C4,1*
G04 #@! TO.N,+5V*
X218440000Y-121920000D03*
D18*
G04 #@! TO.P,C4,2*
G04 #@! TO.N,GND*
X221940000Y-121920000D03*
G04 #@! TD*
D10*
G04 #@! TO.P,REF\002A\002A,1*
G04 #@! TO.N,Laser_Control*
X162560000Y-88900000D03*
G04 #@! TD*
D19*
G04 #@! TO.N,Servo1_PWM*
X207264000Y-90395500D03*
G04 #@! TO.N,Servo2_PWM*
X206502000Y-91694000D03*
G04 #@! TO.N,Servo3_PWM*
X203962000Y-92710000D03*
G04 #@! TO.N,SW_IND_1*
X245392000Y-102870000D03*
G04 #@! TO.N,SW_IND_2*
X245392000Y-105410000D03*
G04 #@! TO.N,SW_IND_3*
X245364000Y-107950000D03*
G04 #@! TO.N,SW_IND_ERR*
X245364000Y-110490000D03*
G04 #@! TO.N,Net-(Conn4-Pad2)*
X167640000Y-93472000D03*
X166558000Y-92390000D03*
G04 #@! TD*
D20*
G04 #@! TO.N,GND*
X172670000Y-93340000D02*
X172720000Y-93340000D01*
X170760000Y-95250000D02*
X172670000Y-93340000D01*
X162610000Y-93340000D02*
X164520000Y-95250000D01*
X162560000Y-93340000D02*
X162610000Y-93340000D01*
X167640000Y-97645787D02*
X167640000Y-95250000D01*
X167640000Y-99060000D02*
X167640000Y-97645787D01*
X164520000Y-95250000D02*
X167640000Y-95250000D01*
X167640000Y-95250000D02*
X170760000Y-95250000D01*
X162560000Y-93340000D02*
X160660000Y-93340000D01*
X162560000Y-93340000D02*
X158120000Y-93340000D01*
X157480000Y-93980000D02*
X157480000Y-96012000D01*
X158120000Y-93340000D02*
X157480000Y-93980000D01*
X157480000Y-95220000D02*
X157480000Y-96012000D01*
X157480000Y-96012000D02*
X157480000Y-101320000D01*
G04 #@! TO.N,+5V*
X205740000Y-109220000D02*
X205740000Y-107950000D01*
X207010000Y-106680000D02*
X218440000Y-106680000D01*
X205740000Y-107950000D02*
X207010000Y-106680000D01*
X218440000Y-94958000D02*
X218440000Y-96520000D01*
X217462000Y-93980000D02*
X218440000Y-94958000D01*
X207010000Y-93980000D02*
X217462000Y-93980000D01*
X205740000Y-95250000D02*
X207010000Y-93980000D01*
X205740000Y-96520000D02*
X205740000Y-95250000D01*
X205740000Y-121920000D02*
X205740000Y-120650000D01*
X207010000Y-119380000D02*
X218440000Y-119380000D01*
X205740000Y-120650000D02*
X207010000Y-119380000D01*
X218440000Y-120650000D02*
X218440000Y-119380000D01*
X218440000Y-119380000D02*
X218440000Y-106680000D01*
X218440000Y-119380000D02*
X218440000Y-121920000D01*
X170180000Y-113510000D02*
X170660000Y-113030000D01*
X170180000Y-116840000D02*
X170180000Y-113510000D01*
D21*
X247226000Y-100330000D02*
X245420000Y-100330000D01*
X247170000Y-100330000D02*
X218440000Y-100330000D01*
D20*
X218440000Y-106680000D02*
X218440000Y-100330000D01*
X218440000Y-100330000D02*
X218440000Y-96520000D01*
D21*
G04 #@! TO.N,Servo1_PWM*
X200660000Y-88900000D02*
X202184000Y-90424000D01*
X243586000Y-90424000D02*
X245872000Y-92710000D01*
X247254000Y-92710000D02*
X245872000Y-92710000D01*
X202184000Y-90424000D02*
X207264000Y-90395500D01*
X207264000Y-90395500D02*
X243586000Y-90424000D01*
X209357630Y-96520000D02*
X212598000Y-96520000D01*
X208280000Y-96520000D02*
X209357630Y-96520000D01*
G04 #@! TO.N,Servo2_PWM*
X198120000Y-90678000D02*
X198120000Y-88900000D01*
X198736001Y-91294001D02*
X198374000Y-90932000D01*
X206102001Y-91294001D02*
X198736001Y-91294001D01*
X206502000Y-91694000D02*
X206102001Y-91294001D01*
X198628000Y-91186000D02*
X198374000Y-90932000D01*
X198374000Y-90932000D02*
X198120000Y-90678000D01*
X243614000Y-91694000D02*
X244348000Y-92428000D01*
X237998000Y-91694000D02*
X243614000Y-91694000D01*
X247170000Y-95250000D02*
X244348000Y-92428000D01*
X237998000Y-91694000D02*
X240792000Y-91694000D01*
X206502000Y-91694000D02*
X237998000Y-91694000D01*
X208280000Y-109220000D02*
X212598000Y-109220000D01*
G04 #@! TO.N,Servo3_PWM*
X246634000Y-97790000D02*
X247226000Y-97790000D01*
X195580000Y-88900000D02*
X195580000Y-91186000D01*
X245618000Y-94742000D02*
X245618000Y-96774000D01*
X245618000Y-96774000D02*
X246634000Y-97790000D01*
X195580000Y-91186000D02*
X196088000Y-91694000D01*
X196088000Y-91694000D02*
X196342000Y-91948000D01*
X243586000Y-92710000D02*
X245618000Y-94742000D01*
X203962000Y-92710000D02*
X243586000Y-92710000D01*
X197104000Y-92710000D02*
X196596000Y-92202000D01*
X203962000Y-92710000D02*
X197104000Y-92710000D01*
X196850000Y-92456000D02*
X196596000Y-92202000D01*
X196596000Y-92202000D02*
X196088000Y-91694000D01*
X209357630Y-121920000D02*
X212598000Y-121920000D01*
X208280000Y-121920000D02*
X209357630Y-121920000D01*
G04 #@! TO.N,Net-(D1-Pad2)*
X191770000Y-103124000D02*
X189710000Y-103124000D01*
G04 #@! TO.N,Net-(D3-Pad2)*
X191770000Y-100584000D02*
X189710000Y-100584000D01*
G04 #@! TO.N,Net-(D8-Pad2)*
X248920000Y-92710000D02*
X250980000Y-92710000D01*
G04 #@! TO.N,Net-(D9-Pad2)*
X248920000Y-95250000D02*
X250980000Y-95250000D01*
G04 #@! TO.N,Net-(D10-Pad2)*
X248920000Y-97790000D02*
X250980000Y-97790000D01*
G04 #@! TO.N,Net-(D11-Pad2)*
X248920000Y-100330000D02*
X250980000Y-100330000D01*
G04 #@! TO.N,Net-(D12-Pad2)*
X248920000Y-102870000D02*
X250980000Y-102870000D01*
G04 #@! TO.N,Net-(D13-Pad2)*
X248920000Y-105410000D02*
X250980000Y-105410000D01*
G04 #@! TO.N,Net-(D14-Pad2)*
X248920000Y-107950000D02*
X250980000Y-107950000D01*
G04 #@! TO.N,Net-(D15-Pad2)*
X248920000Y-110490000D02*
X250980000Y-110490000D01*
G04 #@! TO.N,Laser_Control*
X162560000Y-88900000D02*
X162560000Y-91440000D01*
X162560000Y-91440000D02*
X160020000Y-91440000D01*
X160020000Y-91440000D02*
X159512000Y-91440000D01*
X159512000Y-91440000D02*
X158720000Y-91440000D01*
X156972000Y-91440000D02*
X159512000Y-91440000D01*
X156464000Y-90932000D02*
X156972000Y-91440000D01*
X156464000Y-88138000D02*
X156464000Y-90932000D01*
X155956000Y-87630000D02*
X156464000Y-88138000D01*
X153670000Y-87630000D02*
X155956000Y-87630000D01*
X152400000Y-86360000D02*
X153670000Y-87630000D01*
G04 #@! TO.N,SW_IND_1*
X247198000Y-102870000D02*
X245392000Y-102870000D01*
G04 #@! TO.N,SW_IND_2*
X247198000Y-105410000D02*
X245392000Y-105410000D01*
G04 #@! TO.N,SW_IND_3*
X247170000Y-107950000D02*
X245364000Y-107950000D01*
G04 #@! TO.N,SW_IND_ERR*
X247170000Y-110490000D02*
X245364000Y-110490000D01*
D20*
G04 #@! TO.N,+12V*
X162280000Y-121920000D02*
X157480000Y-117120000D01*
X180340000Y-121920000D02*
X162280000Y-121920000D01*
D21*
X193520000Y-101854000D02*
X180340000Y-101854000D01*
D20*
X180340000Y-101854000D02*
X180340000Y-121920000D01*
X180340000Y-96520000D02*
X180340000Y-101854000D01*
D21*
X193520000Y-101854000D02*
X193520000Y-100584000D01*
X193520000Y-103124000D02*
X193520000Y-101854000D01*
D22*
X137160000Y-117120000D02*
X157480000Y-117120000D01*
D20*
G04 #@! TO.N,/V+Log*
X161290000Y-113030000D02*
X157480000Y-109220000D01*
X162052000Y-113030000D02*
X164620000Y-113030000D01*
X162052000Y-113030000D02*
X161290000Y-113030000D01*
X163830000Y-113030000D02*
X162052000Y-113030000D01*
X165100000Y-113510000D02*
X164620000Y-113030000D01*
X165100000Y-116840000D02*
X165100000Y-113510000D01*
D22*
X157480000Y-109220000D02*
X137160000Y-109220000D01*
D21*
G04 #@! TO.N,Solenoid_Control*
X172720000Y-88900000D02*
X172720000Y-91440000D01*
X168148000Y-86360000D02*
X154940000Y-86360000D01*
X168880000Y-87092000D02*
X168148000Y-86360000D01*
X168880000Y-89916000D02*
X168880000Y-87092000D01*
X170404000Y-91440000D02*
X168880000Y-89916000D01*
X172720000Y-91440000D02*
X170404000Y-91440000D01*
D20*
G04 #@! TO.N,Net-(Conn4-Pad2)*
X164560000Y-92390000D02*
X166558000Y-92390000D01*
X166558000Y-92390000D02*
X167640000Y-93472000D01*
X182880000Y-121920000D02*
X182880000Y-109220000D01*
X166624000Y-92324000D02*
X166558000Y-92390000D01*
X166624000Y-88900000D02*
X166624000Y-92324000D01*
D21*
X182880000Y-109220000D02*
X182880000Y-103886000D01*
X183642000Y-103124000D02*
X187960000Y-103124000D01*
X182880000Y-103886000D02*
X183642000Y-103124000D01*
D20*
G04 #@! TO.N,Net-(Conn6-Pad2)*
X182880000Y-93980000D02*
X182880000Y-96520000D01*
X181290000Y-92390000D02*
X182880000Y-93980000D01*
X177800000Y-88900000D02*
X177800000Y-92390000D01*
X174720000Y-92390000D02*
X177800000Y-92390000D01*
X177800000Y-92390000D02*
X181290000Y-92390000D01*
D21*
X183642000Y-100584000D02*
X187960000Y-100584000D01*
X182880000Y-96520000D02*
X182880000Y-99822000D01*
X182880000Y-99822000D02*
X183642000Y-100584000D01*
G04 #@! TD*
D23*
G04 #@! TO.N,GND*
G36*
X157353000Y-85534500D02*
X156087328Y-85534500D01*
X155730204Y-85177376D01*
X155217483Y-84965000D01*
X154662517Y-84965000D01*
X154149796Y-85177376D01*
X153757376Y-85569796D01*
X153670000Y-85780740D01*
X153582624Y-85569796D01*
X153190204Y-85177376D01*
X152677483Y-84965000D01*
X152122517Y-84965000D01*
X151609796Y-85177376D01*
X151217376Y-85569796D01*
X151130000Y-85780740D01*
X151042624Y-85569796D01*
X150650204Y-85177376D01*
X150137483Y-84965000D01*
X149582517Y-84965000D01*
X149069796Y-85177376D01*
X148677376Y-85569796D01*
X148590000Y-85780740D01*
X148502624Y-85569796D01*
X148110204Y-85177376D01*
X147597483Y-84965000D01*
X147042517Y-84965000D01*
X146529796Y-85177376D01*
X146137376Y-85569796D01*
X146050000Y-85780740D01*
X145962624Y-85569796D01*
X145570204Y-85177376D01*
X145057483Y-84965000D01*
X144502517Y-84965000D01*
X143989796Y-85177376D01*
X143597376Y-85569796D01*
X143510000Y-85780740D01*
X143422624Y-85569796D01*
X143030204Y-85177376D01*
X142517483Y-84965000D01*
X141962517Y-84965000D01*
X141449796Y-85177376D01*
X141057376Y-85569796D01*
X140970000Y-85780740D01*
X140882624Y-85569796D01*
X140490204Y-85177376D01*
X139977483Y-84965000D01*
X139422517Y-84965000D01*
X138909796Y-85177376D01*
X138517376Y-85569796D01*
X138430000Y-85780740D01*
X138342624Y-85569796D01*
X137950204Y-85177376D01*
X137437483Y-84965000D01*
X136882517Y-84965000D01*
X136369796Y-85177376D01*
X135977376Y-85569796D01*
X135890000Y-85780740D01*
X135802624Y-85569796D01*
X135410204Y-85177376D01*
X134897483Y-84965000D01*
X134342517Y-84965000D01*
X133829796Y-85177376D01*
X133437376Y-85569796D01*
X133225000Y-86082517D01*
X133225000Y-86637483D01*
X133437376Y-87150204D01*
X133829796Y-87542624D01*
X134040740Y-87630000D01*
X133829796Y-87717376D01*
X133437376Y-88109796D01*
X133350000Y-88320740D01*
X133262624Y-88109796D01*
X132870204Y-87717376D01*
X132357483Y-87505000D01*
X131802517Y-87505000D01*
X131289796Y-87717376D01*
X130897376Y-88109796D01*
X130685000Y-88622517D01*
X130685000Y-89177483D01*
X130897376Y-89690204D01*
X131289796Y-90082624D01*
X131802517Y-90295000D01*
X132357483Y-90295000D01*
X132870204Y-90082624D01*
X133262624Y-89690204D01*
X133350000Y-89479260D01*
X133437376Y-89690204D01*
X133829796Y-90082624D01*
X134342517Y-90295000D01*
X134897483Y-90295000D01*
X135410204Y-90082624D01*
X135802624Y-89690204D01*
X135890000Y-89479260D01*
X135977376Y-89690204D01*
X136369796Y-90082624D01*
X136882517Y-90295000D01*
X137437483Y-90295000D01*
X137950204Y-90082624D01*
X138342624Y-89690204D01*
X138430000Y-89479260D01*
X138517376Y-89690204D01*
X138909796Y-90082624D01*
X139422517Y-90295000D01*
X139977483Y-90295000D01*
X140490204Y-90082624D01*
X140882624Y-89690204D01*
X140970000Y-89479260D01*
X141057376Y-89690204D01*
X141449796Y-90082624D01*
X141962517Y-90295000D01*
X142517483Y-90295000D01*
X143030204Y-90082624D01*
X143422624Y-89690204D01*
X143510000Y-89479260D01*
X143597376Y-89690204D01*
X143989796Y-90082624D01*
X144502517Y-90295000D01*
X145057483Y-90295000D01*
X145570204Y-90082624D01*
X145962624Y-89690204D01*
X146050000Y-89479260D01*
X146137376Y-89690204D01*
X146529796Y-90082624D01*
X147042517Y-90295000D01*
X147597483Y-90295000D01*
X148110204Y-90082624D01*
X148502624Y-89690204D01*
X148590000Y-89479260D01*
X148677376Y-89690204D01*
X149069796Y-90082624D01*
X149582517Y-90295000D01*
X150137483Y-90295000D01*
X150650204Y-90082624D01*
X151042624Y-89690204D01*
X151130000Y-89479260D01*
X151217376Y-89690204D01*
X151609796Y-90082624D01*
X152122517Y-90295000D01*
X152677483Y-90295000D01*
X153190204Y-90082624D01*
X153582624Y-89690204D01*
X153670000Y-89479260D01*
X153757376Y-89690204D01*
X154149796Y-90082624D01*
X154662517Y-90295000D01*
X155217483Y-90295000D01*
X155638501Y-90120609D01*
X155638501Y-90850694D01*
X155622328Y-90932000D01*
X155669227Y-91167773D01*
X155686397Y-91254094D01*
X155868849Y-91527152D01*
X155937774Y-91573206D01*
X156330793Y-91966225D01*
X156376848Y-92035152D01*
X156649906Y-92217604D01*
X156890697Y-92265500D01*
X156890701Y-92265500D01*
X156971999Y-92281671D01*
X157053297Y-92265500D01*
X157353000Y-92265500D01*
X157353000Y-101600000D01*
X157362667Y-101648601D01*
X157390197Y-101689803D01*
X157431399Y-101717333D01*
X157480000Y-101727000D01*
X177800000Y-101727000D01*
X177848601Y-101717333D01*
X177889803Y-101689803D01*
X177917333Y-101648601D01*
X177927000Y-101600000D01*
X177927000Y-93406000D01*
X180869160Y-93406000D01*
X181864000Y-94400841D01*
X181864001Y-95560342D01*
X181695680Y-95728663D01*
X181610000Y-95935513D01*
X181524320Y-95728663D01*
X181131337Y-95335680D01*
X180617881Y-95123000D01*
X180062119Y-95123000D01*
X179548663Y-95335680D01*
X179155680Y-95728663D01*
X178943000Y-96242119D01*
X178943000Y-96797881D01*
X179155680Y-97311337D01*
X179324000Y-97479657D01*
X179324001Y-101753931D01*
X179324000Y-101753936D01*
X179324000Y-108260343D01*
X179155680Y-108428663D01*
X178943000Y-108942119D01*
X178943000Y-109497881D01*
X179155680Y-110011337D01*
X179324000Y-110179657D01*
X179324001Y-120904000D01*
X162700841Y-120904000D01*
X160344564Y-118547724D01*
X160470784Y-118358823D01*
X160532985Y-118046117D01*
X160655000Y-117751547D01*
X160655000Y-117432706D01*
X160717201Y-117120000D01*
X160655000Y-116807294D01*
X160655000Y-116488453D01*
X160532985Y-116193883D01*
X160470784Y-115881177D01*
X160293650Y-115616077D01*
X160171635Y-115321507D01*
X159946181Y-115096053D01*
X159769047Y-114830953D01*
X159503947Y-114653819D01*
X159278493Y-114428365D01*
X158983923Y-114306350D01*
X158718823Y-114129216D01*
X158406117Y-114067015D01*
X158111547Y-113945000D01*
X136528453Y-113945000D01*
X136233883Y-114067015D01*
X135921177Y-114129216D01*
X135656077Y-114306350D01*
X135361507Y-114428365D01*
X135136053Y-114653819D01*
X134870953Y-114830953D01*
X134693819Y-115096053D01*
X134468365Y-115321507D01*
X134346350Y-115616077D01*
X134169216Y-115881177D01*
X134107015Y-116193883D01*
X133985000Y-116488453D01*
X133985000Y-116807294D01*
X133922799Y-117120000D01*
X133985000Y-117432706D01*
X133985000Y-117751547D01*
X134107015Y-118046117D01*
X134169216Y-118358823D01*
X134346350Y-118623923D01*
X134468365Y-118918493D01*
X134693819Y-119143947D01*
X134870953Y-119409047D01*
X135136053Y-119586181D01*
X135361507Y-119811635D01*
X135656077Y-119933650D01*
X135921177Y-120110784D01*
X136233883Y-120172985D01*
X136528453Y-120295000D01*
X158111547Y-120295000D01*
X158406117Y-120172985D01*
X158718823Y-120110784D01*
X158907724Y-119984564D01*
X161490822Y-122567663D01*
X161547505Y-122652495D01*
X161883577Y-122877051D01*
X162179935Y-122936000D01*
X162179936Y-122936000D01*
X162279999Y-122955904D01*
X162380063Y-122936000D01*
X179380343Y-122936000D01*
X179548663Y-123104320D01*
X180062119Y-123317000D01*
X180617881Y-123317000D01*
X181131337Y-123104320D01*
X181524320Y-122711337D01*
X181610000Y-122504487D01*
X181695680Y-122711337D01*
X182088663Y-123104320D01*
X182602119Y-123317000D01*
X183157881Y-123317000D01*
X183671337Y-123104320D01*
X184064320Y-122711337D01*
X184277000Y-122197881D01*
X184277000Y-121642119D01*
X184064320Y-121128663D01*
X183896000Y-120960343D01*
X183896000Y-110179657D01*
X184064320Y-110011337D01*
X184277000Y-109497881D01*
X184277000Y-108942119D01*
X184064320Y-108428663D01*
X183705500Y-108069843D01*
X183705500Y-104227932D01*
X183983933Y-103949500D01*
X187021531Y-103949500D01*
X187046753Y-103987247D01*
X187333848Y-104179078D01*
X187672500Y-104246440D01*
X188247500Y-104246440D01*
X188586152Y-104179078D01*
X188835000Y-104012803D01*
X189083848Y-104179078D01*
X189422500Y-104246440D01*
X189997500Y-104246440D01*
X190336152Y-104179078D01*
X190623247Y-103987247D01*
X190648469Y-103949500D01*
X190831531Y-103949500D01*
X190856753Y-103987247D01*
X191143848Y-104179078D01*
X191482500Y-104246440D01*
X192057500Y-104246440D01*
X192396152Y-104179078D01*
X192645000Y-104012803D01*
X192893848Y-104179078D01*
X193232500Y-104246440D01*
X193807500Y-104246440D01*
X194146152Y-104179078D01*
X194433247Y-103987247D01*
X194625078Y-103700152D01*
X194692440Y-103361500D01*
X194692440Y-102886500D01*
X194625078Y-102547848D01*
X194433247Y-102260753D01*
X194345500Y-102202122D01*
X194345500Y-101935302D01*
X194361672Y-101854000D01*
X194345500Y-101772697D01*
X194345500Y-101505878D01*
X194433247Y-101447247D01*
X194625078Y-101160152D01*
X194692440Y-100821500D01*
X194692440Y-100346500D01*
X194625078Y-100007848D01*
X194433247Y-99720753D01*
X194146152Y-99528922D01*
X193807500Y-99461560D01*
X193232500Y-99461560D01*
X192893848Y-99528922D01*
X192645000Y-99695197D01*
X192396152Y-99528922D01*
X192057500Y-99461560D01*
X191482500Y-99461560D01*
X191143848Y-99528922D01*
X190856753Y-99720753D01*
X190831531Y-99758500D01*
X190648469Y-99758500D01*
X190623247Y-99720753D01*
X190336152Y-99528922D01*
X189997500Y-99461560D01*
X189422500Y-99461560D01*
X189083848Y-99528922D01*
X188835000Y-99695197D01*
X188586152Y-99528922D01*
X188247500Y-99461560D01*
X187672500Y-99461560D01*
X187333848Y-99528922D01*
X187046753Y-99720753D01*
X187021531Y-99758500D01*
X183983933Y-99758500D01*
X183705500Y-99480068D01*
X183705500Y-97670157D01*
X184064320Y-97311337D01*
X184277000Y-96797881D01*
X184277000Y-96242119D01*
X184064320Y-95728663D01*
X183896000Y-95560343D01*
X183896000Y-94080064D01*
X183915904Y-93980000D01*
X183893710Y-93868423D01*
X183837051Y-93583577D01*
X183612495Y-93247505D01*
X183527664Y-93190823D01*
X182079180Y-91742339D01*
X182022495Y-91657505D01*
X181686423Y-91432949D01*
X181390065Y-91374000D01*
X181390063Y-91374000D01*
X181290000Y-91354096D01*
X181189937Y-91374000D01*
X178816000Y-91374000D01*
X178816000Y-90196239D01*
X179186086Y-89826153D01*
X179435000Y-89225222D01*
X179435000Y-88622517D01*
X194185000Y-88622517D01*
X194185000Y-89177483D01*
X194397376Y-89690204D01*
X194754501Y-90047329D01*
X194754501Y-91104694D01*
X194738328Y-91186000D01*
X194787450Y-91432949D01*
X194802397Y-91508094D01*
X194984849Y-91781152D01*
X195053774Y-91827206D01*
X195561773Y-92335206D01*
X196069775Y-92843208D01*
X196462793Y-93236225D01*
X196508848Y-93305152D01*
X196781906Y-93487604D01*
X197022697Y-93535500D01*
X197022701Y-93535500D01*
X197103999Y-93551671D01*
X197185297Y-93535500D01*
X203323789Y-93535500D01*
X203375720Y-93587431D01*
X203756126Y-93745000D01*
X204167874Y-93745000D01*
X204548280Y-93587431D01*
X204600211Y-93535500D01*
X206017659Y-93535500D01*
X205092337Y-94460823D01*
X205007506Y-94517505D01*
X204950823Y-94602337D01*
X204782950Y-94853577D01*
X204704096Y-95250000D01*
X204724001Y-95350068D01*
X204724001Y-95560342D01*
X204555680Y-95728663D01*
X204343000Y-96242119D01*
X204343000Y-96797881D01*
X204555680Y-97311337D01*
X204948663Y-97704320D01*
X205462119Y-97917000D01*
X206017881Y-97917000D01*
X206531337Y-97704320D01*
X206924320Y-97311337D01*
X207010000Y-97104487D01*
X207095680Y-97311337D01*
X207488663Y-97704320D01*
X208002119Y-97917000D01*
X208557881Y-97917000D01*
X209071337Y-97704320D01*
X209430157Y-97345500D01*
X211170222Y-97345500D01*
X211211914Y-97446153D01*
X211671847Y-97906086D01*
X212272778Y-98155000D01*
X212923222Y-98155000D01*
X213524153Y-97906086D01*
X213984086Y-97446153D01*
X214233000Y-96845222D01*
X214233000Y-96194778D01*
X213984086Y-95593847D01*
X213524153Y-95133914D01*
X213191199Y-94996000D01*
X217041160Y-94996000D01*
X217257218Y-95212059D01*
X217182191Y-95262191D01*
X217041843Y-95472235D01*
X216992560Y-95720000D01*
X216992560Y-97320000D01*
X217041843Y-97567765D01*
X217182191Y-97777809D01*
X217392235Y-97918157D01*
X217424001Y-97924476D01*
X217424000Y-100430064D01*
X217424001Y-100430069D01*
X217424000Y-105664000D01*
X207110063Y-105664000D01*
X207009999Y-105644096D01*
X206909935Y-105664000D01*
X206613577Y-105722949D01*
X206613576Y-105722950D01*
X206613575Y-105722950D01*
X206519375Y-105785893D01*
X206277505Y-105947505D01*
X206220822Y-106032337D01*
X205092337Y-107160823D01*
X205007506Y-107217505D01*
X204950823Y-107302337D01*
X204782950Y-107553577D01*
X204704096Y-107950000D01*
X204724001Y-108050068D01*
X204724001Y-108260342D01*
X204555680Y-108428663D01*
X204343000Y-108942119D01*
X204343000Y-109497881D01*
X204555680Y-110011337D01*
X204948663Y-110404320D01*
X205462119Y-110617000D01*
X206017881Y-110617000D01*
X206531337Y-110404320D01*
X206924320Y-110011337D01*
X207010000Y-109804487D01*
X207095680Y-110011337D01*
X207488663Y-110404320D01*
X208002119Y-110617000D01*
X208557881Y-110617000D01*
X209071337Y-110404320D01*
X209430157Y-110045500D01*
X211170222Y-110045500D01*
X211211914Y-110146153D01*
X211671847Y-110606086D01*
X212272778Y-110855000D01*
X212923222Y-110855000D01*
X213524153Y-110606086D01*
X213984086Y-110146153D01*
X214233000Y-109545222D01*
X214233000Y-108894778D01*
X213984086Y-108293847D01*
X213524153Y-107833914D01*
X213191199Y-107696000D01*
X217424001Y-107696000D01*
X217424001Y-107815524D01*
X217392235Y-107821843D01*
X217182191Y-107962191D01*
X217041843Y-108172235D01*
X216992560Y-108420000D01*
X216992560Y-110020000D01*
X217041843Y-110267765D01*
X217182191Y-110477809D01*
X217392235Y-110618157D01*
X217424001Y-110624476D01*
X217424000Y-118364000D01*
X207110063Y-118364000D01*
X207009999Y-118344096D01*
X206909935Y-118364000D01*
X206613577Y-118422949D01*
X206613576Y-118422950D01*
X206613575Y-118422950D01*
X206519375Y-118485893D01*
X206277505Y-118647505D01*
X206220822Y-118732337D01*
X205092337Y-119860823D01*
X205007506Y-119917505D01*
X204950823Y-120002337D01*
X204782950Y-120253577D01*
X204704096Y-120650000D01*
X204724001Y-120750068D01*
X204724001Y-120960342D01*
X204555680Y-121128663D01*
X204343000Y-121642119D01*
X204343000Y-122197881D01*
X204555680Y-122711337D01*
X204948663Y-123104320D01*
X205462119Y-123317000D01*
X206017881Y-123317000D01*
X206531337Y-123104320D01*
X206924320Y-122711337D01*
X207010000Y-122504487D01*
X207095680Y-122711337D01*
X207488663Y-123104320D01*
X208002119Y-123317000D01*
X208557881Y-123317000D01*
X209071337Y-123104320D01*
X209430157Y-122745500D01*
X211170222Y-122745500D01*
X211211914Y-122846153D01*
X211671847Y-123306086D01*
X212272778Y-123555000D01*
X212923222Y-123555000D01*
X213524153Y-123306086D01*
X213984086Y-122846153D01*
X214233000Y-122245222D01*
X214233000Y-121594778D01*
X213984086Y-120993847D01*
X213524153Y-120533914D01*
X213191199Y-120396000D01*
X217424000Y-120396000D01*
X217424000Y-120515525D01*
X217392235Y-120521843D01*
X217182191Y-120662191D01*
X217041843Y-120872235D01*
X216992560Y-121120000D01*
X216992560Y-122720000D01*
X217041843Y-122967765D01*
X217182191Y-123177809D01*
X217392235Y-123318157D01*
X217640000Y-123367440D01*
X219240000Y-123367440D01*
X219487765Y-123318157D01*
X219697809Y-123177809D01*
X219838157Y-122967765D01*
X219887440Y-122720000D01*
X219887440Y-121120000D01*
X219838157Y-120872235D01*
X219697809Y-120662191D01*
X219487765Y-120521843D01*
X219456000Y-120515525D01*
X219456000Y-119480064D01*
X219475904Y-119380000D01*
X219456000Y-119279935D01*
X219456000Y-110624475D01*
X219487765Y-110618157D01*
X219697809Y-110477809D01*
X219827224Y-110284126D01*
X244329000Y-110284126D01*
X244329000Y-110695874D01*
X244486569Y-111076280D01*
X244777720Y-111367431D01*
X245158126Y-111525000D01*
X245569874Y-111525000D01*
X245950280Y-111367431D01*
X246002211Y-111315500D01*
X246231531Y-111315500D01*
X246256753Y-111353247D01*
X246543848Y-111545078D01*
X246882500Y-111612440D01*
X247457500Y-111612440D01*
X247796152Y-111545078D01*
X248045000Y-111378803D01*
X248293848Y-111545078D01*
X248632500Y-111612440D01*
X249207500Y-111612440D01*
X249546152Y-111545078D01*
X249833247Y-111353247D01*
X249858469Y-111315500D01*
X250041531Y-111315500D01*
X250066753Y-111353247D01*
X250353848Y-111545078D01*
X250692500Y-111612440D01*
X251267500Y-111612440D01*
X251606152Y-111545078D01*
X251893247Y-111353247D01*
X252085078Y-111066152D01*
X252152440Y-110727500D01*
X252152440Y-110252500D01*
X252085078Y-109913848D01*
X251893247Y-109626753D01*
X251606152Y-109434922D01*
X251267500Y-109367560D01*
X250692500Y-109367560D01*
X250353848Y-109434922D01*
X250066753Y-109626753D01*
X250041531Y-109664500D01*
X249858469Y-109664500D01*
X249833247Y-109626753D01*
X249546152Y-109434922D01*
X249207500Y-109367560D01*
X248632500Y-109367560D01*
X248293848Y-109434922D01*
X248045000Y-109601197D01*
X247796152Y-109434922D01*
X247457500Y-109367560D01*
X246882500Y-109367560D01*
X246543848Y-109434922D01*
X246256753Y-109626753D01*
X246231531Y-109664500D01*
X246002211Y-109664500D01*
X245950280Y-109612569D01*
X245569874Y-109455000D01*
X245158126Y-109455000D01*
X244777720Y-109612569D01*
X244486569Y-109903720D01*
X244329000Y-110284126D01*
X219827224Y-110284126D01*
X219838157Y-110267765D01*
X219887440Y-110020000D01*
X219887440Y-108420000D01*
X219838157Y-108172235D01*
X219697809Y-107962191D01*
X219487765Y-107821843D01*
X219456000Y-107815525D01*
X219456000Y-107744126D01*
X244329000Y-107744126D01*
X244329000Y-108155874D01*
X244486569Y-108536280D01*
X244777720Y-108827431D01*
X245158126Y-108985000D01*
X245569874Y-108985000D01*
X245950280Y-108827431D01*
X246002211Y-108775500D01*
X246231531Y-108775500D01*
X246256753Y-108813247D01*
X246543848Y-109005078D01*
X246882500Y-109072440D01*
X247457500Y-109072440D01*
X247796152Y-109005078D01*
X248045000Y-108838803D01*
X248293848Y-109005078D01*
X248632500Y-109072440D01*
X249207500Y-109072440D01*
X249546152Y-109005078D01*
X249833247Y-108813247D01*
X249858469Y-108775500D01*
X250041531Y-108775500D01*
X250066753Y-108813247D01*
X250353848Y-109005078D01*
X250692500Y-109072440D01*
X251267500Y-109072440D01*
X251606152Y-109005078D01*
X251893247Y-108813247D01*
X252085078Y-108526152D01*
X252152440Y-108187500D01*
X252152440Y-107712500D01*
X252085078Y-107373848D01*
X251893247Y-107086753D01*
X251606152Y-106894922D01*
X251267500Y-106827560D01*
X250692500Y-106827560D01*
X250353848Y-106894922D01*
X250066753Y-107086753D01*
X250041531Y-107124500D01*
X249858469Y-107124500D01*
X249833247Y-107086753D01*
X249546152Y-106894922D01*
X249207500Y-106827560D01*
X248632500Y-106827560D01*
X248293848Y-106894922D01*
X248045000Y-107061197D01*
X247796152Y-106894922D01*
X247457500Y-106827560D01*
X246882500Y-106827560D01*
X246543848Y-106894922D01*
X246256753Y-107086753D01*
X246231531Y-107124500D01*
X246002211Y-107124500D01*
X245950280Y-107072569D01*
X245569874Y-106915000D01*
X245158126Y-106915000D01*
X244777720Y-107072569D01*
X244486569Y-107363720D01*
X244329000Y-107744126D01*
X219456000Y-107744126D01*
X219456000Y-106780064D01*
X219475904Y-106680000D01*
X219456000Y-106579935D01*
X219456000Y-105204126D01*
X244357000Y-105204126D01*
X244357000Y-105615874D01*
X244514569Y-105996280D01*
X244805720Y-106287431D01*
X245186126Y-106445000D01*
X245597874Y-106445000D01*
X245978280Y-106287431D01*
X246030211Y-106235500D01*
X246231531Y-106235500D01*
X246256753Y-106273247D01*
X246543848Y-106465078D01*
X246882500Y-106532440D01*
X247457500Y-106532440D01*
X247796152Y-106465078D01*
X248045000Y-106298803D01*
X248293848Y-106465078D01*
X248632500Y-106532440D01*
X249207500Y-106532440D01*
X249546152Y-106465078D01*
X249833247Y-106273247D01*
X249858469Y-106235500D01*
X250041531Y-106235500D01*
X250066753Y-106273247D01*
X250353848Y-106465078D01*
X250692500Y-106532440D01*
X251267500Y-106532440D01*
X251606152Y-106465078D01*
X251893247Y-106273247D01*
X252085078Y-105986152D01*
X252152440Y-105647500D01*
X252152440Y-105172500D01*
X252085078Y-104833848D01*
X251893247Y-104546753D01*
X251606152Y-104354922D01*
X251267500Y-104287560D01*
X250692500Y-104287560D01*
X250353848Y-104354922D01*
X250066753Y-104546753D01*
X250041531Y-104584500D01*
X249858469Y-104584500D01*
X249833247Y-104546753D01*
X249546152Y-104354922D01*
X249207500Y-104287560D01*
X248632500Y-104287560D01*
X248293848Y-104354922D01*
X248045000Y-104521197D01*
X247796152Y-104354922D01*
X247457500Y-104287560D01*
X246882500Y-104287560D01*
X246543848Y-104354922D01*
X246256753Y-104546753D01*
X246231531Y-104584500D01*
X246030211Y-104584500D01*
X245978280Y-104532569D01*
X245597874Y-104375000D01*
X245186126Y-104375000D01*
X244805720Y-104532569D01*
X244514569Y-104823720D01*
X244357000Y-105204126D01*
X219456000Y-105204126D01*
X219456000Y-102664126D01*
X244357000Y-102664126D01*
X244357000Y-103075874D01*
X244514569Y-103456280D01*
X244805720Y-103747431D01*
X245186126Y-103905000D01*
X245597874Y-103905000D01*
X245978280Y-103747431D01*
X246030211Y-103695500D01*
X246231531Y-103695500D01*
X246256753Y-103733247D01*
X246543848Y-103925078D01*
X246882500Y-103992440D01*
X247457500Y-103992440D01*
X247796152Y-103925078D01*
X248045000Y-103758803D01*
X248293848Y-103925078D01*
X248632500Y-103992440D01*
X249207500Y-103992440D01*
X249546152Y-103925078D01*
X249833247Y-103733247D01*
X249858469Y-103695500D01*
X250041531Y-103695500D01*
X250066753Y-103733247D01*
X250353848Y-103925078D01*
X250692500Y-103992440D01*
X251267500Y-103992440D01*
X251606152Y-103925078D01*
X251893247Y-103733247D01*
X252085078Y-103446152D01*
X252152440Y-103107500D01*
X252152440Y-102632500D01*
X252085078Y-102293848D01*
X251893247Y-102006753D01*
X251606152Y-101814922D01*
X251267500Y-101747560D01*
X250692500Y-101747560D01*
X250353848Y-101814922D01*
X250066753Y-102006753D01*
X250041531Y-102044500D01*
X249858469Y-102044500D01*
X249833247Y-102006753D01*
X249546152Y-101814922D01*
X249207500Y-101747560D01*
X248632500Y-101747560D01*
X248293848Y-101814922D01*
X248045000Y-101981197D01*
X247796152Y-101814922D01*
X247457500Y-101747560D01*
X246882500Y-101747560D01*
X246543848Y-101814922D01*
X246256753Y-102006753D01*
X246231531Y-102044500D01*
X246030211Y-102044500D01*
X245978280Y-101992569D01*
X245597874Y-101835000D01*
X245186126Y-101835000D01*
X244805720Y-101992569D01*
X244514569Y-102283720D01*
X244357000Y-102664126D01*
X219456000Y-102664126D01*
X219456000Y-101155500D01*
X246231531Y-101155500D01*
X246256753Y-101193247D01*
X246543848Y-101385078D01*
X246882500Y-101452440D01*
X247457500Y-101452440D01*
X247796152Y-101385078D01*
X248045000Y-101218803D01*
X248293848Y-101385078D01*
X248632500Y-101452440D01*
X249207500Y-101452440D01*
X249546152Y-101385078D01*
X249833247Y-101193247D01*
X249858469Y-101155500D01*
X250041531Y-101155500D01*
X250066753Y-101193247D01*
X250353848Y-101385078D01*
X250692500Y-101452440D01*
X251267500Y-101452440D01*
X251606152Y-101385078D01*
X251893247Y-101193247D01*
X252085078Y-100906152D01*
X252152440Y-100567500D01*
X252152440Y-100092500D01*
X252085078Y-99753848D01*
X251893247Y-99466753D01*
X251606152Y-99274922D01*
X251267500Y-99207560D01*
X250692500Y-99207560D01*
X250353848Y-99274922D01*
X250066753Y-99466753D01*
X250041531Y-99504500D01*
X249858469Y-99504500D01*
X249833247Y-99466753D01*
X249546152Y-99274922D01*
X249207500Y-99207560D01*
X248632500Y-99207560D01*
X248293848Y-99274922D01*
X248045000Y-99441197D01*
X247796152Y-99274922D01*
X247457500Y-99207560D01*
X246882500Y-99207560D01*
X246543848Y-99274922D01*
X246256753Y-99466753D01*
X246231531Y-99504500D01*
X219456000Y-99504500D01*
X219456000Y-97924475D01*
X219487765Y-97918157D01*
X219697809Y-97777809D01*
X219838157Y-97567765D01*
X219887440Y-97320000D01*
X219887440Y-95720000D01*
X219838157Y-95472235D01*
X219697809Y-95262191D01*
X219487765Y-95121843D01*
X219456000Y-95115525D01*
X219456000Y-95058063D01*
X219475904Y-94958000D01*
X219432939Y-94742000D01*
X219397051Y-94561577D01*
X219172495Y-94225505D01*
X219087663Y-94168823D01*
X218454340Y-93535500D01*
X243244068Y-93535500D01*
X244792500Y-95083933D01*
X244792501Y-96692694D01*
X244776328Y-96774000D01*
X244840397Y-97096094D01*
X245022849Y-97369152D01*
X245091775Y-97415207D01*
X245992793Y-98316226D01*
X246038848Y-98385152D01*
X246108888Y-98431951D01*
X246256753Y-98653247D01*
X246543848Y-98845078D01*
X246882500Y-98912440D01*
X247457500Y-98912440D01*
X247796152Y-98845078D01*
X248045000Y-98678803D01*
X248293848Y-98845078D01*
X248632500Y-98912440D01*
X249207500Y-98912440D01*
X249546152Y-98845078D01*
X249833247Y-98653247D01*
X249858469Y-98615500D01*
X250041531Y-98615500D01*
X250066753Y-98653247D01*
X250353848Y-98845078D01*
X250692500Y-98912440D01*
X251267500Y-98912440D01*
X251606152Y-98845078D01*
X251893247Y-98653247D01*
X252085078Y-98366152D01*
X252152440Y-98027500D01*
X252152440Y-97552500D01*
X252085078Y-97213848D01*
X251893247Y-96926753D01*
X251606152Y-96734922D01*
X251267500Y-96667560D01*
X250692500Y-96667560D01*
X250353848Y-96734922D01*
X250066753Y-96926753D01*
X250041531Y-96964500D01*
X249858469Y-96964500D01*
X249833247Y-96926753D01*
X249546152Y-96734922D01*
X249207500Y-96667560D01*
X248632500Y-96667560D01*
X248293848Y-96734922D01*
X248045000Y-96901197D01*
X247796152Y-96734922D01*
X247457500Y-96667560D01*
X246882500Y-96667560D01*
X246712757Y-96701324D01*
X246443500Y-96432068D01*
X246443500Y-96238028D01*
X246543848Y-96305078D01*
X246882500Y-96372440D01*
X247457500Y-96372440D01*
X247796152Y-96305078D01*
X248045000Y-96138803D01*
X248293848Y-96305078D01*
X248632500Y-96372440D01*
X249207500Y-96372440D01*
X249546152Y-96305078D01*
X249833247Y-96113247D01*
X249858469Y-96075500D01*
X250041531Y-96075500D01*
X250066753Y-96113247D01*
X250353848Y-96305078D01*
X250692500Y-96372440D01*
X251267500Y-96372440D01*
X251606152Y-96305078D01*
X251893247Y-96113247D01*
X252085078Y-95826152D01*
X252152440Y-95487500D01*
X252152440Y-95012500D01*
X252085078Y-94673848D01*
X251893247Y-94386753D01*
X251606152Y-94194922D01*
X251267500Y-94127560D01*
X250692500Y-94127560D01*
X250353848Y-94194922D01*
X250066753Y-94386753D01*
X250041531Y-94424500D01*
X249858469Y-94424500D01*
X249833247Y-94386753D01*
X249546152Y-94194922D01*
X249207500Y-94127560D01*
X248632500Y-94127560D01*
X248293848Y-94194922D01*
X248045000Y-94361197D01*
X247796152Y-94194922D01*
X247457500Y-94127560D01*
X247214993Y-94127560D01*
X246919873Y-93832440D01*
X247457500Y-93832440D01*
X247796152Y-93765078D01*
X248045000Y-93598803D01*
X248293848Y-93765078D01*
X248632500Y-93832440D01*
X249207500Y-93832440D01*
X249546152Y-93765078D01*
X249833247Y-93573247D01*
X249858469Y-93535500D01*
X250041531Y-93535500D01*
X250066753Y-93573247D01*
X250353848Y-93765078D01*
X250692500Y-93832440D01*
X251267500Y-93832440D01*
X251606152Y-93765078D01*
X251893247Y-93573247D01*
X252085078Y-93286152D01*
X252152440Y-92947500D01*
X252152440Y-92472500D01*
X252085078Y-92133848D01*
X251893247Y-91846753D01*
X251606152Y-91654922D01*
X251267500Y-91587560D01*
X250692500Y-91587560D01*
X250353848Y-91654922D01*
X250066753Y-91846753D01*
X250041531Y-91884500D01*
X249858469Y-91884500D01*
X249833247Y-91846753D01*
X249546152Y-91654922D01*
X249207500Y-91587560D01*
X248632500Y-91587560D01*
X248293848Y-91654922D01*
X248045000Y-91821197D01*
X247796152Y-91654922D01*
X247457500Y-91587560D01*
X246882500Y-91587560D01*
X246543848Y-91654922D01*
X246256753Y-91846753D01*
X246231531Y-91884500D01*
X246213933Y-91884500D01*
X244227436Y-89898004D01*
X244181618Y-89829316D01*
X244112458Y-89783026D01*
X244112226Y-89782794D01*
X244044851Y-89737775D01*
X243908703Y-89646649D01*
X243908372Y-89646583D01*
X243908094Y-89646397D01*
X243747023Y-89614358D01*
X243667950Y-89598565D01*
X243667627Y-89598565D01*
X243586000Y-89582328D01*
X243505014Y-89598437D01*
X219668382Y-89579734D01*
X219835000Y-89177483D01*
X219835000Y-88622517D01*
X219622624Y-88109796D01*
X219230204Y-87717376D01*
X219019260Y-87630000D01*
X219230204Y-87542624D01*
X219622624Y-87150204D01*
X219835000Y-86637483D01*
X219835000Y-86082517D01*
X219622624Y-85569796D01*
X219230204Y-85177376D01*
X218717483Y-84965000D01*
X218162517Y-84965000D01*
X217649796Y-85177376D01*
X217257376Y-85569796D01*
X217170000Y-85780740D01*
X217082624Y-85569796D01*
X216690204Y-85177376D01*
X216177483Y-84965000D01*
X215622517Y-84965000D01*
X215109796Y-85177376D01*
X214717376Y-85569796D01*
X214630000Y-85780740D01*
X214542624Y-85569796D01*
X214150204Y-85177376D01*
X213637483Y-84965000D01*
X213082517Y-84965000D01*
X212569796Y-85177376D01*
X212177376Y-85569796D01*
X212090000Y-85780740D01*
X212002624Y-85569796D01*
X211610204Y-85177376D01*
X211097483Y-84965000D01*
X210542517Y-84965000D01*
X210029796Y-85177376D01*
X209637376Y-85569796D01*
X209550000Y-85780740D01*
X209462624Y-85569796D01*
X209070204Y-85177376D01*
X208557483Y-84965000D01*
X208002517Y-84965000D01*
X207489796Y-85177376D01*
X207097376Y-85569796D01*
X207010000Y-85780740D01*
X206922624Y-85569796D01*
X206530204Y-85177376D01*
X206017483Y-84965000D01*
X205462517Y-84965000D01*
X204949796Y-85177376D01*
X204557376Y-85569796D01*
X204470000Y-85780740D01*
X204382624Y-85569796D01*
X203990204Y-85177376D01*
X203477483Y-84965000D01*
X202922517Y-84965000D01*
X202409796Y-85177376D01*
X202017376Y-85569796D01*
X201930000Y-85780740D01*
X201842624Y-85569796D01*
X201450204Y-85177376D01*
X200937483Y-84965000D01*
X200382517Y-84965000D01*
X199869796Y-85177376D01*
X199477376Y-85569796D01*
X199390000Y-85780740D01*
X199302624Y-85569796D01*
X198910204Y-85177376D01*
X198397483Y-84965000D01*
X197842517Y-84965000D01*
X197329796Y-85177376D01*
X196937376Y-85569796D01*
X196725000Y-86082517D01*
X196725000Y-86637483D01*
X196937376Y-87150204D01*
X197329796Y-87542624D01*
X197540740Y-87630000D01*
X197329796Y-87717376D01*
X196937376Y-88109796D01*
X196850000Y-88320740D01*
X196762624Y-88109796D01*
X196370204Y-87717376D01*
X195857483Y-87505000D01*
X195302517Y-87505000D01*
X194789796Y-87717376D01*
X194397376Y-88109796D01*
X194185000Y-88622517D01*
X179435000Y-88622517D01*
X179435000Y-88574778D01*
X179186086Y-87973847D01*
X178726153Y-87513914D01*
X178125222Y-87265000D01*
X177927000Y-87265000D01*
X177927000Y-84505000D01*
X253189197Y-84505000D01*
X253614097Y-84565851D01*
X253959959Y-84723105D01*
X254247784Y-84971110D01*
X254454432Y-85289929D01*
X254570079Y-85676626D01*
X254585001Y-85877426D01*
X254585000Y-110949196D01*
X254524149Y-111374098D01*
X254366895Y-111719959D01*
X254118891Y-112007782D01*
X253800071Y-112214432D01*
X253413373Y-112330079D01*
X253212587Y-112345000D01*
X237557462Y-112345000D01*
X237490000Y-112331581D01*
X237422539Y-112345000D01*
X237422538Y-112345000D01*
X237222727Y-112384745D01*
X236996143Y-112536143D01*
X236844745Y-112762727D01*
X236791581Y-113030000D01*
X236805001Y-113097467D01*
X236805000Y-133790538D01*
X236791581Y-133858000D01*
X236844745Y-134125273D01*
X236996143Y-134351857D01*
X237222727Y-134503255D01*
X237490000Y-134556419D01*
X237557461Y-134543000D01*
X253189197Y-134543000D01*
X253614097Y-134603851D01*
X253959959Y-134761105D01*
X254247784Y-135009110D01*
X254454432Y-135327929D01*
X254570079Y-135714626D01*
X254585001Y-135915426D01*
X254585000Y-143440378D01*
X254221404Y-143549116D01*
X254137032Y-143588101D01*
X254052147Y-143626072D01*
X254045096Y-143630581D01*
X253561637Y-143943945D01*
X253491596Y-144005045D01*
X253420783Y-144065312D01*
X253415285Y-144071615D01*
X253415281Y-144071619D01*
X253415278Y-144071624D01*
X253039205Y-144508078D01*
X252989120Y-144586393D01*
X252938076Y-144664100D01*
X252934569Y-144671691D01*
X252934565Y-144671697D01*
X252934563Y-144671703D01*
X252696105Y-145196164D01*
X252670023Y-145285358D01*
X252642831Y-145374298D01*
X252641594Y-145382575D01*
X252559918Y-145952891D01*
X252559918Y-146022763D01*
X252554314Y-146092415D01*
X252554884Y-146100765D01*
X252577204Y-146401114D01*
X252592207Y-146469353D01*
X252601691Y-146538585D01*
X252604040Y-146546618D01*
X252769116Y-147098595D01*
X252808094Y-147182951D01*
X252846072Y-147267853D01*
X252850582Y-147274904D01*
X253163945Y-147758363D01*
X253225045Y-147828404D01*
X253285312Y-147899217D01*
X253291615Y-147904715D01*
X253291619Y-147904719D01*
X253291624Y-147904722D01*
X253728078Y-148280795D01*
X253806393Y-148330880D01*
X253884100Y-148381924D01*
X253891691Y-148385431D01*
X253891697Y-148385435D01*
X253891703Y-148385437D01*
X254416164Y-148623895D01*
X254505358Y-148649977D01*
X254585001Y-148674327D01*
X254585000Y-156669196D01*
X254524149Y-157094098D01*
X254366895Y-157439959D01*
X254118891Y-157727782D01*
X253800071Y-157934432D01*
X253413373Y-158050079D01*
X253212587Y-158065000D01*
X132890804Y-158065000D01*
X132465902Y-158004149D01*
X132120041Y-157846895D01*
X131832218Y-157598891D01*
X131625568Y-157280071D01*
X131509921Y-156893373D01*
X131495000Y-156692587D01*
X131495000Y-148659622D01*
X131858595Y-148550884D01*
X131942951Y-148511906D01*
X132027853Y-148473928D01*
X132034901Y-148469420D01*
X132034905Y-148469418D01*
X132518363Y-148156055D01*
X132588404Y-148094955D01*
X132659217Y-148034688D01*
X132664715Y-148028385D01*
X132664719Y-148028381D01*
X132664722Y-148028376D01*
X133040795Y-147591922D01*
X133090880Y-147513607D01*
X133141924Y-147435900D01*
X133145431Y-147428309D01*
X133145435Y-147428303D01*
X133145437Y-147428297D01*
X133383895Y-146903836D01*
X133409977Y-146814642D01*
X133437169Y-146725702D01*
X133438406Y-146717424D01*
X133520082Y-146147109D01*
X133520082Y-146077236D01*
X133525686Y-146007585D01*
X133525116Y-145999235D01*
X133502796Y-145698886D01*
X133487792Y-145630643D01*
X133478309Y-145561414D01*
X133475960Y-145553382D01*
X133310884Y-145001404D01*
X133271899Y-144917032D01*
X133233928Y-144832147D01*
X133229419Y-144825096D01*
X132916055Y-144341637D01*
X132854955Y-144271596D01*
X132794688Y-144200783D01*
X132788385Y-144195285D01*
X132788381Y-144195281D01*
X132788376Y-144195278D01*
X132351922Y-143819205D01*
X132273607Y-143769120D01*
X132195900Y-143718076D01*
X132188309Y-143714569D01*
X132188303Y-143714565D01*
X132188297Y-143714563D01*
X131663836Y-143476105D01*
X131574642Y-143450023D01*
X131485702Y-143422831D01*
X131482156Y-143422301D01*
X131259672Y-133232500D01*
X131289796Y-133262624D01*
X131802517Y-133475000D01*
X132357483Y-133475000D01*
X132870204Y-133262624D01*
X133262624Y-132870204D01*
X133350000Y-132659260D01*
X133437376Y-132870204D01*
X133829796Y-133262624D01*
X134342517Y-133475000D01*
X134897483Y-133475000D01*
X135410204Y-133262624D01*
X135802624Y-132870204D01*
X135890000Y-132659260D01*
X135977376Y-132870204D01*
X136369796Y-133262624D01*
X136882517Y-133475000D01*
X137437483Y-133475000D01*
X137950204Y-133262624D01*
X138342624Y-132870204D01*
X138430000Y-132659260D01*
X138517376Y-132870204D01*
X138909796Y-133262624D01*
X139422517Y-133475000D01*
X139977483Y-133475000D01*
X140490204Y-133262624D01*
X140882624Y-132870204D01*
X140970000Y-132659260D01*
X141057376Y-132870204D01*
X141449796Y-133262624D01*
X141962517Y-133475000D01*
X142517483Y-133475000D01*
X143030204Y-133262624D01*
X143422624Y-132870204D01*
X143510000Y-132659260D01*
X143597376Y-132870204D01*
X143989796Y-133262624D01*
X144502517Y-133475000D01*
X145057483Y-133475000D01*
X145570204Y-133262624D01*
X145962624Y-132870204D01*
X146050000Y-132659260D01*
X146137376Y-132870204D01*
X146529796Y-133262624D01*
X147042517Y-133475000D01*
X147597483Y-133475000D01*
X148110204Y-133262624D01*
X148502624Y-132870204D01*
X148590000Y-132659260D01*
X148677376Y-132870204D01*
X149069796Y-133262624D01*
X149582517Y-133475000D01*
X150137483Y-133475000D01*
X150650204Y-133262624D01*
X151042624Y-132870204D01*
X151130000Y-132659260D01*
X151217376Y-132870204D01*
X151609796Y-133262624D01*
X152122517Y-133475000D01*
X152677483Y-133475000D01*
X153190204Y-133262624D01*
X153582624Y-132870204D01*
X153670000Y-132659260D01*
X153757376Y-132870204D01*
X154149796Y-133262624D01*
X154662517Y-133475000D01*
X155217483Y-133475000D01*
X155730204Y-133262624D01*
X156122624Y-132870204D01*
X156335000Y-132357483D01*
X156335000Y-131802517D01*
X156122624Y-131289796D01*
X155730204Y-130897376D01*
X155519260Y-130810000D01*
X155730204Y-130722624D01*
X156122624Y-130330204D01*
X156335000Y-129817483D01*
X156335000Y-129262517D01*
X194185000Y-129262517D01*
X194185000Y-129817483D01*
X194397376Y-130330204D01*
X194789796Y-130722624D01*
X195000740Y-130810000D01*
X194789796Y-130897376D01*
X194397376Y-131289796D01*
X194185000Y-131802517D01*
X194185000Y-132357483D01*
X194397376Y-132870204D01*
X194789796Y-133262624D01*
X195302517Y-133475000D01*
X195857483Y-133475000D01*
X196370204Y-133262624D01*
X196762624Y-132870204D01*
X196850000Y-132659260D01*
X196937376Y-132870204D01*
X197329796Y-133262624D01*
X197842517Y-133475000D01*
X198397483Y-133475000D01*
X198910204Y-133262624D01*
X199302624Y-132870204D01*
X199390000Y-132659260D01*
X199477376Y-132870204D01*
X199869796Y-133262624D01*
X200382517Y-133475000D01*
X200937483Y-133475000D01*
X201450204Y-133262624D01*
X201842624Y-132870204D01*
X201930000Y-132659260D01*
X202017376Y-132870204D01*
X202409796Y-133262624D01*
X202922517Y-133475000D01*
X203477483Y-133475000D01*
X203990204Y-133262624D01*
X204382624Y-132870204D01*
X204470000Y-132659260D01*
X204557376Y-132870204D01*
X204949796Y-133262624D01*
X205462517Y-133475000D01*
X206017483Y-133475000D01*
X206530204Y-133262624D01*
X206922624Y-132870204D01*
X207010000Y-132659260D01*
X207097376Y-132870204D01*
X207489796Y-133262624D01*
X208002517Y-133475000D01*
X208557483Y-133475000D01*
X209070204Y-133262624D01*
X209462624Y-132870204D01*
X209550000Y-132659260D01*
X209637376Y-132870204D01*
X210029796Y-133262624D01*
X210542517Y-133475000D01*
X211097483Y-133475000D01*
X211610204Y-133262624D01*
X212002624Y-132870204D01*
X212090000Y-132659260D01*
X212177376Y-132870204D01*
X212569796Y-133262624D01*
X213082517Y-133475000D01*
X213637483Y-133475000D01*
X214150204Y-133262624D01*
X214542624Y-132870204D01*
X214630000Y-132659260D01*
X214717376Y-132870204D01*
X215109796Y-133262624D01*
X215622517Y-133475000D01*
X216177483Y-133475000D01*
X216690204Y-133262624D01*
X217082624Y-132870204D01*
X217170000Y-132659260D01*
X217257376Y-132870204D01*
X217649796Y-133262624D01*
X218162517Y-133475000D01*
X218717483Y-133475000D01*
X219230204Y-133262624D01*
X219622624Y-132870204D01*
X219835000Y-132357483D01*
X219835000Y-131802517D01*
X219622624Y-131289796D01*
X219230204Y-130897376D01*
X219019260Y-130810000D01*
X219230204Y-130722624D01*
X219622624Y-130330204D01*
X219835000Y-129817483D01*
X219835000Y-129262517D01*
X219622624Y-128749796D01*
X219230204Y-128357376D01*
X218717483Y-128145000D01*
X218162517Y-128145000D01*
X217649796Y-128357376D01*
X217257376Y-128749796D01*
X217170000Y-128960740D01*
X217082624Y-128749796D01*
X216690204Y-128357376D01*
X216177483Y-128145000D01*
X215622517Y-128145000D01*
X215109796Y-128357376D01*
X214717376Y-128749796D01*
X214630000Y-128960740D01*
X214542624Y-128749796D01*
X214150204Y-128357376D01*
X213637483Y-128145000D01*
X213082517Y-128145000D01*
X212569796Y-128357376D01*
X212177376Y-128749796D01*
X212090000Y-128960740D01*
X212002624Y-128749796D01*
X211610204Y-128357376D01*
X211097483Y-128145000D01*
X210542517Y-128145000D01*
X210029796Y-128357376D01*
X209637376Y-128749796D01*
X209550000Y-128960740D01*
X209462624Y-128749796D01*
X209070204Y-128357376D01*
X208557483Y-128145000D01*
X208002517Y-128145000D01*
X207489796Y-128357376D01*
X207097376Y-128749796D01*
X207010000Y-128960740D01*
X206922624Y-128749796D01*
X206530204Y-128357376D01*
X206017483Y-128145000D01*
X205462517Y-128145000D01*
X204949796Y-128357376D01*
X204557376Y-128749796D01*
X204470000Y-128960740D01*
X204382624Y-128749796D01*
X203990204Y-128357376D01*
X203477483Y-128145000D01*
X202922517Y-128145000D01*
X202409796Y-128357376D01*
X202017376Y-128749796D01*
X201930000Y-128960740D01*
X201842624Y-128749796D01*
X201450204Y-128357376D01*
X200937483Y-128145000D01*
X200382517Y-128145000D01*
X199869796Y-128357376D01*
X199477376Y-128749796D01*
X199265000Y-129262517D01*
X199265000Y-129817483D01*
X199477376Y-130330204D01*
X199869796Y-130722624D01*
X200080740Y-130810000D01*
X199869796Y-130897376D01*
X199477376Y-131289796D01*
X199390000Y-131500740D01*
X199302624Y-131289796D01*
X198910204Y-130897376D01*
X198397483Y-130685000D01*
X197842517Y-130685000D01*
X197329796Y-130897376D01*
X196937376Y-131289796D01*
X196850000Y-131500740D01*
X196762624Y-131289796D01*
X196370204Y-130897376D01*
X196159260Y-130810000D01*
X196370204Y-130722624D01*
X196762624Y-130330204D01*
X196975000Y-129817483D01*
X196975000Y-129262517D01*
X196762624Y-128749796D01*
X196370204Y-128357376D01*
X195857483Y-128145000D01*
X195302517Y-128145000D01*
X194789796Y-128357376D01*
X194397376Y-128749796D01*
X194185000Y-129262517D01*
X156335000Y-129262517D01*
X156122624Y-128749796D01*
X155730204Y-128357376D01*
X155217483Y-128145000D01*
X154662517Y-128145000D01*
X154149796Y-128357376D01*
X153757376Y-128749796D01*
X153670000Y-128960740D01*
X153582624Y-128749796D01*
X153190204Y-128357376D01*
X152677483Y-128145000D01*
X152122517Y-128145000D01*
X151609796Y-128357376D01*
X151217376Y-128749796D01*
X151130000Y-128960740D01*
X151042624Y-128749796D01*
X150650204Y-128357376D01*
X150137483Y-128145000D01*
X149582517Y-128145000D01*
X149069796Y-128357376D01*
X148677376Y-128749796D01*
X148590000Y-128960740D01*
X148502624Y-128749796D01*
X148110204Y-128357376D01*
X147597483Y-128145000D01*
X147042517Y-128145000D01*
X146529796Y-128357376D01*
X146137376Y-128749796D01*
X146050000Y-128960740D01*
X145962624Y-128749796D01*
X145570204Y-128357376D01*
X145057483Y-128145000D01*
X144502517Y-128145000D01*
X143989796Y-128357376D01*
X143597376Y-128749796D01*
X143510000Y-128960740D01*
X143422624Y-128749796D01*
X143030204Y-128357376D01*
X142517483Y-128145000D01*
X141962517Y-128145000D01*
X141449796Y-128357376D01*
X141057376Y-128749796D01*
X140970000Y-128960740D01*
X140882624Y-128749796D01*
X140490204Y-128357376D01*
X139977483Y-128145000D01*
X139422517Y-128145000D01*
X138909796Y-128357376D01*
X138517376Y-128749796D01*
X138430000Y-128960740D01*
X138342624Y-128749796D01*
X137950204Y-128357376D01*
X137437483Y-128145000D01*
X136882517Y-128145000D01*
X136369796Y-128357376D01*
X135977376Y-128749796D01*
X135765000Y-129262517D01*
X135765000Y-129817483D01*
X135977376Y-130330204D01*
X136369796Y-130722624D01*
X136580740Y-130810000D01*
X136369796Y-130897376D01*
X135977376Y-131289796D01*
X135890000Y-131500740D01*
X135802624Y-131289796D01*
X135410204Y-130897376D01*
X134897483Y-130685000D01*
X134342517Y-130685000D01*
X133829796Y-130897376D01*
X133437376Y-131289796D01*
X133350000Y-131500740D01*
X133262624Y-131289796D01*
X132870204Y-130897376D01*
X132659260Y-130810000D01*
X132870204Y-130722624D01*
X133262624Y-130330204D01*
X133475000Y-129817483D01*
X133475000Y-129262517D01*
X133262624Y-128749796D01*
X132870204Y-128357376D01*
X132357483Y-128145000D01*
X131802517Y-128145000D01*
X131289796Y-128357376D01*
X131156146Y-128491026D01*
X130735382Y-109220000D01*
X133922799Y-109220000D01*
X133985000Y-109532706D01*
X133985000Y-109851547D01*
X134107015Y-110146117D01*
X134169216Y-110458823D01*
X134346350Y-110723923D01*
X134468365Y-111018493D01*
X134693819Y-111243947D01*
X134870953Y-111509047D01*
X135136053Y-111686181D01*
X135361507Y-111911635D01*
X135656077Y-112033650D01*
X135921177Y-112210784D01*
X136233883Y-112272985D01*
X136528453Y-112395000D01*
X158111547Y-112395000D01*
X158406117Y-112272985D01*
X158718823Y-112210784D01*
X158907724Y-112084564D01*
X160500822Y-113677663D01*
X160557505Y-113762495D01*
X160893577Y-113987051D01*
X161189935Y-114046000D01*
X161189936Y-114046000D01*
X161290000Y-114065904D01*
X161390064Y-114046000D01*
X163935364Y-114046000D01*
X163993848Y-114085078D01*
X164084001Y-114103010D01*
X164084000Y-115880343D01*
X163915680Y-116048663D01*
X163703000Y-116562119D01*
X163703000Y-117117881D01*
X163915680Y-117631337D01*
X164308663Y-118024320D01*
X164822119Y-118237000D01*
X165377881Y-118237000D01*
X165891337Y-118024320D01*
X166284320Y-117631337D01*
X166497000Y-117117881D01*
X166497000Y-116562119D01*
X168783000Y-116562119D01*
X168783000Y-117117881D01*
X168995680Y-117631337D01*
X169388663Y-118024320D01*
X169902119Y-118237000D01*
X170457881Y-118237000D01*
X170971337Y-118024320D01*
X171364320Y-117631337D01*
X171577000Y-117117881D01*
X171577000Y-116562119D01*
X171364320Y-116048663D01*
X171196000Y-115880343D01*
X171196000Y-114103010D01*
X171286152Y-114085078D01*
X171573247Y-113893247D01*
X171765078Y-113606152D01*
X171832440Y-113267500D01*
X171832440Y-112792500D01*
X171765078Y-112453848D01*
X171573247Y-112166753D01*
X171286152Y-111974922D01*
X170947500Y-111907560D01*
X170372500Y-111907560D01*
X170033848Y-111974922D01*
X169746753Y-112166753D01*
X169554922Y-112453848D01*
X169497139Y-112744341D01*
X169447506Y-112777505D01*
X169390823Y-112862337D01*
X169222950Y-113113577D01*
X169144096Y-113510000D01*
X169164001Y-113610068D01*
X169164000Y-115880343D01*
X168995680Y-116048663D01*
X168783000Y-116562119D01*
X166497000Y-116562119D01*
X166284320Y-116048663D01*
X166116000Y-115880343D01*
X166116000Y-113610064D01*
X166135904Y-113510000D01*
X166092382Y-113291200D01*
X166057051Y-113113577D01*
X165832495Y-112777505D01*
X165782860Y-112744340D01*
X165725078Y-112453848D01*
X165533247Y-112166753D01*
X165246152Y-111974922D01*
X164907500Y-111907560D01*
X164332500Y-111907560D01*
X163993848Y-111974922D01*
X163935364Y-112014000D01*
X161710841Y-112014000D01*
X160344564Y-110647724D01*
X160470784Y-110458823D01*
X160532985Y-110146117D01*
X160655000Y-109851547D01*
X160655000Y-109532706D01*
X160717201Y-109220000D01*
X160655000Y-108907294D01*
X160655000Y-108588453D01*
X160532985Y-108293883D01*
X160470784Y-107981177D01*
X160293650Y-107716077D01*
X160171635Y-107421507D01*
X159946181Y-107196053D01*
X159769047Y-106930953D01*
X159503947Y-106753819D01*
X159278493Y-106528365D01*
X158983923Y-106406350D01*
X158718823Y-106229216D01*
X158406117Y-106167015D01*
X158111547Y-106045000D01*
X136528453Y-106045000D01*
X136233883Y-106167015D01*
X135921177Y-106229216D01*
X135656077Y-106406350D01*
X135361507Y-106528365D01*
X135136053Y-106753819D01*
X134870953Y-106930953D01*
X134693819Y-107196053D01*
X134468365Y-107421507D01*
X134346350Y-107716077D01*
X134169216Y-107981177D01*
X134107015Y-108293883D01*
X133985000Y-108588453D01*
X133985000Y-108907294D01*
X133922799Y-109220000D01*
X130735382Y-109220000D01*
X130226066Y-85893359D01*
X130285851Y-85475903D01*
X130443105Y-85130041D01*
X130691110Y-84842216D01*
X131009929Y-84635568D01*
X131396626Y-84519921D01*
X131597413Y-84505000D01*
X157353000Y-84505000D01*
X157353000Y-85534500D01*
X157353000Y-85534500D01*
G37*
X157353000Y-85534500D02*
X156087328Y-85534500D01*
X155730204Y-85177376D01*
X155217483Y-84965000D01*
X154662517Y-84965000D01*
X154149796Y-85177376D01*
X153757376Y-85569796D01*
X153670000Y-85780740D01*
X153582624Y-85569796D01*
X153190204Y-85177376D01*
X152677483Y-84965000D01*
X152122517Y-84965000D01*
X151609796Y-85177376D01*
X151217376Y-85569796D01*
X151130000Y-85780740D01*
X151042624Y-85569796D01*
X150650204Y-85177376D01*
X150137483Y-84965000D01*
X149582517Y-84965000D01*
X149069796Y-85177376D01*
X148677376Y-85569796D01*
X148590000Y-85780740D01*
X148502624Y-85569796D01*
X148110204Y-85177376D01*
X147597483Y-84965000D01*
X147042517Y-84965000D01*
X146529796Y-85177376D01*
X146137376Y-85569796D01*
X146050000Y-85780740D01*
X145962624Y-85569796D01*
X145570204Y-85177376D01*
X145057483Y-84965000D01*
X144502517Y-84965000D01*
X143989796Y-85177376D01*
X143597376Y-85569796D01*
X143510000Y-85780740D01*
X143422624Y-85569796D01*
X143030204Y-85177376D01*
X142517483Y-84965000D01*
X141962517Y-84965000D01*
X141449796Y-85177376D01*
X141057376Y-85569796D01*
X140970000Y-85780740D01*
X140882624Y-85569796D01*
X140490204Y-85177376D01*
X139977483Y-84965000D01*
X139422517Y-84965000D01*
X138909796Y-85177376D01*
X138517376Y-85569796D01*
X138430000Y-85780740D01*
X138342624Y-85569796D01*
X137950204Y-85177376D01*
X137437483Y-84965000D01*
X136882517Y-84965000D01*
X136369796Y-85177376D01*
X135977376Y-85569796D01*
X135890000Y-85780740D01*
X135802624Y-85569796D01*
X135410204Y-85177376D01*
X134897483Y-84965000D01*
X134342517Y-84965000D01*
X133829796Y-85177376D01*
X133437376Y-85569796D01*
X133225000Y-86082517D01*
X133225000Y-86637483D01*
X133437376Y-87150204D01*
X133829796Y-87542624D01*
X134040740Y-87630000D01*
X133829796Y-87717376D01*
X133437376Y-88109796D01*
X133350000Y-88320740D01*
X133262624Y-88109796D01*
X132870204Y-87717376D01*
X132357483Y-87505000D01*
X131802517Y-87505000D01*
X131289796Y-87717376D01*
X130897376Y-88109796D01*
X130685000Y-88622517D01*
X130685000Y-89177483D01*
X130897376Y-89690204D01*
X131289796Y-90082624D01*
X131802517Y-90295000D01*
X132357483Y-90295000D01*
X132870204Y-90082624D01*
X133262624Y-89690204D01*
X133350000Y-89479260D01*
X133437376Y-89690204D01*
X133829796Y-90082624D01*
X134342517Y-90295000D01*
X134897483Y-90295000D01*
X135410204Y-90082624D01*
X135802624Y-89690204D01*
X135890000Y-89479260D01*
X135977376Y-89690204D01*
X136369796Y-90082624D01*
X136882517Y-90295000D01*
X137437483Y-90295000D01*
X137950204Y-90082624D01*
X138342624Y-89690204D01*
X138430000Y-89479260D01*
X138517376Y-89690204D01*
X138909796Y-90082624D01*
X139422517Y-90295000D01*
X139977483Y-90295000D01*
X140490204Y-90082624D01*
X140882624Y-89690204D01*
X140970000Y-89479260D01*
X141057376Y-89690204D01*
X141449796Y-90082624D01*
X141962517Y-90295000D01*
X142517483Y-90295000D01*
X143030204Y-90082624D01*
X143422624Y-89690204D01*
X143510000Y-89479260D01*
X143597376Y-89690204D01*
X143989796Y-90082624D01*
X144502517Y-90295000D01*
X145057483Y-90295000D01*
X145570204Y-90082624D01*
X145962624Y-89690204D01*
X146050000Y-89479260D01*
X146137376Y-89690204D01*
X146529796Y-90082624D01*
X147042517Y-90295000D01*
X147597483Y-90295000D01*
X148110204Y-90082624D01*
X148502624Y-89690204D01*
X148590000Y-89479260D01*
X148677376Y-89690204D01*
X149069796Y-90082624D01*
X149582517Y-90295000D01*
X150137483Y-90295000D01*
X150650204Y-90082624D01*
X151042624Y-89690204D01*
X151130000Y-89479260D01*
X151217376Y-89690204D01*
X151609796Y-90082624D01*
X152122517Y-90295000D01*
X152677483Y-90295000D01*
X153190204Y-90082624D01*
X153582624Y-89690204D01*
X153670000Y-89479260D01*
X153757376Y-89690204D01*
X154149796Y-90082624D01*
X154662517Y-90295000D01*
X155217483Y-90295000D01*
X155638501Y-90120609D01*
X155638501Y-90850694D01*
X155622328Y-90932000D01*
X155669227Y-91167773D01*
X155686397Y-91254094D01*
X155868849Y-91527152D01*
X155937774Y-91573206D01*
X156330793Y-91966225D01*
X156376848Y-92035152D01*
X156649906Y-92217604D01*
X156890697Y-92265500D01*
X156890701Y-92265500D01*
X156971999Y-92281671D01*
X157053297Y-92265500D01*
X157353000Y-92265500D01*
X157353000Y-101600000D01*
X157362667Y-101648601D01*
X157390197Y-101689803D01*
X157431399Y-101717333D01*
X157480000Y-101727000D01*
X177800000Y-101727000D01*
X177848601Y-101717333D01*
X177889803Y-101689803D01*
X177917333Y-101648601D01*
X177927000Y-101600000D01*
X177927000Y-93406000D01*
X180869160Y-93406000D01*
X181864000Y-94400841D01*
X181864001Y-95560342D01*
X181695680Y-95728663D01*
X181610000Y-95935513D01*
X181524320Y-95728663D01*
X181131337Y-95335680D01*
X180617881Y-95123000D01*
X180062119Y-95123000D01*
X179548663Y-95335680D01*
X179155680Y-95728663D01*
X178943000Y-96242119D01*
X178943000Y-96797881D01*
X179155680Y-97311337D01*
X179324000Y-97479657D01*
X179324001Y-101753931D01*
X179324000Y-101753936D01*
X179324000Y-108260343D01*
X179155680Y-108428663D01*
X178943000Y-108942119D01*
X178943000Y-109497881D01*
X179155680Y-110011337D01*
X179324000Y-110179657D01*
X179324001Y-120904000D01*
X162700841Y-120904000D01*
X160344564Y-118547724D01*
X160470784Y-118358823D01*
X160532985Y-118046117D01*
X160655000Y-117751547D01*
X160655000Y-117432706D01*
X160717201Y-117120000D01*
X160655000Y-116807294D01*
X160655000Y-116488453D01*
X160532985Y-116193883D01*
X160470784Y-115881177D01*
X160293650Y-115616077D01*
X160171635Y-115321507D01*
X159946181Y-115096053D01*
X159769047Y-114830953D01*
X159503947Y-114653819D01*
X159278493Y-114428365D01*
X158983923Y-114306350D01*
X158718823Y-114129216D01*
X158406117Y-114067015D01*
X158111547Y-113945000D01*
X136528453Y-113945000D01*
X136233883Y-114067015D01*
X135921177Y-114129216D01*
X135656077Y-114306350D01*
X135361507Y-114428365D01*
X135136053Y-114653819D01*
X134870953Y-114830953D01*
X134693819Y-115096053D01*
X134468365Y-115321507D01*
X134346350Y-115616077D01*
X134169216Y-115881177D01*
X134107015Y-116193883D01*
X133985000Y-116488453D01*
X133985000Y-116807294D01*
X133922799Y-117120000D01*
X133985000Y-117432706D01*
X133985000Y-117751547D01*
X134107015Y-118046117D01*
X134169216Y-118358823D01*
X134346350Y-118623923D01*
X134468365Y-118918493D01*
X134693819Y-119143947D01*
X134870953Y-119409047D01*
X135136053Y-119586181D01*
X135361507Y-119811635D01*
X135656077Y-119933650D01*
X135921177Y-120110784D01*
X136233883Y-120172985D01*
X136528453Y-120295000D01*
X158111547Y-120295000D01*
X158406117Y-120172985D01*
X158718823Y-120110784D01*
X158907724Y-119984564D01*
X161490822Y-122567663D01*
X161547505Y-122652495D01*
X161883577Y-122877051D01*
X162179935Y-122936000D01*
X162179936Y-122936000D01*
X162279999Y-122955904D01*
X162380063Y-122936000D01*
X179380343Y-122936000D01*
X179548663Y-123104320D01*
X180062119Y-123317000D01*
X180617881Y-123317000D01*
X181131337Y-123104320D01*
X181524320Y-122711337D01*
X181610000Y-122504487D01*
X181695680Y-122711337D01*
X182088663Y-123104320D01*
X182602119Y-123317000D01*
X183157881Y-123317000D01*
X183671337Y-123104320D01*
X184064320Y-122711337D01*
X184277000Y-122197881D01*
X184277000Y-121642119D01*
X184064320Y-121128663D01*
X183896000Y-120960343D01*
X183896000Y-110179657D01*
X184064320Y-110011337D01*
X184277000Y-109497881D01*
X184277000Y-108942119D01*
X184064320Y-108428663D01*
X183705500Y-108069843D01*
X183705500Y-104227932D01*
X183983933Y-103949500D01*
X187021531Y-103949500D01*
X187046753Y-103987247D01*
X187333848Y-104179078D01*
X187672500Y-104246440D01*
X188247500Y-104246440D01*
X188586152Y-104179078D01*
X188835000Y-104012803D01*
X189083848Y-104179078D01*
X189422500Y-104246440D01*
X189997500Y-104246440D01*
X190336152Y-104179078D01*
X190623247Y-103987247D01*
X190648469Y-103949500D01*
X190831531Y-103949500D01*
X190856753Y-103987247D01*
X191143848Y-104179078D01*
X191482500Y-104246440D01*
X192057500Y-104246440D01*
X192396152Y-104179078D01*
X192645000Y-104012803D01*
X192893848Y-104179078D01*
X193232500Y-104246440D01*
X193807500Y-104246440D01*
X194146152Y-104179078D01*
X194433247Y-103987247D01*
X194625078Y-103700152D01*
X194692440Y-103361500D01*
X194692440Y-102886500D01*
X194625078Y-102547848D01*
X194433247Y-102260753D01*
X194345500Y-102202122D01*
X194345500Y-101935302D01*
X194361672Y-101854000D01*
X194345500Y-101772697D01*
X194345500Y-101505878D01*
X194433247Y-101447247D01*
X194625078Y-101160152D01*
X194692440Y-100821500D01*
X194692440Y-100346500D01*
X194625078Y-100007848D01*
X194433247Y-99720753D01*
X194146152Y-99528922D01*
X193807500Y-99461560D01*
X193232500Y-99461560D01*
X192893848Y-99528922D01*
X192645000Y-99695197D01*
X192396152Y-99528922D01*
X192057500Y-99461560D01*
X191482500Y-99461560D01*
X191143848Y-99528922D01*
X190856753Y-99720753D01*
X190831531Y-99758500D01*
X190648469Y-99758500D01*
X190623247Y-99720753D01*
X190336152Y-99528922D01*
X189997500Y-99461560D01*
X189422500Y-99461560D01*
X189083848Y-99528922D01*
X188835000Y-99695197D01*
X188586152Y-99528922D01*
X188247500Y-99461560D01*
X187672500Y-99461560D01*
X187333848Y-99528922D01*
X187046753Y-99720753D01*
X187021531Y-99758500D01*
X183983933Y-99758500D01*
X183705500Y-99480068D01*
X183705500Y-97670157D01*
X184064320Y-97311337D01*
X184277000Y-96797881D01*
X184277000Y-96242119D01*
X184064320Y-95728663D01*
X183896000Y-95560343D01*
X183896000Y-94080064D01*
X183915904Y-93980000D01*
X183893710Y-93868423D01*
X183837051Y-93583577D01*
X183612495Y-93247505D01*
X183527664Y-93190823D01*
X182079180Y-91742339D01*
X182022495Y-91657505D01*
X181686423Y-91432949D01*
X181390065Y-91374000D01*
X181390063Y-91374000D01*
X181290000Y-91354096D01*
X181189937Y-91374000D01*
X178816000Y-91374000D01*
X178816000Y-90196239D01*
X179186086Y-89826153D01*
X179435000Y-89225222D01*
X179435000Y-88622517D01*
X194185000Y-88622517D01*
X194185000Y-89177483D01*
X194397376Y-89690204D01*
X194754501Y-90047329D01*
X194754501Y-91104694D01*
X194738328Y-91186000D01*
X194787450Y-91432949D01*
X194802397Y-91508094D01*
X194984849Y-91781152D01*
X195053774Y-91827206D01*
X195561773Y-92335206D01*
X196069775Y-92843208D01*
X196462793Y-93236225D01*
X196508848Y-93305152D01*
X196781906Y-93487604D01*
X197022697Y-93535500D01*
X197022701Y-93535500D01*
X197103999Y-93551671D01*
X197185297Y-93535500D01*
X203323789Y-93535500D01*
X203375720Y-93587431D01*
X203756126Y-93745000D01*
X204167874Y-93745000D01*
X204548280Y-93587431D01*
X204600211Y-93535500D01*
X206017659Y-93535500D01*
X205092337Y-94460823D01*
X205007506Y-94517505D01*
X204950823Y-94602337D01*
X204782950Y-94853577D01*
X204704096Y-95250000D01*
X204724001Y-95350068D01*
X204724001Y-95560342D01*
X204555680Y-95728663D01*
X204343000Y-96242119D01*
X204343000Y-96797881D01*
X204555680Y-97311337D01*
X204948663Y-97704320D01*
X205462119Y-97917000D01*
X206017881Y-97917000D01*
X206531337Y-97704320D01*
X206924320Y-97311337D01*
X207010000Y-97104487D01*
X207095680Y-97311337D01*
X207488663Y-97704320D01*
X208002119Y-97917000D01*
X208557881Y-97917000D01*
X209071337Y-97704320D01*
X209430157Y-97345500D01*
X211170222Y-97345500D01*
X211211914Y-97446153D01*
X211671847Y-97906086D01*
X212272778Y-98155000D01*
X212923222Y-98155000D01*
X213524153Y-97906086D01*
X213984086Y-97446153D01*
X214233000Y-96845222D01*
X214233000Y-96194778D01*
X213984086Y-95593847D01*
X213524153Y-95133914D01*
X213191199Y-94996000D01*
X217041160Y-94996000D01*
X217257218Y-95212059D01*
X217182191Y-95262191D01*
X217041843Y-95472235D01*
X216992560Y-95720000D01*
X216992560Y-97320000D01*
X217041843Y-97567765D01*
X217182191Y-97777809D01*
X217392235Y-97918157D01*
X217424001Y-97924476D01*
X217424000Y-100430064D01*
X217424001Y-100430069D01*
X217424000Y-105664000D01*
X207110063Y-105664000D01*
X207009999Y-105644096D01*
X206909935Y-105664000D01*
X206613577Y-105722949D01*
X206613576Y-105722950D01*
X206613575Y-105722950D01*
X206519375Y-105785893D01*
X206277505Y-105947505D01*
X206220822Y-106032337D01*
X205092337Y-107160823D01*
X205007506Y-107217505D01*
X204950823Y-107302337D01*
X204782950Y-107553577D01*
X204704096Y-107950000D01*
X204724001Y-108050068D01*
X204724001Y-108260342D01*
X204555680Y-108428663D01*
X204343000Y-108942119D01*
X204343000Y-109497881D01*
X204555680Y-110011337D01*
X204948663Y-110404320D01*
X205462119Y-110617000D01*
X206017881Y-110617000D01*
X206531337Y-110404320D01*
X206924320Y-110011337D01*
X207010000Y-109804487D01*
X207095680Y-110011337D01*
X207488663Y-110404320D01*
X208002119Y-110617000D01*
X208557881Y-110617000D01*
X209071337Y-110404320D01*
X209430157Y-110045500D01*
X211170222Y-110045500D01*
X211211914Y-110146153D01*
X211671847Y-110606086D01*
X212272778Y-110855000D01*
X212923222Y-110855000D01*
X213524153Y-110606086D01*
X213984086Y-110146153D01*
X214233000Y-109545222D01*
X214233000Y-108894778D01*
X213984086Y-108293847D01*
X213524153Y-107833914D01*
X213191199Y-107696000D01*
X217424001Y-107696000D01*
X217424001Y-107815524D01*
X217392235Y-107821843D01*
X217182191Y-107962191D01*
X217041843Y-108172235D01*
X216992560Y-108420000D01*
X216992560Y-110020000D01*
X217041843Y-110267765D01*
X217182191Y-110477809D01*
X217392235Y-110618157D01*
X217424001Y-110624476D01*
X217424000Y-118364000D01*
X207110063Y-118364000D01*
X207009999Y-118344096D01*
X206909935Y-118364000D01*
X206613577Y-118422949D01*
X206613576Y-118422950D01*
X206613575Y-118422950D01*
X206519375Y-118485893D01*
X206277505Y-118647505D01*
X206220822Y-118732337D01*
X205092337Y-119860823D01*
X205007506Y-119917505D01*
X204950823Y-120002337D01*
X204782950Y-120253577D01*
X204704096Y-120650000D01*
X204724001Y-120750068D01*
X204724001Y-120960342D01*
X204555680Y-121128663D01*
X204343000Y-121642119D01*
X204343000Y-122197881D01*
X204555680Y-122711337D01*
X204948663Y-123104320D01*
X205462119Y-123317000D01*
X206017881Y-123317000D01*
X206531337Y-123104320D01*
X206924320Y-122711337D01*
X207010000Y-122504487D01*
X207095680Y-122711337D01*
X207488663Y-123104320D01*
X208002119Y-123317000D01*
X208557881Y-123317000D01*
X209071337Y-123104320D01*
X209430157Y-122745500D01*
X211170222Y-122745500D01*
X211211914Y-122846153D01*
X211671847Y-123306086D01*
X212272778Y-123555000D01*
X212923222Y-123555000D01*
X213524153Y-123306086D01*
X213984086Y-122846153D01*
X214233000Y-122245222D01*
X214233000Y-121594778D01*
X213984086Y-120993847D01*
X213524153Y-120533914D01*
X213191199Y-120396000D01*
X217424000Y-120396000D01*
X217424000Y-120515525D01*
X217392235Y-120521843D01*
X217182191Y-120662191D01*
X217041843Y-120872235D01*
X216992560Y-121120000D01*
X216992560Y-122720000D01*
X217041843Y-122967765D01*
X217182191Y-123177809D01*
X217392235Y-123318157D01*
X217640000Y-123367440D01*
X219240000Y-123367440D01*
X219487765Y-123318157D01*
X219697809Y-123177809D01*
X219838157Y-122967765D01*
X219887440Y-122720000D01*
X219887440Y-121120000D01*
X219838157Y-120872235D01*
X219697809Y-120662191D01*
X219487765Y-120521843D01*
X219456000Y-120515525D01*
X219456000Y-119480064D01*
X219475904Y-119380000D01*
X219456000Y-119279935D01*
X219456000Y-110624475D01*
X219487765Y-110618157D01*
X219697809Y-110477809D01*
X219827224Y-110284126D01*
X244329000Y-110284126D01*
X244329000Y-110695874D01*
X244486569Y-111076280D01*
X244777720Y-111367431D01*
X245158126Y-111525000D01*
X245569874Y-111525000D01*
X245950280Y-111367431D01*
X246002211Y-111315500D01*
X246231531Y-111315500D01*
X246256753Y-111353247D01*
X246543848Y-111545078D01*
X246882500Y-111612440D01*
X247457500Y-111612440D01*
X247796152Y-111545078D01*
X248045000Y-111378803D01*
X248293848Y-111545078D01*
X248632500Y-111612440D01*
X249207500Y-111612440D01*
X249546152Y-111545078D01*
X249833247Y-111353247D01*
X249858469Y-111315500D01*
X250041531Y-111315500D01*
X250066753Y-111353247D01*
X250353848Y-111545078D01*
X250692500Y-111612440D01*
X251267500Y-111612440D01*
X251606152Y-111545078D01*
X251893247Y-111353247D01*
X252085078Y-111066152D01*
X252152440Y-110727500D01*
X252152440Y-110252500D01*
X252085078Y-109913848D01*
X251893247Y-109626753D01*
X251606152Y-109434922D01*
X251267500Y-109367560D01*
X250692500Y-109367560D01*
X250353848Y-109434922D01*
X250066753Y-109626753D01*
X250041531Y-109664500D01*
X249858469Y-109664500D01*
X249833247Y-109626753D01*
X249546152Y-109434922D01*
X249207500Y-109367560D01*
X248632500Y-109367560D01*
X248293848Y-109434922D01*
X248045000Y-109601197D01*
X247796152Y-109434922D01*
X247457500Y-109367560D01*
X246882500Y-109367560D01*
X246543848Y-109434922D01*
X246256753Y-109626753D01*
X246231531Y-109664500D01*
X246002211Y-109664500D01*
X245950280Y-109612569D01*
X245569874Y-109455000D01*
X245158126Y-109455000D01*
X244777720Y-109612569D01*
X244486569Y-109903720D01*
X244329000Y-110284126D01*
X219827224Y-110284126D01*
X219838157Y-110267765D01*
X219887440Y-110020000D01*
X219887440Y-108420000D01*
X219838157Y-108172235D01*
X219697809Y-107962191D01*
X219487765Y-107821843D01*
X219456000Y-107815525D01*
X219456000Y-107744126D01*
X244329000Y-107744126D01*
X244329000Y-108155874D01*
X244486569Y-108536280D01*
X244777720Y-108827431D01*
X245158126Y-108985000D01*
X245569874Y-108985000D01*
X245950280Y-108827431D01*
X246002211Y-108775500D01*
X246231531Y-108775500D01*
X246256753Y-108813247D01*
X246543848Y-109005078D01*
X246882500Y-109072440D01*
X247457500Y-109072440D01*
X247796152Y-109005078D01*
X248045000Y-108838803D01*
X248293848Y-109005078D01*
X248632500Y-109072440D01*
X249207500Y-109072440D01*
X249546152Y-109005078D01*
X249833247Y-108813247D01*
X249858469Y-108775500D01*
X250041531Y-108775500D01*
X250066753Y-108813247D01*
X250353848Y-109005078D01*
X250692500Y-109072440D01*
X251267500Y-109072440D01*
X251606152Y-109005078D01*
X251893247Y-108813247D01*
X252085078Y-108526152D01*
X252152440Y-108187500D01*
X252152440Y-107712500D01*
X252085078Y-107373848D01*
X251893247Y-107086753D01*
X251606152Y-106894922D01*
X251267500Y-106827560D01*
X250692500Y-106827560D01*
X250353848Y-106894922D01*
X250066753Y-107086753D01*
X250041531Y-107124500D01*
X249858469Y-107124500D01*
X249833247Y-107086753D01*
X249546152Y-106894922D01*
X249207500Y-106827560D01*
X248632500Y-106827560D01*
X248293848Y-106894922D01*
X248045000Y-107061197D01*
X247796152Y-106894922D01*
X247457500Y-106827560D01*
X246882500Y-106827560D01*
X246543848Y-106894922D01*
X246256753Y-107086753D01*
X246231531Y-107124500D01*
X246002211Y-107124500D01*
X245950280Y-107072569D01*
X245569874Y-106915000D01*
X245158126Y-106915000D01*
X244777720Y-107072569D01*
X244486569Y-107363720D01*
X244329000Y-107744126D01*
X219456000Y-107744126D01*
X219456000Y-106780064D01*
X219475904Y-106680000D01*
X219456000Y-106579935D01*
X219456000Y-105204126D01*
X244357000Y-105204126D01*
X244357000Y-105615874D01*
X244514569Y-105996280D01*
X244805720Y-106287431D01*
X245186126Y-106445000D01*
X245597874Y-106445000D01*
X245978280Y-106287431D01*
X246030211Y-106235500D01*
X246231531Y-106235500D01*
X246256753Y-106273247D01*
X246543848Y-106465078D01*
X246882500Y-106532440D01*
X247457500Y-106532440D01*
X247796152Y-106465078D01*
X248045000Y-106298803D01*
X248293848Y-106465078D01*
X248632500Y-106532440D01*
X249207500Y-106532440D01*
X249546152Y-106465078D01*
X249833247Y-106273247D01*
X249858469Y-106235500D01*
X250041531Y-106235500D01*
X250066753Y-106273247D01*
X250353848Y-106465078D01*
X250692500Y-106532440D01*
X251267500Y-106532440D01*
X251606152Y-106465078D01*
X251893247Y-106273247D01*
X252085078Y-105986152D01*
X252152440Y-105647500D01*
X252152440Y-105172500D01*
X252085078Y-104833848D01*
X251893247Y-104546753D01*
X251606152Y-104354922D01*
X251267500Y-104287560D01*
X250692500Y-104287560D01*
X250353848Y-104354922D01*
X250066753Y-104546753D01*
X250041531Y-104584500D01*
X249858469Y-104584500D01*
X249833247Y-104546753D01*
X249546152Y-104354922D01*
X249207500Y-104287560D01*
X248632500Y-104287560D01*
X248293848Y-104354922D01*
X248045000Y-104521197D01*
X247796152Y-104354922D01*
X247457500Y-104287560D01*
X246882500Y-104287560D01*
X246543848Y-104354922D01*
X246256753Y-104546753D01*
X246231531Y-104584500D01*
X246030211Y-104584500D01*
X245978280Y-104532569D01*
X245597874Y-104375000D01*
X245186126Y-104375000D01*
X244805720Y-104532569D01*
X244514569Y-104823720D01*
X244357000Y-105204126D01*
X219456000Y-105204126D01*
X219456000Y-102664126D01*
X244357000Y-102664126D01*
X244357000Y-103075874D01*
X244514569Y-103456280D01*
X244805720Y-103747431D01*
X245186126Y-103905000D01*
X245597874Y-103905000D01*
X245978280Y-103747431D01*
X246030211Y-103695500D01*
X246231531Y-103695500D01*
X246256753Y-103733247D01*
X246543848Y-103925078D01*
X246882500Y-103992440D01*
X247457500Y-103992440D01*
X247796152Y-103925078D01*
X248045000Y-103758803D01*
X248293848Y-103925078D01*
X248632500Y-103992440D01*
X249207500Y-103992440D01*
X249546152Y-103925078D01*
X249833247Y-103733247D01*
X249858469Y-103695500D01*
X250041531Y-103695500D01*
X250066753Y-103733247D01*
X250353848Y-103925078D01*
X250692500Y-103992440D01*
X251267500Y-103992440D01*
X251606152Y-103925078D01*
X251893247Y-103733247D01*
X252085078Y-103446152D01*
X252152440Y-103107500D01*
X252152440Y-102632500D01*
X252085078Y-102293848D01*
X251893247Y-102006753D01*
X251606152Y-101814922D01*
X251267500Y-101747560D01*
X250692500Y-101747560D01*
X250353848Y-101814922D01*
X250066753Y-102006753D01*
X250041531Y-102044500D01*
X249858469Y-102044500D01*
X249833247Y-102006753D01*
X249546152Y-101814922D01*
X249207500Y-101747560D01*
X248632500Y-101747560D01*
X248293848Y-101814922D01*
X248045000Y-101981197D01*
X247796152Y-101814922D01*
X247457500Y-101747560D01*
X246882500Y-101747560D01*
X246543848Y-101814922D01*
X246256753Y-102006753D01*
X246231531Y-102044500D01*
X246030211Y-102044500D01*
X245978280Y-101992569D01*
X245597874Y-101835000D01*
X245186126Y-101835000D01*
X244805720Y-101992569D01*
X244514569Y-102283720D01*
X244357000Y-102664126D01*
X219456000Y-102664126D01*
X219456000Y-101155500D01*
X246231531Y-101155500D01*
X246256753Y-101193247D01*
X246543848Y-101385078D01*
X246882500Y-101452440D01*
X247457500Y-101452440D01*
X247796152Y-101385078D01*
X248045000Y-101218803D01*
X248293848Y-101385078D01*
X248632500Y-101452440D01*
X249207500Y-101452440D01*
X249546152Y-101385078D01*
X249833247Y-101193247D01*
X249858469Y-101155500D01*
X250041531Y-101155500D01*
X250066753Y-101193247D01*
X250353848Y-101385078D01*
X250692500Y-101452440D01*
X251267500Y-101452440D01*
X251606152Y-101385078D01*
X251893247Y-101193247D01*
X252085078Y-100906152D01*
X252152440Y-100567500D01*
X252152440Y-100092500D01*
X252085078Y-99753848D01*
X251893247Y-99466753D01*
X251606152Y-99274922D01*
X251267500Y-99207560D01*
X250692500Y-99207560D01*
X250353848Y-99274922D01*
X250066753Y-99466753D01*
X250041531Y-99504500D01*
X249858469Y-99504500D01*
X249833247Y-99466753D01*
X249546152Y-99274922D01*
X249207500Y-99207560D01*
X248632500Y-99207560D01*
X248293848Y-99274922D01*
X248045000Y-99441197D01*
X247796152Y-99274922D01*
X247457500Y-99207560D01*
X246882500Y-99207560D01*
X246543848Y-99274922D01*
X246256753Y-99466753D01*
X246231531Y-99504500D01*
X219456000Y-99504500D01*
X219456000Y-97924475D01*
X219487765Y-97918157D01*
X219697809Y-97777809D01*
X219838157Y-97567765D01*
X219887440Y-97320000D01*
X219887440Y-95720000D01*
X219838157Y-95472235D01*
X219697809Y-95262191D01*
X219487765Y-95121843D01*
X219456000Y-95115525D01*
X219456000Y-95058063D01*
X219475904Y-94958000D01*
X219432939Y-94742000D01*
X219397051Y-94561577D01*
X219172495Y-94225505D01*
X219087663Y-94168823D01*
X218454340Y-93535500D01*
X243244068Y-93535500D01*
X244792500Y-95083933D01*
X244792501Y-96692694D01*
X244776328Y-96774000D01*
X244840397Y-97096094D01*
X245022849Y-97369152D01*
X245091775Y-97415207D01*
X245992793Y-98316226D01*
X246038848Y-98385152D01*
X246108888Y-98431951D01*
X246256753Y-98653247D01*
X246543848Y-98845078D01*
X246882500Y-98912440D01*
X247457500Y-98912440D01*
X247796152Y-98845078D01*
X248045000Y-98678803D01*
X248293848Y-98845078D01*
X248632500Y-98912440D01*
X249207500Y-98912440D01*
X249546152Y-98845078D01*
X249833247Y-98653247D01*
X249858469Y-98615500D01*
X250041531Y-98615500D01*
X250066753Y-98653247D01*
X250353848Y-98845078D01*
X250692500Y-98912440D01*
X251267500Y-98912440D01*
X251606152Y-98845078D01*
X251893247Y-98653247D01*
X252085078Y-98366152D01*
X252152440Y-98027500D01*
X252152440Y-97552500D01*
X252085078Y-97213848D01*
X251893247Y-96926753D01*
X251606152Y-96734922D01*
X251267500Y-96667560D01*
X250692500Y-96667560D01*
X250353848Y-96734922D01*
X250066753Y-96926753D01*
X250041531Y-96964500D01*
X249858469Y-96964500D01*
X249833247Y-96926753D01*
X249546152Y-96734922D01*
X249207500Y-96667560D01*
X248632500Y-96667560D01*
X248293848Y-96734922D01*
X248045000Y-96901197D01*
X247796152Y-96734922D01*
X247457500Y-96667560D01*
X246882500Y-96667560D01*
X246712757Y-96701324D01*
X246443500Y-96432068D01*
X246443500Y-96238028D01*
X246543848Y-96305078D01*
X246882500Y-96372440D01*
X247457500Y-96372440D01*
X247796152Y-96305078D01*
X248045000Y-96138803D01*
X248293848Y-96305078D01*
X248632500Y-96372440D01*
X249207500Y-96372440D01*
X249546152Y-96305078D01*
X249833247Y-96113247D01*
X249858469Y-96075500D01*
X250041531Y-96075500D01*
X250066753Y-96113247D01*
X250353848Y-96305078D01*
X250692500Y-96372440D01*
X251267500Y-96372440D01*
X251606152Y-96305078D01*
X251893247Y-96113247D01*
X252085078Y-95826152D01*
X252152440Y-95487500D01*
X252152440Y-95012500D01*
X252085078Y-94673848D01*
X251893247Y-94386753D01*
X251606152Y-94194922D01*
X251267500Y-94127560D01*
X250692500Y-94127560D01*
X250353848Y-94194922D01*
X250066753Y-94386753D01*
X250041531Y-94424500D01*
X249858469Y-94424500D01*
X249833247Y-94386753D01*
X249546152Y-94194922D01*
X249207500Y-94127560D01*
X248632500Y-94127560D01*
X248293848Y-94194922D01*
X248045000Y-94361197D01*
X247796152Y-94194922D01*
X247457500Y-94127560D01*
X247214993Y-94127560D01*
X246919873Y-93832440D01*
X247457500Y-93832440D01*
X247796152Y-93765078D01*
X248045000Y-93598803D01*
X248293848Y-93765078D01*
X248632500Y-93832440D01*
X249207500Y-93832440D01*
X249546152Y-93765078D01*
X249833247Y-93573247D01*
X249858469Y-93535500D01*
X250041531Y-93535500D01*
X250066753Y-93573247D01*
X250353848Y-93765078D01*
X250692500Y-93832440D01*
X251267500Y-93832440D01*
X251606152Y-93765078D01*
X251893247Y-93573247D01*
X252085078Y-93286152D01*
X252152440Y-92947500D01*
X252152440Y-92472500D01*
X252085078Y-92133848D01*
X251893247Y-91846753D01*
X251606152Y-91654922D01*
X251267500Y-91587560D01*
X250692500Y-91587560D01*
X250353848Y-91654922D01*
X250066753Y-91846753D01*
X250041531Y-91884500D01*
X249858469Y-91884500D01*
X249833247Y-91846753D01*
X249546152Y-91654922D01*
X249207500Y-91587560D01*
X248632500Y-91587560D01*
X248293848Y-91654922D01*
X248045000Y-91821197D01*
X247796152Y-91654922D01*
X247457500Y-91587560D01*
X246882500Y-91587560D01*
X246543848Y-91654922D01*
X246256753Y-91846753D01*
X246231531Y-91884500D01*
X246213933Y-91884500D01*
X244227436Y-89898004D01*
X244181618Y-89829316D01*
X244112458Y-89783026D01*
X244112226Y-89782794D01*
X244044851Y-89737775D01*
X243908703Y-89646649D01*
X243908372Y-89646583D01*
X243908094Y-89646397D01*
X243747023Y-89614358D01*
X243667950Y-89598565D01*
X243667627Y-89598565D01*
X243586000Y-89582328D01*
X243505014Y-89598437D01*
X219668382Y-89579734D01*
X219835000Y-89177483D01*
X219835000Y-88622517D01*
X219622624Y-88109796D01*
X219230204Y-87717376D01*
X219019260Y-87630000D01*
X219230204Y-87542624D01*
X219622624Y-87150204D01*
X219835000Y-86637483D01*
X219835000Y-86082517D01*
X219622624Y-85569796D01*
X219230204Y-85177376D01*
X218717483Y-84965000D01*
X218162517Y-84965000D01*
X217649796Y-85177376D01*
X217257376Y-85569796D01*
X217170000Y-85780740D01*
X217082624Y-85569796D01*
X216690204Y-85177376D01*
X216177483Y-84965000D01*
X215622517Y-84965000D01*
X215109796Y-85177376D01*
X214717376Y-85569796D01*
X214630000Y-85780740D01*
X214542624Y-85569796D01*
X214150204Y-85177376D01*
X213637483Y-84965000D01*
X213082517Y-84965000D01*
X212569796Y-85177376D01*
X212177376Y-85569796D01*
X212090000Y-85780740D01*
X212002624Y-85569796D01*
X211610204Y-85177376D01*
X211097483Y-84965000D01*
X210542517Y-84965000D01*
X210029796Y-85177376D01*
X209637376Y-85569796D01*
X209550000Y-85780740D01*
X209462624Y-85569796D01*
X209070204Y-85177376D01*
X208557483Y-84965000D01*
X208002517Y-84965000D01*
X207489796Y-85177376D01*
X207097376Y-85569796D01*
X207010000Y-85780740D01*
X206922624Y-85569796D01*
X206530204Y-85177376D01*
X206017483Y-84965000D01*
X205462517Y-84965000D01*
X204949796Y-85177376D01*
X204557376Y-85569796D01*
X204470000Y-85780740D01*
X204382624Y-85569796D01*
X203990204Y-85177376D01*
X203477483Y-84965000D01*
X202922517Y-84965000D01*
X202409796Y-85177376D01*
X202017376Y-85569796D01*
X201930000Y-85780740D01*
X201842624Y-85569796D01*
X201450204Y-85177376D01*
X200937483Y-84965000D01*
X200382517Y-84965000D01*
X199869796Y-85177376D01*
X199477376Y-85569796D01*
X199390000Y-85780740D01*
X199302624Y-85569796D01*
X198910204Y-85177376D01*
X198397483Y-84965000D01*
X197842517Y-84965000D01*
X197329796Y-85177376D01*
X196937376Y-85569796D01*
X196725000Y-86082517D01*
X196725000Y-86637483D01*
X196937376Y-87150204D01*
X197329796Y-87542624D01*
X197540740Y-87630000D01*
X197329796Y-87717376D01*
X196937376Y-88109796D01*
X196850000Y-88320740D01*
X196762624Y-88109796D01*
X196370204Y-87717376D01*
X195857483Y-87505000D01*
X195302517Y-87505000D01*
X194789796Y-87717376D01*
X194397376Y-88109796D01*
X194185000Y-88622517D01*
X179435000Y-88622517D01*
X179435000Y-88574778D01*
X179186086Y-87973847D01*
X178726153Y-87513914D01*
X178125222Y-87265000D01*
X177927000Y-87265000D01*
X177927000Y-84505000D01*
X253189197Y-84505000D01*
X253614097Y-84565851D01*
X253959959Y-84723105D01*
X254247784Y-84971110D01*
X254454432Y-85289929D01*
X254570079Y-85676626D01*
X254585001Y-85877426D01*
X254585000Y-110949196D01*
X254524149Y-111374098D01*
X254366895Y-111719959D01*
X254118891Y-112007782D01*
X253800071Y-112214432D01*
X253413373Y-112330079D01*
X253212587Y-112345000D01*
X237557462Y-112345000D01*
X237490000Y-112331581D01*
X237422539Y-112345000D01*
X237422538Y-112345000D01*
X237222727Y-112384745D01*
X236996143Y-112536143D01*
X236844745Y-112762727D01*
X236791581Y-113030000D01*
X236805001Y-113097467D01*
X236805000Y-133790538D01*
X236791581Y-133858000D01*
X236844745Y-134125273D01*
X236996143Y-134351857D01*
X237222727Y-134503255D01*
X237490000Y-134556419D01*
X237557461Y-134543000D01*
X253189197Y-134543000D01*
X253614097Y-134603851D01*
X253959959Y-134761105D01*
X254247784Y-135009110D01*
X254454432Y-135327929D01*
X254570079Y-135714626D01*
X254585001Y-135915426D01*
X254585000Y-143440378D01*
X254221404Y-143549116D01*
X254137032Y-143588101D01*
X254052147Y-143626072D01*
X254045096Y-143630581D01*
X253561637Y-143943945D01*
X253491596Y-144005045D01*
X253420783Y-144065312D01*
X253415285Y-144071615D01*
X253415281Y-144071619D01*
X253415278Y-144071624D01*
X253039205Y-144508078D01*
X252989120Y-144586393D01*
X252938076Y-144664100D01*
X252934569Y-144671691D01*
X252934565Y-144671697D01*
X252934563Y-144671703D01*
X252696105Y-145196164D01*
X252670023Y-145285358D01*
X252642831Y-145374298D01*
X252641594Y-145382575D01*
X252559918Y-145952891D01*
X252559918Y-146022763D01*
X252554314Y-146092415D01*
X252554884Y-146100765D01*
X252577204Y-146401114D01*
X252592207Y-146469353D01*
X252601691Y-146538585D01*
X252604040Y-146546618D01*
X252769116Y-147098595D01*
X252808094Y-147182951D01*
X252846072Y-147267853D01*
X252850582Y-147274904D01*
X253163945Y-147758363D01*
X253225045Y-147828404D01*
X253285312Y-147899217D01*
X253291615Y-147904715D01*
X253291619Y-147904719D01*
X253291624Y-147904722D01*
X253728078Y-148280795D01*
X253806393Y-148330880D01*
X253884100Y-148381924D01*
X253891691Y-148385431D01*
X253891697Y-148385435D01*
X253891703Y-148385437D01*
X254416164Y-148623895D01*
X254505358Y-148649977D01*
X254585001Y-148674327D01*
X254585000Y-156669196D01*
X254524149Y-157094098D01*
X254366895Y-157439959D01*
X254118891Y-157727782D01*
X253800071Y-157934432D01*
X253413373Y-158050079D01*
X253212587Y-158065000D01*
X132890804Y-158065000D01*
X132465902Y-158004149D01*
X132120041Y-157846895D01*
X131832218Y-157598891D01*
X131625568Y-157280071D01*
X131509921Y-156893373D01*
X131495000Y-156692587D01*
X131495000Y-148659622D01*
X131858595Y-148550884D01*
X131942951Y-148511906D01*
X132027853Y-148473928D01*
X132034901Y-148469420D01*
X132034905Y-148469418D01*
X132518363Y-148156055D01*
X132588404Y-148094955D01*
X132659217Y-148034688D01*
X132664715Y-148028385D01*
X132664719Y-148028381D01*
X132664722Y-148028376D01*
X133040795Y-147591922D01*
X133090880Y-147513607D01*
X133141924Y-147435900D01*
X133145431Y-147428309D01*
X133145435Y-147428303D01*
X133145437Y-147428297D01*
X133383895Y-146903836D01*
X133409977Y-146814642D01*
X133437169Y-146725702D01*
X133438406Y-146717424D01*
X133520082Y-146147109D01*
X133520082Y-146077236D01*
X133525686Y-146007585D01*
X133525116Y-145999235D01*
X133502796Y-145698886D01*
X133487792Y-145630643D01*
X133478309Y-145561414D01*
X133475960Y-145553382D01*
X133310884Y-145001404D01*
X133271899Y-144917032D01*
X133233928Y-144832147D01*
X133229419Y-144825096D01*
X132916055Y-144341637D01*
X132854955Y-144271596D01*
X132794688Y-144200783D01*
X132788385Y-144195285D01*
X132788381Y-144195281D01*
X132788376Y-144195278D01*
X132351922Y-143819205D01*
X132273607Y-143769120D01*
X132195900Y-143718076D01*
X132188309Y-143714569D01*
X132188303Y-143714565D01*
X132188297Y-143714563D01*
X131663836Y-143476105D01*
X131574642Y-143450023D01*
X131485702Y-143422831D01*
X131482156Y-143422301D01*
X131259672Y-133232500D01*
X131289796Y-133262624D01*
X131802517Y-133475000D01*
X132357483Y-133475000D01*
X132870204Y-133262624D01*
X133262624Y-132870204D01*
X133350000Y-132659260D01*
X133437376Y-132870204D01*
X133829796Y-133262624D01*
X134342517Y-133475000D01*
X134897483Y-133475000D01*
X135410204Y-133262624D01*
X135802624Y-132870204D01*
X135890000Y-132659260D01*
X135977376Y-132870204D01*
X136369796Y-133262624D01*
X136882517Y-133475000D01*
X137437483Y-133475000D01*
X137950204Y-133262624D01*
X138342624Y-132870204D01*
X138430000Y-132659260D01*
X138517376Y-132870204D01*
X138909796Y-133262624D01*
X139422517Y-133475000D01*
X139977483Y-133475000D01*
X140490204Y-133262624D01*
X140882624Y-132870204D01*
X140970000Y-132659260D01*
X141057376Y-132870204D01*
X141449796Y-133262624D01*
X141962517Y-133475000D01*
X142517483Y-133475000D01*
X143030204Y-133262624D01*
X143422624Y-132870204D01*
X143510000Y-132659260D01*
X143597376Y-132870204D01*
X143989796Y-133262624D01*
X144502517Y-133475000D01*
X145057483Y-133475000D01*
X145570204Y-133262624D01*
X145962624Y-132870204D01*
X146050000Y-132659260D01*
X146137376Y-132870204D01*
X146529796Y-133262624D01*
X147042517Y-133475000D01*
X147597483Y-133475000D01*
X148110204Y-133262624D01*
X148502624Y-132870204D01*
X148590000Y-132659260D01*
X148677376Y-132870204D01*
X149069796Y-133262624D01*
X149582517Y-133475000D01*
X150137483Y-133475000D01*
X150650204Y-133262624D01*
X151042624Y-132870204D01*
X151130000Y-132659260D01*
X151217376Y-132870204D01*
X151609796Y-133262624D01*
X152122517Y-133475000D01*
X152677483Y-133475000D01*
X153190204Y-133262624D01*
X153582624Y-132870204D01*
X153670000Y-132659260D01*
X153757376Y-132870204D01*
X154149796Y-133262624D01*
X154662517Y-133475000D01*
X155217483Y-133475000D01*
X155730204Y-133262624D01*
X156122624Y-132870204D01*
X156335000Y-132357483D01*
X156335000Y-131802517D01*
X156122624Y-131289796D01*
X155730204Y-130897376D01*
X155519260Y-130810000D01*
X155730204Y-130722624D01*
X156122624Y-130330204D01*
X156335000Y-129817483D01*
X156335000Y-129262517D01*
X194185000Y-129262517D01*
X194185000Y-129817483D01*
X194397376Y-130330204D01*
X194789796Y-130722624D01*
X195000740Y-130810000D01*
X194789796Y-130897376D01*
X194397376Y-131289796D01*
X194185000Y-131802517D01*
X194185000Y-132357483D01*
X194397376Y-132870204D01*
X194789796Y-133262624D01*
X195302517Y-133475000D01*
X195857483Y-133475000D01*
X196370204Y-133262624D01*
X196762624Y-132870204D01*
X196850000Y-132659260D01*
X196937376Y-132870204D01*
X197329796Y-133262624D01*
X197842517Y-133475000D01*
X198397483Y-133475000D01*
X198910204Y-133262624D01*
X199302624Y-132870204D01*
X199390000Y-132659260D01*
X199477376Y-132870204D01*
X199869796Y-133262624D01*
X200382517Y-133475000D01*
X200937483Y-133475000D01*
X201450204Y-133262624D01*
X201842624Y-132870204D01*
X201930000Y-132659260D01*
X202017376Y-132870204D01*
X202409796Y-133262624D01*
X202922517Y-133475000D01*
X203477483Y-133475000D01*
X203990204Y-133262624D01*
X204382624Y-132870204D01*
X204470000Y-132659260D01*
X204557376Y-132870204D01*
X204949796Y-133262624D01*
X205462517Y-133475000D01*
X206017483Y-133475000D01*
X206530204Y-133262624D01*
X206922624Y-132870204D01*
X207010000Y-132659260D01*
X207097376Y-132870204D01*
X207489796Y-133262624D01*
X208002517Y-133475000D01*
X208557483Y-133475000D01*
X209070204Y-133262624D01*
X209462624Y-132870204D01*
X209550000Y-132659260D01*
X209637376Y-132870204D01*
X210029796Y-133262624D01*
X210542517Y-133475000D01*
X211097483Y-133475000D01*
X211610204Y-133262624D01*
X212002624Y-132870204D01*
X212090000Y-132659260D01*
X212177376Y-132870204D01*
X212569796Y-133262624D01*
X213082517Y-133475000D01*
X213637483Y-133475000D01*
X214150204Y-133262624D01*
X214542624Y-132870204D01*
X214630000Y-132659260D01*
X214717376Y-132870204D01*
X215109796Y-133262624D01*
X215622517Y-133475000D01*
X216177483Y-133475000D01*
X216690204Y-133262624D01*
X217082624Y-132870204D01*
X217170000Y-132659260D01*
X217257376Y-132870204D01*
X217649796Y-133262624D01*
X218162517Y-133475000D01*
X218717483Y-133475000D01*
X219230204Y-133262624D01*
X219622624Y-132870204D01*
X219835000Y-132357483D01*
X219835000Y-131802517D01*
X219622624Y-131289796D01*
X219230204Y-130897376D01*
X219019260Y-130810000D01*
X219230204Y-130722624D01*
X219622624Y-130330204D01*
X219835000Y-129817483D01*
X219835000Y-129262517D01*
X219622624Y-128749796D01*
X219230204Y-128357376D01*
X218717483Y-128145000D01*
X218162517Y-128145000D01*
X217649796Y-128357376D01*
X217257376Y-128749796D01*
X217170000Y-128960740D01*
X217082624Y-128749796D01*
X216690204Y-128357376D01*
X216177483Y-128145000D01*
X215622517Y-128145000D01*
X215109796Y-128357376D01*
X214717376Y-128749796D01*
X214630000Y-128960740D01*
X214542624Y-128749796D01*
X214150204Y-128357376D01*
X213637483Y-128145000D01*
X213082517Y-128145000D01*
X212569796Y-128357376D01*
X212177376Y-128749796D01*
X212090000Y-128960740D01*
X212002624Y-128749796D01*
X211610204Y-128357376D01*
X211097483Y-128145000D01*
X210542517Y-128145000D01*
X210029796Y-128357376D01*
X209637376Y-128749796D01*
X209550000Y-128960740D01*
X209462624Y-128749796D01*
X209070204Y-128357376D01*
X208557483Y-128145000D01*
X208002517Y-128145000D01*
X207489796Y-128357376D01*
X207097376Y-128749796D01*
X207010000Y-128960740D01*
X206922624Y-128749796D01*
X206530204Y-128357376D01*
X206017483Y-128145000D01*
X205462517Y-128145000D01*
X204949796Y-128357376D01*
X204557376Y-128749796D01*
X204470000Y-128960740D01*
X204382624Y-128749796D01*
X203990204Y-128357376D01*
X203477483Y-128145000D01*
X202922517Y-128145000D01*
X202409796Y-128357376D01*
X202017376Y-128749796D01*
X201930000Y-128960740D01*
X201842624Y-128749796D01*
X201450204Y-128357376D01*
X200937483Y-128145000D01*
X200382517Y-128145000D01*
X199869796Y-128357376D01*
X199477376Y-128749796D01*
X199265000Y-129262517D01*
X199265000Y-129817483D01*
X199477376Y-130330204D01*
X199869796Y-130722624D01*
X200080740Y-130810000D01*
X199869796Y-130897376D01*
X199477376Y-131289796D01*
X199390000Y-131500740D01*
X199302624Y-131289796D01*
X198910204Y-130897376D01*
X198397483Y-130685000D01*
X197842517Y-130685000D01*
X197329796Y-130897376D01*
X196937376Y-131289796D01*
X196850000Y-131500740D01*
X196762624Y-131289796D01*
X196370204Y-130897376D01*
X196159260Y-130810000D01*
X196370204Y-130722624D01*
X196762624Y-130330204D01*
X196975000Y-129817483D01*
X196975000Y-129262517D01*
X196762624Y-128749796D01*
X196370204Y-128357376D01*
X195857483Y-128145000D01*
X195302517Y-128145000D01*
X194789796Y-128357376D01*
X194397376Y-128749796D01*
X194185000Y-129262517D01*
X156335000Y-129262517D01*
X156122624Y-128749796D01*
X155730204Y-128357376D01*
X155217483Y-128145000D01*
X154662517Y-128145000D01*
X154149796Y-128357376D01*
X153757376Y-128749796D01*
X153670000Y-128960740D01*
X153582624Y-128749796D01*
X153190204Y-128357376D01*
X152677483Y-128145000D01*
X152122517Y-128145000D01*
X151609796Y-128357376D01*
X151217376Y-128749796D01*
X151130000Y-128960740D01*
X151042624Y-128749796D01*
X150650204Y-128357376D01*
X150137483Y-128145000D01*
X149582517Y-128145000D01*
X149069796Y-128357376D01*
X148677376Y-128749796D01*
X148590000Y-128960740D01*
X148502624Y-128749796D01*
X148110204Y-128357376D01*
X147597483Y-128145000D01*
X147042517Y-128145000D01*
X146529796Y-128357376D01*
X146137376Y-128749796D01*
X146050000Y-128960740D01*
X145962624Y-128749796D01*
X145570204Y-128357376D01*
X145057483Y-128145000D01*
X144502517Y-128145000D01*
X143989796Y-128357376D01*
X143597376Y-128749796D01*
X143510000Y-128960740D01*
X143422624Y-128749796D01*
X143030204Y-128357376D01*
X142517483Y-128145000D01*
X141962517Y-128145000D01*
X141449796Y-128357376D01*
X141057376Y-128749796D01*
X140970000Y-128960740D01*
X140882624Y-128749796D01*
X140490204Y-128357376D01*
X139977483Y-128145000D01*
X139422517Y-128145000D01*
X138909796Y-128357376D01*
X138517376Y-128749796D01*
X138430000Y-128960740D01*
X138342624Y-128749796D01*
X137950204Y-128357376D01*
X137437483Y-128145000D01*
X136882517Y-128145000D01*
X136369796Y-128357376D01*
X135977376Y-128749796D01*
X135765000Y-129262517D01*
X135765000Y-129817483D01*
X135977376Y-130330204D01*
X136369796Y-130722624D01*
X136580740Y-130810000D01*
X136369796Y-130897376D01*
X135977376Y-131289796D01*
X135890000Y-131500740D01*
X135802624Y-131289796D01*
X135410204Y-130897376D01*
X134897483Y-130685000D01*
X134342517Y-130685000D01*
X133829796Y-130897376D01*
X133437376Y-131289796D01*
X133350000Y-131500740D01*
X133262624Y-131289796D01*
X132870204Y-130897376D01*
X132659260Y-130810000D01*
X132870204Y-130722624D01*
X133262624Y-130330204D01*
X133475000Y-129817483D01*
X133475000Y-129262517D01*
X133262624Y-128749796D01*
X132870204Y-128357376D01*
X132357483Y-128145000D01*
X131802517Y-128145000D01*
X131289796Y-128357376D01*
X131156146Y-128491026D01*
X130735382Y-109220000D01*
X133922799Y-109220000D01*
X133985000Y-109532706D01*
X133985000Y-109851547D01*
X134107015Y-110146117D01*
X134169216Y-110458823D01*
X134346350Y-110723923D01*
X134468365Y-111018493D01*
X134693819Y-111243947D01*
X134870953Y-111509047D01*
X135136053Y-111686181D01*
X135361507Y-111911635D01*
X135656077Y-112033650D01*
X135921177Y-112210784D01*
X136233883Y-112272985D01*
X136528453Y-112395000D01*
X158111547Y-112395000D01*
X158406117Y-112272985D01*
X158718823Y-112210784D01*
X158907724Y-112084564D01*
X160500822Y-113677663D01*
X160557505Y-113762495D01*
X160893577Y-113987051D01*
X161189935Y-114046000D01*
X161189936Y-114046000D01*
X161290000Y-114065904D01*
X161390064Y-114046000D01*
X163935364Y-114046000D01*
X163993848Y-114085078D01*
X164084001Y-114103010D01*
X164084000Y-115880343D01*
X163915680Y-116048663D01*
X163703000Y-116562119D01*
X163703000Y-117117881D01*
X163915680Y-117631337D01*
X164308663Y-118024320D01*
X164822119Y-118237000D01*
X165377881Y-118237000D01*
X165891337Y-118024320D01*
X166284320Y-117631337D01*
X166497000Y-117117881D01*
X166497000Y-116562119D01*
X168783000Y-116562119D01*
X168783000Y-117117881D01*
X168995680Y-117631337D01*
X169388663Y-118024320D01*
X169902119Y-118237000D01*
X170457881Y-118237000D01*
X170971337Y-118024320D01*
X171364320Y-117631337D01*
X171577000Y-117117881D01*
X171577000Y-116562119D01*
X171364320Y-116048663D01*
X171196000Y-115880343D01*
X171196000Y-114103010D01*
X171286152Y-114085078D01*
X171573247Y-113893247D01*
X171765078Y-113606152D01*
X171832440Y-113267500D01*
X171832440Y-112792500D01*
X171765078Y-112453848D01*
X171573247Y-112166753D01*
X171286152Y-111974922D01*
X170947500Y-111907560D01*
X170372500Y-111907560D01*
X170033848Y-111974922D01*
X169746753Y-112166753D01*
X169554922Y-112453848D01*
X169497139Y-112744341D01*
X169447506Y-112777505D01*
X169390823Y-112862337D01*
X169222950Y-113113577D01*
X169144096Y-113510000D01*
X169164001Y-113610068D01*
X169164000Y-115880343D01*
X168995680Y-116048663D01*
X168783000Y-116562119D01*
X166497000Y-116562119D01*
X166284320Y-116048663D01*
X166116000Y-115880343D01*
X166116000Y-113610064D01*
X166135904Y-113510000D01*
X166092382Y-113291200D01*
X166057051Y-113113577D01*
X165832495Y-112777505D01*
X165782860Y-112744340D01*
X165725078Y-112453848D01*
X165533247Y-112166753D01*
X165246152Y-111974922D01*
X164907500Y-111907560D01*
X164332500Y-111907560D01*
X163993848Y-111974922D01*
X163935364Y-112014000D01*
X161710841Y-112014000D01*
X160344564Y-110647724D01*
X160470784Y-110458823D01*
X160532985Y-110146117D01*
X160655000Y-109851547D01*
X160655000Y-109532706D01*
X160717201Y-109220000D01*
X160655000Y-108907294D01*
X160655000Y-108588453D01*
X160532985Y-108293883D01*
X160470784Y-107981177D01*
X160293650Y-107716077D01*
X160171635Y-107421507D01*
X159946181Y-107196053D01*
X159769047Y-106930953D01*
X159503947Y-106753819D01*
X159278493Y-106528365D01*
X158983923Y-106406350D01*
X158718823Y-106229216D01*
X158406117Y-106167015D01*
X158111547Y-106045000D01*
X136528453Y-106045000D01*
X136233883Y-106167015D01*
X135921177Y-106229216D01*
X135656077Y-106406350D01*
X135361507Y-106528365D01*
X135136053Y-106753819D01*
X134870953Y-106930953D01*
X134693819Y-107196053D01*
X134468365Y-107421507D01*
X134346350Y-107716077D01*
X134169216Y-107981177D01*
X134107015Y-108293883D01*
X133985000Y-108588453D01*
X133985000Y-108907294D01*
X133922799Y-109220000D01*
X130735382Y-109220000D01*
X130226066Y-85893359D01*
X130285851Y-85475903D01*
X130443105Y-85130041D01*
X130691110Y-84842216D01*
X131009929Y-84635568D01*
X131396626Y-84519921D01*
X131597413Y-84505000D01*
X157353000Y-84505000D01*
X157353000Y-85534500D01*
G04 #@! TD*
M02*
