G04 #@! TF.GenerationSoftware,KiCad,Pcbnew,(5.0.2)-1*
G04 #@! TF.CreationDate,2019-04-17T18:14:32-05:00*
G04 #@! TF.ProjectId,ArmDriveBoard_Hardware,41726d44-7269-4766-9542-6f6172645f48,rev?*
G04 #@! TF.SameCoordinates,Original*
G04 #@! TF.FileFunction,Paste,Top*
G04 #@! TF.FilePolarity,Positive*
%FSLAX46Y46*%
G04 Gerber Fmt 4.6, Leading zero omitted, Abs format (unit mm)*
G04 Created by KiCad (PCBNEW (5.0.2)-1) date 4/17/2019 6:14:32 PM*
%MOMM*%
%LPD*%
G01*
G04 APERTURE LIST*
%ADD10C,0.100000*%
%ADD11C,0.950000*%
%ADD12R,0.900000X0.800000*%
%ADD13C,1.520000*%
G04 APERTURE END LIST*
D10*
G04 #@! TO.C,C3*
G36*
X170970779Y-112556144D02*
X170993834Y-112559563D01*
X171016443Y-112565227D01*
X171038387Y-112573079D01*
X171059457Y-112583044D01*
X171079448Y-112595026D01*
X171098168Y-112608910D01*
X171115438Y-112624562D01*
X171131090Y-112641832D01*
X171144974Y-112660552D01*
X171156956Y-112680543D01*
X171166921Y-112701613D01*
X171174773Y-112723557D01*
X171180437Y-112746166D01*
X171183856Y-112769221D01*
X171185000Y-112792500D01*
X171185000Y-113267500D01*
X171183856Y-113290779D01*
X171180437Y-113313834D01*
X171174773Y-113336443D01*
X171166921Y-113358387D01*
X171156956Y-113379457D01*
X171144974Y-113399448D01*
X171131090Y-113418168D01*
X171115438Y-113435438D01*
X171098168Y-113451090D01*
X171079448Y-113464974D01*
X171059457Y-113476956D01*
X171038387Y-113486921D01*
X171016443Y-113494773D01*
X170993834Y-113500437D01*
X170970779Y-113503856D01*
X170947500Y-113505000D01*
X170372500Y-113505000D01*
X170349221Y-113503856D01*
X170326166Y-113500437D01*
X170303557Y-113494773D01*
X170281613Y-113486921D01*
X170260543Y-113476956D01*
X170240552Y-113464974D01*
X170221832Y-113451090D01*
X170204562Y-113435438D01*
X170188910Y-113418168D01*
X170175026Y-113399448D01*
X170163044Y-113379457D01*
X170153079Y-113358387D01*
X170145227Y-113336443D01*
X170139563Y-113313834D01*
X170136144Y-113290779D01*
X170135000Y-113267500D01*
X170135000Y-112792500D01*
X170136144Y-112769221D01*
X170139563Y-112746166D01*
X170145227Y-112723557D01*
X170153079Y-112701613D01*
X170163044Y-112680543D01*
X170175026Y-112660552D01*
X170188910Y-112641832D01*
X170204562Y-112624562D01*
X170221832Y-112608910D01*
X170240552Y-112595026D01*
X170260543Y-112583044D01*
X170281613Y-112573079D01*
X170303557Y-112565227D01*
X170326166Y-112559563D01*
X170349221Y-112556144D01*
X170372500Y-112555000D01*
X170947500Y-112555000D01*
X170970779Y-112556144D01*
X170970779Y-112556144D01*
G37*
D11*
X170660000Y-113030000D03*
D10*
G36*
X169220779Y-112556144D02*
X169243834Y-112559563D01*
X169266443Y-112565227D01*
X169288387Y-112573079D01*
X169309457Y-112583044D01*
X169329448Y-112595026D01*
X169348168Y-112608910D01*
X169365438Y-112624562D01*
X169381090Y-112641832D01*
X169394974Y-112660552D01*
X169406956Y-112680543D01*
X169416921Y-112701613D01*
X169424773Y-112723557D01*
X169430437Y-112746166D01*
X169433856Y-112769221D01*
X169435000Y-112792500D01*
X169435000Y-113267500D01*
X169433856Y-113290779D01*
X169430437Y-113313834D01*
X169424773Y-113336443D01*
X169416921Y-113358387D01*
X169406956Y-113379457D01*
X169394974Y-113399448D01*
X169381090Y-113418168D01*
X169365438Y-113435438D01*
X169348168Y-113451090D01*
X169329448Y-113464974D01*
X169309457Y-113476956D01*
X169288387Y-113486921D01*
X169266443Y-113494773D01*
X169243834Y-113500437D01*
X169220779Y-113503856D01*
X169197500Y-113505000D01*
X168622500Y-113505000D01*
X168599221Y-113503856D01*
X168576166Y-113500437D01*
X168553557Y-113494773D01*
X168531613Y-113486921D01*
X168510543Y-113476956D01*
X168490552Y-113464974D01*
X168471832Y-113451090D01*
X168454562Y-113435438D01*
X168438910Y-113418168D01*
X168425026Y-113399448D01*
X168413044Y-113379457D01*
X168403079Y-113358387D01*
X168395227Y-113336443D01*
X168389563Y-113313834D01*
X168386144Y-113290779D01*
X168385000Y-113267500D01*
X168385000Y-112792500D01*
X168386144Y-112769221D01*
X168389563Y-112746166D01*
X168395227Y-112723557D01*
X168403079Y-112701613D01*
X168413044Y-112680543D01*
X168425026Y-112660552D01*
X168438910Y-112641832D01*
X168454562Y-112624562D01*
X168471832Y-112608910D01*
X168490552Y-112595026D01*
X168510543Y-112583044D01*
X168531613Y-112573079D01*
X168553557Y-112565227D01*
X168576166Y-112559563D01*
X168599221Y-112556144D01*
X168622500Y-112555000D01*
X169197500Y-112555000D01*
X169220779Y-112556144D01*
X169220779Y-112556144D01*
G37*
D11*
X168910000Y-113030000D03*
G04 #@! TD*
D10*
G04 #@! TO.C,C6*
G36*
X164930779Y-112556144D02*
X164953834Y-112559563D01*
X164976443Y-112565227D01*
X164998387Y-112573079D01*
X165019457Y-112583044D01*
X165039448Y-112595026D01*
X165058168Y-112608910D01*
X165075438Y-112624562D01*
X165091090Y-112641832D01*
X165104974Y-112660552D01*
X165116956Y-112680543D01*
X165126921Y-112701613D01*
X165134773Y-112723557D01*
X165140437Y-112746166D01*
X165143856Y-112769221D01*
X165145000Y-112792500D01*
X165145000Y-113267500D01*
X165143856Y-113290779D01*
X165140437Y-113313834D01*
X165134773Y-113336443D01*
X165126921Y-113358387D01*
X165116956Y-113379457D01*
X165104974Y-113399448D01*
X165091090Y-113418168D01*
X165075438Y-113435438D01*
X165058168Y-113451090D01*
X165039448Y-113464974D01*
X165019457Y-113476956D01*
X164998387Y-113486921D01*
X164976443Y-113494773D01*
X164953834Y-113500437D01*
X164930779Y-113503856D01*
X164907500Y-113505000D01*
X164332500Y-113505000D01*
X164309221Y-113503856D01*
X164286166Y-113500437D01*
X164263557Y-113494773D01*
X164241613Y-113486921D01*
X164220543Y-113476956D01*
X164200552Y-113464974D01*
X164181832Y-113451090D01*
X164164562Y-113435438D01*
X164148910Y-113418168D01*
X164135026Y-113399448D01*
X164123044Y-113379457D01*
X164113079Y-113358387D01*
X164105227Y-113336443D01*
X164099563Y-113313834D01*
X164096144Y-113290779D01*
X164095000Y-113267500D01*
X164095000Y-112792500D01*
X164096144Y-112769221D01*
X164099563Y-112746166D01*
X164105227Y-112723557D01*
X164113079Y-112701613D01*
X164123044Y-112680543D01*
X164135026Y-112660552D01*
X164148910Y-112641832D01*
X164164562Y-112624562D01*
X164181832Y-112608910D01*
X164200552Y-112595026D01*
X164220543Y-112583044D01*
X164241613Y-112573079D01*
X164263557Y-112565227D01*
X164286166Y-112559563D01*
X164309221Y-112556144D01*
X164332500Y-112555000D01*
X164907500Y-112555000D01*
X164930779Y-112556144D01*
X164930779Y-112556144D01*
G37*
D11*
X164620000Y-113030000D03*
D10*
G36*
X166680779Y-112556144D02*
X166703834Y-112559563D01*
X166726443Y-112565227D01*
X166748387Y-112573079D01*
X166769457Y-112583044D01*
X166789448Y-112595026D01*
X166808168Y-112608910D01*
X166825438Y-112624562D01*
X166841090Y-112641832D01*
X166854974Y-112660552D01*
X166866956Y-112680543D01*
X166876921Y-112701613D01*
X166884773Y-112723557D01*
X166890437Y-112746166D01*
X166893856Y-112769221D01*
X166895000Y-112792500D01*
X166895000Y-113267500D01*
X166893856Y-113290779D01*
X166890437Y-113313834D01*
X166884773Y-113336443D01*
X166876921Y-113358387D01*
X166866956Y-113379457D01*
X166854974Y-113399448D01*
X166841090Y-113418168D01*
X166825438Y-113435438D01*
X166808168Y-113451090D01*
X166789448Y-113464974D01*
X166769457Y-113476956D01*
X166748387Y-113486921D01*
X166726443Y-113494773D01*
X166703834Y-113500437D01*
X166680779Y-113503856D01*
X166657500Y-113505000D01*
X166082500Y-113505000D01*
X166059221Y-113503856D01*
X166036166Y-113500437D01*
X166013557Y-113494773D01*
X165991613Y-113486921D01*
X165970543Y-113476956D01*
X165950552Y-113464974D01*
X165931832Y-113451090D01*
X165914562Y-113435438D01*
X165898910Y-113418168D01*
X165885026Y-113399448D01*
X165873044Y-113379457D01*
X165863079Y-113358387D01*
X165855227Y-113336443D01*
X165849563Y-113313834D01*
X165846144Y-113290779D01*
X165845000Y-113267500D01*
X165845000Y-112792500D01*
X165846144Y-112769221D01*
X165849563Y-112746166D01*
X165855227Y-112723557D01*
X165863079Y-112701613D01*
X165873044Y-112680543D01*
X165885026Y-112660552D01*
X165898910Y-112641832D01*
X165914562Y-112624562D01*
X165931832Y-112608910D01*
X165950552Y-112595026D01*
X165970543Y-112583044D01*
X165991613Y-112573079D01*
X166013557Y-112565227D01*
X166036166Y-112559563D01*
X166059221Y-112556144D01*
X166082500Y-112555000D01*
X166657500Y-112555000D01*
X166680779Y-112556144D01*
X166680779Y-112556144D01*
G37*
D11*
X166370000Y-113030000D03*
G04 #@! TD*
D10*
G04 #@! TO.C,D1*
G36*
X188270779Y-102650144D02*
X188293834Y-102653563D01*
X188316443Y-102659227D01*
X188338387Y-102667079D01*
X188359457Y-102677044D01*
X188379448Y-102689026D01*
X188398168Y-102702910D01*
X188415438Y-102718562D01*
X188431090Y-102735832D01*
X188444974Y-102754552D01*
X188456956Y-102774543D01*
X188466921Y-102795613D01*
X188474773Y-102817557D01*
X188480437Y-102840166D01*
X188483856Y-102863221D01*
X188485000Y-102886500D01*
X188485000Y-103361500D01*
X188483856Y-103384779D01*
X188480437Y-103407834D01*
X188474773Y-103430443D01*
X188466921Y-103452387D01*
X188456956Y-103473457D01*
X188444974Y-103493448D01*
X188431090Y-103512168D01*
X188415438Y-103529438D01*
X188398168Y-103545090D01*
X188379448Y-103558974D01*
X188359457Y-103570956D01*
X188338387Y-103580921D01*
X188316443Y-103588773D01*
X188293834Y-103594437D01*
X188270779Y-103597856D01*
X188247500Y-103599000D01*
X187672500Y-103599000D01*
X187649221Y-103597856D01*
X187626166Y-103594437D01*
X187603557Y-103588773D01*
X187581613Y-103580921D01*
X187560543Y-103570956D01*
X187540552Y-103558974D01*
X187521832Y-103545090D01*
X187504562Y-103529438D01*
X187488910Y-103512168D01*
X187475026Y-103493448D01*
X187463044Y-103473457D01*
X187453079Y-103452387D01*
X187445227Y-103430443D01*
X187439563Y-103407834D01*
X187436144Y-103384779D01*
X187435000Y-103361500D01*
X187435000Y-102886500D01*
X187436144Y-102863221D01*
X187439563Y-102840166D01*
X187445227Y-102817557D01*
X187453079Y-102795613D01*
X187463044Y-102774543D01*
X187475026Y-102754552D01*
X187488910Y-102735832D01*
X187504562Y-102718562D01*
X187521832Y-102702910D01*
X187540552Y-102689026D01*
X187560543Y-102677044D01*
X187581613Y-102667079D01*
X187603557Y-102659227D01*
X187626166Y-102653563D01*
X187649221Y-102650144D01*
X187672500Y-102649000D01*
X188247500Y-102649000D01*
X188270779Y-102650144D01*
X188270779Y-102650144D01*
G37*
D11*
X187960000Y-103124000D03*
D10*
G36*
X190020779Y-102650144D02*
X190043834Y-102653563D01*
X190066443Y-102659227D01*
X190088387Y-102667079D01*
X190109457Y-102677044D01*
X190129448Y-102689026D01*
X190148168Y-102702910D01*
X190165438Y-102718562D01*
X190181090Y-102735832D01*
X190194974Y-102754552D01*
X190206956Y-102774543D01*
X190216921Y-102795613D01*
X190224773Y-102817557D01*
X190230437Y-102840166D01*
X190233856Y-102863221D01*
X190235000Y-102886500D01*
X190235000Y-103361500D01*
X190233856Y-103384779D01*
X190230437Y-103407834D01*
X190224773Y-103430443D01*
X190216921Y-103452387D01*
X190206956Y-103473457D01*
X190194974Y-103493448D01*
X190181090Y-103512168D01*
X190165438Y-103529438D01*
X190148168Y-103545090D01*
X190129448Y-103558974D01*
X190109457Y-103570956D01*
X190088387Y-103580921D01*
X190066443Y-103588773D01*
X190043834Y-103594437D01*
X190020779Y-103597856D01*
X189997500Y-103599000D01*
X189422500Y-103599000D01*
X189399221Y-103597856D01*
X189376166Y-103594437D01*
X189353557Y-103588773D01*
X189331613Y-103580921D01*
X189310543Y-103570956D01*
X189290552Y-103558974D01*
X189271832Y-103545090D01*
X189254562Y-103529438D01*
X189238910Y-103512168D01*
X189225026Y-103493448D01*
X189213044Y-103473457D01*
X189203079Y-103452387D01*
X189195227Y-103430443D01*
X189189563Y-103407834D01*
X189186144Y-103384779D01*
X189185000Y-103361500D01*
X189185000Y-102886500D01*
X189186144Y-102863221D01*
X189189563Y-102840166D01*
X189195227Y-102817557D01*
X189203079Y-102795613D01*
X189213044Y-102774543D01*
X189225026Y-102754552D01*
X189238910Y-102735832D01*
X189254562Y-102718562D01*
X189271832Y-102702910D01*
X189290552Y-102689026D01*
X189310543Y-102677044D01*
X189331613Y-102667079D01*
X189353557Y-102659227D01*
X189376166Y-102653563D01*
X189399221Y-102650144D01*
X189422500Y-102649000D01*
X189997500Y-102649000D01*
X190020779Y-102650144D01*
X190020779Y-102650144D01*
G37*
D11*
X189710000Y-103124000D03*
G04 #@! TD*
D10*
G04 #@! TO.C,D3*
G36*
X188270779Y-100110144D02*
X188293834Y-100113563D01*
X188316443Y-100119227D01*
X188338387Y-100127079D01*
X188359457Y-100137044D01*
X188379448Y-100149026D01*
X188398168Y-100162910D01*
X188415438Y-100178562D01*
X188431090Y-100195832D01*
X188444974Y-100214552D01*
X188456956Y-100234543D01*
X188466921Y-100255613D01*
X188474773Y-100277557D01*
X188480437Y-100300166D01*
X188483856Y-100323221D01*
X188485000Y-100346500D01*
X188485000Y-100821500D01*
X188483856Y-100844779D01*
X188480437Y-100867834D01*
X188474773Y-100890443D01*
X188466921Y-100912387D01*
X188456956Y-100933457D01*
X188444974Y-100953448D01*
X188431090Y-100972168D01*
X188415438Y-100989438D01*
X188398168Y-101005090D01*
X188379448Y-101018974D01*
X188359457Y-101030956D01*
X188338387Y-101040921D01*
X188316443Y-101048773D01*
X188293834Y-101054437D01*
X188270779Y-101057856D01*
X188247500Y-101059000D01*
X187672500Y-101059000D01*
X187649221Y-101057856D01*
X187626166Y-101054437D01*
X187603557Y-101048773D01*
X187581613Y-101040921D01*
X187560543Y-101030956D01*
X187540552Y-101018974D01*
X187521832Y-101005090D01*
X187504562Y-100989438D01*
X187488910Y-100972168D01*
X187475026Y-100953448D01*
X187463044Y-100933457D01*
X187453079Y-100912387D01*
X187445227Y-100890443D01*
X187439563Y-100867834D01*
X187436144Y-100844779D01*
X187435000Y-100821500D01*
X187435000Y-100346500D01*
X187436144Y-100323221D01*
X187439563Y-100300166D01*
X187445227Y-100277557D01*
X187453079Y-100255613D01*
X187463044Y-100234543D01*
X187475026Y-100214552D01*
X187488910Y-100195832D01*
X187504562Y-100178562D01*
X187521832Y-100162910D01*
X187540552Y-100149026D01*
X187560543Y-100137044D01*
X187581613Y-100127079D01*
X187603557Y-100119227D01*
X187626166Y-100113563D01*
X187649221Y-100110144D01*
X187672500Y-100109000D01*
X188247500Y-100109000D01*
X188270779Y-100110144D01*
X188270779Y-100110144D01*
G37*
D11*
X187960000Y-100584000D03*
D10*
G36*
X190020779Y-100110144D02*
X190043834Y-100113563D01*
X190066443Y-100119227D01*
X190088387Y-100127079D01*
X190109457Y-100137044D01*
X190129448Y-100149026D01*
X190148168Y-100162910D01*
X190165438Y-100178562D01*
X190181090Y-100195832D01*
X190194974Y-100214552D01*
X190206956Y-100234543D01*
X190216921Y-100255613D01*
X190224773Y-100277557D01*
X190230437Y-100300166D01*
X190233856Y-100323221D01*
X190235000Y-100346500D01*
X190235000Y-100821500D01*
X190233856Y-100844779D01*
X190230437Y-100867834D01*
X190224773Y-100890443D01*
X190216921Y-100912387D01*
X190206956Y-100933457D01*
X190194974Y-100953448D01*
X190181090Y-100972168D01*
X190165438Y-100989438D01*
X190148168Y-101005090D01*
X190129448Y-101018974D01*
X190109457Y-101030956D01*
X190088387Y-101040921D01*
X190066443Y-101048773D01*
X190043834Y-101054437D01*
X190020779Y-101057856D01*
X189997500Y-101059000D01*
X189422500Y-101059000D01*
X189399221Y-101057856D01*
X189376166Y-101054437D01*
X189353557Y-101048773D01*
X189331613Y-101040921D01*
X189310543Y-101030956D01*
X189290552Y-101018974D01*
X189271832Y-101005090D01*
X189254562Y-100989438D01*
X189238910Y-100972168D01*
X189225026Y-100953448D01*
X189213044Y-100933457D01*
X189203079Y-100912387D01*
X189195227Y-100890443D01*
X189189563Y-100867834D01*
X189186144Y-100844779D01*
X189185000Y-100821500D01*
X189185000Y-100346500D01*
X189186144Y-100323221D01*
X189189563Y-100300166D01*
X189195227Y-100277557D01*
X189203079Y-100255613D01*
X189213044Y-100234543D01*
X189225026Y-100214552D01*
X189238910Y-100195832D01*
X189254562Y-100178562D01*
X189271832Y-100162910D01*
X189290552Y-100149026D01*
X189310543Y-100137044D01*
X189331613Y-100127079D01*
X189353557Y-100119227D01*
X189376166Y-100113563D01*
X189399221Y-100110144D01*
X189422500Y-100109000D01*
X189997500Y-100109000D01*
X190020779Y-100110144D01*
X190020779Y-100110144D01*
G37*
D11*
X189710000Y-100584000D03*
G04 #@! TD*
D10*
G04 #@! TO.C,D8*
G36*
X253040779Y-92236144D02*
X253063834Y-92239563D01*
X253086443Y-92245227D01*
X253108387Y-92253079D01*
X253129457Y-92263044D01*
X253149448Y-92275026D01*
X253168168Y-92288910D01*
X253185438Y-92304562D01*
X253201090Y-92321832D01*
X253214974Y-92340552D01*
X253226956Y-92360543D01*
X253236921Y-92381613D01*
X253244773Y-92403557D01*
X253250437Y-92426166D01*
X253253856Y-92449221D01*
X253255000Y-92472500D01*
X253255000Y-92947500D01*
X253253856Y-92970779D01*
X253250437Y-92993834D01*
X253244773Y-93016443D01*
X253236921Y-93038387D01*
X253226956Y-93059457D01*
X253214974Y-93079448D01*
X253201090Y-93098168D01*
X253185438Y-93115438D01*
X253168168Y-93131090D01*
X253149448Y-93144974D01*
X253129457Y-93156956D01*
X253108387Y-93166921D01*
X253086443Y-93174773D01*
X253063834Y-93180437D01*
X253040779Y-93183856D01*
X253017500Y-93185000D01*
X252442500Y-93185000D01*
X252419221Y-93183856D01*
X252396166Y-93180437D01*
X252373557Y-93174773D01*
X252351613Y-93166921D01*
X252330543Y-93156956D01*
X252310552Y-93144974D01*
X252291832Y-93131090D01*
X252274562Y-93115438D01*
X252258910Y-93098168D01*
X252245026Y-93079448D01*
X252233044Y-93059457D01*
X252223079Y-93038387D01*
X252215227Y-93016443D01*
X252209563Y-92993834D01*
X252206144Y-92970779D01*
X252205000Y-92947500D01*
X252205000Y-92472500D01*
X252206144Y-92449221D01*
X252209563Y-92426166D01*
X252215227Y-92403557D01*
X252223079Y-92381613D01*
X252233044Y-92360543D01*
X252245026Y-92340552D01*
X252258910Y-92321832D01*
X252274562Y-92304562D01*
X252291832Y-92288910D01*
X252310552Y-92275026D01*
X252330543Y-92263044D01*
X252351613Y-92253079D01*
X252373557Y-92245227D01*
X252396166Y-92239563D01*
X252419221Y-92236144D01*
X252442500Y-92235000D01*
X253017500Y-92235000D01*
X253040779Y-92236144D01*
X253040779Y-92236144D01*
G37*
D11*
X252730000Y-92710000D03*
D10*
G36*
X251290779Y-92236144D02*
X251313834Y-92239563D01*
X251336443Y-92245227D01*
X251358387Y-92253079D01*
X251379457Y-92263044D01*
X251399448Y-92275026D01*
X251418168Y-92288910D01*
X251435438Y-92304562D01*
X251451090Y-92321832D01*
X251464974Y-92340552D01*
X251476956Y-92360543D01*
X251486921Y-92381613D01*
X251494773Y-92403557D01*
X251500437Y-92426166D01*
X251503856Y-92449221D01*
X251505000Y-92472500D01*
X251505000Y-92947500D01*
X251503856Y-92970779D01*
X251500437Y-92993834D01*
X251494773Y-93016443D01*
X251486921Y-93038387D01*
X251476956Y-93059457D01*
X251464974Y-93079448D01*
X251451090Y-93098168D01*
X251435438Y-93115438D01*
X251418168Y-93131090D01*
X251399448Y-93144974D01*
X251379457Y-93156956D01*
X251358387Y-93166921D01*
X251336443Y-93174773D01*
X251313834Y-93180437D01*
X251290779Y-93183856D01*
X251267500Y-93185000D01*
X250692500Y-93185000D01*
X250669221Y-93183856D01*
X250646166Y-93180437D01*
X250623557Y-93174773D01*
X250601613Y-93166921D01*
X250580543Y-93156956D01*
X250560552Y-93144974D01*
X250541832Y-93131090D01*
X250524562Y-93115438D01*
X250508910Y-93098168D01*
X250495026Y-93079448D01*
X250483044Y-93059457D01*
X250473079Y-93038387D01*
X250465227Y-93016443D01*
X250459563Y-92993834D01*
X250456144Y-92970779D01*
X250455000Y-92947500D01*
X250455000Y-92472500D01*
X250456144Y-92449221D01*
X250459563Y-92426166D01*
X250465227Y-92403557D01*
X250473079Y-92381613D01*
X250483044Y-92360543D01*
X250495026Y-92340552D01*
X250508910Y-92321832D01*
X250524562Y-92304562D01*
X250541832Y-92288910D01*
X250560552Y-92275026D01*
X250580543Y-92263044D01*
X250601613Y-92253079D01*
X250623557Y-92245227D01*
X250646166Y-92239563D01*
X250669221Y-92236144D01*
X250692500Y-92235000D01*
X251267500Y-92235000D01*
X251290779Y-92236144D01*
X251290779Y-92236144D01*
G37*
D11*
X250980000Y-92710000D03*
G04 #@! TD*
D10*
G04 #@! TO.C,D9*
G36*
X253040779Y-94776144D02*
X253063834Y-94779563D01*
X253086443Y-94785227D01*
X253108387Y-94793079D01*
X253129457Y-94803044D01*
X253149448Y-94815026D01*
X253168168Y-94828910D01*
X253185438Y-94844562D01*
X253201090Y-94861832D01*
X253214974Y-94880552D01*
X253226956Y-94900543D01*
X253236921Y-94921613D01*
X253244773Y-94943557D01*
X253250437Y-94966166D01*
X253253856Y-94989221D01*
X253255000Y-95012500D01*
X253255000Y-95487500D01*
X253253856Y-95510779D01*
X253250437Y-95533834D01*
X253244773Y-95556443D01*
X253236921Y-95578387D01*
X253226956Y-95599457D01*
X253214974Y-95619448D01*
X253201090Y-95638168D01*
X253185438Y-95655438D01*
X253168168Y-95671090D01*
X253149448Y-95684974D01*
X253129457Y-95696956D01*
X253108387Y-95706921D01*
X253086443Y-95714773D01*
X253063834Y-95720437D01*
X253040779Y-95723856D01*
X253017500Y-95725000D01*
X252442500Y-95725000D01*
X252419221Y-95723856D01*
X252396166Y-95720437D01*
X252373557Y-95714773D01*
X252351613Y-95706921D01*
X252330543Y-95696956D01*
X252310552Y-95684974D01*
X252291832Y-95671090D01*
X252274562Y-95655438D01*
X252258910Y-95638168D01*
X252245026Y-95619448D01*
X252233044Y-95599457D01*
X252223079Y-95578387D01*
X252215227Y-95556443D01*
X252209563Y-95533834D01*
X252206144Y-95510779D01*
X252205000Y-95487500D01*
X252205000Y-95012500D01*
X252206144Y-94989221D01*
X252209563Y-94966166D01*
X252215227Y-94943557D01*
X252223079Y-94921613D01*
X252233044Y-94900543D01*
X252245026Y-94880552D01*
X252258910Y-94861832D01*
X252274562Y-94844562D01*
X252291832Y-94828910D01*
X252310552Y-94815026D01*
X252330543Y-94803044D01*
X252351613Y-94793079D01*
X252373557Y-94785227D01*
X252396166Y-94779563D01*
X252419221Y-94776144D01*
X252442500Y-94775000D01*
X253017500Y-94775000D01*
X253040779Y-94776144D01*
X253040779Y-94776144D01*
G37*
D11*
X252730000Y-95250000D03*
D10*
G36*
X251290779Y-94776144D02*
X251313834Y-94779563D01*
X251336443Y-94785227D01*
X251358387Y-94793079D01*
X251379457Y-94803044D01*
X251399448Y-94815026D01*
X251418168Y-94828910D01*
X251435438Y-94844562D01*
X251451090Y-94861832D01*
X251464974Y-94880552D01*
X251476956Y-94900543D01*
X251486921Y-94921613D01*
X251494773Y-94943557D01*
X251500437Y-94966166D01*
X251503856Y-94989221D01*
X251505000Y-95012500D01*
X251505000Y-95487500D01*
X251503856Y-95510779D01*
X251500437Y-95533834D01*
X251494773Y-95556443D01*
X251486921Y-95578387D01*
X251476956Y-95599457D01*
X251464974Y-95619448D01*
X251451090Y-95638168D01*
X251435438Y-95655438D01*
X251418168Y-95671090D01*
X251399448Y-95684974D01*
X251379457Y-95696956D01*
X251358387Y-95706921D01*
X251336443Y-95714773D01*
X251313834Y-95720437D01*
X251290779Y-95723856D01*
X251267500Y-95725000D01*
X250692500Y-95725000D01*
X250669221Y-95723856D01*
X250646166Y-95720437D01*
X250623557Y-95714773D01*
X250601613Y-95706921D01*
X250580543Y-95696956D01*
X250560552Y-95684974D01*
X250541832Y-95671090D01*
X250524562Y-95655438D01*
X250508910Y-95638168D01*
X250495026Y-95619448D01*
X250483044Y-95599457D01*
X250473079Y-95578387D01*
X250465227Y-95556443D01*
X250459563Y-95533834D01*
X250456144Y-95510779D01*
X250455000Y-95487500D01*
X250455000Y-95012500D01*
X250456144Y-94989221D01*
X250459563Y-94966166D01*
X250465227Y-94943557D01*
X250473079Y-94921613D01*
X250483044Y-94900543D01*
X250495026Y-94880552D01*
X250508910Y-94861832D01*
X250524562Y-94844562D01*
X250541832Y-94828910D01*
X250560552Y-94815026D01*
X250580543Y-94803044D01*
X250601613Y-94793079D01*
X250623557Y-94785227D01*
X250646166Y-94779563D01*
X250669221Y-94776144D01*
X250692500Y-94775000D01*
X251267500Y-94775000D01*
X251290779Y-94776144D01*
X251290779Y-94776144D01*
G37*
D11*
X250980000Y-95250000D03*
G04 #@! TD*
D10*
G04 #@! TO.C,D10*
G36*
X253040779Y-97316144D02*
X253063834Y-97319563D01*
X253086443Y-97325227D01*
X253108387Y-97333079D01*
X253129457Y-97343044D01*
X253149448Y-97355026D01*
X253168168Y-97368910D01*
X253185438Y-97384562D01*
X253201090Y-97401832D01*
X253214974Y-97420552D01*
X253226956Y-97440543D01*
X253236921Y-97461613D01*
X253244773Y-97483557D01*
X253250437Y-97506166D01*
X253253856Y-97529221D01*
X253255000Y-97552500D01*
X253255000Y-98027500D01*
X253253856Y-98050779D01*
X253250437Y-98073834D01*
X253244773Y-98096443D01*
X253236921Y-98118387D01*
X253226956Y-98139457D01*
X253214974Y-98159448D01*
X253201090Y-98178168D01*
X253185438Y-98195438D01*
X253168168Y-98211090D01*
X253149448Y-98224974D01*
X253129457Y-98236956D01*
X253108387Y-98246921D01*
X253086443Y-98254773D01*
X253063834Y-98260437D01*
X253040779Y-98263856D01*
X253017500Y-98265000D01*
X252442500Y-98265000D01*
X252419221Y-98263856D01*
X252396166Y-98260437D01*
X252373557Y-98254773D01*
X252351613Y-98246921D01*
X252330543Y-98236956D01*
X252310552Y-98224974D01*
X252291832Y-98211090D01*
X252274562Y-98195438D01*
X252258910Y-98178168D01*
X252245026Y-98159448D01*
X252233044Y-98139457D01*
X252223079Y-98118387D01*
X252215227Y-98096443D01*
X252209563Y-98073834D01*
X252206144Y-98050779D01*
X252205000Y-98027500D01*
X252205000Y-97552500D01*
X252206144Y-97529221D01*
X252209563Y-97506166D01*
X252215227Y-97483557D01*
X252223079Y-97461613D01*
X252233044Y-97440543D01*
X252245026Y-97420552D01*
X252258910Y-97401832D01*
X252274562Y-97384562D01*
X252291832Y-97368910D01*
X252310552Y-97355026D01*
X252330543Y-97343044D01*
X252351613Y-97333079D01*
X252373557Y-97325227D01*
X252396166Y-97319563D01*
X252419221Y-97316144D01*
X252442500Y-97315000D01*
X253017500Y-97315000D01*
X253040779Y-97316144D01*
X253040779Y-97316144D01*
G37*
D11*
X252730000Y-97790000D03*
D10*
G36*
X251290779Y-97316144D02*
X251313834Y-97319563D01*
X251336443Y-97325227D01*
X251358387Y-97333079D01*
X251379457Y-97343044D01*
X251399448Y-97355026D01*
X251418168Y-97368910D01*
X251435438Y-97384562D01*
X251451090Y-97401832D01*
X251464974Y-97420552D01*
X251476956Y-97440543D01*
X251486921Y-97461613D01*
X251494773Y-97483557D01*
X251500437Y-97506166D01*
X251503856Y-97529221D01*
X251505000Y-97552500D01*
X251505000Y-98027500D01*
X251503856Y-98050779D01*
X251500437Y-98073834D01*
X251494773Y-98096443D01*
X251486921Y-98118387D01*
X251476956Y-98139457D01*
X251464974Y-98159448D01*
X251451090Y-98178168D01*
X251435438Y-98195438D01*
X251418168Y-98211090D01*
X251399448Y-98224974D01*
X251379457Y-98236956D01*
X251358387Y-98246921D01*
X251336443Y-98254773D01*
X251313834Y-98260437D01*
X251290779Y-98263856D01*
X251267500Y-98265000D01*
X250692500Y-98265000D01*
X250669221Y-98263856D01*
X250646166Y-98260437D01*
X250623557Y-98254773D01*
X250601613Y-98246921D01*
X250580543Y-98236956D01*
X250560552Y-98224974D01*
X250541832Y-98211090D01*
X250524562Y-98195438D01*
X250508910Y-98178168D01*
X250495026Y-98159448D01*
X250483044Y-98139457D01*
X250473079Y-98118387D01*
X250465227Y-98096443D01*
X250459563Y-98073834D01*
X250456144Y-98050779D01*
X250455000Y-98027500D01*
X250455000Y-97552500D01*
X250456144Y-97529221D01*
X250459563Y-97506166D01*
X250465227Y-97483557D01*
X250473079Y-97461613D01*
X250483044Y-97440543D01*
X250495026Y-97420552D01*
X250508910Y-97401832D01*
X250524562Y-97384562D01*
X250541832Y-97368910D01*
X250560552Y-97355026D01*
X250580543Y-97343044D01*
X250601613Y-97333079D01*
X250623557Y-97325227D01*
X250646166Y-97319563D01*
X250669221Y-97316144D01*
X250692500Y-97315000D01*
X251267500Y-97315000D01*
X251290779Y-97316144D01*
X251290779Y-97316144D01*
G37*
D11*
X250980000Y-97790000D03*
G04 #@! TD*
D10*
G04 #@! TO.C,D11*
G36*
X251290779Y-99856144D02*
X251313834Y-99859563D01*
X251336443Y-99865227D01*
X251358387Y-99873079D01*
X251379457Y-99883044D01*
X251399448Y-99895026D01*
X251418168Y-99908910D01*
X251435438Y-99924562D01*
X251451090Y-99941832D01*
X251464974Y-99960552D01*
X251476956Y-99980543D01*
X251486921Y-100001613D01*
X251494773Y-100023557D01*
X251500437Y-100046166D01*
X251503856Y-100069221D01*
X251505000Y-100092500D01*
X251505000Y-100567500D01*
X251503856Y-100590779D01*
X251500437Y-100613834D01*
X251494773Y-100636443D01*
X251486921Y-100658387D01*
X251476956Y-100679457D01*
X251464974Y-100699448D01*
X251451090Y-100718168D01*
X251435438Y-100735438D01*
X251418168Y-100751090D01*
X251399448Y-100764974D01*
X251379457Y-100776956D01*
X251358387Y-100786921D01*
X251336443Y-100794773D01*
X251313834Y-100800437D01*
X251290779Y-100803856D01*
X251267500Y-100805000D01*
X250692500Y-100805000D01*
X250669221Y-100803856D01*
X250646166Y-100800437D01*
X250623557Y-100794773D01*
X250601613Y-100786921D01*
X250580543Y-100776956D01*
X250560552Y-100764974D01*
X250541832Y-100751090D01*
X250524562Y-100735438D01*
X250508910Y-100718168D01*
X250495026Y-100699448D01*
X250483044Y-100679457D01*
X250473079Y-100658387D01*
X250465227Y-100636443D01*
X250459563Y-100613834D01*
X250456144Y-100590779D01*
X250455000Y-100567500D01*
X250455000Y-100092500D01*
X250456144Y-100069221D01*
X250459563Y-100046166D01*
X250465227Y-100023557D01*
X250473079Y-100001613D01*
X250483044Y-99980543D01*
X250495026Y-99960552D01*
X250508910Y-99941832D01*
X250524562Y-99924562D01*
X250541832Y-99908910D01*
X250560552Y-99895026D01*
X250580543Y-99883044D01*
X250601613Y-99873079D01*
X250623557Y-99865227D01*
X250646166Y-99859563D01*
X250669221Y-99856144D01*
X250692500Y-99855000D01*
X251267500Y-99855000D01*
X251290779Y-99856144D01*
X251290779Y-99856144D01*
G37*
D11*
X250980000Y-100330000D03*
D10*
G36*
X253040779Y-99856144D02*
X253063834Y-99859563D01*
X253086443Y-99865227D01*
X253108387Y-99873079D01*
X253129457Y-99883044D01*
X253149448Y-99895026D01*
X253168168Y-99908910D01*
X253185438Y-99924562D01*
X253201090Y-99941832D01*
X253214974Y-99960552D01*
X253226956Y-99980543D01*
X253236921Y-100001613D01*
X253244773Y-100023557D01*
X253250437Y-100046166D01*
X253253856Y-100069221D01*
X253255000Y-100092500D01*
X253255000Y-100567500D01*
X253253856Y-100590779D01*
X253250437Y-100613834D01*
X253244773Y-100636443D01*
X253236921Y-100658387D01*
X253226956Y-100679457D01*
X253214974Y-100699448D01*
X253201090Y-100718168D01*
X253185438Y-100735438D01*
X253168168Y-100751090D01*
X253149448Y-100764974D01*
X253129457Y-100776956D01*
X253108387Y-100786921D01*
X253086443Y-100794773D01*
X253063834Y-100800437D01*
X253040779Y-100803856D01*
X253017500Y-100805000D01*
X252442500Y-100805000D01*
X252419221Y-100803856D01*
X252396166Y-100800437D01*
X252373557Y-100794773D01*
X252351613Y-100786921D01*
X252330543Y-100776956D01*
X252310552Y-100764974D01*
X252291832Y-100751090D01*
X252274562Y-100735438D01*
X252258910Y-100718168D01*
X252245026Y-100699448D01*
X252233044Y-100679457D01*
X252223079Y-100658387D01*
X252215227Y-100636443D01*
X252209563Y-100613834D01*
X252206144Y-100590779D01*
X252205000Y-100567500D01*
X252205000Y-100092500D01*
X252206144Y-100069221D01*
X252209563Y-100046166D01*
X252215227Y-100023557D01*
X252223079Y-100001613D01*
X252233044Y-99980543D01*
X252245026Y-99960552D01*
X252258910Y-99941832D01*
X252274562Y-99924562D01*
X252291832Y-99908910D01*
X252310552Y-99895026D01*
X252330543Y-99883044D01*
X252351613Y-99873079D01*
X252373557Y-99865227D01*
X252396166Y-99859563D01*
X252419221Y-99856144D01*
X252442500Y-99855000D01*
X253017500Y-99855000D01*
X253040779Y-99856144D01*
X253040779Y-99856144D01*
G37*
D11*
X252730000Y-100330000D03*
G04 #@! TD*
D10*
G04 #@! TO.C,D12*
G36*
X251290779Y-102396144D02*
X251313834Y-102399563D01*
X251336443Y-102405227D01*
X251358387Y-102413079D01*
X251379457Y-102423044D01*
X251399448Y-102435026D01*
X251418168Y-102448910D01*
X251435438Y-102464562D01*
X251451090Y-102481832D01*
X251464974Y-102500552D01*
X251476956Y-102520543D01*
X251486921Y-102541613D01*
X251494773Y-102563557D01*
X251500437Y-102586166D01*
X251503856Y-102609221D01*
X251505000Y-102632500D01*
X251505000Y-103107500D01*
X251503856Y-103130779D01*
X251500437Y-103153834D01*
X251494773Y-103176443D01*
X251486921Y-103198387D01*
X251476956Y-103219457D01*
X251464974Y-103239448D01*
X251451090Y-103258168D01*
X251435438Y-103275438D01*
X251418168Y-103291090D01*
X251399448Y-103304974D01*
X251379457Y-103316956D01*
X251358387Y-103326921D01*
X251336443Y-103334773D01*
X251313834Y-103340437D01*
X251290779Y-103343856D01*
X251267500Y-103345000D01*
X250692500Y-103345000D01*
X250669221Y-103343856D01*
X250646166Y-103340437D01*
X250623557Y-103334773D01*
X250601613Y-103326921D01*
X250580543Y-103316956D01*
X250560552Y-103304974D01*
X250541832Y-103291090D01*
X250524562Y-103275438D01*
X250508910Y-103258168D01*
X250495026Y-103239448D01*
X250483044Y-103219457D01*
X250473079Y-103198387D01*
X250465227Y-103176443D01*
X250459563Y-103153834D01*
X250456144Y-103130779D01*
X250455000Y-103107500D01*
X250455000Y-102632500D01*
X250456144Y-102609221D01*
X250459563Y-102586166D01*
X250465227Y-102563557D01*
X250473079Y-102541613D01*
X250483044Y-102520543D01*
X250495026Y-102500552D01*
X250508910Y-102481832D01*
X250524562Y-102464562D01*
X250541832Y-102448910D01*
X250560552Y-102435026D01*
X250580543Y-102423044D01*
X250601613Y-102413079D01*
X250623557Y-102405227D01*
X250646166Y-102399563D01*
X250669221Y-102396144D01*
X250692500Y-102395000D01*
X251267500Y-102395000D01*
X251290779Y-102396144D01*
X251290779Y-102396144D01*
G37*
D11*
X250980000Y-102870000D03*
D10*
G36*
X253040779Y-102396144D02*
X253063834Y-102399563D01*
X253086443Y-102405227D01*
X253108387Y-102413079D01*
X253129457Y-102423044D01*
X253149448Y-102435026D01*
X253168168Y-102448910D01*
X253185438Y-102464562D01*
X253201090Y-102481832D01*
X253214974Y-102500552D01*
X253226956Y-102520543D01*
X253236921Y-102541613D01*
X253244773Y-102563557D01*
X253250437Y-102586166D01*
X253253856Y-102609221D01*
X253255000Y-102632500D01*
X253255000Y-103107500D01*
X253253856Y-103130779D01*
X253250437Y-103153834D01*
X253244773Y-103176443D01*
X253236921Y-103198387D01*
X253226956Y-103219457D01*
X253214974Y-103239448D01*
X253201090Y-103258168D01*
X253185438Y-103275438D01*
X253168168Y-103291090D01*
X253149448Y-103304974D01*
X253129457Y-103316956D01*
X253108387Y-103326921D01*
X253086443Y-103334773D01*
X253063834Y-103340437D01*
X253040779Y-103343856D01*
X253017500Y-103345000D01*
X252442500Y-103345000D01*
X252419221Y-103343856D01*
X252396166Y-103340437D01*
X252373557Y-103334773D01*
X252351613Y-103326921D01*
X252330543Y-103316956D01*
X252310552Y-103304974D01*
X252291832Y-103291090D01*
X252274562Y-103275438D01*
X252258910Y-103258168D01*
X252245026Y-103239448D01*
X252233044Y-103219457D01*
X252223079Y-103198387D01*
X252215227Y-103176443D01*
X252209563Y-103153834D01*
X252206144Y-103130779D01*
X252205000Y-103107500D01*
X252205000Y-102632500D01*
X252206144Y-102609221D01*
X252209563Y-102586166D01*
X252215227Y-102563557D01*
X252223079Y-102541613D01*
X252233044Y-102520543D01*
X252245026Y-102500552D01*
X252258910Y-102481832D01*
X252274562Y-102464562D01*
X252291832Y-102448910D01*
X252310552Y-102435026D01*
X252330543Y-102423044D01*
X252351613Y-102413079D01*
X252373557Y-102405227D01*
X252396166Y-102399563D01*
X252419221Y-102396144D01*
X252442500Y-102395000D01*
X253017500Y-102395000D01*
X253040779Y-102396144D01*
X253040779Y-102396144D01*
G37*
D11*
X252730000Y-102870000D03*
G04 #@! TD*
D10*
G04 #@! TO.C,D13*
G36*
X251290779Y-104936144D02*
X251313834Y-104939563D01*
X251336443Y-104945227D01*
X251358387Y-104953079D01*
X251379457Y-104963044D01*
X251399448Y-104975026D01*
X251418168Y-104988910D01*
X251435438Y-105004562D01*
X251451090Y-105021832D01*
X251464974Y-105040552D01*
X251476956Y-105060543D01*
X251486921Y-105081613D01*
X251494773Y-105103557D01*
X251500437Y-105126166D01*
X251503856Y-105149221D01*
X251505000Y-105172500D01*
X251505000Y-105647500D01*
X251503856Y-105670779D01*
X251500437Y-105693834D01*
X251494773Y-105716443D01*
X251486921Y-105738387D01*
X251476956Y-105759457D01*
X251464974Y-105779448D01*
X251451090Y-105798168D01*
X251435438Y-105815438D01*
X251418168Y-105831090D01*
X251399448Y-105844974D01*
X251379457Y-105856956D01*
X251358387Y-105866921D01*
X251336443Y-105874773D01*
X251313834Y-105880437D01*
X251290779Y-105883856D01*
X251267500Y-105885000D01*
X250692500Y-105885000D01*
X250669221Y-105883856D01*
X250646166Y-105880437D01*
X250623557Y-105874773D01*
X250601613Y-105866921D01*
X250580543Y-105856956D01*
X250560552Y-105844974D01*
X250541832Y-105831090D01*
X250524562Y-105815438D01*
X250508910Y-105798168D01*
X250495026Y-105779448D01*
X250483044Y-105759457D01*
X250473079Y-105738387D01*
X250465227Y-105716443D01*
X250459563Y-105693834D01*
X250456144Y-105670779D01*
X250455000Y-105647500D01*
X250455000Y-105172500D01*
X250456144Y-105149221D01*
X250459563Y-105126166D01*
X250465227Y-105103557D01*
X250473079Y-105081613D01*
X250483044Y-105060543D01*
X250495026Y-105040552D01*
X250508910Y-105021832D01*
X250524562Y-105004562D01*
X250541832Y-104988910D01*
X250560552Y-104975026D01*
X250580543Y-104963044D01*
X250601613Y-104953079D01*
X250623557Y-104945227D01*
X250646166Y-104939563D01*
X250669221Y-104936144D01*
X250692500Y-104935000D01*
X251267500Y-104935000D01*
X251290779Y-104936144D01*
X251290779Y-104936144D01*
G37*
D11*
X250980000Y-105410000D03*
D10*
G36*
X253040779Y-104936144D02*
X253063834Y-104939563D01*
X253086443Y-104945227D01*
X253108387Y-104953079D01*
X253129457Y-104963044D01*
X253149448Y-104975026D01*
X253168168Y-104988910D01*
X253185438Y-105004562D01*
X253201090Y-105021832D01*
X253214974Y-105040552D01*
X253226956Y-105060543D01*
X253236921Y-105081613D01*
X253244773Y-105103557D01*
X253250437Y-105126166D01*
X253253856Y-105149221D01*
X253255000Y-105172500D01*
X253255000Y-105647500D01*
X253253856Y-105670779D01*
X253250437Y-105693834D01*
X253244773Y-105716443D01*
X253236921Y-105738387D01*
X253226956Y-105759457D01*
X253214974Y-105779448D01*
X253201090Y-105798168D01*
X253185438Y-105815438D01*
X253168168Y-105831090D01*
X253149448Y-105844974D01*
X253129457Y-105856956D01*
X253108387Y-105866921D01*
X253086443Y-105874773D01*
X253063834Y-105880437D01*
X253040779Y-105883856D01*
X253017500Y-105885000D01*
X252442500Y-105885000D01*
X252419221Y-105883856D01*
X252396166Y-105880437D01*
X252373557Y-105874773D01*
X252351613Y-105866921D01*
X252330543Y-105856956D01*
X252310552Y-105844974D01*
X252291832Y-105831090D01*
X252274562Y-105815438D01*
X252258910Y-105798168D01*
X252245026Y-105779448D01*
X252233044Y-105759457D01*
X252223079Y-105738387D01*
X252215227Y-105716443D01*
X252209563Y-105693834D01*
X252206144Y-105670779D01*
X252205000Y-105647500D01*
X252205000Y-105172500D01*
X252206144Y-105149221D01*
X252209563Y-105126166D01*
X252215227Y-105103557D01*
X252223079Y-105081613D01*
X252233044Y-105060543D01*
X252245026Y-105040552D01*
X252258910Y-105021832D01*
X252274562Y-105004562D01*
X252291832Y-104988910D01*
X252310552Y-104975026D01*
X252330543Y-104963044D01*
X252351613Y-104953079D01*
X252373557Y-104945227D01*
X252396166Y-104939563D01*
X252419221Y-104936144D01*
X252442500Y-104935000D01*
X253017500Y-104935000D01*
X253040779Y-104936144D01*
X253040779Y-104936144D01*
G37*
D11*
X252730000Y-105410000D03*
G04 #@! TD*
D10*
G04 #@! TO.C,D14*
G36*
X251290779Y-107476144D02*
X251313834Y-107479563D01*
X251336443Y-107485227D01*
X251358387Y-107493079D01*
X251379457Y-107503044D01*
X251399448Y-107515026D01*
X251418168Y-107528910D01*
X251435438Y-107544562D01*
X251451090Y-107561832D01*
X251464974Y-107580552D01*
X251476956Y-107600543D01*
X251486921Y-107621613D01*
X251494773Y-107643557D01*
X251500437Y-107666166D01*
X251503856Y-107689221D01*
X251505000Y-107712500D01*
X251505000Y-108187500D01*
X251503856Y-108210779D01*
X251500437Y-108233834D01*
X251494773Y-108256443D01*
X251486921Y-108278387D01*
X251476956Y-108299457D01*
X251464974Y-108319448D01*
X251451090Y-108338168D01*
X251435438Y-108355438D01*
X251418168Y-108371090D01*
X251399448Y-108384974D01*
X251379457Y-108396956D01*
X251358387Y-108406921D01*
X251336443Y-108414773D01*
X251313834Y-108420437D01*
X251290779Y-108423856D01*
X251267500Y-108425000D01*
X250692500Y-108425000D01*
X250669221Y-108423856D01*
X250646166Y-108420437D01*
X250623557Y-108414773D01*
X250601613Y-108406921D01*
X250580543Y-108396956D01*
X250560552Y-108384974D01*
X250541832Y-108371090D01*
X250524562Y-108355438D01*
X250508910Y-108338168D01*
X250495026Y-108319448D01*
X250483044Y-108299457D01*
X250473079Y-108278387D01*
X250465227Y-108256443D01*
X250459563Y-108233834D01*
X250456144Y-108210779D01*
X250455000Y-108187500D01*
X250455000Y-107712500D01*
X250456144Y-107689221D01*
X250459563Y-107666166D01*
X250465227Y-107643557D01*
X250473079Y-107621613D01*
X250483044Y-107600543D01*
X250495026Y-107580552D01*
X250508910Y-107561832D01*
X250524562Y-107544562D01*
X250541832Y-107528910D01*
X250560552Y-107515026D01*
X250580543Y-107503044D01*
X250601613Y-107493079D01*
X250623557Y-107485227D01*
X250646166Y-107479563D01*
X250669221Y-107476144D01*
X250692500Y-107475000D01*
X251267500Y-107475000D01*
X251290779Y-107476144D01*
X251290779Y-107476144D01*
G37*
D11*
X250980000Y-107950000D03*
D10*
G36*
X253040779Y-107476144D02*
X253063834Y-107479563D01*
X253086443Y-107485227D01*
X253108387Y-107493079D01*
X253129457Y-107503044D01*
X253149448Y-107515026D01*
X253168168Y-107528910D01*
X253185438Y-107544562D01*
X253201090Y-107561832D01*
X253214974Y-107580552D01*
X253226956Y-107600543D01*
X253236921Y-107621613D01*
X253244773Y-107643557D01*
X253250437Y-107666166D01*
X253253856Y-107689221D01*
X253255000Y-107712500D01*
X253255000Y-108187500D01*
X253253856Y-108210779D01*
X253250437Y-108233834D01*
X253244773Y-108256443D01*
X253236921Y-108278387D01*
X253226956Y-108299457D01*
X253214974Y-108319448D01*
X253201090Y-108338168D01*
X253185438Y-108355438D01*
X253168168Y-108371090D01*
X253149448Y-108384974D01*
X253129457Y-108396956D01*
X253108387Y-108406921D01*
X253086443Y-108414773D01*
X253063834Y-108420437D01*
X253040779Y-108423856D01*
X253017500Y-108425000D01*
X252442500Y-108425000D01*
X252419221Y-108423856D01*
X252396166Y-108420437D01*
X252373557Y-108414773D01*
X252351613Y-108406921D01*
X252330543Y-108396956D01*
X252310552Y-108384974D01*
X252291832Y-108371090D01*
X252274562Y-108355438D01*
X252258910Y-108338168D01*
X252245026Y-108319448D01*
X252233044Y-108299457D01*
X252223079Y-108278387D01*
X252215227Y-108256443D01*
X252209563Y-108233834D01*
X252206144Y-108210779D01*
X252205000Y-108187500D01*
X252205000Y-107712500D01*
X252206144Y-107689221D01*
X252209563Y-107666166D01*
X252215227Y-107643557D01*
X252223079Y-107621613D01*
X252233044Y-107600543D01*
X252245026Y-107580552D01*
X252258910Y-107561832D01*
X252274562Y-107544562D01*
X252291832Y-107528910D01*
X252310552Y-107515026D01*
X252330543Y-107503044D01*
X252351613Y-107493079D01*
X252373557Y-107485227D01*
X252396166Y-107479563D01*
X252419221Y-107476144D01*
X252442500Y-107475000D01*
X253017500Y-107475000D01*
X253040779Y-107476144D01*
X253040779Y-107476144D01*
G37*
D11*
X252730000Y-107950000D03*
G04 #@! TD*
D10*
G04 #@! TO.C,D15*
G36*
X251290779Y-110016144D02*
X251313834Y-110019563D01*
X251336443Y-110025227D01*
X251358387Y-110033079D01*
X251379457Y-110043044D01*
X251399448Y-110055026D01*
X251418168Y-110068910D01*
X251435438Y-110084562D01*
X251451090Y-110101832D01*
X251464974Y-110120552D01*
X251476956Y-110140543D01*
X251486921Y-110161613D01*
X251494773Y-110183557D01*
X251500437Y-110206166D01*
X251503856Y-110229221D01*
X251505000Y-110252500D01*
X251505000Y-110727500D01*
X251503856Y-110750779D01*
X251500437Y-110773834D01*
X251494773Y-110796443D01*
X251486921Y-110818387D01*
X251476956Y-110839457D01*
X251464974Y-110859448D01*
X251451090Y-110878168D01*
X251435438Y-110895438D01*
X251418168Y-110911090D01*
X251399448Y-110924974D01*
X251379457Y-110936956D01*
X251358387Y-110946921D01*
X251336443Y-110954773D01*
X251313834Y-110960437D01*
X251290779Y-110963856D01*
X251267500Y-110965000D01*
X250692500Y-110965000D01*
X250669221Y-110963856D01*
X250646166Y-110960437D01*
X250623557Y-110954773D01*
X250601613Y-110946921D01*
X250580543Y-110936956D01*
X250560552Y-110924974D01*
X250541832Y-110911090D01*
X250524562Y-110895438D01*
X250508910Y-110878168D01*
X250495026Y-110859448D01*
X250483044Y-110839457D01*
X250473079Y-110818387D01*
X250465227Y-110796443D01*
X250459563Y-110773834D01*
X250456144Y-110750779D01*
X250455000Y-110727500D01*
X250455000Y-110252500D01*
X250456144Y-110229221D01*
X250459563Y-110206166D01*
X250465227Y-110183557D01*
X250473079Y-110161613D01*
X250483044Y-110140543D01*
X250495026Y-110120552D01*
X250508910Y-110101832D01*
X250524562Y-110084562D01*
X250541832Y-110068910D01*
X250560552Y-110055026D01*
X250580543Y-110043044D01*
X250601613Y-110033079D01*
X250623557Y-110025227D01*
X250646166Y-110019563D01*
X250669221Y-110016144D01*
X250692500Y-110015000D01*
X251267500Y-110015000D01*
X251290779Y-110016144D01*
X251290779Y-110016144D01*
G37*
D11*
X250980000Y-110490000D03*
D10*
G36*
X253040779Y-110016144D02*
X253063834Y-110019563D01*
X253086443Y-110025227D01*
X253108387Y-110033079D01*
X253129457Y-110043044D01*
X253149448Y-110055026D01*
X253168168Y-110068910D01*
X253185438Y-110084562D01*
X253201090Y-110101832D01*
X253214974Y-110120552D01*
X253226956Y-110140543D01*
X253236921Y-110161613D01*
X253244773Y-110183557D01*
X253250437Y-110206166D01*
X253253856Y-110229221D01*
X253255000Y-110252500D01*
X253255000Y-110727500D01*
X253253856Y-110750779D01*
X253250437Y-110773834D01*
X253244773Y-110796443D01*
X253236921Y-110818387D01*
X253226956Y-110839457D01*
X253214974Y-110859448D01*
X253201090Y-110878168D01*
X253185438Y-110895438D01*
X253168168Y-110911090D01*
X253149448Y-110924974D01*
X253129457Y-110936956D01*
X253108387Y-110946921D01*
X253086443Y-110954773D01*
X253063834Y-110960437D01*
X253040779Y-110963856D01*
X253017500Y-110965000D01*
X252442500Y-110965000D01*
X252419221Y-110963856D01*
X252396166Y-110960437D01*
X252373557Y-110954773D01*
X252351613Y-110946921D01*
X252330543Y-110936956D01*
X252310552Y-110924974D01*
X252291832Y-110911090D01*
X252274562Y-110895438D01*
X252258910Y-110878168D01*
X252245026Y-110859448D01*
X252233044Y-110839457D01*
X252223079Y-110818387D01*
X252215227Y-110796443D01*
X252209563Y-110773834D01*
X252206144Y-110750779D01*
X252205000Y-110727500D01*
X252205000Y-110252500D01*
X252206144Y-110229221D01*
X252209563Y-110206166D01*
X252215227Y-110183557D01*
X252223079Y-110161613D01*
X252233044Y-110140543D01*
X252245026Y-110120552D01*
X252258910Y-110101832D01*
X252274562Y-110084562D01*
X252291832Y-110068910D01*
X252310552Y-110055026D01*
X252330543Y-110043044D01*
X252351613Y-110033079D01*
X252373557Y-110025227D01*
X252396166Y-110019563D01*
X252419221Y-110016144D01*
X252442500Y-110015000D01*
X253017500Y-110015000D01*
X253040779Y-110016144D01*
X253040779Y-110016144D01*
G37*
D11*
X252730000Y-110490000D03*
G04 #@! TD*
D12*
G04 #@! TO.C,Q1*
X164560000Y-92390000D03*
X162560000Y-93340000D03*
X162560000Y-91440000D03*
G04 #@! TD*
G04 #@! TO.C,Q2*
X172720000Y-91440000D03*
X172720000Y-93340000D03*
X174720000Y-92390000D03*
G04 #@! TD*
D10*
G04 #@! TO.C,R1*
G36*
X193830779Y-102650144D02*
X193853834Y-102653563D01*
X193876443Y-102659227D01*
X193898387Y-102667079D01*
X193919457Y-102677044D01*
X193939448Y-102689026D01*
X193958168Y-102702910D01*
X193975438Y-102718562D01*
X193991090Y-102735832D01*
X194004974Y-102754552D01*
X194016956Y-102774543D01*
X194026921Y-102795613D01*
X194034773Y-102817557D01*
X194040437Y-102840166D01*
X194043856Y-102863221D01*
X194045000Y-102886500D01*
X194045000Y-103361500D01*
X194043856Y-103384779D01*
X194040437Y-103407834D01*
X194034773Y-103430443D01*
X194026921Y-103452387D01*
X194016956Y-103473457D01*
X194004974Y-103493448D01*
X193991090Y-103512168D01*
X193975438Y-103529438D01*
X193958168Y-103545090D01*
X193939448Y-103558974D01*
X193919457Y-103570956D01*
X193898387Y-103580921D01*
X193876443Y-103588773D01*
X193853834Y-103594437D01*
X193830779Y-103597856D01*
X193807500Y-103599000D01*
X193232500Y-103599000D01*
X193209221Y-103597856D01*
X193186166Y-103594437D01*
X193163557Y-103588773D01*
X193141613Y-103580921D01*
X193120543Y-103570956D01*
X193100552Y-103558974D01*
X193081832Y-103545090D01*
X193064562Y-103529438D01*
X193048910Y-103512168D01*
X193035026Y-103493448D01*
X193023044Y-103473457D01*
X193013079Y-103452387D01*
X193005227Y-103430443D01*
X192999563Y-103407834D01*
X192996144Y-103384779D01*
X192995000Y-103361500D01*
X192995000Y-102886500D01*
X192996144Y-102863221D01*
X192999563Y-102840166D01*
X193005227Y-102817557D01*
X193013079Y-102795613D01*
X193023044Y-102774543D01*
X193035026Y-102754552D01*
X193048910Y-102735832D01*
X193064562Y-102718562D01*
X193081832Y-102702910D01*
X193100552Y-102689026D01*
X193120543Y-102677044D01*
X193141613Y-102667079D01*
X193163557Y-102659227D01*
X193186166Y-102653563D01*
X193209221Y-102650144D01*
X193232500Y-102649000D01*
X193807500Y-102649000D01*
X193830779Y-102650144D01*
X193830779Y-102650144D01*
G37*
D11*
X193520000Y-103124000D03*
D10*
G36*
X192080779Y-102650144D02*
X192103834Y-102653563D01*
X192126443Y-102659227D01*
X192148387Y-102667079D01*
X192169457Y-102677044D01*
X192189448Y-102689026D01*
X192208168Y-102702910D01*
X192225438Y-102718562D01*
X192241090Y-102735832D01*
X192254974Y-102754552D01*
X192266956Y-102774543D01*
X192276921Y-102795613D01*
X192284773Y-102817557D01*
X192290437Y-102840166D01*
X192293856Y-102863221D01*
X192295000Y-102886500D01*
X192295000Y-103361500D01*
X192293856Y-103384779D01*
X192290437Y-103407834D01*
X192284773Y-103430443D01*
X192276921Y-103452387D01*
X192266956Y-103473457D01*
X192254974Y-103493448D01*
X192241090Y-103512168D01*
X192225438Y-103529438D01*
X192208168Y-103545090D01*
X192189448Y-103558974D01*
X192169457Y-103570956D01*
X192148387Y-103580921D01*
X192126443Y-103588773D01*
X192103834Y-103594437D01*
X192080779Y-103597856D01*
X192057500Y-103599000D01*
X191482500Y-103599000D01*
X191459221Y-103597856D01*
X191436166Y-103594437D01*
X191413557Y-103588773D01*
X191391613Y-103580921D01*
X191370543Y-103570956D01*
X191350552Y-103558974D01*
X191331832Y-103545090D01*
X191314562Y-103529438D01*
X191298910Y-103512168D01*
X191285026Y-103493448D01*
X191273044Y-103473457D01*
X191263079Y-103452387D01*
X191255227Y-103430443D01*
X191249563Y-103407834D01*
X191246144Y-103384779D01*
X191245000Y-103361500D01*
X191245000Y-102886500D01*
X191246144Y-102863221D01*
X191249563Y-102840166D01*
X191255227Y-102817557D01*
X191263079Y-102795613D01*
X191273044Y-102774543D01*
X191285026Y-102754552D01*
X191298910Y-102735832D01*
X191314562Y-102718562D01*
X191331832Y-102702910D01*
X191350552Y-102689026D01*
X191370543Y-102677044D01*
X191391613Y-102667079D01*
X191413557Y-102659227D01*
X191436166Y-102653563D01*
X191459221Y-102650144D01*
X191482500Y-102649000D01*
X192057500Y-102649000D01*
X192080779Y-102650144D01*
X192080779Y-102650144D01*
G37*
D11*
X191770000Y-103124000D03*
G04 #@! TD*
D10*
G04 #@! TO.C,R2*
G36*
X249230779Y-99856144D02*
X249253834Y-99859563D01*
X249276443Y-99865227D01*
X249298387Y-99873079D01*
X249319457Y-99883044D01*
X249339448Y-99895026D01*
X249358168Y-99908910D01*
X249375438Y-99924562D01*
X249391090Y-99941832D01*
X249404974Y-99960552D01*
X249416956Y-99980543D01*
X249426921Y-100001613D01*
X249434773Y-100023557D01*
X249440437Y-100046166D01*
X249443856Y-100069221D01*
X249445000Y-100092500D01*
X249445000Y-100567500D01*
X249443856Y-100590779D01*
X249440437Y-100613834D01*
X249434773Y-100636443D01*
X249426921Y-100658387D01*
X249416956Y-100679457D01*
X249404974Y-100699448D01*
X249391090Y-100718168D01*
X249375438Y-100735438D01*
X249358168Y-100751090D01*
X249339448Y-100764974D01*
X249319457Y-100776956D01*
X249298387Y-100786921D01*
X249276443Y-100794773D01*
X249253834Y-100800437D01*
X249230779Y-100803856D01*
X249207500Y-100805000D01*
X248632500Y-100805000D01*
X248609221Y-100803856D01*
X248586166Y-100800437D01*
X248563557Y-100794773D01*
X248541613Y-100786921D01*
X248520543Y-100776956D01*
X248500552Y-100764974D01*
X248481832Y-100751090D01*
X248464562Y-100735438D01*
X248448910Y-100718168D01*
X248435026Y-100699448D01*
X248423044Y-100679457D01*
X248413079Y-100658387D01*
X248405227Y-100636443D01*
X248399563Y-100613834D01*
X248396144Y-100590779D01*
X248395000Y-100567500D01*
X248395000Y-100092500D01*
X248396144Y-100069221D01*
X248399563Y-100046166D01*
X248405227Y-100023557D01*
X248413079Y-100001613D01*
X248423044Y-99980543D01*
X248435026Y-99960552D01*
X248448910Y-99941832D01*
X248464562Y-99924562D01*
X248481832Y-99908910D01*
X248500552Y-99895026D01*
X248520543Y-99883044D01*
X248541613Y-99873079D01*
X248563557Y-99865227D01*
X248586166Y-99859563D01*
X248609221Y-99856144D01*
X248632500Y-99855000D01*
X249207500Y-99855000D01*
X249230779Y-99856144D01*
X249230779Y-99856144D01*
G37*
D11*
X248920000Y-100330000D03*
D10*
G36*
X247480779Y-99856144D02*
X247503834Y-99859563D01*
X247526443Y-99865227D01*
X247548387Y-99873079D01*
X247569457Y-99883044D01*
X247589448Y-99895026D01*
X247608168Y-99908910D01*
X247625438Y-99924562D01*
X247641090Y-99941832D01*
X247654974Y-99960552D01*
X247666956Y-99980543D01*
X247676921Y-100001613D01*
X247684773Y-100023557D01*
X247690437Y-100046166D01*
X247693856Y-100069221D01*
X247695000Y-100092500D01*
X247695000Y-100567500D01*
X247693856Y-100590779D01*
X247690437Y-100613834D01*
X247684773Y-100636443D01*
X247676921Y-100658387D01*
X247666956Y-100679457D01*
X247654974Y-100699448D01*
X247641090Y-100718168D01*
X247625438Y-100735438D01*
X247608168Y-100751090D01*
X247589448Y-100764974D01*
X247569457Y-100776956D01*
X247548387Y-100786921D01*
X247526443Y-100794773D01*
X247503834Y-100800437D01*
X247480779Y-100803856D01*
X247457500Y-100805000D01*
X246882500Y-100805000D01*
X246859221Y-100803856D01*
X246836166Y-100800437D01*
X246813557Y-100794773D01*
X246791613Y-100786921D01*
X246770543Y-100776956D01*
X246750552Y-100764974D01*
X246731832Y-100751090D01*
X246714562Y-100735438D01*
X246698910Y-100718168D01*
X246685026Y-100699448D01*
X246673044Y-100679457D01*
X246663079Y-100658387D01*
X246655227Y-100636443D01*
X246649563Y-100613834D01*
X246646144Y-100590779D01*
X246645000Y-100567500D01*
X246645000Y-100092500D01*
X246646144Y-100069221D01*
X246649563Y-100046166D01*
X246655227Y-100023557D01*
X246663079Y-100001613D01*
X246673044Y-99980543D01*
X246685026Y-99960552D01*
X246698910Y-99941832D01*
X246714562Y-99924562D01*
X246731832Y-99908910D01*
X246750552Y-99895026D01*
X246770543Y-99883044D01*
X246791613Y-99873079D01*
X246813557Y-99865227D01*
X246836166Y-99859563D01*
X246859221Y-99856144D01*
X246882500Y-99855000D01*
X247457500Y-99855000D01*
X247480779Y-99856144D01*
X247480779Y-99856144D01*
G37*
D11*
X247170000Y-100330000D03*
G04 #@! TD*
D10*
G04 #@! TO.C,R3*
G36*
X193830779Y-100110144D02*
X193853834Y-100113563D01*
X193876443Y-100119227D01*
X193898387Y-100127079D01*
X193919457Y-100137044D01*
X193939448Y-100149026D01*
X193958168Y-100162910D01*
X193975438Y-100178562D01*
X193991090Y-100195832D01*
X194004974Y-100214552D01*
X194016956Y-100234543D01*
X194026921Y-100255613D01*
X194034773Y-100277557D01*
X194040437Y-100300166D01*
X194043856Y-100323221D01*
X194045000Y-100346500D01*
X194045000Y-100821500D01*
X194043856Y-100844779D01*
X194040437Y-100867834D01*
X194034773Y-100890443D01*
X194026921Y-100912387D01*
X194016956Y-100933457D01*
X194004974Y-100953448D01*
X193991090Y-100972168D01*
X193975438Y-100989438D01*
X193958168Y-101005090D01*
X193939448Y-101018974D01*
X193919457Y-101030956D01*
X193898387Y-101040921D01*
X193876443Y-101048773D01*
X193853834Y-101054437D01*
X193830779Y-101057856D01*
X193807500Y-101059000D01*
X193232500Y-101059000D01*
X193209221Y-101057856D01*
X193186166Y-101054437D01*
X193163557Y-101048773D01*
X193141613Y-101040921D01*
X193120543Y-101030956D01*
X193100552Y-101018974D01*
X193081832Y-101005090D01*
X193064562Y-100989438D01*
X193048910Y-100972168D01*
X193035026Y-100953448D01*
X193023044Y-100933457D01*
X193013079Y-100912387D01*
X193005227Y-100890443D01*
X192999563Y-100867834D01*
X192996144Y-100844779D01*
X192995000Y-100821500D01*
X192995000Y-100346500D01*
X192996144Y-100323221D01*
X192999563Y-100300166D01*
X193005227Y-100277557D01*
X193013079Y-100255613D01*
X193023044Y-100234543D01*
X193035026Y-100214552D01*
X193048910Y-100195832D01*
X193064562Y-100178562D01*
X193081832Y-100162910D01*
X193100552Y-100149026D01*
X193120543Y-100137044D01*
X193141613Y-100127079D01*
X193163557Y-100119227D01*
X193186166Y-100113563D01*
X193209221Y-100110144D01*
X193232500Y-100109000D01*
X193807500Y-100109000D01*
X193830779Y-100110144D01*
X193830779Y-100110144D01*
G37*
D11*
X193520000Y-100584000D03*
D10*
G36*
X192080779Y-100110144D02*
X192103834Y-100113563D01*
X192126443Y-100119227D01*
X192148387Y-100127079D01*
X192169457Y-100137044D01*
X192189448Y-100149026D01*
X192208168Y-100162910D01*
X192225438Y-100178562D01*
X192241090Y-100195832D01*
X192254974Y-100214552D01*
X192266956Y-100234543D01*
X192276921Y-100255613D01*
X192284773Y-100277557D01*
X192290437Y-100300166D01*
X192293856Y-100323221D01*
X192295000Y-100346500D01*
X192295000Y-100821500D01*
X192293856Y-100844779D01*
X192290437Y-100867834D01*
X192284773Y-100890443D01*
X192276921Y-100912387D01*
X192266956Y-100933457D01*
X192254974Y-100953448D01*
X192241090Y-100972168D01*
X192225438Y-100989438D01*
X192208168Y-101005090D01*
X192189448Y-101018974D01*
X192169457Y-101030956D01*
X192148387Y-101040921D01*
X192126443Y-101048773D01*
X192103834Y-101054437D01*
X192080779Y-101057856D01*
X192057500Y-101059000D01*
X191482500Y-101059000D01*
X191459221Y-101057856D01*
X191436166Y-101054437D01*
X191413557Y-101048773D01*
X191391613Y-101040921D01*
X191370543Y-101030956D01*
X191350552Y-101018974D01*
X191331832Y-101005090D01*
X191314562Y-100989438D01*
X191298910Y-100972168D01*
X191285026Y-100953448D01*
X191273044Y-100933457D01*
X191263079Y-100912387D01*
X191255227Y-100890443D01*
X191249563Y-100867834D01*
X191246144Y-100844779D01*
X191245000Y-100821500D01*
X191245000Y-100346500D01*
X191246144Y-100323221D01*
X191249563Y-100300166D01*
X191255227Y-100277557D01*
X191263079Y-100255613D01*
X191273044Y-100234543D01*
X191285026Y-100214552D01*
X191298910Y-100195832D01*
X191314562Y-100178562D01*
X191331832Y-100162910D01*
X191350552Y-100149026D01*
X191370543Y-100137044D01*
X191391613Y-100127079D01*
X191413557Y-100119227D01*
X191436166Y-100113563D01*
X191459221Y-100110144D01*
X191482500Y-100109000D01*
X192057500Y-100109000D01*
X192080779Y-100110144D01*
X192080779Y-100110144D01*
G37*
D11*
X191770000Y-100584000D03*
G04 #@! TD*
D10*
G04 #@! TO.C,R8*
G36*
X247480779Y-92236144D02*
X247503834Y-92239563D01*
X247526443Y-92245227D01*
X247548387Y-92253079D01*
X247569457Y-92263044D01*
X247589448Y-92275026D01*
X247608168Y-92288910D01*
X247625438Y-92304562D01*
X247641090Y-92321832D01*
X247654974Y-92340552D01*
X247666956Y-92360543D01*
X247676921Y-92381613D01*
X247684773Y-92403557D01*
X247690437Y-92426166D01*
X247693856Y-92449221D01*
X247695000Y-92472500D01*
X247695000Y-92947500D01*
X247693856Y-92970779D01*
X247690437Y-92993834D01*
X247684773Y-93016443D01*
X247676921Y-93038387D01*
X247666956Y-93059457D01*
X247654974Y-93079448D01*
X247641090Y-93098168D01*
X247625438Y-93115438D01*
X247608168Y-93131090D01*
X247589448Y-93144974D01*
X247569457Y-93156956D01*
X247548387Y-93166921D01*
X247526443Y-93174773D01*
X247503834Y-93180437D01*
X247480779Y-93183856D01*
X247457500Y-93185000D01*
X246882500Y-93185000D01*
X246859221Y-93183856D01*
X246836166Y-93180437D01*
X246813557Y-93174773D01*
X246791613Y-93166921D01*
X246770543Y-93156956D01*
X246750552Y-93144974D01*
X246731832Y-93131090D01*
X246714562Y-93115438D01*
X246698910Y-93098168D01*
X246685026Y-93079448D01*
X246673044Y-93059457D01*
X246663079Y-93038387D01*
X246655227Y-93016443D01*
X246649563Y-92993834D01*
X246646144Y-92970779D01*
X246645000Y-92947500D01*
X246645000Y-92472500D01*
X246646144Y-92449221D01*
X246649563Y-92426166D01*
X246655227Y-92403557D01*
X246663079Y-92381613D01*
X246673044Y-92360543D01*
X246685026Y-92340552D01*
X246698910Y-92321832D01*
X246714562Y-92304562D01*
X246731832Y-92288910D01*
X246750552Y-92275026D01*
X246770543Y-92263044D01*
X246791613Y-92253079D01*
X246813557Y-92245227D01*
X246836166Y-92239563D01*
X246859221Y-92236144D01*
X246882500Y-92235000D01*
X247457500Y-92235000D01*
X247480779Y-92236144D01*
X247480779Y-92236144D01*
G37*
D11*
X247170000Y-92710000D03*
D10*
G36*
X249230779Y-92236144D02*
X249253834Y-92239563D01*
X249276443Y-92245227D01*
X249298387Y-92253079D01*
X249319457Y-92263044D01*
X249339448Y-92275026D01*
X249358168Y-92288910D01*
X249375438Y-92304562D01*
X249391090Y-92321832D01*
X249404974Y-92340552D01*
X249416956Y-92360543D01*
X249426921Y-92381613D01*
X249434773Y-92403557D01*
X249440437Y-92426166D01*
X249443856Y-92449221D01*
X249445000Y-92472500D01*
X249445000Y-92947500D01*
X249443856Y-92970779D01*
X249440437Y-92993834D01*
X249434773Y-93016443D01*
X249426921Y-93038387D01*
X249416956Y-93059457D01*
X249404974Y-93079448D01*
X249391090Y-93098168D01*
X249375438Y-93115438D01*
X249358168Y-93131090D01*
X249339448Y-93144974D01*
X249319457Y-93156956D01*
X249298387Y-93166921D01*
X249276443Y-93174773D01*
X249253834Y-93180437D01*
X249230779Y-93183856D01*
X249207500Y-93185000D01*
X248632500Y-93185000D01*
X248609221Y-93183856D01*
X248586166Y-93180437D01*
X248563557Y-93174773D01*
X248541613Y-93166921D01*
X248520543Y-93156956D01*
X248500552Y-93144974D01*
X248481832Y-93131090D01*
X248464562Y-93115438D01*
X248448910Y-93098168D01*
X248435026Y-93079448D01*
X248423044Y-93059457D01*
X248413079Y-93038387D01*
X248405227Y-93016443D01*
X248399563Y-92993834D01*
X248396144Y-92970779D01*
X248395000Y-92947500D01*
X248395000Y-92472500D01*
X248396144Y-92449221D01*
X248399563Y-92426166D01*
X248405227Y-92403557D01*
X248413079Y-92381613D01*
X248423044Y-92360543D01*
X248435026Y-92340552D01*
X248448910Y-92321832D01*
X248464562Y-92304562D01*
X248481832Y-92288910D01*
X248500552Y-92275026D01*
X248520543Y-92263044D01*
X248541613Y-92253079D01*
X248563557Y-92245227D01*
X248586166Y-92239563D01*
X248609221Y-92236144D01*
X248632500Y-92235000D01*
X249207500Y-92235000D01*
X249230779Y-92236144D01*
X249230779Y-92236144D01*
G37*
D11*
X248920000Y-92710000D03*
G04 #@! TD*
D10*
G04 #@! TO.C,R9*
G36*
X249230779Y-94776144D02*
X249253834Y-94779563D01*
X249276443Y-94785227D01*
X249298387Y-94793079D01*
X249319457Y-94803044D01*
X249339448Y-94815026D01*
X249358168Y-94828910D01*
X249375438Y-94844562D01*
X249391090Y-94861832D01*
X249404974Y-94880552D01*
X249416956Y-94900543D01*
X249426921Y-94921613D01*
X249434773Y-94943557D01*
X249440437Y-94966166D01*
X249443856Y-94989221D01*
X249445000Y-95012500D01*
X249445000Y-95487500D01*
X249443856Y-95510779D01*
X249440437Y-95533834D01*
X249434773Y-95556443D01*
X249426921Y-95578387D01*
X249416956Y-95599457D01*
X249404974Y-95619448D01*
X249391090Y-95638168D01*
X249375438Y-95655438D01*
X249358168Y-95671090D01*
X249339448Y-95684974D01*
X249319457Y-95696956D01*
X249298387Y-95706921D01*
X249276443Y-95714773D01*
X249253834Y-95720437D01*
X249230779Y-95723856D01*
X249207500Y-95725000D01*
X248632500Y-95725000D01*
X248609221Y-95723856D01*
X248586166Y-95720437D01*
X248563557Y-95714773D01*
X248541613Y-95706921D01*
X248520543Y-95696956D01*
X248500552Y-95684974D01*
X248481832Y-95671090D01*
X248464562Y-95655438D01*
X248448910Y-95638168D01*
X248435026Y-95619448D01*
X248423044Y-95599457D01*
X248413079Y-95578387D01*
X248405227Y-95556443D01*
X248399563Y-95533834D01*
X248396144Y-95510779D01*
X248395000Y-95487500D01*
X248395000Y-95012500D01*
X248396144Y-94989221D01*
X248399563Y-94966166D01*
X248405227Y-94943557D01*
X248413079Y-94921613D01*
X248423044Y-94900543D01*
X248435026Y-94880552D01*
X248448910Y-94861832D01*
X248464562Y-94844562D01*
X248481832Y-94828910D01*
X248500552Y-94815026D01*
X248520543Y-94803044D01*
X248541613Y-94793079D01*
X248563557Y-94785227D01*
X248586166Y-94779563D01*
X248609221Y-94776144D01*
X248632500Y-94775000D01*
X249207500Y-94775000D01*
X249230779Y-94776144D01*
X249230779Y-94776144D01*
G37*
D11*
X248920000Y-95250000D03*
D10*
G36*
X247480779Y-94776144D02*
X247503834Y-94779563D01*
X247526443Y-94785227D01*
X247548387Y-94793079D01*
X247569457Y-94803044D01*
X247589448Y-94815026D01*
X247608168Y-94828910D01*
X247625438Y-94844562D01*
X247641090Y-94861832D01*
X247654974Y-94880552D01*
X247666956Y-94900543D01*
X247676921Y-94921613D01*
X247684773Y-94943557D01*
X247690437Y-94966166D01*
X247693856Y-94989221D01*
X247695000Y-95012500D01*
X247695000Y-95487500D01*
X247693856Y-95510779D01*
X247690437Y-95533834D01*
X247684773Y-95556443D01*
X247676921Y-95578387D01*
X247666956Y-95599457D01*
X247654974Y-95619448D01*
X247641090Y-95638168D01*
X247625438Y-95655438D01*
X247608168Y-95671090D01*
X247589448Y-95684974D01*
X247569457Y-95696956D01*
X247548387Y-95706921D01*
X247526443Y-95714773D01*
X247503834Y-95720437D01*
X247480779Y-95723856D01*
X247457500Y-95725000D01*
X246882500Y-95725000D01*
X246859221Y-95723856D01*
X246836166Y-95720437D01*
X246813557Y-95714773D01*
X246791613Y-95706921D01*
X246770543Y-95696956D01*
X246750552Y-95684974D01*
X246731832Y-95671090D01*
X246714562Y-95655438D01*
X246698910Y-95638168D01*
X246685026Y-95619448D01*
X246673044Y-95599457D01*
X246663079Y-95578387D01*
X246655227Y-95556443D01*
X246649563Y-95533834D01*
X246646144Y-95510779D01*
X246645000Y-95487500D01*
X246645000Y-95012500D01*
X246646144Y-94989221D01*
X246649563Y-94966166D01*
X246655227Y-94943557D01*
X246663079Y-94921613D01*
X246673044Y-94900543D01*
X246685026Y-94880552D01*
X246698910Y-94861832D01*
X246714562Y-94844562D01*
X246731832Y-94828910D01*
X246750552Y-94815026D01*
X246770543Y-94803044D01*
X246791613Y-94793079D01*
X246813557Y-94785227D01*
X246836166Y-94779563D01*
X246859221Y-94776144D01*
X246882500Y-94775000D01*
X247457500Y-94775000D01*
X247480779Y-94776144D01*
X247480779Y-94776144D01*
G37*
D11*
X247170000Y-95250000D03*
G04 #@! TD*
D10*
G04 #@! TO.C,R10*
G36*
X247480779Y-97316144D02*
X247503834Y-97319563D01*
X247526443Y-97325227D01*
X247548387Y-97333079D01*
X247569457Y-97343044D01*
X247589448Y-97355026D01*
X247608168Y-97368910D01*
X247625438Y-97384562D01*
X247641090Y-97401832D01*
X247654974Y-97420552D01*
X247666956Y-97440543D01*
X247676921Y-97461613D01*
X247684773Y-97483557D01*
X247690437Y-97506166D01*
X247693856Y-97529221D01*
X247695000Y-97552500D01*
X247695000Y-98027500D01*
X247693856Y-98050779D01*
X247690437Y-98073834D01*
X247684773Y-98096443D01*
X247676921Y-98118387D01*
X247666956Y-98139457D01*
X247654974Y-98159448D01*
X247641090Y-98178168D01*
X247625438Y-98195438D01*
X247608168Y-98211090D01*
X247589448Y-98224974D01*
X247569457Y-98236956D01*
X247548387Y-98246921D01*
X247526443Y-98254773D01*
X247503834Y-98260437D01*
X247480779Y-98263856D01*
X247457500Y-98265000D01*
X246882500Y-98265000D01*
X246859221Y-98263856D01*
X246836166Y-98260437D01*
X246813557Y-98254773D01*
X246791613Y-98246921D01*
X246770543Y-98236956D01*
X246750552Y-98224974D01*
X246731832Y-98211090D01*
X246714562Y-98195438D01*
X246698910Y-98178168D01*
X246685026Y-98159448D01*
X246673044Y-98139457D01*
X246663079Y-98118387D01*
X246655227Y-98096443D01*
X246649563Y-98073834D01*
X246646144Y-98050779D01*
X246645000Y-98027500D01*
X246645000Y-97552500D01*
X246646144Y-97529221D01*
X246649563Y-97506166D01*
X246655227Y-97483557D01*
X246663079Y-97461613D01*
X246673044Y-97440543D01*
X246685026Y-97420552D01*
X246698910Y-97401832D01*
X246714562Y-97384562D01*
X246731832Y-97368910D01*
X246750552Y-97355026D01*
X246770543Y-97343044D01*
X246791613Y-97333079D01*
X246813557Y-97325227D01*
X246836166Y-97319563D01*
X246859221Y-97316144D01*
X246882500Y-97315000D01*
X247457500Y-97315000D01*
X247480779Y-97316144D01*
X247480779Y-97316144D01*
G37*
D11*
X247170000Y-97790000D03*
D10*
G36*
X249230779Y-97316144D02*
X249253834Y-97319563D01*
X249276443Y-97325227D01*
X249298387Y-97333079D01*
X249319457Y-97343044D01*
X249339448Y-97355026D01*
X249358168Y-97368910D01*
X249375438Y-97384562D01*
X249391090Y-97401832D01*
X249404974Y-97420552D01*
X249416956Y-97440543D01*
X249426921Y-97461613D01*
X249434773Y-97483557D01*
X249440437Y-97506166D01*
X249443856Y-97529221D01*
X249445000Y-97552500D01*
X249445000Y-98027500D01*
X249443856Y-98050779D01*
X249440437Y-98073834D01*
X249434773Y-98096443D01*
X249426921Y-98118387D01*
X249416956Y-98139457D01*
X249404974Y-98159448D01*
X249391090Y-98178168D01*
X249375438Y-98195438D01*
X249358168Y-98211090D01*
X249339448Y-98224974D01*
X249319457Y-98236956D01*
X249298387Y-98246921D01*
X249276443Y-98254773D01*
X249253834Y-98260437D01*
X249230779Y-98263856D01*
X249207500Y-98265000D01*
X248632500Y-98265000D01*
X248609221Y-98263856D01*
X248586166Y-98260437D01*
X248563557Y-98254773D01*
X248541613Y-98246921D01*
X248520543Y-98236956D01*
X248500552Y-98224974D01*
X248481832Y-98211090D01*
X248464562Y-98195438D01*
X248448910Y-98178168D01*
X248435026Y-98159448D01*
X248423044Y-98139457D01*
X248413079Y-98118387D01*
X248405227Y-98096443D01*
X248399563Y-98073834D01*
X248396144Y-98050779D01*
X248395000Y-98027500D01*
X248395000Y-97552500D01*
X248396144Y-97529221D01*
X248399563Y-97506166D01*
X248405227Y-97483557D01*
X248413079Y-97461613D01*
X248423044Y-97440543D01*
X248435026Y-97420552D01*
X248448910Y-97401832D01*
X248464562Y-97384562D01*
X248481832Y-97368910D01*
X248500552Y-97355026D01*
X248520543Y-97343044D01*
X248541613Y-97333079D01*
X248563557Y-97325227D01*
X248586166Y-97319563D01*
X248609221Y-97316144D01*
X248632500Y-97315000D01*
X249207500Y-97315000D01*
X249230779Y-97316144D01*
X249230779Y-97316144D01*
G37*
D11*
X248920000Y-97790000D03*
G04 #@! TD*
D10*
G04 #@! TO.C,R11*
G36*
X247480779Y-102396144D02*
X247503834Y-102399563D01*
X247526443Y-102405227D01*
X247548387Y-102413079D01*
X247569457Y-102423044D01*
X247589448Y-102435026D01*
X247608168Y-102448910D01*
X247625438Y-102464562D01*
X247641090Y-102481832D01*
X247654974Y-102500552D01*
X247666956Y-102520543D01*
X247676921Y-102541613D01*
X247684773Y-102563557D01*
X247690437Y-102586166D01*
X247693856Y-102609221D01*
X247695000Y-102632500D01*
X247695000Y-103107500D01*
X247693856Y-103130779D01*
X247690437Y-103153834D01*
X247684773Y-103176443D01*
X247676921Y-103198387D01*
X247666956Y-103219457D01*
X247654974Y-103239448D01*
X247641090Y-103258168D01*
X247625438Y-103275438D01*
X247608168Y-103291090D01*
X247589448Y-103304974D01*
X247569457Y-103316956D01*
X247548387Y-103326921D01*
X247526443Y-103334773D01*
X247503834Y-103340437D01*
X247480779Y-103343856D01*
X247457500Y-103345000D01*
X246882500Y-103345000D01*
X246859221Y-103343856D01*
X246836166Y-103340437D01*
X246813557Y-103334773D01*
X246791613Y-103326921D01*
X246770543Y-103316956D01*
X246750552Y-103304974D01*
X246731832Y-103291090D01*
X246714562Y-103275438D01*
X246698910Y-103258168D01*
X246685026Y-103239448D01*
X246673044Y-103219457D01*
X246663079Y-103198387D01*
X246655227Y-103176443D01*
X246649563Y-103153834D01*
X246646144Y-103130779D01*
X246645000Y-103107500D01*
X246645000Y-102632500D01*
X246646144Y-102609221D01*
X246649563Y-102586166D01*
X246655227Y-102563557D01*
X246663079Y-102541613D01*
X246673044Y-102520543D01*
X246685026Y-102500552D01*
X246698910Y-102481832D01*
X246714562Y-102464562D01*
X246731832Y-102448910D01*
X246750552Y-102435026D01*
X246770543Y-102423044D01*
X246791613Y-102413079D01*
X246813557Y-102405227D01*
X246836166Y-102399563D01*
X246859221Y-102396144D01*
X246882500Y-102395000D01*
X247457500Y-102395000D01*
X247480779Y-102396144D01*
X247480779Y-102396144D01*
G37*
D11*
X247170000Y-102870000D03*
D10*
G36*
X249230779Y-102396144D02*
X249253834Y-102399563D01*
X249276443Y-102405227D01*
X249298387Y-102413079D01*
X249319457Y-102423044D01*
X249339448Y-102435026D01*
X249358168Y-102448910D01*
X249375438Y-102464562D01*
X249391090Y-102481832D01*
X249404974Y-102500552D01*
X249416956Y-102520543D01*
X249426921Y-102541613D01*
X249434773Y-102563557D01*
X249440437Y-102586166D01*
X249443856Y-102609221D01*
X249445000Y-102632500D01*
X249445000Y-103107500D01*
X249443856Y-103130779D01*
X249440437Y-103153834D01*
X249434773Y-103176443D01*
X249426921Y-103198387D01*
X249416956Y-103219457D01*
X249404974Y-103239448D01*
X249391090Y-103258168D01*
X249375438Y-103275438D01*
X249358168Y-103291090D01*
X249339448Y-103304974D01*
X249319457Y-103316956D01*
X249298387Y-103326921D01*
X249276443Y-103334773D01*
X249253834Y-103340437D01*
X249230779Y-103343856D01*
X249207500Y-103345000D01*
X248632500Y-103345000D01*
X248609221Y-103343856D01*
X248586166Y-103340437D01*
X248563557Y-103334773D01*
X248541613Y-103326921D01*
X248520543Y-103316956D01*
X248500552Y-103304974D01*
X248481832Y-103291090D01*
X248464562Y-103275438D01*
X248448910Y-103258168D01*
X248435026Y-103239448D01*
X248423044Y-103219457D01*
X248413079Y-103198387D01*
X248405227Y-103176443D01*
X248399563Y-103153834D01*
X248396144Y-103130779D01*
X248395000Y-103107500D01*
X248395000Y-102632500D01*
X248396144Y-102609221D01*
X248399563Y-102586166D01*
X248405227Y-102563557D01*
X248413079Y-102541613D01*
X248423044Y-102520543D01*
X248435026Y-102500552D01*
X248448910Y-102481832D01*
X248464562Y-102464562D01*
X248481832Y-102448910D01*
X248500552Y-102435026D01*
X248520543Y-102423044D01*
X248541613Y-102413079D01*
X248563557Y-102405227D01*
X248586166Y-102399563D01*
X248609221Y-102396144D01*
X248632500Y-102395000D01*
X249207500Y-102395000D01*
X249230779Y-102396144D01*
X249230779Y-102396144D01*
G37*
D11*
X248920000Y-102870000D03*
G04 #@! TD*
D10*
G04 #@! TO.C,R12*
G36*
X249230779Y-104936144D02*
X249253834Y-104939563D01*
X249276443Y-104945227D01*
X249298387Y-104953079D01*
X249319457Y-104963044D01*
X249339448Y-104975026D01*
X249358168Y-104988910D01*
X249375438Y-105004562D01*
X249391090Y-105021832D01*
X249404974Y-105040552D01*
X249416956Y-105060543D01*
X249426921Y-105081613D01*
X249434773Y-105103557D01*
X249440437Y-105126166D01*
X249443856Y-105149221D01*
X249445000Y-105172500D01*
X249445000Y-105647500D01*
X249443856Y-105670779D01*
X249440437Y-105693834D01*
X249434773Y-105716443D01*
X249426921Y-105738387D01*
X249416956Y-105759457D01*
X249404974Y-105779448D01*
X249391090Y-105798168D01*
X249375438Y-105815438D01*
X249358168Y-105831090D01*
X249339448Y-105844974D01*
X249319457Y-105856956D01*
X249298387Y-105866921D01*
X249276443Y-105874773D01*
X249253834Y-105880437D01*
X249230779Y-105883856D01*
X249207500Y-105885000D01*
X248632500Y-105885000D01*
X248609221Y-105883856D01*
X248586166Y-105880437D01*
X248563557Y-105874773D01*
X248541613Y-105866921D01*
X248520543Y-105856956D01*
X248500552Y-105844974D01*
X248481832Y-105831090D01*
X248464562Y-105815438D01*
X248448910Y-105798168D01*
X248435026Y-105779448D01*
X248423044Y-105759457D01*
X248413079Y-105738387D01*
X248405227Y-105716443D01*
X248399563Y-105693834D01*
X248396144Y-105670779D01*
X248395000Y-105647500D01*
X248395000Y-105172500D01*
X248396144Y-105149221D01*
X248399563Y-105126166D01*
X248405227Y-105103557D01*
X248413079Y-105081613D01*
X248423044Y-105060543D01*
X248435026Y-105040552D01*
X248448910Y-105021832D01*
X248464562Y-105004562D01*
X248481832Y-104988910D01*
X248500552Y-104975026D01*
X248520543Y-104963044D01*
X248541613Y-104953079D01*
X248563557Y-104945227D01*
X248586166Y-104939563D01*
X248609221Y-104936144D01*
X248632500Y-104935000D01*
X249207500Y-104935000D01*
X249230779Y-104936144D01*
X249230779Y-104936144D01*
G37*
D11*
X248920000Y-105410000D03*
D10*
G36*
X247480779Y-104936144D02*
X247503834Y-104939563D01*
X247526443Y-104945227D01*
X247548387Y-104953079D01*
X247569457Y-104963044D01*
X247589448Y-104975026D01*
X247608168Y-104988910D01*
X247625438Y-105004562D01*
X247641090Y-105021832D01*
X247654974Y-105040552D01*
X247666956Y-105060543D01*
X247676921Y-105081613D01*
X247684773Y-105103557D01*
X247690437Y-105126166D01*
X247693856Y-105149221D01*
X247695000Y-105172500D01*
X247695000Y-105647500D01*
X247693856Y-105670779D01*
X247690437Y-105693834D01*
X247684773Y-105716443D01*
X247676921Y-105738387D01*
X247666956Y-105759457D01*
X247654974Y-105779448D01*
X247641090Y-105798168D01*
X247625438Y-105815438D01*
X247608168Y-105831090D01*
X247589448Y-105844974D01*
X247569457Y-105856956D01*
X247548387Y-105866921D01*
X247526443Y-105874773D01*
X247503834Y-105880437D01*
X247480779Y-105883856D01*
X247457500Y-105885000D01*
X246882500Y-105885000D01*
X246859221Y-105883856D01*
X246836166Y-105880437D01*
X246813557Y-105874773D01*
X246791613Y-105866921D01*
X246770543Y-105856956D01*
X246750552Y-105844974D01*
X246731832Y-105831090D01*
X246714562Y-105815438D01*
X246698910Y-105798168D01*
X246685026Y-105779448D01*
X246673044Y-105759457D01*
X246663079Y-105738387D01*
X246655227Y-105716443D01*
X246649563Y-105693834D01*
X246646144Y-105670779D01*
X246645000Y-105647500D01*
X246645000Y-105172500D01*
X246646144Y-105149221D01*
X246649563Y-105126166D01*
X246655227Y-105103557D01*
X246663079Y-105081613D01*
X246673044Y-105060543D01*
X246685026Y-105040552D01*
X246698910Y-105021832D01*
X246714562Y-105004562D01*
X246731832Y-104988910D01*
X246750552Y-104975026D01*
X246770543Y-104963044D01*
X246791613Y-104953079D01*
X246813557Y-104945227D01*
X246836166Y-104939563D01*
X246859221Y-104936144D01*
X246882500Y-104935000D01*
X247457500Y-104935000D01*
X247480779Y-104936144D01*
X247480779Y-104936144D01*
G37*
D11*
X247170000Y-105410000D03*
G04 #@! TD*
D10*
G04 #@! TO.C,R13*
G36*
X247480779Y-107476144D02*
X247503834Y-107479563D01*
X247526443Y-107485227D01*
X247548387Y-107493079D01*
X247569457Y-107503044D01*
X247589448Y-107515026D01*
X247608168Y-107528910D01*
X247625438Y-107544562D01*
X247641090Y-107561832D01*
X247654974Y-107580552D01*
X247666956Y-107600543D01*
X247676921Y-107621613D01*
X247684773Y-107643557D01*
X247690437Y-107666166D01*
X247693856Y-107689221D01*
X247695000Y-107712500D01*
X247695000Y-108187500D01*
X247693856Y-108210779D01*
X247690437Y-108233834D01*
X247684773Y-108256443D01*
X247676921Y-108278387D01*
X247666956Y-108299457D01*
X247654974Y-108319448D01*
X247641090Y-108338168D01*
X247625438Y-108355438D01*
X247608168Y-108371090D01*
X247589448Y-108384974D01*
X247569457Y-108396956D01*
X247548387Y-108406921D01*
X247526443Y-108414773D01*
X247503834Y-108420437D01*
X247480779Y-108423856D01*
X247457500Y-108425000D01*
X246882500Y-108425000D01*
X246859221Y-108423856D01*
X246836166Y-108420437D01*
X246813557Y-108414773D01*
X246791613Y-108406921D01*
X246770543Y-108396956D01*
X246750552Y-108384974D01*
X246731832Y-108371090D01*
X246714562Y-108355438D01*
X246698910Y-108338168D01*
X246685026Y-108319448D01*
X246673044Y-108299457D01*
X246663079Y-108278387D01*
X246655227Y-108256443D01*
X246649563Y-108233834D01*
X246646144Y-108210779D01*
X246645000Y-108187500D01*
X246645000Y-107712500D01*
X246646144Y-107689221D01*
X246649563Y-107666166D01*
X246655227Y-107643557D01*
X246663079Y-107621613D01*
X246673044Y-107600543D01*
X246685026Y-107580552D01*
X246698910Y-107561832D01*
X246714562Y-107544562D01*
X246731832Y-107528910D01*
X246750552Y-107515026D01*
X246770543Y-107503044D01*
X246791613Y-107493079D01*
X246813557Y-107485227D01*
X246836166Y-107479563D01*
X246859221Y-107476144D01*
X246882500Y-107475000D01*
X247457500Y-107475000D01*
X247480779Y-107476144D01*
X247480779Y-107476144D01*
G37*
D11*
X247170000Y-107950000D03*
D10*
G36*
X249230779Y-107476144D02*
X249253834Y-107479563D01*
X249276443Y-107485227D01*
X249298387Y-107493079D01*
X249319457Y-107503044D01*
X249339448Y-107515026D01*
X249358168Y-107528910D01*
X249375438Y-107544562D01*
X249391090Y-107561832D01*
X249404974Y-107580552D01*
X249416956Y-107600543D01*
X249426921Y-107621613D01*
X249434773Y-107643557D01*
X249440437Y-107666166D01*
X249443856Y-107689221D01*
X249445000Y-107712500D01*
X249445000Y-108187500D01*
X249443856Y-108210779D01*
X249440437Y-108233834D01*
X249434773Y-108256443D01*
X249426921Y-108278387D01*
X249416956Y-108299457D01*
X249404974Y-108319448D01*
X249391090Y-108338168D01*
X249375438Y-108355438D01*
X249358168Y-108371090D01*
X249339448Y-108384974D01*
X249319457Y-108396956D01*
X249298387Y-108406921D01*
X249276443Y-108414773D01*
X249253834Y-108420437D01*
X249230779Y-108423856D01*
X249207500Y-108425000D01*
X248632500Y-108425000D01*
X248609221Y-108423856D01*
X248586166Y-108420437D01*
X248563557Y-108414773D01*
X248541613Y-108406921D01*
X248520543Y-108396956D01*
X248500552Y-108384974D01*
X248481832Y-108371090D01*
X248464562Y-108355438D01*
X248448910Y-108338168D01*
X248435026Y-108319448D01*
X248423044Y-108299457D01*
X248413079Y-108278387D01*
X248405227Y-108256443D01*
X248399563Y-108233834D01*
X248396144Y-108210779D01*
X248395000Y-108187500D01*
X248395000Y-107712500D01*
X248396144Y-107689221D01*
X248399563Y-107666166D01*
X248405227Y-107643557D01*
X248413079Y-107621613D01*
X248423044Y-107600543D01*
X248435026Y-107580552D01*
X248448910Y-107561832D01*
X248464562Y-107544562D01*
X248481832Y-107528910D01*
X248500552Y-107515026D01*
X248520543Y-107503044D01*
X248541613Y-107493079D01*
X248563557Y-107485227D01*
X248586166Y-107479563D01*
X248609221Y-107476144D01*
X248632500Y-107475000D01*
X249207500Y-107475000D01*
X249230779Y-107476144D01*
X249230779Y-107476144D01*
G37*
D11*
X248920000Y-107950000D03*
G04 #@! TD*
D10*
G04 #@! TO.C,R14*
G36*
X249230779Y-110016144D02*
X249253834Y-110019563D01*
X249276443Y-110025227D01*
X249298387Y-110033079D01*
X249319457Y-110043044D01*
X249339448Y-110055026D01*
X249358168Y-110068910D01*
X249375438Y-110084562D01*
X249391090Y-110101832D01*
X249404974Y-110120552D01*
X249416956Y-110140543D01*
X249426921Y-110161613D01*
X249434773Y-110183557D01*
X249440437Y-110206166D01*
X249443856Y-110229221D01*
X249445000Y-110252500D01*
X249445000Y-110727500D01*
X249443856Y-110750779D01*
X249440437Y-110773834D01*
X249434773Y-110796443D01*
X249426921Y-110818387D01*
X249416956Y-110839457D01*
X249404974Y-110859448D01*
X249391090Y-110878168D01*
X249375438Y-110895438D01*
X249358168Y-110911090D01*
X249339448Y-110924974D01*
X249319457Y-110936956D01*
X249298387Y-110946921D01*
X249276443Y-110954773D01*
X249253834Y-110960437D01*
X249230779Y-110963856D01*
X249207500Y-110965000D01*
X248632500Y-110965000D01*
X248609221Y-110963856D01*
X248586166Y-110960437D01*
X248563557Y-110954773D01*
X248541613Y-110946921D01*
X248520543Y-110936956D01*
X248500552Y-110924974D01*
X248481832Y-110911090D01*
X248464562Y-110895438D01*
X248448910Y-110878168D01*
X248435026Y-110859448D01*
X248423044Y-110839457D01*
X248413079Y-110818387D01*
X248405227Y-110796443D01*
X248399563Y-110773834D01*
X248396144Y-110750779D01*
X248395000Y-110727500D01*
X248395000Y-110252500D01*
X248396144Y-110229221D01*
X248399563Y-110206166D01*
X248405227Y-110183557D01*
X248413079Y-110161613D01*
X248423044Y-110140543D01*
X248435026Y-110120552D01*
X248448910Y-110101832D01*
X248464562Y-110084562D01*
X248481832Y-110068910D01*
X248500552Y-110055026D01*
X248520543Y-110043044D01*
X248541613Y-110033079D01*
X248563557Y-110025227D01*
X248586166Y-110019563D01*
X248609221Y-110016144D01*
X248632500Y-110015000D01*
X249207500Y-110015000D01*
X249230779Y-110016144D01*
X249230779Y-110016144D01*
G37*
D11*
X248920000Y-110490000D03*
D10*
G36*
X247480779Y-110016144D02*
X247503834Y-110019563D01*
X247526443Y-110025227D01*
X247548387Y-110033079D01*
X247569457Y-110043044D01*
X247589448Y-110055026D01*
X247608168Y-110068910D01*
X247625438Y-110084562D01*
X247641090Y-110101832D01*
X247654974Y-110120552D01*
X247666956Y-110140543D01*
X247676921Y-110161613D01*
X247684773Y-110183557D01*
X247690437Y-110206166D01*
X247693856Y-110229221D01*
X247695000Y-110252500D01*
X247695000Y-110727500D01*
X247693856Y-110750779D01*
X247690437Y-110773834D01*
X247684773Y-110796443D01*
X247676921Y-110818387D01*
X247666956Y-110839457D01*
X247654974Y-110859448D01*
X247641090Y-110878168D01*
X247625438Y-110895438D01*
X247608168Y-110911090D01*
X247589448Y-110924974D01*
X247569457Y-110936956D01*
X247548387Y-110946921D01*
X247526443Y-110954773D01*
X247503834Y-110960437D01*
X247480779Y-110963856D01*
X247457500Y-110965000D01*
X246882500Y-110965000D01*
X246859221Y-110963856D01*
X246836166Y-110960437D01*
X246813557Y-110954773D01*
X246791613Y-110946921D01*
X246770543Y-110936956D01*
X246750552Y-110924974D01*
X246731832Y-110911090D01*
X246714562Y-110895438D01*
X246698910Y-110878168D01*
X246685026Y-110859448D01*
X246673044Y-110839457D01*
X246663079Y-110818387D01*
X246655227Y-110796443D01*
X246649563Y-110773834D01*
X246646144Y-110750779D01*
X246645000Y-110727500D01*
X246645000Y-110252500D01*
X246646144Y-110229221D01*
X246649563Y-110206166D01*
X246655227Y-110183557D01*
X246663079Y-110161613D01*
X246673044Y-110140543D01*
X246685026Y-110120552D01*
X246698910Y-110101832D01*
X246714562Y-110084562D01*
X246731832Y-110068910D01*
X246750552Y-110055026D01*
X246770543Y-110043044D01*
X246791613Y-110033079D01*
X246813557Y-110025227D01*
X246836166Y-110019563D01*
X246859221Y-110016144D01*
X246882500Y-110015000D01*
X247457500Y-110015000D01*
X247480779Y-110016144D01*
X247480779Y-110016144D01*
G37*
D11*
X247170000Y-110490000D03*
G04 #@! TD*
D13*
G04 #@! TO.C,U1*
X195580000Y-132080000D03*
X218440000Y-86360000D03*
X215900000Y-86360000D03*
X208280000Y-86360000D03*
X205740000Y-129540000D03*
X210820000Y-86360000D03*
X213360000Y-86360000D03*
X210820000Y-132080000D03*
X215900000Y-129540000D03*
X205740000Y-86360000D03*
X203200000Y-86360000D03*
X215900000Y-132080000D03*
X210820000Y-129540000D03*
X208280000Y-129540000D03*
X195580000Y-129540000D03*
X198120000Y-129540000D03*
X200660000Y-129540000D03*
X203200000Y-129540000D03*
X213360000Y-129540000D03*
X218440000Y-129540000D03*
X198120000Y-132080000D03*
X200660000Y-132080000D03*
X203200000Y-132080000D03*
X205740000Y-132080000D03*
X208280000Y-132080000D03*
X213360000Y-132080000D03*
X218440000Y-132080000D03*
X195580000Y-88900000D03*
X198120000Y-88900000D03*
X200660000Y-88900000D03*
X203200000Y-88900000D03*
X205740000Y-88900000D03*
X208280000Y-88900000D03*
X210820000Y-88900000D03*
X213360000Y-88900000D03*
X215900000Y-88900000D03*
X218440000Y-88900000D03*
X195580000Y-86360000D03*
X198120000Y-86360000D03*
X200660000Y-86360000D03*
X132080000Y-129540000D03*
X134620000Y-129540000D03*
X137160000Y-129540000D03*
X139700000Y-129540000D03*
X142240000Y-129540000D03*
X144780000Y-129540000D03*
X147320000Y-129540000D03*
X149860000Y-129540000D03*
X152400000Y-129540000D03*
X154940000Y-129540000D03*
X132080000Y-132080000D03*
X134620000Y-132080000D03*
X137160000Y-132080000D03*
X139700000Y-132080000D03*
X142240000Y-132080000D03*
X144780000Y-132080000D03*
X147320000Y-132080000D03*
X149860000Y-132080000D03*
X152400000Y-132080000D03*
X154940000Y-132080000D03*
X132080000Y-88900000D03*
X134620000Y-88900000D03*
X137160000Y-88900000D03*
X139700000Y-88900000D03*
X142240000Y-88900000D03*
X144780000Y-88900000D03*
X147320000Y-88900000D03*
X149860000Y-88900000D03*
X152400000Y-88900000D03*
X154940000Y-88900000D03*
X132080000Y-86360000D03*
X134620000Y-86360000D03*
X137160000Y-86360000D03*
X139700000Y-86360000D03*
X142240000Y-86360000D03*
X144780000Y-86360000D03*
X147320000Y-86360000D03*
X149860000Y-86360000D03*
X152400000Y-86360000D03*
X154940000Y-86360000D03*
G04 #@! TD*
M02*
