G04 #@! TF.GenerationSoftware,KiCad,Pcbnew,(5.0.2)-1*
G04 #@! TF.CreationDate,2019-04-27T00:56:09-05:00*
G04 #@! TF.ProjectId,ArmDriveBoard_Hardware,41726d44-7269-4766-9542-6f6172645f48,rev?*
G04 #@! TF.SameCoordinates,Original*
G04 #@! TF.FileFunction,Copper,L2,Bot*
G04 #@! TF.FilePolarity,Positive*
%FSLAX46Y46*%
G04 Gerber Fmt 4.6, Leading zero omitted, Abs format (unit mm)*
G04 Created by KiCad (PCBNEW (5.0.2)-1) date 4/27/2019 12:56:09 AM*
%MOMM*%
%LPD*%
G01*
G04 APERTURE LIST*
G04 #@! TA.AperFunction,ComponentPad*
%ADD10C,2.000000*%
G04 #@! TD*
G04 #@! TA.AperFunction,ComponentPad*
%ADD11C,5.080000*%
G04 #@! TD*
G04 #@! TA.AperFunction,ComponentPad*
%ADD12C,1.524000*%
G04 #@! TD*
G04 #@! TA.AperFunction,ComponentPad*
%ADD13C,1.520000*%
G04 #@! TD*
G04 #@! TA.AperFunction,ComponentPad*
%ADD14R,1.600000X1.600000*%
G04 #@! TD*
G04 #@! TA.AperFunction,ComponentPad*
%ADD15C,1.600000*%
G04 #@! TD*
G04 #@! TA.AperFunction,ViaPad*
%ADD16C,0.800000*%
G04 #@! TD*
G04 #@! TA.AperFunction,Conductor*
%ADD17C,0.762000*%
G04 #@! TD*
G04 #@! TA.AperFunction,Conductor*
%ADD18C,0.381000*%
G04 #@! TD*
G04 #@! TA.AperFunction,Conductor*
%ADD19C,5.080000*%
G04 #@! TD*
G04 #@! TA.AperFunction,Conductor*
%ADD20C,0.254000*%
G04 #@! TD*
G04 APERTURE END LIST*
D10*
G04 #@! TO.P,REF\002A\002A,1*
G04 #@! TO.N,GND*
X184404000Y-104140000D03*
G04 #@! TD*
D11*
G04 #@! TO.P,Conn12,3*
G04 #@! TO.N,+12V*
X157480000Y-117120000D03*
G04 #@! TO.P,Conn12,2*
G04 #@! TO.N,/V+Log*
X157480000Y-109220000D03*
G04 #@! TO.P,Conn12,1*
G04 #@! TO.N,GND*
X157480000Y-101320000D03*
G04 #@! TD*
G04 #@! TO.P,Conn1,1*
G04 #@! TO.N,GND*
X167640000Y-101346000D03*
G04 #@! TO.P,Conn1,2*
G04 #@! TO.N,/V+Log*
X167640000Y-109246000D03*
G04 #@! TO.P,Conn1,3*
G04 #@! TO.N,+12V*
X167640000Y-117146000D03*
G04 #@! TD*
D10*
G04 #@! TO.P,REF\002A\002A,1*
G04 #@! TO.N,+24V*
X184404000Y-98298000D03*
G04 #@! TD*
G04 #@! TO.P,REF\002A\002A,1*
G04 #@! TO.N,Servo3_PWM*
X212598000Y-121920000D03*
G04 #@! TD*
G04 #@! TO.P,REF\002A\002A,1*
G04 #@! TO.N,Servo2_PWM*
X212598000Y-109220000D03*
G04 #@! TD*
G04 #@! TO.P,REF\002A\002A,1*
G04 #@! TO.N,Servo1_PWM*
X212598000Y-96520000D03*
G04 #@! TD*
G04 #@! TO.P,REF\002A\002A,1*
G04 #@! TO.N,GND*
X177800000Y-99060000D03*
G04 #@! TD*
G04 #@! TO.P,REF\002A\002A,1*
G04 #@! TO.N,Net-(Conn4-Pad2)*
X176784000Y-88900000D03*
G04 #@! TD*
G04 #@! TO.P,REF\002A\002A,1*
G04 #@! TO.N,Net-(Conn6-Pad2)*
X187960000Y-88900000D03*
G04 #@! TD*
G04 #@! TO.P,REF\002A\002A,1*
G04 #@! TO.N,Solenoid_Control*
X182880000Y-88900000D03*
G04 #@! TD*
D12*
G04 #@! TO.P,Conn4,2*
G04 #@! TO.N,Net-(Conn4-Pad2)*
X193040000Y-109220000D03*
G04 #@! TO.P,Conn4,1*
G04 #@! TO.N,+12V*
X190500000Y-109220000D03*
G04 #@! TD*
G04 #@! TO.P,Conn5,1*
G04 #@! TO.N,+12V*
X190500000Y-121920000D03*
G04 #@! TO.P,Conn5,2*
G04 #@! TO.N,Net-(Conn4-Pad2)*
X193040000Y-121920000D03*
G04 #@! TD*
G04 #@! TO.P,Conn6,2*
G04 #@! TO.N,Net-(Conn6-Pad2)*
X193040000Y-96520000D03*
G04 #@! TO.P,Conn6,1*
G04 #@! TO.N,+24V*
X190500000Y-96520000D03*
G04 #@! TD*
G04 #@! TO.P,Conn7,3*
G04 #@! TO.N,Servo1_PWM*
X208280000Y-96520000D03*
G04 #@! TO.P,Conn7,2*
G04 #@! TO.N,+5V*
X205740000Y-96520000D03*
G04 #@! TO.P,Conn7,1*
G04 #@! TO.N,GND*
X203200000Y-96520000D03*
G04 #@! TD*
G04 #@! TO.P,Conn8,1*
G04 #@! TO.N,GND*
X203200000Y-109220000D03*
G04 #@! TO.P,Conn8,2*
G04 #@! TO.N,+5V*
X205740000Y-109220000D03*
G04 #@! TO.P,Conn8,3*
G04 #@! TO.N,Servo2_PWM*
X208280000Y-109220000D03*
G04 #@! TD*
G04 #@! TO.P,Conn9,1*
G04 #@! TO.N,GND*
X203200000Y-121920000D03*
G04 #@! TO.P,Conn9,2*
G04 #@! TO.N,+5V*
X205740000Y-121920000D03*
G04 #@! TO.P,Conn9,3*
G04 #@! TO.N,Servo3_PWM*
X208280000Y-121920000D03*
G04 #@! TD*
D11*
G04 #@! TO.P,Conn10,1*
G04 #@! TO.N,GND*
X137160000Y-101320000D03*
G04 #@! TO.P,Conn10,2*
G04 #@! TO.N,/V+Log*
X137160000Y-109220000D03*
G04 #@! TO.P,Conn10,3*
G04 #@! TO.N,+12V*
X137160000Y-117120000D03*
G04 #@! TD*
G04 #@! TO.P,Conn11,1*
G04 #@! TO.N,GND*
X147320000Y-101320000D03*
G04 #@! TO.P,Conn11,2*
G04 #@! TO.N,/V+Log*
X147320000Y-109220000D03*
G04 #@! TO.P,Conn11,3*
G04 #@! TO.N,+12V*
X147320000Y-117120000D03*
G04 #@! TD*
D13*
G04 #@! TO.P,U1,+3V3`*
G04 #@! TO.N,Net-(U1-Pad+3V3`)*
X195580000Y-132080000D03*
G04 #@! TO.P,U1,PM6*
G04 #@! TO.N,Net-(U1-PadPM6)*
X218440000Y-86360000D03*
G04 #@! TO.P,U1,PQ1*
G04 #@! TO.N,Net-(U1-PadPQ1)*
X215900000Y-86360000D03*
G04 #@! TO.P,U1,PQ2*
G04 #@! TO.N,Net-(U1-PadPQ2)*
X208280000Y-86360000D03*
G04 #@! TO.P,U1,PK0*
G04 #@! TO.N,RX_3_IC*
X205740000Y-129540000D03*
G04 #@! TO.P,U1,PQ3*
G04 #@! TO.N,Net-(U1-PadPQ3)*
X210820000Y-86360000D03*
G04 #@! TO.P,U1,PP3*
G04 #@! TO.N,Net-(U1-PadPP3)*
X213360000Y-86360000D03*
G04 #@! TO.P,U1,PQ0*
G04 #@! TO.N,Net-(U1-PadPQ0)*
X210820000Y-132080000D03*
G04 #@! TO.P,U1,PA4*
G04 #@! TO.N,RX_1_IC*
X215900000Y-129540000D03*
G04 #@! TO.P,U1,Rese`*
G04 #@! TO.N,N/C*
X205740000Y-86360000D03*
G04 #@! TO.P,U1,PA7*
G04 #@! TO.N,Net-(U1-PadPA7)*
X203200000Y-86360000D03*
G04 #@! TO.P,U1,PN5*
G04 #@! TO.N,Net-(U1-PadPN5)*
X215900000Y-132080000D03*
G04 #@! TO.P,U1,PK2*
G04 #@! TO.N,Net-(U1-PadPK2)*
X210820000Y-129540000D03*
G04 #@! TO.P,U1,PK1*
G04 #@! TO.N,TX_3_IC*
X208280000Y-129540000D03*
G04 #@! TO.P,U1,+5V`*
G04 #@! TO.N,N/C*
X195580000Y-129540000D03*
G04 #@! TO.P,U1,GND*
G04 #@! TO.N,GND*
X198120000Y-129540000D03*
G04 #@! TO.P,U1,PB4*
G04 #@! TO.N,Net-(U1-PadPB4)*
X200660000Y-129540000D03*
G04 #@! TO.P,U1,PB5*
G04 #@! TO.N,Net-(U1-PadPB5)*
X203200000Y-129540000D03*
G04 #@! TO.P,U1,PK3*
G04 #@! TO.N,Net-(U1-PadPK3)*
X213360000Y-129540000D03*
G04 #@! TO.P,U1,PA5*
G04 #@! TO.N,TX_1_IC*
X218440000Y-129540000D03*
G04 #@! TO.P,U1,PD2*
G04 #@! TO.N,Net-(U1-PadPD2)*
X198120000Y-132080000D03*
G04 #@! TO.P,U1,PP0*
G04 #@! TO.N,RX_2_IC*
X200660000Y-132080000D03*
G04 #@! TO.P,U1,PP1*
G04 #@! TO.N,TX_2_IC*
X203200000Y-132080000D03*
G04 #@! TO.P,U1,PD4*
G04 #@! TO.N,Net-(U1-PadPD4)*
X205740000Y-132080000D03*
G04 #@! TO.P,U1,PD5*
G04 #@! TO.N,Net-(U1-PadPD5)*
X208280000Y-132080000D03*
G04 #@! TO.P,U1,PP4*
G04 #@! TO.N,Net-(U1-PadPP4)*
X213360000Y-132080000D03*
G04 #@! TO.P,U1,PN4*
G04 #@! TO.N,Net-(U1-PadPN4)*
X218440000Y-132080000D03*
G04 #@! TO.P,U1,PG1*
G04 #@! TO.N,Servo3_PWM*
X195580000Y-88900000D03*
G04 #@! TO.P,U1,PK4*
G04 #@! TO.N,Servo2_PWM*
X198120000Y-88900000D03*
G04 #@! TO.P,U1,PK5*
G04 #@! TO.N,Servo1_PWM*
X200660000Y-88900000D03*
G04 #@! TO.P,U1,PM0*
G04 #@! TO.N,Net-(U1-PadPM0)*
X203200000Y-88900000D03*
G04 #@! TO.P,U1,PM1*
G04 #@! TO.N,Net-(U1-PadPM1)*
X205740000Y-88900000D03*
G04 #@! TO.P,U1,PM2*
G04 #@! TO.N,Net-(U1-PadPM2)*
X208280000Y-88900000D03*
G04 #@! TO.P,U1,PH0*
G04 #@! TO.N,SW_IND_ERR*
X210820000Y-88900000D03*
G04 #@! TO.P,U1,PH1*
G04 #@! TO.N,SW_IND_3*
X213360000Y-88900000D03*
G04 #@! TO.P,U1,PK6*
G04 #@! TO.N,SW_IND_2*
X215900000Y-88900000D03*
G04 #@! TO.P,U1,PK7*
G04 #@! TO.N,SW_IND_1*
X218440000Y-88900000D03*
G04 #@! TO.P,U1,GND*
G04 #@! TO.N,GND*
X195580000Y-86360000D03*
G04 #@! TO.P,U1,PM7*
G04 #@! TO.N,Net-(U1-PadPM7)*
X198120000Y-86360000D03*
G04 #@! TO.P,U1,PP5*
G04 #@! TO.N,Net-(U1-PadPP5)*
X200660000Y-86360000D03*
G04 #@! TO.P,U1,+5V*
G04 #@! TO.N,+5V*
X132080000Y-129540000D03*
G04 #@! TO.P,U1,GND*
G04 #@! TO.N,GND*
X134620000Y-129540000D03*
G04 #@! TO.P,U1,PE0*
G04 #@! TO.N,Net-(U1-PadPE0)*
X137160000Y-129540000D03*
G04 #@! TO.P,U1,PE1*
G04 #@! TO.N,Net-(U1-PadPE1)*
X139700000Y-129540000D03*
G04 #@! TO.P,U1,PE2*
G04 #@! TO.N,Net-(U1-PadPE2)*
X142240000Y-129540000D03*
G04 #@! TO.P,U1,PE3*
G04 #@! TO.N,Net-(U1-PadPE3)*
X144780000Y-129540000D03*
G04 #@! TO.P,U1,PD7*
G04 #@! TO.N,Net-(U1-PadPD7)*
X147320000Y-129540000D03*
G04 #@! TO.P,U1,PA6*
G04 #@! TO.N,Net-(U1-PadPA6)*
X149860000Y-129540000D03*
G04 #@! TO.P,U1,PM4*
G04 #@! TO.N,Net-(U1-PadPM4)*
X152400000Y-129540000D03*
G04 #@! TO.P,U1,PM5*
G04 #@! TO.N,Net-(U1-PadPM5)*
X154940000Y-129540000D03*
G04 #@! TO.P,U1,+3V3*
G04 #@! TO.N,Net-(U1-Pad+3V3)*
X132080000Y-132080000D03*
G04 #@! TO.P,U1,PE4*
G04 #@! TO.N,Net-(U1-PadPE4)*
X134620000Y-132080000D03*
G04 #@! TO.P,U1,PC4*
G04 #@! TO.N,RX_4_IC*
X137160000Y-132080000D03*
G04 #@! TO.P,U1,PC5*
G04 #@! TO.N,TX_4_IC*
X139700000Y-132080000D03*
G04 #@! TO.P,U1,PC6*
G04 #@! TO.N,Net-(U1-PadPC6)*
X142240000Y-132080000D03*
G04 #@! TO.P,U1,PE5*
G04 #@! TO.N,Net-(U1-PadPE5)*
X144780000Y-132080000D03*
G04 #@! TO.P,U1,PD3*
G04 #@! TO.N,Net-(U1-PadPD3)*
X147320000Y-132080000D03*
G04 #@! TO.P,U1,PC7*
G04 #@! TO.N,Net-(U1-PadPC7)*
X149860000Y-132080000D03*
G04 #@! TO.P,U1,PB2*
G04 #@! TO.N,Net-(U1-PadPB2)*
X152400000Y-132080000D03*
G04 #@! TO.P,U1,PB3*
G04 #@! TO.N,Net-(U1-PadPB3)*
X154940000Y-132080000D03*
G04 #@! TO.P,U1,PF1*
G04 #@! TO.N,Net-(U1-PadPF1)*
X132080000Y-88900000D03*
G04 #@! TO.P,U1,PF2*
G04 #@! TO.N,Net-(U1-PadPF2)*
X134620000Y-88900000D03*
G04 #@! TO.P,U1,PF3*
G04 #@! TO.N,Net-(U1-PadPF3)*
X137160000Y-88900000D03*
G04 #@! TO.P,U1,PG0*
G04 #@! TO.N,Net-(U1-PadPG0)*
X139700000Y-88900000D03*
G04 #@! TO.P,U1,PL4*
G04 #@! TO.N,Net-(U1-PadPL4)*
X142240000Y-88900000D03*
G04 #@! TO.P,U1,PL5*
G04 #@! TO.N,Net-(U1-PadPL5)*
X144780000Y-88900000D03*
G04 #@! TO.P,U1,PL0*
G04 #@! TO.N,Net-(U1-PadPL0)*
X147320000Y-88900000D03*
G04 #@! TO.P,U1,PL1*
G04 #@! TO.N,Net-(U1-PadPL1)*
X149860000Y-88900000D03*
G04 #@! TO.P,U1,PL2*
G04 #@! TO.N,Net-(U1-PadPL2)*
X152400000Y-88900000D03*
G04 #@! TO.P,U1,PL3*
G04 #@! TO.N,Net-(U1-PadPL3)*
X154940000Y-88900000D03*
G04 #@! TO.P,U1,GND*
G04 #@! TO.N,GND*
X132080000Y-86360000D03*
G04 #@! TO.P,U1,PM3*
G04 #@! TO.N,Net-(U1-PadPM3)*
X134620000Y-86360000D03*
G04 #@! TO.P,U1,PH2*
G04 #@! TO.N,Net-(U1-PadPH2)*
X137160000Y-86360000D03*
G04 #@! TO.P,U1,PH3*
G04 #@! TO.N,Net-(U1-PadPH3)*
X139700000Y-86360000D03*
G04 #@! TO.P,U1,Rese*
G04 #@! TO.N,Net-(U1-PadRese)*
X142240000Y-86360000D03*
G04 #@! TO.P,U1,PD1*
G04 #@! TO.N,Net-(U1-PadPD1)*
X144780000Y-86360000D03*
G04 #@! TO.P,U1,PD0*
G04 #@! TO.N,Net-(U1-PadPD0)*
X147320000Y-86360000D03*
G04 #@! TO.P,U1,PN2*
G04 #@! TO.N,Net-(U1-PadPN2)*
X149860000Y-86360000D03*
G04 #@! TO.P,U1,PN3*
G04 #@! TO.N,Laser_Control*
X152400000Y-86360000D03*
G04 #@! TO.P,U1,PP2*
G04 #@! TO.N,Solenoid_Control*
X154940000Y-86360000D03*
G04 #@! TD*
D12*
G04 #@! TO.P,U3,3*
G04 #@! TO.N,+5V*
X180340000Y-116840000D03*
G04 #@! TO.P,U3,2*
G04 #@! TO.N,GND*
X177800000Y-116840000D03*
G04 #@! TO.P,U3,1*
G04 #@! TO.N,/V+Log*
X175260000Y-116840000D03*
G04 #@! TD*
D14*
G04 #@! TO.P,C1,1*
G04 #@! TO.N,+5V*
X218440000Y-96520000D03*
D15*
G04 #@! TO.P,C1,2*
G04 #@! TO.N,GND*
X221940000Y-96520000D03*
G04 #@! TD*
G04 #@! TO.P,C2,2*
G04 #@! TO.N,GND*
X221940000Y-109220000D03*
D14*
G04 #@! TO.P,C2,1*
G04 #@! TO.N,+5V*
X218440000Y-109220000D03*
G04 #@! TD*
G04 #@! TO.P,C4,1*
G04 #@! TO.N,+5V*
X218440000Y-121920000D03*
D15*
G04 #@! TO.P,C4,2*
G04 #@! TO.N,GND*
X221940000Y-121920000D03*
G04 #@! TD*
D10*
G04 #@! TO.P,REF\002A\002A,1*
G04 #@! TO.N,Laser_Control*
X172720000Y-88900000D03*
G04 #@! TD*
D16*
G04 #@! TO.N,Servo1_PWM*
X207264000Y-90395500D03*
G04 #@! TO.N,Servo2_PWM*
X206502000Y-91694000D03*
G04 #@! TO.N,Servo3_PWM*
X203962000Y-92710000D03*
G04 #@! TO.N,SW_IND_1*
X245392000Y-102870000D03*
G04 #@! TO.N,SW_IND_2*
X245392000Y-105410000D03*
G04 #@! TO.N,SW_IND_3*
X245364000Y-107950000D03*
G04 #@! TO.N,SW_IND_ERR*
X245364000Y-110490000D03*
G04 #@! TO.N,+12V*
X197104000Y-108712000D03*
G04 #@! TO.N,Net-(Conn4-Pad2)*
X177800000Y-93472000D03*
X176718000Y-92390000D03*
G04 #@! TO.N,Net-(Conn6-Pad2)*
X193802000Y-100584000D03*
G04 #@! TD*
D17*
G04 #@! TO.N,+5V*
X218440000Y-123482000D02*
X218440000Y-121920000D01*
X218440000Y-121920000D02*
X218440000Y-125730000D01*
X218440000Y-125730000D02*
X217170000Y-127000000D01*
X217170000Y-127000000D02*
X170180000Y-127000000D01*
X180340000Y-118110000D02*
X180340000Y-116840000D01*
X180340000Y-127000000D02*
X180340000Y-118110000D01*
X170180000Y-127000000D02*
X133350000Y-127000000D01*
X132080000Y-129540000D02*
X132080000Y-128270000D01*
X132080000Y-128270000D02*
X133350000Y-127000000D01*
D18*
G04 #@! TO.N,Servo1_PWM*
X208280000Y-91411500D02*
X207264000Y-90395500D01*
X208280000Y-96520000D02*
X208280000Y-91411500D01*
G04 #@! TO.N,Servo2_PWM*
X208280000Y-109220000D02*
X207010000Y-107950000D01*
X207010000Y-107950000D02*
X207010000Y-94234000D01*
X207010000Y-94234000D02*
X207010000Y-92202000D01*
X207010000Y-92202000D02*
X206502000Y-91694000D01*
G04 #@! TO.N,Servo3_PWM*
X204470000Y-108458000D02*
X204470000Y-110372501D01*
X208280000Y-120842370D02*
X207579630Y-120142000D01*
X208280000Y-121920000D02*
X208280000Y-120842370D01*
X207579630Y-120142000D02*
X204978000Y-120142000D01*
X204470000Y-119634000D02*
X204470000Y-110372501D01*
X204978000Y-120142000D02*
X204470000Y-119634000D01*
X204470000Y-108458000D02*
X204470000Y-94488000D01*
X204470000Y-94488000D02*
X204470000Y-93218000D01*
X204470000Y-93218000D02*
X203962000Y-92710000D01*
G04 #@! TO.N,SW_IND_1*
X218440000Y-89974802D02*
X218889198Y-90424000D01*
X218440000Y-88900000D02*
X218440000Y-89974802D01*
X218889198Y-90424000D02*
X220980000Y-90424000D01*
X220980000Y-90424000D02*
X221234000Y-90424000D01*
X244856000Y-102870000D02*
X245392000Y-102870000D01*
X244348000Y-102362000D02*
X244856000Y-102870000D01*
X244348000Y-92456000D02*
X244348000Y-102362000D01*
X242316000Y-90424000D02*
X244348000Y-92456000D01*
X220980000Y-90424000D02*
X242316000Y-90424000D01*
G04 #@! TO.N,SW_IND_2*
X244094000Y-105410000D02*
X245392000Y-105410000D01*
X215900000Y-88900000D02*
X215900000Y-90678000D01*
X215900000Y-90678000D02*
X216408000Y-91186000D01*
X216408000Y-91186000D02*
X242062000Y-91186000D01*
X243586000Y-92710000D02*
X243586000Y-104902000D01*
X243586000Y-104902000D02*
X244094000Y-105410000D01*
X242062000Y-91186000D02*
X243586000Y-92710000D01*
G04 #@! TO.N,SW_IND_3*
X213360000Y-88900000D02*
X213360000Y-89974802D01*
X213360000Y-89974802D02*
X213360000Y-91440000D01*
X213360000Y-91440000D02*
X213868000Y-91948000D01*
X220472000Y-91948000D02*
X221234000Y-91948000D01*
X213868000Y-91948000D02*
X220472000Y-91948000D01*
X243332000Y-107950000D02*
X245364000Y-107950000D01*
X242824000Y-107442000D02*
X243332000Y-107950000D01*
X242824000Y-92964000D02*
X242824000Y-107442000D01*
X241808000Y-91948000D02*
X242824000Y-92964000D01*
X220472000Y-91948000D02*
X241808000Y-91948000D01*
G04 #@! TO.N,SW_IND_ERR*
X210820000Y-88900000D02*
X210820000Y-92202000D01*
X210820000Y-92202000D02*
X211328000Y-92710000D01*
X219964000Y-92710000D02*
X241554000Y-92710000D01*
X219964000Y-92710000D02*
X221234000Y-92710000D01*
X211328000Y-92710000D02*
X219964000Y-92710000D01*
X241554000Y-92710000D02*
X242062000Y-93218000D01*
X242062000Y-93218000D02*
X242062000Y-109982000D01*
X242570000Y-110490000D02*
X245364000Y-110490000D01*
X242062000Y-109982000D02*
X242570000Y-110490000D01*
D19*
G04 #@! TO.N,+12V*
X137186000Y-117120000D02*
X167640000Y-117120000D01*
D18*
X190500000Y-110297630D02*
X191708370Y-111506000D01*
X190500000Y-109220000D02*
X190500000Y-110297630D01*
X191708370Y-111506000D02*
X196342000Y-111506000D01*
X196342000Y-111506000D02*
X197104000Y-110744000D01*
X197104000Y-110744000D02*
X197104000Y-108712000D01*
D19*
G04 #@! TO.N,/V+Log*
X167640000Y-109220000D02*
X137186000Y-109220000D01*
D17*
G04 #@! TO.N,Net-(Conn4-Pad2)*
X177800000Y-93472000D02*
X180340000Y-96012000D01*
X193040000Y-108142370D02*
X192085630Y-107188000D01*
X193040000Y-109220000D02*
X193040000Y-108142370D01*
X181356000Y-107188000D02*
X180340000Y-106172000D01*
X192085630Y-107188000D02*
X181356000Y-107188000D01*
X180340000Y-96012000D02*
X180340000Y-106172000D01*
X180340000Y-96012000D02*
X176718000Y-92390000D01*
D18*
G04 #@! TO.N,Net-(Conn6-Pad2)*
X193040000Y-96520000D02*
X193040000Y-99822000D01*
X193040000Y-99822000D02*
X193802000Y-100584000D01*
G04 #@! TD*
D20*
G04 #@! TO.N,GND*
G36*
X170053000Y-101600000D02*
X170062667Y-101648601D01*
X170090197Y-101689803D01*
X170131399Y-101717333D01*
X170180000Y-101727000D01*
X179324001Y-101727000D01*
X179324001Y-106071932D01*
X179304096Y-106172000D01*
X179374982Y-106528365D01*
X179382950Y-106568423D01*
X179607506Y-106904495D01*
X179692337Y-106961177D01*
X180566822Y-107835663D01*
X180623505Y-107920495D01*
X180959577Y-108145051D01*
X181255935Y-108204000D01*
X181255936Y-108204000D01*
X181356000Y-108223904D01*
X181456063Y-108204000D01*
X189540343Y-108204000D01*
X189315680Y-108428663D01*
X189103000Y-108942119D01*
X189103000Y-109497881D01*
X189315680Y-110011337D01*
X189672321Y-110367978D01*
X189707444Y-110544552D01*
X189722397Y-110619724D01*
X189904849Y-110892782D01*
X189973775Y-110938837D01*
X191067163Y-112032226D01*
X191113218Y-112101152D01*
X191386276Y-112283604D01*
X191627067Y-112331500D01*
X191627071Y-112331500D01*
X191708369Y-112347671D01*
X191789667Y-112331500D01*
X196260699Y-112331500D01*
X196342000Y-112347672D01*
X196423301Y-112331500D01*
X196423303Y-112331500D01*
X196664094Y-112283604D01*
X196937152Y-112101152D01*
X196983209Y-112032223D01*
X197630226Y-111385207D01*
X197699152Y-111339152D01*
X197802885Y-111183905D01*
X197881604Y-111066095D01*
X197945672Y-110744000D01*
X197929500Y-110662697D01*
X197929500Y-109350211D01*
X197981431Y-109298280D01*
X198139000Y-108917874D01*
X198139000Y-108506126D01*
X197981431Y-108125720D01*
X197690280Y-107834569D01*
X197309874Y-107677000D01*
X196898126Y-107677000D01*
X196517720Y-107834569D01*
X196226569Y-108125720D01*
X196069000Y-108506126D01*
X196069000Y-108917874D01*
X196226569Y-109298280D01*
X196278501Y-109350212D01*
X196278500Y-110402067D01*
X196000068Y-110680500D01*
X192050303Y-110680500D01*
X191532730Y-110162927D01*
X191684320Y-110011337D01*
X191770000Y-109804487D01*
X191855680Y-110011337D01*
X192248663Y-110404320D01*
X192762119Y-110617000D01*
X193317881Y-110617000D01*
X193831337Y-110404320D01*
X194224320Y-110011337D01*
X194437000Y-109497881D01*
X194437000Y-108942119D01*
X194224320Y-108428663D01*
X194056000Y-108260343D01*
X194056000Y-108242433D01*
X194075904Y-108142370D01*
X194054682Y-108035680D01*
X193997051Y-107745947D01*
X193772495Y-107409875D01*
X193687663Y-107353192D01*
X192874809Y-106540339D01*
X192818125Y-106455505D01*
X192482053Y-106230949D01*
X192185695Y-106172000D01*
X192185693Y-106172000D01*
X192085630Y-106152096D01*
X191985567Y-106172000D01*
X181776841Y-106172000D01*
X181356000Y-105751160D01*
X181356000Y-101727000D01*
X190500000Y-101727000D01*
X190548601Y-101717333D01*
X190589803Y-101689803D01*
X190617333Y-101648601D01*
X190627000Y-101600000D01*
X190627000Y-97917000D01*
X190777881Y-97917000D01*
X191291337Y-97704320D01*
X191684320Y-97311337D01*
X191770000Y-97104487D01*
X191855680Y-97311337D01*
X192214500Y-97670157D01*
X192214501Y-99740694D01*
X192198328Y-99822000D01*
X192245227Y-100057773D01*
X192262397Y-100144094D01*
X192444849Y-100417152D01*
X192513775Y-100463207D01*
X192767000Y-100716432D01*
X192767000Y-100789874D01*
X192924569Y-101170280D01*
X193215720Y-101461431D01*
X193596126Y-101619000D01*
X194007874Y-101619000D01*
X194388280Y-101461431D01*
X194679431Y-101170280D01*
X194837000Y-100789874D01*
X194837000Y-100378126D01*
X194679431Y-99997720D01*
X194388280Y-99706569D01*
X194007874Y-99549000D01*
X193934432Y-99549000D01*
X193865500Y-99480068D01*
X193865500Y-97670157D01*
X194224320Y-97311337D01*
X194437000Y-96797881D01*
X194437000Y-96242119D01*
X194224320Y-95728663D01*
X193831337Y-95335680D01*
X193317881Y-95123000D01*
X192762119Y-95123000D01*
X192248663Y-95335680D01*
X191855680Y-95728663D01*
X191770000Y-95935513D01*
X191684320Y-95728663D01*
X191291337Y-95335680D01*
X190777881Y-95123000D01*
X190627000Y-95123000D01*
X190627000Y-88622517D01*
X194185000Y-88622517D01*
X194185000Y-89177483D01*
X194397376Y-89690204D01*
X194789796Y-90082624D01*
X195302517Y-90295000D01*
X195857483Y-90295000D01*
X196370204Y-90082624D01*
X196762624Y-89690204D01*
X196850000Y-89479260D01*
X196937376Y-89690204D01*
X197329796Y-90082624D01*
X197842517Y-90295000D01*
X198397483Y-90295000D01*
X198910204Y-90082624D01*
X199302624Y-89690204D01*
X199390000Y-89479260D01*
X199477376Y-89690204D01*
X199869796Y-90082624D01*
X200382517Y-90295000D01*
X200937483Y-90295000D01*
X201450204Y-90082624D01*
X201842624Y-89690204D01*
X201930000Y-89479260D01*
X202017376Y-89690204D01*
X202409796Y-90082624D01*
X202922517Y-90295000D01*
X203477483Y-90295000D01*
X203990204Y-90082624D01*
X204382624Y-89690204D01*
X204470000Y-89479260D01*
X204557376Y-89690204D01*
X204949796Y-90082624D01*
X205462517Y-90295000D01*
X206017483Y-90295000D01*
X206229000Y-90207387D01*
X206229000Y-90601374D01*
X206259204Y-90674293D01*
X205915720Y-90816569D01*
X205624569Y-91107720D01*
X205467000Y-91488126D01*
X205467000Y-91899874D01*
X205624569Y-92280280D01*
X205915720Y-92571431D01*
X206184501Y-92682763D01*
X206184500Y-94315302D01*
X206184501Y-94315307D01*
X206184501Y-95192016D01*
X206017881Y-95123000D01*
X205462119Y-95123000D01*
X205295500Y-95192016D01*
X205295500Y-93299297D01*
X205311671Y-93217999D01*
X205295500Y-93136701D01*
X205295500Y-93136697D01*
X205247604Y-92895906D01*
X205065152Y-92622848D01*
X204997000Y-92577310D01*
X204997000Y-92504126D01*
X204839431Y-92123720D01*
X204548280Y-91832569D01*
X204167874Y-91675000D01*
X203756126Y-91675000D01*
X203375720Y-91832569D01*
X203084569Y-92123720D01*
X202927000Y-92504126D01*
X202927000Y-92915874D01*
X203084569Y-93296280D01*
X203375720Y-93587431D01*
X203644501Y-93698763D01*
X203644500Y-94569302D01*
X203644501Y-94569307D01*
X203644500Y-108376697D01*
X203644500Y-108376698D01*
X203644501Y-110291198D01*
X203644500Y-119552698D01*
X203628328Y-119634000D01*
X203644500Y-119715301D01*
X203644500Y-119715302D01*
X203692396Y-119956093D01*
X203874848Y-120229152D01*
X203943776Y-120275209D01*
X204336793Y-120668225D01*
X204382848Y-120737152D01*
X204655906Y-120919604D01*
X204746683Y-120937660D01*
X204555680Y-121128663D01*
X204343000Y-121642119D01*
X204343000Y-122197881D01*
X204555680Y-122711337D01*
X204948663Y-123104320D01*
X205462119Y-123317000D01*
X206017881Y-123317000D01*
X206531337Y-123104320D01*
X206924320Y-122711337D01*
X207010000Y-122504487D01*
X207095680Y-122711337D01*
X207488663Y-123104320D01*
X208002119Y-123317000D01*
X208557881Y-123317000D01*
X209071337Y-123104320D01*
X209464320Y-122711337D01*
X209677000Y-122197881D01*
X209677000Y-121642119D01*
X209657391Y-121594778D01*
X210963000Y-121594778D01*
X210963000Y-122245222D01*
X211211914Y-122846153D01*
X211671847Y-123306086D01*
X212272778Y-123555000D01*
X212923222Y-123555000D01*
X213524153Y-123306086D01*
X213984086Y-122846153D01*
X214233000Y-122245222D01*
X214233000Y-121594778D01*
X213984086Y-120993847D01*
X213524153Y-120533914D01*
X212923222Y-120285000D01*
X212272778Y-120285000D01*
X211671847Y-120533914D01*
X211211914Y-120993847D01*
X210963000Y-121594778D01*
X209657391Y-121594778D01*
X209464320Y-121128663D01*
X209107679Y-120772022D01*
X209057604Y-120520275D01*
X208966586Y-120384059D01*
X208875152Y-120247218D01*
X208806226Y-120201163D01*
X208220839Y-119615777D01*
X208174782Y-119546848D01*
X207901724Y-119364396D01*
X207660933Y-119316500D01*
X207660931Y-119316500D01*
X207579630Y-119300328D01*
X207498329Y-119316500D01*
X205319933Y-119316500D01*
X205295500Y-119292068D01*
X205295500Y-110547984D01*
X205462119Y-110617000D01*
X206017881Y-110617000D01*
X206531337Y-110404320D01*
X206924320Y-110011337D01*
X207010000Y-109804487D01*
X207095680Y-110011337D01*
X207488663Y-110404320D01*
X208002119Y-110617000D01*
X208557881Y-110617000D01*
X209071337Y-110404320D01*
X209464320Y-110011337D01*
X209677000Y-109497881D01*
X209677000Y-108942119D01*
X209657391Y-108894778D01*
X210963000Y-108894778D01*
X210963000Y-109545222D01*
X211211914Y-110146153D01*
X211671847Y-110606086D01*
X212272778Y-110855000D01*
X212923222Y-110855000D01*
X213524153Y-110606086D01*
X213984086Y-110146153D01*
X214233000Y-109545222D01*
X214233000Y-108894778D01*
X214036341Y-108420000D01*
X216992560Y-108420000D01*
X216992560Y-110020000D01*
X217041843Y-110267765D01*
X217182191Y-110477809D01*
X217392235Y-110618157D01*
X217640000Y-110667440D01*
X219240000Y-110667440D01*
X219487765Y-110618157D01*
X219697809Y-110477809D01*
X219838157Y-110267765D01*
X219887440Y-110020000D01*
X219887440Y-108420000D01*
X219838157Y-108172235D01*
X219697809Y-107962191D01*
X219487765Y-107821843D01*
X219240000Y-107772560D01*
X217640000Y-107772560D01*
X217392235Y-107821843D01*
X217182191Y-107962191D01*
X217041843Y-108172235D01*
X216992560Y-108420000D01*
X214036341Y-108420000D01*
X213984086Y-108293847D01*
X213524153Y-107833914D01*
X212923222Y-107585000D01*
X212272778Y-107585000D01*
X211671847Y-107833914D01*
X211211914Y-108293847D01*
X210963000Y-108894778D01*
X209657391Y-108894778D01*
X209464320Y-108428663D01*
X209071337Y-108035680D01*
X208557881Y-107823000D01*
X208050432Y-107823000D01*
X207835500Y-107608068D01*
X207835500Y-97847984D01*
X208002119Y-97917000D01*
X208557881Y-97917000D01*
X209071337Y-97704320D01*
X209464320Y-97311337D01*
X209677000Y-96797881D01*
X209677000Y-96242119D01*
X209657391Y-96194778D01*
X210963000Y-96194778D01*
X210963000Y-96845222D01*
X211211914Y-97446153D01*
X211671847Y-97906086D01*
X212272778Y-98155000D01*
X212923222Y-98155000D01*
X213524153Y-97906086D01*
X213984086Y-97446153D01*
X214233000Y-96845222D01*
X214233000Y-96194778D01*
X214036341Y-95720000D01*
X216992560Y-95720000D01*
X216992560Y-97320000D01*
X217041843Y-97567765D01*
X217182191Y-97777809D01*
X217392235Y-97918157D01*
X217640000Y-97967440D01*
X219240000Y-97967440D01*
X219487765Y-97918157D01*
X219697809Y-97777809D01*
X219838157Y-97567765D01*
X219887440Y-97320000D01*
X219887440Y-95720000D01*
X219838157Y-95472235D01*
X219697809Y-95262191D01*
X219487765Y-95121843D01*
X219240000Y-95072560D01*
X217640000Y-95072560D01*
X217392235Y-95121843D01*
X217182191Y-95262191D01*
X217041843Y-95472235D01*
X216992560Y-95720000D01*
X214036341Y-95720000D01*
X213984086Y-95593847D01*
X213524153Y-95133914D01*
X212923222Y-94885000D01*
X212272778Y-94885000D01*
X211671847Y-95133914D01*
X211211914Y-95593847D01*
X210963000Y-96194778D01*
X209657391Y-96194778D01*
X209464320Y-95728663D01*
X209105500Y-95369843D01*
X209105500Y-91492801D01*
X209121672Y-91411500D01*
X209089448Y-91249500D01*
X209057604Y-91089406D01*
X208875152Y-90816348D01*
X208806226Y-90770293D01*
X208330932Y-90295000D01*
X208557483Y-90295000D01*
X209070204Y-90082624D01*
X209462624Y-89690204D01*
X209550000Y-89479260D01*
X209637376Y-89690204D01*
X209994500Y-90047328D01*
X209994501Y-92120694D01*
X209978328Y-92202000D01*
X210028852Y-92456000D01*
X210042397Y-92524094D01*
X210224849Y-92797152D01*
X210293774Y-92843206D01*
X210686793Y-93236225D01*
X210732848Y-93305152D01*
X211005906Y-93487604D01*
X211246697Y-93535500D01*
X211246701Y-93535500D01*
X211327999Y-93551671D01*
X211409297Y-93535500D01*
X241212068Y-93535500D01*
X241236500Y-93559933D01*
X241236501Y-109900694D01*
X241220328Y-109982000D01*
X241274811Y-110255904D01*
X241284397Y-110304094D01*
X241466849Y-110577152D01*
X241535774Y-110623207D01*
X241928793Y-111016225D01*
X241974848Y-111085152D01*
X242247906Y-111267604D01*
X242488697Y-111315500D01*
X242488701Y-111315500D01*
X242569999Y-111331671D01*
X242651297Y-111315500D01*
X244725789Y-111315500D01*
X244777720Y-111367431D01*
X245158126Y-111525000D01*
X245569874Y-111525000D01*
X245950280Y-111367431D01*
X246241431Y-111076280D01*
X246399000Y-110695874D01*
X246399000Y-110284126D01*
X246241431Y-109903720D01*
X245950280Y-109612569D01*
X245569874Y-109455000D01*
X245158126Y-109455000D01*
X244777720Y-109612569D01*
X244725789Y-109664500D01*
X242911933Y-109664500D01*
X242887500Y-109640068D01*
X242887500Y-108645815D01*
X243009906Y-108727604D01*
X243250697Y-108775500D01*
X243250701Y-108775500D01*
X243331999Y-108791671D01*
X243413297Y-108775500D01*
X244725789Y-108775500D01*
X244777720Y-108827431D01*
X245158126Y-108985000D01*
X245569874Y-108985000D01*
X245950280Y-108827431D01*
X246241431Y-108536280D01*
X246399000Y-108155874D01*
X246399000Y-107744126D01*
X246241431Y-107363720D01*
X245950280Y-107072569D01*
X245569874Y-106915000D01*
X245158126Y-106915000D01*
X244777720Y-107072569D01*
X244725789Y-107124500D01*
X243673933Y-107124500D01*
X243649500Y-107100068D01*
X243649500Y-106105815D01*
X243771906Y-106187604D01*
X244012697Y-106235500D01*
X244012701Y-106235500D01*
X244093999Y-106251671D01*
X244175297Y-106235500D01*
X244753789Y-106235500D01*
X244805720Y-106287431D01*
X245186126Y-106445000D01*
X245597874Y-106445000D01*
X245978280Y-106287431D01*
X246269431Y-105996280D01*
X246427000Y-105615874D01*
X246427000Y-105204126D01*
X246269431Y-104823720D01*
X245978280Y-104532569D01*
X245597874Y-104375000D01*
X245186126Y-104375000D01*
X244805720Y-104532569D01*
X244753789Y-104584500D01*
X244435933Y-104584500D01*
X244411500Y-104560068D01*
X244411500Y-103565815D01*
X244533906Y-103647604D01*
X244748598Y-103690309D01*
X244805720Y-103747431D01*
X245186126Y-103905000D01*
X245597874Y-103905000D01*
X245978280Y-103747431D01*
X246269431Y-103456280D01*
X246427000Y-103075874D01*
X246427000Y-102664126D01*
X246269431Y-102283720D01*
X245978280Y-101992569D01*
X245597874Y-101835000D01*
X245186126Y-101835000D01*
X245173500Y-101840230D01*
X245173500Y-92537301D01*
X245189672Y-92456000D01*
X245173500Y-92374697D01*
X245125604Y-92133906D01*
X244943152Y-91860848D01*
X244874226Y-91814793D01*
X242957209Y-89897777D01*
X242911152Y-89828848D01*
X242638094Y-89646396D01*
X242397303Y-89598500D01*
X242397301Y-89598500D01*
X242316000Y-89582328D01*
X242234699Y-89598500D01*
X219660609Y-89598500D01*
X219835000Y-89177483D01*
X219835000Y-88622517D01*
X219622624Y-88109796D01*
X219230204Y-87717376D01*
X219019260Y-87630000D01*
X219230204Y-87542624D01*
X219622624Y-87150204D01*
X219835000Y-86637483D01*
X219835000Y-86082517D01*
X219622624Y-85569796D01*
X219230204Y-85177376D01*
X218717483Y-84965000D01*
X218162517Y-84965000D01*
X217649796Y-85177376D01*
X217257376Y-85569796D01*
X217170000Y-85780740D01*
X217082624Y-85569796D01*
X216690204Y-85177376D01*
X216177483Y-84965000D01*
X215622517Y-84965000D01*
X215109796Y-85177376D01*
X214717376Y-85569796D01*
X214630000Y-85780740D01*
X214542624Y-85569796D01*
X214150204Y-85177376D01*
X213637483Y-84965000D01*
X213082517Y-84965000D01*
X212569796Y-85177376D01*
X212177376Y-85569796D01*
X212090000Y-85780740D01*
X212002624Y-85569796D01*
X211610204Y-85177376D01*
X211097483Y-84965000D01*
X210542517Y-84965000D01*
X210029796Y-85177376D01*
X209637376Y-85569796D01*
X209550000Y-85780740D01*
X209462624Y-85569796D01*
X209070204Y-85177376D01*
X208557483Y-84965000D01*
X208002517Y-84965000D01*
X207489796Y-85177376D01*
X207097376Y-85569796D01*
X207010000Y-85780740D01*
X206922624Y-85569796D01*
X206530204Y-85177376D01*
X206017483Y-84965000D01*
X205462517Y-84965000D01*
X204949796Y-85177376D01*
X204557376Y-85569796D01*
X204470000Y-85780740D01*
X204382624Y-85569796D01*
X203990204Y-85177376D01*
X203477483Y-84965000D01*
X202922517Y-84965000D01*
X202409796Y-85177376D01*
X202017376Y-85569796D01*
X201930000Y-85780740D01*
X201842624Y-85569796D01*
X201450204Y-85177376D01*
X200937483Y-84965000D01*
X200382517Y-84965000D01*
X199869796Y-85177376D01*
X199477376Y-85569796D01*
X199390000Y-85780740D01*
X199302624Y-85569796D01*
X198910204Y-85177376D01*
X198397483Y-84965000D01*
X197842517Y-84965000D01*
X197329796Y-85177376D01*
X196937376Y-85569796D01*
X196725000Y-86082517D01*
X196725000Y-86637483D01*
X196937376Y-87150204D01*
X197329796Y-87542624D01*
X197540740Y-87630000D01*
X197329796Y-87717376D01*
X196937376Y-88109796D01*
X196850000Y-88320740D01*
X196762624Y-88109796D01*
X196370204Y-87717376D01*
X195857483Y-87505000D01*
X195302517Y-87505000D01*
X194789796Y-87717376D01*
X194397376Y-88109796D01*
X194185000Y-88622517D01*
X190627000Y-88622517D01*
X190627000Y-84505000D01*
X253189197Y-84505000D01*
X253614097Y-84565851D01*
X253959959Y-84723105D01*
X254247784Y-84971110D01*
X254454432Y-85289929D01*
X254570079Y-85676626D01*
X254585001Y-85877426D01*
X254585000Y-110949196D01*
X254524149Y-111374098D01*
X254366895Y-111719959D01*
X254118891Y-112007782D01*
X253800071Y-112214432D01*
X253413373Y-112330079D01*
X253212587Y-112345000D01*
X237557462Y-112345000D01*
X237490000Y-112331581D01*
X237422539Y-112345000D01*
X237422538Y-112345000D01*
X237222727Y-112384745D01*
X236996143Y-112536143D01*
X236844745Y-112762727D01*
X236791581Y-113030000D01*
X236805001Y-113097467D01*
X236805000Y-133790538D01*
X236791581Y-133858000D01*
X236844745Y-134125273D01*
X236996143Y-134351857D01*
X237222727Y-134503255D01*
X237490000Y-134556419D01*
X237557461Y-134543000D01*
X253189197Y-134543000D01*
X253614097Y-134603851D01*
X253959959Y-134761105D01*
X254247784Y-135009110D01*
X254454432Y-135327929D01*
X254570079Y-135714626D01*
X254585001Y-135915426D01*
X254585000Y-143440378D01*
X254221404Y-143549116D01*
X254137032Y-143588101D01*
X254052147Y-143626072D01*
X254045096Y-143630581D01*
X253561637Y-143943945D01*
X253491596Y-144005045D01*
X253420783Y-144065312D01*
X253415285Y-144071615D01*
X253415281Y-144071619D01*
X253415278Y-144071624D01*
X253039205Y-144508078D01*
X252989120Y-144586393D01*
X252938076Y-144664100D01*
X252934569Y-144671691D01*
X252934565Y-144671697D01*
X252934563Y-144671703D01*
X252696105Y-145196164D01*
X252670023Y-145285358D01*
X252642831Y-145374298D01*
X252641594Y-145382575D01*
X252559918Y-145952891D01*
X252559918Y-146022763D01*
X252554314Y-146092415D01*
X252554884Y-146100765D01*
X252577204Y-146401114D01*
X252592207Y-146469353D01*
X252601691Y-146538585D01*
X252604040Y-146546618D01*
X252769116Y-147098595D01*
X252808094Y-147182951D01*
X252846072Y-147267853D01*
X252850582Y-147274904D01*
X253163945Y-147758363D01*
X253225045Y-147828404D01*
X253285312Y-147899217D01*
X253291615Y-147904715D01*
X253291619Y-147904719D01*
X253291624Y-147904722D01*
X253728078Y-148280795D01*
X253806393Y-148330880D01*
X253884100Y-148381924D01*
X253891691Y-148385431D01*
X253891697Y-148385435D01*
X253891703Y-148385437D01*
X254416164Y-148623895D01*
X254505358Y-148649977D01*
X254585001Y-148674327D01*
X254585000Y-156669196D01*
X254524149Y-157094098D01*
X254366895Y-157439959D01*
X254118891Y-157727782D01*
X253800071Y-157934432D01*
X253413373Y-158050079D01*
X253212587Y-158065000D01*
X132890804Y-158065000D01*
X132465902Y-158004149D01*
X132120041Y-157846895D01*
X131832218Y-157598891D01*
X131625568Y-157280071D01*
X131509921Y-156893373D01*
X131495000Y-156692587D01*
X131495000Y-148659622D01*
X131858595Y-148550884D01*
X131942951Y-148511906D01*
X132027853Y-148473928D01*
X132034901Y-148469420D01*
X132034905Y-148469418D01*
X132518363Y-148156055D01*
X132588404Y-148094955D01*
X132659217Y-148034688D01*
X132664715Y-148028385D01*
X132664719Y-148028381D01*
X132664722Y-148028376D01*
X133040795Y-147591922D01*
X133090880Y-147513607D01*
X133141924Y-147435900D01*
X133145431Y-147428309D01*
X133145435Y-147428303D01*
X133145437Y-147428297D01*
X133383895Y-146903836D01*
X133409977Y-146814642D01*
X133437169Y-146725702D01*
X133438406Y-146717424D01*
X133520082Y-146147109D01*
X133520082Y-146077236D01*
X133525686Y-146007585D01*
X133525116Y-145999235D01*
X133502796Y-145698886D01*
X133487792Y-145630643D01*
X133478309Y-145561414D01*
X133475960Y-145553382D01*
X133310884Y-145001404D01*
X133271899Y-144917032D01*
X133233928Y-144832147D01*
X133229419Y-144825096D01*
X132916055Y-144341637D01*
X132854955Y-144271596D01*
X132794688Y-144200783D01*
X132788385Y-144195285D01*
X132788381Y-144195281D01*
X132788376Y-144195278D01*
X132351922Y-143819205D01*
X132273607Y-143769120D01*
X132195900Y-143718076D01*
X132188309Y-143714569D01*
X132188303Y-143714565D01*
X132188297Y-143714563D01*
X131663836Y-143476105D01*
X131574642Y-143450023D01*
X131495000Y-143425674D01*
X131495000Y-133347622D01*
X131802517Y-133475000D01*
X132357483Y-133475000D01*
X132870204Y-133262624D01*
X133262624Y-132870204D01*
X133350000Y-132659260D01*
X133437376Y-132870204D01*
X133829796Y-133262624D01*
X134342517Y-133475000D01*
X134897483Y-133475000D01*
X135410204Y-133262624D01*
X135802624Y-132870204D01*
X135890000Y-132659260D01*
X135977376Y-132870204D01*
X136369796Y-133262624D01*
X136882517Y-133475000D01*
X137437483Y-133475000D01*
X137950204Y-133262624D01*
X138342624Y-132870204D01*
X138430000Y-132659260D01*
X138517376Y-132870204D01*
X138909796Y-133262624D01*
X139422517Y-133475000D01*
X139977483Y-133475000D01*
X140490204Y-133262624D01*
X140882624Y-132870204D01*
X140970000Y-132659260D01*
X141057376Y-132870204D01*
X141449796Y-133262624D01*
X141962517Y-133475000D01*
X142517483Y-133475000D01*
X143030204Y-133262624D01*
X143422624Y-132870204D01*
X143510000Y-132659260D01*
X143597376Y-132870204D01*
X143989796Y-133262624D01*
X144502517Y-133475000D01*
X145057483Y-133475000D01*
X145570204Y-133262624D01*
X145962624Y-132870204D01*
X146050000Y-132659260D01*
X146137376Y-132870204D01*
X146529796Y-133262624D01*
X147042517Y-133475000D01*
X147597483Y-133475000D01*
X148110204Y-133262624D01*
X148502624Y-132870204D01*
X148590000Y-132659260D01*
X148677376Y-132870204D01*
X149069796Y-133262624D01*
X149582517Y-133475000D01*
X150137483Y-133475000D01*
X150650204Y-133262624D01*
X151042624Y-132870204D01*
X151130000Y-132659260D01*
X151217376Y-132870204D01*
X151609796Y-133262624D01*
X152122517Y-133475000D01*
X152677483Y-133475000D01*
X153190204Y-133262624D01*
X153582624Y-132870204D01*
X153670000Y-132659260D01*
X153757376Y-132870204D01*
X154149796Y-133262624D01*
X154662517Y-133475000D01*
X155217483Y-133475000D01*
X155730204Y-133262624D01*
X156122624Y-132870204D01*
X156335000Y-132357483D01*
X156335000Y-131802517D01*
X156122624Y-131289796D01*
X155730204Y-130897376D01*
X155519260Y-130810000D01*
X155730204Y-130722624D01*
X156122624Y-130330204D01*
X156335000Y-129817483D01*
X156335000Y-129262517D01*
X194185000Y-129262517D01*
X194185000Y-129817483D01*
X194397376Y-130330204D01*
X194789796Y-130722624D01*
X195000740Y-130810000D01*
X194789796Y-130897376D01*
X194397376Y-131289796D01*
X194185000Y-131802517D01*
X194185000Y-132357483D01*
X194397376Y-132870204D01*
X194789796Y-133262624D01*
X195302517Y-133475000D01*
X195857483Y-133475000D01*
X196370204Y-133262624D01*
X196762624Y-132870204D01*
X196850000Y-132659260D01*
X196937376Y-132870204D01*
X197329796Y-133262624D01*
X197842517Y-133475000D01*
X198397483Y-133475000D01*
X198910204Y-133262624D01*
X199302624Y-132870204D01*
X199390000Y-132659260D01*
X199477376Y-132870204D01*
X199869796Y-133262624D01*
X200382517Y-133475000D01*
X200937483Y-133475000D01*
X201450204Y-133262624D01*
X201842624Y-132870204D01*
X201930000Y-132659260D01*
X202017376Y-132870204D01*
X202409796Y-133262624D01*
X202922517Y-133475000D01*
X203477483Y-133475000D01*
X203990204Y-133262624D01*
X204382624Y-132870204D01*
X204470000Y-132659260D01*
X204557376Y-132870204D01*
X204949796Y-133262624D01*
X205462517Y-133475000D01*
X206017483Y-133475000D01*
X206530204Y-133262624D01*
X206922624Y-132870204D01*
X207010000Y-132659260D01*
X207097376Y-132870204D01*
X207489796Y-133262624D01*
X208002517Y-133475000D01*
X208557483Y-133475000D01*
X209070204Y-133262624D01*
X209462624Y-132870204D01*
X209550000Y-132659260D01*
X209637376Y-132870204D01*
X210029796Y-133262624D01*
X210542517Y-133475000D01*
X211097483Y-133475000D01*
X211610204Y-133262624D01*
X212002624Y-132870204D01*
X212090000Y-132659260D01*
X212177376Y-132870204D01*
X212569796Y-133262624D01*
X213082517Y-133475000D01*
X213637483Y-133475000D01*
X214150204Y-133262624D01*
X214542624Y-132870204D01*
X214630000Y-132659260D01*
X214717376Y-132870204D01*
X215109796Y-133262624D01*
X215622517Y-133475000D01*
X216177483Y-133475000D01*
X216690204Y-133262624D01*
X217082624Y-132870204D01*
X217170000Y-132659260D01*
X217257376Y-132870204D01*
X217649796Y-133262624D01*
X218162517Y-133475000D01*
X218717483Y-133475000D01*
X219230204Y-133262624D01*
X219622624Y-132870204D01*
X219835000Y-132357483D01*
X219835000Y-131802517D01*
X219622624Y-131289796D01*
X219230204Y-130897376D01*
X219019260Y-130810000D01*
X219230204Y-130722624D01*
X219622624Y-130330204D01*
X219835000Y-129817483D01*
X219835000Y-129262517D01*
X219622624Y-128749796D01*
X219230204Y-128357376D01*
X218717483Y-128145000D01*
X218162517Y-128145000D01*
X217649796Y-128357376D01*
X217257376Y-128749796D01*
X217170000Y-128960740D01*
X217082624Y-128749796D01*
X216690204Y-128357376D01*
X216177483Y-128145000D01*
X215622517Y-128145000D01*
X215109796Y-128357376D01*
X214717376Y-128749796D01*
X214630000Y-128960740D01*
X214542624Y-128749796D01*
X214150204Y-128357376D01*
X213637483Y-128145000D01*
X213082517Y-128145000D01*
X212569796Y-128357376D01*
X212177376Y-128749796D01*
X212090000Y-128960740D01*
X212002624Y-128749796D01*
X211610204Y-128357376D01*
X211097483Y-128145000D01*
X210542517Y-128145000D01*
X210029796Y-128357376D01*
X209637376Y-128749796D01*
X209550000Y-128960740D01*
X209462624Y-128749796D01*
X209070204Y-128357376D01*
X208557483Y-128145000D01*
X208002517Y-128145000D01*
X207489796Y-128357376D01*
X207097376Y-128749796D01*
X207010000Y-128960740D01*
X206922624Y-128749796D01*
X206530204Y-128357376D01*
X206017483Y-128145000D01*
X205462517Y-128145000D01*
X204949796Y-128357376D01*
X204557376Y-128749796D01*
X204470000Y-128960740D01*
X204382624Y-128749796D01*
X203990204Y-128357376D01*
X203477483Y-128145000D01*
X202922517Y-128145000D01*
X202409796Y-128357376D01*
X202017376Y-128749796D01*
X201930000Y-128960740D01*
X201842624Y-128749796D01*
X201450204Y-128357376D01*
X200937483Y-128145000D01*
X200382517Y-128145000D01*
X199869796Y-128357376D01*
X199477376Y-128749796D01*
X199265000Y-129262517D01*
X199265000Y-129817483D01*
X199477376Y-130330204D01*
X199869796Y-130722624D01*
X200080740Y-130810000D01*
X199869796Y-130897376D01*
X199477376Y-131289796D01*
X199390000Y-131500740D01*
X199302624Y-131289796D01*
X198910204Y-130897376D01*
X198397483Y-130685000D01*
X197842517Y-130685000D01*
X197329796Y-130897376D01*
X196937376Y-131289796D01*
X196850000Y-131500740D01*
X196762624Y-131289796D01*
X196370204Y-130897376D01*
X196159260Y-130810000D01*
X196370204Y-130722624D01*
X196762624Y-130330204D01*
X196975000Y-129817483D01*
X196975000Y-129262517D01*
X196762624Y-128749796D01*
X196370204Y-128357376D01*
X195857483Y-128145000D01*
X195302517Y-128145000D01*
X194789796Y-128357376D01*
X194397376Y-128749796D01*
X194185000Y-129262517D01*
X156335000Y-129262517D01*
X156122624Y-128749796D01*
X155730204Y-128357376D01*
X155217483Y-128145000D01*
X154662517Y-128145000D01*
X154149796Y-128357376D01*
X153757376Y-128749796D01*
X153670000Y-128960740D01*
X153582624Y-128749796D01*
X153190204Y-128357376D01*
X152677483Y-128145000D01*
X152122517Y-128145000D01*
X151609796Y-128357376D01*
X151217376Y-128749796D01*
X151130000Y-128960740D01*
X151042624Y-128749796D01*
X150650204Y-128357376D01*
X150137483Y-128145000D01*
X149582517Y-128145000D01*
X149069796Y-128357376D01*
X148677376Y-128749796D01*
X148590000Y-128960740D01*
X148502624Y-128749796D01*
X148110204Y-128357376D01*
X147597483Y-128145000D01*
X147042517Y-128145000D01*
X146529796Y-128357376D01*
X146137376Y-128749796D01*
X146050000Y-128960740D01*
X145962624Y-128749796D01*
X145570204Y-128357376D01*
X145057483Y-128145000D01*
X144502517Y-128145000D01*
X143989796Y-128357376D01*
X143597376Y-128749796D01*
X143510000Y-128960740D01*
X143422624Y-128749796D01*
X143030204Y-128357376D01*
X142517483Y-128145000D01*
X141962517Y-128145000D01*
X141449796Y-128357376D01*
X141057376Y-128749796D01*
X140970000Y-128960740D01*
X140882624Y-128749796D01*
X140490204Y-128357376D01*
X139977483Y-128145000D01*
X139422517Y-128145000D01*
X138909796Y-128357376D01*
X138517376Y-128749796D01*
X138430000Y-128960740D01*
X138342624Y-128749796D01*
X137950204Y-128357376D01*
X137437483Y-128145000D01*
X136882517Y-128145000D01*
X136369796Y-128357376D01*
X135977376Y-128749796D01*
X135765000Y-129262517D01*
X135765000Y-129817483D01*
X135977376Y-130330204D01*
X136369796Y-130722624D01*
X136580740Y-130810000D01*
X136369796Y-130897376D01*
X135977376Y-131289796D01*
X135890000Y-131500740D01*
X135802624Y-131289796D01*
X135410204Y-130897376D01*
X134897483Y-130685000D01*
X134342517Y-130685000D01*
X133829796Y-130897376D01*
X133437376Y-131289796D01*
X133350000Y-131500740D01*
X133262624Y-131289796D01*
X132870204Y-130897376D01*
X132659260Y-130810000D01*
X132870204Y-130722624D01*
X133262624Y-130330204D01*
X133475000Y-129817483D01*
X133475000Y-129262517D01*
X133262624Y-128749796D01*
X133149834Y-128637006D01*
X133770841Y-128016000D01*
X180239935Y-128016000D01*
X180340000Y-128035904D01*
X180440064Y-128016000D01*
X217069937Y-128016000D01*
X217170000Y-128035904D01*
X217270063Y-128016000D01*
X217270065Y-128016000D01*
X217566423Y-127957051D01*
X217902495Y-127732495D01*
X217959180Y-127647661D01*
X219087663Y-126519178D01*
X219172495Y-126462495D01*
X219397051Y-126126423D01*
X219456000Y-125830065D01*
X219475904Y-125730001D01*
X219456000Y-125629937D01*
X219456000Y-123324475D01*
X219487765Y-123318157D01*
X219697809Y-123177809D01*
X219838157Y-122967765D01*
X219887440Y-122720000D01*
X219887440Y-121120000D01*
X219838157Y-120872235D01*
X219697809Y-120662191D01*
X219487765Y-120521843D01*
X219240000Y-120472560D01*
X217640000Y-120472560D01*
X217392235Y-120521843D01*
X217182191Y-120662191D01*
X217041843Y-120872235D01*
X216992560Y-121120000D01*
X216992560Y-122720000D01*
X217041843Y-122967765D01*
X217182191Y-123177809D01*
X217392235Y-123318157D01*
X217424000Y-123324475D01*
X217424001Y-125309158D01*
X216749160Y-125984000D01*
X181356000Y-125984000D01*
X181356000Y-121642119D01*
X189103000Y-121642119D01*
X189103000Y-122197881D01*
X189315680Y-122711337D01*
X189708663Y-123104320D01*
X190222119Y-123317000D01*
X190777881Y-123317000D01*
X191291337Y-123104320D01*
X191684320Y-122711337D01*
X191770000Y-122504487D01*
X191855680Y-122711337D01*
X192248663Y-123104320D01*
X192762119Y-123317000D01*
X193317881Y-123317000D01*
X193831337Y-123104320D01*
X194224320Y-122711337D01*
X194437000Y-122197881D01*
X194437000Y-121642119D01*
X194224320Y-121128663D01*
X193831337Y-120735680D01*
X193317881Y-120523000D01*
X192762119Y-120523000D01*
X192248663Y-120735680D01*
X191855680Y-121128663D01*
X191770000Y-121335513D01*
X191684320Y-121128663D01*
X191291337Y-120735680D01*
X190777881Y-120523000D01*
X190222119Y-120523000D01*
X189708663Y-120735680D01*
X189315680Y-121128663D01*
X189103000Y-121642119D01*
X181356000Y-121642119D01*
X181356000Y-117799657D01*
X181524320Y-117631337D01*
X181737000Y-117117881D01*
X181737000Y-116562119D01*
X181524320Y-116048663D01*
X181131337Y-115655680D01*
X180617881Y-115443000D01*
X180062119Y-115443000D01*
X179548663Y-115655680D01*
X179155680Y-116048663D01*
X178943000Y-116562119D01*
X178943000Y-117117881D01*
X179155680Y-117631337D01*
X179324000Y-117799657D01*
X179324000Y-118210064D01*
X179324001Y-118210069D01*
X179324000Y-125984000D01*
X133450063Y-125984000D01*
X133349999Y-125964096D01*
X133249935Y-125984000D01*
X132953577Y-126042949D01*
X132953576Y-126042950D01*
X132953575Y-126042950D01*
X132859375Y-126105893D01*
X132617505Y-126267505D01*
X132560822Y-126352337D01*
X131495000Y-127418160D01*
X131495000Y-117120000D01*
X133948799Y-117120000D01*
X133985000Y-117301995D01*
X133985000Y-117751547D01*
X134157036Y-118166878D01*
X134195216Y-118358823D01*
X134303944Y-118521546D01*
X134468365Y-118918493D01*
X134772174Y-119222302D01*
X134896953Y-119409047D01*
X135083698Y-119533826D01*
X135361507Y-119811635D01*
X135724483Y-119961985D01*
X135947177Y-120110784D01*
X136209862Y-120163035D01*
X136528453Y-120295000D01*
X166945683Y-120295000D01*
X167008453Y-120321000D01*
X168271547Y-120321000D01*
X168686878Y-120148964D01*
X168878823Y-120110784D01*
X169041546Y-120002056D01*
X169438493Y-119837635D01*
X169742302Y-119533826D01*
X169929047Y-119409047D01*
X170053826Y-119222302D01*
X170331635Y-118944493D01*
X170481985Y-118581517D01*
X170630784Y-118358823D01*
X170683035Y-118096138D01*
X170815000Y-117777547D01*
X170815000Y-117432706D01*
X170877201Y-117120000D01*
X170815000Y-116807294D01*
X170815000Y-116562119D01*
X173863000Y-116562119D01*
X173863000Y-117117881D01*
X174075680Y-117631337D01*
X174468663Y-118024320D01*
X174982119Y-118237000D01*
X175537881Y-118237000D01*
X176051337Y-118024320D01*
X176444320Y-117631337D01*
X176657000Y-117117881D01*
X176657000Y-116562119D01*
X176444320Y-116048663D01*
X176051337Y-115655680D01*
X175537881Y-115443000D01*
X174982119Y-115443000D01*
X174468663Y-115655680D01*
X174075680Y-116048663D01*
X173863000Y-116562119D01*
X170815000Y-116562119D01*
X170815000Y-116514453D01*
X170702935Y-116243904D01*
X170630784Y-115881177D01*
X170425315Y-115573671D01*
X170331635Y-115347507D01*
X170158537Y-115174409D01*
X169929047Y-114830953D01*
X169585591Y-114601463D01*
X169438493Y-114454365D01*
X169246299Y-114374756D01*
X168878823Y-114129216D01*
X168445356Y-114042994D01*
X168271547Y-113971000D01*
X168083417Y-113971000D01*
X167952706Y-113945000D01*
X136528453Y-113945000D01*
X136209862Y-114076965D01*
X135947177Y-114129216D01*
X135724483Y-114278015D01*
X135361507Y-114428365D01*
X135083698Y-114706174D01*
X134896953Y-114830953D01*
X134772174Y-115017698D01*
X134468365Y-115321507D01*
X134303944Y-115718454D01*
X134195216Y-115881177D01*
X134157036Y-116073122D01*
X133985000Y-116488453D01*
X133985000Y-116938005D01*
X133948799Y-117120000D01*
X131495000Y-117120000D01*
X131495000Y-109220000D01*
X133948799Y-109220000D01*
X133985000Y-109401995D01*
X133985000Y-109851547D01*
X134157036Y-110266878D01*
X134195216Y-110458823D01*
X134303944Y-110621546D01*
X134468365Y-111018493D01*
X134772174Y-111322302D01*
X134896953Y-111509047D01*
X135083698Y-111633826D01*
X135361507Y-111911635D01*
X135724483Y-112061985D01*
X135947177Y-112210784D01*
X136209862Y-112263035D01*
X136528453Y-112395000D01*
X166945683Y-112395000D01*
X167008453Y-112421000D01*
X168271547Y-112421000D01*
X168686878Y-112248964D01*
X168878823Y-112210784D01*
X169041546Y-112102056D01*
X169438493Y-111937635D01*
X169742302Y-111633826D01*
X169929047Y-111509047D01*
X170053826Y-111322302D01*
X170331635Y-111044493D01*
X170481985Y-110681517D01*
X170630784Y-110458823D01*
X170683035Y-110196138D01*
X170815000Y-109877547D01*
X170815000Y-109532706D01*
X170877201Y-109220000D01*
X170815000Y-108907294D01*
X170815000Y-108614453D01*
X170702935Y-108343904D01*
X170630784Y-107981177D01*
X170425315Y-107673671D01*
X170331635Y-107447507D01*
X170158537Y-107274409D01*
X169929047Y-106930953D01*
X169585591Y-106701463D01*
X169438493Y-106554365D01*
X169246299Y-106474756D01*
X168878823Y-106229216D01*
X168445356Y-106142994D01*
X168271547Y-106071000D01*
X168083417Y-106071000D01*
X167952706Y-106045000D01*
X136528453Y-106045000D01*
X136209862Y-106176965D01*
X135947177Y-106229216D01*
X135724483Y-106378015D01*
X135361507Y-106528365D01*
X135083698Y-106806174D01*
X134896953Y-106930953D01*
X134772174Y-107117698D01*
X134468365Y-107421507D01*
X134303944Y-107818454D01*
X134195216Y-107981177D01*
X134157036Y-108173122D01*
X133985000Y-108588453D01*
X133985000Y-109038005D01*
X133948799Y-109220000D01*
X131495000Y-109220000D01*
X131495000Y-90167622D01*
X131802517Y-90295000D01*
X132357483Y-90295000D01*
X132870204Y-90082624D01*
X133262624Y-89690204D01*
X133350000Y-89479260D01*
X133437376Y-89690204D01*
X133829796Y-90082624D01*
X134342517Y-90295000D01*
X134897483Y-90295000D01*
X135410204Y-90082624D01*
X135802624Y-89690204D01*
X135890000Y-89479260D01*
X135977376Y-89690204D01*
X136369796Y-90082624D01*
X136882517Y-90295000D01*
X137437483Y-90295000D01*
X137950204Y-90082624D01*
X138342624Y-89690204D01*
X138430000Y-89479260D01*
X138517376Y-89690204D01*
X138909796Y-90082624D01*
X139422517Y-90295000D01*
X139977483Y-90295000D01*
X140490204Y-90082624D01*
X140882624Y-89690204D01*
X140970000Y-89479260D01*
X141057376Y-89690204D01*
X141449796Y-90082624D01*
X141962517Y-90295000D01*
X142517483Y-90295000D01*
X143030204Y-90082624D01*
X143422624Y-89690204D01*
X143510000Y-89479260D01*
X143597376Y-89690204D01*
X143989796Y-90082624D01*
X144502517Y-90295000D01*
X145057483Y-90295000D01*
X145570204Y-90082624D01*
X145962624Y-89690204D01*
X146050000Y-89479260D01*
X146137376Y-89690204D01*
X146529796Y-90082624D01*
X147042517Y-90295000D01*
X147597483Y-90295000D01*
X148110204Y-90082624D01*
X148502624Y-89690204D01*
X148590000Y-89479260D01*
X148677376Y-89690204D01*
X149069796Y-90082624D01*
X149582517Y-90295000D01*
X150137483Y-90295000D01*
X150650204Y-90082624D01*
X151042624Y-89690204D01*
X151130000Y-89479260D01*
X151217376Y-89690204D01*
X151609796Y-90082624D01*
X152122517Y-90295000D01*
X152677483Y-90295000D01*
X153190204Y-90082624D01*
X153582624Y-89690204D01*
X153670000Y-89479260D01*
X153757376Y-89690204D01*
X154149796Y-90082624D01*
X154662517Y-90295000D01*
X155217483Y-90295000D01*
X155730204Y-90082624D01*
X156122624Y-89690204D01*
X156335000Y-89177483D01*
X156335000Y-88622517D01*
X156122624Y-88109796D01*
X155730204Y-87717376D01*
X155519260Y-87630000D01*
X155730204Y-87542624D01*
X156122624Y-87150204D01*
X156335000Y-86637483D01*
X156335000Y-86082517D01*
X156122624Y-85569796D01*
X155730204Y-85177376D01*
X155217483Y-84965000D01*
X154662517Y-84965000D01*
X154149796Y-85177376D01*
X153757376Y-85569796D01*
X153670000Y-85780740D01*
X153582624Y-85569796D01*
X153190204Y-85177376D01*
X152677483Y-84965000D01*
X152122517Y-84965000D01*
X151609796Y-85177376D01*
X151217376Y-85569796D01*
X151130000Y-85780740D01*
X151042624Y-85569796D01*
X150650204Y-85177376D01*
X150137483Y-84965000D01*
X149582517Y-84965000D01*
X149069796Y-85177376D01*
X148677376Y-85569796D01*
X148590000Y-85780740D01*
X148502624Y-85569796D01*
X148110204Y-85177376D01*
X147597483Y-84965000D01*
X147042517Y-84965000D01*
X146529796Y-85177376D01*
X146137376Y-85569796D01*
X146050000Y-85780740D01*
X145962624Y-85569796D01*
X145570204Y-85177376D01*
X145057483Y-84965000D01*
X144502517Y-84965000D01*
X143989796Y-85177376D01*
X143597376Y-85569796D01*
X143510000Y-85780740D01*
X143422624Y-85569796D01*
X143030204Y-85177376D01*
X142517483Y-84965000D01*
X141962517Y-84965000D01*
X141449796Y-85177376D01*
X141057376Y-85569796D01*
X140970000Y-85780740D01*
X140882624Y-85569796D01*
X140490204Y-85177376D01*
X139977483Y-84965000D01*
X139422517Y-84965000D01*
X138909796Y-85177376D01*
X138517376Y-85569796D01*
X138430000Y-85780740D01*
X138342624Y-85569796D01*
X137950204Y-85177376D01*
X137437483Y-84965000D01*
X136882517Y-84965000D01*
X136369796Y-85177376D01*
X135977376Y-85569796D01*
X135890000Y-85780740D01*
X135802624Y-85569796D01*
X135410204Y-85177376D01*
X134897483Y-84965000D01*
X134342517Y-84965000D01*
X133829796Y-85177376D01*
X133437376Y-85569796D01*
X133225000Y-86082517D01*
X133225000Y-86637483D01*
X133437376Y-87150204D01*
X133829796Y-87542624D01*
X134040740Y-87630000D01*
X133829796Y-87717376D01*
X133437376Y-88109796D01*
X133350000Y-88320740D01*
X133262624Y-88109796D01*
X132870204Y-87717376D01*
X132357483Y-87505000D01*
X131802517Y-87505000D01*
X131495000Y-87632378D01*
X131495000Y-85900803D01*
X131555851Y-85475903D01*
X131713105Y-85130041D01*
X131961110Y-84842216D01*
X132279929Y-84635568D01*
X132666626Y-84519921D01*
X132867413Y-84505000D01*
X170053000Y-84505000D01*
X170053000Y-101600000D01*
X170053000Y-101600000D01*
G37*
X170053000Y-101600000D02*
X170062667Y-101648601D01*
X170090197Y-101689803D01*
X170131399Y-101717333D01*
X170180000Y-101727000D01*
X179324001Y-101727000D01*
X179324001Y-106071932D01*
X179304096Y-106172000D01*
X179374982Y-106528365D01*
X179382950Y-106568423D01*
X179607506Y-106904495D01*
X179692337Y-106961177D01*
X180566822Y-107835663D01*
X180623505Y-107920495D01*
X180959577Y-108145051D01*
X181255935Y-108204000D01*
X181255936Y-108204000D01*
X181356000Y-108223904D01*
X181456063Y-108204000D01*
X189540343Y-108204000D01*
X189315680Y-108428663D01*
X189103000Y-108942119D01*
X189103000Y-109497881D01*
X189315680Y-110011337D01*
X189672321Y-110367978D01*
X189707444Y-110544552D01*
X189722397Y-110619724D01*
X189904849Y-110892782D01*
X189973775Y-110938837D01*
X191067163Y-112032226D01*
X191113218Y-112101152D01*
X191386276Y-112283604D01*
X191627067Y-112331500D01*
X191627071Y-112331500D01*
X191708369Y-112347671D01*
X191789667Y-112331500D01*
X196260699Y-112331500D01*
X196342000Y-112347672D01*
X196423301Y-112331500D01*
X196423303Y-112331500D01*
X196664094Y-112283604D01*
X196937152Y-112101152D01*
X196983209Y-112032223D01*
X197630226Y-111385207D01*
X197699152Y-111339152D01*
X197802885Y-111183905D01*
X197881604Y-111066095D01*
X197945672Y-110744000D01*
X197929500Y-110662697D01*
X197929500Y-109350211D01*
X197981431Y-109298280D01*
X198139000Y-108917874D01*
X198139000Y-108506126D01*
X197981431Y-108125720D01*
X197690280Y-107834569D01*
X197309874Y-107677000D01*
X196898126Y-107677000D01*
X196517720Y-107834569D01*
X196226569Y-108125720D01*
X196069000Y-108506126D01*
X196069000Y-108917874D01*
X196226569Y-109298280D01*
X196278501Y-109350212D01*
X196278500Y-110402067D01*
X196000068Y-110680500D01*
X192050303Y-110680500D01*
X191532730Y-110162927D01*
X191684320Y-110011337D01*
X191770000Y-109804487D01*
X191855680Y-110011337D01*
X192248663Y-110404320D01*
X192762119Y-110617000D01*
X193317881Y-110617000D01*
X193831337Y-110404320D01*
X194224320Y-110011337D01*
X194437000Y-109497881D01*
X194437000Y-108942119D01*
X194224320Y-108428663D01*
X194056000Y-108260343D01*
X194056000Y-108242433D01*
X194075904Y-108142370D01*
X194054682Y-108035680D01*
X193997051Y-107745947D01*
X193772495Y-107409875D01*
X193687663Y-107353192D01*
X192874809Y-106540339D01*
X192818125Y-106455505D01*
X192482053Y-106230949D01*
X192185695Y-106172000D01*
X192185693Y-106172000D01*
X192085630Y-106152096D01*
X191985567Y-106172000D01*
X181776841Y-106172000D01*
X181356000Y-105751160D01*
X181356000Y-101727000D01*
X190500000Y-101727000D01*
X190548601Y-101717333D01*
X190589803Y-101689803D01*
X190617333Y-101648601D01*
X190627000Y-101600000D01*
X190627000Y-97917000D01*
X190777881Y-97917000D01*
X191291337Y-97704320D01*
X191684320Y-97311337D01*
X191770000Y-97104487D01*
X191855680Y-97311337D01*
X192214500Y-97670157D01*
X192214501Y-99740694D01*
X192198328Y-99822000D01*
X192245227Y-100057773D01*
X192262397Y-100144094D01*
X192444849Y-100417152D01*
X192513775Y-100463207D01*
X192767000Y-100716432D01*
X192767000Y-100789874D01*
X192924569Y-101170280D01*
X193215720Y-101461431D01*
X193596126Y-101619000D01*
X194007874Y-101619000D01*
X194388280Y-101461431D01*
X194679431Y-101170280D01*
X194837000Y-100789874D01*
X194837000Y-100378126D01*
X194679431Y-99997720D01*
X194388280Y-99706569D01*
X194007874Y-99549000D01*
X193934432Y-99549000D01*
X193865500Y-99480068D01*
X193865500Y-97670157D01*
X194224320Y-97311337D01*
X194437000Y-96797881D01*
X194437000Y-96242119D01*
X194224320Y-95728663D01*
X193831337Y-95335680D01*
X193317881Y-95123000D01*
X192762119Y-95123000D01*
X192248663Y-95335680D01*
X191855680Y-95728663D01*
X191770000Y-95935513D01*
X191684320Y-95728663D01*
X191291337Y-95335680D01*
X190777881Y-95123000D01*
X190627000Y-95123000D01*
X190627000Y-88622517D01*
X194185000Y-88622517D01*
X194185000Y-89177483D01*
X194397376Y-89690204D01*
X194789796Y-90082624D01*
X195302517Y-90295000D01*
X195857483Y-90295000D01*
X196370204Y-90082624D01*
X196762624Y-89690204D01*
X196850000Y-89479260D01*
X196937376Y-89690204D01*
X197329796Y-90082624D01*
X197842517Y-90295000D01*
X198397483Y-90295000D01*
X198910204Y-90082624D01*
X199302624Y-89690204D01*
X199390000Y-89479260D01*
X199477376Y-89690204D01*
X199869796Y-90082624D01*
X200382517Y-90295000D01*
X200937483Y-90295000D01*
X201450204Y-90082624D01*
X201842624Y-89690204D01*
X201930000Y-89479260D01*
X202017376Y-89690204D01*
X202409796Y-90082624D01*
X202922517Y-90295000D01*
X203477483Y-90295000D01*
X203990204Y-90082624D01*
X204382624Y-89690204D01*
X204470000Y-89479260D01*
X204557376Y-89690204D01*
X204949796Y-90082624D01*
X205462517Y-90295000D01*
X206017483Y-90295000D01*
X206229000Y-90207387D01*
X206229000Y-90601374D01*
X206259204Y-90674293D01*
X205915720Y-90816569D01*
X205624569Y-91107720D01*
X205467000Y-91488126D01*
X205467000Y-91899874D01*
X205624569Y-92280280D01*
X205915720Y-92571431D01*
X206184501Y-92682763D01*
X206184500Y-94315302D01*
X206184501Y-94315307D01*
X206184501Y-95192016D01*
X206017881Y-95123000D01*
X205462119Y-95123000D01*
X205295500Y-95192016D01*
X205295500Y-93299297D01*
X205311671Y-93217999D01*
X205295500Y-93136701D01*
X205295500Y-93136697D01*
X205247604Y-92895906D01*
X205065152Y-92622848D01*
X204997000Y-92577310D01*
X204997000Y-92504126D01*
X204839431Y-92123720D01*
X204548280Y-91832569D01*
X204167874Y-91675000D01*
X203756126Y-91675000D01*
X203375720Y-91832569D01*
X203084569Y-92123720D01*
X202927000Y-92504126D01*
X202927000Y-92915874D01*
X203084569Y-93296280D01*
X203375720Y-93587431D01*
X203644501Y-93698763D01*
X203644500Y-94569302D01*
X203644501Y-94569307D01*
X203644500Y-108376697D01*
X203644500Y-108376698D01*
X203644501Y-110291198D01*
X203644500Y-119552698D01*
X203628328Y-119634000D01*
X203644500Y-119715301D01*
X203644500Y-119715302D01*
X203692396Y-119956093D01*
X203874848Y-120229152D01*
X203943776Y-120275209D01*
X204336793Y-120668225D01*
X204382848Y-120737152D01*
X204655906Y-120919604D01*
X204746683Y-120937660D01*
X204555680Y-121128663D01*
X204343000Y-121642119D01*
X204343000Y-122197881D01*
X204555680Y-122711337D01*
X204948663Y-123104320D01*
X205462119Y-123317000D01*
X206017881Y-123317000D01*
X206531337Y-123104320D01*
X206924320Y-122711337D01*
X207010000Y-122504487D01*
X207095680Y-122711337D01*
X207488663Y-123104320D01*
X208002119Y-123317000D01*
X208557881Y-123317000D01*
X209071337Y-123104320D01*
X209464320Y-122711337D01*
X209677000Y-122197881D01*
X209677000Y-121642119D01*
X209657391Y-121594778D01*
X210963000Y-121594778D01*
X210963000Y-122245222D01*
X211211914Y-122846153D01*
X211671847Y-123306086D01*
X212272778Y-123555000D01*
X212923222Y-123555000D01*
X213524153Y-123306086D01*
X213984086Y-122846153D01*
X214233000Y-122245222D01*
X214233000Y-121594778D01*
X213984086Y-120993847D01*
X213524153Y-120533914D01*
X212923222Y-120285000D01*
X212272778Y-120285000D01*
X211671847Y-120533914D01*
X211211914Y-120993847D01*
X210963000Y-121594778D01*
X209657391Y-121594778D01*
X209464320Y-121128663D01*
X209107679Y-120772022D01*
X209057604Y-120520275D01*
X208966586Y-120384059D01*
X208875152Y-120247218D01*
X208806226Y-120201163D01*
X208220839Y-119615777D01*
X208174782Y-119546848D01*
X207901724Y-119364396D01*
X207660933Y-119316500D01*
X207660931Y-119316500D01*
X207579630Y-119300328D01*
X207498329Y-119316500D01*
X205319933Y-119316500D01*
X205295500Y-119292068D01*
X205295500Y-110547984D01*
X205462119Y-110617000D01*
X206017881Y-110617000D01*
X206531337Y-110404320D01*
X206924320Y-110011337D01*
X207010000Y-109804487D01*
X207095680Y-110011337D01*
X207488663Y-110404320D01*
X208002119Y-110617000D01*
X208557881Y-110617000D01*
X209071337Y-110404320D01*
X209464320Y-110011337D01*
X209677000Y-109497881D01*
X209677000Y-108942119D01*
X209657391Y-108894778D01*
X210963000Y-108894778D01*
X210963000Y-109545222D01*
X211211914Y-110146153D01*
X211671847Y-110606086D01*
X212272778Y-110855000D01*
X212923222Y-110855000D01*
X213524153Y-110606086D01*
X213984086Y-110146153D01*
X214233000Y-109545222D01*
X214233000Y-108894778D01*
X214036341Y-108420000D01*
X216992560Y-108420000D01*
X216992560Y-110020000D01*
X217041843Y-110267765D01*
X217182191Y-110477809D01*
X217392235Y-110618157D01*
X217640000Y-110667440D01*
X219240000Y-110667440D01*
X219487765Y-110618157D01*
X219697809Y-110477809D01*
X219838157Y-110267765D01*
X219887440Y-110020000D01*
X219887440Y-108420000D01*
X219838157Y-108172235D01*
X219697809Y-107962191D01*
X219487765Y-107821843D01*
X219240000Y-107772560D01*
X217640000Y-107772560D01*
X217392235Y-107821843D01*
X217182191Y-107962191D01*
X217041843Y-108172235D01*
X216992560Y-108420000D01*
X214036341Y-108420000D01*
X213984086Y-108293847D01*
X213524153Y-107833914D01*
X212923222Y-107585000D01*
X212272778Y-107585000D01*
X211671847Y-107833914D01*
X211211914Y-108293847D01*
X210963000Y-108894778D01*
X209657391Y-108894778D01*
X209464320Y-108428663D01*
X209071337Y-108035680D01*
X208557881Y-107823000D01*
X208050432Y-107823000D01*
X207835500Y-107608068D01*
X207835500Y-97847984D01*
X208002119Y-97917000D01*
X208557881Y-97917000D01*
X209071337Y-97704320D01*
X209464320Y-97311337D01*
X209677000Y-96797881D01*
X209677000Y-96242119D01*
X209657391Y-96194778D01*
X210963000Y-96194778D01*
X210963000Y-96845222D01*
X211211914Y-97446153D01*
X211671847Y-97906086D01*
X212272778Y-98155000D01*
X212923222Y-98155000D01*
X213524153Y-97906086D01*
X213984086Y-97446153D01*
X214233000Y-96845222D01*
X214233000Y-96194778D01*
X214036341Y-95720000D01*
X216992560Y-95720000D01*
X216992560Y-97320000D01*
X217041843Y-97567765D01*
X217182191Y-97777809D01*
X217392235Y-97918157D01*
X217640000Y-97967440D01*
X219240000Y-97967440D01*
X219487765Y-97918157D01*
X219697809Y-97777809D01*
X219838157Y-97567765D01*
X219887440Y-97320000D01*
X219887440Y-95720000D01*
X219838157Y-95472235D01*
X219697809Y-95262191D01*
X219487765Y-95121843D01*
X219240000Y-95072560D01*
X217640000Y-95072560D01*
X217392235Y-95121843D01*
X217182191Y-95262191D01*
X217041843Y-95472235D01*
X216992560Y-95720000D01*
X214036341Y-95720000D01*
X213984086Y-95593847D01*
X213524153Y-95133914D01*
X212923222Y-94885000D01*
X212272778Y-94885000D01*
X211671847Y-95133914D01*
X211211914Y-95593847D01*
X210963000Y-96194778D01*
X209657391Y-96194778D01*
X209464320Y-95728663D01*
X209105500Y-95369843D01*
X209105500Y-91492801D01*
X209121672Y-91411500D01*
X209089448Y-91249500D01*
X209057604Y-91089406D01*
X208875152Y-90816348D01*
X208806226Y-90770293D01*
X208330932Y-90295000D01*
X208557483Y-90295000D01*
X209070204Y-90082624D01*
X209462624Y-89690204D01*
X209550000Y-89479260D01*
X209637376Y-89690204D01*
X209994500Y-90047328D01*
X209994501Y-92120694D01*
X209978328Y-92202000D01*
X210028852Y-92456000D01*
X210042397Y-92524094D01*
X210224849Y-92797152D01*
X210293774Y-92843206D01*
X210686793Y-93236225D01*
X210732848Y-93305152D01*
X211005906Y-93487604D01*
X211246697Y-93535500D01*
X211246701Y-93535500D01*
X211327999Y-93551671D01*
X211409297Y-93535500D01*
X241212068Y-93535500D01*
X241236500Y-93559933D01*
X241236501Y-109900694D01*
X241220328Y-109982000D01*
X241274811Y-110255904D01*
X241284397Y-110304094D01*
X241466849Y-110577152D01*
X241535774Y-110623207D01*
X241928793Y-111016225D01*
X241974848Y-111085152D01*
X242247906Y-111267604D01*
X242488697Y-111315500D01*
X242488701Y-111315500D01*
X242569999Y-111331671D01*
X242651297Y-111315500D01*
X244725789Y-111315500D01*
X244777720Y-111367431D01*
X245158126Y-111525000D01*
X245569874Y-111525000D01*
X245950280Y-111367431D01*
X246241431Y-111076280D01*
X246399000Y-110695874D01*
X246399000Y-110284126D01*
X246241431Y-109903720D01*
X245950280Y-109612569D01*
X245569874Y-109455000D01*
X245158126Y-109455000D01*
X244777720Y-109612569D01*
X244725789Y-109664500D01*
X242911933Y-109664500D01*
X242887500Y-109640068D01*
X242887500Y-108645815D01*
X243009906Y-108727604D01*
X243250697Y-108775500D01*
X243250701Y-108775500D01*
X243331999Y-108791671D01*
X243413297Y-108775500D01*
X244725789Y-108775500D01*
X244777720Y-108827431D01*
X245158126Y-108985000D01*
X245569874Y-108985000D01*
X245950280Y-108827431D01*
X246241431Y-108536280D01*
X246399000Y-108155874D01*
X246399000Y-107744126D01*
X246241431Y-107363720D01*
X245950280Y-107072569D01*
X245569874Y-106915000D01*
X245158126Y-106915000D01*
X244777720Y-107072569D01*
X244725789Y-107124500D01*
X243673933Y-107124500D01*
X243649500Y-107100068D01*
X243649500Y-106105815D01*
X243771906Y-106187604D01*
X244012697Y-106235500D01*
X244012701Y-106235500D01*
X244093999Y-106251671D01*
X244175297Y-106235500D01*
X244753789Y-106235500D01*
X244805720Y-106287431D01*
X245186126Y-106445000D01*
X245597874Y-106445000D01*
X245978280Y-106287431D01*
X246269431Y-105996280D01*
X246427000Y-105615874D01*
X246427000Y-105204126D01*
X246269431Y-104823720D01*
X245978280Y-104532569D01*
X245597874Y-104375000D01*
X245186126Y-104375000D01*
X244805720Y-104532569D01*
X244753789Y-104584500D01*
X244435933Y-104584500D01*
X244411500Y-104560068D01*
X244411500Y-103565815D01*
X244533906Y-103647604D01*
X244748598Y-103690309D01*
X244805720Y-103747431D01*
X245186126Y-103905000D01*
X245597874Y-103905000D01*
X245978280Y-103747431D01*
X246269431Y-103456280D01*
X246427000Y-103075874D01*
X246427000Y-102664126D01*
X246269431Y-102283720D01*
X245978280Y-101992569D01*
X245597874Y-101835000D01*
X245186126Y-101835000D01*
X245173500Y-101840230D01*
X245173500Y-92537301D01*
X245189672Y-92456000D01*
X245173500Y-92374697D01*
X245125604Y-92133906D01*
X244943152Y-91860848D01*
X244874226Y-91814793D01*
X242957209Y-89897777D01*
X242911152Y-89828848D01*
X242638094Y-89646396D01*
X242397303Y-89598500D01*
X242397301Y-89598500D01*
X242316000Y-89582328D01*
X242234699Y-89598500D01*
X219660609Y-89598500D01*
X219835000Y-89177483D01*
X219835000Y-88622517D01*
X219622624Y-88109796D01*
X219230204Y-87717376D01*
X219019260Y-87630000D01*
X219230204Y-87542624D01*
X219622624Y-87150204D01*
X219835000Y-86637483D01*
X219835000Y-86082517D01*
X219622624Y-85569796D01*
X219230204Y-85177376D01*
X218717483Y-84965000D01*
X218162517Y-84965000D01*
X217649796Y-85177376D01*
X217257376Y-85569796D01*
X217170000Y-85780740D01*
X217082624Y-85569796D01*
X216690204Y-85177376D01*
X216177483Y-84965000D01*
X215622517Y-84965000D01*
X215109796Y-85177376D01*
X214717376Y-85569796D01*
X214630000Y-85780740D01*
X214542624Y-85569796D01*
X214150204Y-85177376D01*
X213637483Y-84965000D01*
X213082517Y-84965000D01*
X212569796Y-85177376D01*
X212177376Y-85569796D01*
X212090000Y-85780740D01*
X212002624Y-85569796D01*
X211610204Y-85177376D01*
X211097483Y-84965000D01*
X210542517Y-84965000D01*
X210029796Y-85177376D01*
X209637376Y-85569796D01*
X209550000Y-85780740D01*
X209462624Y-85569796D01*
X209070204Y-85177376D01*
X208557483Y-84965000D01*
X208002517Y-84965000D01*
X207489796Y-85177376D01*
X207097376Y-85569796D01*
X207010000Y-85780740D01*
X206922624Y-85569796D01*
X206530204Y-85177376D01*
X206017483Y-84965000D01*
X205462517Y-84965000D01*
X204949796Y-85177376D01*
X204557376Y-85569796D01*
X204470000Y-85780740D01*
X204382624Y-85569796D01*
X203990204Y-85177376D01*
X203477483Y-84965000D01*
X202922517Y-84965000D01*
X202409796Y-85177376D01*
X202017376Y-85569796D01*
X201930000Y-85780740D01*
X201842624Y-85569796D01*
X201450204Y-85177376D01*
X200937483Y-84965000D01*
X200382517Y-84965000D01*
X199869796Y-85177376D01*
X199477376Y-85569796D01*
X199390000Y-85780740D01*
X199302624Y-85569796D01*
X198910204Y-85177376D01*
X198397483Y-84965000D01*
X197842517Y-84965000D01*
X197329796Y-85177376D01*
X196937376Y-85569796D01*
X196725000Y-86082517D01*
X196725000Y-86637483D01*
X196937376Y-87150204D01*
X197329796Y-87542624D01*
X197540740Y-87630000D01*
X197329796Y-87717376D01*
X196937376Y-88109796D01*
X196850000Y-88320740D01*
X196762624Y-88109796D01*
X196370204Y-87717376D01*
X195857483Y-87505000D01*
X195302517Y-87505000D01*
X194789796Y-87717376D01*
X194397376Y-88109796D01*
X194185000Y-88622517D01*
X190627000Y-88622517D01*
X190627000Y-84505000D01*
X253189197Y-84505000D01*
X253614097Y-84565851D01*
X253959959Y-84723105D01*
X254247784Y-84971110D01*
X254454432Y-85289929D01*
X254570079Y-85676626D01*
X254585001Y-85877426D01*
X254585000Y-110949196D01*
X254524149Y-111374098D01*
X254366895Y-111719959D01*
X254118891Y-112007782D01*
X253800071Y-112214432D01*
X253413373Y-112330079D01*
X253212587Y-112345000D01*
X237557462Y-112345000D01*
X237490000Y-112331581D01*
X237422539Y-112345000D01*
X237422538Y-112345000D01*
X237222727Y-112384745D01*
X236996143Y-112536143D01*
X236844745Y-112762727D01*
X236791581Y-113030000D01*
X236805001Y-113097467D01*
X236805000Y-133790538D01*
X236791581Y-133858000D01*
X236844745Y-134125273D01*
X236996143Y-134351857D01*
X237222727Y-134503255D01*
X237490000Y-134556419D01*
X237557461Y-134543000D01*
X253189197Y-134543000D01*
X253614097Y-134603851D01*
X253959959Y-134761105D01*
X254247784Y-135009110D01*
X254454432Y-135327929D01*
X254570079Y-135714626D01*
X254585001Y-135915426D01*
X254585000Y-143440378D01*
X254221404Y-143549116D01*
X254137032Y-143588101D01*
X254052147Y-143626072D01*
X254045096Y-143630581D01*
X253561637Y-143943945D01*
X253491596Y-144005045D01*
X253420783Y-144065312D01*
X253415285Y-144071615D01*
X253415281Y-144071619D01*
X253415278Y-144071624D01*
X253039205Y-144508078D01*
X252989120Y-144586393D01*
X252938076Y-144664100D01*
X252934569Y-144671691D01*
X252934565Y-144671697D01*
X252934563Y-144671703D01*
X252696105Y-145196164D01*
X252670023Y-145285358D01*
X252642831Y-145374298D01*
X252641594Y-145382575D01*
X252559918Y-145952891D01*
X252559918Y-146022763D01*
X252554314Y-146092415D01*
X252554884Y-146100765D01*
X252577204Y-146401114D01*
X252592207Y-146469353D01*
X252601691Y-146538585D01*
X252604040Y-146546618D01*
X252769116Y-147098595D01*
X252808094Y-147182951D01*
X252846072Y-147267853D01*
X252850582Y-147274904D01*
X253163945Y-147758363D01*
X253225045Y-147828404D01*
X253285312Y-147899217D01*
X253291615Y-147904715D01*
X253291619Y-147904719D01*
X253291624Y-147904722D01*
X253728078Y-148280795D01*
X253806393Y-148330880D01*
X253884100Y-148381924D01*
X253891691Y-148385431D01*
X253891697Y-148385435D01*
X253891703Y-148385437D01*
X254416164Y-148623895D01*
X254505358Y-148649977D01*
X254585001Y-148674327D01*
X254585000Y-156669196D01*
X254524149Y-157094098D01*
X254366895Y-157439959D01*
X254118891Y-157727782D01*
X253800071Y-157934432D01*
X253413373Y-158050079D01*
X253212587Y-158065000D01*
X132890804Y-158065000D01*
X132465902Y-158004149D01*
X132120041Y-157846895D01*
X131832218Y-157598891D01*
X131625568Y-157280071D01*
X131509921Y-156893373D01*
X131495000Y-156692587D01*
X131495000Y-148659622D01*
X131858595Y-148550884D01*
X131942951Y-148511906D01*
X132027853Y-148473928D01*
X132034901Y-148469420D01*
X132034905Y-148469418D01*
X132518363Y-148156055D01*
X132588404Y-148094955D01*
X132659217Y-148034688D01*
X132664715Y-148028385D01*
X132664719Y-148028381D01*
X132664722Y-148028376D01*
X133040795Y-147591922D01*
X133090880Y-147513607D01*
X133141924Y-147435900D01*
X133145431Y-147428309D01*
X133145435Y-147428303D01*
X133145437Y-147428297D01*
X133383895Y-146903836D01*
X133409977Y-146814642D01*
X133437169Y-146725702D01*
X133438406Y-146717424D01*
X133520082Y-146147109D01*
X133520082Y-146077236D01*
X133525686Y-146007585D01*
X133525116Y-145999235D01*
X133502796Y-145698886D01*
X133487792Y-145630643D01*
X133478309Y-145561414D01*
X133475960Y-145553382D01*
X133310884Y-145001404D01*
X133271899Y-144917032D01*
X133233928Y-144832147D01*
X133229419Y-144825096D01*
X132916055Y-144341637D01*
X132854955Y-144271596D01*
X132794688Y-144200783D01*
X132788385Y-144195285D01*
X132788381Y-144195281D01*
X132788376Y-144195278D01*
X132351922Y-143819205D01*
X132273607Y-143769120D01*
X132195900Y-143718076D01*
X132188309Y-143714569D01*
X132188303Y-143714565D01*
X132188297Y-143714563D01*
X131663836Y-143476105D01*
X131574642Y-143450023D01*
X131495000Y-143425674D01*
X131495000Y-133347622D01*
X131802517Y-133475000D01*
X132357483Y-133475000D01*
X132870204Y-133262624D01*
X133262624Y-132870204D01*
X133350000Y-132659260D01*
X133437376Y-132870204D01*
X133829796Y-133262624D01*
X134342517Y-133475000D01*
X134897483Y-133475000D01*
X135410204Y-133262624D01*
X135802624Y-132870204D01*
X135890000Y-132659260D01*
X135977376Y-132870204D01*
X136369796Y-133262624D01*
X136882517Y-133475000D01*
X137437483Y-133475000D01*
X137950204Y-133262624D01*
X138342624Y-132870204D01*
X138430000Y-132659260D01*
X138517376Y-132870204D01*
X138909796Y-133262624D01*
X139422517Y-133475000D01*
X139977483Y-133475000D01*
X140490204Y-133262624D01*
X140882624Y-132870204D01*
X140970000Y-132659260D01*
X141057376Y-132870204D01*
X141449796Y-133262624D01*
X141962517Y-133475000D01*
X142517483Y-133475000D01*
X143030204Y-133262624D01*
X143422624Y-132870204D01*
X143510000Y-132659260D01*
X143597376Y-132870204D01*
X143989796Y-133262624D01*
X144502517Y-133475000D01*
X145057483Y-133475000D01*
X145570204Y-133262624D01*
X145962624Y-132870204D01*
X146050000Y-132659260D01*
X146137376Y-132870204D01*
X146529796Y-133262624D01*
X147042517Y-133475000D01*
X147597483Y-133475000D01*
X148110204Y-133262624D01*
X148502624Y-132870204D01*
X148590000Y-132659260D01*
X148677376Y-132870204D01*
X149069796Y-133262624D01*
X149582517Y-133475000D01*
X150137483Y-133475000D01*
X150650204Y-133262624D01*
X151042624Y-132870204D01*
X151130000Y-132659260D01*
X151217376Y-132870204D01*
X151609796Y-133262624D01*
X152122517Y-133475000D01*
X152677483Y-133475000D01*
X153190204Y-133262624D01*
X153582624Y-132870204D01*
X153670000Y-132659260D01*
X153757376Y-132870204D01*
X154149796Y-133262624D01*
X154662517Y-133475000D01*
X155217483Y-133475000D01*
X155730204Y-133262624D01*
X156122624Y-132870204D01*
X156335000Y-132357483D01*
X156335000Y-131802517D01*
X156122624Y-131289796D01*
X155730204Y-130897376D01*
X155519260Y-130810000D01*
X155730204Y-130722624D01*
X156122624Y-130330204D01*
X156335000Y-129817483D01*
X156335000Y-129262517D01*
X194185000Y-129262517D01*
X194185000Y-129817483D01*
X194397376Y-130330204D01*
X194789796Y-130722624D01*
X195000740Y-130810000D01*
X194789796Y-130897376D01*
X194397376Y-131289796D01*
X194185000Y-131802517D01*
X194185000Y-132357483D01*
X194397376Y-132870204D01*
X194789796Y-133262624D01*
X195302517Y-133475000D01*
X195857483Y-133475000D01*
X196370204Y-133262624D01*
X196762624Y-132870204D01*
X196850000Y-132659260D01*
X196937376Y-132870204D01*
X197329796Y-133262624D01*
X197842517Y-133475000D01*
X198397483Y-133475000D01*
X198910204Y-133262624D01*
X199302624Y-132870204D01*
X199390000Y-132659260D01*
X199477376Y-132870204D01*
X199869796Y-133262624D01*
X200382517Y-133475000D01*
X200937483Y-133475000D01*
X201450204Y-133262624D01*
X201842624Y-132870204D01*
X201930000Y-132659260D01*
X202017376Y-132870204D01*
X202409796Y-133262624D01*
X202922517Y-133475000D01*
X203477483Y-133475000D01*
X203990204Y-133262624D01*
X204382624Y-132870204D01*
X204470000Y-132659260D01*
X204557376Y-132870204D01*
X204949796Y-133262624D01*
X205462517Y-133475000D01*
X206017483Y-133475000D01*
X206530204Y-133262624D01*
X206922624Y-132870204D01*
X207010000Y-132659260D01*
X207097376Y-132870204D01*
X207489796Y-133262624D01*
X208002517Y-133475000D01*
X208557483Y-133475000D01*
X209070204Y-133262624D01*
X209462624Y-132870204D01*
X209550000Y-132659260D01*
X209637376Y-132870204D01*
X210029796Y-133262624D01*
X210542517Y-133475000D01*
X211097483Y-133475000D01*
X211610204Y-133262624D01*
X212002624Y-132870204D01*
X212090000Y-132659260D01*
X212177376Y-132870204D01*
X212569796Y-133262624D01*
X213082517Y-133475000D01*
X213637483Y-133475000D01*
X214150204Y-133262624D01*
X214542624Y-132870204D01*
X214630000Y-132659260D01*
X214717376Y-132870204D01*
X215109796Y-133262624D01*
X215622517Y-133475000D01*
X216177483Y-133475000D01*
X216690204Y-133262624D01*
X217082624Y-132870204D01*
X217170000Y-132659260D01*
X217257376Y-132870204D01*
X217649796Y-133262624D01*
X218162517Y-133475000D01*
X218717483Y-133475000D01*
X219230204Y-133262624D01*
X219622624Y-132870204D01*
X219835000Y-132357483D01*
X219835000Y-131802517D01*
X219622624Y-131289796D01*
X219230204Y-130897376D01*
X219019260Y-130810000D01*
X219230204Y-130722624D01*
X219622624Y-130330204D01*
X219835000Y-129817483D01*
X219835000Y-129262517D01*
X219622624Y-128749796D01*
X219230204Y-128357376D01*
X218717483Y-128145000D01*
X218162517Y-128145000D01*
X217649796Y-128357376D01*
X217257376Y-128749796D01*
X217170000Y-128960740D01*
X217082624Y-128749796D01*
X216690204Y-128357376D01*
X216177483Y-128145000D01*
X215622517Y-128145000D01*
X215109796Y-128357376D01*
X214717376Y-128749796D01*
X214630000Y-128960740D01*
X214542624Y-128749796D01*
X214150204Y-128357376D01*
X213637483Y-128145000D01*
X213082517Y-128145000D01*
X212569796Y-128357376D01*
X212177376Y-128749796D01*
X212090000Y-128960740D01*
X212002624Y-128749796D01*
X211610204Y-128357376D01*
X211097483Y-128145000D01*
X210542517Y-128145000D01*
X210029796Y-128357376D01*
X209637376Y-128749796D01*
X209550000Y-128960740D01*
X209462624Y-128749796D01*
X209070204Y-128357376D01*
X208557483Y-128145000D01*
X208002517Y-128145000D01*
X207489796Y-128357376D01*
X207097376Y-128749796D01*
X207010000Y-128960740D01*
X206922624Y-128749796D01*
X206530204Y-128357376D01*
X206017483Y-128145000D01*
X205462517Y-128145000D01*
X204949796Y-128357376D01*
X204557376Y-128749796D01*
X204470000Y-128960740D01*
X204382624Y-128749796D01*
X203990204Y-128357376D01*
X203477483Y-128145000D01*
X202922517Y-128145000D01*
X202409796Y-128357376D01*
X202017376Y-128749796D01*
X201930000Y-128960740D01*
X201842624Y-128749796D01*
X201450204Y-128357376D01*
X200937483Y-128145000D01*
X200382517Y-128145000D01*
X199869796Y-128357376D01*
X199477376Y-128749796D01*
X199265000Y-129262517D01*
X199265000Y-129817483D01*
X199477376Y-130330204D01*
X199869796Y-130722624D01*
X200080740Y-130810000D01*
X199869796Y-130897376D01*
X199477376Y-131289796D01*
X199390000Y-131500740D01*
X199302624Y-131289796D01*
X198910204Y-130897376D01*
X198397483Y-130685000D01*
X197842517Y-130685000D01*
X197329796Y-130897376D01*
X196937376Y-131289796D01*
X196850000Y-131500740D01*
X196762624Y-131289796D01*
X196370204Y-130897376D01*
X196159260Y-130810000D01*
X196370204Y-130722624D01*
X196762624Y-130330204D01*
X196975000Y-129817483D01*
X196975000Y-129262517D01*
X196762624Y-128749796D01*
X196370204Y-128357376D01*
X195857483Y-128145000D01*
X195302517Y-128145000D01*
X194789796Y-128357376D01*
X194397376Y-128749796D01*
X194185000Y-129262517D01*
X156335000Y-129262517D01*
X156122624Y-128749796D01*
X155730204Y-128357376D01*
X155217483Y-128145000D01*
X154662517Y-128145000D01*
X154149796Y-128357376D01*
X153757376Y-128749796D01*
X153670000Y-128960740D01*
X153582624Y-128749796D01*
X153190204Y-128357376D01*
X152677483Y-128145000D01*
X152122517Y-128145000D01*
X151609796Y-128357376D01*
X151217376Y-128749796D01*
X151130000Y-128960740D01*
X151042624Y-128749796D01*
X150650204Y-128357376D01*
X150137483Y-128145000D01*
X149582517Y-128145000D01*
X149069796Y-128357376D01*
X148677376Y-128749796D01*
X148590000Y-128960740D01*
X148502624Y-128749796D01*
X148110204Y-128357376D01*
X147597483Y-128145000D01*
X147042517Y-128145000D01*
X146529796Y-128357376D01*
X146137376Y-128749796D01*
X146050000Y-128960740D01*
X145962624Y-128749796D01*
X145570204Y-128357376D01*
X145057483Y-128145000D01*
X144502517Y-128145000D01*
X143989796Y-128357376D01*
X143597376Y-128749796D01*
X143510000Y-128960740D01*
X143422624Y-128749796D01*
X143030204Y-128357376D01*
X142517483Y-128145000D01*
X141962517Y-128145000D01*
X141449796Y-128357376D01*
X141057376Y-128749796D01*
X140970000Y-128960740D01*
X140882624Y-128749796D01*
X140490204Y-128357376D01*
X139977483Y-128145000D01*
X139422517Y-128145000D01*
X138909796Y-128357376D01*
X138517376Y-128749796D01*
X138430000Y-128960740D01*
X138342624Y-128749796D01*
X137950204Y-128357376D01*
X137437483Y-128145000D01*
X136882517Y-128145000D01*
X136369796Y-128357376D01*
X135977376Y-128749796D01*
X135765000Y-129262517D01*
X135765000Y-129817483D01*
X135977376Y-130330204D01*
X136369796Y-130722624D01*
X136580740Y-130810000D01*
X136369796Y-130897376D01*
X135977376Y-131289796D01*
X135890000Y-131500740D01*
X135802624Y-131289796D01*
X135410204Y-130897376D01*
X134897483Y-130685000D01*
X134342517Y-130685000D01*
X133829796Y-130897376D01*
X133437376Y-131289796D01*
X133350000Y-131500740D01*
X133262624Y-131289796D01*
X132870204Y-130897376D01*
X132659260Y-130810000D01*
X132870204Y-130722624D01*
X133262624Y-130330204D01*
X133475000Y-129817483D01*
X133475000Y-129262517D01*
X133262624Y-128749796D01*
X133149834Y-128637006D01*
X133770841Y-128016000D01*
X180239935Y-128016000D01*
X180340000Y-128035904D01*
X180440064Y-128016000D01*
X217069937Y-128016000D01*
X217170000Y-128035904D01*
X217270063Y-128016000D01*
X217270065Y-128016000D01*
X217566423Y-127957051D01*
X217902495Y-127732495D01*
X217959180Y-127647661D01*
X219087663Y-126519178D01*
X219172495Y-126462495D01*
X219397051Y-126126423D01*
X219456000Y-125830065D01*
X219475904Y-125730001D01*
X219456000Y-125629937D01*
X219456000Y-123324475D01*
X219487765Y-123318157D01*
X219697809Y-123177809D01*
X219838157Y-122967765D01*
X219887440Y-122720000D01*
X219887440Y-121120000D01*
X219838157Y-120872235D01*
X219697809Y-120662191D01*
X219487765Y-120521843D01*
X219240000Y-120472560D01*
X217640000Y-120472560D01*
X217392235Y-120521843D01*
X217182191Y-120662191D01*
X217041843Y-120872235D01*
X216992560Y-121120000D01*
X216992560Y-122720000D01*
X217041843Y-122967765D01*
X217182191Y-123177809D01*
X217392235Y-123318157D01*
X217424000Y-123324475D01*
X217424001Y-125309158D01*
X216749160Y-125984000D01*
X181356000Y-125984000D01*
X181356000Y-121642119D01*
X189103000Y-121642119D01*
X189103000Y-122197881D01*
X189315680Y-122711337D01*
X189708663Y-123104320D01*
X190222119Y-123317000D01*
X190777881Y-123317000D01*
X191291337Y-123104320D01*
X191684320Y-122711337D01*
X191770000Y-122504487D01*
X191855680Y-122711337D01*
X192248663Y-123104320D01*
X192762119Y-123317000D01*
X193317881Y-123317000D01*
X193831337Y-123104320D01*
X194224320Y-122711337D01*
X194437000Y-122197881D01*
X194437000Y-121642119D01*
X194224320Y-121128663D01*
X193831337Y-120735680D01*
X193317881Y-120523000D01*
X192762119Y-120523000D01*
X192248663Y-120735680D01*
X191855680Y-121128663D01*
X191770000Y-121335513D01*
X191684320Y-121128663D01*
X191291337Y-120735680D01*
X190777881Y-120523000D01*
X190222119Y-120523000D01*
X189708663Y-120735680D01*
X189315680Y-121128663D01*
X189103000Y-121642119D01*
X181356000Y-121642119D01*
X181356000Y-117799657D01*
X181524320Y-117631337D01*
X181737000Y-117117881D01*
X181737000Y-116562119D01*
X181524320Y-116048663D01*
X181131337Y-115655680D01*
X180617881Y-115443000D01*
X180062119Y-115443000D01*
X179548663Y-115655680D01*
X179155680Y-116048663D01*
X178943000Y-116562119D01*
X178943000Y-117117881D01*
X179155680Y-117631337D01*
X179324000Y-117799657D01*
X179324000Y-118210064D01*
X179324001Y-118210069D01*
X179324000Y-125984000D01*
X133450063Y-125984000D01*
X133349999Y-125964096D01*
X133249935Y-125984000D01*
X132953577Y-126042949D01*
X132953576Y-126042950D01*
X132953575Y-126042950D01*
X132859375Y-126105893D01*
X132617505Y-126267505D01*
X132560822Y-126352337D01*
X131495000Y-127418160D01*
X131495000Y-117120000D01*
X133948799Y-117120000D01*
X133985000Y-117301995D01*
X133985000Y-117751547D01*
X134157036Y-118166878D01*
X134195216Y-118358823D01*
X134303944Y-118521546D01*
X134468365Y-118918493D01*
X134772174Y-119222302D01*
X134896953Y-119409047D01*
X135083698Y-119533826D01*
X135361507Y-119811635D01*
X135724483Y-119961985D01*
X135947177Y-120110784D01*
X136209862Y-120163035D01*
X136528453Y-120295000D01*
X166945683Y-120295000D01*
X167008453Y-120321000D01*
X168271547Y-120321000D01*
X168686878Y-120148964D01*
X168878823Y-120110784D01*
X169041546Y-120002056D01*
X169438493Y-119837635D01*
X169742302Y-119533826D01*
X169929047Y-119409047D01*
X170053826Y-119222302D01*
X170331635Y-118944493D01*
X170481985Y-118581517D01*
X170630784Y-118358823D01*
X170683035Y-118096138D01*
X170815000Y-117777547D01*
X170815000Y-117432706D01*
X170877201Y-117120000D01*
X170815000Y-116807294D01*
X170815000Y-116562119D01*
X173863000Y-116562119D01*
X173863000Y-117117881D01*
X174075680Y-117631337D01*
X174468663Y-118024320D01*
X174982119Y-118237000D01*
X175537881Y-118237000D01*
X176051337Y-118024320D01*
X176444320Y-117631337D01*
X176657000Y-117117881D01*
X176657000Y-116562119D01*
X176444320Y-116048663D01*
X176051337Y-115655680D01*
X175537881Y-115443000D01*
X174982119Y-115443000D01*
X174468663Y-115655680D01*
X174075680Y-116048663D01*
X173863000Y-116562119D01*
X170815000Y-116562119D01*
X170815000Y-116514453D01*
X170702935Y-116243904D01*
X170630784Y-115881177D01*
X170425315Y-115573671D01*
X170331635Y-115347507D01*
X170158537Y-115174409D01*
X169929047Y-114830953D01*
X169585591Y-114601463D01*
X169438493Y-114454365D01*
X169246299Y-114374756D01*
X168878823Y-114129216D01*
X168445356Y-114042994D01*
X168271547Y-113971000D01*
X168083417Y-113971000D01*
X167952706Y-113945000D01*
X136528453Y-113945000D01*
X136209862Y-114076965D01*
X135947177Y-114129216D01*
X135724483Y-114278015D01*
X135361507Y-114428365D01*
X135083698Y-114706174D01*
X134896953Y-114830953D01*
X134772174Y-115017698D01*
X134468365Y-115321507D01*
X134303944Y-115718454D01*
X134195216Y-115881177D01*
X134157036Y-116073122D01*
X133985000Y-116488453D01*
X133985000Y-116938005D01*
X133948799Y-117120000D01*
X131495000Y-117120000D01*
X131495000Y-109220000D01*
X133948799Y-109220000D01*
X133985000Y-109401995D01*
X133985000Y-109851547D01*
X134157036Y-110266878D01*
X134195216Y-110458823D01*
X134303944Y-110621546D01*
X134468365Y-111018493D01*
X134772174Y-111322302D01*
X134896953Y-111509047D01*
X135083698Y-111633826D01*
X135361507Y-111911635D01*
X135724483Y-112061985D01*
X135947177Y-112210784D01*
X136209862Y-112263035D01*
X136528453Y-112395000D01*
X166945683Y-112395000D01*
X167008453Y-112421000D01*
X168271547Y-112421000D01*
X168686878Y-112248964D01*
X168878823Y-112210784D01*
X169041546Y-112102056D01*
X169438493Y-111937635D01*
X169742302Y-111633826D01*
X169929047Y-111509047D01*
X170053826Y-111322302D01*
X170331635Y-111044493D01*
X170481985Y-110681517D01*
X170630784Y-110458823D01*
X170683035Y-110196138D01*
X170815000Y-109877547D01*
X170815000Y-109532706D01*
X170877201Y-109220000D01*
X170815000Y-108907294D01*
X170815000Y-108614453D01*
X170702935Y-108343904D01*
X170630784Y-107981177D01*
X170425315Y-107673671D01*
X170331635Y-107447507D01*
X170158537Y-107274409D01*
X169929047Y-106930953D01*
X169585591Y-106701463D01*
X169438493Y-106554365D01*
X169246299Y-106474756D01*
X168878823Y-106229216D01*
X168445356Y-106142994D01*
X168271547Y-106071000D01*
X168083417Y-106071000D01*
X167952706Y-106045000D01*
X136528453Y-106045000D01*
X136209862Y-106176965D01*
X135947177Y-106229216D01*
X135724483Y-106378015D01*
X135361507Y-106528365D01*
X135083698Y-106806174D01*
X134896953Y-106930953D01*
X134772174Y-107117698D01*
X134468365Y-107421507D01*
X134303944Y-107818454D01*
X134195216Y-107981177D01*
X134157036Y-108173122D01*
X133985000Y-108588453D01*
X133985000Y-109038005D01*
X133948799Y-109220000D01*
X131495000Y-109220000D01*
X131495000Y-90167622D01*
X131802517Y-90295000D01*
X132357483Y-90295000D01*
X132870204Y-90082624D01*
X133262624Y-89690204D01*
X133350000Y-89479260D01*
X133437376Y-89690204D01*
X133829796Y-90082624D01*
X134342517Y-90295000D01*
X134897483Y-90295000D01*
X135410204Y-90082624D01*
X135802624Y-89690204D01*
X135890000Y-89479260D01*
X135977376Y-89690204D01*
X136369796Y-90082624D01*
X136882517Y-90295000D01*
X137437483Y-90295000D01*
X137950204Y-90082624D01*
X138342624Y-89690204D01*
X138430000Y-89479260D01*
X138517376Y-89690204D01*
X138909796Y-90082624D01*
X139422517Y-90295000D01*
X139977483Y-90295000D01*
X140490204Y-90082624D01*
X140882624Y-89690204D01*
X140970000Y-89479260D01*
X141057376Y-89690204D01*
X141449796Y-90082624D01*
X141962517Y-90295000D01*
X142517483Y-90295000D01*
X143030204Y-90082624D01*
X143422624Y-89690204D01*
X143510000Y-89479260D01*
X143597376Y-89690204D01*
X143989796Y-90082624D01*
X144502517Y-90295000D01*
X145057483Y-90295000D01*
X145570204Y-90082624D01*
X145962624Y-89690204D01*
X146050000Y-89479260D01*
X146137376Y-89690204D01*
X146529796Y-90082624D01*
X147042517Y-90295000D01*
X147597483Y-90295000D01*
X148110204Y-90082624D01*
X148502624Y-89690204D01*
X148590000Y-89479260D01*
X148677376Y-89690204D01*
X149069796Y-90082624D01*
X149582517Y-90295000D01*
X150137483Y-90295000D01*
X150650204Y-90082624D01*
X151042624Y-89690204D01*
X151130000Y-89479260D01*
X151217376Y-89690204D01*
X151609796Y-90082624D01*
X152122517Y-90295000D01*
X152677483Y-90295000D01*
X153190204Y-90082624D01*
X153582624Y-89690204D01*
X153670000Y-89479260D01*
X153757376Y-89690204D01*
X154149796Y-90082624D01*
X154662517Y-90295000D01*
X155217483Y-90295000D01*
X155730204Y-90082624D01*
X156122624Y-89690204D01*
X156335000Y-89177483D01*
X156335000Y-88622517D01*
X156122624Y-88109796D01*
X155730204Y-87717376D01*
X155519260Y-87630000D01*
X155730204Y-87542624D01*
X156122624Y-87150204D01*
X156335000Y-86637483D01*
X156335000Y-86082517D01*
X156122624Y-85569796D01*
X155730204Y-85177376D01*
X155217483Y-84965000D01*
X154662517Y-84965000D01*
X154149796Y-85177376D01*
X153757376Y-85569796D01*
X153670000Y-85780740D01*
X153582624Y-85569796D01*
X153190204Y-85177376D01*
X152677483Y-84965000D01*
X152122517Y-84965000D01*
X151609796Y-85177376D01*
X151217376Y-85569796D01*
X151130000Y-85780740D01*
X151042624Y-85569796D01*
X150650204Y-85177376D01*
X150137483Y-84965000D01*
X149582517Y-84965000D01*
X149069796Y-85177376D01*
X148677376Y-85569796D01*
X148590000Y-85780740D01*
X148502624Y-85569796D01*
X148110204Y-85177376D01*
X147597483Y-84965000D01*
X147042517Y-84965000D01*
X146529796Y-85177376D01*
X146137376Y-85569796D01*
X146050000Y-85780740D01*
X145962624Y-85569796D01*
X145570204Y-85177376D01*
X145057483Y-84965000D01*
X144502517Y-84965000D01*
X143989796Y-85177376D01*
X143597376Y-85569796D01*
X143510000Y-85780740D01*
X143422624Y-85569796D01*
X143030204Y-85177376D01*
X142517483Y-84965000D01*
X141962517Y-84965000D01*
X141449796Y-85177376D01*
X141057376Y-85569796D01*
X140970000Y-85780740D01*
X140882624Y-85569796D01*
X140490204Y-85177376D01*
X139977483Y-84965000D01*
X139422517Y-84965000D01*
X138909796Y-85177376D01*
X138517376Y-85569796D01*
X138430000Y-85780740D01*
X138342624Y-85569796D01*
X137950204Y-85177376D01*
X137437483Y-84965000D01*
X136882517Y-84965000D01*
X136369796Y-85177376D01*
X135977376Y-85569796D01*
X135890000Y-85780740D01*
X135802624Y-85569796D01*
X135410204Y-85177376D01*
X134897483Y-84965000D01*
X134342517Y-84965000D01*
X133829796Y-85177376D01*
X133437376Y-85569796D01*
X133225000Y-86082517D01*
X133225000Y-86637483D01*
X133437376Y-87150204D01*
X133829796Y-87542624D01*
X134040740Y-87630000D01*
X133829796Y-87717376D01*
X133437376Y-88109796D01*
X133350000Y-88320740D01*
X133262624Y-88109796D01*
X132870204Y-87717376D01*
X132357483Y-87505000D01*
X131802517Y-87505000D01*
X131495000Y-87632378D01*
X131495000Y-85900803D01*
X131555851Y-85475903D01*
X131713105Y-85130041D01*
X131961110Y-84842216D01*
X132279929Y-84635568D01*
X132666626Y-84519921D01*
X132867413Y-84505000D01*
X170053000Y-84505000D01*
X170053000Y-101600000D01*
G04 #@! TD*
M02*
