G04 #@! TF.GenerationSoftware,KiCad,Pcbnew,(5.0.2)-1*
G04 #@! TF.CreationDate,2019-04-17T18:14:32-05:00*
G04 #@! TF.ProjectId,ArmDriveBoard_Hardware,41726d44-7269-4766-9542-6f6172645f48,rev?*
G04 #@! TF.SameCoordinates,Original*
G04 #@! TF.FileFunction,Soldermask,Top*
G04 #@! TF.FilePolarity,Negative*
%FSLAX46Y46*%
G04 Gerber Fmt 4.6, Leading zero omitted, Abs format (unit mm)*
G04 Created by KiCad (PCBNEW (5.0.2)-1) date 4/17/2019 6:14:32 PM*
%MOMM*%
%LPD*%
G01*
G04 APERTURE LIST*
%ADD10C,0.100000*%
G04 APERTURE END LIST*
D10*
G36*
X152621683Y-131349206D02*
X152759992Y-131406495D01*
X152884476Y-131489673D01*
X152990327Y-131595524D01*
X153073505Y-131720008D01*
X153130794Y-131858317D01*
X153160000Y-132005145D01*
X153160000Y-132154855D01*
X153130794Y-132301683D01*
X153073505Y-132439992D01*
X152990327Y-132564476D01*
X152884476Y-132670327D01*
X152759992Y-132753505D01*
X152621683Y-132810794D01*
X152474855Y-132840000D01*
X152325145Y-132840000D01*
X152178317Y-132810794D01*
X152040008Y-132753505D01*
X151915524Y-132670327D01*
X151809673Y-132564476D01*
X151726495Y-132439992D01*
X151669206Y-132301683D01*
X151640000Y-132154855D01*
X151640000Y-132005145D01*
X151669206Y-131858317D01*
X151726495Y-131720008D01*
X151809673Y-131595524D01*
X151915524Y-131489673D01*
X152040008Y-131406495D01*
X152178317Y-131349206D01*
X152325145Y-131320000D01*
X152474855Y-131320000D01*
X152621683Y-131349206D01*
X152621683Y-131349206D01*
G37*
G36*
X213581683Y-131349206D02*
X213719992Y-131406495D01*
X213844476Y-131489673D01*
X213950327Y-131595524D01*
X214033505Y-131720008D01*
X214090794Y-131858317D01*
X214120000Y-132005145D01*
X214120000Y-132154855D01*
X214090794Y-132301683D01*
X214033505Y-132439992D01*
X213950327Y-132564476D01*
X213844476Y-132670327D01*
X213719992Y-132753505D01*
X213581683Y-132810794D01*
X213434855Y-132840000D01*
X213285145Y-132840000D01*
X213138317Y-132810794D01*
X213000008Y-132753505D01*
X212875524Y-132670327D01*
X212769673Y-132564476D01*
X212686495Y-132439992D01*
X212629206Y-132301683D01*
X212600000Y-132154855D01*
X212600000Y-132005145D01*
X212629206Y-131858317D01*
X212686495Y-131720008D01*
X212769673Y-131595524D01*
X212875524Y-131489673D01*
X213000008Y-131406495D01*
X213138317Y-131349206D01*
X213285145Y-131320000D01*
X213434855Y-131320000D01*
X213581683Y-131349206D01*
X213581683Y-131349206D01*
G37*
G36*
X195801683Y-131349206D02*
X195939992Y-131406495D01*
X196064476Y-131489673D01*
X196170327Y-131595524D01*
X196253505Y-131720008D01*
X196310794Y-131858317D01*
X196340000Y-132005145D01*
X196340000Y-132154855D01*
X196310794Y-132301683D01*
X196253505Y-132439992D01*
X196170327Y-132564476D01*
X196064476Y-132670327D01*
X195939992Y-132753505D01*
X195801683Y-132810794D01*
X195654855Y-132840000D01*
X195505145Y-132840000D01*
X195358317Y-132810794D01*
X195220008Y-132753505D01*
X195095524Y-132670327D01*
X194989673Y-132564476D01*
X194906495Y-132439992D01*
X194849206Y-132301683D01*
X194820000Y-132154855D01*
X194820000Y-132005145D01*
X194849206Y-131858317D01*
X194906495Y-131720008D01*
X194989673Y-131595524D01*
X195095524Y-131489673D01*
X195220008Y-131406495D01*
X195358317Y-131349206D01*
X195505145Y-131320000D01*
X195654855Y-131320000D01*
X195801683Y-131349206D01*
X195801683Y-131349206D01*
G37*
G36*
X211041683Y-131349206D02*
X211179992Y-131406495D01*
X211304476Y-131489673D01*
X211410327Y-131595524D01*
X211493505Y-131720008D01*
X211550794Y-131858317D01*
X211580000Y-132005145D01*
X211580000Y-132154855D01*
X211550794Y-132301683D01*
X211493505Y-132439992D01*
X211410327Y-132564476D01*
X211304476Y-132670327D01*
X211179992Y-132753505D01*
X211041683Y-132810794D01*
X210894855Y-132840000D01*
X210745145Y-132840000D01*
X210598317Y-132810794D01*
X210460008Y-132753505D01*
X210335524Y-132670327D01*
X210229673Y-132564476D01*
X210146495Y-132439992D01*
X210089206Y-132301683D01*
X210060000Y-132154855D01*
X210060000Y-132005145D01*
X210089206Y-131858317D01*
X210146495Y-131720008D01*
X210229673Y-131595524D01*
X210335524Y-131489673D01*
X210460008Y-131406495D01*
X210598317Y-131349206D01*
X210745145Y-131320000D01*
X210894855Y-131320000D01*
X211041683Y-131349206D01*
X211041683Y-131349206D01*
G37*
G36*
X216121683Y-131349206D02*
X216259992Y-131406495D01*
X216384476Y-131489673D01*
X216490327Y-131595524D01*
X216573505Y-131720008D01*
X216630794Y-131858317D01*
X216660000Y-132005145D01*
X216660000Y-132154855D01*
X216630794Y-132301683D01*
X216573505Y-132439992D01*
X216490327Y-132564476D01*
X216384476Y-132670327D01*
X216259992Y-132753505D01*
X216121683Y-132810794D01*
X215974855Y-132840000D01*
X215825145Y-132840000D01*
X215678317Y-132810794D01*
X215540008Y-132753505D01*
X215415524Y-132670327D01*
X215309673Y-132564476D01*
X215226495Y-132439992D01*
X215169206Y-132301683D01*
X215140000Y-132154855D01*
X215140000Y-132005145D01*
X215169206Y-131858317D01*
X215226495Y-131720008D01*
X215309673Y-131595524D01*
X215415524Y-131489673D01*
X215540008Y-131406495D01*
X215678317Y-131349206D01*
X215825145Y-131320000D01*
X215974855Y-131320000D01*
X216121683Y-131349206D01*
X216121683Y-131349206D01*
G37*
G36*
X198341683Y-131349206D02*
X198479992Y-131406495D01*
X198604476Y-131489673D01*
X198710327Y-131595524D01*
X198793505Y-131720008D01*
X198850794Y-131858317D01*
X198880000Y-132005145D01*
X198880000Y-132154855D01*
X198850794Y-132301683D01*
X198793505Y-132439992D01*
X198710327Y-132564476D01*
X198604476Y-132670327D01*
X198479992Y-132753505D01*
X198341683Y-132810794D01*
X198194855Y-132840000D01*
X198045145Y-132840000D01*
X197898317Y-132810794D01*
X197760008Y-132753505D01*
X197635524Y-132670327D01*
X197529673Y-132564476D01*
X197446495Y-132439992D01*
X197389206Y-132301683D01*
X197360000Y-132154855D01*
X197360000Y-132005145D01*
X197389206Y-131858317D01*
X197446495Y-131720008D01*
X197529673Y-131595524D01*
X197635524Y-131489673D01*
X197760008Y-131406495D01*
X197898317Y-131349206D01*
X198045145Y-131320000D01*
X198194855Y-131320000D01*
X198341683Y-131349206D01*
X198341683Y-131349206D01*
G37*
G36*
X200881683Y-131349206D02*
X201019992Y-131406495D01*
X201144476Y-131489673D01*
X201250327Y-131595524D01*
X201333505Y-131720008D01*
X201390794Y-131858317D01*
X201420000Y-132005145D01*
X201420000Y-132154855D01*
X201390794Y-132301683D01*
X201333505Y-132439992D01*
X201250327Y-132564476D01*
X201144476Y-132670327D01*
X201019992Y-132753505D01*
X200881683Y-132810794D01*
X200734855Y-132840000D01*
X200585145Y-132840000D01*
X200438317Y-132810794D01*
X200300008Y-132753505D01*
X200175524Y-132670327D01*
X200069673Y-132564476D01*
X199986495Y-132439992D01*
X199929206Y-132301683D01*
X199900000Y-132154855D01*
X199900000Y-132005145D01*
X199929206Y-131858317D01*
X199986495Y-131720008D01*
X200069673Y-131595524D01*
X200175524Y-131489673D01*
X200300008Y-131406495D01*
X200438317Y-131349206D01*
X200585145Y-131320000D01*
X200734855Y-131320000D01*
X200881683Y-131349206D01*
X200881683Y-131349206D01*
G37*
G36*
X203421683Y-131349206D02*
X203559992Y-131406495D01*
X203684476Y-131489673D01*
X203790327Y-131595524D01*
X203873505Y-131720008D01*
X203930794Y-131858317D01*
X203960000Y-132005145D01*
X203960000Y-132154855D01*
X203930794Y-132301683D01*
X203873505Y-132439992D01*
X203790327Y-132564476D01*
X203684476Y-132670327D01*
X203559992Y-132753505D01*
X203421683Y-132810794D01*
X203274855Y-132840000D01*
X203125145Y-132840000D01*
X202978317Y-132810794D01*
X202840008Y-132753505D01*
X202715524Y-132670327D01*
X202609673Y-132564476D01*
X202526495Y-132439992D01*
X202469206Y-132301683D01*
X202440000Y-132154855D01*
X202440000Y-132005145D01*
X202469206Y-131858317D01*
X202526495Y-131720008D01*
X202609673Y-131595524D01*
X202715524Y-131489673D01*
X202840008Y-131406495D01*
X202978317Y-131349206D01*
X203125145Y-131320000D01*
X203274855Y-131320000D01*
X203421683Y-131349206D01*
X203421683Y-131349206D01*
G37*
G36*
X205961683Y-131349206D02*
X206099992Y-131406495D01*
X206224476Y-131489673D01*
X206330327Y-131595524D01*
X206413505Y-131720008D01*
X206470794Y-131858317D01*
X206500000Y-132005145D01*
X206500000Y-132154855D01*
X206470794Y-132301683D01*
X206413505Y-132439992D01*
X206330327Y-132564476D01*
X206224476Y-132670327D01*
X206099992Y-132753505D01*
X205961683Y-132810794D01*
X205814855Y-132840000D01*
X205665145Y-132840000D01*
X205518317Y-132810794D01*
X205380008Y-132753505D01*
X205255524Y-132670327D01*
X205149673Y-132564476D01*
X205066495Y-132439992D01*
X205009206Y-132301683D01*
X204980000Y-132154855D01*
X204980000Y-132005145D01*
X205009206Y-131858317D01*
X205066495Y-131720008D01*
X205149673Y-131595524D01*
X205255524Y-131489673D01*
X205380008Y-131406495D01*
X205518317Y-131349206D01*
X205665145Y-131320000D01*
X205814855Y-131320000D01*
X205961683Y-131349206D01*
X205961683Y-131349206D01*
G37*
G36*
X208501683Y-131349206D02*
X208639992Y-131406495D01*
X208764476Y-131489673D01*
X208870327Y-131595524D01*
X208953505Y-131720008D01*
X209010794Y-131858317D01*
X209040000Y-132005145D01*
X209040000Y-132154855D01*
X209010794Y-132301683D01*
X208953505Y-132439992D01*
X208870327Y-132564476D01*
X208764476Y-132670327D01*
X208639992Y-132753505D01*
X208501683Y-132810794D01*
X208354855Y-132840000D01*
X208205145Y-132840000D01*
X208058317Y-132810794D01*
X207920008Y-132753505D01*
X207795524Y-132670327D01*
X207689673Y-132564476D01*
X207606495Y-132439992D01*
X207549206Y-132301683D01*
X207520000Y-132154855D01*
X207520000Y-132005145D01*
X207549206Y-131858317D01*
X207606495Y-131720008D01*
X207689673Y-131595524D01*
X207795524Y-131489673D01*
X207920008Y-131406495D01*
X208058317Y-131349206D01*
X208205145Y-131320000D01*
X208354855Y-131320000D01*
X208501683Y-131349206D01*
X208501683Y-131349206D01*
G37*
G36*
X155161683Y-131349206D02*
X155299992Y-131406495D01*
X155424476Y-131489673D01*
X155530327Y-131595524D01*
X155613505Y-131720008D01*
X155670794Y-131858317D01*
X155700000Y-132005145D01*
X155700000Y-132154855D01*
X155670794Y-132301683D01*
X155613505Y-132439992D01*
X155530327Y-132564476D01*
X155424476Y-132670327D01*
X155299992Y-132753505D01*
X155161683Y-132810794D01*
X155014855Y-132840000D01*
X154865145Y-132840000D01*
X154718317Y-132810794D01*
X154580008Y-132753505D01*
X154455524Y-132670327D01*
X154349673Y-132564476D01*
X154266495Y-132439992D01*
X154209206Y-132301683D01*
X154180000Y-132154855D01*
X154180000Y-132005145D01*
X154209206Y-131858317D01*
X154266495Y-131720008D01*
X154349673Y-131595524D01*
X154455524Y-131489673D01*
X154580008Y-131406495D01*
X154718317Y-131349206D01*
X154865145Y-131320000D01*
X155014855Y-131320000D01*
X155161683Y-131349206D01*
X155161683Y-131349206D01*
G37*
G36*
X132301683Y-131349206D02*
X132439992Y-131406495D01*
X132564476Y-131489673D01*
X132670327Y-131595524D01*
X132753505Y-131720008D01*
X132810794Y-131858317D01*
X132840000Y-132005145D01*
X132840000Y-132154855D01*
X132810794Y-132301683D01*
X132753505Y-132439992D01*
X132670327Y-132564476D01*
X132564476Y-132670327D01*
X132439992Y-132753505D01*
X132301683Y-132810794D01*
X132154855Y-132840000D01*
X132005145Y-132840000D01*
X131858317Y-132810794D01*
X131720008Y-132753505D01*
X131595524Y-132670327D01*
X131489673Y-132564476D01*
X131406495Y-132439992D01*
X131349206Y-132301683D01*
X131320000Y-132154855D01*
X131320000Y-132005145D01*
X131349206Y-131858317D01*
X131406495Y-131720008D01*
X131489673Y-131595524D01*
X131595524Y-131489673D01*
X131720008Y-131406495D01*
X131858317Y-131349206D01*
X132005145Y-131320000D01*
X132154855Y-131320000D01*
X132301683Y-131349206D01*
X132301683Y-131349206D01*
G37*
G36*
X218661683Y-131349206D02*
X218799992Y-131406495D01*
X218924476Y-131489673D01*
X219030327Y-131595524D01*
X219113505Y-131720008D01*
X219170794Y-131858317D01*
X219200000Y-132005145D01*
X219200000Y-132154855D01*
X219170794Y-132301683D01*
X219113505Y-132439992D01*
X219030327Y-132564476D01*
X218924476Y-132670327D01*
X218799992Y-132753505D01*
X218661683Y-132810794D01*
X218514855Y-132840000D01*
X218365145Y-132840000D01*
X218218317Y-132810794D01*
X218080008Y-132753505D01*
X217955524Y-132670327D01*
X217849673Y-132564476D01*
X217766495Y-132439992D01*
X217709206Y-132301683D01*
X217680000Y-132154855D01*
X217680000Y-132005145D01*
X217709206Y-131858317D01*
X217766495Y-131720008D01*
X217849673Y-131595524D01*
X217955524Y-131489673D01*
X218080008Y-131406495D01*
X218218317Y-131349206D01*
X218365145Y-131320000D01*
X218514855Y-131320000D01*
X218661683Y-131349206D01*
X218661683Y-131349206D01*
G37*
G36*
X150081683Y-131349206D02*
X150219992Y-131406495D01*
X150344476Y-131489673D01*
X150450327Y-131595524D01*
X150533505Y-131720008D01*
X150590794Y-131858317D01*
X150620000Y-132005145D01*
X150620000Y-132154855D01*
X150590794Y-132301683D01*
X150533505Y-132439992D01*
X150450327Y-132564476D01*
X150344476Y-132670327D01*
X150219992Y-132753505D01*
X150081683Y-132810794D01*
X149934855Y-132840000D01*
X149785145Y-132840000D01*
X149638317Y-132810794D01*
X149500008Y-132753505D01*
X149375524Y-132670327D01*
X149269673Y-132564476D01*
X149186495Y-132439992D01*
X149129206Y-132301683D01*
X149100000Y-132154855D01*
X149100000Y-132005145D01*
X149129206Y-131858317D01*
X149186495Y-131720008D01*
X149269673Y-131595524D01*
X149375524Y-131489673D01*
X149500008Y-131406495D01*
X149638317Y-131349206D01*
X149785145Y-131320000D01*
X149934855Y-131320000D01*
X150081683Y-131349206D01*
X150081683Y-131349206D01*
G37*
G36*
X147541683Y-131349206D02*
X147679992Y-131406495D01*
X147804476Y-131489673D01*
X147910327Y-131595524D01*
X147993505Y-131720008D01*
X148050794Y-131858317D01*
X148080000Y-132005145D01*
X148080000Y-132154855D01*
X148050794Y-132301683D01*
X147993505Y-132439992D01*
X147910327Y-132564476D01*
X147804476Y-132670327D01*
X147679992Y-132753505D01*
X147541683Y-132810794D01*
X147394855Y-132840000D01*
X147245145Y-132840000D01*
X147098317Y-132810794D01*
X146960008Y-132753505D01*
X146835524Y-132670327D01*
X146729673Y-132564476D01*
X146646495Y-132439992D01*
X146589206Y-132301683D01*
X146560000Y-132154855D01*
X146560000Y-132005145D01*
X146589206Y-131858317D01*
X146646495Y-131720008D01*
X146729673Y-131595524D01*
X146835524Y-131489673D01*
X146960008Y-131406495D01*
X147098317Y-131349206D01*
X147245145Y-131320000D01*
X147394855Y-131320000D01*
X147541683Y-131349206D01*
X147541683Y-131349206D01*
G37*
G36*
X145001683Y-131349206D02*
X145139992Y-131406495D01*
X145264476Y-131489673D01*
X145370327Y-131595524D01*
X145453505Y-131720008D01*
X145510794Y-131858317D01*
X145540000Y-132005145D01*
X145540000Y-132154855D01*
X145510794Y-132301683D01*
X145453505Y-132439992D01*
X145370327Y-132564476D01*
X145264476Y-132670327D01*
X145139992Y-132753505D01*
X145001683Y-132810794D01*
X144854855Y-132840000D01*
X144705145Y-132840000D01*
X144558317Y-132810794D01*
X144420008Y-132753505D01*
X144295524Y-132670327D01*
X144189673Y-132564476D01*
X144106495Y-132439992D01*
X144049206Y-132301683D01*
X144020000Y-132154855D01*
X144020000Y-132005145D01*
X144049206Y-131858317D01*
X144106495Y-131720008D01*
X144189673Y-131595524D01*
X144295524Y-131489673D01*
X144420008Y-131406495D01*
X144558317Y-131349206D01*
X144705145Y-131320000D01*
X144854855Y-131320000D01*
X145001683Y-131349206D01*
X145001683Y-131349206D01*
G37*
G36*
X142461683Y-131349206D02*
X142599992Y-131406495D01*
X142724476Y-131489673D01*
X142830327Y-131595524D01*
X142913505Y-131720008D01*
X142970794Y-131858317D01*
X143000000Y-132005145D01*
X143000000Y-132154855D01*
X142970794Y-132301683D01*
X142913505Y-132439992D01*
X142830327Y-132564476D01*
X142724476Y-132670327D01*
X142599992Y-132753505D01*
X142461683Y-132810794D01*
X142314855Y-132840000D01*
X142165145Y-132840000D01*
X142018317Y-132810794D01*
X141880008Y-132753505D01*
X141755524Y-132670327D01*
X141649673Y-132564476D01*
X141566495Y-132439992D01*
X141509206Y-132301683D01*
X141480000Y-132154855D01*
X141480000Y-132005145D01*
X141509206Y-131858317D01*
X141566495Y-131720008D01*
X141649673Y-131595524D01*
X141755524Y-131489673D01*
X141880008Y-131406495D01*
X142018317Y-131349206D01*
X142165145Y-131320000D01*
X142314855Y-131320000D01*
X142461683Y-131349206D01*
X142461683Y-131349206D01*
G37*
G36*
X139921683Y-131349206D02*
X140059992Y-131406495D01*
X140184476Y-131489673D01*
X140290327Y-131595524D01*
X140373505Y-131720008D01*
X140430794Y-131858317D01*
X140460000Y-132005145D01*
X140460000Y-132154855D01*
X140430794Y-132301683D01*
X140373505Y-132439992D01*
X140290327Y-132564476D01*
X140184476Y-132670327D01*
X140059992Y-132753505D01*
X139921683Y-132810794D01*
X139774855Y-132840000D01*
X139625145Y-132840000D01*
X139478317Y-132810794D01*
X139340008Y-132753505D01*
X139215524Y-132670327D01*
X139109673Y-132564476D01*
X139026495Y-132439992D01*
X138969206Y-132301683D01*
X138940000Y-132154855D01*
X138940000Y-132005145D01*
X138969206Y-131858317D01*
X139026495Y-131720008D01*
X139109673Y-131595524D01*
X139215524Y-131489673D01*
X139340008Y-131406495D01*
X139478317Y-131349206D01*
X139625145Y-131320000D01*
X139774855Y-131320000D01*
X139921683Y-131349206D01*
X139921683Y-131349206D01*
G37*
G36*
X137381683Y-131349206D02*
X137519992Y-131406495D01*
X137644476Y-131489673D01*
X137750327Y-131595524D01*
X137833505Y-131720008D01*
X137890794Y-131858317D01*
X137920000Y-132005145D01*
X137920000Y-132154855D01*
X137890794Y-132301683D01*
X137833505Y-132439992D01*
X137750327Y-132564476D01*
X137644476Y-132670327D01*
X137519992Y-132753505D01*
X137381683Y-132810794D01*
X137234855Y-132840000D01*
X137085145Y-132840000D01*
X136938317Y-132810794D01*
X136800008Y-132753505D01*
X136675524Y-132670327D01*
X136569673Y-132564476D01*
X136486495Y-132439992D01*
X136429206Y-132301683D01*
X136400000Y-132154855D01*
X136400000Y-132005145D01*
X136429206Y-131858317D01*
X136486495Y-131720008D01*
X136569673Y-131595524D01*
X136675524Y-131489673D01*
X136800008Y-131406495D01*
X136938317Y-131349206D01*
X137085145Y-131320000D01*
X137234855Y-131320000D01*
X137381683Y-131349206D01*
X137381683Y-131349206D01*
G37*
G36*
X134841683Y-131349206D02*
X134979992Y-131406495D01*
X135104476Y-131489673D01*
X135210327Y-131595524D01*
X135293505Y-131720008D01*
X135350794Y-131858317D01*
X135380000Y-132005145D01*
X135380000Y-132154855D01*
X135350794Y-132301683D01*
X135293505Y-132439992D01*
X135210327Y-132564476D01*
X135104476Y-132670327D01*
X134979992Y-132753505D01*
X134841683Y-132810794D01*
X134694855Y-132840000D01*
X134545145Y-132840000D01*
X134398317Y-132810794D01*
X134260008Y-132753505D01*
X134135524Y-132670327D01*
X134029673Y-132564476D01*
X133946495Y-132439992D01*
X133889206Y-132301683D01*
X133860000Y-132154855D01*
X133860000Y-132005145D01*
X133889206Y-131858317D01*
X133946495Y-131720008D01*
X134029673Y-131595524D01*
X134135524Y-131489673D01*
X134260008Y-131406495D01*
X134398317Y-131349206D01*
X134545145Y-131320000D01*
X134694855Y-131320000D01*
X134841683Y-131349206D01*
X134841683Y-131349206D01*
G37*
G36*
X198341683Y-128809206D02*
X198479992Y-128866495D01*
X198604476Y-128949673D01*
X198710327Y-129055524D01*
X198793505Y-129180008D01*
X198850794Y-129318317D01*
X198880000Y-129465145D01*
X198880000Y-129614855D01*
X198850794Y-129761683D01*
X198793505Y-129899992D01*
X198710327Y-130024476D01*
X198604476Y-130130327D01*
X198479992Y-130213505D01*
X198341683Y-130270794D01*
X198194855Y-130300000D01*
X198045145Y-130300000D01*
X197898317Y-130270794D01*
X197760008Y-130213505D01*
X197635524Y-130130327D01*
X197529673Y-130024476D01*
X197446495Y-129899992D01*
X197389206Y-129761683D01*
X197360000Y-129614855D01*
X197360000Y-129465145D01*
X197389206Y-129318317D01*
X197446495Y-129180008D01*
X197529673Y-129055524D01*
X197635524Y-128949673D01*
X197760008Y-128866495D01*
X197898317Y-128809206D01*
X198045145Y-128780000D01*
X198194855Y-128780000D01*
X198341683Y-128809206D01*
X198341683Y-128809206D01*
G37*
G36*
X142461683Y-128809206D02*
X142599992Y-128866495D01*
X142724476Y-128949673D01*
X142830327Y-129055524D01*
X142913505Y-129180008D01*
X142970794Y-129318317D01*
X143000000Y-129465145D01*
X143000000Y-129614855D01*
X142970794Y-129761683D01*
X142913505Y-129899992D01*
X142830327Y-130024476D01*
X142724476Y-130130327D01*
X142599992Y-130213505D01*
X142461683Y-130270794D01*
X142314855Y-130300000D01*
X142165145Y-130300000D01*
X142018317Y-130270794D01*
X141880008Y-130213505D01*
X141755524Y-130130327D01*
X141649673Y-130024476D01*
X141566495Y-129899992D01*
X141509206Y-129761683D01*
X141480000Y-129614855D01*
X141480000Y-129465145D01*
X141509206Y-129318317D01*
X141566495Y-129180008D01*
X141649673Y-129055524D01*
X141755524Y-128949673D01*
X141880008Y-128866495D01*
X142018317Y-128809206D01*
X142165145Y-128780000D01*
X142314855Y-128780000D01*
X142461683Y-128809206D01*
X142461683Y-128809206D01*
G37*
G36*
X147541683Y-128809206D02*
X147679992Y-128866495D01*
X147804476Y-128949673D01*
X147910327Y-129055524D01*
X147993505Y-129180008D01*
X148050794Y-129318317D01*
X148080000Y-129465145D01*
X148080000Y-129614855D01*
X148050794Y-129761683D01*
X147993505Y-129899992D01*
X147910327Y-130024476D01*
X147804476Y-130130327D01*
X147679992Y-130213505D01*
X147541683Y-130270794D01*
X147394855Y-130300000D01*
X147245145Y-130300000D01*
X147098317Y-130270794D01*
X146960008Y-130213505D01*
X146835524Y-130130327D01*
X146729673Y-130024476D01*
X146646495Y-129899992D01*
X146589206Y-129761683D01*
X146560000Y-129614855D01*
X146560000Y-129465145D01*
X146589206Y-129318317D01*
X146646495Y-129180008D01*
X146729673Y-129055524D01*
X146835524Y-128949673D01*
X146960008Y-128866495D01*
X147098317Y-128809206D01*
X147245145Y-128780000D01*
X147394855Y-128780000D01*
X147541683Y-128809206D01*
X147541683Y-128809206D01*
G37*
G36*
X150081683Y-128809206D02*
X150219992Y-128866495D01*
X150344476Y-128949673D01*
X150450327Y-129055524D01*
X150533505Y-129180008D01*
X150590794Y-129318317D01*
X150620000Y-129465145D01*
X150620000Y-129614855D01*
X150590794Y-129761683D01*
X150533505Y-129899992D01*
X150450327Y-130024476D01*
X150344476Y-130130327D01*
X150219992Y-130213505D01*
X150081683Y-130270794D01*
X149934855Y-130300000D01*
X149785145Y-130300000D01*
X149638317Y-130270794D01*
X149500008Y-130213505D01*
X149375524Y-130130327D01*
X149269673Y-130024476D01*
X149186495Y-129899992D01*
X149129206Y-129761683D01*
X149100000Y-129614855D01*
X149100000Y-129465145D01*
X149129206Y-129318317D01*
X149186495Y-129180008D01*
X149269673Y-129055524D01*
X149375524Y-128949673D01*
X149500008Y-128866495D01*
X149638317Y-128809206D01*
X149785145Y-128780000D01*
X149934855Y-128780000D01*
X150081683Y-128809206D01*
X150081683Y-128809206D01*
G37*
G36*
X155161683Y-128809206D02*
X155299992Y-128866495D01*
X155424476Y-128949673D01*
X155530327Y-129055524D01*
X155613505Y-129180008D01*
X155670794Y-129318317D01*
X155700000Y-129465145D01*
X155700000Y-129614855D01*
X155670794Y-129761683D01*
X155613505Y-129899992D01*
X155530327Y-130024476D01*
X155424476Y-130130327D01*
X155299992Y-130213505D01*
X155161683Y-130270794D01*
X155014855Y-130300000D01*
X154865145Y-130300000D01*
X154718317Y-130270794D01*
X154580008Y-130213505D01*
X154455524Y-130130327D01*
X154349673Y-130024476D01*
X154266495Y-129899992D01*
X154209206Y-129761683D01*
X154180000Y-129614855D01*
X154180000Y-129465145D01*
X154209206Y-129318317D01*
X154266495Y-129180008D01*
X154349673Y-129055524D01*
X154455524Y-128949673D01*
X154580008Y-128866495D01*
X154718317Y-128809206D01*
X154865145Y-128780000D01*
X155014855Y-128780000D01*
X155161683Y-128809206D01*
X155161683Y-128809206D01*
G37*
G36*
X145001683Y-128809206D02*
X145139992Y-128866495D01*
X145264476Y-128949673D01*
X145370327Y-129055524D01*
X145453505Y-129180008D01*
X145510794Y-129318317D01*
X145540000Y-129465145D01*
X145540000Y-129614855D01*
X145510794Y-129761683D01*
X145453505Y-129899992D01*
X145370327Y-130024476D01*
X145264476Y-130130327D01*
X145139992Y-130213505D01*
X145001683Y-130270794D01*
X144854855Y-130300000D01*
X144705145Y-130300000D01*
X144558317Y-130270794D01*
X144420008Y-130213505D01*
X144295524Y-130130327D01*
X144189673Y-130024476D01*
X144106495Y-129899992D01*
X144049206Y-129761683D01*
X144020000Y-129614855D01*
X144020000Y-129465145D01*
X144049206Y-129318317D01*
X144106495Y-129180008D01*
X144189673Y-129055524D01*
X144295524Y-128949673D01*
X144420008Y-128866495D01*
X144558317Y-128809206D01*
X144705145Y-128780000D01*
X144854855Y-128780000D01*
X145001683Y-128809206D01*
X145001683Y-128809206D01*
G37*
G36*
X218661683Y-128809206D02*
X218799992Y-128866495D01*
X218924476Y-128949673D01*
X219030327Y-129055524D01*
X219113505Y-129180008D01*
X219170794Y-129318317D01*
X219200000Y-129465145D01*
X219200000Y-129614855D01*
X219170794Y-129761683D01*
X219113505Y-129899992D01*
X219030327Y-130024476D01*
X218924476Y-130130327D01*
X218799992Y-130213505D01*
X218661683Y-130270794D01*
X218514855Y-130300000D01*
X218365145Y-130300000D01*
X218218317Y-130270794D01*
X218080008Y-130213505D01*
X217955524Y-130130327D01*
X217849673Y-130024476D01*
X217766495Y-129899992D01*
X217709206Y-129761683D01*
X217680000Y-129614855D01*
X217680000Y-129465145D01*
X217709206Y-129318317D01*
X217766495Y-129180008D01*
X217849673Y-129055524D01*
X217955524Y-128949673D01*
X218080008Y-128866495D01*
X218218317Y-128809206D01*
X218365145Y-128780000D01*
X218514855Y-128780000D01*
X218661683Y-128809206D01*
X218661683Y-128809206D01*
G37*
G36*
X213581683Y-128809206D02*
X213719992Y-128866495D01*
X213844476Y-128949673D01*
X213950327Y-129055524D01*
X214033505Y-129180008D01*
X214090794Y-129318317D01*
X214120000Y-129465145D01*
X214120000Y-129614855D01*
X214090794Y-129761683D01*
X214033505Y-129899992D01*
X213950327Y-130024476D01*
X213844476Y-130130327D01*
X213719992Y-130213505D01*
X213581683Y-130270794D01*
X213434855Y-130300000D01*
X213285145Y-130300000D01*
X213138317Y-130270794D01*
X213000008Y-130213505D01*
X212875524Y-130130327D01*
X212769673Y-130024476D01*
X212686495Y-129899992D01*
X212629206Y-129761683D01*
X212600000Y-129614855D01*
X212600000Y-129465145D01*
X212629206Y-129318317D01*
X212686495Y-129180008D01*
X212769673Y-129055524D01*
X212875524Y-128949673D01*
X213000008Y-128866495D01*
X213138317Y-128809206D01*
X213285145Y-128780000D01*
X213434855Y-128780000D01*
X213581683Y-128809206D01*
X213581683Y-128809206D01*
G37*
G36*
X203421683Y-128809206D02*
X203559992Y-128866495D01*
X203684476Y-128949673D01*
X203790327Y-129055524D01*
X203873505Y-129180008D01*
X203930794Y-129318317D01*
X203960000Y-129465145D01*
X203960000Y-129614855D01*
X203930794Y-129761683D01*
X203873505Y-129899992D01*
X203790327Y-130024476D01*
X203684476Y-130130327D01*
X203559992Y-130213505D01*
X203421683Y-130270794D01*
X203274855Y-130300000D01*
X203125145Y-130300000D01*
X202978317Y-130270794D01*
X202840008Y-130213505D01*
X202715524Y-130130327D01*
X202609673Y-130024476D01*
X202526495Y-129899992D01*
X202469206Y-129761683D01*
X202440000Y-129614855D01*
X202440000Y-129465145D01*
X202469206Y-129318317D01*
X202526495Y-129180008D01*
X202609673Y-129055524D01*
X202715524Y-128949673D01*
X202840008Y-128866495D01*
X202978317Y-128809206D01*
X203125145Y-128780000D01*
X203274855Y-128780000D01*
X203421683Y-128809206D01*
X203421683Y-128809206D01*
G37*
G36*
X200881683Y-128809206D02*
X201019992Y-128866495D01*
X201144476Y-128949673D01*
X201250327Y-129055524D01*
X201333505Y-129180008D01*
X201390794Y-129318317D01*
X201420000Y-129465145D01*
X201420000Y-129614855D01*
X201390794Y-129761683D01*
X201333505Y-129899992D01*
X201250327Y-130024476D01*
X201144476Y-130130327D01*
X201019992Y-130213505D01*
X200881683Y-130270794D01*
X200734855Y-130300000D01*
X200585145Y-130300000D01*
X200438317Y-130270794D01*
X200300008Y-130213505D01*
X200175524Y-130130327D01*
X200069673Y-130024476D01*
X199986495Y-129899992D01*
X199929206Y-129761683D01*
X199900000Y-129614855D01*
X199900000Y-129465145D01*
X199929206Y-129318317D01*
X199986495Y-129180008D01*
X200069673Y-129055524D01*
X200175524Y-128949673D01*
X200300008Y-128866495D01*
X200438317Y-128809206D01*
X200585145Y-128780000D01*
X200734855Y-128780000D01*
X200881683Y-128809206D01*
X200881683Y-128809206D01*
G37*
G36*
X195801683Y-128809206D02*
X195939992Y-128866495D01*
X196064476Y-128949673D01*
X196170327Y-129055524D01*
X196253505Y-129180008D01*
X196310794Y-129318317D01*
X196340000Y-129465145D01*
X196340000Y-129614855D01*
X196310794Y-129761683D01*
X196253505Y-129899992D01*
X196170327Y-130024476D01*
X196064476Y-130130327D01*
X195939992Y-130213505D01*
X195801683Y-130270794D01*
X195654855Y-130300000D01*
X195505145Y-130300000D01*
X195358317Y-130270794D01*
X195220008Y-130213505D01*
X195095524Y-130130327D01*
X194989673Y-130024476D01*
X194906495Y-129899992D01*
X194849206Y-129761683D01*
X194820000Y-129614855D01*
X194820000Y-129465145D01*
X194849206Y-129318317D01*
X194906495Y-129180008D01*
X194989673Y-129055524D01*
X195095524Y-128949673D01*
X195220008Y-128866495D01*
X195358317Y-128809206D01*
X195505145Y-128780000D01*
X195654855Y-128780000D01*
X195801683Y-128809206D01*
X195801683Y-128809206D01*
G37*
G36*
X208501683Y-128809206D02*
X208639992Y-128866495D01*
X208764476Y-128949673D01*
X208870327Y-129055524D01*
X208953505Y-129180008D01*
X209010794Y-129318317D01*
X209040000Y-129465145D01*
X209040000Y-129614855D01*
X209010794Y-129761683D01*
X208953505Y-129899992D01*
X208870327Y-130024476D01*
X208764476Y-130130327D01*
X208639992Y-130213505D01*
X208501683Y-130270794D01*
X208354855Y-130300000D01*
X208205145Y-130300000D01*
X208058317Y-130270794D01*
X207920008Y-130213505D01*
X207795524Y-130130327D01*
X207689673Y-130024476D01*
X207606495Y-129899992D01*
X207549206Y-129761683D01*
X207520000Y-129614855D01*
X207520000Y-129465145D01*
X207549206Y-129318317D01*
X207606495Y-129180008D01*
X207689673Y-129055524D01*
X207795524Y-128949673D01*
X207920008Y-128866495D01*
X208058317Y-128809206D01*
X208205145Y-128780000D01*
X208354855Y-128780000D01*
X208501683Y-128809206D01*
X208501683Y-128809206D01*
G37*
G36*
X211041683Y-128809206D02*
X211179992Y-128866495D01*
X211304476Y-128949673D01*
X211410327Y-129055524D01*
X211493505Y-129180008D01*
X211550794Y-129318317D01*
X211580000Y-129465145D01*
X211580000Y-129614855D01*
X211550794Y-129761683D01*
X211493505Y-129899992D01*
X211410327Y-130024476D01*
X211304476Y-130130327D01*
X211179992Y-130213505D01*
X211041683Y-130270794D01*
X210894855Y-130300000D01*
X210745145Y-130300000D01*
X210598317Y-130270794D01*
X210460008Y-130213505D01*
X210335524Y-130130327D01*
X210229673Y-130024476D01*
X210146495Y-129899992D01*
X210089206Y-129761683D01*
X210060000Y-129614855D01*
X210060000Y-129465145D01*
X210089206Y-129318317D01*
X210146495Y-129180008D01*
X210229673Y-129055524D01*
X210335524Y-128949673D01*
X210460008Y-128866495D01*
X210598317Y-128809206D01*
X210745145Y-128780000D01*
X210894855Y-128780000D01*
X211041683Y-128809206D01*
X211041683Y-128809206D01*
G37*
G36*
X216121683Y-128809206D02*
X216259992Y-128866495D01*
X216384476Y-128949673D01*
X216490327Y-129055524D01*
X216573505Y-129180008D01*
X216630794Y-129318317D01*
X216660000Y-129465145D01*
X216660000Y-129614855D01*
X216630794Y-129761683D01*
X216573505Y-129899992D01*
X216490327Y-130024476D01*
X216384476Y-130130327D01*
X216259992Y-130213505D01*
X216121683Y-130270794D01*
X215974855Y-130300000D01*
X215825145Y-130300000D01*
X215678317Y-130270794D01*
X215540008Y-130213505D01*
X215415524Y-130130327D01*
X215309673Y-130024476D01*
X215226495Y-129899992D01*
X215169206Y-129761683D01*
X215140000Y-129614855D01*
X215140000Y-129465145D01*
X215169206Y-129318317D01*
X215226495Y-129180008D01*
X215309673Y-129055524D01*
X215415524Y-128949673D01*
X215540008Y-128866495D01*
X215678317Y-128809206D01*
X215825145Y-128780000D01*
X215974855Y-128780000D01*
X216121683Y-128809206D01*
X216121683Y-128809206D01*
G37*
G36*
X205961683Y-128809206D02*
X206099992Y-128866495D01*
X206224476Y-128949673D01*
X206330327Y-129055524D01*
X206413505Y-129180008D01*
X206470794Y-129318317D01*
X206500000Y-129465145D01*
X206500000Y-129614855D01*
X206470794Y-129761683D01*
X206413505Y-129899992D01*
X206330327Y-130024476D01*
X206224476Y-130130327D01*
X206099992Y-130213505D01*
X205961683Y-130270794D01*
X205814855Y-130300000D01*
X205665145Y-130300000D01*
X205518317Y-130270794D01*
X205380008Y-130213505D01*
X205255524Y-130130327D01*
X205149673Y-130024476D01*
X205066495Y-129899992D01*
X205009206Y-129761683D01*
X204980000Y-129614855D01*
X204980000Y-129465145D01*
X205009206Y-129318317D01*
X205066495Y-129180008D01*
X205149673Y-129055524D01*
X205255524Y-128949673D01*
X205380008Y-128866495D01*
X205518317Y-128809206D01*
X205665145Y-128780000D01*
X205814855Y-128780000D01*
X205961683Y-128809206D01*
X205961683Y-128809206D01*
G37*
G36*
X152621683Y-128809206D02*
X152759992Y-128866495D01*
X152884476Y-128949673D01*
X152990327Y-129055524D01*
X153073505Y-129180008D01*
X153130794Y-129318317D01*
X153160000Y-129465145D01*
X153160000Y-129614855D01*
X153130794Y-129761683D01*
X153073505Y-129899992D01*
X152990327Y-130024476D01*
X152884476Y-130130327D01*
X152759992Y-130213505D01*
X152621683Y-130270794D01*
X152474855Y-130300000D01*
X152325145Y-130300000D01*
X152178317Y-130270794D01*
X152040008Y-130213505D01*
X151915524Y-130130327D01*
X151809673Y-130024476D01*
X151726495Y-129899992D01*
X151669206Y-129761683D01*
X151640000Y-129614855D01*
X151640000Y-129465145D01*
X151669206Y-129318317D01*
X151726495Y-129180008D01*
X151809673Y-129055524D01*
X151915524Y-128949673D01*
X152040008Y-128866495D01*
X152178317Y-128809206D01*
X152325145Y-128780000D01*
X152474855Y-128780000D01*
X152621683Y-128809206D01*
X152621683Y-128809206D01*
G37*
G36*
X132301683Y-128809206D02*
X132439992Y-128866495D01*
X132564476Y-128949673D01*
X132670327Y-129055524D01*
X132753505Y-129180008D01*
X132810794Y-129318317D01*
X132840000Y-129465145D01*
X132840000Y-129614855D01*
X132810794Y-129761683D01*
X132753505Y-129899992D01*
X132670327Y-130024476D01*
X132564476Y-130130327D01*
X132439992Y-130213505D01*
X132301683Y-130270794D01*
X132154855Y-130300000D01*
X132005145Y-130300000D01*
X131858317Y-130270794D01*
X131720008Y-130213505D01*
X131595524Y-130130327D01*
X131489673Y-130024476D01*
X131406495Y-129899992D01*
X131349206Y-129761683D01*
X131320000Y-129614855D01*
X131320000Y-129465145D01*
X131349206Y-129318317D01*
X131406495Y-129180008D01*
X131489673Y-129055524D01*
X131595524Y-128949673D01*
X131720008Y-128866495D01*
X131858317Y-128809206D01*
X132005145Y-128780000D01*
X132154855Y-128780000D01*
X132301683Y-128809206D01*
X132301683Y-128809206D01*
G37*
G36*
X134841683Y-128809206D02*
X134979992Y-128866495D01*
X135104476Y-128949673D01*
X135210327Y-129055524D01*
X135293505Y-129180008D01*
X135350794Y-129318317D01*
X135380000Y-129465145D01*
X135380000Y-129614855D01*
X135350794Y-129761683D01*
X135293505Y-129899992D01*
X135210327Y-130024476D01*
X135104476Y-130130327D01*
X134979992Y-130213505D01*
X134841683Y-130270794D01*
X134694855Y-130300000D01*
X134545145Y-130300000D01*
X134398317Y-130270794D01*
X134260008Y-130213505D01*
X134135524Y-130130327D01*
X134029673Y-130024476D01*
X133946495Y-129899992D01*
X133889206Y-129761683D01*
X133860000Y-129614855D01*
X133860000Y-129465145D01*
X133889206Y-129318317D01*
X133946495Y-129180008D01*
X134029673Y-129055524D01*
X134135524Y-128949673D01*
X134260008Y-128866495D01*
X134398317Y-128809206D01*
X134545145Y-128780000D01*
X134694855Y-128780000D01*
X134841683Y-128809206D01*
X134841683Y-128809206D01*
G37*
G36*
X137381683Y-128809206D02*
X137519992Y-128866495D01*
X137644476Y-128949673D01*
X137750327Y-129055524D01*
X137833505Y-129180008D01*
X137890794Y-129318317D01*
X137920000Y-129465145D01*
X137920000Y-129614855D01*
X137890794Y-129761683D01*
X137833505Y-129899992D01*
X137750327Y-130024476D01*
X137644476Y-130130327D01*
X137519992Y-130213505D01*
X137381683Y-130270794D01*
X137234855Y-130300000D01*
X137085145Y-130300000D01*
X136938317Y-130270794D01*
X136800008Y-130213505D01*
X136675524Y-130130327D01*
X136569673Y-130024476D01*
X136486495Y-129899992D01*
X136429206Y-129761683D01*
X136400000Y-129614855D01*
X136400000Y-129465145D01*
X136429206Y-129318317D01*
X136486495Y-129180008D01*
X136569673Y-129055524D01*
X136675524Y-128949673D01*
X136800008Y-128866495D01*
X136938317Y-128809206D01*
X137085145Y-128780000D01*
X137234855Y-128780000D01*
X137381683Y-128809206D01*
X137381683Y-128809206D01*
G37*
G36*
X139921683Y-128809206D02*
X140059992Y-128866495D01*
X140184476Y-128949673D01*
X140290327Y-129055524D01*
X140373505Y-129180008D01*
X140430794Y-129318317D01*
X140460000Y-129465145D01*
X140460000Y-129614855D01*
X140430794Y-129761683D01*
X140373505Y-129899992D01*
X140290327Y-130024476D01*
X140184476Y-130130327D01*
X140059992Y-130213505D01*
X139921683Y-130270794D01*
X139774855Y-130300000D01*
X139625145Y-130300000D01*
X139478317Y-130270794D01*
X139340008Y-130213505D01*
X139215524Y-130130327D01*
X139109673Y-130024476D01*
X139026495Y-129899992D01*
X138969206Y-129761683D01*
X138940000Y-129614855D01*
X138940000Y-129465145D01*
X138969206Y-129318317D01*
X139026495Y-129180008D01*
X139109673Y-129055524D01*
X139215524Y-128949673D01*
X139340008Y-128866495D01*
X139478317Y-128809206D01*
X139625145Y-128780000D01*
X139774855Y-128780000D01*
X139921683Y-128809206D01*
X139921683Y-128809206D01*
G37*
G36*
X212773770Y-120935372D02*
X212889689Y-120958429D01*
X213071678Y-121033811D01*
X213235463Y-121143249D01*
X213374751Y-121282537D01*
X213484189Y-121446322D01*
X213559571Y-121628311D01*
X213598000Y-121821509D01*
X213598000Y-122018491D01*
X213559571Y-122211689D01*
X213484189Y-122393678D01*
X213374751Y-122557463D01*
X213235463Y-122696751D01*
X213071678Y-122806189D01*
X212889689Y-122881571D01*
X212773770Y-122904628D01*
X212696493Y-122920000D01*
X212499507Y-122920000D01*
X212422230Y-122904628D01*
X212306311Y-122881571D01*
X212124322Y-122806189D01*
X211960537Y-122696751D01*
X211821249Y-122557463D01*
X211711811Y-122393678D01*
X211636429Y-122211689D01*
X211598000Y-122018491D01*
X211598000Y-121821509D01*
X211636429Y-121628311D01*
X211711811Y-121446322D01*
X211821249Y-121282537D01*
X211960537Y-121143249D01*
X212124322Y-121033811D01*
X212306311Y-120958429D01*
X212422230Y-120935372D01*
X212499507Y-120920000D01*
X212696493Y-120920000D01*
X212773770Y-120935372D01*
X212773770Y-120935372D01*
G37*
G36*
X222173352Y-121150743D02*
X222318941Y-121211048D01*
X222449973Y-121298601D01*
X222561399Y-121410027D01*
X222648952Y-121541059D01*
X222709257Y-121686648D01*
X222740000Y-121841205D01*
X222740000Y-121998795D01*
X222709257Y-122153352D01*
X222648952Y-122298941D01*
X222561399Y-122429973D01*
X222449973Y-122541399D01*
X222318941Y-122628952D01*
X222173352Y-122689257D01*
X222018795Y-122720000D01*
X221861205Y-122720000D01*
X221706648Y-122689257D01*
X221561059Y-122628952D01*
X221430027Y-122541399D01*
X221318601Y-122429973D01*
X221231048Y-122298941D01*
X221170743Y-122153352D01*
X221140000Y-121998795D01*
X221140000Y-121841205D01*
X221170743Y-121686648D01*
X221231048Y-121541059D01*
X221318601Y-121410027D01*
X221430027Y-121298601D01*
X221561059Y-121211048D01*
X221706648Y-121150743D01*
X221861205Y-121120000D01*
X222018795Y-121120000D01*
X222173352Y-121150743D01*
X222173352Y-121150743D01*
G37*
G36*
X219240000Y-122720000D02*
X217640000Y-122720000D01*
X217640000Y-121120000D01*
X219240000Y-121120000D01*
X219240000Y-122720000D01*
X219240000Y-122720000D01*
G37*
G36*
X203373195Y-121177522D02*
X203422267Y-121187283D01*
X203479643Y-121211049D01*
X203560942Y-121244724D01*
X203685750Y-121328118D01*
X203791882Y-121434250D01*
X203791884Y-121434253D01*
X203875276Y-121559058D01*
X203928126Y-121686649D01*
X203932717Y-121697734D01*
X203962000Y-121844948D01*
X203962000Y-121995052D01*
X203957337Y-122018493D01*
X203932717Y-122142267D01*
X203928125Y-122153352D01*
X203875276Y-122280942D01*
X203791882Y-122405750D01*
X203685750Y-122511882D01*
X203685747Y-122511884D01*
X203560942Y-122595276D01*
X203422267Y-122652717D01*
X203373195Y-122662478D01*
X203275052Y-122682000D01*
X203124948Y-122682000D01*
X203026805Y-122662478D01*
X202977733Y-122652717D01*
X202839058Y-122595276D01*
X202714253Y-122511884D01*
X202714250Y-122511882D01*
X202608118Y-122405750D01*
X202524724Y-122280942D01*
X202471875Y-122153352D01*
X202467283Y-122142267D01*
X202442663Y-122018493D01*
X202438000Y-121995052D01*
X202438000Y-121844948D01*
X202467283Y-121697734D01*
X202471875Y-121686649D01*
X202524724Y-121559058D01*
X202608116Y-121434253D01*
X202608118Y-121434250D01*
X202714250Y-121328118D01*
X202839058Y-121244724D01*
X202920357Y-121211049D01*
X202977733Y-121187283D01*
X203026805Y-121177522D01*
X203124948Y-121158000D01*
X203275052Y-121158000D01*
X203373195Y-121177522D01*
X203373195Y-121177522D01*
G37*
G36*
X183053195Y-121177522D02*
X183102267Y-121187283D01*
X183159643Y-121211049D01*
X183240942Y-121244724D01*
X183365750Y-121328118D01*
X183471882Y-121434250D01*
X183471884Y-121434253D01*
X183555276Y-121559058D01*
X183608126Y-121686649D01*
X183612717Y-121697734D01*
X183642000Y-121844948D01*
X183642000Y-121995052D01*
X183637337Y-122018493D01*
X183612717Y-122142267D01*
X183608125Y-122153352D01*
X183555276Y-122280942D01*
X183471882Y-122405750D01*
X183365750Y-122511882D01*
X183365747Y-122511884D01*
X183240942Y-122595276D01*
X183102267Y-122652717D01*
X183053195Y-122662478D01*
X182955052Y-122682000D01*
X182804948Y-122682000D01*
X182706805Y-122662478D01*
X182657733Y-122652717D01*
X182519058Y-122595276D01*
X182394253Y-122511884D01*
X182394250Y-122511882D01*
X182288118Y-122405750D01*
X182204724Y-122280942D01*
X182151875Y-122153352D01*
X182147283Y-122142267D01*
X182122663Y-122018493D01*
X182118000Y-121995052D01*
X182118000Y-121844948D01*
X182147283Y-121697734D01*
X182151875Y-121686649D01*
X182204724Y-121559058D01*
X182288116Y-121434253D01*
X182288118Y-121434250D01*
X182394250Y-121328118D01*
X182519058Y-121244724D01*
X182600357Y-121211049D01*
X182657733Y-121187283D01*
X182706805Y-121177522D01*
X182804948Y-121158000D01*
X182955052Y-121158000D01*
X183053195Y-121177522D01*
X183053195Y-121177522D01*
G37*
G36*
X180513195Y-121177522D02*
X180562267Y-121187283D01*
X180619643Y-121211049D01*
X180700942Y-121244724D01*
X180825750Y-121328118D01*
X180931882Y-121434250D01*
X180931884Y-121434253D01*
X181015276Y-121559058D01*
X181068126Y-121686649D01*
X181072717Y-121697734D01*
X181102000Y-121844948D01*
X181102000Y-121995052D01*
X181097337Y-122018493D01*
X181072717Y-122142267D01*
X181068125Y-122153352D01*
X181015276Y-122280942D01*
X180931882Y-122405750D01*
X180825750Y-122511882D01*
X180825747Y-122511884D01*
X180700942Y-122595276D01*
X180562267Y-122652717D01*
X180513195Y-122662478D01*
X180415052Y-122682000D01*
X180264948Y-122682000D01*
X180166805Y-122662478D01*
X180117733Y-122652717D01*
X179979058Y-122595276D01*
X179854253Y-122511884D01*
X179854250Y-122511882D01*
X179748118Y-122405750D01*
X179664724Y-122280942D01*
X179611875Y-122153352D01*
X179607283Y-122142267D01*
X179582663Y-122018493D01*
X179578000Y-121995052D01*
X179578000Y-121844948D01*
X179607283Y-121697734D01*
X179611875Y-121686649D01*
X179664724Y-121559058D01*
X179748116Y-121434253D01*
X179748118Y-121434250D01*
X179854250Y-121328118D01*
X179979058Y-121244724D01*
X180060357Y-121211049D01*
X180117733Y-121187283D01*
X180166805Y-121177522D01*
X180264948Y-121158000D01*
X180415052Y-121158000D01*
X180513195Y-121177522D01*
X180513195Y-121177522D01*
G37*
G36*
X205913195Y-121177522D02*
X205962267Y-121187283D01*
X206019643Y-121211049D01*
X206100942Y-121244724D01*
X206225750Y-121328118D01*
X206331882Y-121434250D01*
X206331884Y-121434253D01*
X206415276Y-121559058D01*
X206468126Y-121686649D01*
X206472717Y-121697734D01*
X206502000Y-121844948D01*
X206502000Y-121995052D01*
X206497337Y-122018493D01*
X206472717Y-122142267D01*
X206468125Y-122153352D01*
X206415276Y-122280942D01*
X206331882Y-122405750D01*
X206225750Y-122511882D01*
X206225747Y-122511884D01*
X206100942Y-122595276D01*
X205962267Y-122652717D01*
X205913195Y-122662478D01*
X205815052Y-122682000D01*
X205664948Y-122682000D01*
X205566805Y-122662478D01*
X205517733Y-122652717D01*
X205379058Y-122595276D01*
X205254253Y-122511884D01*
X205254250Y-122511882D01*
X205148118Y-122405750D01*
X205064724Y-122280942D01*
X205011875Y-122153352D01*
X205007283Y-122142267D01*
X204982663Y-122018493D01*
X204978000Y-121995052D01*
X204978000Y-121844948D01*
X205007283Y-121697734D01*
X205011875Y-121686649D01*
X205064724Y-121559058D01*
X205148116Y-121434253D01*
X205148118Y-121434250D01*
X205254250Y-121328118D01*
X205379058Y-121244724D01*
X205460357Y-121211049D01*
X205517733Y-121187283D01*
X205566805Y-121177522D01*
X205664948Y-121158000D01*
X205815052Y-121158000D01*
X205913195Y-121177522D01*
X205913195Y-121177522D01*
G37*
G36*
X208453195Y-121177522D02*
X208502267Y-121187283D01*
X208559643Y-121211049D01*
X208640942Y-121244724D01*
X208765750Y-121328118D01*
X208871882Y-121434250D01*
X208871884Y-121434253D01*
X208955276Y-121559058D01*
X209008126Y-121686649D01*
X209012717Y-121697734D01*
X209042000Y-121844948D01*
X209042000Y-121995052D01*
X209037337Y-122018493D01*
X209012717Y-122142267D01*
X209008125Y-122153352D01*
X208955276Y-122280942D01*
X208871882Y-122405750D01*
X208765750Y-122511882D01*
X208765747Y-122511884D01*
X208640942Y-122595276D01*
X208502267Y-122652717D01*
X208453195Y-122662478D01*
X208355052Y-122682000D01*
X208204948Y-122682000D01*
X208106805Y-122662478D01*
X208057733Y-122652717D01*
X207919058Y-122595276D01*
X207794253Y-122511884D01*
X207794250Y-122511882D01*
X207688118Y-122405750D01*
X207604724Y-122280942D01*
X207551875Y-122153352D01*
X207547283Y-122142267D01*
X207522663Y-122018493D01*
X207518000Y-121995052D01*
X207518000Y-121844948D01*
X207547283Y-121697734D01*
X207551875Y-121686649D01*
X207604724Y-121559058D01*
X207688116Y-121434253D01*
X207688118Y-121434250D01*
X207794250Y-121328118D01*
X207919058Y-121244724D01*
X208000357Y-121211049D01*
X208057733Y-121187283D01*
X208106805Y-121177522D01*
X208204948Y-121158000D01*
X208355052Y-121158000D01*
X208453195Y-121177522D01*
X208453195Y-121177522D01*
G37*
G36*
X137900890Y-114677610D02*
X138363140Y-114869080D01*
X138779159Y-115147055D01*
X139132945Y-115500841D01*
X139410920Y-115916860D01*
X139602390Y-116379110D01*
X139700000Y-116869830D01*
X139700000Y-117370170D01*
X139602390Y-117860890D01*
X139410920Y-118323140D01*
X139132945Y-118739159D01*
X138779159Y-119092945D01*
X138363140Y-119370920D01*
X137900890Y-119562390D01*
X137410170Y-119660000D01*
X136909830Y-119660000D01*
X136419110Y-119562390D01*
X135956860Y-119370920D01*
X135540841Y-119092945D01*
X135187055Y-118739159D01*
X134909080Y-118323140D01*
X134717610Y-117860890D01*
X134620000Y-117370170D01*
X134620000Y-116869830D01*
X134717610Y-116379110D01*
X134909080Y-115916860D01*
X135187055Y-115500841D01*
X135540841Y-115147055D01*
X135956860Y-114869080D01*
X136419110Y-114677610D01*
X136909830Y-114580000D01*
X137410170Y-114580000D01*
X137900890Y-114677610D01*
X137900890Y-114677610D01*
G37*
G36*
X158220890Y-114677610D02*
X158683140Y-114869080D01*
X159099159Y-115147055D01*
X159452945Y-115500841D01*
X159730920Y-115916860D01*
X159922390Y-116379110D01*
X160020000Y-116869830D01*
X160020000Y-117370170D01*
X159922390Y-117860890D01*
X159730920Y-118323140D01*
X159452945Y-118739159D01*
X159099159Y-119092945D01*
X158683140Y-119370920D01*
X158220890Y-119562390D01*
X157730170Y-119660000D01*
X157229830Y-119660000D01*
X156739110Y-119562390D01*
X156276860Y-119370920D01*
X155860841Y-119092945D01*
X155507055Y-118739159D01*
X155229080Y-118323140D01*
X155037610Y-117860890D01*
X154940000Y-117370170D01*
X154940000Y-116869830D01*
X155037610Y-116379110D01*
X155229080Y-115916860D01*
X155507055Y-115500841D01*
X155860841Y-115147055D01*
X156276860Y-114869080D01*
X156739110Y-114677610D01*
X157229830Y-114580000D01*
X157730170Y-114580000D01*
X158220890Y-114677610D01*
X158220890Y-114677610D01*
G37*
G36*
X148060890Y-114677610D02*
X148523140Y-114869080D01*
X148939159Y-115147055D01*
X149292945Y-115500841D01*
X149570920Y-115916860D01*
X149762390Y-116379110D01*
X149860000Y-116869830D01*
X149860000Y-117370170D01*
X149762390Y-117860890D01*
X149570920Y-118323140D01*
X149292945Y-118739159D01*
X148939159Y-119092945D01*
X148523140Y-119370920D01*
X148060890Y-119562390D01*
X147570170Y-119660000D01*
X147069830Y-119660000D01*
X146579110Y-119562390D01*
X146116860Y-119370920D01*
X145700841Y-119092945D01*
X145347055Y-118739159D01*
X145069080Y-118323140D01*
X144877610Y-117860890D01*
X144780000Y-117370170D01*
X144780000Y-116869830D01*
X144877610Y-116379110D01*
X145069080Y-115916860D01*
X145347055Y-115500841D01*
X145700841Y-115147055D01*
X146116860Y-114869080D01*
X146579110Y-114677610D01*
X147069830Y-114580000D01*
X147570170Y-114580000D01*
X148060890Y-114677610D01*
X148060890Y-114677610D01*
G37*
G36*
X167813195Y-116097522D02*
X167862267Y-116107283D01*
X168000942Y-116164724D01*
X168125750Y-116248118D01*
X168231882Y-116354250D01*
X168315276Y-116479058D01*
X168372717Y-116617734D01*
X168402000Y-116764948D01*
X168402000Y-116915052D01*
X168372717Y-117062266D01*
X168315276Y-117200942D01*
X168231882Y-117325750D01*
X168125750Y-117431882D01*
X168125747Y-117431884D01*
X168000942Y-117515276D01*
X167862267Y-117572717D01*
X167813195Y-117582478D01*
X167715052Y-117602000D01*
X167564948Y-117602000D01*
X167466805Y-117582478D01*
X167417733Y-117572717D01*
X167279058Y-117515276D01*
X167154253Y-117431884D01*
X167154250Y-117431882D01*
X167048118Y-117325750D01*
X166964724Y-117200942D01*
X166907283Y-117062266D01*
X166878000Y-116915052D01*
X166878000Y-116764948D01*
X166907283Y-116617734D01*
X166964724Y-116479058D01*
X167048118Y-116354250D01*
X167154250Y-116248118D01*
X167279058Y-116164724D01*
X167417733Y-116107283D01*
X167466805Y-116097522D01*
X167564948Y-116078000D01*
X167715052Y-116078000D01*
X167813195Y-116097522D01*
X167813195Y-116097522D01*
G37*
G36*
X170353195Y-116097522D02*
X170402267Y-116107283D01*
X170540942Y-116164724D01*
X170665750Y-116248118D01*
X170771882Y-116354250D01*
X170855276Y-116479058D01*
X170912717Y-116617734D01*
X170942000Y-116764948D01*
X170942000Y-116915052D01*
X170912717Y-117062266D01*
X170855276Y-117200942D01*
X170771882Y-117325750D01*
X170665750Y-117431882D01*
X170665747Y-117431884D01*
X170540942Y-117515276D01*
X170402267Y-117572717D01*
X170353195Y-117582478D01*
X170255052Y-117602000D01*
X170104948Y-117602000D01*
X170006805Y-117582478D01*
X169957733Y-117572717D01*
X169819058Y-117515276D01*
X169694253Y-117431884D01*
X169694250Y-117431882D01*
X169588118Y-117325750D01*
X169504724Y-117200942D01*
X169447283Y-117062266D01*
X169418000Y-116915052D01*
X169418000Y-116764948D01*
X169447283Y-116617734D01*
X169504724Y-116479058D01*
X169588118Y-116354250D01*
X169694250Y-116248118D01*
X169819058Y-116164724D01*
X169957733Y-116107283D01*
X170006805Y-116097522D01*
X170104948Y-116078000D01*
X170255052Y-116078000D01*
X170353195Y-116097522D01*
X170353195Y-116097522D01*
G37*
G36*
X165273195Y-116097522D02*
X165322267Y-116107283D01*
X165460942Y-116164724D01*
X165585750Y-116248118D01*
X165691882Y-116354250D01*
X165775276Y-116479058D01*
X165832717Y-116617734D01*
X165862000Y-116764948D01*
X165862000Y-116915052D01*
X165832717Y-117062266D01*
X165775276Y-117200942D01*
X165691882Y-117325750D01*
X165585750Y-117431882D01*
X165585747Y-117431884D01*
X165460942Y-117515276D01*
X165322267Y-117572717D01*
X165273195Y-117582478D01*
X165175052Y-117602000D01*
X165024948Y-117602000D01*
X164926805Y-117582478D01*
X164877733Y-117572717D01*
X164739058Y-117515276D01*
X164614253Y-117431884D01*
X164614250Y-117431882D01*
X164508118Y-117325750D01*
X164424724Y-117200942D01*
X164367283Y-117062266D01*
X164338000Y-116915052D01*
X164338000Y-116764948D01*
X164367283Y-116617734D01*
X164424724Y-116479058D01*
X164508118Y-116354250D01*
X164614250Y-116248118D01*
X164739058Y-116164724D01*
X164877733Y-116107283D01*
X164926805Y-116097522D01*
X165024948Y-116078000D01*
X165175052Y-116078000D01*
X165273195Y-116097522D01*
X165273195Y-116097522D01*
G37*
G36*
X166754024Y-112558955D02*
X166786736Y-112568879D01*
X166816890Y-112584997D01*
X166843316Y-112606684D01*
X166865003Y-112633110D01*
X166881121Y-112663264D01*
X166891045Y-112695976D01*
X166895000Y-112736138D01*
X166895000Y-113323862D01*
X166891045Y-113364024D01*
X166881121Y-113396736D01*
X166865003Y-113426890D01*
X166843316Y-113453316D01*
X166816890Y-113475003D01*
X166786736Y-113491121D01*
X166754024Y-113501045D01*
X166713862Y-113505000D01*
X166026138Y-113505000D01*
X165985976Y-113501045D01*
X165953264Y-113491121D01*
X165923110Y-113475003D01*
X165896684Y-113453316D01*
X165874997Y-113426890D01*
X165858879Y-113396736D01*
X165848955Y-113364024D01*
X165845000Y-113323862D01*
X165845000Y-112736138D01*
X165848955Y-112695976D01*
X165858879Y-112663264D01*
X165874997Y-112633110D01*
X165896684Y-112606684D01*
X165923110Y-112584997D01*
X165953264Y-112568879D01*
X165985976Y-112558955D01*
X166026138Y-112555000D01*
X166713862Y-112555000D01*
X166754024Y-112558955D01*
X166754024Y-112558955D01*
G37*
G36*
X165004024Y-112558955D02*
X165036736Y-112568879D01*
X165066890Y-112584997D01*
X165093316Y-112606684D01*
X165115003Y-112633110D01*
X165131121Y-112663264D01*
X165141045Y-112695976D01*
X165145000Y-112736138D01*
X165145000Y-113323862D01*
X165141045Y-113364024D01*
X165131121Y-113396736D01*
X165115003Y-113426890D01*
X165093316Y-113453316D01*
X165066890Y-113475003D01*
X165036736Y-113491121D01*
X165004024Y-113501045D01*
X164963862Y-113505000D01*
X164276138Y-113505000D01*
X164235976Y-113501045D01*
X164203264Y-113491121D01*
X164173110Y-113475003D01*
X164146684Y-113453316D01*
X164124997Y-113426890D01*
X164108879Y-113396736D01*
X164098955Y-113364024D01*
X164095000Y-113323862D01*
X164095000Y-112736138D01*
X164098955Y-112695976D01*
X164108879Y-112663264D01*
X164124997Y-112633110D01*
X164146684Y-112606684D01*
X164173110Y-112584997D01*
X164203264Y-112568879D01*
X164235976Y-112558955D01*
X164276138Y-112555000D01*
X164963862Y-112555000D01*
X165004024Y-112558955D01*
X165004024Y-112558955D01*
G37*
G36*
X169294024Y-112558955D02*
X169326736Y-112568879D01*
X169356890Y-112584997D01*
X169383316Y-112606684D01*
X169405003Y-112633110D01*
X169421121Y-112663264D01*
X169431045Y-112695976D01*
X169435000Y-112736138D01*
X169435000Y-113323862D01*
X169431045Y-113364024D01*
X169421121Y-113396736D01*
X169405003Y-113426890D01*
X169383316Y-113453316D01*
X169356890Y-113475003D01*
X169326736Y-113491121D01*
X169294024Y-113501045D01*
X169253862Y-113505000D01*
X168566138Y-113505000D01*
X168525976Y-113501045D01*
X168493264Y-113491121D01*
X168463110Y-113475003D01*
X168436684Y-113453316D01*
X168414997Y-113426890D01*
X168398879Y-113396736D01*
X168388955Y-113364024D01*
X168385000Y-113323862D01*
X168385000Y-112736138D01*
X168388955Y-112695976D01*
X168398879Y-112663264D01*
X168414997Y-112633110D01*
X168436684Y-112606684D01*
X168463110Y-112584997D01*
X168493264Y-112568879D01*
X168525976Y-112558955D01*
X168566138Y-112555000D01*
X169253862Y-112555000D01*
X169294024Y-112558955D01*
X169294024Y-112558955D01*
G37*
G36*
X171044024Y-112558955D02*
X171076736Y-112568879D01*
X171106890Y-112584997D01*
X171133316Y-112606684D01*
X171155003Y-112633110D01*
X171171121Y-112663264D01*
X171181045Y-112695976D01*
X171185000Y-112736138D01*
X171185000Y-113323862D01*
X171181045Y-113364024D01*
X171171121Y-113396736D01*
X171155003Y-113426890D01*
X171133316Y-113453316D01*
X171106890Y-113475003D01*
X171076736Y-113491121D01*
X171044024Y-113501045D01*
X171003862Y-113505000D01*
X170316138Y-113505000D01*
X170275976Y-113501045D01*
X170243264Y-113491121D01*
X170213110Y-113475003D01*
X170186684Y-113453316D01*
X170164997Y-113426890D01*
X170148879Y-113396736D01*
X170138955Y-113364024D01*
X170135000Y-113323862D01*
X170135000Y-112736138D01*
X170138955Y-112695976D01*
X170148879Y-112663264D01*
X170164997Y-112633110D01*
X170186684Y-112606684D01*
X170213110Y-112584997D01*
X170243264Y-112568879D01*
X170275976Y-112558955D01*
X170316138Y-112555000D01*
X171003862Y-112555000D01*
X171044024Y-112558955D01*
X171044024Y-112558955D01*
G37*
G36*
X158220890Y-106777610D02*
X158683140Y-106969080D01*
X159099159Y-107247055D01*
X159452945Y-107600841D01*
X159730920Y-108016860D01*
X159922390Y-108479110D01*
X160020000Y-108969830D01*
X160020000Y-109470170D01*
X159922390Y-109960890D01*
X159730920Y-110423140D01*
X159452945Y-110839159D01*
X159099159Y-111192945D01*
X158683140Y-111470920D01*
X158220890Y-111662390D01*
X157730170Y-111760000D01*
X157229830Y-111760000D01*
X156739110Y-111662390D01*
X156276860Y-111470920D01*
X155860841Y-111192945D01*
X155507055Y-110839159D01*
X155229080Y-110423140D01*
X155037610Y-109960890D01*
X154940000Y-109470170D01*
X154940000Y-108969830D01*
X155037610Y-108479110D01*
X155229080Y-108016860D01*
X155507055Y-107600841D01*
X155860841Y-107247055D01*
X156276860Y-106969080D01*
X156739110Y-106777610D01*
X157229830Y-106680000D01*
X157730170Y-106680000D01*
X158220890Y-106777610D01*
X158220890Y-106777610D01*
G37*
G36*
X137900890Y-106777610D02*
X138363140Y-106969080D01*
X138779159Y-107247055D01*
X139132945Y-107600841D01*
X139410920Y-108016860D01*
X139602390Y-108479110D01*
X139700000Y-108969830D01*
X139700000Y-109470170D01*
X139602390Y-109960890D01*
X139410920Y-110423140D01*
X139132945Y-110839159D01*
X138779159Y-111192945D01*
X138363140Y-111470920D01*
X137900890Y-111662390D01*
X137410170Y-111760000D01*
X136909830Y-111760000D01*
X136419110Y-111662390D01*
X135956860Y-111470920D01*
X135540841Y-111192945D01*
X135187055Y-110839159D01*
X134909080Y-110423140D01*
X134717610Y-109960890D01*
X134620000Y-109470170D01*
X134620000Y-108969830D01*
X134717610Y-108479110D01*
X134909080Y-108016860D01*
X135187055Y-107600841D01*
X135540841Y-107247055D01*
X135956860Y-106969080D01*
X136419110Y-106777610D01*
X136909830Y-106680000D01*
X137410170Y-106680000D01*
X137900890Y-106777610D01*
X137900890Y-106777610D01*
G37*
G36*
X148060890Y-106777610D02*
X148523140Y-106969080D01*
X148939159Y-107247055D01*
X149292945Y-107600841D01*
X149570920Y-108016860D01*
X149762390Y-108479110D01*
X149860000Y-108969830D01*
X149860000Y-109470170D01*
X149762390Y-109960890D01*
X149570920Y-110423140D01*
X149292945Y-110839159D01*
X148939159Y-111192945D01*
X148523140Y-111470920D01*
X148060890Y-111662390D01*
X147570170Y-111760000D01*
X147069830Y-111760000D01*
X146579110Y-111662390D01*
X146116860Y-111470920D01*
X145700841Y-111192945D01*
X145347055Y-110839159D01*
X145069080Y-110423140D01*
X144877610Y-109960890D01*
X144780000Y-109470170D01*
X144780000Y-108969830D01*
X144877610Y-108479110D01*
X145069080Y-108016860D01*
X145347055Y-107600841D01*
X145700841Y-107247055D01*
X146116860Y-106969080D01*
X146579110Y-106777610D01*
X147069830Y-106680000D01*
X147570170Y-106680000D01*
X148060890Y-106777610D01*
X148060890Y-106777610D01*
G37*
G36*
X253114024Y-110018955D02*
X253146736Y-110028879D01*
X253176890Y-110044997D01*
X253203316Y-110066684D01*
X253225003Y-110093110D01*
X253241121Y-110123264D01*
X253251045Y-110155976D01*
X253255000Y-110196138D01*
X253255000Y-110783862D01*
X253251045Y-110824024D01*
X253241121Y-110856736D01*
X253225003Y-110886890D01*
X253203316Y-110913316D01*
X253176890Y-110935003D01*
X253146736Y-110951121D01*
X253114024Y-110961045D01*
X253073862Y-110965000D01*
X252386138Y-110965000D01*
X252345976Y-110961045D01*
X252313264Y-110951121D01*
X252283110Y-110935003D01*
X252256684Y-110913316D01*
X252234997Y-110886890D01*
X252218879Y-110856736D01*
X252208955Y-110824024D01*
X252205000Y-110783862D01*
X252205000Y-110196138D01*
X252208955Y-110155976D01*
X252218879Y-110123264D01*
X252234997Y-110093110D01*
X252256684Y-110066684D01*
X252283110Y-110044997D01*
X252313264Y-110028879D01*
X252345976Y-110018955D01*
X252386138Y-110015000D01*
X253073862Y-110015000D01*
X253114024Y-110018955D01*
X253114024Y-110018955D01*
G37*
G36*
X251364024Y-110018955D02*
X251396736Y-110028879D01*
X251426890Y-110044997D01*
X251453316Y-110066684D01*
X251475003Y-110093110D01*
X251491121Y-110123264D01*
X251501045Y-110155976D01*
X251505000Y-110196138D01*
X251505000Y-110783862D01*
X251501045Y-110824024D01*
X251491121Y-110856736D01*
X251475003Y-110886890D01*
X251453316Y-110913316D01*
X251426890Y-110935003D01*
X251396736Y-110951121D01*
X251364024Y-110961045D01*
X251323862Y-110965000D01*
X250636138Y-110965000D01*
X250595976Y-110961045D01*
X250563264Y-110951121D01*
X250533110Y-110935003D01*
X250506684Y-110913316D01*
X250484997Y-110886890D01*
X250468879Y-110856736D01*
X250458955Y-110824024D01*
X250455000Y-110783862D01*
X250455000Y-110196138D01*
X250458955Y-110155976D01*
X250468879Y-110123264D01*
X250484997Y-110093110D01*
X250506684Y-110066684D01*
X250533110Y-110044997D01*
X250563264Y-110028879D01*
X250595976Y-110018955D01*
X250636138Y-110015000D01*
X251323862Y-110015000D01*
X251364024Y-110018955D01*
X251364024Y-110018955D01*
G37*
G36*
X249304024Y-110018955D02*
X249336736Y-110028879D01*
X249366890Y-110044997D01*
X249393316Y-110066684D01*
X249415003Y-110093110D01*
X249431121Y-110123264D01*
X249441045Y-110155976D01*
X249445000Y-110196138D01*
X249445000Y-110783862D01*
X249441045Y-110824024D01*
X249431121Y-110856736D01*
X249415003Y-110886890D01*
X249393316Y-110913316D01*
X249366890Y-110935003D01*
X249336736Y-110951121D01*
X249304024Y-110961045D01*
X249263862Y-110965000D01*
X248576138Y-110965000D01*
X248535976Y-110961045D01*
X248503264Y-110951121D01*
X248473110Y-110935003D01*
X248446684Y-110913316D01*
X248424997Y-110886890D01*
X248408879Y-110856736D01*
X248398955Y-110824024D01*
X248395000Y-110783862D01*
X248395000Y-110196138D01*
X248398955Y-110155976D01*
X248408879Y-110123264D01*
X248424997Y-110093110D01*
X248446684Y-110066684D01*
X248473110Y-110044997D01*
X248503264Y-110028879D01*
X248535976Y-110018955D01*
X248576138Y-110015000D01*
X249263862Y-110015000D01*
X249304024Y-110018955D01*
X249304024Y-110018955D01*
G37*
G36*
X247554024Y-110018955D02*
X247586736Y-110028879D01*
X247616890Y-110044997D01*
X247643316Y-110066684D01*
X247665003Y-110093110D01*
X247681121Y-110123264D01*
X247691045Y-110155976D01*
X247695000Y-110196138D01*
X247695000Y-110783862D01*
X247691045Y-110824024D01*
X247681121Y-110856736D01*
X247665003Y-110886890D01*
X247643316Y-110913316D01*
X247616890Y-110935003D01*
X247586736Y-110951121D01*
X247554024Y-110961045D01*
X247513862Y-110965000D01*
X246826138Y-110965000D01*
X246785976Y-110961045D01*
X246753264Y-110951121D01*
X246723110Y-110935003D01*
X246696684Y-110913316D01*
X246674997Y-110886890D01*
X246658879Y-110856736D01*
X246648955Y-110824024D01*
X246645000Y-110783862D01*
X246645000Y-110196138D01*
X246648955Y-110155976D01*
X246658879Y-110123264D01*
X246674997Y-110093110D01*
X246696684Y-110066684D01*
X246723110Y-110044997D01*
X246753264Y-110028879D01*
X246785976Y-110018955D01*
X246826138Y-110015000D01*
X247513862Y-110015000D01*
X247554024Y-110018955D01*
X247554024Y-110018955D01*
G37*
G36*
X212766040Y-108233834D02*
X212889689Y-108258429D01*
X213071678Y-108333811D01*
X213235463Y-108443249D01*
X213374751Y-108582537D01*
X213484189Y-108746322D01*
X213559571Y-108928311D01*
X213598000Y-109121509D01*
X213598000Y-109318491D01*
X213559571Y-109511689D01*
X213484189Y-109693678D01*
X213374751Y-109857463D01*
X213235463Y-109996751D01*
X213071678Y-110106189D01*
X212889689Y-110181571D01*
X212773770Y-110204628D01*
X212696493Y-110220000D01*
X212499507Y-110220000D01*
X212422230Y-110204628D01*
X212306311Y-110181571D01*
X212124322Y-110106189D01*
X211960537Y-109996751D01*
X211821249Y-109857463D01*
X211711811Y-109693678D01*
X211636429Y-109511689D01*
X211598000Y-109318491D01*
X211598000Y-109121509D01*
X211636429Y-108928311D01*
X211711811Y-108746322D01*
X211821249Y-108582537D01*
X211960537Y-108443249D01*
X212124322Y-108333811D01*
X212306311Y-108258429D01*
X212429960Y-108233834D01*
X212499507Y-108220000D01*
X212696493Y-108220000D01*
X212766040Y-108233834D01*
X212766040Y-108233834D01*
G37*
G36*
X219240000Y-110020000D02*
X217640000Y-110020000D01*
X217640000Y-108420000D01*
X219240000Y-108420000D01*
X219240000Y-110020000D01*
X219240000Y-110020000D01*
G37*
G36*
X222173352Y-108450743D02*
X222318941Y-108511048D01*
X222449973Y-108598601D01*
X222561399Y-108710027D01*
X222648952Y-108841059D01*
X222709257Y-108986648D01*
X222740000Y-109141205D01*
X222740000Y-109298795D01*
X222709257Y-109453352D01*
X222648952Y-109598941D01*
X222561399Y-109729973D01*
X222449973Y-109841399D01*
X222318941Y-109928952D01*
X222173352Y-109989257D01*
X222018795Y-110020000D01*
X221861205Y-110020000D01*
X221706648Y-109989257D01*
X221561059Y-109928952D01*
X221430027Y-109841399D01*
X221318601Y-109729973D01*
X221231048Y-109598941D01*
X221170743Y-109453352D01*
X221140000Y-109298795D01*
X221140000Y-109141205D01*
X221170743Y-108986648D01*
X221231048Y-108841059D01*
X221318601Y-108710027D01*
X221430027Y-108598601D01*
X221561059Y-108511048D01*
X221706648Y-108450743D01*
X221861205Y-108420000D01*
X222018795Y-108420000D01*
X222173352Y-108450743D01*
X222173352Y-108450743D01*
G37*
G36*
X208453195Y-108477522D02*
X208502267Y-108487283D01*
X208559643Y-108511049D01*
X208640942Y-108544724D01*
X208765750Y-108628118D01*
X208871882Y-108734250D01*
X208871884Y-108734253D01*
X208955276Y-108859058D01*
X209008126Y-108986649D01*
X209012717Y-108997734D01*
X209042000Y-109144948D01*
X209042000Y-109295052D01*
X209037337Y-109318493D01*
X209012717Y-109442267D01*
X209008125Y-109453352D01*
X208955276Y-109580942D01*
X208871882Y-109705750D01*
X208765750Y-109811882D01*
X208765747Y-109811884D01*
X208640942Y-109895276D01*
X208502267Y-109952717D01*
X208461178Y-109960890D01*
X208355052Y-109982000D01*
X208204948Y-109982000D01*
X208098822Y-109960890D01*
X208057733Y-109952717D01*
X207919058Y-109895276D01*
X207794253Y-109811884D01*
X207794250Y-109811882D01*
X207688118Y-109705750D01*
X207604724Y-109580942D01*
X207551875Y-109453352D01*
X207547283Y-109442267D01*
X207522663Y-109318493D01*
X207518000Y-109295052D01*
X207518000Y-109144948D01*
X207547283Y-108997734D01*
X207551875Y-108986649D01*
X207604724Y-108859058D01*
X207688116Y-108734253D01*
X207688118Y-108734250D01*
X207794250Y-108628118D01*
X207919058Y-108544724D01*
X208000357Y-108511049D01*
X208057733Y-108487283D01*
X208106805Y-108477522D01*
X208204948Y-108458000D01*
X208355052Y-108458000D01*
X208453195Y-108477522D01*
X208453195Y-108477522D01*
G37*
G36*
X205913195Y-108477522D02*
X205962267Y-108487283D01*
X206019643Y-108511049D01*
X206100942Y-108544724D01*
X206225750Y-108628118D01*
X206331882Y-108734250D01*
X206331884Y-108734253D01*
X206415276Y-108859058D01*
X206468126Y-108986649D01*
X206472717Y-108997734D01*
X206502000Y-109144948D01*
X206502000Y-109295052D01*
X206497337Y-109318493D01*
X206472717Y-109442267D01*
X206468125Y-109453352D01*
X206415276Y-109580942D01*
X206331882Y-109705750D01*
X206225750Y-109811882D01*
X206225747Y-109811884D01*
X206100942Y-109895276D01*
X205962267Y-109952717D01*
X205921178Y-109960890D01*
X205815052Y-109982000D01*
X205664948Y-109982000D01*
X205558822Y-109960890D01*
X205517733Y-109952717D01*
X205379058Y-109895276D01*
X205254253Y-109811884D01*
X205254250Y-109811882D01*
X205148118Y-109705750D01*
X205064724Y-109580942D01*
X205011875Y-109453352D01*
X205007283Y-109442267D01*
X204982663Y-109318493D01*
X204978000Y-109295052D01*
X204978000Y-109144948D01*
X205007283Y-108997734D01*
X205011875Y-108986649D01*
X205064724Y-108859058D01*
X205148116Y-108734253D01*
X205148118Y-108734250D01*
X205254250Y-108628118D01*
X205379058Y-108544724D01*
X205460357Y-108511049D01*
X205517733Y-108487283D01*
X205566805Y-108477522D01*
X205664948Y-108458000D01*
X205815052Y-108458000D01*
X205913195Y-108477522D01*
X205913195Y-108477522D01*
G37*
G36*
X180513195Y-108477522D02*
X180562267Y-108487283D01*
X180619643Y-108511049D01*
X180700942Y-108544724D01*
X180825750Y-108628118D01*
X180931882Y-108734250D01*
X180931884Y-108734253D01*
X181015276Y-108859058D01*
X181068126Y-108986649D01*
X181072717Y-108997734D01*
X181102000Y-109144948D01*
X181102000Y-109295052D01*
X181097337Y-109318493D01*
X181072717Y-109442267D01*
X181068125Y-109453352D01*
X181015276Y-109580942D01*
X180931882Y-109705750D01*
X180825750Y-109811882D01*
X180825747Y-109811884D01*
X180700942Y-109895276D01*
X180562267Y-109952717D01*
X180521178Y-109960890D01*
X180415052Y-109982000D01*
X180264948Y-109982000D01*
X180158822Y-109960890D01*
X180117733Y-109952717D01*
X179979058Y-109895276D01*
X179854253Y-109811884D01*
X179854250Y-109811882D01*
X179748118Y-109705750D01*
X179664724Y-109580942D01*
X179611875Y-109453352D01*
X179607283Y-109442267D01*
X179582663Y-109318493D01*
X179578000Y-109295052D01*
X179578000Y-109144948D01*
X179607283Y-108997734D01*
X179611875Y-108986649D01*
X179664724Y-108859058D01*
X179748116Y-108734253D01*
X179748118Y-108734250D01*
X179854250Y-108628118D01*
X179979058Y-108544724D01*
X180060357Y-108511049D01*
X180117733Y-108487283D01*
X180166805Y-108477522D01*
X180264948Y-108458000D01*
X180415052Y-108458000D01*
X180513195Y-108477522D01*
X180513195Y-108477522D01*
G37*
G36*
X183053195Y-108477522D02*
X183102267Y-108487283D01*
X183159643Y-108511049D01*
X183240942Y-108544724D01*
X183365750Y-108628118D01*
X183471882Y-108734250D01*
X183471884Y-108734253D01*
X183555276Y-108859058D01*
X183608126Y-108986649D01*
X183612717Y-108997734D01*
X183642000Y-109144948D01*
X183642000Y-109295052D01*
X183637337Y-109318493D01*
X183612717Y-109442267D01*
X183608125Y-109453352D01*
X183555276Y-109580942D01*
X183471882Y-109705750D01*
X183365750Y-109811882D01*
X183365747Y-109811884D01*
X183240942Y-109895276D01*
X183102267Y-109952717D01*
X183061178Y-109960890D01*
X182955052Y-109982000D01*
X182804948Y-109982000D01*
X182698822Y-109960890D01*
X182657733Y-109952717D01*
X182519058Y-109895276D01*
X182394253Y-109811884D01*
X182394250Y-109811882D01*
X182288118Y-109705750D01*
X182204724Y-109580942D01*
X182151875Y-109453352D01*
X182147283Y-109442267D01*
X182122663Y-109318493D01*
X182118000Y-109295052D01*
X182118000Y-109144948D01*
X182147283Y-108997734D01*
X182151875Y-108986649D01*
X182204724Y-108859058D01*
X182288116Y-108734253D01*
X182288118Y-108734250D01*
X182394250Y-108628118D01*
X182519058Y-108544724D01*
X182600357Y-108511049D01*
X182657733Y-108487283D01*
X182706805Y-108477522D01*
X182804948Y-108458000D01*
X182955052Y-108458000D01*
X183053195Y-108477522D01*
X183053195Y-108477522D01*
G37*
G36*
X203373195Y-108477522D02*
X203422267Y-108487283D01*
X203479643Y-108511049D01*
X203560942Y-108544724D01*
X203685750Y-108628118D01*
X203791882Y-108734250D01*
X203791884Y-108734253D01*
X203875276Y-108859058D01*
X203928126Y-108986649D01*
X203932717Y-108997734D01*
X203962000Y-109144948D01*
X203962000Y-109295052D01*
X203957337Y-109318493D01*
X203932717Y-109442267D01*
X203928125Y-109453352D01*
X203875276Y-109580942D01*
X203791882Y-109705750D01*
X203685750Y-109811882D01*
X203685747Y-109811884D01*
X203560942Y-109895276D01*
X203422267Y-109952717D01*
X203381178Y-109960890D01*
X203275052Y-109982000D01*
X203124948Y-109982000D01*
X203018822Y-109960890D01*
X202977733Y-109952717D01*
X202839058Y-109895276D01*
X202714253Y-109811884D01*
X202714250Y-109811882D01*
X202608118Y-109705750D01*
X202524724Y-109580942D01*
X202471875Y-109453352D01*
X202467283Y-109442267D01*
X202442663Y-109318493D01*
X202438000Y-109295052D01*
X202438000Y-109144948D01*
X202467283Y-108997734D01*
X202471875Y-108986649D01*
X202524724Y-108859058D01*
X202608116Y-108734253D01*
X202608118Y-108734250D01*
X202714250Y-108628118D01*
X202839058Y-108544724D01*
X202920357Y-108511049D01*
X202977733Y-108487283D01*
X203026805Y-108477522D01*
X203124948Y-108458000D01*
X203275052Y-108458000D01*
X203373195Y-108477522D01*
X203373195Y-108477522D01*
G37*
G36*
X251364024Y-107478955D02*
X251396736Y-107488879D01*
X251426890Y-107504997D01*
X251453316Y-107526684D01*
X251475003Y-107553110D01*
X251491121Y-107583264D01*
X251501045Y-107615976D01*
X251505000Y-107656138D01*
X251505000Y-108243862D01*
X251501045Y-108284024D01*
X251491121Y-108316736D01*
X251475003Y-108346890D01*
X251453316Y-108373316D01*
X251426890Y-108395003D01*
X251396736Y-108411121D01*
X251364024Y-108421045D01*
X251323862Y-108425000D01*
X250636138Y-108425000D01*
X250595976Y-108421045D01*
X250563264Y-108411121D01*
X250533110Y-108395003D01*
X250506684Y-108373316D01*
X250484997Y-108346890D01*
X250468879Y-108316736D01*
X250458955Y-108284024D01*
X250455000Y-108243862D01*
X250455000Y-107656138D01*
X250458955Y-107615976D01*
X250468879Y-107583264D01*
X250484997Y-107553110D01*
X250506684Y-107526684D01*
X250533110Y-107504997D01*
X250563264Y-107488879D01*
X250595976Y-107478955D01*
X250636138Y-107475000D01*
X251323862Y-107475000D01*
X251364024Y-107478955D01*
X251364024Y-107478955D01*
G37*
G36*
X249304024Y-107478955D02*
X249336736Y-107488879D01*
X249366890Y-107504997D01*
X249393316Y-107526684D01*
X249415003Y-107553110D01*
X249431121Y-107583264D01*
X249441045Y-107615976D01*
X249445000Y-107656138D01*
X249445000Y-108243862D01*
X249441045Y-108284024D01*
X249431121Y-108316736D01*
X249415003Y-108346890D01*
X249393316Y-108373316D01*
X249366890Y-108395003D01*
X249336736Y-108411121D01*
X249304024Y-108421045D01*
X249263862Y-108425000D01*
X248576138Y-108425000D01*
X248535976Y-108421045D01*
X248503264Y-108411121D01*
X248473110Y-108395003D01*
X248446684Y-108373316D01*
X248424997Y-108346890D01*
X248408879Y-108316736D01*
X248398955Y-108284024D01*
X248395000Y-108243862D01*
X248395000Y-107656138D01*
X248398955Y-107615976D01*
X248408879Y-107583264D01*
X248424997Y-107553110D01*
X248446684Y-107526684D01*
X248473110Y-107504997D01*
X248503264Y-107488879D01*
X248535976Y-107478955D01*
X248576138Y-107475000D01*
X249263862Y-107475000D01*
X249304024Y-107478955D01*
X249304024Y-107478955D01*
G37*
G36*
X253114024Y-107478955D02*
X253146736Y-107488879D01*
X253176890Y-107504997D01*
X253203316Y-107526684D01*
X253225003Y-107553110D01*
X253241121Y-107583264D01*
X253251045Y-107615976D01*
X253255000Y-107656138D01*
X253255000Y-108243862D01*
X253251045Y-108284024D01*
X253241121Y-108316736D01*
X253225003Y-108346890D01*
X253203316Y-108373316D01*
X253176890Y-108395003D01*
X253146736Y-108411121D01*
X253114024Y-108421045D01*
X253073862Y-108425000D01*
X252386138Y-108425000D01*
X252345976Y-108421045D01*
X252313264Y-108411121D01*
X252283110Y-108395003D01*
X252256684Y-108373316D01*
X252234997Y-108346890D01*
X252218879Y-108316736D01*
X252208955Y-108284024D01*
X252205000Y-108243862D01*
X252205000Y-107656138D01*
X252208955Y-107615976D01*
X252218879Y-107583264D01*
X252234997Y-107553110D01*
X252256684Y-107526684D01*
X252283110Y-107504997D01*
X252313264Y-107488879D01*
X252345976Y-107478955D01*
X252386138Y-107475000D01*
X253073862Y-107475000D01*
X253114024Y-107478955D01*
X253114024Y-107478955D01*
G37*
G36*
X247554024Y-107478955D02*
X247586736Y-107488879D01*
X247616890Y-107504997D01*
X247643316Y-107526684D01*
X247665003Y-107553110D01*
X247681121Y-107583264D01*
X247691045Y-107615976D01*
X247695000Y-107656138D01*
X247695000Y-108243862D01*
X247691045Y-108284024D01*
X247681121Y-108316736D01*
X247665003Y-108346890D01*
X247643316Y-108373316D01*
X247616890Y-108395003D01*
X247586736Y-108411121D01*
X247554024Y-108421045D01*
X247513862Y-108425000D01*
X246826138Y-108425000D01*
X246785976Y-108421045D01*
X246753264Y-108411121D01*
X246723110Y-108395003D01*
X246696684Y-108373316D01*
X246674997Y-108346890D01*
X246658879Y-108316736D01*
X246648955Y-108284024D01*
X246645000Y-108243862D01*
X246645000Y-107656138D01*
X246648955Y-107615976D01*
X246658879Y-107583264D01*
X246674997Y-107553110D01*
X246696684Y-107526684D01*
X246723110Y-107504997D01*
X246753264Y-107488879D01*
X246785976Y-107478955D01*
X246826138Y-107475000D01*
X247513862Y-107475000D01*
X247554024Y-107478955D01*
X247554024Y-107478955D01*
G37*
G36*
X253114024Y-104938955D02*
X253146736Y-104948879D01*
X253176890Y-104964997D01*
X253203316Y-104986684D01*
X253225003Y-105013110D01*
X253241121Y-105043264D01*
X253251045Y-105075976D01*
X253255000Y-105116138D01*
X253255000Y-105703862D01*
X253251045Y-105744024D01*
X253241121Y-105776736D01*
X253225003Y-105806890D01*
X253203316Y-105833316D01*
X253176890Y-105855003D01*
X253146736Y-105871121D01*
X253114024Y-105881045D01*
X253073862Y-105885000D01*
X252386138Y-105885000D01*
X252345976Y-105881045D01*
X252313264Y-105871121D01*
X252283110Y-105855003D01*
X252256684Y-105833316D01*
X252234997Y-105806890D01*
X252218879Y-105776736D01*
X252208955Y-105744024D01*
X252205000Y-105703862D01*
X252205000Y-105116138D01*
X252208955Y-105075976D01*
X252218879Y-105043264D01*
X252234997Y-105013110D01*
X252256684Y-104986684D01*
X252283110Y-104964997D01*
X252313264Y-104948879D01*
X252345976Y-104938955D01*
X252386138Y-104935000D01*
X253073862Y-104935000D01*
X253114024Y-104938955D01*
X253114024Y-104938955D01*
G37*
G36*
X251364024Y-104938955D02*
X251396736Y-104948879D01*
X251426890Y-104964997D01*
X251453316Y-104986684D01*
X251475003Y-105013110D01*
X251491121Y-105043264D01*
X251501045Y-105075976D01*
X251505000Y-105116138D01*
X251505000Y-105703862D01*
X251501045Y-105744024D01*
X251491121Y-105776736D01*
X251475003Y-105806890D01*
X251453316Y-105833316D01*
X251426890Y-105855003D01*
X251396736Y-105871121D01*
X251364024Y-105881045D01*
X251323862Y-105885000D01*
X250636138Y-105885000D01*
X250595976Y-105881045D01*
X250563264Y-105871121D01*
X250533110Y-105855003D01*
X250506684Y-105833316D01*
X250484997Y-105806890D01*
X250468879Y-105776736D01*
X250458955Y-105744024D01*
X250455000Y-105703862D01*
X250455000Y-105116138D01*
X250458955Y-105075976D01*
X250468879Y-105043264D01*
X250484997Y-105013110D01*
X250506684Y-104986684D01*
X250533110Y-104964997D01*
X250563264Y-104948879D01*
X250595976Y-104938955D01*
X250636138Y-104935000D01*
X251323862Y-104935000D01*
X251364024Y-104938955D01*
X251364024Y-104938955D01*
G37*
G36*
X249304024Y-104938955D02*
X249336736Y-104948879D01*
X249366890Y-104964997D01*
X249393316Y-104986684D01*
X249415003Y-105013110D01*
X249431121Y-105043264D01*
X249441045Y-105075976D01*
X249445000Y-105116138D01*
X249445000Y-105703862D01*
X249441045Y-105744024D01*
X249431121Y-105776736D01*
X249415003Y-105806890D01*
X249393316Y-105833316D01*
X249366890Y-105855003D01*
X249336736Y-105871121D01*
X249304024Y-105881045D01*
X249263862Y-105885000D01*
X248576138Y-105885000D01*
X248535976Y-105881045D01*
X248503264Y-105871121D01*
X248473110Y-105855003D01*
X248446684Y-105833316D01*
X248424997Y-105806890D01*
X248408879Y-105776736D01*
X248398955Y-105744024D01*
X248395000Y-105703862D01*
X248395000Y-105116138D01*
X248398955Y-105075976D01*
X248408879Y-105043264D01*
X248424997Y-105013110D01*
X248446684Y-104986684D01*
X248473110Y-104964997D01*
X248503264Y-104948879D01*
X248535976Y-104938955D01*
X248576138Y-104935000D01*
X249263862Y-104935000D01*
X249304024Y-104938955D01*
X249304024Y-104938955D01*
G37*
G36*
X247554024Y-104938955D02*
X247586736Y-104948879D01*
X247616890Y-104964997D01*
X247643316Y-104986684D01*
X247665003Y-105013110D01*
X247681121Y-105043264D01*
X247691045Y-105075976D01*
X247695000Y-105116138D01*
X247695000Y-105703862D01*
X247691045Y-105744024D01*
X247681121Y-105776736D01*
X247665003Y-105806890D01*
X247643316Y-105833316D01*
X247616890Y-105855003D01*
X247586736Y-105871121D01*
X247554024Y-105881045D01*
X247513862Y-105885000D01*
X246826138Y-105885000D01*
X246785976Y-105881045D01*
X246753264Y-105871121D01*
X246723110Y-105855003D01*
X246696684Y-105833316D01*
X246674997Y-105806890D01*
X246658879Y-105776736D01*
X246648955Y-105744024D01*
X246645000Y-105703862D01*
X246645000Y-105116138D01*
X246648955Y-105075976D01*
X246658879Y-105043264D01*
X246674997Y-105013110D01*
X246696684Y-104986684D01*
X246723110Y-104964997D01*
X246753264Y-104948879D01*
X246785976Y-104938955D01*
X246826138Y-104935000D01*
X247513862Y-104935000D01*
X247554024Y-104938955D01*
X247554024Y-104938955D01*
G37*
G36*
X137900890Y-98877610D02*
X138363140Y-99069080D01*
X138779159Y-99347055D01*
X139132945Y-99700841D01*
X139410920Y-100116860D01*
X139602390Y-100579110D01*
X139700000Y-101069830D01*
X139700000Y-101570170D01*
X139602390Y-102060890D01*
X139410920Y-102523140D01*
X139132945Y-102939159D01*
X138779159Y-103292945D01*
X138363140Y-103570920D01*
X137900890Y-103762390D01*
X137410170Y-103860000D01*
X136909830Y-103860000D01*
X136419110Y-103762390D01*
X135956860Y-103570920D01*
X135540841Y-103292945D01*
X135187055Y-102939159D01*
X134909080Y-102523140D01*
X134717610Y-102060890D01*
X134620000Y-101570170D01*
X134620000Y-101069830D01*
X134717610Y-100579110D01*
X134909080Y-100116860D01*
X135187055Y-99700841D01*
X135540841Y-99347055D01*
X135956860Y-99069080D01*
X136419110Y-98877610D01*
X136909830Y-98780000D01*
X137410170Y-98780000D01*
X137900890Y-98877610D01*
X137900890Y-98877610D01*
G37*
G36*
X148060890Y-98877610D02*
X148523140Y-99069080D01*
X148939159Y-99347055D01*
X149292945Y-99700841D01*
X149570920Y-100116860D01*
X149762390Y-100579110D01*
X149860000Y-101069830D01*
X149860000Y-101570170D01*
X149762390Y-102060890D01*
X149570920Y-102523140D01*
X149292945Y-102939159D01*
X148939159Y-103292945D01*
X148523140Y-103570920D01*
X148060890Y-103762390D01*
X147570170Y-103860000D01*
X147069830Y-103860000D01*
X146579110Y-103762390D01*
X146116860Y-103570920D01*
X145700841Y-103292945D01*
X145347055Y-102939159D01*
X145069080Y-102523140D01*
X144877610Y-102060890D01*
X144780000Y-101570170D01*
X144780000Y-101069830D01*
X144877610Y-100579110D01*
X145069080Y-100116860D01*
X145347055Y-99700841D01*
X145700841Y-99347055D01*
X146116860Y-99069080D01*
X146579110Y-98877610D01*
X147069830Y-98780000D01*
X147570170Y-98780000D01*
X148060890Y-98877610D01*
X148060890Y-98877610D01*
G37*
G36*
X158220890Y-98877610D02*
X158683140Y-99069080D01*
X159099159Y-99347055D01*
X159452945Y-99700841D01*
X159730920Y-100116860D01*
X159922390Y-100579110D01*
X160020000Y-101069830D01*
X160020000Y-101570170D01*
X159922390Y-102060890D01*
X159730920Y-102523140D01*
X159452945Y-102939159D01*
X159099159Y-103292945D01*
X158683140Y-103570920D01*
X158220890Y-103762390D01*
X157730170Y-103860000D01*
X157229830Y-103860000D01*
X156739110Y-103762390D01*
X156276860Y-103570920D01*
X155860841Y-103292945D01*
X155507055Y-102939159D01*
X155229080Y-102523140D01*
X155037610Y-102060890D01*
X154940000Y-101570170D01*
X154940000Y-101069830D01*
X155037610Y-100579110D01*
X155229080Y-100116860D01*
X155507055Y-99700841D01*
X155860841Y-99347055D01*
X156276860Y-99069080D01*
X156739110Y-98877610D01*
X157229830Y-98780000D01*
X157730170Y-98780000D01*
X158220890Y-98877610D01*
X158220890Y-98877610D01*
G37*
G36*
X193904024Y-102652955D02*
X193936736Y-102662879D01*
X193966890Y-102678997D01*
X193993316Y-102700684D01*
X194015003Y-102727110D01*
X194031121Y-102757264D01*
X194041045Y-102789976D01*
X194045000Y-102830138D01*
X194045000Y-103417862D01*
X194041045Y-103458024D01*
X194031121Y-103490736D01*
X194015003Y-103520890D01*
X193993316Y-103547316D01*
X193966890Y-103569003D01*
X193936736Y-103585121D01*
X193904024Y-103595045D01*
X193863862Y-103599000D01*
X193176138Y-103599000D01*
X193135976Y-103595045D01*
X193103264Y-103585121D01*
X193073110Y-103569003D01*
X193046684Y-103547316D01*
X193024997Y-103520890D01*
X193008879Y-103490736D01*
X192998955Y-103458024D01*
X192995000Y-103417862D01*
X192995000Y-102830138D01*
X192998955Y-102789976D01*
X193008879Y-102757264D01*
X193024997Y-102727110D01*
X193046684Y-102700684D01*
X193073110Y-102678997D01*
X193103264Y-102662879D01*
X193135976Y-102652955D01*
X193176138Y-102649000D01*
X193863862Y-102649000D01*
X193904024Y-102652955D01*
X193904024Y-102652955D01*
G37*
G36*
X188344024Y-102652955D02*
X188376736Y-102662879D01*
X188406890Y-102678997D01*
X188433316Y-102700684D01*
X188455003Y-102727110D01*
X188471121Y-102757264D01*
X188481045Y-102789976D01*
X188485000Y-102830138D01*
X188485000Y-103417862D01*
X188481045Y-103458024D01*
X188471121Y-103490736D01*
X188455003Y-103520890D01*
X188433316Y-103547316D01*
X188406890Y-103569003D01*
X188376736Y-103585121D01*
X188344024Y-103595045D01*
X188303862Y-103599000D01*
X187616138Y-103599000D01*
X187575976Y-103595045D01*
X187543264Y-103585121D01*
X187513110Y-103569003D01*
X187486684Y-103547316D01*
X187464997Y-103520890D01*
X187448879Y-103490736D01*
X187438955Y-103458024D01*
X187435000Y-103417862D01*
X187435000Y-102830138D01*
X187438955Y-102789976D01*
X187448879Y-102757264D01*
X187464997Y-102727110D01*
X187486684Y-102700684D01*
X187513110Y-102678997D01*
X187543264Y-102662879D01*
X187575976Y-102652955D01*
X187616138Y-102649000D01*
X188303862Y-102649000D01*
X188344024Y-102652955D01*
X188344024Y-102652955D01*
G37*
G36*
X190094024Y-102652955D02*
X190126736Y-102662879D01*
X190156890Y-102678997D01*
X190183316Y-102700684D01*
X190205003Y-102727110D01*
X190221121Y-102757264D01*
X190231045Y-102789976D01*
X190235000Y-102830138D01*
X190235000Y-103417862D01*
X190231045Y-103458024D01*
X190221121Y-103490736D01*
X190205003Y-103520890D01*
X190183316Y-103547316D01*
X190156890Y-103569003D01*
X190126736Y-103585121D01*
X190094024Y-103595045D01*
X190053862Y-103599000D01*
X189366138Y-103599000D01*
X189325976Y-103595045D01*
X189293264Y-103585121D01*
X189263110Y-103569003D01*
X189236684Y-103547316D01*
X189214997Y-103520890D01*
X189198879Y-103490736D01*
X189188955Y-103458024D01*
X189185000Y-103417862D01*
X189185000Y-102830138D01*
X189188955Y-102789976D01*
X189198879Y-102757264D01*
X189214997Y-102727110D01*
X189236684Y-102700684D01*
X189263110Y-102678997D01*
X189293264Y-102662879D01*
X189325976Y-102652955D01*
X189366138Y-102649000D01*
X190053862Y-102649000D01*
X190094024Y-102652955D01*
X190094024Y-102652955D01*
G37*
G36*
X192154024Y-102652955D02*
X192186736Y-102662879D01*
X192216890Y-102678997D01*
X192243316Y-102700684D01*
X192265003Y-102727110D01*
X192281121Y-102757264D01*
X192291045Y-102789976D01*
X192295000Y-102830138D01*
X192295000Y-103417862D01*
X192291045Y-103458024D01*
X192281121Y-103490736D01*
X192265003Y-103520890D01*
X192243316Y-103547316D01*
X192216890Y-103569003D01*
X192186736Y-103585121D01*
X192154024Y-103595045D01*
X192113862Y-103599000D01*
X191426138Y-103599000D01*
X191385976Y-103595045D01*
X191353264Y-103585121D01*
X191323110Y-103569003D01*
X191296684Y-103547316D01*
X191274997Y-103520890D01*
X191258879Y-103490736D01*
X191248955Y-103458024D01*
X191245000Y-103417862D01*
X191245000Y-102830138D01*
X191248955Y-102789976D01*
X191258879Y-102757264D01*
X191274997Y-102727110D01*
X191296684Y-102700684D01*
X191323110Y-102678997D01*
X191353264Y-102662879D01*
X191385976Y-102652955D01*
X191426138Y-102649000D01*
X192113862Y-102649000D01*
X192154024Y-102652955D01*
X192154024Y-102652955D01*
G37*
G36*
X253114024Y-102398955D02*
X253146736Y-102408879D01*
X253176890Y-102424997D01*
X253203316Y-102446684D01*
X253225003Y-102473110D01*
X253241121Y-102503264D01*
X253251045Y-102535976D01*
X253255000Y-102576138D01*
X253255000Y-103163862D01*
X253251045Y-103204024D01*
X253241121Y-103236736D01*
X253225003Y-103266890D01*
X253203316Y-103293316D01*
X253176890Y-103315003D01*
X253146736Y-103331121D01*
X253114024Y-103341045D01*
X253073862Y-103345000D01*
X252386138Y-103345000D01*
X252345976Y-103341045D01*
X252313264Y-103331121D01*
X252283110Y-103315003D01*
X252256684Y-103293316D01*
X252234997Y-103266890D01*
X252218879Y-103236736D01*
X252208955Y-103204024D01*
X252205000Y-103163862D01*
X252205000Y-102576138D01*
X252208955Y-102535976D01*
X252218879Y-102503264D01*
X252234997Y-102473110D01*
X252256684Y-102446684D01*
X252283110Y-102424997D01*
X252313264Y-102408879D01*
X252345976Y-102398955D01*
X252386138Y-102395000D01*
X253073862Y-102395000D01*
X253114024Y-102398955D01*
X253114024Y-102398955D01*
G37*
G36*
X247554024Y-102398955D02*
X247586736Y-102408879D01*
X247616890Y-102424997D01*
X247643316Y-102446684D01*
X247665003Y-102473110D01*
X247681121Y-102503264D01*
X247691045Y-102535976D01*
X247695000Y-102576138D01*
X247695000Y-103163862D01*
X247691045Y-103204024D01*
X247681121Y-103236736D01*
X247665003Y-103266890D01*
X247643316Y-103293316D01*
X247616890Y-103315003D01*
X247586736Y-103331121D01*
X247554024Y-103341045D01*
X247513862Y-103345000D01*
X246826138Y-103345000D01*
X246785976Y-103341045D01*
X246753264Y-103331121D01*
X246723110Y-103315003D01*
X246696684Y-103293316D01*
X246674997Y-103266890D01*
X246658879Y-103236736D01*
X246648955Y-103204024D01*
X246645000Y-103163862D01*
X246645000Y-102576138D01*
X246648955Y-102535976D01*
X246658879Y-102503264D01*
X246674997Y-102473110D01*
X246696684Y-102446684D01*
X246723110Y-102424997D01*
X246753264Y-102408879D01*
X246785976Y-102398955D01*
X246826138Y-102395000D01*
X247513862Y-102395000D01*
X247554024Y-102398955D01*
X247554024Y-102398955D01*
G37*
G36*
X249304024Y-102398955D02*
X249336736Y-102408879D01*
X249366890Y-102424997D01*
X249393316Y-102446684D01*
X249415003Y-102473110D01*
X249431121Y-102503264D01*
X249441045Y-102535976D01*
X249445000Y-102576138D01*
X249445000Y-103163862D01*
X249441045Y-103204024D01*
X249431121Y-103236736D01*
X249415003Y-103266890D01*
X249393316Y-103293316D01*
X249366890Y-103315003D01*
X249336736Y-103331121D01*
X249304024Y-103341045D01*
X249263862Y-103345000D01*
X248576138Y-103345000D01*
X248535976Y-103341045D01*
X248503264Y-103331121D01*
X248473110Y-103315003D01*
X248446684Y-103293316D01*
X248424997Y-103266890D01*
X248408879Y-103236736D01*
X248398955Y-103204024D01*
X248395000Y-103163862D01*
X248395000Y-102576138D01*
X248398955Y-102535976D01*
X248408879Y-102503264D01*
X248424997Y-102473110D01*
X248446684Y-102446684D01*
X248473110Y-102424997D01*
X248503264Y-102408879D01*
X248535976Y-102398955D01*
X248576138Y-102395000D01*
X249263862Y-102395000D01*
X249304024Y-102398955D01*
X249304024Y-102398955D01*
G37*
G36*
X251364024Y-102398955D02*
X251396736Y-102408879D01*
X251426890Y-102424997D01*
X251453316Y-102446684D01*
X251475003Y-102473110D01*
X251491121Y-102503264D01*
X251501045Y-102535976D01*
X251505000Y-102576138D01*
X251505000Y-103163862D01*
X251501045Y-103204024D01*
X251491121Y-103236736D01*
X251475003Y-103266890D01*
X251453316Y-103293316D01*
X251426890Y-103315003D01*
X251396736Y-103331121D01*
X251364024Y-103341045D01*
X251323862Y-103345000D01*
X250636138Y-103345000D01*
X250595976Y-103341045D01*
X250563264Y-103331121D01*
X250533110Y-103315003D01*
X250506684Y-103293316D01*
X250484997Y-103266890D01*
X250468879Y-103236736D01*
X250458955Y-103204024D01*
X250455000Y-103163862D01*
X250455000Y-102576138D01*
X250458955Y-102535976D01*
X250468879Y-102503264D01*
X250484997Y-102473110D01*
X250506684Y-102446684D01*
X250533110Y-102424997D01*
X250563264Y-102408879D01*
X250595976Y-102398955D01*
X250636138Y-102395000D01*
X251323862Y-102395000D01*
X251364024Y-102398955D01*
X251364024Y-102398955D01*
G37*
G36*
X193904024Y-100112955D02*
X193936736Y-100122879D01*
X193966890Y-100138997D01*
X193993316Y-100160684D01*
X194015003Y-100187110D01*
X194031121Y-100217264D01*
X194041045Y-100249976D01*
X194045000Y-100290138D01*
X194045000Y-100877862D01*
X194041045Y-100918024D01*
X194031121Y-100950736D01*
X194015003Y-100980890D01*
X193993316Y-101007316D01*
X193966890Y-101029003D01*
X193936736Y-101045121D01*
X193904024Y-101055045D01*
X193863862Y-101059000D01*
X193176138Y-101059000D01*
X193135976Y-101055045D01*
X193103264Y-101045121D01*
X193073110Y-101029003D01*
X193046684Y-101007316D01*
X193024997Y-100980890D01*
X193008879Y-100950736D01*
X192998955Y-100918024D01*
X192995000Y-100877862D01*
X192995000Y-100290138D01*
X192998955Y-100249976D01*
X193008879Y-100217264D01*
X193024997Y-100187110D01*
X193046684Y-100160684D01*
X193073110Y-100138997D01*
X193103264Y-100122879D01*
X193135976Y-100112955D01*
X193176138Y-100109000D01*
X193863862Y-100109000D01*
X193904024Y-100112955D01*
X193904024Y-100112955D01*
G37*
G36*
X188344024Y-100112955D02*
X188376736Y-100122879D01*
X188406890Y-100138997D01*
X188433316Y-100160684D01*
X188455003Y-100187110D01*
X188471121Y-100217264D01*
X188481045Y-100249976D01*
X188485000Y-100290138D01*
X188485000Y-100877862D01*
X188481045Y-100918024D01*
X188471121Y-100950736D01*
X188455003Y-100980890D01*
X188433316Y-101007316D01*
X188406890Y-101029003D01*
X188376736Y-101045121D01*
X188344024Y-101055045D01*
X188303862Y-101059000D01*
X187616138Y-101059000D01*
X187575976Y-101055045D01*
X187543264Y-101045121D01*
X187513110Y-101029003D01*
X187486684Y-101007316D01*
X187464997Y-100980890D01*
X187448879Y-100950736D01*
X187438955Y-100918024D01*
X187435000Y-100877862D01*
X187435000Y-100290138D01*
X187438955Y-100249976D01*
X187448879Y-100217264D01*
X187464997Y-100187110D01*
X187486684Y-100160684D01*
X187513110Y-100138997D01*
X187543264Y-100122879D01*
X187575976Y-100112955D01*
X187616138Y-100109000D01*
X188303862Y-100109000D01*
X188344024Y-100112955D01*
X188344024Y-100112955D01*
G37*
G36*
X190094024Y-100112955D02*
X190126736Y-100122879D01*
X190156890Y-100138997D01*
X190183316Y-100160684D01*
X190205003Y-100187110D01*
X190221121Y-100217264D01*
X190231045Y-100249976D01*
X190235000Y-100290138D01*
X190235000Y-100877862D01*
X190231045Y-100918024D01*
X190221121Y-100950736D01*
X190205003Y-100980890D01*
X190183316Y-101007316D01*
X190156890Y-101029003D01*
X190126736Y-101045121D01*
X190094024Y-101055045D01*
X190053862Y-101059000D01*
X189366138Y-101059000D01*
X189325976Y-101055045D01*
X189293264Y-101045121D01*
X189263110Y-101029003D01*
X189236684Y-101007316D01*
X189214997Y-100980890D01*
X189198879Y-100950736D01*
X189188955Y-100918024D01*
X189185000Y-100877862D01*
X189185000Y-100290138D01*
X189188955Y-100249976D01*
X189198879Y-100217264D01*
X189214997Y-100187110D01*
X189236684Y-100160684D01*
X189263110Y-100138997D01*
X189293264Y-100122879D01*
X189325976Y-100112955D01*
X189366138Y-100109000D01*
X190053862Y-100109000D01*
X190094024Y-100112955D01*
X190094024Y-100112955D01*
G37*
G36*
X192154024Y-100112955D02*
X192186736Y-100122879D01*
X192216890Y-100138997D01*
X192243316Y-100160684D01*
X192265003Y-100187110D01*
X192281121Y-100217264D01*
X192291045Y-100249976D01*
X192295000Y-100290138D01*
X192295000Y-100877862D01*
X192291045Y-100918024D01*
X192281121Y-100950736D01*
X192265003Y-100980890D01*
X192243316Y-101007316D01*
X192216890Y-101029003D01*
X192186736Y-101045121D01*
X192154024Y-101055045D01*
X192113862Y-101059000D01*
X191426138Y-101059000D01*
X191385976Y-101055045D01*
X191353264Y-101045121D01*
X191323110Y-101029003D01*
X191296684Y-101007316D01*
X191274997Y-100980890D01*
X191258879Y-100950736D01*
X191248955Y-100918024D01*
X191245000Y-100877862D01*
X191245000Y-100290138D01*
X191248955Y-100249976D01*
X191258879Y-100217264D01*
X191274997Y-100187110D01*
X191296684Y-100160684D01*
X191323110Y-100138997D01*
X191353264Y-100122879D01*
X191385976Y-100112955D01*
X191426138Y-100109000D01*
X192113862Y-100109000D01*
X192154024Y-100112955D01*
X192154024Y-100112955D01*
G37*
G36*
X247554024Y-99858955D02*
X247586736Y-99868879D01*
X247616890Y-99884997D01*
X247643316Y-99906684D01*
X247665003Y-99933110D01*
X247681121Y-99963264D01*
X247691045Y-99995976D01*
X247695000Y-100036138D01*
X247695000Y-100623862D01*
X247691045Y-100664024D01*
X247681121Y-100696736D01*
X247665003Y-100726890D01*
X247643316Y-100753316D01*
X247616890Y-100775003D01*
X247586736Y-100791121D01*
X247554024Y-100801045D01*
X247513862Y-100805000D01*
X246826138Y-100805000D01*
X246785976Y-100801045D01*
X246753264Y-100791121D01*
X246723110Y-100775003D01*
X246696684Y-100753316D01*
X246674997Y-100726890D01*
X246658879Y-100696736D01*
X246648955Y-100664024D01*
X246645000Y-100623862D01*
X246645000Y-100036138D01*
X246648955Y-99995976D01*
X246658879Y-99963264D01*
X246674997Y-99933110D01*
X246696684Y-99906684D01*
X246723110Y-99884997D01*
X246753264Y-99868879D01*
X246785976Y-99858955D01*
X246826138Y-99855000D01*
X247513862Y-99855000D01*
X247554024Y-99858955D01*
X247554024Y-99858955D01*
G37*
G36*
X249304024Y-99858955D02*
X249336736Y-99868879D01*
X249366890Y-99884997D01*
X249393316Y-99906684D01*
X249415003Y-99933110D01*
X249431121Y-99963264D01*
X249441045Y-99995976D01*
X249445000Y-100036138D01*
X249445000Y-100623862D01*
X249441045Y-100664024D01*
X249431121Y-100696736D01*
X249415003Y-100726890D01*
X249393316Y-100753316D01*
X249366890Y-100775003D01*
X249336736Y-100791121D01*
X249304024Y-100801045D01*
X249263862Y-100805000D01*
X248576138Y-100805000D01*
X248535976Y-100801045D01*
X248503264Y-100791121D01*
X248473110Y-100775003D01*
X248446684Y-100753316D01*
X248424997Y-100726890D01*
X248408879Y-100696736D01*
X248398955Y-100664024D01*
X248395000Y-100623862D01*
X248395000Y-100036138D01*
X248398955Y-99995976D01*
X248408879Y-99963264D01*
X248424997Y-99933110D01*
X248446684Y-99906684D01*
X248473110Y-99884997D01*
X248503264Y-99868879D01*
X248535976Y-99858955D01*
X248576138Y-99855000D01*
X249263862Y-99855000D01*
X249304024Y-99858955D01*
X249304024Y-99858955D01*
G37*
G36*
X251364024Y-99858955D02*
X251396736Y-99868879D01*
X251426890Y-99884997D01*
X251453316Y-99906684D01*
X251475003Y-99933110D01*
X251491121Y-99963264D01*
X251501045Y-99995976D01*
X251505000Y-100036138D01*
X251505000Y-100623862D01*
X251501045Y-100664024D01*
X251491121Y-100696736D01*
X251475003Y-100726890D01*
X251453316Y-100753316D01*
X251426890Y-100775003D01*
X251396736Y-100791121D01*
X251364024Y-100801045D01*
X251323862Y-100805000D01*
X250636138Y-100805000D01*
X250595976Y-100801045D01*
X250563264Y-100791121D01*
X250533110Y-100775003D01*
X250506684Y-100753316D01*
X250484997Y-100726890D01*
X250468879Y-100696736D01*
X250458955Y-100664024D01*
X250455000Y-100623862D01*
X250455000Y-100036138D01*
X250458955Y-99995976D01*
X250468879Y-99963264D01*
X250484997Y-99933110D01*
X250506684Y-99906684D01*
X250533110Y-99884997D01*
X250563264Y-99868879D01*
X250595976Y-99858955D01*
X250636138Y-99855000D01*
X251323862Y-99855000D01*
X251364024Y-99858955D01*
X251364024Y-99858955D01*
G37*
G36*
X253114024Y-99858955D02*
X253146736Y-99868879D01*
X253176890Y-99884997D01*
X253203316Y-99906684D01*
X253225003Y-99933110D01*
X253241121Y-99963264D01*
X253251045Y-99995976D01*
X253255000Y-100036138D01*
X253255000Y-100623862D01*
X253251045Y-100664024D01*
X253241121Y-100696736D01*
X253225003Y-100726890D01*
X253203316Y-100753316D01*
X253176890Y-100775003D01*
X253146736Y-100791121D01*
X253114024Y-100801045D01*
X253073862Y-100805000D01*
X252386138Y-100805000D01*
X252345976Y-100801045D01*
X252313264Y-100791121D01*
X252283110Y-100775003D01*
X252256684Y-100753316D01*
X252234997Y-100726890D01*
X252218879Y-100696736D01*
X252208955Y-100664024D01*
X252205000Y-100623862D01*
X252205000Y-100036138D01*
X252208955Y-99995976D01*
X252218879Y-99963264D01*
X252234997Y-99933110D01*
X252256684Y-99906684D01*
X252283110Y-99884997D01*
X252313264Y-99868879D01*
X252345976Y-99858955D01*
X252386138Y-99855000D01*
X253073862Y-99855000D01*
X253114024Y-99858955D01*
X253114024Y-99858955D01*
G37*
G36*
X167808040Y-98073834D02*
X167931689Y-98098429D01*
X168113678Y-98173811D01*
X168277463Y-98283249D01*
X168416751Y-98422537D01*
X168526189Y-98586322D01*
X168601571Y-98768311D01*
X168640000Y-98961509D01*
X168640000Y-99158491D01*
X168601571Y-99351689D01*
X168526189Y-99533678D01*
X168416751Y-99697463D01*
X168277463Y-99836751D01*
X168113678Y-99946189D01*
X167931689Y-100021571D01*
X167815770Y-100044628D01*
X167738493Y-100060000D01*
X167541507Y-100060000D01*
X167464230Y-100044628D01*
X167348311Y-100021571D01*
X167166322Y-99946189D01*
X167002537Y-99836751D01*
X166863249Y-99697463D01*
X166753811Y-99533678D01*
X166678429Y-99351689D01*
X166640000Y-99158491D01*
X166640000Y-98961509D01*
X166678429Y-98768311D01*
X166753811Y-98586322D01*
X166863249Y-98422537D01*
X167002537Y-98283249D01*
X167166322Y-98173811D01*
X167348311Y-98098429D01*
X167471960Y-98073834D01*
X167541507Y-98060000D01*
X167738493Y-98060000D01*
X167808040Y-98073834D01*
X167808040Y-98073834D01*
G37*
G36*
X253114024Y-97318955D02*
X253146736Y-97328879D01*
X253176890Y-97344997D01*
X253203316Y-97366684D01*
X253225003Y-97393110D01*
X253241121Y-97423264D01*
X253251045Y-97455976D01*
X253255000Y-97496138D01*
X253255000Y-98083862D01*
X253251045Y-98124024D01*
X253241121Y-98156736D01*
X253225003Y-98186890D01*
X253203316Y-98213316D01*
X253176890Y-98235003D01*
X253146736Y-98251121D01*
X253114024Y-98261045D01*
X253073862Y-98265000D01*
X252386138Y-98265000D01*
X252345976Y-98261045D01*
X252313264Y-98251121D01*
X252283110Y-98235003D01*
X252256684Y-98213316D01*
X252234997Y-98186890D01*
X252218879Y-98156736D01*
X252208955Y-98124024D01*
X252205000Y-98083862D01*
X252205000Y-97496138D01*
X252208955Y-97455976D01*
X252218879Y-97423264D01*
X252234997Y-97393110D01*
X252256684Y-97366684D01*
X252283110Y-97344997D01*
X252313264Y-97328879D01*
X252345976Y-97318955D01*
X252386138Y-97315000D01*
X253073862Y-97315000D01*
X253114024Y-97318955D01*
X253114024Y-97318955D01*
G37*
G36*
X251364024Y-97318955D02*
X251396736Y-97328879D01*
X251426890Y-97344997D01*
X251453316Y-97366684D01*
X251475003Y-97393110D01*
X251491121Y-97423264D01*
X251501045Y-97455976D01*
X251505000Y-97496138D01*
X251505000Y-98083862D01*
X251501045Y-98124024D01*
X251491121Y-98156736D01*
X251475003Y-98186890D01*
X251453316Y-98213316D01*
X251426890Y-98235003D01*
X251396736Y-98251121D01*
X251364024Y-98261045D01*
X251323862Y-98265000D01*
X250636138Y-98265000D01*
X250595976Y-98261045D01*
X250563264Y-98251121D01*
X250533110Y-98235003D01*
X250506684Y-98213316D01*
X250484997Y-98186890D01*
X250468879Y-98156736D01*
X250458955Y-98124024D01*
X250455000Y-98083862D01*
X250455000Y-97496138D01*
X250458955Y-97455976D01*
X250468879Y-97423264D01*
X250484997Y-97393110D01*
X250506684Y-97366684D01*
X250533110Y-97344997D01*
X250563264Y-97328879D01*
X250595976Y-97318955D01*
X250636138Y-97315000D01*
X251323862Y-97315000D01*
X251364024Y-97318955D01*
X251364024Y-97318955D01*
G37*
G36*
X249304024Y-97318955D02*
X249336736Y-97328879D01*
X249366890Y-97344997D01*
X249393316Y-97366684D01*
X249415003Y-97393110D01*
X249431121Y-97423264D01*
X249441045Y-97455976D01*
X249445000Y-97496138D01*
X249445000Y-98083862D01*
X249441045Y-98124024D01*
X249431121Y-98156736D01*
X249415003Y-98186890D01*
X249393316Y-98213316D01*
X249366890Y-98235003D01*
X249336736Y-98251121D01*
X249304024Y-98261045D01*
X249263862Y-98265000D01*
X248576138Y-98265000D01*
X248535976Y-98261045D01*
X248503264Y-98251121D01*
X248473110Y-98235003D01*
X248446684Y-98213316D01*
X248424997Y-98186890D01*
X248408879Y-98156736D01*
X248398955Y-98124024D01*
X248395000Y-98083862D01*
X248395000Y-97496138D01*
X248398955Y-97455976D01*
X248408879Y-97423264D01*
X248424997Y-97393110D01*
X248446684Y-97366684D01*
X248473110Y-97344997D01*
X248503264Y-97328879D01*
X248535976Y-97318955D01*
X248576138Y-97315000D01*
X249263862Y-97315000D01*
X249304024Y-97318955D01*
X249304024Y-97318955D01*
G37*
G36*
X247554024Y-97318955D02*
X247586736Y-97328879D01*
X247616890Y-97344997D01*
X247643316Y-97366684D01*
X247665003Y-97393110D01*
X247681121Y-97423264D01*
X247691045Y-97455976D01*
X247695000Y-97496138D01*
X247695000Y-98083862D01*
X247691045Y-98124024D01*
X247681121Y-98156736D01*
X247665003Y-98186890D01*
X247643316Y-98213316D01*
X247616890Y-98235003D01*
X247586736Y-98251121D01*
X247554024Y-98261045D01*
X247513862Y-98265000D01*
X246826138Y-98265000D01*
X246785976Y-98261045D01*
X246753264Y-98251121D01*
X246723110Y-98235003D01*
X246696684Y-98213316D01*
X246674997Y-98186890D01*
X246658879Y-98156736D01*
X246648955Y-98124024D01*
X246645000Y-98083862D01*
X246645000Y-97496138D01*
X246648955Y-97455976D01*
X246658879Y-97423264D01*
X246674997Y-97393110D01*
X246696684Y-97366684D01*
X246723110Y-97344997D01*
X246753264Y-97328879D01*
X246785976Y-97318955D01*
X246826138Y-97315000D01*
X247513862Y-97315000D01*
X247554024Y-97318955D01*
X247554024Y-97318955D01*
G37*
G36*
X212766040Y-95533834D02*
X212889689Y-95558429D01*
X213071678Y-95633811D01*
X213235463Y-95743249D01*
X213374751Y-95882537D01*
X213484189Y-96046322D01*
X213559571Y-96228311D01*
X213598000Y-96421509D01*
X213598000Y-96618491D01*
X213559571Y-96811689D01*
X213484189Y-96993678D01*
X213374751Y-97157463D01*
X213235463Y-97296751D01*
X213071678Y-97406189D01*
X212889689Y-97481571D01*
X212773770Y-97504628D01*
X212696493Y-97520000D01*
X212499507Y-97520000D01*
X212422230Y-97504628D01*
X212306311Y-97481571D01*
X212124322Y-97406189D01*
X211960537Y-97296751D01*
X211821249Y-97157463D01*
X211711811Y-96993678D01*
X211636429Y-96811689D01*
X211598000Y-96618491D01*
X211598000Y-96421509D01*
X211636429Y-96228311D01*
X211711811Y-96046322D01*
X211821249Y-95882537D01*
X211960537Y-95743249D01*
X212124322Y-95633811D01*
X212306311Y-95558429D01*
X212429960Y-95533834D01*
X212499507Y-95520000D01*
X212696493Y-95520000D01*
X212766040Y-95533834D01*
X212766040Y-95533834D01*
G37*
G36*
X222173352Y-95750743D02*
X222318941Y-95811048D01*
X222449973Y-95898601D01*
X222561399Y-96010027D01*
X222648952Y-96141059D01*
X222709257Y-96286648D01*
X222740000Y-96441205D01*
X222740000Y-96598795D01*
X222709257Y-96753352D01*
X222648952Y-96898941D01*
X222561399Y-97029973D01*
X222449973Y-97141399D01*
X222318941Y-97228952D01*
X222173352Y-97289257D01*
X222018795Y-97320000D01*
X221861205Y-97320000D01*
X221706648Y-97289257D01*
X221561059Y-97228952D01*
X221430027Y-97141399D01*
X221318601Y-97029973D01*
X221231048Y-96898941D01*
X221170743Y-96753352D01*
X221140000Y-96598795D01*
X221140000Y-96441205D01*
X221170743Y-96286648D01*
X221231048Y-96141059D01*
X221318601Y-96010027D01*
X221430027Y-95898601D01*
X221561059Y-95811048D01*
X221706648Y-95750743D01*
X221861205Y-95720000D01*
X222018795Y-95720000D01*
X222173352Y-95750743D01*
X222173352Y-95750743D01*
G37*
G36*
X219240000Y-97320000D02*
X217640000Y-97320000D01*
X217640000Y-95720000D01*
X219240000Y-95720000D01*
X219240000Y-97320000D01*
X219240000Y-97320000D01*
G37*
G36*
X203373195Y-95777522D02*
X203422267Y-95787283D01*
X203479643Y-95811049D01*
X203560942Y-95844724D01*
X203685750Y-95928118D01*
X203791882Y-96034250D01*
X203791884Y-96034253D01*
X203875276Y-96159058D01*
X203928126Y-96286649D01*
X203932717Y-96297734D01*
X203962000Y-96444948D01*
X203962000Y-96595052D01*
X203957337Y-96618493D01*
X203932717Y-96742267D01*
X203928125Y-96753352D01*
X203875276Y-96880942D01*
X203791882Y-97005750D01*
X203685750Y-97111882D01*
X203685747Y-97111884D01*
X203560942Y-97195276D01*
X203422267Y-97252717D01*
X203373195Y-97262478D01*
X203275052Y-97282000D01*
X203124948Y-97282000D01*
X203026805Y-97262478D01*
X202977733Y-97252717D01*
X202839058Y-97195276D01*
X202714253Y-97111884D01*
X202714250Y-97111882D01*
X202608118Y-97005750D01*
X202524724Y-96880942D01*
X202471875Y-96753352D01*
X202467283Y-96742267D01*
X202442663Y-96618493D01*
X202438000Y-96595052D01*
X202438000Y-96444948D01*
X202467283Y-96297734D01*
X202471875Y-96286649D01*
X202524724Y-96159058D01*
X202608116Y-96034253D01*
X202608118Y-96034250D01*
X202714250Y-95928118D01*
X202839058Y-95844724D01*
X202920357Y-95811049D01*
X202977733Y-95787283D01*
X203026805Y-95777522D01*
X203124948Y-95758000D01*
X203275052Y-95758000D01*
X203373195Y-95777522D01*
X203373195Y-95777522D01*
G37*
G36*
X180513195Y-95777522D02*
X180562267Y-95787283D01*
X180619643Y-95811049D01*
X180700942Y-95844724D01*
X180825750Y-95928118D01*
X180931882Y-96034250D01*
X180931884Y-96034253D01*
X181015276Y-96159058D01*
X181068126Y-96286649D01*
X181072717Y-96297734D01*
X181102000Y-96444948D01*
X181102000Y-96595052D01*
X181097337Y-96618493D01*
X181072717Y-96742267D01*
X181068125Y-96753352D01*
X181015276Y-96880942D01*
X180931882Y-97005750D01*
X180825750Y-97111882D01*
X180825747Y-97111884D01*
X180700942Y-97195276D01*
X180562267Y-97252717D01*
X180513195Y-97262478D01*
X180415052Y-97282000D01*
X180264948Y-97282000D01*
X180166805Y-97262478D01*
X180117733Y-97252717D01*
X179979058Y-97195276D01*
X179854253Y-97111884D01*
X179854250Y-97111882D01*
X179748118Y-97005750D01*
X179664724Y-96880942D01*
X179611875Y-96753352D01*
X179607283Y-96742267D01*
X179582663Y-96618493D01*
X179578000Y-96595052D01*
X179578000Y-96444948D01*
X179607283Y-96297734D01*
X179611875Y-96286649D01*
X179664724Y-96159058D01*
X179748116Y-96034253D01*
X179748118Y-96034250D01*
X179854250Y-95928118D01*
X179979058Y-95844724D01*
X180060357Y-95811049D01*
X180117733Y-95787283D01*
X180166805Y-95777522D01*
X180264948Y-95758000D01*
X180415052Y-95758000D01*
X180513195Y-95777522D01*
X180513195Y-95777522D01*
G37*
G36*
X183053195Y-95777522D02*
X183102267Y-95787283D01*
X183159643Y-95811049D01*
X183240942Y-95844724D01*
X183365750Y-95928118D01*
X183471882Y-96034250D01*
X183471884Y-96034253D01*
X183555276Y-96159058D01*
X183608126Y-96286649D01*
X183612717Y-96297734D01*
X183642000Y-96444948D01*
X183642000Y-96595052D01*
X183637337Y-96618493D01*
X183612717Y-96742267D01*
X183608125Y-96753352D01*
X183555276Y-96880942D01*
X183471882Y-97005750D01*
X183365750Y-97111882D01*
X183365747Y-97111884D01*
X183240942Y-97195276D01*
X183102267Y-97252717D01*
X183053195Y-97262478D01*
X182955052Y-97282000D01*
X182804948Y-97282000D01*
X182706805Y-97262478D01*
X182657733Y-97252717D01*
X182519058Y-97195276D01*
X182394253Y-97111884D01*
X182394250Y-97111882D01*
X182288118Y-97005750D01*
X182204724Y-96880942D01*
X182151875Y-96753352D01*
X182147283Y-96742267D01*
X182122663Y-96618493D01*
X182118000Y-96595052D01*
X182118000Y-96444948D01*
X182147283Y-96297734D01*
X182151875Y-96286649D01*
X182204724Y-96159058D01*
X182288116Y-96034253D01*
X182288118Y-96034250D01*
X182394250Y-95928118D01*
X182519058Y-95844724D01*
X182600357Y-95811049D01*
X182657733Y-95787283D01*
X182706805Y-95777522D01*
X182804948Y-95758000D01*
X182955052Y-95758000D01*
X183053195Y-95777522D01*
X183053195Y-95777522D01*
G37*
G36*
X205913195Y-95777522D02*
X205962267Y-95787283D01*
X206019643Y-95811049D01*
X206100942Y-95844724D01*
X206225750Y-95928118D01*
X206331882Y-96034250D01*
X206331884Y-96034253D01*
X206415276Y-96159058D01*
X206468126Y-96286649D01*
X206472717Y-96297734D01*
X206502000Y-96444948D01*
X206502000Y-96595052D01*
X206497337Y-96618493D01*
X206472717Y-96742267D01*
X206468125Y-96753352D01*
X206415276Y-96880942D01*
X206331882Y-97005750D01*
X206225750Y-97111882D01*
X206225747Y-97111884D01*
X206100942Y-97195276D01*
X205962267Y-97252717D01*
X205913195Y-97262478D01*
X205815052Y-97282000D01*
X205664948Y-97282000D01*
X205566805Y-97262478D01*
X205517733Y-97252717D01*
X205379058Y-97195276D01*
X205254253Y-97111884D01*
X205254250Y-97111882D01*
X205148118Y-97005750D01*
X205064724Y-96880942D01*
X205011875Y-96753352D01*
X205007283Y-96742267D01*
X204982663Y-96618493D01*
X204978000Y-96595052D01*
X204978000Y-96444948D01*
X205007283Y-96297734D01*
X205011875Y-96286649D01*
X205064724Y-96159058D01*
X205148116Y-96034253D01*
X205148118Y-96034250D01*
X205254250Y-95928118D01*
X205379058Y-95844724D01*
X205460357Y-95811049D01*
X205517733Y-95787283D01*
X205566805Y-95777522D01*
X205664948Y-95758000D01*
X205815052Y-95758000D01*
X205913195Y-95777522D01*
X205913195Y-95777522D01*
G37*
G36*
X208453195Y-95777522D02*
X208502267Y-95787283D01*
X208559643Y-95811049D01*
X208640942Y-95844724D01*
X208765750Y-95928118D01*
X208871882Y-96034250D01*
X208871884Y-96034253D01*
X208955276Y-96159058D01*
X209008126Y-96286649D01*
X209012717Y-96297734D01*
X209042000Y-96444948D01*
X209042000Y-96595052D01*
X209037337Y-96618493D01*
X209012717Y-96742267D01*
X209008125Y-96753352D01*
X208955276Y-96880942D01*
X208871882Y-97005750D01*
X208765750Y-97111882D01*
X208765747Y-97111884D01*
X208640942Y-97195276D01*
X208502267Y-97252717D01*
X208453195Y-97262478D01*
X208355052Y-97282000D01*
X208204948Y-97282000D01*
X208106805Y-97262478D01*
X208057733Y-97252717D01*
X207919058Y-97195276D01*
X207794253Y-97111884D01*
X207794250Y-97111882D01*
X207688118Y-97005750D01*
X207604724Y-96880942D01*
X207551875Y-96753352D01*
X207547283Y-96742267D01*
X207522663Y-96618493D01*
X207518000Y-96595052D01*
X207518000Y-96444948D01*
X207547283Y-96297734D01*
X207551875Y-96286649D01*
X207604724Y-96159058D01*
X207688116Y-96034253D01*
X207688118Y-96034250D01*
X207794250Y-95928118D01*
X207919058Y-95844724D01*
X208000357Y-95811049D01*
X208057733Y-95787283D01*
X208106805Y-95777522D01*
X208204948Y-95758000D01*
X208355052Y-95758000D01*
X208453195Y-95777522D01*
X208453195Y-95777522D01*
G37*
G36*
X251364024Y-94778955D02*
X251396736Y-94788879D01*
X251426890Y-94804997D01*
X251453316Y-94826684D01*
X251475003Y-94853110D01*
X251491121Y-94883264D01*
X251501045Y-94915976D01*
X251505000Y-94956138D01*
X251505000Y-95543862D01*
X251501045Y-95584024D01*
X251491121Y-95616736D01*
X251475003Y-95646890D01*
X251453316Y-95673316D01*
X251426890Y-95695003D01*
X251396736Y-95711121D01*
X251364024Y-95721045D01*
X251323862Y-95725000D01*
X250636138Y-95725000D01*
X250595976Y-95721045D01*
X250563264Y-95711121D01*
X250533110Y-95695003D01*
X250506684Y-95673316D01*
X250484997Y-95646890D01*
X250468879Y-95616736D01*
X250458955Y-95584024D01*
X250455000Y-95543862D01*
X250455000Y-94956138D01*
X250458955Y-94915976D01*
X250468879Y-94883264D01*
X250484997Y-94853110D01*
X250506684Y-94826684D01*
X250533110Y-94804997D01*
X250563264Y-94788879D01*
X250595976Y-94778955D01*
X250636138Y-94775000D01*
X251323862Y-94775000D01*
X251364024Y-94778955D01*
X251364024Y-94778955D01*
G37*
G36*
X249304024Y-94778955D02*
X249336736Y-94788879D01*
X249366890Y-94804997D01*
X249393316Y-94826684D01*
X249415003Y-94853110D01*
X249431121Y-94883264D01*
X249441045Y-94915976D01*
X249445000Y-94956138D01*
X249445000Y-95543862D01*
X249441045Y-95584024D01*
X249431121Y-95616736D01*
X249415003Y-95646890D01*
X249393316Y-95673316D01*
X249366890Y-95695003D01*
X249336736Y-95711121D01*
X249304024Y-95721045D01*
X249263862Y-95725000D01*
X248576138Y-95725000D01*
X248535976Y-95721045D01*
X248503264Y-95711121D01*
X248473110Y-95695003D01*
X248446684Y-95673316D01*
X248424997Y-95646890D01*
X248408879Y-95616736D01*
X248398955Y-95584024D01*
X248395000Y-95543862D01*
X248395000Y-94956138D01*
X248398955Y-94915976D01*
X248408879Y-94883264D01*
X248424997Y-94853110D01*
X248446684Y-94826684D01*
X248473110Y-94804997D01*
X248503264Y-94788879D01*
X248535976Y-94778955D01*
X248576138Y-94775000D01*
X249263862Y-94775000D01*
X249304024Y-94778955D01*
X249304024Y-94778955D01*
G37*
G36*
X247554024Y-94778955D02*
X247586736Y-94788879D01*
X247616890Y-94804997D01*
X247643316Y-94826684D01*
X247665003Y-94853110D01*
X247681121Y-94883264D01*
X247691045Y-94915976D01*
X247695000Y-94956138D01*
X247695000Y-95543862D01*
X247691045Y-95584024D01*
X247681121Y-95616736D01*
X247665003Y-95646890D01*
X247643316Y-95673316D01*
X247616890Y-95695003D01*
X247586736Y-95711121D01*
X247554024Y-95721045D01*
X247513862Y-95725000D01*
X246826138Y-95725000D01*
X246785976Y-95721045D01*
X246753264Y-95711121D01*
X246723110Y-95695003D01*
X246696684Y-95673316D01*
X246674997Y-95646890D01*
X246658879Y-95616736D01*
X246648955Y-95584024D01*
X246645000Y-95543862D01*
X246645000Y-94956138D01*
X246648955Y-94915976D01*
X246658879Y-94883264D01*
X246674997Y-94853110D01*
X246696684Y-94826684D01*
X246723110Y-94804997D01*
X246753264Y-94788879D01*
X246785976Y-94778955D01*
X246826138Y-94775000D01*
X247513862Y-94775000D01*
X247554024Y-94778955D01*
X247554024Y-94778955D01*
G37*
G36*
X253114024Y-94778955D02*
X253146736Y-94788879D01*
X253176890Y-94804997D01*
X253203316Y-94826684D01*
X253225003Y-94853110D01*
X253241121Y-94883264D01*
X253251045Y-94915976D01*
X253255000Y-94956138D01*
X253255000Y-95543862D01*
X253251045Y-95584024D01*
X253241121Y-95616736D01*
X253225003Y-95646890D01*
X253203316Y-95673316D01*
X253176890Y-95695003D01*
X253146736Y-95711121D01*
X253114024Y-95721045D01*
X253073862Y-95725000D01*
X252386138Y-95725000D01*
X252345976Y-95721045D01*
X252313264Y-95711121D01*
X252283110Y-95695003D01*
X252256684Y-95673316D01*
X252234997Y-95646890D01*
X252218879Y-95616736D01*
X252208955Y-95584024D01*
X252205000Y-95543862D01*
X252205000Y-94956138D01*
X252208955Y-94915976D01*
X252218879Y-94883264D01*
X252234997Y-94853110D01*
X252256684Y-94826684D01*
X252283110Y-94804997D01*
X252313264Y-94788879D01*
X252345976Y-94778955D01*
X252386138Y-94775000D01*
X253073862Y-94775000D01*
X253114024Y-94778955D01*
X253114024Y-94778955D01*
G37*
G36*
X173170000Y-93740000D02*
X172270000Y-93740000D01*
X172270000Y-92940000D01*
X173170000Y-92940000D01*
X173170000Y-93740000D01*
X173170000Y-93740000D01*
G37*
G36*
X163010000Y-93740000D02*
X162110000Y-93740000D01*
X162110000Y-92940000D01*
X163010000Y-92940000D01*
X163010000Y-93740000D01*
X163010000Y-93740000D01*
G37*
G36*
X247554024Y-92238955D02*
X247586736Y-92248879D01*
X247616890Y-92264997D01*
X247643316Y-92286684D01*
X247665003Y-92313110D01*
X247681121Y-92343264D01*
X247691045Y-92375976D01*
X247695000Y-92416138D01*
X247695000Y-93003862D01*
X247691045Y-93044024D01*
X247681121Y-93076736D01*
X247665003Y-93106890D01*
X247643316Y-93133316D01*
X247616890Y-93155003D01*
X247586736Y-93171121D01*
X247554024Y-93181045D01*
X247513862Y-93185000D01*
X246826138Y-93185000D01*
X246785976Y-93181045D01*
X246753264Y-93171121D01*
X246723110Y-93155003D01*
X246696684Y-93133316D01*
X246674997Y-93106890D01*
X246658879Y-93076736D01*
X246648955Y-93044024D01*
X246645000Y-93003862D01*
X246645000Y-92416138D01*
X246648955Y-92375976D01*
X246658879Y-92343264D01*
X246674997Y-92313110D01*
X246696684Y-92286684D01*
X246723110Y-92264997D01*
X246753264Y-92248879D01*
X246785976Y-92238955D01*
X246826138Y-92235000D01*
X247513862Y-92235000D01*
X247554024Y-92238955D01*
X247554024Y-92238955D01*
G37*
G36*
X253114024Y-92238955D02*
X253146736Y-92248879D01*
X253176890Y-92264997D01*
X253203316Y-92286684D01*
X253225003Y-92313110D01*
X253241121Y-92343264D01*
X253251045Y-92375976D01*
X253255000Y-92416138D01*
X253255000Y-93003862D01*
X253251045Y-93044024D01*
X253241121Y-93076736D01*
X253225003Y-93106890D01*
X253203316Y-93133316D01*
X253176890Y-93155003D01*
X253146736Y-93171121D01*
X253114024Y-93181045D01*
X253073862Y-93185000D01*
X252386138Y-93185000D01*
X252345976Y-93181045D01*
X252313264Y-93171121D01*
X252283110Y-93155003D01*
X252256684Y-93133316D01*
X252234997Y-93106890D01*
X252218879Y-93076736D01*
X252208955Y-93044024D01*
X252205000Y-93003862D01*
X252205000Y-92416138D01*
X252208955Y-92375976D01*
X252218879Y-92343264D01*
X252234997Y-92313110D01*
X252256684Y-92286684D01*
X252283110Y-92264997D01*
X252313264Y-92248879D01*
X252345976Y-92238955D01*
X252386138Y-92235000D01*
X253073862Y-92235000D01*
X253114024Y-92238955D01*
X253114024Y-92238955D01*
G37*
G36*
X249304024Y-92238955D02*
X249336736Y-92248879D01*
X249366890Y-92264997D01*
X249393316Y-92286684D01*
X249415003Y-92313110D01*
X249431121Y-92343264D01*
X249441045Y-92375976D01*
X249445000Y-92416138D01*
X249445000Y-93003862D01*
X249441045Y-93044024D01*
X249431121Y-93076736D01*
X249415003Y-93106890D01*
X249393316Y-93133316D01*
X249366890Y-93155003D01*
X249336736Y-93171121D01*
X249304024Y-93181045D01*
X249263862Y-93185000D01*
X248576138Y-93185000D01*
X248535976Y-93181045D01*
X248503264Y-93171121D01*
X248473110Y-93155003D01*
X248446684Y-93133316D01*
X248424997Y-93106890D01*
X248408879Y-93076736D01*
X248398955Y-93044024D01*
X248395000Y-93003862D01*
X248395000Y-92416138D01*
X248398955Y-92375976D01*
X248408879Y-92343264D01*
X248424997Y-92313110D01*
X248446684Y-92286684D01*
X248473110Y-92264997D01*
X248503264Y-92248879D01*
X248535976Y-92238955D01*
X248576138Y-92235000D01*
X249263862Y-92235000D01*
X249304024Y-92238955D01*
X249304024Y-92238955D01*
G37*
G36*
X251364024Y-92238955D02*
X251396736Y-92248879D01*
X251426890Y-92264997D01*
X251453316Y-92286684D01*
X251475003Y-92313110D01*
X251491121Y-92343264D01*
X251501045Y-92375976D01*
X251505000Y-92416138D01*
X251505000Y-93003862D01*
X251501045Y-93044024D01*
X251491121Y-93076736D01*
X251475003Y-93106890D01*
X251453316Y-93133316D01*
X251426890Y-93155003D01*
X251396736Y-93171121D01*
X251364024Y-93181045D01*
X251323862Y-93185000D01*
X250636138Y-93185000D01*
X250595976Y-93181045D01*
X250563264Y-93171121D01*
X250533110Y-93155003D01*
X250506684Y-93133316D01*
X250484997Y-93106890D01*
X250468879Y-93076736D01*
X250458955Y-93044024D01*
X250455000Y-93003862D01*
X250455000Y-92416138D01*
X250458955Y-92375976D01*
X250468879Y-92343264D01*
X250484997Y-92313110D01*
X250506684Y-92286684D01*
X250533110Y-92264997D01*
X250563264Y-92248879D01*
X250595976Y-92238955D01*
X250636138Y-92235000D01*
X251323862Y-92235000D01*
X251364024Y-92238955D01*
X251364024Y-92238955D01*
G37*
G36*
X165010000Y-92790000D02*
X164110000Y-92790000D01*
X164110000Y-91990000D01*
X165010000Y-91990000D01*
X165010000Y-92790000D01*
X165010000Y-92790000D01*
G37*
G36*
X175170000Y-92790000D02*
X174270000Y-92790000D01*
X174270000Y-91990000D01*
X175170000Y-91990000D01*
X175170000Y-92790000D01*
X175170000Y-92790000D01*
G37*
G36*
X163010000Y-91840000D02*
X162110000Y-91840000D01*
X162110000Y-91040000D01*
X163010000Y-91040000D01*
X163010000Y-91840000D01*
X163010000Y-91840000D01*
G37*
G36*
X173170000Y-91840000D02*
X172270000Y-91840000D01*
X172270000Y-91040000D01*
X173170000Y-91040000D01*
X173170000Y-91840000D01*
X173170000Y-91840000D01*
G37*
G36*
X166799770Y-87915372D02*
X166915689Y-87938429D01*
X167097678Y-88013811D01*
X167261463Y-88123249D01*
X167400751Y-88262537D01*
X167510189Y-88426322D01*
X167585571Y-88608311D01*
X167624000Y-88801509D01*
X167624000Y-88998491D01*
X167585571Y-89191689D01*
X167510189Y-89373678D01*
X167400751Y-89537463D01*
X167261463Y-89676751D01*
X167097678Y-89786189D01*
X166915689Y-89861571D01*
X166799770Y-89884628D01*
X166722493Y-89900000D01*
X166525507Y-89900000D01*
X166448230Y-89884628D01*
X166332311Y-89861571D01*
X166150322Y-89786189D01*
X165986537Y-89676751D01*
X165847249Y-89537463D01*
X165737811Y-89373678D01*
X165662429Y-89191689D01*
X165624000Y-88998491D01*
X165624000Y-88801509D01*
X165662429Y-88608311D01*
X165737811Y-88426322D01*
X165847249Y-88262537D01*
X165986537Y-88123249D01*
X166150322Y-88013811D01*
X166332311Y-87938429D01*
X166448230Y-87915372D01*
X166525507Y-87900000D01*
X166722493Y-87900000D01*
X166799770Y-87915372D01*
X166799770Y-87915372D01*
G37*
G36*
X177975770Y-87915372D02*
X178091689Y-87938429D01*
X178273678Y-88013811D01*
X178437463Y-88123249D01*
X178576751Y-88262537D01*
X178686189Y-88426322D01*
X178761571Y-88608311D01*
X178800000Y-88801509D01*
X178800000Y-88998491D01*
X178761571Y-89191689D01*
X178686189Y-89373678D01*
X178576751Y-89537463D01*
X178437463Y-89676751D01*
X178273678Y-89786189D01*
X178091689Y-89861571D01*
X177975770Y-89884628D01*
X177898493Y-89900000D01*
X177701507Y-89900000D01*
X177624230Y-89884628D01*
X177508311Y-89861571D01*
X177326322Y-89786189D01*
X177162537Y-89676751D01*
X177023249Y-89537463D01*
X176913811Y-89373678D01*
X176838429Y-89191689D01*
X176800000Y-88998491D01*
X176800000Y-88801509D01*
X176838429Y-88608311D01*
X176913811Y-88426322D01*
X177023249Y-88262537D01*
X177162537Y-88123249D01*
X177326322Y-88013811D01*
X177508311Y-87938429D01*
X177624230Y-87915372D01*
X177701507Y-87900000D01*
X177898493Y-87900000D01*
X177975770Y-87915372D01*
X177975770Y-87915372D01*
G37*
G36*
X162735770Y-87915372D02*
X162851689Y-87938429D01*
X163033678Y-88013811D01*
X163197463Y-88123249D01*
X163336751Y-88262537D01*
X163446189Y-88426322D01*
X163521571Y-88608311D01*
X163560000Y-88801509D01*
X163560000Y-88998491D01*
X163521571Y-89191689D01*
X163446189Y-89373678D01*
X163336751Y-89537463D01*
X163197463Y-89676751D01*
X163033678Y-89786189D01*
X162851689Y-89861571D01*
X162735770Y-89884628D01*
X162658493Y-89900000D01*
X162461507Y-89900000D01*
X162384230Y-89884628D01*
X162268311Y-89861571D01*
X162086322Y-89786189D01*
X161922537Y-89676751D01*
X161783249Y-89537463D01*
X161673811Y-89373678D01*
X161598429Y-89191689D01*
X161560000Y-88998491D01*
X161560000Y-88801509D01*
X161598429Y-88608311D01*
X161673811Y-88426322D01*
X161783249Y-88262537D01*
X161922537Y-88123249D01*
X162086322Y-88013811D01*
X162268311Y-87938429D01*
X162384230Y-87915372D01*
X162461507Y-87900000D01*
X162658493Y-87900000D01*
X162735770Y-87915372D01*
X162735770Y-87915372D01*
G37*
G36*
X172895770Y-87915372D02*
X173011689Y-87938429D01*
X173193678Y-88013811D01*
X173357463Y-88123249D01*
X173496751Y-88262537D01*
X173606189Y-88426322D01*
X173681571Y-88608311D01*
X173720000Y-88801509D01*
X173720000Y-88998491D01*
X173681571Y-89191689D01*
X173606189Y-89373678D01*
X173496751Y-89537463D01*
X173357463Y-89676751D01*
X173193678Y-89786189D01*
X173011689Y-89861571D01*
X172895770Y-89884628D01*
X172818493Y-89900000D01*
X172621507Y-89900000D01*
X172544230Y-89884628D01*
X172428311Y-89861571D01*
X172246322Y-89786189D01*
X172082537Y-89676751D01*
X171943249Y-89537463D01*
X171833811Y-89373678D01*
X171758429Y-89191689D01*
X171720000Y-88998491D01*
X171720000Y-88801509D01*
X171758429Y-88608311D01*
X171833811Y-88426322D01*
X171943249Y-88262537D01*
X172082537Y-88123249D01*
X172246322Y-88013811D01*
X172428311Y-87938429D01*
X172544230Y-87915372D01*
X172621507Y-87900000D01*
X172818493Y-87900000D01*
X172895770Y-87915372D01*
X172895770Y-87915372D01*
G37*
G36*
X137381683Y-88169206D02*
X137519992Y-88226495D01*
X137519995Y-88226497D01*
X137573933Y-88262537D01*
X137644476Y-88309673D01*
X137750327Y-88415524D01*
X137833505Y-88540008D01*
X137890794Y-88678317D01*
X137920000Y-88825145D01*
X137920000Y-88974855D01*
X137890794Y-89121683D01*
X137833505Y-89259992D01*
X137750327Y-89384476D01*
X137644476Y-89490327D01*
X137644473Y-89490329D01*
X137644472Y-89490330D01*
X137573928Y-89537466D01*
X137519992Y-89573505D01*
X137381683Y-89630794D01*
X137234855Y-89660000D01*
X137085145Y-89660000D01*
X136938317Y-89630794D01*
X136800008Y-89573505D01*
X136746072Y-89537466D01*
X136675528Y-89490330D01*
X136675527Y-89490329D01*
X136675524Y-89490327D01*
X136569673Y-89384476D01*
X136486495Y-89259992D01*
X136429206Y-89121683D01*
X136400000Y-88974855D01*
X136400000Y-88825145D01*
X136429206Y-88678317D01*
X136486495Y-88540008D01*
X136569673Y-88415524D01*
X136675524Y-88309673D01*
X136746068Y-88262537D01*
X136800005Y-88226497D01*
X136800008Y-88226495D01*
X136938317Y-88169206D01*
X137085145Y-88140000D01*
X137234855Y-88140000D01*
X137381683Y-88169206D01*
X137381683Y-88169206D01*
G37*
G36*
X134841683Y-88169206D02*
X134979992Y-88226495D01*
X134979995Y-88226497D01*
X135033933Y-88262537D01*
X135104476Y-88309673D01*
X135210327Y-88415524D01*
X135293505Y-88540008D01*
X135350794Y-88678317D01*
X135380000Y-88825145D01*
X135380000Y-88974855D01*
X135350794Y-89121683D01*
X135293505Y-89259992D01*
X135210327Y-89384476D01*
X135104476Y-89490327D01*
X135104473Y-89490329D01*
X135104472Y-89490330D01*
X135033928Y-89537466D01*
X134979992Y-89573505D01*
X134841683Y-89630794D01*
X134694855Y-89660000D01*
X134545145Y-89660000D01*
X134398317Y-89630794D01*
X134260008Y-89573505D01*
X134206072Y-89537466D01*
X134135528Y-89490330D01*
X134135527Y-89490329D01*
X134135524Y-89490327D01*
X134029673Y-89384476D01*
X133946495Y-89259992D01*
X133889206Y-89121683D01*
X133860000Y-88974855D01*
X133860000Y-88825145D01*
X133889206Y-88678317D01*
X133946495Y-88540008D01*
X134029673Y-88415524D01*
X134135524Y-88309673D01*
X134206068Y-88262537D01*
X134260005Y-88226497D01*
X134260008Y-88226495D01*
X134398317Y-88169206D01*
X134545145Y-88140000D01*
X134694855Y-88140000D01*
X134841683Y-88169206D01*
X134841683Y-88169206D01*
G37*
G36*
X132301683Y-88169206D02*
X132439992Y-88226495D01*
X132439995Y-88226497D01*
X132493933Y-88262537D01*
X132564476Y-88309673D01*
X132670327Y-88415524D01*
X132753505Y-88540008D01*
X132810794Y-88678317D01*
X132840000Y-88825145D01*
X132840000Y-88974855D01*
X132810794Y-89121683D01*
X132753505Y-89259992D01*
X132670327Y-89384476D01*
X132564476Y-89490327D01*
X132564473Y-89490329D01*
X132564472Y-89490330D01*
X132493928Y-89537466D01*
X132439992Y-89573505D01*
X132301683Y-89630794D01*
X132154855Y-89660000D01*
X132005145Y-89660000D01*
X131858317Y-89630794D01*
X131720008Y-89573505D01*
X131666072Y-89537466D01*
X131595528Y-89490330D01*
X131595527Y-89490329D01*
X131595524Y-89490327D01*
X131489673Y-89384476D01*
X131406495Y-89259992D01*
X131349206Y-89121683D01*
X131320000Y-88974855D01*
X131320000Y-88825145D01*
X131349206Y-88678317D01*
X131406495Y-88540008D01*
X131489673Y-88415524D01*
X131595524Y-88309673D01*
X131666068Y-88262537D01*
X131720005Y-88226497D01*
X131720008Y-88226495D01*
X131858317Y-88169206D01*
X132005145Y-88140000D01*
X132154855Y-88140000D01*
X132301683Y-88169206D01*
X132301683Y-88169206D01*
G37*
G36*
X218661683Y-88169206D02*
X218799992Y-88226495D01*
X218799995Y-88226497D01*
X218853933Y-88262537D01*
X218924476Y-88309673D01*
X219030327Y-88415524D01*
X219113505Y-88540008D01*
X219170794Y-88678317D01*
X219200000Y-88825145D01*
X219200000Y-88974855D01*
X219170794Y-89121683D01*
X219113505Y-89259992D01*
X219030327Y-89384476D01*
X218924476Y-89490327D01*
X218924473Y-89490329D01*
X218924472Y-89490330D01*
X218853928Y-89537466D01*
X218799992Y-89573505D01*
X218661683Y-89630794D01*
X218514855Y-89660000D01*
X218365145Y-89660000D01*
X218218317Y-89630794D01*
X218080008Y-89573505D01*
X218026072Y-89537466D01*
X217955528Y-89490330D01*
X217955527Y-89490329D01*
X217955524Y-89490327D01*
X217849673Y-89384476D01*
X217766495Y-89259992D01*
X217709206Y-89121683D01*
X217680000Y-88974855D01*
X217680000Y-88825145D01*
X217709206Y-88678317D01*
X217766495Y-88540008D01*
X217849673Y-88415524D01*
X217955524Y-88309673D01*
X218026068Y-88262537D01*
X218080005Y-88226497D01*
X218080008Y-88226495D01*
X218218317Y-88169206D01*
X218365145Y-88140000D01*
X218514855Y-88140000D01*
X218661683Y-88169206D01*
X218661683Y-88169206D01*
G37*
G36*
X216121683Y-88169206D02*
X216259992Y-88226495D01*
X216259995Y-88226497D01*
X216313933Y-88262537D01*
X216384476Y-88309673D01*
X216490327Y-88415524D01*
X216573505Y-88540008D01*
X216630794Y-88678317D01*
X216660000Y-88825145D01*
X216660000Y-88974855D01*
X216630794Y-89121683D01*
X216573505Y-89259992D01*
X216490327Y-89384476D01*
X216384476Y-89490327D01*
X216384473Y-89490329D01*
X216384472Y-89490330D01*
X216313928Y-89537466D01*
X216259992Y-89573505D01*
X216121683Y-89630794D01*
X215974855Y-89660000D01*
X215825145Y-89660000D01*
X215678317Y-89630794D01*
X215540008Y-89573505D01*
X215486072Y-89537466D01*
X215415528Y-89490330D01*
X215415527Y-89490329D01*
X215415524Y-89490327D01*
X215309673Y-89384476D01*
X215226495Y-89259992D01*
X215169206Y-89121683D01*
X215140000Y-88974855D01*
X215140000Y-88825145D01*
X215169206Y-88678317D01*
X215226495Y-88540008D01*
X215309673Y-88415524D01*
X215415524Y-88309673D01*
X215486068Y-88262537D01*
X215540005Y-88226497D01*
X215540008Y-88226495D01*
X215678317Y-88169206D01*
X215825145Y-88140000D01*
X215974855Y-88140000D01*
X216121683Y-88169206D01*
X216121683Y-88169206D01*
G37*
G36*
X213581683Y-88169206D02*
X213719992Y-88226495D01*
X213719995Y-88226497D01*
X213773933Y-88262537D01*
X213844476Y-88309673D01*
X213950327Y-88415524D01*
X214033505Y-88540008D01*
X214090794Y-88678317D01*
X214120000Y-88825145D01*
X214120000Y-88974855D01*
X214090794Y-89121683D01*
X214033505Y-89259992D01*
X213950327Y-89384476D01*
X213844476Y-89490327D01*
X213844473Y-89490329D01*
X213844472Y-89490330D01*
X213773928Y-89537466D01*
X213719992Y-89573505D01*
X213581683Y-89630794D01*
X213434855Y-89660000D01*
X213285145Y-89660000D01*
X213138317Y-89630794D01*
X213000008Y-89573505D01*
X212946072Y-89537466D01*
X212875528Y-89490330D01*
X212875527Y-89490329D01*
X212875524Y-89490327D01*
X212769673Y-89384476D01*
X212686495Y-89259992D01*
X212629206Y-89121683D01*
X212600000Y-88974855D01*
X212600000Y-88825145D01*
X212629206Y-88678317D01*
X212686495Y-88540008D01*
X212769673Y-88415524D01*
X212875524Y-88309673D01*
X212946068Y-88262537D01*
X213000005Y-88226497D01*
X213000008Y-88226495D01*
X213138317Y-88169206D01*
X213285145Y-88140000D01*
X213434855Y-88140000D01*
X213581683Y-88169206D01*
X213581683Y-88169206D01*
G37*
G36*
X198341683Y-88169206D02*
X198479992Y-88226495D01*
X198479995Y-88226497D01*
X198533933Y-88262537D01*
X198604476Y-88309673D01*
X198710327Y-88415524D01*
X198793505Y-88540008D01*
X198850794Y-88678317D01*
X198880000Y-88825145D01*
X198880000Y-88974855D01*
X198850794Y-89121683D01*
X198793505Y-89259992D01*
X198710327Y-89384476D01*
X198604476Y-89490327D01*
X198604473Y-89490329D01*
X198604472Y-89490330D01*
X198533928Y-89537466D01*
X198479992Y-89573505D01*
X198341683Y-89630794D01*
X198194855Y-89660000D01*
X198045145Y-89660000D01*
X197898317Y-89630794D01*
X197760008Y-89573505D01*
X197706072Y-89537466D01*
X197635528Y-89490330D01*
X197635527Y-89490329D01*
X197635524Y-89490327D01*
X197529673Y-89384476D01*
X197446495Y-89259992D01*
X197389206Y-89121683D01*
X197360000Y-88974855D01*
X197360000Y-88825145D01*
X197389206Y-88678317D01*
X197446495Y-88540008D01*
X197529673Y-88415524D01*
X197635524Y-88309673D01*
X197706068Y-88262537D01*
X197760005Y-88226497D01*
X197760008Y-88226495D01*
X197898317Y-88169206D01*
X198045145Y-88140000D01*
X198194855Y-88140000D01*
X198341683Y-88169206D01*
X198341683Y-88169206D01*
G37*
G36*
X142461683Y-88169206D02*
X142599992Y-88226495D01*
X142599995Y-88226497D01*
X142653933Y-88262537D01*
X142724476Y-88309673D01*
X142830327Y-88415524D01*
X142913505Y-88540008D01*
X142970794Y-88678317D01*
X143000000Y-88825145D01*
X143000000Y-88974855D01*
X142970794Y-89121683D01*
X142913505Y-89259992D01*
X142830327Y-89384476D01*
X142724476Y-89490327D01*
X142724473Y-89490329D01*
X142724472Y-89490330D01*
X142653928Y-89537466D01*
X142599992Y-89573505D01*
X142461683Y-89630794D01*
X142314855Y-89660000D01*
X142165145Y-89660000D01*
X142018317Y-89630794D01*
X141880008Y-89573505D01*
X141826072Y-89537466D01*
X141755528Y-89490330D01*
X141755527Y-89490329D01*
X141755524Y-89490327D01*
X141649673Y-89384476D01*
X141566495Y-89259992D01*
X141509206Y-89121683D01*
X141480000Y-88974855D01*
X141480000Y-88825145D01*
X141509206Y-88678317D01*
X141566495Y-88540008D01*
X141649673Y-88415524D01*
X141755524Y-88309673D01*
X141826068Y-88262537D01*
X141880005Y-88226497D01*
X141880008Y-88226495D01*
X142018317Y-88169206D01*
X142165145Y-88140000D01*
X142314855Y-88140000D01*
X142461683Y-88169206D01*
X142461683Y-88169206D01*
G37*
G36*
X145001683Y-88169206D02*
X145139992Y-88226495D01*
X145139995Y-88226497D01*
X145193933Y-88262537D01*
X145264476Y-88309673D01*
X145370327Y-88415524D01*
X145453505Y-88540008D01*
X145510794Y-88678317D01*
X145540000Y-88825145D01*
X145540000Y-88974855D01*
X145510794Y-89121683D01*
X145453505Y-89259992D01*
X145370327Y-89384476D01*
X145264476Y-89490327D01*
X145264473Y-89490329D01*
X145264472Y-89490330D01*
X145193928Y-89537466D01*
X145139992Y-89573505D01*
X145001683Y-89630794D01*
X144854855Y-89660000D01*
X144705145Y-89660000D01*
X144558317Y-89630794D01*
X144420008Y-89573505D01*
X144366072Y-89537466D01*
X144295528Y-89490330D01*
X144295527Y-89490329D01*
X144295524Y-89490327D01*
X144189673Y-89384476D01*
X144106495Y-89259992D01*
X144049206Y-89121683D01*
X144020000Y-88974855D01*
X144020000Y-88825145D01*
X144049206Y-88678317D01*
X144106495Y-88540008D01*
X144189673Y-88415524D01*
X144295524Y-88309673D01*
X144366068Y-88262537D01*
X144420005Y-88226497D01*
X144420008Y-88226495D01*
X144558317Y-88169206D01*
X144705145Y-88140000D01*
X144854855Y-88140000D01*
X145001683Y-88169206D01*
X145001683Y-88169206D01*
G37*
G36*
X147541683Y-88169206D02*
X147679992Y-88226495D01*
X147679995Y-88226497D01*
X147733933Y-88262537D01*
X147804476Y-88309673D01*
X147910327Y-88415524D01*
X147993505Y-88540008D01*
X148050794Y-88678317D01*
X148080000Y-88825145D01*
X148080000Y-88974855D01*
X148050794Y-89121683D01*
X147993505Y-89259992D01*
X147910327Y-89384476D01*
X147804476Y-89490327D01*
X147804473Y-89490329D01*
X147804472Y-89490330D01*
X147733928Y-89537466D01*
X147679992Y-89573505D01*
X147541683Y-89630794D01*
X147394855Y-89660000D01*
X147245145Y-89660000D01*
X147098317Y-89630794D01*
X146960008Y-89573505D01*
X146906072Y-89537466D01*
X146835528Y-89490330D01*
X146835527Y-89490329D01*
X146835524Y-89490327D01*
X146729673Y-89384476D01*
X146646495Y-89259992D01*
X146589206Y-89121683D01*
X146560000Y-88974855D01*
X146560000Y-88825145D01*
X146589206Y-88678317D01*
X146646495Y-88540008D01*
X146729673Y-88415524D01*
X146835524Y-88309673D01*
X146906068Y-88262537D01*
X146960005Y-88226497D01*
X146960008Y-88226495D01*
X147098317Y-88169206D01*
X147245145Y-88140000D01*
X147394855Y-88140000D01*
X147541683Y-88169206D01*
X147541683Y-88169206D01*
G37*
G36*
X152621683Y-88169206D02*
X152759992Y-88226495D01*
X152759995Y-88226497D01*
X152813933Y-88262537D01*
X152884476Y-88309673D01*
X152990327Y-88415524D01*
X153073505Y-88540008D01*
X153130794Y-88678317D01*
X153160000Y-88825145D01*
X153160000Y-88974855D01*
X153130794Y-89121683D01*
X153073505Y-89259992D01*
X152990327Y-89384476D01*
X152884476Y-89490327D01*
X152884473Y-89490329D01*
X152884472Y-89490330D01*
X152813928Y-89537466D01*
X152759992Y-89573505D01*
X152621683Y-89630794D01*
X152474855Y-89660000D01*
X152325145Y-89660000D01*
X152178317Y-89630794D01*
X152040008Y-89573505D01*
X151986072Y-89537466D01*
X151915528Y-89490330D01*
X151915527Y-89490329D01*
X151915524Y-89490327D01*
X151809673Y-89384476D01*
X151726495Y-89259992D01*
X151669206Y-89121683D01*
X151640000Y-88974855D01*
X151640000Y-88825145D01*
X151669206Y-88678317D01*
X151726495Y-88540008D01*
X151809673Y-88415524D01*
X151915524Y-88309673D01*
X151986068Y-88262537D01*
X152040005Y-88226497D01*
X152040008Y-88226495D01*
X152178317Y-88169206D01*
X152325145Y-88140000D01*
X152474855Y-88140000D01*
X152621683Y-88169206D01*
X152621683Y-88169206D01*
G37*
G36*
X150081683Y-88169206D02*
X150219992Y-88226495D01*
X150219995Y-88226497D01*
X150273933Y-88262537D01*
X150344476Y-88309673D01*
X150450327Y-88415524D01*
X150533505Y-88540008D01*
X150590794Y-88678317D01*
X150620000Y-88825145D01*
X150620000Y-88974855D01*
X150590794Y-89121683D01*
X150533505Y-89259992D01*
X150450327Y-89384476D01*
X150344476Y-89490327D01*
X150344473Y-89490329D01*
X150344472Y-89490330D01*
X150273928Y-89537466D01*
X150219992Y-89573505D01*
X150081683Y-89630794D01*
X149934855Y-89660000D01*
X149785145Y-89660000D01*
X149638317Y-89630794D01*
X149500008Y-89573505D01*
X149446072Y-89537466D01*
X149375528Y-89490330D01*
X149375527Y-89490329D01*
X149375524Y-89490327D01*
X149269673Y-89384476D01*
X149186495Y-89259992D01*
X149129206Y-89121683D01*
X149100000Y-88974855D01*
X149100000Y-88825145D01*
X149129206Y-88678317D01*
X149186495Y-88540008D01*
X149269673Y-88415524D01*
X149375524Y-88309673D01*
X149446068Y-88262537D01*
X149500005Y-88226497D01*
X149500008Y-88226495D01*
X149638317Y-88169206D01*
X149785145Y-88140000D01*
X149934855Y-88140000D01*
X150081683Y-88169206D01*
X150081683Y-88169206D01*
G37*
G36*
X211041683Y-88169206D02*
X211179992Y-88226495D01*
X211179995Y-88226497D01*
X211233933Y-88262537D01*
X211304476Y-88309673D01*
X211410327Y-88415524D01*
X211493505Y-88540008D01*
X211550794Y-88678317D01*
X211580000Y-88825145D01*
X211580000Y-88974855D01*
X211550794Y-89121683D01*
X211493505Y-89259992D01*
X211410327Y-89384476D01*
X211304476Y-89490327D01*
X211304473Y-89490329D01*
X211304472Y-89490330D01*
X211233928Y-89537466D01*
X211179992Y-89573505D01*
X211041683Y-89630794D01*
X210894855Y-89660000D01*
X210745145Y-89660000D01*
X210598317Y-89630794D01*
X210460008Y-89573505D01*
X210406072Y-89537466D01*
X210335528Y-89490330D01*
X210335527Y-89490329D01*
X210335524Y-89490327D01*
X210229673Y-89384476D01*
X210146495Y-89259992D01*
X210089206Y-89121683D01*
X210060000Y-88974855D01*
X210060000Y-88825145D01*
X210089206Y-88678317D01*
X210146495Y-88540008D01*
X210229673Y-88415524D01*
X210335524Y-88309673D01*
X210406068Y-88262537D01*
X210460005Y-88226497D01*
X210460008Y-88226495D01*
X210598317Y-88169206D01*
X210745145Y-88140000D01*
X210894855Y-88140000D01*
X211041683Y-88169206D01*
X211041683Y-88169206D01*
G37*
G36*
X139921683Y-88169206D02*
X140059992Y-88226495D01*
X140059995Y-88226497D01*
X140113933Y-88262537D01*
X140184476Y-88309673D01*
X140290327Y-88415524D01*
X140373505Y-88540008D01*
X140430794Y-88678317D01*
X140460000Y-88825145D01*
X140460000Y-88974855D01*
X140430794Y-89121683D01*
X140373505Y-89259992D01*
X140290327Y-89384476D01*
X140184476Y-89490327D01*
X140184473Y-89490329D01*
X140184472Y-89490330D01*
X140113928Y-89537466D01*
X140059992Y-89573505D01*
X139921683Y-89630794D01*
X139774855Y-89660000D01*
X139625145Y-89660000D01*
X139478317Y-89630794D01*
X139340008Y-89573505D01*
X139286072Y-89537466D01*
X139215528Y-89490330D01*
X139215527Y-89490329D01*
X139215524Y-89490327D01*
X139109673Y-89384476D01*
X139026495Y-89259992D01*
X138969206Y-89121683D01*
X138940000Y-88974855D01*
X138940000Y-88825145D01*
X138969206Y-88678317D01*
X139026495Y-88540008D01*
X139109673Y-88415524D01*
X139215524Y-88309673D01*
X139286068Y-88262537D01*
X139340005Y-88226497D01*
X139340008Y-88226495D01*
X139478317Y-88169206D01*
X139625145Y-88140000D01*
X139774855Y-88140000D01*
X139921683Y-88169206D01*
X139921683Y-88169206D01*
G37*
G36*
X208501683Y-88169206D02*
X208639992Y-88226495D01*
X208639995Y-88226497D01*
X208693933Y-88262537D01*
X208764476Y-88309673D01*
X208870327Y-88415524D01*
X208953505Y-88540008D01*
X209010794Y-88678317D01*
X209040000Y-88825145D01*
X209040000Y-88974855D01*
X209010794Y-89121683D01*
X208953505Y-89259992D01*
X208870327Y-89384476D01*
X208764476Y-89490327D01*
X208764473Y-89490329D01*
X208764472Y-89490330D01*
X208693928Y-89537466D01*
X208639992Y-89573505D01*
X208501683Y-89630794D01*
X208354855Y-89660000D01*
X208205145Y-89660000D01*
X208058317Y-89630794D01*
X207920008Y-89573505D01*
X207866072Y-89537466D01*
X207795528Y-89490330D01*
X207795527Y-89490329D01*
X207795524Y-89490327D01*
X207689673Y-89384476D01*
X207606495Y-89259992D01*
X207549206Y-89121683D01*
X207520000Y-88974855D01*
X207520000Y-88825145D01*
X207549206Y-88678317D01*
X207606495Y-88540008D01*
X207689673Y-88415524D01*
X207795524Y-88309673D01*
X207866068Y-88262537D01*
X207920005Y-88226497D01*
X207920008Y-88226495D01*
X208058317Y-88169206D01*
X208205145Y-88140000D01*
X208354855Y-88140000D01*
X208501683Y-88169206D01*
X208501683Y-88169206D01*
G37*
G36*
X205961683Y-88169206D02*
X206099992Y-88226495D01*
X206099995Y-88226497D01*
X206153933Y-88262537D01*
X206224476Y-88309673D01*
X206330327Y-88415524D01*
X206413505Y-88540008D01*
X206470794Y-88678317D01*
X206500000Y-88825145D01*
X206500000Y-88974855D01*
X206470794Y-89121683D01*
X206413505Y-89259992D01*
X206330327Y-89384476D01*
X206224476Y-89490327D01*
X206224473Y-89490329D01*
X206224472Y-89490330D01*
X206153928Y-89537466D01*
X206099992Y-89573505D01*
X205961683Y-89630794D01*
X205814855Y-89660000D01*
X205665145Y-89660000D01*
X205518317Y-89630794D01*
X205380008Y-89573505D01*
X205326072Y-89537466D01*
X205255528Y-89490330D01*
X205255527Y-89490329D01*
X205255524Y-89490327D01*
X205149673Y-89384476D01*
X205066495Y-89259992D01*
X205009206Y-89121683D01*
X204980000Y-88974855D01*
X204980000Y-88825145D01*
X205009206Y-88678317D01*
X205066495Y-88540008D01*
X205149673Y-88415524D01*
X205255524Y-88309673D01*
X205326068Y-88262537D01*
X205380005Y-88226497D01*
X205380008Y-88226495D01*
X205518317Y-88169206D01*
X205665145Y-88140000D01*
X205814855Y-88140000D01*
X205961683Y-88169206D01*
X205961683Y-88169206D01*
G37*
G36*
X203421683Y-88169206D02*
X203559992Y-88226495D01*
X203559995Y-88226497D01*
X203613933Y-88262537D01*
X203684476Y-88309673D01*
X203790327Y-88415524D01*
X203873505Y-88540008D01*
X203930794Y-88678317D01*
X203960000Y-88825145D01*
X203960000Y-88974855D01*
X203930794Y-89121683D01*
X203873505Y-89259992D01*
X203790327Y-89384476D01*
X203684476Y-89490327D01*
X203684473Y-89490329D01*
X203684472Y-89490330D01*
X203613928Y-89537466D01*
X203559992Y-89573505D01*
X203421683Y-89630794D01*
X203274855Y-89660000D01*
X203125145Y-89660000D01*
X202978317Y-89630794D01*
X202840008Y-89573505D01*
X202786072Y-89537466D01*
X202715528Y-89490330D01*
X202715527Y-89490329D01*
X202715524Y-89490327D01*
X202609673Y-89384476D01*
X202526495Y-89259992D01*
X202469206Y-89121683D01*
X202440000Y-88974855D01*
X202440000Y-88825145D01*
X202469206Y-88678317D01*
X202526495Y-88540008D01*
X202609673Y-88415524D01*
X202715524Y-88309673D01*
X202786068Y-88262537D01*
X202840005Y-88226497D01*
X202840008Y-88226495D01*
X202978317Y-88169206D01*
X203125145Y-88140000D01*
X203274855Y-88140000D01*
X203421683Y-88169206D01*
X203421683Y-88169206D01*
G37*
G36*
X200881683Y-88169206D02*
X201019992Y-88226495D01*
X201019995Y-88226497D01*
X201073933Y-88262537D01*
X201144476Y-88309673D01*
X201250327Y-88415524D01*
X201333505Y-88540008D01*
X201390794Y-88678317D01*
X201420000Y-88825145D01*
X201420000Y-88974855D01*
X201390794Y-89121683D01*
X201333505Y-89259992D01*
X201250327Y-89384476D01*
X201144476Y-89490327D01*
X201144473Y-89490329D01*
X201144472Y-89490330D01*
X201073928Y-89537466D01*
X201019992Y-89573505D01*
X200881683Y-89630794D01*
X200734855Y-89660000D01*
X200585145Y-89660000D01*
X200438317Y-89630794D01*
X200300008Y-89573505D01*
X200246072Y-89537466D01*
X200175528Y-89490330D01*
X200175527Y-89490329D01*
X200175524Y-89490327D01*
X200069673Y-89384476D01*
X199986495Y-89259992D01*
X199929206Y-89121683D01*
X199900000Y-88974855D01*
X199900000Y-88825145D01*
X199929206Y-88678317D01*
X199986495Y-88540008D01*
X200069673Y-88415524D01*
X200175524Y-88309673D01*
X200246068Y-88262537D01*
X200300005Y-88226497D01*
X200300008Y-88226495D01*
X200438317Y-88169206D01*
X200585145Y-88140000D01*
X200734855Y-88140000D01*
X200881683Y-88169206D01*
X200881683Y-88169206D01*
G37*
G36*
X195801683Y-88169206D02*
X195939992Y-88226495D01*
X195939995Y-88226497D01*
X195993933Y-88262537D01*
X196064476Y-88309673D01*
X196170327Y-88415524D01*
X196253505Y-88540008D01*
X196310794Y-88678317D01*
X196340000Y-88825145D01*
X196340000Y-88974855D01*
X196310794Y-89121683D01*
X196253505Y-89259992D01*
X196170327Y-89384476D01*
X196064476Y-89490327D01*
X196064473Y-89490329D01*
X196064472Y-89490330D01*
X195993928Y-89537466D01*
X195939992Y-89573505D01*
X195801683Y-89630794D01*
X195654855Y-89660000D01*
X195505145Y-89660000D01*
X195358317Y-89630794D01*
X195220008Y-89573505D01*
X195166072Y-89537466D01*
X195095528Y-89490330D01*
X195095527Y-89490329D01*
X195095524Y-89490327D01*
X194989673Y-89384476D01*
X194906495Y-89259992D01*
X194849206Y-89121683D01*
X194820000Y-88974855D01*
X194820000Y-88825145D01*
X194849206Y-88678317D01*
X194906495Y-88540008D01*
X194989673Y-88415524D01*
X195095524Y-88309673D01*
X195166068Y-88262537D01*
X195220005Y-88226497D01*
X195220008Y-88226495D01*
X195358317Y-88169206D01*
X195505145Y-88140000D01*
X195654855Y-88140000D01*
X195801683Y-88169206D01*
X195801683Y-88169206D01*
G37*
G36*
X155161683Y-88169206D02*
X155299992Y-88226495D01*
X155299995Y-88226497D01*
X155353933Y-88262537D01*
X155424476Y-88309673D01*
X155530327Y-88415524D01*
X155613505Y-88540008D01*
X155670794Y-88678317D01*
X155700000Y-88825145D01*
X155700000Y-88974855D01*
X155670794Y-89121683D01*
X155613505Y-89259992D01*
X155530327Y-89384476D01*
X155424476Y-89490327D01*
X155424473Y-89490329D01*
X155424472Y-89490330D01*
X155353928Y-89537466D01*
X155299992Y-89573505D01*
X155161683Y-89630794D01*
X155014855Y-89660000D01*
X154865145Y-89660000D01*
X154718317Y-89630794D01*
X154580008Y-89573505D01*
X154526072Y-89537466D01*
X154455528Y-89490330D01*
X154455527Y-89490329D01*
X154455524Y-89490327D01*
X154349673Y-89384476D01*
X154266495Y-89259992D01*
X154209206Y-89121683D01*
X154180000Y-88974855D01*
X154180000Y-88825145D01*
X154209206Y-88678317D01*
X154266495Y-88540008D01*
X154349673Y-88415524D01*
X154455524Y-88309673D01*
X154526068Y-88262537D01*
X154580005Y-88226497D01*
X154580008Y-88226495D01*
X154718317Y-88169206D01*
X154865145Y-88140000D01*
X155014855Y-88140000D01*
X155161683Y-88169206D01*
X155161683Y-88169206D01*
G37*
G36*
X195801683Y-85629206D02*
X195939992Y-85686495D01*
X196064476Y-85769673D01*
X196170327Y-85875524D01*
X196253505Y-86000008D01*
X196310794Y-86138317D01*
X196340000Y-86285145D01*
X196340000Y-86434855D01*
X196310794Y-86581683D01*
X196253505Y-86719992D01*
X196170327Y-86844476D01*
X196064476Y-86950327D01*
X195939992Y-87033505D01*
X195801683Y-87090794D01*
X195654855Y-87120000D01*
X195505145Y-87120000D01*
X195358317Y-87090794D01*
X195220008Y-87033505D01*
X195095524Y-86950327D01*
X194989673Y-86844476D01*
X194906495Y-86719992D01*
X194849206Y-86581683D01*
X194820000Y-86434855D01*
X194820000Y-86285145D01*
X194849206Y-86138317D01*
X194906495Y-86000008D01*
X194989673Y-85875524D01*
X195095524Y-85769673D01*
X195220008Y-85686495D01*
X195358317Y-85629206D01*
X195505145Y-85600000D01*
X195654855Y-85600000D01*
X195801683Y-85629206D01*
X195801683Y-85629206D01*
G37*
G36*
X213581683Y-85629206D02*
X213719992Y-85686495D01*
X213844476Y-85769673D01*
X213950327Y-85875524D01*
X214033505Y-86000008D01*
X214090794Y-86138317D01*
X214120000Y-86285145D01*
X214120000Y-86434855D01*
X214090794Y-86581683D01*
X214033505Y-86719992D01*
X213950327Y-86844476D01*
X213844476Y-86950327D01*
X213719992Y-87033505D01*
X213581683Y-87090794D01*
X213434855Y-87120000D01*
X213285145Y-87120000D01*
X213138317Y-87090794D01*
X213000008Y-87033505D01*
X212875524Y-86950327D01*
X212769673Y-86844476D01*
X212686495Y-86719992D01*
X212629206Y-86581683D01*
X212600000Y-86434855D01*
X212600000Y-86285145D01*
X212629206Y-86138317D01*
X212686495Y-86000008D01*
X212769673Y-85875524D01*
X212875524Y-85769673D01*
X213000008Y-85686495D01*
X213138317Y-85629206D01*
X213285145Y-85600000D01*
X213434855Y-85600000D01*
X213581683Y-85629206D01*
X213581683Y-85629206D01*
G37*
G36*
X200881683Y-85629206D02*
X201019992Y-85686495D01*
X201144476Y-85769673D01*
X201250327Y-85875524D01*
X201333505Y-86000008D01*
X201390794Y-86138317D01*
X201420000Y-86285145D01*
X201420000Y-86434855D01*
X201390794Y-86581683D01*
X201333505Y-86719992D01*
X201250327Y-86844476D01*
X201144476Y-86950327D01*
X201019992Y-87033505D01*
X200881683Y-87090794D01*
X200734855Y-87120000D01*
X200585145Y-87120000D01*
X200438317Y-87090794D01*
X200300008Y-87033505D01*
X200175524Y-86950327D01*
X200069673Y-86844476D01*
X199986495Y-86719992D01*
X199929206Y-86581683D01*
X199900000Y-86434855D01*
X199900000Y-86285145D01*
X199929206Y-86138317D01*
X199986495Y-86000008D01*
X200069673Y-85875524D01*
X200175524Y-85769673D01*
X200300008Y-85686495D01*
X200438317Y-85629206D01*
X200585145Y-85600000D01*
X200734855Y-85600000D01*
X200881683Y-85629206D01*
X200881683Y-85629206D01*
G37*
G36*
X198341683Y-85629206D02*
X198479992Y-85686495D01*
X198604476Y-85769673D01*
X198710327Y-85875524D01*
X198793505Y-86000008D01*
X198850794Y-86138317D01*
X198880000Y-86285145D01*
X198880000Y-86434855D01*
X198850794Y-86581683D01*
X198793505Y-86719992D01*
X198710327Y-86844476D01*
X198604476Y-86950327D01*
X198479992Y-87033505D01*
X198341683Y-87090794D01*
X198194855Y-87120000D01*
X198045145Y-87120000D01*
X197898317Y-87090794D01*
X197760008Y-87033505D01*
X197635524Y-86950327D01*
X197529673Y-86844476D01*
X197446495Y-86719992D01*
X197389206Y-86581683D01*
X197360000Y-86434855D01*
X197360000Y-86285145D01*
X197389206Y-86138317D01*
X197446495Y-86000008D01*
X197529673Y-85875524D01*
X197635524Y-85769673D01*
X197760008Y-85686495D01*
X197898317Y-85629206D01*
X198045145Y-85600000D01*
X198194855Y-85600000D01*
X198341683Y-85629206D01*
X198341683Y-85629206D01*
G37*
G36*
X211041683Y-85629206D02*
X211179992Y-85686495D01*
X211304476Y-85769673D01*
X211410327Y-85875524D01*
X211493505Y-86000008D01*
X211550794Y-86138317D01*
X211580000Y-86285145D01*
X211580000Y-86434855D01*
X211550794Y-86581683D01*
X211493505Y-86719992D01*
X211410327Y-86844476D01*
X211304476Y-86950327D01*
X211179992Y-87033505D01*
X211041683Y-87090794D01*
X210894855Y-87120000D01*
X210745145Y-87120000D01*
X210598317Y-87090794D01*
X210460008Y-87033505D01*
X210335524Y-86950327D01*
X210229673Y-86844476D01*
X210146495Y-86719992D01*
X210089206Y-86581683D01*
X210060000Y-86434855D01*
X210060000Y-86285145D01*
X210089206Y-86138317D01*
X210146495Y-86000008D01*
X210229673Y-85875524D01*
X210335524Y-85769673D01*
X210460008Y-85686495D01*
X210598317Y-85629206D01*
X210745145Y-85600000D01*
X210894855Y-85600000D01*
X211041683Y-85629206D01*
X211041683Y-85629206D01*
G37*
G36*
X205961683Y-85629206D02*
X206099992Y-85686495D01*
X206224476Y-85769673D01*
X206330327Y-85875524D01*
X206413505Y-86000008D01*
X206470794Y-86138317D01*
X206500000Y-86285145D01*
X206500000Y-86434855D01*
X206470794Y-86581683D01*
X206413505Y-86719992D01*
X206330327Y-86844476D01*
X206224476Y-86950327D01*
X206099992Y-87033505D01*
X205961683Y-87090794D01*
X205814855Y-87120000D01*
X205665145Y-87120000D01*
X205518317Y-87090794D01*
X205380008Y-87033505D01*
X205255524Y-86950327D01*
X205149673Y-86844476D01*
X205066495Y-86719992D01*
X205009206Y-86581683D01*
X204980000Y-86434855D01*
X204980000Y-86285145D01*
X205009206Y-86138317D01*
X205066495Y-86000008D01*
X205149673Y-85875524D01*
X205255524Y-85769673D01*
X205380008Y-85686495D01*
X205518317Y-85629206D01*
X205665145Y-85600000D01*
X205814855Y-85600000D01*
X205961683Y-85629206D01*
X205961683Y-85629206D01*
G37*
G36*
X132301683Y-85629206D02*
X132439992Y-85686495D01*
X132564476Y-85769673D01*
X132670327Y-85875524D01*
X132753505Y-86000008D01*
X132810794Y-86138317D01*
X132840000Y-86285145D01*
X132840000Y-86434855D01*
X132810794Y-86581683D01*
X132753505Y-86719992D01*
X132670327Y-86844476D01*
X132564476Y-86950327D01*
X132439992Y-87033505D01*
X132301683Y-87090794D01*
X132154855Y-87120000D01*
X132005145Y-87120000D01*
X131858317Y-87090794D01*
X131720008Y-87033505D01*
X131595524Y-86950327D01*
X131489673Y-86844476D01*
X131406495Y-86719992D01*
X131349206Y-86581683D01*
X131320000Y-86434855D01*
X131320000Y-86285145D01*
X131349206Y-86138317D01*
X131406495Y-86000008D01*
X131489673Y-85875524D01*
X131595524Y-85769673D01*
X131720008Y-85686495D01*
X131858317Y-85629206D01*
X132005145Y-85600000D01*
X132154855Y-85600000D01*
X132301683Y-85629206D01*
X132301683Y-85629206D01*
G37*
G36*
X218661683Y-85629206D02*
X218799992Y-85686495D01*
X218924476Y-85769673D01*
X219030327Y-85875524D01*
X219113505Y-86000008D01*
X219170794Y-86138317D01*
X219200000Y-86285145D01*
X219200000Y-86434855D01*
X219170794Y-86581683D01*
X219113505Y-86719992D01*
X219030327Y-86844476D01*
X218924476Y-86950327D01*
X218799992Y-87033505D01*
X218661683Y-87090794D01*
X218514855Y-87120000D01*
X218365145Y-87120000D01*
X218218317Y-87090794D01*
X218080008Y-87033505D01*
X217955524Y-86950327D01*
X217849673Y-86844476D01*
X217766495Y-86719992D01*
X217709206Y-86581683D01*
X217680000Y-86434855D01*
X217680000Y-86285145D01*
X217709206Y-86138317D01*
X217766495Y-86000008D01*
X217849673Y-85875524D01*
X217955524Y-85769673D01*
X218080008Y-85686495D01*
X218218317Y-85629206D01*
X218365145Y-85600000D01*
X218514855Y-85600000D01*
X218661683Y-85629206D01*
X218661683Y-85629206D01*
G37*
G36*
X216121683Y-85629206D02*
X216259992Y-85686495D01*
X216384476Y-85769673D01*
X216490327Y-85875524D01*
X216573505Y-86000008D01*
X216630794Y-86138317D01*
X216660000Y-86285145D01*
X216660000Y-86434855D01*
X216630794Y-86581683D01*
X216573505Y-86719992D01*
X216490327Y-86844476D01*
X216384476Y-86950327D01*
X216259992Y-87033505D01*
X216121683Y-87090794D01*
X215974855Y-87120000D01*
X215825145Y-87120000D01*
X215678317Y-87090794D01*
X215540008Y-87033505D01*
X215415524Y-86950327D01*
X215309673Y-86844476D01*
X215226495Y-86719992D01*
X215169206Y-86581683D01*
X215140000Y-86434855D01*
X215140000Y-86285145D01*
X215169206Y-86138317D01*
X215226495Y-86000008D01*
X215309673Y-85875524D01*
X215415524Y-85769673D01*
X215540008Y-85686495D01*
X215678317Y-85629206D01*
X215825145Y-85600000D01*
X215974855Y-85600000D01*
X216121683Y-85629206D01*
X216121683Y-85629206D01*
G37*
G36*
X208501683Y-85629206D02*
X208639992Y-85686495D01*
X208764476Y-85769673D01*
X208870327Y-85875524D01*
X208953505Y-86000008D01*
X209010794Y-86138317D01*
X209040000Y-86285145D01*
X209040000Y-86434855D01*
X209010794Y-86581683D01*
X208953505Y-86719992D01*
X208870327Y-86844476D01*
X208764476Y-86950327D01*
X208639992Y-87033505D01*
X208501683Y-87090794D01*
X208354855Y-87120000D01*
X208205145Y-87120000D01*
X208058317Y-87090794D01*
X207920008Y-87033505D01*
X207795524Y-86950327D01*
X207689673Y-86844476D01*
X207606495Y-86719992D01*
X207549206Y-86581683D01*
X207520000Y-86434855D01*
X207520000Y-86285145D01*
X207549206Y-86138317D01*
X207606495Y-86000008D01*
X207689673Y-85875524D01*
X207795524Y-85769673D01*
X207920008Y-85686495D01*
X208058317Y-85629206D01*
X208205145Y-85600000D01*
X208354855Y-85600000D01*
X208501683Y-85629206D01*
X208501683Y-85629206D01*
G37*
G36*
X203421683Y-85629206D02*
X203559992Y-85686495D01*
X203684476Y-85769673D01*
X203790327Y-85875524D01*
X203873505Y-86000008D01*
X203930794Y-86138317D01*
X203960000Y-86285145D01*
X203960000Y-86434855D01*
X203930794Y-86581683D01*
X203873505Y-86719992D01*
X203790327Y-86844476D01*
X203684476Y-86950327D01*
X203559992Y-87033505D01*
X203421683Y-87090794D01*
X203274855Y-87120000D01*
X203125145Y-87120000D01*
X202978317Y-87090794D01*
X202840008Y-87033505D01*
X202715524Y-86950327D01*
X202609673Y-86844476D01*
X202526495Y-86719992D01*
X202469206Y-86581683D01*
X202440000Y-86434855D01*
X202440000Y-86285145D01*
X202469206Y-86138317D01*
X202526495Y-86000008D01*
X202609673Y-85875524D01*
X202715524Y-85769673D01*
X202840008Y-85686495D01*
X202978317Y-85629206D01*
X203125145Y-85600000D01*
X203274855Y-85600000D01*
X203421683Y-85629206D01*
X203421683Y-85629206D01*
G37*
G36*
X137381683Y-85629206D02*
X137519992Y-85686495D01*
X137644476Y-85769673D01*
X137750327Y-85875524D01*
X137833505Y-86000008D01*
X137890794Y-86138317D01*
X137920000Y-86285145D01*
X137920000Y-86434855D01*
X137890794Y-86581683D01*
X137833505Y-86719992D01*
X137750327Y-86844476D01*
X137644476Y-86950327D01*
X137519992Y-87033505D01*
X137381683Y-87090794D01*
X137234855Y-87120000D01*
X137085145Y-87120000D01*
X136938317Y-87090794D01*
X136800008Y-87033505D01*
X136675524Y-86950327D01*
X136569673Y-86844476D01*
X136486495Y-86719992D01*
X136429206Y-86581683D01*
X136400000Y-86434855D01*
X136400000Y-86285145D01*
X136429206Y-86138317D01*
X136486495Y-86000008D01*
X136569673Y-85875524D01*
X136675524Y-85769673D01*
X136800008Y-85686495D01*
X136938317Y-85629206D01*
X137085145Y-85600000D01*
X137234855Y-85600000D01*
X137381683Y-85629206D01*
X137381683Y-85629206D01*
G37*
G36*
X134841683Y-85629206D02*
X134979992Y-85686495D01*
X135104476Y-85769673D01*
X135210327Y-85875524D01*
X135293505Y-86000008D01*
X135350794Y-86138317D01*
X135380000Y-86285145D01*
X135380000Y-86434855D01*
X135350794Y-86581683D01*
X135293505Y-86719992D01*
X135210327Y-86844476D01*
X135104476Y-86950327D01*
X134979992Y-87033505D01*
X134841683Y-87090794D01*
X134694855Y-87120000D01*
X134545145Y-87120000D01*
X134398317Y-87090794D01*
X134260008Y-87033505D01*
X134135524Y-86950327D01*
X134029673Y-86844476D01*
X133946495Y-86719992D01*
X133889206Y-86581683D01*
X133860000Y-86434855D01*
X133860000Y-86285145D01*
X133889206Y-86138317D01*
X133946495Y-86000008D01*
X134029673Y-85875524D01*
X134135524Y-85769673D01*
X134260008Y-85686495D01*
X134398317Y-85629206D01*
X134545145Y-85600000D01*
X134694855Y-85600000D01*
X134841683Y-85629206D01*
X134841683Y-85629206D01*
G37*
G36*
X142461683Y-85629206D02*
X142599992Y-85686495D01*
X142724476Y-85769673D01*
X142830327Y-85875524D01*
X142913505Y-86000008D01*
X142970794Y-86138317D01*
X143000000Y-86285145D01*
X143000000Y-86434855D01*
X142970794Y-86581683D01*
X142913505Y-86719992D01*
X142830327Y-86844476D01*
X142724476Y-86950327D01*
X142599992Y-87033505D01*
X142461683Y-87090794D01*
X142314855Y-87120000D01*
X142165145Y-87120000D01*
X142018317Y-87090794D01*
X141880008Y-87033505D01*
X141755524Y-86950327D01*
X141649673Y-86844476D01*
X141566495Y-86719992D01*
X141509206Y-86581683D01*
X141480000Y-86434855D01*
X141480000Y-86285145D01*
X141509206Y-86138317D01*
X141566495Y-86000008D01*
X141649673Y-85875524D01*
X141755524Y-85769673D01*
X141880008Y-85686495D01*
X142018317Y-85629206D01*
X142165145Y-85600000D01*
X142314855Y-85600000D01*
X142461683Y-85629206D01*
X142461683Y-85629206D01*
G37*
G36*
X145001683Y-85629206D02*
X145139992Y-85686495D01*
X145264476Y-85769673D01*
X145370327Y-85875524D01*
X145453505Y-86000008D01*
X145510794Y-86138317D01*
X145540000Y-86285145D01*
X145540000Y-86434855D01*
X145510794Y-86581683D01*
X145453505Y-86719992D01*
X145370327Y-86844476D01*
X145264476Y-86950327D01*
X145139992Y-87033505D01*
X145001683Y-87090794D01*
X144854855Y-87120000D01*
X144705145Y-87120000D01*
X144558317Y-87090794D01*
X144420008Y-87033505D01*
X144295524Y-86950327D01*
X144189673Y-86844476D01*
X144106495Y-86719992D01*
X144049206Y-86581683D01*
X144020000Y-86434855D01*
X144020000Y-86285145D01*
X144049206Y-86138317D01*
X144106495Y-86000008D01*
X144189673Y-85875524D01*
X144295524Y-85769673D01*
X144420008Y-85686495D01*
X144558317Y-85629206D01*
X144705145Y-85600000D01*
X144854855Y-85600000D01*
X145001683Y-85629206D01*
X145001683Y-85629206D01*
G37*
G36*
X155161683Y-85629206D02*
X155299992Y-85686495D01*
X155424476Y-85769673D01*
X155530327Y-85875524D01*
X155613505Y-86000008D01*
X155670794Y-86138317D01*
X155700000Y-86285145D01*
X155700000Y-86434855D01*
X155670794Y-86581683D01*
X155613505Y-86719992D01*
X155530327Y-86844476D01*
X155424476Y-86950327D01*
X155299992Y-87033505D01*
X155161683Y-87090794D01*
X155014855Y-87120000D01*
X154865145Y-87120000D01*
X154718317Y-87090794D01*
X154580008Y-87033505D01*
X154455524Y-86950327D01*
X154349673Y-86844476D01*
X154266495Y-86719992D01*
X154209206Y-86581683D01*
X154180000Y-86434855D01*
X154180000Y-86285145D01*
X154209206Y-86138317D01*
X154266495Y-86000008D01*
X154349673Y-85875524D01*
X154455524Y-85769673D01*
X154580008Y-85686495D01*
X154718317Y-85629206D01*
X154865145Y-85600000D01*
X155014855Y-85600000D01*
X155161683Y-85629206D01*
X155161683Y-85629206D01*
G37*
G36*
X152621683Y-85629206D02*
X152759992Y-85686495D01*
X152884476Y-85769673D01*
X152990327Y-85875524D01*
X153073505Y-86000008D01*
X153130794Y-86138317D01*
X153160000Y-86285145D01*
X153160000Y-86434855D01*
X153130794Y-86581683D01*
X153073505Y-86719992D01*
X152990327Y-86844476D01*
X152884476Y-86950327D01*
X152759992Y-87033505D01*
X152621683Y-87090794D01*
X152474855Y-87120000D01*
X152325145Y-87120000D01*
X152178317Y-87090794D01*
X152040008Y-87033505D01*
X151915524Y-86950327D01*
X151809673Y-86844476D01*
X151726495Y-86719992D01*
X151669206Y-86581683D01*
X151640000Y-86434855D01*
X151640000Y-86285145D01*
X151669206Y-86138317D01*
X151726495Y-86000008D01*
X151809673Y-85875524D01*
X151915524Y-85769673D01*
X152040008Y-85686495D01*
X152178317Y-85629206D01*
X152325145Y-85600000D01*
X152474855Y-85600000D01*
X152621683Y-85629206D01*
X152621683Y-85629206D01*
G37*
G36*
X150081683Y-85629206D02*
X150219992Y-85686495D01*
X150344476Y-85769673D01*
X150450327Y-85875524D01*
X150533505Y-86000008D01*
X150590794Y-86138317D01*
X150620000Y-86285145D01*
X150620000Y-86434855D01*
X150590794Y-86581683D01*
X150533505Y-86719992D01*
X150450327Y-86844476D01*
X150344476Y-86950327D01*
X150219992Y-87033505D01*
X150081683Y-87090794D01*
X149934855Y-87120000D01*
X149785145Y-87120000D01*
X149638317Y-87090794D01*
X149500008Y-87033505D01*
X149375524Y-86950327D01*
X149269673Y-86844476D01*
X149186495Y-86719992D01*
X149129206Y-86581683D01*
X149100000Y-86434855D01*
X149100000Y-86285145D01*
X149129206Y-86138317D01*
X149186495Y-86000008D01*
X149269673Y-85875524D01*
X149375524Y-85769673D01*
X149500008Y-85686495D01*
X149638317Y-85629206D01*
X149785145Y-85600000D01*
X149934855Y-85600000D01*
X150081683Y-85629206D01*
X150081683Y-85629206D01*
G37*
G36*
X139921683Y-85629206D02*
X140059992Y-85686495D01*
X140184476Y-85769673D01*
X140290327Y-85875524D01*
X140373505Y-86000008D01*
X140430794Y-86138317D01*
X140460000Y-86285145D01*
X140460000Y-86434855D01*
X140430794Y-86581683D01*
X140373505Y-86719992D01*
X140290327Y-86844476D01*
X140184476Y-86950327D01*
X140059992Y-87033505D01*
X139921683Y-87090794D01*
X139774855Y-87120000D01*
X139625145Y-87120000D01*
X139478317Y-87090794D01*
X139340008Y-87033505D01*
X139215524Y-86950327D01*
X139109673Y-86844476D01*
X139026495Y-86719992D01*
X138969206Y-86581683D01*
X138940000Y-86434855D01*
X138940000Y-86285145D01*
X138969206Y-86138317D01*
X139026495Y-86000008D01*
X139109673Y-85875524D01*
X139215524Y-85769673D01*
X139340008Y-85686495D01*
X139478317Y-85629206D01*
X139625145Y-85600000D01*
X139774855Y-85600000D01*
X139921683Y-85629206D01*
X139921683Y-85629206D01*
G37*
G36*
X147541683Y-85629206D02*
X147679992Y-85686495D01*
X147804476Y-85769673D01*
X147910327Y-85875524D01*
X147993505Y-86000008D01*
X148050794Y-86138317D01*
X148080000Y-86285145D01*
X148080000Y-86434855D01*
X148050794Y-86581683D01*
X147993505Y-86719992D01*
X147910327Y-86844476D01*
X147804476Y-86950327D01*
X147679992Y-87033505D01*
X147541683Y-87090794D01*
X147394855Y-87120000D01*
X147245145Y-87120000D01*
X147098317Y-87090794D01*
X146960008Y-87033505D01*
X146835524Y-86950327D01*
X146729673Y-86844476D01*
X146646495Y-86719992D01*
X146589206Y-86581683D01*
X146560000Y-86434855D01*
X146560000Y-86285145D01*
X146589206Y-86138317D01*
X146646495Y-86000008D01*
X146729673Y-85875524D01*
X146835524Y-85769673D01*
X146960008Y-85686495D01*
X147098317Y-85629206D01*
X147245145Y-85600000D01*
X147394855Y-85600000D01*
X147541683Y-85629206D01*
X147541683Y-85629206D01*
G37*
M02*
