G04 #@! TF.GenerationSoftware,KiCad,Pcbnew,(5.0.2)-1*
G04 #@! TF.CreationDate,2019-04-17T18:14:32-05:00*
G04 #@! TF.ProjectId,ArmDriveBoard_Hardware,41726d44-7269-4766-9542-6f6172645f48,rev?*
G04 #@! TF.SameCoordinates,Original*
G04 #@! TF.FileFunction,Legend,Bot*
G04 #@! TF.FilePolarity,Positive*
%FSLAX46Y46*%
G04 Gerber Fmt 4.6, Leading zero omitted, Abs format (unit mm)*
G04 Created by KiCad (PCBNEW (5.0.2)-1) date 4/17/2019 6:14:32 PM*
%MOMM*%
%LPD*%
G01*
G04 APERTURE LIST*
%ADD10C,0.150000*%
G04 APERTURE END LIST*
D10*
G04 #@! TO.C,U1*
X156210000Y-133350000D02*
X156210000Y-128270000D01*
X156210000Y-128270000D02*
X130810000Y-128270000D01*
X130810000Y-128270000D02*
X130810000Y-133350000D01*
X130810000Y-133350000D02*
X156210000Y-133350000D01*
X156210000Y-90170000D02*
X156210000Y-85090000D01*
X156210000Y-85090000D02*
X130810000Y-85090000D01*
X130810000Y-85090000D02*
X130810000Y-90170000D01*
X130810000Y-90170000D02*
X156210000Y-90170000D01*
X219710000Y-128270000D02*
X194310000Y-128270000D01*
X194310000Y-90170000D02*
X219710000Y-90170000D01*
X219710000Y-133350000D02*
X219710000Y-128270000D01*
X194310000Y-128270000D02*
X194310000Y-133350000D01*
X194310000Y-133350000D02*
X219710000Y-133350000D01*
X219710000Y-90170000D02*
X219710000Y-85090000D01*
X219710000Y-85090000D02*
X194310000Y-85090000D01*
X194310000Y-85090000D02*
X194310000Y-90170000D01*
X155384476Y-91384380D02*
X155955904Y-91384380D01*
X155670190Y-91384380D02*
X155670190Y-90384380D01*
X155765428Y-90527238D01*
X155860666Y-90622476D01*
X155955904Y-90670095D01*
X154765428Y-90384380D02*
X154670190Y-90384380D01*
X154574952Y-90432000D01*
X154527333Y-90479619D01*
X154479714Y-90574857D01*
X154432095Y-90765333D01*
X154432095Y-91003428D01*
X154479714Y-91193904D01*
X154527333Y-91289142D01*
X154574952Y-91336761D01*
X154670190Y-91384380D01*
X154765428Y-91384380D01*
X154860666Y-91336761D01*
X154908285Y-91289142D01*
X154955904Y-91193904D01*
X155003523Y-91003428D01*
X155003523Y-90765333D01*
X154955904Y-90574857D01*
X154908285Y-90479619D01*
X154860666Y-90432000D01*
X154765428Y-90384380D01*
X131794285Y-127960380D02*
X132365714Y-127960380D01*
X132080000Y-127960380D02*
X132080000Y-126960380D01*
X132175238Y-127103238D01*
X132270476Y-127198476D01*
X132365714Y-127246095D01*
X155384476Y-127960380D02*
X155955904Y-127960380D01*
X155670190Y-127960380D02*
X155670190Y-126960380D01*
X155765428Y-127103238D01*
X155860666Y-127198476D01*
X155955904Y-127246095D01*
X154765428Y-126960380D02*
X154670190Y-126960380D01*
X154574952Y-127008000D01*
X154527333Y-127055619D01*
X154479714Y-127150857D01*
X154432095Y-127341333D01*
X154432095Y-127579428D01*
X154479714Y-127769904D01*
X154527333Y-127865142D01*
X154574952Y-127912761D01*
X154670190Y-127960380D01*
X154765428Y-127960380D01*
X154860666Y-127912761D01*
X154908285Y-127865142D01*
X154955904Y-127769904D01*
X155003523Y-127579428D01*
X155003523Y-127341333D01*
X154955904Y-127150857D01*
X154908285Y-127055619D01*
X154860666Y-127008000D01*
X154765428Y-126960380D01*
X195294285Y-91384380D02*
X195865714Y-91384380D01*
X195580000Y-91384380D02*
X195580000Y-90384380D01*
X195675238Y-90527238D01*
X195770476Y-90622476D01*
X195865714Y-90670095D01*
X218630476Y-91384380D02*
X219201904Y-91384380D01*
X218916190Y-91384380D02*
X218916190Y-90384380D01*
X219011428Y-90527238D01*
X219106666Y-90622476D01*
X219201904Y-90670095D01*
X218011428Y-90384380D02*
X217916190Y-90384380D01*
X217820952Y-90432000D01*
X217773333Y-90479619D01*
X217725714Y-90574857D01*
X217678095Y-90765333D01*
X217678095Y-91003428D01*
X217725714Y-91193904D01*
X217773333Y-91289142D01*
X217820952Y-91336761D01*
X217916190Y-91384380D01*
X218011428Y-91384380D01*
X218106666Y-91336761D01*
X218154285Y-91289142D01*
X218201904Y-91193904D01*
X218249523Y-91003428D01*
X218249523Y-90765333D01*
X218201904Y-90574857D01*
X218154285Y-90479619D01*
X218106666Y-90432000D01*
X218011428Y-90384380D01*
X218630476Y-127960380D02*
X219201904Y-127960380D01*
X218916190Y-127960380D02*
X218916190Y-126960380D01*
X219011428Y-127103238D01*
X219106666Y-127198476D01*
X219201904Y-127246095D01*
X218011428Y-126960380D02*
X217916190Y-126960380D01*
X217820952Y-127008000D01*
X217773333Y-127055619D01*
X217725714Y-127150857D01*
X217678095Y-127341333D01*
X217678095Y-127579428D01*
X217725714Y-127769904D01*
X217773333Y-127865142D01*
X217820952Y-127912761D01*
X217916190Y-127960380D01*
X218011428Y-127960380D01*
X218106666Y-127912761D01*
X218154285Y-127865142D01*
X218201904Y-127769904D01*
X218249523Y-127579428D01*
X218249523Y-127341333D01*
X218201904Y-127150857D01*
X218154285Y-127055619D01*
X218106666Y-127008000D01*
X218011428Y-126960380D01*
X195294285Y-127960380D02*
X195865714Y-127960380D01*
X195580000Y-127960380D02*
X195580000Y-126960380D01*
X195675238Y-127103238D01*
X195770476Y-127198476D01*
X195865714Y-127246095D01*
X156003523Y-91654380D02*
X155336857Y-92654380D01*
X155336857Y-91654380D02*
X156003523Y-92654380D01*
X154908285Y-92654380D02*
X154717809Y-92654380D01*
X154622571Y-92606761D01*
X154574952Y-92559142D01*
X154479714Y-92416285D01*
X154432095Y-92225809D01*
X154432095Y-91844857D01*
X154479714Y-91749619D01*
X154527333Y-91702000D01*
X154622571Y-91654380D01*
X154813047Y-91654380D01*
X154908285Y-91702000D01*
X154955904Y-91749619D01*
X155003523Y-91844857D01*
X155003523Y-92082952D01*
X154955904Y-92178190D01*
X154908285Y-92225809D01*
X154813047Y-92273428D01*
X154622571Y-92273428D01*
X154527333Y-92225809D01*
X154479714Y-92178190D01*
X154432095Y-92082952D01*
X156003523Y-125690380D02*
X155336857Y-126690380D01*
X155336857Y-125690380D02*
X156003523Y-126690380D01*
X154813047Y-126118952D02*
X154908285Y-126071333D01*
X154955904Y-126023714D01*
X155003523Y-125928476D01*
X155003523Y-125880857D01*
X154955904Y-125785619D01*
X154908285Y-125738000D01*
X154813047Y-125690380D01*
X154622571Y-125690380D01*
X154527333Y-125738000D01*
X154479714Y-125785619D01*
X154432095Y-125880857D01*
X154432095Y-125928476D01*
X154479714Y-126023714D01*
X154527333Y-126071333D01*
X154622571Y-126118952D01*
X154813047Y-126118952D01*
X154908285Y-126166571D01*
X154955904Y-126214190D01*
X155003523Y-126309428D01*
X155003523Y-126499904D01*
X154955904Y-126595142D01*
X154908285Y-126642761D01*
X154813047Y-126690380D01*
X154622571Y-126690380D01*
X154527333Y-126642761D01*
X154479714Y-126595142D01*
X154432095Y-126499904D01*
X154432095Y-126309428D01*
X154479714Y-126214190D01*
X154527333Y-126166571D01*
X154622571Y-126118952D01*
X219249523Y-91654380D02*
X218582857Y-92654380D01*
X218582857Y-91654380D02*
X219249523Y-92654380D01*
X218297142Y-91654380D02*
X217630476Y-91654380D01*
X218059047Y-92654380D01*
X157392666Y-89257142D02*
X157440285Y-89304761D01*
X157583142Y-89352380D01*
X157678380Y-89352380D01*
X157821238Y-89304761D01*
X157916476Y-89209523D01*
X157964095Y-89114285D01*
X158011714Y-88923809D01*
X158011714Y-88780952D01*
X157964095Y-88590476D01*
X157916476Y-88495238D01*
X157821238Y-88400000D01*
X157678380Y-88352380D01*
X157583142Y-88352380D01*
X157440285Y-88400000D01*
X157392666Y-88447619D01*
X156440285Y-89352380D02*
X157011714Y-89352380D01*
X156726000Y-89352380D02*
X156726000Y-88352380D01*
X156821238Y-88495238D01*
X156916476Y-88590476D01*
X157011714Y-88638095D01*
X157964095Y-87066380D02*
X157964095Y-86066380D01*
X157726000Y-86066380D01*
X157583142Y-86114000D01*
X157487904Y-86209238D01*
X157440285Y-86304476D01*
X157392666Y-86494952D01*
X157392666Y-86637809D01*
X157440285Y-86828285D01*
X157487904Y-86923523D01*
X157583142Y-87018761D01*
X157726000Y-87066380D01*
X157964095Y-87066380D01*
X156440285Y-87066380D02*
X157011714Y-87066380D01*
X156726000Y-87066380D02*
X156726000Y-86066380D01*
X156821238Y-86209238D01*
X156916476Y-86304476D01*
X157011714Y-86352095D01*
X220892666Y-89257142D02*
X220940285Y-89304761D01*
X221083142Y-89352380D01*
X221178380Y-89352380D01*
X221321238Y-89304761D01*
X221416476Y-89209523D01*
X221464095Y-89114285D01*
X221511714Y-88923809D01*
X221511714Y-88780952D01*
X221464095Y-88590476D01*
X221416476Y-88495238D01*
X221321238Y-88400000D01*
X221178380Y-88352380D01*
X221083142Y-88352380D01*
X220940285Y-88400000D01*
X220892666Y-88447619D01*
X220511714Y-88447619D02*
X220464095Y-88400000D01*
X220368857Y-88352380D01*
X220130761Y-88352380D01*
X220035523Y-88400000D01*
X219987904Y-88447619D01*
X219940285Y-88542857D01*
X219940285Y-88638095D01*
X219987904Y-88780952D01*
X220559333Y-89352380D01*
X219940285Y-89352380D01*
X221464095Y-86558380D02*
X221464095Y-85558380D01*
X221226000Y-85558380D01*
X221083142Y-85606000D01*
X220987904Y-85701238D01*
X220940285Y-85796476D01*
X220892666Y-85986952D01*
X220892666Y-86129809D01*
X220940285Y-86320285D01*
X220987904Y-86415523D01*
X221083142Y-86510761D01*
X221226000Y-86558380D01*
X221464095Y-86558380D01*
X220511714Y-85653619D02*
X220464095Y-85606000D01*
X220368857Y-85558380D01*
X220130761Y-85558380D01*
X220035523Y-85606000D01*
X219987904Y-85653619D01*
X219940285Y-85748857D01*
X219940285Y-85844095D01*
X219987904Y-85986952D01*
X220559333Y-86558380D01*
X219940285Y-86558380D01*
X157630761Y-129468571D02*
X157487904Y-129516190D01*
X157440285Y-129563809D01*
X157392666Y-129659047D01*
X157392666Y-129801904D01*
X157440285Y-129897142D01*
X157487904Y-129944761D01*
X157583142Y-129992380D01*
X157964095Y-129992380D01*
X157964095Y-128992380D01*
X157630761Y-128992380D01*
X157535523Y-129040000D01*
X157487904Y-129087619D01*
X157440285Y-129182857D01*
X157440285Y-129278095D01*
X157487904Y-129373333D01*
X157535523Y-129420952D01*
X157630761Y-129468571D01*
X157964095Y-129468571D01*
X156440285Y-129992380D02*
X157011714Y-129992380D01*
X156726000Y-129992380D02*
X156726000Y-128992380D01*
X156821238Y-129135238D01*
X156916476Y-129230476D01*
X157011714Y-129278095D01*
X157940285Y-132246666D02*
X157464095Y-132246666D01*
X158035523Y-132532380D02*
X157702190Y-131532380D01*
X157368857Y-132532380D01*
X156511714Y-132532380D02*
X157083142Y-132532380D01*
X156797428Y-132532380D02*
X156797428Y-131532380D01*
X156892666Y-131675238D01*
X156987904Y-131770476D01*
X157083142Y-131818095D01*
X221130761Y-129468571D02*
X220987904Y-129516190D01*
X220940285Y-129563809D01*
X220892666Y-129659047D01*
X220892666Y-129801904D01*
X220940285Y-129897142D01*
X220987904Y-129944761D01*
X221083142Y-129992380D01*
X221464095Y-129992380D01*
X221464095Y-128992380D01*
X221130761Y-128992380D01*
X221035523Y-129040000D01*
X220987904Y-129087619D01*
X220940285Y-129182857D01*
X220940285Y-129278095D01*
X220987904Y-129373333D01*
X221035523Y-129420952D01*
X221130761Y-129468571D01*
X221464095Y-129468571D01*
X220511714Y-129087619D02*
X220464095Y-129040000D01*
X220368857Y-128992380D01*
X220130761Y-128992380D01*
X220035523Y-129040000D01*
X219987904Y-129087619D01*
X219940285Y-129182857D01*
X219940285Y-129278095D01*
X219987904Y-129420952D01*
X220559333Y-129992380D01*
X219940285Y-129992380D01*
X221440285Y-132246666D02*
X220964095Y-132246666D01*
X221535523Y-132532380D02*
X221202190Y-131532380D01*
X220868857Y-132532380D01*
X220583142Y-131627619D02*
X220535523Y-131580000D01*
X220440285Y-131532380D01*
X220202190Y-131532380D01*
X220106952Y-131580000D01*
X220059333Y-131627619D01*
X220011714Y-131722857D01*
X220011714Y-131818095D01*
X220059333Y-131960952D01*
X220630761Y-132532380D01*
X220011714Y-132532380D01*
G04 #@! TD*
M02*
