M48
;DRILL file {KiCad (5.0.2)-1} date 4/27/2019 12:56:11 AM
;FORMAT={-:-/ absolute / inch / decimal}
FMAT,2
INCH,TZ
T1C0.0157
T2C0.0315
T3C0.0350
T4C0.0354
T5C0.0394
T6C0.1616
%
G90
G05
T1
X6.9574Y-3.6374
X7.Y-3.68
X7.63Y-3.96
X7.76Y-4.28
X8.03Y-3.65
X8.13Y-3.61
X8.16Y-3.5589
X9.66Y-4.25
X9.66Y-4.35
X9.6611Y-4.05
X9.6611Y-4.15
T2
X8.6Y-3.8
X8.7378Y-3.8
X8.6Y-4.3
X8.7378Y-4.3
X8.6Y-4.8
X8.7378Y-4.8
T3
X6.9Y-4.6
X7.Y-4.6
X7.1Y-4.6
T4
X7.5Y-4.8
X7.6Y-4.8
X8.Y-3.8
X8.1Y-3.8
X8.2Y-3.8
X7.5Y-4.3
X7.6Y-4.3
X7.5Y-3.8
X7.6Y-3.8
X8.Y-4.3
X8.1Y-4.3
X8.2Y-4.3
X8.Y-4.8
X8.1Y-4.8
X8.2Y-4.8
T5
X7.26Y-3.87
X8.37Y-3.8
X7.2Y-3.5
X7.4Y-3.5
X5.2Y-3.4
X5.2Y-3.5
X5.2Y-5.1
X5.2Y-5.2
X5.3Y-3.4
X5.3Y-3.5
X5.3Y-5.1
X5.3Y-5.2
X5.4Y-3.4
X5.4Y-3.5
X5.4Y-5.1
X5.4Y-5.2
X5.5Y-3.4
X5.5Y-3.5
X5.5Y-5.1
X5.5Y-5.2
X5.6Y-3.4
X5.6Y-3.5
X5.6Y-5.1
X5.6Y-5.2
X5.7Y-3.4
X5.7Y-3.5
X5.7Y-5.1
X5.7Y-5.2
X5.8Y-3.4
X5.8Y-3.5
X5.8Y-5.1
X5.8Y-5.2
X5.9Y-3.4
X5.9Y-3.5
X5.9Y-5.1
X5.9Y-5.2
X6.Y-3.4
X6.Y-3.5
X6.Y-5.1
X6.Y-5.2
X6.1Y-3.4
X6.1Y-3.5
X6.1Y-5.1
X6.1Y-5.2
X7.7Y-3.4
X7.7Y-3.5
X7.7Y-5.1
X7.7Y-5.2
X7.8Y-3.4
X7.8Y-3.5
X7.8Y-5.1
X7.8Y-5.2
X7.9Y-3.4
X7.9Y-3.5
X7.9Y-5.1
X7.9Y-5.2
X8.Y-3.4
X8.Y-3.5
X8.Y-5.1
X8.Y-5.2
X8.1Y-3.4
X8.1Y-3.5
X8.1Y-5.1
X8.1Y-5.2
X8.2Y-3.4
X8.2Y-3.5
X8.2Y-5.1
X8.2Y-5.2
X8.3Y-3.4
X8.3Y-3.5
X8.3Y-5.1
X8.3Y-5.2
X8.4Y-3.4
X8.4Y-3.5
X8.4Y-5.1
X8.4Y-5.2
X8.5Y-3.4
X8.5Y-3.5
X8.5Y-5.1
X8.5Y-5.2
X8.6Y-3.4
X8.6Y-3.5
X8.6Y-5.1
X8.6Y-5.2
X7.Y-3.9
X6.8Y-3.5
X7.26Y-4.1
X6.96Y-3.5
X8.37Y-4.3
X8.37Y-4.8
T6
X5.8Y-3.989
X5.8Y-4.3
X5.8Y-4.611
X5.4Y-3.989
X5.4Y-4.3
X5.4Y-4.611
X6.2Y-3.989
X6.2Y-4.3
X6.2Y-4.611
X6.6Y-3.99
X6.6Y-4.301
X6.6Y-4.612
T0
M30
