  0
SECTION
  2
HEADER
  9
$ACADVER
  1
AC1009
  9
$FILLMODE
 70
0
  9
$EXTMIN
 10
-0.507572
 20
-0.450315
 30
0.000000
  9
$EXTMAX
 10
2.281496
 20
2.121667
 30
0.000000
  0
ENDSEC
  0
SECTION
  2
TABLES
  0
TABLE
  2
LTYPE
 70
1
  0
LTYPE
  2
CONTINUOUS
 70
64
  3
Solid line
 72
65
 73
0
 40
0
  0
ENDTAB
  0
TABLE
  2
LAYER
 70
255
  0
LAYER
  2
1
 70
64
 62
22
  6
CONTINUOUS
  0
LAYER
  2
16
 70
64
 62
175
  6
CONTINUOUS
  0
LAYER
  2
17
 70
64
 62
82
  6
CONTINUOUS
  0
LAYER
  2
18
 70
64
 62
82
  6
CONTINUOUS
  0
LAYER
  2
19
 70
64
 62
53
  6
CONTINUOUS
  0
LAYER
  2
20
 70
64
 62
7
  6
CONTINUOUS
  0
LAYER
  2
51
 70
64
 62
253
  6
CONTINUOUS
  0
LAYER
  2
52
 70
64
 62
253
  6
CONTINUOUS
  0
ENDTAB
  0
ENDSEC
  0
SECTION
  2
BLOCKS
  0
BLOCK
  8
0
  2
RECT
 70
64
 10
0.000000
 20
0.000000
 30
0.000000
  3
RECT
  0
SOLID
  8
0
 10
-0.500000
 20
-0.500000
 30
0.000000
 11
0.500000
 21
-0.500000
 31
0.000000
 12
-0.500000
 22
0.500000
 32
0.000000
 13
0.500000
 23
0.500000
 33
0.000000
  0
ENDBLK
  8
0
  0
BLOCK
  8
0
  2
PIE
 70
64
 10
0.000000
 20
0.000000
 30
0.000000
  3
PIE
  0
CIRCLE
  8
0
 10
0.000000
 20
0.000000
 30
0.000000
 40
0.500000
  0
ENDBLK
  8
0
  0
BLOCK
  8
0
  2
OCTAGONP
 70
64
 10
0.000000
 20
0.000000
 30
0.000000
  3
OCTAGONP
  0
POLYLINE
  8
0
 66
1
 10
0.000000
 20
0.000000
 30
0.000000
 40
0.000000
 41
0.000000
 70
1
  0
VERTEX
  8
0
 10
-0.500000
 20
-0.207107
 30
0.000000
  0
VERTEX
  8
0
 10
-0.500000
 20
0.207107
 30
0.000000
  0
VERTEX
  8
0
 10
-0.207107
 20
0.500000
 30
0.000000
  0
VERTEX
  8
0
 10
0.207107
 20
0.500000
 30
0.000000
  0
VERTEX
  8
0
 10
0.500000
 20
0.207107
 30
0.000000
  0
VERTEX
  8
0
 10
0.500000
 20
-0.207107
 30
0.000000
  0
VERTEX
  8
0
 10
0.207107
 20
-0.500000
 30
0.000000
  0
VERTEX
  8
0
 10
-0.207107
 20
-0.500000
 30
0.000000
  0
SEQEND
  8
0
  0
ENDBLK
  8
0
  0
BLOCK
  8
0
  2
SQUAREP
 70
64
 10
0.000000
 20
0.000000
 30
0.000000
  3
SQUAREP
  0
SOLID
  8
0
 10
-0.500000
 20
-0.500000
 30
0.000000
 11
0.500000
 21
-0.500000
 31
0.000000
 12
-0.500000
 22
0.500000
 32
0.000000
 13
0.500000
 23
0.500000
 33
0.000000
  0
ENDBLK
  8
0
  0
BLOCK
  8
0
  2
ROUNDP
 70
64
 10
0.000000
 20
0.000000
 30
0.000000
  3
ROUNDP
  0
CIRCLE
  8
0
 10
0.000000
 20
0.000000
 30
0.000000
 40
0.500000
  0
ENDBLK
  8
0
  0
BLOCK
  8
0
  2
ANNULUSP
 70
64
 10
0.000000
 20
0.000000
 30
0.000000
  3
ANNULUSP
  0
CIRCLE
  8
0
 10
0.000000
 20
0.000000
 30
0.000000
 40
0.500000
  0
ENDBLK
  8
0
  0
BLOCK
  8
0
  2
THERMALP
 70
64
 10
0.000000
 20
0.000000
 30
0.000000
  3
THERMALP
  0
LINE
  8
0
 10
-0.237868
 20
0.450000
 30
0.000000
 11
0.237868
 21
0.450000
 31
0.000000
  0
LINE
  8
0
 10
0.450000
 20
0.237868
 30
0.000000
 11
0.450000
 21
-0.237868
 31
0.000000
  0
LINE
  8
0
 10
0.237868
 20
-0.450000
 30
0.000000
 11
-0.237868
 21
-0.450000
 31
0.000000
  0
LINE
  8
0
 10
-0.450000
 20
-0.237868
 30
0.000000
 11
-0.450000
 21
0.237868
 31
0.000000
  0
ENDBLK
  8
0
  0
BLOCK
  8
0
  2
OCTAGONV
 70
64
 10
0.000000
 20
0.000000
 30
0.000000
  3
OCTAGONV
  0
POLYLINE
  8
0
 66
1
 10
0.000000
 20
0.000000
 30
0.000000
 40
0.000000
 41
0.000000
 70
1
  0
VERTEX
  8
0
 10
-0.500000
 20
-0.207107
 30
0.000000
  0
VERTEX
  8
0
 10
-0.500000
 20
0.207107
 30
0.000000
  0
VERTEX
  8
0
 10
-0.207107
 20
0.500000
 30
0.000000
  0
VERTEX
  8
0
 10
0.207107
 20
0.500000
 30
0.000000
  0
VERTEX
  8
0
 10
0.500000
 20
0.207107
 30
0.000000
  0
VERTEX
  8
0
 10
0.500000
 20
-0.207107
 30
0.000000
  0
VERTEX
  8
0
 10
0.207107
 20
-0.500000
 30
0.000000
  0
VERTEX
  8
0
 10
-0.207107
 20
-0.500000
 30
0.000000
  0
SEQEND
  8
0
  0
ENDBLK
  8
0
  0
BLOCK
  8
0
  2
SQUAREV
 70
64
 10
0.000000
 20
0.000000
 30
0.000000
  3
SQUAREV
  0
SOLID
  8
0
 10
-0.500000
 20
-0.500000
 30
0.000000
 11
0.500000
 21
-0.500000
 31
0.000000
 12
-0.500000
 22
0.500000
 32
0.000000
 13
0.500000
 23
0.500000
 33
0.000000
  0
ENDBLK
  8
0
  0
BLOCK
  8
0
  2
ROUNDV
 70
64
 10
0.000000
 20
0.000000
 30
0.000000
  3
ROUNDV
  0
CIRCLE
  8
0
 10
0.000000
 20
0.000000
 30
0.000000
 40
0.500000
  0
ENDBLK
  8
0
  0
BLOCK
  8
0
  2
ANNULUSV
 70
64
 10
0.000000
 20
0.000000
 30
0.000000
  3
ANNULUSV
  0
CIRCLE
  8
0
 10
0.000000
 20
0.000000
 30
0.000000
 40
0.500000
  0
ENDBLK
  8
0
  0
BLOCK
  8
0
  2
THERMALV
 70
64
 10
0.000000
 20
0.000000
 30
0.000000
  3
THERMALV
  0
LINE
  8
0
 10
-0.237868
 20
0.450000
 30
0.000000
 11
0.237868
 21
0.450000
 31
0.000000
  0
LINE
  8
0
 10
0.450000
 20
0.237868
 30
0.000000
 11
0.450000
 21
-0.237868
 31
0.000000
  0
LINE
  8
0
 10
0.237868
 20
-0.450000
 30
0.000000
 11
-0.237868
 21
-0.450000
 31
0.000000
  0
LINE
  8
0
 10
-0.450000
 20
-0.237868
 30
0.000000
 11
-0.450000
 21
0.237868
 31
0.000000
  0
ENDBLK
  8
0
  0
BLOCK
  8
0
  2
RECT160000X160000R30
 70
64
 10
0.000000
 20
0.000000
 30
0.000000
  3
RECT160000X160000R30
  0
POLYLINE
  8
0
 66
1
 10
0.000000
 20
0.000000
 30
0.000000
 40
0.000000
 41
0.000000
 70
1
  0
VERTEX
  8
0
 10
0.019685
 20
-0.013780
 30
0.000000
  0
VERTEX
  8
0
 10
0.019685
 20
0.013780
 30
0.000000
 42
0.414214
  0
VERTEX
  8
0
 10
0.013780
 20
0.019685
 30
0.000000
  0
VERTEX
  8
0
 10
-0.013780
 20
0.019685
 30
0.000000
 42
0.414214
  0
VERTEX
  8
0
 10
-0.019685
 20
0.013780
 30
0.000000
  0
VERTEX
  8
0
 10
-0.019685
 20
-0.013780
 30
0.000000
 42
0.414214
  0
VERTEX
  8
0
 10
-0.013780
 20
-0.019685
 30
0.000000
  0
VERTEX
  8
0
 10
0.013780
 20
-0.019685
 30
0.000000
 42
0.414214
  0
SEQEND
  8
0
  0
ENDBLK
  8
0
  0
ENDSEC
  0
SECTION
  2
ENTITIES
  0
LINE
  8
20
 10
0.000000
 20
0.000000
 30
0.000000
 11
2.025000
 21
0.000000
 31
0.000000
  0
LINE
  8
20
 10
2.025000
 20
0.000000
 30
0.000000
 11
2.025000
 21
2.072000
 31
0.000000
  0
LINE
  8
20
 10
2.025000
 20
2.072000
 30
0.000000
 11
0.000000
 21
2.072000
 31
0.000000
  0
LINE
  8
20
 10
0.000000
 20
2.072000
 30
0.000000
 11
0.000000
 21
0.000000
 31
0.000000
  0
LINE
  8
52
 10
0.716181
 20
0.572008
 30
0.000000
 11
0.716181
 21
0.697992
 31
0.000000
  0
LINE
  8
52
 10
0.716181
 20
0.697992
 30
0.000000
 11
0.613819
 21
0.697992
 31
0.000000
  0
LINE
  8
52
 10
0.613819
 20
0.697992
 30
0.000000
 11
0.613819
 21
0.572008
 31
0.000000
  0
LINE
  8
52
 10
0.613819
 20
0.572008
 30
0.000000
 11
0.716181
 21
0.572008
 31
0.000000
  0
INSERT
  8
16
  2
RECT
 10
0.665000
 20
0.572008
 30
0.000000
 41
0.047244
 42
0.078740
 43
1.000000
 50
90.000000
  0
INSERT
  8
16
  2
RECT
 10
0.665000
 20
0.697992
 30
0.000000
 41
0.047244
 42
0.078740
 43
1.000000
 50
90.000000
  0
LINE
  8
52
 10
0.822992
 20
1.054016
 30
0.000000
 11
0.822992
 21
1.025984
 31
0.000000
  0
LINE
  8
52
 10
0.856496
 20
1.054016
 30
0.000000
 11
0.856496
 21
1.025984
 31
0.000000
  0
INSERT
  8
52
  2
RECT
 10
0.839799
 20
1.063156
 30
0.000000
 41
0.019689
 42
0.037402
 43
1.000000
 50
270.000000
  0
INSERT
  8
52
  2
RECT
 10
0.839799
 20
1.017156
 30
0.000000
 41
0.019689
 42
0.037402
 43
1.000000
 50
270.000000
  0
INSERT
  8
16
  2
RECT
 10
0.840000
 20
1.073465
 30
0.000000
 41
0.043307
 42
0.039370
 43
1.000000
 50
270.000000
  0
INSERT
  8
16
  2
RECT
 10
0.840000
 20
1.006535
 30
0.000000
 41
0.043307
 42
0.039370
 43
1.000000
 50
270.000000
  0
LINE
  8
52
 10
0.591181
 20
0.572008
 30
0.000000
 11
0.591181
 21
0.697992
 31
0.000000
  0
LINE
  8
52
 10
0.591181
 20
0.697992
 30
0.000000
 11
0.488819
 21
0.697992
 31
0.000000
  0
LINE
  8
52
 10
0.488819
 20
0.697992
 30
0.000000
 11
0.488819
 21
0.572008
 31
0.000000
  0
LINE
  8
52
 10
0.488819
 20
0.572008
 30
0.000000
 11
0.591181
 21
0.572008
 31
0.000000
  0
INSERT
  8
16
  2
RECT
 10
0.540000
 20
0.572008
 30
0.000000
 41
0.047244
 42
0.078740
 43
1.000000
 50
90.000000
  0
INSERT
  8
16
  2
RECT
 10
0.540000
 20
0.697992
 30
0.000000
 41
0.047244
 42
0.078740
 43
1.000000
 50
90.000000
  0
LINE
  8
52
 10
0.466181
 20
0.572008
 30
0.000000
 11
0.466181
 21
0.697992
 31
0.000000
  0
LINE
  8
52
 10
0.466181
 20
0.697992
 30
0.000000
 11
0.363819
 21
0.697992
 31
0.000000
  0
LINE
  8
52
 10
0.363819
 20
0.697992
 30
0.000000
 11
0.363819
 21
0.572008
 31
0.000000
  0
LINE
  8
52
 10
0.363819
 20
0.572008
 30
0.000000
 11
0.466181
 21
0.572008
 31
0.000000
  0
INSERT
  8
16
  2
RECT
 10
0.415000
 20
0.572008
 30
0.000000
 41
0.047244
 42
0.078740
 43
1.000000
 50
90.000000
  0
INSERT
  8
16
  2
RECT
 10
0.415000
 20
0.697992
 30
0.000000
 41
0.047244
 42
0.078740
 43
1.000000
 50
90.000000
  0
LINE
  8
52
 10
0.341181
 20
0.572008
 30
0.000000
 11
0.341181
 21
0.697992
 31
0.000000
  0
LINE
  8
52
 10
0.341181
 20
0.697992
 30
0.000000
 11
0.238819
 21
0.697992
 31
0.000000
  0
LINE
  8
52
 10
0.238819
 20
0.697992
 30
0.000000
 11
0.238819
 21
0.572008
 31
0.000000
  0
LINE
  8
52
 10
0.238819
 20
0.572008
 30
0.000000
 11
0.341181
 21
0.572008
 31
0.000000
  0
INSERT
  8
16
  2
RECT
 10
0.290000
 20
0.572008
 30
0.000000
 41
0.047244
 42
0.078740
 43
1.000000
 50
90.000000
  0
INSERT
  8
16
  2
RECT
 10
0.290000
 20
0.697992
 30
0.000000
 41
0.047244
 42
0.078740
 43
1.000000
 50
90.000000
  0
LINE
  8
52
 10
0.216181
 20
0.572008
 30
0.000000
 11
0.216181
 21
0.697992
 31
0.000000
  0
LINE
  8
52
 10
0.216181
 20
0.697992
 30
0.000000
 11
0.113819
 21
0.697992
 31
0.000000
  0
LINE
  8
52
 10
0.113819
 20
0.697992
 30
0.000000
 11
0.113819
 21
0.572008
 31
0.000000
  0
LINE
  8
52
 10
0.113819
 20
0.572008
 30
0.000000
 11
0.216181
 21
0.572008
 31
0.000000
  0
INSERT
  8
16
  2
RECT
 10
0.165000
 20
0.572008
 30
0.000000
 41
0.047244
 42
0.078740
 43
1.000000
 50
90.000000
  0
INSERT
  8
16
  2
RECT
 10
0.165000
 20
0.697992
 30
0.000000
 41
0.047244
 42
0.078740
 43
1.000000
 50
90.000000
  0
LINE
  8
52
 10
0.113819
 20
0.497992
 30
0.000000
 11
0.113819
 21
0.372008
 31
0.000000
  0
LINE
  8
52
 10
0.113819
 20
0.372008
 30
0.000000
 11
0.216181
 21
0.372008
 31
0.000000
  0
LINE
  8
52
 10
0.216181
 20
0.372008
 30
0.000000
 11
0.216181
 21
0.497992
 31
0.000000
  0
LINE
  8
52
 10
0.216181
 20
0.497992
 30
0.000000
 11
0.113819
 21
0.497992
 31
0.000000
  0
INSERT
  8
16
  2
RECT
 10
0.165000
 20
0.497992
 30
0.000000
 41
0.047244
 42
0.078740
 43
1.000000
 50
270.000000
  0
INSERT
  8
16
  2
RECT
 10
0.165000
 20
0.372008
 30
0.000000
 41
0.047244
 42
0.078740
 43
1.000000
 50
270.000000
  0
LINE
  8
52
 10
0.238819
 20
0.497992
 30
0.000000
 11
0.238819
 21
0.372008
 31
0.000000
  0
LINE
  8
52
 10
0.238819
 20
0.372008
 30
0.000000
 11
0.341181
 21
0.372008
 31
0.000000
  0
LINE
  8
52
 10
0.341181
 20
0.372008
 30
0.000000
 11
0.341181
 21
0.497992
 31
0.000000
  0
LINE
  8
52
 10
0.341181
 20
0.497992
 30
0.000000
 11
0.238819
 21
0.497992
 31
0.000000
  0
INSERT
  8
16
  2
RECT
 10
0.290000
 20
0.497992
 30
0.000000
 41
0.047244
 42
0.078740
 43
1.000000
 50
270.000000
  0
INSERT
  8
16
  2
RECT
 10
0.290000
 20
0.372008
 30
0.000000
 41
0.047244
 42
0.078740
 43
1.000000
 50
270.000000
  0
LINE
  8
52
 10
0.363819
 20
0.497992
 30
0.000000
 11
0.363819
 21
0.372008
 31
0.000000
  0
LINE
  8
52
 10
0.363819
 20
0.372008
 30
0.000000
 11
0.466181
 21
0.372008
 31
0.000000
  0
LINE
  8
52
 10
0.466181
 20
0.372008
 30
0.000000
 11
0.466181
 21
0.497992
 31
0.000000
  0
LINE
  8
52
 10
0.466181
 20
0.497992
 30
0.000000
 11
0.363819
 21
0.497992
 31
0.000000
  0
INSERT
  8
16
  2
RECT
 10
0.415000
 20
0.497992
 30
0.000000
 41
0.047244
 42
0.078740
 43
1.000000
 50
270.000000
  0
INSERT
  8
16
  2
RECT
 10
0.415000
 20
0.372008
 30
0.000000
 41
0.047244
 42
0.078740
 43
1.000000
 50
270.000000
  0
LINE
  8
52
 10
0.488819
 20
0.497992
 30
0.000000
 11
0.488819
 21
0.372008
 31
0.000000
  0
LINE
  8
52
 10
0.488819
 20
0.372008
 30
0.000000
 11
0.591181
 21
0.372008
 31
0.000000
  0
LINE
  8
52
 10
0.591181
 20
0.372008
 30
0.000000
 11
0.591181
 21
0.497992
 31
0.000000
  0
LINE
  8
52
 10
0.591181
 20
0.497992
 30
0.000000
 11
0.488819
 21
0.497992
 31
0.000000
  0
INSERT
  8
16
  2
RECT
 10
0.540000
 20
0.497992
 30
0.000000
 41
0.047244
 42
0.078740
 43
1.000000
 50
270.000000
  0
INSERT
  8
16
  2
RECT
 10
0.540000
 20
0.372008
 30
0.000000
 41
0.047244
 42
0.078740
 43
1.000000
 50
270.000000
  0
LINE
  8
52
 10
0.613819
 20
0.497992
 30
0.000000
 11
0.613819
 21
0.372008
 31
0.000000
  0
LINE
  8
52
 10
0.613819
 20
0.372008
 30
0.000000
 11
0.716181
 21
0.372008
 31
0.000000
  0
LINE
  8
52
 10
0.716181
 20
0.372008
 30
0.000000
 11
0.716181
 21
0.497992
 31
0.000000
  0
LINE
  8
52
 10
0.716181
 20
0.497992
 30
0.000000
 11
0.613819
 21
0.497992
 31
0.000000
  0
INSERT
  8
16
  2
RECT
 10
0.665000
 20
0.497992
 30
0.000000
 41
0.047244
 42
0.078740
 43
1.000000
 50
270.000000
  0
INSERT
  8
16
  2
RECT
 10
0.665000
 20
0.372008
 30
0.000000
 41
0.047244
 42
0.078740
 43
1.000000
 50
270.000000
  0
INSERT
  8
1
  2
RECT160000X160000R30
 10
0.964528
 20
0.215000
 30
0.000000
 41
1.000000
 42
1.000000
 43
1.000000
 50
90.000000
  0
INSERT
  8
1
  2
RECT160000X160000R30
 10
0.895472
 20
0.215000
 30
0.000000
 41
1.000000
 42
1.000000
 43
1.000000
 50
90.000000
  0
INSERT
  8
1
  2
RECT160000X160000R30
 10
0.895472
 20
0.065000
 30
0.000000
 41
1.000000
 42
1.000000
 43
1.000000
 50
270.000000
  0
INSERT
  8
1
  2
RECT160000X160000R30
 10
0.964528
 20
0.065000
 30
0.000000
 41
1.000000
 42
1.000000
 43
1.000000
 50
270.000000
  0
INSERT
  8
1
  2
RECT160000X160000R30
 10
0.964528
 20
0.140000
 30
0.000000
 41
1.000000
 42
1.000000
 43
1.000000
 50
90.000000
  0
INSERT
  8
1
  2
RECT160000X160000R30
 10
0.895472
 20
0.140000
 30
0.000000
 41
1.000000
 42
1.000000
 43
1.000000
 50
90.000000
  0
LINE
  8
51
 10
1.465000
 20
1.555000
 30
0.000000
 11
1.465000
 21
1.727000
 31
0.000000
  0
LINE
  8
51
 10
1.465000
 20
1.727000
 30
0.000000
 11
1.655000
 21
1.727000
 31
0.000000
  0
LINE
  8
51
 10
1.655000
 20
1.727000
 30
0.000000
 11
1.773000
 21
1.727000
 31
0.000000
  0
LINE
  8
51
 10
1.773000
 20
1.727000
 30
0.000000
 11
1.963000
 21
1.727000
 31
0.000000
  0
LINE
  8
51
 10
1.963000
 20
1.727000
 30
0.000000
 11
1.963000
 21
1.555000
 31
0.000000
  0
LINE
  8
51
 10
1.963000
 20
1.555000
 30
0.000000
 11
1.465000
 21
1.555000
 31
0.000000
  0
LINE
  8
51
 10
1.655000
 20
1.727000
 30
0.000000
 11
1.655000
 21
1.774000
 31
0.000000
  0
LINE
  8
51
 10
1.655000
 20
1.774000
 30
0.000000
 11
1.773000
 21
1.774000
 31
0.000000
  0
LINE
  8
51
 10
1.773000
 20
1.774000
 30
0.000000
 11
1.773000
 21
1.727000
 31
0.000000
  0
CIRCLE
  8
20
 10
1.478000
 20
1.575000
 30
0.000000
 40
0.025000
  0
CIRCLE
  8
20
 10
1.950000
 20
1.575000
 30
0.000000
 40
0.025000
  0
INSERT
  8
17
  2
ROUNDP
 10
1.832000
 20
1.652000
 30
0.000000
 41
0.060000
 42
0.060000
 43
1.000000
 50
0.000000
  0
INSERT
  8
17
  2
ROUNDP
 10
1.832000
 20
1.652000
 30
0.000000
 41
0.060000
 42
0.060000
 43
1.000000
 50
0.000000
  0
INSERT
  8
17
  2
ROUNDP
 10
1.714000
 20
1.652000
 30
0.000000
 41
0.060000
 42
0.060000
 43
1.000000
 50
0.000000
  0
INSERT
  8
17
  2
ROUNDP
 10
1.714000
 20
1.652000
 30
0.000000
 41
0.060000
 42
0.060000
 43
1.000000
 50
0.000000
  0
INSERT
  8
17
  2
ROUNDP
 10
1.596000
 20
1.652000
 30
0.000000
 41
0.060000
 42
0.060000
 43
1.000000
 50
0.000000
  0
INSERT
  8
17
  2
ROUNDP
 10
1.596000
 20
1.652000
 30
0.000000
 41
0.060000
 42
0.060000
 43
1.000000
 50
0.000000
  0
LINE
  8
51
 10
1.465000
 20
0.905000
 30
0.000000
 11
1.465000
 21
1.077000
 31
0.000000
  0
LINE
  8
51
 10
1.465000
 20
1.077000
 30
0.000000
 11
1.655000
 21
1.077000
 31
0.000000
  0
LINE
  8
51
 10
1.655000
 20
1.077000
 30
0.000000
 11
1.773000
 21
1.077000
 31
0.000000
  0
LINE
  8
51
 10
1.773000
 20
1.077000
 30
0.000000
 11
1.963000
 21
1.077000
 31
0.000000
  0
LINE
  8
51
 10
1.963000
 20
1.077000
 30
0.000000
 11
1.963000
 21
0.905000
 31
0.000000
  0
LINE
  8
51
 10
1.963000
 20
0.905000
 30
0.000000
 11
1.465000
 21
0.905000
 31
0.000000
  0
LINE
  8
51
 10
1.655000
 20
1.077000
 30
0.000000
 11
1.655000
 21
1.124000
 31
0.000000
  0
LINE
  8
51
 10
1.655000
 20
1.124000
 30
0.000000
 11
1.773000
 21
1.124000
 31
0.000000
  0
LINE
  8
51
 10
1.773000
 20
1.124000
 30
0.000000
 11
1.773000
 21
1.077000
 31
0.000000
  0
CIRCLE
  8
20
 10
1.478000
 20
0.925000
 30
0.000000
 40
0.025000
  0
CIRCLE
  8
20
 10
1.950000
 20
0.925000
 30
0.000000
 40
0.025000
  0
INSERT
  8
17
  2
ROUNDP
 10
1.832000
 20
1.002000
 30
0.000000
 41
0.060000
 42
0.060000
 43
1.000000
 50
0.000000
  0
INSERT
  8
17
  2
ROUNDP
 10
1.832000
 20
1.002000
 30
0.000000
 41
0.060000
 42
0.060000
 43
1.000000
 50
0.000000
  0
INSERT
  8
17
  2
ROUNDP
 10
1.714000
 20
1.002000
 30
0.000000
 41
0.060000
 42
0.060000
 43
1.000000
 50
0.000000
  0
INSERT
  8
17
  2
ROUNDP
 10
1.714000
 20
1.002000
 30
0.000000
 41
0.060000
 42
0.060000
 43
1.000000
 50
0.000000
  0
INSERT
  8
17
  2
ROUNDP
 10
1.596000
 20
1.002000
 30
0.000000
 41
0.060000
 42
0.060000
 43
1.000000
 50
0.000000
  0
INSERT
  8
17
  2
ROUNDP
 10
1.596000
 20
1.002000
 30
0.000000
 41
0.060000
 42
0.060000
 43
1.000000
 50
0.000000
  0
LINE
  8
51
 10
0.765000
 20
1.555000
 30
0.000000
 11
0.765000
 21
1.727000
 31
0.000000
  0
LINE
  8
51
 10
0.765000
 20
1.727000
 30
0.000000
 11
0.955000
 21
1.727000
 31
0.000000
  0
LINE
  8
51
 10
0.955000
 20
1.727000
 30
0.000000
 11
1.073000
 21
1.727000
 31
0.000000
  0
LINE
  8
51
 10
1.073000
 20
1.727000
 30
0.000000
 11
1.263000
 21
1.727000
 31
0.000000
  0
LINE
  8
51
 10
1.263000
 20
1.727000
 30
0.000000
 11
1.263000
 21
1.555000
 31
0.000000
  0
LINE
  8
51
 10
1.263000
 20
1.555000
 30
0.000000
 11
0.765000
 21
1.555000
 31
0.000000
  0
LINE
  8
51
 10
0.955000
 20
1.727000
 30
0.000000
 11
0.955000
 21
1.774000
 31
0.000000
  0
LINE
  8
51
 10
0.955000
 20
1.774000
 30
0.000000
 11
1.073000
 21
1.774000
 31
0.000000
  0
LINE
  8
51
 10
1.073000
 20
1.774000
 30
0.000000
 11
1.073000
 21
1.727000
 31
0.000000
  0
CIRCLE
  8
20
 10
0.778000
 20
1.575000
 30
0.000000
 40
0.025000
  0
CIRCLE
  8
20
 10
1.250000
 20
1.575000
 30
0.000000
 40
0.025000
  0
INSERT
  8
17
  2
ROUNDP
 10
1.132000
 20
1.652000
 30
0.000000
 41
0.060000
 42
0.060000
 43
1.000000
 50
0.000000
  0
INSERT
  8
17
  2
ROUNDP
 10
1.132000
 20
1.652000
 30
0.000000
 41
0.060000
 42
0.060000
 43
1.000000
 50
0.000000
  0
INSERT
  8
17
  2
ROUNDP
 10
1.014000
 20
1.652000
 30
0.000000
 41
0.060000
 42
0.060000
 43
1.000000
 50
0.000000
  0
INSERT
  8
17
  2
ROUNDP
 10
1.014000
 20
1.652000
 30
0.000000
 41
0.060000
 42
0.060000
 43
1.000000
 50
0.000000
  0
INSERT
  8
17
  2
ROUNDP
 10
0.896000
 20
1.652000
 30
0.000000
 41
0.060000
 42
0.060000
 43
1.000000
 50
0.000000
  0
INSERT
  8
17
  2
ROUNDP
 10
0.896000
 20
1.652000
 30
0.000000
 41
0.060000
 42
0.060000
 43
1.000000
 50
0.000000
  0
LINE
  8
51
 10
0.065000
 20
1.555000
 30
0.000000
 11
0.065000
 21
1.727000
 31
0.000000
  0
LINE
  8
51
 10
0.065000
 20
1.727000
 30
0.000000
 11
0.255000
 21
1.727000
 31
0.000000
  0
LINE
  8
51
 10
0.255000
 20
1.727000
 30
0.000000
 11
0.373000
 21
1.727000
 31
0.000000
  0
LINE
  8
51
 10
0.373000
 20
1.727000
 30
0.000000
 11
0.563000
 21
1.727000
 31
0.000000
  0
LINE
  8
51
 10
0.563000
 20
1.727000
 30
0.000000
 11
0.563000
 21
1.555000
 31
0.000000
  0
LINE
  8
51
 10
0.563000
 20
1.555000
 30
0.000000
 11
0.065000
 21
1.555000
 31
0.000000
  0
LINE
  8
51
 10
0.255000
 20
1.727000
 30
0.000000
 11
0.255000
 21
1.774000
 31
0.000000
  0
LINE
  8
51
 10
0.255000
 20
1.774000
 30
0.000000
 11
0.373000
 21
1.774000
 31
0.000000
  0
LINE
  8
51
 10
0.373000
 20
1.774000
 30
0.000000
 11
0.373000
 21
1.727000
 31
0.000000
  0
CIRCLE
  8
20
 10
0.078000
 20
1.575000
 30
0.000000
 40
0.025000
  0
CIRCLE
  8
20
 10
0.550000
 20
1.575000
 30
0.000000
 40
0.025000
  0
INSERT
  8
17
  2
ROUNDP
 10
0.432000
 20
1.652000
 30
0.000000
 41
0.060000
 42
0.060000
 43
1.000000
 50
0.000000
  0
INSERT
  8
17
  2
ROUNDP
 10
0.432000
 20
1.652000
 30
0.000000
 41
0.060000
 42
0.060000
 43
1.000000
 50
0.000000
  0
INSERT
  8
17
  2
ROUNDP
 10
0.314000
 20
1.652000
 30
0.000000
 41
0.060000
 42
0.060000
 43
1.000000
 50
0.000000
  0
INSERT
  8
17
  2
ROUNDP
 10
0.314000
 20
1.652000
 30
0.000000
 41
0.060000
 42
0.060000
 43
1.000000
 50
0.000000
  0
INSERT
  8
17
  2
ROUNDP
 10
0.196000
 20
1.652000
 30
0.000000
 41
0.060000
 42
0.060000
 43
1.000000
 50
0.000000
  0
INSERT
  8
17
  2
ROUNDP
 10
0.196000
 20
1.652000
 30
0.000000
 41
0.060000
 42
0.060000
 43
1.000000
 50
0.000000
  0
LINE
  8
52
 10
0.915984
 20
0.197992
 30
0.000000
 11
0.944016
 21
0.197992
 31
0.000000
  0
LINE
  8
52
 10
0.915984
 20
0.231496
 30
0.000000
 11
0.944016
 21
0.231496
 31
0.000000
  0
INSERT
  8
52
  2
RECT
 10
0.906844
 20
0.214799
 30
0.000000
 41
0.019689
 42
0.037402
 43
1.000000
 50
0.000000
  0
INSERT
  8
52
  2
RECT
 10
0.952844
 20
0.214799
 30
0.000000
 41
0.019689
 42
0.037402
 43
1.000000
 50
0.000000
  0
INSERT
  8
16
  2
RECT
 10
0.896535
 20
0.215000
 30
0.000000
 41
0.043307
 42
0.039370
 43
1.000000
 50
0.000000
  0
INSERT
  8
16
  2
RECT
 10
0.963465
 20
0.215000
 30
0.000000
 41
0.043307
 42
0.039370
 43
1.000000
 50
0.000000
  0
LINE
  8
52
 10
0.930984
 20
0.982992
 30
0.000000
 11
0.959016
 21
0.982992
 31
0.000000
  0
LINE
  8
52
 10
0.930984
 20
1.016496
 30
0.000000
 11
0.959016
 21
1.016496
 31
0.000000
  0
INSERT
  8
52
  2
RECT
 10
0.921844
 20
0.999799
 30
0.000000
 41
0.019689
 42
0.037402
 43
1.000000
 50
0.000000
  0
INSERT
  8
52
  2
RECT
 10
0.967844
 20
0.999799
 30
0.000000
 41
0.019689
 42
0.037402
 43
1.000000
 50
0.000000
  0
INSERT
  8
16
  2
RECT
 10
0.911535
 20
1.000000
 30
0.000000
 41
0.043307
 42
0.039370
 43
1.000000
 50
0.000000
  0
INSERT
  8
16
  2
RECT
 10
0.978465
 20
1.000000
 30
0.000000
 41
0.043307
 42
0.039370
 43
1.000000
 50
0.000000
  0
LINE
  8
52
 10
0.959016
 20
1.092008
 30
0.000000
 11
0.930984
 21
1.092008
 31
0.000000
  0
LINE
  8
52
 10
0.959016
 20
1.058504
 30
0.000000
 11
0.930984
 21
1.058504
 31
0.000000
  0
INSERT
  8
52
  2
RECT
 10
0.968156
 20
1.075201
 30
0.000000
 41
0.019689
 42
0.037402
 43
1.000000
 50
180.000000
  0
INSERT
  8
52
  2
RECT
 10
0.922156
 20
1.075201
 30
0.000000
 41
0.019689
 42
0.037402
 43
1.000000
 50
180.000000
  0
INSERT
  8
16
  2
RECT
 10
0.978465
 20
1.075000
 30
0.000000
 41
0.043307
 42
0.039370
 43
1.000000
 50
180.000000
  0
INSERT
  8
16
  2
RECT
 10
0.911535
 20
1.075000
 30
0.000000
 41
0.043307
 42
0.039370
 43
1.000000
 50
180.000000
  0
LINE
  8
52
 10
1.180984
 20
1.287992
 30
0.000000
 11
1.209016
 21
1.287992
 31
0.000000
  0
LINE
  8
52
 10
1.180984
 20
1.321496
 30
0.000000
 11
1.209016
 21
1.321496
 31
0.000000
  0
INSERT
  8
52
  2
RECT
 10
1.171844
 20
1.304799
 30
0.000000
 41
0.019689
 42
0.037402
 43
1.000000
 50
0.000000
  0
INSERT
  8
52
  2
RECT
 10
1.217844
 20
1.304799
 30
0.000000
 41
0.019689
 42
0.037402
 43
1.000000
 50
0.000000
  0
INSERT
  8
16
  2
RECT
 10
1.161535
 20
1.305000
 30
0.000000
 41
0.043307
 42
0.039370
 43
1.000000
 50
0.000000
  0
INSERT
  8
16
  2
RECT
 10
1.228465
 20
1.305000
 30
0.000000
 41
0.043307
 42
0.039370
 43
1.000000
 50
0.000000
  0
LINE
  8
52
 10
1.067008
 20
1.030984
 30
0.000000
 11
1.067008
 21
1.059016
 31
0.000000
  0
LINE
  8
52
 10
1.033504
 20
1.030984
 30
0.000000
 11
1.033504
 21
1.059016
 31
0.000000
  0
INSERT
  8
52
  2
RECT
 10
1.050201
 20
1.021844
 30
0.000000
 41
0.019689
 42
0.037402
 43
1.000000
 50
90.000000
  0
INSERT
  8
52
  2
RECT
 10
1.050201
 20
1.067844
 30
0.000000
 41
0.019689
 42
0.037402
 43
1.000000
 50
90.000000
  0
INSERT
  8
16
  2
RECT
 10
1.050000
 20
1.011535
 30
0.000000
 41
0.043307
 42
0.039370
 43
1.000000
 50
90.000000
  0
INSERT
  8
16
  2
RECT
 10
1.050000
 20
1.078465
 30
0.000000
 41
0.043307
 42
0.039370
 43
1.000000
 50
90.000000
  0
LINE
  8
52
 10
1.192008
 20
1.035984
 30
0.000000
 11
1.192008
 21
1.064016
 31
0.000000
  0
LINE
  8
52
 10
1.158504
 20
1.035984
 30
0.000000
 11
1.158504
 21
1.064016
 31
0.000000
  0
INSERT
  8
52
  2
RECT
 10
1.175201
 20
1.026844
 30
0.000000
 41
0.019689
 42
0.037402
 43
1.000000
 50
90.000000
  0
INSERT
  8
52
  2
RECT
 10
1.175201
 20
1.072844
 30
0.000000
 41
0.019689
 42
0.037402
 43
1.000000
 50
90.000000
  0
INSERT
  8
16
  2
RECT
 10
1.175000
 20
1.016535
 30
0.000000
 41
0.043307
 42
0.039370
 43
1.000000
 50
90.000000
  0
INSERT
  8
16
  2
RECT
 10
1.175000
 20
1.083465
 30
0.000000
 41
0.043307
 42
0.039370
 43
1.000000
 50
90.000000
  0
LINE
  8
52
 10
1.282008
 20
1.020984
 30
0.000000
 11
1.282008
 21
1.049016
 31
0.000000
  0
LINE
  8
52
 10
1.248504
 20
1.020984
 30
0.000000
 11
1.248504
 21
1.049016
 31
0.000000
  0
INSERT
  8
52
  2
RECT
 10
1.265201
 20
1.011844
 30
0.000000
 41
0.019689
 42
0.037402
 43
1.000000
 50
90.000000
  0
INSERT
  8
52
  2
RECT
 10
1.265201
 20
1.057844
 30
0.000000
 41
0.019689
 42
0.037402
 43
1.000000
 50
90.000000
  0
INSERT
  8
16
  2
RECT
 10
1.265000
 20
1.001535
 30
0.000000
 41
0.043307
 42
0.039370
 43
1.000000
 50
90.000000
  0
INSERT
  8
16
  2
RECT
 10
1.265000
 20
1.068465
 30
0.000000
 41
0.043307
 42
0.039370
 43
1.000000
 50
90.000000
  0
LINE
  8
52
 10
1.032992
 20
1.359016
 30
0.000000
 11
1.032992
 21
1.330984
 31
0.000000
  0
LINE
  8
52
 10
1.066496
 20
1.359016
 30
0.000000
 11
1.066496
 21
1.330984
 31
0.000000
  0
INSERT
  8
52
  2
RECT
 10
1.049799
 20
1.368156
 30
0.000000
 41
0.019689
 42
0.037402
 43
1.000000
 50
270.000000
  0
INSERT
  8
52
  2
RECT
 10
1.049799
 20
1.322156
 30
0.000000
 41
0.019689
 42
0.037402
 43
1.000000
 50
270.000000
  0
INSERT
  8
16
  2
RECT
 10
1.050000
 20
1.378465
 30
0.000000
 41
0.043307
 42
0.039370
 43
1.000000
 50
270.000000
  0
INSERT
  8
16
  2
RECT
 10
1.050000
 20
1.311535
 30
0.000000
 41
0.043307
 42
0.039370
 43
1.000000
 50
270.000000
  0
LINE
  8
52
 10
1.315984
 20
1.287992
 30
0.000000
 11
1.344016
 21
1.287992
 31
0.000000
  0
LINE
  8
52
 10
1.315984
 20
1.321496
 30
0.000000
 11
1.344016
 21
1.321496
 31
0.000000
  0
INSERT
  8
52
  2
RECT
 10
1.306844
 20
1.304799
 30
0.000000
 41
0.019689
 42
0.037402
 43
1.000000
 50
0.000000
  0
INSERT
  8
52
  2
RECT
 10
1.352844
 20
1.304799
 30
0.000000
 41
0.019689
 42
0.037402
 43
1.000000
 50
0.000000
  0
INSERT
  8
16
  2
RECT
 10
1.296535
 20
1.305000
 30
0.000000
 41
0.043307
 42
0.039370
 43
1.000000
 50
0.000000
  0
INSERT
  8
16
  2
RECT
 10
1.363465
 20
1.305000
 30
0.000000
 41
0.043307
 42
0.039370
 43
1.000000
 50
0.000000
  0
LINE
  8
52
 10
1.180984
 20
1.352992
 30
0.000000
 11
1.209016
 21
1.352992
 31
0.000000
  0
LINE
  8
52
 10
1.180984
 20
1.386496
 30
0.000000
 11
1.209016
 21
1.386496
 31
0.000000
  0
INSERT
  8
52
  2
RECT
 10
1.171844
 20
1.369799
 30
0.000000
 41
0.019689
 42
0.037402
 43
1.000000
 50
0.000000
  0
INSERT
  8
52
  2
RECT
 10
1.217844
 20
1.369799
 30
0.000000
 41
0.019689
 42
0.037402
 43
1.000000
 50
0.000000
  0
INSERT
  8
16
  2
RECT
 10
1.161535
 20
1.370000
 30
0.000000
 41
0.043307
 42
0.039370
 43
1.000000
 50
0.000000
  0
INSERT
  8
16
  2
RECT
 10
1.228465
 20
1.370000
 30
0.000000
 41
0.043307
 42
0.039370
 43
1.000000
 50
0.000000
  0
LINE
  8
52
 10
1.315984
 20
1.352992
 30
0.000000
 11
1.344016
 21
1.352992
 31
0.000000
  0
LINE
  8
52
 10
1.315984
 20
1.386496
 30
0.000000
 11
1.344016
 21
1.386496
 31
0.000000
  0
INSERT
  8
52
  2
RECT
 10
1.306844
 20
1.369799
 30
0.000000
 41
0.019689
 42
0.037402
 43
1.000000
 50
0.000000
  0
INSERT
  8
52
  2
RECT
 10
1.352844
 20
1.369799
 30
0.000000
 41
0.019689
 42
0.037402
 43
1.000000
 50
0.000000
  0
INSERT
  8
16
  2
RECT
 10
1.296535
 20
1.370000
 30
0.000000
 41
0.043307
 42
0.039370
 43
1.000000
 50
0.000000
  0
INSERT
  8
16
  2
RECT
 10
1.363465
 20
1.370000
 30
0.000000
 41
0.043307
 42
0.039370
 43
1.000000
 50
0.000000
  0
LINE
  8
52
 10
0.944016
 20
0.082008
 30
0.000000
 11
0.915984
 21
0.082008
 31
0.000000
  0
LINE
  8
52
 10
0.944016
 20
0.048504
 30
0.000000
 11
0.915984
 21
0.048504
 31
0.000000
  0
INSERT
  8
52
  2
RECT
 10
0.953156
 20
0.065201
 30
0.000000
 41
0.019689
 42
0.037402
 43
1.000000
 50
180.000000
  0
INSERT
  8
52
  2
RECT
 10
0.907156
 20
0.065201
 30
0.000000
 41
0.019689
 42
0.037402
 43
1.000000
 50
180.000000
  0
INSERT
  8
16
  2
RECT
 10
0.963465
 20
0.065000
 30
0.000000
 41
0.043307
 42
0.039370
 43
1.000000
 50
180.000000
  0
INSERT
  8
16
  2
RECT
 10
0.896535
 20
0.065000
 30
0.000000
 41
0.043307
 42
0.039370
 43
1.000000
 50
180.000000
  0
LINE
  8
52
 10
0.944016
 20
0.157008
 30
0.000000
 11
0.915984
 21
0.157008
 31
0.000000
  0
LINE
  8
52
 10
0.944016
 20
0.123504
 30
0.000000
 11
0.915984
 21
0.123504
 31
0.000000
  0
INSERT
  8
52
  2
RECT
 10
0.953156
 20
0.140201
 30
0.000000
 41
0.019689
 42
0.037402
 43
1.000000
 50
180.000000
  0
INSERT
  8
52
  2
RECT
 10
0.907156
 20
0.140201
 30
0.000000
 41
0.019689
 42
0.037402
 43
1.000000
 50
180.000000
  0
INSERT
  8
16
  2
RECT
 10
0.963465
 20
0.140000
 30
0.000000
 41
0.043307
 42
0.039370
 43
1.000000
 50
180.000000
  0
INSERT
  8
16
  2
RECT
 10
0.896535
 20
0.140000
 30
0.000000
 41
0.043307
 42
0.039370
 43
1.000000
 50
180.000000
  0
LINE
  8
51
 10
1.465000
 20
1.855000
 30
0.000000
 11
1.465000
 21
2.027000
 31
0.000000
  0
LINE
  8
51
 10
1.465000
 20
2.027000
 30
0.000000
 11
1.655000
 21
2.027000
 31
0.000000
  0
LINE
  8
51
 10
1.655000
 20
2.027000
 30
0.000000
 11
1.773000
 21
2.027000
 31
0.000000
  0
LINE
  8
51
 10
1.773000
 20
2.027000
 30
0.000000
 11
1.963000
 21
2.027000
 31
0.000000
  0
LINE
  8
51
 10
1.963000
 20
2.027000
 30
0.000000
 11
1.963000
 21
1.855000
 31
0.000000
  0
LINE
  8
51
 10
1.963000
 20
1.855000
 30
0.000000
 11
1.465000
 21
1.855000
 31
0.000000
  0
LINE
  8
51
 10
1.655000
 20
2.027000
 30
0.000000
 11
1.655000
 21
2.074000
 31
0.000000
  0
LINE
  8
51
 10
1.655000
 20
2.074000
 30
0.000000
 11
1.773000
 21
2.074000
 31
0.000000
  0
LINE
  8
51
 10
1.773000
 20
2.074000
 30
0.000000
 11
1.773000
 21
2.027000
 31
0.000000
  0
CIRCLE
  8
20
 10
1.478000
 20
1.875000
 30
0.000000
 40
0.025000
  0
CIRCLE
  8
20
 10
1.950000
 20
1.875000
 30
0.000000
 40
0.025000
  0
INSERT
  8
17
  2
ROUNDP
 10
1.832000
 20
1.952000
 30
0.000000
 41
0.060000
 42
0.060000
 43
1.000000
 50
0.000000
  0
INSERT
  8
17
  2
ROUNDP
 10
1.832000
 20
1.952000
 30
0.000000
 41
0.060000
 42
0.060000
 43
1.000000
 50
0.000000
  0
INSERT
  8
17
  2
ROUNDP
 10
1.714000
 20
1.952000
 30
0.000000
 41
0.060000
 42
0.060000
 43
1.000000
 50
0.000000
  0
INSERT
  8
17
  2
ROUNDP
 10
1.714000
 20
1.952000
 30
0.000000
 41
0.060000
 42
0.060000
 43
1.000000
 50
0.000000
  0
INSERT
  8
17
  2
ROUNDP
 10
1.596000
 20
1.952000
 30
0.000000
 41
0.060000
 42
0.060000
 43
1.000000
 50
0.000000
  0
INSERT
  8
17
  2
ROUNDP
 10
1.596000
 20
1.952000
 30
0.000000
 41
0.060000
 42
0.060000
 43
1.000000
 50
0.000000
  0
LINE
  8
51
 10
1.465000
 20
1.230000
 30
0.000000
 11
1.465000
 21
1.402000
 31
0.000000
  0
LINE
  8
51
 10
1.465000
 20
1.402000
 30
0.000000
 11
1.655000
 21
1.402000
 31
0.000000
  0
LINE
  8
51
 10
1.655000
 20
1.402000
 30
0.000000
 11
1.773000
 21
1.402000
 31
0.000000
  0
LINE
  8
51
 10
1.773000
 20
1.402000
 30
0.000000
 11
1.963000
 21
1.402000
 31
0.000000
  0
LINE
  8
51
 10
1.963000
 20
1.402000
 30
0.000000
 11
1.963000
 21
1.230000
 31
0.000000
  0
LINE
  8
51
 10
1.963000
 20
1.230000
 30
0.000000
 11
1.465000
 21
1.230000
 31
0.000000
  0
LINE
  8
51
 10
1.655000
 20
1.402000
 30
0.000000
 11
1.655000
 21
1.449000
 31
0.000000
  0
LINE
  8
51
 10
1.655000
 20
1.449000
 30
0.000000
 11
1.773000
 21
1.449000
 31
0.000000
  0
LINE
  8
51
 10
1.773000
 20
1.449000
 30
0.000000
 11
1.773000
 21
1.402000
 31
0.000000
  0
CIRCLE
  8
20
 10
1.478000
 20
1.250000
 30
0.000000
 40
0.025000
  0
CIRCLE
  8
20
 10
1.950000
 20
1.250000
 30
0.000000
 40
0.025000
  0
INSERT
  8
17
  2
ROUNDP
 10
1.832000
 20
1.327000
 30
0.000000
 41
0.060000
 42
0.060000
 43
1.000000
 50
0.000000
  0
INSERT
  8
17
  2
ROUNDP
 10
1.832000
 20
1.327000
 30
0.000000
 41
0.060000
 42
0.060000
 43
1.000000
 50
0.000000
  0
INSERT
  8
17
  2
ROUNDP
 10
1.714000
 20
1.327000
 30
0.000000
 41
0.060000
 42
0.060000
 43
1.000000
 50
0.000000
  0
INSERT
  8
17
  2
ROUNDP
 10
1.714000
 20
1.327000
 30
0.000000
 41
0.060000
 42
0.060000
 43
1.000000
 50
0.000000
  0
INSERT
  8
17
  2
ROUNDP
 10
1.596000
 20
1.327000
 30
0.000000
 41
0.060000
 42
0.060000
 43
1.000000
 50
0.000000
  0
INSERT
  8
17
  2
ROUNDP
 10
1.596000
 20
1.327000
 30
0.000000
 41
0.060000
 42
0.060000
 43
1.000000
 50
0.000000
  0
LINE
  8
51
 10
0.765000
 20
1.855000
 30
0.000000
 11
0.765000
 21
2.027000
 31
0.000000
  0
LINE
  8
51
 10
0.765000
 20
2.027000
 30
0.000000
 11
0.955000
 21
2.027000
 31
0.000000
  0
LINE
  8
51
 10
0.955000
 20
2.027000
 30
0.000000
 11
1.073000
 21
2.027000
 31
0.000000
  0
LINE
  8
51
 10
1.073000
 20
2.027000
 30
0.000000
 11
1.263000
 21
2.027000
 31
0.000000
  0
LINE
  8
51
 10
1.263000
 20
2.027000
 30
0.000000
 11
1.263000
 21
1.855000
 31
0.000000
  0
LINE
  8
51
 10
1.263000
 20
1.855000
 30
0.000000
 11
0.765000
 21
1.855000
 31
0.000000
  0
LINE
  8
51
 10
0.955000
 20
2.027000
 30
0.000000
 11
0.955000
 21
2.074000
 31
0.000000
  0
LINE
  8
51
 10
0.955000
 20
2.074000
 30
0.000000
 11
1.073000
 21
2.074000
 31
0.000000
  0
LINE
  8
51
 10
1.073000
 20
2.074000
 30
0.000000
 11
1.073000
 21
2.027000
 31
0.000000
  0
CIRCLE
  8
20
 10
0.778000
 20
1.875000
 30
0.000000
 40
0.025000
  0
CIRCLE
  8
20
 10
1.250000
 20
1.875000
 30
0.000000
 40
0.025000
  0
INSERT
  8
17
  2
ROUNDP
 10
1.132000
 20
1.952000
 30
0.000000
 41
0.060000
 42
0.060000
 43
1.000000
 50
0.000000
  0
INSERT
  8
17
  2
ROUNDP
 10
1.132000
 20
1.952000
 30
0.000000
 41
0.060000
 42
0.060000
 43
1.000000
 50
0.000000
  0
INSERT
  8
17
  2
ROUNDP
 10
1.014000
 20
1.952000
 30
0.000000
 41
0.060000
 42
0.060000
 43
1.000000
 50
0.000000
  0
INSERT
  8
17
  2
ROUNDP
 10
1.014000
 20
1.952000
 30
0.000000
 41
0.060000
 42
0.060000
 43
1.000000
 50
0.000000
  0
INSERT
  8
17
  2
ROUNDP
 10
0.896000
 20
1.952000
 30
0.000000
 41
0.060000
 42
0.060000
 43
1.000000
 50
0.000000
  0
INSERT
  8
17
  2
ROUNDP
 10
0.896000
 20
1.952000
 30
0.000000
 41
0.060000
 42
0.060000
 43
1.000000
 50
0.000000
  0
LINE
  8
51
 10
0.065000
 20
1.855000
 30
0.000000
 11
0.065000
 21
2.027000
 31
0.000000
  0
LINE
  8
51
 10
0.065000
 20
2.027000
 30
0.000000
 11
0.255000
 21
2.027000
 31
0.000000
  0
LINE
  8
51
 10
0.255000
 20
2.027000
 30
0.000000
 11
0.373000
 21
2.027000
 31
0.000000
  0
LINE
  8
51
 10
0.373000
 20
2.027000
 30
0.000000
 11
0.563000
 21
2.027000
 31
0.000000
  0
LINE
  8
51
 10
0.563000
 20
2.027000
 30
0.000000
 11
0.563000
 21
1.855000
 31
0.000000
  0
LINE
  8
51
 10
0.563000
 20
1.855000
 30
0.000000
 11
0.065000
 21
1.855000
 31
0.000000
  0
LINE
  8
51
 10
0.255000
 20
2.027000
 30
0.000000
 11
0.255000
 21
2.074000
 31
0.000000
  0
LINE
  8
51
 10
0.255000
 20
2.074000
 30
0.000000
 11
0.373000
 21
2.074000
 31
0.000000
  0
LINE
  8
51
 10
0.373000
 20
2.074000
 30
0.000000
 11
0.373000
 21
2.027000
 31
0.000000
  0
CIRCLE
  8
20
 10
0.078000
 20
1.875000
 30
0.000000
 40
0.025000
  0
CIRCLE
  8
20
 10
0.550000
 20
1.875000
 30
0.000000
 40
0.025000
  0
INSERT
  8
17
  2
ROUNDP
 10
0.432000
 20
1.952000
 30
0.000000
 41
0.060000
 42
0.060000
 43
1.000000
 50
0.000000
  0
INSERT
  8
17
  2
ROUNDP
 10
0.432000
 20
1.952000
 30
0.000000
 41
0.060000
 42
0.060000
 43
1.000000
 50
0.000000
  0
INSERT
  8
17
  2
ROUNDP
 10
0.314000
 20
1.952000
 30
0.000000
 41
0.060000
 42
0.060000
 43
1.000000
 50
0.000000
  0
INSERT
  8
17
  2
ROUNDP
 10
0.314000
 20
1.952000
 30
0.000000
 41
0.060000
 42
0.060000
 43
1.000000
 50
0.000000
  0
INSERT
  8
17
  2
ROUNDP
 10
0.196000
 20
1.952000
 30
0.000000
 41
0.060000
 42
0.060000
 43
1.000000
 50
0.000000
  0
INSERT
  8
17
  2
ROUNDP
 10
0.196000
 20
1.952000
 30
0.000000
 41
0.060000
 42
0.060000
 43
1.000000
 50
0.000000
  0
LINE
  8
51
 10
1.675000
 20
-0.005000
 30
0.000000
 11
1.425000
 21
-0.005000
 31
0.000000
  0
LINE
  8
51
 10
1.225000
 20
-0.005000
 30
0.000000
 11
1.025000
 21
-0.005000
 31
0.000000
  0
LINE
  8
51
 10
1.025000
 20
0.405000
 30
0.000000
 11
1.675000
 21
0.405000
 31
0.000000
  0
LINE
  8
51
 10
1.425000
 20
-0.005000
 30
0.000000
 11
1.225000
 21
-0.005000
 31
0.000000
  0
LINE
  8
51
 10
1.675000
 20
-0.005000
 30
0.000000
 11
1.675000
 21
0.405000
 31
0.000000
  0
LINE
  8
51
 10
1.025000
 20
0.405000
 30
0.000000
 11
1.025000
 21
-0.005000
 31
0.000000
  0
LINE
  8
51
 10
1.225000
 20
0.000000
 30
0.000000
 11
1.425000
 21
0.000000
 31
0.000000
  0
LINE
  8
51
 10
1.225000
 20
0.000000
 30
0.000000
 11
1.125000
 21
0.100000
 31
0.000000
  0
LINE
  8
51
 10
1.125000
 20
0.100000
 30
0.000000
 11
1.125000
 21
0.300000
 31
0.000000
  0
LINE
  8
51
 10
1.125000
 20
0.300000
 30
0.000000
 11
1.225000
 21
0.400000
 31
0.000000
  0
LINE
  8
51
 10
1.225000
 20
0.400000
 30
0.000000
 11
1.425000
 21
0.400000
 31
0.000000
  0
LINE
  8
51
 10
1.425000
 20
0.400000
 30
0.000000
 11
1.525000
 21
0.300000
 31
0.000000
  0
LINE
  8
51
 10
1.525000
 20
0.300000
 30
0.000000
 11
1.525000
 21
0.100000
 31
0.000000
  0
LINE
  8
51
 10
1.525000
 20
0.100000
 30
0.000000
 11
1.425000
 21
0.000000
 31
0.000000
  0
INSERT
  8
17
  2
ROUNDP
 10
1.625000
 20
0.300000
 30
0.000000
 41
0.055000
 42
0.055000
 43
1.000000
 50
90.000000
  0
INSERT
  8
17
  2
ROUNDP
 10
1.625000
 20
0.300000
 30
0.000000
 41
0.055000
 42
0.055000
 43
1.000000
 50
90.000000
  0
INSERT
  8
17
  2
ROUNDP
 10
1.625000
 20
0.200000
 30
0.000000
 41
0.055000
 42
0.055000
 43
1.000000
 50
90.000000
  0
INSERT
  8
17
  2
ROUNDP
 10
1.625000
 20
0.200000
 30
0.000000
 41
0.055000
 42
0.055000
 43
1.000000
 50
90.000000
  0
INSERT
  8
17
  2
ROUNDP
 10
1.625000
 20
0.100000
 30
0.000000
 41
0.055000
 42
0.055000
 43
1.000000
 50
90.000000
  0
INSERT
  8
17
  2
ROUNDP
 10
1.625000
 20
0.100000
 30
0.000000
 41
0.055000
 42
0.055000
 43
1.000000
 50
90.000000
  0
LINE
  8
51
 10
2.025000
 20
0.005000
 30
0.000000
 11
2.025000
 21
0.398701
 31
0.000000
  0
LINE
  8
51
 10
2.025000
 20
0.398701
 30
0.000000
 11
1.995472
 21
0.398701
 31
0.000000
  0
LINE
  8
51
 10
1.995472
 20
0.398701
 30
0.000000
 11
1.792717
 21
0.398701
 31
0.000000
  0
LINE
  8
51
 10
1.792717
 20
0.398701
 30
0.000000
 11
1.723819
 21
0.398701
 31
0.000000
  0
LINE
  8
51
 10
1.723819
 20
0.398701
 30
0.000000
 11
1.723819
 21
0.005000
 31
0.000000
  0
LINE
  8
51
 10
1.723819
 20
0.005000
 30
0.000000
 11
1.792717
 21
0.005000
 31
0.000000
  0
LINE
  8
51
 10
1.792717
 20
0.005000
 30
0.000000
 11
1.995472
 21
0.005000
 31
0.000000
  0
LINE
  8
51
 10
1.995472
 20
0.005000
 30
0.000000
 11
2.025000
 21
0.005000
 31
0.000000
  0
LINE
  8
51
 10
1.792717
 20
0.005000
 30
0.000000
 11
1.792717
 21
0.398701
 31
0.000000
  0
LINE
  8
51
 10
1.995472
 20
0.005000
 30
0.000000
 11
1.995472
 21
0.398701
 31
0.000000
  0
INSERT
  8
17
  2
ROUNDP
 10
1.889173
 20
0.103425
 30
0.000000
 41
0.082677
 42
0.082677
 43
1.000000
 50
90.000000
  0
INSERT
  8
17
  2
ROUNDP
 10
1.889173
 20
0.103425
 30
0.000000
 41
0.082677
 42
0.082677
 43
1.000000
 50
90.000000
  0
INSERT
  8
17
  2
ROUNDP
 10
1.889173
 20
0.300276
 30
0.000000
 41
0.082677
 42
0.082677
 43
1.000000
 50
90.000000
  0
INSERT
  8
17
  2
ROUNDP
 10
1.889173
 20
0.300276
 30
0.000000
 41
0.082677
 42
0.082677
 43
1.000000
 50
90.000000
  0
LINE
  8
51
 10
2.025000
 20
0.400000
 30
0.000000
 11
2.025000
 21
0.793701
 31
0.000000
  0
LINE
  8
51
 10
2.025000
 20
0.793701
 30
0.000000
 11
1.995472
 21
0.793701
 31
0.000000
  0
LINE
  8
51
 10
1.995472
 20
0.793701
 30
0.000000
 11
1.792717
 21
0.793701
 31
0.000000
  0
LINE
  8
51
 10
1.792717
 20
0.793701
 30
0.000000
 11
1.723819
 21
0.793701
 31
0.000000
  0
LINE
  8
51
 10
1.723819
 20
0.793701
 30
0.000000
 11
1.723819
 21
0.400000
 31
0.000000
  0
LINE
  8
51
 10
1.723819
 20
0.400000
 30
0.000000
 11
1.792717
 21
0.400000
 31
0.000000
  0
LINE
  8
51
 10
1.792717
 20
0.400000
 30
0.000000
 11
1.995472
 21
0.400000
 31
0.000000
  0
LINE
  8
51
 10
1.995472
 20
0.400000
 30
0.000000
 11
2.025000
 21
0.400000
 31
0.000000
  0
LINE
  8
51
 10
1.792717
 20
0.400000
 30
0.000000
 11
1.792717
 21
0.793701
 31
0.000000
  0
LINE
  8
51
 10
1.995472
 20
0.400000
 30
0.000000
 11
1.995472
 21
0.793701
 31
0.000000
  0
INSERT
  8
17
  2
ROUNDP
 10
1.889173
 20
0.498425
 30
0.000000
 41
0.082677
 42
0.082677
 43
1.000000
 50
90.000000
  0
INSERT
  8
17
  2
ROUNDP
 10
1.889173
 20
0.498425
 30
0.000000
 41
0.082677
 42
0.082677
 43
1.000000
 50
90.000000
  0
INSERT
  8
17
  2
ROUNDP
 10
1.889173
 20
0.695276
 30
0.000000
 41
0.082677
 42
0.082677
 43
1.000000
 50
90.000000
  0
INSERT
  8
17
  2
ROUNDP
 10
1.889173
 20
0.695276
 30
0.000000
 41
0.082677
 42
0.082677
 43
1.000000
 50
90.000000
  0
LINE
  8
51
 10
1.050000
 20
0.525000
 30
0.000000
 11
1.463386
 21
0.525000
 31
0.000000
  0
LINE
  8
51
 10
1.463386
 20
0.525000
 30
0.000000
 11
1.463386
 21
0.824213
 31
0.000000
  0
LINE
  8
51
 10
1.463386
 20
0.824213
 30
0.000000
 11
1.050000
 21
0.824213
 31
0.000000
  0
LINE
  8
51
 10
1.050000
 20
0.824213
 30
0.000000
 11
1.050000
 21
0.525000
 31
0.000000
  0
CIRCLE
  8
51
 10
1.077559
 20
0.552559
 30
0.000000
 40
0.011811
  0
INSERT
  8
1
  2
RECT
 10
1.089370
 20
0.495472
 30
0.000000
 41
0.057087
 42
0.012673
 43
1.000000
 50
90.000000
  0
INSERT
  8
1
  2
RECT
 10
1.109055
 20
0.495472
 30
0.000000
 41
0.057087
 42
0.012673
 43
1.000000
 50
90.000000
  0
INSERT
  8
1
  2
RECT
 10
1.128740
 20
0.495472
 30
0.000000
 41
0.057087
 42
0.012673
 43
1.000000
 50
90.000000
  0
INSERT
  8
1
  2
RECT
 10
1.148425
 20
0.495472
 30
0.000000
 41
0.057087
 42
0.012673
 43
1.000000
 50
90.000000
  0
INSERT
  8
1
  2
RECT
 10
1.168110
 20
0.495472
 30
0.000000
 41
0.057087
 42
0.012673
 43
1.000000
 50
90.000000
  0
INSERT
  8
1
  2
RECT
 10
1.187795
 20
0.495472
 30
0.000000
 41
0.057087
 42
0.012673
 43
1.000000
 50
90.000000
  0
INSERT
  8
1
  2
RECT
 10
1.207480
 20
0.495472
 30
0.000000
 41
0.057087
 42
0.012673
 43
1.000000
 50
90.000000
  0
INSERT
  8
1
  2
RECT
 10
1.227165
 20
0.495472
 30
0.000000
 41
0.057087
 42
0.012673
 43
1.000000
 50
90.000000
  0
INSERT
  8
1
  2
RECT
 10
1.246850
 20
0.495472
 30
0.000000
 41
0.057087
 42
0.012673
 43
1.000000
 50
90.000000
  0
INSERT
  8
1
  2
RECT
 10
1.266535
 20
0.495472
 30
0.000000
 41
0.057087
 42
0.012673
 43
1.000000
 50
90.000000
  0
INSERT
  8
1
  2
RECT
 10
1.286220
 20
0.495472
 30
0.000000
 41
0.057087
 42
0.012673
 43
1.000000
 50
90.000000
  0
INSERT
  8
1
  2
RECT
 10
1.305906
 20
0.495472
 30
0.000000
 41
0.057087
 42
0.012673
 43
1.000000
 50
90.000000
  0
INSERT
  8
1
  2
RECT
 10
1.325591
 20
0.495472
 30
0.000000
 41
0.057087
 42
0.012673
 43
1.000000
 50
90.000000
  0
INSERT
  8
1
  2
RECT
 10
1.345276
 20
0.495472
 30
0.000000
 41
0.057087
 42
0.012673
 43
1.000000
 50
90.000000
  0
INSERT
  8
1
  2
RECT
 10
1.364961
 20
0.495472
 30
0.000000
 41
0.057087
 42
0.012673
 43
1.000000
 50
90.000000
  0
INSERT
  8
1
  2
RECT
 10
1.384646
 20
0.495472
 30
0.000000
 41
0.057087
 42
0.012673
 43
1.000000
 50
90.000000
  0
INSERT
  8
1
  2
RECT
 10
1.404331
 20
0.495472
 30
0.000000
 41
0.057087
 42
0.012673
 43
1.000000
 50
90.000000
  0
INSERT
  8
1
  2
RECT
 10
1.424016
 20
0.495472
 30
0.000000
 41
0.057087
 42
0.012673
 43
1.000000
 50
90.000000
  0
INSERT
  8
1
  2
RECT
 10
1.424016
 20
0.853740
 30
0.000000
 41
0.057087
 42
0.012673
 43
1.000000
 50
270.000000
  0
INSERT
  8
1
  2
RECT
 10
1.404331
 20
0.853740
 30
0.000000
 41
0.057087
 42
0.012673
 43
1.000000
 50
270.000000
  0
INSERT
  8
1
  2
RECT
 10
1.384646
 20
0.853740
 30
0.000000
 41
0.057087
 42
0.012673
 43
1.000000
 50
270.000000
  0
INSERT
  8
1
  2
RECT
 10
1.364961
 20
0.853740
 30
0.000000
 41
0.057087
 42
0.012673
 43
1.000000
 50
270.000000
  0
INSERT
  8
1
  2
RECT
 10
1.345276
 20
0.853740
 30
0.000000
 41
0.057087
 42
0.012673
 43
1.000000
 50
270.000000
  0
INSERT
  8
1
  2
RECT
 10
1.325591
 20
0.853740
 30
0.000000
 41
0.057087
 42
0.012673
 43
1.000000
 50
270.000000
  0
INSERT
  8
1
  2
RECT
 10
1.305906
 20
0.853740
 30
0.000000
 41
0.057087
 42
0.012673
 43
1.000000
 50
270.000000
  0
INSERT
  8
1
  2
RECT
 10
1.286220
 20
0.853740
 30
0.000000
 41
0.057087
 42
0.012673
 43
1.000000
 50
270.000000
  0
INSERT
  8
1
  2
RECT
 10
1.266535
 20
0.853740
 30
0.000000
 41
0.057087
 42
0.012673
 43
1.000000
 50
270.000000
  0
INSERT
  8
1
  2
RECT
 10
1.246850
 20
0.853740
 30
0.000000
 41
0.057087
 42
0.012673
 43
1.000000
 50
270.000000
  0
INSERT
  8
1
  2
RECT
 10
1.227165
 20
0.853740
 30
0.000000
 41
0.057087
 42
0.012673
 43
1.000000
 50
270.000000
  0
INSERT
  8
1
  2
RECT
 10
1.207480
 20
0.853740
 30
0.000000
 41
0.057087
 42
0.012673
 43
1.000000
 50
270.000000
  0
INSERT
  8
1
  2
RECT
 10
1.187795
 20
0.853740
 30
0.000000
 41
0.057087
 42
0.012673
 43
1.000000
 50
270.000000
  0
INSERT
  8
1
  2
RECT
 10
1.168110
 20
0.853740
 30
0.000000
 41
0.057087
 42
0.012673
 43
1.000000
 50
270.000000
  0
INSERT
  8
1
  2
RECT
 10
1.148425
 20
0.853740
 30
0.000000
 41
0.057087
 42
0.012673
 43
1.000000
 50
270.000000
  0
INSERT
  8
1
  2
RECT
 10
1.128740
 20
0.853740
 30
0.000000
 41
0.057087
 42
0.012673
 43
1.000000
 50
270.000000
  0
INSERT
  8
1
  2
RECT
 10
1.109055
 20
0.853740
 30
0.000000
 41
0.057087
 42
0.012673
 43
1.000000
 50
270.000000
  0
INSERT
  8
1
  2
RECT
 10
1.089370
 20
0.853740
 30
0.000000
 41
0.057087
 42
0.012673
 43
1.000000
 50
270.000000
  0
INSERT
  8
1
  2
RECT
 10
1.341000
 20
0.674000
 30
0.000000
 41
0.127953
 42
0.196850
 43
1.000000
 50
0.000000
  0
INSERT
  8
1
  2
RECT
 10
1.172000
 20
0.616000
 30
0.000000
 41
0.078740
 42
0.127953
 43
1.000000
 50
90.000000
  0
INSERT
  8
1
  2
RECT
 10
1.172000
 20
0.733000
 30
0.000000
 41
0.078740
 42
0.127953
 43
1.000000
 50
90.000000
  0
INSERT
  8
17
  2
SQUAREP
 10
0.065000
 20
1.160000
 30
0.000000
 41
0.059370
 42
0.059370
 43
1.000000
 50
90.000000
  0
INSERT
  8
17
  2
SQUAREP
 10
0.065000
 20
1.160000
 30
0.000000
 41
0.059370
 42
0.059370
 43
1.000000
 50
90.000000
  0
INSERT
  8
17
  2
ROUNDP
 10
0.165000
 20
1.160000
 30
0.000000
 41
0.059370
 42
0.059370
 43
1.000000
 50
90.000000
  0
INSERT
  8
17
  2
ROUNDP
 10
0.165000
 20
1.160000
 30
0.000000
 41
0.059370
 42
0.059370
 43
1.000000
 50
90.000000
  0
INSERT
  8
17
  2
ROUNDP
 10
0.265000
 20
1.160000
 30
0.000000
 41
0.059370
 42
0.059370
 43
1.000000
 50
90.000000
  0
INSERT
  8
17
  2
ROUNDP
 10
0.265000
 20
1.160000
 30
0.000000
 41
0.059370
 42
0.059370
 43
1.000000
 50
90.000000
  0
INSERT
  8
17
  2
ROUNDP
 10
0.365000
 20
1.160000
 30
0.000000
 41
0.059370
 42
0.059370
 43
1.000000
 50
90.000000
  0
INSERT
  8
17
  2
ROUNDP
 10
0.365000
 20
1.160000
 30
0.000000
 41
0.059370
 42
0.059370
 43
1.000000
 50
90.000000
  0
INSERT
  8
17
  2
ROUNDP
 10
0.465000
 20
1.160000
 30
0.000000
 41
0.059370
 42
0.059370
 43
1.000000
 50
90.000000
  0
INSERT
  8
17
  2
ROUNDP
 10
0.465000
 20
1.160000
 30
0.000000
 41
0.059370
 42
0.059370
 43
1.000000
 50
90.000000
  0
INSERT
  8
17
  2
ROUNDP
 10
0.565000
 20
1.160000
 30
0.000000
 41
0.059370
 42
0.059370
 43
1.000000
 50
90.000000
  0
INSERT
  8
17
  2
ROUNDP
 10
0.565000
 20
1.160000
 30
0.000000
 41
0.059370
 42
0.059370
 43
1.000000
 50
90.000000
  0
INSERT
  8
17
  2
ROUNDP
 10
0.665000
 20
1.160000
 30
0.000000
 41
0.059370
 42
0.059370
 43
1.000000
 50
90.000000
  0
INSERT
  8
17
  2
ROUNDP
 10
0.665000
 20
1.160000
 30
0.000000
 41
0.059370
 42
0.059370
 43
1.000000
 50
90.000000
  0
INSERT
  8
17
  2
ROUNDP
 10
0.765000
 20
1.160000
 30
0.000000
 41
0.059370
 42
0.059370
 43
1.000000
 50
90.000000
  0
INSERT
  8
17
  2
ROUNDP
 10
0.765000
 20
1.160000
 30
0.000000
 41
0.059370
 42
0.059370
 43
1.000000
 50
90.000000
  0
INSERT
  8
17
  2
ROUNDP
 10
0.865000
 20
1.160000
 30
0.000000
 41
0.059370
 42
0.059370
 43
1.000000
 50
90.000000
  0
INSERT
  8
17
  2
ROUNDP
 10
0.865000
 20
1.160000
 30
0.000000
 41
0.059370
 42
0.059370
 43
1.000000
 50
90.000000
  0
INSERT
  8
17
  2
ROUNDP
 10
0.965000
 20
1.160000
 30
0.000000
 41
0.059370
 42
0.059370
 43
1.000000
 50
90.000000
  0
INSERT
  8
17
  2
ROUNDP
 10
0.965000
 20
1.160000
 30
0.000000
 41
0.059370
 42
0.059370
 43
1.000000
 50
90.000000
  0
INSERT
  8
17
  2
ROUNDP
 10
1.065000
 20
1.160000
 30
0.000000
 41
0.059370
 42
0.059370
 43
1.000000
 50
90.000000
  0
INSERT
  8
17
  2
ROUNDP
 10
1.065000
 20
1.160000
 30
0.000000
 41
0.059370
 42
0.059370
 43
1.000000
 50
90.000000
  0
INSERT
  8
17
  2
ROUNDP
 10
1.165000
 20
1.160000
 30
0.000000
 41
0.059370
 42
0.059370
 43
1.000000
 50
90.000000
  0
INSERT
  8
17
  2
ROUNDP
 10
1.165000
 20
1.160000
 30
0.000000
 41
0.059370
 42
0.059370
 43
1.000000
 50
90.000000
  0
INSERT
  8
17
  2
ROUNDP
 10
1.265000
 20
1.160000
 30
0.000000
 41
0.059370
 42
0.059370
 43
1.000000
 50
90.000000
  0
INSERT
  8
17
  2
ROUNDP
 10
1.265000
 20
1.160000
 30
0.000000
 41
0.059370
 42
0.059370
 43
1.000000
 50
90.000000
  0
INSERT
  8
17
  2
ROUNDP
 10
1.365000
 20
1.160000
 30
0.000000
 41
0.059370
 42
0.059370
 43
1.000000
 50
90.000000
  0
INSERT
  8
17
  2
ROUNDP
 10
1.365000
 20
1.160000
 30
0.000000
 41
0.059370
 42
0.059370
 43
1.000000
 50
90.000000
  0
INSERT
  8
17
  2
ROUNDP
 10
1.365000
 20
1.460000
 30
0.000000
 41
0.059370
 42
0.059370
 43
1.000000
 50
90.000000
  0
INSERT
  8
17
  2
ROUNDP
 10
1.365000
 20
1.460000
 30
0.000000
 41
0.059370
 42
0.059370
 43
1.000000
 50
90.000000
  0
INSERT
  8
17
  2
ROUNDP
 10
1.265000
 20
1.460000
 30
0.000000
 41
0.059370
 42
0.059370
 43
1.000000
 50
90.000000
  0
INSERT
  8
17
  2
ROUNDP
 10
1.265000
 20
1.460000
 30
0.000000
 41
0.059370
 42
0.059370
 43
1.000000
 50
90.000000
  0
INSERT
  8
17
  2
ROUNDP
 10
1.165000
 20
1.460000
 30
0.000000
 41
0.059370
 42
0.059370
 43
1.000000
 50
90.000000
  0
INSERT
  8
17
  2
ROUNDP
 10
1.165000
 20
1.460000
 30
0.000000
 41
0.059370
 42
0.059370
 43
1.000000
 50
90.000000
  0
INSERT
  8
17
  2
ROUNDP
 10
1.065000
 20
1.460000
 30
0.000000
 41
0.059370
 42
0.059370
 43
1.000000
 50
90.000000
  0
INSERT
  8
17
  2
ROUNDP
 10
1.065000
 20
1.460000
 30
0.000000
 41
0.059370
 42
0.059370
 43
1.000000
 50
90.000000
  0
INSERT
  8
17
  2
ROUNDP
 10
0.965000
 20
1.460000
 30
0.000000
 41
0.059370
 42
0.059370
 43
1.000000
 50
90.000000
  0
INSERT
  8
17
  2
ROUNDP
 10
0.965000
 20
1.460000
 30
0.000000
 41
0.059370
 42
0.059370
 43
1.000000
 50
90.000000
  0
INSERT
  8
17
  2
ROUNDP
 10
0.865000
 20
1.460000
 30
0.000000
 41
0.059370
 42
0.059370
 43
1.000000
 50
90.000000
  0
INSERT
  8
17
  2
ROUNDP
 10
0.865000
 20
1.460000
 30
0.000000
 41
0.059370
 42
0.059370
 43
1.000000
 50
90.000000
  0
INSERT
  8
17
  2
ROUNDP
 10
0.765000
 20
1.460000
 30
0.000000
 41
0.059370
 42
0.059370
 43
1.000000
 50
90.000000
  0
INSERT
  8
17
  2
ROUNDP
 10
0.765000
 20
1.460000
 30
0.000000
 41
0.059370
 42
0.059370
 43
1.000000
 50
90.000000
  0
INSERT
  8
17
  2
ROUNDP
 10
0.665000
 20
1.460000
 30
0.000000
 41
0.059370
 42
0.059370
 43
1.000000
 50
90.000000
  0
INSERT
  8
17
  2
ROUNDP
 10
0.665000
 20
1.460000
 30
0.000000
 41
0.059370
 42
0.059370
 43
1.000000
 50
90.000000
  0
INSERT
  8
17
  2
ROUNDP
 10
0.565000
 20
1.460000
 30
0.000000
 41
0.059370
 42
0.059370
 43
1.000000
 50
90.000000
  0
INSERT
  8
17
  2
ROUNDP
 10
0.565000
 20
1.460000
 30
0.000000
 41
0.059370
 42
0.059370
 43
1.000000
 50
90.000000
  0
INSERT
  8
17
  2
ROUNDP
 10
0.465000
 20
1.460000
 30
0.000000
 41
0.059370
 42
0.059370
 43
1.000000
 50
90.000000
  0
INSERT
  8
17
  2
ROUNDP
 10
0.465000
 20
1.460000
 30
0.000000
 41
0.059370
 42
0.059370
 43
1.000000
 50
90.000000
  0
INSERT
  8
17
  2
ROUNDP
 10
0.365000
 20
1.460000
 30
0.000000
 41
0.059370
 42
0.059370
 43
1.000000
 50
90.000000
  0
INSERT
  8
17
  2
ROUNDP
 10
0.365000
 20
1.460000
 30
0.000000
 41
0.059370
 42
0.059370
 43
1.000000
 50
90.000000
  0
INSERT
  8
17
  2
ROUNDP
 10
0.265000
 20
1.460000
 30
0.000000
 41
0.059370
 42
0.059370
 43
1.000000
 50
90.000000
  0
INSERT
  8
17
  2
ROUNDP
 10
0.265000
 20
1.460000
 30
0.000000
 41
0.059370
 42
0.059370
 43
1.000000
 50
90.000000
  0
INSERT
  8
17
  2
ROUNDP
 10
0.165000
 20
1.460000
 30
0.000000
 41
0.059370
 42
0.059370
 43
1.000000
 50
90.000000
  0
INSERT
  8
17
  2
ROUNDP
 10
0.165000
 20
1.460000
 30
0.000000
 41
0.059370
 42
0.059370
 43
1.000000
 50
90.000000
  0
INSERT
  8
17
  2
ROUNDP
 10
0.065000
 20
1.460000
 30
0.000000
 41
0.059370
 42
0.059370
 43
1.000000
 50
90.000000
  0
INSERT
  8
17
  2
ROUNDP
 10
0.065000
 20
1.460000
 30
0.000000
 41
0.059370
 42
0.059370
 43
1.000000
 50
90.000000
  0
LINE
  8
51
 10
-0.236614
 20
0.373150
 30
0.000000
 11
-0.236614
 21
0.766850
 31
0.000000
  0
LINE
  8
51
 10
0.013386
 20
0.087717
 30
0.000000
 11
-0.236614
 21
0.373150
 31
0.000000
  0
LINE
  8
51
 10
0.013386
 20
1.052283
 30
0.000000
 11
-0.236614
 21
0.766850
 31
0.000000
  0
LINE
  8
51
 10
0.820472
 20
0.087717
 30
0.000000
 11
0.850000
 21
0.087717
 31
0.000000
  0
LINE
  8
51
 10
0.820472
 20
1.052283
 30
0.000000
 11
0.850000
 21
1.052283
 31
0.000000
  0
LINE
  8
51
 10
0.850000
 20
0.087717
 30
0.000000
 11
0.850000
 21
1.052283
 31
0.000000
  0
LINE
  8
51
 10
0.850000
 20
1.052283
 30
0.000000
 11
1.096063
 21
1.052283
 31
0.000000
  0
LINE
  8
51
 10
0.850000
 20
0.087717
 30
0.000000
 11
1.096063
 21
0.087717
 31
0.000000
  0
LINE
  8
51
 10
1.096063
 20
0.087717
 30
0.000000
 11
1.096063
 21
1.052283
 31
0.000000
  0
LINE
  8
51
 10
0.820472
 20
0.087717
 30
0.000000
 11
0.013386
 21
0.087717
 31
0.000000
  0
LINE
  8
51
 10
0.013386
 20
0.186142
 30
0.000000
 11
0.820472
 21
0.186142
 31
0.000000
  0
LINE
  8
51
 10
0.820472
 20
0.087717
 30
0.000000
 11
0.820472
 21
0.186142
 31
0.000000
  0
LINE
  8
51
 10
0.013386
 20
0.087717
 30
0.000000
 11
0.013386
 21
0.186142
 31
0.000000
  0
LINE
  8
51
 10
0.820472
 20
0.087717
 30
0.000000
 11
0.820472
 21
0.186142
 31
0.000000
  0
LINE
  8
51
 10
0.013386
 20
0.186142
 30
0.000000
 11
0.013386
 21
0.087717
 31
0.000000
  0
LINE
  8
51
 10
0.820472
 20
0.953858
 30
0.000000
 11
0.013386
 21
0.953858
 31
0.000000
  0
LINE
  8
51
 10
0.013386
 20
1.052283
 30
0.000000
 11
0.820472
 21
1.052283
 31
0.000000
  0
LINE
  8
51
 10
0.820472
 20
0.953858
 30
0.000000
 11
0.820472
 21
1.052283
 31
0.000000
  0
LINE
  8
51
 10
0.013386
 20
0.953858
 30
0.000000
 11
0.013386
 21
1.052283
 31
0.000000
  0
LINE
  8
51
 10
0.820472
 20
0.953858
 30
0.000000
 11
0.820472
 21
1.052283
 31
0.000000
  0
LINE
  8
51
 10
0.013386
 20
1.052283
 30
0.000000
 11
0.013386
 21
0.953858
 31
0.000000
  0
TEXT
  7
ISOCP
  8
51
 10
0.875000
 20
0.095000
 30
0.000000
 40
0.012000
  1
THIS AREA ONLY ON XBEE PRO
 50
90.000000
  0
INSERT
  8
1
  2
RECT
 10
0.062598
 20
0.077874
 30
0.000000
 41
0.033465
 42
0.066929
 43
1.000000
 50
180.000000
  0
INSERT
  8
1
  2
RECT
 10
0.141339
 20
0.195984
 30
0.000000
 41
0.033465
 42
0.066929
 43
1.000000
 50
180.000000
  0
INSERT
  8
1
  2
RECT
 10
0.220079
 20
0.077874
 30
0.000000
 41
0.033465
 42
0.066929
 43
1.000000
 50
180.000000
  0
INSERT
  8
1
  2
RECT
 10
0.298819
 20
0.195984
 30
0.000000
 41
0.033465
 42
0.066929
 43
1.000000
 50
180.000000
  0
INSERT
  8
1
  2
RECT
 10
0.377559
 20
0.077874
 30
0.000000
 41
0.033465
 42
0.066929
 43
1.000000
 50
180.000000
  0
INSERT
  8
1
  2
RECT
 10
0.456299
 20
0.195984
 30
0.000000
 41
0.033465
 42
0.066929
 43
1.000000
 50
180.000000
  0
INSERT
  8
1
  2
RECT
 10
0.535039
 20
0.077874
 30
0.000000
 41
0.033465
 42
0.066929
 43
1.000000
 50
180.000000
  0
INSERT
  8
1
  2
RECT
 10
0.613780
 20
0.195984
 30
0.000000
 41
0.033465
 42
0.066929
 43
1.000000
 50
180.000000
  0
INSERT
  8
1
  2
RECT
 10
0.692520
 20
0.077874
 30
0.000000
 41
0.033465
 42
0.066929
 43
1.000000
 50
180.000000
  0
INSERT
  8
1
  2
RECT
 10
0.771260
 20
0.195984
 30
0.000000
 41
0.033465
 42
0.066929
 43
1.000000
 50
180.000000
  0
INSERT
  8
1
  2
RECT
 10
0.771260
 20
1.062126
 30
0.000000
 41
0.033465
 42
0.066929
 43
1.000000
 50
180.000000
  0
INSERT
  8
1
  2
RECT
 10
0.692520
 20
0.944016
 30
0.000000
 41
0.033465
 42
0.066929
 43
1.000000
 50
180.000000
  0
INSERT
  8
1
  2
RECT
 10
0.613780
 20
1.062126
 30
0.000000
 41
0.033465
 42
0.066929
 43
1.000000
 50
180.000000
  0
INSERT
  8
1
  2
RECT
 10
0.535039
 20
0.944016
 30
0.000000
 41
0.033465
 42
0.066929
 43
1.000000
 50
180.000000
  0
INSERT
  8
1
  2
RECT
 10
0.456299
 20
1.062126
 30
0.000000
 41
0.033465
 42
0.066929
 43
1.000000
 50
180.000000
  0
INSERT
  8
1
  2
RECT
 10
0.377559
 20
0.944016
 30
0.000000
 41
0.033465
 42
0.066929
 43
1.000000
 50
180.000000
  0
INSERT
  8
1
  2
RECT
 10
0.298819
 20
1.062126
 30
0.000000
 41
0.033465
 42
0.066929
 43
1.000000
 50
180.000000
  0
INSERT
  8
1
  2
RECT
 10
0.220079
 20
0.944016
 30
0.000000
 41
0.033465
 42
0.066929
 43
1.000000
 50
180.000000
  0
INSERT
  8
1
  2
RECT
 10
0.141339
 20
1.062126
 30
0.000000
 41
0.033465
 42
0.066929
 43
1.000000
 50
180.000000
  0
INSERT
  8
1
  2
RECT
 10
0.062598
 20
0.944016
 30
0.000000
 41
0.033465
 42
0.066929
 43
1.000000
 50
180.000000
  0
LINE
  8
1
 10
0.025000
 20
2.025000
 30
0.000000
 11
0.050000
 21
0.025000
 31
0.000000
  0
LINE
  8
1
 10
0.050000
 20
0.025000
 30
0.000000
 11
1.950000
 21
0.025000
 31
0.000000
  0
LINE
  8
1
 10
1.950000
 20
0.025000
 30
0.000000
 11
1.925000
 21
2.025000
 31
0.000000
  0
LINE
  8
1
 10
1.925000
 20
2.025000
 30
0.000000
 11
0.025000
 21
2.025000
 31
0.000000
  0
LINE
  8
16
 10
1.161535
 20
1.370000
 30
0.000000
 11
1.161535
 21
1.305000
 31
0.000000
  0
LINE
  8
16
 10
1.161535
 20
1.305000
 30
0.000000
 11
1.161535
 21
1.333465
 31
0.000000
  0
LINE
  8
16
 10
1.161535
 20
1.333465
 30
0.000000
 11
1.160000
 21
1.335000
 31
0.000000
  0
LINE
  8
16
 10
1.160000
 20
1.335000
 30
0.000000
 11
1.115000
 21
1.335000
 31
0.000000
  0
LINE
  8
16
 10
0.225000
 20
1.525000
 30
0.000000
 11
0.250000
 21
1.550000
 31
0.000000
  0
LINE
  8
16
 10
0.250000
 20
1.550000
 30
0.000000
 11
0.250000
 21
1.700000
 31
0.000000
  0
LINE
  8
16
 10
0.825000
 20
1.675000
 30
0.000000
 11
0.850000
 21
1.700000
 31
0.000000
  0
LINE
  8
16
 10
0.850000
 20
1.700000
 30
0.000000
 11
0.850000
 21
1.800000
 31
0.000000
  0
LINE
  8
1
 10
0.062598
 20
0.077874
 30
0.000000
 11
0.140000
 21
0.077874
 31
0.000000
  0
LINE
  8
1
 10
0.140000
 20
0.077874
 30
0.000000
 11
0.140000
 21
0.080000
 31
0.000000
  0
INSERT
  8
18
  2
ROUNDV
 10
1.115000
 20
1.335000
 30
0.000000
 41
0.031000
 42
0.031000
 43
1.000000
 50
0.000000
  0
INSERT
  8
18
  2
ROUNDV
 10
1.115000
 20
1.335000
 30
0.000000
 41
0.031000
 42
0.031000
 43
1.000000
 50
0.000000
  0
INSERT
  8
18
  2
ROUNDV
 10
0.225000
 20
1.525000
 30
0.000000
 41
0.039622
 42
0.039622
 43
1.000000
 50
0.000000
  0
INSERT
  8
18
  2
ROUNDV
 10
0.225000
 20
1.525000
 30
0.000000
 41
0.039622
 42
0.039622
 43
1.000000
 50
0.000000
  0
INSERT
  8
18
  2
ROUNDV
 10
0.250000
 20
1.700000
 30
0.000000
 41
0.039622
 42
0.039622
 43
1.000000
 50
0.000000
  0
INSERT
  8
18
  2
ROUNDV
 10
0.250000
 20
1.700000
 30
0.000000
 41
0.039622
 42
0.039622
 43
1.000000
 50
0.000000
  0
INSERT
  8
18
  2
ROUNDV
 10
0.825000
 20
1.675000
 30
0.000000
 41
0.039622
 42
0.039622
 43
1.000000
 50
0.000000
  0
INSERT
  8
18
  2
ROUNDV
 10
0.825000
 20
1.675000
 30
0.000000
 41
0.039622
 42
0.039622
 43
1.000000
 50
0.000000
  0
INSERT
  8
18
  2
ROUNDV
 10
0.850000
 20
1.800000
 30
0.000000
 41
0.039622
 42
0.039622
 43
1.000000
 50
0.000000
  0
INSERT
  8
18
  2
ROUNDV
 10
0.850000
 20
1.800000
 30
0.000000
 41
0.039622
 42
0.039622
 43
1.000000
 50
0.000000
  0
LINE
  8
16
 10
0.140000
 20
0.485000
 30
0.000000
 11
0.690000
 21
0.485000
 31
0.000000
  0
LINE
  8
16
 10
0.690000
 20
0.485000
 30
0.000000
 11
0.690000
 21
0.585000
 31
0.000000
  0
LINE
  8
16
 10
0.690000
 20
0.585000
 30
0.000000
 11
0.140000
 21
0.585000
 31
0.000000
  0
LINE
  8
16
 10
0.140000
 20
0.585000
 30
0.000000
 11
0.140000
 21
0.485000
 31
0.000000
  0
LINE
  8
1
 10
1.325000
 20
0.765000
 30
0.000000
 11
1.695000
 21
0.765000
 31
0.000000
  0
LINE
  8
1
 10
1.695000
 20
0.765000
 30
0.000000
 11
1.935000
 21
0.520000
 31
0.000000
  0
LINE
  8
1
 10
1.935000
 20
0.520000
 30
0.000000
 11
1.935000
 21
0.480000
 31
0.000000
  0
LINE
  8
1
 10
1.935000
 20
0.480000
 30
0.000000
 11
1.905000
 21
0.450000
 31
0.000000
  0
LINE
  8
1
 10
1.905000
 20
0.450000
 30
0.000000
 11
1.870000
 21
0.450000
 31
0.000000
  0
LINE
  8
1
 10
1.870000
 20
0.450000
 30
0.000000
 11
1.740000
 21
0.580000
 31
0.000000
  0
LINE
  8
1
 10
1.740000
 20
0.580000
 30
0.000000
 11
1.390000
 21
0.580000
 31
0.000000
  0
LINE
  8
1
 10
1.390000
 20
0.580000
 30
0.000000
 11
1.325000
 21
0.645000
 31
0.000000
  0
LINE
  8
1
 10
1.325000
 20
0.645000
 30
0.000000
 11
1.325000
 21
0.765000
 31
0.000000
  0
LINE
  8
1
 10
1.325591
 20
0.853740
 30
0.000000
 11
1.325591
 21
0.750591
 31
0.000000
  0
LINE
  8
1
 10
1.325591
 20
0.750591
 30
0.000000
 11
1.325000
 21
0.750000
 31
0.000000
  0
LINE
  8
1
 10
1.325591
 20
0.495472
 30
0.000000
 11
1.325591
 21
0.599409
 31
0.000000
  0
LINE
  8
1
 10
1.325591
 20
0.599409
 30
0.000000
 11
1.325000
 21
0.600000
 31
0.000000
  0
LINE
  8
1
 10
1.325591
 20
0.599409
 30
0.000000
 11
1.325591
 21
0.658591
 31
0.000000
  0
LINE
  8
1
 10
1.325591
 20
0.658591
 30
0.000000
 11
1.341000
 21
0.674000
 31
0.000000
  0
LINE
  8
1
 10
1.889173
 20
0.498425
 30
0.000000
 11
1.690748
 21
0.300000
 31
0.000000
  0
LINE
  8
1
 10
1.690748
 20
0.300000
 30
0.000000
 11
1.625000
 21
0.300000
 31
0.000000
  0
LINE
  8
16
 10
0.665000
 20
0.497992
 30
0.000000
 11
0.692008
 21
0.525000
 31
0.000000
  0
LINE
  8
16
 10
0.692008
 20
0.525000
 30
0.000000
 11
0.750000
 21
0.525000
 31
0.000000
  0
LINE
  8
16
 10
0.750000
 20
0.525000
 30
0.000000
 11
0.975000
 21
0.300000
 31
0.000000
  0
LINE
  8
16
 10
0.975000
 20
0.300000
 30
0.000000
 11
1.625000
 21
0.300000
 31
0.000000
  0
LINE
  8
16
 10
0.975000
 20
0.300000
 30
0.000000
 11
0.950000
 21
0.300000
 31
0.000000
  0
LINE
  8
16
 10
0.950000
 20
0.300000
 30
0.000000
 11
0.900000
 21
0.250000
 31
0.000000
  0
LINE
  8
16
 10
0.900000
 20
0.250000
 30
0.000000
 11
0.900000
 21
0.218465
 31
0.000000
  0
LINE
  8
16
 10
0.900000
 20
0.218465
 30
0.000000
 11
0.896535
 21
0.215000
 31
0.000000
  0
LINE
  8
16
 10
0.565000
 20
1.460000
 30
0.000000
 11
0.565000
 21
1.240000
 31
0.000000
  0
LINE
  8
16
 10
0.565000
 20
1.240000
 30
0.000000
 11
0.515000
 21
1.190000
 31
0.000000
  0
LINE
  8
16
 10
0.515000
 20
1.190000
 30
0.000000
 11
0.515000
 21
1.135000
 31
0.000000
  0
LINE
  8
16
 10
0.515000
 20
1.135000
 30
0.000000
 11
0.545000
 21
1.105000
 31
0.000000
  0
LINE
  8
16
 10
0.545000
 20
1.105000
 30
0.000000
 11
0.808465
 21
1.105000
 31
0.000000
  0
LINE
  8
16
 10
0.808465
 20
1.105000
 30
0.000000
 11
0.840000
 21
1.073465
 31
0.000000
  0
LINE
  8
16
 10
0.840000
 20
1.073465
 30
0.000000
 11
0.910000
 21
1.073465
 31
0.000000
  0
LINE
  8
16
 10
0.910000
 20
1.073465
 30
0.000000
 11
0.911535
 21
1.075000
 31
0.000000
  0
LINE
  8
16
 10
1.050000
 20
1.378465
 30
0.000000
 11
1.050000
 21
1.445000
 31
0.000000
  0
LINE
  8
16
 10
1.050000
 20
1.445000
 30
0.000000
 11
1.065000
 21
1.460000
 31
0.000000
  0
LINE
  8
16
 10
0.965000
 20
1.460000
 30
0.000000
 11
0.965000
 21
1.583000
 31
0.000000
  0
LINE
  8
16
 10
0.965000
 20
1.583000
 30
0.000000
 11
0.896000
 21
1.652000
 31
0.000000
  0
LINE
  8
1
 10
0.865000
 20
1.160000
 30
0.000000
 11
0.865000
 21
1.270000
 31
0.000000
  0
LINE
  8
1
 10
0.865000
 20
1.270000
 30
0.000000
 11
1.015000
 21
1.420000
 31
0.000000
  0
LINE
  8
1
 10
1.015000
 20
1.420000
 30
0.000000
 11
1.015000
 21
1.651000
 31
0.000000
  0
LINE
  8
1
 10
1.015000
 20
1.651000
 30
0.000000
 11
1.014000
 21
1.652000
 31
0.000000
  0
LINE
  8
1
 10
0.065000
 20
1.465000
 30
0.000000
 11
0.196000
 21
1.596000
 31
0.000000
  0
LINE
  8
1
 10
0.196000
 20
1.596000
 30
0.000000
 11
0.196000
 21
1.652000
 31
0.000000
  0
LINE
  8
1
 10
0.065000
 20
1.465000
 30
0.000000
 11
0.065000
 21
1.460000
 31
0.000000
  0
LINE
  8
1
 10
0.365000
 20
1.160000
 30
0.000000
 11
0.365000
 21
1.360000
 31
0.000000
  0
LINE
  8
1
 10
0.365000
 20
1.360000
 30
0.000000
 11
0.315000
 21
1.410000
 31
0.000000
  0
LINE
  8
16
 10
0.315000
 20
1.410000
 30
0.000000
 11
0.315000
 21
1.651000
 31
0.000000
  0
LINE
  8
16
 10
0.315000
 20
1.651000
 30
0.000000
 11
0.314000
 21
1.652000
 31
0.000000
  0
INSERT
  8
18
  2
ROUNDV
 10
0.315000
 20
1.410000
 30
0.000000
 41
0.031000
 42
0.031000
 43
1.000000
 50
0.000000
  0
INSERT
  8
18
  2
ROUNDV
 10
0.315000
 20
1.410000
 30
0.000000
 41
0.031000
 42
0.031000
 43
1.000000
 50
0.000000
  0
LINE
  8
16
 10
1.365000
 20
1.160000
 30
0.000000
 11
1.365000
 21
1.303465
 31
0.000000
  0
LINE
  8
16
 10
1.365000
 20
1.303465
 30
0.000000
 11
1.363465
 21
1.305000
 31
0.000000
  0
LINE
  8
16
 10
1.365000
 20
1.460000
 30
0.000000
 11
1.365000
 21
1.371535
 31
0.000000
  0
LINE
  8
16
 10
1.365000
 20
1.371535
 30
0.000000
 11
1.363465
 21
1.370000
 31
0.000000
  0
LINE
  8
16
 10
0.025000
 20
2.025000
 30
0.000000
 11
0.025000
 21
0.025000
 31
0.000000
  0
LINE
  8
16
 10
0.025000
 20
0.025000
 30
0.000000
 11
1.925000
 21
0.025000
 31
0.000000
  0
LINE
  8
16
 10
1.925000
 20
0.025000
 30
0.000000
 11
1.925000
 21
2.025000
 31
0.000000
  0
LINE
  8
16
 10
1.925000
 20
2.025000
 30
0.000000
 11
0.025000
 21
2.025000
 31
0.000000
  0
LINE
  8
1
 10
1.210000
 20
0.520000
 30
0.000000
 11
1.210000
 21
0.435000
 31
0.000000
  0
LINE
  8
1
 10
1.210000
 20
0.435000
 30
0.000000
 11
1.110000
 21
0.435000
 31
0.000000
  0
LINE
  8
1
 10
1.110000
 20
0.435000
 30
0.000000
 11
1.110000
 21
0.455000
 31
0.000000
  0
LINE
  8
1
 10
1.110000
 20
0.455000
 30
0.000000
 11
1.130000
 21
0.455000
 31
0.000000
  0
LINE
  8
1
 10
1.130000
 20
0.455000
 30
0.000000
 11
1.130000
 21
0.520000
 31
0.000000
  0
LINE
  8
1
 10
1.130000
 20
0.520000
 30
0.000000
 11
1.210000
 21
0.520000
 31
0.000000
  0
LINE
  8
1
 10
1.210000
 20
0.875000
 30
0.000000
 11
1.210000
 21
0.830000
 31
0.000000
  0
LINE
  8
1
 10
1.210000
 20
0.830000
 30
0.000000
 11
1.130000
 21
0.830000
 31
0.000000
  0
LINE
  8
1
 10
1.130000
 20
0.830000
 30
0.000000
 11
1.130000
 21
0.875000
 31
0.000000
  0
LINE
  8
1
 10
1.130000
 20
0.875000
 30
0.000000
 11
1.210000
 21
0.875000
 31
0.000000
  0
LINE
  8
1
 10
1.210000
 20
0.830000
 30
0.000000
 11
1.210000
 21
0.915000
 31
0.000000
  0
LINE
  8
1
 10
1.210000
 20
0.915000
 30
0.000000
 11
1.110000
 21
0.915000
 31
0.000000
  0
LINE
  8
1
 10
1.110000
 20
0.915000
 30
0.000000
 11
1.110000
 21
0.895000
 31
0.000000
  0
LINE
  8
1
 10
1.110000
 20
0.895000
 30
0.000000
 11
1.130000
 21
0.895000
 31
0.000000
  0
LINE
  8
1
 10
1.130000
 20
0.895000
 30
0.000000
 11
1.130000
 21
0.830000
 31
0.000000
  0
LINE
  8
1
 10
1.130000
 20
0.830000
 30
0.000000
 11
1.210000
 21
0.830000
 31
0.000000
  0
LINE
  8
1
 10
1.089370
 20
0.495472
 30
0.000000
 11
1.089370
 21
0.450630
 31
0.000000
  0
LINE
  8
1
 10
1.089370
 20
0.450630
 30
0.000000
 11
1.090000
 21
0.450000
 31
0.000000
  0
LINE
  8
1
 10
1.090000
 20
0.450000
 30
0.000000
 11
1.130000
 21
0.450000
 31
0.000000
  0
LINE
  8
1
 10
1.130000
 20
0.450000
 30
0.000000
 11
1.130000
 21
0.494213
 31
0.000000
  0
LINE
  8
1
 10
1.130000
 20
0.494213
 30
0.000000
 11
1.128740
 21
0.495472
 31
0.000000
  0
LINE
  8
1
 10
1.089370
 20
0.853740
 30
0.000000
 11
1.089370
 21
0.899370
 31
0.000000
  0
LINE
  8
1
 10
1.089370
 20
0.899370
 30
0.000000
 11
1.090000
 21
0.900000
 31
0.000000
  0
LINE
  8
1
 10
1.090000
 20
0.900000
 30
0.000000
 11
1.130000
 21
0.900000
 31
0.000000
  0
LINE
  8
1
 10
1.130000
 20
0.900000
 30
0.000000
 11
1.130000
 21
0.855000
 31
0.000000
  0
LINE
  8
1
 10
1.130000
 20
0.855000
 30
0.000000
 11
1.128740
 21
0.853740
 31
0.000000
  0
LINE
  8
1
 10
0.895472
 20
0.215000
 30
0.000000
 11
0.790276
 21
0.215000
 31
0.000000
  0
LINE
  8
1
 10
0.790276
 20
0.215000
 30
0.000000
 11
0.771260
 21
0.195984
 31
0.000000
  0
LINE
  8
1
 10
0.771260
 20
0.195984
 30
0.000000
 11
0.771260
 21
0.103740
 31
0.000000
  0
LINE
  8
1
 10
0.771260
 20
0.103740
 30
0.000000
 11
0.775000
 21
0.100000
 31
0.000000
  0
LINE
  8
16
 10
0.775000
 20
0.100000
 30
0.000000
 11
0.775000
 21
0.075000
 31
0.000000
  0
LINE
  8
1
 10
0.690000
 20
1.060000
 30
0.000000
 11
0.690000
 21
1.085000
 31
0.000000
  0
LINE
  8
1
 10
0.690000
 20
1.085000
 30
0.000000
 11
0.765000
 21
1.160000
 31
0.000000
  0
LINE
  8
16
 10
1.625000
 20
0.200000
 30
0.000000
 11
1.540000
 21
0.200000
 31
0.000000
  0
LINE
  8
16
 10
1.540000
 20
0.200000
 30
0.000000
 11
1.495000
 21
0.245000
 31
0.000000
  0
LINE
  8
1
 10
1.495000
 20
0.245000
 30
0.000000
 11
1.495000
 21
0.360000
 31
0.000000
  0
INSERT
  8
18
  2
ROUNDV
 10
1.120000
 20
0.445000
 30
0.000000
 41
0.031000
 42
0.031000
 43
1.000000
 50
0.000000
  0
INSERT
  8
18
  2
ROUNDV
 10
1.120000
 20
0.445000
 30
0.000000
 41
0.031000
 42
0.031000
 43
1.000000
 50
0.000000
  0
INSERT
  8
18
  2
ROUNDV
 10
1.160000
 20
0.445000
 30
0.000000
 41
0.031000
 42
0.031000
 43
1.000000
 50
0.000000
  0
INSERT
  8
18
  2
ROUNDV
 10
1.160000
 20
0.445000
 30
0.000000
 41
0.031000
 42
0.031000
 43
1.000000
 50
0.000000
  0
INSERT
  8
18
  2
ROUNDV
 10
1.200000
 20
0.445000
 30
0.000000
 41
0.031000
 42
0.031000
 43
1.000000
 50
0.000000
  0
INSERT
  8
18
  2
ROUNDV
 10
1.200000
 20
0.445000
 30
0.000000
 41
0.031000
 42
0.031000
 43
1.000000
 50
0.000000
  0
INSERT
  8
18
  2
ROUNDV
 10
1.120000
 20
0.905000
 30
0.000000
 41
0.031000
 42
0.031000
 43
1.000000
 50
0.000000
  0
INSERT
  8
18
  2
ROUNDV
 10
1.120000
 20
0.905000
 30
0.000000
 41
0.031000
 42
0.031000
 43
1.000000
 50
0.000000
  0
INSERT
  8
18
  2
ROUNDV
 10
1.160000
 20
0.905000
 30
0.000000
 41
0.031000
 42
0.031000
 43
1.000000
 50
0.000000
  0
INSERT
  8
18
  2
ROUNDV
 10
1.160000
 20
0.905000
 30
0.000000
 41
0.031000
 42
0.031000
 43
1.000000
 50
0.000000
  0
INSERT
  8
18
  2
ROUNDV
 10
1.200000
 20
0.905000
 30
0.000000
 41
0.031000
 42
0.031000
 43
1.000000
 50
0.000000
  0
INSERT
  8
18
  2
ROUNDV
 10
1.200000
 20
0.905000
 30
0.000000
 41
0.031000
 42
0.031000
 43
1.000000
 50
0.000000
  0
INSERT
  8
18
  2
ROUNDV
 10
0.775000
 20
0.100000
 30
0.000000
 41
0.031000
 42
0.031000
 43
1.000000
 50
0.000000
  0
INSERT
  8
18
  2
ROUNDV
 10
0.775000
 20
0.100000
 30
0.000000
 41
0.031000
 42
0.031000
 43
1.000000
 50
0.000000
  0
INSERT
  8
18
  2
ROUNDV
 10
0.690000
 20
1.060000
 30
0.000000
 41
0.031000
 42
0.031000
 43
1.000000
 50
0.000000
  0
INSERT
  8
18
  2
ROUNDV
 10
0.690000
 20
1.060000
 30
0.000000
 41
0.031000
 42
0.031000
 43
1.000000
 50
0.000000
  0
INSERT
  8
18
  2
ROUNDV
 10
1.495000
 20
0.245000
 30
0.000000
 41
0.031000
 42
0.031000
 43
1.000000
 50
0.000000
  0
INSERT
  8
18
  2
ROUNDV
 10
1.495000
 20
0.245000
 30
0.000000
 41
0.031000
 42
0.031000
 43
1.000000
 50
0.000000
  0
INSERT
  8
18
  2
ROUNDV
 10
1.495000
 20
0.360000
 30
0.000000
 41
0.031000
 42
0.031000
 43
1.000000
 50
0.000000
  0
INSERT
  8
18
  2
ROUNDV
 10
1.495000
 20
0.360000
 30
0.000000
 41
0.031000
 42
0.031000
 43
1.000000
 50
0.000000
  0
LINE
  8
16
 10
1.050000
 20
1.078465
 30
0.000000
 11
1.050000
 21
1.145000
 31
0.000000
  0
LINE
  8
16
 10
1.050000
 20
1.145000
 30
0.000000
 11
1.065000
 21
1.160000
 31
0.000000
  0
LINE
  8
16
 10
1.175000
 20
1.083465
 30
0.000000
 11
1.175000
 21
1.150000
 31
0.000000
  0
LINE
  8
16
 10
1.175000
 20
1.150000
 30
0.000000
 11
1.165000
 21
1.160000
 31
0.000000
  0
LINE
  8
1
 10
0.365000
 20
1.460000
 30
0.000000
 11
0.365000
 21
1.480000
 31
0.000000
  0
LINE
  8
1
 10
0.365000
 20
1.480000
 30
0.000000
 11
0.395000
 21
1.510000
 31
0.000000
  0
LINE
  8
1
 10
0.395000
 20
1.510000
 30
0.000000
 11
0.500000
 21
1.510000
 31
0.000000
  0
LINE
  8
16
 10
0.500000
 20
1.510000
 30
0.000000
 11
0.615000
 21
1.510000
 31
0.000000
  0
LINE
  8
16
 10
0.615000
 20
1.510000
 30
0.000000
 11
0.655000
 21
1.550000
 31
0.000000
  0
LINE
  8
16
 10
0.655000
 20
1.550000
 30
0.000000
 11
0.655000
 21
1.740000
 31
0.000000
  0
LINE
  8
16
 10
0.655000
 20
1.740000
 30
0.000000
 11
0.675000
 21
1.760000
 31
0.000000
  0
LINE
  8
1
 10
0.675000
 20
1.760000
 30
0.000000
 11
1.724000
 21
1.760000
 31
0.000000
  0
LINE
  8
1
 10
1.724000
 20
1.760000
 30
0.000000
 11
1.832000
 21
1.652000
 31
0.000000
  0
INSERT
  8
18
  2
ROUNDV
 10
0.500000
 20
1.510000
 30
0.000000
 41
0.031000
 42
0.031000
 43
1.000000
 50
0.000000
  0
INSERT
  8
18
  2
ROUNDV
 10
0.500000
 20
1.510000
 30
0.000000
 41
0.031000
 42
0.031000
 43
1.000000
 50
0.000000
  0
INSERT
  8
18
  2
ROUNDV
 10
0.675000
 20
1.760000
 30
0.000000
 41
0.031000
 42
0.031000
 43
1.000000
 50
0.000000
  0
INSERT
  8
18
  2
ROUNDV
 10
0.675000
 20
1.760000
 30
0.000000
 41
0.031000
 42
0.031000
 43
1.000000
 50
0.000000
  0
LINE
  8
1
 10
1.832000
 20
1.002000
 30
0.000000
 11
1.832000
 21
1.238000
 31
0.000000
  0
LINE
  8
1
 10
1.832000
 20
1.238000
 30
0.000000
 11
1.775000
 21
1.295000
 31
0.000000
  0
LINE
  8
1
 10
1.775000
 20
1.295000
 30
0.000000
 11
1.775000
 21
1.415000
 31
0.000000
  0
LINE
  8
1
 10
1.775000
 20
1.415000
 30
0.000000
 11
1.715000
 21
1.475000
 31
0.000000
  0
LINE
  8
1
 10
1.715000
 20
1.475000
 30
0.000000
 11
1.465000
 21
1.475000
 31
0.000000
  0
LINE
  8
1
 10
1.465000
 20
1.475000
 30
0.000000
 11
1.400000
 21
1.410000
 31
0.000000
  0
LINE
  8
1
 10
1.400000
 20
1.410000
 30
0.000000
 11
1.050000
 21
1.410000
 31
0.000000
  0
LINE
  8
1
 10
1.050000
 20
1.410000
 30
0.000000
 11
0.985000
 21
1.345000
 31
0.000000
  0
LINE
  8
16
 10
0.985000
 20
1.345000
 30
0.000000
 11
0.790000
 21
1.345000
 31
0.000000
  0
LINE
  8
16
 10
0.790000
 20
1.345000
 30
0.000000
 11
0.715000
 21
1.420000
 31
0.000000
  0
LINE
  8
16
 10
0.715000
 20
1.420000
 30
0.000000
 11
0.715000
 21
1.505000
 31
0.000000
  0
LINE
  8
16
 10
0.715000
 20
1.505000
 30
0.000000
 11
0.695000
 21
1.525000
 31
0.000000
  0
LINE
  8
1
 10
0.695000
 20
1.525000
 30
0.000000
 11
0.695000
 21
1.610000
 31
0.000000
  0
LINE
  8
1
 10
0.695000
 20
1.610000
 30
0.000000
 11
0.630000
 21
1.675000
 31
0.000000
  0
LINE
  8
1
 10
0.630000
 20
1.675000
 30
0.000000
 11
0.555000
 21
1.675000
 31
0.000000
  0
LINE
  8
1
 10
0.555000
 20
1.675000
 30
0.000000
 11
0.460000
 21
1.580000
 31
0.000000
  0
LINE
  8
16
 10
0.465000
 20
1.460000
 30
0.000000
 11
0.460000
 21
1.465000
 31
0.000000
  0
LINE
  8
16
 10
0.460000
 20
1.465000
 30
0.000000
 11
0.460000
 21
1.545000
 31
0.000000
  0
LINE
  8
1
 10
0.460000
 20
1.545000
 30
0.000000
 11
0.460000
 21
1.580000
 31
0.000000
  0
INSERT
  8
18
  2
ROUNDV
 10
0.985000
 20
1.345000
 30
0.000000
 41
0.031000
 42
0.031000
 43
1.000000
 50
0.000000
  0
INSERT
  8
18
  2
ROUNDV
 10
0.985000
 20
1.345000
 30
0.000000
 41
0.031000
 42
0.031000
 43
1.000000
 50
0.000000
  0
INSERT
  8
18
  2
ROUNDV
 10
0.695000
 20
1.525000
 30
0.000000
 41
0.031000
 42
0.031000
 43
1.000000
 50
0.000000
  0
INSERT
  8
18
  2
ROUNDV
 10
0.695000
 20
1.525000
 30
0.000000
 41
0.031000
 42
0.031000
 43
1.000000
 50
0.000000
  0
INSERT
  8
18
  2
ROUNDV
 10
0.460000
 20
1.545000
 30
0.000000
 41
0.031000
 42
0.031000
 43
1.000000
 50
0.000000
  0
INSERT
  8
18
  2
ROUNDV
 10
0.460000
 20
1.545000
 30
0.000000
 41
0.031000
 42
0.031000
 43
1.000000
 50
0.000000
  0
LINE
  8
1
 10
0.265000
 20
1.460000
 30
0.000000
 11
0.265000
 21
1.515000
 31
0.000000
  0
LINE
  8
1
 10
0.265000
 20
1.515000
 30
0.000000
 11
0.325000
 21
1.575000
 31
0.000000
  0
LINE
  8
1
 10
0.325000
 20
1.575000
 30
0.000000
 11
0.425000
 21
1.575000
 31
0.000000
  0
LINE
  8
1
 10
0.425000
 20
1.575000
 30
0.000000
 11
0.575000
 21
1.725000
 31
0.000000
  0
LINE
  8
1
 10
0.575000
 20
1.725000
 30
0.000000
 11
1.059000
 21
1.725000
 31
0.000000
  0
LINE
  8
1
 10
1.059000
 20
1.725000
 30
0.000000
 11
1.132000
 21
1.652000
 31
0.000000
  0
LINE
  8
1
 10
0.165000
 20
1.460000
 30
0.000000
 11
0.165000
 21
1.515000
 31
0.000000
  0
LINE
  8
1
 10
0.165000
 20
1.515000
 30
0.000000
 11
0.250000
 21
1.600000
 31
0.000000
  0
LINE
  8
1
 10
0.250000
 20
1.600000
 30
0.000000
 11
0.380000
 21
1.600000
 31
0.000000
  0
LINE
  8
1
 10
0.380000
 20
1.600000
 30
0.000000
 11
0.432000
 21
1.652000
 31
0.000000
  0
LINE
  8
16
 10
1.296535
 20
1.305000
 30
0.000000
 11
1.228465
 21
1.305000
 31
0.000000
  0
LINE
  8
16
 10
1.296535
 20
1.305000
 30
0.000000
 11
1.315000
 21
1.286535
 31
0.000000
  0
LINE
  8
16
 10
1.315000
 20
1.286535
 30
0.000000
 11
1.315000
 21
1.250000
 31
0.000000
  0
LINE
  8
1
 10
1.315000
 20
1.250000
 30
0.000000
 11
1.315000
 21
0.980000
 31
0.000000
  0
LINE
  8
1
 10
1.315000
 20
0.980000
 30
0.000000
 11
1.280000
 21
0.945000
 31
0.000000
  0
LINE
  8
1
 10
1.280000
 20
0.945000
 30
0.000000
 11
1.090000
 21
0.945000
 31
0.000000
  0
LINE
  8
1
 10
1.090000
 20
0.945000
 30
0.000000
 11
1.050000
 21
0.905000
 31
0.000000
  0
LINE
  8
1
 10
1.050000
 20
0.905000
 30
0.000000
 11
1.050000
 21
0.435000
 31
0.000000
  0
LINE
  8
1
 10
1.050000
 20
0.435000
 30
0.000000
 11
1.095000
 21
0.390000
 31
0.000000
  0
LINE
  8
1
 10
1.095000
 20
0.390000
 30
0.000000
 11
1.355000
 21
0.390000
 31
0.000000
  0
LINE
  8
1
 10
1.355000
 20
0.390000
 30
0.000000
 11
1.385000
 21
0.420000
 31
0.000000
  0
LINE
  8
1
 10
1.385000
 20
0.420000
 30
0.000000
 11
1.385000
 21
0.495118
 31
0.000000
  0
LINE
  8
1
 10
1.385000
 20
0.495118
 30
0.000000
 11
1.384646
 21
0.495472
 31
0.000000
  0
INSERT
  8
18
  2
ROUNDV
 10
1.315000
 20
1.250000
 30
0.000000
 41
0.031000
 42
0.031000
 43
1.000000
 50
0.000000
  0
INSERT
  8
18
  2
ROUNDV
 10
1.315000
 20
1.250000
 30
0.000000
 41
0.031000
 42
0.031000
 43
1.000000
 50
0.000000
  0
LINE
  8
16
 10
0.978465
 20
1.075000
 30
0.000000
 11
0.978465
 21
1.000000
 31
0.000000
  0
LINE
  8
16
 10
0.978465
 20
1.000000
 30
0.000000
 11
0.978465
 21
0.953465
 31
0.000000
  0
LINE
  8
16
 10
0.978465
 20
0.953465
 30
0.000000
 11
0.975000
 21
0.950000
 31
0.000000
  0
LINE
  8
1
 10
0.975000
 20
0.950000
 30
0.000000
 11
0.975000
 21
0.975000
 31
0.000000
  0
LINE
  8
1
 10
0.975000
 20
0.975000
 30
0.000000
 11
1.025000
 21
1.025000
 31
0.000000
  0
LINE
  8
1
 10
1.025000
 20
1.025000
 30
0.000000
 11
1.115000
 21
1.025000
 31
0.000000
  0
LINE
  8
16
 10
1.115000
 20
1.025000
 30
0.000000
 11
1.115000
 21
1.000000
 31
0.000000
  0
LINE
  8
16
 10
1.115000
 20
1.000000
 30
0.000000
 11
1.160000
 21
0.955000
 31
0.000000
  0
LINE
  8
16
 10
1.160000
 20
0.955000
 30
0.000000
 11
1.195000
 21
0.955000
 31
0.000000
  0
LINE
  8
16
 10
1.195000
 20
0.955000
 30
0.000000
 11
1.235000
 21
0.915000
 31
0.000000
  0
LINE
  8
16
 10
1.235000
 20
0.915000
 30
0.000000
 11
1.362756
 21
0.915000
 31
0.000000
  0
LINE
  8
16
 10
1.362756
 20
0.915000
 30
0.000000
 11
1.424016
 21
0.853740
 31
0.000000
  0
LINE
  8
16
 10
1.424016
 20
0.853740
 30
0.000000
 11
1.424016
 21
0.810984
 31
0.000000
  0
LINE
  8
16
 10
1.424016
 20
0.810984
 30
0.000000
 11
1.425000
 21
0.810000
 31
0.000000
  0
LINE
  8
1
 10
1.425000
 20
0.810000
 30
0.000000
 11
1.425000
 21
0.852756
 31
0.000000
  0
LINE
  8
1
 10
1.425000
 20
0.852756
 30
0.000000
 11
1.424016
 21
0.853740
 31
0.000000
  0
INSERT
  8
18
  2
ROUNDV
 10
0.975000
 20
0.950000
 30
0.000000
 41
0.031000
 42
0.031000
 43
1.000000
 50
0.000000
  0
INSERT
  8
18
  2
ROUNDV
 10
0.975000
 20
0.950000
 30
0.000000
 41
0.031000
 42
0.031000
 43
1.000000
 50
0.000000
  0
INSERT
  8
18
  2
ROUNDV
 10
1.115000
 20
1.025000
 30
0.000000
 41
0.031000
 42
0.031000
 43
1.000000
 50
0.000000
  0
INSERT
  8
18
  2
ROUNDV
 10
1.115000
 20
1.025000
 30
0.000000
 41
0.031000
 42
0.031000
 43
1.000000
 50
0.000000
  0
INSERT
  8
18
  2
ROUNDV
 10
1.425000
 20
0.810000
 30
0.000000
 41
0.031000
 42
0.031000
 43
1.000000
 50
0.000000
  0
INSERT
  8
18
  2
ROUNDV
 10
1.425000
 20
0.810000
 30
0.000000
 41
0.031000
 42
0.031000
 43
1.000000
 50
0.000000
  0
LINE
  8
1
 10
0.964528
 20
0.215000
 30
0.000000
 11
1.015000
 21
0.215000
 31
0.000000
  0
LINE
  8
16
 10
1.015000
 20
0.215000
 30
0.000000
 11
0.963465
 21
0.215000
 31
0.000000
  0
INSERT
  8
18
  2
ROUNDV
 10
1.015000
 20
0.215000
 30
0.000000
 41
0.031000
 42
0.031000
 43
1.000000
 50
0.000000
  0
INSERT
  8
18
  2
ROUNDV
 10
1.015000
 20
0.215000
 30
0.000000
 41
0.031000
 42
0.031000
 43
1.000000
 50
0.000000
  0
LINE
  8
16
 10
0.896535
 20
0.065000
 30
0.000000
 11
0.845000
 21
0.065000
 31
0.000000
  0
LINE
  8
1
 10
0.845000
 20
0.065000
 30
0.000000
 11
0.895472
 21
0.065000
 31
0.000000
  0
INSERT
  8
18
  2
ROUNDV
 10
0.845000
 20
0.065000
 30
0.000000
 41
0.031000
 42
0.031000
 43
1.000000
 50
0.000000
  0
INSERT
  8
18
  2
ROUNDV
 10
0.845000
 20
0.065000
 30
0.000000
 41
0.031000
 42
0.031000
 43
1.000000
 50
0.000000
  0
LINE
  8
16
 10
1.296535
 20
1.370000
 30
0.000000
 11
1.228465
 21
1.370000
 31
0.000000
  0
LINE
  8
1
 10
1.400000
 20
1.345000
 30
0.000000
 11
1.400000
 21
1.200000
 31
0.000000
  0
LINE
  8
1
 10
1.400000
 20
1.200000
 30
0.000000
 11
1.425000
 21
1.175000
 31
0.000000
  0
LINE
  8
1
 10
1.425000
 20
1.175000
 30
0.000000
 11
1.425000
 21
1.135000
 31
0.000000
  0
LINE
  8
1
 10
1.425000
 20
1.135000
 30
0.000000
 11
1.385000
 21
1.095000
 31
0.000000
  0
LINE
  8
1
 10
1.385000
 20
1.095000
 30
0.000000
 11
1.385000
 21
0.854094
 31
0.000000
  0
LINE
  8
1
 10
1.385000
 20
0.854094
 30
0.000000
 11
1.384646
 21
0.853740
 31
0.000000
  0
LINE
  8
16
 10
1.296535
 20
1.370000
 30
0.000000
 11
1.300000
 21
1.366535
 31
0.000000
  0
LINE
  8
16
 10
1.300000
 20
1.366535
 30
0.000000
 11
1.300000
 21
1.365000
 31
0.000000
  0
LINE
  8
1
 10
1.300000
 20
1.365000
 30
0.000000
 11
1.380000
 21
1.365000
 31
0.000000
  0
LINE
  8
1
 10
1.380000
 20
1.365000
 30
0.000000
 11
1.400000
 21
1.345000
 31
0.000000
  0
INSERT
  8
18
  2
ROUNDV
 10
1.300000
 20
1.365000
 30
0.000000
 41
0.031000
 42
0.031000
 43
1.000000
 50
0.000000
  0
INSERT
  8
18
  2
ROUNDV
 10
1.300000
 20
1.365000
 30
0.000000
 41
0.031000
 42
0.031000
 43
1.000000
 50
0.000000
  0
LINE
  8
16
 10
1.050000
 20
1.011535
 30
0.000000
 11
1.050000
 21
0.435000
 31
0.000000
  0
LINE
  8
16
 10
1.050000
 20
0.435000
 30
0.000000
 11
1.095000
 21
0.390000
 31
0.000000
  0
LINE
  8
16
 10
1.095000
 20
0.390000
 30
0.000000
 11
1.220000
 21
0.390000
 31
0.000000
  0
LINE
  8
16
 10
1.220000
 20
0.390000
 30
0.000000
 11
1.255000
 21
0.425000
 31
0.000000
  0
LINE
  8
1
 10
1.255000
 20
0.425000
 30
0.000000
 11
1.355000
 21
0.425000
 31
0.000000
  0
LINE
  8
1
 10
1.355000
 20
0.425000
 30
0.000000
 11
1.365000
 21
0.435000
 31
0.000000
  0
LINE
  8
1
 10
1.365000
 20
0.435000
 30
0.000000
 11
1.365000
 21
0.495433
 31
0.000000
  0
LINE
  8
1
 10
1.365000
 20
0.495433
 30
0.000000
 11
1.364961
 21
0.495472
 31
0.000000
  0
INSERT
  8
18
  2
ROUNDV
 10
1.255000
 20
0.425000
 30
0.000000
 41
0.031000
 42
0.031000
 43
1.000000
 50
0.000000
  0
INSERT
  8
18
  2
ROUNDV
 10
1.255000
 20
0.425000
 30
0.000000
 41
0.031000
 42
0.031000
 43
1.000000
 50
0.000000
  0
LINE
  8
16
 10
1.175000
 20
1.016535
 30
0.000000
 11
1.175000
 21
1.005000
 31
0.000000
  0
LINE
  8
16
 10
1.175000
 20
1.005000
 30
0.000000
 11
1.235000
 21
0.945000
 31
0.000000
  0
LINE
  8
16
 10
1.235000
 20
0.945000
 30
0.000000
 11
1.335000
 21
0.945000
 31
0.000000
  0
LINE
  8
1
 10
1.335000
 20
0.945000
 30
0.000000
 11
1.345000
 21
0.945000
 31
0.000000
  0
LINE
  8
1
 10
1.345000
 20
0.945000
 30
0.000000
 11
1.365000
 21
0.925000
 31
0.000000
  0
LINE
  8
1
 10
1.365000
 20
0.925000
 30
0.000000
 11
1.365000
 21
0.853780
 31
0.000000
  0
LINE
  8
1
 10
1.365000
 20
0.853780
 30
0.000000
 11
1.364961
 21
0.853740
 31
0.000000
  0
INSERT
  8
18
  2
ROUNDV
 10
1.335000
 20
0.945000
 30
0.000000
 41
0.031000
 42
0.031000
 43
1.000000
 50
0.000000
  0
INSERT
  8
18
  2
ROUNDV
 10
1.335000
 20
0.945000
 30
0.000000
 41
0.031000
 42
0.031000
 43
1.000000
 50
0.000000
  0
LINE
  8
1
 10
1.404331
 20
0.495472
 30
0.000000
 11
1.404331
 21
0.409331
 31
0.000000
  0
LINE
  8
1
 10
1.404331
 20
0.409331
 30
0.000000
 11
1.365000
 21
0.370000
 31
0.000000
  0
LINE
  8
1
 10
1.365000
 20
0.370000
 30
0.000000
 11
1.085000
 21
0.370000
 31
0.000000
  0
LINE
  8
1
 10
1.085000
 20
0.370000
 30
0.000000
 11
1.030000
 21
0.425000
 31
0.000000
  0
LINE
  8
1
 10
1.030000
 20
0.425000
 30
0.000000
 11
1.030000
 21
0.925000
 31
0.000000
  0
LINE
  8
1
 10
1.030000
 20
0.925000
 30
0.000000
 11
1.075000
 21
0.970000
 31
0.000000
  0
LINE
  8
1
 10
1.075000
 20
0.970000
 30
0.000000
 11
1.255000
 21
0.970000
 31
0.000000
  0
LINE
  8
1
 10
1.255000
 20
0.970000
 30
0.000000
 11
1.265000
 21
0.980000
 31
0.000000
  0
LINE
  8
16
 10
1.265000
 20
0.980000
 30
0.000000
 11
1.265000
 21
1.001535
 31
0.000000
  0
INSERT
  8
18
  2
ROUNDV
 10
1.265000
 20
0.980000
 30
0.000000
 41
0.031000
 42
0.031000
 43
1.000000
 50
0.000000
  0
INSERT
  8
18
  2
ROUNDV
 10
1.265000
 20
0.980000
 30
0.000000
 41
0.031000
 42
0.031000
 43
1.000000
 50
0.000000
  0
LINE
  8
16
 10
1.050000
 20
1.311535
 30
0.000000
 11
1.136535
 21
1.225000
 31
0.000000
  0
LINE
  8
16
 10
1.136535
 20
1.225000
 30
0.000000
 11
1.275000
 21
1.225000
 31
0.000000
  0
LINE
  8
16
 10
1.275000
 20
1.225000
 30
0.000000
 11
1.315000
 21
1.185000
 31
0.000000
  0
LINE
  8
16
 10
1.315000
 20
1.185000
 30
0.000000
 11
1.315000
 21
1.070000
 31
0.000000
  0
LINE
  8
16
 10
1.315000
 20
1.070000
 30
0.000000
 11
1.350000
 21
1.035000
 31
0.000000
  0
LINE
  8
16
 10
1.350000
 20
1.035000
 30
0.000000
 11
1.420000
 21
1.035000
 31
0.000000
  0
LINE
  8
1
 10
1.420000
 20
1.035000
 30
0.000000
 11
1.404331
 21
1.019331
 31
0.000000
  0
LINE
  8
1
 10
1.404331
 20
1.019331
 30
0.000000
 11
1.404331
 21
0.853740
 31
0.000000
  0
INSERT
  8
18
  2
ROUNDV
 10
1.420000
 20
1.035000
 30
0.000000
 41
0.031000
 42
0.031000
 43
1.000000
 50
0.000000
  0
INSERT
  8
18
  2
ROUNDV
 10
1.420000
 20
1.035000
 30
0.000000
 41
0.031000
 42
0.031000
 43
1.000000
 50
0.000000
  0
LINE
  8
16
 10
0.896535
 20
0.140000
 30
0.000000
 11
0.845000
 21
0.140000
 31
0.000000
  0
LINE
  8
1
 10
0.845000
 20
0.140000
 30
0.000000
 11
0.895472
 21
0.140000
 31
0.000000
  0
INSERT
  8
18
  2
ROUNDV
 10
0.845000
 20
0.140000
 30
0.000000
 41
0.031000
 42
0.031000
 43
1.000000
 50
0.000000
  0
INSERT
  8
18
  2
ROUNDV
 10
0.845000
 20
0.140000
 30
0.000000
 41
0.031000
 42
0.031000
 43
1.000000
 50
0.000000
  0
LINE
  8
1
 10
1.345000
 20
0.475000
 30
0.000000
 11
1.345000
 21
0.545000
 31
0.000000
  0
LINE
  8
1
 10
1.345000
 20
0.545000
 30
0.000000
 11
1.235000
 21
0.545000
 31
0.000000
  0
LINE
  8
1
 10
1.235000
 20
0.545000
 30
0.000000
 11
1.235000
 21
0.655000
 31
0.000000
  0
LINE
  8
1
 10
1.235000
 20
0.655000
 30
0.000000
 11
1.105000
 21
0.655000
 31
0.000000
  0
LINE
  8
1
 10
1.105000
 20
0.655000
 30
0.000000
 11
1.105000
 21
0.475000
 31
0.000000
  0
LINE
  8
1
 10
1.105000
 20
0.475000
 30
0.000000
 11
1.345000
 21
0.475000
 31
0.000000
  0
LINE
  8
16
 10
1.110000
 20
0.655000
 30
0.000000
 11
1.110000
 21
0.580000
 31
0.000000
  0
LINE
  8
16
 10
1.110000
 20
0.580000
 30
0.000000
 11
1.235000
 21
0.580000
 31
0.000000
  0
LINE
  8
16
 10
1.235000
 20
0.580000
 30
0.000000
 11
1.235000
 21
0.655000
 31
0.000000
  0
LINE
  8
16
 10
1.235000
 20
0.655000
 30
0.000000
 11
1.110000
 21
0.655000
 31
0.000000
  0
LINE
  8
1
 10
1.345276
 20
0.495472
 30
0.000000
 11
1.345276
 21
0.450276
 31
0.000000
  0
LINE
  8
1
 10
1.345276
 20
0.450276
 30
0.000000
 11
1.345000
 21
0.450000
 31
0.000000
  0
LINE
  8
1
 10
1.345000
 20
0.450000
 30
0.000000
 11
1.305000
 21
0.450000
 31
0.000000
  0
LINE
  8
1
 10
1.305000
 20
0.450000
 30
0.000000
 11
1.305000
 21
0.494567
 31
0.000000
  0
LINE
  8
1
 10
1.305000
 20
0.494567
 30
0.000000
 11
1.305906
 21
0.495472
 31
0.000000
  0
LINE
  8
16
 10
1.889173
 20
0.103425
 30
0.000000
 11
1.821575
 21
0.103425
 31
0.000000
  0
LINE
  8
16
 10
1.821575
 20
0.103425
 30
0.000000
 11
1.725000
 21
0.200000
 31
0.000000
  0
LINE
  8
16
 10
1.725000
 20
0.200000
 30
0.000000
 11
1.725000
 21
0.325000
 31
0.000000
  0
LINE
  8
16
 10
1.725000
 20
0.325000
 30
0.000000
 11
1.425000
 21
0.625000
 31
0.000000
  0
LINE
  8
16
 10
1.425000
 20
0.625000
 30
0.000000
 11
1.181000
 21
0.625000
 31
0.000000
  0
LINE
  8
16
 10
1.181000
 20
0.625000
 30
0.000000
 11
1.172000
 21
0.616000
 31
0.000000
  0
LINE
  8
16
 10
0.963465
 20
0.140000
 30
0.000000
 11
0.963465
 21
0.065000
 31
0.000000
  0
LINE
  8
16
 10
0.963465
 20
0.140000
 30
0.000000
 11
1.485000
 21
0.140000
 31
0.000000
  0
LINE
  8
16
 10
1.485000
 20
0.140000
 30
0.000000
 11
1.575000
 21
0.050000
 31
0.000000
  0
LINE
  8
16
 10
1.575000
 20
0.050000
 30
0.000000
 11
1.835748
 21
0.050000
 31
0.000000
  0
LINE
  8
16
 10
1.835748
 20
0.050000
 30
0.000000
 11
1.889173
 21
0.103425
 31
0.000000
  0
LINE
  8
1
 10
1.109055
 20
0.495472
 30
0.000000
 11
1.109000
 21
0.495472
 31
0.000000
  0
LINE
  8
1
 10
1.109000
 20
0.495472
 30
0.000000
 11
1.109000
 21
0.565000
 31
0.000000
  0
LINE
  8
1
 10
1.109000
 20
0.565000
 30
0.000000
 11
1.125000
 21
0.565000
 31
0.000000
  0
LINE
  8
1
 10
1.125000
 20
0.565000
 30
0.000000
 11
1.125000
 21
0.595000
 31
0.000000
  0
INSERT
  8
18
  2
ROUNDV
 10
1.220000
 20
0.640000
 30
0.000000
 41
0.031000
 42
0.031000
 43
1.000000
 50
0.000000
  0
INSERT
  8
18
  2
ROUNDV
 10
1.220000
 20
0.640000
 30
0.000000
 41
0.031000
 42
0.031000
 43
1.000000
 50
0.000000
  0
INSERT
  8
18
  2
ROUNDV
 10
1.220000
 20
0.595000
 30
0.000000
 41
0.031000
 42
0.031000
 43
1.000000
 50
0.000000
  0
INSERT
  8
18
  2
ROUNDV
 10
1.220000
 20
0.595000
 30
0.000000
 41
0.031000
 42
0.031000
 43
1.000000
 50
0.000000
  0
INSERT
  8
18
  2
ROUNDV
 10
1.175000
 20
0.595000
 30
0.000000
 41
0.031000
 42
0.031000
 43
1.000000
 50
0.000000
  0
INSERT
  8
18
  2
ROUNDV
 10
1.175000
 20
0.595000
 30
0.000000
 41
0.031000
 42
0.031000
 43
1.000000
 50
0.000000
  0
INSERT
  8
18
  2
ROUNDV
 10
1.175000
 20
0.640000
 30
0.000000
 41
0.031000
 42
0.031000
 43
1.000000
 50
0.000000
  0
INSERT
  8
18
  2
ROUNDV
 10
1.175000
 20
0.640000
 30
0.000000
 41
0.031000
 42
0.031000
 43
1.000000
 50
0.000000
  0
INSERT
  8
18
  2
ROUNDV
 10
1.125000
 20
0.640000
 30
0.000000
 41
0.031000
 42
0.031000
 43
1.000000
 50
0.000000
  0
INSERT
  8
18
  2
ROUNDV
 10
1.125000
 20
0.640000
 30
0.000000
 41
0.031000
 42
0.031000
 43
1.000000
 50
0.000000
  0
INSERT
  8
18
  2
ROUNDV
 10
1.125000
 20
0.595000
 30
0.000000
 41
0.031000
 42
0.031000
 43
1.000000
 50
0.000000
  0
INSERT
  8
18
  2
ROUNDV
 10
1.125000
 20
0.595000
 30
0.000000
 41
0.031000
 42
0.031000
 43
1.000000
 50
0.000000
  0
LINE
  8
1
 10
1.345000
 20
0.875000
 30
0.000000
 11
1.345000
 21
0.805000
 31
0.000000
  0
LINE
  8
1
 10
1.345000
 20
0.805000
 30
0.000000
 11
1.235000
 21
0.805000
 31
0.000000
  0
LINE
  8
1
 10
1.235000
 20
0.805000
 30
0.000000
 11
1.235000
 21
0.695000
 31
0.000000
  0
LINE
  8
1
 10
1.235000
 20
0.695000
 30
0.000000
 11
1.105000
 21
0.695000
 31
0.000000
  0
LINE
  8
1
 10
1.105000
 20
0.695000
 30
0.000000
 11
1.105000
 21
0.875000
 31
0.000000
  0
LINE
  8
1
 10
1.105000
 20
0.875000
 30
0.000000
 11
1.345000
 21
0.875000
 31
0.000000
  0
LINE
  8
16
 10
1.110000
 20
0.770000
 30
0.000000
 11
1.110000
 21
0.695000
 31
0.000000
  0
LINE
  8
16
 10
1.110000
 20
0.695000
 30
0.000000
 11
1.235000
 21
0.695000
 31
0.000000
  0
LINE
  8
16
 10
1.235000
 20
0.695000
 30
0.000000
 11
1.235000
 21
0.770000
 31
0.000000
  0
LINE
  8
16
 10
1.235000
 20
0.770000
 30
0.000000
 11
1.110000
 21
0.770000
 31
0.000000
  0
LINE
  8
1
 10
1.345276
 20
0.853740
 30
0.000000
 11
1.345276
 21
0.894724
 31
0.000000
  0
LINE
  8
1
 10
1.345276
 20
0.894724
 30
0.000000
 11
1.345000
 21
0.900000
 31
0.000000
  0
LINE
  8
1
 10
1.345000
 20
0.900000
 30
0.000000
 11
1.305000
 21
0.900000
 31
0.000000
  0
LINE
  8
1
 10
1.305000
 20
0.900000
 30
0.000000
 11
1.305000
 21
0.854646
 31
0.000000
  0
LINE
  8
1
 10
1.305000
 20
0.854646
 30
0.000000
 11
1.305906
 21
0.853740
 31
0.000000
  0
LINE
  8
16
 10
1.889173
 20
0.300276
 30
0.000000
 11
1.889173
 21
0.310827
 31
0.000000
  0
LINE
  8
16
 10
1.889173
 20
0.310827
 30
0.000000
 11
1.475000
 21
0.725000
 31
0.000000
  0
LINE
  8
16
 10
1.475000
 20
0.725000
 30
0.000000
 11
1.200000
 21
0.725000
 31
0.000000
  0
LINE
  8
1
 10
0.964528
 20
0.140000
 30
0.000000
 11
0.964528
 21
0.065000
 31
0.000000
  0
LINE
  8
1
 10
0.964528
 20
0.140000
 30
0.000000
 11
1.485000
 21
0.140000
 31
0.000000
  0
LINE
  8
1
 10
1.485000
 20
0.140000
 30
0.000000
 11
1.575000
 21
0.050000
 31
0.000000
  0
LINE
  8
1
 10
1.575000
 20
0.050000
 30
0.000000
 11
1.650000
 21
0.050000
 31
0.000000
  0
LINE
  8
1
 10
1.650000
 20
0.050000
 30
0.000000
 11
1.889173
 21
0.289173
 31
0.000000
  0
LINE
  8
1
 10
1.889173
 20
0.289173
 30
0.000000
 11
1.889173
 21
0.300276
 31
0.000000
  0
LINE
  8
1
 10
1.109055
 20
0.853740
 30
0.000000
 11
1.109000
 21
0.853740
 31
0.000000
  0
LINE
  8
1
 10
1.109000
 20
0.853740
 30
0.000000
 11
1.109000
 21
0.779500
 31
0.000000
  0
LINE
  8
1
 10
1.109000
 20
0.779500
 30
0.000000
 11
1.125000
 21
0.779500
 31
0.000000
  0
LINE
  8
1
 10
1.125000
 20
0.779500
 30
0.000000
 11
1.125000
 21
0.755000
 31
0.000000
  0
INSERT
  8
18
  2
ROUNDV
 10
1.220000
 20
0.755000
 30
0.000000
 41
0.031000
 42
0.031000
 43
1.000000
 50
0.000000
  0
INSERT
  8
18
  2
ROUNDV
 10
1.220000
 20
0.755000
 30
0.000000
 41
0.031000
 42
0.031000
 43
1.000000
 50
0.000000
  0
INSERT
  8
18
  2
ROUNDV
 10
1.220000
 20
0.710000
 30
0.000000
 41
0.031000
 42
0.031000
 43
1.000000
 50
0.000000
  0
INSERT
  8
18
  2
ROUNDV
 10
1.220000
 20
0.710000
 30
0.000000
 41
0.031000
 42
0.031000
 43
1.000000
 50
0.000000
  0
INSERT
  8
18
  2
ROUNDV
 10
1.175000
 20
0.710000
 30
0.000000
 41
0.031000
 42
0.031000
 43
1.000000
 50
0.000000
  0
INSERT
  8
18
  2
ROUNDV
 10
1.175000
 20
0.710000
 30
0.000000
 41
0.031000
 42
0.031000
 43
1.000000
 50
0.000000
  0
INSERT
  8
18
  2
ROUNDV
 10
1.175000
 20
0.755000
 30
0.000000
 41
0.031000
 42
0.031000
 43
1.000000
 50
0.000000
  0
INSERT
  8
18
  2
ROUNDV
 10
1.175000
 20
0.755000
 30
0.000000
 41
0.031000
 42
0.031000
 43
1.000000
 50
0.000000
  0
INSERT
  8
18
  2
ROUNDV
 10
1.125000
 20
0.755000
 30
0.000000
 41
0.031000
 42
0.031000
 43
1.000000
 50
0.000000
  0
INSERT
  8
18
  2
ROUNDV
 10
1.125000
 20
0.755000
 30
0.000000
 41
0.031000
 42
0.031000
 43
1.000000
 50
0.000000
  0
INSERT
  8
18
  2
ROUNDV
 10
1.125000
 20
0.710000
 30
0.000000
 41
0.031000
 42
0.031000
 43
1.000000
 50
0.000000
  0
INSERT
  8
18
  2
ROUNDV
 10
1.125000
 20
0.710000
 30
0.000000
 41
0.031000
 42
0.031000
 43
1.000000
 50
0.000000
  0
LINE
  8
16
 10
1.265000
 20
1.068465
 30
0.000000
 11
1.265000
 21
1.160000
 31
0.000000
  0
LINE
  8
1
 10
1.165000
 20
1.460000
 30
0.000000
 11
1.165000
 21
1.605000
 31
0.000000
  0
LINE
  8
1
 10
1.165000
 20
1.605000
 30
0.000000
 11
1.285000
 21
1.725000
 31
0.000000
  0
LINE
  8
16
 10
1.285000
 20
1.725000
 30
0.000000
 11
1.360000
 21
1.800000
 31
0.000000
  0
LINE
  8
1
 10
1.360000
 20
1.800000
 30
0.000000
 11
1.680000
 21
1.800000
 31
0.000000
  0
LINE
  8
1
 10
1.680000
 20
1.800000
 30
0.000000
 11
1.832000
 21
1.952000
 31
0.000000
  0
INSERT
  8
18
  2
ROUNDV
 10
1.285000
 20
1.725000
 30
0.000000
 41
0.031000
 42
0.031000
 43
1.000000
 50
0.000000
  0
INSERT
  8
18
  2
ROUNDV
 10
1.285000
 20
1.725000
 30
0.000000
 41
0.031000
 42
0.031000
 43
1.000000
 50
0.000000
  0
INSERT
  8
18
  2
ROUNDV
 10
1.360000
 20
1.800000
 30
0.000000
 41
0.031000
 42
0.031000
 43
1.000000
 50
0.000000
  0
INSERT
  8
18
  2
ROUNDV
 10
1.360000
 20
1.800000
 30
0.000000
 41
0.031000
 42
0.031000
 43
1.000000
 50
0.000000
  0
LINE
  8
1
 10
1.265000
 20
1.460000
 30
0.000000
 11
1.275000
 21
1.460000
 31
0.000000
  0
LINE
  8
1
 10
1.275000
 20
1.460000
 30
0.000000
 11
1.325000
 21
1.510000
 31
0.000000
  0
LINE
  8
1
 10
1.325000
 20
1.510000
 30
0.000000
 11
1.735000
 21
1.510000
 31
0.000000
  0
LINE
  8
1
 10
1.735000
 20
1.510000
 30
0.000000
 11
1.830000
 21
1.415000
 31
0.000000
  0
LINE
  8
1
 10
1.830000
 20
1.415000
 30
0.000000
 11
1.830000
 21
1.329000
 31
0.000000
  0
LINE
  8
1
 10
1.830000
 20
1.329000
 30
0.000000
 11
1.832000
 21
1.327000
 31
0.000000
  0
LINE
  8
1
 10
0.565000
 20
1.160000
 30
0.000000
 11
0.615000
 21
1.210000
 31
0.000000
  0
LINE
  8
1
 10
0.615000
 20
1.210000
 30
0.000000
 11
0.615000
 21
1.550000
 31
0.000000
  0
LINE
  8
1
 10
0.615000
 20
1.550000
 30
0.000000
 11
0.625000
 21
1.560000
 31
0.000000
  0
LINE
  8
1
 10
0.625000
 20
1.560000
 30
0.000000
 11
0.625000
 21
1.605000
 31
0.000000
  0
LINE
  8
1
 10
0.625000
 20
1.605000
 30
0.000000
 11
0.615000
 21
1.620000
 31
0.000000
  0
LINE
  8
16
 10
0.615000
 20
1.620000
 30
0.000000
 11
0.615000
 21
1.835000
 31
0.000000
  0
LINE
  8
16
 10
0.615000
 20
1.835000
 30
0.000000
 11
0.625000
 21
1.845000
 31
0.000000
  0
LINE
  8
1
 10
0.625000
 20
1.845000
 30
0.000000
 11
0.625000
 21
1.955000
 31
0.000000
  0
LINE
  8
1
 10
0.625000
 20
1.955000
 30
0.000000
 11
0.680000
 21
2.010000
 31
0.000000
  0
LINE
  8
1
 10
0.680000
 20
2.010000
 30
0.000000
 11
1.074000
 21
2.010000
 31
0.000000
  0
LINE
  8
1
 10
1.074000
 20
2.010000
 30
0.000000
 11
1.132000
 21
1.952000
 31
0.000000
  0
INSERT
  8
18
  2
ROUNDV
 10
0.615000
 20
1.620000
 30
0.000000
 41
0.031000
 42
0.031000
 43
1.000000
 50
0.000000
  0
INSERT
  8
18
  2
ROUNDV
 10
0.615000
 20
1.620000
 30
0.000000
 41
0.031000
 42
0.031000
 43
1.000000
 50
0.000000
  0
INSERT
  8
18
  2
ROUNDV
 10
0.625000
 20
1.845000
 30
0.000000
 41
0.031000
 42
0.031000
 43
1.000000
 50
0.000000
  0
INSERT
  8
18
  2
ROUNDV
 10
0.625000
 20
1.845000
 30
0.000000
 41
0.031000
 42
0.031000
 43
1.000000
 50
0.000000
  0
LINE
  8
1
 10
0.465000
 20
1.160000
 30
0.000000
 11
0.465000
 21
1.355000
 31
0.000000
  0
LINE
  8
1
 10
0.465000
 20
1.355000
 30
0.000000
 11
0.415000
 21
1.405000
 31
0.000000
  0
LINE
  8
16
 10
0.415000
 20
1.405000
 30
0.000000
 11
0.415000
 21
1.575000
 31
0.000000
  0
LINE
  8
16
 10
0.415000
 20
1.575000
 30
0.000000
 11
0.375000
 21
1.615000
 31
0.000000
  0
LINE
  8
16
 10
0.375000
 20
1.615000
 30
0.000000
 11
0.375000
 21
1.895000
 31
0.000000
  0
LINE
  8
16
 10
0.375000
 20
1.895000
 30
0.000000
 11
0.432000
 21
1.952000
 31
0.000000
  0
INSERT
  8
18
  2
ROUNDV
 10
0.415000
 20
1.405000
 30
0.000000
 41
0.031000
 42
0.031000
 43
1.000000
 50
0.000000
  0
INSERT
  8
18
  2
ROUNDV
 10
0.415000
 20
1.405000
 30
0.000000
 41
0.031000
 42
0.031000
 43
1.000000
 50
0.000000
  0
LINE
  8
1
 10
0.220079
 20
0.077874
 30
0.000000
 11
0.220079
 21
0.244921
 31
0.000000
  0
LINE
  8
1
 10
0.220079
 20
0.244921
 30
0.000000
 11
0.175000
 21
0.290000
 31
0.000000
  0
LINE
  8
16
 10
0.175000
 20
0.290000
 30
0.000000
 11
0.100000
 21
0.290000
 31
0.000000
  0
LINE
  8
16
 10
0.100000
 20
0.290000
 30
0.000000
 11
0.075000
 21
0.315000
 31
0.000000
  0
LINE
  8
16
 10
0.075000
 20
0.315000
 30
0.000000
 11
0.075000
 21
0.940000
 31
0.000000
  0
LINE
  8
16
 10
0.075000
 20
0.940000
 30
0.000000
 11
0.265000
 21
1.130000
 31
0.000000
  0
LINE
  8
16
 10
0.265000
 20
1.130000
 30
0.000000
 11
0.265000
 21
1.160000
 31
0.000000
  0
INSERT
  8
18
  2
ROUNDV
 10
0.175000
 20
0.290000
 30
0.000000
 41
0.031000
 42
0.031000
 43
1.000000
 50
0.000000
  0
INSERT
  8
18
  2
ROUNDV
 10
0.175000
 20
0.290000
 30
0.000000
 41
0.031000
 42
0.031000
 43
1.000000
 50
0.000000
  0
LINE
  8
1
 10
0.141339
 20
0.195984
 30
0.000000
 11
0.104016
 21
0.195984
 31
0.000000
  0
LINE
  8
1
 10
0.104016
 20
0.195984
 30
0.000000
 11
0.050000
 21
0.250000
 31
0.000000
  0
LINE
  8
16
 10
0.050000
 20
0.250000
 30
0.000000
 11
0.050000
 21
0.975000
 31
0.000000
  0
LINE
  8
16
 10
0.050000
 20
0.975000
 30
0.000000
 11
0.165000
 21
1.090000
 31
0.000000
  0
LINE
  8
16
 10
0.165000
 20
1.090000
 30
0.000000
 11
0.165000
 21
1.160000
 31
0.000000
  0
INSERT
  8
18
  2
ROUNDV
 10
0.050000
 20
0.250000
 30
0.000000
 41
0.031000
 42
0.031000
 43
1.000000
 50
0.000000
  0
INSERT
  8
18
  2
ROUNDV
 10
0.050000
 20
0.250000
 30
0.000000
 41
0.031000
 42
0.031000
 43
1.000000
 50
0.000000
  0
ENDSEC
  0
EOF
