M48
; DRILL file {KiCad (6.0.8)} date Thu Oct 20 16:13:02 2022
; FORMAT={-:-/ absolute / metric / decimal}
; #@! TF.CreationDate,2022-10-20T16:13:02-05:00
; #@! TF.GenerationSoftware,Kicad,Pcbnew,(6.0.8)
; #@! TF.FileFunction,Plated,1,2,PTH
FMAT,2
METRIC
; #@! TA.AperFunction,Plated,PTH,ViaDrill
T1C0.400
; #@! TA.AperFunction,Plated,PTH,ComponentDrill
T2C0.700
; #@! TA.AperFunction,Plated,PTH,ComponentDrill
T3C0.750
; #@! TA.AperFunction,Plated,PTH,ComponentDrill
T4C0.800
; #@! TA.AperFunction,Plated,PTH,ComponentDrill
T5C0.889
; #@! TA.AperFunction,Plated,PTH,ComponentDrill
T6C2.000
%
G90
G05
T1
X58.42Y-50.8
X58.42Y-63.5
X58.42Y-88.9
X63.5Y-50.8
X63.5Y-88.9
X73.66Y-50.8
X73.66Y-58.42
X76.2Y-88.9
X81.28Y-77.724
X87.376Y-79.756
X88.9Y-50.8
X88.9Y-60.96
X88.9Y-88.9
X88.968Y-77.724
X89.148Y-75.432
X90.932Y-78.74
X99.314Y-72.644
X99.314Y-73.66
X99.314Y-74.676
X99.314Y-75.692
X99.314Y-80.518
X99.314Y-81.534
X99.314Y-82.55
X99.314Y-83.566
X100.33Y-72.644
X100.33Y-73.66
X100.33Y-74.676
X100.33Y-75.692
X100.33Y-80.518
X100.33Y-81.534
X100.33Y-82.55
X100.33Y-83.566
X101.6Y-50.8
X101.6Y-60.96
X101.6Y-88.9
X103.886Y-72.898
X103.886Y-73.914
X103.886Y-74.93
X103.886Y-75.946
X103.886Y-80.518
X103.886Y-81.534
X103.886Y-82.55
X103.886Y-83.566
X104.902Y-72.898
X104.902Y-73.914
X104.902Y-74.93
X104.902Y-75.946
X104.902Y-80.518
X104.902Y-81.534
X104.902Y-82.55
X104.902Y-83.566
X114.3Y-50.8
X114.3Y-60.96
X114.3Y-88.9
X126.746Y-60.96
X127.0Y-50.8
T2
X75.708Y-50.456
X75.708Y-52.456
X75.708Y-54.456
X77.708Y-50.456
X77.708Y-52.456
X77.708Y-54.456
T3
X69.088Y-60.196
X71.628Y-60.196
X74.168Y-60.196
X76.708Y-60.196
X79.248Y-60.196
T4
X62.738Y-48.006
X62.738Y-63.246
X65.278Y-48.006
X65.278Y-50.546
X65.278Y-63.246
X67.818Y-48.006
X67.818Y-63.246
X70.358Y-48.006
X70.358Y-63.246
X72.898Y-48.006
X72.898Y-63.246
X75.438Y-48.006
X75.438Y-63.246
X77.978Y-48.006
X77.978Y-63.246
X80.518Y-48.006
X80.518Y-63.246
X83.058Y-48.006
X83.058Y-63.246
X85.598Y-48.006
X85.598Y-63.246
X88.138Y-48.006
X88.138Y-63.246
X90.678Y-48.006
X90.678Y-63.246
X93.218Y-48.006
X93.218Y-63.246
X95.758Y-48.006
X95.758Y-63.246
X98.298Y-48.006
X98.298Y-63.246
X100.838Y-48.006
X100.838Y-63.246
X103.378Y-48.006
X103.378Y-63.246
X105.918Y-48.006
X105.918Y-63.246
X108.458Y-48.006
X108.458Y-50.546
X108.458Y-53.086
X108.458Y-55.626
X108.458Y-58.166
X108.458Y-60.706
X108.458Y-63.246
X110.998Y-48.006
X110.998Y-63.246
X113.538Y-48.006
X113.538Y-63.246
X116.078Y-48.006
X116.078Y-63.246
X118.618Y-48.006
X118.618Y-63.246
X121.158Y-48.006
X121.158Y-63.246
T5
X72.136Y-80.264
X72.136Y-82.804
X72.136Y-85.344
T6
X58.428Y-74.289G85X60.528Y-74.289
G05
X66.302Y-74.289G85X68.402Y-74.289
G05
X75.658Y-74.233G85X77.758Y-74.233
G05
X83.532Y-74.233G85X85.632Y-74.233
G05
X111.76Y-75.98G85X111.76Y-73.88
G05
X111.76Y-83.854G85X111.76Y-81.754
G05
T0
M30
