G04 #@! TF.GenerationSoftware,KiCad,Pcbnew,(6.0.8)*
G04 #@! TF.CreationDate,2022-10-20T16:10:57-05:00*
G04 #@! TF.ProjectId,H-Bridge,482d4272-6964-4676-952e-6b696361645f,rev?*
G04 #@! TF.SameCoordinates,Original*
G04 #@! TF.FileFunction,Paste,Top*
G04 #@! TF.FilePolarity,Positive*
%FSLAX46Y46*%
G04 Gerber Fmt 4.6, Leading zero omitted, Abs format (unit mm)*
G04 Created by KiCad (PCBNEW (6.0.8)) date 2022-10-20 16:10:57*
%MOMM*%
%LPD*%
G01*
G04 APERTURE LIST*
G04 Aperture macros list*
%AMRoundRect*
0 Rectangle with rounded corners*
0 $1 Rounding radius*
0 $2 $3 $4 $5 $6 $7 $8 $9 X,Y pos of 4 corners*
0 Add a 4 corners polygon primitive as box body*
4,1,4,$2,$3,$4,$5,$6,$7,$8,$9,$2,$3,0*
0 Add four circle primitives for the rounded corners*
1,1,$1+$1,$2,$3*
1,1,$1+$1,$4,$5*
1,1,$1+$1,$6,$7*
1,1,$1+$1,$8,$9*
0 Add four rect primitives between the rounded corners*
20,1,$1+$1,$2,$3,$4,$5,0*
20,1,$1+$1,$4,$5,$6,$7,0*
20,1,$1+$1,$6,$7,$8,$9,0*
20,1,$1+$1,$8,$9,$2,$3,0*%
G04 Aperture macros list end*
%ADD10RoundRect,0.237500X-0.250000X-0.237500X0.250000X-0.237500X0.250000X0.237500X-0.250000X0.237500X0*%
%ADD11RoundRect,0.225000X-0.250000X0.225000X-0.250000X-0.225000X0.250000X-0.225000X0.250000X0.225000X0*%
%ADD12RoundRect,0.218750X0.218750X0.256250X-0.218750X0.256250X-0.218750X-0.256250X0.218750X-0.256250X0*%
%ADD13RoundRect,0.237500X-0.287500X-0.237500X0.287500X-0.237500X0.287500X0.237500X-0.287500X0.237500X0*%
%ADD14O,5.100000X3.000000*%
%ADD15RoundRect,0.150000X-0.825000X-0.150000X0.825000X-0.150000X0.825000X0.150000X-0.825000X0.150000X0*%
%ADD16RoundRect,0.225000X-0.225000X-0.250000X0.225000X-0.250000X0.225000X0.250000X-0.225000X0.250000X0*%
%ADD17RoundRect,0.237500X0.250000X0.237500X-0.250000X0.237500X-0.250000X-0.237500X0.250000X-0.237500X0*%
%ADD18RoundRect,0.225000X0.250000X-0.225000X0.250000X0.225000X-0.250000X0.225000X-0.250000X-0.225000X0*%
G04 APERTURE END LIST*
D10*
X98147500Y-76962000D03*
X99972500Y-76962000D03*
D11*
X98044000Y-73901000D03*
X98044000Y-75451000D03*
D10*
X98147500Y-84836000D03*
X99972500Y-84836000D03*
D12*
X94005500Y-79248000D03*
X92430500Y-79248000D03*
D11*
X70104000Y-80264000D03*
X70104000Y-81814000D03*
D13*
X105805000Y-71374000D03*
X107555000Y-71374000D03*
D14*
X76708000Y-74232800D03*
X84582000Y-74232800D03*
D15*
X90997000Y-80899000D03*
X90997000Y-82169000D03*
X90997000Y-83439000D03*
X90997000Y-84709000D03*
X95947000Y-84709000D03*
X95947000Y-83439000D03*
X95947000Y-82169000D03*
X95947000Y-80899000D03*
X90997000Y-73025000D03*
X90997000Y-74295000D03*
X90997000Y-75565000D03*
X90997000Y-76835000D03*
X95947000Y-76835000D03*
X95947000Y-75565000D03*
X95947000Y-74295000D03*
X95947000Y-73025000D03*
X102173000Y-73025000D03*
X102173000Y-74295000D03*
X102173000Y-75565000D03*
X102173000Y-76835000D03*
X107123000Y-76835000D03*
X107123000Y-75565000D03*
X107123000Y-74295000D03*
X107123000Y-73025000D03*
X116397000Y-73025000D03*
X116397000Y-74295000D03*
X116397000Y-75565000D03*
X116397000Y-76835000D03*
X121347000Y-76835000D03*
X121347000Y-75565000D03*
X121347000Y-74295000D03*
X121347000Y-73025000D03*
D10*
X114657500Y-86360000D03*
X116482500Y-86360000D03*
D12*
X94005500Y-71374000D03*
X92430500Y-71374000D03*
D10*
X114403500Y-78486000D03*
X116228500Y-78486000D03*
D11*
X98044000Y-81775000D03*
X98044000Y-83325000D03*
D16*
X118351000Y-78486000D03*
X119901000Y-78486000D03*
D15*
X102173000Y-80899000D03*
X102173000Y-82169000D03*
X102173000Y-83439000D03*
X102173000Y-84709000D03*
X107123000Y-84709000D03*
X107123000Y-83439000D03*
X107123000Y-82169000D03*
X107123000Y-80899000D03*
D17*
X104036500Y-71374000D03*
X102211500Y-71374000D03*
D18*
X70104000Y-85370000D03*
X70104000Y-83820000D03*
D17*
X104036500Y-86360000D03*
X102211500Y-86360000D03*
D13*
X105805000Y-86360000D03*
X107555000Y-86360000D03*
D14*
X59478000Y-74288600D03*
X67352000Y-74288600D03*
D15*
X116397000Y-80899000D03*
X116397000Y-82169000D03*
X116397000Y-83439000D03*
X116397000Y-84709000D03*
X121347000Y-84709000D03*
X121347000Y-83439000D03*
X121347000Y-82169000D03*
X121347000Y-80899000D03*
M02*
