G04 #@! TF.GenerationSoftware,KiCad,Pcbnew,(6.0.8)*
G04 #@! TF.CreationDate,2022-10-20T16:10:57-05:00*
G04 #@! TF.ProjectId,H-Bridge,482d4272-6964-4676-952e-6b696361645f,rev?*
G04 #@! TF.SameCoordinates,Original*
G04 #@! TF.FileFunction,Soldermask,Bot*
G04 #@! TF.FilePolarity,Negative*
%FSLAX46Y46*%
G04 Gerber Fmt 4.6, Leading zero omitted, Abs format (unit mm)*
G04 Created by KiCad (PCBNEW (6.0.8)) date 2022-10-20 16:10:57*
%MOMM*%
%LPD*%
G01*
G04 APERTURE LIST*
%ADD10O,5.100000X3.000000*%
%ADD11C,1.308000*%
%ADD12C,1.258000*%
%ADD13C,1.208000*%
%ADD14C,1.524000*%
%ADD15O,3.000000X5.100000*%
G04 APERTURE END LIST*
D10*
X76708000Y-74232800D03*
X84582000Y-74232800D03*
D11*
X65278000Y-63246000D03*
X67818000Y-63246000D03*
X70358000Y-63246000D03*
X72898000Y-63246000D03*
X98298000Y-63246000D03*
X67818000Y-48006000D03*
X108458000Y-58166000D03*
X75438000Y-63246000D03*
X77978000Y-63246000D03*
D12*
X69088000Y-60196000D03*
D11*
X80518000Y-63246000D03*
X83058000Y-63246000D03*
X85598000Y-63246000D03*
X88138000Y-63246000D03*
X90678000Y-63246000D03*
X93218000Y-63246000D03*
X95758000Y-63246000D03*
X95758000Y-48006000D03*
X93218000Y-48006000D03*
X90678000Y-48006000D03*
X88138000Y-48006000D03*
X85598000Y-48006000D03*
X83058000Y-48006000D03*
X80518000Y-48006000D03*
X77978000Y-48006000D03*
X75438000Y-48006000D03*
X72898000Y-48006000D03*
X70358000Y-48006000D03*
X100838000Y-63246000D03*
X103378000Y-63246000D03*
X105918000Y-63246000D03*
X108458000Y-63246000D03*
X110998000Y-63246000D03*
X113538000Y-63246000D03*
X116078000Y-63246000D03*
X118618000Y-63246000D03*
X121158000Y-63246000D03*
X121158000Y-48006000D03*
X118618000Y-48006000D03*
X116078000Y-48006000D03*
X113538000Y-48006000D03*
X110998000Y-48006000D03*
X108458000Y-48006000D03*
X105918000Y-48006000D03*
X103378000Y-48006000D03*
X100838000Y-48006000D03*
D12*
X74168000Y-60196000D03*
X71628000Y-60196000D03*
D11*
X62738000Y-63246000D03*
X98298000Y-48006000D03*
X65278000Y-48006000D03*
X108458000Y-55626000D03*
D13*
X77708000Y-52456000D03*
X75708000Y-52456000D03*
D11*
X108458000Y-50546000D03*
X108458000Y-53086000D03*
D13*
X75708000Y-50456000D03*
X77708000Y-50456000D03*
X77708000Y-54456000D03*
X75708000Y-54456000D03*
D12*
X76708000Y-60196000D03*
X79248000Y-60196000D03*
D11*
X108458000Y-60706000D03*
X62738000Y-48006000D03*
X65278000Y-50546000D03*
D10*
X59478000Y-74288600D03*
X67352000Y-74288600D03*
D14*
X72136000Y-85344000D03*
X72136000Y-82804000D03*
X72136000Y-80264000D03*
D15*
X111760000Y-74930000D03*
X111760000Y-82804000D03*
M02*
