G04 #@! TF.GenerationSoftware,KiCad,Pcbnew,(6.0.8)*
G04 #@! TF.CreationDate,2022-10-20T16:10:57-05:00*
G04 #@! TF.ProjectId,H-Bridge,482d4272-6964-4676-952e-6b696361645f,rev?*
G04 #@! TF.SameCoordinates,Original*
G04 #@! TF.FileFunction,Copper,L2,Bot*
G04 #@! TF.FilePolarity,Positive*
%FSLAX46Y46*%
G04 Gerber Fmt 4.6, Leading zero omitted, Abs format (unit mm)*
G04 Created by KiCad (PCBNEW (6.0.8)) date 2022-10-20 16:10:57*
%MOMM*%
%LPD*%
G01*
G04 APERTURE LIST*
G04 #@! TA.AperFunction,ComponentPad*
%ADD10O,5.100000X3.000000*%
G04 #@! TD*
G04 #@! TA.AperFunction,ComponentPad*
%ADD11C,1.308000*%
G04 #@! TD*
G04 #@! TA.AperFunction,ComponentPad*
%ADD12C,1.258000*%
G04 #@! TD*
G04 #@! TA.AperFunction,ComponentPad*
%ADD13C,1.208000*%
G04 #@! TD*
G04 #@! TA.AperFunction,ComponentPad*
%ADD14C,1.524000*%
G04 #@! TD*
G04 #@! TA.AperFunction,ComponentPad*
%ADD15O,3.000000X5.100000*%
G04 #@! TD*
G04 #@! TA.AperFunction,ViaPad*
%ADD16C,0.800000*%
G04 #@! TD*
G04 #@! TA.AperFunction,Conductor*
%ADD17C,0.254000*%
G04 #@! TD*
G04 #@! TA.AperFunction,Conductor*
%ADD18C,0.250000*%
G04 #@! TD*
G04 APERTURE END LIST*
D10*
X76708000Y-74232800D03*
X84582000Y-74232800D03*
D11*
X65278000Y-63246000D03*
X67818000Y-63246000D03*
X70358000Y-63246000D03*
X72898000Y-63246000D03*
X98298000Y-63246000D03*
X67818000Y-48006000D03*
X108458000Y-58166000D03*
X75438000Y-63246000D03*
X77978000Y-63246000D03*
D12*
X69088000Y-60196000D03*
D11*
X80518000Y-63246000D03*
X83058000Y-63246000D03*
X85598000Y-63246000D03*
X88138000Y-63246000D03*
X90678000Y-63246000D03*
X93218000Y-63246000D03*
X95758000Y-63246000D03*
X95758000Y-48006000D03*
X93218000Y-48006000D03*
X90678000Y-48006000D03*
X88138000Y-48006000D03*
X85598000Y-48006000D03*
X83058000Y-48006000D03*
X80518000Y-48006000D03*
X77978000Y-48006000D03*
X75438000Y-48006000D03*
X72898000Y-48006000D03*
X70358000Y-48006000D03*
X100838000Y-63246000D03*
X103378000Y-63246000D03*
X105918000Y-63246000D03*
X108458000Y-63246000D03*
X110998000Y-63246000D03*
X113538000Y-63246000D03*
X116078000Y-63246000D03*
X118618000Y-63246000D03*
X121158000Y-63246000D03*
X121158000Y-48006000D03*
X118618000Y-48006000D03*
X116078000Y-48006000D03*
X113538000Y-48006000D03*
X110998000Y-48006000D03*
X108458000Y-48006000D03*
X105918000Y-48006000D03*
X103378000Y-48006000D03*
X100838000Y-48006000D03*
D12*
X74168000Y-60196000D03*
X71628000Y-60196000D03*
D11*
X62738000Y-63246000D03*
X98298000Y-48006000D03*
X65278000Y-48006000D03*
X108458000Y-55626000D03*
D13*
X77708000Y-52456000D03*
X75708000Y-52456000D03*
D11*
X108458000Y-50546000D03*
X108458000Y-53086000D03*
D13*
X75708000Y-50456000D03*
X77708000Y-50456000D03*
X77708000Y-54456000D03*
X75708000Y-54456000D03*
D12*
X76708000Y-60196000D03*
X79248000Y-60196000D03*
D11*
X108458000Y-60706000D03*
X62738000Y-48006000D03*
X65278000Y-50546000D03*
D10*
X59478000Y-74288600D03*
X67352000Y-74288600D03*
D14*
X72136000Y-85344000D03*
X72136000Y-82804000D03*
X72136000Y-80264000D03*
D15*
X111760000Y-74930000D03*
X111760000Y-82804000D03*
D16*
X63500000Y-50800000D03*
X101600000Y-88900000D03*
X99314000Y-74676000D03*
X114300000Y-50800000D03*
X100330000Y-75692000D03*
X103886000Y-72898000D03*
X99314000Y-75692000D03*
X100330000Y-82550000D03*
X114300000Y-60960000D03*
X104902000Y-80518000D03*
X88900000Y-60960000D03*
X104902000Y-73914000D03*
X99314000Y-80518000D03*
X103886000Y-82550000D03*
X99314000Y-72644000D03*
X103886000Y-74930000D03*
X126746000Y-60960000D03*
X58420000Y-50800000D03*
X104902000Y-72898000D03*
X103886000Y-83566000D03*
X99314000Y-82550000D03*
X127000000Y-50800000D03*
X103886000Y-81534000D03*
X88900000Y-50800000D03*
X99314000Y-81534000D03*
X90932000Y-78740000D03*
X104902000Y-83566000D03*
X104902000Y-81534000D03*
X100330000Y-80518000D03*
X100330000Y-83566000D03*
X73660000Y-50800000D03*
X58420000Y-63500000D03*
X58420000Y-88900000D03*
X100330000Y-74676000D03*
X76200000Y-88900000D03*
X104902000Y-75946000D03*
X100330000Y-73660000D03*
X100330000Y-72644000D03*
X103886000Y-73914000D03*
X114300000Y-88900000D03*
X99314000Y-83566000D03*
X63500000Y-88900000D03*
X87376000Y-79756000D03*
X103886000Y-80518000D03*
X100330000Y-81534000D03*
X104902000Y-74930000D03*
X104902000Y-82550000D03*
X101600000Y-50800000D03*
X73660000Y-58420000D03*
X103886000Y-75946000D03*
X88900000Y-88900000D03*
X99314000Y-73660000D03*
X101600000Y-60960000D03*
X89148286Y-75432286D03*
X88968500Y-77724000D03*
X81280000Y-77724000D03*
D17*
X88968500Y-77724000D02*
X88968500Y-75612072D01*
X88968500Y-75612072D02*
X89148286Y-75432286D01*
D18*
X81280000Y-77724000D02*
X81280000Y-77673800D01*
X81280000Y-77673800D02*
X84709000Y-74244800D01*
G04 #@! TA.AperFunction,Conductor*
G36*
X93266422Y-46745703D02*
G01*
X127216510Y-46754542D01*
X127241054Y-46756962D01*
X127241829Y-46757116D01*
X127254000Y-46759537D01*
X127266172Y-46757116D01*
X127278580Y-46757116D01*
X127278580Y-46757436D01*
X127289456Y-46756696D01*
X127301690Y-46757436D01*
X127521882Y-46770755D01*
X127536986Y-46772589D01*
X127793463Y-46819589D01*
X127808237Y-46823230D01*
X128057186Y-46900805D01*
X128071407Y-46906199D01*
X128309186Y-47013214D01*
X128322658Y-47020284D01*
X128545803Y-47155177D01*
X128558325Y-47163820D01*
X128763586Y-47324630D01*
X128774974Y-47334720D01*
X128959353Y-47519095D01*
X128969441Y-47530481D01*
X129120814Y-47723688D01*
X129130253Y-47735736D01*
X129138894Y-47748253D01*
X129179893Y-47816072D01*
X129273797Y-47971405D01*
X129280868Y-47984877D01*
X129387886Y-48222653D01*
X129393281Y-48236880D01*
X129470857Y-48485816D01*
X129474499Y-48500589D01*
X129521506Y-48757072D01*
X129523340Y-48772176D01*
X129537392Y-49004408D01*
X129536640Y-49015471D01*
X129536935Y-49015471D01*
X129536935Y-49027883D01*
X129534514Y-49040056D01*
X129537063Y-49052870D01*
X129539484Y-49077497D01*
X129530238Y-70012762D01*
X129521465Y-89878497D01*
X129519045Y-89903018D01*
X129516463Y-89916000D01*
X129518884Y-89928172D01*
X129518884Y-89940580D01*
X129518564Y-89940580D01*
X129519304Y-89951456D01*
X129505245Y-90183882D01*
X129503411Y-90198986D01*
X129456411Y-90455463D01*
X129452770Y-90470236D01*
X129375199Y-90719175D01*
X129375197Y-90719180D01*
X129369801Y-90733407D01*
X129262786Y-90971186D01*
X129255716Y-90984658D01*
X129120823Y-91207803D01*
X129112180Y-91220325D01*
X128951370Y-91425586D01*
X128941280Y-91436974D01*
X128756905Y-91621353D01*
X128745519Y-91631441D01*
X128540260Y-91792256D01*
X128527747Y-91800894D01*
X128416169Y-91868347D01*
X128304595Y-91935797D01*
X128291124Y-91942868D01*
X128053425Y-92049851D01*
X128053347Y-92049886D01*
X128039120Y-92055281D01*
X127790184Y-92132857D01*
X127775411Y-92136499D01*
X127518928Y-92183506D01*
X127503824Y-92185340D01*
X127271592Y-92199392D01*
X127260526Y-92198640D01*
X127260526Y-92198935D01*
X127248115Y-92198935D01*
X127235944Y-92196514D01*
X127223774Y-92198935D01*
X127223773Y-92198935D01*
X127223049Y-92199079D01*
X127198466Y-92201500D01*
X57949476Y-92201500D01*
X57924897Y-92199079D01*
X57912000Y-92196514D01*
X57899828Y-92198935D01*
X57887420Y-92198935D01*
X57887420Y-92198615D01*
X57876544Y-92199355D01*
X57864311Y-92198615D01*
X57829576Y-92196514D01*
X57644120Y-92185296D01*
X57629016Y-92183462D01*
X57372542Y-92136462D01*
X57357769Y-92132821D01*
X57266146Y-92104270D01*
X57108820Y-92055245D01*
X57094602Y-92049853D01*
X56856818Y-91942835D01*
X56843362Y-91935773D01*
X56620211Y-91800873D01*
X56607690Y-91792231D01*
X56402427Y-91631417D01*
X56391039Y-91621327D01*
X56206673Y-91436961D01*
X56196583Y-91425573D01*
X56035769Y-91220310D01*
X56027126Y-91207788D01*
X55892239Y-90984658D01*
X55892227Y-90984638D01*
X55885165Y-90971182D01*
X55778147Y-90733398D01*
X55772753Y-90719175D01*
X55695179Y-90470231D01*
X55691538Y-90455458D01*
X55644538Y-90198984D01*
X55642704Y-90183880D01*
X55628645Y-89951456D01*
X55629385Y-89940580D01*
X55629065Y-89940580D01*
X55629065Y-89928172D01*
X55631486Y-89916000D01*
X55628921Y-89903103D01*
X55626500Y-89878524D01*
X55626500Y-85329739D01*
X71114682Y-85329739D01*
X71131362Y-85528386D01*
X71186310Y-85720009D01*
X71277430Y-85897311D01*
X71401253Y-86053537D01*
X71553063Y-86182737D01*
X71558441Y-86185743D01*
X71558443Y-86185744D01*
X71600397Y-86209191D01*
X71727076Y-86279989D01*
X71732935Y-86281893D01*
X71732938Y-86281894D01*
X71768701Y-86293514D01*
X71916665Y-86341591D01*
X71922775Y-86342320D01*
X71922777Y-86342320D01*
X71990314Y-86350373D01*
X72114609Y-86365194D01*
X72120744Y-86364722D01*
X72120746Y-86364722D01*
X72307226Y-86350373D01*
X72307231Y-86350372D01*
X72313367Y-86349900D01*
X72319297Y-86348244D01*
X72319299Y-86348244D01*
X72409369Y-86323096D01*
X72505370Y-86296292D01*
X72510870Y-86293514D01*
X72677802Y-86209191D01*
X72677804Y-86209190D01*
X72683303Y-86206412D01*
X72840390Y-86083682D01*
X72862962Y-86057532D01*
X72966618Y-85937446D01*
X72966619Y-85937444D01*
X72970647Y-85932778D01*
X73069112Y-85759448D01*
X73132035Y-85570294D01*
X73142772Y-85485306D01*
X73156578Y-85376023D01*
X73156579Y-85376013D01*
X73157020Y-85372520D01*
X73157418Y-85344000D01*
X73137965Y-85145606D01*
X73136184Y-85139707D01*
X73136183Y-85139702D01*
X73082129Y-84960667D01*
X73080348Y-84954768D01*
X73033555Y-84866762D01*
X72989655Y-84784198D01*
X72989653Y-84784195D01*
X72986761Y-84778756D01*
X72982871Y-84773986D01*
X72982868Y-84773982D01*
X72864663Y-84629049D01*
X72864660Y-84629046D01*
X72860768Y-84624274D01*
X72839998Y-84607091D01*
X72711919Y-84501135D01*
X72707170Y-84497206D01*
X72531815Y-84402392D01*
X72341385Y-84343444D01*
X72335260Y-84342800D01*
X72335259Y-84342800D01*
X72149260Y-84323251D01*
X72149258Y-84323251D01*
X72143131Y-84322607D01*
X72020252Y-84333790D01*
X71950746Y-84340115D01*
X71950745Y-84340115D01*
X71944605Y-84340674D01*
X71938691Y-84342415D01*
X71938689Y-84342415D01*
X71865867Y-84363848D01*
X71753370Y-84396958D01*
X71576709Y-84489314D01*
X71571909Y-84493174D01*
X71571908Y-84493174D01*
X71566893Y-84497206D01*
X71421351Y-84614225D01*
X71293214Y-84766933D01*
X71197179Y-84941621D01*
X71136902Y-85131635D01*
X71114682Y-85329739D01*
X55626500Y-85329739D01*
X55626500Y-83920206D01*
X110005500Y-83920206D01*
X110005673Y-83922531D01*
X110005673Y-83922537D01*
X110007189Y-83942928D01*
X110019906Y-84114059D01*
X110077458Y-84368405D01*
X110171973Y-84611450D01*
X110174290Y-84615504D01*
X110174292Y-84615508D01*
X110193121Y-84648451D01*
X110301375Y-84837855D01*
X110462820Y-85042647D01*
X110652761Y-85221326D01*
X110867027Y-85369968D01*
X110871217Y-85372034D01*
X110871220Y-85372036D01*
X111096722Y-85483241D01*
X111096725Y-85483242D01*
X111100910Y-85485306D01*
X111349272Y-85564807D01*
X111353879Y-85565557D01*
X111353882Y-85565558D01*
X111418895Y-85576146D01*
X111606656Y-85606725D01*
X111733125Y-85608380D01*
X111862733Y-85610077D01*
X111862736Y-85610077D01*
X111867410Y-85610138D01*
X112125804Y-85574972D01*
X112158103Y-85565558D01*
X112265324Y-85534306D01*
X112376162Y-85502000D01*
X112612984Y-85392823D01*
X112616889Y-85390263D01*
X112616894Y-85390260D01*
X112827154Y-85252408D01*
X112827159Y-85252404D01*
X112831067Y-85249842D01*
X112963507Y-85131635D01*
X113022129Y-85079313D01*
X113022131Y-85079311D01*
X113025621Y-85076196D01*
X113192371Y-84875700D01*
X113327655Y-84652760D01*
X113391237Y-84501135D01*
X113426691Y-84416587D01*
X113426693Y-84416582D01*
X113428500Y-84412272D01*
X113446144Y-84342800D01*
X113491537Y-84164059D01*
X113492690Y-84159520D01*
X113514500Y-83942928D01*
X113514500Y-81687794D01*
X113513046Y-81668226D01*
X113500440Y-81498593D01*
X113500439Y-81498589D01*
X113500094Y-81493941D01*
X113442542Y-81239595D01*
X113348027Y-80996550D01*
X113337158Y-80977532D01*
X113248342Y-80822139D01*
X113218625Y-80770145D01*
X113057180Y-80565353D01*
X112867239Y-80386674D01*
X112669849Y-80249739D01*
X112656815Y-80240697D01*
X112656812Y-80240695D01*
X112652973Y-80238032D01*
X112648783Y-80235966D01*
X112648780Y-80235964D01*
X112423278Y-80124759D01*
X112423275Y-80124758D01*
X112419090Y-80122694D01*
X112170728Y-80043193D01*
X112166121Y-80042443D01*
X112166118Y-80042442D01*
X111917955Y-80002026D01*
X111917956Y-80002026D01*
X111913344Y-80001275D01*
X111786875Y-79999620D01*
X111657267Y-79997923D01*
X111657264Y-79997923D01*
X111652590Y-79997862D01*
X111394196Y-80033028D01*
X111389710Y-80034336D01*
X111389708Y-80034336D01*
X111359321Y-80043193D01*
X111143838Y-80106000D01*
X110907016Y-80215177D01*
X110903111Y-80217737D01*
X110903106Y-80217740D01*
X110692846Y-80355592D01*
X110692841Y-80355596D01*
X110688933Y-80358158D01*
X110494379Y-80531804D01*
X110327629Y-80732300D01*
X110192345Y-80955240D01*
X110190538Y-80959548D01*
X110190538Y-80959549D01*
X110120567Y-81126412D01*
X110091500Y-81195728D01*
X110090349Y-81200260D01*
X110090348Y-81200263D01*
X110072663Y-81269900D01*
X110027310Y-81448480D01*
X110005500Y-81665072D01*
X110005500Y-83920206D01*
X55626500Y-83920206D01*
X55626500Y-80249739D01*
X71114682Y-80249739D01*
X71131362Y-80448386D01*
X71186310Y-80640009D01*
X71189125Y-80645486D01*
X71251303Y-80766472D01*
X71277430Y-80817311D01*
X71401253Y-80973537D01*
X71553063Y-81102737D01*
X71558441Y-81105743D01*
X71558443Y-81105744D01*
X71600397Y-81129191D01*
X71727076Y-81199989D01*
X71732935Y-81201893D01*
X71732938Y-81201894D01*
X71768701Y-81213514D01*
X71916665Y-81261591D01*
X71922775Y-81262320D01*
X71922777Y-81262320D01*
X71990314Y-81270373D01*
X72114609Y-81285194D01*
X72120744Y-81284722D01*
X72120746Y-81284722D01*
X72307226Y-81270373D01*
X72307231Y-81270372D01*
X72313367Y-81269900D01*
X72319297Y-81268244D01*
X72319299Y-81268244D01*
X72437502Y-81235241D01*
X72505370Y-81216292D01*
X72510870Y-81213514D01*
X72677802Y-81129191D01*
X72677804Y-81129190D01*
X72683303Y-81126412D01*
X72840390Y-81003682D01*
X72862962Y-80977532D01*
X72966618Y-80857446D01*
X72966619Y-80857444D01*
X72970647Y-80852778D01*
X73069112Y-80679448D01*
X73132035Y-80490294D01*
X73138105Y-80442247D01*
X73156578Y-80296023D01*
X73156579Y-80296013D01*
X73157020Y-80292520D01*
X73157418Y-80264000D01*
X73137965Y-80065606D01*
X73136184Y-80059707D01*
X73136183Y-80059702D01*
X73082129Y-79880667D01*
X73080348Y-79874768D01*
X72986761Y-79698756D01*
X72982871Y-79693986D01*
X72982868Y-79693982D01*
X72864663Y-79549049D01*
X72864660Y-79549046D01*
X72860768Y-79544274D01*
X72707170Y-79417206D01*
X72531815Y-79322392D01*
X72341385Y-79263444D01*
X72335260Y-79262800D01*
X72335259Y-79262800D01*
X72149260Y-79243251D01*
X72149258Y-79243251D01*
X72143131Y-79242607D01*
X72020252Y-79253790D01*
X71950746Y-79260115D01*
X71950745Y-79260115D01*
X71944605Y-79260674D01*
X71938691Y-79262415D01*
X71938689Y-79262415D01*
X71808539Y-79300721D01*
X71753370Y-79316958D01*
X71576709Y-79409314D01*
X71571909Y-79413174D01*
X71571908Y-79413174D01*
X71566893Y-79417206D01*
X71421351Y-79534225D01*
X71293214Y-79686933D01*
X71197179Y-79861621D01*
X71136902Y-80051635D01*
X71114682Y-80249739D01*
X55626500Y-80249739D01*
X55626500Y-77717096D01*
X80620729Y-77717096D01*
X80638113Y-77874553D01*
X80692553Y-78023319D01*
X80780908Y-78154805D01*
X80786527Y-78159918D01*
X80786528Y-78159919D01*
X80797903Y-78170269D01*
X80898076Y-78261419D01*
X81037293Y-78337008D01*
X81190522Y-78377207D01*
X81274477Y-78378526D01*
X81341319Y-78379576D01*
X81341322Y-78379576D01*
X81348916Y-78379695D01*
X81503332Y-78344329D01*
X81573742Y-78308917D01*
X81638072Y-78276563D01*
X81638075Y-78276561D01*
X81644855Y-78273151D01*
X81650626Y-78268222D01*
X81650629Y-78268220D01*
X81759536Y-78175204D01*
X81759536Y-78175203D01*
X81765314Y-78170269D01*
X81857755Y-78041624D01*
X81916842Y-77894641D01*
X81939162Y-77737807D01*
X81939307Y-77724000D01*
X81938472Y-77717096D01*
X88309229Y-77717096D01*
X88326613Y-77874553D01*
X88381053Y-78023319D01*
X88469408Y-78154805D01*
X88475027Y-78159918D01*
X88475028Y-78159919D01*
X88486403Y-78170269D01*
X88586576Y-78261419D01*
X88725793Y-78337008D01*
X88879022Y-78377207D01*
X88962977Y-78378526D01*
X89029819Y-78379576D01*
X89029822Y-78379576D01*
X89037416Y-78379695D01*
X89191832Y-78344329D01*
X89262242Y-78308917D01*
X89326572Y-78276563D01*
X89326575Y-78276561D01*
X89333355Y-78273151D01*
X89339126Y-78268222D01*
X89339129Y-78268220D01*
X89448036Y-78175204D01*
X89448036Y-78175203D01*
X89453814Y-78170269D01*
X89546255Y-78041624D01*
X89605342Y-77894641D01*
X89627662Y-77737807D01*
X89627807Y-77724000D01*
X89608776Y-77566733D01*
X89552780Y-77418546D01*
X89525194Y-77378408D01*
X89467355Y-77294251D01*
X89467354Y-77294249D01*
X89463053Y-77287992D01*
X89392181Y-77224847D01*
X89354626Y-77164598D01*
X89350000Y-77130771D01*
X89350000Y-76141155D01*
X89370002Y-76073034D01*
X89399813Y-76046206D01*
X110005500Y-76046206D01*
X110005673Y-76048531D01*
X110005673Y-76048537D01*
X110007494Y-76073034D01*
X110019906Y-76240059D01*
X110077458Y-76494405D01*
X110171973Y-76737450D01*
X110301375Y-76963855D01*
X110462820Y-77168647D01*
X110652761Y-77347326D01*
X110867027Y-77495968D01*
X110871217Y-77498034D01*
X110871220Y-77498036D01*
X111096722Y-77609241D01*
X111096725Y-77609242D01*
X111100910Y-77611306D01*
X111349272Y-77690807D01*
X111353879Y-77691557D01*
X111353882Y-77691558D01*
X111464449Y-77709565D01*
X111606656Y-77732725D01*
X111733125Y-77734380D01*
X111862733Y-77736077D01*
X111862736Y-77736077D01*
X111867410Y-77736138D01*
X112125804Y-77700972D01*
X112158103Y-77691558D01*
X112195238Y-77680734D01*
X112376162Y-77628000D01*
X112612984Y-77518823D01*
X112616889Y-77516263D01*
X112616894Y-77516260D01*
X112827154Y-77378408D01*
X112827159Y-77378404D01*
X112831067Y-77375842D01*
X113025621Y-77202196D01*
X113192371Y-77001700D01*
X113327655Y-76778760D01*
X113428500Y-76538272D01*
X113492690Y-76285520D01*
X113514500Y-76068928D01*
X113514500Y-73813794D01*
X113513046Y-73794226D01*
X113500440Y-73624593D01*
X113500439Y-73624589D01*
X113500094Y-73619941D01*
X113442542Y-73365595D01*
X113432522Y-73339827D01*
X113349722Y-73126909D01*
X113348027Y-73122550D01*
X113218625Y-72896145D01*
X113057180Y-72691353D01*
X112867239Y-72512674D01*
X112652973Y-72364032D01*
X112648783Y-72361966D01*
X112648780Y-72361964D01*
X112423278Y-72250759D01*
X112423275Y-72250758D01*
X112419090Y-72248694D01*
X112170728Y-72169193D01*
X112166121Y-72168443D01*
X112166118Y-72168442D01*
X111917955Y-72128026D01*
X111917956Y-72128026D01*
X111913344Y-72127275D01*
X111786875Y-72125620D01*
X111657267Y-72123923D01*
X111657264Y-72123923D01*
X111652590Y-72123862D01*
X111394196Y-72159028D01*
X111389710Y-72160336D01*
X111389708Y-72160336D01*
X111359321Y-72169193D01*
X111143838Y-72232000D01*
X110907016Y-72341177D01*
X110903111Y-72343737D01*
X110903106Y-72343740D01*
X110692846Y-72481592D01*
X110692841Y-72481596D01*
X110688933Y-72484158D01*
X110632978Y-72534100D01*
X110552356Y-72606058D01*
X110494379Y-72657804D01*
X110327629Y-72858300D01*
X110192345Y-73081240D01*
X110190538Y-73085548D01*
X110190538Y-73085549D01*
X110133552Y-73221446D01*
X110091500Y-73321728D01*
X110090349Y-73326260D01*
X110090348Y-73326263D01*
X110061498Y-73439862D01*
X110027310Y-73574480D01*
X110005500Y-73791072D01*
X110005500Y-76046206D01*
X89399813Y-76046206D01*
X89419387Y-76028590D01*
X89506355Y-75984851D01*
X89506361Y-75984847D01*
X89513141Y-75981437D01*
X89518912Y-75976508D01*
X89518915Y-75976506D01*
X89627822Y-75883490D01*
X89627822Y-75883489D01*
X89633600Y-75878555D01*
X89726041Y-75749910D01*
X89785128Y-75602927D01*
X89807448Y-75446093D01*
X89807593Y-75432286D01*
X89788562Y-75275019D01*
X89732566Y-75126832D01*
X89642839Y-74996278D01*
X89524561Y-74890897D01*
X89517175Y-74886986D01*
X89391274Y-74820325D01*
X89391275Y-74820325D01*
X89384560Y-74816770D01*
X89230919Y-74778178D01*
X89223320Y-74778138D01*
X89223319Y-74778138D01*
X89157467Y-74777793D01*
X89072507Y-74777348D01*
X89065127Y-74779120D01*
X89065125Y-74779120D01*
X88925849Y-74812557D01*
X88925846Y-74812558D01*
X88918470Y-74814329D01*
X88777700Y-74886986D01*
X88658325Y-74991124D01*
X88567236Y-75120730D01*
X88509692Y-75268323D01*
X88508700Y-75275856D01*
X88508700Y-75275857D01*
X88492456Y-75399247D01*
X88489015Y-75425382D01*
X88496693Y-75494929D01*
X88500188Y-75526578D01*
X88506399Y-75582839D01*
X88560839Y-75731605D01*
X88565076Y-75737910D01*
X88565580Y-75738660D01*
X88565761Y-75739255D01*
X88568524Y-75744677D01*
X88567563Y-75745167D01*
X88587000Y-75808938D01*
X88587000Y-77130933D01*
X88566998Y-77199054D01*
X88543830Y-77225881D01*
X88478539Y-77282838D01*
X88387450Y-77412444D01*
X88384690Y-77419524D01*
X88345212Y-77520780D01*
X88329906Y-77560037D01*
X88328914Y-77567570D01*
X88328914Y-77567571D01*
X88311269Y-77701602D01*
X88309229Y-77717096D01*
X81938472Y-77717096D01*
X81928018Y-77630715D01*
X81939691Y-77560686D01*
X81964010Y-77526484D01*
X83466289Y-76024205D01*
X83528601Y-75990179D01*
X83555384Y-75987300D01*
X85698206Y-75987300D01*
X85700531Y-75987127D01*
X85700537Y-75987127D01*
X85887407Y-75973240D01*
X85887411Y-75973239D01*
X85892059Y-75972894D01*
X86146405Y-75915342D01*
X86228313Y-75883490D01*
X86385091Y-75822522D01*
X86389450Y-75820827D01*
X86393504Y-75818510D01*
X86393508Y-75818508D01*
X86518226Y-75747225D01*
X86615855Y-75691425D01*
X86820647Y-75529980D01*
X86999326Y-75340039D01*
X87134287Y-75145494D01*
X87145303Y-75129615D01*
X87145305Y-75129612D01*
X87147968Y-75125773D01*
X87150532Y-75120574D01*
X87261241Y-74896078D01*
X87261242Y-74896075D01*
X87263306Y-74891890D01*
X87278488Y-74844463D01*
X87299971Y-74777348D01*
X87342807Y-74643528D01*
X87349393Y-74603092D01*
X87376820Y-74434682D01*
X87384725Y-74386144D01*
X87386380Y-74259675D01*
X87388077Y-74130067D01*
X87388077Y-74130064D01*
X87388138Y-74125390D01*
X87352972Y-73866996D01*
X87280000Y-73616638D01*
X87170823Y-73379816D01*
X87168260Y-73375906D01*
X87030408Y-73165646D01*
X87030404Y-73165641D01*
X87027842Y-73161733D01*
X86907116Y-73026471D01*
X86857313Y-72970671D01*
X86857311Y-72970669D01*
X86854196Y-72967179D01*
X86653700Y-72800429D01*
X86430760Y-72665145D01*
X86426451Y-72663338D01*
X86194587Y-72566109D01*
X86194582Y-72566107D01*
X86190272Y-72564300D01*
X86185740Y-72563149D01*
X86185737Y-72563148D01*
X85999615Y-72515880D01*
X85937520Y-72500110D01*
X85720928Y-72478300D01*
X83465794Y-72478300D01*
X83463469Y-72478473D01*
X83463463Y-72478473D01*
X83276593Y-72492360D01*
X83276589Y-72492361D01*
X83271941Y-72492706D01*
X83017595Y-72550258D01*
X83013243Y-72551950D01*
X83013241Y-72551951D01*
X83000096Y-72557063D01*
X82774550Y-72644773D01*
X82770496Y-72647090D01*
X82770492Y-72647092D01*
X82734669Y-72667567D01*
X82548145Y-72774175D01*
X82343353Y-72935620D01*
X82164674Y-73125561D01*
X82103293Y-73214041D01*
X82025442Y-73326263D01*
X82016032Y-73339827D01*
X82013966Y-73344017D01*
X82013964Y-73344020D01*
X81988515Y-73395627D01*
X81900694Y-73573710D01*
X81899272Y-73578153D01*
X81899271Y-73578155D01*
X81884406Y-73624593D01*
X81821193Y-73822072D01*
X81820443Y-73826679D01*
X81820442Y-73826682D01*
X81805520Y-73918308D01*
X81779275Y-74079456D01*
X81775862Y-74340210D01*
X81811028Y-74598604D01*
X81884000Y-74848962D01*
X81993177Y-75085784D01*
X81995737Y-75089689D01*
X81995740Y-75089694D01*
X82133592Y-75299954D01*
X82133596Y-75299959D01*
X82136158Y-75303867D01*
X82189078Y-75363159D01*
X82266745Y-75450177D01*
X82309804Y-75498421D01*
X82510300Y-75665171D01*
X82514291Y-75667593D01*
X82514301Y-75667600D01*
X82523422Y-75673134D01*
X82571285Y-75725571D01*
X82583200Y-75795561D01*
X82555384Y-75860882D01*
X82547156Y-75869950D01*
X81384473Y-77032633D01*
X81322161Y-77066659D01*
X81294718Y-77069536D01*
X81239017Y-77069244D01*
X81204221Y-77069062D01*
X81196841Y-77070834D01*
X81196839Y-77070834D01*
X81057563Y-77104271D01*
X81057560Y-77104272D01*
X81050184Y-77106043D01*
X80909414Y-77178700D01*
X80790039Y-77282838D01*
X80698950Y-77412444D01*
X80696190Y-77419524D01*
X80656712Y-77520780D01*
X80641406Y-77560037D01*
X80640414Y-77567570D01*
X80640414Y-77567571D01*
X80622769Y-77701602D01*
X80620729Y-77717096D01*
X55626500Y-77717096D01*
X55626500Y-74396010D01*
X64545862Y-74396010D01*
X64581028Y-74654404D01*
X64654000Y-74904762D01*
X64763177Y-75141584D01*
X64765737Y-75145489D01*
X64765740Y-75145494D01*
X64903592Y-75355754D01*
X64903596Y-75355759D01*
X64906158Y-75359667D01*
X64974663Y-75436420D01*
X65055132Y-75526578D01*
X65079804Y-75554221D01*
X65280300Y-75720971D01*
X65503240Y-75856255D01*
X65507548Y-75858062D01*
X65507549Y-75858062D01*
X65739413Y-75955291D01*
X65739418Y-75955293D01*
X65743728Y-75957100D01*
X65748260Y-75958251D01*
X65748263Y-75958252D01*
X65807280Y-75973240D01*
X65996480Y-76021290D01*
X66213072Y-76043100D01*
X68468206Y-76043100D01*
X68470531Y-76042927D01*
X68470537Y-76042927D01*
X68657407Y-76029040D01*
X68657411Y-76029039D01*
X68662059Y-76028694D01*
X68916405Y-75971142D01*
X69159450Y-75876627D01*
X69163504Y-75874310D01*
X69163508Y-75874308D01*
X69301285Y-75795561D01*
X69385855Y-75747225D01*
X69590647Y-75585780D01*
X69769326Y-75395839D01*
X69917968Y-75181573D01*
X69935760Y-75145494D01*
X70031241Y-74951878D01*
X70031242Y-74951875D01*
X70033306Y-74947690D01*
X70048488Y-74900263D01*
X70076562Y-74812557D01*
X70112807Y-74699328D01*
X70119393Y-74658892D01*
X70153974Y-74446555D01*
X70154725Y-74441944D01*
X70158138Y-74181190D01*
X70122972Y-73922796D01*
X70050000Y-73672438D01*
X69940823Y-73435616D01*
X69938260Y-73431706D01*
X69800408Y-73221446D01*
X69800404Y-73221441D01*
X69797842Y-73217533D01*
X69624196Y-73022979D01*
X69423700Y-72856229D01*
X69200760Y-72720945D01*
X69196451Y-72719138D01*
X68964587Y-72621909D01*
X68964582Y-72621907D01*
X68960272Y-72620100D01*
X68955740Y-72618949D01*
X68955737Y-72618948D01*
X68830235Y-72587075D01*
X68707520Y-72555910D01*
X68490928Y-72534100D01*
X66235794Y-72534100D01*
X66233469Y-72534273D01*
X66233463Y-72534273D01*
X66046593Y-72548160D01*
X66046589Y-72548161D01*
X66041941Y-72548506D01*
X65787595Y-72606058D01*
X65783243Y-72607750D01*
X65783241Y-72607751D01*
X65682076Y-72647092D01*
X65544550Y-72700573D01*
X65540496Y-72702890D01*
X65540492Y-72702892D01*
X65504669Y-72723367D01*
X65318145Y-72829975D01*
X65113353Y-72991420D01*
X64934674Y-73181361D01*
X64840291Y-73317413D01*
X64797001Y-73379816D01*
X64786032Y-73395627D01*
X64783966Y-73399817D01*
X64783964Y-73399820D01*
X64677042Y-73616638D01*
X64670694Y-73629510D01*
X64669272Y-73633953D01*
X64669271Y-73633955D01*
X64638977Y-73728593D01*
X64591193Y-73877872D01*
X64590443Y-73882479D01*
X64590442Y-73882482D01*
X64583122Y-73927427D01*
X64549275Y-74135256D01*
X64548674Y-74181190D01*
X64546654Y-74335533D01*
X64545862Y-74396010D01*
X55626500Y-74396010D01*
X55626500Y-63246000D01*
X64364496Y-63246000D01*
X64384458Y-63435928D01*
X64443473Y-63617556D01*
X64538960Y-63782944D01*
X64666747Y-63924866D01*
X64821248Y-64037118D01*
X64827276Y-64039802D01*
X64827278Y-64039803D01*
X64989681Y-64112109D01*
X64995712Y-64114794D01*
X65089113Y-64134647D01*
X65176056Y-64153128D01*
X65176061Y-64153128D01*
X65182513Y-64154500D01*
X65373487Y-64154500D01*
X65379939Y-64153128D01*
X65379944Y-64153128D01*
X65466887Y-64134647D01*
X65560288Y-64114794D01*
X65566319Y-64112109D01*
X65728722Y-64039803D01*
X65728724Y-64039802D01*
X65734752Y-64037118D01*
X65889253Y-63924866D01*
X66017040Y-63782944D01*
X66112527Y-63617556D01*
X66171542Y-63435928D01*
X66191504Y-63246000D01*
X66904496Y-63246000D01*
X66924458Y-63435928D01*
X66983473Y-63617556D01*
X67078960Y-63782944D01*
X67206747Y-63924866D01*
X67361248Y-64037118D01*
X67367276Y-64039802D01*
X67367278Y-64039803D01*
X67529681Y-64112109D01*
X67535712Y-64114794D01*
X67629113Y-64134647D01*
X67716056Y-64153128D01*
X67716061Y-64153128D01*
X67722513Y-64154500D01*
X67913487Y-64154500D01*
X67919939Y-64153128D01*
X67919944Y-64153128D01*
X68006887Y-64134647D01*
X68100288Y-64114794D01*
X68106319Y-64112109D01*
X68268722Y-64039803D01*
X68268724Y-64039802D01*
X68274752Y-64037118D01*
X68429253Y-63924866D01*
X68557040Y-63782944D01*
X68652527Y-63617556D01*
X68711542Y-63435928D01*
X68731504Y-63246000D01*
X69444496Y-63246000D01*
X69464458Y-63435928D01*
X69523473Y-63617556D01*
X69618960Y-63782944D01*
X69746747Y-63924866D01*
X69901248Y-64037118D01*
X69907276Y-64039802D01*
X69907278Y-64039803D01*
X70069681Y-64112109D01*
X70075712Y-64114794D01*
X70169113Y-64134647D01*
X70256056Y-64153128D01*
X70256061Y-64153128D01*
X70262513Y-64154500D01*
X70453487Y-64154500D01*
X70459939Y-64153128D01*
X70459944Y-64153128D01*
X70546887Y-64134647D01*
X70640288Y-64114794D01*
X70646319Y-64112109D01*
X70808722Y-64039803D01*
X70808724Y-64039802D01*
X70814752Y-64037118D01*
X70969253Y-63924866D01*
X71097040Y-63782944D01*
X71192527Y-63617556D01*
X71251542Y-63435928D01*
X71271504Y-63246000D01*
X71984496Y-63246000D01*
X72004458Y-63435928D01*
X72063473Y-63617556D01*
X72158960Y-63782944D01*
X72286747Y-63924866D01*
X72441248Y-64037118D01*
X72447276Y-64039802D01*
X72447278Y-64039803D01*
X72609681Y-64112109D01*
X72615712Y-64114794D01*
X72709113Y-64134647D01*
X72796056Y-64153128D01*
X72796061Y-64153128D01*
X72802513Y-64154500D01*
X72993487Y-64154500D01*
X72999939Y-64153128D01*
X72999944Y-64153128D01*
X73086887Y-64134647D01*
X73180288Y-64114794D01*
X73186319Y-64112109D01*
X73348722Y-64039803D01*
X73348724Y-64039802D01*
X73354752Y-64037118D01*
X73509253Y-63924866D01*
X73637040Y-63782944D01*
X73732527Y-63617556D01*
X73791542Y-63435928D01*
X73811504Y-63246000D01*
X74524496Y-63246000D01*
X74544458Y-63435928D01*
X74603473Y-63617556D01*
X74698960Y-63782944D01*
X74826747Y-63924866D01*
X74981248Y-64037118D01*
X74987276Y-64039802D01*
X74987278Y-64039803D01*
X75149681Y-64112109D01*
X75155712Y-64114794D01*
X75249113Y-64134647D01*
X75336056Y-64153128D01*
X75336061Y-64153128D01*
X75342513Y-64154500D01*
X75533487Y-64154500D01*
X75539939Y-64153128D01*
X75539944Y-64153128D01*
X75626887Y-64134647D01*
X75720288Y-64114794D01*
X75726319Y-64112109D01*
X75888722Y-64039803D01*
X75888724Y-64039802D01*
X75894752Y-64037118D01*
X76049253Y-63924866D01*
X76177040Y-63782944D01*
X76272527Y-63617556D01*
X76331542Y-63435928D01*
X76351504Y-63246000D01*
X77064496Y-63246000D01*
X77084458Y-63435928D01*
X77143473Y-63617556D01*
X77238960Y-63782944D01*
X77366747Y-63924866D01*
X77521248Y-64037118D01*
X77527276Y-64039802D01*
X77527278Y-64039803D01*
X77689681Y-64112109D01*
X77695712Y-64114794D01*
X77789113Y-64134647D01*
X77876056Y-64153128D01*
X77876061Y-64153128D01*
X77882513Y-64154500D01*
X78073487Y-64154500D01*
X78079939Y-64153128D01*
X78079944Y-64153128D01*
X78166887Y-64134647D01*
X78260288Y-64114794D01*
X78266319Y-64112109D01*
X78428722Y-64039803D01*
X78428724Y-64039802D01*
X78434752Y-64037118D01*
X78589253Y-63924866D01*
X78717040Y-63782944D01*
X78812527Y-63617556D01*
X78871542Y-63435928D01*
X78891504Y-63246000D01*
X79604496Y-63246000D01*
X79624458Y-63435928D01*
X79683473Y-63617556D01*
X79778960Y-63782944D01*
X79906747Y-63924866D01*
X80061248Y-64037118D01*
X80067276Y-64039802D01*
X80067278Y-64039803D01*
X80229681Y-64112109D01*
X80235712Y-64114794D01*
X80329113Y-64134647D01*
X80416056Y-64153128D01*
X80416061Y-64153128D01*
X80422513Y-64154500D01*
X80613487Y-64154500D01*
X80619939Y-64153128D01*
X80619944Y-64153128D01*
X80706887Y-64134647D01*
X80800288Y-64114794D01*
X80806319Y-64112109D01*
X80968722Y-64039803D01*
X80968724Y-64039802D01*
X80974752Y-64037118D01*
X81129253Y-63924866D01*
X81257040Y-63782944D01*
X81352527Y-63617556D01*
X81411542Y-63435928D01*
X81431504Y-63246000D01*
X82144496Y-63246000D01*
X82164458Y-63435928D01*
X82223473Y-63617556D01*
X82318960Y-63782944D01*
X82446747Y-63924866D01*
X82601248Y-64037118D01*
X82607276Y-64039802D01*
X82607278Y-64039803D01*
X82769681Y-64112109D01*
X82775712Y-64114794D01*
X82869113Y-64134647D01*
X82956056Y-64153128D01*
X82956061Y-64153128D01*
X82962513Y-64154500D01*
X83153487Y-64154500D01*
X83159939Y-64153128D01*
X83159944Y-64153128D01*
X83246887Y-64134647D01*
X83340288Y-64114794D01*
X83346319Y-64112109D01*
X83508722Y-64039803D01*
X83508724Y-64039802D01*
X83514752Y-64037118D01*
X83669253Y-63924866D01*
X83797040Y-63782944D01*
X83892527Y-63617556D01*
X83951542Y-63435928D01*
X83971504Y-63246000D01*
X84684496Y-63246000D01*
X84704458Y-63435928D01*
X84763473Y-63617556D01*
X84858960Y-63782944D01*
X84986747Y-63924866D01*
X85141248Y-64037118D01*
X85147276Y-64039802D01*
X85147278Y-64039803D01*
X85309681Y-64112109D01*
X85315712Y-64114794D01*
X85409113Y-64134647D01*
X85496056Y-64153128D01*
X85496061Y-64153128D01*
X85502513Y-64154500D01*
X85693487Y-64154500D01*
X85699939Y-64153128D01*
X85699944Y-64153128D01*
X85786887Y-64134647D01*
X85880288Y-64114794D01*
X85886319Y-64112109D01*
X86048722Y-64039803D01*
X86048724Y-64039802D01*
X86054752Y-64037118D01*
X86209253Y-63924866D01*
X86337040Y-63782944D01*
X86432527Y-63617556D01*
X86491542Y-63435928D01*
X86511504Y-63246000D01*
X87224496Y-63246000D01*
X87244458Y-63435928D01*
X87303473Y-63617556D01*
X87398960Y-63782944D01*
X87526747Y-63924866D01*
X87681248Y-64037118D01*
X87687276Y-64039802D01*
X87687278Y-64039803D01*
X87849681Y-64112109D01*
X87855712Y-64114794D01*
X87949113Y-64134647D01*
X88036056Y-64153128D01*
X88036061Y-64153128D01*
X88042513Y-64154500D01*
X88233487Y-64154500D01*
X88239939Y-64153128D01*
X88239944Y-64153128D01*
X88326887Y-64134647D01*
X88420288Y-64114794D01*
X88426319Y-64112109D01*
X88588722Y-64039803D01*
X88588724Y-64039802D01*
X88594752Y-64037118D01*
X88749253Y-63924866D01*
X88877040Y-63782944D01*
X88972527Y-63617556D01*
X89031542Y-63435928D01*
X89051504Y-63246000D01*
X89764496Y-63246000D01*
X89784458Y-63435928D01*
X89843473Y-63617556D01*
X89938960Y-63782944D01*
X90066747Y-63924866D01*
X90221248Y-64037118D01*
X90227276Y-64039802D01*
X90227278Y-64039803D01*
X90389681Y-64112109D01*
X90395712Y-64114794D01*
X90489113Y-64134647D01*
X90576056Y-64153128D01*
X90576061Y-64153128D01*
X90582513Y-64154500D01*
X90773487Y-64154500D01*
X90779939Y-64153128D01*
X90779944Y-64153128D01*
X90866887Y-64134647D01*
X90960288Y-64114794D01*
X90966319Y-64112109D01*
X91128722Y-64039803D01*
X91128724Y-64039802D01*
X91134752Y-64037118D01*
X91289253Y-63924866D01*
X91417040Y-63782944D01*
X91512527Y-63617556D01*
X91571542Y-63435928D01*
X91591504Y-63246000D01*
X92304496Y-63246000D01*
X92324458Y-63435928D01*
X92383473Y-63617556D01*
X92478960Y-63782944D01*
X92606747Y-63924866D01*
X92761248Y-64037118D01*
X92767276Y-64039802D01*
X92767278Y-64039803D01*
X92929681Y-64112109D01*
X92935712Y-64114794D01*
X93029113Y-64134647D01*
X93116056Y-64153128D01*
X93116061Y-64153128D01*
X93122513Y-64154500D01*
X93313487Y-64154500D01*
X93319939Y-64153128D01*
X93319944Y-64153128D01*
X93406887Y-64134647D01*
X93500288Y-64114794D01*
X93506319Y-64112109D01*
X93668722Y-64039803D01*
X93668724Y-64039802D01*
X93674752Y-64037118D01*
X93829253Y-63924866D01*
X93957040Y-63782944D01*
X94052527Y-63617556D01*
X94111542Y-63435928D01*
X94131504Y-63246000D01*
X94844496Y-63246000D01*
X94864458Y-63435928D01*
X94923473Y-63617556D01*
X95018960Y-63782944D01*
X95146747Y-63924866D01*
X95301248Y-64037118D01*
X95307276Y-64039802D01*
X95307278Y-64039803D01*
X95469681Y-64112109D01*
X95475712Y-64114794D01*
X95569113Y-64134647D01*
X95656056Y-64153128D01*
X95656061Y-64153128D01*
X95662513Y-64154500D01*
X95853487Y-64154500D01*
X95859939Y-64153128D01*
X95859944Y-64153128D01*
X95946887Y-64134647D01*
X96040288Y-64114794D01*
X96046319Y-64112109D01*
X96208722Y-64039803D01*
X96208724Y-64039802D01*
X96214752Y-64037118D01*
X96369253Y-63924866D01*
X96497040Y-63782944D01*
X96592527Y-63617556D01*
X96651542Y-63435928D01*
X96671504Y-63246000D01*
X97384496Y-63246000D01*
X97404458Y-63435928D01*
X97463473Y-63617556D01*
X97558960Y-63782944D01*
X97686747Y-63924866D01*
X97841248Y-64037118D01*
X97847276Y-64039802D01*
X97847278Y-64039803D01*
X98009681Y-64112109D01*
X98015712Y-64114794D01*
X98109113Y-64134647D01*
X98196056Y-64153128D01*
X98196061Y-64153128D01*
X98202513Y-64154500D01*
X98393487Y-64154500D01*
X98399939Y-64153128D01*
X98399944Y-64153128D01*
X98486887Y-64134647D01*
X98580288Y-64114794D01*
X98586319Y-64112109D01*
X98748722Y-64039803D01*
X98748724Y-64039802D01*
X98754752Y-64037118D01*
X98909253Y-63924866D01*
X99037040Y-63782944D01*
X99132527Y-63617556D01*
X99191542Y-63435928D01*
X99211504Y-63246000D01*
X99924496Y-63246000D01*
X99944458Y-63435928D01*
X100003473Y-63617556D01*
X100098960Y-63782944D01*
X100226747Y-63924866D01*
X100381248Y-64037118D01*
X100387276Y-64039802D01*
X100387278Y-64039803D01*
X100549681Y-64112109D01*
X100555712Y-64114794D01*
X100649113Y-64134647D01*
X100736056Y-64153128D01*
X100736061Y-64153128D01*
X100742513Y-64154500D01*
X100933487Y-64154500D01*
X100939939Y-64153128D01*
X100939944Y-64153128D01*
X101026887Y-64134647D01*
X101120288Y-64114794D01*
X101126319Y-64112109D01*
X101288722Y-64039803D01*
X101288724Y-64039802D01*
X101294752Y-64037118D01*
X101449253Y-63924866D01*
X101577040Y-63782944D01*
X101672527Y-63617556D01*
X101731542Y-63435928D01*
X101751504Y-63246000D01*
X102464496Y-63246000D01*
X102484458Y-63435928D01*
X102543473Y-63617556D01*
X102638960Y-63782944D01*
X102766747Y-63924866D01*
X102921248Y-64037118D01*
X102927276Y-64039802D01*
X102927278Y-64039803D01*
X103089681Y-64112109D01*
X103095712Y-64114794D01*
X103189113Y-64134647D01*
X103276056Y-64153128D01*
X103276061Y-64153128D01*
X103282513Y-64154500D01*
X103473487Y-64154500D01*
X103479939Y-64153128D01*
X103479944Y-64153128D01*
X103566887Y-64134647D01*
X103660288Y-64114794D01*
X103666319Y-64112109D01*
X103828722Y-64039803D01*
X103828724Y-64039802D01*
X103834752Y-64037118D01*
X103989253Y-63924866D01*
X104117040Y-63782944D01*
X104212527Y-63617556D01*
X104271542Y-63435928D01*
X104291504Y-63246000D01*
X105004496Y-63246000D01*
X105024458Y-63435928D01*
X105083473Y-63617556D01*
X105178960Y-63782944D01*
X105306747Y-63924866D01*
X105461248Y-64037118D01*
X105467276Y-64039802D01*
X105467278Y-64039803D01*
X105629681Y-64112109D01*
X105635712Y-64114794D01*
X105729113Y-64134647D01*
X105816056Y-64153128D01*
X105816061Y-64153128D01*
X105822513Y-64154500D01*
X106013487Y-64154500D01*
X106019939Y-64153128D01*
X106019944Y-64153128D01*
X106106887Y-64134647D01*
X106200288Y-64114794D01*
X106206319Y-64112109D01*
X106368722Y-64039803D01*
X106368724Y-64039802D01*
X106374752Y-64037118D01*
X106529253Y-63924866D01*
X106657040Y-63782944D01*
X106752527Y-63617556D01*
X106811542Y-63435928D01*
X106831504Y-63246000D01*
X107544496Y-63246000D01*
X107564458Y-63435928D01*
X107623473Y-63617556D01*
X107718960Y-63782944D01*
X107846747Y-63924866D01*
X108001248Y-64037118D01*
X108007276Y-64039802D01*
X108007278Y-64039803D01*
X108169681Y-64112109D01*
X108175712Y-64114794D01*
X108269113Y-64134647D01*
X108356056Y-64153128D01*
X108356061Y-64153128D01*
X108362513Y-64154500D01*
X108553487Y-64154500D01*
X108559939Y-64153128D01*
X108559944Y-64153128D01*
X108646887Y-64134647D01*
X108740288Y-64114794D01*
X108746319Y-64112109D01*
X108908722Y-64039803D01*
X108908724Y-64039802D01*
X108914752Y-64037118D01*
X109069253Y-63924866D01*
X109197040Y-63782944D01*
X109292527Y-63617556D01*
X109351542Y-63435928D01*
X109371504Y-63246000D01*
X110084496Y-63246000D01*
X110104458Y-63435928D01*
X110163473Y-63617556D01*
X110258960Y-63782944D01*
X110386747Y-63924866D01*
X110541248Y-64037118D01*
X110547276Y-64039802D01*
X110547278Y-64039803D01*
X110709681Y-64112109D01*
X110715712Y-64114794D01*
X110809113Y-64134647D01*
X110896056Y-64153128D01*
X110896061Y-64153128D01*
X110902513Y-64154500D01*
X111093487Y-64154500D01*
X111099939Y-64153128D01*
X111099944Y-64153128D01*
X111186887Y-64134647D01*
X111280288Y-64114794D01*
X111286319Y-64112109D01*
X111448722Y-64039803D01*
X111448724Y-64039802D01*
X111454752Y-64037118D01*
X111609253Y-63924866D01*
X111737040Y-63782944D01*
X111832527Y-63617556D01*
X111891542Y-63435928D01*
X111911504Y-63246000D01*
X112624496Y-63246000D01*
X112644458Y-63435928D01*
X112703473Y-63617556D01*
X112798960Y-63782944D01*
X112926747Y-63924866D01*
X113081248Y-64037118D01*
X113087276Y-64039802D01*
X113087278Y-64039803D01*
X113249681Y-64112109D01*
X113255712Y-64114794D01*
X113349113Y-64134647D01*
X113436056Y-64153128D01*
X113436061Y-64153128D01*
X113442513Y-64154500D01*
X113633487Y-64154500D01*
X113639939Y-64153128D01*
X113639944Y-64153128D01*
X113726887Y-64134647D01*
X113820288Y-64114794D01*
X113826319Y-64112109D01*
X113988722Y-64039803D01*
X113988724Y-64039802D01*
X113994752Y-64037118D01*
X114149253Y-63924866D01*
X114277040Y-63782944D01*
X114372527Y-63617556D01*
X114431542Y-63435928D01*
X114451504Y-63246000D01*
X115164496Y-63246000D01*
X115184458Y-63435928D01*
X115243473Y-63617556D01*
X115338960Y-63782944D01*
X115466747Y-63924866D01*
X115621248Y-64037118D01*
X115627276Y-64039802D01*
X115627278Y-64039803D01*
X115789681Y-64112109D01*
X115795712Y-64114794D01*
X115889113Y-64134647D01*
X115976056Y-64153128D01*
X115976061Y-64153128D01*
X115982513Y-64154500D01*
X116173487Y-64154500D01*
X116179939Y-64153128D01*
X116179944Y-64153128D01*
X116266887Y-64134647D01*
X116360288Y-64114794D01*
X116366319Y-64112109D01*
X116528722Y-64039803D01*
X116528724Y-64039802D01*
X116534752Y-64037118D01*
X116689253Y-63924866D01*
X116817040Y-63782944D01*
X116912527Y-63617556D01*
X116971542Y-63435928D01*
X116991504Y-63246000D01*
X117704496Y-63246000D01*
X117724458Y-63435928D01*
X117783473Y-63617556D01*
X117878960Y-63782944D01*
X118006747Y-63924866D01*
X118161248Y-64037118D01*
X118167276Y-64039802D01*
X118167278Y-64039803D01*
X118329681Y-64112109D01*
X118335712Y-64114794D01*
X118429113Y-64134647D01*
X118516056Y-64153128D01*
X118516061Y-64153128D01*
X118522513Y-64154500D01*
X118713487Y-64154500D01*
X118719939Y-64153128D01*
X118719944Y-64153128D01*
X118806887Y-64134647D01*
X118900288Y-64114794D01*
X118906319Y-64112109D01*
X119068722Y-64039803D01*
X119068724Y-64039802D01*
X119074752Y-64037118D01*
X119229253Y-63924866D01*
X119357040Y-63782944D01*
X119452527Y-63617556D01*
X119511542Y-63435928D01*
X119531504Y-63246000D01*
X120244496Y-63246000D01*
X120264458Y-63435928D01*
X120323473Y-63617556D01*
X120418960Y-63782944D01*
X120546747Y-63924866D01*
X120701248Y-64037118D01*
X120707276Y-64039802D01*
X120707278Y-64039803D01*
X120869681Y-64112109D01*
X120875712Y-64114794D01*
X120969113Y-64134647D01*
X121056056Y-64153128D01*
X121056061Y-64153128D01*
X121062513Y-64154500D01*
X121253487Y-64154500D01*
X121259939Y-64153128D01*
X121259944Y-64153128D01*
X121346887Y-64134647D01*
X121440288Y-64114794D01*
X121446319Y-64112109D01*
X121608722Y-64039803D01*
X121608724Y-64039802D01*
X121614752Y-64037118D01*
X121769253Y-63924866D01*
X121897040Y-63782944D01*
X121992527Y-63617556D01*
X122051542Y-63435928D01*
X122071504Y-63246000D01*
X122051542Y-63056072D01*
X121992527Y-62874444D01*
X121897040Y-62709056D01*
X121769253Y-62567134D01*
X121614752Y-62454882D01*
X121608724Y-62452198D01*
X121608722Y-62452197D01*
X121446319Y-62379891D01*
X121446318Y-62379891D01*
X121440288Y-62377206D01*
X121346888Y-62357353D01*
X121259944Y-62338872D01*
X121259939Y-62338872D01*
X121253487Y-62337500D01*
X121062513Y-62337500D01*
X121056061Y-62338872D01*
X121056056Y-62338872D01*
X120969112Y-62357353D01*
X120875712Y-62377206D01*
X120869682Y-62379891D01*
X120869681Y-62379891D01*
X120707278Y-62452197D01*
X120707276Y-62452198D01*
X120701248Y-62454882D01*
X120546747Y-62567134D01*
X120418960Y-62709056D01*
X120323473Y-62874444D01*
X120264458Y-63056072D01*
X120244496Y-63246000D01*
X119531504Y-63246000D01*
X119511542Y-63056072D01*
X119452527Y-62874444D01*
X119357040Y-62709056D01*
X119229253Y-62567134D01*
X119074752Y-62454882D01*
X119068724Y-62452198D01*
X119068722Y-62452197D01*
X118906319Y-62379891D01*
X118906318Y-62379891D01*
X118900288Y-62377206D01*
X118806888Y-62357353D01*
X118719944Y-62338872D01*
X118719939Y-62338872D01*
X118713487Y-62337500D01*
X118522513Y-62337500D01*
X118516061Y-62338872D01*
X118516056Y-62338872D01*
X118429112Y-62357353D01*
X118335712Y-62377206D01*
X118329682Y-62379891D01*
X118329681Y-62379891D01*
X118167278Y-62452197D01*
X118167276Y-62452198D01*
X118161248Y-62454882D01*
X118006747Y-62567134D01*
X117878960Y-62709056D01*
X117783473Y-62874444D01*
X117724458Y-63056072D01*
X117704496Y-63246000D01*
X116991504Y-63246000D01*
X116971542Y-63056072D01*
X116912527Y-62874444D01*
X116817040Y-62709056D01*
X116689253Y-62567134D01*
X116534752Y-62454882D01*
X116528724Y-62452198D01*
X116528722Y-62452197D01*
X116366319Y-62379891D01*
X116366318Y-62379891D01*
X116360288Y-62377206D01*
X116266888Y-62357353D01*
X116179944Y-62338872D01*
X116179939Y-62338872D01*
X116173487Y-62337500D01*
X115982513Y-62337500D01*
X115976061Y-62338872D01*
X115976056Y-62338872D01*
X115889112Y-62357353D01*
X115795712Y-62377206D01*
X115789682Y-62379891D01*
X115789681Y-62379891D01*
X115627278Y-62452197D01*
X115627276Y-62452198D01*
X115621248Y-62454882D01*
X115466747Y-62567134D01*
X115338960Y-62709056D01*
X115243473Y-62874444D01*
X115184458Y-63056072D01*
X115164496Y-63246000D01*
X114451504Y-63246000D01*
X114431542Y-63056072D01*
X114372527Y-62874444D01*
X114277040Y-62709056D01*
X114149253Y-62567134D01*
X113994752Y-62454882D01*
X113988724Y-62452198D01*
X113988722Y-62452197D01*
X113826319Y-62379891D01*
X113826318Y-62379891D01*
X113820288Y-62377206D01*
X113726888Y-62357353D01*
X113639944Y-62338872D01*
X113639939Y-62338872D01*
X113633487Y-62337500D01*
X113442513Y-62337500D01*
X113436061Y-62338872D01*
X113436056Y-62338872D01*
X113349112Y-62357353D01*
X113255712Y-62377206D01*
X113249682Y-62379891D01*
X113249681Y-62379891D01*
X113087278Y-62452197D01*
X113087276Y-62452198D01*
X113081248Y-62454882D01*
X112926747Y-62567134D01*
X112798960Y-62709056D01*
X112703473Y-62874444D01*
X112644458Y-63056072D01*
X112624496Y-63246000D01*
X111911504Y-63246000D01*
X111891542Y-63056072D01*
X111832527Y-62874444D01*
X111737040Y-62709056D01*
X111609253Y-62567134D01*
X111454752Y-62454882D01*
X111448724Y-62452198D01*
X111448722Y-62452197D01*
X111286319Y-62379891D01*
X111286318Y-62379891D01*
X111280288Y-62377206D01*
X111186888Y-62357353D01*
X111099944Y-62338872D01*
X111099939Y-62338872D01*
X111093487Y-62337500D01*
X110902513Y-62337500D01*
X110896061Y-62338872D01*
X110896056Y-62338872D01*
X110809112Y-62357353D01*
X110715712Y-62377206D01*
X110709682Y-62379891D01*
X110709681Y-62379891D01*
X110547278Y-62452197D01*
X110547276Y-62452198D01*
X110541248Y-62454882D01*
X110386747Y-62567134D01*
X110258960Y-62709056D01*
X110163473Y-62874444D01*
X110104458Y-63056072D01*
X110084496Y-63246000D01*
X109371504Y-63246000D01*
X109351542Y-63056072D01*
X109292527Y-62874444D01*
X109197040Y-62709056D01*
X109069253Y-62567134D01*
X108914752Y-62454882D01*
X108908724Y-62452198D01*
X108908722Y-62452197D01*
X108746319Y-62379891D01*
X108746318Y-62379891D01*
X108740288Y-62377206D01*
X108646888Y-62357353D01*
X108559944Y-62338872D01*
X108559939Y-62338872D01*
X108553487Y-62337500D01*
X108362513Y-62337500D01*
X108356061Y-62338872D01*
X108356056Y-62338872D01*
X108269112Y-62357353D01*
X108175712Y-62377206D01*
X108169682Y-62379891D01*
X108169681Y-62379891D01*
X108007278Y-62452197D01*
X108007276Y-62452198D01*
X108001248Y-62454882D01*
X107846747Y-62567134D01*
X107718960Y-62709056D01*
X107623473Y-62874444D01*
X107564458Y-63056072D01*
X107544496Y-63246000D01*
X106831504Y-63246000D01*
X106811542Y-63056072D01*
X106752527Y-62874444D01*
X106657040Y-62709056D01*
X106529253Y-62567134D01*
X106374752Y-62454882D01*
X106368724Y-62452198D01*
X106368722Y-62452197D01*
X106206319Y-62379891D01*
X106206318Y-62379891D01*
X106200288Y-62377206D01*
X106106888Y-62357353D01*
X106019944Y-62338872D01*
X106019939Y-62338872D01*
X106013487Y-62337500D01*
X105822513Y-62337500D01*
X105816061Y-62338872D01*
X105816056Y-62338872D01*
X105729112Y-62357353D01*
X105635712Y-62377206D01*
X105629682Y-62379891D01*
X105629681Y-62379891D01*
X105467278Y-62452197D01*
X105467276Y-62452198D01*
X105461248Y-62454882D01*
X105306747Y-62567134D01*
X105178960Y-62709056D01*
X105083473Y-62874444D01*
X105024458Y-63056072D01*
X105004496Y-63246000D01*
X104291504Y-63246000D01*
X104271542Y-63056072D01*
X104212527Y-62874444D01*
X104117040Y-62709056D01*
X103989253Y-62567134D01*
X103834752Y-62454882D01*
X103828724Y-62452198D01*
X103828722Y-62452197D01*
X103666319Y-62379891D01*
X103666318Y-62379891D01*
X103660288Y-62377206D01*
X103566888Y-62357353D01*
X103479944Y-62338872D01*
X103479939Y-62338872D01*
X103473487Y-62337500D01*
X103282513Y-62337500D01*
X103276061Y-62338872D01*
X103276056Y-62338872D01*
X103189112Y-62357353D01*
X103095712Y-62377206D01*
X103089682Y-62379891D01*
X103089681Y-62379891D01*
X102927278Y-62452197D01*
X102927276Y-62452198D01*
X102921248Y-62454882D01*
X102766747Y-62567134D01*
X102638960Y-62709056D01*
X102543473Y-62874444D01*
X102484458Y-63056072D01*
X102464496Y-63246000D01*
X101751504Y-63246000D01*
X101731542Y-63056072D01*
X101672527Y-62874444D01*
X101577040Y-62709056D01*
X101449253Y-62567134D01*
X101294752Y-62454882D01*
X101288724Y-62452198D01*
X101288722Y-62452197D01*
X101126319Y-62379891D01*
X101126318Y-62379891D01*
X101120288Y-62377206D01*
X101026888Y-62357353D01*
X100939944Y-62338872D01*
X100939939Y-62338872D01*
X100933487Y-62337500D01*
X100742513Y-62337500D01*
X100736061Y-62338872D01*
X100736056Y-62338872D01*
X100649112Y-62357353D01*
X100555712Y-62377206D01*
X100549682Y-62379891D01*
X100549681Y-62379891D01*
X100387278Y-62452197D01*
X100387276Y-62452198D01*
X100381248Y-62454882D01*
X100226747Y-62567134D01*
X100098960Y-62709056D01*
X100003473Y-62874444D01*
X99944458Y-63056072D01*
X99924496Y-63246000D01*
X99211504Y-63246000D01*
X99191542Y-63056072D01*
X99132527Y-62874444D01*
X99037040Y-62709056D01*
X98909253Y-62567134D01*
X98754752Y-62454882D01*
X98748724Y-62452198D01*
X98748722Y-62452197D01*
X98586319Y-62379891D01*
X98586318Y-62379891D01*
X98580288Y-62377206D01*
X98486888Y-62357353D01*
X98399944Y-62338872D01*
X98399939Y-62338872D01*
X98393487Y-62337500D01*
X98202513Y-62337500D01*
X98196061Y-62338872D01*
X98196056Y-62338872D01*
X98109112Y-62357353D01*
X98015712Y-62377206D01*
X98009682Y-62379891D01*
X98009681Y-62379891D01*
X97847278Y-62452197D01*
X97847276Y-62452198D01*
X97841248Y-62454882D01*
X97686747Y-62567134D01*
X97558960Y-62709056D01*
X97463473Y-62874444D01*
X97404458Y-63056072D01*
X97384496Y-63246000D01*
X96671504Y-63246000D01*
X96651542Y-63056072D01*
X96592527Y-62874444D01*
X96497040Y-62709056D01*
X96369253Y-62567134D01*
X96214752Y-62454882D01*
X96208724Y-62452198D01*
X96208722Y-62452197D01*
X96046319Y-62379891D01*
X96046318Y-62379891D01*
X96040288Y-62377206D01*
X95946888Y-62357353D01*
X95859944Y-62338872D01*
X95859939Y-62338872D01*
X95853487Y-62337500D01*
X95662513Y-62337500D01*
X95656061Y-62338872D01*
X95656056Y-62338872D01*
X95569112Y-62357353D01*
X95475712Y-62377206D01*
X95469682Y-62379891D01*
X95469681Y-62379891D01*
X95307278Y-62452197D01*
X95307276Y-62452198D01*
X95301248Y-62454882D01*
X95146747Y-62567134D01*
X95018960Y-62709056D01*
X94923473Y-62874444D01*
X94864458Y-63056072D01*
X94844496Y-63246000D01*
X94131504Y-63246000D01*
X94111542Y-63056072D01*
X94052527Y-62874444D01*
X93957040Y-62709056D01*
X93829253Y-62567134D01*
X93674752Y-62454882D01*
X93668724Y-62452198D01*
X93668722Y-62452197D01*
X93506319Y-62379891D01*
X93506318Y-62379891D01*
X93500288Y-62377206D01*
X93406888Y-62357353D01*
X93319944Y-62338872D01*
X93319939Y-62338872D01*
X93313487Y-62337500D01*
X93122513Y-62337500D01*
X93116061Y-62338872D01*
X93116056Y-62338872D01*
X93029112Y-62357353D01*
X92935712Y-62377206D01*
X92929682Y-62379891D01*
X92929681Y-62379891D01*
X92767278Y-62452197D01*
X92767276Y-62452198D01*
X92761248Y-62454882D01*
X92606747Y-62567134D01*
X92478960Y-62709056D01*
X92383473Y-62874444D01*
X92324458Y-63056072D01*
X92304496Y-63246000D01*
X91591504Y-63246000D01*
X91571542Y-63056072D01*
X91512527Y-62874444D01*
X91417040Y-62709056D01*
X91289253Y-62567134D01*
X91134752Y-62454882D01*
X91128724Y-62452198D01*
X91128722Y-62452197D01*
X90966319Y-62379891D01*
X90966318Y-62379891D01*
X90960288Y-62377206D01*
X90866888Y-62357353D01*
X90779944Y-62338872D01*
X90779939Y-62338872D01*
X90773487Y-62337500D01*
X90582513Y-62337500D01*
X90576061Y-62338872D01*
X90576056Y-62338872D01*
X90489112Y-62357353D01*
X90395712Y-62377206D01*
X90389682Y-62379891D01*
X90389681Y-62379891D01*
X90227278Y-62452197D01*
X90227276Y-62452198D01*
X90221248Y-62454882D01*
X90066747Y-62567134D01*
X89938960Y-62709056D01*
X89843473Y-62874444D01*
X89784458Y-63056072D01*
X89764496Y-63246000D01*
X89051504Y-63246000D01*
X89031542Y-63056072D01*
X88972527Y-62874444D01*
X88877040Y-62709056D01*
X88749253Y-62567134D01*
X88594752Y-62454882D01*
X88588724Y-62452198D01*
X88588722Y-62452197D01*
X88426319Y-62379891D01*
X88426318Y-62379891D01*
X88420288Y-62377206D01*
X88326888Y-62357353D01*
X88239944Y-62338872D01*
X88239939Y-62338872D01*
X88233487Y-62337500D01*
X88042513Y-62337500D01*
X88036061Y-62338872D01*
X88036056Y-62338872D01*
X87949112Y-62357353D01*
X87855712Y-62377206D01*
X87849682Y-62379891D01*
X87849681Y-62379891D01*
X87687278Y-62452197D01*
X87687276Y-62452198D01*
X87681248Y-62454882D01*
X87526747Y-62567134D01*
X87398960Y-62709056D01*
X87303473Y-62874444D01*
X87244458Y-63056072D01*
X87224496Y-63246000D01*
X86511504Y-63246000D01*
X86491542Y-63056072D01*
X86432527Y-62874444D01*
X86337040Y-62709056D01*
X86209253Y-62567134D01*
X86054752Y-62454882D01*
X86048724Y-62452198D01*
X86048722Y-62452197D01*
X85886319Y-62379891D01*
X85886318Y-62379891D01*
X85880288Y-62377206D01*
X85786888Y-62357353D01*
X85699944Y-62338872D01*
X85699939Y-62338872D01*
X85693487Y-62337500D01*
X85502513Y-62337500D01*
X85496061Y-62338872D01*
X85496056Y-62338872D01*
X85409112Y-62357353D01*
X85315712Y-62377206D01*
X85309682Y-62379891D01*
X85309681Y-62379891D01*
X85147278Y-62452197D01*
X85147276Y-62452198D01*
X85141248Y-62454882D01*
X84986747Y-62567134D01*
X84858960Y-62709056D01*
X84763473Y-62874444D01*
X84704458Y-63056072D01*
X84684496Y-63246000D01*
X83971504Y-63246000D01*
X83951542Y-63056072D01*
X83892527Y-62874444D01*
X83797040Y-62709056D01*
X83669253Y-62567134D01*
X83514752Y-62454882D01*
X83508724Y-62452198D01*
X83508722Y-62452197D01*
X83346319Y-62379891D01*
X83346318Y-62379891D01*
X83340288Y-62377206D01*
X83246888Y-62357353D01*
X83159944Y-62338872D01*
X83159939Y-62338872D01*
X83153487Y-62337500D01*
X82962513Y-62337500D01*
X82956061Y-62338872D01*
X82956056Y-62338872D01*
X82869112Y-62357353D01*
X82775712Y-62377206D01*
X82769682Y-62379891D01*
X82769681Y-62379891D01*
X82607278Y-62452197D01*
X82607276Y-62452198D01*
X82601248Y-62454882D01*
X82446747Y-62567134D01*
X82318960Y-62709056D01*
X82223473Y-62874444D01*
X82164458Y-63056072D01*
X82144496Y-63246000D01*
X81431504Y-63246000D01*
X81411542Y-63056072D01*
X81352527Y-62874444D01*
X81257040Y-62709056D01*
X81129253Y-62567134D01*
X80974752Y-62454882D01*
X80968724Y-62452198D01*
X80968722Y-62452197D01*
X80806319Y-62379891D01*
X80806318Y-62379891D01*
X80800288Y-62377206D01*
X80706888Y-62357353D01*
X80619944Y-62338872D01*
X80619939Y-62338872D01*
X80613487Y-62337500D01*
X80422513Y-62337500D01*
X80416061Y-62338872D01*
X80416056Y-62338872D01*
X80329112Y-62357353D01*
X80235712Y-62377206D01*
X80229682Y-62379891D01*
X80229681Y-62379891D01*
X80067278Y-62452197D01*
X80067276Y-62452198D01*
X80061248Y-62454882D01*
X79906747Y-62567134D01*
X79778960Y-62709056D01*
X79683473Y-62874444D01*
X79624458Y-63056072D01*
X79604496Y-63246000D01*
X78891504Y-63246000D01*
X78871542Y-63056072D01*
X78812527Y-62874444D01*
X78717040Y-62709056D01*
X78589253Y-62567134D01*
X78434752Y-62454882D01*
X78428724Y-62452198D01*
X78428722Y-62452197D01*
X78266319Y-62379891D01*
X78266318Y-62379891D01*
X78260288Y-62377206D01*
X78166888Y-62357353D01*
X78079944Y-62338872D01*
X78079939Y-62338872D01*
X78073487Y-62337500D01*
X77882513Y-62337500D01*
X77876061Y-62338872D01*
X77876056Y-62338872D01*
X77789112Y-62357353D01*
X77695712Y-62377206D01*
X77689682Y-62379891D01*
X77689681Y-62379891D01*
X77527278Y-62452197D01*
X77527276Y-62452198D01*
X77521248Y-62454882D01*
X77366747Y-62567134D01*
X77238960Y-62709056D01*
X77143473Y-62874444D01*
X77084458Y-63056072D01*
X77064496Y-63246000D01*
X76351504Y-63246000D01*
X76331542Y-63056072D01*
X76272527Y-62874444D01*
X76177040Y-62709056D01*
X76049253Y-62567134D01*
X75894752Y-62454882D01*
X75888724Y-62452198D01*
X75888722Y-62452197D01*
X75726319Y-62379891D01*
X75726318Y-62379891D01*
X75720288Y-62377206D01*
X75626888Y-62357353D01*
X75539944Y-62338872D01*
X75539939Y-62338872D01*
X75533487Y-62337500D01*
X75342513Y-62337500D01*
X75336061Y-62338872D01*
X75336056Y-62338872D01*
X75249112Y-62357353D01*
X75155712Y-62377206D01*
X75149682Y-62379891D01*
X75149681Y-62379891D01*
X74987278Y-62452197D01*
X74987276Y-62452198D01*
X74981248Y-62454882D01*
X74826747Y-62567134D01*
X74698960Y-62709056D01*
X74603473Y-62874444D01*
X74544458Y-63056072D01*
X74524496Y-63246000D01*
X73811504Y-63246000D01*
X73791542Y-63056072D01*
X73732527Y-62874444D01*
X73637040Y-62709056D01*
X73509253Y-62567134D01*
X73354752Y-62454882D01*
X73348724Y-62452198D01*
X73348722Y-62452197D01*
X73186319Y-62379891D01*
X73186318Y-62379891D01*
X73180288Y-62377206D01*
X73086888Y-62357353D01*
X72999944Y-62338872D01*
X72999939Y-62338872D01*
X72993487Y-62337500D01*
X72802513Y-62337500D01*
X72796061Y-62338872D01*
X72796056Y-62338872D01*
X72709112Y-62357353D01*
X72615712Y-62377206D01*
X72609682Y-62379891D01*
X72609681Y-62379891D01*
X72447278Y-62452197D01*
X72447276Y-62452198D01*
X72441248Y-62454882D01*
X72286747Y-62567134D01*
X72158960Y-62709056D01*
X72063473Y-62874444D01*
X72004458Y-63056072D01*
X71984496Y-63246000D01*
X71271504Y-63246000D01*
X71251542Y-63056072D01*
X71192527Y-62874444D01*
X71097040Y-62709056D01*
X70969253Y-62567134D01*
X70814752Y-62454882D01*
X70808724Y-62452198D01*
X70808722Y-62452197D01*
X70646319Y-62379891D01*
X70646318Y-62379891D01*
X70640288Y-62377206D01*
X70546888Y-62357353D01*
X70459944Y-62338872D01*
X70459939Y-62338872D01*
X70453487Y-62337500D01*
X70262513Y-62337500D01*
X70256061Y-62338872D01*
X70256056Y-62338872D01*
X70169112Y-62357353D01*
X70075712Y-62377206D01*
X70069682Y-62379891D01*
X70069681Y-62379891D01*
X69907278Y-62452197D01*
X69907276Y-62452198D01*
X69901248Y-62454882D01*
X69746747Y-62567134D01*
X69618960Y-62709056D01*
X69523473Y-62874444D01*
X69464458Y-63056072D01*
X69444496Y-63246000D01*
X68731504Y-63246000D01*
X68711542Y-63056072D01*
X68652527Y-62874444D01*
X68557040Y-62709056D01*
X68429253Y-62567134D01*
X68274752Y-62454882D01*
X68268724Y-62452198D01*
X68268722Y-62452197D01*
X68106319Y-62379891D01*
X68106318Y-62379891D01*
X68100288Y-62377206D01*
X68006888Y-62357353D01*
X67919944Y-62338872D01*
X67919939Y-62338872D01*
X67913487Y-62337500D01*
X67722513Y-62337500D01*
X67716061Y-62338872D01*
X67716056Y-62338872D01*
X67629112Y-62357353D01*
X67535712Y-62377206D01*
X67529682Y-62379891D01*
X67529681Y-62379891D01*
X67367278Y-62452197D01*
X67367276Y-62452198D01*
X67361248Y-62454882D01*
X67206747Y-62567134D01*
X67078960Y-62709056D01*
X66983473Y-62874444D01*
X66924458Y-63056072D01*
X66904496Y-63246000D01*
X66191504Y-63246000D01*
X66171542Y-63056072D01*
X66112527Y-62874444D01*
X66017040Y-62709056D01*
X65889253Y-62567134D01*
X65734752Y-62454882D01*
X65728724Y-62452198D01*
X65728722Y-62452197D01*
X65566319Y-62379891D01*
X65566318Y-62379891D01*
X65560288Y-62377206D01*
X65466888Y-62357353D01*
X65379944Y-62338872D01*
X65379939Y-62338872D01*
X65373487Y-62337500D01*
X65182513Y-62337500D01*
X65176061Y-62338872D01*
X65176056Y-62338872D01*
X65089112Y-62357353D01*
X64995712Y-62377206D01*
X64989682Y-62379891D01*
X64989681Y-62379891D01*
X64827278Y-62452197D01*
X64827276Y-62452198D01*
X64821248Y-62454882D01*
X64666747Y-62567134D01*
X64538960Y-62709056D01*
X64443473Y-62874444D01*
X64384458Y-63056072D01*
X64364496Y-63246000D01*
X55626500Y-63246000D01*
X55626500Y-60196000D01*
X68199633Y-60196000D01*
X68200323Y-60202565D01*
X68213583Y-60328721D01*
X68219046Y-60380702D01*
X68276436Y-60557331D01*
X68369296Y-60718169D01*
X68493566Y-60856185D01*
X68498908Y-60860066D01*
X68498910Y-60860068D01*
X68556908Y-60902206D01*
X68643816Y-60965348D01*
X68649844Y-60968032D01*
X68649846Y-60968033D01*
X68807448Y-61038202D01*
X68813479Y-61040887D01*
X68904309Y-61060193D01*
X68988683Y-61078128D01*
X68988687Y-61078128D01*
X68995140Y-61079500D01*
X69180860Y-61079500D01*
X69187313Y-61078128D01*
X69187317Y-61078128D01*
X69271691Y-61060193D01*
X69362521Y-61040887D01*
X69368552Y-61038202D01*
X69526154Y-60968033D01*
X69526156Y-60968032D01*
X69532184Y-60965348D01*
X69619092Y-60902206D01*
X69677090Y-60860068D01*
X69677092Y-60860066D01*
X69682434Y-60856185D01*
X69806704Y-60718169D01*
X69899564Y-60557331D01*
X69956954Y-60380702D01*
X69962418Y-60328721D01*
X69975677Y-60202565D01*
X69976367Y-60196000D01*
X70739633Y-60196000D01*
X70740323Y-60202565D01*
X70753583Y-60328721D01*
X70759046Y-60380702D01*
X70816436Y-60557331D01*
X70909296Y-60718169D01*
X71033566Y-60856185D01*
X71038908Y-60860066D01*
X71038910Y-60860068D01*
X71096908Y-60902206D01*
X71183816Y-60965348D01*
X71189844Y-60968032D01*
X71189846Y-60968033D01*
X71347448Y-61038202D01*
X71353479Y-61040887D01*
X71444309Y-61060193D01*
X71528683Y-61078128D01*
X71528687Y-61078128D01*
X71535140Y-61079500D01*
X71720860Y-61079500D01*
X71727313Y-61078128D01*
X71727317Y-61078128D01*
X71811691Y-61060193D01*
X71902521Y-61040887D01*
X71908552Y-61038202D01*
X72066154Y-60968033D01*
X72066156Y-60968032D01*
X72072184Y-60965348D01*
X72159092Y-60902206D01*
X72217090Y-60860068D01*
X72217092Y-60860066D01*
X72222434Y-60856185D01*
X72346704Y-60718169D01*
X72439564Y-60557331D01*
X72496954Y-60380702D01*
X72502418Y-60328721D01*
X72515677Y-60202565D01*
X72516367Y-60196000D01*
X73279633Y-60196000D01*
X73280323Y-60202565D01*
X73293583Y-60328721D01*
X73299046Y-60380702D01*
X73356436Y-60557331D01*
X73449296Y-60718169D01*
X73573566Y-60856185D01*
X73578908Y-60860066D01*
X73578910Y-60860068D01*
X73636908Y-60902206D01*
X73723816Y-60965348D01*
X73729844Y-60968032D01*
X73729846Y-60968033D01*
X73887448Y-61038202D01*
X73893479Y-61040887D01*
X73984309Y-61060193D01*
X74068683Y-61078128D01*
X74068687Y-61078128D01*
X74075140Y-61079500D01*
X74260860Y-61079500D01*
X74267313Y-61078128D01*
X74267317Y-61078128D01*
X74351691Y-61060193D01*
X74442521Y-61040887D01*
X74448552Y-61038202D01*
X74606154Y-60968033D01*
X74606156Y-60968032D01*
X74612184Y-60965348D01*
X74699092Y-60902206D01*
X74757090Y-60860068D01*
X74757092Y-60860066D01*
X74762434Y-60856185D01*
X74886704Y-60718169D01*
X74979564Y-60557331D01*
X75036954Y-60380702D01*
X75042418Y-60328721D01*
X75055677Y-60202565D01*
X75056367Y-60196000D01*
X75819633Y-60196000D01*
X75820323Y-60202565D01*
X75833583Y-60328721D01*
X75839046Y-60380702D01*
X75896436Y-60557331D01*
X75989296Y-60718169D01*
X76113566Y-60856185D01*
X76118908Y-60860066D01*
X76118910Y-60860068D01*
X76176908Y-60902206D01*
X76263816Y-60965348D01*
X76269844Y-60968032D01*
X76269846Y-60968033D01*
X76427448Y-61038202D01*
X76433479Y-61040887D01*
X76524309Y-61060193D01*
X76608683Y-61078128D01*
X76608687Y-61078128D01*
X76615140Y-61079500D01*
X76800860Y-61079500D01*
X76807313Y-61078128D01*
X76807317Y-61078128D01*
X76891691Y-61060193D01*
X76982521Y-61040887D01*
X76988552Y-61038202D01*
X77146154Y-60968033D01*
X77146156Y-60968032D01*
X77152184Y-60965348D01*
X77239092Y-60902206D01*
X77297090Y-60860068D01*
X77297092Y-60860066D01*
X77302434Y-60856185D01*
X77426704Y-60718169D01*
X77519564Y-60557331D01*
X77576954Y-60380702D01*
X77582418Y-60328721D01*
X77595677Y-60202565D01*
X77596367Y-60196000D01*
X78359633Y-60196000D01*
X78360323Y-60202565D01*
X78373583Y-60328721D01*
X78379046Y-60380702D01*
X78436436Y-60557331D01*
X78529296Y-60718169D01*
X78653566Y-60856185D01*
X78658908Y-60860066D01*
X78658910Y-60860068D01*
X78716908Y-60902206D01*
X78803816Y-60965348D01*
X78809844Y-60968032D01*
X78809846Y-60968033D01*
X78967448Y-61038202D01*
X78973479Y-61040887D01*
X79064309Y-61060193D01*
X79148683Y-61078128D01*
X79148687Y-61078128D01*
X79155140Y-61079500D01*
X79340860Y-61079500D01*
X79347313Y-61078128D01*
X79347317Y-61078128D01*
X79431691Y-61060193D01*
X79522521Y-61040887D01*
X79528552Y-61038202D01*
X79686154Y-60968033D01*
X79686156Y-60968032D01*
X79692184Y-60965348D01*
X79779092Y-60902206D01*
X79837090Y-60860068D01*
X79837092Y-60860066D01*
X79842434Y-60856185D01*
X79966704Y-60718169D01*
X79973730Y-60706000D01*
X107544496Y-60706000D01*
X107564458Y-60895928D01*
X107623473Y-61077556D01*
X107718960Y-61242944D01*
X107846747Y-61384866D01*
X108001248Y-61497118D01*
X108007276Y-61499802D01*
X108007278Y-61499803D01*
X108169681Y-61572109D01*
X108175712Y-61574794D01*
X108269113Y-61594647D01*
X108356056Y-61613128D01*
X108356061Y-61613128D01*
X108362513Y-61614500D01*
X108553487Y-61614500D01*
X108559939Y-61613128D01*
X108559944Y-61613128D01*
X108646887Y-61594647D01*
X108740288Y-61574794D01*
X108746319Y-61572109D01*
X108908722Y-61499803D01*
X108908724Y-61499802D01*
X108914752Y-61497118D01*
X109069253Y-61384866D01*
X109197040Y-61242944D01*
X109292527Y-61077556D01*
X109351542Y-60895928D01*
X109371504Y-60706000D01*
X109356480Y-60563054D01*
X109352232Y-60522635D01*
X109352232Y-60522633D01*
X109351542Y-60516072D01*
X109292527Y-60334444D01*
X109197040Y-60169056D01*
X109069253Y-60027134D01*
X108914752Y-59914882D01*
X108908724Y-59912198D01*
X108908722Y-59912197D01*
X108746319Y-59839891D01*
X108746318Y-59839891D01*
X108740288Y-59837206D01*
X108646887Y-59817353D01*
X108559944Y-59798872D01*
X108559939Y-59798872D01*
X108553487Y-59797500D01*
X108362513Y-59797500D01*
X108356061Y-59798872D01*
X108356056Y-59798872D01*
X108269113Y-59817353D01*
X108175712Y-59837206D01*
X108169682Y-59839891D01*
X108169681Y-59839891D01*
X108007278Y-59912197D01*
X108007276Y-59912198D01*
X108001248Y-59914882D01*
X107846747Y-60027134D01*
X107718960Y-60169056D01*
X107623473Y-60334444D01*
X107564458Y-60516072D01*
X107563768Y-60522633D01*
X107563768Y-60522635D01*
X107559520Y-60563054D01*
X107544496Y-60706000D01*
X79973730Y-60706000D01*
X80059564Y-60557331D01*
X80116954Y-60380702D01*
X80122418Y-60328721D01*
X80135677Y-60202565D01*
X80136367Y-60196000D01*
X80119135Y-60032045D01*
X80117644Y-60017862D01*
X80117644Y-60017861D01*
X80116954Y-60011298D01*
X80059564Y-59834669D01*
X80038105Y-59797500D01*
X79970005Y-59679549D01*
X79966704Y-59673831D01*
X79842434Y-59535815D01*
X79692184Y-59426652D01*
X79686156Y-59423968D01*
X79686154Y-59423967D01*
X79528552Y-59353798D01*
X79528551Y-59353798D01*
X79522521Y-59351113D01*
X79431690Y-59331806D01*
X79347317Y-59313872D01*
X79347313Y-59313872D01*
X79340860Y-59312500D01*
X79155140Y-59312500D01*
X79148687Y-59313872D01*
X79148683Y-59313872D01*
X79064310Y-59331806D01*
X78973479Y-59351113D01*
X78967450Y-59353797D01*
X78967448Y-59353798D01*
X78809847Y-59423967D01*
X78809845Y-59423968D01*
X78803817Y-59426652D01*
X78798476Y-59430532D01*
X78798475Y-59430533D01*
X78658910Y-59531932D01*
X78658908Y-59531934D01*
X78653566Y-59535815D01*
X78529296Y-59673831D01*
X78525995Y-59679549D01*
X78457896Y-59797500D01*
X78436436Y-59834669D01*
X78379046Y-60011298D01*
X78378356Y-60017861D01*
X78378356Y-60017862D01*
X78376865Y-60032045D01*
X78359633Y-60196000D01*
X77596367Y-60196000D01*
X77579135Y-60032045D01*
X77577644Y-60017862D01*
X77577644Y-60017861D01*
X77576954Y-60011298D01*
X77519564Y-59834669D01*
X77498105Y-59797500D01*
X77430005Y-59679549D01*
X77426704Y-59673831D01*
X77302434Y-59535815D01*
X77152184Y-59426652D01*
X77146156Y-59423968D01*
X77146154Y-59423967D01*
X76988552Y-59353798D01*
X76988551Y-59353798D01*
X76982521Y-59351113D01*
X76891690Y-59331806D01*
X76807317Y-59313872D01*
X76807313Y-59313872D01*
X76800860Y-59312500D01*
X76615140Y-59312500D01*
X76608687Y-59313872D01*
X76608683Y-59313872D01*
X76524310Y-59331806D01*
X76433479Y-59351113D01*
X76427450Y-59353797D01*
X76427448Y-59353798D01*
X76269847Y-59423967D01*
X76269845Y-59423968D01*
X76263817Y-59426652D01*
X76258476Y-59430532D01*
X76258475Y-59430533D01*
X76118910Y-59531932D01*
X76118908Y-59531934D01*
X76113566Y-59535815D01*
X75989296Y-59673831D01*
X75985995Y-59679549D01*
X75917896Y-59797500D01*
X75896436Y-59834669D01*
X75839046Y-60011298D01*
X75838356Y-60017861D01*
X75838356Y-60017862D01*
X75836865Y-60032045D01*
X75819633Y-60196000D01*
X75056367Y-60196000D01*
X75039135Y-60032045D01*
X75037644Y-60017862D01*
X75037644Y-60017861D01*
X75036954Y-60011298D01*
X74979564Y-59834669D01*
X74958105Y-59797500D01*
X74890005Y-59679549D01*
X74886704Y-59673831D01*
X74762434Y-59535815D01*
X74612184Y-59426652D01*
X74606156Y-59423968D01*
X74606154Y-59423967D01*
X74448552Y-59353798D01*
X74448551Y-59353798D01*
X74442521Y-59351113D01*
X74351690Y-59331806D01*
X74267317Y-59313872D01*
X74267313Y-59313872D01*
X74260860Y-59312500D01*
X74075140Y-59312500D01*
X74068687Y-59313872D01*
X74068683Y-59313872D01*
X73984310Y-59331806D01*
X73893479Y-59351113D01*
X73887450Y-59353797D01*
X73887448Y-59353798D01*
X73729847Y-59423967D01*
X73729845Y-59423968D01*
X73723817Y-59426652D01*
X73718476Y-59430532D01*
X73718475Y-59430533D01*
X73578910Y-59531932D01*
X73578908Y-59531934D01*
X73573566Y-59535815D01*
X73449296Y-59673831D01*
X73445995Y-59679549D01*
X73377896Y-59797500D01*
X73356436Y-59834669D01*
X73299046Y-60011298D01*
X73298356Y-60017861D01*
X73298356Y-60017862D01*
X73296865Y-60032045D01*
X73279633Y-60196000D01*
X72516367Y-60196000D01*
X72499135Y-60032045D01*
X72497644Y-60017862D01*
X72497644Y-60017861D01*
X72496954Y-60011298D01*
X72439564Y-59834669D01*
X72418105Y-59797500D01*
X72350005Y-59679549D01*
X72346704Y-59673831D01*
X72222434Y-59535815D01*
X72072184Y-59426652D01*
X72066156Y-59423968D01*
X72066154Y-59423967D01*
X71908552Y-59353798D01*
X71908551Y-59353798D01*
X71902521Y-59351113D01*
X71811690Y-59331806D01*
X71727317Y-59313872D01*
X71727313Y-59313872D01*
X71720860Y-59312500D01*
X71535140Y-59312500D01*
X71528687Y-59313872D01*
X71528683Y-59313872D01*
X71444310Y-59331806D01*
X71353479Y-59351113D01*
X71347450Y-59353797D01*
X71347448Y-59353798D01*
X71189847Y-59423967D01*
X71189845Y-59423968D01*
X71183817Y-59426652D01*
X71178476Y-59430532D01*
X71178475Y-59430533D01*
X71038910Y-59531932D01*
X71038908Y-59531934D01*
X71033566Y-59535815D01*
X70909296Y-59673831D01*
X70905995Y-59679549D01*
X70837896Y-59797500D01*
X70816436Y-59834669D01*
X70759046Y-60011298D01*
X70758356Y-60017861D01*
X70758356Y-60017862D01*
X70756865Y-60032045D01*
X70739633Y-60196000D01*
X69976367Y-60196000D01*
X69959135Y-60032045D01*
X69957644Y-60017862D01*
X69957644Y-60017861D01*
X69956954Y-60011298D01*
X69899564Y-59834669D01*
X69878105Y-59797500D01*
X69810005Y-59679549D01*
X69806704Y-59673831D01*
X69682434Y-59535815D01*
X69532184Y-59426652D01*
X69526156Y-59423968D01*
X69526154Y-59423967D01*
X69368552Y-59353798D01*
X69368551Y-59353798D01*
X69362521Y-59351113D01*
X69271690Y-59331806D01*
X69187317Y-59313872D01*
X69187313Y-59313872D01*
X69180860Y-59312500D01*
X68995140Y-59312500D01*
X68988687Y-59313872D01*
X68988683Y-59313872D01*
X68904310Y-59331806D01*
X68813479Y-59351113D01*
X68807450Y-59353797D01*
X68807448Y-59353798D01*
X68649847Y-59423967D01*
X68649845Y-59423968D01*
X68643817Y-59426652D01*
X68638476Y-59430532D01*
X68638475Y-59430533D01*
X68498910Y-59531932D01*
X68498908Y-59531934D01*
X68493566Y-59535815D01*
X68369296Y-59673831D01*
X68365995Y-59679549D01*
X68297896Y-59797500D01*
X68276436Y-59834669D01*
X68219046Y-60011298D01*
X68218356Y-60017861D01*
X68218356Y-60017862D01*
X68216865Y-60032045D01*
X68199633Y-60196000D01*
X55626500Y-60196000D01*
X55626500Y-58166000D01*
X107544496Y-58166000D01*
X107564458Y-58355928D01*
X107623473Y-58537556D01*
X107718960Y-58702944D01*
X107846747Y-58844866D01*
X108001248Y-58957118D01*
X108007276Y-58959802D01*
X108007278Y-58959803D01*
X108169681Y-59032109D01*
X108175712Y-59034794D01*
X108269112Y-59054647D01*
X108356056Y-59073128D01*
X108356061Y-59073128D01*
X108362513Y-59074500D01*
X108553487Y-59074500D01*
X108559939Y-59073128D01*
X108559944Y-59073128D01*
X108646888Y-59054647D01*
X108740288Y-59034794D01*
X108746319Y-59032109D01*
X108908722Y-58959803D01*
X108908724Y-58959802D01*
X108914752Y-58957118D01*
X109069253Y-58844866D01*
X109197040Y-58702944D01*
X109292527Y-58537556D01*
X109351542Y-58355928D01*
X109371504Y-58166000D01*
X109351542Y-57976072D01*
X109292527Y-57794444D01*
X109197040Y-57629056D01*
X109069253Y-57487134D01*
X108914752Y-57374882D01*
X108908724Y-57372198D01*
X108908722Y-57372197D01*
X108746319Y-57299891D01*
X108746318Y-57299891D01*
X108740288Y-57297206D01*
X108646887Y-57277353D01*
X108559944Y-57258872D01*
X108559939Y-57258872D01*
X108553487Y-57257500D01*
X108362513Y-57257500D01*
X108356061Y-57258872D01*
X108356056Y-57258872D01*
X108269113Y-57277353D01*
X108175712Y-57297206D01*
X108169682Y-57299891D01*
X108169681Y-57299891D01*
X108007278Y-57372197D01*
X108007276Y-57372198D01*
X108001248Y-57374882D01*
X107846747Y-57487134D01*
X107718960Y-57629056D01*
X107623473Y-57794444D01*
X107564458Y-57976072D01*
X107544496Y-58166000D01*
X55626500Y-58166000D01*
X55626500Y-54456000D01*
X74844771Y-54456000D01*
X74863635Y-54635475D01*
X74919401Y-54807107D01*
X75009633Y-54963393D01*
X75130387Y-55097504D01*
X75276385Y-55203578D01*
X75282413Y-55206262D01*
X75282415Y-55206263D01*
X75435217Y-55274295D01*
X75441248Y-55276980D01*
X75529508Y-55295740D01*
X75611311Y-55313128D01*
X75611315Y-55313128D01*
X75617768Y-55314500D01*
X75798232Y-55314500D01*
X75804685Y-55313128D01*
X75804689Y-55313128D01*
X75886492Y-55295740D01*
X75974752Y-55276980D01*
X75980783Y-55274295D01*
X76133585Y-55206263D01*
X76133587Y-55206262D01*
X76139615Y-55203578D01*
X76285613Y-55097504D01*
X76406367Y-54963393D01*
X76496599Y-54807107D01*
X76552365Y-54635475D01*
X76571229Y-54456000D01*
X76844771Y-54456000D01*
X76863635Y-54635475D01*
X76919401Y-54807107D01*
X77009633Y-54963393D01*
X77130387Y-55097504D01*
X77276385Y-55203578D01*
X77282413Y-55206262D01*
X77282415Y-55206263D01*
X77435217Y-55274295D01*
X77441248Y-55276980D01*
X77529508Y-55295740D01*
X77611311Y-55313128D01*
X77611315Y-55313128D01*
X77617768Y-55314500D01*
X77798232Y-55314500D01*
X77804685Y-55313128D01*
X77804689Y-55313128D01*
X77886492Y-55295740D01*
X77974752Y-55276980D01*
X77980783Y-55274295D01*
X78133585Y-55206263D01*
X78133587Y-55206262D01*
X78139615Y-55203578D01*
X78285613Y-55097504D01*
X78406367Y-54963393D01*
X78496599Y-54807107D01*
X78552365Y-54635475D01*
X78571229Y-54456000D01*
X78552365Y-54276525D01*
X78496599Y-54104893D01*
X78406367Y-53948607D01*
X78285613Y-53814496D01*
X78217304Y-53764866D01*
X78144957Y-53712303D01*
X78144956Y-53712302D01*
X78139615Y-53708422D01*
X78133587Y-53705738D01*
X78133585Y-53705737D01*
X77980783Y-53637705D01*
X77980781Y-53637705D01*
X77974752Y-53635020D01*
X77886492Y-53616260D01*
X77804689Y-53598872D01*
X77804685Y-53598872D01*
X77798232Y-53597500D01*
X77617768Y-53597500D01*
X77611315Y-53598872D01*
X77611311Y-53598872D01*
X77529508Y-53616260D01*
X77441248Y-53635020D01*
X77435219Y-53637704D01*
X77435217Y-53637705D01*
X77282416Y-53705737D01*
X77282414Y-53705738D01*
X77276386Y-53708422D01*
X77271045Y-53712302D01*
X77271044Y-53712303D01*
X77135731Y-53810613D01*
X77135729Y-53810615D01*
X77130387Y-53814496D01*
X77009633Y-53948607D01*
X76919401Y-54104893D01*
X76863635Y-54276525D01*
X76844771Y-54456000D01*
X76571229Y-54456000D01*
X76552365Y-54276525D01*
X76496599Y-54104893D01*
X76406367Y-53948607D01*
X76285613Y-53814496D01*
X76217304Y-53764866D01*
X76144957Y-53712303D01*
X76144956Y-53712302D01*
X76139615Y-53708422D01*
X76133587Y-53705738D01*
X76133585Y-53705737D01*
X75980783Y-53637705D01*
X75980781Y-53637705D01*
X75974752Y-53635020D01*
X75886492Y-53616260D01*
X75804689Y-53598872D01*
X75804685Y-53598872D01*
X75798232Y-53597500D01*
X75617768Y-53597500D01*
X75611315Y-53598872D01*
X75611311Y-53598872D01*
X75529508Y-53616260D01*
X75441248Y-53635020D01*
X75435219Y-53637704D01*
X75435217Y-53637705D01*
X75282416Y-53705737D01*
X75282414Y-53705738D01*
X75276386Y-53708422D01*
X75271045Y-53712302D01*
X75271044Y-53712303D01*
X75135731Y-53810613D01*
X75135729Y-53810615D01*
X75130387Y-53814496D01*
X75009633Y-53948607D01*
X74919401Y-54104893D01*
X74863635Y-54276525D01*
X74844771Y-54456000D01*
X55626500Y-54456000D01*
X55626500Y-52456000D01*
X74844771Y-52456000D01*
X74863635Y-52635475D01*
X74919401Y-52807107D01*
X75009633Y-52963393D01*
X75014051Y-52968300D01*
X75014052Y-52968301D01*
X75120029Y-53086000D01*
X75130387Y-53097504D01*
X75276385Y-53203578D01*
X75282413Y-53206262D01*
X75282415Y-53206263D01*
X75424144Y-53269365D01*
X75441248Y-53276980D01*
X75529508Y-53295740D01*
X75611311Y-53313128D01*
X75611315Y-53313128D01*
X75617768Y-53314500D01*
X75798232Y-53314500D01*
X75804685Y-53313128D01*
X75804689Y-53313128D01*
X75886492Y-53295740D01*
X75974752Y-53276980D01*
X75991856Y-53269365D01*
X76133585Y-53206263D01*
X76133587Y-53206262D01*
X76139615Y-53203578D01*
X76285613Y-53097504D01*
X76295971Y-53086000D01*
X107544496Y-53086000D01*
X107564458Y-53275928D01*
X107623473Y-53457556D01*
X107718960Y-53622944D01*
X107846747Y-53764866D01*
X108001248Y-53877118D01*
X108007276Y-53879802D01*
X108007278Y-53879803D01*
X108169681Y-53952109D01*
X108175712Y-53954794D01*
X108269112Y-53974647D01*
X108356056Y-53993128D01*
X108356061Y-53993128D01*
X108362513Y-53994500D01*
X108553487Y-53994500D01*
X108559939Y-53993128D01*
X108559944Y-53993128D01*
X108646887Y-53974647D01*
X108740288Y-53954794D01*
X108746319Y-53952109D01*
X108908722Y-53879803D01*
X108908724Y-53879802D01*
X108914752Y-53877118D01*
X109069253Y-53764866D01*
X109197040Y-53622944D01*
X109292527Y-53457556D01*
X109351542Y-53275928D01*
X109371504Y-53086000D01*
X109370814Y-53079435D01*
X109352232Y-52902635D01*
X109352232Y-52902633D01*
X109351542Y-52896072D01*
X109292527Y-52714444D01*
X109197040Y-52549056D01*
X109069253Y-52407134D01*
X108914752Y-52294882D01*
X108908724Y-52292198D01*
X108908722Y-52292197D01*
X108746319Y-52219891D01*
X108746318Y-52219891D01*
X108740288Y-52217206D01*
X108646887Y-52197353D01*
X108559944Y-52178872D01*
X108559939Y-52178872D01*
X108553487Y-52177500D01*
X108362513Y-52177500D01*
X108356061Y-52178872D01*
X108356056Y-52178872D01*
X108269113Y-52197353D01*
X108175712Y-52217206D01*
X108169682Y-52219891D01*
X108169681Y-52219891D01*
X108007278Y-52292197D01*
X108007276Y-52292198D01*
X108001248Y-52294882D01*
X107846747Y-52407134D01*
X107718960Y-52549056D01*
X107623473Y-52714444D01*
X107564458Y-52896072D01*
X107563768Y-52902633D01*
X107563768Y-52902635D01*
X107545186Y-53079435D01*
X107544496Y-53086000D01*
X76295971Y-53086000D01*
X76401948Y-52968301D01*
X76401949Y-52968300D01*
X76406367Y-52963393D01*
X76496599Y-52807107D01*
X76552365Y-52635475D01*
X76571229Y-52456000D01*
X76554702Y-52298763D01*
X76553055Y-52283089D01*
X76553055Y-52283088D01*
X76552365Y-52276525D01*
X76496599Y-52104893D01*
X76406367Y-51948607D01*
X76285613Y-51814496D01*
X76139615Y-51708422D01*
X76133587Y-51705738D01*
X76133585Y-51705737D01*
X75980783Y-51637705D01*
X75980781Y-51637705D01*
X75974752Y-51635020D01*
X75886492Y-51616260D01*
X75804689Y-51598872D01*
X75804685Y-51598872D01*
X75798232Y-51597500D01*
X75617768Y-51597500D01*
X75611315Y-51598872D01*
X75611311Y-51598872D01*
X75529508Y-51616260D01*
X75441248Y-51635020D01*
X75435219Y-51637704D01*
X75435217Y-51637705D01*
X75282416Y-51705737D01*
X75282414Y-51705738D01*
X75276386Y-51708422D01*
X75271045Y-51712302D01*
X75271044Y-51712303D01*
X75135731Y-51810613D01*
X75135729Y-51810615D01*
X75130387Y-51814496D01*
X75009633Y-51948607D01*
X74919401Y-52104893D01*
X74863635Y-52276525D01*
X74862945Y-52283088D01*
X74862945Y-52283089D01*
X74861298Y-52298763D01*
X74844771Y-52456000D01*
X55626500Y-52456000D01*
X55626500Y-50546000D01*
X64364496Y-50546000D01*
X64384458Y-50735928D01*
X64443473Y-50917556D01*
X64538960Y-51082944D01*
X64666747Y-51224866D01*
X64821248Y-51337118D01*
X64827276Y-51339802D01*
X64827278Y-51339803D01*
X64989681Y-51412109D01*
X64995712Y-51414794D01*
X65089113Y-51434647D01*
X65176056Y-51453128D01*
X65176061Y-51453128D01*
X65182513Y-51454500D01*
X65373487Y-51454500D01*
X65379939Y-51453128D01*
X65379944Y-51453128D01*
X65466888Y-51434647D01*
X65560288Y-51414794D01*
X65566319Y-51412109D01*
X65728722Y-51339803D01*
X65728724Y-51339802D01*
X65734752Y-51337118D01*
X65889253Y-51224866D01*
X66017040Y-51082944D01*
X66112527Y-50917556D01*
X66171542Y-50735928D01*
X66191504Y-50546000D01*
X66182045Y-50456000D01*
X74844771Y-50456000D01*
X74863635Y-50635475D01*
X74919401Y-50807107D01*
X75009633Y-50963393D01*
X75014051Y-50968300D01*
X75014052Y-50968301D01*
X75117277Y-51082944D01*
X75130387Y-51097504D01*
X75276385Y-51203578D01*
X75282413Y-51206262D01*
X75282415Y-51206263D01*
X75435217Y-51274295D01*
X75441248Y-51276980D01*
X75529508Y-51295740D01*
X75611311Y-51313128D01*
X75611315Y-51313128D01*
X75617768Y-51314500D01*
X75798232Y-51314500D01*
X75804685Y-51313128D01*
X75804689Y-51313128D01*
X75886492Y-51295740D01*
X75974752Y-51276980D01*
X75980783Y-51274295D01*
X76133585Y-51206263D01*
X76133587Y-51206262D01*
X76139615Y-51203578D01*
X76285613Y-51097504D01*
X76298723Y-51082944D01*
X76401948Y-50968301D01*
X76401949Y-50968300D01*
X76406367Y-50963393D01*
X76496599Y-50807107D01*
X76552365Y-50635475D01*
X76571229Y-50456000D01*
X76844771Y-50456000D01*
X76863635Y-50635475D01*
X76919401Y-50807107D01*
X77009633Y-50963393D01*
X77014051Y-50968300D01*
X77014052Y-50968301D01*
X77117277Y-51082944D01*
X77130387Y-51097504D01*
X77276385Y-51203578D01*
X77282413Y-51206262D01*
X77282415Y-51206263D01*
X77435217Y-51274295D01*
X77441248Y-51276980D01*
X77529508Y-51295740D01*
X77611311Y-51313128D01*
X77611315Y-51313128D01*
X77617768Y-51314500D01*
X77798232Y-51314500D01*
X77804685Y-51313128D01*
X77804689Y-51313128D01*
X77886492Y-51295740D01*
X77974752Y-51276980D01*
X77980783Y-51274295D01*
X78133585Y-51206263D01*
X78133587Y-51206262D01*
X78139615Y-51203578D01*
X78285613Y-51097504D01*
X78298723Y-51082944D01*
X78401948Y-50968301D01*
X78401949Y-50968300D01*
X78406367Y-50963393D01*
X78496599Y-50807107D01*
X78552365Y-50635475D01*
X78561769Y-50546000D01*
X107544496Y-50546000D01*
X107564458Y-50735928D01*
X107623473Y-50917556D01*
X107718960Y-51082944D01*
X107846747Y-51224866D01*
X108001248Y-51337118D01*
X108007276Y-51339802D01*
X108007278Y-51339803D01*
X108169681Y-51412109D01*
X108175712Y-51414794D01*
X108269113Y-51434647D01*
X108356056Y-51453128D01*
X108356061Y-51453128D01*
X108362513Y-51454500D01*
X108553487Y-51454500D01*
X108559939Y-51453128D01*
X108559944Y-51453128D01*
X108646888Y-51434647D01*
X108740288Y-51414794D01*
X108746319Y-51412109D01*
X108908722Y-51339803D01*
X108908724Y-51339802D01*
X108914752Y-51337118D01*
X109069253Y-51224866D01*
X109197040Y-51082944D01*
X109292527Y-50917556D01*
X109351542Y-50735928D01*
X109371504Y-50546000D01*
X109351542Y-50356072D01*
X109292527Y-50174444D01*
X109197040Y-50009056D01*
X109138193Y-49943699D01*
X109073675Y-49872045D01*
X109073674Y-49872044D01*
X109069253Y-49867134D01*
X108914752Y-49754882D01*
X108908724Y-49752198D01*
X108908722Y-49752197D01*
X108746319Y-49679891D01*
X108746318Y-49679891D01*
X108740288Y-49677206D01*
X108646888Y-49657353D01*
X108559944Y-49638872D01*
X108559939Y-49638872D01*
X108553487Y-49637500D01*
X108362513Y-49637500D01*
X108356061Y-49638872D01*
X108356056Y-49638872D01*
X108269113Y-49657353D01*
X108175712Y-49677206D01*
X108169682Y-49679891D01*
X108169681Y-49679891D01*
X108007278Y-49752197D01*
X108007276Y-49752198D01*
X108001248Y-49754882D01*
X107846747Y-49867134D01*
X107842326Y-49872044D01*
X107842325Y-49872045D01*
X107777808Y-49943699D01*
X107718960Y-50009056D01*
X107623473Y-50174444D01*
X107564458Y-50356072D01*
X107544496Y-50546000D01*
X78561769Y-50546000D01*
X78571229Y-50456000D01*
X78552365Y-50276525D01*
X78496599Y-50104893D01*
X78406367Y-49948607D01*
X78333009Y-49867134D01*
X78290035Y-49819407D01*
X78290034Y-49819406D01*
X78285613Y-49814496D01*
X78208904Y-49758763D01*
X78144957Y-49712303D01*
X78144956Y-49712302D01*
X78139615Y-49708422D01*
X78133587Y-49705738D01*
X78133585Y-49705737D01*
X77980783Y-49637705D01*
X77980781Y-49637705D01*
X77974752Y-49635020D01*
X77886492Y-49616260D01*
X77804689Y-49598872D01*
X77804685Y-49598872D01*
X77798232Y-49597500D01*
X77617768Y-49597500D01*
X77611315Y-49598872D01*
X77611311Y-49598872D01*
X77529508Y-49616260D01*
X77441248Y-49635020D01*
X77435219Y-49637704D01*
X77435217Y-49637705D01*
X77282416Y-49705737D01*
X77282414Y-49705738D01*
X77276386Y-49708422D01*
X77271045Y-49712302D01*
X77271044Y-49712303D01*
X77135731Y-49810613D01*
X77135729Y-49810615D01*
X77130387Y-49814496D01*
X77125966Y-49819406D01*
X77125965Y-49819407D01*
X77082992Y-49867134D01*
X77009633Y-49948607D01*
X76919401Y-50104893D01*
X76863635Y-50276525D01*
X76844771Y-50456000D01*
X76571229Y-50456000D01*
X76552365Y-50276525D01*
X76496599Y-50104893D01*
X76406367Y-49948607D01*
X76333009Y-49867134D01*
X76290035Y-49819407D01*
X76290034Y-49819406D01*
X76285613Y-49814496D01*
X76208904Y-49758763D01*
X76144957Y-49712303D01*
X76144956Y-49712302D01*
X76139615Y-49708422D01*
X76133587Y-49705738D01*
X76133585Y-49705737D01*
X75980783Y-49637705D01*
X75980781Y-49637705D01*
X75974752Y-49635020D01*
X75886492Y-49616260D01*
X75804689Y-49598872D01*
X75804685Y-49598872D01*
X75798232Y-49597500D01*
X75617768Y-49597500D01*
X75611315Y-49598872D01*
X75611311Y-49598872D01*
X75529508Y-49616260D01*
X75441248Y-49635020D01*
X75435219Y-49637704D01*
X75435217Y-49637705D01*
X75282416Y-49705737D01*
X75282414Y-49705738D01*
X75276386Y-49708422D01*
X75271045Y-49712302D01*
X75271044Y-49712303D01*
X75135731Y-49810613D01*
X75135729Y-49810615D01*
X75130387Y-49814496D01*
X75125966Y-49819406D01*
X75125965Y-49819407D01*
X75082992Y-49867134D01*
X75009633Y-49948607D01*
X74919401Y-50104893D01*
X74863635Y-50276525D01*
X74844771Y-50456000D01*
X66182045Y-50456000D01*
X66171542Y-50356072D01*
X66112527Y-50174444D01*
X66017040Y-50009056D01*
X65958193Y-49943699D01*
X65893675Y-49872045D01*
X65893674Y-49872044D01*
X65889253Y-49867134D01*
X65734752Y-49754882D01*
X65728724Y-49752198D01*
X65728722Y-49752197D01*
X65566319Y-49679891D01*
X65566318Y-49679891D01*
X65560288Y-49677206D01*
X65466888Y-49657353D01*
X65379944Y-49638872D01*
X65379939Y-49638872D01*
X65373487Y-49637500D01*
X65182513Y-49637500D01*
X65176061Y-49638872D01*
X65176056Y-49638872D01*
X65089113Y-49657353D01*
X64995712Y-49677206D01*
X64989682Y-49679891D01*
X64989681Y-49679891D01*
X64827278Y-49752197D01*
X64827276Y-49752198D01*
X64821248Y-49754882D01*
X64666747Y-49867134D01*
X64662326Y-49872044D01*
X64662325Y-49872045D01*
X64597808Y-49943699D01*
X64538960Y-50009056D01*
X64443473Y-50174444D01*
X64384458Y-50356072D01*
X64364496Y-50546000D01*
X55626500Y-50546000D01*
X55626500Y-49059476D01*
X55628921Y-49034894D01*
X55629065Y-49034170D01*
X55631486Y-49022000D01*
X55629065Y-49009828D01*
X55629065Y-48997420D01*
X55629385Y-48997420D01*
X55628645Y-48986544D01*
X55642704Y-48754120D01*
X55644538Y-48739016D01*
X55691538Y-48482542D01*
X55695179Y-48467769D01*
X55721507Y-48383279D01*
X55772755Y-48218820D01*
X55778149Y-48204598D01*
X55785005Y-48189365D01*
X55867531Y-48006000D01*
X61824496Y-48006000D01*
X61844458Y-48195928D01*
X61903473Y-48377556D01*
X61906776Y-48383278D01*
X61906777Y-48383279D01*
X61926378Y-48417229D01*
X61998960Y-48542944D01*
X62126747Y-48684866D01*
X62281248Y-48797118D01*
X62287276Y-48799802D01*
X62287278Y-48799803D01*
X62449681Y-48872109D01*
X62455712Y-48874794D01*
X62549112Y-48894647D01*
X62636056Y-48913128D01*
X62636061Y-48913128D01*
X62642513Y-48914500D01*
X62833487Y-48914500D01*
X62839939Y-48913128D01*
X62839944Y-48913128D01*
X62926888Y-48894647D01*
X63020288Y-48874794D01*
X63026319Y-48872109D01*
X63188722Y-48799803D01*
X63188724Y-48799802D01*
X63194752Y-48797118D01*
X63349253Y-48684866D01*
X63477040Y-48542944D01*
X63549622Y-48417229D01*
X63569223Y-48383279D01*
X63569224Y-48383278D01*
X63572527Y-48377556D01*
X63631542Y-48195928D01*
X63651504Y-48006000D01*
X66904496Y-48006000D01*
X66924458Y-48195928D01*
X66983473Y-48377556D01*
X66986776Y-48383278D01*
X66986777Y-48383279D01*
X67006378Y-48417229D01*
X67078960Y-48542944D01*
X67206747Y-48684866D01*
X67361248Y-48797118D01*
X67367276Y-48799802D01*
X67367278Y-48799803D01*
X67529681Y-48872109D01*
X67535712Y-48874794D01*
X67629112Y-48894647D01*
X67716056Y-48913128D01*
X67716061Y-48913128D01*
X67722513Y-48914500D01*
X67913487Y-48914500D01*
X67919939Y-48913128D01*
X67919944Y-48913128D01*
X68006888Y-48894647D01*
X68100288Y-48874794D01*
X68106319Y-48872109D01*
X68268722Y-48799803D01*
X68268724Y-48799802D01*
X68274752Y-48797118D01*
X68429253Y-48684866D01*
X68557040Y-48542944D01*
X68629622Y-48417229D01*
X68649223Y-48383279D01*
X68649224Y-48383278D01*
X68652527Y-48377556D01*
X68711542Y-48195928D01*
X68731504Y-48006000D01*
X69444496Y-48006000D01*
X69464458Y-48195928D01*
X69523473Y-48377556D01*
X69526776Y-48383278D01*
X69526777Y-48383279D01*
X69546378Y-48417229D01*
X69618960Y-48542944D01*
X69746747Y-48684866D01*
X69901248Y-48797118D01*
X69907276Y-48799802D01*
X69907278Y-48799803D01*
X70069681Y-48872109D01*
X70075712Y-48874794D01*
X70169112Y-48894647D01*
X70256056Y-48913128D01*
X70256061Y-48913128D01*
X70262513Y-48914500D01*
X70453487Y-48914500D01*
X70459939Y-48913128D01*
X70459944Y-48913128D01*
X70546888Y-48894647D01*
X70640288Y-48874794D01*
X70646319Y-48872109D01*
X70808722Y-48799803D01*
X70808724Y-48799802D01*
X70814752Y-48797118D01*
X70969253Y-48684866D01*
X71097040Y-48542944D01*
X71169622Y-48417229D01*
X71189223Y-48383279D01*
X71189224Y-48383278D01*
X71192527Y-48377556D01*
X71251542Y-48195928D01*
X71271504Y-48006000D01*
X71984496Y-48006000D01*
X72004458Y-48195928D01*
X72063473Y-48377556D01*
X72066776Y-48383278D01*
X72066777Y-48383279D01*
X72086378Y-48417229D01*
X72158960Y-48542944D01*
X72286747Y-48684866D01*
X72441248Y-48797118D01*
X72447276Y-48799802D01*
X72447278Y-48799803D01*
X72609681Y-48872109D01*
X72615712Y-48874794D01*
X72709112Y-48894647D01*
X72796056Y-48913128D01*
X72796061Y-48913128D01*
X72802513Y-48914500D01*
X72993487Y-48914500D01*
X72999939Y-48913128D01*
X72999944Y-48913128D01*
X73086888Y-48894647D01*
X73180288Y-48874794D01*
X73186319Y-48872109D01*
X73348722Y-48799803D01*
X73348724Y-48799802D01*
X73354752Y-48797118D01*
X73509253Y-48684866D01*
X73637040Y-48542944D01*
X73709622Y-48417229D01*
X73729223Y-48383279D01*
X73729224Y-48383278D01*
X73732527Y-48377556D01*
X73791542Y-48195928D01*
X73811504Y-48006000D01*
X74524496Y-48006000D01*
X74544458Y-48195928D01*
X74603473Y-48377556D01*
X74606776Y-48383278D01*
X74606777Y-48383279D01*
X74626378Y-48417229D01*
X74698960Y-48542944D01*
X74826747Y-48684866D01*
X74981248Y-48797118D01*
X74987276Y-48799802D01*
X74987278Y-48799803D01*
X75149681Y-48872109D01*
X75155712Y-48874794D01*
X75249112Y-48894647D01*
X75336056Y-48913128D01*
X75336061Y-48913128D01*
X75342513Y-48914500D01*
X75533487Y-48914500D01*
X75539939Y-48913128D01*
X75539944Y-48913128D01*
X75626888Y-48894647D01*
X75720288Y-48874794D01*
X75726319Y-48872109D01*
X75888722Y-48799803D01*
X75888724Y-48799802D01*
X75894752Y-48797118D01*
X76049253Y-48684866D01*
X76177040Y-48542944D01*
X76249622Y-48417229D01*
X76269223Y-48383279D01*
X76269224Y-48383278D01*
X76272527Y-48377556D01*
X76331542Y-48195928D01*
X76351504Y-48006000D01*
X77064496Y-48006000D01*
X77084458Y-48195928D01*
X77143473Y-48377556D01*
X77146776Y-48383278D01*
X77146777Y-48383279D01*
X77166378Y-48417229D01*
X77238960Y-48542944D01*
X77366747Y-48684866D01*
X77521248Y-48797118D01*
X77527276Y-48799802D01*
X77527278Y-48799803D01*
X77689681Y-48872109D01*
X77695712Y-48874794D01*
X77789112Y-48894647D01*
X77876056Y-48913128D01*
X77876061Y-48913128D01*
X77882513Y-48914500D01*
X78073487Y-48914500D01*
X78079939Y-48913128D01*
X78079944Y-48913128D01*
X78166888Y-48894647D01*
X78260288Y-48874794D01*
X78266319Y-48872109D01*
X78428722Y-48799803D01*
X78428724Y-48799802D01*
X78434752Y-48797118D01*
X78589253Y-48684866D01*
X78717040Y-48542944D01*
X78789622Y-48417229D01*
X78809223Y-48383279D01*
X78809224Y-48383278D01*
X78812527Y-48377556D01*
X78871542Y-48195928D01*
X78891504Y-48006000D01*
X79604496Y-48006000D01*
X79624458Y-48195928D01*
X79683473Y-48377556D01*
X79686776Y-48383278D01*
X79686777Y-48383279D01*
X79706378Y-48417229D01*
X79778960Y-48542944D01*
X79906747Y-48684866D01*
X80061248Y-48797118D01*
X80067276Y-48799802D01*
X80067278Y-48799803D01*
X80229681Y-48872109D01*
X80235712Y-48874794D01*
X80329112Y-48894647D01*
X80416056Y-48913128D01*
X80416061Y-48913128D01*
X80422513Y-48914500D01*
X80613487Y-48914500D01*
X80619939Y-48913128D01*
X80619944Y-48913128D01*
X80706888Y-48894647D01*
X80800288Y-48874794D01*
X80806319Y-48872109D01*
X80968722Y-48799803D01*
X80968724Y-48799802D01*
X80974752Y-48797118D01*
X81129253Y-48684866D01*
X81257040Y-48542944D01*
X81329622Y-48417229D01*
X81349223Y-48383279D01*
X81349224Y-48383278D01*
X81352527Y-48377556D01*
X81411542Y-48195928D01*
X81431504Y-48006000D01*
X82144496Y-48006000D01*
X82164458Y-48195928D01*
X82223473Y-48377556D01*
X82226776Y-48383278D01*
X82226777Y-48383279D01*
X82246378Y-48417229D01*
X82318960Y-48542944D01*
X82446747Y-48684866D01*
X82601248Y-48797118D01*
X82607276Y-48799802D01*
X82607278Y-48799803D01*
X82769681Y-48872109D01*
X82775712Y-48874794D01*
X82869112Y-48894647D01*
X82956056Y-48913128D01*
X82956061Y-48913128D01*
X82962513Y-48914500D01*
X83153487Y-48914500D01*
X83159939Y-48913128D01*
X83159944Y-48913128D01*
X83246888Y-48894647D01*
X83340288Y-48874794D01*
X83346319Y-48872109D01*
X83508722Y-48799803D01*
X83508724Y-48799802D01*
X83514752Y-48797118D01*
X83669253Y-48684866D01*
X83797040Y-48542944D01*
X83869622Y-48417229D01*
X83889223Y-48383279D01*
X83889224Y-48383278D01*
X83892527Y-48377556D01*
X83951542Y-48195928D01*
X83971504Y-48006000D01*
X84684496Y-48006000D01*
X84704458Y-48195928D01*
X84763473Y-48377556D01*
X84766776Y-48383278D01*
X84766777Y-48383279D01*
X84786378Y-48417229D01*
X84858960Y-48542944D01*
X84986747Y-48684866D01*
X85141248Y-48797118D01*
X85147276Y-48799802D01*
X85147278Y-48799803D01*
X85309681Y-48872109D01*
X85315712Y-48874794D01*
X85409112Y-48894647D01*
X85496056Y-48913128D01*
X85496061Y-48913128D01*
X85502513Y-48914500D01*
X85693487Y-48914500D01*
X85699939Y-48913128D01*
X85699944Y-48913128D01*
X85786888Y-48894647D01*
X85880288Y-48874794D01*
X85886319Y-48872109D01*
X86048722Y-48799803D01*
X86048724Y-48799802D01*
X86054752Y-48797118D01*
X86209253Y-48684866D01*
X86337040Y-48542944D01*
X86409622Y-48417229D01*
X86429223Y-48383279D01*
X86429224Y-48383278D01*
X86432527Y-48377556D01*
X86491542Y-48195928D01*
X86511504Y-48006000D01*
X87224496Y-48006000D01*
X87244458Y-48195928D01*
X87303473Y-48377556D01*
X87306776Y-48383278D01*
X87306777Y-48383279D01*
X87326378Y-48417229D01*
X87398960Y-48542944D01*
X87526747Y-48684866D01*
X87681248Y-48797118D01*
X87687276Y-48799802D01*
X87687278Y-48799803D01*
X87849681Y-48872109D01*
X87855712Y-48874794D01*
X87949112Y-48894647D01*
X88036056Y-48913128D01*
X88036061Y-48913128D01*
X88042513Y-48914500D01*
X88233487Y-48914500D01*
X88239939Y-48913128D01*
X88239944Y-48913128D01*
X88326888Y-48894647D01*
X88420288Y-48874794D01*
X88426319Y-48872109D01*
X88588722Y-48799803D01*
X88588724Y-48799802D01*
X88594752Y-48797118D01*
X88749253Y-48684866D01*
X88877040Y-48542944D01*
X88949622Y-48417229D01*
X88969223Y-48383279D01*
X88969224Y-48383278D01*
X88972527Y-48377556D01*
X89031542Y-48195928D01*
X89051504Y-48006000D01*
X89764496Y-48006000D01*
X89784458Y-48195928D01*
X89843473Y-48377556D01*
X89846776Y-48383278D01*
X89846777Y-48383279D01*
X89866378Y-48417229D01*
X89938960Y-48542944D01*
X90066747Y-48684866D01*
X90221248Y-48797118D01*
X90227276Y-48799802D01*
X90227278Y-48799803D01*
X90389681Y-48872109D01*
X90395712Y-48874794D01*
X90489112Y-48894647D01*
X90576056Y-48913128D01*
X90576061Y-48913128D01*
X90582513Y-48914500D01*
X90773487Y-48914500D01*
X90779939Y-48913128D01*
X90779944Y-48913128D01*
X90866888Y-48894647D01*
X90960288Y-48874794D01*
X90966319Y-48872109D01*
X91128722Y-48799803D01*
X91128724Y-48799802D01*
X91134752Y-48797118D01*
X91289253Y-48684866D01*
X91417040Y-48542944D01*
X91489622Y-48417229D01*
X91509223Y-48383279D01*
X91509224Y-48383278D01*
X91512527Y-48377556D01*
X91571542Y-48195928D01*
X91591504Y-48006000D01*
X92304496Y-48006000D01*
X92324458Y-48195928D01*
X92383473Y-48377556D01*
X92386776Y-48383278D01*
X92386777Y-48383279D01*
X92406378Y-48417229D01*
X92478960Y-48542944D01*
X92606747Y-48684866D01*
X92761248Y-48797118D01*
X92767276Y-48799802D01*
X92767278Y-48799803D01*
X92929681Y-48872109D01*
X92935712Y-48874794D01*
X93029112Y-48894647D01*
X93116056Y-48913128D01*
X93116061Y-48913128D01*
X93122513Y-48914500D01*
X93313487Y-48914500D01*
X93319939Y-48913128D01*
X93319944Y-48913128D01*
X93406888Y-48894647D01*
X93500288Y-48874794D01*
X93506319Y-48872109D01*
X93668722Y-48799803D01*
X93668724Y-48799802D01*
X93674752Y-48797118D01*
X93829253Y-48684866D01*
X93957040Y-48542944D01*
X94029622Y-48417229D01*
X94049223Y-48383279D01*
X94049224Y-48383278D01*
X94052527Y-48377556D01*
X94111542Y-48195928D01*
X94131504Y-48006000D01*
X94844496Y-48006000D01*
X94864458Y-48195928D01*
X94923473Y-48377556D01*
X94926776Y-48383278D01*
X94926777Y-48383279D01*
X94946378Y-48417229D01*
X95018960Y-48542944D01*
X95146747Y-48684866D01*
X95301248Y-48797118D01*
X95307276Y-48799802D01*
X95307278Y-48799803D01*
X95469681Y-48872109D01*
X95475712Y-48874794D01*
X95569112Y-48894647D01*
X95656056Y-48913128D01*
X95656061Y-48913128D01*
X95662513Y-48914500D01*
X95853487Y-48914500D01*
X95859939Y-48913128D01*
X95859944Y-48913128D01*
X95946888Y-48894647D01*
X96040288Y-48874794D01*
X96046319Y-48872109D01*
X96208722Y-48799803D01*
X96208724Y-48799802D01*
X96214752Y-48797118D01*
X96369253Y-48684866D01*
X96497040Y-48542944D01*
X96569622Y-48417229D01*
X96589223Y-48383279D01*
X96589224Y-48383278D01*
X96592527Y-48377556D01*
X96651542Y-48195928D01*
X96671504Y-48006000D01*
X99924496Y-48006000D01*
X99944458Y-48195928D01*
X100003473Y-48377556D01*
X100006776Y-48383278D01*
X100006777Y-48383279D01*
X100026378Y-48417229D01*
X100098960Y-48542944D01*
X100226747Y-48684866D01*
X100381248Y-48797118D01*
X100387276Y-48799802D01*
X100387278Y-48799803D01*
X100549681Y-48872109D01*
X100555712Y-48874794D01*
X100649112Y-48894647D01*
X100736056Y-48913128D01*
X100736061Y-48913128D01*
X100742513Y-48914500D01*
X100933487Y-48914500D01*
X100939939Y-48913128D01*
X100939944Y-48913128D01*
X101026888Y-48894647D01*
X101120288Y-48874794D01*
X101126319Y-48872109D01*
X101288722Y-48799803D01*
X101288724Y-48799802D01*
X101294752Y-48797118D01*
X101449253Y-48684866D01*
X101577040Y-48542944D01*
X101649622Y-48417229D01*
X101669223Y-48383279D01*
X101669224Y-48383278D01*
X101672527Y-48377556D01*
X101731542Y-48195928D01*
X101751504Y-48006000D01*
X102464496Y-48006000D01*
X102484458Y-48195928D01*
X102543473Y-48377556D01*
X102546776Y-48383278D01*
X102546777Y-48383279D01*
X102566378Y-48417229D01*
X102638960Y-48542944D01*
X102766747Y-48684866D01*
X102921248Y-48797118D01*
X102927276Y-48799802D01*
X102927278Y-48799803D01*
X103089681Y-48872109D01*
X103095712Y-48874794D01*
X103189112Y-48894647D01*
X103276056Y-48913128D01*
X103276061Y-48913128D01*
X103282513Y-48914500D01*
X103473487Y-48914500D01*
X103479939Y-48913128D01*
X103479944Y-48913128D01*
X103566888Y-48894647D01*
X103660288Y-48874794D01*
X103666319Y-48872109D01*
X103828722Y-48799803D01*
X103828724Y-48799802D01*
X103834752Y-48797118D01*
X103989253Y-48684866D01*
X104117040Y-48542944D01*
X104189622Y-48417229D01*
X104209223Y-48383279D01*
X104209224Y-48383278D01*
X104212527Y-48377556D01*
X104271542Y-48195928D01*
X104291504Y-48006000D01*
X105004496Y-48006000D01*
X105024458Y-48195928D01*
X105083473Y-48377556D01*
X105086776Y-48383278D01*
X105086777Y-48383279D01*
X105106378Y-48417229D01*
X105178960Y-48542944D01*
X105306747Y-48684866D01*
X105461248Y-48797118D01*
X105467276Y-48799802D01*
X105467278Y-48799803D01*
X105629681Y-48872109D01*
X105635712Y-48874794D01*
X105729112Y-48894647D01*
X105816056Y-48913128D01*
X105816061Y-48913128D01*
X105822513Y-48914500D01*
X106013487Y-48914500D01*
X106019939Y-48913128D01*
X106019944Y-48913128D01*
X106106888Y-48894647D01*
X106200288Y-48874794D01*
X106206319Y-48872109D01*
X106368722Y-48799803D01*
X106368724Y-48799802D01*
X106374752Y-48797118D01*
X106529253Y-48684866D01*
X106657040Y-48542944D01*
X106729622Y-48417229D01*
X106749223Y-48383279D01*
X106749224Y-48383278D01*
X106752527Y-48377556D01*
X106811542Y-48195928D01*
X106831504Y-48006000D01*
X107544496Y-48006000D01*
X107564458Y-48195928D01*
X107623473Y-48377556D01*
X107626776Y-48383278D01*
X107626777Y-48383279D01*
X107646378Y-48417229D01*
X107718960Y-48542944D01*
X107846747Y-48684866D01*
X108001248Y-48797118D01*
X108007276Y-48799802D01*
X108007278Y-48799803D01*
X108169681Y-48872109D01*
X108175712Y-48874794D01*
X108269112Y-48894647D01*
X108356056Y-48913128D01*
X108356061Y-48913128D01*
X108362513Y-48914500D01*
X108553487Y-48914500D01*
X108559939Y-48913128D01*
X108559944Y-48913128D01*
X108646888Y-48894647D01*
X108740288Y-48874794D01*
X108746319Y-48872109D01*
X108908722Y-48799803D01*
X108908724Y-48799802D01*
X108914752Y-48797118D01*
X109069253Y-48684866D01*
X109197040Y-48542944D01*
X109269622Y-48417229D01*
X109289223Y-48383279D01*
X109289224Y-48383278D01*
X109292527Y-48377556D01*
X109351542Y-48195928D01*
X109371504Y-48006000D01*
X110084496Y-48006000D01*
X110104458Y-48195928D01*
X110163473Y-48377556D01*
X110166776Y-48383278D01*
X110166777Y-48383279D01*
X110186378Y-48417229D01*
X110258960Y-48542944D01*
X110386747Y-48684866D01*
X110541248Y-48797118D01*
X110547276Y-48799802D01*
X110547278Y-48799803D01*
X110709681Y-48872109D01*
X110715712Y-48874794D01*
X110809112Y-48894647D01*
X110896056Y-48913128D01*
X110896061Y-48913128D01*
X110902513Y-48914500D01*
X111093487Y-48914500D01*
X111099939Y-48913128D01*
X111099944Y-48913128D01*
X111186888Y-48894647D01*
X111280288Y-48874794D01*
X111286319Y-48872109D01*
X111448722Y-48799803D01*
X111448724Y-48799802D01*
X111454752Y-48797118D01*
X111609253Y-48684866D01*
X111737040Y-48542944D01*
X111809622Y-48417229D01*
X111829223Y-48383279D01*
X111829224Y-48383278D01*
X111832527Y-48377556D01*
X111891542Y-48195928D01*
X111911504Y-48006000D01*
X112624496Y-48006000D01*
X112644458Y-48195928D01*
X112703473Y-48377556D01*
X112706776Y-48383278D01*
X112706777Y-48383279D01*
X112726378Y-48417229D01*
X112798960Y-48542944D01*
X112926747Y-48684866D01*
X113081248Y-48797118D01*
X113087276Y-48799802D01*
X113087278Y-48799803D01*
X113249681Y-48872109D01*
X113255712Y-48874794D01*
X113349112Y-48894647D01*
X113436056Y-48913128D01*
X113436061Y-48913128D01*
X113442513Y-48914500D01*
X113633487Y-48914500D01*
X113639939Y-48913128D01*
X113639944Y-48913128D01*
X113726888Y-48894647D01*
X113820288Y-48874794D01*
X113826319Y-48872109D01*
X113988722Y-48799803D01*
X113988724Y-48799802D01*
X113994752Y-48797118D01*
X114149253Y-48684866D01*
X114277040Y-48542944D01*
X114349622Y-48417229D01*
X114369223Y-48383279D01*
X114369224Y-48383278D01*
X114372527Y-48377556D01*
X114431542Y-48195928D01*
X114451504Y-48006000D01*
X115164496Y-48006000D01*
X115184458Y-48195928D01*
X115243473Y-48377556D01*
X115246776Y-48383278D01*
X115246777Y-48383279D01*
X115266378Y-48417229D01*
X115338960Y-48542944D01*
X115466747Y-48684866D01*
X115621248Y-48797118D01*
X115627276Y-48799802D01*
X115627278Y-48799803D01*
X115789681Y-48872109D01*
X115795712Y-48874794D01*
X115889112Y-48894647D01*
X115976056Y-48913128D01*
X115976061Y-48913128D01*
X115982513Y-48914500D01*
X116173487Y-48914500D01*
X116179939Y-48913128D01*
X116179944Y-48913128D01*
X116266888Y-48894647D01*
X116360288Y-48874794D01*
X116366319Y-48872109D01*
X116528722Y-48799803D01*
X116528724Y-48799802D01*
X116534752Y-48797118D01*
X116689253Y-48684866D01*
X116817040Y-48542944D01*
X116889622Y-48417229D01*
X116909223Y-48383279D01*
X116909224Y-48383278D01*
X116912527Y-48377556D01*
X116971542Y-48195928D01*
X116991504Y-48006000D01*
X117704496Y-48006000D01*
X117724458Y-48195928D01*
X117783473Y-48377556D01*
X117786776Y-48383278D01*
X117786777Y-48383279D01*
X117806378Y-48417229D01*
X117878960Y-48542944D01*
X118006747Y-48684866D01*
X118161248Y-48797118D01*
X118167276Y-48799802D01*
X118167278Y-48799803D01*
X118329681Y-48872109D01*
X118335712Y-48874794D01*
X118429112Y-48894647D01*
X118516056Y-48913128D01*
X118516061Y-48913128D01*
X118522513Y-48914500D01*
X118713487Y-48914500D01*
X118719939Y-48913128D01*
X118719944Y-48913128D01*
X118806888Y-48894647D01*
X118900288Y-48874794D01*
X118906319Y-48872109D01*
X119068722Y-48799803D01*
X119068724Y-48799802D01*
X119074752Y-48797118D01*
X119229253Y-48684866D01*
X119357040Y-48542944D01*
X119429622Y-48417229D01*
X119449223Y-48383279D01*
X119449224Y-48383278D01*
X119452527Y-48377556D01*
X119511542Y-48195928D01*
X119531504Y-48006000D01*
X120244496Y-48006000D01*
X120264458Y-48195928D01*
X120323473Y-48377556D01*
X120326776Y-48383278D01*
X120326777Y-48383279D01*
X120346378Y-48417229D01*
X120418960Y-48542944D01*
X120546747Y-48684866D01*
X120701248Y-48797118D01*
X120707276Y-48799802D01*
X120707278Y-48799803D01*
X120869681Y-48872109D01*
X120875712Y-48874794D01*
X120969112Y-48894647D01*
X121056056Y-48913128D01*
X121056061Y-48913128D01*
X121062513Y-48914500D01*
X121253487Y-48914500D01*
X121259939Y-48913128D01*
X121259944Y-48913128D01*
X121346888Y-48894647D01*
X121440288Y-48874794D01*
X121446319Y-48872109D01*
X121608722Y-48799803D01*
X121608724Y-48799802D01*
X121614752Y-48797118D01*
X121769253Y-48684866D01*
X121897040Y-48542944D01*
X121969622Y-48417229D01*
X121989223Y-48383279D01*
X121989224Y-48383278D01*
X121992527Y-48377556D01*
X122051542Y-48195928D01*
X122071504Y-48006000D01*
X122051542Y-47816072D01*
X121992527Y-47634444D01*
X121897040Y-47469056D01*
X121776084Y-47334720D01*
X121773675Y-47332045D01*
X121773674Y-47332044D01*
X121769253Y-47327134D01*
X121614752Y-47214882D01*
X121608724Y-47212198D01*
X121608722Y-47212197D01*
X121446319Y-47139891D01*
X121446318Y-47139891D01*
X121440288Y-47137206D01*
X121346887Y-47117353D01*
X121259944Y-47098872D01*
X121259939Y-47098872D01*
X121253487Y-47097500D01*
X121062513Y-47097500D01*
X121056061Y-47098872D01*
X121056056Y-47098872D01*
X120969112Y-47117353D01*
X120875712Y-47137206D01*
X120869682Y-47139891D01*
X120869681Y-47139891D01*
X120707278Y-47212197D01*
X120707276Y-47212198D01*
X120701248Y-47214882D01*
X120546747Y-47327134D01*
X120542326Y-47332044D01*
X120542325Y-47332045D01*
X120539917Y-47334720D01*
X120418960Y-47469056D01*
X120323473Y-47634444D01*
X120264458Y-47816072D01*
X120244496Y-48006000D01*
X119531504Y-48006000D01*
X119511542Y-47816072D01*
X119452527Y-47634444D01*
X119357040Y-47469056D01*
X119236084Y-47334720D01*
X119233675Y-47332045D01*
X119233674Y-47332044D01*
X119229253Y-47327134D01*
X119074752Y-47214882D01*
X119068724Y-47212198D01*
X119068722Y-47212197D01*
X118906319Y-47139891D01*
X118906318Y-47139891D01*
X118900288Y-47137206D01*
X118806887Y-47117353D01*
X118719944Y-47098872D01*
X118719939Y-47098872D01*
X118713487Y-47097500D01*
X118522513Y-47097500D01*
X118516061Y-47098872D01*
X118516056Y-47098872D01*
X118429112Y-47117353D01*
X118335712Y-47137206D01*
X118329682Y-47139891D01*
X118329681Y-47139891D01*
X118167278Y-47212197D01*
X118167276Y-47212198D01*
X118161248Y-47214882D01*
X118006747Y-47327134D01*
X118002326Y-47332044D01*
X118002325Y-47332045D01*
X117999917Y-47334720D01*
X117878960Y-47469056D01*
X117783473Y-47634444D01*
X117724458Y-47816072D01*
X117704496Y-48006000D01*
X116991504Y-48006000D01*
X116971542Y-47816072D01*
X116912527Y-47634444D01*
X116817040Y-47469056D01*
X116696084Y-47334720D01*
X116693675Y-47332045D01*
X116693674Y-47332044D01*
X116689253Y-47327134D01*
X116534752Y-47214882D01*
X116528724Y-47212198D01*
X116528722Y-47212197D01*
X116366319Y-47139891D01*
X116366318Y-47139891D01*
X116360288Y-47137206D01*
X116266887Y-47117353D01*
X116179944Y-47098872D01*
X116179939Y-47098872D01*
X116173487Y-47097500D01*
X115982513Y-47097500D01*
X115976061Y-47098872D01*
X115976056Y-47098872D01*
X115889112Y-47117353D01*
X115795712Y-47137206D01*
X115789682Y-47139891D01*
X115789681Y-47139891D01*
X115627278Y-47212197D01*
X115627276Y-47212198D01*
X115621248Y-47214882D01*
X115466747Y-47327134D01*
X115462326Y-47332044D01*
X115462325Y-47332045D01*
X115459917Y-47334720D01*
X115338960Y-47469056D01*
X115243473Y-47634444D01*
X115184458Y-47816072D01*
X115164496Y-48006000D01*
X114451504Y-48006000D01*
X114431542Y-47816072D01*
X114372527Y-47634444D01*
X114277040Y-47469056D01*
X114156084Y-47334720D01*
X114153675Y-47332045D01*
X114153674Y-47332044D01*
X114149253Y-47327134D01*
X113994752Y-47214882D01*
X113988724Y-47212198D01*
X113988722Y-47212197D01*
X113826319Y-47139891D01*
X113826318Y-47139891D01*
X113820288Y-47137206D01*
X113726887Y-47117353D01*
X113639944Y-47098872D01*
X113639939Y-47098872D01*
X113633487Y-47097500D01*
X113442513Y-47097500D01*
X113436061Y-47098872D01*
X113436056Y-47098872D01*
X113349112Y-47117353D01*
X113255712Y-47137206D01*
X113249682Y-47139891D01*
X113249681Y-47139891D01*
X113087278Y-47212197D01*
X113087276Y-47212198D01*
X113081248Y-47214882D01*
X112926747Y-47327134D01*
X112922326Y-47332044D01*
X112922325Y-47332045D01*
X112919917Y-47334720D01*
X112798960Y-47469056D01*
X112703473Y-47634444D01*
X112644458Y-47816072D01*
X112624496Y-48006000D01*
X111911504Y-48006000D01*
X111891542Y-47816072D01*
X111832527Y-47634444D01*
X111737040Y-47469056D01*
X111616084Y-47334720D01*
X111613675Y-47332045D01*
X111613674Y-47332044D01*
X111609253Y-47327134D01*
X111454752Y-47214882D01*
X111448724Y-47212198D01*
X111448722Y-47212197D01*
X111286319Y-47139891D01*
X111286318Y-47139891D01*
X111280288Y-47137206D01*
X111186887Y-47117353D01*
X111099944Y-47098872D01*
X111099939Y-47098872D01*
X111093487Y-47097500D01*
X110902513Y-47097500D01*
X110896061Y-47098872D01*
X110896056Y-47098872D01*
X110809112Y-47117353D01*
X110715712Y-47137206D01*
X110709682Y-47139891D01*
X110709681Y-47139891D01*
X110547278Y-47212197D01*
X110547276Y-47212198D01*
X110541248Y-47214882D01*
X110386747Y-47327134D01*
X110382326Y-47332044D01*
X110382325Y-47332045D01*
X110379917Y-47334720D01*
X110258960Y-47469056D01*
X110163473Y-47634444D01*
X110104458Y-47816072D01*
X110084496Y-48006000D01*
X109371504Y-48006000D01*
X109351542Y-47816072D01*
X109292527Y-47634444D01*
X109197040Y-47469056D01*
X109076084Y-47334720D01*
X109073675Y-47332045D01*
X109073674Y-47332044D01*
X109069253Y-47327134D01*
X108914752Y-47214882D01*
X108908724Y-47212198D01*
X108908722Y-47212197D01*
X108746319Y-47139891D01*
X108746318Y-47139891D01*
X108740288Y-47137206D01*
X108646887Y-47117353D01*
X108559944Y-47098872D01*
X108559939Y-47098872D01*
X108553487Y-47097500D01*
X108362513Y-47097500D01*
X108356061Y-47098872D01*
X108356056Y-47098872D01*
X108269112Y-47117353D01*
X108175712Y-47137206D01*
X108169682Y-47139891D01*
X108169681Y-47139891D01*
X108007278Y-47212197D01*
X108007276Y-47212198D01*
X108001248Y-47214882D01*
X107846747Y-47327134D01*
X107842326Y-47332044D01*
X107842325Y-47332045D01*
X107839917Y-47334720D01*
X107718960Y-47469056D01*
X107623473Y-47634444D01*
X107564458Y-47816072D01*
X107544496Y-48006000D01*
X106831504Y-48006000D01*
X106811542Y-47816072D01*
X106752527Y-47634444D01*
X106657040Y-47469056D01*
X106536084Y-47334720D01*
X106533675Y-47332045D01*
X106533674Y-47332044D01*
X106529253Y-47327134D01*
X106374752Y-47214882D01*
X106368724Y-47212198D01*
X106368722Y-47212197D01*
X106206319Y-47139891D01*
X106206318Y-47139891D01*
X106200288Y-47137206D01*
X106106887Y-47117353D01*
X106019944Y-47098872D01*
X106019939Y-47098872D01*
X106013487Y-47097500D01*
X105822513Y-47097500D01*
X105816061Y-47098872D01*
X105816056Y-47098872D01*
X105729112Y-47117353D01*
X105635712Y-47137206D01*
X105629682Y-47139891D01*
X105629681Y-47139891D01*
X105467278Y-47212197D01*
X105467276Y-47212198D01*
X105461248Y-47214882D01*
X105306747Y-47327134D01*
X105302326Y-47332044D01*
X105302325Y-47332045D01*
X105299917Y-47334720D01*
X105178960Y-47469056D01*
X105083473Y-47634444D01*
X105024458Y-47816072D01*
X105004496Y-48006000D01*
X104291504Y-48006000D01*
X104271542Y-47816072D01*
X104212527Y-47634444D01*
X104117040Y-47469056D01*
X103996084Y-47334720D01*
X103993675Y-47332045D01*
X103993674Y-47332044D01*
X103989253Y-47327134D01*
X103834752Y-47214882D01*
X103828724Y-47212198D01*
X103828722Y-47212197D01*
X103666319Y-47139891D01*
X103666318Y-47139891D01*
X103660288Y-47137206D01*
X103566887Y-47117353D01*
X103479944Y-47098872D01*
X103479939Y-47098872D01*
X103473487Y-47097500D01*
X103282513Y-47097500D01*
X103276061Y-47098872D01*
X103276056Y-47098872D01*
X103189112Y-47117353D01*
X103095712Y-47137206D01*
X103089682Y-47139891D01*
X103089681Y-47139891D01*
X102927278Y-47212197D01*
X102927276Y-47212198D01*
X102921248Y-47214882D01*
X102766747Y-47327134D01*
X102762326Y-47332044D01*
X102762325Y-47332045D01*
X102759917Y-47334720D01*
X102638960Y-47469056D01*
X102543473Y-47634444D01*
X102484458Y-47816072D01*
X102464496Y-48006000D01*
X101751504Y-48006000D01*
X101731542Y-47816072D01*
X101672527Y-47634444D01*
X101577040Y-47469056D01*
X101456084Y-47334720D01*
X101453675Y-47332045D01*
X101453674Y-47332044D01*
X101449253Y-47327134D01*
X101294752Y-47214882D01*
X101288724Y-47212198D01*
X101288722Y-47212197D01*
X101126319Y-47139891D01*
X101126318Y-47139891D01*
X101120288Y-47137206D01*
X101026887Y-47117353D01*
X100939944Y-47098872D01*
X100939939Y-47098872D01*
X100933487Y-47097500D01*
X100742513Y-47097500D01*
X100736061Y-47098872D01*
X100736056Y-47098872D01*
X100649112Y-47117353D01*
X100555712Y-47137206D01*
X100549682Y-47139891D01*
X100549681Y-47139891D01*
X100387278Y-47212197D01*
X100387276Y-47212198D01*
X100381248Y-47214882D01*
X100226747Y-47327134D01*
X100222326Y-47332044D01*
X100222325Y-47332045D01*
X100219917Y-47334720D01*
X100098960Y-47469056D01*
X100003473Y-47634444D01*
X99944458Y-47816072D01*
X99924496Y-48006000D01*
X96671504Y-48006000D01*
X96651542Y-47816072D01*
X96592527Y-47634444D01*
X96497040Y-47469056D01*
X96376084Y-47334720D01*
X96373675Y-47332045D01*
X96373674Y-47332044D01*
X96369253Y-47327134D01*
X96214752Y-47214882D01*
X96208724Y-47212198D01*
X96208722Y-47212197D01*
X96046319Y-47139891D01*
X96046318Y-47139891D01*
X96040288Y-47137206D01*
X95946887Y-47117353D01*
X95859944Y-47098872D01*
X95859939Y-47098872D01*
X95853487Y-47097500D01*
X95662513Y-47097500D01*
X95656061Y-47098872D01*
X95656056Y-47098872D01*
X95569112Y-47117353D01*
X95475712Y-47137206D01*
X95469682Y-47139891D01*
X95469681Y-47139891D01*
X95307278Y-47212197D01*
X95307276Y-47212198D01*
X95301248Y-47214882D01*
X95146747Y-47327134D01*
X95142326Y-47332044D01*
X95142325Y-47332045D01*
X95139917Y-47334720D01*
X95018960Y-47469056D01*
X94923473Y-47634444D01*
X94864458Y-47816072D01*
X94844496Y-48006000D01*
X94131504Y-48006000D01*
X94111542Y-47816072D01*
X94052527Y-47634444D01*
X93957040Y-47469056D01*
X93836084Y-47334720D01*
X93833675Y-47332045D01*
X93833674Y-47332044D01*
X93829253Y-47327134D01*
X93674752Y-47214882D01*
X93668724Y-47212198D01*
X93668722Y-47212197D01*
X93506319Y-47139891D01*
X93506318Y-47139891D01*
X93500288Y-47137206D01*
X93406887Y-47117353D01*
X93319944Y-47098872D01*
X93319939Y-47098872D01*
X93313487Y-47097500D01*
X93122513Y-47097500D01*
X93116061Y-47098872D01*
X93116056Y-47098872D01*
X93029112Y-47117353D01*
X92935712Y-47137206D01*
X92929682Y-47139891D01*
X92929681Y-47139891D01*
X92767278Y-47212197D01*
X92767276Y-47212198D01*
X92761248Y-47214882D01*
X92606747Y-47327134D01*
X92602326Y-47332044D01*
X92602325Y-47332045D01*
X92599917Y-47334720D01*
X92478960Y-47469056D01*
X92383473Y-47634444D01*
X92324458Y-47816072D01*
X92304496Y-48006000D01*
X91591504Y-48006000D01*
X91571542Y-47816072D01*
X91512527Y-47634444D01*
X91417040Y-47469056D01*
X91296084Y-47334720D01*
X91293675Y-47332045D01*
X91293674Y-47332044D01*
X91289253Y-47327134D01*
X91134752Y-47214882D01*
X91128724Y-47212198D01*
X91128722Y-47212197D01*
X90966319Y-47139891D01*
X90966318Y-47139891D01*
X90960288Y-47137206D01*
X90866887Y-47117353D01*
X90779944Y-47098872D01*
X90779939Y-47098872D01*
X90773487Y-47097500D01*
X90582513Y-47097500D01*
X90576061Y-47098872D01*
X90576056Y-47098872D01*
X90489112Y-47117353D01*
X90395712Y-47137206D01*
X90389682Y-47139891D01*
X90389681Y-47139891D01*
X90227278Y-47212197D01*
X90227276Y-47212198D01*
X90221248Y-47214882D01*
X90066747Y-47327134D01*
X90062326Y-47332044D01*
X90062325Y-47332045D01*
X90059917Y-47334720D01*
X89938960Y-47469056D01*
X89843473Y-47634444D01*
X89784458Y-47816072D01*
X89764496Y-48006000D01*
X89051504Y-48006000D01*
X89031542Y-47816072D01*
X88972527Y-47634444D01*
X88877040Y-47469056D01*
X88756084Y-47334720D01*
X88753675Y-47332045D01*
X88753674Y-47332044D01*
X88749253Y-47327134D01*
X88594752Y-47214882D01*
X88588724Y-47212198D01*
X88588722Y-47212197D01*
X88426319Y-47139891D01*
X88426318Y-47139891D01*
X88420288Y-47137206D01*
X88326887Y-47117353D01*
X88239944Y-47098872D01*
X88239939Y-47098872D01*
X88233487Y-47097500D01*
X88042513Y-47097500D01*
X88036061Y-47098872D01*
X88036056Y-47098872D01*
X87949112Y-47117353D01*
X87855712Y-47137206D01*
X87849682Y-47139891D01*
X87849681Y-47139891D01*
X87687278Y-47212197D01*
X87687276Y-47212198D01*
X87681248Y-47214882D01*
X87526747Y-47327134D01*
X87522326Y-47332044D01*
X87522325Y-47332045D01*
X87519917Y-47334720D01*
X87398960Y-47469056D01*
X87303473Y-47634444D01*
X87244458Y-47816072D01*
X87224496Y-48006000D01*
X86511504Y-48006000D01*
X86491542Y-47816072D01*
X86432527Y-47634444D01*
X86337040Y-47469056D01*
X86216084Y-47334720D01*
X86213675Y-47332045D01*
X86213674Y-47332044D01*
X86209253Y-47327134D01*
X86054752Y-47214882D01*
X86048724Y-47212198D01*
X86048722Y-47212197D01*
X85886319Y-47139891D01*
X85886318Y-47139891D01*
X85880288Y-47137206D01*
X85786887Y-47117353D01*
X85699944Y-47098872D01*
X85699939Y-47098872D01*
X85693487Y-47097500D01*
X85502513Y-47097500D01*
X85496061Y-47098872D01*
X85496056Y-47098872D01*
X85409112Y-47117353D01*
X85315712Y-47137206D01*
X85309682Y-47139891D01*
X85309681Y-47139891D01*
X85147278Y-47212197D01*
X85147276Y-47212198D01*
X85141248Y-47214882D01*
X84986747Y-47327134D01*
X84982326Y-47332044D01*
X84982325Y-47332045D01*
X84979917Y-47334720D01*
X84858960Y-47469056D01*
X84763473Y-47634444D01*
X84704458Y-47816072D01*
X84684496Y-48006000D01*
X83971504Y-48006000D01*
X83951542Y-47816072D01*
X83892527Y-47634444D01*
X83797040Y-47469056D01*
X83676084Y-47334720D01*
X83673675Y-47332045D01*
X83673674Y-47332044D01*
X83669253Y-47327134D01*
X83514752Y-47214882D01*
X83508724Y-47212198D01*
X83508722Y-47212197D01*
X83346319Y-47139891D01*
X83346318Y-47139891D01*
X83340288Y-47137206D01*
X83246887Y-47117353D01*
X83159944Y-47098872D01*
X83159939Y-47098872D01*
X83153487Y-47097500D01*
X82962513Y-47097500D01*
X82956061Y-47098872D01*
X82956056Y-47098872D01*
X82869112Y-47117353D01*
X82775712Y-47137206D01*
X82769682Y-47139891D01*
X82769681Y-47139891D01*
X82607278Y-47212197D01*
X82607276Y-47212198D01*
X82601248Y-47214882D01*
X82446747Y-47327134D01*
X82442326Y-47332044D01*
X82442325Y-47332045D01*
X82439917Y-47334720D01*
X82318960Y-47469056D01*
X82223473Y-47634444D01*
X82164458Y-47816072D01*
X82144496Y-48006000D01*
X81431504Y-48006000D01*
X81411542Y-47816072D01*
X81352527Y-47634444D01*
X81257040Y-47469056D01*
X81136084Y-47334720D01*
X81133675Y-47332045D01*
X81133674Y-47332044D01*
X81129253Y-47327134D01*
X80974752Y-47214882D01*
X80968724Y-47212198D01*
X80968722Y-47212197D01*
X80806319Y-47139891D01*
X80806318Y-47139891D01*
X80800288Y-47137206D01*
X80706887Y-47117353D01*
X80619944Y-47098872D01*
X80619939Y-47098872D01*
X80613487Y-47097500D01*
X80422513Y-47097500D01*
X80416061Y-47098872D01*
X80416056Y-47098872D01*
X80329112Y-47117353D01*
X80235712Y-47137206D01*
X80229682Y-47139891D01*
X80229681Y-47139891D01*
X80067278Y-47212197D01*
X80067276Y-47212198D01*
X80061248Y-47214882D01*
X79906747Y-47327134D01*
X79902326Y-47332044D01*
X79902325Y-47332045D01*
X79899917Y-47334720D01*
X79778960Y-47469056D01*
X79683473Y-47634444D01*
X79624458Y-47816072D01*
X79604496Y-48006000D01*
X78891504Y-48006000D01*
X78871542Y-47816072D01*
X78812527Y-47634444D01*
X78717040Y-47469056D01*
X78596084Y-47334720D01*
X78593675Y-47332045D01*
X78593674Y-47332044D01*
X78589253Y-47327134D01*
X78434752Y-47214882D01*
X78428724Y-47212198D01*
X78428722Y-47212197D01*
X78266319Y-47139891D01*
X78266318Y-47139891D01*
X78260288Y-47137206D01*
X78166887Y-47117353D01*
X78079944Y-47098872D01*
X78079939Y-47098872D01*
X78073487Y-47097500D01*
X77882513Y-47097500D01*
X77876061Y-47098872D01*
X77876056Y-47098872D01*
X77789112Y-47117353D01*
X77695712Y-47137206D01*
X77689682Y-47139891D01*
X77689681Y-47139891D01*
X77527278Y-47212197D01*
X77527276Y-47212198D01*
X77521248Y-47214882D01*
X77366747Y-47327134D01*
X77362326Y-47332044D01*
X77362325Y-47332045D01*
X77359917Y-47334720D01*
X77238960Y-47469056D01*
X77143473Y-47634444D01*
X77084458Y-47816072D01*
X77064496Y-48006000D01*
X76351504Y-48006000D01*
X76331542Y-47816072D01*
X76272527Y-47634444D01*
X76177040Y-47469056D01*
X76056084Y-47334720D01*
X76053675Y-47332045D01*
X76053674Y-47332044D01*
X76049253Y-47327134D01*
X75894752Y-47214882D01*
X75888724Y-47212198D01*
X75888722Y-47212197D01*
X75726319Y-47139891D01*
X75726318Y-47139891D01*
X75720288Y-47137206D01*
X75626887Y-47117353D01*
X75539944Y-47098872D01*
X75539939Y-47098872D01*
X75533487Y-47097500D01*
X75342513Y-47097500D01*
X75336061Y-47098872D01*
X75336056Y-47098872D01*
X75249112Y-47117353D01*
X75155712Y-47137206D01*
X75149682Y-47139891D01*
X75149681Y-47139891D01*
X74987278Y-47212197D01*
X74987276Y-47212198D01*
X74981248Y-47214882D01*
X74826747Y-47327134D01*
X74822326Y-47332044D01*
X74822325Y-47332045D01*
X74819917Y-47334720D01*
X74698960Y-47469056D01*
X74603473Y-47634444D01*
X74544458Y-47816072D01*
X74524496Y-48006000D01*
X73811504Y-48006000D01*
X73791542Y-47816072D01*
X73732527Y-47634444D01*
X73637040Y-47469056D01*
X73516084Y-47334720D01*
X73513675Y-47332045D01*
X73513674Y-47332044D01*
X73509253Y-47327134D01*
X73354752Y-47214882D01*
X73348724Y-47212198D01*
X73348722Y-47212197D01*
X73186319Y-47139891D01*
X73186318Y-47139891D01*
X73180288Y-47137206D01*
X73086887Y-47117353D01*
X72999944Y-47098872D01*
X72999939Y-47098872D01*
X72993487Y-47097500D01*
X72802513Y-47097500D01*
X72796061Y-47098872D01*
X72796056Y-47098872D01*
X72709112Y-47117353D01*
X72615712Y-47137206D01*
X72609682Y-47139891D01*
X72609681Y-47139891D01*
X72447278Y-47212197D01*
X72447276Y-47212198D01*
X72441248Y-47214882D01*
X72286747Y-47327134D01*
X72282326Y-47332044D01*
X72282325Y-47332045D01*
X72279917Y-47334720D01*
X72158960Y-47469056D01*
X72063473Y-47634444D01*
X72004458Y-47816072D01*
X71984496Y-48006000D01*
X71271504Y-48006000D01*
X71251542Y-47816072D01*
X71192527Y-47634444D01*
X71097040Y-47469056D01*
X70976084Y-47334720D01*
X70973675Y-47332045D01*
X70973674Y-47332044D01*
X70969253Y-47327134D01*
X70814752Y-47214882D01*
X70808724Y-47212198D01*
X70808722Y-47212197D01*
X70646319Y-47139891D01*
X70646318Y-47139891D01*
X70640288Y-47137206D01*
X70546887Y-47117353D01*
X70459944Y-47098872D01*
X70459939Y-47098872D01*
X70453487Y-47097500D01*
X70262513Y-47097500D01*
X70256061Y-47098872D01*
X70256056Y-47098872D01*
X70169112Y-47117353D01*
X70075712Y-47137206D01*
X70069682Y-47139891D01*
X70069681Y-47139891D01*
X69907278Y-47212197D01*
X69907276Y-47212198D01*
X69901248Y-47214882D01*
X69746747Y-47327134D01*
X69742326Y-47332044D01*
X69742325Y-47332045D01*
X69739917Y-47334720D01*
X69618960Y-47469056D01*
X69523473Y-47634444D01*
X69464458Y-47816072D01*
X69444496Y-48006000D01*
X68731504Y-48006000D01*
X68711542Y-47816072D01*
X68652527Y-47634444D01*
X68557040Y-47469056D01*
X68436084Y-47334720D01*
X68433675Y-47332045D01*
X68433674Y-47332044D01*
X68429253Y-47327134D01*
X68274752Y-47214882D01*
X68268724Y-47212198D01*
X68268722Y-47212197D01*
X68106319Y-47139891D01*
X68106318Y-47139891D01*
X68100288Y-47137206D01*
X68006887Y-47117353D01*
X67919944Y-47098872D01*
X67919939Y-47098872D01*
X67913487Y-47097500D01*
X67722513Y-47097500D01*
X67716061Y-47098872D01*
X67716056Y-47098872D01*
X67629112Y-47117353D01*
X67535712Y-47137206D01*
X67529682Y-47139891D01*
X67529681Y-47139891D01*
X67367278Y-47212197D01*
X67367276Y-47212198D01*
X67361248Y-47214882D01*
X67206747Y-47327134D01*
X67202326Y-47332044D01*
X67202325Y-47332045D01*
X67199917Y-47334720D01*
X67078960Y-47469056D01*
X66983473Y-47634444D01*
X66924458Y-47816072D01*
X66904496Y-48006000D01*
X63651504Y-48006000D01*
X63631542Y-47816072D01*
X63572527Y-47634444D01*
X63477040Y-47469056D01*
X63356084Y-47334720D01*
X63353675Y-47332045D01*
X63353674Y-47332044D01*
X63349253Y-47327134D01*
X63194752Y-47214882D01*
X63188724Y-47212198D01*
X63188722Y-47212197D01*
X63026319Y-47139891D01*
X63026318Y-47139891D01*
X63020288Y-47137206D01*
X62926887Y-47117353D01*
X62839944Y-47098872D01*
X62839939Y-47098872D01*
X62833487Y-47097500D01*
X62642513Y-47097500D01*
X62636061Y-47098872D01*
X62636056Y-47098872D01*
X62549112Y-47117353D01*
X62455712Y-47137206D01*
X62449682Y-47139891D01*
X62449681Y-47139891D01*
X62287278Y-47212197D01*
X62287276Y-47212198D01*
X62281248Y-47214882D01*
X62126747Y-47327134D01*
X62122326Y-47332044D01*
X62122325Y-47332045D01*
X62119917Y-47334720D01*
X61998960Y-47469056D01*
X61903473Y-47634444D01*
X61844458Y-47816072D01*
X61824496Y-48006000D01*
X55867531Y-48006000D01*
X55885165Y-47966818D01*
X55892227Y-47953362D01*
X56027127Y-47730211D01*
X56035769Y-47717690D01*
X56196583Y-47512427D01*
X56206673Y-47501039D01*
X56391039Y-47316673D01*
X56402427Y-47306583D01*
X56440298Y-47276913D01*
X56607692Y-47145768D01*
X56620212Y-47137126D01*
X56683492Y-47098872D01*
X56843362Y-47002227D01*
X56856818Y-46995165D01*
X57094602Y-46888147D01*
X57108820Y-46882755D01*
X57357769Y-46805179D01*
X57372542Y-46801538D01*
X57629016Y-46754538D01*
X57644120Y-46752704D01*
X57843855Y-46740622D01*
X57876544Y-46738645D01*
X57887420Y-46739385D01*
X57887420Y-46739065D01*
X57899828Y-46739065D01*
X57912000Y-46741486D01*
X57924852Y-46738930D01*
X57949462Y-46736509D01*
X93266422Y-46745703D01*
G37*
G04 #@! TD.AperFunction*
M02*
