G04 #@! TF.GenerationSoftware,KiCad,Pcbnew,(6.0.8)*
G04 #@! TF.CreationDate,2022-10-20T16:10:57-05:00*
G04 #@! TF.ProjectId,H-Bridge,482d4272-6964-4676-952e-6b696361645f,rev?*
G04 #@! TF.SameCoordinates,Original*
G04 #@! TF.FileFunction,Legend,Bot*
G04 #@! TF.FilePolarity,Positive*
%FSLAX46Y46*%
G04 Gerber Fmt 4.6, Leading zero omitted, Abs format (unit mm)*
G04 Created by KiCad (PCBNEW (6.0.8)) date 2022-10-20 16:10:57*
%MOMM*%
%LPD*%
G01*
G04 APERTURE LIST*
%ADD10C,0.150000*%
%ADD11C,0.010000*%
%ADD12O,5.100000X3.000000*%
%ADD13C,1.308000*%
%ADD14C,1.258000*%
%ADD15C,1.208000*%
%ADD16C,1.524000*%
%ADD17O,3.000000X5.100000*%
G04 APERTURE END LIST*
D10*
X109145480Y-77384947D02*
X109193099Y-77337328D01*
X109240718Y-77194471D01*
X109240718Y-77099233D01*
X109193099Y-76956376D01*
X109097861Y-76861137D01*
X109002623Y-76813518D01*
X108812147Y-76765899D01*
X108669290Y-76765899D01*
X108478814Y-76813518D01*
X108383576Y-76861137D01*
X108288338Y-76956376D01*
X108240718Y-77099233D01*
X108240718Y-77194471D01*
X108288338Y-77337328D01*
X108335957Y-77384947D01*
X109240718Y-77956376D02*
X109193099Y-77861137D01*
X109145480Y-77813518D01*
X109050242Y-77765899D01*
X108764528Y-77765899D01*
X108669290Y-77813518D01*
X108621671Y-77861137D01*
X108574052Y-77956376D01*
X108574052Y-78099233D01*
X108621671Y-78194471D01*
X108669290Y-78242090D01*
X108764528Y-78289709D01*
X109050242Y-78289709D01*
X109145480Y-78242090D01*
X109193099Y-78194471D01*
X109240718Y-78099233D01*
X109240718Y-77956376D01*
X108574052Y-78718280D02*
X109240718Y-78718280D01*
X108669290Y-78718280D02*
X108621671Y-78765899D01*
X108574052Y-78861137D01*
X108574052Y-79003995D01*
X108621671Y-79099233D01*
X108716909Y-79146852D01*
X109240718Y-79146852D01*
X108574052Y-79623042D02*
X109240718Y-79623042D01*
X108669290Y-79623042D02*
X108621671Y-79670661D01*
X108574052Y-79765899D01*
X108574052Y-79908757D01*
X108621671Y-80003995D01*
X108716909Y-80051614D01*
X109240718Y-80051614D01*
X108240718Y-80432566D02*
X108240718Y-81051614D01*
X108621671Y-80718280D01*
X108621671Y-80861137D01*
X108669290Y-80956376D01*
X108716909Y-81003995D01*
X108812147Y-81051614D01*
X109050242Y-81051614D01*
X109145480Y-81003995D01*
X109193099Y-80956376D01*
X109240718Y-80861137D01*
X109240718Y-80575423D01*
X109193099Y-80480185D01*
X109145480Y-80432566D01*
G36*
X79384727Y-50036675D02*
G01*
X79416437Y-50040569D01*
X79601014Y-50070393D01*
X79776547Y-50113672D01*
X79957820Y-50175323D01*
X80159612Y-50260266D01*
X80396705Y-50373419D01*
X80398798Y-50374459D01*
X80716866Y-50548991D01*
X81047867Y-50763211D01*
X81392936Y-51018300D01*
X81753204Y-51315439D01*
X82129806Y-51655811D01*
X82523875Y-52040598D01*
X82936544Y-52470980D01*
X83368946Y-52948139D01*
X83822215Y-53473257D01*
X84297484Y-54047517D01*
X84795885Y-54672098D01*
X85318553Y-55348184D01*
X85866620Y-56076955D01*
X85898306Y-56119839D01*
X86010623Y-56274073D01*
X86151393Y-56469871D01*
X86316501Y-56701355D01*
X86501832Y-56962645D01*
X86703272Y-57247862D01*
X86916703Y-57551126D01*
X87138012Y-57866558D01*
X87363083Y-58188278D01*
X87587801Y-58510407D01*
X87808051Y-58827066D01*
X88019717Y-59132374D01*
X88218685Y-59420453D01*
X88400838Y-59685422D01*
X88562062Y-59921403D01*
X88698241Y-60122517D01*
X88779932Y-60243482D01*
X88885132Y-60397886D01*
X88975612Y-60529085D01*
X89046715Y-60630395D01*
X89093785Y-60695134D01*
X89112166Y-60716617D01*
X89111029Y-60710261D01*
X89091629Y-60658639D01*
X89050649Y-60559414D01*
X88990289Y-60417525D01*
X88912745Y-60237915D01*
X88820215Y-60025525D01*
X88714897Y-59785295D01*
X88598989Y-59522167D01*
X88474689Y-59241083D01*
X88344195Y-58946983D01*
X88209703Y-58644809D01*
X88073413Y-58339501D01*
X87937521Y-58036002D01*
X87804226Y-57739252D01*
X87675725Y-57454192D01*
X87554216Y-57185764D01*
X87441897Y-56938908D01*
X87340965Y-56718567D01*
X87253619Y-56529681D01*
X87182056Y-56377191D01*
X87109391Y-56224672D01*
X86905777Y-55804489D01*
X86717239Y-55426430D01*
X86544725Y-55092180D01*
X86389186Y-54803423D01*
X86251571Y-54561845D01*
X86132830Y-54369130D01*
X86033911Y-54226963D01*
X85955765Y-54137030D01*
X85899340Y-54101015D01*
X85898627Y-54100887D01*
X85844800Y-54120555D01*
X85786864Y-54190925D01*
X85779190Y-54203104D01*
X85742821Y-54245467D01*
X85725906Y-54239171D01*
X85731021Y-54192020D01*
X85760744Y-54111819D01*
X85792809Y-54064488D01*
X85861815Y-54035793D01*
X85952796Y-54059503D01*
X86063624Y-54134429D01*
X86192168Y-54259382D01*
X86336297Y-54433171D01*
X86439191Y-54575033D01*
X86575417Y-54777143D01*
X86734084Y-55024362D01*
X86912604Y-55312349D01*
X87108389Y-55636760D01*
X87318850Y-55993254D01*
X87541399Y-56377486D01*
X87773447Y-56785116D01*
X88012406Y-57211800D01*
X88255687Y-57653196D01*
X88308033Y-57748887D01*
X88458181Y-58022984D01*
X88617745Y-58313789D01*
X88779090Y-58607416D01*
X88934585Y-58889982D01*
X89076595Y-59147601D01*
X89197488Y-59366387D01*
X89280771Y-59517217D01*
X89417976Y-59766952D01*
X89559918Y-60026595D01*
X89698101Y-60280557D01*
X89824030Y-60513251D01*
X89929211Y-60709087D01*
X89973874Y-60792367D01*
X90062149Y-60954830D01*
X90139517Y-61094404D01*
X90201705Y-61203530D01*
X90244441Y-61274651D01*
X90263450Y-61300210D01*
X90266573Y-61298947D01*
X90296899Y-61265868D01*
X90347942Y-61196971D01*
X90410566Y-61104414D01*
X90427446Y-61079001D01*
X90488022Y-60996075D01*
X90535519Y-60943519D01*
X90560843Y-60931778D01*
X90562131Y-60933853D01*
X90580337Y-60976222D01*
X90616438Y-61067290D01*
X90668044Y-61200692D01*
X90732764Y-61370063D01*
X90808209Y-61569038D01*
X90891989Y-61791251D01*
X90981715Y-62030339D01*
X91074996Y-62279935D01*
X91169443Y-62533675D01*
X91262667Y-62785193D01*
X91352277Y-63028125D01*
X91435884Y-63256106D01*
X91511099Y-63462771D01*
X91542069Y-63550601D01*
X91573036Y-63645598D01*
X91588995Y-63704792D01*
X91586913Y-63717971D01*
X91584349Y-63714627D01*
X91556486Y-63669483D01*
X91504266Y-63579544D01*
X91431279Y-63451265D01*
X91341113Y-63291096D01*
X91237359Y-63105489D01*
X91123606Y-62900897D01*
X91003443Y-62683772D01*
X90880459Y-62460565D01*
X90758243Y-62237729D01*
X90640386Y-62021715D01*
X90530476Y-61818976D01*
X90462408Y-61694356D01*
X90387826Y-61561385D01*
X90326384Y-61455823D01*
X90283079Y-61386217D01*
X90262906Y-61361116D01*
X90254594Y-61364641D01*
X90216334Y-61408743D01*
X90158628Y-61497418D01*
X90085290Y-61623186D01*
X90000132Y-61778565D01*
X89906966Y-61956077D01*
X89809607Y-62148239D01*
X89711867Y-62347573D01*
X89617559Y-62546597D01*
X89530496Y-62737831D01*
X89454491Y-62913795D01*
X89393358Y-63067008D01*
X89276800Y-63376802D01*
X89201275Y-63247150D01*
X89200030Y-63245010D01*
X89160484Y-63175878D01*
X89098059Y-63065457D01*
X89018752Y-62924415D01*
X88928566Y-62763425D01*
X88833500Y-62593155D01*
X88829973Y-62586829D01*
X88719743Y-62390787D01*
X88589837Y-62162304D01*
X88450863Y-61919887D01*
X88313428Y-61682040D01*
X88188139Y-61467268D01*
X88062350Y-61252013D01*
X87918986Y-61005029D01*
X87771740Y-60749970D01*
X87632106Y-60506748D01*
X87511580Y-60295276D01*
X87378215Y-60061214D01*
X86848301Y-59151616D01*
X86287086Y-58218826D01*
X85703593Y-57277901D01*
X85447720Y-56872057D01*
X85143242Y-56391441D01*
X84864662Y-55954881D01*
X84609106Y-55558228D01*
X84373703Y-55197329D01*
X84155581Y-54868034D01*
X83951869Y-54566192D01*
X83759695Y-54287651D01*
X83576187Y-54028261D01*
X83398473Y-53783869D01*
X83223683Y-53550325D01*
X83048943Y-53323478D01*
X82871384Y-53099176D01*
X82688131Y-52873268D01*
X82496315Y-52641604D01*
X82289270Y-52397354D01*
X81873770Y-51930881D01*
X81477508Y-51519424D01*
X81099407Y-51162105D01*
X80738387Y-50858045D01*
X80393370Y-50606367D01*
X80063278Y-50406192D01*
X79747031Y-50256643D01*
X79443550Y-50156841D01*
X79432797Y-50154172D01*
X79172367Y-50114478D01*
X78878743Y-50112137D01*
X78565263Y-50147294D01*
X78475192Y-50162531D01*
X78573140Y-50117141D01*
X78597546Y-50106573D01*
X78757553Y-50060056D01*
X78954075Y-50031712D01*
X79169127Y-50023324D01*
X79384727Y-50036675D01*
G37*
D11*
X79384727Y-50036675D02*
X79416437Y-50040569D01*
X79601014Y-50070393D01*
X79776547Y-50113672D01*
X79957820Y-50175323D01*
X80159612Y-50260266D01*
X80396705Y-50373419D01*
X80398798Y-50374459D01*
X80716866Y-50548991D01*
X81047867Y-50763211D01*
X81392936Y-51018300D01*
X81753204Y-51315439D01*
X82129806Y-51655811D01*
X82523875Y-52040598D01*
X82936544Y-52470980D01*
X83368946Y-52948139D01*
X83822215Y-53473257D01*
X84297484Y-54047517D01*
X84795885Y-54672098D01*
X85318553Y-55348184D01*
X85866620Y-56076955D01*
X85898306Y-56119839D01*
X86010623Y-56274073D01*
X86151393Y-56469871D01*
X86316501Y-56701355D01*
X86501832Y-56962645D01*
X86703272Y-57247862D01*
X86916703Y-57551126D01*
X87138012Y-57866558D01*
X87363083Y-58188278D01*
X87587801Y-58510407D01*
X87808051Y-58827066D01*
X88019717Y-59132374D01*
X88218685Y-59420453D01*
X88400838Y-59685422D01*
X88562062Y-59921403D01*
X88698241Y-60122517D01*
X88779932Y-60243482D01*
X88885132Y-60397886D01*
X88975612Y-60529085D01*
X89046715Y-60630395D01*
X89093785Y-60695134D01*
X89112166Y-60716617D01*
X89111029Y-60710261D01*
X89091629Y-60658639D01*
X89050649Y-60559414D01*
X88990289Y-60417525D01*
X88912745Y-60237915D01*
X88820215Y-60025525D01*
X88714897Y-59785295D01*
X88598989Y-59522167D01*
X88474689Y-59241083D01*
X88344195Y-58946983D01*
X88209703Y-58644809D01*
X88073413Y-58339501D01*
X87937521Y-58036002D01*
X87804226Y-57739252D01*
X87675725Y-57454192D01*
X87554216Y-57185764D01*
X87441897Y-56938908D01*
X87340965Y-56718567D01*
X87253619Y-56529681D01*
X87182056Y-56377191D01*
X87109391Y-56224672D01*
X86905777Y-55804489D01*
X86717239Y-55426430D01*
X86544725Y-55092180D01*
X86389186Y-54803423D01*
X86251571Y-54561845D01*
X86132830Y-54369130D01*
X86033911Y-54226963D01*
X85955765Y-54137030D01*
X85899340Y-54101015D01*
X85898627Y-54100887D01*
X85844800Y-54120555D01*
X85786864Y-54190925D01*
X85779190Y-54203104D01*
X85742821Y-54245467D01*
X85725906Y-54239171D01*
X85731021Y-54192020D01*
X85760744Y-54111819D01*
X85792809Y-54064488D01*
X85861815Y-54035793D01*
X85952796Y-54059503D01*
X86063624Y-54134429D01*
X86192168Y-54259382D01*
X86336297Y-54433171D01*
X86439191Y-54575033D01*
X86575417Y-54777143D01*
X86734084Y-55024362D01*
X86912604Y-55312349D01*
X87108389Y-55636760D01*
X87318850Y-55993254D01*
X87541399Y-56377486D01*
X87773447Y-56785116D01*
X88012406Y-57211800D01*
X88255687Y-57653196D01*
X88308033Y-57748887D01*
X88458181Y-58022984D01*
X88617745Y-58313789D01*
X88779090Y-58607416D01*
X88934585Y-58889982D01*
X89076595Y-59147601D01*
X89197488Y-59366387D01*
X89280771Y-59517217D01*
X89417976Y-59766952D01*
X89559918Y-60026595D01*
X89698101Y-60280557D01*
X89824030Y-60513251D01*
X89929211Y-60709087D01*
X89973874Y-60792367D01*
X90062149Y-60954830D01*
X90139517Y-61094404D01*
X90201705Y-61203530D01*
X90244441Y-61274651D01*
X90263450Y-61300210D01*
X90266573Y-61298947D01*
X90296899Y-61265868D01*
X90347942Y-61196971D01*
X90410566Y-61104414D01*
X90427446Y-61079001D01*
X90488022Y-60996075D01*
X90535519Y-60943519D01*
X90560843Y-60931778D01*
X90562131Y-60933853D01*
X90580337Y-60976222D01*
X90616438Y-61067290D01*
X90668044Y-61200692D01*
X90732764Y-61370063D01*
X90808209Y-61569038D01*
X90891989Y-61791251D01*
X90981715Y-62030339D01*
X91074996Y-62279935D01*
X91169443Y-62533675D01*
X91262667Y-62785193D01*
X91352277Y-63028125D01*
X91435884Y-63256106D01*
X91511099Y-63462771D01*
X91542069Y-63550601D01*
X91573036Y-63645598D01*
X91588995Y-63704792D01*
X91586913Y-63717971D01*
X91584349Y-63714627D01*
X91556486Y-63669483D01*
X91504266Y-63579544D01*
X91431279Y-63451265D01*
X91341113Y-63291096D01*
X91237359Y-63105489D01*
X91123606Y-62900897D01*
X91003443Y-62683772D01*
X90880459Y-62460565D01*
X90758243Y-62237729D01*
X90640386Y-62021715D01*
X90530476Y-61818976D01*
X90462408Y-61694356D01*
X90387826Y-61561385D01*
X90326384Y-61455823D01*
X90283079Y-61386217D01*
X90262906Y-61361116D01*
X90254594Y-61364641D01*
X90216334Y-61408743D01*
X90158628Y-61497418D01*
X90085290Y-61623186D01*
X90000132Y-61778565D01*
X89906966Y-61956077D01*
X89809607Y-62148239D01*
X89711867Y-62347573D01*
X89617559Y-62546597D01*
X89530496Y-62737831D01*
X89454491Y-62913795D01*
X89393358Y-63067008D01*
X89276800Y-63376802D01*
X89201275Y-63247150D01*
X89200030Y-63245010D01*
X89160484Y-63175878D01*
X89098059Y-63065457D01*
X89018752Y-62924415D01*
X88928566Y-62763425D01*
X88833500Y-62593155D01*
X88829973Y-62586829D01*
X88719743Y-62390787D01*
X88589837Y-62162304D01*
X88450863Y-61919887D01*
X88313428Y-61682040D01*
X88188139Y-61467268D01*
X88062350Y-61252013D01*
X87918986Y-61005029D01*
X87771740Y-60749970D01*
X87632106Y-60506748D01*
X87511580Y-60295276D01*
X87378215Y-60061214D01*
X86848301Y-59151616D01*
X86287086Y-58218826D01*
X85703593Y-57277901D01*
X85447720Y-56872057D01*
X85143242Y-56391441D01*
X84864662Y-55954881D01*
X84609106Y-55558228D01*
X84373703Y-55197329D01*
X84155581Y-54868034D01*
X83951869Y-54566192D01*
X83759695Y-54287651D01*
X83576187Y-54028261D01*
X83398473Y-53783869D01*
X83223683Y-53550325D01*
X83048943Y-53323478D01*
X82871384Y-53099176D01*
X82688131Y-52873268D01*
X82496315Y-52641604D01*
X82289270Y-52397354D01*
X81873770Y-51930881D01*
X81477508Y-51519424D01*
X81099407Y-51162105D01*
X80738387Y-50858045D01*
X80393370Y-50606367D01*
X80063278Y-50406192D01*
X79747031Y-50256643D01*
X79443550Y-50156841D01*
X79432797Y-50154172D01*
X79172367Y-50114478D01*
X78878743Y-50112137D01*
X78565263Y-50147294D01*
X78475192Y-50162531D01*
X78573140Y-50117141D01*
X78597546Y-50106573D01*
X78757553Y-50060056D01*
X78954075Y-50031712D01*
X79169127Y-50023324D01*
X79384727Y-50036675D01*
G36*
X91640558Y-63778019D02*
G01*
X91625546Y-63793031D01*
X91610534Y-63778019D01*
X91625546Y-63763007D01*
X91640558Y-63778019D01*
G37*
X91640558Y-63778019D02*
X91625546Y-63793031D01*
X91610534Y-63778019D01*
X91625546Y-63763007D01*
X91640558Y-63778019D01*
G36*
X106839195Y-76478019D02*
G01*
X106834768Y-76490253D01*
X106789350Y-76636114D01*
X106752248Y-76789204D01*
X106731123Y-76918309D01*
X106728680Y-76942023D01*
X106668226Y-77298039D01*
X106567809Y-77619015D01*
X106429437Y-77901543D01*
X106255121Y-78142221D01*
X106047259Y-78337277D01*
X106046869Y-78337643D01*
X105806693Y-78484405D01*
X105789231Y-78492608D01*
X105669507Y-78544848D01*
X105559632Y-78586800D01*
X105481456Y-78610025D01*
X105422185Y-78628736D01*
X105320561Y-78675491D01*
X105217174Y-78735646D01*
X105127787Y-78791811D01*
X104784796Y-78969677D01*
X104406217Y-79114918D01*
X104102975Y-79197220D01*
X104005881Y-79223572D01*
X103597622Y-79291672D01*
X103195269Y-79315253D01*
X103138023Y-79316498D01*
X103057478Y-79329330D01*
X102986633Y-79364510D01*
X102899601Y-79432285D01*
X102786846Y-79522821D01*
X102461111Y-79736696D01*
X102120118Y-79892712D01*
X101764325Y-79990644D01*
X101572418Y-80014972D01*
X101311947Y-80020705D01*
X101045518Y-80001265D01*
X100799302Y-79957551D01*
X100645374Y-79910495D01*
X100448398Y-79833066D01*
X100239668Y-79737003D01*
X100038286Y-79631146D01*
X99863355Y-79524338D01*
X99664873Y-79382806D01*
X99401876Y-79169113D01*
X99136250Y-78922473D01*
X98864613Y-78639125D01*
X98623623Y-78361446D01*
X100009760Y-78361446D01*
X100016101Y-78376335D01*
X100058439Y-78424778D01*
X100131371Y-78500842D01*
X100229494Y-78598591D01*
X100295985Y-78662653D01*
X100483537Y-78829040D01*
X100660029Y-78959730D01*
X100841652Y-79065845D01*
X101044599Y-79158509D01*
X101168660Y-79201901D01*
X101313175Y-79230992D01*
X101488312Y-79243637D01*
X101526501Y-79244633D01*
X101648119Y-79245240D01*
X101746615Y-79242029D01*
X101803560Y-79235478D01*
X101842585Y-79223291D01*
X101884150Y-79197220D01*
X101866153Y-79173396D01*
X101788922Y-79153665D01*
X101707551Y-79137108D01*
X101552943Y-79095671D01*
X101371669Y-79038908D01*
X101180420Y-78972433D01*
X100995889Y-78901860D01*
X100834767Y-78832800D01*
X100823844Y-78827729D01*
X100595610Y-78711763D01*
X100327475Y-78558066D01*
X100017154Y-78365331D01*
X100009760Y-78361446D01*
X98623623Y-78361446D01*
X98583585Y-78315312D01*
X98456567Y-78156198D01*
X101736650Y-78156198D01*
X101756230Y-78170911D01*
X101823139Y-78197072D01*
X101926512Y-78231467D01*
X102055481Y-78270882D01*
X102199181Y-78312103D01*
X102346745Y-78351917D01*
X102487306Y-78387109D01*
X102609998Y-78414466D01*
X102624746Y-78417460D01*
X102777248Y-78447616D01*
X102883540Y-78465034D01*
X102955234Y-78469363D01*
X103003940Y-78460253D01*
X103041268Y-78437354D01*
X103078829Y-78400315D01*
X103085452Y-78393264D01*
X103113516Y-78361080D01*
X103123475Y-78337277D01*
X103108372Y-78319642D01*
X103061249Y-78305962D01*
X102975150Y-78294024D01*
X102843118Y-78281615D01*
X102658196Y-78266523D01*
X102484252Y-78250721D01*
X102299570Y-78230724D01*
X102130714Y-78209473D01*
X101999732Y-78189545D01*
X101953910Y-78181702D01*
X101846329Y-78165165D01*
X101769146Y-78156051D01*
X101736673Y-78156175D01*
X101736650Y-78156198D01*
X98456567Y-78156198D01*
X98306457Y-77968156D01*
X104696911Y-77968156D01*
X104703344Y-77976240D01*
X104734349Y-77984488D01*
X104809352Y-77995666D01*
X104911007Y-78006899D01*
X105106161Y-78025508D01*
X105286303Y-77879573D01*
X105412271Y-77772048D01*
X105713467Y-77464978D01*
X105990850Y-77106004D01*
X106246330Y-76692769D01*
X106283964Y-76622610D01*
X106333381Y-76510430D01*
X106360405Y-76403212D01*
X106373675Y-76272438D01*
X106386772Y-76057688D01*
X106237538Y-76349613D01*
X106041772Y-76698742D01*
X105799732Y-77048215D01*
X105533788Y-77349550D01*
X105239146Y-77608094D01*
X104911007Y-77829198D01*
X104887197Y-77843228D01*
X104788346Y-77901716D01*
X104729974Y-77937577D01*
X104702642Y-77957496D01*
X104696911Y-77968156D01*
X98306457Y-77968156D01*
X98289786Y-77947272D01*
X97979834Y-77531248D01*
X97650349Y-77063480D01*
X97562037Y-76935137D01*
X97536696Y-76898350D01*
X100857816Y-76898350D01*
X100872828Y-76913362D01*
X100887839Y-76898350D01*
X100872828Y-76883338D01*
X100857816Y-76898350D01*
X97536696Y-76898350D01*
X97450109Y-76772654D01*
X97351655Y-76629934D01*
X97271807Y-76514410D01*
X97215699Y-76433513D01*
X97188463Y-76394675D01*
X97139345Y-76360334D01*
X97037510Y-76327200D01*
X96879683Y-76295075D01*
X96807727Y-76282428D01*
X96129760Y-76132388D01*
X95450534Y-75927741D01*
X94780038Y-75672249D01*
X94128258Y-75369676D01*
X93505181Y-75023783D01*
X93322616Y-74910565D01*
X92696736Y-74477881D01*
X92108848Y-74000418D01*
X91561067Y-73481061D01*
X91055507Y-72922693D01*
X90594283Y-72328200D01*
X90179509Y-71700467D01*
X89813300Y-71042377D01*
X89497770Y-70356816D01*
X89235033Y-69646668D01*
X89027205Y-68914818D01*
X88932164Y-68488256D01*
X88859203Y-68077171D01*
X88807758Y-67670122D01*
X88776271Y-67251584D01*
X88763187Y-66806029D01*
X88766950Y-66317933D01*
X88767976Y-66274482D01*
X88780117Y-65921781D01*
X88799246Y-65610032D01*
X88827325Y-65322260D01*
X88866317Y-65041493D01*
X88918185Y-64750755D01*
X88984891Y-64433075D01*
X89066096Y-64067327D01*
X88999922Y-63983200D01*
X88979391Y-63958475D01*
X88916805Y-63886593D01*
X88823491Y-63781482D01*
X88705610Y-63649928D01*
X88569322Y-63498720D01*
X88420787Y-63334644D01*
X88266166Y-63164487D01*
X88111620Y-62995037D01*
X87963309Y-62833081D01*
X87827393Y-62685405D01*
X87710033Y-62558797D01*
X87617390Y-62460045D01*
X87505840Y-62346757D01*
X87356138Y-62203512D01*
X87193212Y-62054708D01*
X87028129Y-61910018D01*
X86871955Y-61779118D01*
X86735756Y-61671680D01*
X86630597Y-61597379D01*
X86624683Y-61593659D01*
X86491877Y-61530131D01*
X86358025Y-61510279D01*
X86307935Y-61509620D01*
X86255254Y-61504929D01*
X86249287Y-61491219D01*
X86281338Y-61463145D01*
X86293026Y-61455087D01*
X86390125Y-61429776D01*
X86525614Y-61449181D01*
X86698454Y-61512936D01*
X86907604Y-61620669D01*
X87152024Y-61772014D01*
X87165690Y-61781080D01*
X87350099Y-61909159D01*
X87549229Y-62058201D01*
X87767550Y-62231938D01*
X88009537Y-62434098D01*
X88279662Y-62668413D01*
X88582396Y-62938613D01*
X88922213Y-63248428D01*
X88941478Y-63266134D01*
X89056059Y-63370561D01*
X89135520Y-63439538D01*
X89187578Y-63477892D01*
X89219953Y-63490446D01*
X89240361Y-63482028D01*
X89256519Y-63457462D01*
X89273756Y-63428173D01*
X89293541Y-63417819D01*
X89318669Y-63447724D01*
X89359641Y-63524738D01*
X89380015Y-63564136D01*
X89431655Y-63659996D01*
X89473631Y-63732983D01*
X89475285Y-63735714D01*
X89481574Y-63757936D01*
X89449138Y-63737247D01*
X89379850Y-63674809D01*
X89309986Y-63611487D01*
X89253652Y-63566871D01*
X89227437Y-63554714D01*
X89223055Y-63562315D01*
X89203324Y-63615185D01*
X89175680Y-63701794D01*
X89145252Y-63804493D01*
X89117169Y-63905635D01*
X89096558Y-63987572D01*
X89088549Y-64032658D01*
X89093271Y-64045049D01*
X89128758Y-64099532D01*
X89193315Y-64186095D01*
X89280157Y-64295805D01*
X89382502Y-64419728D01*
X89403284Y-64444434D01*
X89528982Y-64594776D01*
X89657919Y-64750307D01*
X89776061Y-64894040D01*
X89869372Y-65008988D01*
X89908144Y-65057033D01*
X90001289Y-65171596D01*
X90119820Y-65316654D01*
X90255533Y-65482192D01*
X90400222Y-65658192D01*
X90545685Y-65834638D01*
X90651082Y-65962974D01*
X90798884Y-66146913D01*
X90921004Y-66306062D01*
X91026290Y-66452959D01*
X91123591Y-66600141D01*
X91221754Y-66760146D01*
X91329628Y-66945513D01*
X91509400Y-67257132D01*
X91896272Y-67908236D01*
X92278530Y-68523116D01*
X92665496Y-69116221D01*
X93066491Y-69701996D01*
X93490839Y-70294888D01*
X93689001Y-70570793D01*
X93862424Y-70823616D01*
X94017220Y-71063655D01*
X94163946Y-71307288D01*
X94313155Y-71570893D01*
X94325314Y-71592867D01*
X94446845Y-71807035D01*
X94580889Y-72035079D01*
X94717317Y-72260252D01*
X94845997Y-72465806D01*
X94956799Y-72634993D01*
X95030857Y-72747431D01*
X95147338Y-72932115D01*
X95278227Y-73146501D01*
X95415597Y-73377396D01*
X95551525Y-73611606D01*
X95678087Y-73835938D01*
X95757845Y-73978887D01*
X95904851Y-74238487D01*
X96057803Y-74504229D01*
X96213463Y-74770808D01*
X96368593Y-75032920D01*
X96519956Y-75285261D01*
X96664313Y-75522526D01*
X96798427Y-75739411D01*
X96919060Y-75930613D01*
X97022973Y-76090826D01*
X97106931Y-76214746D01*
X97167694Y-76297070D01*
X97202025Y-76332493D01*
X97255715Y-76352032D01*
X97379628Y-76377177D01*
X97549672Y-76397962D01*
X97757648Y-76414329D01*
X97995360Y-76426216D01*
X98254611Y-76433563D01*
X98527203Y-76436312D01*
X98804939Y-76434401D01*
X99079623Y-76427771D01*
X99343056Y-76416361D01*
X99587041Y-76400113D01*
X99803383Y-76378964D01*
X99983882Y-76352857D01*
X99984955Y-76352665D01*
X100147512Y-76352665D01*
X100156292Y-76367451D01*
X100203274Y-76412488D01*
X100281938Y-76479220D01*
X100383049Y-76559535D01*
X100463573Y-76621465D01*
X100622358Y-76741265D01*
X100736239Y-76823291D01*
X100804841Y-76867280D01*
X100827792Y-76872967D01*
X100827342Y-76871478D01*
X100799366Y-76842831D01*
X100735337Y-76788454D01*
X100645610Y-76716266D01*
X100540541Y-76634188D01*
X100430485Y-76550141D01*
X100325799Y-76472045D01*
X100236837Y-76407820D01*
X100173957Y-76365386D01*
X100147512Y-76352665D01*
X99984955Y-76352665D01*
X100085717Y-76334632D01*
X99848776Y-76111155D01*
X99611835Y-75887679D01*
X99846000Y-76075524D01*
X99911644Y-76128677D01*
X100001877Y-76203583D01*
X100066782Y-76259829D01*
X100095467Y-76288129D01*
X100102715Y-76296013D01*
X100151663Y-76310230D01*
X100243837Y-76307940D01*
X100383970Y-76288791D01*
X100576792Y-76252433D01*
X100622372Y-76242768D01*
X100740350Y-76215948D01*
X100881873Y-76182126D01*
X101035232Y-76144289D01*
X101188718Y-76105420D01*
X101330621Y-76068505D01*
X101449234Y-76036527D01*
X101532845Y-76012472D01*
X101569748Y-75999324D01*
X101567750Y-75996876D01*
X101614375Y-75996876D01*
X101617809Y-76004660D01*
X101655791Y-76045821D01*
X101729240Y-76116376D01*
X101831281Y-76210238D01*
X101955039Y-76321319D01*
X102093641Y-76443530D01*
X102240211Y-76570784D01*
X102387874Y-76696993D01*
X102529757Y-76816070D01*
X102599216Y-76872967D01*
X102630203Y-76898350D01*
X102658984Y-76921926D01*
X102703367Y-76957443D01*
X102862504Y-77081448D01*
X103026322Y-77204783D01*
X103177888Y-77314852D01*
X103300272Y-77399057D01*
X103383654Y-77451609D01*
X103494586Y-77514724D01*
X103584247Y-77557889D01*
X103638661Y-77573882D01*
X103654661Y-77572540D01*
X103688565Y-77559173D01*
X103726851Y-77526829D01*
X103773489Y-77469836D01*
X103832450Y-77382521D01*
X103907704Y-77259213D01*
X104003221Y-77094237D01*
X104122971Y-76881922D01*
X104136284Y-76858121D01*
X104259499Y-76634661D01*
X104369256Y-76428299D01*
X104470453Y-76228547D01*
X104567987Y-76024915D01*
X104666754Y-75806916D01*
X104771651Y-75564060D01*
X104887576Y-75285859D01*
X105019424Y-74961825D01*
X105082311Y-74806967D01*
X105165390Y-74605523D01*
X105239205Y-74430189D01*
X105301175Y-74286905D01*
X105348718Y-74181609D01*
X105379253Y-74120239D01*
X105390200Y-74108736D01*
X105388964Y-74125850D01*
X105375355Y-74203084D01*
X105348690Y-74324597D01*
X105311399Y-74480954D01*
X105265909Y-74662717D01*
X105214652Y-74860451D01*
X105160057Y-75064717D01*
X105104552Y-75266079D01*
X105050568Y-75455101D01*
X105000534Y-75622345D01*
X104971598Y-75713593D01*
X104892871Y-75946266D01*
X104799106Y-76207651D01*
X104696830Y-76480523D01*
X104592572Y-76747657D01*
X104492858Y-76991831D01*
X104404217Y-77195819D01*
X104395083Y-77216116D01*
X104353969Y-77313217D01*
X104328007Y-77384480D01*
X104322480Y-77415693D01*
X104323209Y-77416276D01*
X104360405Y-77410993D01*
X104436523Y-77381473D01*
X104539572Y-77333779D01*
X104657562Y-77273975D01*
X104778502Y-77208125D01*
X104890402Y-77142292D01*
X104981271Y-77082541D01*
X105006247Y-77064278D01*
X105186520Y-76914212D01*
X105372629Y-76732060D01*
X105546371Y-76536724D01*
X105689543Y-76347107D01*
X105745859Y-76258191D01*
X105846736Y-76078988D01*
X105953405Y-75869553D01*
X106057915Y-75646429D01*
X106152317Y-75426161D01*
X106228659Y-75225292D01*
X106319893Y-74963345D01*
X106261444Y-74605076D01*
X106242210Y-74491418D01*
X106204824Y-74284017D01*
X106163995Y-74069826D01*
X106125660Y-73880535D01*
X106122846Y-73867161D01*
X106094933Y-73728489D01*
X106074006Y-73613580D01*
X106062046Y-73534059D01*
X106061037Y-73501551D01*
X106066618Y-73501608D01*
X106091886Y-73539403D01*
X106131150Y-73626734D01*
X106182127Y-73757849D01*
X106242531Y-73926996D01*
X106310076Y-74128424D01*
X106315562Y-74145128D01*
X106360156Y-74272735D01*
X106399352Y-74371342D01*
X106429087Y-74431479D01*
X106445298Y-74443672D01*
X106456856Y-74408582D01*
X106476855Y-74320451D01*
X106501229Y-74194051D01*
X106528007Y-74041170D01*
X106555217Y-73873596D01*
X106580887Y-73703117D01*
X106603047Y-73541521D01*
X106619726Y-73400596D01*
X106627994Y-73316045D01*
X106641016Y-73160623D01*
X106653054Y-72992106D01*
X106663588Y-72820919D01*
X106672093Y-72657483D01*
X106678049Y-72512222D01*
X106680933Y-72395559D01*
X106680222Y-72317918D01*
X106675395Y-72289721D01*
X106664978Y-72298081D01*
X106624262Y-72344638D01*
X106561734Y-72422902D01*
X106485919Y-72522404D01*
X106211781Y-72871455D01*
X105718802Y-73422969D01*
X105181303Y-73938016D01*
X104603337Y-74413602D01*
X103988959Y-74846728D01*
X103342224Y-75234398D01*
X102667186Y-75573617D01*
X101967900Y-75861386D01*
X101961147Y-75863870D01*
X101828985Y-75912924D01*
X101719675Y-75954302D01*
X101644408Y-75983715D01*
X101614375Y-75996876D01*
X101567750Y-75996876D01*
X101557502Y-75984318D01*
X101508726Y-75931678D01*
X101427972Y-75846730D01*
X101320778Y-75735254D01*
X101192679Y-75603031D01*
X101049212Y-75455842D01*
X101006793Y-75412379D01*
X100747557Y-75144221D01*
X100470266Y-74853512D01*
X100180928Y-74546796D01*
X99885551Y-74230616D01*
X99590144Y-73911516D01*
X99300715Y-73596041D01*
X99023271Y-73290734D01*
X98763823Y-73002139D01*
X98528377Y-72736800D01*
X98322943Y-72501260D01*
X98153528Y-72302064D01*
X98091236Y-72231302D01*
X97984220Y-72116287D01*
X97844408Y-71970365D01*
X97677405Y-71799234D01*
X97488822Y-71608597D01*
X97284264Y-71404153D01*
X97069341Y-71191604D01*
X96849660Y-70976649D01*
X96727867Y-70858290D01*
X96467070Y-70605668D01*
X96242711Y-70388561D01*
X96050825Y-70201814D01*
X95887448Y-70040272D01*
X95748612Y-69898780D01*
X95630355Y-69772185D01*
X95528710Y-69655331D01*
X95439712Y-69543064D01*
X95359397Y-69430229D01*
X95283799Y-69311672D01*
X95208953Y-69182237D01*
X95130893Y-69036770D01*
X95045656Y-68870118D01*
X94949275Y-68677124D01*
X94837785Y-68452634D01*
X94707222Y-68191494D01*
X94610889Y-67999678D01*
X94441653Y-67661355D01*
X94266670Y-67309804D01*
X94084117Y-66941297D01*
X93892173Y-66552107D01*
X93689014Y-66138509D01*
X93472817Y-65696775D01*
X93241760Y-65223178D01*
X92994019Y-64713991D01*
X92727773Y-64165488D01*
X92441199Y-63573942D01*
X92132473Y-62935626D01*
X91799774Y-62246813D01*
X91741986Y-62127156D01*
X91597178Y-61827805D01*
X91460563Y-61546082D01*
X91334372Y-61286546D01*
X91220835Y-61053757D01*
X91122184Y-60852275D01*
X91040649Y-60686661D01*
X90978461Y-60561474D01*
X90937851Y-60481274D01*
X90921050Y-60450622D01*
X90908934Y-60452219D01*
X90866346Y-60488840D01*
X90803473Y-60560016D01*
X90729015Y-60656425D01*
X90560611Y-60887024D01*
X90528202Y-60801316D01*
X90510706Y-60755132D01*
X90422774Y-60524940D01*
X90320294Y-60259182D01*
X90207266Y-59968041D01*
X90087691Y-59661701D01*
X89965571Y-59350343D01*
X89844907Y-59044152D01*
X89729699Y-58753309D01*
X89623950Y-58487999D01*
X89531660Y-58258403D01*
X89456831Y-58074706D01*
X89368845Y-57861959D01*
X89270016Y-57626857D01*
X89186947Y-57435213D01*
X89116264Y-57279918D01*
X89054594Y-57153860D01*
X88998562Y-57049931D01*
X88944795Y-56961021D01*
X88889919Y-56880018D01*
X88860584Y-56838482D01*
X88809453Y-56761503D01*
X88793731Y-56725315D01*
X88812430Y-56725098D01*
X88864566Y-56756030D01*
X88894717Y-56780799D01*
X88971327Y-56868405D01*
X89070546Y-57005739D01*
X89190578Y-57189696D01*
X89329628Y-57417168D01*
X89485902Y-57685048D01*
X89657602Y-57990230D01*
X89842935Y-58329606D01*
X90040105Y-58700071D01*
X90247316Y-59098516D01*
X90462774Y-59521835D01*
X90532263Y-59659404D01*
X90633986Y-59859349D01*
X90725233Y-60036985D01*
X90802732Y-60186030D01*
X90863207Y-60300205D01*
X90903385Y-60373229D01*
X90919991Y-60398822D01*
X90942734Y-60378568D01*
X90991578Y-60322537D01*
X91055097Y-60243409D01*
X91115548Y-60170155D01*
X91232116Y-60040258D01*
X91378085Y-59886098D01*
X91544344Y-59716664D01*
X91721783Y-59540944D01*
X91901291Y-59367925D01*
X92073758Y-59206595D01*
X92230073Y-59065944D01*
X92361125Y-58954957D01*
X92702768Y-58689956D01*
X93344880Y-58247747D01*
X94007961Y-57861756D01*
X94692651Y-57531717D01*
X95399590Y-57257367D01*
X96129417Y-57038441D01*
X96882773Y-56874675D01*
X97660298Y-56765804D01*
X97782487Y-56755236D01*
X98029534Y-56741941D01*
X98311608Y-56734531D01*
X98613123Y-56732888D01*
X98918495Y-56736891D01*
X99212140Y-56746418D01*
X99478471Y-56761351D01*
X99701906Y-56781568D01*
X100246773Y-56859544D01*
X101002788Y-57018354D01*
X101739134Y-57233063D01*
X102453534Y-57502679D01*
X103143709Y-57826210D01*
X103807383Y-58202663D01*
X104442277Y-58631046D01*
X105046114Y-59110366D01*
X105130515Y-59184591D01*
X105323782Y-59364285D01*
X105534217Y-59570539D01*
X105749195Y-59790315D01*
X105956089Y-60010570D01*
X106142273Y-60218265D01*
X106295121Y-60400359D01*
X106466266Y-60620206D01*
X106909083Y-61253623D01*
X107297592Y-61912543D01*
X107631850Y-62597101D01*
X107911912Y-63307434D01*
X108137836Y-64043679D01*
X108309676Y-64805972D01*
X108427489Y-65594449D01*
X108438156Y-65712643D01*
X108449487Y-65915239D01*
X108457199Y-66153940D01*
X108461293Y-66415026D01*
X108461769Y-66684776D01*
X108458626Y-66949470D01*
X108451865Y-67195387D01*
X108441486Y-67408807D01*
X108427489Y-67576009D01*
X108355056Y-68104631D01*
X108202274Y-68873020D01*
X107996252Y-69613842D01*
X107736878Y-70327429D01*
X107424041Y-71014116D01*
X107057631Y-71674236D01*
X106856888Y-72004496D01*
X106853757Y-72395559D01*
X106849078Y-72980265D01*
X106845587Y-73282650D01*
X106838458Y-73601777D01*
X106827360Y-73879529D01*
X106811455Y-74126099D01*
X106789908Y-74351679D01*
X106761882Y-74566464D01*
X106726543Y-74780646D01*
X106683052Y-75004420D01*
X106681718Y-75010940D01*
X106654256Y-75177641D01*
X106640521Y-75332165D01*
X106640534Y-75462946D01*
X106654320Y-75558420D01*
X106681898Y-75607022D01*
X106684952Y-75606921D01*
X106705658Y-75573018D01*
X106737500Y-75491978D01*
X106777703Y-75372724D01*
X106823489Y-75224183D01*
X106872081Y-75055279D01*
X106920702Y-74874938D01*
X106966575Y-74692084D01*
X106991410Y-74582868D01*
X107042703Y-74322793D01*
X107093387Y-74024140D01*
X107141688Y-73700796D01*
X107185828Y-73366644D01*
X107224034Y-73035569D01*
X107254528Y-72721455D01*
X107275537Y-72438187D01*
X107285285Y-72199650D01*
X107287110Y-72123755D01*
X107291535Y-72076872D01*
X107300729Y-72079172D01*
X107317278Y-72124591D01*
X107321554Y-72141341D01*
X107332833Y-72229316D01*
X107341317Y-72365202D01*
X107347071Y-72539890D01*
X107350158Y-72744272D01*
X107350642Y-72969239D01*
X107348587Y-73205683D01*
X107344057Y-73444495D01*
X107337115Y-73676567D01*
X107327825Y-73892791D01*
X107316251Y-74084057D01*
X107302456Y-74241258D01*
X107239214Y-74744948D01*
X107158168Y-75242801D01*
X107063520Y-75702246D01*
X106971835Y-76057688D01*
X106956714Y-76116309D01*
X106839195Y-76478019D01*
G37*
X106839195Y-76478019D02*
X106834768Y-76490253D01*
X106789350Y-76636114D01*
X106752248Y-76789204D01*
X106731123Y-76918309D01*
X106728680Y-76942023D01*
X106668226Y-77298039D01*
X106567809Y-77619015D01*
X106429437Y-77901543D01*
X106255121Y-78142221D01*
X106047259Y-78337277D01*
X106046869Y-78337643D01*
X105806693Y-78484405D01*
X105789231Y-78492608D01*
X105669507Y-78544848D01*
X105559632Y-78586800D01*
X105481456Y-78610025D01*
X105422185Y-78628736D01*
X105320561Y-78675491D01*
X105217174Y-78735646D01*
X105127787Y-78791811D01*
X104784796Y-78969677D01*
X104406217Y-79114918D01*
X104102975Y-79197220D01*
X104005881Y-79223572D01*
X103597622Y-79291672D01*
X103195269Y-79315253D01*
X103138023Y-79316498D01*
X103057478Y-79329330D01*
X102986633Y-79364510D01*
X102899601Y-79432285D01*
X102786846Y-79522821D01*
X102461111Y-79736696D01*
X102120118Y-79892712D01*
X101764325Y-79990644D01*
X101572418Y-80014972D01*
X101311947Y-80020705D01*
X101045518Y-80001265D01*
X100799302Y-79957551D01*
X100645374Y-79910495D01*
X100448398Y-79833066D01*
X100239668Y-79737003D01*
X100038286Y-79631146D01*
X99863355Y-79524338D01*
X99664873Y-79382806D01*
X99401876Y-79169113D01*
X99136250Y-78922473D01*
X98864613Y-78639125D01*
X98623623Y-78361446D01*
X100009760Y-78361446D01*
X100016101Y-78376335D01*
X100058439Y-78424778D01*
X100131371Y-78500842D01*
X100229494Y-78598591D01*
X100295985Y-78662653D01*
X100483537Y-78829040D01*
X100660029Y-78959730D01*
X100841652Y-79065845D01*
X101044599Y-79158509D01*
X101168660Y-79201901D01*
X101313175Y-79230992D01*
X101488312Y-79243637D01*
X101526501Y-79244633D01*
X101648119Y-79245240D01*
X101746615Y-79242029D01*
X101803560Y-79235478D01*
X101842585Y-79223291D01*
X101884150Y-79197220D01*
X101866153Y-79173396D01*
X101788922Y-79153665D01*
X101707551Y-79137108D01*
X101552943Y-79095671D01*
X101371669Y-79038908D01*
X101180420Y-78972433D01*
X100995889Y-78901860D01*
X100834767Y-78832800D01*
X100823844Y-78827729D01*
X100595610Y-78711763D01*
X100327475Y-78558066D01*
X100017154Y-78365331D01*
X100009760Y-78361446D01*
X98623623Y-78361446D01*
X98583585Y-78315312D01*
X98456567Y-78156198D01*
X101736650Y-78156198D01*
X101756230Y-78170911D01*
X101823139Y-78197072D01*
X101926512Y-78231467D01*
X102055481Y-78270882D01*
X102199181Y-78312103D01*
X102346745Y-78351917D01*
X102487306Y-78387109D01*
X102609998Y-78414466D01*
X102624746Y-78417460D01*
X102777248Y-78447616D01*
X102883540Y-78465034D01*
X102955234Y-78469363D01*
X103003940Y-78460253D01*
X103041268Y-78437354D01*
X103078829Y-78400315D01*
X103085452Y-78393264D01*
X103113516Y-78361080D01*
X103123475Y-78337277D01*
X103108372Y-78319642D01*
X103061249Y-78305962D01*
X102975150Y-78294024D01*
X102843118Y-78281615D01*
X102658196Y-78266523D01*
X102484252Y-78250721D01*
X102299570Y-78230724D01*
X102130714Y-78209473D01*
X101999732Y-78189545D01*
X101953910Y-78181702D01*
X101846329Y-78165165D01*
X101769146Y-78156051D01*
X101736673Y-78156175D01*
X101736650Y-78156198D01*
X98456567Y-78156198D01*
X98306457Y-77968156D01*
X104696911Y-77968156D01*
X104703344Y-77976240D01*
X104734349Y-77984488D01*
X104809352Y-77995666D01*
X104911007Y-78006899D01*
X105106161Y-78025508D01*
X105286303Y-77879573D01*
X105412271Y-77772048D01*
X105713467Y-77464978D01*
X105990850Y-77106004D01*
X106246330Y-76692769D01*
X106283964Y-76622610D01*
X106333381Y-76510430D01*
X106360405Y-76403212D01*
X106373675Y-76272438D01*
X106386772Y-76057688D01*
X106237538Y-76349613D01*
X106041772Y-76698742D01*
X105799732Y-77048215D01*
X105533788Y-77349550D01*
X105239146Y-77608094D01*
X104911007Y-77829198D01*
X104887197Y-77843228D01*
X104788346Y-77901716D01*
X104729974Y-77937577D01*
X104702642Y-77957496D01*
X104696911Y-77968156D01*
X98306457Y-77968156D01*
X98289786Y-77947272D01*
X97979834Y-77531248D01*
X97650349Y-77063480D01*
X97562037Y-76935137D01*
X97536696Y-76898350D01*
X100857816Y-76898350D01*
X100872828Y-76913362D01*
X100887839Y-76898350D01*
X100872828Y-76883338D01*
X100857816Y-76898350D01*
X97536696Y-76898350D01*
X97450109Y-76772654D01*
X97351655Y-76629934D01*
X97271807Y-76514410D01*
X97215699Y-76433513D01*
X97188463Y-76394675D01*
X97139345Y-76360334D01*
X97037510Y-76327200D01*
X96879683Y-76295075D01*
X96807727Y-76282428D01*
X96129760Y-76132388D01*
X95450534Y-75927741D01*
X94780038Y-75672249D01*
X94128258Y-75369676D01*
X93505181Y-75023783D01*
X93322616Y-74910565D01*
X92696736Y-74477881D01*
X92108848Y-74000418D01*
X91561067Y-73481061D01*
X91055507Y-72922693D01*
X90594283Y-72328200D01*
X90179509Y-71700467D01*
X89813300Y-71042377D01*
X89497770Y-70356816D01*
X89235033Y-69646668D01*
X89027205Y-68914818D01*
X88932164Y-68488256D01*
X88859203Y-68077171D01*
X88807758Y-67670122D01*
X88776271Y-67251584D01*
X88763187Y-66806029D01*
X88766950Y-66317933D01*
X88767976Y-66274482D01*
X88780117Y-65921781D01*
X88799246Y-65610032D01*
X88827325Y-65322260D01*
X88866317Y-65041493D01*
X88918185Y-64750755D01*
X88984891Y-64433075D01*
X89066096Y-64067327D01*
X88999922Y-63983200D01*
X88979391Y-63958475D01*
X88916805Y-63886593D01*
X88823491Y-63781482D01*
X88705610Y-63649928D01*
X88569322Y-63498720D01*
X88420787Y-63334644D01*
X88266166Y-63164487D01*
X88111620Y-62995037D01*
X87963309Y-62833081D01*
X87827393Y-62685405D01*
X87710033Y-62558797D01*
X87617390Y-62460045D01*
X87505840Y-62346757D01*
X87356138Y-62203512D01*
X87193212Y-62054708D01*
X87028129Y-61910018D01*
X86871955Y-61779118D01*
X86735756Y-61671680D01*
X86630597Y-61597379D01*
X86624683Y-61593659D01*
X86491877Y-61530131D01*
X86358025Y-61510279D01*
X86307935Y-61509620D01*
X86255254Y-61504929D01*
X86249287Y-61491219D01*
X86281338Y-61463145D01*
X86293026Y-61455087D01*
X86390125Y-61429776D01*
X86525614Y-61449181D01*
X86698454Y-61512936D01*
X86907604Y-61620669D01*
X87152024Y-61772014D01*
X87165690Y-61781080D01*
X87350099Y-61909159D01*
X87549229Y-62058201D01*
X87767550Y-62231938D01*
X88009537Y-62434098D01*
X88279662Y-62668413D01*
X88582396Y-62938613D01*
X88922213Y-63248428D01*
X88941478Y-63266134D01*
X89056059Y-63370561D01*
X89135520Y-63439538D01*
X89187578Y-63477892D01*
X89219953Y-63490446D01*
X89240361Y-63482028D01*
X89256519Y-63457462D01*
X89273756Y-63428173D01*
X89293541Y-63417819D01*
X89318669Y-63447724D01*
X89359641Y-63524738D01*
X89380015Y-63564136D01*
X89431655Y-63659996D01*
X89473631Y-63732983D01*
X89475285Y-63735714D01*
X89481574Y-63757936D01*
X89449138Y-63737247D01*
X89379850Y-63674809D01*
X89309986Y-63611487D01*
X89253652Y-63566871D01*
X89227437Y-63554714D01*
X89223055Y-63562315D01*
X89203324Y-63615185D01*
X89175680Y-63701794D01*
X89145252Y-63804493D01*
X89117169Y-63905635D01*
X89096558Y-63987572D01*
X89088549Y-64032658D01*
X89093271Y-64045049D01*
X89128758Y-64099532D01*
X89193315Y-64186095D01*
X89280157Y-64295805D01*
X89382502Y-64419728D01*
X89403284Y-64444434D01*
X89528982Y-64594776D01*
X89657919Y-64750307D01*
X89776061Y-64894040D01*
X89869372Y-65008988D01*
X89908144Y-65057033D01*
X90001289Y-65171596D01*
X90119820Y-65316654D01*
X90255533Y-65482192D01*
X90400222Y-65658192D01*
X90545685Y-65834638D01*
X90651082Y-65962974D01*
X90798884Y-66146913D01*
X90921004Y-66306062D01*
X91026290Y-66452959D01*
X91123591Y-66600141D01*
X91221754Y-66760146D01*
X91329628Y-66945513D01*
X91509400Y-67257132D01*
X91896272Y-67908236D01*
X92278530Y-68523116D01*
X92665496Y-69116221D01*
X93066491Y-69701996D01*
X93490839Y-70294888D01*
X93689001Y-70570793D01*
X93862424Y-70823616D01*
X94017220Y-71063655D01*
X94163946Y-71307288D01*
X94313155Y-71570893D01*
X94325314Y-71592867D01*
X94446845Y-71807035D01*
X94580889Y-72035079D01*
X94717317Y-72260252D01*
X94845997Y-72465806D01*
X94956799Y-72634993D01*
X95030857Y-72747431D01*
X95147338Y-72932115D01*
X95278227Y-73146501D01*
X95415597Y-73377396D01*
X95551525Y-73611606D01*
X95678087Y-73835938D01*
X95757845Y-73978887D01*
X95904851Y-74238487D01*
X96057803Y-74504229D01*
X96213463Y-74770808D01*
X96368593Y-75032920D01*
X96519956Y-75285261D01*
X96664313Y-75522526D01*
X96798427Y-75739411D01*
X96919060Y-75930613D01*
X97022973Y-76090826D01*
X97106931Y-76214746D01*
X97167694Y-76297070D01*
X97202025Y-76332493D01*
X97255715Y-76352032D01*
X97379628Y-76377177D01*
X97549672Y-76397962D01*
X97757648Y-76414329D01*
X97995360Y-76426216D01*
X98254611Y-76433563D01*
X98527203Y-76436312D01*
X98804939Y-76434401D01*
X99079623Y-76427771D01*
X99343056Y-76416361D01*
X99587041Y-76400113D01*
X99803383Y-76378964D01*
X99983882Y-76352857D01*
X99984955Y-76352665D01*
X100147512Y-76352665D01*
X100156292Y-76367451D01*
X100203274Y-76412488D01*
X100281938Y-76479220D01*
X100383049Y-76559535D01*
X100463573Y-76621465D01*
X100622358Y-76741265D01*
X100736239Y-76823291D01*
X100804841Y-76867280D01*
X100827792Y-76872967D01*
X100827342Y-76871478D01*
X100799366Y-76842831D01*
X100735337Y-76788454D01*
X100645610Y-76716266D01*
X100540541Y-76634188D01*
X100430485Y-76550141D01*
X100325799Y-76472045D01*
X100236837Y-76407820D01*
X100173957Y-76365386D01*
X100147512Y-76352665D01*
X99984955Y-76352665D01*
X100085717Y-76334632D01*
X99848776Y-76111155D01*
X99611835Y-75887679D01*
X99846000Y-76075524D01*
X99911644Y-76128677D01*
X100001877Y-76203583D01*
X100066782Y-76259829D01*
X100095467Y-76288129D01*
X100102715Y-76296013D01*
X100151663Y-76310230D01*
X100243837Y-76307940D01*
X100383970Y-76288791D01*
X100576792Y-76252433D01*
X100622372Y-76242768D01*
X100740350Y-76215948D01*
X100881873Y-76182126D01*
X101035232Y-76144289D01*
X101188718Y-76105420D01*
X101330621Y-76068505D01*
X101449234Y-76036527D01*
X101532845Y-76012472D01*
X101569748Y-75999324D01*
X101567750Y-75996876D01*
X101614375Y-75996876D01*
X101617809Y-76004660D01*
X101655791Y-76045821D01*
X101729240Y-76116376D01*
X101831281Y-76210238D01*
X101955039Y-76321319D01*
X102093641Y-76443530D01*
X102240211Y-76570784D01*
X102387874Y-76696993D01*
X102529757Y-76816070D01*
X102599216Y-76872967D01*
X102630203Y-76898350D01*
X102658984Y-76921926D01*
X102703367Y-76957443D01*
X102862504Y-77081448D01*
X103026322Y-77204783D01*
X103177888Y-77314852D01*
X103300272Y-77399057D01*
X103383654Y-77451609D01*
X103494586Y-77514724D01*
X103584247Y-77557889D01*
X103638661Y-77573882D01*
X103654661Y-77572540D01*
X103688565Y-77559173D01*
X103726851Y-77526829D01*
X103773489Y-77469836D01*
X103832450Y-77382521D01*
X103907704Y-77259213D01*
X104003221Y-77094237D01*
X104122971Y-76881922D01*
X104136284Y-76858121D01*
X104259499Y-76634661D01*
X104369256Y-76428299D01*
X104470453Y-76228547D01*
X104567987Y-76024915D01*
X104666754Y-75806916D01*
X104771651Y-75564060D01*
X104887576Y-75285859D01*
X105019424Y-74961825D01*
X105082311Y-74806967D01*
X105165390Y-74605523D01*
X105239205Y-74430189D01*
X105301175Y-74286905D01*
X105348718Y-74181609D01*
X105379253Y-74120239D01*
X105390200Y-74108736D01*
X105388964Y-74125850D01*
X105375355Y-74203084D01*
X105348690Y-74324597D01*
X105311399Y-74480954D01*
X105265909Y-74662717D01*
X105214652Y-74860451D01*
X105160057Y-75064717D01*
X105104552Y-75266079D01*
X105050568Y-75455101D01*
X105000534Y-75622345D01*
X104971598Y-75713593D01*
X104892871Y-75946266D01*
X104799106Y-76207651D01*
X104696830Y-76480523D01*
X104592572Y-76747657D01*
X104492858Y-76991831D01*
X104404217Y-77195819D01*
X104395083Y-77216116D01*
X104353969Y-77313217D01*
X104328007Y-77384480D01*
X104322480Y-77415693D01*
X104323209Y-77416276D01*
X104360405Y-77410993D01*
X104436523Y-77381473D01*
X104539572Y-77333779D01*
X104657562Y-77273975D01*
X104778502Y-77208125D01*
X104890402Y-77142292D01*
X104981271Y-77082541D01*
X105006247Y-77064278D01*
X105186520Y-76914212D01*
X105372629Y-76732060D01*
X105546371Y-76536724D01*
X105689543Y-76347107D01*
X105745859Y-76258191D01*
X105846736Y-76078988D01*
X105953405Y-75869553D01*
X106057915Y-75646429D01*
X106152317Y-75426161D01*
X106228659Y-75225292D01*
X106319893Y-74963345D01*
X106261444Y-74605076D01*
X106242210Y-74491418D01*
X106204824Y-74284017D01*
X106163995Y-74069826D01*
X106125660Y-73880535D01*
X106122846Y-73867161D01*
X106094933Y-73728489D01*
X106074006Y-73613580D01*
X106062046Y-73534059D01*
X106061037Y-73501551D01*
X106066618Y-73501608D01*
X106091886Y-73539403D01*
X106131150Y-73626734D01*
X106182127Y-73757849D01*
X106242531Y-73926996D01*
X106310076Y-74128424D01*
X106315562Y-74145128D01*
X106360156Y-74272735D01*
X106399352Y-74371342D01*
X106429087Y-74431479D01*
X106445298Y-74443672D01*
X106456856Y-74408582D01*
X106476855Y-74320451D01*
X106501229Y-74194051D01*
X106528007Y-74041170D01*
X106555217Y-73873596D01*
X106580887Y-73703117D01*
X106603047Y-73541521D01*
X106619726Y-73400596D01*
X106627994Y-73316045D01*
X106641016Y-73160623D01*
X106653054Y-72992106D01*
X106663588Y-72820919D01*
X106672093Y-72657483D01*
X106678049Y-72512222D01*
X106680933Y-72395559D01*
X106680222Y-72317918D01*
X106675395Y-72289721D01*
X106664978Y-72298081D01*
X106624262Y-72344638D01*
X106561734Y-72422902D01*
X106485919Y-72522404D01*
X106211781Y-72871455D01*
X105718802Y-73422969D01*
X105181303Y-73938016D01*
X104603337Y-74413602D01*
X103988959Y-74846728D01*
X103342224Y-75234398D01*
X102667186Y-75573617D01*
X101967900Y-75861386D01*
X101961147Y-75863870D01*
X101828985Y-75912924D01*
X101719675Y-75954302D01*
X101644408Y-75983715D01*
X101614375Y-75996876D01*
X101567750Y-75996876D01*
X101557502Y-75984318D01*
X101508726Y-75931678D01*
X101427972Y-75846730D01*
X101320778Y-75735254D01*
X101192679Y-75603031D01*
X101049212Y-75455842D01*
X101006793Y-75412379D01*
X100747557Y-75144221D01*
X100470266Y-74853512D01*
X100180928Y-74546796D01*
X99885551Y-74230616D01*
X99590144Y-73911516D01*
X99300715Y-73596041D01*
X99023271Y-73290734D01*
X98763823Y-73002139D01*
X98528377Y-72736800D01*
X98322943Y-72501260D01*
X98153528Y-72302064D01*
X98091236Y-72231302D01*
X97984220Y-72116287D01*
X97844408Y-71970365D01*
X97677405Y-71799234D01*
X97488822Y-71608597D01*
X97284264Y-71404153D01*
X97069341Y-71191604D01*
X96849660Y-70976649D01*
X96727867Y-70858290D01*
X96467070Y-70605668D01*
X96242711Y-70388561D01*
X96050825Y-70201814D01*
X95887448Y-70040272D01*
X95748612Y-69898780D01*
X95630355Y-69772185D01*
X95528710Y-69655331D01*
X95439712Y-69543064D01*
X95359397Y-69430229D01*
X95283799Y-69311672D01*
X95208953Y-69182237D01*
X95130893Y-69036770D01*
X95045656Y-68870118D01*
X94949275Y-68677124D01*
X94837785Y-68452634D01*
X94707222Y-68191494D01*
X94610889Y-67999678D01*
X94441653Y-67661355D01*
X94266670Y-67309804D01*
X94084117Y-66941297D01*
X93892173Y-66552107D01*
X93689014Y-66138509D01*
X93472817Y-65696775D01*
X93241760Y-65223178D01*
X92994019Y-64713991D01*
X92727773Y-64165488D01*
X92441199Y-63573942D01*
X92132473Y-62935626D01*
X91799774Y-62246813D01*
X91741986Y-62127156D01*
X91597178Y-61827805D01*
X91460563Y-61546082D01*
X91334372Y-61286546D01*
X91220835Y-61053757D01*
X91122184Y-60852275D01*
X91040649Y-60686661D01*
X90978461Y-60561474D01*
X90937851Y-60481274D01*
X90921050Y-60450622D01*
X90908934Y-60452219D01*
X90866346Y-60488840D01*
X90803473Y-60560016D01*
X90729015Y-60656425D01*
X90560611Y-60887024D01*
X90528202Y-60801316D01*
X90510706Y-60755132D01*
X90422774Y-60524940D01*
X90320294Y-60259182D01*
X90207266Y-59968041D01*
X90087691Y-59661701D01*
X89965571Y-59350343D01*
X89844907Y-59044152D01*
X89729699Y-58753309D01*
X89623950Y-58487999D01*
X89531660Y-58258403D01*
X89456831Y-58074706D01*
X89368845Y-57861959D01*
X89270016Y-57626857D01*
X89186947Y-57435213D01*
X89116264Y-57279918D01*
X89054594Y-57153860D01*
X88998562Y-57049931D01*
X88944795Y-56961021D01*
X88889919Y-56880018D01*
X88860584Y-56838482D01*
X88809453Y-56761503D01*
X88793731Y-56725315D01*
X88812430Y-56725098D01*
X88864566Y-56756030D01*
X88894717Y-56780799D01*
X88971327Y-56868405D01*
X89070546Y-57005739D01*
X89190578Y-57189696D01*
X89329628Y-57417168D01*
X89485902Y-57685048D01*
X89657602Y-57990230D01*
X89842935Y-58329606D01*
X90040105Y-58700071D01*
X90247316Y-59098516D01*
X90462774Y-59521835D01*
X90532263Y-59659404D01*
X90633986Y-59859349D01*
X90725233Y-60036985D01*
X90802732Y-60186030D01*
X90863207Y-60300205D01*
X90903385Y-60373229D01*
X90919991Y-60398822D01*
X90942734Y-60378568D01*
X90991578Y-60322537D01*
X91055097Y-60243409D01*
X91115548Y-60170155D01*
X91232116Y-60040258D01*
X91378085Y-59886098D01*
X91544344Y-59716664D01*
X91721783Y-59540944D01*
X91901291Y-59367925D01*
X92073758Y-59206595D01*
X92230073Y-59065944D01*
X92361125Y-58954957D01*
X92702768Y-58689956D01*
X93344880Y-58247747D01*
X94007961Y-57861756D01*
X94692651Y-57531717D01*
X95399590Y-57257367D01*
X96129417Y-57038441D01*
X96882773Y-56874675D01*
X97660298Y-56765804D01*
X97782487Y-56755236D01*
X98029534Y-56741941D01*
X98311608Y-56734531D01*
X98613123Y-56732888D01*
X98918495Y-56736891D01*
X99212140Y-56746418D01*
X99478471Y-56761351D01*
X99701906Y-56781568D01*
X100246773Y-56859544D01*
X101002788Y-57018354D01*
X101739134Y-57233063D01*
X102453534Y-57502679D01*
X103143709Y-57826210D01*
X103807383Y-58202663D01*
X104442277Y-58631046D01*
X105046114Y-59110366D01*
X105130515Y-59184591D01*
X105323782Y-59364285D01*
X105534217Y-59570539D01*
X105749195Y-59790315D01*
X105956089Y-60010570D01*
X106142273Y-60218265D01*
X106295121Y-60400359D01*
X106466266Y-60620206D01*
X106909083Y-61253623D01*
X107297592Y-61912543D01*
X107631850Y-62597101D01*
X107911912Y-63307434D01*
X108137836Y-64043679D01*
X108309676Y-64805972D01*
X108427489Y-65594449D01*
X108438156Y-65712643D01*
X108449487Y-65915239D01*
X108457199Y-66153940D01*
X108461293Y-66415026D01*
X108461769Y-66684776D01*
X108458626Y-66949470D01*
X108451865Y-67195387D01*
X108441486Y-67408807D01*
X108427489Y-67576009D01*
X108355056Y-68104631D01*
X108202274Y-68873020D01*
X107996252Y-69613842D01*
X107736878Y-70327429D01*
X107424041Y-71014116D01*
X107057631Y-71674236D01*
X106856888Y-72004496D01*
X106853757Y-72395559D01*
X106849078Y-72980265D01*
X106845587Y-73282650D01*
X106838458Y-73601777D01*
X106827360Y-73879529D01*
X106811455Y-74126099D01*
X106789908Y-74351679D01*
X106761882Y-74566464D01*
X106726543Y-74780646D01*
X106683052Y-75004420D01*
X106681718Y-75010940D01*
X106654256Y-75177641D01*
X106640521Y-75332165D01*
X106640534Y-75462946D01*
X106654320Y-75558420D01*
X106681898Y-75607022D01*
X106684952Y-75606921D01*
X106705658Y-75573018D01*
X106737500Y-75491978D01*
X106777703Y-75372724D01*
X106823489Y-75224183D01*
X106872081Y-75055279D01*
X106920702Y-74874938D01*
X106966575Y-74692084D01*
X106991410Y-74582868D01*
X107042703Y-74322793D01*
X107093387Y-74024140D01*
X107141688Y-73700796D01*
X107185828Y-73366644D01*
X107224034Y-73035569D01*
X107254528Y-72721455D01*
X107275537Y-72438187D01*
X107285285Y-72199650D01*
X107287110Y-72123755D01*
X107291535Y-72076872D01*
X107300729Y-72079172D01*
X107317278Y-72124591D01*
X107321554Y-72141341D01*
X107332833Y-72229316D01*
X107341317Y-72365202D01*
X107347071Y-72539890D01*
X107350158Y-72744272D01*
X107350642Y-72969239D01*
X107348587Y-73205683D01*
X107344057Y-73444495D01*
X107337115Y-73676567D01*
X107327825Y-73892791D01*
X107316251Y-74084057D01*
X107302456Y-74241258D01*
X107239214Y-74744948D01*
X107158168Y-75242801D01*
X107063520Y-75702246D01*
X106971835Y-76057688D01*
X106956714Y-76116309D01*
X106839195Y-76478019D01*
G36*
X60704457Y-83814883D02*
G01*
X60676511Y-83839261D01*
X60574877Y-83874413D01*
X60458504Y-83867559D01*
X60360450Y-83818365D01*
X60324744Y-83772280D01*
X60294731Y-83660063D01*
X60301833Y-83604132D01*
X60586641Y-83604132D01*
X60587704Y-83618739D01*
X60617961Y-83657969D01*
X60671166Y-83635672D01*
X60680453Y-83620413D01*
X60668991Y-83573405D01*
X60621130Y-83549154D01*
X60605284Y-83555340D01*
X60586641Y-83604132D01*
X60301833Y-83604132D01*
X60310262Y-83537753D01*
X60370545Y-83435379D01*
X60407955Y-83406504D01*
X60518747Y-83376467D01*
X60637491Y-83399955D01*
X60737673Y-83474167D01*
X60741810Y-83479369D01*
X60778974Y-83581989D01*
X60774739Y-83620413D01*
X60765574Y-83703562D01*
X60704457Y-83814883D01*
G37*
G36*
X66595046Y-81684485D02*
G01*
X66689610Y-81778512D01*
X66786337Y-81869485D01*
X66857011Y-81924693D01*
X66914660Y-81952481D01*
X66972311Y-81961194D01*
X67042991Y-81959175D01*
X67153655Y-81941919D01*
X67273717Y-81892117D01*
X67417780Y-81799361D01*
X67549402Y-81713079D01*
X67647205Y-81670354D01*
X67724152Y-81666277D01*
X67748547Y-81670903D01*
X67836371Y-81698068D01*
X67890845Y-81749477D01*
X67939154Y-81848122D01*
X67955700Y-81893368D01*
X67990553Y-82096613D01*
X67988002Y-82168698D01*
X67982216Y-82332182D01*
X67933960Y-82581291D01*
X67849054Y-82825158D01*
X67730769Y-83044999D01*
X67585907Y-83263093D01*
X67690050Y-83381704D01*
X67713430Y-83411003D01*
X67721021Y-83423695D01*
X67788257Y-83536115D01*
X67841493Y-83669255D01*
X67865651Y-83740789D01*
X67901911Y-83805162D01*
X67924329Y-83844962D01*
X68012328Y-83929324D01*
X68138442Y-83998180D01*
X68311462Y-84055831D01*
X68540182Y-84106583D01*
X68833394Y-84154738D01*
X68987714Y-84179166D01*
X69144232Y-84207803D01*
X69263657Y-84233951D01*
X69328199Y-84254040D01*
X69421703Y-84310681D01*
X69529461Y-84421576D01*
X69563421Y-84529761D01*
X69567756Y-84543572D01*
X69535427Y-84670557D01*
X69431313Y-84796421D01*
X69401581Y-84820883D01*
X69253415Y-84918879D01*
X69059156Y-85022571D01*
X68838558Y-85122794D01*
X68611376Y-85210382D01*
X68397366Y-85276167D01*
X68349631Y-85288029D01*
X67971868Y-85353335D01*
X67584750Y-85374364D01*
X67210789Y-85351012D01*
X66872499Y-85283175D01*
X66826901Y-85271829D01*
X66822175Y-85284927D01*
X66867825Y-85338925D01*
X66910666Y-85376436D01*
X67030642Y-85445232D01*
X67182102Y-85504772D01*
X67338381Y-85543465D01*
X67491727Y-85582660D01*
X67600488Y-85646105D01*
X67649435Y-85726112D01*
X67645650Y-85782706D01*
X67643285Y-85818067D01*
X67586756Y-85917356D01*
X67484564Y-86019366D01*
X67341427Y-86119483D01*
X67162061Y-86213092D01*
X66951183Y-86295580D01*
X66713512Y-86362333D01*
X66453762Y-86408736D01*
X66218574Y-86431241D01*
X65883789Y-86442228D01*
X65539624Y-86433108D01*
X65206355Y-86405132D01*
X64904261Y-86359551D01*
X64653621Y-86297619D01*
X64625484Y-86288484D01*
X64311380Y-86161312D01*
X64063191Y-86007393D01*
X63877577Y-85823483D01*
X63751200Y-85606340D01*
X63680720Y-85352720D01*
X63664916Y-85273134D01*
X63632751Y-85211924D01*
X63577003Y-85213344D01*
X63482873Y-85271307D01*
X63330933Y-85361353D01*
X63074860Y-85465574D01*
X62776304Y-85546709D01*
X62451633Y-85602160D01*
X62117217Y-85629330D01*
X61789423Y-85625620D01*
X61484620Y-85588434D01*
X61305907Y-85554137D01*
X61176772Y-85527448D01*
X61081311Y-85503426D01*
X61000206Y-85476484D01*
X60914139Y-85441034D01*
X60803792Y-85391487D01*
X60665881Y-85319554D01*
X60413375Y-85137337D01*
X60195246Y-84913279D01*
X60030855Y-84665565D01*
X60009408Y-84624369D01*
X59949400Y-84517663D01*
X59901873Y-84458978D01*
X59852117Y-84434132D01*
X59785422Y-84428943D01*
X59690460Y-84414784D01*
X59534870Y-84356689D01*
X59368465Y-84265143D01*
X59212940Y-84152549D01*
X59089989Y-84031313D01*
X59078390Y-84017130D01*
X59018984Y-83940450D01*
X58982745Y-83874919D01*
X58963995Y-83799424D01*
X58957055Y-83692851D01*
X58956514Y-83586814D01*
X59120756Y-83586814D01*
X59122167Y-83655580D01*
X59140012Y-83778100D01*
X59187837Y-83875680D01*
X59277512Y-83967545D01*
X59420907Y-84072920D01*
X59462955Y-84100791D01*
X59603380Y-84182014D01*
X59715615Y-84228442D01*
X59789690Y-84236774D01*
X59815638Y-84203705D01*
X59809482Y-84158475D01*
X59789699Y-84058752D01*
X59761232Y-83934002D01*
X59741136Y-83838164D01*
X59717153Y-83677418D01*
X59707559Y-83542387D01*
X59708065Y-83531565D01*
X59890811Y-83531565D01*
X59890966Y-83555369D01*
X59923333Y-83850863D01*
X60005953Y-84160841D01*
X60130133Y-84463769D01*
X60287180Y-84738112D01*
X60468402Y-84962338D01*
X60538452Y-85028884D01*
X60670958Y-85130710D01*
X60824726Y-85215262D01*
X61016920Y-85291274D01*
X61264707Y-85367479D01*
X61321793Y-85379857D01*
X61461366Y-85399022D01*
X61641729Y-85415958D01*
X61843946Y-85429668D01*
X62049075Y-85439151D01*
X62238179Y-85443409D01*
X62392320Y-85441442D01*
X62492557Y-85432252D01*
X62631800Y-85401452D01*
X62885401Y-85331811D01*
X63134039Y-85249044D01*
X63343776Y-85163850D01*
X63355391Y-85158493D01*
X63430711Y-85125200D01*
X63869427Y-85125200D01*
X63869597Y-85140010D01*
X63884542Y-85342594D01*
X63929942Y-85505387D01*
X64016535Y-85654331D01*
X64155056Y-85815369D01*
X64161797Y-85822401D01*
X64263578Y-85921568D01*
X64359180Y-85994081D01*
X64468136Y-86050113D01*
X64609977Y-86099833D01*
X64804235Y-86153412D01*
X65016706Y-86197458D01*
X65357001Y-86236071D01*
X65729851Y-86248371D01*
X66114468Y-86234598D01*
X66490063Y-86194995D01*
X66835847Y-86129803D01*
X66837378Y-86129434D01*
X66976088Y-86093299D01*
X67093994Y-86057767D01*
X67165717Y-86030480D01*
X67209956Y-86004658D01*
X67296049Y-85945078D01*
X67383009Y-85877321D01*
X67450269Y-85817745D01*
X67477260Y-85782706D01*
X67461096Y-85770404D01*
X67391214Y-85743895D01*
X67284837Y-85713614D01*
X67135333Y-85668020D01*
X66900553Y-85560935D01*
X66701773Y-85424764D01*
X66548285Y-85267913D01*
X66449379Y-85098792D01*
X66414346Y-84925808D01*
X66408316Y-84891233D01*
X66373000Y-84855582D01*
X66597607Y-84855582D01*
X66611661Y-84904409D01*
X66690275Y-84981954D01*
X66833067Y-85055682D01*
X67034429Y-85122173D01*
X67238459Y-85164491D01*
X67561265Y-85193635D01*
X67895486Y-85186105D01*
X68210306Y-85141396D01*
X68259533Y-85130218D01*
X68479848Y-85067279D01*
X68697394Y-84986548D01*
X68900827Y-84894132D01*
X69078802Y-84796138D01*
X69219974Y-84698673D01*
X69312996Y-84607846D01*
X69346525Y-84529761D01*
X69339089Y-84488092D01*
X69307082Y-84449353D01*
X69240763Y-84416207D01*
X69130490Y-84385266D01*
X68966626Y-84353142D01*
X68739529Y-84316449D01*
X68590182Y-84291880D01*
X68361286Y-84246537D01*
X68177600Y-84199784D01*
X68053081Y-84154905D01*
X67877530Y-84071594D01*
X67829417Y-84186744D01*
X67741670Y-84316013D01*
X67590235Y-84443848D01*
X67386467Y-84562180D01*
X67140907Y-84664902D01*
X66864095Y-84745909D01*
X66725784Y-84784301D01*
X66631750Y-84822823D01*
X66597607Y-84855582D01*
X66373000Y-84855582D01*
X66354277Y-84836682D01*
X66239905Y-84805350D01*
X66060023Y-84795330D01*
X66046295Y-84795146D01*
X65903517Y-84781592D01*
X65722106Y-84750734D01*
X65529321Y-84708469D01*
X65352421Y-84660694D01*
X65218662Y-84613306D01*
X65142681Y-84574642D01*
X64961678Y-84447127D01*
X64789319Y-84282465D01*
X64649827Y-84102413D01*
X64546970Y-83940954D01*
X64302834Y-84194044D01*
X64198093Y-84307499D01*
X64041730Y-84509719D01*
X63939721Y-84702906D01*
X63884731Y-84902815D01*
X63869427Y-85125200D01*
X63430711Y-85125200D01*
X63477351Y-85104584D01*
X63572780Y-85066396D01*
X63621886Y-85051896D01*
X63639915Y-85036069D01*
X63671920Y-84966196D01*
X63702862Y-84859471D01*
X63718105Y-84801893D01*
X63773455Y-84641273D01*
X63837609Y-84498492D01*
X63884625Y-84421113D01*
X63971250Y-84300805D01*
X64074946Y-84171948D01*
X64183678Y-84048109D01*
X64285408Y-83942856D01*
X64368100Y-83869754D01*
X64419717Y-83842372D01*
X64429658Y-83841654D01*
X64460825Y-83817496D01*
X64465604Y-83754096D01*
X64442708Y-83644721D01*
X64390852Y-83482637D01*
X64308751Y-83261111D01*
X64185935Y-82976033D01*
X63957234Y-82568435D01*
X63687911Y-82212737D01*
X63381927Y-81913213D01*
X63348043Y-81889294D01*
X63647102Y-81889294D01*
X63778387Y-82031995D01*
X63868635Y-82137907D01*
X63991787Y-82298101D01*
X64116900Y-82473793D01*
X64227268Y-82641393D01*
X64306187Y-82777312D01*
X64345840Y-82863183D01*
X64401590Y-82999149D01*
X64455534Y-83143835D01*
X64520033Y-83325977D01*
X64594963Y-83531569D01*
X64656270Y-83688644D01*
X64685093Y-83754096D01*
X64709496Y-83809513D01*
X64760185Y-83906489D01*
X64813880Y-83991883D01*
X64876124Y-84078007D01*
X64901754Y-84111424D01*
X65011575Y-84235829D01*
X65126698Y-84324890D01*
X65278127Y-84403727D01*
X65406992Y-84458741D01*
X65567022Y-84519358D01*
X65699628Y-84561819D01*
X65713145Y-84565361D01*
X65954203Y-84604179D01*
X66235464Y-84613318D01*
X66534698Y-84595028D01*
X66829675Y-84551556D01*
X67098165Y-84485154D01*
X67317935Y-84398070D01*
X67467584Y-84301303D01*
X67605036Y-84153016D01*
X67681370Y-83984462D01*
X67692680Y-83805162D01*
X67635063Y-83624641D01*
X67590200Y-83551019D01*
X67533898Y-83492574D01*
X67493031Y-83488899D01*
X67477261Y-83544878D01*
X67469618Y-83585050D01*
X67410101Y-83681281D01*
X67304047Y-83783614D01*
X67166424Y-83878881D01*
X67012201Y-83953918D01*
X66888199Y-83994700D01*
X66715413Y-84025876D01*
X66505977Y-84034195D01*
X66317299Y-84027965D01*
X66066952Y-83995195D01*
X65831822Y-83927475D01*
X65578922Y-83817079D01*
X65509347Y-83780712D01*
X65343419Y-83673558D01*
X65182847Y-83536370D01*
X65018729Y-83359964D01*
X64842162Y-83135156D01*
X64795318Y-83068318D01*
X65021561Y-83068318D01*
X65022589Y-83074238D01*
X65056442Y-83129526D01*
X65127529Y-83215598D01*
X65221355Y-83317259D01*
X65323427Y-83419318D01*
X65419249Y-83506582D01*
X65494327Y-83563857D01*
X65497535Y-83565832D01*
X65601243Y-83620442D01*
X65743371Y-83684352D01*
X65894149Y-83744138D01*
X65900763Y-83746563D01*
X66051744Y-83800644D01*
X66148696Y-83830145D01*
X66205502Y-83836762D01*
X66236043Y-83822191D01*
X66254200Y-83788130D01*
X66260645Y-83736009D01*
X66262566Y-83633403D01*
X66260388Y-83501721D01*
X66254917Y-83361438D01*
X66246962Y-83233031D01*
X66246114Y-83224573D01*
X66421858Y-83224573D01*
X66428298Y-83320075D01*
X66434973Y-83377166D01*
X66445044Y-83516990D01*
X66448704Y-83633403D01*
X66449614Y-83662335D01*
X66450998Y-83867147D01*
X66570118Y-83869895D01*
X66573511Y-83869964D01*
X66741236Y-83852415D01*
X66912706Y-83800190D01*
X67072653Y-83722246D01*
X67205806Y-83627544D01*
X67296896Y-83525040D01*
X67330652Y-83423695D01*
X67328854Y-83398770D01*
X67309019Y-83295876D01*
X67273444Y-83160335D01*
X67229878Y-83018116D01*
X67186071Y-82895191D01*
X67149772Y-82817530D01*
X67128531Y-82793759D01*
X67090980Y-82798757D01*
X67029096Y-82856847D01*
X67009164Y-82875971D01*
X66908802Y-82948524D01*
X66770598Y-83028771D01*
X66618261Y-83103713D01*
X66475497Y-83160353D01*
X66443747Y-83176537D01*
X66421858Y-83224573D01*
X66246114Y-83224573D01*
X66237328Y-83136976D01*
X66226824Y-83093749D01*
X66205724Y-83081435D01*
X66130055Y-83041950D01*
X66013473Y-82983027D01*
X65870413Y-82912026D01*
X65528067Y-82743467D01*
X65274814Y-82893922D01*
X65239875Y-82914908D01*
X65128647Y-82985178D01*
X65050847Y-83039778D01*
X65021561Y-83068318D01*
X64795318Y-83068318D01*
X64644245Y-82852762D01*
X64434347Y-82562704D01*
X64215739Y-82306867D01*
X64006443Y-82109681D01*
X63812037Y-81977016D01*
X63701318Y-81918129D01*
X64222889Y-81918129D01*
X64223532Y-81976118D01*
X64256726Y-82056486D01*
X64340319Y-82148590D01*
X64377540Y-82186179D01*
X64471854Y-82292195D01*
X64583152Y-82426882D01*
X64694500Y-82570090D01*
X64763420Y-82660703D01*
X64849820Y-82770688D01*
X64913312Y-82847073D01*
X64943593Y-82877160D01*
X64973896Y-82866906D01*
X65049518Y-82827341D01*
X65148977Y-82769577D01*
X65252058Y-82705807D01*
X65338546Y-82648220D01*
X65388226Y-82609009D01*
X65394149Y-82597355D01*
X65410111Y-82524788D01*
X65425542Y-82405276D01*
X65437790Y-82257613D01*
X65442292Y-82185997D01*
X65613480Y-82185997D01*
X65614990Y-82407739D01*
X65617600Y-82458486D01*
X65626925Y-82549297D01*
X65649817Y-82617409D01*
X65696986Y-82673253D01*
X65779147Y-82727257D01*
X65907011Y-82789852D01*
X66091291Y-82871468D01*
X66206318Y-82915827D01*
X66406020Y-82954790D01*
X66586604Y-82930235D01*
X66759829Y-82839502D01*
X66937453Y-82679929D01*
X67039058Y-82572164D01*
X66854244Y-82291855D01*
X66827506Y-82251456D01*
X66773723Y-82174334D01*
X67000782Y-82174334D01*
X67015212Y-82203060D01*
X67058253Y-82278549D01*
X67119902Y-82382774D01*
X67170219Y-82470367D01*
X67224065Y-82572164D01*
X67252327Y-82625593D01*
X67317582Y-82762900D01*
X67346305Y-82829898D01*
X67395406Y-82947188D01*
X67429075Y-83031156D01*
X67444981Y-83070406D01*
X67466515Y-83091272D01*
X67500588Y-83064729D01*
X67563141Y-82985326D01*
X67641288Y-82871808D01*
X67722885Y-82702396D01*
X67772242Y-82508343D01*
X67796941Y-82266326D01*
X67801286Y-82168698D01*
X67800705Y-82030546D01*
X67787248Y-81940527D01*
X67759350Y-81882654D01*
X67742273Y-81861158D01*
X67711771Y-81839006D01*
X67670148Y-81845267D01*
X67601234Y-81884684D01*
X67488864Y-81961999D01*
X67366002Y-82039223D01*
X67237011Y-82104499D01*
X67136853Y-82139000D01*
X67112053Y-82143817D01*
X67032753Y-82162038D01*
X67000782Y-82174334D01*
X66773723Y-82174334D01*
X66734333Y-82117850D01*
X66654965Y-82027536D01*
X66569559Y-81965094D01*
X66458275Y-81915106D01*
X66301271Y-81862155D01*
X66182225Y-81826503D01*
X66093519Y-81811121D01*
X66017981Y-81818692D01*
X65926679Y-81848132D01*
X65888901Y-81861929D01*
X65782661Y-81899832D01*
X65709694Y-81924597D01*
X65689312Y-81937356D01*
X65677347Y-81944846D01*
X65634141Y-82032336D01*
X65613480Y-82185997D01*
X65442292Y-82185997D01*
X65457922Y-81937356D01*
X65083299Y-81749704D01*
X64708676Y-81562051D01*
X64471107Y-81685112D01*
X64356283Y-81747587D01*
X64277092Y-81802873D01*
X64251295Y-81836939D01*
X64237525Y-81855123D01*
X64222889Y-81918129D01*
X63701318Y-81918129D01*
X63647102Y-81889294D01*
X63348043Y-81889294D01*
X63043243Y-81674133D01*
X62808177Y-81562582D01*
X63300697Y-81562582D01*
X63333980Y-81594845D01*
X63427323Y-81622518D01*
X63427732Y-81622596D01*
X63525501Y-81652347D01*
X63658039Y-81706893D01*
X63796779Y-81774483D01*
X63913293Y-81834255D01*
X63988366Y-81865518D01*
X64022046Y-81865388D01*
X64025590Y-81836939D01*
X64015899Y-81814990D01*
X63950911Y-81752422D01*
X63842610Y-81683366D01*
X63710336Y-81616938D01*
X63573425Y-81562256D01*
X63451216Y-81528435D01*
X63363047Y-81524593D01*
X63332493Y-81533378D01*
X63300697Y-81562582D01*
X62808177Y-81562582D01*
X62675818Y-81499771D01*
X62589368Y-81471725D01*
X62440852Y-81433644D01*
X62279965Y-81400597D01*
X62127453Y-81376244D01*
X62004062Y-81364246D01*
X61930538Y-81368265D01*
X61905398Y-81373997D01*
X61818468Y-81387682D01*
X61703308Y-81401831D01*
X61486568Y-81440818D01*
X61209002Y-81527297D01*
X60937286Y-81647079D01*
X60693886Y-81789994D01*
X60501270Y-81945875D01*
X60471854Y-81976580D01*
X60325026Y-82171590D01*
X60188530Y-82417364D01*
X60136792Y-82538188D01*
X60069612Y-82695074D01*
X59975521Y-82985895D01*
X59913505Y-83271001D01*
X59890811Y-83531565D01*
X59708065Y-83531565D01*
X59711991Y-83447568D01*
X59735419Y-83260378D01*
X59773859Y-83052881D01*
X59821498Y-82854898D01*
X59872523Y-82696248D01*
X59884104Y-82666359D01*
X59914650Y-82581850D01*
X59926900Y-82538188D01*
X59919043Y-82529496D01*
X59868731Y-82544698D01*
X59783745Y-82592368D01*
X59677990Y-82662964D01*
X59565368Y-82746943D01*
X59459784Y-82834762D01*
X59375142Y-82916879D01*
X59281093Y-83029241D01*
X59185413Y-83190882D01*
X59135353Y-83367823D01*
X59120756Y-83586814D01*
X58956514Y-83586814D01*
X58956245Y-83534089D01*
X58959079Y-83379011D01*
X58970939Y-83245228D01*
X58995540Y-83143263D01*
X59036593Y-83050801D01*
X59071437Y-82992774D01*
X59203633Y-82830432D01*
X59380274Y-82666316D01*
X59583235Y-82516101D01*
X59794391Y-82395461D01*
X59879397Y-82353035D01*
X60000504Y-82280773D01*
X60081736Y-82208028D01*
X60142649Y-82119291D01*
X60152240Y-82102565D01*
X60328193Y-81869814D01*
X60563280Y-81663901D01*
X60847142Y-81490188D01*
X61169421Y-81354037D01*
X61261825Y-81329448D01*
X62785072Y-81329448D01*
X62904543Y-81393176D01*
X63008810Y-81441215D01*
X63088083Y-81456299D01*
X63115645Y-81425873D01*
X63133421Y-81402189D01*
X63197619Y-81380058D01*
X63227621Y-81372657D01*
X63274959Y-81328510D01*
X63278917Y-81314120D01*
X63482167Y-81314120D01*
X63766222Y-81446395D01*
X63811515Y-81467506D01*
X63943562Y-81529269D01*
X64047946Y-81578406D01*
X64105255Y-81605792D01*
X64150737Y-81608356D01*
X64252861Y-81581471D01*
X64389310Y-81524875D01*
X64439114Y-81501217D01*
X64539640Y-81448845D01*
X64580882Y-81415204D01*
X64801648Y-81415204D01*
X65185164Y-81602525D01*
X65330320Y-81672809D01*
X65456750Y-81732784D01*
X65544155Y-81772815D01*
X65579176Y-81786660D01*
X65597592Y-81780205D01*
X65668739Y-81754599D01*
X65772932Y-81716801D01*
X65856772Y-81684564D01*
X65924985Y-81645115D01*
X65955519Y-81593184D01*
X65956828Y-81583588D01*
X66160316Y-81583588D01*
X66163126Y-81622649D01*
X66194283Y-81636405D01*
X66267737Y-81659308D01*
X66359368Y-81684485D01*
X66267737Y-81610693D01*
X66259896Y-81604550D01*
X66196292Y-81568509D01*
X66163126Y-81574034D01*
X66160316Y-81583588D01*
X65956828Y-81583588D01*
X65967039Y-81508764D01*
X65968401Y-81490114D01*
X65967845Y-81417624D01*
X65944791Y-81366121D01*
X65885308Y-81316869D01*
X65775465Y-81251135D01*
X65635344Y-81179773D01*
X65462162Y-81104250D01*
X65293585Y-81041010D01*
X65014125Y-80947149D01*
X64907886Y-81022797D01*
X64847248Y-81074366D01*
X64810582Y-81145813D01*
X64801648Y-81256825D01*
X64801648Y-81415204D01*
X64580882Y-81415204D01*
X64593208Y-81405150D01*
X64614547Y-81354455D01*
X64618387Y-81281086D01*
X64617957Y-81250050D01*
X64608391Y-81186499D01*
X64575708Y-81135916D01*
X64506178Y-81082247D01*
X64386072Y-81009439D01*
X64311437Y-80966030D01*
X64210355Y-80912814D01*
X64126772Y-80885693D01*
X64038396Y-80881993D01*
X63922936Y-80899044D01*
X63758101Y-80934173D01*
X63482167Y-80994804D01*
X63482167Y-81314120D01*
X63278917Y-81314120D01*
X63301806Y-81230900D01*
X63305544Y-81204215D01*
X63307946Y-81125233D01*
X63293830Y-81093454D01*
X63291915Y-81093616D01*
X63240869Y-81111652D01*
X63145347Y-81153705D01*
X63024357Y-81211451D01*
X62785072Y-81329448D01*
X61261825Y-81329448D01*
X61519758Y-81260811D01*
X61887795Y-81215872D01*
X61977927Y-81212368D01*
X62149685Y-81211156D01*
X62297487Y-81216763D01*
X62396765Y-81228578D01*
X62427424Y-81234672D01*
X62490739Y-81239678D01*
X62559430Y-81229099D01*
X62648376Y-81198308D01*
X62772455Y-81142677D01*
X62946548Y-81057578D01*
X63041842Y-81011569D01*
X63354428Y-80879102D01*
X64561160Y-80879102D01*
X64563408Y-80910193D01*
X64592557Y-80931409D01*
X64666365Y-80944269D01*
X64704205Y-80942646D01*
X64723646Y-80934515D01*
X64673365Y-80910193D01*
X64618564Y-80888677D01*
X64561160Y-80879102D01*
X63354428Y-80879102D01*
X63360976Y-80876327D01*
X63666341Y-80774767D01*
X63943637Y-80711160D01*
X64178560Y-80689773D01*
X64430777Y-80698262D01*
X64923434Y-80761251D01*
X65379423Y-80886595D01*
X65486560Y-80934515D01*
X65802050Y-81075626D01*
X66194622Y-81329676D01*
X66377803Y-81490114D01*
X66560445Y-81650080D01*
X66595046Y-81684485D01*
G37*
G36*
X62653602Y-84218973D02*
G01*
X62579245Y-84316191D01*
X62488879Y-84372961D01*
X62387881Y-84385822D01*
X62280799Y-84335099D01*
X62231042Y-84276412D01*
X62199963Y-84166251D01*
X62204877Y-84101470D01*
X62475796Y-84101470D01*
X62481417Y-84109201D01*
X62529209Y-84135590D01*
X62558386Y-84127574D01*
X62585965Y-84086538D01*
X62566459Y-84044329D01*
X62522240Y-84034808D01*
X62478177Y-84058021D01*
X62475796Y-84101470D01*
X62204877Y-84101470D01*
X62209078Y-84046096D01*
X62259998Y-83946052D01*
X62285043Y-83923893D01*
X62389178Y-83884634D01*
X62508195Y-83889695D01*
X62608791Y-83939683D01*
X62647837Y-83988822D01*
X62673394Y-84086538D01*
X62677164Y-84100951D01*
X62653602Y-84218973D01*
G37*
G36*
X61084862Y-84123900D02*
G01*
X61144001Y-84197623D01*
X61172696Y-84248736D01*
X61213689Y-84282507D01*
X61283218Y-84294647D01*
X61403577Y-84293381D01*
X61482862Y-84291592D01*
X61566418Y-84296742D01*
X61604110Y-84316428D01*
X61612903Y-84355701D01*
X61602343Y-84399918D01*
X61548762Y-84462524D01*
X61531403Y-84470527D01*
X61440430Y-84491885D01*
X61326029Y-84500998D01*
X61252516Y-84498062D01*
X61151680Y-84468140D01*
X61057720Y-84392394D01*
X60981630Y-84294237D01*
X60959745Y-84200345D01*
X60972702Y-84154529D01*
X61021365Y-84109630D01*
X61084862Y-84123900D01*
G37*
%LPC*%
D12*
X76708000Y-74232800D03*
X84582000Y-74232800D03*
D13*
X65278000Y-63246000D03*
X67818000Y-63246000D03*
X70358000Y-63246000D03*
X72898000Y-63246000D03*
X98298000Y-63246000D03*
X67818000Y-48006000D03*
X108458000Y-58166000D03*
X75438000Y-63246000D03*
X77978000Y-63246000D03*
D14*
X69088000Y-60196000D03*
D13*
X80518000Y-63246000D03*
X83058000Y-63246000D03*
X85598000Y-63246000D03*
X88138000Y-63246000D03*
X90678000Y-63246000D03*
X93218000Y-63246000D03*
X95758000Y-63246000D03*
X95758000Y-48006000D03*
X93218000Y-48006000D03*
X90678000Y-48006000D03*
X88138000Y-48006000D03*
X85598000Y-48006000D03*
X83058000Y-48006000D03*
X80518000Y-48006000D03*
X77978000Y-48006000D03*
X75438000Y-48006000D03*
X72898000Y-48006000D03*
X70358000Y-48006000D03*
X100838000Y-63246000D03*
X103378000Y-63246000D03*
X105918000Y-63246000D03*
X108458000Y-63246000D03*
X110998000Y-63246000D03*
X113538000Y-63246000D03*
X116078000Y-63246000D03*
X118618000Y-63246000D03*
X121158000Y-63246000D03*
X121158000Y-48006000D03*
X118618000Y-48006000D03*
X116078000Y-48006000D03*
X113538000Y-48006000D03*
X110998000Y-48006000D03*
X108458000Y-48006000D03*
X105918000Y-48006000D03*
X103378000Y-48006000D03*
X100838000Y-48006000D03*
D14*
X74168000Y-60196000D03*
X71628000Y-60196000D03*
D13*
X62738000Y-63246000D03*
X98298000Y-48006000D03*
X65278000Y-48006000D03*
X108458000Y-55626000D03*
D15*
X77708000Y-52456000D03*
X75708000Y-52456000D03*
D13*
X108458000Y-50546000D03*
X108458000Y-53086000D03*
D15*
X75708000Y-50456000D03*
X77708000Y-50456000D03*
X77708000Y-54456000D03*
X75708000Y-54456000D03*
D14*
X76708000Y-60196000D03*
X79248000Y-60196000D03*
D13*
X108458000Y-60706000D03*
X62738000Y-48006000D03*
X65278000Y-50546000D03*
D12*
X59478000Y-74288600D03*
X67352000Y-74288600D03*
D16*
X72136000Y-85344000D03*
X72136000Y-82804000D03*
X72136000Y-80264000D03*
D17*
X111760000Y-74930000D03*
X111760000Y-82804000D03*
M02*
