G04 #@! TF.GenerationSoftware,KiCad,Pcbnew,(6.0.7)*
G04 #@! TF.CreationDate,2023-03-20T21:56:32-05:00*
G04 #@! TF.ProjectId,Armboard_Hardware,41726d62-6f61-4726-945f-486172647761,rev?*
G04 #@! TF.SameCoordinates,Original*
G04 #@! TF.FileFunction,Paste,Top*
G04 #@! TF.FilePolarity,Positive*
%FSLAX46Y46*%
G04 Gerber Fmt 4.6, Leading zero omitted, Abs format (unit mm)*
G04 Created by KiCad (PCBNEW (6.0.7)) date 2023-03-20 21:56:32*
%MOMM*%
%LPD*%
G01*
G04 APERTURE LIST*
G04 Aperture macros list*
%AMRoundRect*
0 Rectangle with rounded corners*
0 $1 Rounding radius*
0 $2 $3 $4 $5 $6 $7 $8 $9 X,Y pos of 4 corners*
0 Add a 4 corners polygon primitive as box body*
4,1,4,$2,$3,$4,$5,$6,$7,$8,$9,$2,$3,0*
0 Add four circle primitives for the rounded corners*
1,1,$1+$1,$2,$3*
1,1,$1+$1,$4,$5*
1,1,$1+$1,$6,$7*
1,1,$1+$1,$8,$9*
0 Add four rect primitives between the rounded corners*
20,1,$1+$1,$2,$3,$4,$5,0*
20,1,$1+$1,$4,$5,$6,$7,0*
20,1,$1+$1,$6,$7,$8,$9,0*
20,1,$1+$1,$8,$9,$2,$3,0*%
G04 Aperture macros list end*
%ADD10R,0.650000X1.560000*%
%ADD11RoundRect,0.237500X-0.287500X-0.237500X0.287500X-0.237500X0.287500X0.237500X-0.287500X0.237500X0*%
%ADD12RoundRect,0.237500X0.250000X0.237500X-0.250000X0.237500X-0.250000X-0.237500X0.250000X-0.237500X0*%
%ADD13RoundRect,0.225000X0.250000X-0.225000X0.250000X0.225000X-0.250000X0.225000X-0.250000X-0.225000X0*%
%ADD14RoundRect,0.237500X0.287500X0.237500X-0.287500X0.237500X-0.287500X-0.237500X0.287500X-0.237500X0*%
%ADD15RoundRect,0.150000X0.837500X0.150000X-0.837500X0.150000X-0.837500X-0.150000X0.837500X-0.150000X0*%
%ADD16RoundRect,0.237500X0.237500X-0.250000X0.237500X0.250000X-0.237500X0.250000X-0.237500X-0.250000X0*%
%ADD17RoundRect,0.150000X0.150000X-0.825000X0.150000X0.825000X-0.150000X0.825000X-0.150000X-0.825000X0*%
%ADD18RoundRect,0.237500X0.237500X-0.287500X0.237500X0.287500X-0.237500X0.287500X-0.237500X-0.287500X0*%
%ADD19R,1.600000X1.400000*%
%ADD20RoundRect,0.150000X-0.150000X0.825000X-0.150000X-0.825000X0.150000X-0.825000X0.150000X0.825000X0*%
%ADD21RoundRect,0.137500X-0.662500X-0.137500X0.662500X-0.137500X0.662500X0.137500X-0.662500X0.137500X0*%
%ADD22RoundRect,0.237500X-0.237500X0.250000X-0.237500X-0.250000X0.237500X-0.250000X0.237500X0.250000X0*%
%ADD23RoundRect,0.225000X0.225000X0.250000X-0.225000X0.250000X-0.225000X-0.250000X0.225000X-0.250000X0*%
%ADD24RoundRect,0.225000X-0.225000X-0.250000X0.225000X-0.250000X0.225000X0.250000X-0.225000X0.250000X0*%
%ADD25RoundRect,0.237500X-0.237500X0.287500X-0.237500X-0.287500X0.237500X-0.287500X0.237500X0.287500X0*%
%ADD26RoundRect,0.237500X-0.250000X-0.237500X0.250000X-0.237500X0.250000X0.237500X-0.250000X0.237500X0*%
%ADD27RoundRect,0.225000X-0.250000X0.225000X-0.250000X-0.225000X0.250000X-0.225000X0.250000X0.225000X0*%
%ADD28RoundRect,0.150000X0.587500X0.150000X-0.587500X0.150000X-0.587500X-0.150000X0.587500X-0.150000X0*%
%ADD29O,5.100000X3.000000*%
G04 APERTURE END LIST*
D10*
X259335088Y-174912100D03*
X260285088Y-174912100D03*
X261235088Y-174912100D03*
X261235088Y-172212100D03*
X260285088Y-172212100D03*
X259335088Y-172212100D03*
D11*
X239663000Y-240030000D03*
X241413000Y-240030000D03*
D12*
X216758504Y-235585000D03*
X214933504Y-235585000D03*
D13*
X242486600Y-142149700D03*
X242486600Y-140599700D03*
D14*
X265035000Y-211328000D03*
X263285000Y-211328000D03*
D13*
X189049236Y-142149700D03*
X189049236Y-140599700D03*
D15*
X233078500Y-220980000D03*
X233078500Y-219710000D03*
X233078500Y-218440000D03*
X233078500Y-217170000D03*
X233078500Y-215900000D03*
X233078500Y-214630000D03*
X233078500Y-213360000D03*
X226153500Y-213360000D03*
X226153500Y-214630000D03*
X226153500Y-215900000D03*
X226153500Y-217170000D03*
X226153500Y-218440000D03*
X226153500Y-219710000D03*
X226153500Y-220980000D03*
D16*
X222746712Y-162353200D03*
X222746712Y-160528200D03*
D14*
X265035000Y-228092000D03*
X263285000Y-228092000D03*
D17*
X244500400Y-169503700D03*
X245770400Y-169503700D03*
X247040400Y-169503700D03*
X248310400Y-169503700D03*
X248310400Y-164553700D03*
X247040400Y-164553700D03*
X245770400Y-164553700D03*
X244500400Y-164553700D03*
D18*
X155702000Y-170777000D03*
X155702000Y-169027000D03*
D14*
X160983900Y-203315000D03*
X159233900Y-203315000D03*
D19*
X250400000Y-222020000D03*
X257600000Y-222020000D03*
X257600000Y-225020000D03*
X250400000Y-225020000D03*
D12*
X265072500Y-213360000D03*
X263247500Y-213360000D03*
D19*
X257600000Y-194080000D03*
X250400000Y-194080000D03*
X257600000Y-197080000D03*
X250400000Y-197080000D03*
D12*
X212937508Y-172546100D03*
X211112508Y-172546100D03*
X166747008Y-172546100D03*
X164922008Y-172546100D03*
D16*
X206860424Y-146097200D03*
X206860424Y-144272200D03*
D20*
X226626008Y-264162800D03*
X225356008Y-264162800D03*
X224086008Y-264162800D03*
X222816008Y-264162800D03*
X222816008Y-269112800D03*
X224086008Y-269112800D03*
X225356008Y-269112800D03*
X226626008Y-269112800D03*
D16*
X189056436Y-146097200D03*
X189056436Y-144272200D03*
D21*
X237796000Y-212725000D03*
X237796000Y-213995000D03*
X237796000Y-215265000D03*
X237796000Y-216535000D03*
X237796000Y-217805000D03*
X237796000Y-219075000D03*
X237796000Y-220345000D03*
X237796000Y-221615000D03*
X244296000Y-221615000D03*
X244296000Y-220345000D03*
X244296000Y-219075000D03*
X244296000Y-217805000D03*
X244296000Y-216535000D03*
X244296000Y-215265000D03*
X244296000Y-213995000D03*
X244296000Y-212725000D03*
D12*
X168641400Y-213106000D03*
X166816400Y-213106000D03*
D17*
X200993024Y-158327700D03*
X202263024Y-158327700D03*
X203533024Y-158327700D03*
X204803024Y-158327700D03*
X204803024Y-153377700D03*
X203533024Y-153377700D03*
X202263024Y-153377700D03*
X200993024Y-153377700D03*
X236626400Y-169503700D03*
X237896400Y-169503700D03*
X239166400Y-169503700D03*
X240436400Y-169503700D03*
X240436400Y-164553700D03*
X239166400Y-164553700D03*
X237896400Y-164553700D03*
X236626400Y-164553700D03*
D12*
X202269508Y-172546100D03*
X200444508Y-172546100D03*
D22*
X202939604Y-262169300D03*
X202939604Y-263994300D03*
D23*
X208827204Y-245809800D03*
X207277204Y-245809800D03*
D10*
X170435088Y-174912100D03*
X171385088Y-174912100D03*
X172335088Y-174912100D03*
X172335088Y-172212100D03*
X171385088Y-172212100D03*
X170435088Y-172212100D03*
D24*
X208846824Y-162221247D03*
X210396824Y-162221247D03*
D17*
X165711488Y-144103700D03*
X166981488Y-144103700D03*
X168251488Y-144103700D03*
X169521488Y-144103700D03*
X169521488Y-139153700D03*
X168251488Y-139153700D03*
X166981488Y-139153700D03*
X165711488Y-139153700D03*
D25*
X189031036Y-166407700D03*
X189031036Y-168157700D03*
D19*
X257600000Y-199668000D03*
X250400000Y-199668000D03*
X257600000Y-202668000D03*
X250400000Y-202668000D03*
D17*
X254443088Y-169503700D03*
X255713088Y-169503700D03*
X256983088Y-169503700D03*
X258253088Y-169503700D03*
X258253088Y-164553700D03*
X256983088Y-164553700D03*
X255713088Y-164553700D03*
X254443088Y-164553700D03*
D25*
X217024512Y-166407700D03*
X217024512Y-168157700D03*
D26*
X189101004Y-235458000D03*
X190926004Y-235458000D03*
D16*
X187126036Y-162353200D03*
X187126036Y-160528200D03*
D12*
X265072500Y-191008000D03*
X263247500Y-191008000D03*
D20*
X200933004Y-238762800D03*
X199663004Y-238762800D03*
X198393004Y-238762800D03*
X197123004Y-238762800D03*
X197123004Y-243712800D03*
X198393004Y-243712800D03*
X199663004Y-243712800D03*
X200933004Y-243712800D03*
D10*
X223587088Y-174992100D03*
X224537088Y-174992100D03*
X225487088Y-174992100D03*
X225487088Y-172292100D03*
X224537088Y-172292100D03*
X223587088Y-172292100D03*
D22*
X260604000Y-211431500D03*
X260604000Y-213256500D03*
D25*
X242468400Y-166407700D03*
X242468400Y-168157700D03*
D17*
X262317088Y-169503700D03*
X263587088Y-169503700D03*
X264857088Y-169503700D03*
X266127088Y-169503700D03*
X266127088Y-164553700D03*
X264857088Y-164553700D03*
X263587088Y-164553700D03*
X262317088Y-164553700D03*
D22*
X187051216Y-245913300D03*
X187051216Y-247738300D03*
D17*
X262317088Y-158327700D03*
X263587088Y-158327700D03*
X264857088Y-158327700D03*
X266127088Y-158327700D03*
X266127088Y-153377700D03*
X264857088Y-153377700D03*
X263587088Y-153377700D03*
X262317088Y-153377700D03*
D24*
X254422888Y-162456700D03*
X255972888Y-162456700D03*
D14*
X168603900Y-195187000D03*
X166853900Y-195187000D03*
D16*
X179035808Y-145118700D03*
X179035808Y-143293700D03*
D19*
X250400000Y-205256000D03*
X257600000Y-205256000D03*
X250400000Y-208256000D03*
X257600000Y-208256000D03*
D27*
X185128016Y-266116800D03*
X185128016Y-267666800D03*
D12*
X237767500Y-247751600D03*
X235942500Y-247751600D03*
D14*
X160983900Y-211455000D03*
X159233900Y-211455000D03*
D16*
X158242000Y-178942500D03*
X158242000Y-177117500D03*
D20*
X190988216Y-238762800D03*
X189718216Y-238762800D03*
X188448216Y-238762800D03*
X187178216Y-238762800D03*
X187178216Y-243712800D03*
X188448216Y-243712800D03*
X189718216Y-243712800D03*
X190988216Y-243712800D03*
D16*
X224677112Y-146097200D03*
X224677112Y-144272200D03*
D12*
X161021400Y-237478000D03*
X159196400Y-237478000D03*
D22*
X185120816Y-262169300D03*
X185120816Y-263994300D03*
D24*
X226663512Y-162221247D03*
X228213512Y-162221247D03*
D16*
X171578888Y-146097200D03*
X171578888Y-144272200D03*
D14*
X266023508Y-175340100D03*
X264273508Y-175340100D03*
D24*
X218789512Y-162456700D03*
X220339512Y-162456700D03*
D22*
X204870004Y-245913300D03*
X204870004Y-247738300D03*
D18*
X155702000Y-162649000D03*
X155702000Y-160899000D03*
D22*
X177251016Y-262423300D03*
X177251016Y-264248300D03*
D16*
X158242000Y-170814500D03*
X158242000Y-168989500D03*
D12*
X265072500Y-230124000D03*
X263247500Y-230124000D03*
X265072500Y-218948000D03*
X263247500Y-218948000D03*
D14*
X265035000Y-188976000D03*
X263285000Y-188976000D03*
X168603900Y-227699000D03*
X166853900Y-227699000D03*
D16*
X177522488Y-162353200D03*
X177522488Y-160528200D03*
X232551112Y-145857200D03*
X232551112Y-144032200D03*
D19*
X257600000Y-233196000D03*
X250400000Y-233196000D03*
X257600000Y-236196000D03*
X250400000Y-236196000D03*
D16*
X248437400Y-162353200D03*
X248437400Y-160528200D03*
D10*
X187961088Y-174912100D03*
X188911088Y-174912100D03*
X189861088Y-174912100D03*
X189861088Y-172212100D03*
X188911088Y-172212100D03*
X187961088Y-172212100D03*
D20*
X218752008Y-264162800D03*
X217482008Y-264162800D03*
X216212008Y-264162800D03*
X214942008Y-264162800D03*
X214942008Y-269112800D03*
X216212008Y-269112800D03*
X217482008Y-269112800D03*
X218752008Y-269112800D03*
D22*
X260604000Y-217019500D03*
X260604000Y-218844500D03*
D16*
X250367800Y-145843200D03*
X250367800Y-144018200D03*
D22*
X260604000Y-205843500D03*
X260604000Y-207668500D03*
D25*
X260285088Y-166407700D03*
X260285088Y-168157700D03*
D16*
X266254088Y-162353200D03*
X266254088Y-160528200D03*
D17*
X191063036Y-169503700D03*
X192333036Y-169503700D03*
X193603036Y-169503700D03*
X194873036Y-169503700D03*
X194873036Y-164553700D03*
X193603036Y-164553700D03*
X192333036Y-164553700D03*
X191063036Y-164553700D03*
D24*
X244480200Y-162221247D03*
X246030200Y-162221247D03*
D10*
X203954008Y-233473000D03*
X203004008Y-233473000D03*
X202054008Y-233473000D03*
X202054008Y-236173000D03*
X203004008Y-236173000D03*
X203954008Y-236173000D03*
D12*
X168641400Y-204966000D03*
X166816400Y-204966000D03*
D14*
X168603900Y-211455000D03*
X166853900Y-211455000D03*
D18*
X220784008Y-241858800D03*
X220784008Y-240108800D03*
D12*
X198851504Y-235458000D03*
X197026504Y-235458000D03*
D20*
X218752008Y-249938800D03*
X217482008Y-249938800D03*
X216212008Y-249938800D03*
X214942008Y-249938800D03*
X214942008Y-254888800D03*
X216212008Y-254888800D03*
X217482008Y-254888800D03*
X218752008Y-254888800D03*
D16*
X267905008Y-145899600D03*
X267905008Y-144074600D03*
D11*
X200444508Y-175340100D03*
X202194508Y-175340100D03*
D24*
X191042836Y-162221247D03*
X192592836Y-162221247D03*
D27*
X220765808Y-266116800D03*
X220765808Y-267666800D03*
D25*
X252657888Y-166407700D03*
X252657888Y-168157700D03*
D17*
X173585488Y-158327700D03*
X174855488Y-158327700D03*
X176125488Y-158327700D03*
X177395488Y-158327700D03*
X177395488Y-153377700D03*
X176125488Y-153377700D03*
X174855488Y-153377700D03*
X173585488Y-153377700D03*
D12*
X161021400Y-213106000D03*
X159196400Y-213106000D03*
D23*
X183134416Y-246045253D03*
X181584416Y-246045253D03*
D12*
X237767500Y-240030000D03*
X235942500Y-240030000D03*
D17*
X183189036Y-169503700D03*
X184459036Y-169503700D03*
X185729036Y-169503700D03*
X186999036Y-169503700D03*
X186999036Y-164553700D03*
X185729036Y-164553700D03*
X184459036Y-164553700D03*
X183189036Y-164553700D03*
D25*
X206835024Y-166407700D03*
X206835024Y-168157700D03*
D21*
X214936000Y-212725000D03*
X214936000Y-213995000D03*
X214936000Y-215265000D03*
X214936000Y-216535000D03*
X214936000Y-217805000D03*
X214936000Y-219075000D03*
X214936000Y-220345000D03*
X214936000Y-221615000D03*
X221436000Y-221615000D03*
X221436000Y-220345000D03*
X221436000Y-219075000D03*
X221436000Y-217805000D03*
X221436000Y-216535000D03*
X221436000Y-215265000D03*
X221436000Y-213995000D03*
X221436000Y-212725000D03*
D20*
X208807004Y-238762800D03*
X207537004Y-238762800D03*
X206267004Y-238762800D03*
X204997004Y-238762800D03*
X204997004Y-243712800D03*
X206267004Y-243712800D03*
X207537004Y-243712800D03*
X208807004Y-243712800D03*
D11*
X239663000Y-247751600D03*
X241413000Y-247751600D03*
D10*
X205741088Y-174912100D03*
X206691088Y-174912100D03*
X207641088Y-174912100D03*
X207641088Y-172212100D03*
X206691088Y-172212100D03*
X205741088Y-172212100D03*
D12*
X265117500Y-207772000D03*
X263292500Y-207772000D03*
D17*
X173585488Y-169503700D03*
X174855488Y-169503700D03*
X176125488Y-169503700D03*
X177395488Y-169503700D03*
X177395488Y-164553700D03*
X176125488Y-164553700D03*
X174855488Y-164553700D03*
X173585488Y-164553700D03*
D12*
X265072500Y-196596000D03*
X263247500Y-196596000D03*
X227389004Y-235458000D03*
X225564004Y-235458000D03*
D13*
X171571688Y-142149700D03*
X171571688Y-140599700D03*
D14*
X265035000Y-183388000D03*
X263285000Y-183388000D03*
X160983900Y-227699000D03*
X159233900Y-227699000D03*
D19*
X250400000Y-188492000D03*
X257600000Y-188492000D03*
X250400000Y-191492000D03*
X257600000Y-191492000D03*
D12*
X265072500Y-202184000D03*
X263247500Y-202184000D03*
D14*
X208847004Y-232791000D03*
X207097004Y-232791000D03*
D17*
X262317088Y-144103700D03*
X263587088Y-144103700D03*
X264857088Y-144103700D03*
X266127088Y-144103700D03*
X266127088Y-139153700D03*
X264857088Y-139153700D03*
X263587088Y-139153700D03*
X262317088Y-139153700D03*
D22*
X220758608Y-262169300D03*
X220758608Y-263994300D03*
D20*
X208807004Y-249938800D03*
X207537004Y-249938800D03*
X206267004Y-249938800D03*
X204997004Y-249938800D03*
X204997004Y-254888800D03*
X206267004Y-254888800D03*
X207537004Y-254888800D03*
X208807004Y-254888800D03*
D12*
X161021400Y-221222000D03*
X159196400Y-221222000D03*
D22*
X195065604Y-262423300D03*
X195065604Y-264248300D03*
D20*
X226626008Y-249938800D03*
X225356008Y-249938800D03*
X224086008Y-249938800D03*
X222816008Y-249938800D03*
X222816008Y-254888800D03*
X224086008Y-254888800D03*
X225356008Y-254888800D03*
X226626008Y-254888800D03*
D12*
X168641400Y-229350000D03*
X166816400Y-229350000D03*
D20*
X190988216Y-249938800D03*
X189718216Y-249938800D03*
X188448216Y-249938800D03*
X187178216Y-249938800D03*
X187178216Y-254888800D03*
X188448216Y-254888800D03*
X189718216Y-254888800D03*
X190988216Y-254888800D03*
D17*
X218809712Y-144103700D03*
X220079712Y-144103700D03*
X221349712Y-144103700D03*
X222619712Y-144103700D03*
X222619712Y-139153700D03*
X221349712Y-139153700D03*
X220079712Y-139153700D03*
X218809712Y-139153700D03*
D14*
X160983900Y-195187000D03*
X159233900Y-195187000D03*
D12*
X265072500Y-185420000D03*
X263247500Y-185420000D03*
D22*
X212884608Y-262434700D03*
X212884608Y-264259700D03*
D11*
X197028672Y-232791000D03*
X198778672Y-232791000D03*
D26*
X179284004Y-235458000D03*
X181109004Y-235458000D03*
D24*
X165691288Y-162456700D03*
X167241288Y-162456700D03*
D11*
X236004508Y-175263900D03*
X237754508Y-175263900D03*
D12*
X168641400Y-237478000D03*
X166816400Y-237478000D03*
D11*
X214933504Y-232918000D03*
X216683504Y-232918000D03*
D12*
X161021400Y-229350000D03*
X159196400Y-229350000D03*
D17*
X191063036Y-144103700D03*
X192333036Y-144103700D03*
X193603036Y-144103700D03*
X194873036Y-144103700D03*
X194873036Y-139153700D03*
X193603036Y-139153700D03*
X192333036Y-139153700D03*
X191063036Y-139153700D03*
D16*
X196905036Y-145833700D03*
X196905036Y-144008700D03*
D18*
X155702000Y-146393000D03*
X155702000Y-144643000D03*
D14*
X265035000Y-222504000D03*
X263285000Y-222504000D03*
D24*
X173565288Y-162221247D03*
X175115288Y-162221247D03*
D17*
X183189036Y-144103700D03*
X184459036Y-144103700D03*
X185729036Y-144103700D03*
X186999036Y-144103700D03*
X186999036Y-139153700D03*
X185729036Y-139153700D03*
X184459036Y-139153700D03*
X183189036Y-139153700D03*
D14*
X168603900Y-219571000D03*
X166853900Y-219571000D03*
D20*
X208807004Y-264162800D03*
X207537004Y-264162800D03*
X206267004Y-264162800D03*
X204997004Y-264162800D03*
X204997004Y-269112800D03*
X206267004Y-269112800D03*
X207537004Y-269112800D03*
X208807004Y-269112800D03*
D22*
X260604000Y-200255500D03*
X260604000Y-202080500D03*
D14*
X212937508Y-175340100D03*
X211187508Y-175340100D03*
X265035000Y-233680000D03*
X263285000Y-233680000D03*
D11*
X218478508Y-175340100D03*
X220228508Y-175340100D03*
D12*
X230360008Y-172546100D03*
X228535008Y-172546100D03*
D18*
X202965004Y-241858800D03*
X202965004Y-240108800D03*
D17*
X226683712Y-158327700D03*
X227953712Y-158327700D03*
X229223712Y-158327700D03*
X230493712Y-158327700D03*
X230493712Y-153377700D03*
X229223712Y-153377700D03*
X227953712Y-153377700D03*
X226683712Y-153377700D03*
D16*
X242493800Y-146097200D03*
X242493800Y-144272200D03*
D12*
X177377508Y-172546100D03*
X175552508Y-172546100D03*
D16*
X158242000Y-146430500D03*
X158242000Y-144605500D03*
D22*
X260604000Y-222607500D03*
X260604000Y-224432500D03*
D10*
X221800008Y-233393000D03*
X220850008Y-233393000D03*
X219900008Y-233393000D03*
X219900008Y-236093000D03*
X220850008Y-236093000D03*
X221800008Y-236093000D03*
D12*
X265072500Y-235712000D03*
X263247500Y-235712000D03*
X165655000Y-248487060D03*
X163830000Y-248487060D03*
D20*
X183114216Y-264162800D03*
X181844216Y-264162800D03*
X180574216Y-264162800D03*
X179304216Y-264162800D03*
X179304216Y-269112800D03*
X180574216Y-269112800D03*
X181844216Y-269112800D03*
X183114216Y-269112800D03*
D14*
X160983900Y-219571000D03*
X159233900Y-219571000D03*
D20*
X200933004Y-264162800D03*
X199663004Y-264162800D03*
X198393004Y-264162800D03*
X197123004Y-264162800D03*
X197123004Y-269112800D03*
X198393004Y-269112800D03*
X199663004Y-269112800D03*
X200933004Y-269112800D03*
D13*
X224669912Y-142149700D03*
X224669912Y-140599700D03*
D20*
X190988216Y-264162800D03*
X189718216Y-264162800D03*
X188448216Y-264162800D03*
X187178216Y-264162800D03*
X187178216Y-269112800D03*
X188448216Y-269112800D03*
X189718216Y-269112800D03*
X190988216Y-269112800D03*
D18*
X228411208Y-241858800D03*
X228411208Y-240108800D03*
D17*
X218809712Y-158327700D03*
X220079712Y-158327700D03*
X221349712Y-158327700D03*
X222619712Y-158327700D03*
X222619712Y-153377700D03*
X221349712Y-153377700D03*
X220079712Y-153377700D03*
X218809712Y-153377700D03*
X236626400Y-144103700D03*
X237896400Y-144103700D03*
X239166400Y-144103700D03*
X240436400Y-144103700D03*
X240436400Y-139153700D03*
X239166400Y-139153700D03*
X237896400Y-139153700D03*
X236626400Y-139153700D03*
D24*
X200972824Y-162456700D03*
X202522824Y-162456700D03*
D23*
X261633000Y-238760000D03*
X260083000Y-238760000D03*
D12*
X161021400Y-204966000D03*
X159196400Y-204966000D03*
D18*
X192773416Y-241858800D03*
X192773416Y-240108800D03*
D17*
X236626400Y-158327700D03*
X237896400Y-158327700D03*
X239166400Y-158327700D03*
X240436400Y-158327700D03*
X240436400Y-153377700D03*
X239166400Y-153377700D03*
X237896400Y-153377700D03*
X236626400Y-153377700D03*
D12*
X168641400Y-221222000D03*
X166816400Y-221222000D03*
D17*
X173585488Y-144103700D03*
X174855488Y-144103700D03*
X176125488Y-144103700D03*
X177395488Y-144103700D03*
X177395488Y-139153700D03*
X176125488Y-139153700D03*
X174855488Y-139153700D03*
X173585488Y-139153700D03*
D22*
X260604000Y-194667500D03*
X260604000Y-196492500D03*
D12*
X248347008Y-172546100D03*
X246522008Y-172546100D03*
D17*
X208867024Y-158327700D03*
X210137024Y-158327700D03*
X211407024Y-158327700D03*
X212677024Y-158327700D03*
X212677024Y-153377700D03*
X211407024Y-153377700D03*
X210137024Y-153377700D03*
X208867024Y-153377700D03*
D10*
X186174008Y-233473000D03*
X185224008Y-233473000D03*
X184274008Y-233473000D03*
X184274008Y-236173000D03*
X185224008Y-236173000D03*
X186174008Y-236173000D03*
D12*
X266023508Y-172546100D03*
X264198508Y-172546100D03*
D23*
X200953204Y-246045253D03*
X199403204Y-246045253D03*
D17*
X254443088Y-144103700D03*
X255713088Y-144103700D03*
X256983088Y-144103700D03*
X258253088Y-144103700D03*
X258253088Y-139153700D03*
X256983088Y-139153700D03*
X255713088Y-139153700D03*
X254443088Y-139153700D03*
D13*
X206853224Y-142149700D03*
X206853224Y-140599700D03*
D14*
X177377508Y-175340100D03*
X175627508Y-175340100D03*
D11*
X164922008Y-175594100D03*
X166672008Y-175594100D03*
D12*
X237907200Y-255447800D03*
X236082200Y-255447800D03*
D19*
X250400000Y-216432000D03*
X257600000Y-216432000D03*
X250400000Y-219432000D03*
X257600000Y-219432000D03*
D25*
X224651712Y-166407700D03*
X224651712Y-168157700D03*
D27*
X170688000Y-255765000D03*
X170688000Y-257315000D03*
D16*
X204930024Y-162353200D03*
X204930024Y-160528200D03*
D27*
X245364000Y-248907000D03*
X245364000Y-250457000D03*
D25*
X164019088Y-166337100D03*
X164019088Y-168087100D03*
D16*
X158242000Y-154558500D03*
X158242000Y-152733500D03*
D18*
X210592204Y-241858800D03*
X210592204Y-240108800D03*
D25*
X171553488Y-166407700D03*
X171553488Y-168157700D03*
D12*
X208847004Y-235458000D03*
X207022004Y-235458000D03*
D16*
X158242000Y-186967000D03*
X158242000Y-185142000D03*
D17*
X244500400Y-158327700D03*
X245770400Y-158327700D03*
X247040400Y-158327700D03*
X248310400Y-158327700D03*
X248310400Y-153377700D03*
X247040400Y-153377700D03*
X245770400Y-153377700D03*
X244500400Y-153377700D03*
D22*
X222689008Y-245913300D03*
X222689008Y-247738300D03*
D14*
X230360008Y-175340100D03*
X228610008Y-175340100D03*
D17*
X200993024Y-169503700D03*
X202263024Y-169503700D03*
X203533024Y-169503700D03*
X204803024Y-169503700D03*
X204803024Y-164553700D03*
X203533024Y-164553700D03*
X202263024Y-164553700D03*
X200993024Y-164553700D03*
D18*
X155702000Y-178905000D03*
X155702000Y-177155000D03*
D14*
X161657000Y-248487060D03*
X159907000Y-248487060D03*
D17*
X183189036Y-158327700D03*
X184459036Y-158327700D03*
X185729036Y-158327700D03*
X186999036Y-158327700D03*
X186999036Y-153377700D03*
X185729036Y-153377700D03*
X184459036Y-153377700D03*
X183189036Y-153377700D03*
X165711488Y-158327700D03*
X166981488Y-158327700D03*
X168251488Y-158327700D03*
X169521488Y-158327700D03*
X169521488Y-153377700D03*
X168251488Y-153377700D03*
X166981488Y-153377700D03*
X165711488Y-153377700D03*
D12*
X161021400Y-196838000D03*
X159196400Y-196838000D03*
D16*
X260310488Y-146097200D03*
X260310488Y-144272200D03*
D28*
X170355500Y-248929060D03*
X170355500Y-247029060D03*
X168480500Y-247979060D03*
D25*
X181403836Y-166407700D03*
X181403836Y-168157700D03*
D16*
X214734424Y-145859100D03*
X214734424Y-144034100D03*
X258380088Y-162353200D03*
X258380088Y-160528200D03*
D27*
X202946804Y-266116800D03*
X202946804Y-267666800D03*
D11*
X254038508Y-175340100D03*
X255788508Y-175340100D03*
D22*
X260604000Y-228195500D03*
X260604000Y-230020500D03*
D17*
X226683712Y-144103700D03*
X227953712Y-144103700D03*
X229223712Y-144103700D03*
X230493712Y-144103700D03*
X230493712Y-139153700D03*
X229223712Y-139153700D03*
X227953712Y-139153700D03*
X226683712Y-139153700D03*
D14*
X227389004Y-232664000D03*
X225639004Y-232664000D03*
D12*
X265072500Y-224536000D03*
X263247500Y-224536000D03*
D22*
X260604000Y-233783500D03*
X260604000Y-235608500D03*
D16*
X240563400Y-162353200D03*
X240563400Y-160528200D03*
D14*
X190926004Y-232664000D03*
X189176004Y-232664000D03*
D16*
X212804024Y-162353200D03*
X212804024Y-160528200D03*
D17*
X191063036Y-158327700D03*
X192333036Y-158327700D03*
X193603036Y-158327700D03*
X194873036Y-158327700D03*
X194873036Y-153377700D03*
X193603036Y-153377700D03*
X192333036Y-153377700D03*
X191063036Y-153377700D03*
D16*
X169648488Y-162353200D03*
X169648488Y-160528200D03*
D11*
X179284004Y-232664000D03*
X181034004Y-232664000D03*
D10*
X241555088Y-174912100D03*
X242505088Y-174912100D03*
X243455088Y-174912100D03*
X243455088Y-172212100D03*
X242505088Y-172212100D03*
X241555088Y-172212100D03*
D14*
X160983900Y-235827000D03*
X159233900Y-235827000D03*
D25*
X234841200Y-166407700D03*
X234841200Y-168157700D03*
D12*
X255863508Y-172546100D03*
X254038508Y-172546100D03*
D18*
X185146216Y-241858800D03*
X185146216Y-240108800D03*
D20*
X183114216Y-238762800D03*
X181844216Y-238762800D03*
X180574216Y-238762800D03*
X179304216Y-238762800D03*
X179304216Y-243712800D03*
X180574216Y-243712800D03*
X181844216Y-243712800D03*
X183114216Y-243712800D03*
D24*
X183168836Y-162456700D03*
X184718836Y-162456700D03*
D22*
X260604000Y-189079500D03*
X260604000Y-190904500D03*
D11*
X239663000Y-255447800D03*
X241413000Y-255447800D03*
D24*
X262296888Y-162221247D03*
X263846888Y-162221247D03*
D12*
X237829508Y-172546100D03*
X236004508Y-172546100D03*
D25*
X199207824Y-166407700D03*
X199207824Y-168157700D03*
D20*
X218752008Y-238762800D03*
X217482008Y-238762800D03*
X216212008Y-238762800D03*
X214942008Y-238762800D03*
X214942008Y-243712800D03*
X216212008Y-243712800D03*
X217482008Y-243712800D03*
X218752008Y-243712800D03*
X183114216Y-249938800D03*
X181844216Y-249938800D03*
X180574216Y-249938800D03*
X179304216Y-249938800D03*
X179304216Y-254888800D03*
X180574216Y-254888800D03*
X181844216Y-254888800D03*
X183114216Y-254888800D03*
D23*
X226646208Y-245809800D03*
X225096208Y-245809800D03*
D22*
X179177216Y-245913300D03*
X179177216Y-247738300D03*
X214815008Y-245913300D03*
X214815008Y-247738300D03*
D16*
X158242000Y-162686500D03*
X158242000Y-160861500D03*
D17*
X208867024Y-169503700D03*
X210137024Y-169503700D03*
X211407024Y-169503700D03*
X212677024Y-169503700D03*
X212677024Y-164553700D03*
X211407024Y-164553700D03*
X210137024Y-164553700D03*
X208867024Y-164553700D03*
D18*
X155702000Y-186892000D03*
X155702000Y-185142000D03*
D17*
X218809712Y-169503700D03*
X220079712Y-169503700D03*
X221349712Y-169503700D03*
X222619712Y-169503700D03*
X222619712Y-164553700D03*
X221349712Y-164553700D03*
X220079712Y-164553700D03*
X218809712Y-164553700D03*
D14*
X265035000Y-205740000D03*
X263285000Y-205740000D03*
D19*
X257600000Y-210844000D03*
X250400000Y-210844000D03*
X250400000Y-213844000D03*
X257600000Y-213844000D03*
D23*
X218772208Y-246045253D03*
X217222208Y-246045253D03*
D14*
X248347008Y-175340100D03*
X246597008Y-175340100D03*
X265035000Y-200152000D03*
X263285000Y-200152000D03*
D17*
X226683712Y-169503700D03*
X227953712Y-169503700D03*
X229223712Y-169503700D03*
X230493712Y-169503700D03*
X230493712Y-164553700D03*
X229223712Y-164553700D03*
X227953712Y-164553700D03*
X226683712Y-164553700D03*
X244500400Y-144103700D03*
X245770400Y-144103700D03*
X247040400Y-144103700D03*
X248310400Y-144103700D03*
X248310400Y-139153700D03*
X247040400Y-139153700D03*
X245770400Y-139153700D03*
X244500400Y-139153700D03*
X254443088Y-158327700D03*
X255713088Y-158327700D03*
X256983088Y-158327700D03*
X258253088Y-158327700D03*
X258253088Y-153377700D03*
X256983088Y-153377700D03*
X255713088Y-153377700D03*
X254443088Y-153377700D03*
D20*
X226626008Y-238762800D03*
X225356008Y-238762800D03*
X224086008Y-238762800D03*
X222816008Y-238762800D03*
X222816008Y-243712800D03*
X224086008Y-243712800D03*
X225356008Y-243712800D03*
X226626008Y-243712800D03*
D12*
X220303508Y-172546100D03*
X218478508Y-172546100D03*
D14*
X168603900Y-203315000D03*
X166853900Y-203315000D03*
D22*
X196996004Y-245913300D03*
X196996004Y-247738300D03*
D16*
X195000036Y-162353200D03*
X195000036Y-160528200D03*
D17*
X165711488Y-169503700D03*
X166981488Y-169503700D03*
X168251488Y-169503700D03*
X169521488Y-169503700D03*
X169521488Y-164553700D03*
X168251488Y-164553700D03*
X166981488Y-164553700D03*
X165711488Y-164553700D03*
X200993024Y-144103700D03*
X202263024Y-144103700D03*
X203533024Y-144103700D03*
X204803024Y-144103700D03*
X204803024Y-139153700D03*
X203533024Y-139153700D03*
X202263024Y-139153700D03*
X200993024Y-139153700D03*
D23*
X191008416Y-245809800D03*
X189458416Y-245809800D03*
D20*
X200933004Y-249938800D03*
X199663004Y-249938800D03*
X198393004Y-249938800D03*
X197123004Y-249938800D03*
X197123004Y-254888800D03*
X198393004Y-254888800D03*
X199663004Y-254888800D03*
X200933004Y-254888800D03*
D13*
X260303288Y-142149700D03*
X260303288Y-140599700D03*
D18*
X155702000Y-154521000D03*
X155702000Y-152771000D03*
D17*
X208867024Y-144103700D03*
X210137024Y-144103700D03*
X211407024Y-144103700D03*
X212677024Y-144103700D03*
X212677024Y-139153700D03*
X211407024Y-139153700D03*
X210137024Y-139153700D03*
X208867024Y-139153700D03*
D14*
X195157508Y-175340100D03*
X193407508Y-175340100D03*
D29*
X256798931Y-261569576D03*
X264672931Y-261569576D03*
D14*
X265035000Y-194564000D03*
X263285000Y-194564000D03*
X168603900Y-235827000D03*
X166853900Y-235827000D03*
D12*
X183981508Y-172546100D03*
X182156508Y-172546100D03*
D24*
X236606200Y-162456700D03*
X238156200Y-162456700D03*
D16*
X230620712Y-162353200D03*
X230620712Y-160528200D03*
D19*
X250400000Y-227608000D03*
X257600000Y-227608000D03*
X257600000Y-230608000D03*
X250400000Y-230608000D03*
D14*
X265035000Y-216916000D03*
X263285000Y-216916000D03*
D12*
X168641400Y-196838000D03*
X166816400Y-196838000D03*
X195157508Y-172546100D03*
X193332508Y-172546100D03*
D11*
X182156508Y-175340100D03*
X183906508Y-175340100D03*
M02*
