G04 #@! TF.GenerationSoftware,KiCad,Pcbnew,7.0.7*
G04 #@! TF.CreationDate,2024-04-12T20:37:08-05:00*
G04 #@! TF.ProjectId,Armboard_Hardware,41726d62-6f61-4726-945f-486172647761,rev?*
G04 #@! TF.SameCoordinates,Original*
G04 #@! TF.FileFunction,Paste,Top*
G04 #@! TF.FilePolarity,Positive*
%FSLAX46Y46*%
G04 Gerber Fmt 4.6, Leading zero omitted, Abs format (unit mm)*
G04 Created by KiCad (PCBNEW 7.0.7) date 2024-04-12 20:37:08*
%MOMM*%
%LPD*%
G01*
G04 APERTURE LIST*
G04 Aperture macros list*
%AMRoundRect*
0 Rectangle with rounded corners*
0 $1 Rounding radius*
0 $2 $3 $4 $5 $6 $7 $8 $9 X,Y pos of 4 corners*
0 Add a 4 corners polygon primitive as box body*
4,1,4,$2,$3,$4,$5,$6,$7,$8,$9,$2,$3,0*
0 Add four circle primitives for the rounded corners*
1,1,$1+$1,$2,$3*
1,1,$1+$1,$4,$5*
1,1,$1+$1,$6,$7*
1,1,$1+$1,$8,$9*
0 Add four rect primitives between the rounded corners*
20,1,$1+$1,$2,$3,$4,$5,0*
20,1,$1+$1,$4,$5,$6,$7,0*
20,1,$1+$1,$6,$7,$8,$9,0*
20,1,$1+$1,$8,$9,$2,$3,0*%
G04 Aperture macros list end*
%ADD10RoundRect,0.150000X0.825000X0.150000X-0.825000X0.150000X-0.825000X-0.150000X0.825000X-0.150000X0*%
%ADD11RoundRect,0.150000X-0.512500X-0.150000X0.512500X-0.150000X0.512500X0.150000X-0.512500X0.150000X0*%
%ADD12RoundRect,0.150000X0.150000X-0.825000X0.150000X0.825000X-0.150000X0.825000X-0.150000X-0.825000X0*%
%ADD13RoundRect,0.237500X0.237500X-0.287500X0.237500X0.287500X-0.237500X0.287500X-0.237500X-0.287500X0*%
%ADD14RoundRect,0.237500X-0.250000X-0.237500X0.250000X-0.237500X0.250000X0.237500X-0.250000X0.237500X0*%
%ADD15RoundRect,0.237500X-0.287500X-0.237500X0.287500X-0.237500X0.287500X0.237500X-0.287500X0.237500X0*%
%ADD16RoundRect,0.237500X-0.300000X-0.237500X0.300000X-0.237500X0.300000X0.237500X-0.300000X0.237500X0*%
%ADD17RoundRect,0.237500X0.237500X-0.250000X0.237500X0.250000X-0.237500X0.250000X-0.237500X-0.250000X0*%
%ADD18RoundRect,0.237500X0.250000X0.237500X-0.250000X0.237500X-0.250000X-0.237500X0.250000X-0.237500X0*%
%ADD19R,0.650000X1.560000*%
%ADD20RoundRect,0.237500X0.287500X0.237500X-0.287500X0.237500X-0.287500X-0.237500X0.287500X-0.237500X0*%
%ADD21RoundRect,0.150000X0.150000X-0.875000X0.150000X0.875000X-0.150000X0.875000X-0.150000X-0.875000X0*%
%ADD22RoundRect,0.237500X0.237500X-0.300000X0.237500X0.300000X-0.237500X0.300000X-0.237500X-0.300000X0*%
%ADD23RoundRect,0.237500X-0.237500X0.250000X-0.237500X-0.250000X0.237500X-0.250000X0.237500X0.250000X0*%
%ADD24RoundRect,0.237500X-0.237500X0.300000X-0.237500X-0.300000X0.237500X-0.300000X0.237500X0.300000X0*%
%ADD25R,1.560000X0.650000*%
%ADD26RoundRect,0.150000X0.150000X-0.512500X0.150000X0.512500X-0.150000X0.512500X-0.150000X-0.512500X0*%
%ADD27R,1.600000X1.400000*%
%ADD28RoundRect,0.237500X-0.237500X0.287500X-0.237500X-0.287500X0.237500X-0.287500X0.237500X0.287500X0*%
%ADD29RoundRect,0.150000X-0.150000X0.512500X-0.150000X-0.512500X0.150000X-0.512500X0.150000X0.512500X0*%
%ADD30RoundRect,0.150000X-0.825000X-0.150000X0.825000X-0.150000X0.825000X0.150000X-0.825000X0.150000X0*%
%ADD31RoundRect,0.150000X-0.150000X0.875000X-0.150000X-0.875000X0.150000X-0.875000X0.150000X0.875000X0*%
%ADD32RoundRect,0.150000X0.587500X0.150000X-0.587500X0.150000X-0.587500X-0.150000X0.587500X-0.150000X0*%
%ADD33RoundRect,0.237500X0.300000X0.237500X-0.300000X0.237500X-0.300000X-0.237500X0.300000X-0.237500X0*%
%ADD34RoundRect,0.150000X-0.587500X-0.150000X0.587500X-0.150000X0.587500X0.150000X-0.587500X0.150000X0*%
%ADD35RoundRect,0.150000X-0.150000X0.825000X-0.150000X-0.825000X0.150000X-0.825000X0.150000X0.825000X0*%
G04 APERTURE END LIST*
D10*
X70482000Y-153995000D03*
X70482000Y-152725000D03*
X70482000Y-151455000D03*
X70482000Y-150185000D03*
X65532000Y-150185000D03*
X65532000Y-151455000D03*
X65532000Y-152725000D03*
X65532000Y-153995000D03*
D11*
X157358500Y-66515200D03*
X157358500Y-68415200D03*
X159633500Y-67465200D03*
X102616000Y-66581200D03*
X102616000Y-68481200D03*
X104891000Y-67531200D03*
D12*
X133276380Y-48068200D03*
X134546380Y-48068200D03*
X135816380Y-48068200D03*
X137086380Y-48068200D03*
X137086380Y-43118200D03*
X135816380Y-43118200D03*
X134546380Y-43118200D03*
X133276380Y-43118200D03*
D13*
X81243000Y-107862380D03*
X81243000Y-106112380D03*
D11*
X79756000Y-66581200D03*
X79756000Y-68481200D03*
X82031000Y-67531200D03*
D14*
X146653880Y-30452000D03*
X148478880Y-30452000D03*
D15*
X148985000Y-72545200D03*
X150735000Y-72545200D03*
D16*
X133241880Y-53467200D03*
X134966880Y-53467200D03*
D17*
X117348000Y-58062500D03*
X117348000Y-56237500D03*
D16*
X146603380Y-53467200D03*
X148328380Y-53467200D03*
D17*
X162814000Y-58316500D03*
X162814000Y-56491500D03*
D18*
X62315500Y-158811000D03*
X60490500Y-158811000D03*
D19*
X107304880Y-68961200D03*
X108254880Y-68961200D03*
X109204880Y-68961200D03*
X109204880Y-66261200D03*
X108254880Y-66261200D03*
X107304880Y-66261200D03*
D20*
X66661000Y-97081380D03*
X64911000Y-97081380D03*
D14*
X103227380Y-70513200D03*
X105052380Y-70513200D03*
D21*
X161983305Y-125774000D03*
X163253305Y-125774000D03*
X164523305Y-125774000D03*
X165793305Y-125774000D03*
X167063305Y-125774000D03*
X168333305Y-125774000D03*
X169603305Y-125774000D03*
X170873305Y-125774000D03*
X170873305Y-116474000D03*
X169603305Y-116474000D03*
X168333305Y-116474000D03*
X167063305Y-116474000D03*
X165793305Y-116474000D03*
X164523305Y-116474000D03*
X163253305Y-116474000D03*
X161983305Y-116474000D03*
D22*
X73152000Y-107088000D03*
X73152000Y-105363000D03*
D20*
X83795000Y-175538500D03*
X82045000Y-175538500D03*
D13*
X99567880Y-58039200D03*
X99567880Y-56289200D03*
X81243000Y-93384380D03*
X81243000Y-91634380D03*
D23*
X142216000Y-90297500D03*
X142216000Y-92122500D03*
D13*
X85343880Y-58293200D03*
X85343880Y-56543200D03*
D14*
X57507500Y-70513200D03*
X59332500Y-70513200D03*
D13*
X81243000Y-85002380D03*
X81243000Y-83252380D03*
D22*
X62150800Y-131987500D03*
X62150800Y-130262500D03*
D24*
X126746000Y-168301500D03*
X126746000Y-170026500D03*
D14*
X165162805Y-109752000D03*
X166987805Y-109752000D03*
D25*
X77659000Y-89344500D03*
X77659000Y-88394500D03*
X77659000Y-87444500D03*
X74959000Y-87444500D03*
X74959000Y-88394500D03*
X74959000Y-89344500D03*
D16*
X100883380Y-53467200D03*
X102608380Y-53467200D03*
D22*
X62165000Y-164346000D03*
X62165000Y-162621000D03*
D26*
X75213000Y-85010880D03*
X77113000Y-85010880D03*
X76163000Y-82735880D03*
D15*
X46447500Y-55692000D03*
X48197500Y-55692000D03*
D12*
X55745500Y-61784200D03*
X57015500Y-61784200D03*
X58285500Y-61784200D03*
X59555500Y-61784200D03*
X59555500Y-56834200D03*
X58285500Y-56834200D03*
X57015500Y-56834200D03*
X55745500Y-56834200D03*
D13*
X122427880Y-58039200D03*
X122427880Y-56289200D03*
D22*
X73137800Y-129948000D03*
X73137800Y-128223000D03*
D13*
X81228800Y-130722380D03*
X81228800Y-128972380D03*
D15*
X132907000Y-173990000D03*
X134657000Y-173990000D03*
D14*
X80367380Y-70513200D03*
X82192380Y-70513200D03*
D12*
X162044380Y-32639200D03*
X163314380Y-32639200D03*
X164584380Y-32639200D03*
X165854380Y-32639200D03*
X165854380Y-27689200D03*
X164584380Y-27689200D03*
X163314380Y-27689200D03*
X162044380Y-27689200D03*
D16*
X66701500Y-64454200D03*
X68426500Y-64454200D03*
D20*
X66991000Y-111305500D03*
X65241000Y-111305500D03*
D12*
X156136380Y-48068200D03*
X157406380Y-48068200D03*
X158676380Y-48068200D03*
X159946380Y-48068200D03*
X159946380Y-43118200D03*
X158676380Y-43118200D03*
X157406380Y-43118200D03*
X156136380Y-43118200D03*
D14*
X162409500Y-90424000D03*
X164234500Y-90424000D03*
D12*
X105021380Y-32574200D03*
X106291380Y-32574200D03*
X107561380Y-32574200D03*
X108831380Y-32574200D03*
X108831380Y-27624200D03*
X107561380Y-27624200D03*
X106291380Y-27624200D03*
X105021380Y-27624200D03*
D13*
X81243000Y-116244380D03*
X81243000Y-114494380D03*
D17*
X69334500Y-53363700D03*
X69334500Y-51538700D03*
D12*
X134094380Y-61784200D03*
X135364380Y-61784200D03*
X136634380Y-61784200D03*
X137904380Y-61784200D03*
X137904380Y-56834200D03*
X136634380Y-56834200D03*
X135364380Y-56834200D03*
X134094380Y-56834200D03*
D16*
X123743380Y-53467200D03*
X125468380Y-53467200D03*
D10*
X70482000Y-118044000D03*
X70482000Y-116774000D03*
X70482000Y-115504000D03*
X70482000Y-114234000D03*
X65532000Y-114234000D03*
X65532000Y-115504000D03*
X65532000Y-116774000D03*
X65532000Y-118044000D03*
X41272000Y-160208000D03*
X41272000Y-158938000D03*
X41272000Y-157668000D03*
X41272000Y-156398000D03*
X36322000Y-156398000D03*
X36322000Y-157668000D03*
X36322000Y-158938000D03*
X36322000Y-160208000D03*
D12*
X56822500Y-48068200D03*
X58092500Y-48068200D03*
X59362500Y-48068200D03*
X60632500Y-48068200D03*
X60632500Y-43118200D03*
X59362500Y-43118200D03*
X58092500Y-43118200D03*
X56822500Y-43118200D03*
X124325380Y-61784200D03*
X125595380Y-61784200D03*
X126865380Y-61784200D03*
X128135380Y-61784200D03*
X128135380Y-56834200D03*
X126865380Y-56834200D03*
X125595380Y-56834200D03*
X124325380Y-56834200D03*
D27*
X131758000Y-83868000D03*
X138958000Y-83868000D03*
X131758000Y-86868000D03*
X138958000Y-86868000D03*
D24*
X92964000Y-171603500D03*
X92964000Y-173328500D03*
D14*
X78341250Y-172490500D03*
X80166250Y-172490500D03*
D17*
X152138380Y-53617700D03*
X152138380Y-51792700D03*
D28*
X169905805Y-131970500D03*
X169905805Y-133720500D03*
D12*
X93464380Y-32639200D03*
X94734380Y-32639200D03*
X96004380Y-32639200D03*
X97274380Y-32639200D03*
X97274380Y-27689200D03*
X96004380Y-27689200D03*
X94734380Y-27689200D03*
X93464380Y-27689200D03*
D29*
X124619000Y-168402120D03*
X122719000Y-168402120D03*
X123669000Y-170677120D03*
D17*
X83558380Y-53617700D03*
X83558380Y-51792700D03*
D28*
X118655000Y-177433120D03*
X118655000Y-179183120D03*
D17*
X117324000Y-127936500D03*
X117324000Y-126111500D03*
D11*
X56896000Y-66581200D03*
X56896000Y-68481200D03*
X59171000Y-67531200D03*
D13*
X131063880Y-58293200D03*
X131063880Y-56543200D03*
D17*
X94234000Y-58166000D03*
X94234000Y-56341000D03*
D10*
X41257800Y-137348000D03*
X41257800Y-136078000D03*
X41257800Y-134808000D03*
X41257800Y-133538000D03*
X36307800Y-133538000D03*
X36307800Y-134808000D03*
X36307800Y-136078000D03*
X36307800Y-137348000D03*
D23*
X167873805Y-131895500D03*
X167873805Y-133720500D03*
D17*
X115054380Y-53363700D03*
X115054380Y-51538700D03*
D16*
X56795500Y-64454200D03*
X58520500Y-64454200D03*
X158141380Y-64454200D03*
X159866380Y-64454200D03*
D11*
X88778500Y-66515200D03*
X88778500Y-68415200D03*
X91053500Y-67465200D03*
D17*
X79211000Y-116282000D03*
X79211000Y-114457000D03*
D16*
X89561380Y-64454200D03*
X91286380Y-64454200D03*
D11*
X148336000Y-66581200D03*
X148336000Y-68481200D03*
X150611000Y-67531200D03*
D18*
X90470880Y-70513200D03*
X88645880Y-70513200D03*
D14*
X137836500Y-180840500D03*
X139661500Y-180840500D03*
D30*
X158626000Y-170299380D03*
X158626000Y-171569380D03*
X158626000Y-172839380D03*
X158626000Y-174109380D03*
X163576000Y-174109380D03*
X163576000Y-172839380D03*
X163576000Y-171569380D03*
X163576000Y-170299380D03*
D17*
X60698500Y-53617700D03*
X60698500Y-51792700D03*
D15*
X57545000Y-72545200D03*
X59295000Y-72545200D03*
D12*
X88374380Y-61784200D03*
X89644380Y-61784200D03*
X90914380Y-61784200D03*
X92184380Y-61784200D03*
X92184380Y-56834200D03*
X90914380Y-56834200D03*
X89644380Y-56834200D03*
X88374380Y-56834200D03*
D10*
X56751800Y-131953000D03*
X56751800Y-130683000D03*
X56751800Y-129413000D03*
X56751800Y-128143000D03*
X51801800Y-128143000D03*
X51801800Y-129413000D03*
X51801800Y-130683000D03*
X51801800Y-131953000D03*
D22*
X73152000Y-94134000D03*
X73152000Y-92409000D03*
D25*
X77659000Y-157924500D03*
X77659000Y-156974500D03*
X77659000Y-156024500D03*
X74959000Y-156024500D03*
X74959000Y-156974500D03*
X74959000Y-157924500D03*
D11*
X111638500Y-66515200D03*
X111638500Y-68415200D03*
X113913500Y-67465200D03*
D27*
X116518000Y-95552000D03*
X123718000Y-95552000D03*
X116518000Y-98552000D03*
X123718000Y-98552000D03*
D23*
X161218055Y-131895500D03*
X161218055Y-133720500D03*
D13*
X81243000Y-153582380D03*
X81243000Y-151832380D03*
D14*
X160528000Y-88138000D03*
X162353000Y-88138000D03*
D26*
X75198800Y-130730880D03*
X77098800Y-130730880D03*
X76148800Y-128455880D03*
D12*
X111234380Y-61784200D03*
X112504380Y-61784200D03*
X113774380Y-61784200D03*
X115044380Y-61784200D03*
X115044380Y-56834200D03*
X113774380Y-56834200D03*
X112504380Y-56834200D03*
X111234380Y-56834200D03*
D26*
X75213000Y-107870880D03*
X77113000Y-107870880D03*
X76163000Y-105595880D03*
D27*
X116518000Y-89710000D03*
X123718000Y-89710000D03*
X116518000Y-92710000D03*
X123718000Y-92710000D03*
D17*
X71374000Y-58316500D03*
X71374000Y-56491500D03*
D13*
X81243000Y-161964380D03*
X81243000Y-160214380D03*
D12*
X59301500Y-32574200D03*
X60571500Y-32574200D03*
X61841500Y-32574200D03*
X63111500Y-32574200D03*
X63111500Y-27624200D03*
X61841500Y-27624200D03*
X60571500Y-27624200D03*
X59301500Y-27624200D03*
D17*
X51132500Y-64666500D03*
X51132500Y-62841500D03*
D11*
X125476000Y-66581200D03*
X125476000Y-68481200D03*
X127751000Y-67531200D03*
D17*
X171704000Y-103170500D03*
X171704000Y-101345500D03*
D23*
X126976000Y-108077500D03*
X126976000Y-109902500D03*
D20*
X66722800Y-142801500D03*
X64972800Y-142801500D03*
D27*
X116518000Y-107490000D03*
X123718000Y-107490000D03*
X116518000Y-110490000D03*
X123718000Y-110490000D03*
D18*
X62061500Y-81595000D03*
X60236500Y-81595000D03*
D26*
X75264800Y-139753380D03*
X77164800Y-139753380D03*
X76214800Y-137478380D03*
X75279000Y-162613380D03*
X77179000Y-162613380D03*
X76229000Y-160338380D03*
D16*
X156101880Y-53467200D03*
X157826880Y-53467200D03*
D29*
X124685000Y-177424620D03*
X122785000Y-177424620D03*
X123735000Y-179699620D03*
D10*
X56751800Y-139827000D03*
X56751800Y-138557000D03*
X56751800Y-137287000D03*
X56751800Y-136017000D03*
X51801800Y-136017000D03*
X51801800Y-137287000D03*
X51801800Y-138557000D03*
X51801800Y-139827000D03*
D14*
X132883700Y-182880120D03*
X134708700Y-182880120D03*
D12*
X125402380Y-48068200D03*
X126672380Y-48068200D03*
X127942380Y-48068200D03*
X129212380Y-48068200D03*
X129212380Y-43118200D03*
X127942380Y-43118200D03*
X126672380Y-43118200D03*
X125402380Y-43118200D03*
X70604500Y-32639200D03*
X71874500Y-32639200D03*
X73144500Y-32639200D03*
X74414500Y-32639200D03*
X74414500Y-27689200D03*
X73144500Y-27689200D03*
X71874500Y-27689200D03*
X70604500Y-27689200D03*
D26*
X75279000Y-116893380D03*
X77179000Y-116893380D03*
X76229000Y-114618380D03*
D14*
X78451500Y-178576500D03*
X80276500Y-178576500D03*
D11*
X65918500Y-66515200D03*
X65918500Y-68415200D03*
X68193500Y-67465200D03*
D17*
X137914380Y-53363700D03*
X137914380Y-51538700D03*
D23*
X44274500Y-55795500D03*
X44274500Y-57620500D03*
D17*
X39878000Y-141435500D03*
X39878000Y-139610500D03*
D10*
X41337000Y-148905000D03*
X41337000Y-147635000D03*
X41337000Y-146365000D03*
X41337000Y-145095000D03*
X36387000Y-145095000D03*
X36387000Y-146365000D03*
X36387000Y-147635000D03*
X36387000Y-148905000D03*
D31*
X169603305Y-97424000D03*
X168333305Y-97424000D03*
X167063305Y-97424000D03*
X165793305Y-97424000D03*
X164523305Y-97424000D03*
X163253305Y-97424000D03*
X161983305Y-97424000D03*
X160713305Y-97424000D03*
X160713305Y-106724000D03*
X161983305Y-106724000D03*
X163253305Y-106724000D03*
X164523305Y-106724000D03*
X165793305Y-106724000D03*
X167063305Y-106724000D03*
X168333305Y-106724000D03*
X169603305Y-106724000D03*
D20*
X136257000Y-72545200D03*
X134507000Y-72545200D03*
D10*
X70482000Y-85415000D03*
X70482000Y-84145000D03*
X70482000Y-82875000D03*
X70482000Y-81605000D03*
X65532000Y-81605000D03*
X65532000Y-82875000D03*
X65532000Y-84145000D03*
X65532000Y-85415000D03*
D16*
X78886000Y-53467200D03*
X80611000Y-53467200D03*
D10*
X56766000Y-162687000D03*
X56766000Y-161417000D03*
X56766000Y-160147000D03*
X56766000Y-158877000D03*
X51816000Y-158877000D03*
X51816000Y-160147000D03*
X51816000Y-161417000D03*
X51816000Y-162687000D03*
D18*
X67056000Y-102415380D03*
X65231000Y-102415380D03*
D17*
X79211000Y-108003500D03*
X79211000Y-106178500D03*
D19*
X130164880Y-68961200D03*
X131114880Y-68961200D03*
X132064880Y-68961200D03*
X132064880Y-66261200D03*
X131114880Y-66261200D03*
X130164880Y-66261200D03*
D17*
X92194380Y-53363700D03*
X92194380Y-51538700D03*
D18*
X62315500Y-113091000D03*
X60490500Y-113091000D03*
D10*
X56766000Y-86233000D03*
X56766000Y-84963000D03*
X56766000Y-83693000D03*
X56766000Y-82423000D03*
X51816000Y-82423000D03*
X51816000Y-83693000D03*
X51816000Y-84963000D03*
X51816000Y-86233000D03*
D14*
X161456305Y-113562000D03*
X163281305Y-113562000D03*
D10*
X56766000Y-116967000D03*
X56766000Y-115697000D03*
X56766000Y-114427000D03*
X56766000Y-113157000D03*
X51816000Y-113157000D03*
X51816000Y-114427000D03*
X51816000Y-115697000D03*
X51816000Y-116967000D03*
X70482000Y-95184000D03*
X70482000Y-93914000D03*
X70482000Y-92644000D03*
X70482000Y-91374000D03*
X65532000Y-91374000D03*
X65532000Y-92644000D03*
X65532000Y-93914000D03*
X65532000Y-95184000D03*
D18*
X66952500Y-125021380D03*
X65127500Y-125021380D03*
D16*
X148235380Y-64454200D03*
X149960380Y-64454200D03*
D13*
X81228800Y-139104380D03*
X81228800Y-137354380D03*
D14*
X134365880Y-70513200D03*
X136190880Y-70513200D03*
D16*
X135281380Y-64454200D03*
X137006380Y-64454200D03*
D23*
X127186000Y-90273500D03*
X127186000Y-92098500D03*
X160748200Y-166211880D03*
X160748200Y-168036880D03*
D12*
X127881380Y-32574200D03*
X129151380Y-32574200D03*
X130421380Y-32574200D03*
X131691380Y-32574200D03*
X131691380Y-27624200D03*
X130421380Y-27624200D03*
X129151380Y-27624200D03*
X127881380Y-27624200D03*
D13*
X153923880Y-58293200D03*
X153923880Y-56543200D03*
D23*
X126976000Y-96139500D03*
X126976000Y-97964500D03*
D20*
X83867750Y-172490500D03*
X82117750Y-172490500D03*
D24*
X129413000Y-154331500D03*
X129413000Y-156056500D03*
D18*
X62315500Y-90231000D03*
X60490500Y-90231000D03*
D14*
X46513500Y-57978000D03*
X48338500Y-57978000D03*
D18*
X67611000Y-70513200D03*
X65786000Y-70513200D03*
D22*
X62165000Y-95766000D03*
X62165000Y-94041000D03*
D18*
X62061500Y-150175000D03*
X60236500Y-150175000D03*
D20*
X90537000Y-72545200D03*
X88787000Y-72545200D03*
D24*
X137733000Y-166669500D03*
X137733000Y-168394500D03*
D14*
X159973000Y-94488000D03*
X161798000Y-94488000D03*
D22*
X73152000Y-116994000D03*
X73152000Y-115269000D03*
X62150800Y-141486000D03*
X62150800Y-139761000D03*
D17*
X79211000Y-85143500D03*
X79211000Y-83318500D03*
D22*
X171709305Y-106748700D03*
X171709305Y-105023700D03*
D24*
X159951305Y-120183500D03*
X159951305Y-121908500D03*
D14*
X55214000Y-30593000D03*
X57039000Y-30593000D03*
D15*
X103265000Y-72545200D03*
X105015000Y-72545200D03*
D16*
X125375380Y-64454200D03*
X127100380Y-64454200D03*
D32*
X41910000Y-57658000D03*
X41910000Y-55758000D03*
X40035000Y-56708000D03*
D12*
X148262380Y-48068200D03*
X149532380Y-48068200D03*
X150802380Y-48068200D03*
X152072380Y-48068200D03*
X152072380Y-43118200D03*
X150802380Y-43118200D03*
X149532380Y-43118200D03*
X148262380Y-43118200D03*
D17*
X163576000Y-94742000D03*
X163576000Y-92917000D03*
X167386000Y-129944500D03*
X167386000Y-128119500D03*
D27*
X131758000Y-89710000D03*
X138958000Y-89710000D03*
X131758000Y-92710000D03*
X138958000Y-92710000D03*
D10*
X70482000Y-163764000D03*
X70482000Y-162494000D03*
X70482000Y-161224000D03*
X70482000Y-159954000D03*
X65532000Y-159954000D03*
X65532000Y-161224000D03*
X65532000Y-162494000D03*
X65532000Y-163764000D03*
D18*
X66952500Y-148135380D03*
X65127500Y-148135380D03*
D26*
X75279000Y-94033380D03*
X77179000Y-94033380D03*
X76229000Y-91758380D03*
D16*
X56026000Y-53467200D03*
X57751000Y-53467200D03*
D22*
X73152000Y-162714000D03*
X73152000Y-160989000D03*
D17*
X171704000Y-91844500D03*
X171704000Y-90019500D03*
D16*
X112421380Y-64454200D03*
X114146380Y-64454200D03*
D23*
X142216000Y-108077500D03*
X142216000Y-109902500D03*
D22*
X62165000Y-118626000D03*
X62165000Y-116901000D03*
X92964000Y-178916500D03*
X92964000Y-177191500D03*
D10*
X70467800Y-140904000D03*
X70467800Y-139634000D03*
X70467800Y-138364000D03*
X70467800Y-137094000D03*
X65517800Y-137094000D03*
X65517800Y-138364000D03*
X65517800Y-139634000D03*
X65517800Y-140904000D03*
D27*
X131758000Y-101394000D03*
X138958000Y-101394000D03*
X131758000Y-104394000D03*
X138958000Y-104394000D03*
D17*
X129278380Y-53617700D03*
X129278380Y-51792700D03*
X79211000Y-93422000D03*
X79211000Y-91597000D03*
D16*
X110381880Y-53467200D03*
X112106880Y-53467200D03*
D17*
X79211000Y-162002000D03*
X79211000Y-160177000D03*
D15*
X133161000Y-165354000D03*
X134911000Y-165354000D03*
D10*
X41272000Y-114488000D03*
X41272000Y-113218000D03*
X41272000Y-111948000D03*
X41272000Y-110678000D03*
X36322000Y-110678000D03*
X36322000Y-111948000D03*
X36322000Y-113218000D03*
X36322000Y-114488000D03*
D12*
X82161380Y-32574200D03*
X83431380Y-32574200D03*
X84701380Y-32574200D03*
X85971380Y-32574200D03*
X85971380Y-27624200D03*
X84701380Y-27624200D03*
X83431380Y-27624200D03*
X82161380Y-27624200D03*
D23*
X126976000Y-101981500D03*
X126976000Y-103806500D03*
X44274500Y-62945000D03*
X44274500Y-64770000D03*
D20*
X66991000Y-157025500D03*
X65241000Y-157025500D03*
D12*
X65514500Y-61784200D03*
X66784500Y-61784200D03*
X68054500Y-61784200D03*
X69324500Y-61784200D03*
X69324500Y-56834200D03*
X68054500Y-56834200D03*
X66784500Y-56834200D03*
X65514500Y-56834200D03*
D17*
X39878000Y-95715500D03*
X39878000Y-93890500D03*
D14*
X78451500Y-175548500D03*
X80276500Y-175548500D03*
D22*
X62165000Y-154847500D03*
X62165000Y-153122500D03*
D10*
X41272000Y-91628000D03*
X41272000Y-90358000D03*
X41272000Y-89088000D03*
X41272000Y-87818000D03*
X36322000Y-87818000D03*
X36322000Y-89088000D03*
X36322000Y-90358000D03*
X36322000Y-91628000D03*
D12*
X122881000Y-121371000D03*
X124151000Y-121371000D03*
X125421000Y-121371000D03*
X126691000Y-121371000D03*
X127961000Y-121371000D03*
X129231000Y-121371000D03*
X130501000Y-121371000D03*
X131771000Y-121371000D03*
X131771000Y-116421000D03*
X130501000Y-116421000D03*
X129231000Y-116421000D03*
X127961000Y-116421000D03*
X126691000Y-116421000D03*
X125421000Y-116421000D03*
X124151000Y-116421000D03*
X122881000Y-116421000D03*
D19*
X84444880Y-68961200D03*
X85394880Y-68961200D03*
X86344880Y-68961200D03*
X86344880Y-66261200D03*
X85394880Y-66261200D03*
X84444880Y-66261200D03*
D25*
X77644800Y-135064500D03*
X77644800Y-134114500D03*
X77644800Y-133164500D03*
X74944800Y-133164500D03*
X74944800Y-134114500D03*
X74944800Y-135064500D03*
D18*
X66952500Y-79555380D03*
X65127500Y-79555380D03*
D12*
X134692000Y-121371000D03*
X135962000Y-121371000D03*
X137232000Y-121371000D03*
X138502000Y-121371000D03*
X139772000Y-121371000D03*
X141042000Y-121371000D03*
X142312000Y-121371000D03*
X142312000Y-116421000D03*
X141042000Y-116421000D03*
X139772000Y-116421000D03*
X138502000Y-116421000D03*
X137232000Y-116421000D03*
X135962000Y-116421000D03*
X134692000Y-116421000D03*
D18*
X113330880Y-70513200D03*
X111505880Y-70513200D03*
D10*
X41337000Y-103185000D03*
X41337000Y-101915000D03*
X41337000Y-100645000D03*
X41337000Y-99375000D03*
X36387000Y-99375000D03*
X36387000Y-100645000D03*
X36387000Y-101915000D03*
X36387000Y-103185000D03*
X56766000Y-94107000D03*
X56766000Y-92837000D03*
X56766000Y-91567000D03*
X56766000Y-90297000D03*
X51816000Y-90297000D03*
X51816000Y-91567000D03*
X51816000Y-92837000D03*
X51816000Y-94107000D03*
D20*
X67677000Y-72545200D03*
X65927000Y-72545200D03*
D23*
X142216000Y-84455500D03*
X142216000Y-86280500D03*
D27*
X131758000Y-95552000D03*
X138958000Y-95552000D03*
X131758000Y-98552000D03*
X138958000Y-98552000D03*
D22*
X73152000Y-84228000D03*
X73152000Y-82503000D03*
D19*
X61585000Y-68961200D03*
X62535000Y-68961200D03*
X63485000Y-68961200D03*
X63485000Y-66261200D03*
X62535000Y-66261200D03*
X61585000Y-66261200D03*
D12*
X116324380Y-32639200D03*
X117594380Y-32639200D03*
X118864380Y-32639200D03*
X120134380Y-32639200D03*
X120134380Y-27689200D03*
X118864380Y-27689200D03*
X117594380Y-27689200D03*
X116324380Y-27689200D03*
D18*
X161694500Y-109474000D03*
X159869500Y-109474000D03*
D16*
X102515380Y-64454200D03*
X104240380Y-64454200D03*
D19*
X153024880Y-68961200D03*
X153974880Y-68961200D03*
X154924880Y-68961200D03*
X154924880Y-66261200D03*
X153974880Y-66261200D03*
X153024880Y-66261200D03*
D24*
X137733000Y-176168000D03*
X137733000Y-177893000D03*
D23*
X120687000Y-177292000D03*
X120687000Y-179117000D03*
D11*
X134498500Y-66515200D03*
X134498500Y-68415200D03*
X136773500Y-67465200D03*
D27*
X131758000Y-107490000D03*
X138958000Y-107490000D03*
X131758000Y-110490000D03*
X138958000Y-110490000D03*
D12*
X139184380Y-32639200D03*
X140454380Y-32639200D03*
X141724380Y-32639200D03*
X142994380Y-32639200D03*
X142994380Y-27689200D03*
X141724380Y-27689200D03*
X140454380Y-27689200D03*
X139184380Y-27689200D03*
D10*
X56766000Y-154813000D03*
X56766000Y-153543000D03*
X56766000Y-152273000D03*
X56766000Y-151003000D03*
X51816000Y-151003000D03*
X51816000Y-152273000D03*
X51816000Y-153543000D03*
X51816000Y-154813000D03*
D13*
X62484000Y-58293200D03*
X62484000Y-56543200D03*
D12*
X147185380Y-61784200D03*
X148455380Y-61784200D03*
X149725380Y-61784200D03*
X150995380Y-61784200D03*
X150995380Y-56834200D03*
X149725380Y-56834200D03*
X148455380Y-56834200D03*
X147185380Y-56834200D03*
D18*
X62047300Y-127315000D03*
X60222300Y-127315000D03*
D12*
X102542380Y-48068200D03*
X103812380Y-48068200D03*
X105082380Y-48068200D03*
X106352380Y-48068200D03*
X106352380Y-43118200D03*
X105082380Y-43118200D03*
X103812380Y-43118200D03*
X102542380Y-43118200D03*
D13*
X145287880Y-58039200D03*
X145287880Y-56289200D03*
D27*
X116518000Y-83868000D03*
X123718000Y-83868000D03*
X116518000Y-86868000D03*
X123718000Y-86868000D03*
D14*
X148947380Y-70513200D03*
X150772380Y-70513200D03*
D30*
X158561000Y-181602380D03*
X158561000Y-182872380D03*
X158561000Y-184142380D03*
X158561000Y-185412380D03*
X163511000Y-185412380D03*
X163511000Y-184142380D03*
X163511000Y-182872380D03*
X163511000Y-181602380D03*
D17*
X106418380Y-53617700D03*
X106418380Y-51792700D03*
D20*
X66991000Y-88445500D03*
X65241000Y-88445500D03*
D18*
X162456500Y-128016000D03*
X160631500Y-128016000D03*
D12*
X110416380Y-48068200D03*
X111686380Y-48068200D03*
X112956380Y-48068200D03*
X114226380Y-48068200D03*
X114226380Y-43118200D03*
X112956380Y-43118200D03*
X111686380Y-43118200D03*
X110416380Y-43118200D03*
D22*
X62165000Y-86267500D03*
X62165000Y-84542500D03*
D25*
X122239000Y-173091000D03*
X122239000Y-174041000D03*
X122239000Y-174991000D03*
X124939000Y-174991000D03*
X124939000Y-174041000D03*
X124939000Y-173091000D03*
D33*
X149258305Y-140740000D03*
X147533305Y-140740000D03*
D20*
X66737000Y-165661500D03*
X64987000Y-165661500D03*
X66976800Y-134165500D03*
X65226800Y-134165500D03*
D14*
X100933880Y-30452000D03*
X102758880Y-30452000D03*
D24*
X126746000Y-178207500D03*
X126746000Y-179932500D03*
D17*
X39878000Y-118575500D03*
X39878000Y-116750500D03*
D15*
X126125000Y-72545200D03*
X127875000Y-72545200D03*
D23*
X120687000Y-169013500D03*
X120687000Y-170838500D03*
D15*
X80405000Y-72545200D03*
X82155000Y-72545200D03*
D12*
X101465380Y-61784200D03*
X102735380Y-61784200D03*
X104005380Y-61784200D03*
X105275380Y-61784200D03*
X105275380Y-56834200D03*
X104005380Y-56834200D03*
X102735380Y-56834200D03*
X101465380Y-56834200D03*
D25*
X77659000Y-112204500D03*
X77659000Y-111254500D03*
X77659000Y-110304500D03*
X74959000Y-110304500D03*
X74959000Y-111254500D03*
X74959000Y-112204500D03*
D12*
X156954380Y-61784200D03*
X158224380Y-61784200D03*
X159494380Y-61784200D03*
X160764380Y-61784200D03*
X160764380Y-56834200D03*
X159494380Y-56834200D03*
X158224380Y-56834200D03*
X156954380Y-56834200D03*
D28*
X118655000Y-169051120D03*
X118655000Y-170801120D03*
D16*
X79655380Y-64454200D03*
X81380380Y-64454200D03*
D27*
X116518000Y-101394000D03*
X123718000Y-101394000D03*
X116518000Y-104394000D03*
X123718000Y-104394000D03*
D17*
X139954000Y-58316500D03*
X139954000Y-56491500D03*
D23*
X126976000Y-84455500D03*
X126976000Y-86280500D03*
X142216000Y-96139500D03*
X142216000Y-97964500D03*
D20*
X113397000Y-72545200D03*
X111647000Y-72545200D03*
D14*
X126087380Y-70513200D03*
X127912380Y-70513200D03*
D30*
X129416000Y-177020500D03*
X129416000Y-178290500D03*
X129416000Y-179560500D03*
X129416000Y-180830500D03*
X134366000Y-180830500D03*
X134366000Y-179560500D03*
X134366000Y-178290500D03*
X134366000Y-177020500D03*
D27*
X127782000Y-128524000D03*
X120582000Y-128524000D03*
X127782000Y-125524000D03*
X120582000Y-125524000D03*
D14*
X157225880Y-70513200D03*
X159050880Y-70513200D03*
D13*
X53848000Y-57164200D03*
X53848000Y-55414200D03*
D22*
X73137800Y-139854000D03*
X73137800Y-138129000D03*
D14*
X123793880Y-30480000D03*
X125618880Y-30480000D03*
D22*
X73152000Y-152808000D03*
X73152000Y-151083000D03*
D20*
X83853500Y-178586500D03*
X82103500Y-178586500D03*
D30*
X143132000Y-176202500D03*
X143132000Y-177472500D03*
X143132000Y-178742500D03*
X143132000Y-180012500D03*
X148082000Y-180012500D03*
X148082000Y-178742500D03*
X148082000Y-177472500D03*
X148082000Y-176202500D03*
D10*
X41337000Y-80325000D03*
X41337000Y-79055000D03*
X41337000Y-77785000D03*
X41337000Y-76515000D03*
X36387000Y-76515000D03*
X36387000Y-77785000D03*
X36387000Y-79055000D03*
X36387000Y-80325000D03*
D30*
X129416000Y-167251500D03*
X129416000Y-168521500D03*
X129416000Y-169791500D03*
X129416000Y-171061500D03*
X134366000Y-171061500D03*
X134366000Y-169791500D03*
X134366000Y-168521500D03*
X134366000Y-167251500D03*
D14*
X78073880Y-30480000D03*
X79898880Y-30480000D03*
D22*
X62165000Y-109127500D03*
X62165000Y-107402500D03*
D12*
X150741380Y-32574200D03*
X152011380Y-32574200D03*
X153281380Y-32574200D03*
X154551380Y-32574200D03*
X154551380Y-27624200D03*
X153281380Y-27624200D03*
X152011380Y-27624200D03*
X150741380Y-27624200D03*
D20*
X159117000Y-72545200D03*
X157367000Y-72545200D03*
X66737000Y-119941500D03*
X64987000Y-119941500D03*
D12*
X79682380Y-48068200D03*
X80952380Y-48068200D03*
X82222380Y-48068200D03*
X83492380Y-48068200D03*
X83492380Y-43118200D03*
X82222380Y-43118200D03*
X80952380Y-43118200D03*
X79682380Y-43118200D03*
D17*
X160774380Y-53363700D03*
X160774380Y-51538700D03*
X79196800Y-139142000D03*
X79196800Y-137317000D03*
D32*
X48514000Y-64807500D03*
X48514000Y-62907500D03*
X46639000Y-63857500D03*
D16*
X87521880Y-53467200D03*
X89246880Y-53467200D03*
D17*
X39878000Y-164295500D03*
X39878000Y-162470500D03*
D30*
X143132000Y-168328500D03*
X143132000Y-169598500D03*
X143132000Y-170868500D03*
X143132000Y-172138500D03*
X148082000Y-172138500D03*
X148082000Y-170868500D03*
X148082000Y-169598500D03*
X148082000Y-168328500D03*
D23*
X142216000Y-101981500D03*
X142216000Y-103806500D03*
D10*
X56766000Y-109093000D03*
X56766000Y-107823000D03*
X56766000Y-106553000D03*
X56766000Y-105283000D03*
X51816000Y-105283000D03*
X51816000Y-106553000D03*
X51816000Y-107823000D03*
X51816000Y-109093000D03*
D18*
X62061500Y-104455000D03*
X60236500Y-104455000D03*
D34*
X163712805Y-131858000D03*
X163712805Y-133758000D03*
X165587805Y-132808000D03*
D13*
X76707880Y-58039200D03*
X76707880Y-56289200D03*
D17*
X79211000Y-153723500D03*
X79211000Y-151898500D03*
D10*
X41322800Y-126045000D03*
X41322800Y-124775000D03*
X41322800Y-123505000D03*
X41322800Y-122235000D03*
X36372800Y-122235000D03*
X36372800Y-123505000D03*
X36372800Y-124775000D03*
X36372800Y-126045000D03*
D22*
X129413000Y-161390500D03*
X129413000Y-159665500D03*
D26*
X75213000Y-153590880D03*
X77113000Y-153590880D03*
X76163000Y-151315880D03*
D35*
X119737000Y-116499500D03*
X118467000Y-116499500D03*
X117197000Y-116499500D03*
X115927000Y-116499500D03*
X114657000Y-116499500D03*
X113387000Y-116499500D03*
X112117000Y-116499500D03*
X110847000Y-116499500D03*
X110847000Y-121449500D03*
X112117000Y-121449500D03*
X113387000Y-121449500D03*
X114657000Y-121449500D03*
X115927000Y-121449500D03*
X117197000Y-121449500D03*
X118467000Y-121449500D03*
X119737000Y-121449500D03*
D23*
X171704000Y-112117500D03*
X171704000Y-113942500D03*
D16*
X64662000Y-53467200D03*
X66387000Y-53467200D03*
D10*
X70467800Y-131135000D03*
X70467800Y-129865000D03*
X70467800Y-128595000D03*
X70467800Y-127325000D03*
X65517800Y-127325000D03*
X65517800Y-128595000D03*
X65517800Y-129865000D03*
X65517800Y-131135000D03*
D12*
X78605380Y-61784200D03*
X79875380Y-61784200D03*
X81145380Y-61784200D03*
X82415380Y-61784200D03*
X82415380Y-56834200D03*
X81145380Y-56834200D03*
X79875380Y-56834200D03*
X78605380Y-56834200D03*
D13*
X108203880Y-58293200D03*
X108203880Y-56543200D03*
D18*
X62301300Y-135951000D03*
X60476300Y-135951000D03*
D12*
X87556380Y-48068200D03*
X88826380Y-48068200D03*
X90096380Y-48068200D03*
X91366380Y-48068200D03*
X91366380Y-43118200D03*
X90096380Y-43118200D03*
X88826380Y-43118200D03*
X87556380Y-43118200D03*
D10*
X70482000Y-108275000D03*
X70482000Y-107005000D03*
X70482000Y-105735000D03*
X70482000Y-104465000D03*
X65532000Y-104465000D03*
X65532000Y-105735000D03*
X65532000Y-107005000D03*
X65532000Y-108275000D03*
D14*
X137582500Y-172204500D03*
X139407500Y-172204500D03*
D17*
X79196800Y-130863500D03*
X79196800Y-129038500D03*
D12*
X64696500Y-48068200D03*
X65966500Y-48068200D03*
X67236500Y-48068200D03*
X68506500Y-48068200D03*
X68506500Y-43118200D03*
X67236500Y-43118200D03*
X65966500Y-43118200D03*
X64696500Y-43118200D03*
M02*
