M48
; DRILL file {KiCad (5.1.9)-1} date 03/15/22 17:45:54
; FORMAT={-:-/ absolute / inch / decimal}
; #@! TF.CreationDate,2022-03-15T17:45:54-05:00
; #@! TF.GenerationSoftware,Kicad,Pcbnew,(5.1.9)-1
; #@! TF.FileFunction,Plated,1,2,PTH
FMAT,2
INCH
T1C0.0157
T2C0.0350
T3C0.0354
T4C0.0394
T5C0.0787
%
G90
G05
T1
X4.1605Y-3.1515
X4.1645Y-2.897
X4.1675Y-2.592
X4.17Y-3.4195
X4.177Y-3.993
X4.1774Y-3.7496
X4.1805Y-4.301
X4.2475Y-8.83
X4.25Y-1.805
X4.29Y-7.64
X4.336Y-5.521
X4.3416Y-2.8201
X4.3675Y-5.6225
X4.3843Y-5.8073
X4.385Y-6.695
X4.4135Y-5.498
X4.4143Y-5.7397
X4.4165Y-2.5655
X4.418Y-3.1535
X4.42Y-1.715
X4.4253Y-3.4138
X4.4287Y-3.9889
X4.4305Y-3.7465
X4.4315Y-4.3
X4.4335Y-5.4385
X4.4443Y-5.6457
X4.4684Y-7.3371
X4.4718Y-5.5633
X4.4725Y-7.96
X4.4725Y-8.0295
X4.473Y-7.9955
X4.473Y-8.0995
X4.4735Y-8.065
X4.4735Y-8.1315
X4.5079Y-7.96
X4.5079Y-8.0295
X4.5084Y-7.9955
X4.5084Y-8.0995
X4.5089Y-8.065
X4.5089Y-8.1315
X4.511Y-5.4765
X4.5433Y-7.96
X4.5433Y-8.0295
X4.5438Y-7.9955
X4.5438Y-8.0995
X4.5443Y-8.065
X4.5443Y-8.1315
X4.545Y-9.13
X4.55Y-1.5075
X4.5625Y-7.1275
X4.5655Y-7.757
X4.5665Y-7.723
X4.5665Y-7.7905
X4.5665Y-7.8235
X4.5665Y-7.8565
X4.5665Y-7.8895
X4.5787Y-7.96
X4.5787Y-8.0295
X4.5792Y-7.9955
X4.5792Y-8.0995
X4.5797Y-8.065
X4.5797Y-8.1315
X4.6009Y-7.757
X4.6019Y-7.723
X4.6019Y-7.7905
X4.6019Y-7.8235
X4.6019Y-7.8565
X4.6019Y-7.8895
X4.612Y-7.3075
X4.6142Y-7.96
X4.6142Y-8.0295
X4.6147Y-7.9955
X4.6147Y-8.0995
X4.6152Y-8.065
X4.6152Y-8.1315
X4.6364Y-7.757
X4.6374Y-7.723
X4.6374Y-7.7905
X4.6374Y-7.8235
X4.6374Y-7.8565
X4.6374Y-7.8895
X4.6496Y-7.96
X4.6496Y-8.0295
X4.6499Y-7.1276
X4.65Y-6.9225
X4.6501Y-7.9955
X4.6501Y-8.0995
X4.6506Y-8.065
X4.6506Y-8.1315
X4.67Y-6.7675
X4.6718Y-7.757
X4.6728Y-7.723
X4.6728Y-7.7905
X4.6728Y-7.8235
X4.6728Y-7.8565
X4.6728Y-7.8895
X4.685Y-7.96
X4.685Y-8.0295
X4.6855Y-7.9955
X4.6855Y-8.0995
X4.686Y-8.065
X4.686Y-8.1315
X4.7073Y-7.757
X4.7083Y-7.723
X4.7083Y-7.7905
X4.7083Y-7.8235
X4.7083Y-7.8565
X4.7083Y-7.8895
X4.7318Y-4.816
X4.735Y-5.01
X4.7427Y-7.757
X4.7437Y-7.723
X4.7437Y-7.7905
X4.7437Y-7.8235
X4.7437Y-7.8565
X4.7437Y-7.8895
X4.76Y-6.0975
X4.771Y-4.852
X4.771Y-5.0485
X4.7758Y-3.1308
X4.7758Y-3.0633
X4.7782Y-7.757
X4.7792Y-7.723
X4.7792Y-7.7905
X4.7792Y-7.8235
X4.7792Y-7.8565
X4.7792Y-7.8895
X4.8015Y-7.9615
X4.8015Y-8.031
X4.802Y-7.997
X4.802Y-8.101
X4.8025Y-8.0665
X4.8025Y-8.133
X4.81Y-4.995
X4.8125Y-6.9525
X4.8136Y-7.757
X4.8146Y-7.723
X4.8146Y-7.7905
X4.8146Y-7.8235
X4.8146Y-7.8565
X4.8146Y-7.8895
X4.825Y-7.1275
X4.8331Y-2.1504
X4.8369Y-7.9615
X4.8369Y-8.031
X4.8374Y-7.997
X4.8374Y-8.101
X4.8379Y-8.0665
X4.8379Y-8.133
X4.8491Y-7.757
X4.8501Y-7.723
X4.8501Y-7.7905
X4.8501Y-7.8235
X4.8501Y-7.8565
X4.8501Y-7.8895
X4.8723Y-7.9615
X4.8723Y-8.031
X4.8728Y-7.997
X4.8728Y-8.101
X4.8733Y-8.0665
X4.8733Y-8.133
X4.8845Y-7.757
X4.8855Y-7.723
X4.8855Y-7.7905
X4.8855Y-7.8235
X4.8855Y-7.8565
X4.8855Y-7.8895
X4.905Y-2.935
X4.9077Y-7.9615
X4.9077Y-8.031
X4.9082Y-7.997
X4.9082Y-8.101
X4.9086Y-7.1275
X4.9087Y-8.0665
X4.9087Y-8.133
X4.91Y-2.9925
X4.9185Y-7.7585
X4.9195Y-7.7245
X4.9195Y-7.792
X4.9195Y-7.825
X4.9195Y-7.858
X4.9195Y-7.891
X4.9432Y-7.9615
X4.9432Y-8.031
X4.9437Y-7.997
X4.9437Y-8.101
X4.9442Y-8.0665
X4.9442Y-8.133
X4.971Y-6.7132
X4.9786Y-7.9615
X4.9786Y-8.031
X4.9791Y-7.997
X4.9791Y-8.101
X4.9796Y-8.0665
X4.9796Y-8.133
X4.995Y-7.1275
X4.9993Y-6.9521
X5.014Y-7.9615
X5.014Y-8.031
X5.0145Y-7.997
X5.0145Y-8.101
X5.015Y-8.0665
X5.015Y-8.133
X5.04Y-4.205
X5.0625Y-6.785
X5.073Y-6.912
X5.0963Y-2.259
X5.0981Y-2.1977
X5.1Y-2.075
X5.1032Y-2.1363
X5.1225Y-5.94
X5.1406Y-2.167
X5.1417Y-2.2283
X5.1421Y-2.1057
X5.1425Y-2.305
X5.165Y-2.7225
X5.215Y-8.1025
X5.225Y-2.592
X5.225Y-2.6585
X5.2255Y-2.624
X5.2255Y-2.728
X5.226Y-2.694
X5.226Y-2.7635
X5.2425Y-6.6275
X5.2425Y-6.735
X5.2425Y-6.8525
X5.2604Y-2.592
X5.2604Y-2.6585
X5.2609Y-2.624
X5.2609Y-2.728
X5.2614Y-2.694
X5.2614Y-2.7635
X5.2958Y-2.592
X5.2958Y-2.6585
X5.2963Y-2.624
X5.2963Y-2.728
X5.2968Y-2.694
X5.2968Y-2.7635
X5.299Y-3.603
X5.3205Y-2.834
X5.3205Y-2.867
X5.3205Y-2.9
X5.3205Y-2.933
X5.3205Y-3.0005
X5.3215Y-2.9665
X5.3313Y-2.592
X5.3313Y-2.6585
X5.3318Y-2.624
X5.3318Y-2.728
X5.3323Y-2.694
X5.3323Y-2.7635
X5.335Y-6.455
X5.3375Y-7.0375
X5.34Y-5.1475
X5.3545Y-2.8355
X5.3545Y-2.8685
X5.3545Y-2.9015
X5.3545Y-2.9345
X5.3545Y-3.002
X5.3555Y-2.968
X5.3667Y-2.592
X5.3667Y-2.6585
X5.3672Y-2.624
X5.3672Y-2.728
X5.3677Y-2.694
X5.3677Y-2.7635
X5.3825Y-7.13
X5.3851Y-3.5999
X5.3899Y-2.8355
X5.3899Y-2.8685
X5.3899Y-2.9015
X5.3899Y-2.9345
X5.3899Y-3.002
X5.3909Y-2.968
X5.4021Y-2.592
X5.4021Y-2.6585
X5.4026Y-2.624
X5.4026Y-2.728
X5.4031Y-2.694
X5.4031Y-2.7635
X5.4155Y-7.9575
X5.4155Y-8.027
X5.416Y-7.993
X5.416Y-8.097
X5.4165Y-8.0625
X5.4165Y-8.129
X5.4168Y-6.2757
X5.4254Y-2.8355
X5.4254Y-2.8685
X5.4254Y-2.9015
X5.4254Y-2.9345
X5.4254Y-3.002
X5.4264Y-2.968
X5.4353Y-6.3222
X5.4375Y-2.592
X5.4375Y-2.6585
X5.438Y-2.624
X5.438Y-2.728
X5.4385Y-2.694
X5.4385Y-2.7635
X5.4425Y-4.6095
X5.4425Y-6.56
X5.4509Y-7.9575
X5.4509Y-8.027
X5.4514Y-7.993
X5.4514Y-8.097
X5.4519Y-8.0625
X5.4519Y-8.129
X5.4608Y-2.8355
X5.4608Y-2.8685
X5.4608Y-2.9015
X5.4608Y-2.9345
X5.4608Y-3.002
X5.4618Y-2.968
X5.4675Y-3.91
X5.4863Y-7.9575
X5.4863Y-8.027
X5.4868Y-7.993
X5.4868Y-8.097
X5.4873Y-8.0625
X5.4873Y-8.129
X5.49Y-7.13
X5.4963Y-2.8355
X5.4963Y-2.8685
X5.4963Y-2.9015
X5.4963Y-2.9345
X5.4963Y-3.002
X5.4973Y-2.968
X5.5085Y-7.7545
X5.5095Y-7.7205
X5.5095Y-7.788
X5.5095Y-7.821
X5.5095Y-7.854
X5.5095Y-7.887
X5.5217Y-7.9575
X5.5217Y-8.027
X5.5222Y-7.993
X5.5222Y-8.097
X5.5227Y-8.0625
X5.5227Y-8.129
X5.5317Y-2.8355
X5.5317Y-2.8685
X5.5317Y-2.9015
X5.5317Y-2.9345
X5.5317Y-3.002
X5.5327Y-2.968
X5.5415Y-7.3155
X5.5439Y-7.7545
X5.5449Y-7.7205
X5.5449Y-7.788
X5.5449Y-7.821
X5.5449Y-7.854
X5.5449Y-7.887
X5.55Y-6.8525
X5.554Y-2.5935
X5.554Y-2.66
X5.5545Y-2.6255
X5.5545Y-2.7295
X5.5547Y-3.5977
X5.5549Y-6.7543
X5.555Y-2.6955
X5.555Y-2.765
X5.5572Y-7.9575
X5.5572Y-8.027
X5.5577Y-7.993
X5.5577Y-8.097
X5.5582Y-8.0625
X5.5582Y-8.129
X5.5672Y-2.8355
X5.5672Y-2.8685
X5.5672Y-2.9015
X5.5672Y-2.9345
X5.5672Y-3.002
X5.5682Y-2.968
X5.5746Y-7.1304
X5.5794Y-7.7545
X5.5804Y-7.7205
X5.5804Y-7.788
X5.5804Y-7.821
X5.5804Y-7.854
X5.5804Y-7.887
X5.5894Y-2.5935
X5.5894Y-2.66
X5.5899Y-2.6255
X5.5899Y-2.7295
X5.5904Y-2.6955
X5.5904Y-2.765
X5.5926Y-7.9575
X5.5926Y-8.027
X5.5931Y-7.993
X5.5931Y-8.097
X5.5936Y-8.0625
X5.5936Y-8.129
X5.6026Y-2.8355
X5.6026Y-2.8685
X5.6026Y-2.9015
X5.6026Y-2.9345
X5.6026Y-3.002
X5.6036Y-2.968
X5.6148Y-7.7545
X5.6158Y-7.7205
X5.6158Y-7.788
X5.6158Y-7.821
X5.6158Y-7.854
X5.6158Y-7.887
X5.6248Y-2.5935
X5.6248Y-2.66
X5.6253Y-2.6255
X5.6253Y-2.7295
X5.6258Y-2.6955
X5.6258Y-2.765
X5.628Y-7.9575
X5.628Y-8.027
X5.6285Y-7.993
X5.6285Y-8.097
X5.629Y-8.0625
X5.629Y-8.129
X5.6325Y-4.21
X5.6381Y-2.8355
X5.6381Y-2.8685
X5.6381Y-2.9015
X5.6381Y-2.9345
X5.6381Y-3.002
X5.6391Y-2.968
X5.6503Y-7.7545
X5.6513Y-7.7205
X5.6513Y-7.788
X5.6513Y-7.821
X5.6513Y-7.854
X5.6513Y-7.887
X5.6603Y-2.5935
X5.6603Y-2.66
X5.6608Y-2.6255
X5.6608Y-2.7295
X5.6613Y-2.6955
X5.6613Y-2.765
X5.6735Y-2.8355
X5.6735Y-2.8685
X5.6735Y-2.9015
X5.6735Y-2.9345
X5.6735Y-3.002
X5.6745Y-2.968
X5.684Y-3.8585
X5.6855Y-3.4325
X5.6857Y-7.7545
X5.6867Y-7.7205
X5.6867Y-7.788
X5.6867Y-7.821
X5.6867Y-7.854
X5.6867Y-7.887
X5.6957Y-2.5935
X5.6957Y-2.66
X5.6962Y-2.6255
X5.6962Y-2.7295
X5.6967Y-2.6955
X5.6967Y-2.765
X5.7Y-7.0975
X5.7212Y-7.7545
X5.7222Y-7.7205
X5.7222Y-7.788
X5.7222Y-7.821
X5.7222Y-7.854
X5.7222Y-7.887
X5.7311Y-2.5935
X5.7311Y-2.66
X5.7316Y-2.6255
X5.7316Y-2.7295
X5.7321Y-2.6955
X5.7321Y-2.765
X5.7435Y-7.1285
X5.7445Y-7.959
X5.7445Y-8.0285
X5.745Y-7.9945
X5.745Y-8.0985
X5.7455Y-8.064
X5.7455Y-8.1305
X5.7566Y-7.7545
X5.7576Y-7.7205
X5.7576Y-7.788
X5.7576Y-7.821
X5.7576Y-7.854
X5.7576Y-7.887
X5.7665Y-2.5935
X5.7665Y-2.66
X5.767Y-2.6255
X5.767Y-2.7295
X5.7675Y-2.6955
X5.7675Y-2.765
X5.7799Y-7.959
X5.7799Y-8.0285
X5.7804Y-7.9945
X5.7804Y-8.0985
X5.7809Y-8.064
X5.7809Y-8.1305
X5.7835Y-3.545
X5.785Y-6.6825
X5.7921Y-7.7545
X5.7931Y-7.7205
X5.7931Y-7.788
X5.7931Y-7.821
X5.7931Y-7.854
X5.7931Y-7.887
X5.81Y-4.1125
X5.8153Y-7.959
X5.8153Y-8.0285
X5.8158Y-7.9945
X5.8158Y-8.0985
X5.8163Y-8.064
X5.8163Y-8.1305
X5.82Y-2.2283
X5.8275Y-7.7545
X5.8285Y-7.7205
X5.8285Y-7.788
X5.8285Y-7.821
X5.8285Y-7.854
X5.8285Y-7.887
X5.83Y-7.1275
X5.84Y-6.8525
X5.84Y-6.9521
X5.8507Y-7.959
X5.8507Y-8.0285
X5.8512Y-7.9945
X5.8512Y-8.0985
X5.8517Y-8.064
X5.8517Y-8.1305
X5.8525Y-6.7257
X5.8615Y-7.756
X5.8625Y-7.722
X5.8625Y-7.7895
X5.8625Y-7.8225
X5.8625Y-7.8555
X5.8625Y-7.8885
X5.8862Y-7.959
X5.8862Y-8.0285
X5.8867Y-7.9945
X5.8867Y-8.0985
X5.8872Y-8.064
X5.8872Y-8.1305
X5.89Y-3.8275
X5.9125Y-2.569
X5.9165Y-7.1285
X5.9216Y-7.959
X5.9216Y-8.0285
X5.9221Y-7.9945
X5.9221Y-8.0985
X5.9226Y-8.064
X5.9226Y-8.1305
X5.9325Y-2.255
X5.945Y-3.3775
X5.95Y-6.6425
X5.957Y-7.959
X5.957Y-8.0285
X5.9575Y-7.9945
X5.9575Y-8.0985
X5.958Y-8.064
X5.958Y-8.1305
X5.9917Y-4.2942
X6.015Y-2.255
X6.015Y-2.34
X6.0275Y-6.63
X6.03Y-6.5225
X6.04Y-2.44
X6.0575Y-3.5575
X6.0835Y-2.5925
X6.0835Y-2.659
X6.084Y-2.6245
X6.084Y-2.7285
X6.0845Y-2.6945
X6.0845Y-2.764
X6.115Y-6.95
X6.1189Y-2.5925
X6.1189Y-2.659
X6.1194Y-2.6245
X6.1194Y-2.7285
X6.1199Y-2.6945
X6.1199Y-2.764
X6.1375Y-6.8525
X6.14Y-3.895
X6.1525Y-8.115
X6.1543Y-2.5925
X6.1543Y-2.659
X6.1548Y-2.6245
X6.1548Y-2.7285
X6.1553Y-2.6945
X6.1553Y-2.764
X6.1795Y-2.8335
X6.1795Y-2.8665
X6.1795Y-2.8995
X6.1795Y-2.9325
X6.1795Y-3.0
X6.1805Y-2.966
X6.1825Y-6.6425
X6.1898Y-2.5925
X6.1898Y-2.659
X6.19Y-5.03
X6.1903Y-2.6245
X6.1903Y-2.7285
X6.1908Y-2.6945
X6.1908Y-2.764
X6.2135Y-2.835
X6.2135Y-2.868
X6.2135Y-2.901
X6.2135Y-2.934
X6.2135Y-3.0015
X6.2145Y-2.9675
X6.2175Y-6.5225
X6.2225Y-5.81
X6.2252Y-2.5925
X6.2252Y-2.659
X6.2257Y-2.6245
X6.2257Y-2.7285
X6.2262Y-2.6945
X6.2262Y-2.764
X6.2425Y-3.603
X6.2489Y-2.835
X6.2489Y-2.868
X6.2489Y-2.901
X6.2489Y-2.934
X6.2489Y-3.0015
X6.2499Y-2.9675
X6.2606Y-2.5925
X6.2606Y-2.659
X6.2611Y-2.6245
X6.2611Y-2.7285
X6.2616Y-2.6945
X6.2616Y-2.764
X6.2618Y-6.6457
X6.275Y-5.03
X6.2844Y-2.835
X6.2844Y-2.868
X6.2844Y-2.901
X6.2844Y-2.934
X6.2844Y-3.0015
X6.2854Y-2.9675
X6.29Y-8.9925
X6.296Y-2.5925
X6.296Y-2.659
X6.2965Y-2.6245
X6.2965Y-2.7285
X6.297Y-2.6945
X6.297Y-2.764
X6.301Y-3.955
X6.315Y-6.8225
X6.316Y-3.74
X6.3198Y-2.835
X6.3198Y-2.868
X6.3198Y-2.901
X6.3198Y-2.934
X6.3198Y-3.0015
X6.3208Y-2.9675
X6.331Y-3.597
X6.345Y-7.07
X6.354Y-7.9555
X6.354Y-8.025
X6.3545Y-7.991
X6.3545Y-8.095
X6.355Y-8.0605
X6.355Y-8.127
X6.3553Y-2.835
X6.3553Y-2.868
X6.3553Y-2.901
X6.3553Y-2.934
X6.3553Y-3.0015
X6.3563Y-2.9675
X6.365Y-6.8225
X6.3735Y-6.9865
X6.3825Y-6.48
X6.3894Y-7.9555
X6.3894Y-8.025
X6.3899Y-7.991
X6.3899Y-8.095
X6.3904Y-8.0605
X6.3904Y-8.127
X6.3907Y-2.835
X6.3907Y-2.868
X6.3907Y-2.901
X6.3907Y-2.934
X6.3907Y-3.0015
X6.3917Y-2.9675
X6.4125Y-2.593
X6.4125Y-2.6595
X6.413Y-2.625
X6.413Y-2.729
X6.4135Y-2.695
X6.4135Y-2.7645
X6.415Y-6.585
X6.4169Y-6.8594
X6.4225Y-7.13
X6.4248Y-7.9555
X6.4248Y-8.025
X6.425Y-6.21
X6.4253Y-7.991
X6.4253Y-8.095
X6.4258Y-8.0605
X6.4258Y-8.127
X6.4262Y-2.835
X6.4262Y-2.868
X6.4262Y-2.901
X6.4262Y-2.934
X6.4262Y-3.0015
X6.4272Y-2.9675
X6.4455Y-6.926
X6.447Y-7.7525
X6.4479Y-2.593
X6.4479Y-2.6595
X6.448Y-7.7185
X6.448Y-7.786
X6.448Y-7.819
X6.448Y-7.852
X6.448Y-7.885
X6.4484Y-2.625
X6.4484Y-2.729
X6.4489Y-2.695
X6.4489Y-2.7645
X6.4602Y-7.9555
X6.4602Y-8.025
X6.4607Y-7.991
X6.4607Y-8.095
X6.4612Y-8.0605
X6.4612Y-8.127
X6.4616Y-2.835
X6.4616Y-2.868
X6.4616Y-2.901
X6.4616Y-2.934
X6.4616Y-3.0015
X6.4626Y-2.9675
X6.47Y-6.4775
X6.47Y-6.855
X6.479Y-7.3205
X6.4824Y-7.7525
X6.4833Y-2.593
X6.4833Y-2.6595
X6.4834Y-7.7185
X6.4834Y-7.786
X6.4834Y-7.819
X6.4834Y-7.852
X6.4834Y-7.885
X6.4838Y-2.625
X6.4838Y-2.729
X6.4843Y-2.695
X6.4843Y-2.7645
X6.4957Y-7.9555
X6.4957Y-8.025
X6.496Y-4.5195
X6.4962Y-7.991
X6.4962Y-8.095
X6.4967Y-8.0605
X6.4967Y-8.127
X6.4971Y-2.835
X6.4971Y-2.868
X6.4971Y-2.901
X6.4971Y-2.934
X6.4971Y-3.0015
X6.4981Y-2.9675
X6.5005Y-3.5945
X6.505Y-7.13
X6.5119Y-6.618
X6.5179Y-7.7525
X6.5188Y-2.593
X6.5188Y-2.6595
X6.5189Y-7.7185
X6.5189Y-7.786
X6.5189Y-7.819
X6.5189Y-7.852
X6.5189Y-7.885
X6.5193Y-2.625
X6.5193Y-2.729
X6.5198Y-2.695
X6.5198Y-2.7645
X6.52Y-6.9
X6.5311Y-7.9555
X6.5311Y-8.025
X6.5316Y-7.991
X6.5316Y-8.095
X6.5321Y-8.0605
X6.5321Y-8.127
X6.5325Y-2.835
X6.5325Y-2.868
X6.5325Y-2.901
X6.5325Y-2.934
X6.5325Y-3.0015
X6.5335Y-2.9675
X6.539Y-3.424
X6.55Y-6.24
X6.5533Y-7.7525
X6.5542Y-2.593
X6.5542Y-2.6595
X6.5543Y-7.7185
X6.5543Y-7.786
X6.5543Y-7.819
X6.5543Y-7.852
X6.5543Y-7.885
X6.5547Y-2.625
X6.5547Y-2.729
X6.5552Y-2.695
X6.5552Y-2.7645
X6.56Y-6.125
X6.5665Y-7.9555
X6.5665Y-8.025
X6.567Y-7.991
X6.567Y-8.095
X6.5675Y-8.0605
X6.5675Y-8.127
X6.5888Y-7.7525
X6.5896Y-2.593
X6.5896Y-2.6595
X6.5898Y-7.7185
X6.5898Y-7.786
X6.5898Y-7.819
X6.5898Y-7.852
X6.5898Y-7.885
X6.59Y-5.155
X6.5901Y-2.625
X6.5901Y-2.729
X6.5906Y-2.695
X6.5906Y-2.7645
X6.6242Y-7.7525
X6.6243Y-6.5843
X6.625Y-2.593
X6.625Y-2.6595
X6.6252Y-7.7185
X6.6252Y-7.786
X6.6252Y-7.819
X6.6252Y-7.852
X6.6252Y-7.885
X6.6255Y-2.625
X6.6255Y-2.729
X6.626Y-2.695
X6.626Y-2.7645
X6.628Y-4.935
X6.6325Y-7.0825
X6.634Y-3.5435
X6.636Y-3.665
X6.6425Y-3.76
X6.655Y-3.8975
X6.6575Y-6.365
X6.6597Y-7.7525
X6.66Y-4.855
X6.6607Y-7.7185
X6.6607Y-7.786
X6.6607Y-7.819
X6.6607Y-7.852
X6.6607Y-7.885
X6.67Y-7.13
X6.683Y-7.957
X6.683Y-8.0265
X6.6835Y-3.4245
X6.6835Y-7.9925
X6.6835Y-8.0965
X6.684Y-8.062
X6.684Y-8.1285
X6.695Y-2.167
X6.695Y-6.2875
X6.695Y-6.43
X6.6951Y-7.7525
X6.6961Y-7.7185
X6.6961Y-7.786
X6.6961Y-7.819
X6.6961Y-7.852
X6.6961Y-7.885
X6.6975Y-6.9
X6.7Y-4.895
X6.7Y-7.015
X6.7015Y-4.0745
X6.7025Y-4.375
X6.7035Y-5.6295
X6.7184Y-7.957
X6.7184Y-8.0265
X6.7189Y-7.9925
X6.7189Y-8.0965
X6.7194Y-8.062
X6.7194Y-8.1285
X6.7225Y-4.795
X6.7306Y-7.7525
X6.7316Y-7.7185
X6.7316Y-7.786
X6.7316Y-7.819
X6.7316Y-7.852
X6.7316Y-7.885
X6.7483Y-7.1292
X6.7538Y-7.957
X6.7538Y-8.0265
X6.7543Y-7.9925
X6.7543Y-8.0965
X6.7548Y-8.062
X6.7548Y-8.1285
X6.755Y-6.065
X6.766Y-7.7525
X6.767Y-7.7185
X6.767Y-7.786
X6.767Y-7.819
X6.767Y-7.852
X6.767Y-7.885
X6.7675Y-6.7257
X6.769Y-6.788
X6.7775Y-1.9875
X6.78Y-6.5075
X6.785Y-2.5
X6.7875Y-6.37
X6.7892Y-7.957
X6.7892Y-8.0265
X6.7897Y-7.9925
X6.7897Y-8.0965
X6.7902Y-8.062
X6.7902Y-8.1285
X6.8Y-7.754
X6.801Y-7.72
X6.801Y-7.7875
X6.801Y-7.8205
X6.801Y-7.8535
X6.801Y-7.8865
X6.8061Y-6.9964
X6.81Y-6.33
X6.8125Y-6.8169
X6.8148Y-7.0485
X6.815Y-6.755
X6.8243Y-7.125
X6.8247Y-7.957
X6.8247Y-8.0265
X6.8252Y-7.9925
X6.8252Y-8.0965
X6.8257Y-8.062
X6.8257Y-8.1285
X6.8475Y-7.3425
X6.8601Y-7.957
X6.8601Y-8.0265
X6.8606Y-7.9925
X6.8606Y-8.0965
X6.8611Y-8.062
X6.8611Y-8.1285
X6.8955Y-7.957
X6.8955Y-8.0265
X6.896Y-7.9925
X6.896Y-8.0965
X6.8965Y-8.062
X6.8965Y-8.1285
X6.9675Y-8.995
X7.22Y-1.9875
X7.2275Y-2.5
X7.345Y-2.445
X7.393Y-2.5935
X7.393Y-2.66
X7.3935Y-2.6255
X7.3935Y-2.7295
X7.394Y-2.6955
X7.394Y-2.765
X7.4284Y-2.5935
X7.4284Y-2.66
X7.4289Y-2.6255
X7.4289Y-2.7295
X7.4294Y-2.6955
X7.4294Y-2.765
X7.4425Y-3.8475
X7.4425Y-3.6025
X7.4638Y-2.5935
X7.4638Y-2.66
X7.4643Y-2.6255
X7.4643Y-2.7295
X7.4648Y-2.6955
X7.4648Y-2.765
X7.4885Y-2.8355
X7.4885Y-2.8685
X7.4885Y-2.9015
X7.4885Y-2.9345
X7.4885Y-3.002
X7.4895Y-2.968
X7.493Y-3.9605
X7.4993Y-2.5935
X7.4993Y-2.66
X7.4998Y-2.6255
X7.4998Y-2.7295
X7.5003Y-2.6955
X7.5003Y-2.765
X7.501Y-4.2605
X7.5012Y-3.7893
X7.5225Y-2.837
X7.5225Y-2.87
X7.5225Y-2.903
X7.5225Y-2.936
X7.5225Y-3.0035
X7.5235Y-2.9695
X7.5241Y-8.1446
X7.533Y-3.6045
X7.5347Y-2.5935
X7.5347Y-2.66
X7.5352Y-2.6255
X7.5352Y-2.7295
X7.5357Y-2.6955
X7.5357Y-2.765
X7.542Y-4.294
X7.5575Y-6.71
X7.5579Y-2.837
X7.5579Y-2.87
X7.5579Y-2.903
X7.5579Y-2.936
X7.5579Y-3.0035
X7.5589Y-2.9695
X7.5701Y-2.5935
X7.5701Y-2.66
X7.5706Y-2.6255
X7.5706Y-2.7295
X7.5711Y-2.6955
X7.5711Y-2.765
X7.5725Y-6.36
X7.5886Y-3.9073
X7.5934Y-2.837
X7.5934Y-2.87
X7.5934Y-2.903
X7.5934Y-2.936
X7.5934Y-3.0035
X7.5944Y-2.9695
X7.6055Y-2.5935
X7.6055Y-2.66
X7.606Y-2.6255
X7.606Y-2.7295
X7.6065Y-2.6955
X7.6065Y-2.765
X7.6125Y-6.6025
X7.6185Y-4.0095
X7.6205Y-3.603
X7.6288Y-2.837
X7.6288Y-2.87
X7.6288Y-2.903
X7.6288Y-2.936
X7.6288Y-3.0035
X7.6298Y-2.9695
X7.63Y-4.513
X7.6418Y-7.7082
X7.6455Y-6.5375
X7.6475Y-6.885
X7.6535Y-4.789
X7.655Y-6.49
X7.6643Y-2.837
X7.6643Y-2.87
X7.6643Y-2.903
X7.6643Y-2.936
X7.6643Y-3.0035
X7.6653Y-2.9695
X7.6663Y-6.443
X7.6785Y-6.3925
X7.6997Y-2.837
X7.6997Y-2.87
X7.6997Y-2.903
X7.6997Y-2.936
X7.6997Y-3.0035
X7.7007Y-2.9695
X7.7175Y-6.5975
X7.722Y-2.595
X7.722Y-2.6615
X7.7225Y-2.627
X7.7225Y-2.731
X7.723Y-2.697
X7.723Y-2.7665
X7.7352Y-2.837
X7.7352Y-2.87
X7.7352Y-2.903
X7.7352Y-2.936
X7.7352Y-3.0035
X7.7362Y-2.9695
X7.7375Y-6.3675
X7.74Y-8.995
X7.7574Y-2.595
X7.7574Y-2.6615
X7.7579Y-2.627
X7.7579Y-2.731
X7.7584Y-2.697
X7.7584Y-2.7665
X7.7706Y-2.837
X7.7706Y-2.87
X7.7706Y-2.903
X7.7706Y-2.936
X7.7706Y-3.0035
X7.7716Y-2.9695
X7.791Y-3.6005
X7.7928Y-2.595
X7.7928Y-2.6615
X7.7933Y-2.627
X7.7933Y-2.731
X7.7938Y-2.697
X7.7938Y-2.7665
X7.8061Y-2.837
X7.8061Y-2.87
X7.8061Y-2.903
X7.8061Y-2.936
X7.8061Y-3.0035
X7.8071Y-2.9695
X7.8122Y-6.8164
X7.8283Y-2.595
X7.8283Y-2.6615
X7.8288Y-2.627
X7.8288Y-2.731
X7.8293Y-2.697
X7.8293Y-2.7665
X7.8355Y-3.4275
X7.8415Y-2.837
X7.8415Y-2.87
X7.8415Y-2.903
X7.8415Y-2.936
X7.8415Y-3.0035
X7.8425Y-2.9695
X7.8453Y-7.3097
X7.8625Y-5.6295
X7.8625Y-6.785
X7.8625Y-6.8475
X7.8637Y-2.595
X7.8637Y-2.6615
X7.8642Y-2.627
X7.8642Y-2.731
X7.8647Y-2.697
X7.8647Y-2.7665
X7.875Y-4.295
X7.8991Y-2.595
X7.8991Y-2.6615
X7.8996Y-2.627
X7.8996Y-2.731
X7.9001Y-2.697
X7.9001Y-2.7665
X7.9075Y-7.7225
X7.9225Y-6.6475
X7.9285Y-3.5485
X7.9345Y-2.595
X7.9345Y-2.6615
X7.935Y-2.627
X7.935Y-2.731
X7.9355Y-2.697
X7.9355Y-2.7665
X7.9745Y-8.038
X7.995Y-2.1107
X8.0675Y-7.355
X8.085Y-3.375
X8.1Y-2.5675
X8.104Y-7.159
X8.1108Y-4.7841
X8.13Y-4.545
X8.1325Y-4.9545
X8.1448Y-7.8676
X8.157Y-3.818
X8.1575Y-6.505
X8.18Y-4.841
X8.1887Y-4.5106
X8.205Y-2.44
X8.225Y-3.8275
X8.2255Y-4.4904
X8.24Y-8.365
X8.25Y-2.592
X8.25Y-2.6585
X8.2505Y-2.624
X8.2505Y-2.728
X8.251Y-2.694
X8.251Y-2.7635
X8.261Y-8.5295
X8.2854Y-2.592
X8.2854Y-2.6585
X8.2859Y-2.624
X8.2859Y-2.728
X8.2864Y-2.694
X8.2864Y-2.7635
X8.3Y-6.595
X8.301Y-8.5295
X8.305Y-6.6475
X8.3095Y-3.8345
X8.3208Y-2.592
X8.3208Y-2.6585
X8.3213Y-2.624
X8.3213Y-2.728
X8.3218Y-2.694
X8.3218Y-2.7635
X8.327Y-5.6295
X8.3275Y-4.4925
X8.3455Y-2.834
X8.3455Y-2.867
X8.3455Y-2.9
X8.3455Y-2.933
X8.3455Y-3.0005
X8.3465Y-2.9665
X8.3563Y-2.592
X8.3563Y-2.6585
X8.3568Y-2.624
X8.3568Y-2.728
X8.3573Y-2.694
X8.3573Y-2.7635
X8.3588Y-6.6412
X8.3725Y-7.8375
X8.375Y-8.345
X8.377Y-3.617
X8.3795Y-2.8355
X8.3795Y-2.8685
X8.3795Y-2.9015
X8.3795Y-2.9345
X8.3795Y-3.002
X8.38Y-8.61
X8.3805Y-2.968
X8.3917Y-2.592
X8.3917Y-2.6585
X8.3922Y-2.624
X8.3922Y-2.728
X8.3927Y-2.694
X8.3927Y-2.7635
X8.41Y-4.3375
X8.4149Y-2.8355
X8.4149Y-2.8685
X8.4149Y-2.9015
X8.4149Y-2.9345
X8.4149Y-3.002
X8.4159Y-2.968
X8.4271Y-2.592
X8.4271Y-2.6585
X8.4276Y-2.624
X8.4276Y-2.728
X8.4281Y-2.694
X8.4281Y-2.7635
X8.4288Y-4.2762
X8.431Y-6.0655
X8.4504Y-2.8355
X8.4504Y-2.8685
X8.4504Y-2.9015
X8.4504Y-2.9345
X8.4504Y-3.002
X8.4514Y-2.968
X8.4525Y-7.6475
X8.4601Y-4.3367
X8.4625Y-2.592
X8.4625Y-2.6585
X8.463Y-2.624
X8.463Y-2.728
X8.4635Y-2.694
X8.4635Y-2.7635
X8.467Y-7.353
X8.4675Y-3.6025
X8.4858Y-2.8355
X8.4858Y-2.8685
X8.4858Y-2.9015
X8.4858Y-2.9345
X8.4858Y-3.002
X8.4868Y-2.968
X8.5213Y-2.8355
X8.5213Y-2.8685
X8.5213Y-2.9015
X8.5213Y-2.9345
X8.5213Y-3.002
X8.5223Y-2.968
X8.532Y-8.217
X8.5567Y-2.8355
X8.5567Y-2.8685
X8.5567Y-2.9015
X8.5567Y-2.9345
X8.5567Y-3.002
X8.5577Y-2.968
X8.5645Y-3.843
X8.579Y-2.5935
X8.579Y-2.66
X8.5795Y-2.6255
X8.5795Y-2.7295
X8.58Y-2.6955
X8.58Y-2.765
X8.585Y-8.3125
X8.5922Y-2.8355
X8.5922Y-2.8685
X8.5922Y-2.9015
X8.5922Y-2.9345
X8.5922Y-3.002
X8.5932Y-2.968
X8.6144Y-2.5935
X8.6144Y-2.66
X8.6149Y-2.6255
X8.6149Y-2.7295
X8.6154Y-2.6955
X8.6154Y-2.765
X8.6175Y-8.095
X8.625Y-5.1225
X8.6276Y-2.8355
X8.6276Y-2.8685
X8.6276Y-2.9015
X8.6276Y-2.9345
X8.6276Y-3.002
X8.6286Y-2.968
X8.641Y-3.601
X8.6498Y-2.5935
X8.6498Y-2.66
X8.6503Y-2.6255
X8.6503Y-2.7295
X8.6508Y-2.6955
X8.6508Y-2.765
X8.6631Y-2.8355
X8.6631Y-2.8685
X8.6631Y-2.9015
X8.6631Y-2.9345
X8.6631Y-3.002
X8.6641Y-2.968
X8.6685Y-8.5295
X8.673Y-4.9985
X8.685Y-7.6475
X8.6853Y-2.5935
X8.6853Y-2.66
X8.6855Y-3.437
X8.6858Y-2.6255
X8.6858Y-2.7295
X8.6863Y-2.6955
X8.6863Y-2.765
X8.6985Y-2.8355
X8.6985Y-2.8685
X8.6985Y-2.9015
X8.6985Y-2.9345
X8.6985Y-3.002
X8.6995Y-2.968
X8.7023Y-8.8023
X8.7065Y-8.5295
X8.7207Y-2.5935
X8.7207Y-2.66
X8.7212Y-2.6255
X8.7212Y-2.7295
X8.7217Y-2.6955
X8.7217Y-2.765
X8.7275Y-5.1625
X8.7494Y-4.0019
X8.7561Y-2.5935
X8.7561Y-2.66
X8.7566Y-2.6255
X8.7566Y-2.7295
X8.7571Y-2.6955
X8.7571Y-2.765
X8.7575Y-3.9475
X8.7675Y-3.3575
X8.7755Y-4.9985
X8.7775Y-4.775
X8.7775Y-8.3475
X8.7785Y-3.555
X8.7915Y-2.5935
X8.7915Y-2.66
X8.792Y-2.6255
X8.792Y-2.7295
X8.7925Y-2.6955
X8.7925Y-2.765
X8.8075Y-4.0425
X8.8104Y-3.9879
X8.825Y-5.195
X8.8555Y-5.9655
X8.885Y-4.775
X8.935Y-4.3125
X8.9475Y-5.0025
X8.9725Y-8.7625
X8.9746Y-8.321
X8.9868Y-3.6218
X9.0146Y-5.1996
X9.025Y-3.3975
X9.0325Y-6.065
X9.0375Y-5.0025
X9.0573Y-2.3873
X9.06Y-3.075
X9.1494Y-4.5277
X9.1494Y-6.2063
X9.1496Y-5.1996
X9.1825Y-3.74
X9.184Y-6.1625
X9.1845Y-4.83
X9.2065Y-4.319
X9.24Y-6.74
X9.25Y-8.575
X9.2525Y-7.2875
X9.2525Y-7.895
X9.2685Y-4.65
X9.269Y-6.4995
X9.33Y-9.1375
X9.34Y-1.515
X9.392Y-6.4045
X9.3925Y-5.0435
X9.3925Y-5.495
X9.3925Y-5.9475
X9.394Y-3.683
X9.395Y-4.588
X9.3975Y-4.135
X9.433Y-6.7395
X9.47Y-6.5
X9.57Y-3.745
X9.57Y-4.1996
X9.57Y-4.6542
X9.57Y-5.1087
X9.57Y-5.5633
X9.57Y-6.0179
X9.57Y-6.4725
X9.63Y-8.84
X9.6375Y-1.815
X9.6525Y-7.6425
T2
X8.7325Y-7.4
X8.8325Y-7.4
X8.9325Y-7.4
T3
X8.3675Y-8.0485
X8.4675Y-8.0485
X8.562Y-8.9425
X8.662Y-8.9425
X8.762Y-8.9425
X8.7715Y-8.0465
X8.8715Y-8.0465
X9.062Y-8.9425
X9.162Y-8.9425
X9.1895Y-1.8475
X9.1895Y-2.2552
X9.1895Y-2.6628
X9.1895Y-3.0705
X9.262Y-8.9425
X9.2895Y-1.8475
X9.2895Y-2.2552
X9.2895Y-2.6628
X9.2895Y-3.0705
X9.3355Y-6.8272
X9.3355Y-7.1265
X9.338Y-7.424
X9.338Y-7.724
X9.338Y-8.049
X9.338Y-8.374
X9.3895Y-1.8475
X9.3895Y-2.2552
X9.3895Y-2.6628
X9.3895Y-3.0705
X9.4355Y-6.8272
X9.4355Y-7.1265
X9.438Y-7.424
X9.438Y-7.724
X9.438Y-8.049
X9.438Y-8.374
T4
X5.63Y-4.6225
X5.63Y-4.7225
X5.63Y-6.3225
X5.63Y-6.4225
X5.73Y-4.6225
X5.73Y-4.7225
X5.73Y-6.3225
X5.73Y-6.4225
X5.83Y-4.6225
X5.83Y-4.7225
X5.83Y-6.3225
X5.83Y-6.4225
X5.93Y-4.6225
X5.93Y-4.7225
X5.93Y-6.3225
X5.93Y-6.4225
X6.03Y-4.6225
X6.03Y-4.7225
X6.03Y-6.3225
X6.03Y-6.4225
X6.13Y-4.6225
X6.13Y-4.7225
X6.13Y-6.3225
X6.13Y-6.4225
X6.23Y-4.6225
X6.23Y-4.7225
X6.23Y-6.3225
X6.23Y-6.4225
X6.33Y-4.6225
X6.33Y-4.7225
X6.33Y-6.3225
X6.33Y-6.4225
X6.43Y-4.6225
X6.43Y-4.7225
X6.43Y-6.3225
X6.43Y-6.4225
X6.53Y-4.6225
X6.53Y-4.7225
X6.53Y-6.3225
X6.53Y-6.4225
X8.13Y-4.6225
X8.13Y-4.7225
X8.13Y-6.3225
X8.13Y-6.4225
X8.23Y-4.6225
X8.23Y-4.7225
X8.23Y-6.3225
X8.23Y-6.4225
X8.33Y-4.6225
X8.33Y-4.7225
X8.33Y-6.3225
X8.33Y-6.4225
X8.43Y-4.6225
X8.43Y-4.7225
X8.43Y-6.3225
X8.43Y-6.4225
X8.53Y-4.6225
X8.53Y-4.7225
X8.53Y-6.3225
X8.53Y-6.4225
X8.63Y-4.6225
X8.63Y-4.7225
X8.63Y-6.3225
X8.63Y-6.4225
X8.73Y-4.6225
X8.73Y-4.7225
X8.73Y-6.3225
X8.73Y-6.4225
X8.83Y-4.6225
X8.83Y-4.7225
X8.83Y-6.3225
X8.83Y-6.4225
X8.93Y-4.6225
X8.93Y-4.7225
X8.93Y-6.3225
X8.93Y-6.4225
X9.03Y-4.6225
X9.03Y-4.7225
X9.03Y-6.3225
X9.03Y-6.4225
T5
G00X4.5513Y-8.6866
M15
G01X4.634Y-8.6866
M16
G05
G00X4.8613Y-8.6866
M15
G01X4.944Y-8.6866
M16
G05
G00X5.3867Y-1.9553
M15
G01X5.304Y-1.9553
M16
G05
G00X5.4898Y-8.6866
M15
G01X5.5725Y-8.6866
M16
G05
G00X5.6967Y-1.9553
M15
G01X5.614Y-1.9553
M16
G05
G00X5.7998Y-8.6866
M15
G01X5.8825Y-8.6866
M16
G05
G00X6.2487Y-1.9553
M15
G01X6.166Y-1.9553
M16
G05
G00X6.4278Y-8.6857
M15
G01X6.5105Y-8.6857
M16
G05
G00X6.5587Y-1.9553
M15
G01X6.476Y-1.9553
M16
G05
G00X6.7378Y-8.6857
M15
G01X6.8205Y-8.6857
M16
G05
G00X7.3821Y-8.6866
M15
G01X7.4648Y-8.6866
M16
G05
G00X7.5547Y-1.9553
M15
G01X7.472Y-1.9553
M16
G05
G00X7.6921Y-8.6866
M15
G01X7.7748Y-8.6866
M16
G05
G00X7.8647Y-1.9553
M15
G01X7.782Y-1.9553
M16
G05
G00X8.0021Y-8.6866
M15
G01X8.0848Y-8.6866
M16
G05
G00X8.4092Y-1.9553
M15
G01X8.3265Y-1.9553
M16
G05
G00X8.7192Y-1.9553
M15
G01X8.6365Y-1.9553
M16
G05
T0
M30
