M48
; DRILL file {KiCad 7.0.7} date Fri Apr 12 20:37:30 2024
; FORMAT={-:-/ absolute / metric / decimal}
; #@! TF.CreationDate,2024-04-12T20:37:30-05:00
; #@! TF.GenerationSoftware,Kicad,Pcbnew,7.0.7
; #@! TF.FileFunction,Plated,1,2,PTH
FMAT,2
METRIC
; #@! TA.AperFunction,Plated,PTH,ViaDrill
T1C0.400
; #@! TA.AperFunction,Plated,PTH,ComponentDrill
T2C0.700
; #@! TA.AperFunction,Plated,PTH,ComponentDrill
T3C0.800
; #@! TA.AperFunction,Plated,PTH,ComponentDrill
T4C0.889
; #@! TA.AperFunction,Plated,PTH,ComponentDrill
T5C0.900
; #@! TA.AperFunction,Plated,PTH,ComponentDrill
T6C1.000
; #@! TA.AperFunction,Plated,PTH,ComponentDrill
T7C1.020
; #@! TA.AperFunction,Plated,PTH,ComponentDrill
T8C1.500
; #@! TA.AperFunction,Plated,PTH,ComponentDrill
T9C1.600
; #@! TA.AperFunction,Plated,PTH,ComponentDrill
T10C2.000
; #@! TA.AperFunction,Plated,PTH,ComponentDrill
T11C3.250
%
G90
G05
T1
X36.068Y-74.799
X36.068Y-94.611
X36.068Y-114.423
X36.068Y-134.235
X36.068Y-154.047
X36.091Y-54.987
X36.449Y-82.931
X36.449Y-102.743
X36.449Y-122.555
X36.449Y-142.367
X36.449Y-162.179
X36.472Y-63.119
X41.656Y-81.153
X41.656Y-83.185
X41.656Y-100.965
X41.656Y-102.997
X41.656Y-120.777
X41.656Y-122.809
X41.656Y-140.589
X41.656Y-142.621
X41.656Y-160.401
X41.656Y-162.433
X41.679Y-61.341
X41.679Y-63.373
X42.418Y-75.184
X42.418Y-89.154
X42.418Y-94.996
X42.418Y-108.966
X42.418Y-114.808
X42.418Y-128.778
X42.418Y-134.62
X42.418Y-148.59
X42.418Y-154.432
X42.418Y-168.402
X42.441Y-55.372
X42.441Y-69.342
X43.561Y-75.184
X43.561Y-76.454
X43.561Y-78.994
X43.561Y-81.153
X43.561Y-83.185
X43.561Y-85.344
X43.561Y-87.884
X43.561Y-89.154
X43.561Y-94.996
X43.561Y-96.266
X43.561Y-98.806
X43.561Y-100.965
X43.561Y-102.997
X43.561Y-105.156
X43.561Y-107.696
X43.561Y-108.966
X43.561Y-114.808
X43.561Y-116.078
X43.561Y-118.618
X43.561Y-120.777
X43.561Y-122.809
X43.561Y-124.968
X43.561Y-127.508
X43.561Y-128.778
X43.561Y-134.62
X43.561Y-135.89
X43.561Y-138.43
X43.561Y-140.589
X43.561Y-142.621
X43.561Y-144.78
X43.561Y-147.32
X43.561Y-148.59
X43.561Y-154.432
X43.561Y-155.702
X43.561Y-158.242
X43.561Y-160.401
X43.561Y-162.433
X43.561Y-164.592
X43.561Y-167.132
X43.561Y-168.402
X43.584Y-55.372
X43.584Y-56.642
X43.584Y-59.182
X43.584Y-61.341
X43.584Y-63.373
X43.584Y-65.532
X43.584Y-68.072
X43.584Y-69.342
X44.704Y-74.93
X44.704Y-89.408
X44.704Y-94.742
X44.704Y-109.22
X44.704Y-114.554
X44.704Y-129.032
X44.704Y-134.366
X44.704Y-148.844
X44.704Y-154.178
X44.704Y-168.656
X44.727Y-55.118
X44.727Y-69.596
X46.228Y-74.93
X46.228Y-76.454
X46.228Y-87.884
X46.228Y-89.408
X46.228Y-94.742
X46.228Y-96.266
X46.228Y-107.696
X46.228Y-109.22
X46.228Y-114.554
X46.228Y-116.078
X46.228Y-127.508
X46.228Y-129.032
X46.228Y-134.366
X46.228Y-135.89
X46.228Y-147.32
X46.228Y-148.844
X46.228Y-154.178
X46.228Y-155.702
X46.228Y-167.132
X46.228Y-168.656
X46.252Y-55.118
X46.252Y-56.642
X46.252Y-68.072
X46.252Y-69.596
X47.117Y-78.486
X47.117Y-79.502
X47.117Y-84.836
X47.117Y-85.852
X47.117Y-98.298
X47.117Y-99.314
X47.117Y-104.648
X47.117Y-105.664
X47.117Y-118.11
X47.117Y-119.126
X47.117Y-124.46
X47.117Y-125.476
X47.117Y-137.922
X47.117Y-138.938
X47.117Y-144.272
X47.117Y-145.288
X47.117Y-157.734
X47.117Y-158.75
X47.117Y-164.084
X47.117Y-165.1
X47.14Y-58.674
X47.14Y-59.69
X47.14Y-65.024
X47.14Y-66.04
X47.752Y-74.93
X47.752Y-76.454
X47.752Y-81.534
X47.752Y-82.804
X47.752Y-87.884
X47.752Y-89.408
X47.752Y-94.742
X47.752Y-96.266
X47.752Y-101.346
X47.752Y-102.616
X47.752Y-107.696
X47.752Y-109.22
X47.752Y-114.554
X47.752Y-116.078
X47.752Y-121.158
X47.752Y-122.428
X47.752Y-127.508
X47.752Y-129.032
X47.752Y-134.366
X47.752Y-135.89
X47.752Y-140.97
X47.752Y-142.24
X47.752Y-147.32
X47.752Y-148.844
X47.752Y-154.178
X47.752Y-155.702
X47.752Y-160.782
X47.752Y-162.052
X47.752Y-167.132
X47.752Y-168.656
X47.776Y-55.118
X47.776Y-56.642
X47.776Y-61.722
X47.776Y-62.992
X47.776Y-68.072
X47.776Y-69.596
X48.387Y-78.486
X48.387Y-79.502
X48.387Y-84.836
X48.387Y-85.852
X48.387Y-98.298
X48.387Y-99.314
X48.387Y-104.648
X48.387Y-105.664
X48.387Y-118.11
X48.387Y-119.126
X48.387Y-124.46
X48.387Y-125.476
X48.387Y-137.922
X48.387Y-138.938
X48.387Y-144.272
X48.387Y-145.288
X48.387Y-157.734
X48.387Y-158.75
X48.387Y-164.084
X48.387Y-165.1
X48.41Y-58.674
X48.41Y-59.69
X48.41Y-65.024
X48.41Y-66.04
X49.276Y-74.93
X49.276Y-76.454
X49.276Y-87.884
X49.276Y-89.408
X49.276Y-94.742
X49.276Y-96.266
X49.276Y-107.696
X49.276Y-109.22
X49.276Y-114.554
X49.276Y-116.078
X49.276Y-127.508
X49.276Y-129.032
X49.276Y-134.366
X49.276Y-135.89
X49.276Y-147.32
X49.276Y-148.844
X49.276Y-154.178
X49.276Y-155.702
X49.276Y-167.132
X49.276Y-168.656
X49.299Y-55.118
X49.299Y-56.642
X49.299Y-68.072
X49.299Y-69.596
X50.8Y-74.93
X50.8Y-89.408
X50.8Y-94.742
X50.8Y-109.22
X50.8Y-114.554
X50.8Y-129.032
X50.8Y-134.366
X50.8Y-148.844
X50.8Y-154.178
X50.8Y-168.656
X50.823Y-55.118
X50.823Y-69.596
X52.07Y-75.565
X52.07Y-89.027
X52.07Y-95.377
X52.07Y-108.839
X52.07Y-115.189
X52.07Y-128.651
X52.07Y-135.001
X52.07Y-148.463
X52.07Y-154.813
X52.07Y-168.275
X52.093Y-55.753
X52.093Y-69.215
X52.324Y-82.804
X52.324Y-102.616
X52.324Y-122.428
X52.324Y-142.24
X52.324Y-162.052
X52.347Y-62.992
X53.34Y-77.47
X53.34Y-97.282
X53.34Y-117.094
X53.34Y-136.906
X53.34Y-156.718
X53.363Y-57.658
X53.467Y-87.122
X53.467Y-106.934
X53.467Y-126.746
X53.467Y-146.558
X53.467Y-166.37
X53.49Y-67.31
X54.229Y-80.899
X54.229Y-82.804
X54.229Y-84.709
X54.229Y-100.711
X54.229Y-102.616
X54.229Y-104.521
X54.229Y-120.523
X54.229Y-122.428
X54.229Y-124.333
X54.229Y-140.335
X54.229Y-142.24
X54.229Y-144.145
X54.229Y-160.147
X54.229Y-162.052
X54.229Y-163.957
X54.252Y-61.087
X54.252Y-62.992
X54.252Y-64.897
X54.737Y-75.565
X54.737Y-89.027
X54.737Y-95.377
X54.737Y-108.839
X54.737Y-115.189
X54.737Y-128.651
X54.737Y-135.001
X54.737Y-148.463
X54.737Y-154.813
X54.737Y-168.275
X54.761Y-55.753
X54.761Y-69.215
X56.769Y-172.339
X56.769Y-177.419
X59.563Y-60.96
X59.69Y-80.772
X59.69Y-100.584
X59.69Y-120.396
X59.69Y-140.208
X59.69Y-160.02
X59.69Y-169.672
X60.96Y-128.524
X61.849Y-172.339
X61.849Y-177.419
X61.976Y-73.787
X61.976Y-77.597
X62.992Y-128.524
X62.992Y-149.606
X63.373Y-77.597
X63.373Y-80.772
X63.754Y-83.185
X63.754Y-86.233
X64.135Y-167.005
X65.151Y-44.704
X65.151Y-46.228
X65.151Y-47.752
X65.151Y-49.276
X65.151Y-50.8
X65.151Y-93.345
X65.405Y-42.418
X65.405Y-43.561
X65.532Y-52.07
X65.532Y-54.737
X65.913Y-77.597
X66.167Y-102.362
X66.294Y-83.185
X66.294Y-86.233
X66.675Y-43.561
X66.675Y-46.228
X66.675Y-47.752
X66.675Y-49.276
X66.929Y-172.339
X66.929Y-177.419
X67.437Y-53.467
X68.072Y-66.675
X68.072Y-77.597
X68.707Y-47.117
X68.707Y-48.387
X68.834Y-80.137
X68.834Y-83.185
X68.834Y-86.233
X68.834Y-89.281
X68.961Y-74.422
X69.215Y-43.561
X69.342Y-183.134
X69.723Y-47.117
X69.723Y-48.387
X69.85Y-54.229
X69.977Y-107.696
X70.866Y-111.506
X70.993Y-74.422
X71.374Y-41.656
X71.374Y-43.561
X71.628Y-36.449
X71.755Y-47.752
X71.755Y-52.324
X71.755Y-54.229
X71.882Y-78.486
X71.882Y-94.107
X72.009Y-64.516
X72.009Y-172.212
X72.009Y-177.419
X72.517Y-107.823
X72.517Y-190.881
X72.898Y-72.263
X72.898Y-77.597
X73.025Y-47.752
X73.406Y-41.656
X73.406Y-43.561
X73.66Y-54.229
X73.787Y-107.569
X73.787Y-155.956
X73.787Y-159.131
X73.787Y-164.465
X73.787Y-171.831
X74.168Y-94.361
X74.168Y-96.012
X74.422Y-73.66
X75.057Y-47.117
X75.057Y-48.387
X75.057Y-104.648
X75.565Y-43.561
X75.692Y-175.006
X75.692Y-180.086
X76.073Y-47.117
X76.073Y-48.387
X76.073Y-102.362
X76.454Y-109.855
X76.454Y-113.919
X76.454Y-123.571
X76.454Y-139.319
X76.708Y-75.946
X76.898Y-77.66
X77.089Y-53.34
X77.724Y-159.385
X78.105Y-43.561
X78.105Y-46.228
X78.105Y-47.752
X78.105Y-49.276
X78.486Y-160.401
X78.486Y-171.069
X78.994Y-52.07
X78.994Y-54.737
X78.994Y-115.316
X78.994Y-118.364
X78.994Y-120.904
X78.994Y-123.444
X79.248Y-165.1
X79.375Y-42.418
X79.375Y-43.561
X79.502Y-63.627
X79.629Y-44.704
X79.629Y-46.228
X79.629Y-47.752
X79.629Y-49.276
X79.629Y-50.8
X79.76Y-36.068
X80.01Y-75.946
X80.137Y-158.623
X80.137Y-159.766
X80.772Y-175.006
X81.407Y-65.786
X81.407Y-67.056
X81.534Y-118.364
X81.534Y-123.444
X81.661Y-156.718
X81.661Y-160.782
X81.661Y-165.1
X83.82Y-67.056
X84.074Y-73.787
X84.074Y-120.904
X84.074Y-123.444
X84.582Y-65.278
X84.582Y-82.296
X84.963Y-44.704
X84.963Y-46.228
X84.963Y-47.752
X84.963Y-49.276
X84.963Y-50.8
X85.217Y-42.418
X85.217Y-43.561
X85.344Y-52.07
X85.344Y-54.737
X85.471Y-59.817
X85.471Y-61.595
X85.852Y-175.006
X86.36Y-180.086
X86.487Y-43.561
X86.487Y-46.228
X86.487Y-47.752
X86.487Y-49.276
X86.614Y-123.444
X86.741Y-156.718
X86.741Y-160.782
X86.741Y-165.1
X86.868Y-72.898
X87.249Y-53.467
X88.265Y-192.278
X88.392Y-82.296
X88.519Y-47.117
X88.519Y-48.387
X88.646Y-64.262
X88.646Y-124.587
X89.027Y-43.561
X89.408Y-65.278
X89.535Y-47.117
X89.535Y-48.387
X89.535Y-125.476
X89.662Y-54.229
X90.424Y-126.365
X90.424Y-127.635
X90.424Y-128.778
X90.932Y-175.006
X90.932Y-183.134
X91.186Y-41.656
X91.186Y-43.561
X91.44Y-36.449
X91.567Y-47.752
X91.567Y-52.324
X91.567Y-54.229
X91.821Y-156.718
X91.821Y-160.782
X91.821Y-165.1
X91.948Y-60.96
X92.075Y-133.985
X92.583Y-130.937
X92.71Y-189.611
X92.837Y-47.752
X93.218Y-41.656
X93.218Y-43.561
X93.472Y-54.229
X93.98Y-170.18
X94.361Y-158.115
X94.361Y-159.766
X94.742Y-82.296
X94.742Y-108.458
X94.869Y-47.117
X94.869Y-48.387
X94.996Y-162.052
X95.377Y-43.561
X95.885Y-47.117
X95.885Y-48.387
X96.012Y-175.006
X96.647Y-74.041
X96.901Y-53.34
X96.901Y-165.1
X97.917Y-43.561
X97.917Y-46.228
X97.917Y-47.752
X97.917Y-49.276
X97.917Y-75.057
X97.917Y-155.448
X97.917Y-160.528
X98.679Y-65.278
X98.806Y-52.07
X98.806Y-54.737
X99.187Y-42.418
X99.187Y-43.561
X99.441Y-44.704
X99.441Y-46.228
X99.441Y-47.752
X99.441Y-49.276
X99.441Y-50.8
X99.572Y-36.068
X99.822Y-74.422
X99.949Y-168.021
X100.203Y-170.688
X100.965Y-169.164
X101.092Y-109.474
X101.092Y-114.554
X101.092Y-119.634
X101.092Y-124.714
X102.668Y-169.07
X103.411Y-168.327
X104.267Y-167.767
X104.775Y-44.718
X104.775Y-46.242
X104.775Y-47.766
X104.775Y-49.29
X104.775Y-50.814
X105.029Y-42.432
X105.029Y-43.575
X105.156Y-52.084
X105.156Y-54.751
X106.172Y-84.074
X106.172Y-89.154
X106.172Y-94.234
X106.172Y-99.314
X106.172Y-104.394
X106.172Y-109.474
X106.172Y-114.554
X106.172Y-119.634
X106.172Y-124.714
X106.172Y-129.794
X106.299Y-43.575
X106.299Y-46.242
X106.299Y-47.766
X106.299Y-49.29
X107.061Y-53.481
X107.442Y-175.641
X107.823Y-165.1
X108.331Y-47.131
X108.331Y-48.401
X108.458Y-179.197
X108.839Y-43.575
X109.347Y-47.131
X109.347Y-48.401
X109.474Y-54.243
X110.236Y-156.972
X110.49Y-73.533
X110.998Y-41.67
X110.998Y-43.575
X111.252Y-36.463
X111.252Y-78.994
X111.252Y-84.074
X111.252Y-89.154
X111.379Y-47.766
X111.379Y-52.338
X111.379Y-54.243
X111.506Y-68.326
X111.506Y-71.374
X111.76Y-155.575
X112.649Y-47.766
X112.776Y-71.374
X113.03Y-41.67
X113.03Y-43.575
X113.284Y-54.243
X113.284Y-162.984
X114.681Y-47.131
X114.681Y-48.401
X115.189Y-43.575
X115.316Y-73.533
X115.697Y-47.131
X115.697Y-48.401
X116.248Y-162.984
X116.332Y-78.994
X116.332Y-84.074
X116.332Y-89.154
X116.332Y-94.234
X116.713Y-53.354
X116.84Y-155.575
X116.84Y-160.655
X117.348Y-71.374
X117.729Y-43.575
X117.729Y-46.242
X117.729Y-47.766
X117.729Y-49.29
X118.618Y-52.084
X118.618Y-54.751
X118.999Y-42.432
X118.999Y-43.575
X119.253Y-44.718
X119.253Y-46.242
X119.253Y-47.766
X119.253Y-49.29
X119.253Y-50.814
X119.384Y-36.082
X121.412Y-78.994
X121.412Y-84.074
X121.412Y-89.154
X121.412Y-94.234
X121.412Y-99.314
X121.92Y-155.575
X121.92Y-160.655
X125.095Y-177.165
X125.095Y-179.197
X125.095Y-181.229
X126.492Y-78.994
X126.492Y-84.074
X126.492Y-89.154
X126.492Y-94.234
X126.492Y-99.314
X126.873Y-121.285
X126.873Y-124.714
X127.0Y-155.575
X127.0Y-160.655
X128.143Y-113.919
X130.81Y-177.165
X130.81Y-179.197
X130.81Y-181.229
X131.38Y-111.032
X131.572Y-78.994
X131.572Y-84.074
X131.572Y-89.154
X131.572Y-94.234
X131.572Y-99.314
X132.08Y-155.575
X132.08Y-184.15
X132.935Y-118.652
X132.969Y-176.022
X133.858Y-164.084
X134.62Y-120.015
X135.636Y-166.921
X135.636Y-180.383
X136.652Y-78.994
X136.652Y-84.074
X136.652Y-89.154
X136.652Y-94.234
X136.652Y-99.314
X136.906Y-117.729
X136.906Y-168.826
X137.033Y-178.478
X137.16Y-184.15
X138.303Y-166.921
X138.303Y-180.383
X139.573Y-166.54
X139.573Y-181.018
X140.589Y-124.714
X141.097Y-166.54
X141.097Y-168.064
X141.097Y-179.494
X141.224Y-112.903
X141.224Y-114.207
X141.224Y-115.477
X141.224Y-116.747
X141.224Y-118.017
X141.986Y-120.557
X141.986Y-170.096
X141.986Y-171.112
X141.986Y-176.446
X141.986Y-177.462
X142.24Y-184.15
X142.367Y-126.492
X142.621Y-166.54
X142.621Y-168.064
X142.621Y-179.494
X142.621Y-181.018
X143.129Y-125.476
X143.256Y-170.096
X143.256Y-171.112
X143.256Y-176.446
X143.256Y-177.462
X144.145Y-166.54
X144.145Y-168.064
X144.145Y-179.494
X145.161Y-125.095
X145.669Y-166.54
X145.669Y-181.018
X146.812Y-166.794
X146.812Y-168.064
X146.812Y-170.604
X146.812Y-176.954
X146.812Y-179.494
X146.812Y-180.764
X146.939Y-114.681
X147.32Y-184.15
X147.955Y-166.794
X147.955Y-180.764
X149.225Y-110.236
X150.114Y-125.095
X150.368Y-76.137
X150.368Y-82.497
X150.368Y-101.597
X150.495Y-88.827
X150.495Y-95.217
X150.495Y-116.713
X150.495Y-118.017
X150.495Y-119.287
X150.495Y-120.523
X152.4Y-184.15
X152.908Y-123.063
X153.543Y-118.618
X153.924Y-173.017
X154.305Y-181.149
X154.94Y-125.095
X156.21Y-123.825
X156.972Y-118.364
X158.081Y-120.557
X158.623Y-123.19
X161.417Y-109.22
X162.433Y-109.855
X163.449Y-110.49
X164.973Y-73.072
X164.973Y-79.512
X164.973Y-85.882
X164.973Y-92.212
X164.973Y-98.592
X164.973Y-104.912
X169.164Y-119.253
X169.164Y-123.19
X169.227Y-136.081
X169.672Y-94.107
X169.672Y-100.33
X169.672Y-106.68
X169.799Y-74.93
X169.926Y-81.407
X169.926Y-87.63
T2
X98.97Y-137.43
X98.97Y-139.43
X100.97Y-137.43
X100.97Y-139.43
X102.97Y-137.43
X102.97Y-139.43
T3
X29.083Y-131.572
X30.051Y-91.948
X30.051Y-111.887
X32.551Y-91.948
X32.551Y-111.887
X32.583Y-131.572
X96.52Y-93.98
X96.52Y-96.52
X96.52Y-99.06
X96.52Y-101.6
X96.52Y-104.14
X96.52Y-106.68
X96.52Y-109.22
X96.52Y-111.76
X96.52Y-114.3
X96.52Y-116.84
X96.52Y-119.38
X96.52Y-121.92
X96.52Y-124.46
X96.52Y-127.0
X96.52Y-129.54
X96.52Y-132.08
X96.52Y-134.62
X96.52Y-137.16
X96.52Y-139.7
X96.52Y-142.24
X96.52Y-144.78
X96.52Y-147.32
X96.52Y-149.86
X96.52Y-152.4
X111.76Y-93.98
X111.76Y-96.52
X111.76Y-99.06
X111.76Y-101.6
X111.76Y-104.14
X111.76Y-106.68
X111.76Y-109.22
X111.76Y-111.76
X111.76Y-114.3
X111.76Y-116.84
X111.76Y-119.38
X111.76Y-121.92
X111.76Y-124.46
X111.76Y-127.0
X111.76Y-129.54
X111.76Y-132.08
X111.76Y-134.62
X111.76Y-137.16
X111.76Y-139.7
X111.76Y-142.24
X111.76Y-144.78
X111.76Y-147.32
X111.76Y-149.86
X111.76Y-152.4
X154.083Y-132.08
X156.083Y-132.08
X158.083Y-132.08
T4
X67.945Y-185.827
X67.945Y-188.367
X67.945Y-190.907
X88.265Y-185.827
X88.265Y-188.367
X88.265Y-190.907
T5
X99.924Y-177.05
X101.194Y-174.51
X102.464Y-177.05
X103.734Y-174.51
X105.004Y-177.05
X106.274Y-174.51
X107.544Y-177.05
X108.814Y-174.51
X128.143Y-58.547
X128.27Y-52.197
X129.54Y-30.48
X129.54Y-33.02
X130.683Y-58.547
X130.81Y-52.197
X135.509Y-30.607
X135.509Y-33.147
X136.906Y-58.547
X137.033Y-52.197
X138.303Y-133.35
X138.303Y-140.97
X138.303Y-148.59
X138.303Y-156.21
X139.446Y-58.547
X139.573Y-52.197
X140.843Y-133.35
X140.843Y-140.97
X140.843Y-148.59
X140.843Y-156.21
X143.383Y-133.35
X143.383Y-140.97
X143.383Y-148.59
X143.383Y-156.21
X145.669Y-58.547
X145.796Y-52.197
X145.923Y-133.35
X145.923Y-133.35
X145.923Y-140.97
X145.923Y-140.97
X145.923Y-148.59
X145.923Y-148.59
X145.923Y-156.21
X145.923Y-156.21
X148.209Y-58.547
X148.336Y-52.197
X152.273Y-140.97
X152.273Y-148.59
X152.273Y-156.21
X154.432Y-58.547
X154.559Y-52.197
X154.813Y-140.97
X154.813Y-148.59
X154.813Y-156.21
X156.972Y-58.547
X157.099Y-52.197
X157.353Y-140.97
X157.353Y-148.59
X157.353Y-156.21
X159.893Y-140.97
X159.893Y-140.97
X159.893Y-148.59
X159.893Y-148.59
X159.893Y-156.21
X159.893Y-156.21
X163.195Y-58.547
X163.322Y-52.197
X165.735Y-58.547
X165.862Y-52.197
T6
X27.975Y-151.511
X32.975Y-151.511
T7
X98.044Y-188.48
X100.584Y-186.69
X108.154Y-188.48
X110.694Y-186.69
T8
X151.983Y-132.08
X160.183Y-132.08
T9
X96.494Y-180.35
X112.244Y-180.35
T11
X98.654Y-183.4
X110.084Y-183.4
T10
X36.669Y-176.214G85X38.769Y-176.214
G05
X39.559Y-37.558G85X39.559Y-39.658
G05
X39.559Y-45.432G85X39.559Y-47.532
G05
X39.559Y-57.37G85X39.559Y-59.47
G05
X39.559Y-65.244G85X39.559Y-67.344
G05
X39.559Y-77.182G85X39.559Y-79.282
G05
X39.559Y-85.056G85X39.559Y-87.156
G05
X39.559Y-96.994G85X39.559Y-99.094
G05
X39.559Y-104.868G85X39.559Y-106.968
G05
X39.559Y-116.806G85X39.559Y-118.906
G05
X39.559Y-124.68G85X39.559Y-126.78
G05
X39.559Y-136.618G85X39.559Y-138.718
G05
X39.559Y-144.492G85X39.559Y-146.592
G05
X39.559Y-156.473G85X39.559Y-158.573
G05
X39.559Y-164.347G85X39.559Y-166.447
G05
X44.543Y-176.214G85X46.643Y-176.214
G05
X69.46Y-39.559G85X67.36Y-39.559
G05
X77.334Y-39.559G85X75.234Y-39.559
G05
X89.272Y-39.559G85X87.172Y-39.559
G05
X97.146Y-39.559G85X95.046Y-39.559
G05
X109.084Y-39.559G85X106.984Y-39.559
G05
X116.958Y-39.559G85X114.858Y-39.559
G05
X150.814Y-170.849G85X150.814Y-168.749
G05
X150.814Y-178.723G85X150.814Y-176.623
G05
T0
M30
