%TF.GenerationSoftware,KiCad,Pcbnew,(5.1.12-1-g0a0a2da680)-1*%
%TF.CreationDate,2021-12-04T04:45:38-06:00*%
%TF.ProjectId,ArmBoard_Hardware,41726d42-6f61-4726-945f-486172647761,rev?*%
%TF.SameCoordinates,Original*%
%TF.FileFunction,Paste,Bot*%
%TF.FilePolarity,Positive*%
%FSLAX46Y46*%
G04 Gerber Fmt 4.6, Leading zero omitted, Abs format (unit mm)*
G04 Created by KiCad (PCBNEW (5.1.12-1-g0a0a2da680)-1) date 2021-12-04 04:45:38*
%MOMM*%
%LPD*%
G01*
G04 APERTURE LIST*
%ADD10R,0.990600X1.778000*%
%ADD11C,5.080000*%
G04 APERTURE END LIST*
D10*
%TO.C,U1*%
X164719000Y-82130900D03*
X167259000Y-82130900D03*
X169799000Y-82130900D03*
X172339000Y-82130900D03*
X174879000Y-82130900D03*
X177419000Y-82130900D03*
X179959000Y-82130900D03*
X182499000Y-82130900D03*
X185039000Y-82130900D03*
X187579000Y-82130900D03*
X164719000Y-76238100D03*
X167259000Y-76238100D03*
X169799000Y-76238100D03*
X172339000Y-76238100D03*
X174879000Y-76238100D03*
X177419000Y-76238100D03*
X179959000Y-76238100D03*
X182499000Y-76238100D03*
X185039000Y-76238100D03*
X187579000Y-76238100D03*
X164719000Y-33058100D03*
X167259000Y-33058100D03*
X169799000Y-33058100D03*
X172339000Y-33058100D03*
X174879000Y-33058100D03*
X177419000Y-33058100D03*
X179959000Y-33058100D03*
X182499000Y-33058100D03*
X185039000Y-33058100D03*
X187579000Y-33058100D03*
X164719000Y-38950900D03*
X167259000Y-38950900D03*
X169799000Y-38950900D03*
X172339000Y-38950900D03*
X174879000Y-38950900D03*
X177419000Y-38950900D03*
X179959000Y-38950900D03*
X182499000Y-38950900D03*
X185039000Y-38950900D03*
X187579000Y-38950900D03*
X118999000Y-82130900D03*
X121539000Y-82130900D03*
X124079000Y-82130900D03*
X101219000Y-76238100D03*
X103759000Y-76238100D03*
X106299000Y-76238100D03*
X108839000Y-76238100D03*
X111379000Y-76238100D03*
X113919000Y-76238100D03*
X116459000Y-76238100D03*
X118999000Y-76238100D03*
X121539000Y-76238100D03*
X124079000Y-76238100D03*
X101219000Y-33058100D03*
X106299000Y-33058100D03*
X111379000Y-33058100D03*
X113919000Y-33058100D03*
X116459000Y-33058100D03*
X118999000Y-33058100D03*
X121539000Y-33058100D03*
X101219000Y-38950900D03*
X106299000Y-38950900D03*
X116459000Y-38950900D03*
X118999000Y-38950900D03*
X121539000Y-38950900D03*
X124079000Y-38950900D03*
X111379000Y-38950900D03*
X108839000Y-38950900D03*
X103759000Y-33058100D03*
X116459000Y-82130900D03*
X113919000Y-82130900D03*
X103759000Y-38950900D03*
X108839000Y-33058100D03*
X106299000Y-82130900D03*
X108839000Y-82130900D03*
X113919000Y-38950900D03*
X111379000Y-82130900D03*
X103759000Y-82130900D03*
X101219000Y-82130900D03*
X124079000Y-33058100D03*
%TD*%
D11*
%TO.C,Conn5*%
X181631165Y-114909600D03*
X189505165Y-114909600D03*
%TD*%
%TO.C,Conn6*%
X201739500Y-114909600D03*
X209613500Y-114909600D03*
%TD*%
%TO.C,Conn3*%
X109071833Y-114909600D03*
X101197833Y-114909600D03*
%TD*%
%TO.C,Conn2*%
X88963500Y-114909600D03*
X81089500Y-114909600D03*
%TD*%
%TO.C,Conn4*%
X129180166Y-114909600D03*
X121306166Y-114909600D03*
%TD*%
%TO.C,Conn7*%
X161522832Y-114909600D03*
X169396832Y-114909600D03*
%TD*%
%TO.C,Conn8*%
X149288499Y-114909600D03*
X141414499Y-114909600D03*
%TD*%
M02*
