G04 #@! TF.GenerationSoftware,KiCad,Pcbnew,(6.0.7)*
G04 #@! TF.CreationDate,2023-03-20T21:56:32-05:00*
G04 #@! TF.ProjectId,Armboard_Hardware,41726d62-6f61-4726-945f-486172647761,rev?*
G04 #@! TF.SameCoordinates,Original*
G04 #@! TF.FileFunction,Legend,Bot*
G04 #@! TF.FilePolarity,Positive*
%FSLAX46Y46*%
G04 Gerber Fmt 4.6, Leading zero omitted, Abs format (unit mm)*
G04 Created by KiCad (PCBNEW (6.0.7)) date 2023-03-20 21:56:32*
%MOMM*%
%LPD*%
G01*
G04 APERTURE LIST*
G04 Aperture macros list*
%AMRoundRect*
0 Rectangle with rounded corners*
0 $1 Rounding radius*
0 $2 $3 $4 $5 $6 $7 $8 $9 X,Y pos of 4 corners*
0 Add a 4 corners polygon primitive as box body*
4,1,4,$2,$3,$4,$5,$6,$7,$8,$9,$2,$3,0*
0 Add four circle primitives for the rounded corners*
1,1,$1+$1,$2,$3*
1,1,$1+$1,$4,$5*
1,1,$1+$1,$6,$7*
1,1,$1+$1,$8,$9*
0 Add four rect primitives between the rounded corners*
20,1,$1+$1,$2,$3,$4,$5,0*
20,1,$1+$1,$4,$5,$6,$7,0*
20,1,$1+$1,$6,$7,$8,$9,0*
20,1,$1+$1,$8,$9,$2,$3,0*%
G04 Aperture macros list end*
%ADD10C,0.150000*%
%ADD11C,2.946400*%
%ADD12R,1.600000X1.600000*%
%ADD13C,1.600000*%
%ADD14RoundRect,0.250000X0.620000X0.620000X-0.620000X0.620000X-0.620000X-0.620000X0.620000X-0.620000X0*%
%ADD15C,1.740000*%
%ADD16C,1.524000*%
%ADD17O,2.200000X3.500000*%
%ADD18R,1.500000X2.500000*%
%ADD19O,1.500000X2.500000*%
%ADD20C,1.308000*%
%ADD21C,1.208000*%
%ADD22C,1.100000*%
%ADD23C,1.400000*%
%ADD24C,4.000000*%
%ADD25C,2.000000*%
%ADD26O,5.100000X3.000000*%
G04 APERTURE END LIST*
D10*
X252556142Y-264817424D02*
X252603761Y-264769804D01*
X252651380Y-264626947D01*
X252651380Y-264531709D01*
X252603761Y-264388852D01*
X252508523Y-264293614D01*
X252413285Y-264245995D01*
X252222809Y-264198376D01*
X252079952Y-264198376D01*
X251889476Y-264245995D01*
X251794238Y-264293614D01*
X251699000Y-264388852D01*
X251651380Y-264531709D01*
X251651380Y-264626947D01*
X251699000Y-264769804D01*
X251746619Y-264817424D01*
X252651380Y-265388852D02*
X252603761Y-265293614D01*
X252556142Y-265245995D01*
X252460904Y-265198376D01*
X252175190Y-265198376D01*
X252079952Y-265245995D01*
X252032333Y-265293614D01*
X251984714Y-265388852D01*
X251984714Y-265531709D01*
X252032333Y-265626947D01*
X252079952Y-265674566D01*
X252175190Y-265722185D01*
X252460904Y-265722185D01*
X252556142Y-265674566D01*
X252603761Y-265626947D01*
X252651380Y-265531709D01*
X252651380Y-265388852D01*
X251984714Y-266150757D02*
X252651380Y-266150757D01*
X252079952Y-266150757D02*
X252032333Y-266198376D01*
X251984714Y-266293614D01*
X251984714Y-266436471D01*
X252032333Y-266531709D01*
X252127571Y-266579328D01*
X252651380Y-266579328D01*
X251984714Y-267055519D02*
X252651380Y-267055519D01*
X252079952Y-267055519D02*
X252032333Y-267103138D01*
X251984714Y-267198376D01*
X251984714Y-267341233D01*
X252032333Y-267436471D01*
X252127571Y-267484090D01*
X252651380Y-267484090D01*
X252651380Y-268484090D02*
X252651380Y-267912662D01*
X252651380Y-268198376D02*
X251651380Y-268198376D01*
X251794238Y-268103138D01*
X251889476Y-268007900D01*
X251937095Y-267912662D01*
X252651380Y-268960281D02*
X252651380Y-269150757D01*
X252603761Y-269245995D01*
X252556142Y-269293614D01*
X252413285Y-269388852D01*
X252222809Y-269436471D01*
X251841857Y-269436471D01*
X251746619Y-269388852D01*
X251699000Y-269341233D01*
X251651380Y-269245995D01*
X251651380Y-269055519D01*
X251699000Y-268960281D01*
X251746619Y-268912662D01*
X251841857Y-268865043D01*
X252079952Y-268865043D01*
X252175190Y-268912662D01*
X252222809Y-268960281D01*
X252270428Y-269055519D01*
X252270428Y-269245995D01*
X252222809Y-269341233D01*
X252175190Y-269388852D01*
X252079952Y-269436471D01*
X180823630Y-141691490D02*
X180871249Y-141643871D01*
X180918868Y-141501014D01*
X180918868Y-141405776D01*
X180871249Y-141262919D01*
X180776011Y-141167680D01*
X180680773Y-141120061D01*
X180490297Y-141072442D01*
X180347440Y-141072442D01*
X180156964Y-141120061D01*
X180061726Y-141167680D01*
X179966488Y-141262919D01*
X179918868Y-141405776D01*
X179918868Y-141501014D01*
X179966488Y-141643871D01*
X180014107Y-141691490D01*
X180918868Y-142262919D02*
X180871249Y-142167680D01*
X180823630Y-142120061D01*
X180728392Y-142072442D01*
X180442678Y-142072442D01*
X180347440Y-142120061D01*
X180299821Y-142167680D01*
X180252202Y-142262919D01*
X180252202Y-142405776D01*
X180299821Y-142501014D01*
X180347440Y-142548633D01*
X180442678Y-142596252D01*
X180728392Y-142596252D01*
X180823630Y-142548633D01*
X180871249Y-142501014D01*
X180918868Y-142405776D01*
X180918868Y-142262919D01*
X180252202Y-143024823D02*
X180918868Y-143024823D01*
X180347440Y-143024823D02*
X180299821Y-143072442D01*
X180252202Y-143167680D01*
X180252202Y-143310538D01*
X180299821Y-143405776D01*
X180395059Y-143453395D01*
X180918868Y-143453395D01*
X180252202Y-143929585D02*
X180918868Y-143929585D01*
X180347440Y-143929585D02*
X180299821Y-143977204D01*
X180252202Y-144072442D01*
X180252202Y-144215300D01*
X180299821Y-144310538D01*
X180395059Y-144358157D01*
X180918868Y-144358157D01*
X179918868Y-144739109D02*
X179918868Y-145358157D01*
X180299821Y-145024823D01*
X180299821Y-145167680D01*
X180347440Y-145262919D01*
X180395059Y-145310538D01*
X180490297Y-145358157D01*
X180728392Y-145358157D01*
X180823630Y-145310538D01*
X180871249Y-145262919D01*
X180918868Y-145167680D01*
X180918868Y-144881966D01*
X180871249Y-144786728D01*
X180823630Y-144739109D01*
X233921854Y-141215300D02*
X233969473Y-141167680D01*
X234017092Y-141024823D01*
X234017092Y-140929585D01*
X233969473Y-140786728D01*
X233874235Y-140691490D01*
X233778997Y-140643871D01*
X233588521Y-140596252D01*
X233445664Y-140596252D01*
X233255188Y-140643871D01*
X233159950Y-140691490D01*
X233064712Y-140786728D01*
X233017092Y-140929585D01*
X233017092Y-141024823D01*
X233064712Y-141167680D01*
X233112331Y-141215300D01*
X234017092Y-141786728D02*
X233969473Y-141691490D01*
X233921854Y-141643871D01*
X233826616Y-141596252D01*
X233540902Y-141596252D01*
X233445664Y-141643871D01*
X233398045Y-141691490D01*
X233350426Y-141786728D01*
X233350426Y-141929585D01*
X233398045Y-142024823D01*
X233445664Y-142072442D01*
X233540902Y-142120061D01*
X233826616Y-142120061D01*
X233921854Y-142072442D01*
X233969473Y-142024823D01*
X234017092Y-141929585D01*
X234017092Y-141786728D01*
X233350426Y-142548633D02*
X234017092Y-142548633D01*
X233445664Y-142548633D02*
X233398045Y-142596252D01*
X233350426Y-142691490D01*
X233350426Y-142834347D01*
X233398045Y-142929585D01*
X233493283Y-142977204D01*
X234017092Y-142977204D01*
X233350426Y-143453395D02*
X234017092Y-143453395D01*
X233445664Y-143453395D02*
X233398045Y-143501014D01*
X233350426Y-143596252D01*
X233350426Y-143739109D01*
X233398045Y-143834347D01*
X233493283Y-143881966D01*
X234017092Y-143881966D01*
X234017092Y-144881966D02*
X234017092Y-144310538D01*
X234017092Y-144596252D02*
X233017092Y-144596252D01*
X233159950Y-144501014D01*
X233255188Y-144405776D01*
X233302807Y-144310538D01*
X233445664Y-145453395D02*
X233398045Y-145358157D01*
X233350426Y-145310538D01*
X233255188Y-145262919D01*
X233207569Y-145262919D01*
X233112331Y-145310538D01*
X233064712Y-145358157D01*
X233017092Y-145453395D01*
X233017092Y-145643871D01*
X233064712Y-145739109D01*
X233112331Y-145786728D01*
X233207569Y-145834347D01*
X233255188Y-145834347D01*
X233350426Y-145786728D01*
X233398045Y-145739109D01*
X233445664Y-145643871D01*
X233445664Y-145453395D01*
X233493283Y-145358157D01*
X233540902Y-145310538D01*
X233636140Y-145262919D01*
X233826616Y-145262919D01*
X233921854Y-145310538D01*
X233969473Y-145358157D01*
X234017092Y-145453395D01*
X234017092Y-145643871D01*
X233969473Y-145739109D01*
X233921854Y-145786728D01*
X233826616Y-145834347D01*
X233636140Y-145834347D01*
X233540902Y-145786728D01*
X233493283Y-145739109D01*
X233445664Y-145643871D01*
X212228150Y-263527390D02*
X212275769Y-263479771D01*
X212323388Y-263336914D01*
X212323388Y-263241676D01*
X212275769Y-263098819D01*
X212180531Y-263003580D01*
X212085293Y-262955961D01*
X211894817Y-262908342D01*
X211751960Y-262908342D01*
X211561484Y-262955961D01*
X211466246Y-263003580D01*
X211371008Y-263098819D01*
X211323388Y-263241676D01*
X211323388Y-263336914D01*
X211371008Y-263479771D01*
X211418627Y-263527390D01*
X212323388Y-264098819D02*
X212275769Y-264003580D01*
X212228150Y-263955961D01*
X212132912Y-263908342D01*
X211847198Y-263908342D01*
X211751960Y-263955961D01*
X211704341Y-264003580D01*
X211656722Y-264098819D01*
X211656722Y-264241676D01*
X211704341Y-264336914D01*
X211751960Y-264384533D01*
X211847198Y-264432152D01*
X212132912Y-264432152D01*
X212228150Y-264384533D01*
X212275769Y-264336914D01*
X212323388Y-264241676D01*
X212323388Y-264098819D01*
X211656722Y-264860723D02*
X212323388Y-264860723D01*
X211751960Y-264860723D02*
X211704341Y-264908342D01*
X211656722Y-265003580D01*
X211656722Y-265146438D01*
X211704341Y-265241676D01*
X211799579Y-265289295D01*
X212323388Y-265289295D01*
X211656722Y-265765485D02*
X212323388Y-265765485D01*
X211751960Y-265765485D02*
X211704341Y-265813104D01*
X211656722Y-265908342D01*
X211656722Y-266051200D01*
X211704341Y-266146438D01*
X211799579Y-266194057D01*
X212323388Y-266194057D01*
X212323388Y-267194057D02*
X212323388Y-266622628D01*
X212323388Y-266908342D02*
X211323388Y-266908342D01*
X211466246Y-266813104D01*
X211561484Y-266717866D01*
X211609103Y-266622628D01*
X176590358Y-263051200D02*
X176637977Y-263003580D01*
X176685596Y-262860723D01*
X176685596Y-262765485D01*
X176637977Y-262622628D01*
X176542739Y-262527390D01*
X176447501Y-262479771D01*
X176257025Y-262432152D01*
X176114168Y-262432152D01*
X175923692Y-262479771D01*
X175828454Y-262527390D01*
X175733216Y-262622628D01*
X175685596Y-262765485D01*
X175685596Y-262860723D01*
X175733216Y-263003580D01*
X175780835Y-263051200D01*
X176685596Y-263622628D02*
X176637977Y-263527390D01*
X176590358Y-263479771D01*
X176495120Y-263432152D01*
X176209406Y-263432152D01*
X176114168Y-263479771D01*
X176066549Y-263527390D01*
X176018930Y-263622628D01*
X176018930Y-263765485D01*
X176066549Y-263860723D01*
X176114168Y-263908342D01*
X176209406Y-263955961D01*
X176495120Y-263955961D01*
X176590358Y-263908342D01*
X176637977Y-263860723D01*
X176685596Y-263765485D01*
X176685596Y-263622628D01*
X176018930Y-264384533D02*
X176685596Y-264384533D01*
X176114168Y-264384533D02*
X176066549Y-264432152D01*
X176018930Y-264527390D01*
X176018930Y-264670247D01*
X176066549Y-264765485D01*
X176161787Y-264813104D01*
X176685596Y-264813104D01*
X176018930Y-265289295D02*
X176685596Y-265289295D01*
X176114168Y-265289295D02*
X176066549Y-265336914D01*
X176018930Y-265432152D01*
X176018930Y-265575009D01*
X176066549Y-265670247D01*
X176161787Y-265717866D01*
X176685596Y-265717866D01*
X175780835Y-266146438D02*
X175733216Y-266194057D01*
X175685596Y-266289295D01*
X175685596Y-266527390D01*
X175733216Y-266622628D01*
X175780835Y-266670247D01*
X175876073Y-266717866D01*
X175971311Y-266717866D01*
X176114168Y-266670247D01*
X176685596Y-266098819D01*
X176685596Y-266717866D01*
X175685596Y-267051200D02*
X175685596Y-267670247D01*
X176066549Y-267336914D01*
X176066549Y-267479771D01*
X176114168Y-267575009D01*
X176161787Y-267622628D01*
X176257025Y-267670247D01*
X176495120Y-267670247D01*
X176590358Y-267622628D01*
X176637977Y-267575009D01*
X176685596Y-267479771D01*
X176685596Y-267194057D01*
X176637977Y-267098819D01*
X176590358Y-267051200D01*
X198301178Y-141215300D02*
X198348797Y-141167680D01*
X198396416Y-141024823D01*
X198396416Y-140929585D01*
X198348797Y-140786728D01*
X198253559Y-140691490D01*
X198158321Y-140643871D01*
X197967845Y-140596252D01*
X197824988Y-140596252D01*
X197634512Y-140643871D01*
X197539274Y-140691490D01*
X197444036Y-140786728D01*
X197396416Y-140929585D01*
X197396416Y-141024823D01*
X197444036Y-141167680D01*
X197491655Y-141215300D01*
X198396416Y-141786728D02*
X198348797Y-141691490D01*
X198301178Y-141643871D01*
X198205940Y-141596252D01*
X197920226Y-141596252D01*
X197824988Y-141643871D01*
X197777369Y-141691490D01*
X197729750Y-141786728D01*
X197729750Y-141929585D01*
X197777369Y-142024823D01*
X197824988Y-142072442D01*
X197920226Y-142120061D01*
X198205940Y-142120061D01*
X198301178Y-142072442D01*
X198348797Y-142024823D01*
X198396416Y-141929585D01*
X198396416Y-141786728D01*
X197729750Y-142548633D02*
X198396416Y-142548633D01*
X197824988Y-142548633D02*
X197777369Y-142596252D01*
X197729750Y-142691490D01*
X197729750Y-142834347D01*
X197777369Y-142929585D01*
X197872607Y-142977204D01*
X198396416Y-142977204D01*
X197729750Y-143453395D02*
X198396416Y-143453395D01*
X197824988Y-143453395D02*
X197777369Y-143501014D01*
X197729750Y-143596252D01*
X197729750Y-143739109D01*
X197777369Y-143834347D01*
X197872607Y-143881966D01*
X198396416Y-143881966D01*
X198396416Y-144881966D02*
X198396416Y-144310538D01*
X198396416Y-144596252D02*
X197396416Y-144596252D01*
X197539274Y-144501014D01*
X197634512Y-144405776D01*
X197682131Y-144310538D01*
X197396416Y-145501014D02*
X197396416Y-145596252D01*
X197444036Y-145691490D01*
X197491655Y-145739109D01*
X197586893Y-145786728D01*
X197777369Y-145834347D01*
X198015464Y-145834347D01*
X198205940Y-145786728D01*
X198301178Y-145739109D01*
X198348797Y-145691490D01*
X198396416Y-145596252D01*
X198396416Y-145501014D01*
X198348797Y-145405776D01*
X198301178Y-145358157D01*
X198205940Y-145310538D01*
X198015464Y-145262919D01*
X197777369Y-145262919D01*
X197586893Y-145310538D01*
X197491655Y-145358157D01*
X197444036Y-145405776D01*
X197396416Y-145501014D01*
X216105166Y-141215300D02*
X216152785Y-141167680D01*
X216200404Y-141024823D01*
X216200404Y-140929585D01*
X216152785Y-140786728D01*
X216057547Y-140691490D01*
X215962309Y-140643871D01*
X215771833Y-140596252D01*
X215628976Y-140596252D01*
X215438500Y-140643871D01*
X215343262Y-140691490D01*
X215248024Y-140786728D01*
X215200404Y-140929585D01*
X215200404Y-141024823D01*
X215248024Y-141167680D01*
X215295643Y-141215300D01*
X216200404Y-141786728D02*
X216152785Y-141691490D01*
X216105166Y-141643871D01*
X216009928Y-141596252D01*
X215724214Y-141596252D01*
X215628976Y-141643871D01*
X215581357Y-141691490D01*
X215533738Y-141786728D01*
X215533738Y-141929585D01*
X215581357Y-142024823D01*
X215628976Y-142072442D01*
X215724214Y-142120061D01*
X216009928Y-142120061D01*
X216105166Y-142072442D01*
X216152785Y-142024823D01*
X216200404Y-141929585D01*
X216200404Y-141786728D01*
X215533738Y-142548633D02*
X216200404Y-142548633D01*
X215628976Y-142548633D02*
X215581357Y-142596252D01*
X215533738Y-142691490D01*
X215533738Y-142834347D01*
X215581357Y-142929585D01*
X215676595Y-142977204D01*
X216200404Y-142977204D01*
X215533738Y-143453395D02*
X216200404Y-143453395D01*
X215628976Y-143453395D02*
X215581357Y-143501014D01*
X215533738Y-143596252D01*
X215533738Y-143739109D01*
X215581357Y-143834347D01*
X215676595Y-143881966D01*
X216200404Y-143881966D01*
X216200404Y-144881966D02*
X216200404Y-144310538D01*
X216200404Y-144596252D02*
X215200404Y-144596252D01*
X215343262Y-144501014D01*
X215438500Y-144405776D01*
X215486119Y-144310538D01*
X215533738Y-145739109D02*
X216200404Y-145739109D01*
X215152785Y-145501014D02*
X215867071Y-145262919D01*
X215867071Y-145881966D01*
X251738542Y-141215300D02*
X251786161Y-141167680D01*
X251833780Y-141024823D01*
X251833780Y-140929585D01*
X251786161Y-140786728D01*
X251690923Y-140691490D01*
X251595685Y-140643871D01*
X251405209Y-140596252D01*
X251262352Y-140596252D01*
X251071876Y-140643871D01*
X250976638Y-140691490D01*
X250881400Y-140786728D01*
X250833780Y-140929585D01*
X250833780Y-141024823D01*
X250881400Y-141167680D01*
X250929019Y-141215300D01*
X251833780Y-141786728D02*
X251786161Y-141691490D01*
X251738542Y-141643871D01*
X251643304Y-141596252D01*
X251357590Y-141596252D01*
X251262352Y-141643871D01*
X251214733Y-141691490D01*
X251167114Y-141786728D01*
X251167114Y-141929585D01*
X251214733Y-142024823D01*
X251262352Y-142072442D01*
X251357590Y-142120061D01*
X251643304Y-142120061D01*
X251738542Y-142072442D01*
X251786161Y-142024823D01*
X251833780Y-141929585D01*
X251833780Y-141786728D01*
X251167114Y-142548633D02*
X251833780Y-142548633D01*
X251262352Y-142548633D02*
X251214733Y-142596252D01*
X251167114Y-142691490D01*
X251167114Y-142834347D01*
X251214733Y-142929585D01*
X251309971Y-142977204D01*
X251833780Y-142977204D01*
X251167114Y-143453395D02*
X251833780Y-143453395D01*
X251262352Y-143453395D02*
X251214733Y-143501014D01*
X251167114Y-143596252D01*
X251167114Y-143739109D01*
X251214733Y-143834347D01*
X251309971Y-143881966D01*
X251833780Y-143881966D01*
X250929019Y-144310538D02*
X250881400Y-144358157D01*
X250833780Y-144453395D01*
X250833780Y-144691490D01*
X250881400Y-144786728D01*
X250929019Y-144834347D01*
X251024257Y-144881966D01*
X251119495Y-144881966D01*
X251262352Y-144834347D01*
X251833780Y-144262919D01*
X251833780Y-144881966D01*
X250833780Y-145501014D02*
X250833780Y-145596252D01*
X250881400Y-145691490D01*
X250929019Y-145739109D01*
X251024257Y-145786728D01*
X251214733Y-145834347D01*
X251452828Y-145834347D01*
X251643304Y-145786728D01*
X251738542Y-145739109D01*
X251786161Y-145691490D01*
X251833780Y-145596252D01*
X251833780Y-145501014D01*
X251786161Y-145405776D01*
X251738542Y-145358157D01*
X251643304Y-145310538D01*
X251452828Y-145262919D01*
X251214733Y-145262919D01*
X251024257Y-145310538D01*
X250929019Y-145358157D01*
X250881400Y-145405776D01*
X250833780Y-145501014D01*
X194409146Y-263527390D02*
X194456765Y-263479771D01*
X194504384Y-263336914D01*
X194504384Y-263241676D01*
X194456765Y-263098819D01*
X194361527Y-263003580D01*
X194266289Y-262955961D01*
X194075813Y-262908342D01*
X193932956Y-262908342D01*
X193742480Y-262955961D01*
X193647242Y-263003580D01*
X193552004Y-263098819D01*
X193504384Y-263241676D01*
X193504384Y-263336914D01*
X193552004Y-263479771D01*
X193599623Y-263527390D01*
X194504384Y-264098819D02*
X194456765Y-264003580D01*
X194409146Y-263955961D01*
X194313908Y-263908342D01*
X194028194Y-263908342D01*
X193932956Y-263955961D01*
X193885337Y-264003580D01*
X193837718Y-264098819D01*
X193837718Y-264241676D01*
X193885337Y-264336914D01*
X193932956Y-264384533D01*
X194028194Y-264432152D01*
X194313908Y-264432152D01*
X194409146Y-264384533D01*
X194456765Y-264336914D01*
X194504384Y-264241676D01*
X194504384Y-264098819D01*
X193837718Y-264860723D02*
X194504384Y-264860723D01*
X193932956Y-264860723D02*
X193885337Y-264908342D01*
X193837718Y-265003580D01*
X193837718Y-265146438D01*
X193885337Y-265241676D01*
X193980575Y-265289295D01*
X194504384Y-265289295D01*
X193837718Y-265765485D02*
X194504384Y-265765485D01*
X193932956Y-265765485D02*
X193885337Y-265813104D01*
X193837718Y-265908342D01*
X193837718Y-266051200D01*
X193885337Y-266146438D01*
X193980575Y-266194057D01*
X194504384Y-266194057D01*
X193599623Y-266622628D02*
X193552004Y-266670247D01*
X193504384Y-266765485D01*
X193504384Y-267003580D01*
X193552004Y-267098819D01*
X193599623Y-267146438D01*
X193694861Y-267194057D01*
X193790099Y-267194057D01*
X193932956Y-267146438D01*
X194504384Y-266575009D01*
X194504384Y-267194057D01*
X269555230Y-141215300D02*
X269602849Y-141167680D01*
X269650468Y-141024823D01*
X269650468Y-140929585D01*
X269602849Y-140786728D01*
X269507611Y-140691490D01*
X269412373Y-140643871D01*
X269221897Y-140596252D01*
X269079040Y-140596252D01*
X268888564Y-140643871D01*
X268793326Y-140691490D01*
X268698088Y-140786728D01*
X268650468Y-140929585D01*
X268650468Y-141024823D01*
X268698088Y-141167680D01*
X268745707Y-141215300D01*
X269650468Y-141786728D02*
X269602849Y-141691490D01*
X269555230Y-141643871D01*
X269459992Y-141596252D01*
X269174278Y-141596252D01*
X269079040Y-141643871D01*
X269031421Y-141691490D01*
X268983802Y-141786728D01*
X268983802Y-141929585D01*
X269031421Y-142024823D01*
X269079040Y-142072442D01*
X269174278Y-142120061D01*
X269459992Y-142120061D01*
X269555230Y-142072442D01*
X269602849Y-142024823D01*
X269650468Y-141929585D01*
X269650468Y-141786728D01*
X268983802Y-142548633D02*
X269650468Y-142548633D01*
X269079040Y-142548633D02*
X269031421Y-142596252D01*
X268983802Y-142691490D01*
X268983802Y-142834347D01*
X269031421Y-142929585D01*
X269126659Y-142977204D01*
X269650468Y-142977204D01*
X268983802Y-143453395D02*
X269650468Y-143453395D01*
X269079040Y-143453395D02*
X269031421Y-143501014D01*
X268983802Y-143596252D01*
X268983802Y-143739109D01*
X269031421Y-143834347D01*
X269126659Y-143881966D01*
X269650468Y-143881966D01*
X268745707Y-144310538D02*
X268698088Y-144358157D01*
X268650468Y-144453395D01*
X268650468Y-144691490D01*
X268698088Y-144786728D01*
X268745707Y-144834347D01*
X268840945Y-144881966D01*
X268936183Y-144881966D01*
X269079040Y-144834347D01*
X269650468Y-144262919D01*
X269650468Y-144881966D01*
X268745707Y-145262919D02*
X268698088Y-145310538D01*
X268650468Y-145405776D01*
X268650468Y-145643871D01*
X268698088Y-145739109D01*
X268745707Y-145786728D01*
X268840945Y-145834347D01*
X268936183Y-145834347D01*
X269079040Y-145786728D01*
X269650468Y-145215300D01*
X269650468Y-145834347D01*
X263398000Y-279453024D02*
X262255000Y-279453024D01*
X263398000Y-279453024D02*
X266674600Y-279453024D01*
X261112000Y-277167024D02*
X261112000Y-278310024D01*
X261137400Y-289486024D02*
X261137400Y-280596024D01*
X258826000Y-279453024D02*
X255524000Y-279453024D01*
X253238000Y-281739024D02*
X253238000Y-289486024D01*
X268986000Y-277167024D02*
X268986000Y-264873424D01*
X253238000Y-277141624D02*
X253238000Y-278335424D01*
X267843000Y-279453024D02*
X266674600Y-279453024D01*
X268986000Y-264873424D02*
X253238000Y-264873424D01*
X258826000Y-279453024D02*
X259969000Y-279453024D01*
X255549400Y-279453024D02*
X254381000Y-279453024D01*
X268986000Y-280596024D02*
X268986000Y-281815224D01*
X268986000Y-289511424D02*
X253238000Y-289511424D01*
X253238000Y-281764424D02*
X253238000Y-280596024D01*
X253238000Y-277167024D02*
X253238000Y-264873424D01*
X268986000Y-277192424D02*
X268986000Y-278284624D01*
X261112000Y-277167024D02*
X261112000Y-264873424D01*
X268986000Y-289486024D02*
X268986000Y-281739024D01*
X254355600Y-279453024D02*
G75*
G03*
X253238000Y-278335424I-1117598J2D01*
G01*
X267843000Y-279453024D02*
G75*
G03*
X268986000Y-280596024I1143000J0D01*
G01*
X253238000Y-280570624D02*
G75*
G03*
X254355600Y-279453024I2J1117598D01*
G01*
X268986000Y-278310024D02*
G75*
G03*
X267843000Y-279453024I0J-1143000D01*
G01*
X262255000Y-279453024D02*
G75*
G03*
X262255000Y-279453024I-1143000J0D01*
G01*
X164822488Y-130579700D02*
X165990888Y-130579700D01*
X173839488Y-130579700D02*
X177141488Y-130579700D01*
X163679488Y-129436700D02*
X163679488Y-128217500D01*
X171553488Y-132865700D02*
X171553488Y-145159300D01*
X163679488Y-132840300D02*
X163679488Y-131748100D01*
X179427488Y-128268300D02*
X179427488Y-129436700D01*
X171528088Y-120546700D02*
X171528088Y-129436700D01*
X163679488Y-132865700D02*
X163679488Y-145159300D01*
X179427488Y-132891100D02*
X179427488Y-131697300D01*
X169267488Y-130579700D02*
X170410488Y-130579700D01*
X173839488Y-130579700D02*
X172696488Y-130579700D01*
X177116088Y-130579700D02*
X178284488Y-130579700D01*
X163679488Y-145159300D02*
X179427488Y-145159300D01*
X179427488Y-132865700D02*
X179427488Y-145159300D01*
X163679488Y-120521300D02*
X179427488Y-120521300D01*
X169267488Y-130579700D02*
X165990888Y-130579700D01*
X171553488Y-132865700D02*
X171553488Y-131722700D01*
X163679488Y-120546700D02*
X163679488Y-128293700D01*
X179427488Y-128293700D02*
X179427488Y-120546700D01*
X163679488Y-131722700D02*
G75*
G03*
X164822488Y-130579700I0J1143000D01*
G01*
X179427488Y-129462100D02*
G75*
G03*
X178309888Y-130579700I-2J-1117598D01*
G01*
X178309888Y-130579700D02*
G75*
G03*
X179427488Y-131697300I1117598J-2D01*
G01*
X164822488Y-130579700D02*
G75*
G03*
X163679488Y-129436700I-1143000J0D01*
G01*
X172696488Y-130579700D02*
G75*
G03*
X172696488Y-130579700I-1143000J0D01*
G01*
X230214312Y-130579700D02*
X231382712Y-130579700D01*
X224651712Y-132865700D02*
X224651712Y-145159300D01*
X232525712Y-132891100D02*
X232525712Y-131697300D01*
X216777712Y-132840300D02*
X216777712Y-131748100D01*
X226937712Y-130579700D02*
X225794712Y-130579700D01*
X216777712Y-120521300D02*
X232525712Y-120521300D01*
X226937712Y-130579700D02*
X230239712Y-130579700D01*
X224626312Y-120546700D02*
X224626312Y-129436700D01*
X232525712Y-128268300D02*
X232525712Y-129436700D01*
X232525712Y-128293700D02*
X232525712Y-120546700D01*
X232525712Y-132865700D02*
X232525712Y-145159300D01*
X222365712Y-130579700D02*
X219089112Y-130579700D01*
X222365712Y-130579700D02*
X223508712Y-130579700D01*
X224651712Y-132865700D02*
X224651712Y-131722700D01*
X216777712Y-145159300D02*
X232525712Y-145159300D01*
X216777712Y-120546700D02*
X216777712Y-128293700D01*
X216777712Y-132865700D02*
X216777712Y-145159300D01*
X216777712Y-129436700D02*
X216777712Y-128217500D01*
X217920712Y-130579700D02*
X219089112Y-130579700D01*
X231408112Y-130579700D02*
G75*
G03*
X232525712Y-131697300I1117598J-2D01*
G01*
X232525712Y-129462100D02*
G75*
G03*
X231408112Y-130579700I-2J-1117598D01*
G01*
X216777712Y-131722700D02*
G75*
G03*
X217920712Y-130579700I0J1143000D01*
G01*
X217920712Y-130579700D02*
G75*
G03*
X216777712Y-129436700I-1143000J0D01*
G01*
X225794712Y-130579700D02*
G75*
G03*
X225794712Y-130579700I-1143000J0D01*
G01*
X212910008Y-279998200D02*
X212910008Y-278829800D01*
X228658008Y-287745200D02*
X212910008Y-287745200D01*
X220809408Y-287719800D02*
X220809408Y-278829800D01*
X218498008Y-277686800D02*
X219641008Y-277686800D01*
X218498008Y-277686800D02*
X215196008Y-277686800D01*
X212910008Y-275375400D02*
X212910008Y-276569200D01*
X223070008Y-277686800D02*
X226346608Y-277686800D01*
X220784008Y-275400800D02*
X220784008Y-276543800D01*
X212910008Y-275400800D02*
X212910008Y-263107200D01*
X215221408Y-277686800D02*
X214053008Y-277686800D01*
X212910008Y-279972800D02*
X212910008Y-287719800D01*
X228658008Y-275400800D02*
X228658008Y-263107200D01*
X223070008Y-277686800D02*
X221927008Y-277686800D01*
X227515008Y-277686800D02*
X226346608Y-277686800D01*
X228658008Y-263107200D02*
X212910008Y-263107200D01*
X228658008Y-287719800D02*
X228658008Y-279972800D01*
X228658008Y-275426200D02*
X228658008Y-276518400D01*
X228658008Y-278829800D02*
X228658008Y-280049000D01*
X220784008Y-275400800D02*
X220784008Y-263107200D01*
X214027608Y-277686800D02*
G75*
G03*
X212910008Y-276569200I-1117598J2D01*
G01*
X212910008Y-278804400D02*
G75*
G03*
X214027608Y-277686800I2J1117598D01*
G01*
X228658008Y-276543800D02*
G75*
G03*
X227515008Y-277686800I0J-1143000D01*
G01*
X227515008Y-277686800D02*
G75*
G03*
X228658008Y-278829800I1143000J0D01*
G01*
X221927008Y-277686800D02*
G75*
G03*
X221927008Y-277686800I-1143000J0D01*
G01*
X177272216Y-279972800D02*
X177272216Y-287719800D01*
X182860216Y-277686800D02*
X184003216Y-277686800D01*
X185171616Y-287719800D02*
X185171616Y-278829800D01*
X193020216Y-263107200D02*
X177272216Y-263107200D01*
X187432216Y-277686800D02*
X186289216Y-277686800D01*
X193020216Y-278829800D02*
X193020216Y-280049000D01*
X187432216Y-277686800D02*
X190708816Y-277686800D01*
X185146216Y-275400800D02*
X185146216Y-276543800D01*
X177272216Y-279998200D02*
X177272216Y-278829800D01*
X179583616Y-277686800D02*
X178415216Y-277686800D01*
X193020216Y-287719800D02*
X193020216Y-279972800D01*
X177272216Y-275375400D02*
X177272216Y-276569200D01*
X193020216Y-287745200D02*
X177272216Y-287745200D01*
X193020216Y-275426200D02*
X193020216Y-276518400D01*
X185146216Y-275400800D02*
X185146216Y-263107200D01*
X191877216Y-277686800D02*
X190708816Y-277686800D01*
X193020216Y-275400800D02*
X193020216Y-263107200D01*
X177272216Y-275400800D02*
X177272216Y-263107200D01*
X182860216Y-277686800D02*
X179558216Y-277686800D01*
X177272216Y-278804400D02*
G75*
G03*
X178389816Y-277686800I2J1117598D01*
G01*
X191877216Y-277686800D02*
G75*
G03*
X193020216Y-278829800I1143000J0D01*
G01*
X193020216Y-276543800D02*
G75*
G03*
X191877216Y-277686800I0J-1143000D01*
G01*
X178389816Y-277686800D02*
G75*
G03*
X177272216Y-276569200I-1117598J2D01*
G01*
X186289216Y-277686800D02*
G75*
G03*
X186289216Y-277686800I-1143000J0D01*
G01*
X191317036Y-130579700D02*
X194619036Y-130579700D01*
X181157036Y-145159300D02*
X196905036Y-145159300D01*
X181157036Y-120546700D02*
X181157036Y-128293700D01*
X181157036Y-129436700D02*
X181157036Y-128217500D01*
X189031036Y-132865700D02*
X189031036Y-145159300D01*
X181157036Y-132865700D02*
X181157036Y-145159300D01*
X191317036Y-130579700D02*
X190174036Y-130579700D01*
X196905036Y-132865700D02*
X196905036Y-145159300D01*
X186745036Y-130579700D02*
X183468436Y-130579700D01*
X181157036Y-132840300D02*
X181157036Y-131748100D01*
X194593636Y-130579700D02*
X195762036Y-130579700D01*
X189005636Y-120546700D02*
X189005636Y-129436700D01*
X196905036Y-128268300D02*
X196905036Y-129436700D01*
X196905036Y-132891100D02*
X196905036Y-131697300D01*
X181157036Y-120521300D02*
X196905036Y-120521300D01*
X186745036Y-130579700D02*
X187888036Y-130579700D01*
X196905036Y-128293700D02*
X196905036Y-120546700D01*
X182300036Y-130579700D02*
X183468436Y-130579700D01*
X189031036Y-132865700D02*
X189031036Y-131722700D01*
X195787436Y-130579700D02*
G75*
G03*
X196905036Y-131697300I1117598J-2D01*
G01*
X196905036Y-129462100D02*
G75*
G03*
X195787436Y-130579700I-2J-1117598D01*
G01*
X182300036Y-130579700D02*
G75*
G03*
X181157036Y-129436700I-1143000J0D01*
G01*
X181157036Y-131722700D02*
G75*
G03*
X182300036Y-130579700I0J1143000D01*
G01*
X190174036Y-130579700D02*
G75*
G03*
X190174036Y-130579700I-1143000J0D01*
G01*
X206835024Y-132865700D02*
X206835024Y-131722700D01*
X198961024Y-132865700D02*
X198961024Y-145159300D01*
X209121024Y-130579700D02*
X212423024Y-130579700D01*
X206809624Y-120546700D02*
X206809624Y-129436700D01*
X204549024Y-130579700D02*
X205692024Y-130579700D01*
X198961024Y-129436700D02*
X198961024Y-128217500D01*
X214709024Y-132865700D02*
X214709024Y-145159300D01*
X198961024Y-132840300D02*
X198961024Y-131748100D01*
X198961024Y-120546700D02*
X198961024Y-128293700D01*
X214709024Y-128268300D02*
X214709024Y-129436700D01*
X209121024Y-130579700D02*
X207978024Y-130579700D01*
X212397624Y-130579700D02*
X213566024Y-130579700D01*
X204549024Y-130579700D02*
X201272424Y-130579700D01*
X198961024Y-120521300D02*
X214709024Y-120521300D01*
X214709024Y-128293700D02*
X214709024Y-120546700D01*
X200104024Y-130579700D02*
X201272424Y-130579700D01*
X198961024Y-145159300D02*
X214709024Y-145159300D01*
X214709024Y-132891100D02*
X214709024Y-131697300D01*
X206835024Y-132865700D02*
X206835024Y-145159300D01*
X213591424Y-130579700D02*
G75*
G03*
X214709024Y-131697300I1117598J-2D01*
G01*
X200104024Y-130579700D02*
G75*
G03*
X198961024Y-129436700I-1143000J0D01*
G01*
X198961024Y-131722700D02*
G75*
G03*
X200104024Y-130579700I0J1143000D01*
G01*
X214709024Y-129462100D02*
G75*
G03*
X213591424Y-130579700I-2J-1117598D01*
G01*
X207978024Y-130579700D02*
G75*
G03*
X207978024Y-130579700I-1143000J0D01*
G01*
X234594400Y-120521300D02*
X250342400Y-120521300D01*
X250342400Y-128268300D02*
X250342400Y-129436700D01*
X250342400Y-132891100D02*
X250342400Y-131697300D01*
X244754400Y-130579700D02*
X243611400Y-130579700D01*
X234594400Y-145159300D02*
X250342400Y-145159300D01*
X240182400Y-130579700D02*
X241325400Y-130579700D01*
X244754400Y-130579700D02*
X248056400Y-130579700D01*
X250342400Y-132865700D02*
X250342400Y-145159300D01*
X234594400Y-132840300D02*
X234594400Y-131748100D01*
X234594400Y-120546700D02*
X234594400Y-128293700D01*
X240182400Y-130579700D02*
X236905800Y-130579700D01*
X248031000Y-130579700D02*
X249199400Y-130579700D01*
X250342400Y-128293700D02*
X250342400Y-120546700D01*
X242443000Y-120546700D02*
X242443000Y-129436700D01*
X235737400Y-130579700D02*
X236905800Y-130579700D01*
X242468400Y-132865700D02*
X242468400Y-145159300D01*
X234594400Y-132865700D02*
X234594400Y-145159300D01*
X234594400Y-129436700D02*
X234594400Y-128217500D01*
X242468400Y-132865700D02*
X242468400Y-131722700D01*
X234594400Y-131722700D02*
G75*
G03*
X235737400Y-130579700I0J1143000D01*
G01*
X250342400Y-129462100D02*
G75*
G03*
X249224800Y-130579700I-2J-1117598D01*
G01*
X249224800Y-130579700D02*
G75*
G03*
X250342400Y-131697300I1117598J-2D01*
G01*
X235737400Y-130579700D02*
G75*
G03*
X234594400Y-129436700I-1143000J0D01*
G01*
X243611400Y-130579700D02*
G75*
G03*
X243611400Y-130579700I-1143000J0D01*
G01*
X195091004Y-275375400D02*
X195091004Y-276569200D01*
X195091004Y-275400800D02*
X195091004Y-263107200D01*
X210839004Y-275426200D02*
X210839004Y-276518400D01*
X200679004Y-277686800D02*
X201822004Y-277686800D01*
X195091004Y-279998200D02*
X195091004Y-278829800D01*
X202990404Y-287719800D02*
X202990404Y-278829800D01*
X210839004Y-287745200D02*
X195091004Y-287745200D01*
X210839004Y-275400800D02*
X210839004Y-263107200D01*
X210839004Y-287719800D02*
X210839004Y-279972800D01*
X197402404Y-277686800D02*
X196234004Y-277686800D01*
X210839004Y-263107200D02*
X195091004Y-263107200D01*
X205251004Y-277686800D02*
X204108004Y-277686800D01*
X210839004Y-278829800D02*
X210839004Y-280049000D01*
X209696004Y-277686800D02*
X208527604Y-277686800D01*
X200679004Y-277686800D02*
X197377004Y-277686800D01*
X205251004Y-277686800D02*
X208527604Y-277686800D01*
X195091004Y-279972800D02*
X195091004Y-287719800D01*
X202965004Y-275400800D02*
X202965004Y-263107200D01*
X202965004Y-275400800D02*
X202965004Y-276543800D01*
X195091004Y-278804400D02*
G75*
G03*
X196208604Y-277686800I2J1117598D01*
G01*
X210839004Y-276543800D02*
G75*
G03*
X209696004Y-277686800I0J-1143000D01*
G01*
X209696004Y-277686800D02*
G75*
G03*
X210839004Y-278829800I1143000J0D01*
G01*
X196208604Y-277686800D02*
G75*
G03*
X195091004Y-276569200I-1117598J2D01*
G01*
X204108004Y-277686800D02*
G75*
G03*
X204108004Y-277686800I-1143000J0D01*
G01*
X253554088Y-130579700D02*
X254722488Y-130579700D01*
X252411088Y-120521300D02*
X268159088Y-120521300D01*
X268159088Y-128268300D02*
X268159088Y-129436700D01*
X252411088Y-129436700D02*
X252411088Y-128217500D01*
X252411088Y-132865700D02*
X252411088Y-145159300D01*
X260285088Y-132865700D02*
X260285088Y-145159300D01*
X262571088Y-130579700D02*
X265873088Y-130579700D01*
X268159088Y-132865700D02*
X268159088Y-145159300D01*
X252411088Y-120546700D02*
X252411088Y-128293700D01*
X268159088Y-132891100D02*
X268159088Y-131697300D01*
X257999088Y-130579700D02*
X254722488Y-130579700D01*
X257999088Y-130579700D02*
X259142088Y-130579700D01*
X268159088Y-128293700D02*
X268159088Y-120546700D01*
X252411088Y-145159300D02*
X268159088Y-145159300D01*
X260259688Y-120546700D02*
X260259688Y-129436700D01*
X265847688Y-130579700D02*
X267016088Y-130579700D01*
X262571088Y-130579700D02*
X261428088Y-130579700D01*
X260285088Y-132865700D02*
X260285088Y-131722700D01*
X252411088Y-132840300D02*
X252411088Y-131748100D01*
X253554088Y-130579700D02*
G75*
G03*
X252411088Y-129436700I-1143000J0D01*
G01*
X268159088Y-129462100D02*
G75*
G03*
X267041488Y-130579700I-2J-1117598D01*
G01*
X252411088Y-131722700D02*
G75*
G03*
X253554088Y-130579700I0J1143000D01*
G01*
X267041488Y-130579700D02*
G75*
G03*
X268159088Y-131697300I1117598J-2D01*
G01*
X261428088Y-130579700D02*
G75*
G03*
X261428088Y-130579700I-1143000J0D01*
G01*
%LPC*%
D11*
X278328120Y-131018280D03*
D12*
X233680000Y-267970000D03*
D13*
X233680000Y-265470000D03*
D14*
X146392900Y-227814000D03*
D15*
X143852900Y-227814000D03*
D14*
X146392900Y-203430000D03*
D15*
X143852900Y-203430000D03*
D14*
X146392900Y-211570000D03*
D15*
X143852900Y-211570000D03*
D14*
X146392900Y-235942000D03*
D15*
X143852900Y-235942000D03*
D16*
X262890000Y-242570000D03*
X262890000Y-245110000D03*
X262890000Y-247650000D03*
D17*
X249868000Y-183388000D03*
X258068000Y-183388000D03*
D18*
X251968000Y-183388000D03*
D19*
X253968000Y-183388000D03*
X255968000Y-183388000D03*
D14*
X155282900Y-235942000D03*
D15*
X152742900Y-235942000D03*
D12*
X245110000Y-267970000D03*
D13*
X245110000Y-265470000D03*
D12*
X262128000Y-255270000D03*
D13*
X259628000Y-255270000D03*
D14*
X146392900Y-195302000D03*
D15*
X143852900Y-195302000D03*
D14*
X149136100Y-161024000D03*
D15*
X146596100Y-161024000D03*
X144056100Y-161024000D03*
D14*
X149136100Y-185396000D03*
D15*
X146596100Y-185396000D03*
X144056100Y-185396000D03*
D11*
X278328120Y-278328120D03*
D14*
X149136100Y-169152000D03*
D15*
X146596100Y-169152000D03*
X144056100Y-169152000D03*
D14*
X155282900Y-203430000D03*
D15*
X152742900Y-203430000D03*
D14*
X155282900Y-195302000D03*
D15*
X152742900Y-195302000D03*
D14*
X146392900Y-219698000D03*
D15*
X143852900Y-219698000D03*
D14*
X155282900Y-219686000D03*
D15*
X152742900Y-219686000D03*
D14*
X149136100Y-152884000D03*
D15*
X146596100Y-152884000D03*
X144056100Y-152884000D03*
D14*
X155282900Y-246366860D03*
D15*
X152742900Y-246366860D03*
D14*
X155282900Y-227814000D03*
D15*
X152742900Y-227814000D03*
D11*
X143718280Y-278328120D03*
D14*
X155282900Y-211570000D03*
D15*
X152742900Y-211570000D03*
D20*
X184150000Y-204724000D03*
X186690000Y-204724000D03*
X189230000Y-204724000D03*
X191770000Y-204724000D03*
X217170000Y-204724000D03*
X186690000Y-189484000D03*
X194310000Y-204724000D03*
X196850000Y-204724000D03*
X199390000Y-204724000D03*
X201930000Y-204724000D03*
X204470000Y-204724000D03*
X207010000Y-204724000D03*
X209550000Y-204724000D03*
X212090000Y-204724000D03*
X214630000Y-204724000D03*
X214630000Y-189484000D03*
X212090000Y-189484000D03*
X209550000Y-189484000D03*
X207010000Y-189484000D03*
X204470000Y-189484000D03*
X201930000Y-189484000D03*
X199390000Y-189484000D03*
X196850000Y-189484000D03*
X194310000Y-189484000D03*
X191770000Y-189484000D03*
X189230000Y-189484000D03*
X219710000Y-204724000D03*
X222250000Y-204724000D03*
X224790000Y-204724000D03*
X227330000Y-204724000D03*
X229870000Y-204724000D03*
X232410000Y-204724000D03*
X234950000Y-204724000D03*
X237490000Y-204724000D03*
X240030000Y-204724000D03*
X240030000Y-189484000D03*
X237490000Y-189484000D03*
X234950000Y-189484000D03*
X232410000Y-189484000D03*
X229870000Y-189484000D03*
X227330000Y-189484000D03*
X224790000Y-189484000D03*
X222250000Y-189484000D03*
X219710000Y-189484000D03*
X181610000Y-204724000D03*
X217170000Y-189484000D03*
X184150000Y-189484000D03*
D21*
X196580000Y-193934000D03*
X194580000Y-193934000D03*
X194580000Y-191934000D03*
X196580000Y-191934000D03*
X196580000Y-195934000D03*
X194580000Y-195934000D03*
D20*
X181610000Y-189484000D03*
D11*
X143718280Y-131018280D03*
D14*
X149136100Y-144756000D03*
D15*
X146596100Y-144756000D03*
X144056100Y-144756000D03*
D14*
X146392900Y-246366860D03*
D15*
X143852900Y-246366860D03*
D22*
X160149000Y-263225000D03*
X161419000Y-260685000D03*
X162689000Y-263225000D03*
X163959000Y-260685000D03*
X165229000Y-263225000D03*
X166499000Y-260685000D03*
X167769000Y-263225000D03*
X169039000Y-260685000D03*
D23*
X158269000Y-274655000D03*
X160809000Y-272865000D03*
X168379000Y-274655000D03*
X170919000Y-272865000D03*
D24*
X158879000Y-269575000D03*
X170309000Y-269575000D03*
D25*
X156719000Y-266525000D03*
X172469000Y-266525000D03*
D14*
X149136100Y-177268000D03*
D15*
X146596100Y-177268000D03*
X144056100Y-177268000D03*
D26*
X256798931Y-261569576D03*
X264672931Y-261569576D03*
X167616488Y-148740700D03*
X175490488Y-148740700D03*
X220714712Y-148740700D03*
X228588712Y-148740700D03*
X224721008Y-259525800D03*
X216847008Y-259525800D03*
X189083216Y-259525800D03*
X181209216Y-259525800D03*
X185094036Y-148740700D03*
X192968036Y-148740700D03*
X202898024Y-148740700D03*
X210772024Y-148740700D03*
X238531400Y-148740700D03*
X246405400Y-148740700D03*
X206902004Y-259525800D03*
X199028004Y-259525800D03*
X256348088Y-148740700D03*
X264222088Y-148740700D03*
M02*
