M48
; DRILL file {KiCad 7.0.7} date 2024 April 12, Friday 20:38:07
; FORMAT={-:-/ absolute / metric / decimal}
; #@! TF.CreationDate,2024-04-12T20:38:07-05:00
; #@! TF.GenerationSoftware,Kicad,Pcbnew,7.0.7
; #@! TF.FileFunction,Plated,1,2,PTH
FMAT,2
METRIC
; #@! TA.AperFunction,Plated,PTH,ViaDrill
T1C0.400
; #@! TA.AperFunction,Plated,PTH,ComponentDrill
T2C0.700
; #@! TA.AperFunction,Plated,PTH,ComponentDrill
T3C0.800
; #@! TA.AperFunction,Plated,PTH,ComponentDrill
T4C0.889
; #@! TA.AperFunction,Plated,PTH,ComponentDrill
T5C0.900
; #@! TA.AperFunction,Plated,PTH,ComponentDrill
T6C1.000
; #@! TA.AperFunction,Plated,PTH,ComponentDrill
T7C1.020
; #@! TA.AperFunction,Plated,PTH,ComponentDrill
T8C1.500
; #@! TA.AperFunction,Plated,PTH,ComponentDrill
T9C1.600
; #@! TA.AperFunction,Plated,PTH,ComponentDrill
T10C2.000
; #@! TA.AperFunction,Plated,PTH,ComponentDrill
T11C3.250
%
G90
G05
T1
X32.258Y-59.69
X32.447Y-152.651
X32.447Y-163.954
X32.512Y-84.074
X32.512Y-95.504
X32.512Y-106.934
X32.512Y-118.364
X32.512Y-129.794
X32.512Y-141.224
X37.084Y-85.852
X37.084Y-153.162
X37.338Y-143.51
X37.592Y-97.79
X37.592Y-108.966
X37.592Y-120.65
X37.592Y-131.572
X37.846Y-76.507
X37.846Y-77.777
X37.846Y-79.047
X37.846Y-80.317
X37.846Y-87.683
X37.846Y-88.953
X37.846Y-90.223
X37.846Y-91.493
X37.846Y-99.367
X37.846Y-100.637
X37.846Y-101.907
X37.846Y-103.177
X37.846Y-110.797
X37.846Y-112.067
X37.846Y-113.337
X37.846Y-114.607
X37.846Y-122.227
X37.846Y-123.497
X37.846Y-124.767
X37.846Y-126.037
X37.846Y-133.657
X37.846Y-134.927
X37.846Y-136.197
X37.846Y-137.467
X37.846Y-145.087
X37.846Y-146.357
X37.846Y-147.627
X37.846Y-148.897
X37.846Y-156.517
X37.846Y-157.787
X37.846Y-159.057
X37.846Y-160.327
X40.16Y-96.573
X40.16Y-119.687
X40.16Y-142.547
X40.894Y-165.661
X43.688Y-172.974
X44.196Y-58.836
X44.196Y-61.468
X49.225Y-132.387
X49.239Y-109.527
X49.239Y-155.501
X49.493Y-86.921
X50.673Y-172.847
X52.527Y-142.039
X52.795Y-119.433
X52.795Y-165.153
X52.832Y-28.448
X53.049Y-96.065
X53.594Y-58.99
X53.848Y-30.875
X53.848Y-169.164
X54.102Y-44.351
X54.602Y-51.943
X54.61Y-68.326
X54.864Y-106.426
X54.864Y-107.696
X54.864Y-108.966
X54.864Y-110.236
X54.864Y-114.3
X54.864Y-115.57
X54.864Y-116.84
X54.864Y-118.11
X54.864Y-129.286
X54.864Y-130.556
X54.864Y-131.826
X54.864Y-133.096
X54.864Y-137.16
X54.864Y-138.43
X54.864Y-139.7
X54.864Y-140.97
X54.864Y-160.274
X54.864Y-161.544
X54.864Y-162.814
X54.864Y-164.084
X55.118Y-83.566
X55.118Y-84.836
X55.118Y-86.106
X55.118Y-87.376
X55.118Y-91.44
X55.118Y-92.71
X55.118Y-93.98
X55.118Y-95.25
X55.118Y-152.146
X55.118Y-153.416
X55.118Y-154.686
X55.118Y-155.956
X55.618Y-46.544
X55.618Y-50.1
X56.889Y-46.544
X56.889Y-50.1
X57.404Y-181.864
X58.158Y-46.544
X58.158Y-50.1
X58.42Y-106.426
X58.42Y-107.696
X58.42Y-108.966
X58.42Y-110.236
X58.42Y-114.3
X58.42Y-115.57
X58.42Y-116.84
X58.42Y-118.11
X58.42Y-129.286
X58.42Y-130.556
X58.42Y-131.826
X58.42Y-133.096
X58.42Y-137.16
X58.42Y-138.43
X58.42Y-139.7
X58.42Y-140.97
X58.42Y-160.274
X58.42Y-161.544
X58.42Y-162.814
X58.42Y-164.084
X58.674Y-83.566
X58.674Y-84.836
X58.674Y-86.106
X58.674Y-87.376
X58.674Y-91.44
X58.674Y-92.71
X58.674Y-93.98
X58.674Y-95.25
X58.674Y-152.146
X58.674Y-153.416
X58.674Y-154.686
X58.674Y-155.956
X59.428Y-46.544
X59.428Y-50.1
X59.436Y-29.21
X59.653Y-118.925
X59.682Y-59.76
X59.69Y-64.516
X59.907Y-87.683
X59.907Y-164.645
X60.147Y-133.149
X60.147Y-141.531
X60.161Y-95.811
X60.161Y-110.543
X60.161Y-156.263
X60.69Y-61.217
X60.706Y-29.21
X61.468Y-70.612
X61.722Y-77.47
X61.976Y-29.21
X61.976Y-73.152
X62.484Y-64.417
X62.484Y-71.882
X62.984Y-51.943
X63.246Y-29.21
X63.43Y-71.42
X63.492Y-46.544
X63.492Y-50.1
X63.754Y-78.232
X63.754Y-169.418
X64.262Y-41.049
X64.262Y-70.866
X64.763Y-46.544
X64.763Y-50.1
X66.032Y-46.544
X66.032Y-50.1
X67.056Y-24.892
X67.302Y-46.544
X67.302Y-50.1
X67.861Y-165.917
X68.021Y-142.801
X68.035Y-119.941
X68.289Y-90.731
X68.289Y-96.827
X68.496Y-159.272
X68.539Y-113.333
X68.58Y-79.502
X68.58Y-104.648
X68.58Y-127.762
X68.583Y-136.307
X68.834Y-150.622
X69.088Y-82.042
X70.358Y-61.722
X70.612Y-29.21
X70.866Y-65.024
X70.866Y-69.596
X70.91Y-113.01
X71.069Y-135.943
X71.083Y-90.223
X71.083Y-158.803
X71.882Y-29.21
X72.39Y-91.186
X72.39Y-136.906
X72.39Y-159.766
X72.644Y-168.91
X72.898Y-104.14
X73.152Y-29.21
X73.152Y-134.165
X73.152Y-157.025
X73.406Y-88.445
X73.406Y-97.79
X73.406Y-124.46
X73.66Y-101.092
X73.66Y-111.305
X73.66Y-165.1
X73.914Y-120.904
X73.914Y-144.018
X74.422Y-29.21
X74.676Y-80.518
X74.676Y-148.082
X75.438Y-181.102
X75.946Y-28.702
X76.454Y-65.024
X76.454Y-69.596
X76.962Y-168.91
X76.964Y-59.163
X77.178Y-44.097
X77.216Y-30.508
X77.47Y-51.717
X77.978Y-101.346
X78.232Y-24.892
X78.232Y-97.282
X78.486Y-46.383
X78.486Y-49.685
X78.486Y-165.1
X78.486Y-177.038
X78.994Y-121.158
X78.994Y-124.714
X79.502Y-144.018
X79.756Y-46.383
X79.756Y-49.685
X80.01Y-148.082
X80.01Y-156.972
X80.264Y-88.392
X80.264Y-134.112
X81.026Y-46.383
X81.026Y-49.685
X81.026Y-110.998
X81.28Y-81.788
X81.28Y-90.678
X81.28Y-104.648
X81.28Y-113.538
X81.28Y-127.508
X81.28Y-135.89
X81.28Y-150.114
X81.28Y-159.004
X81.534Y-75.184
X82.296Y-29.21
X82.296Y-46.383
X82.296Y-49.685
X83.204Y-78.594
X83.308Y-59.629
X83.312Y-88.161
X83.566Y-29.21
X83.566Y-61.877
X84.111Y-103.378
X84.328Y-71.12
X84.836Y-29.21
X85.064Y-131.318
X85.09Y-72.39
X85.09Y-81.534
X85.344Y-64.516
X85.344Y-156.464
X85.56Y-82.55
X85.852Y-51.971
X86.042Y-133.977
X86.106Y-29.21
X86.106Y-72.898
X86.36Y-46.383
X86.36Y-49.685
X86.36Y-105.918
X86.441Y-151.384
X86.513Y-133.096
X86.614Y-70.612
X86.767Y-110.941
X86.767Y-112.014
X86.813Y-109.856
X86.868Y-175.514
X86.905Y-93.218
X87.218Y-134.874
X87.376Y-40.386
X87.427Y-80.823
X87.441Y-151.384
X87.63Y-46.383
X87.63Y-49.685
X87.835Y-95.758
X87.835Y-101.854
X88.646Y-81.026
X88.9Y-46.383
X88.9Y-49.685
X89.662Y-24.892
X90.17Y-46.383
X90.17Y-49.685
X90.932Y-160.528
X91.186Y-175.26
X91.748Y-150.659
X91.948Y-83.566
X93.218Y-149.86
X93.472Y-29.21
X93.472Y-60.198
X94.234Y-66.04
X94.234Y-70.104
X94.488Y-150.622
X94.742Y-29.21
X94.996Y-154.278
X95.758Y-91.694
X95.758Y-150.622
X96.012Y-29.21
X96.266Y-89.662
X96.266Y-147.574
X96.774Y-105.664
X96.78Y-109.474
X97.02Y-146.821
X97.028Y-87.884
X97.099Y-149.897
X97.282Y-29.21
X97.282Y-93.218
X97.505Y-145.288
X98.384Y-146.242
X98.806Y-28.194
X98.806Y-66.04
X98.806Y-70.612
X99.314Y-175.26
X99.5Y-147.535
X99.822Y-30.734
X100.546Y-44.097
X100.588Y-111.76
X100.838Y-51.463
X100.838Y-58.321
X100.838Y-148.322
X101.092Y-24.892
X101.329Y-126.746
X101.346Y-46.482
X101.346Y-50.038
X102.379Y-126.746
X102.616Y-46.482
X102.616Y-50.038
X103.378Y-128.016
X103.378Y-160.02
X103.886Y-46.482
X103.886Y-50.038
X103.886Y-150.622
X105.156Y-29.21
X105.156Y-46.482
X105.156Y-50.038
X105.41Y-59.337
X106.422Y-61.373
X106.426Y-29.21
X106.68Y-85.852
X106.68Y-116.332
X106.68Y-157.226
X107.182Y-76.702
X107.188Y-70.612
X107.696Y-29.21
X107.696Y-113.538
X107.912Y-72.659
X108.204Y-64.77
X108.204Y-80.772
X108.712Y-132.842
X108.966Y-29.21
X108.966Y-51.209
X108.966Y-79.756
X109.183Y-75.374
X109.22Y-46.482
X109.22Y-50.038
X109.22Y-70.612
X109.22Y-103.886
X109.22Y-173.736
X109.45Y-123.731
X110.236Y-40.795
X110.236Y-72.136
X110.49Y-46.482
X110.49Y-50.038
X110.744Y-118.11
X111.275Y-95.758
X111.491Y-79.018
X111.506Y-151.421
X111.745Y-98.322
X111.76Y-46.482
X111.76Y-50.038
X111.99Y-122.96
X112.243Y-79.763
X112.507Y-100.862
X112.522Y-24.892
X112.752Y-110.006
X112.761Y-80.617
X113.03Y-46.482
X113.03Y-50.038
X113.26Y-122.96
X113.584Y-110.56
X114.046Y-112.014
X114.784Y-122.96
X115.529Y-112.014
X115.8Y-122.96
X116.332Y-29.21
X116.586Y-59.944
X116.586Y-152.146
X116.816Y-111.53
X117.07Y-118.134
X117.348Y-174.244
X117.578Y-113.562
X117.602Y-29.21
X117.602Y-65.024
X117.602Y-69.342
X118.594Y-118.134
X118.872Y-29.21
X118.989Y-112.508
X119.126Y-159.512
X119.182Y-128.839
X119.864Y-118.134
X120.142Y-29.21
X120.142Y-85.344
X120.142Y-91.186
X120.142Y-97.282
X120.142Y-102.87
X120.142Y-108.966
X120.142Y-181.102
X120.65Y-148.59
X120.65Y-171.958
X120.65Y-173.736
X121.158Y-118.134
X121.158Y-120.033
X121.158Y-122.174
X121.412Y-65.024
X121.666Y-28.702
X122.174Y-69.596
X122.428Y-128.27
X122.682Y-30.762
X122.682Y-59.337
X122.682Y-124.206
X122.682Y-149.352
X122.936Y-166.878
X123.152Y-44.351
X123.19Y-132.588
X123.444Y-51.717
X123.937Y-133.882
X124.191Y-115.011
X124.206Y-24.892
X124.206Y-46.228
X124.206Y-49.784
X124.206Y-128.27
X124.206Y-164.846
X125.476Y-46.228
X125.476Y-49.784
X125.984Y-128.27
X126.368Y-166.998
X126.43Y-173.99
X126.492Y-161.528
X126.492Y-182.118
X126.691Y-118.055
X126.746Y-46.228
X126.746Y-49.784
X126.746Y-124.206
X127.0Y-94.488
X127.0Y-100.584
X127.0Y-106.426
X127.254Y-88.9
X127.508Y-149.606
X127.762Y-29.21
X127.762Y-85.344
X127.762Y-122.936
X127.992Y-114.832
X128.016Y-46.228
X128.016Y-49.784
X128.016Y-156.21
X128.561Y-172.367
X129.032Y-29.21
X129.266Y-122.956
X129.286Y-60.099
X129.44Y-62.639
X129.516Y-124.484
X129.54Y-75.769
X129.834Y-111.82
X130.048Y-70.358
X130.302Y-29.21
X130.532Y-118.134
X130.532Y-122.96
X130.556Y-72.898
X130.556Y-128.27
X131.064Y-64.77
X131.572Y-29.21
X131.572Y-165.278
X131.609Y-171.958
X131.826Y-51.463
X131.826Y-114.554
X132.08Y-46.228
X132.08Y-49.784
X132.08Y-72.644
X132.334Y-70.358
X132.588Y-41.049
X132.588Y-143.764
X132.842Y-76.2
X132.842Y-121.666
X133.096Y-112.776
X133.096Y-120.033
X133.35Y-46.228
X133.35Y-49.784
X133.871Y-118.134
X134.596Y-122.96
X134.62Y-46.228
X134.62Y-49.784
X134.62Y-157.988
X135.382Y-85.344
X135.382Y-91.186
X135.382Y-97.028
X135.382Y-102.87
X135.382Y-108.966
X135.636Y-24.892
X135.636Y-151.638
X135.866Y-114.578
X135.866Y-122.96
X135.89Y-46.228
X135.89Y-49.784
X136.882Y-124.484
X136.891Y-79.526
X137.136Y-119.912
X137.644Y-123.214
X138.684Y-60.452
X139.192Y-29.21
X139.737Y-166.624
X139.991Y-174.752
X140.462Y-29.21
X140.462Y-68.834
X140.716Y-65.024
X141.142Y-118.134
X141.354Y-166.998
X141.354Y-168.267
X141.354Y-169.537
X141.354Y-170.808
X141.354Y-175.125
X141.354Y-176.395
X141.354Y-177.665
X141.354Y-178.935
X141.478Y-112.776
X141.732Y-29.21
X141.732Y-83.566
X141.732Y-106.68
X141.986Y-89.408
X141.986Y-94.996
X141.986Y-100.838
X141.986Y-138.938
X143.002Y-29.21
X143.495Y-79.526
X143.495Y-116.61
X143.495Y-131.088
X144.22Y-119.658
X144.272Y-68.834
X144.272Y-121.158
X144.526Y-28.702
X144.78Y-65.024
X144.91Y-166.998
X144.91Y-168.267
X144.91Y-169.537
X144.91Y-170.808
X144.91Y-175.125
X144.91Y-176.395
X144.91Y-177.665
X144.91Y-178.935
X145.542Y-30.734
X145.542Y-140.462
X145.544Y-59.163
X146.05Y-44.351
X146.558Y-51.209
X146.812Y-24.892
X147.066Y-46.228
X147.066Y-49.784
X147.103Y-166.116
X148.336Y-46.228
X148.336Y-49.784
X149.606Y-46.228
X149.606Y-49.784
X150.405Y-175.514
X150.622Y-29.21
X150.876Y-46.228
X150.876Y-49.784
X151.39Y-59.761
X151.892Y-29.21
X151.895Y-62.131
X152.4Y-76.668
X152.654Y-70.866
X153.162Y-29.21
X153.379Y-72.898
X153.924Y-64.77
X154.178Y-82.296
X154.432Y-29.21
X154.432Y-77.118
X154.686Y-51.463
X154.686Y-70.866
X154.94Y-46.228
X154.94Y-49.784
X155.702Y-40.795
X155.702Y-72.39
X156.21Y-46.228
X156.21Y-49.784
X156.21Y-75.184
X156.718Y-94.488
X156.972Y-81.345
X157.48Y-46.228
X157.48Y-49.784
X157.734Y-109.474
X158.496Y-24.892
X158.75Y-46.228
X158.75Y-49.784
X159.027Y-116.355
X159.258Y-96.266
X159.512Y-88.392
X160.466Y-165.354
X160.528Y-113.538
X160.782Y-99.568
X161.036Y-92.964
X161.798Y-59.944
X161.99Y-170.18
X161.99Y-171.45
X161.99Y-172.72
X161.99Y-173.99
X161.99Y-181.61
X161.99Y-182.88
X161.99Y-184.15
X161.99Y-185.42
X162.052Y-29.21
X163.068Y-70.358
X163.322Y-29.21
X163.576Y-111.506
X163.83Y-65.024
X164.043Y-80.796
X164.084Y-122.936
X164.551Y-118.134
X164.592Y-24.892
X164.592Y-29.21
X165.354Y-108.677
X165.608Y-112.522
X165.862Y-29.21
X165.862Y-129.032
X166.624Y-111.506
X166.878Y-113.887
X168.402Y-99.822
X168.402Y-102.108
X168.656Y-70.104
X169.164Y-104.394
X169.164Y-135.89
X169.418Y-65.278
X169.683Y-111.252
X169.926Y-113.284
X170.602Y-108.88
X171.704Y-93.98
X171.785Y-97.489
T2
X98.384Y-96.306
X98.384Y-98.306
X100.384Y-96.306
X100.384Y-98.306
X102.384Y-96.306
X102.384Y-98.306
T3
X26.876Y-99.822
X26.924Y-145.542
X26.964Y-122.682
X29.376Y-99.822
X29.464Y-122.682
X30.424Y-145.542
X89.594Y-83.336
X89.594Y-85.876
X89.594Y-88.416
X89.594Y-90.956
X89.594Y-93.496
X89.594Y-96.036
X89.594Y-98.576
X89.594Y-101.116
X89.594Y-103.656
X89.594Y-106.196
X89.594Y-108.736
X89.594Y-111.276
X89.594Y-113.816
X89.594Y-116.356
X89.594Y-118.896
X89.594Y-121.436
X89.594Y-123.976
X89.594Y-126.516
X89.594Y-129.056
X89.594Y-131.596
X89.594Y-134.136
X89.594Y-136.676
X89.594Y-139.216
X89.594Y-141.756
X104.834Y-83.336
X104.834Y-85.876
X104.834Y-88.416
X104.834Y-90.956
X104.834Y-93.496
X104.834Y-96.036
X104.834Y-98.576
X104.834Y-101.116
X104.834Y-103.656
X104.834Y-106.196
X104.834Y-108.736
X104.834Y-111.276
X104.834Y-113.816
X104.834Y-116.356
X104.834Y-118.896
X104.834Y-121.436
X104.834Y-123.976
X104.834Y-126.516
X104.834Y-129.056
X104.834Y-131.596
X104.834Y-134.136
X104.834Y-136.676
X104.834Y-139.216
X104.834Y-141.756
X150.077Y-85.437
X152.077Y-85.437
X154.077Y-85.437
T4
X96.393Y-172.72
X96.393Y-175.26
X96.393Y-177.8
X132.969Y-155.448
X132.969Y-157.988
X132.969Y-160.528
T5
X87.376Y-155.956
X87.376Y-161.798
X87.376Y-161.798
X89.916Y-155.956
X89.916Y-161.798
X92.456Y-155.956
X92.456Y-161.798
X94.996Y-155.956
X94.996Y-155.956
X94.996Y-161.798
X100.838Y-155.956
X100.838Y-161.798
X100.838Y-161.798
X103.378Y-155.956
X103.378Y-161.798
X105.918Y-155.956
X105.918Y-161.798
X108.458Y-155.956
X108.458Y-155.956
X108.458Y-161.798
X114.3Y-140.208
X114.3Y-155.956
X114.3Y-161.798
X114.3Y-161.798
X116.84Y-140.208
X116.84Y-155.956
X116.84Y-161.798
X119.38Y-140.208
X119.38Y-155.956
X119.38Y-161.798
X121.92Y-140.208
X121.92Y-140.208
X121.92Y-155.956
X121.92Y-155.956
X121.92Y-161.798
X149.156Y-90.771
X149.156Y-93.311
X149.156Y-98.899
X149.156Y-101.439
X149.156Y-107.027
X149.156Y-109.567
X149.156Y-115.155
X149.156Y-117.695
X149.156Y-123.283
X149.156Y-125.823
X149.156Y-131.411
X149.156Y-133.951
X152.371Y-142.391
X152.371Y-144.931
X152.371Y-147.471
X152.371Y-150.011
X154.911Y-143.661
X154.911Y-146.201
X154.911Y-148.741
X154.911Y-151.281
X154.998Y-90.898
X154.998Y-93.438
X154.998Y-99.026
X154.998Y-101.566
X154.998Y-107.154
X154.998Y-109.694
X154.998Y-115.282
X154.998Y-117.822
X154.998Y-123.41
X154.998Y-125.95
X154.998Y-131.538
X154.998Y-134.078
T6
X26.832Y-172.212
X31.832Y-172.212
T7
X164.551Y-140.511
X164.551Y-150.621
X166.341Y-143.051
X166.341Y-153.161
T8
X147.977Y-85.437
X156.177Y-85.437
T9
X158.211Y-138.961
X158.211Y-154.711
T11
X161.261Y-141.121
X161.261Y-152.551
T10
X39.717Y-177.103G85X41.817Y-177.103
G05
X46.719Y-128.998G85X46.719Y-131.098
G05
X46.719Y-136.872G85X46.719Y-138.972
G05
X46.733Y-36.415G85X46.733Y-38.515
G05
X46.733Y-44.289G85X46.733Y-46.389
G05
X46.733Y-83.278G85X46.733Y-85.378
G05
X46.733Y-91.152G85X46.733Y-93.252
G05
X46.733Y-106.138G85X46.733Y-108.238
G05
X46.733Y-114.012G85X46.733Y-116.112
G05
X46.733Y-151.858G85X46.733Y-153.958
G05
X46.733Y-159.732G85X46.733Y-161.832
G05
X47.591Y-177.103G85X49.691Y-177.103
G05
X59.777Y-38.035G85X57.677Y-38.035
G05
X67.651Y-38.035G85X65.551Y-38.035
G05
X82.637Y-38.035G85X80.537Y-38.035
G05
X90.511Y-38.035G85X88.411Y-38.035
G05
X105.497Y-38.035G85X103.397Y-38.035
G05
X113.371Y-38.035G85X111.271Y-38.035
G05
X128.357Y-38.035G85X126.257Y-38.035
G05
X136.231Y-38.035G85X134.131Y-38.035
G05
X151.217Y-38.035G85X149.117Y-38.035
G05
X153.165Y-170.775G85X153.165Y-168.675
G05
X153.165Y-178.649G85X153.165Y-176.549
G05
X159.091Y-38.035G85X156.991Y-38.035
G05
T0
M30
