%TF.GenerationSoftware,KiCad,Pcbnew,(5.1.12-1-g0a0a2da680)-1*%
%TF.CreationDate,2022-03-16T13:11:04-05:00*%
%TF.ProjectId,ArmBoard_Hardware,41726d42-6f61-4726-945f-486172647761,2*%
%TF.SameCoordinates,Original*%
%TF.FileFunction,Soldermask,Bot*%
%TF.FilePolarity,Negative*%
%FSLAX46Y46*%
G04 Gerber Fmt 4.6, Leading zero omitted, Abs format (unit mm)*
G04 Created by KiCad (PCBNEW (5.1.12-1-g0a0a2da680)-1) date 2022-03-16 13:11:04*
%MOMM*%
%LPD*%
G01*
G04 APERTURE LIST*
%ADD10C,1.524000*%
%ADD11C,1.520000*%
%ADD12O,5.100000X3.000000*%
%ADD13C,2.946400*%
G04 APERTURE END LIST*
D10*
%TO.C,OKI1*%
X221805500Y-187960000D03*
X224345500Y-187960000D03*
X226885500Y-187960000D03*
%TD*%
D11*
%TO.C,U1*%
X165862000Y-117411500D03*
X143002000Y-163131500D03*
X145542000Y-163131500D03*
X153162000Y-163131500D03*
X155702000Y-119951500D03*
X150622000Y-163131500D03*
X148082000Y-163131500D03*
X150622000Y-117411500D03*
X145542000Y-119951500D03*
X155702000Y-163131500D03*
X158242000Y-163131500D03*
X145542000Y-117411500D03*
X150622000Y-119951500D03*
X153162000Y-119951500D03*
X165862000Y-119951500D03*
X163322000Y-119951500D03*
X160782000Y-119951500D03*
X158242000Y-119951500D03*
X148082000Y-119951500D03*
X143002000Y-119951500D03*
X163322000Y-117411500D03*
X160782000Y-117411500D03*
X158242000Y-117411500D03*
X155702000Y-117411500D03*
X153162000Y-117411500D03*
X148082000Y-117411500D03*
X143002000Y-117411500D03*
X165862000Y-160591500D03*
X163322000Y-160591500D03*
X160782000Y-160591500D03*
X158242000Y-160591500D03*
X155702000Y-160591500D03*
X153162000Y-160591500D03*
X150622000Y-160591500D03*
X148082000Y-160591500D03*
X145542000Y-160591500D03*
X143002000Y-160591500D03*
X165862000Y-163131500D03*
X163322000Y-163131500D03*
X160782000Y-163131500D03*
X229362000Y-119951500D03*
X226822000Y-119951500D03*
X224282000Y-119951500D03*
X221742000Y-119951500D03*
X219202000Y-119951500D03*
X216662000Y-119951500D03*
X214122000Y-119951500D03*
X211582000Y-119951500D03*
X209042000Y-119951500D03*
X206502000Y-119951500D03*
X229362000Y-117411500D03*
X226822000Y-117411500D03*
X224282000Y-117411500D03*
X221742000Y-117411500D03*
X219202000Y-117411500D03*
X216662000Y-117411500D03*
X214122000Y-117411500D03*
X211582000Y-117411500D03*
X209042000Y-117411500D03*
X206502000Y-117411500D03*
X229362000Y-160591500D03*
X226822000Y-160591500D03*
X224282000Y-160591500D03*
X221742000Y-160591500D03*
X219202000Y-160591500D03*
X216662000Y-160591500D03*
X214122000Y-160591500D03*
X211582000Y-160591500D03*
X209042000Y-160591500D03*
X206502000Y-160591500D03*
X229362000Y-163131500D03*
X226822000Y-163131500D03*
X224282000Y-163131500D03*
X221742000Y-163131500D03*
X219202000Y-163131500D03*
X216662000Y-163131500D03*
X214122000Y-163131500D03*
X211582000Y-163131500D03*
X209042000Y-163131500D03*
X206502000Y-163131500D03*
%TD*%
D12*
%TO.C,PowerConn1*%
X204304200Y-220639500D03*
X188556200Y-220639500D03*
X196430200Y-220639500D03*
%TD*%
%TO.C,Conn7*%
X220417300Y-49663400D03*
X212543300Y-49663400D03*
%TD*%
%TO.C,Conn6*%
X198713000Y-49663400D03*
X190839000Y-49663400D03*
%TD*%
%TO.C,Conn5*%
X165540600Y-49663400D03*
X157666600Y-49663400D03*
%TD*%
%TO.C,Conn4*%
X143645800Y-49663400D03*
X135771800Y-49663400D03*
%TD*%
%TO.C,Conn3*%
X116653400Y-220639500D03*
X124527400Y-220639500D03*
%TD*%
%TO.C,Conn2*%
X140491300Y-220639500D03*
X148365300Y-220639500D03*
%TD*%
%TO.C,Conn1*%
X164316500Y-220618000D03*
X172190500Y-220618000D03*
%TD*%
D13*
%TO.C,V2*%
X107878880Y-232036120D03*
%TD*%
%TO.C,V4*%
X244800120Y-232100120D03*
%TD*%
%TO.C,V3*%
X107878880Y-38282880D03*
%TD*%
%TO.C,V1*%
X244800120Y-38346380D03*
%TD*%
D10*
%TO.C,Conn20*%
X237185000Y-188570000D03*
X239725000Y-188570000D03*
%TD*%
%TO.C,Conn16*%
X237185000Y-196190000D03*
X239725000Y-196190000D03*
%TD*%
%TO.C,Conn12*%
X237185000Y-204445000D03*
X239725000Y-204445000D03*
%TD*%
%TO.C,Conn21*%
X239662000Y-173410000D03*
X237122000Y-173410000D03*
%TD*%
%TO.C,Conn8*%
X239662000Y-181013000D03*
X237122000Y-181013000D03*
%TD*%
%TO.C,Conn19*%
X222796000Y-204381000D03*
X225336000Y-204381000D03*
%TD*%
%TO.C,Conn18*%
X233413000Y-46926500D03*
X235953000Y-46926500D03*
X238493000Y-46926500D03*
%TD*%
%TO.C,Conn17*%
X233413000Y-57281200D03*
X235953000Y-57281200D03*
X238493000Y-57281200D03*
%TD*%
%TO.C,Conn14*%
X233413000Y-67636000D03*
X235953000Y-67636000D03*
X238493000Y-67636000D03*
%TD*%
%TO.C,Conn13*%
X233413000Y-77991000D03*
X235953000Y-77991000D03*
X238493000Y-77991000D03*
%TD*%
%TO.C,Conn11*%
X237185000Y-212700000D03*
X239725000Y-212700000D03*
%TD*%
%TO.C,Conn10*%
X230175000Y-227140000D03*
X232715000Y-227140000D03*
X235255000Y-227140000D03*
%TD*%
%TO.C,Conn9*%
X217475000Y-227140000D03*
X220015000Y-227140000D03*
X222555000Y-227140000D03*
%TD*%
%TO.C,Conn15*%
X215074000Y-204432000D03*
X212534000Y-204432000D03*
%TD*%
M02*
