M48
; DRILL file {KiCad (6.0.7)} date Mon Mar 20 21:56:41 2023
; FORMAT={-:-/ absolute / metric / decimal}
; #@! TF.CreationDate,2023-03-20T21:56:41-05:00
; #@! TF.GenerationSoftware,Kicad,Pcbnew,(6.0.7)
; #@! TF.FileFunction,Plated,1,2,PTH
FMAT,2
METRIC
; #@! TA.AperFunction,Plated,PTH,ViaDrill
T1C0.400
; #@! TA.AperFunction,Plated,PTH,ComponentDrill
T2C0.700
; #@! TA.AperFunction,Plated,PTH,ComponentDrill
T3C0.800
; #@! TA.AperFunction,Plated,PTH,ComponentDrill
T4C0.889
; #@! TA.AperFunction,Plated,PTH,ComponentDrill
T5C0.900
; #@! TA.AperFunction,Plated,PTH,ComponentDrill
T6C1.020
; #@! TA.AperFunction,Plated,PTH,ComponentDrill
T7C1.090
; #@! TA.AperFunction,Plated,PTH,ComponentDrill
T8C1.500
; #@! TA.AperFunction,Plated,PTH,ComponentDrill
T9C1.600
; #@! TA.AperFunction,Plated,PTH,ComponentDrill
T10C2.000
; #@! TA.AperFunction,Plated,PTH,ComponentDrill
T11C3.250
%
G90
G05
T1
X142.24Y-142.24
X142.24Y-152.4
X142.24Y-162.56
X142.24Y-172.72
X142.24Y-182.88
X142.24Y-193.04
X142.24Y-203.2
X142.24Y-213.36
X142.24Y-223.52
X142.24Y-233.68
X142.24Y-243.84
X142.24Y-254.0
X142.24Y-264.16
X147.32Y-137.16
X147.32Y-259.08
X147.32Y-269.24
X149.606Y-192.024
X151.892Y-191.353
X152.4Y-132.08
X152.4Y-142.24
X152.4Y-254.0
X152.4Y-264.16
X152.4Y-274.32
X157.48Y-137.16
X157.48Y-157.48
X157.48Y-259.08
X157.48Y-279.4
X157.696Y-196.838
X157.696Y-204.966
X157.696Y-213.094
X157.696Y-221.222
X157.696Y-229.35
X157.696Y-237.478
X162.56Y-187.96
X162.56Y-243.84
X162.56Y-254.0
X162.56Y-274.32
X165.189Y-196.838
X165.189Y-204.966
X165.189Y-213.094
X165.189Y-221.222
X165.189Y-229.35
X165.189Y-237.478
X165.67Y-137.494
X165.67Y-140.669
X165.716Y-156.73
X165.716Y-160.159
X166.94Y-137.494
X166.94Y-140.669
X166.986Y-156.73
X166.986Y-160.159
X167.64Y-187.96
X167.64Y-243.84
X167.64Y-279.4
X167.894Y-174.244
X168.21Y-137.494
X168.21Y-140.669
X168.256Y-156.73
X168.256Y-160.159
X169.418Y-190.5
X169.418Y-191.77
X169.48Y-137.494
X169.48Y-140.669
X170.496Y-169.371
X171.385Y-170.387
X171.385Y-176.508
X172.72Y-132.08
X172.72Y-264.16
X172.72Y-274.32
X173.536Y-176.476
X173.544Y-137.494
X173.544Y-140.669
X173.59Y-156.73
X173.59Y-160.159
X174.808Y-179.456
X174.808Y-188.468
X174.814Y-137.494
X174.814Y-140.669
X174.86Y-156.73
X174.86Y-160.159
X175.533Y-189.213
X175.549Y-178.784
X176.084Y-137.494
X176.084Y-140.669
X176.13Y-156.73
X176.13Y-160.159
X176.276Y-178.054
X176.276Y-188.468
X176.853Y-218.879
X177.038Y-178.816
X177.038Y-189.23
X177.292Y-214.63
X177.354Y-137.494
X177.354Y-140.669
X177.559Y-219.586
X177.8Y-189.992
X177.8Y-274.32
X178.054Y-193.332
X178.266Y-220.293
X178.41Y-194.615
X178.973Y-221.0
X179.397Y-267.589
X179.397Y-270.764
X179.68Y-221.706
X179.832Y-170.942
X180.08Y-198.876
X180.086Y-200.914
X180.092Y-199.892
X180.553Y-248.246
X180.553Y-251.675
X180.594Y-152.908
X180.667Y-267.589
X180.667Y-270.764
X181.823Y-248.246
X181.823Y-251.675
X181.937Y-267.589
X181.937Y-270.764
X182.88Y-132.08
X182.88Y-218.44
X182.88Y-228.6
X182.88Y-279.4
X183.093Y-248.246
X183.093Y-251.675
X183.185Y-156.73
X183.185Y-160.159
X183.196Y-137.494
X183.196Y-140.669
X183.207Y-267.589
X183.207Y-270.764
X184.455Y-156.73
X184.455Y-160.159
X184.466Y-137.494
X184.466Y-140.669
X185.239Y-231.851
X185.239Y-237.871
X185.725Y-156.73
X185.725Y-160.159
X185.736Y-137.494
X185.736Y-140.669
X186.128Y-238.887
X186.752Y-176.483
X187.006Y-137.494
X187.006Y-140.669
X187.017Y-267.589
X187.017Y-270.764
X187.706Y-231.14
X187.96Y-198.12
X187.96Y-213.36
X187.96Y-223.52
X187.96Y-274.32
X188.022Y-169.371
X188.287Y-267.589
X188.287Y-270.764
X188.427Y-248.246
X188.427Y-251.675
X188.911Y-170.387
X188.911Y-176.508
X189.557Y-267.589
X189.557Y-270.764
X189.697Y-248.246
X189.697Y-251.675
X190.827Y-267.589
X190.827Y-270.764
X190.967Y-248.246
X190.967Y-251.675
X191.004Y-178.813
X191.059Y-156.73
X191.059Y-160.159
X191.062Y-176.476
X191.07Y-137.494
X191.07Y-140.669
X191.77Y-179.456
X192.329Y-156.73
X192.329Y-160.159
X192.34Y-137.494
X192.34Y-140.669
X193.04Y-132.08
X193.04Y-218.44
X193.04Y-279.4
X193.599Y-156.73
X193.599Y-160.159
X193.61Y-137.494
X193.61Y-140.669
X194.056Y-249.174
X194.31Y-229.362
X194.564Y-236.982
X194.88Y-137.494
X194.88Y-140.669
X195.072Y-230.124
X197.177Y-267.589
X197.177Y-270.764
X197.358Y-170.942
X198.12Y-152.908
X198.12Y-198.12
X198.12Y-213.36
X198.12Y-223.52
X198.12Y-274.32
X198.393Y-248.107
X198.393Y-251.536
X198.447Y-267.589
X198.447Y-270.764
X199.663Y-248.107
X199.663Y-251.536
X199.717Y-267.589
X199.717Y-270.764
X200.633Y-231.167
X200.933Y-248.107
X200.933Y-251.536
X200.968Y-156.591
X200.968Y-160.02
X200.976Y-137.494
X200.976Y-140.669
X200.987Y-267.589
X200.987Y-270.764
X201.194Y-230.34
X201.93Y-229.616
X202.238Y-156.591
X202.238Y-160.02
X202.246Y-137.494
X202.246Y-140.669
X203.019Y-231.877
X203.019Y-237.871
X203.2Y-132.08
X203.2Y-193.04
X203.2Y-203.2
X203.2Y-218.44
X203.2Y-279.4
X203.508Y-156.591
X203.508Y-160.02
X203.516Y-137.494
X203.516Y-140.669
X204.035Y-238.887
X204.532Y-176.483
X204.786Y-137.494
X204.786Y-140.669
X204.797Y-267.589
X204.797Y-270.764
X205.486Y-231.14
X205.802Y-169.371
X206.067Y-267.589
X206.067Y-270.764
X206.248Y-229.616
X206.267Y-248.107
X206.267Y-251.536
X206.691Y-170.387
X206.691Y-176.559
X207.01Y-228.854
X207.337Y-267.589
X207.337Y-270.764
X207.537Y-248.107
X207.537Y-251.536
X208.28Y-198.12
X208.28Y-213.36
X208.28Y-223.52
X208.28Y-274.32
X208.607Y-267.589
X208.607Y-270.764
X208.807Y-248.107
X208.807Y-251.536
X208.842Y-156.591
X208.842Y-160.02
X208.85Y-137.494
X208.85Y-140.669
X208.85Y-176.483
X210.112Y-156.591
X210.112Y-160.02
X210.12Y-137.494
X210.12Y-140.669
X211.382Y-156.591
X211.382Y-160.02
X211.39Y-137.494
X211.39Y-140.669
X211.582Y-249.174
X212.09Y-236.982
X212.66Y-137.494
X212.66Y-140.669
X213.36Y-132.08
X213.36Y-193.04
X213.36Y-203.2
X213.36Y-279.4
X214.884Y-208.534
X214.884Y-210.058
X214.957Y-267.589
X214.957Y-270.764
X215.138Y-170.942
X215.9Y-152.908
X216.216Y-248.234
X216.216Y-251.663
X216.227Y-267.589
X216.227Y-270.764
X217.486Y-248.234
X217.486Y-251.663
X217.497Y-267.589
X217.497Y-270.764
X217.932Y-226.06
X218.44Y-198.12
X218.44Y-208.28
X218.44Y-274.32
X218.667Y-231.167
X218.756Y-137.494
X218.756Y-140.669
X218.756Y-248.234
X218.756Y-251.663
X218.767Y-267.589
X218.767Y-270.764
X218.803Y-156.591
X218.803Y-160.02
X219.964Y-211.328
X219.964Y-213.868
X219.964Y-217.932
X220.026Y-137.494
X220.026Y-140.669
X220.073Y-156.591
X220.073Y-160.02
X220.087Y-216.94
X220.726Y-178.308
X220.85Y-231.648
X220.926Y-237.871
X221.296Y-137.494
X221.296Y-140.669
X221.343Y-156.591
X221.343Y-160.02
X221.45Y-179.324
X221.815Y-238.887
X222.312Y-176.483
X222.566Y-137.494
X222.566Y-140.669
X222.577Y-267.589
X222.577Y-270.764
X223.266Y-211.836
X223.266Y-215.9
X223.52Y-132.08
X223.52Y-193.04
X223.52Y-203.2
X223.52Y-208.28
X223.52Y-279.4
X223.709Y-169.371
X223.847Y-267.589
X223.847Y-270.764
X224.09Y-248.234
X224.09Y-251.663
X224.241Y-215.679
X224.282Y-234.442
X224.286Y-217.674
X224.547Y-176.712
X224.598Y-170.387
X225.117Y-267.589
X225.117Y-270.764
X225.36Y-248.234
X225.36Y-251.663
X226.387Y-267.589
X226.387Y-270.764
X226.63Y-137.494
X226.63Y-140.669
X226.63Y-248.234
X226.63Y-251.663
X226.677Y-156.591
X226.677Y-160.02
X226.884Y-176.483
X227.838Y-210.058
X227.838Y-213.36
X227.838Y-217.17
X227.9Y-137.494
X227.9Y-140.669
X227.947Y-156.591
X227.947Y-160.02
X228.6Y-198.12
X228.6Y-208.28
X228.6Y-274.32
X228.854Y-210.058
X229.17Y-137.494
X229.17Y-140.669
X229.217Y-156.591
X229.217Y-160.02
X229.87Y-178.054
X230.44Y-137.494
X230.44Y-140.669
X231.648Y-213.868
X232.414Y-183.384
X232.918Y-170.942
X233.68Y-132.08
X233.68Y-152.908
X233.68Y-184.404
X233.68Y-208.28
X233.68Y-228.6
X233.68Y-238.76
X233.68Y-259.08
X233.68Y-279.4
X234.95Y-210.058
X234.95Y-214.63
X236.22Y-222.504
X236.224Y-187.194
X236.436Y-217.17
X236.474Y-210.82
X236.6Y-156.591
X236.6Y-160.02
X236.663Y-137.494
X236.663Y-140.669
X237.87Y-156.591
X237.87Y-160.02
X237.933Y-137.494
X237.933Y-140.669
X238.76Y-198.12
X238.76Y-233.68
X238.76Y-243.84
X238.76Y-254.0
X238.76Y-274.32
X239.14Y-156.591
X239.14Y-160.02
X239.203Y-137.494
X239.203Y-140.669
X240.092Y-176.483
X240.473Y-137.494
X240.473Y-140.669
X241.489Y-169.371
X242.505Y-170.387
X242.505Y-176.483
X242.57Y-210.915
X242.57Y-212.364
X243.84Y-132.08
X243.84Y-193.04
X243.84Y-203.2
X243.84Y-228.6
X243.84Y-238.76
X243.84Y-259.08
X243.84Y-279.4
X244.474Y-156.591
X244.474Y-160.02
X244.537Y-137.494
X244.537Y-140.669
X244.918Y-176.483
X245.744Y-156.591
X245.744Y-160.02
X245.807Y-137.494
X245.807Y-140.669
X247.014Y-156.591
X247.014Y-160.02
X247.077Y-137.494
X247.077Y-140.669
X248.347Y-137.494
X248.347Y-140.669
X248.92Y-243.84
X248.92Y-254.0
X248.92Y-264.16
X248.92Y-274.32
X250.698Y-170.942
X251.46Y-152.908
X254.0Y-132.08
X254.0Y-189.992
X254.0Y-195.58
X254.0Y-201.168
X254.0Y-206.756
X254.0Y-212.344
X254.0Y-217.932
X254.0Y-223.52
X254.0Y-229.108
X254.0Y-234.696
X254.0Y-238.76
X254.0Y-248.92
X254.0Y-259.08
X254.0Y-269.24
X254.0Y-279.4
X254.443Y-137.494
X254.443Y-140.669
X254.443Y-156.677
X254.443Y-160.106
X255.713Y-137.494
X255.713Y-140.669
X255.713Y-156.677
X255.713Y-160.106
X256.983Y-137.494
X256.983Y-140.669
X256.983Y-156.677
X256.983Y-160.106
X257.872Y-176.483
X258.253Y-137.494
X258.253Y-140.669
X259.08Y-274.32
X259.269Y-169.371
X259.588Y-245.11
X260.285Y-170.387
X260.285Y-176.483
X262.317Y-137.494
X262.317Y-140.669
X262.317Y-156.677
X262.317Y-160.106
X262.89Y-173.736
X263.587Y-137.494
X263.587Y-140.669
X263.587Y-156.677
X263.587Y-160.106
X264.16Y-132.08
X264.16Y-269.24
X264.16Y-279.4
X264.857Y-137.494
X264.857Y-140.669
X264.857Y-156.677
X264.857Y-160.106
X266.127Y-137.494
X266.127Y-140.669
X269.24Y-137.16
X269.24Y-147.32
X269.24Y-157.48
X269.24Y-167.64
X269.24Y-177.8
X269.24Y-187.96
X269.24Y-198.12
X269.24Y-208.28
X269.24Y-218.44
X269.24Y-228.6
X269.24Y-238.76
X269.24Y-248.92
X269.24Y-259.08
X269.24Y-274.32
X274.32Y-142.24
X274.32Y-152.4
X274.32Y-162.56
X274.32Y-172.72
X274.32Y-182.88
X274.32Y-193.04
X274.32Y-203.2
X274.32Y-213.36
X274.32Y-223.52
X274.32Y-233.68
X274.32Y-243.84
X274.32Y-254.0
X274.32Y-264.16
X279.4Y-137.16
X279.4Y-147.32
X279.4Y-157.48
X279.4Y-167.64
X279.4Y-177.8
X279.4Y-187.96
X279.4Y-198.12
X279.4Y-208.28
X279.4Y-218.44
X279.4Y-228.6
X279.4Y-238.76
X279.4Y-248.92
X279.4Y-259.08
X279.4Y-269.24
T2
X194.58Y-191.934
X194.58Y-193.934
X194.58Y-195.934
X196.58Y-191.934
X196.58Y-193.934
X196.58Y-195.934
T3
X181.61Y-189.484
X181.61Y-204.724
X184.15Y-189.484
X184.15Y-204.724
X186.69Y-189.484
X186.69Y-204.724
X189.23Y-189.484
X189.23Y-204.724
X191.77Y-189.484
X191.77Y-204.724
X194.31Y-189.484
X194.31Y-204.724
X196.85Y-189.484
X196.85Y-204.724
X199.39Y-189.484
X199.39Y-204.724
X201.93Y-189.484
X201.93Y-204.724
X204.47Y-189.484
X204.47Y-204.724
X207.01Y-189.484
X207.01Y-204.724
X209.55Y-189.484
X209.55Y-204.724
X212.09Y-189.484
X212.09Y-204.724
X214.63Y-189.484
X214.63Y-204.724
X217.17Y-189.484
X217.17Y-204.724
X219.71Y-189.484
X219.71Y-204.724
X222.25Y-189.484
X222.25Y-204.724
X224.79Y-189.484
X224.79Y-204.724
X227.33Y-189.484
X227.33Y-204.724
X229.87Y-189.484
X229.87Y-204.724
X232.41Y-189.484
X232.41Y-204.724
X233.68Y-265.47
X233.68Y-267.97
X234.95Y-189.484
X234.95Y-204.724
X237.49Y-189.484
X237.49Y-204.724
X240.03Y-189.484
X240.03Y-204.724
X245.11Y-265.47
X245.11Y-267.97
X251.968Y-183.388
X253.968Y-183.388
X255.968Y-183.388
X259.628Y-255.27
X262.128Y-255.27
T4
X262.89Y-242.57
X262.89Y-245.11
X262.89Y-247.65
T5
X160.149Y-263.225
X161.419Y-260.685
X162.689Y-263.225
X163.959Y-260.685
X165.229Y-263.225
X166.499Y-260.685
X167.769Y-263.225
X169.039Y-260.685
T6
X158.269Y-274.655
X160.809Y-272.865
X168.379Y-274.655
X170.919Y-272.865
T7
X143.853Y-195.302
X143.853Y-203.43
X143.853Y-211.57
X143.853Y-219.698
X143.853Y-227.814
X143.853Y-235.942
X143.853Y-246.367
X144.056Y-144.756
X144.056Y-152.884
X144.056Y-161.024
X144.056Y-169.152
X144.056Y-177.268
X144.056Y-185.396
X146.393Y-195.302
X146.393Y-203.43
X146.393Y-211.57
X146.393Y-219.698
X146.393Y-227.814
X146.393Y-235.942
X146.393Y-246.367
X146.596Y-144.756
X146.596Y-152.884
X146.596Y-161.024
X146.596Y-169.152
X146.596Y-177.268
X146.596Y-185.396
X149.136Y-144.756
X149.136Y-152.884
X149.136Y-161.024
X149.136Y-169.152
X149.136Y-177.268
X149.136Y-185.396
X152.743Y-195.302
X152.743Y-203.43
X152.743Y-211.57
X152.743Y-219.686
X152.743Y-227.814
X152.743Y-235.942
X152.743Y-246.367
X155.283Y-195.302
X155.283Y-203.43
X155.283Y-211.57
X155.283Y-219.686
X155.283Y-227.814
X155.283Y-235.942
X155.283Y-246.367
T8
X249.868Y-183.388
X258.068Y-183.388
T9
X156.719Y-266.525
X172.469Y-266.525
T11
X158.879Y-269.575
X170.309Y-269.575
T10
X168.666Y-148.741G85X166.566Y-148.741
G05
X176.54Y-148.741G85X174.44Y-148.741
G05
X180.159Y-259.526G85X182.259Y-259.526
G05
X186.144Y-148.741G85X184.044Y-148.741
G05
X188.033Y-259.526G85X190.133Y-259.526
G05
X194.018Y-148.741G85X191.918Y-148.741
G05
X197.978Y-259.526G85X200.078Y-259.526
G05
X203.948Y-148.741G85X201.848Y-148.741
G05
X205.852Y-259.526G85X207.952Y-259.526
G05
X211.822Y-148.741G85X209.722Y-148.741
G05
X215.797Y-259.526G85X217.897Y-259.526
G05
X221.765Y-148.741G85X219.665Y-148.741
G05
X223.671Y-259.526G85X225.771Y-259.526
G05
X229.639Y-148.741G85X227.539Y-148.741
G05
X239.581Y-148.741G85X237.481Y-148.741
G05
X247.455Y-148.741G85X245.355Y-148.741
G05
X257.398Y-148.741G85X255.298Y-148.741
G05
X255.749Y-261.57G85X257.849Y-261.57
G05
X265.272Y-148.741G85X263.172Y-148.741
G05
X263.623Y-261.57G85X265.723Y-261.57
G05
T0
M30
