%TF.GenerationSoftware,KiCad,Pcbnew,(5.1.12-1-g0a0a2da680)-1*%
%TF.CreationDate,2021-12-04T04:45:38-06:00*%
%TF.ProjectId,ArmBoard_Hardware,41726d42-6f61-4726-945f-486172647761,rev?*%
%TF.SameCoordinates,Original*%
%TF.FileFunction,Soldermask,Bot*%
%TF.FilePolarity,Negative*%
%FSLAX46Y46*%
G04 Gerber Fmt 4.6, Leading zero omitted, Abs format (unit mm)*
G04 Created by KiCad (PCBNEW (5.1.12-1-g0a0a2da680)-1) date 2021-12-04 04:45:38*
%MOMM*%
%LPD*%
G01*
G04 APERTURE LIST*
%ADD10C,3.450000*%
%ADD11C,1.524000*%
%ADD12R,0.990600X1.778000*%
%ADD13R,1.800000X1.800000*%
%ADD14C,1.800000*%
%ADD15C,5.080000*%
G04 APERTURE END LIST*
D10*
%TO.C,Conn20*%
X211315300Y-17399000D03*
D11*
X210172300Y-26035000D03*
X207632300Y-26035000D03*
D10*
X206487300Y-17395000D03*
%TD*%
%TO.C,Conn19*%
X247535700Y-17399000D03*
D11*
X246392700Y-26035000D03*
X243852700Y-26035000D03*
D10*
X242707700Y-17395000D03*
%TD*%
%TO.C,Conn12*%
X202247500Y-17399000D03*
D11*
X201104500Y-26035000D03*
X198564500Y-26035000D03*
D10*
X197419500Y-17395000D03*
%TD*%
%TO.C,Conn11*%
X220345000Y-17399000D03*
D11*
X219202000Y-26035000D03*
X216662000Y-26035000D03*
D10*
X215517000Y-17395000D03*
%TD*%
%TO.C,Conn18*%
X262636000Y-37211000D03*
X262636000Y-29591000D03*
D11*
X254000000Y-35941000D03*
X254000000Y-33401000D03*
X254000000Y-30861000D03*
%TD*%
D10*
%TO.C,Conn17*%
X262636000Y-65811400D03*
X262636000Y-58191400D03*
D11*
X254000000Y-64541400D03*
X254000000Y-62001400D03*
X254000000Y-59461400D03*
%TD*%
D10*
%TO.C,Conn14*%
X262636000Y-80111600D03*
X262636000Y-72491600D03*
D11*
X254000000Y-78841600D03*
X254000000Y-76301600D03*
X254000000Y-73761600D03*
%TD*%
D10*
%TO.C,Conn13*%
X262636000Y-108712000D03*
X262636000Y-101092000D03*
D11*
X254000000Y-107442000D03*
X254000000Y-104902000D03*
X254000000Y-102362000D03*
%TD*%
D10*
%TO.C,Conn10*%
X262636000Y-94411800D03*
X262636000Y-86791800D03*
D11*
X254000000Y-93141800D03*
X254000000Y-90601800D03*
X254000000Y-88061800D03*
%TD*%
D10*
%TO.C,Conn9*%
X262636000Y-51511200D03*
X262636000Y-43891200D03*
D11*
X254000000Y-50241200D03*
X254000000Y-47701200D03*
X254000000Y-45161200D03*
%TD*%
D10*
%TO.C,Conn16*%
X229412800Y-17399000D03*
D11*
X228269800Y-26035000D03*
X225729800Y-26035000D03*
D10*
X224584800Y-17395000D03*
%TD*%
%TO.C,Conn15*%
X238455200Y-17399000D03*
D11*
X237312200Y-26035000D03*
X234772200Y-26035000D03*
D10*
X233627200Y-17395000D03*
%TD*%
D12*
%TO.C,U1*%
X164719000Y-82130900D03*
X167259000Y-82130900D03*
X169799000Y-82130900D03*
X172339000Y-82130900D03*
X174879000Y-82130900D03*
X177419000Y-82130900D03*
X179959000Y-82130900D03*
X182499000Y-82130900D03*
X185039000Y-82130900D03*
X187579000Y-82130900D03*
X164719000Y-76238100D03*
X167259000Y-76238100D03*
X169799000Y-76238100D03*
X172339000Y-76238100D03*
X174879000Y-76238100D03*
X177419000Y-76238100D03*
X179959000Y-76238100D03*
X182499000Y-76238100D03*
X185039000Y-76238100D03*
X187579000Y-76238100D03*
X164719000Y-33058100D03*
X167259000Y-33058100D03*
X169799000Y-33058100D03*
X172339000Y-33058100D03*
X174879000Y-33058100D03*
X177419000Y-33058100D03*
X179959000Y-33058100D03*
X182499000Y-33058100D03*
X185039000Y-33058100D03*
X187579000Y-33058100D03*
X164719000Y-38950900D03*
X167259000Y-38950900D03*
X169799000Y-38950900D03*
X172339000Y-38950900D03*
X174879000Y-38950900D03*
X177419000Y-38950900D03*
X179959000Y-38950900D03*
X182499000Y-38950900D03*
X185039000Y-38950900D03*
X187579000Y-38950900D03*
X118999000Y-82130900D03*
X121539000Y-82130900D03*
X124079000Y-82130900D03*
X101219000Y-76238100D03*
X103759000Y-76238100D03*
X106299000Y-76238100D03*
X108839000Y-76238100D03*
X111379000Y-76238100D03*
X113919000Y-76238100D03*
X116459000Y-76238100D03*
X118999000Y-76238100D03*
X121539000Y-76238100D03*
X124079000Y-76238100D03*
X101219000Y-33058100D03*
X106299000Y-33058100D03*
X111379000Y-33058100D03*
X113919000Y-33058100D03*
X116459000Y-33058100D03*
X118999000Y-33058100D03*
X121539000Y-33058100D03*
X101219000Y-38950900D03*
X106299000Y-38950900D03*
X116459000Y-38950900D03*
X118999000Y-38950900D03*
X121539000Y-38950900D03*
X124079000Y-38950900D03*
X111379000Y-38950900D03*
X108839000Y-38950900D03*
X103759000Y-33058100D03*
X116459000Y-82130900D03*
X113919000Y-82130900D03*
X103759000Y-38950900D03*
X108839000Y-33058100D03*
X106299000Y-82130900D03*
X108839000Y-82130900D03*
X113919000Y-38950900D03*
X111379000Y-82130900D03*
X103759000Y-82130900D03*
X101219000Y-82130900D03*
X124079000Y-33058100D03*
%TD*%
D13*
%TO.C,U3*%
X235077000Y-74676000D03*
D14*
X237617000Y-74676000D03*
X240157000Y-74676000D03*
%TD*%
D15*
%TO.C,Conn5*%
X181631165Y-114909600D03*
X189505165Y-114909600D03*
%TD*%
%TO.C,Conn6*%
X201739500Y-114909600D03*
X209613500Y-114909600D03*
%TD*%
%TO.C,Conn1*%
X224917000Y-114935000D03*
X232791000Y-114935000D03*
X240665000Y-114935000D03*
%TD*%
%TO.C,Conn3*%
X109071833Y-114909600D03*
X101197833Y-114909600D03*
%TD*%
D11*
%TO.C,U2*%
X240030000Y-93345000D03*
X237490000Y-93345000D03*
X234950000Y-93345000D03*
%TD*%
D15*
%TO.C,Conn2*%
X88963500Y-114909600D03*
X81089500Y-114909600D03*
%TD*%
%TO.C,Conn4*%
X129180166Y-114909600D03*
X121306166Y-114909600D03*
%TD*%
%TO.C,Conn7*%
X161522832Y-114909600D03*
X169396832Y-114909600D03*
%TD*%
%TO.C,Conn8*%
X149288499Y-114909600D03*
X141414499Y-114909600D03*
%TD*%
M02*
