G75*
%MOIN*%
%OFA0B0*%
%FSLAX24Y24*%
%IPPOS*%
%LPD*%
%AMOC8*
5,1,8,0,0,1.08239X$1,22.5*
%
%ADD10C,0.0630*%
%ADD11C,0.0907*%
%ADD12R,0.0513X0.0474*%
%ADD13R,0.0474X0.0513*%
%ADD14R,0.0674X0.0674*%
%ADD15C,0.0674*%
%ADD16C,0.0580*%
%ADD17C,0.0680*%
%ADD18R,0.0867X0.0552*%
%ADD19C,0.0390*%
%ADD20C,0.0476*%
D10*
X021426Y005603D03*
X021426Y006603D03*
X021426Y007603D03*
X042926Y007603D03*
X042926Y006603D03*
X042926Y005603D03*
X064426Y005603D03*
X064426Y006603D03*
X064426Y007603D03*
D11*
X067067Y007606D03*
X067067Y009587D03*
X067067Y011556D03*
X067067Y005637D03*
X045567Y005637D03*
X045567Y007606D03*
X045567Y009587D03*
X045567Y011556D03*
X024067Y011556D03*
X024067Y009587D03*
X024067Y007606D03*
X024067Y005637D03*
D12*
X014810Y006003D03*
X014141Y006003D03*
X014141Y005253D03*
X014810Y005253D03*
X014810Y006753D03*
X014141Y006753D03*
X014291Y014603D03*
X014960Y014603D03*
X014960Y015353D03*
X014291Y015353D03*
X016791Y017653D03*
X017460Y017653D03*
X018141Y017653D03*
X018810Y017653D03*
X018810Y018303D03*
X018141Y018303D03*
X017460Y018303D03*
X016791Y018303D03*
X035791Y015353D03*
X036460Y015353D03*
X036460Y014603D03*
X035791Y014603D03*
X038291Y017653D03*
X038960Y017653D03*
X039641Y017653D03*
X040310Y017653D03*
X040310Y018303D03*
X039641Y018303D03*
X038960Y018303D03*
X038291Y018303D03*
X057291Y015353D03*
X057960Y015353D03*
X057960Y014603D03*
X057291Y014603D03*
X059791Y017653D03*
X060460Y017653D03*
X061141Y017653D03*
X061810Y017653D03*
X061810Y018303D03*
X061141Y018303D03*
X060460Y018303D03*
X059791Y018303D03*
X057810Y006753D03*
X057141Y006753D03*
X057141Y006003D03*
X057810Y006003D03*
X057810Y005253D03*
X057141Y005253D03*
X036310Y005253D03*
X035641Y005253D03*
X035641Y006003D03*
X036310Y006003D03*
X036310Y006753D03*
X035641Y006753D03*
D13*
X035076Y014669D03*
X035076Y015338D03*
X037176Y015388D03*
X038426Y015438D03*
X039326Y015288D03*
X039326Y014619D03*
X038426Y014769D03*
X037176Y014719D03*
X037176Y017719D03*
X037176Y018388D03*
X017826Y015288D03*
X017826Y014619D03*
X016926Y014769D03*
X015676Y014719D03*
X015676Y015388D03*
X016926Y015438D03*
X013576Y015338D03*
X013576Y014669D03*
X015676Y017719D03*
X015676Y018388D03*
X056576Y015338D03*
X056576Y014669D03*
X058676Y014719D03*
X059926Y014769D03*
X060826Y014619D03*
X060826Y015288D03*
X059926Y015438D03*
X058676Y015388D03*
X058676Y017719D03*
X058676Y018388D03*
D14*
X048826Y016203D03*
X027326Y016203D03*
X005826Y016203D03*
D15*
X006826Y016203D03*
X007826Y016203D03*
X008826Y016203D03*
X009826Y016203D03*
X010826Y016203D03*
X011826Y016203D03*
X012826Y016203D03*
X013826Y016203D03*
X014826Y016203D03*
X015826Y016203D03*
X016826Y016203D03*
X017826Y016203D03*
X018826Y016203D03*
X018826Y019203D03*
X017826Y019203D03*
X016826Y019203D03*
X015826Y019203D03*
X014826Y019203D03*
X013826Y019203D03*
X012826Y019203D03*
X011826Y019203D03*
X010826Y019203D03*
X009826Y019203D03*
X008826Y019203D03*
X007826Y019203D03*
X006826Y019203D03*
X005826Y019203D03*
X027326Y019203D03*
X028326Y019203D03*
X029326Y019203D03*
X030326Y019203D03*
X031326Y019203D03*
X032326Y019203D03*
X033326Y019203D03*
X034326Y019203D03*
X035326Y019203D03*
X036326Y019203D03*
X037326Y019203D03*
X038326Y019203D03*
X039326Y019203D03*
X040326Y019203D03*
X040326Y016203D03*
X039326Y016203D03*
X038326Y016203D03*
X037326Y016203D03*
X036326Y016203D03*
X035326Y016203D03*
X034326Y016203D03*
X033326Y016203D03*
X032326Y016203D03*
X031326Y016203D03*
X030326Y016203D03*
X029326Y016203D03*
X028326Y016203D03*
X048826Y019203D03*
X049826Y019203D03*
X050826Y019203D03*
X051826Y019203D03*
X052826Y019203D03*
X053826Y019203D03*
X054826Y019203D03*
X055826Y019203D03*
X056826Y019203D03*
X057826Y019203D03*
X058826Y019203D03*
X059826Y019203D03*
X060826Y019203D03*
X061826Y019203D03*
X061826Y016203D03*
X060826Y016203D03*
X059826Y016203D03*
X058826Y016203D03*
X057826Y016203D03*
X056826Y016203D03*
X055826Y016203D03*
X054826Y016203D03*
X053826Y016203D03*
X052826Y016203D03*
X051826Y016203D03*
X050826Y016203D03*
X049826Y016203D03*
D16*
X046176Y017103D03*
X041456Y017103D03*
X041456Y013853D03*
X046176Y013853D03*
X062956Y013853D03*
X067676Y013853D03*
X067676Y017103D03*
X062956Y017103D03*
X062956Y020353D03*
X060676Y020353D03*
X055956Y020353D03*
X053676Y020353D03*
X048956Y020353D03*
X046176Y020353D03*
X041456Y020353D03*
X039176Y020353D03*
X034456Y020353D03*
X032176Y020353D03*
X027456Y020353D03*
X024676Y020353D03*
X019956Y020353D03*
X017676Y020353D03*
X012956Y020353D03*
X010676Y020353D03*
X005956Y020353D03*
X005956Y023353D03*
X010676Y023353D03*
X012956Y023353D03*
X017676Y023353D03*
X019956Y023353D03*
X024676Y023353D03*
X027456Y023353D03*
X032176Y023353D03*
X034456Y023353D03*
X039176Y023353D03*
X041456Y023353D03*
X046176Y023353D03*
X048956Y023353D03*
X053676Y023353D03*
X055956Y023353D03*
X060676Y023353D03*
X062956Y023353D03*
X067676Y023353D03*
X067676Y020353D03*
X024676Y017103D03*
X019956Y017103D03*
X019956Y013853D03*
X024676Y013853D03*
D17*
X023496Y014623D03*
X022316Y014623D03*
X021136Y014623D03*
X021136Y017873D03*
X022316Y017873D03*
X023496Y017873D03*
X023496Y021123D03*
X022316Y021123D03*
X021136Y021123D03*
X016496Y021123D03*
X015316Y021123D03*
X014136Y021123D03*
X009496Y021123D03*
X008316Y021123D03*
X007136Y021123D03*
X007136Y024123D03*
X008316Y024123D03*
X009496Y024123D03*
X014136Y024123D03*
X015316Y024123D03*
X016496Y024123D03*
X021136Y024123D03*
X022316Y024123D03*
X023496Y024123D03*
X028636Y024123D03*
X029816Y024123D03*
X030996Y024123D03*
X035636Y024123D03*
X036816Y024123D03*
X037996Y024123D03*
X042636Y024123D03*
X043816Y024123D03*
X044996Y024123D03*
X050136Y024123D03*
X051316Y024123D03*
X052496Y024123D03*
X057136Y024123D03*
X058316Y024123D03*
X059496Y024123D03*
X064136Y024123D03*
X065316Y024123D03*
X066496Y024123D03*
X066496Y021123D03*
X065316Y021123D03*
X064136Y021123D03*
X059496Y021123D03*
X058316Y021123D03*
X057136Y021123D03*
X052496Y021123D03*
X051316Y021123D03*
X050136Y021123D03*
X044996Y021123D03*
X043816Y021123D03*
X042636Y021123D03*
X037996Y021123D03*
X036816Y021123D03*
X035636Y021123D03*
X030996Y021123D03*
X029816Y021123D03*
X028636Y021123D03*
X042636Y017873D03*
X043816Y017873D03*
X044996Y017873D03*
X044996Y014623D03*
X043816Y014623D03*
X042636Y014623D03*
X064136Y014623D03*
X065316Y014623D03*
X066496Y014623D03*
X066496Y017873D03*
X065316Y017873D03*
X064136Y017873D03*
D18*
X054826Y011583D03*
X053576Y011583D03*
X052326Y011583D03*
X051076Y011583D03*
X049826Y011583D03*
X049826Y010323D03*
X051076Y010323D03*
X052326Y010323D03*
X053576Y010323D03*
X054826Y010323D03*
X054826Y009583D03*
X053576Y009583D03*
X052326Y009583D03*
X051076Y009583D03*
X049826Y009583D03*
X049826Y008323D03*
X051076Y008323D03*
X052326Y008323D03*
X053576Y008323D03*
X054826Y008323D03*
X033326Y008323D03*
X032076Y008323D03*
X030826Y008323D03*
X029576Y008323D03*
X028326Y008323D03*
X028326Y009583D03*
X029576Y009583D03*
X030826Y009583D03*
X032076Y009583D03*
X033326Y009583D03*
X033326Y010323D03*
X032076Y010323D03*
X030826Y010323D03*
X029576Y010323D03*
X028326Y010323D03*
X028326Y011583D03*
X029576Y011583D03*
X030826Y011583D03*
X032076Y011583D03*
X033326Y011583D03*
X011826Y011583D03*
X010576Y011583D03*
X009326Y011583D03*
X008076Y011583D03*
X006826Y011583D03*
X006826Y010323D03*
X008076Y010323D03*
X009326Y010323D03*
X010576Y010323D03*
X011826Y010323D03*
X011826Y009583D03*
X010576Y009583D03*
X009326Y009583D03*
X008076Y009583D03*
X006826Y009583D03*
X006826Y008323D03*
X008076Y008323D03*
X009326Y008323D03*
X010576Y008323D03*
X011826Y008323D03*
D19*
X013626Y005253D03*
X012926Y005603D03*
X013626Y006003D03*
X015326Y006753D03*
X020126Y007053D03*
X020126Y008203D03*
X017726Y008853D03*
X017176Y009053D03*
X016776Y009053D03*
X016376Y009053D03*
X016426Y010553D03*
X016926Y010553D03*
X017376Y010553D03*
X017376Y011003D03*
X016926Y011003D03*
X016426Y011003D03*
X016426Y011703D03*
X016426Y012153D03*
X016926Y012153D03*
X017376Y012153D03*
X017376Y011703D03*
X016926Y011703D03*
X019426Y012703D03*
X017176Y013653D03*
X016776Y013653D03*
X016376Y013653D03*
X014926Y014103D03*
X016326Y014853D03*
X017826Y014403D03*
X018526Y014053D03*
X019376Y014953D03*
X018326Y017103D03*
X016326Y017953D03*
X015026Y018053D03*
X018176Y018253D03*
X012126Y019853D03*
X010176Y019703D03*
X009776Y020053D03*
X011326Y020803D03*
X011926Y022203D03*
X011426Y023053D03*
X018026Y021853D03*
X018776Y022603D03*
X008326Y018703D03*
X009326Y018653D03*
X012076Y015203D03*
X029826Y018703D03*
X030826Y018653D03*
X031676Y019703D03*
X031276Y020053D03*
X032826Y020803D03*
X033626Y019853D03*
X036526Y018053D03*
X037826Y017953D03*
X039676Y018253D03*
X039826Y017103D03*
X040876Y014953D03*
X039326Y014403D03*
X040026Y014053D03*
X038676Y013653D03*
X038276Y013653D03*
X037876Y013653D03*
X036426Y014103D03*
X037826Y014853D03*
X033576Y015203D03*
X040926Y012703D03*
X038876Y012153D03*
X038876Y011703D03*
X038426Y011703D03*
X038426Y012153D03*
X037926Y012153D03*
X037926Y011703D03*
X037926Y011003D03*
X038426Y011003D03*
X038876Y011003D03*
X038876Y010553D03*
X038426Y010553D03*
X037926Y010553D03*
X037876Y009053D03*
X038276Y009053D03*
X038676Y009053D03*
X039226Y008853D03*
X041626Y008203D03*
X041626Y007053D03*
X036826Y006753D03*
X035126Y006003D03*
X034426Y005603D03*
X035126Y005253D03*
X028426Y007503D03*
X027176Y007103D03*
X006926Y007503D03*
X005676Y007103D03*
X039526Y021853D03*
X040276Y022603D03*
X033426Y022203D03*
X032926Y023053D03*
X051326Y018703D03*
X052326Y018653D03*
X053176Y019703D03*
X052776Y020053D03*
X054326Y020803D03*
X055126Y019853D03*
X058026Y018053D03*
X059326Y017953D03*
X061176Y018253D03*
X061326Y017103D03*
X062376Y014953D03*
X060826Y014403D03*
X061526Y014053D03*
X060176Y013653D03*
X059776Y013653D03*
X059376Y013653D03*
X057926Y014103D03*
X059326Y014853D03*
X055076Y015203D03*
X062426Y012703D03*
X060376Y012153D03*
X060376Y011703D03*
X059926Y011703D03*
X059926Y012153D03*
X059426Y012153D03*
X059426Y011703D03*
X059426Y011003D03*
X059926Y011003D03*
X060376Y011003D03*
X060376Y010553D03*
X059926Y010553D03*
X059426Y010553D03*
X059376Y009053D03*
X059776Y009053D03*
X060176Y009053D03*
X060726Y008853D03*
X063126Y008203D03*
X063126Y007053D03*
X058326Y006753D03*
X056626Y006003D03*
X055926Y005603D03*
X056626Y005253D03*
X049926Y007503D03*
X048676Y007103D03*
X061026Y021853D03*
X061776Y022603D03*
X054926Y022203D03*
X054426Y023053D03*
D20*
X056676Y022603D03*
X056426Y021353D03*
X050676Y021603D03*
X050426Y019853D03*
X035176Y022603D03*
X034926Y021353D03*
X029176Y021603D03*
X028926Y019853D03*
X013676Y022603D03*
X013426Y021353D03*
X007676Y021603D03*
X007426Y019853D03*
M02*
