%
M48
M72
T01C0.0150
T02C0.0236
T03C0.0350
T04C0.0394
T05C0.0400
T06C0.0500
T07C0.0551
%
T01
X13626Y5253
X12926Y5603
X13626Y6003
X15326Y6753
X20126Y7053
X20126Y8203
X17726Y8853
X17176Y9053
X16776Y9053
X16376Y9053
X16426Y10553
X16926Y10553
X17376Y10553
X17376Y11003
X16926Y11003
X16426Y11003
X16426Y11703
X16426Y12153
X16926Y12153
X17376Y12153
X17376Y11703
X16926Y11703
X19426Y12703
X17176Y13653
X16776Y13653
X16376Y13653
X14926Y14103
X16326Y14853
X17826Y14403
X18526Y14053
X19376Y14953
X18326Y17103
X16326Y17953
X15026Y18053
X18176Y18253
X12126Y19853
X10176Y19703
X9776Y20053
X11326Y20803
X11926Y22203
X11426Y23053
X18026Y21853
X18776Y22603
X8326Y18703
X9326Y18653
X12076Y15203
X29826Y18703
X30826Y18653
X31676Y19703
X31276Y20053
X32826Y20803
X33626Y19853
X36526Y18053
X37826Y17953
X39676Y18253
X39826Y17103
X40876Y14953
X39326Y14403
X40026Y14053
X38676Y13653
X38276Y13653
X37876Y13653
X36426Y14103
X37826Y14853
X33576Y15203
X40926Y12703
X38876Y12153
X38876Y11703
X38426Y11703
X38426Y12153
X37926Y12153
X37926Y11703
X37926Y11003
X38426Y11003
X38876Y11003
X38876Y10553
X38426Y10553
X37926Y10553
X37876Y9053
X38276Y9053
X38676Y9053
X39226Y8853
X41626Y8203
X41626Y7053
X36826Y6753
X35126Y6003
X34426Y5603
X35126Y5253
X28426Y7503
X27176Y7103
X6926Y7503
X5676Y7103
X39526Y21853
X40276Y22603
X33426Y22203
X32926Y23053
X51326Y18703
X52326Y18653
X53176Y19703
X52776Y20053
X54326Y20803
X55126Y19853
X58026Y18053
X59326Y17953
X61176Y18253
X61326Y17103
X62376Y14953
X60826Y14403
X61526Y14053
X60176Y13653
X59776Y13653
X59376Y13653
X57926Y14103
X59326Y14853
X55076Y15203
X62426Y12703
X60376Y12153
X60376Y11703
X59926Y11703
X59926Y12153
X59426Y12153
X59426Y11703
X59426Y11003
X59926Y11003
X60376Y11003
X60376Y10553
X59926Y10553
X59426Y10553
X59376Y9053
X59776Y9053
X60176Y9053
X60726Y8853
X63126Y8203
X63126Y7053
X58326Y6753
X56626Y6003
X55926Y5603
X56626Y5253
X49926Y7503
X48676Y7103
X61026Y21853
X61776Y22603
X54926Y22203
X54426Y23053
T02
X56676Y22603
X56426Y21353
X50676Y21603
X50426Y19853
X35176Y22603
X34926Y21353
X29176Y21603
X28926Y19853
X13676Y22603
X13426Y21353
X7676Y21603
X7426Y19853
T03
X21426Y7603
X21426Y6603
X21426Y5603
X42926Y5603
X42926Y6603
X42926Y7603
X64426Y7603
X64426Y6603
X64426Y5603
T04
X61826Y16203
X60826Y16203
X59826Y16203
X58826Y16203
X57826Y16203
X56826Y16203
X55826Y16203
X54826Y16203
X53826Y16203
X52826Y16203
X51826Y16203
X50826Y16203
X49826Y16203
X48826Y16203
X48826Y19203
X49826Y19203
X50826Y19203
X51826Y19203
X52826Y19203
X53826Y19203
X54826Y19203
X55826Y19203
X56826Y19203
X57826Y19203
X58826Y19203
X59826Y19203
X60826Y19203
X61826Y19203
X40326Y19203
X39326Y19203
X38326Y19203
X37326Y19203
X36326Y19203
X35326Y19203
X34326Y19203
X33326Y19203
X32326Y19203
X31326Y19203
X30326Y19203
X29326Y19203
X28326Y19203
X27326Y19203
X27326Y16203
X28326Y16203
X29326Y16203
X30326Y16203
X31326Y16203
X32326Y16203
X33326Y16203
X34326Y16203
X35326Y16203
X36326Y16203
X37326Y16203
X38326Y16203
X39326Y16203
X40326Y16203
X18826Y16203
X17826Y16203
X16826Y16203
X15826Y16203
X14826Y16203
X13826Y16203
X12826Y16203
X11826Y16203
X10826Y16203
X9826Y16203
X8826Y16203
X7826Y16203
X6826Y16203
X5826Y16203
X5826Y19203
X6826Y19203
X7826Y19203
X8826Y19203
X9826Y19203
X10826Y19203
X11826Y19203
X12826Y19203
X13826Y19203
X14826Y19203
X15826Y19203
X16826Y19203
X17826Y19203
X18826Y19203
T05
X21136Y17873
X22316Y17873
X23496Y17873
X23496Y14623
X22316Y14623
X21136Y14623
X21136Y21123
X22316Y21123
X23496Y21123
X28636Y21123
X29816Y21123
X30996Y21123
X35636Y21123
X36816Y21123
X37996Y21123
X42636Y21123
X43816Y21123
X44996Y21123
X50136Y21123
X51316Y21123
X52496Y21123
X57136Y21123
X58316Y21123
X59496Y21123
X64136Y21123
X65316Y21123
X66496Y21123
X66496Y24123
X65316Y24123
X64136Y24123
X59496Y24123
X58316Y24123
X57136Y24123
X52496Y24123
X51316Y24123
X50136Y24123
X44996Y24123
X43816Y24123
X42636Y24123
X37996Y24123
X36816Y24123
X35636Y24123
X30996Y24123
X29816Y24123
X28636Y24123
X23496Y24123
X22316Y24123
X21136Y24123
X16496Y24123
X15316Y24123
X14136Y24123
X9496Y24123
X8316Y24123
X7136Y24123
X7136Y21123
X8316Y21123
X9496Y21123
X14136Y21123
X15316Y21123
X16496Y21123
X42636Y17873
X43816Y17873
X44996Y17873
X44996Y14623
X43816Y14623
X42636Y14623
X64136Y14623
X65316Y14623
X66496Y14623
X66496Y17873
X65316Y17873
X64136Y17873
T06
X62956Y17103
X67676Y17103
X67676Y13853
X62956Y13853
X46176Y13853
X41456Y13853
X41456Y17103
X46176Y17103
X46176Y20353
X48956Y20353
X53676Y20353
X55956Y20353
X60676Y20353
X62956Y20353
X67676Y20353
X67676Y23353
X62956Y23353
X60676Y23353
X55956Y23353
X53676Y23353
X48956Y23353
X46176Y23353
X41456Y23353
X39176Y23353
X34456Y23353
X32176Y23353
X27456Y23353
X24676Y23353
X19956Y23353
X17676Y23353
X12956Y23353
X10676Y23353
X5956Y23353
X5956Y20353
X10676Y20353
X12956Y20353
X17676Y20353
X19956Y20353
X24676Y20353
X27456Y20353
X32176Y20353
X34456Y20353
X39176Y20353
X41456Y20353
X24676Y17103
X19956Y17103
X19956Y13853
X24676Y13853
T07
X24067Y11556
X24067Y9587
X24067Y7606
X24067Y5637
X45567Y5637
X45567Y7606
X45567Y9587
X45567Y11556
X67067Y11556
X67067Y9587
X67067Y7606
X67067Y5637
M30
