G75*
%MOIN*%
%OFA0B0*%
%FSLAX24Y24*%
%IPPOS*%
%LPD*%
%AMOC8*
5,1,8,0,0,1.08239X$1,22.5*
%
%ADD10C,0.0000*%
%ADD11C,0.0040*%
%ADD12C,0.0010*%
D10*
X005176Y004603D02*
X068426Y004603D01*
X068426Y025323D01*
X005176Y025323D01*
X005176Y004603D01*
X019706Y013853D02*
X019708Y013884D01*
X019714Y013915D01*
X019724Y013945D01*
X019737Y013973D01*
X019754Y014000D01*
X019774Y014024D01*
X019797Y014046D01*
X019822Y014064D01*
X019850Y014079D01*
X019879Y014091D01*
X019909Y014099D01*
X019940Y014103D01*
X019972Y014103D01*
X020003Y014099D01*
X020033Y014091D01*
X020062Y014079D01*
X020090Y014064D01*
X020115Y014046D01*
X020138Y014024D01*
X020158Y014000D01*
X020175Y013973D01*
X020188Y013945D01*
X020198Y013915D01*
X020204Y013884D01*
X020206Y013853D01*
X020204Y013822D01*
X020198Y013791D01*
X020188Y013761D01*
X020175Y013733D01*
X020158Y013706D01*
X020138Y013682D01*
X020115Y013660D01*
X020090Y013642D01*
X020062Y013627D01*
X020033Y013615D01*
X020003Y013607D01*
X019972Y013603D01*
X019940Y013603D01*
X019909Y013607D01*
X019879Y013615D01*
X019850Y013627D01*
X019822Y013642D01*
X019797Y013660D01*
X019774Y013682D01*
X019754Y013706D01*
X019737Y013733D01*
X019724Y013761D01*
X019714Y013791D01*
X019708Y013822D01*
X019706Y013853D01*
X024426Y013853D02*
X024428Y013884D01*
X024434Y013915D01*
X024444Y013945D01*
X024457Y013973D01*
X024474Y014000D01*
X024494Y014024D01*
X024517Y014046D01*
X024542Y014064D01*
X024570Y014079D01*
X024599Y014091D01*
X024629Y014099D01*
X024660Y014103D01*
X024692Y014103D01*
X024723Y014099D01*
X024753Y014091D01*
X024782Y014079D01*
X024810Y014064D01*
X024835Y014046D01*
X024858Y014024D01*
X024878Y014000D01*
X024895Y013973D01*
X024908Y013945D01*
X024918Y013915D01*
X024924Y013884D01*
X024926Y013853D01*
X024924Y013822D01*
X024918Y013791D01*
X024908Y013761D01*
X024895Y013733D01*
X024878Y013706D01*
X024858Y013682D01*
X024835Y013660D01*
X024810Y013642D01*
X024782Y013627D01*
X024753Y013615D01*
X024723Y013607D01*
X024692Y013603D01*
X024660Y013603D01*
X024629Y013607D01*
X024599Y013615D01*
X024570Y013627D01*
X024542Y013642D01*
X024517Y013660D01*
X024494Y013682D01*
X024474Y013706D01*
X024457Y013733D01*
X024444Y013761D01*
X024434Y013791D01*
X024428Y013822D01*
X024426Y013853D01*
X024426Y017103D02*
X024428Y017134D01*
X024434Y017165D01*
X024444Y017195D01*
X024457Y017223D01*
X024474Y017250D01*
X024494Y017274D01*
X024517Y017296D01*
X024542Y017314D01*
X024570Y017329D01*
X024599Y017341D01*
X024629Y017349D01*
X024660Y017353D01*
X024692Y017353D01*
X024723Y017349D01*
X024753Y017341D01*
X024782Y017329D01*
X024810Y017314D01*
X024835Y017296D01*
X024858Y017274D01*
X024878Y017250D01*
X024895Y017223D01*
X024908Y017195D01*
X024918Y017165D01*
X024924Y017134D01*
X024926Y017103D01*
X024924Y017072D01*
X024918Y017041D01*
X024908Y017011D01*
X024895Y016983D01*
X024878Y016956D01*
X024858Y016932D01*
X024835Y016910D01*
X024810Y016892D01*
X024782Y016877D01*
X024753Y016865D01*
X024723Y016857D01*
X024692Y016853D01*
X024660Y016853D01*
X024629Y016857D01*
X024599Y016865D01*
X024570Y016877D01*
X024542Y016892D01*
X024517Y016910D01*
X024494Y016932D01*
X024474Y016956D01*
X024457Y016983D01*
X024444Y017011D01*
X024434Y017041D01*
X024428Y017072D01*
X024426Y017103D01*
X019706Y017103D02*
X019708Y017134D01*
X019714Y017165D01*
X019724Y017195D01*
X019737Y017223D01*
X019754Y017250D01*
X019774Y017274D01*
X019797Y017296D01*
X019822Y017314D01*
X019850Y017329D01*
X019879Y017341D01*
X019909Y017349D01*
X019940Y017353D01*
X019972Y017353D01*
X020003Y017349D01*
X020033Y017341D01*
X020062Y017329D01*
X020090Y017314D01*
X020115Y017296D01*
X020138Y017274D01*
X020158Y017250D01*
X020175Y017223D01*
X020188Y017195D01*
X020198Y017165D01*
X020204Y017134D01*
X020206Y017103D01*
X020204Y017072D01*
X020198Y017041D01*
X020188Y017011D01*
X020175Y016983D01*
X020158Y016956D01*
X020138Y016932D01*
X020115Y016910D01*
X020090Y016892D01*
X020062Y016877D01*
X020033Y016865D01*
X020003Y016857D01*
X019972Y016853D01*
X019940Y016853D01*
X019909Y016857D01*
X019879Y016865D01*
X019850Y016877D01*
X019822Y016892D01*
X019797Y016910D01*
X019774Y016932D01*
X019754Y016956D01*
X019737Y016983D01*
X019724Y017011D01*
X019714Y017041D01*
X019708Y017072D01*
X019706Y017103D01*
X019706Y020353D02*
X019708Y020384D01*
X019714Y020415D01*
X019724Y020445D01*
X019737Y020473D01*
X019754Y020500D01*
X019774Y020524D01*
X019797Y020546D01*
X019822Y020564D01*
X019850Y020579D01*
X019879Y020591D01*
X019909Y020599D01*
X019940Y020603D01*
X019972Y020603D01*
X020003Y020599D01*
X020033Y020591D01*
X020062Y020579D01*
X020090Y020564D01*
X020115Y020546D01*
X020138Y020524D01*
X020158Y020500D01*
X020175Y020473D01*
X020188Y020445D01*
X020198Y020415D01*
X020204Y020384D01*
X020206Y020353D01*
X020204Y020322D01*
X020198Y020291D01*
X020188Y020261D01*
X020175Y020233D01*
X020158Y020206D01*
X020138Y020182D01*
X020115Y020160D01*
X020090Y020142D01*
X020062Y020127D01*
X020033Y020115D01*
X020003Y020107D01*
X019972Y020103D01*
X019940Y020103D01*
X019909Y020107D01*
X019879Y020115D01*
X019850Y020127D01*
X019822Y020142D01*
X019797Y020160D01*
X019774Y020182D01*
X019754Y020206D01*
X019737Y020233D01*
X019724Y020261D01*
X019714Y020291D01*
X019708Y020322D01*
X019706Y020353D01*
X017426Y020353D02*
X017428Y020384D01*
X017434Y020415D01*
X017444Y020445D01*
X017457Y020473D01*
X017474Y020500D01*
X017494Y020524D01*
X017517Y020546D01*
X017542Y020564D01*
X017570Y020579D01*
X017599Y020591D01*
X017629Y020599D01*
X017660Y020603D01*
X017692Y020603D01*
X017723Y020599D01*
X017753Y020591D01*
X017782Y020579D01*
X017810Y020564D01*
X017835Y020546D01*
X017858Y020524D01*
X017878Y020500D01*
X017895Y020473D01*
X017908Y020445D01*
X017918Y020415D01*
X017924Y020384D01*
X017926Y020353D01*
X017924Y020322D01*
X017918Y020291D01*
X017908Y020261D01*
X017895Y020233D01*
X017878Y020206D01*
X017858Y020182D01*
X017835Y020160D01*
X017810Y020142D01*
X017782Y020127D01*
X017753Y020115D01*
X017723Y020107D01*
X017692Y020103D01*
X017660Y020103D01*
X017629Y020107D01*
X017599Y020115D01*
X017570Y020127D01*
X017542Y020142D01*
X017517Y020160D01*
X017494Y020182D01*
X017474Y020206D01*
X017457Y020233D01*
X017444Y020261D01*
X017434Y020291D01*
X017428Y020322D01*
X017426Y020353D01*
X012706Y020353D02*
X012708Y020384D01*
X012714Y020415D01*
X012724Y020445D01*
X012737Y020473D01*
X012754Y020500D01*
X012774Y020524D01*
X012797Y020546D01*
X012822Y020564D01*
X012850Y020579D01*
X012879Y020591D01*
X012909Y020599D01*
X012940Y020603D01*
X012972Y020603D01*
X013003Y020599D01*
X013033Y020591D01*
X013062Y020579D01*
X013090Y020564D01*
X013115Y020546D01*
X013138Y020524D01*
X013158Y020500D01*
X013175Y020473D01*
X013188Y020445D01*
X013198Y020415D01*
X013204Y020384D01*
X013206Y020353D01*
X013204Y020322D01*
X013198Y020291D01*
X013188Y020261D01*
X013175Y020233D01*
X013158Y020206D01*
X013138Y020182D01*
X013115Y020160D01*
X013090Y020142D01*
X013062Y020127D01*
X013033Y020115D01*
X013003Y020107D01*
X012972Y020103D01*
X012940Y020103D01*
X012909Y020107D01*
X012879Y020115D01*
X012850Y020127D01*
X012822Y020142D01*
X012797Y020160D01*
X012774Y020182D01*
X012754Y020206D01*
X012737Y020233D01*
X012724Y020261D01*
X012714Y020291D01*
X012708Y020322D01*
X012706Y020353D01*
X010426Y020353D02*
X010428Y020384D01*
X010434Y020415D01*
X010444Y020445D01*
X010457Y020473D01*
X010474Y020500D01*
X010494Y020524D01*
X010517Y020546D01*
X010542Y020564D01*
X010570Y020579D01*
X010599Y020591D01*
X010629Y020599D01*
X010660Y020603D01*
X010692Y020603D01*
X010723Y020599D01*
X010753Y020591D01*
X010782Y020579D01*
X010810Y020564D01*
X010835Y020546D01*
X010858Y020524D01*
X010878Y020500D01*
X010895Y020473D01*
X010908Y020445D01*
X010918Y020415D01*
X010924Y020384D01*
X010926Y020353D01*
X010924Y020322D01*
X010918Y020291D01*
X010908Y020261D01*
X010895Y020233D01*
X010878Y020206D01*
X010858Y020182D01*
X010835Y020160D01*
X010810Y020142D01*
X010782Y020127D01*
X010753Y020115D01*
X010723Y020107D01*
X010692Y020103D01*
X010660Y020103D01*
X010629Y020107D01*
X010599Y020115D01*
X010570Y020127D01*
X010542Y020142D01*
X010517Y020160D01*
X010494Y020182D01*
X010474Y020206D01*
X010457Y020233D01*
X010444Y020261D01*
X010434Y020291D01*
X010428Y020322D01*
X010426Y020353D01*
X005706Y020353D02*
X005708Y020384D01*
X005714Y020415D01*
X005724Y020445D01*
X005737Y020473D01*
X005754Y020500D01*
X005774Y020524D01*
X005797Y020546D01*
X005822Y020564D01*
X005850Y020579D01*
X005879Y020591D01*
X005909Y020599D01*
X005940Y020603D01*
X005972Y020603D01*
X006003Y020599D01*
X006033Y020591D01*
X006062Y020579D01*
X006090Y020564D01*
X006115Y020546D01*
X006138Y020524D01*
X006158Y020500D01*
X006175Y020473D01*
X006188Y020445D01*
X006198Y020415D01*
X006204Y020384D01*
X006206Y020353D01*
X006204Y020322D01*
X006198Y020291D01*
X006188Y020261D01*
X006175Y020233D01*
X006158Y020206D01*
X006138Y020182D01*
X006115Y020160D01*
X006090Y020142D01*
X006062Y020127D01*
X006033Y020115D01*
X006003Y020107D01*
X005972Y020103D01*
X005940Y020103D01*
X005909Y020107D01*
X005879Y020115D01*
X005850Y020127D01*
X005822Y020142D01*
X005797Y020160D01*
X005774Y020182D01*
X005754Y020206D01*
X005737Y020233D01*
X005724Y020261D01*
X005714Y020291D01*
X005708Y020322D01*
X005706Y020353D01*
X005706Y023353D02*
X005708Y023384D01*
X005714Y023415D01*
X005724Y023445D01*
X005737Y023473D01*
X005754Y023500D01*
X005774Y023524D01*
X005797Y023546D01*
X005822Y023564D01*
X005850Y023579D01*
X005879Y023591D01*
X005909Y023599D01*
X005940Y023603D01*
X005972Y023603D01*
X006003Y023599D01*
X006033Y023591D01*
X006062Y023579D01*
X006090Y023564D01*
X006115Y023546D01*
X006138Y023524D01*
X006158Y023500D01*
X006175Y023473D01*
X006188Y023445D01*
X006198Y023415D01*
X006204Y023384D01*
X006206Y023353D01*
X006204Y023322D01*
X006198Y023291D01*
X006188Y023261D01*
X006175Y023233D01*
X006158Y023206D01*
X006138Y023182D01*
X006115Y023160D01*
X006090Y023142D01*
X006062Y023127D01*
X006033Y023115D01*
X006003Y023107D01*
X005972Y023103D01*
X005940Y023103D01*
X005909Y023107D01*
X005879Y023115D01*
X005850Y023127D01*
X005822Y023142D01*
X005797Y023160D01*
X005774Y023182D01*
X005754Y023206D01*
X005737Y023233D01*
X005724Y023261D01*
X005714Y023291D01*
X005708Y023322D01*
X005706Y023353D01*
X010426Y023353D02*
X010428Y023384D01*
X010434Y023415D01*
X010444Y023445D01*
X010457Y023473D01*
X010474Y023500D01*
X010494Y023524D01*
X010517Y023546D01*
X010542Y023564D01*
X010570Y023579D01*
X010599Y023591D01*
X010629Y023599D01*
X010660Y023603D01*
X010692Y023603D01*
X010723Y023599D01*
X010753Y023591D01*
X010782Y023579D01*
X010810Y023564D01*
X010835Y023546D01*
X010858Y023524D01*
X010878Y023500D01*
X010895Y023473D01*
X010908Y023445D01*
X010918Y023415D01*
X010924Y023384D01*
X010926Y023353D01*
X010924Y023322D01*
X010918Y023291D01*
X010908Y023261D01*
X010895Y023233D01*
X010878Y023206D01*
X010858Y023182D01*
X010835Y023160D01*
X010810Y023142D01*
X010782Y023127D01*
X010753Y023115D01*
X010723Y023107D01*
X010692Y023103D01*
X010660Y023103D01*
X010629Y023107D01*
X010599Y023115D01*
X010570Y023127D01*
X010542Y023142D01*
X010517Y023160D01*
X010494Y023182D01*
X010474Y023206D01*
X010457Y023233D01*
X010444Y023261D01*
X010434Y023291D01*
X010428Y023322D01*
X010426Y023353D01*
X012706Y023353D02*
X012708Y023384D01*
X012714Y023415D01*
X012724Y023445D01*
X012737Y023473D01*
X012754Y023500D01*
X012774Y023524D01*
X012797Y023546D01*
X012822Y023564D01*
X012850Y023579D01*
X012879Y023591D01*
X012909Y023599D01*
X012940Y023603D01*
X012972Y023603D01*
X013003Y023599D01*
X013033Y023591D01*
X013062Y023579D01*
X013090Y023564D01*
X013115Y023546D01*
X013138Y023524D01*
X013158Y023500D01*
X013175Y023473D01*
X013188Y023445D01*
X013198Y023415D01*
X013204Y023384D01*
X013206Y023353D01*
X013204Y023322D01*
X013198Y023291D01*
X013188Y023261D01*
X013175Y023233D01*
X013158Y023206D01*
X013138Y023182D01*
X013115Y023160D01*
X013090Y023142D01*
X013062Y023127D01*
X013033Y023115D01*
X013003Y023107D01*
X012972Y023103D01*
X012940Y023103D01*
X012909Y023107D01*
X012879Y023115D01*
X012850Y023127D01*
X012822Y023142D01*
X012797Y023160D01*
X012774Y023182D01*
X012754Y023206D01*
X012737Y023233D01*
X012724Y023261D01*
X012714Y023291D01*
X012708Y023322D01*
X012706Y023353D01*
X017426Y023353D02*
X017428Y023384D01*
X017434Y023415D01*
X017444Y023445D01*
X017457Y023473D01*
X017474Y023500D01*
X017494Y023524D01*
X017517Y023546D01*
X017542Y023564D01*
X017570Y023579D01*
X017599Y023591D01*
X017629Y023599D01*
X017660Y023603D01*
X017692Y023603D01*
X017723Y023599D01*
X017753Y023591D01*
X017782Y023579D01*
X017810Y023564D01*
X017835Y023546D01*
X017858Y023524D01*
X017878Y023500D01*
X017895Y023473D01*
X017908Y023445D01*
X017918Y023415D01*
X017924Y023384D01*
X017926Y023353D01*
X017924Y023322D01*
X017918Y023291D01*
X017908Y023261D01*
X017895Y023233D01*
X017878Y023206D01*
X017858Y023182D01*
X017835Y023160D01*
X017810Y023142D01*
X017782Y023127D01*
X017753Y023115D01*
X017723Y023107D01*
X017692Y023103D01*
X017660Y023103D01*
X017629Y023107D01*
X017599Y023115D01*
X017570Y023127D01*
X017542Y023142D01*
X017517Y023160D01*
X017494Y023182D01*
X017474Y023206D01*
X017457Y023233D01*
X017444Y023261D01*
X017434Y023291D01*
X017428Y023322D01*
X017426Y023353D01*
X019706Y023353D02*
X019708Y023384D01*
X019714Y023415D01*
X019724Y023445D01*
X019737Y023473D01*
X019754Y023500D01*
X019774Y023524D01*
X019797Y023546D01*
X019822Y023564D01*
X019850Y023579D01*
X019879Y023591D01*
X019909Y023599D01*
X019940Y023603D01*
X019972Y023603D01*
X020003Y023599D01*
X020033Y023591D01*
X020062Y023579D01*
X020090Y023564D01*
X020115Y023546D01*
X020138Y023524D01*
X020158Y023500D01*
X020175Y023473D01*
X020188Y023445D01*
X020198Y023415D01*
X020204Y023384D01*
X020206Y023353D01*
X020204Y023322D01*
X020198Y023291D01*
X020188Y023261D01*
X020175Y023233D01*
X020158Y023206D01*
X020138Y023182D01*
X020115Y023160D01*
X020090Y023142D01*
X020062Y023127D01*
X020033Y023115D01*
X020003Y023107D01*
X019972Y023103D01*
X019940Y023103D01*
X019909Y023107D01*
X019879Y023115D01*
X019850Y023127D01*
X019822Y023142D01*
X019797Y023160D01*
X019774Y023182D01*
X019754Y023206D01*
X019737Y023233D01*
X019724Y023261D01*
X019714Y023291D01*
X019708Y023322D01*
X019706Y023353D01*
X024426Y023353D02*
X024428Y023384D01*
X024434Y023415D01*
X024444Y023445D01*
X024457Y023473D01*
X024474Y023500D01*
X024494Y023524D01*
X024517Y023546D01*
X024542Y023564D01*
X024570Y023579D01*
X024599Y023591D01*
X024629Y023599D01*
X024660Y023603D01*
X024692Y023603D01*
X024723Y023599D01*
X024753Y023591D01*
X024782Y023579D01*
X024810Y023564D01*
X024835Y023546D01*
X024858Y023524D01*
X024878Y023500D01*
X024895Y023473D01*
X024908Y023445D01*
X024918Y023415D01*
X024924Y023384D01*
X024926Y023353D01*
X024924Y023322D01*
X024918Y023291D01*
X024908Y023261D01*
X024895Y023233D01*
X024878Y023206D01*
X024858Y023182D01*
X024835Y023160D01*
X024810Y023142D01*
X024782Y023127D01*
X024753Y023115D01*
X024723Y023107D01*
X024692Y023103D01*
X024660Y023103D01*
X024629Y023107D01*
X024599Y023115D01*
X024570Y023127D01*
X024542Y023142D01*
X024517Y023160D01*
X024494Y023182D01*
X024474Y023206D01*
X024457Y023233D01*
X024444Y023261D01*
X024434Y023291D01*
X024428Y023322D01*
X024426Y023353D01*
X027206Y023353D02*
X027208Y023384D01*
X027214Y023415D01*
X027224Y023445D01*
X027237Y023473D01*
X027254Y023500D01*
X027274Y023524D01*
X027297Y023546D01*
X027322Y023564D01*
X027350Y023579D01*
X027379Y023591D01*
X027409Y023599D01*
X027440Y023603D01*
X027472Y023603D01*
X027503Y023599D01*
X027533Y023591D01*
X027562Y023579D01*
X027590Y023564D01*
X027615Y023546D01*
X027638Y023524D01*
X027658Y023500D01*
X027675Y023473D01*
X027688Y023445D01*
X027698Y023415D01*
X027704Y023384D01*
X027706Y023353D01*
X027704Y023322D01*
X027698Y023291D01*
X027688Y023261D01*
X027675Y023233D01*
X027658Y023206D01*
X027638Y023182D01*
X027615Y023160D01*
X027590Y023142D01*
X027562Y023127D01*
X027533Y023115D01*
X027503Y023107D01*
X027472Y023103D01*
X027440Y023103D01*
X027409Y023107D01*
X027379Y023115D01*
X027350Y023127D01*
X027322Y023142D01*
X027297Y023160D01*
X027274Y023182D01*
X027254Y023206D01*
X027237Y023233D01*
X027224Y023261D01*
X027214Y023291D01*
X027208Y023322D01*
X027206Y023353D01*
X031926Y023353D02*
X031928Y023384D01*
X031934Y023415D01*
X031944Y023445D01*
X031957Y023473D01*
X031974Y023500D01*
X031994Y023524D01*
X032017Y023546D01*
X032042Y023564D01*
X032070Y023579D01*
X032099Y023591D01*
X032129Y023599D01*
X032160Y023603D01*
X032192Y023603D01*
X032223Y023599D01*
X032253Y023591D01*
X032282Y023579D01*
X032310Y023564D01*
X032335Y023546D01*
X032358Y023524D01*
X032378Y023500D01*
X032395Y023473D01*
X032408Y023445D01*
X032418Y023415D01*
X032424Y023384D01*
X032426Y023353D01*
X032424Y023322D01*
X032418Y023291D01*
X032408Y023261D01*
X032395Y023233D01*
X032378Y023206D01*
X032358Y023182D01*
X032335Y023160D01*
X032310Y023142D01*
X032282Y023127D01*
X032253Y023115D01*
X032223Y023107D01*
X032192Y023103D01*
X032160Y023103D01*
X032129Y023107D01*
X032099Y023115D01*
X032070Y023127D01*
X032042Y023142D01*
X032017Y023160D01*
X031994Y023182D01*
X031974Y023206D01*
X031957Y023233D01*
X031944Y023261D01*
X031934Y023291D01*
X031928Y023322D01*
X031926Y023353D01*
X034206Y023353D02*
X034208Y023384D01*
X034214Y023415D01*
X034224Y023445D01*
X034237Y023473D01*
X034254Y023500D01*
X034274Y023524D01*
X034297Y023546D01*
X034322Y023564D01*
X034350Y023579D01*
X034379Y023591D01*
X034409Y023599D01*
X034440Y023603D01*
X034472Y023603D01*
X034503Y023599D01*
X034533Y023591D01*
X034562Y023579D01*
X034590Y023564D01*
X034615Y023546D01*
X034638Y023524D01*
X034658Y023500D01*
X034675Y023473D01*
X034688Y023445D01*
X034698Y023415D01*
X034704Y023384D01*
X034706Y023353D01*
X034704Y023322D01*
X034698Y023291D01*
X034688Y023261D01*
X034675Y023233D01*
X034658Y023206D01*
X034638Y023182D01*
X034615Y023160D01*
X034590Y023142D01*
X034562Y023127D01*
X034533Y023115D01*
X034503Y023107D01*
X034472Y023103D01*
X034440Y023103D01*
X034409Y023107D01*
X034379Y023115D01*
X034350Y023127D01*
X034322Y023142D01*
X034297Y023160D01*
X034274Y023182D01*
X034254Y023206D01*
X034237Y023233D01*
X034224Y023261D01*
X034214Y023291D01*
X034208Y023322D01*
X034206Y023353D01*
X038926Y023353D02*
X038928Y023384D01*
X038934Y023415D01*
X038944Y023445D01*
X038957Y023473D01*
X038974Y023500D01*
X038994Y023524D01*
X039017Y023546D01*
X039042Y023564D01*
X039070Y023579D01*
X039099Y023591D01*
X039129Y023599D01*
X039160Y023603D01*
X039192Y023603D01*
X039223Y023599D01*
X039253Y023591D01*
X039282Y023579D01*
X039310Y023564D01*
X039335Y023546D01*
X039358Y023524D01*
X039378Y023500D01*
X039395Y023473D01*
X039408Y023445D01*
X039418Y023415D01*
X039424Y023384D01*
X039426Y023353D01*
X039424Y023322D01*
X039418Y023291D01*
X039408Y023261D01*
X039395Y023233D01*
X039378Y023206D01*
X039358Y023182D01*
X039335Y023160D01*
X039310Y023142D01*
X039282Y023127D01*
X039253Y023115D01*
X039223Y023107D01*
X039192Y023103D01*
X039160Y023103D01*
X039129Y023107D01*
X039099Y023115D01*
X039070Y023127D01*
X039042Y023142D01*
X039017Y023160D01*
X038994Y023182D01*
X038974Y023206D01*
X038957Y023233D01*
X038944Y023261D01*
X038934Y023291D01*
X038928Y023322D01*
X038926Y023353D01*
X041206Y023353D02*
X041208Y023384D01*
X041214Y023415D01*
X041224Y023445D01*
X041237Y023473D01*
X041254Y023500D01*
X041274Y023524D01*
X041297Y023546D01*
X041322Y023564D01*
X041350Y023579D01*
X041379Y023591D01*
X041409Y023599D01*
X041440Y023603D01*
X041472Y023603D01*
X041503Y023599D01*
X041533Y023591D01*
X041562Y023579D01*
X041590Y023564D01*
X041615Y023546D01*
X041638Y023524D01*
X041658Y023500D01*
X041675Y023473D01*
X041688Y023445D01*
X041698Y023415D01*
X041704Y023384D01*
X041706Y023353D01*
X041704Y023322D01*
X041698Y023291D01*
X041688Y023261D01*
X041675Y023233D01*
X041658Y023206D01*
X041638Y023182D01*
X041615Y023160D01*
X041590Y023142D01*
X041562Y023127D01*
X041533Y023115D01*
X041503Y023107D01*
X041472Y023103D01*
X041440Y023103D01*
X041409Y023107D01*
X041379Y023115D01*
X041350Y023127D01*
X041322Y023142D01*
X041297Y023160D01*
X041274Y023182D01*
X041254Y023206D01*
X041237Y023233D01*
X041224Y023261D01*
X041214Y023291D01*
X041208Y023322D01*
X041206Y023353D01*
X045926Y023353D02*
X045928Y023384D01*
X045934Y023415D01*
X045944Y023445D01*
X045957Y023473D01*
X045974Y023500D01*
X045994Y023524D01*
X046017Y023546D01*
X046042Y023564D01*
X046070Y023579D01*
X046099Y023591D01*
X046129Y023599D01*
X046160Y023603D01*
X046192Y023603D01*
X046223Y023599D01*
X046253Y023591D01*
X046282Y023579D01*
X046310Y023564D01*
X046335Y023546D01*
X046358Y023524D01*
X046378Y023500D01*
X046395Y023473D01*
X046408Y023445D01*
X046418Y023415D01*
X046424Y023384D01*
X046426Y023353D01*
X046424Y023322D01*
X046418Y023291D01*
X046408Y023261D01*
X046395Y023233D01*
X046378Y023206D01*
X046358Y023182D01*
X046335Y023160D01*
X046310Y023142D01*
X046282Y023127D01*
X046253Y023115D01*
X046223Y023107D01*
X046192Y023103D01*
X046160Y023103D01*
X046129Y023107D01*
X046099Y023115D01*
X046070Y023127D01*
X046042Y023142D01*
X046017Y023160D01*
X045994Y023182D01*
X045974Y023206D01*
X045957Y023233D01*
X045944Y023261D01*
X045934Y023291D01*
X045928Y023322D01*
X045926Y023353D01*
X048706Y023353D02*
X048708Y023384D01*
X048714Y023415D01*
X048724Y023445D01*
X048737Y023473D01*
X048754Y023500D01*
X048774Y023524D01*
X048797Y023546D01*
X048822Y023564D01*
X048850Y023579D01*
X048879Y023591D01*
X048909Y023599D01*
X048940Y023603D01*
X048972Y023603D01*
X049003Y023599D01*
X049033Y023591D01*
X049062Y023579D01*
X049090Y023564D01*
X049115Y023546D01*
X049138Y023524D01*
X049158Y023500D01*
X049175Y023473D01*
X049188Y023445D01*
X049198Y023415D01*
X049204Y023384D01*
X049206Y023353D01*
X049204Y023322D01*
X049198Y023291D01*
X049188Y023261D01*
X049175Y023233D01*
X049158Y023206D01*
X049138Y023182D01*
X049115Y023160D01*
X049090Y023142D01*
X049062Y023127D01*
X049033Y023115D01*
X049003Y023107D01*
X048972Y023103D01*
X048940Y023103D01*
X048909Y023107D01*
X048879Y023115D01*
X048850Y023127D01*
X048822Y023142D01*
X048797Y023160D01*
X048774Y023182D01*
X048754Y023206D01*
X048737Y023233D01*
X048724Y023261D01*
X048714Y023291D01*
X048708Y023322D01*
X048706Y023353D01*
X053426Y023353D02*
X053428Y023384D01*
X053434Y023415D01*
X053444Y023445D01*
X053457Y023473D01*
X053474Y023500D01*
X053494Y023524D01*
X053517Y023546D01*
X053542Y023564D01*
X053570Y023579D01*
X053599Y023591D01*
X053629Y023599D01*
X053660Y023603D01*
X053692Y023603D01*
X053723Y023599D01*
X053753Y023591D01*
X053782Y023579D01*
X053810Y023564D01*
X053835Y023546D01*
X053858Y023524D01*
X053878Y023500D01*
X053895Y023473D01*
X053908Y023445D01*
X053918Y023415D01*
X053924Y023384D01*
X053926Y023353D01*
X053924Y023322D01*
X053918Y023291D01*
X053908Y023261D01*
X053895Y023233D01*
X053878Y023206D01*
X053858Y023182D01*
X053835Y023160D01*
X053810Y023142D01*
X053782Y023127D01*
X053753Y023115D01*
X053723Y023107D01*
X053692Y023103D01*
X053660Y023103D01*
X053629Y023107D01*
X053599Y023115D01*
X053570Y023127D01*
X053542Y023142D01*
X053517Y023160D01*
X053494Y023182D01*
X053474Y023206D01*
X053457Y023233D01*
X053444Y023261D01*
X053434Y023291D01*
X053428Y023322D01*
X053426Y023353D01*
X055706Y023353D02*
X055708Y023384D01*
X055714Y023415D01*
X055724Y023445D01*
X055737Y023473D01*
X055754Y023500D01*
X055774Y023524D01*
X055797Y023546D01*
X055822Y023564D01*
X055850Y023579D01*
X055879Y023591D01*
X055909Y023599D01*
X055940Y023603D01*
X055972Y023603D01*
X056003Y023599D01*
X056033Y023591D01*
X056062Y023579D01*
X056090Y023564D01*
X056115Y023546D01*
X056138Y023524D01*
X056158Y023500D01*
X056175Y023473D01*
X056188Y023445D01*
X056198Y023415D01*
X056204Y023384D01*
X056206Y023353D01*
X056204Y023322D01*
X056198Y023291D01*
X056188Y023261D01*
X056175Y023233D01*
X056158Y023206D01*
X056138Y023182D01*
X056115Y023160D01*
X056090Y023142D01*
X056062Y023127D01*
X056033Y023115D01*
X056003Y023107D01*
X055972Y023103D01*
X055940Y023103D01*
X055909Y023107D01*
X055879Y023115D01*
X055850Y023127D01*
X055822Y023142D01*
X055797Y023160D01*
X055774Y023182D01*
X055754Y023206D01*
X055737Y023233D01*
X055724Y023261D01*
X055714Y023291D01*
X055708Y023322D01*
X055706Y023353D01*
X060426Y023353D02*
X060428Y023384D01*
X060434Y023415D01*
X060444Y023445D01*
X060457Y023473D01*
X060474Y023500D01*
X060494Y023524D01*
X060517Y023546D01*
X060542Y023564D01*
X060570Y023579D01*
X060599Y023591D01*
X060629Y023599D01*
X060660Y023603D01*
X060692Y023603D01*
X060723Y023599D01*
X060753Y023591D01*
X060782Y023579D01*
X060810Y023564D01*
X060835Y023546D01*
X060858Y023524D01*
X060878Y023500D01*
X060895Y023473D01*
X060908Y023445D01*
X060918Y023415D01*
X060924Y023384D01*
X060926Y023353D01*
X060924Y023322D01*
X060918Y023291D01*
X060908Y023261D01*
X060895Y023233D01*
X060878Y023206D01*
X060858Y023182D01*
X060835Y023160D01*
X060810Y023142D01*
X060782Y023127D01*
X060753Y023115D01*
X060723Y023107D01*
X060692Y023103D01*
X060660Y023103D01*
X060629Y023107D01*
X060599Y023115D01*
X060570Y023127D01*
X060542Y023142D01*
X060517Y023160D01*
X060494Y023182D01*
X060474Y023206D01*
X060457Y023233D01*
X060444Y023261D01*
X060434Y023291D01*
X060428Y023322D01*
X060426Y023353D01*
X062706Y023353D02*
X062708Y023384D01*
X062714Y023415D01*
X062724Y023445D01*
X062737Y023473D01*
X062754Y023500D01*
X062774Y023524D01*
X062797Y023546D01*
X062822Y023564D01*
X062850Y023579D01*
X062879Y023591D01*
X062909Y023599D01*
X062940Y023603D01*
X062972Y023603D01*
X063003Y023599D01*
X063033Y023591D01*
X063062Y023579D01*
X063090Y023564D01*
X063115Y023546D01*
X063138Y023524D01*
X063158Y023500D01*
X063175Y023473D01*
X063188Y023445D01*
X063198Y023415D01*
X063204Y023384D01*
X063206Y023353D01*
X063204Y023322D01*
X063198Y023291D01*
X063188Y023261D01*
X063175Y023233D01*
X063158Y023206D01*
X063138Y023182D01*
X063115Y023160D01*
X063090Y023142D01*
X063062Y023127D01*
X063033Y023115D01*
X063003Y023107D01*
X062972Y023103D01*
X062940Y023103D01*
X062909Y023107D01*
X062879Y023115D01*
X062850Y023127D01*
X062822Y023142D01*
X062797Y023160D01*
X062774Y023182D01*
X062754Y023206D01*
X062737Y023233D01*
X062724Y023261D01*
X062714Y023291D01*
X062708Y023322D01*
X062706Y023353D01*
X067426Y023353D02*
X067428Y023384D01*
X067434Y023415D01*
X067444Y023445D01*
X067457Y023473D01*
X067474Y023500D01*
X067494Y023524D01*
X067517Y023546D01*
X067542Y023564D01*
X067570Y023579D01*
X067599Y023591D01*
X067629Y023599D01*
X067660Y023603D01*
X067692Y023603D01*
X067723Y023599D01*
X067753Y023591D01*
X067782Y023579D01*
X067810Y023564D01*
X067835Y023546D01*
X067858Y023524D01*
X067878Y023500D01*
X067895Y023473D01*
X067908Y023445D01*
X067918Y023415D01*
X067924Y023384D01*
X067926Y023353D01*
X067924Y023322D01*
X067918Y023291D01*
X067908Y023261D01*
X067895Y023233D01*
X067878Y023206D01*
X067858Y023182D01*
X067835Y023160D01*
X067810Y023142D01*
X067782Y023127D01*
X067753Y023115D01*
X067723Y023107D01*
X067692Y023103D01*
X067660Y023103D01*
X067629Y023107D01*
X067599Y023115D01*
X067570Y023127D01*
X067542Y023142D01*
X067517Y023160D01*
X067494Y023182D01*
X067474Y023206D01*
X067457Y023233D01*
X067444Y023261D01*
X067434Y023291D01*
X067428Y023322D01*
X067426Y023353D01*
X067426Y020353D02*
X067428Y020384D01*
X067434Y020415D01*
X067444Y020445D01*
X067457Y020473D01*
X067474Y020500D01*
X067494Y020524D01*
X067517Y020546D01*
X067542Y020564D01*
X067570Y020579D01*
X067599Y020591D01*
X067629Y020599D01*
X067660Y020603D01*
X067692Y020603D01*
X067723Y020599D01*
X067753Y020591D01*
X067782Y020579D01*
X067810Y020564D01*
X067835Y020546D01*
X067858Y020524D01*
X067878Y020500D01*
X067895Y020473D01*
X067908Y020445D01*
X067918Y020415D01*
X067924Y020384D01*
X067926Y020353D01*
X067924Y020322D01*
X067918Y020291D01*
X067908Y020261D01*
X067895Y020233D01*
X067878Y020206D01*
X067858Y020182D01*
X067835Y020160D01*
X067810Y020142D01*
X067782Y020127D01*
X067753Y020115D01*
X067723Y020107D01*
X067692Y020103D01*
X067660Y020103D01*
X067629Y020107D01*
X067599Y020115D01*
X067570Y020127D01*
X067542Y020142D01*
X067517Y020160D01*
X067494Y020182D01*
X067474Y020206D01*
X067457Y020233D01*
X067444Y020261D01*
X067434Y020291D01*
X067428Y020322D01*
X067426Y020353D01*
X062706Y020353D02*
X062708Y020384D01*
X062714Y020415D01*
X062724Y020445D01*
X062737Y020473D01*
X062754Y020500D01*
X062774Y020524D01*
X062797Y020546D01*
X062822Y020564D01*
X062850Y020579D01*
X062879Y020591D01*
X062909Y020599D01*
X062940Y020603D01*
X062972Y020603D01*
X063003Y020599D01*
X063033Y020591D01*
X063062Y020579D01*
X063090Y020564D01*
X063115Y020546D01*
X063138Y020524D01*
X063158Y020500D01*
X063175Y020473D01*
X063188Y020445D01*
X063198Y020415D01*
X063204Y020384D01*
X063206Y020353D01*
X063204Y020322D01*
X063198Y020291D01*
X063188Y020261D01*
X063175Y020233D01*
X063158Y020206D01*
X063138Y020182D01*
X063115Y020160D01*
X063090Y020142D01*
X063062Y020127D01*
X063033Y020115D01*
X063003Y020107D01*
X062972Y020103D01*
X062940Y020103D01*
X062909Y020107D01*
X062879Y020115D01*
X062850Y020127D01*
X062822Y020142D01*
X062797Y020160D01*
X062774Y020182D01*
X062754Y020206D01*
X062737Y020233D01*
X062724Y020261D01*
X062714Y020291D01*
X062708Y020322D01*
X062706Y020353D01*
X060426Y020353D02*
X060428Y020384D01*
X060434Y020415D01*
X060444Y020445D01*
X060457Y020473D01*
X060474Y020500D01*
X060494Y020524D01*
X060517Y020546D01*
X060542Y020564D01*
X060570Y020579D01*
X060599Y020591D01*
X060629Y020599D01*
X060660Y020603D01*
X060692Y020603D01*
X060723Y020599D01*
X060753Y020591D01*
X060782Y020579D01*
X060810Y020564D01*
X060835Y020546D01*
X060858Y020524D01*
X060878Y020500D01*
X060895Y020473D01*
X060908Y020445D01*
X060918Y020415D01*
X060924Y020384D01*
X060926Y020353D01*
X060924Y020322D01*
X060918Y020291D01*
X060908Y020261D01*
X060895Y020233D01*
X060878Y020206D01*
X060858Y020182D01*
X060835Y020160D01*
X060810Y020142D01*
X060782Y020127D01*
X060753Y020115D01*
X060723Y020107D01*
X060692Y020103D01*
X060660Y020103D01*
X060629Y020107D01*
X060599Y020115D01*
X060570Y020127D01*
X060542Y020142D01*
X060517Y020160D01*
X060494Y020182D01*
X060474Y020206D01*
X060457Y020233D01*
X060444Y020261D01*
X060434Y020291D01*
X060428Y020322D01*
X060426Y020353D01*
X055706Y020353D02*
X055708Y020384D01*
X055714Y020415D01*
X055724Y020445D01*
X055737Y020473D01*
X055754Y020500D01*
X055774Y020524D01*
X055797Y020546D01*
X055822Y020564D01*
X055850Y020579D01*
X055879Y020591D01*
X055909Y020599D01*
X055940Y020603D01*
X055972Y020603D01*
X056003Y020599D01*
X056033Y020591D01*
X056062Y020579D01*
X056090Y020564D01*
X056115Y020546D01*
X056138Y020524D01*
X056158Y020500D01*
X056175Y020473D01*
X056188Y020445D01*
X056198Y020415D01*
X056204Y020384D01*
X056206Y020353D01*
X056204Y020322D01*
X056198Y020291D01*
X056188Y020261D01*
X056175Y020233D01*
X056158Y020206D01*
X056138Y020182D01*
X056115Y020160D01*
X056090Y020142D01*
X056062Y020127D01*
X056033Y020115D01*
X056003Y020107D01*
X055972Y020103D01*
X055940Y020103D01*
X055909Y020107D01*
X055879Y020115D01*
X055850Y020127D01*
X055822Y020142D01*
X055797Y020160D01*
X055774Y020182D01*
X055754Y020206D01*
X055737Y020233D01*
X055724Y020261D01*
X055714Y020291D01*
X055708Y020322D01*
X055706Y020353D01*
X053426Y020353D02*
X053428Y020384D01*
X053434Y020415D01*
X053444Y020445D01*
X053457Y020473D01*
X053474Y020500D01*
X053494Y020524D01*
X053517Y020546D01*
X053542Y020564D01*
X053570Y020579D01*
X053599Y020591D01*
X053629Y020599D01*
X053660Y020603D01*
X053692Y020603D01*
X053723Y020599D01*
X053753Y020591D01*
X053782Y020579D01*
X053810Y020564D01*
X053835Y020546D01*
X053858Y020524D01*
X053878Y020500D01*
X053895Y020473D01*
X053908Y020445D01*
X053918Y020415D01*
X053924Y020384D01*
X053926Y020353D01*
X053924Y020322D01*
X053918Y020291D01*
X053908Y020261D01*
X053895Y020233D01*
X053878Y020206D01*
X053858Y020182D01*
X053835Y020160D01*
X053810Y020142D01*
X053782Y020127D01*
X053753Y020115D01*
X053723Y020107D01*
X053692Y020103D01*
X053660Y020103D01*
X053629Y020107D01*
X053599Y020115D01*
X053570Y020127D01*
X053542Y020142D01*
X053517Y020160D01*
X053494Y020182D01*
X053474Y020206D01*
X053457Y020233D01*
X053444Y020261D01*
X053434Y020291D01*
X053428Y020322D01*
X053426Y020353D01*
X048706Y020353D02*
X048708Y020384D01*
X048714Y020415D01*
X048724Y020445D01*
X048737Y020473D01*
X048754Y020500D01*
X048774Y020524D01*
X048797Y020546D01*
X048822Y020564D01*
X048850Y020579D01*
X048879Y020591D01*
X048909Y020599D01*
X048940Y020603D01*
X048972Y020603D01*
X049003Y020599D01*
X049033Y020591D01*
X049062Y020579D01*
X049090Y020564D01*
X049115Y020546D01*
X049138Y020524D01*
X049158Y020500D01*
X049175Y020473D01*
X049188Y020445D01*
X049198Y020415D01*
X049204Y020384D01*
X049206Y020353D01*
X049204Y020322D01*
X049198Y020291D01*
X049188Y020261D01*
X049175Y020233D01*
X049158Y020206D01*
X049138Y020182D01*
X049115Y020160D01*
X049090Y020142D01*
X049062Y020127D01*
X049033Y020115D01*
X049003Y020107D01*
X048972Y020103D01*
X048940Y020103D01*
X048909Y020107D01*
X048879Y020115D01*
X048850Y020127D01*
X048822Y020142D01*
X048797Y020160D01*
X048774Y020182D01*
X048754Y020206D01*
X048737Y020233D01*
X048724Y020261D01*
X048714Y020291D01*
X048708Y020322D01*
X048706Y020353D01*
X045926Y020353D02*
X045928Y020384D01*
X045934Y020415D01*
X045944Y020445D01*
X045957Y020473D01*
X045974Y020500D01*
X045994Y020524D01*
X046017Y020546D01*
X046042Y020564D01*
X046070Y020579D01*
X046099Y020591D01*
X046129Y020599D01*
X046160Y020603D01*
X046192Y020603D01*
X046223Y020599D01*
X046253Y020591D01*
X046282Y020579D01*
X046310Y020564D01*
X046335Y020546D01*
X046358Y020524D01*
X046378Y020500D01*
X046395Y020473D01*
X046408Y020445D01*
X046418Y020415D01*
X046424Y020384D01*
X046426Y020353D01*
X046424Y020322D01*
X046418Y020291D01*
X046408Y020261D01*
X046395Y020233D01*
X046378Y020206D01*
X046358Y020182D01*
X046335Y020160D01*
X046310Y020142D01*
X046282Y020127D01*
X046253Y020115D01*
X046223Y020107D01*
X046192Y020103D01*
X046160Y020103D01*
X046129Y020107D01*
X046099Y020115D01*
X046070Y020127D01*
X046042Y020142D01*
X046017Y020160D01*
X045994Y020182D01*
X045974Y020206D01*
X045957Y020233D01*
X045944Y020261D01*
X045934Y020291D01*
X045928Y020322D01*
X045926Y020353D01*
X041206Y020353D02*
X041208Y020384D01*
X041214Y020415D01*
X041224Y020445D01*
X041237Y020473D01*
X041254Y020500D01*
X041274Y020524D01*
X041297Y020546D01*
X041322Y020564D01*
X041350Y020579D01*
X041379Y020591D01*
X041409Y020599D01*
X041440Y020603D01*
X041472Y020603D01*
X041503Y020599D01*
X041533Y020591D01*
X041562Y020579D01*
X041590Y020564D01*
X041615Y020546D01*
X041638Y020524D01*
X041658Y020500D01*
X041675Y020473D01*
X041688Y020445D01*
X041698Y020415D01*
X041704Y020384D01*
X041706Y020353D01*
X041704Y020322D01*
X041698Y020291D01*
X041688Y020261D01*
X041675Y020233D01*
X041658Y020206D01*
X041638Y020182D01*
X041615Y020160D01*
X041590Y020142D01*
X041562Y020127D01*
X041533Y020115D01*
X041503Y020107D01*
X041472Y020103D01*
X041440Y020103D01*
X041409Y020107D01*
X041379Y020115D01*
X041350Y020127D01*
X041322Y020142D01*
X041297Y020160D01*
X041274Y020182D01*
X041254Y020206D01*
X041237Y020233D01*
X041224Y020261D01*
X041214Y020291D01*
X041208Y020322D01*
X041206Y020353D01*
X038926Y020353D02*
X038928Y020384D01*
X038934Y020415D01*
X038944Y020445D01*
X038957Y020473D01*
X038974Y020500D01*
X038994Y020524D01*
X039017Y020546D01*
X039042Y020564D01*
X039070Y020579D01*
X039099Y020591D01*
X039129Y020599D01*
X039160Y020603D01*
X039192Y020603D01*
X039223Y020599D01*
X039253Y020591D01*
X039282Y020579D01*
X039310Y020564D01*
X039335Y020546D01*
X039358Y020524D01*
X039378Y020500D01*
X039395Y020473D01*
X039408Y020445D01*
X039418Y020415D01*
X039424Y020384D01*
X039426Y020353D01*
X039424Y020322D01*
X039418Y020291D01*
X039408Y020261D01*
X039395Y020233D01*
X039378Y020206D01*
X039358Y020182D01*
X039335Y020160D01*
X039310Y020142D01*
X039282Y020127D01*
X039253Y020115D01*
X039223Y020107D01*
X039192Y020103D01*
X039160Y020103D01*
X039129Y020107D01*
X039099Y020115D01*
X039070Y020127D01*
X039042Y020142D01*
X039017Y020160D01*
X038994Y020182D01*
X038974Y020206D01*
X038957Y020233D01*
X038944Y020261D01*
X038934Y020291D01*
X038928Y020322D01*
X038926Y020353D01*
X034206Y020353D02*
X034208Y020384D01*
X034214Y020415D01*
X034224Y020445D01*
X034237Y020473D01*
X034254Y020500D01*
X034274Y020524D01*
X034297Y020546D01*
X034322Y020564D01*
X034350Y020579D01*
X034379Y020591D01*
X034409Y020599D01*
X034440Y020603D01*
X034472Y020603D01*
X034503Y020599D01*
X034533Y020591D01*
X034562Y020579D01*
X034590Y020564D01*
X034615Y020546D01*
X034638Y020524D01*
X034658Y020500D01*
X034675Y020473D01*
X034688Y020445D01*
X034698Y020415D01*
X034704Y020384D01*
X034706Y020353D01*
X034704Y020322D01*
X034698Y020291D01*
X034688Y020261D01*
X034675Y020233D01*
X034658Y020206D01*
X034638Y020182D01*
X034615Y020160D01*
X034590Y020142D01*
X034562Y020127D01*
X034533Y020115D01*
X034503Y020107D01*
X034472Y020103D01*
X034440Y020103D01*
X034409Y020107D01*
X034379Y020115D01*
X034350Y020127D01*
X034322Y020142D01*
X034297Y020160D01*
X034274Y020182D01*
X034254Y020206D01*
X034237Y020233D01*
X034224Y020261D01*
X034214Y020291D01*
X034208Y020322D01*
X034206Y020353D01*
X031926Y020353D02*
X031928Y020384D01*
X031934Y020415D01*
X031944Y020445D01*
X031957Y020473D01*
X031974Y020500D01*
X031994Y020524D01*
X032017Y020546D01*
X032042Y020564D01*
X032070Y020579D01*
X032099Y020591D01*
X032129Y020599D01*
X032160Y020603D01*
X032192Y020603D01*
X032223Y020599D01*
X032253Y020591D01*
X032282Y020579D01*
X032310Y020564D01*
X032335Y020546D01*
X032358Y020524D01*
X032378Y020500D01*
X032395Y020473D01*
X032408Y020445D01*
X032418Y020415D01*
X032424Y020384D01*
X032426Y020353D01*
X032424Y020322D01*
X032418Y020291D01*
X032408Y020261D01*
X032395Y020233D01*
X032378Y020206D01*
X032358Y020182D01*
X032335Y020160D01*
X032310Y020142D01*
X032282Y020127D01*
X032253Y020115D01*
X032223Y020107D01*
X032192Y020103D01*
X032160Y020103D01*
X032129Y020107D01*
X032099Y020115D01*
X032070Y020127D01*
X032042Y020142D01*
X032017Y020160D01*
X031994Y020182D01*
X031974Y020206D01*
X031957Y020233D01*
X031944Y020261D01*
X031934Y020291D01*
X031928Y020322D01*
X031926Y020353D01*
X027206Y020353D02*
X027208Y020384D01*
X027214Y020415D01*
X027224Y020445D01*
X027237Y020473D01*
X027254Y020500D01*
X027274Y020524D01*
X027297Y020546D01*
X027322Y020564D01*
X027350Y020579D01*
X027379Y020591D01*
X027409Y020599D01*
X027440Y020603D01*
X027472Y020603D01*
X027503Y020599D01*
X027533Y020591D01*
X027562Y020579D01*
X027590Y020564D01*
X027615Y020546D01*
X027638Y020524D01*
X027658Y020500D01*
X027675Y020473D01*
X027688Y020445D01*
X027698Y020415D01*
X027704Y020384D01*
X027706Y020353D01*
X027704Y020322D01*
X027698Y020291D01*
X027688Y020261D01*
X027675Y020233D01*
X027658Y020206D01*
X027638Y020182D01*
X027615Y020160D01*
X027590Y020142D01*
X027562Y020127D01*
X027533Y020115D01*
X027503Y020107D01*
X027472Y020103D01*
X027440Y020103D01*
X027409Y020107D01*
X027379Y020115D01*
X027350Y020127D01*
X027322Y020142D01*
X027297Y020160D01*
X027274Y020182D01*
X027254Y020206D01*
X027237Y020233D01*
X027224Y020261D01*
X027214Y020291D01*
X027208Y020322D01*
X027206Y020353D01*
X024426Y020353D02*
X024428Y020384D01*
X024434Y020415D01*
X024444Y020445D01*
X024457Y020473D01*
X024474Y020500D01*
X024494Y020524D01*
X024517Y020546D01*
X024542Y020564D01*
X024570Y020579D01*
X024599Y020591D01*
X024629Y020599D01*
X024660Y020603D01*
X024692Y020603D01*
X024723Y020599D01*
X024753Y020591D01*
X024782Y020579D01*
X024810Y020564D01*
X024835Y020546D01*
X024858Y020524D01*
X024878Y020500D01*
X024895Y020473D01*
X024908Y020445D01*
X024918Y020415D01*
X024924Y020384D01*
X024926Y020353D01*
X024924Y020322D01*
X024918Y020291D01*
X024908Y020261D01*
X024895Y020233D01*
X024878Y020206D01*
X024858Y020182D01*
X024835Y020160D01*
X024810Y020142D01*
X024782Y020127D01*
X024753Y020115D01*
X024723Y020107D01*
X024692Y020103D01*
X024660Y020103D01*
X024629Y020107D01*
X024599Y020115D01*
X024570Y020127D01*
X024542Y020142D01*
X024517Y020160D01*
X024494Y020182D01*
X024474Y020206D01*
X024457Y020233D01*
X024444Y020261D01*
X024434Y020291D01*
X024428Y020322D01*
X024426Y020353D01*
X041206Y017103D02*
X041208Y017134D01*
X041214Y017165D01*
X041224Y017195D01*
X041237Y017223D01*
X041254Y017250D01*
X041274Y017274D01*
X041297Y017296D01*
X041322Y017314D01*
X041350Y017329D01*
X041379Y017341D01*
X041409Y017349D01*
X041440Y017353D01*
X041472Y017353D01*
X041503Y017349D01*
X041533Y017341D01*
X041562Y017329D01*
X041590Y017314D01*
X041615Y017296D01*
X041638Y017274D01*
X041658Y017250D01*
X041675Y017223D01*
X041688Y017195D01*
X041698Y017165D01*
X041704Y017134D01*
X041706Y017103D01*
X041704Y017072D01*
X041698Y017041D01*
X041688Y017011D01*
X041675Y016983D01*
X041658Y016956D01*
X041638Y016932D01*
X041615Y016910D01*
X041590Y016892D01*
X041562Y016877D01*
X041533Y016865D01*
X041503Y016857D01*
X041472Y016853D01*
X041440Y016853D01*
X041409Y016857D01*
X041379Y016865D01*
X041350Y016877D01*
X041322Y016892D01*
X041297Y016910D01*
X041274Y016932D01*
X041254Y016956D01*
X041237Y016983D01*
X041224Y017011D01*
X041214Y017041D01*
X041208Y017072D01*
X041206Y017103D01*
X045926Y017103D02*
X045928Y017134D01*
X045934Y017165D01*
X045944Y017195D01*
X045957Y017223D01*
X045974Y017250D01*
X045994Y017274D01*
X046017Y017296D01*
X046042Y017314D01*
X046070Y017329D01*
X046099Y017341D01*
X046129Y017349D01*
X046160Y017353D01*
X046192Y017353D01*
X046223Y017349D01*
X046253Y017341D01*
X046282Y017329D01*
X046310Y017314D01*
X046335Y017296D01*
X046358Y017274D01*
X046378Y017250D01*
X046395Y017223D01*
X046408Y017195D01*
X046418Y017165D01*
X046424Y017134D01*
X046426Y017103D01*
X046424Y017072D01*
X046418Y017041D01*
X046408Y017011D01*
X046395Y016983D01*
X046378Y016956D01*
X046358Y016932D01*
X046335Y016910D01*
X046310Y016892D01*
X046282Y016877D01*
X046253Y016865D01*
X046223Y016857D01*
X046192Y016853D01*
X046160Y016853D01*
X046129Y016857D01*
X046099Y016865D01*
X046070Y016877D01*
X046042Y016892D01*
X046017Y016910D01*
X045994Y016932D01*
X045974Y016956D01*
X045957Y016983D01*
X045944Y017011D01*
X045934Y017041D01*
X045928Y017072D01*
X045926Y017103D01*
X045926Y013853D02*
X045928Y013884D01*
X045934Y013915D01*
X045944Y013945D01*
X045957Y013973D01*
X045974Y014000D01*
X045994Y014024D01*
X046017Y014046D01*
X046042Y014064D01*
X046070Y014079D01*
X046099Y014091D01*
X046129Y014099D01*
X046160Y014103D01*
X046192Y014103D01*
X046223Y014099D01*
X046253Y014091D01*
X046282Y014079D01*
X046310Y014064D01*
X046335Y014046D01*
X046358Y014024D01*
X046378Y014000D01*
X046395Y013973D01*
X046408Y013945D01*
X046418Y013915D01*
X046424Y013884D01*
X046426Y013853D01*
X046424Y013822D01*
X046418Y013791D01*
X046408Y013761D01*
X046395Y013733D01*
X046378Y013706D01*
X046358Y013682D01*
X046335Y013660D01*
X046310Y013642D01*
X046282Y013627D01*
X046253Y013615D01*
X046223Y013607D01*
X046192Y013603D01*
X046160Y013603D01*
X046129Y013607D01*
X046099Y013615D01*
X046070Y013627D01*
X046042Y013642D01*
X046017Y013660D01*
X045994Y013682D01*
X045974Y013706D01*
X045957Y013733D01*
X045944Y013761D01*
X045934Y013791D01*
X045928Y013822D01*
X045926Y013853D01*
X041206Y013853D02*
X041208Y013884D01*
X041214Y013915D01*
X041224Y013945D01*
X041237Y013973D01*
X041254Y014000D01*
X041274Y014024D01*
X041297Y014046D01*
X041322Y014064D01*
X041350Y014079D01*
X041379Y014091D01*
X041409Y014099D01*
X041440Y014103D01*
X041472Y014103D01*
X041503Y014099D01*
X041533Y014091D01*
X041562Y014079D01*
X041590Y014064D01*
X041615Y014046D01*
X041638Y014024D01*
X041658Y014000D01*
X041675Y013973D01*
X041688Y013945D01*
X041698Y013915D01*
X041704Y013884D01*
X041706Y013853D01*
X041704Y013822D01*
X041698Y013791D01*
X041688Y013761D01*
X041675Y013733D01*
X041658Y013706D01*
X041638Y013682D01*
X041615Y013660D01*
X041590Y013642D01*
X041562Y013627D01*
X041533Y013615D01*
X041503Y013607D01*
X041472Y013603D01*
X041440Y013603D01*
X041409Y013607D01*
X041379Y013615D01*
X041350Y013627D01*
X041322Y013642D01*
X041297Y013660D01*
X041274Y013682D01*
X041254Y013706D01*
X041237Y013733D01*
X041224Y013761D01*
X041214Y013791D01*
X041208Y013822D01*
X041206Y013853D01*
X062706Y013853D02*
X062708Y013884D01*
X062714Y013915D01*
X062724Y013945D01*
X062737Y013973D01*
X062754Y014000D01*
X062774Y014024D01*
X062797Y014046D01*
X062822Y014064D01*
X062850Y014079D01*
X062879Y014091D01*
X062909Y014099D01*
X062940Y014103D01*
X062972Y014103D01*
X063003Y014099D01*
X063033Y014091D01*
X063062Y014079D01*
X063090Y014064D01*
X063115Y014046D01*
X063138Y014024D01*
X063158Y014000D01*
X063175Y013973D01*
X063188Y013945D01*
X063198Y013915D01*
X063204Y013884D01*
X063206Y013853D01*
X063204Y013822D01*
X063198Y013791D01*
X063188Y013761D01*
X063175Y013733D01*
X063158Y013706D01*
X063138Y013682D01*
X063115Y013660D01*
X063090Y013642D01*
X063062Y013627D01*
X063033Y013615D01*
X063003Y013607D01*
X062972Y013603D01*
X062940Y013603D01*
X062909Y013607D01*
X062879Y013615D01*
X062850Y013627D01*
X062822Y013642D01*
X062797Y013660D01*
X062774Y013682D01*
X062754Y013706D01*
X062737Y013733D01*
X062724Y013761D01*
X062714Y013791D01*
X062708Y013822D01*
X062706Y013853D01*
X067426Y013853D02*
X067428Y013884D01*
X067434Y013915D01*
X067444Y013945D01*
X067457Y013973D01*
X067474Y014000D01*
X067494Y014024D01*
X067517Y014046D01*
X067542Y014064D01*
X067570Y014079D01*
X067599Y014091D01*
X067629Y014099D01*
X067660Y014103D01*
X067692Y014103D01*
X067723Y014099D01*
X067753Y014091D01*
X067782Y014079D01*
X067810Y014064D01*
X067835Y014046D01*
X067858Y014024D01*
X067878Y014000D01*
X067895Y013973D01*
X067908Y013945D01*
X067918Y013915D01*
X067924Y013884D01*
X067926Y013853D01*
X067924Y013822D01*
X067918Y013791D01*
X067908Y013761D01*
X067895Y013733D01*
X067878Y013706D01*
X067858Y013682D01*
X067835Y013660D01*
X067810Y013642D01*
X067782Y013627D01*
X067753Y013615D01*
X067723Y013607D01*
X067692Y013603D01*
X067660Y013603D01*
X067629Y013607D01*
X067599Y013615D01*
X067570Y013627D01*
X067542Y013642D01*
X067517Y013660D01*
X067494Y013682D01*
X067474Y013706D01*
X067457Y013733D01*
X067444Y013761D01*
X067434Y013791D01*
X067428Y013822D01*
X067426Y013853D01*
X067426Y017103D02*
X067428Y017134D01*
X067434Y017165D01*
X067444Y017195D01*
X067457Y017223D01*
X067474Y017250D01*
X067494Y017274D01*
X067517Y017296D01*
X067542Y017314D01*
X067570Y017329D01*
X067599Y017341D01*
X067629Y017349D01*
X067660Y017353D01*
X067692Y017353D01*
X067723Y017349D01*
X067753Y017341D01*
X067782Y017329D01*
X067810Y017314D01*
X067835Y017296D01*
X067858Y017274D01*
X067878Y017250D01*
X067895Y017223D01*
X067908Y017195D01*
X067918Y017165D01*
X067924Y017134D01*
X067926Y017103D01*
X067924Y017072D01*
X067918Y017041D01*
X067908Y017011D01*
X067895Y016983D01*
X067878Y016956D01*
X067858Y016932D01*
X067835Y016910D01*
X067810Y016892D01*
X067782Y016877D01*
X067753Y016865D01*
X067723Y016857D01*
X067692Y016853D01*
X067660Y016853D01*
X067629Y016857D01*
X067599Y016865D01*
X067570Y016877D01*
X067542Y016892D01*
X067517Y016910D01*
X067494Y016932D01*
X067474Y016956D01*
X067457Y016983D01*
X067444Y017011D01*
X067434Y017041D01*
X067428Y017072D01*
X067426Y017103D01*
X062706Y017103D02*
X062708Y017134D01*
X062714Y017165D01*
X062724Y017195D01*
X062737Y017223D01*
X062754Y017250D01*
X062774Y017274D01*
X062797Y017296D01*
X062822Y017314D01*
X062850Y017329D01*
X062879Y017341D01*
X062909Y017349D01*
X062940Y017353D01*
X062972Y017353D01*
X063003Y017349D01*
X063033Y017341D01*
X063062Y017329D01*
X063090Y017314D01*
X063115Y017296D01*
X063138Y017274D01*
X063158Y017250D01*
X063175Y017223D01*
X063188Y017195D01*
X063198Y017165D01*
X063204Y017134D01*
X063206Y017103D01*
X063204Y017072D01*
X063198Y017041D01*
X063188Y017011D01*
X063175Y016983D01*
X063158Y016956D01*
X063138Y016932D01*
X063115Y016910D01*
X063090Y016892D01*
X063062Y016877D01*
X063033Y016865D01*
X063003Y016857D01*
X062972Y016853D01*
X062940Y016853D01*
X062909Y016857D01*
X062879Y016865D01*
X062850Y016877D01*
X062822Y016892D01*
X062797Y016910D01*
X062774Y016932D01*
X062754Y016956D01*
X062737Y016983D01*
X062724Y017011D01*
X062714Y017041D01*
X062708Y017072D01*
X062706Y017103D01*
D11*
X062846Y016134D02*
X062999Y015980D01*
X063153Y016134D01*
X063153Y015673D01*
X063306Y015673D02*
X063613Y015980D01*
X063613Y016057D01*
X063536Y016134D01*
X063383Y016134D01*
X063306Y016057D01*
X063306Y015673D02*
X063613Y015673D01*
X062846Y015673D02*
X062846Y016134D01*
X062999Y018923D02*
X062999Y019384D01*
X062846Y019384D02*
X063153Y019384D01*
X063306Y019307D02*
X063383Y019384D01*
X063536Y019384D01*
X063613Y019307D01*
X063613Y019230D01*
X063306Y018923D01*
X063613Y018923D01*
X063613Y022173D02*
X063306Y022173D01*
X063153Y022173D02*
X063153Y022634D01*
X062999Y022480D01*
X062846Y022634D01*
X062846Y022173D01*
X063306Y022480D02*
X063460Y022634D01*
X063460Y022173D01*
X062863Y024673D02*
X062556Y024673D01*
X062710Y024673D02*
X062710Y025134D01*
X062556Y024980D01*
X062403Y025134D02*
X062096Y025134D01*
X062249Y025134D02*
X062249Y024673D01*
X056613Y022557D02*
X056613Y022480D01*
X056536Y022403D01*
X056613Y022327D01*
X056613Y022250D01*
X056536Y022173D01*
X056383Y022173D01*
X056306Y022250D01*
X056153Y022173D02*
X056153Y022634D01*
X055999Y022480D01*
X055846Y022634D01*
X055846Y022173D01*
X056460Y022403D02*
X056536Y022403D01*
X056613Y022557D02*
X056536Y022634D01*
X056383Y022634D01*
X056306Y022557D01*
X055536Y024673D02*
X055383Y024673D01*
X055306Y024750D01*
X055460Y024903D02*
X055536Y024903D01*
X055613Y024827D01*
X055613Y024750D01*
X055536Y024673D01*
X055536Y024903D02*
X055613Y024980D01*
X055613Y025057D01*
X055536Y025134D01*
X055383Y025134D01*
X055306Y025057D01*
X055153Y025134D02*
X054846Y025134D01*
X054999Y025134D02*
X054999Y024673D01*
X054613Y024903D02*
X054306Y024903D01*
X054536Y025134D01*
X054536Y024673D01*
X053999Y024673D02*
X053999Y025134D01*
X053846Y025134D02*
X054153Y025134D01*
X049536Y022634D02*
X049306Y022403D01*
X049613Y022403D01*
X049536Y022173D02*
X049536Y022634D01*
X049153Y022634D02*
X049153Y022173D01*
X048846Y022173D02*
X048846Y022634D01*
X048999Y022480D01*
X049153Y022634D01*
X042113Y022173D02*
X041806Y022173D01*
X041653Y022173D02*
X041653Y022634D01*
X041499Y022480D01*
X041346Y022634D01*
X041346Y022173D01*
X041806Y022480D02*
X041960Y022634D01*
X041960Y022173D01*
X041363Y024673D02*
X041056Y024673D01*
X041210Y024673D02*
X041210Y025134D01*
X041056Y024980D01*
X040903Y025134D02*
X040596Y025134D01*
X040749Y025134D02*
X040749Y024673D01*
X035113Y022557D02*
X035113Y022480D01*
X035036Y022403D01*
X035113Y022327D01*
X035113Y022250D01*
X035036Y022173D01*
X034883Y022173D01*
X034806Y022250D01*
X034653Y022173D02*
X034653Y022634D01*
X034499Y022480D01*
X034346Y022634D01*
X034346Y022173D01*
X034960Y022403D02*
X035036Y022403D01*
X035113Y022557D02*
X035036Y022634D01*
X034883Y022634D01*
X034806Y022557D01*
X034036Y024673D02*
X033883Y024673D01*
X033806Y024750D01*
X033960Y024903D02*
X034036Y024903D01*
X034113Y024827D01*
X034113Y024750D01*
X034036Y024673D01*
X034036Y024903D02*
X034113Y024980D01*
X034113Y025057D01*
X034036Y025134D01*
X033883Y025134D01*
X033806Y025057D01*
X033653Y025134D02*
X033346Y025134D01*
X033499Y025134D02*
X033499Y024673D01*
X033113Y024903D02*
X032806Y024903D01*
X033036Y025134D01*
X033036Y024673D01*
X032499Y024673D02*
X032499Y025134D01*
X032346Y025134D02*
X032653Y025134D01*
X028036Y022634D02*
X027806Y022403D01*
X028113Y022403D01*
X028036Y022173D02*
X028036Y022634D01*
X027653Y022634D02*
X027499Y022480D01*
X027346Y022634D01*
X027346Y022173D01*
X027653Y022173D02*
X027653Y022634D01*
X020613Y022173D02*
X020306Y022173D01*
X020153Y022173D02*
X020153Y022634D01*
X019999Y022480D01*
X019846Y022634D01*
X019846Y022173D01*
X020306Y022480D02*
X020460Y022634D01*
X020460Y022173D01*
X013613Y022250D02*
X013536Y022173D01*
X013383Y022173D01*
X013306Y022250D01*
X013153Y022173D02*
X013153Y022634D01*
X012999Y022480D01*
X012846Y022634D01*
X012846Y022173D01*
X013460Y022403D02*
X013536Y022403D01*
X013613Y022327D01*
X013613Y022250D01*
X013536Y022403D02*
X013613Y022480D01*
X013613Y022557D01*
X013536Y022634D01*
X013383Y022634D01*
X013306Y022557D01*
X012536Y024673D02*
X012383Y024673D01*
X012306Y024750D01*
X012460Y024903D02*
X012536Y024903D01*
X012613Y024827D01*
X012613Y024750D01*
X012536Y024673D01*
X012536Y024903D02*
X012613Y024980D01*
X012613Y025057D01*
X012536Y025134D01*
X012383Y025134D01*
X012306Y025057D01*
X012153Y025134D02*
X011846Y025134D01*
X011999Y025134D02*
X011999Y024673D01*
X011613Y024903D02*
X011306Y024903D01*
X011536Y025134D01*
X011536Y024673D01*
X010999Y024673D02*
X010999Y025134D01*
X010846Y025134D02*
X011153Y025134D01*
X006536Y022634D02*
X006306Y022403D01*
X006613Y022403D01*
X006536Y022173D02*
X006536Y022634D01*
X006153Y022634D02*
X005999Y022480D01*
X005846Y022634D01*
X005846Y022173D01*
X006153Y022173D02*
X006153Y022634D01*
X019096Y025134D02*
X019403Y025134D01*
X019249Y025134D02*
X019249Y024673D01*
X019556Y024673D02*
X019863Y024673D01*
X019710Y024673D02*
X019710Y025134D01*
X019556Y024980D01*
X019846Y019384D02*
X020153Y019384D01*
X019999Y019384D02*
X019999Y018923D01*
X020306Y018923D02*
X020613Y019230D01*
X020613Y019307D01*
X020536Y019384D01*
X020383Y019384D01*
X020306Y019307D01*
X020306Y018923D02*
X020613Y018923D01*
X020536Y016134D02*
X020383Y016134D01*
X020306Y016057D01*
X020153Y016134D02*
X019999Y015980D01*
X019846Y016134D01*
X019846Y015673D01*
X020153Y015673D02*
X020153Y016134D01*
X020536Y016134D02*
X020613Y016057D01*
X020613Y015980D01*
X020306Y015673D01*
X020613Y015673D01*
X015203Y011353D02*
X015126Y011430D01*
X015050Y011353D01*
X015050Y011123D01*
X015203Y011123D02*
X015203Y011353D01*
X015050Y011353D02*
X014973Y011430D01*
X014896Y011430D01*
X014896Y011123D01*
X014743Y011123D02*
X014513Y011123D01*
X014436Y011200D01*
X014513Y011277D01*
X014743Y011277D01*
X014743Y011353D02*
X014743Y011123D01*
X014743Y011353D02*
X014666Y011430D01*
X014513Y011430D01*
X014282Y011353D02*
X014282Y011277D01*
X013975Y011277D01*
X013975Y011353D02*
X014052Y011430D01*
X014206Y011430D01*
X014282Y011353D01*
X014206Y011123D02*
X014052Y011123D01*
X013975Y011200D01*
X013975Y011353D01*
X013822Y011584D02*
X013515Y011584D01*
X013668Y011584D02*
X013668Y011123D01*
X013592Y010680D02*
X013592Y010373D01*
X013592Y010527D02*
X013745Y010680D01*
X013822Y010680D01*
X013975Y010603D02*
X014052Y010680D01*
X014282Y010680D01*
X014282Y010834D02*
X014282Y010373D01*
X014052Y010373D01*
X013975Y010450D01*
X013975Y010603D01*
X013438Y010603D02*
X013362Y010680D01*
X013208Y010680D01*
X013208Y010527D02*
X013438Y010527D01*
X013438Y010603D02*
X013438Y010373D01*
X013208Y010373D01*
X013131Y010450D01*
X013208Y010527D01*
X012978Y010603D02*
X012901Y010680D01*
X012748Y010680D01*
X012671Y010603D01*
X012671Y010450D01*
X012748Y010373D01*
X012901Y010373D01*
X012978Y010450D01*
X012978Y010603D01*
X012517Y010527D02*
X012517Y010450D01*
X012441Y010373D01*
X012211Y010373D01*
X012211Y010834D01*
X012441Y010834D01*
X012517Y010757D01*
X012517Y010680D01*
X012441Y010603D01*
X012211Y010603D01*
X012441Y010603D02*
X012517Y010527D01*
X011597Y010373D02*
X011443Y010373D01*
X011520Y010373D02*
X011520Y010834D01*
X011443Y010834D01*
X011213Y010834D02*
X011213Y010373D01*
X011136Y010373D02*
X011290Y010373D01*
X010983Y010373D02*
X010829Y010373D01*
X010906Y010373D02*
X010906Y010680D01*
X010829Y010680D01*
X010676Y010680D02*
X010599Y010680D01*
X010446Y010527D01*
X010446Y010680D02*
X010446Y010373D01*
X010292Y010450D02*
X010292Y010757D01*
X010216Y010834D01*
X009985Y010834D01*
X009985Y010373D01*
X010216Y010373D01*
X010292Y010450D01*
X010906Y010834D02*
X010906Y010910D01*
X010983Y011123D02*
X010906Y011200D01*
X010906Y011353D01*
X010983Y011430D01*
X011136Y011430D01*
X011213Y011353D01*
X011213Y011277D01*
X010906Y011277D01*
X010753Y011200D02*
X010753Y011507D01*
X010676Y011584D01*
X010446Y011584D01*
X010446Y011123D01*
X010676Y011123D01*
X010753Y011200D01*
X010983Y011123D02*
X011136Y011123D01*
X011366Y011123D02*
X011597Y011123D01*
X011673Y011200D01*
X011597Y011277D01*
X011443Y011277D01*
X011366Y011353D01*
X011443Y011430D01*
X011673Y011430D01*
X011827Y011430D02*
X011904Y011430D01*
X011904Y011123D01*
X011980Y011123D02*
X011827Y011123D01*
X012134Y011200D02*
X012211Y011123D01*
X012441Y011123D01*
X012441Y011046D02*
X012441Y011430D01*
X012211Y011430D01*
X012134Y011353D01*
X012134Y011200D01*
X012287Y010970D02*
X012364Y010970D01*
X012441Y011046D01*
X012594Y011123D02*
X012594Y011430D01*
X012824Y011430D01*
X012901Y011353D01*
X012901Y011123D01*
X011904Y011584D02*
X011904Y011660D01*
X011213Y010834D02*
X011136Y010834D01*
X009755Y011430D02*
X009602Y011277D01*
X009602Y011430D02*
X009602Y011123D01*
X009448Y011277D02*
X009141Y011277D01*
X009141Y011353D02*
X009218Y011430D01*
X009371Y011430D01*
X009448Y011353D01*
X009448Y011277D01*
X009371Y011123D02*
X009218Y011123D01*
X009141Y011200D01*
X009141Y011353D01*
X008988Y011430D02*
X008834Y011123D01*
X008681Y011430D01*
X008527Y011353D02*
X008451Y011430D01*
X008297Y011430D01*
X008220Y011353D01*
X008220Y011200D01*
X008297Y011123D01*
X008451Y011123D01*
X008527Y011200D01*
X008527Y011353D01*
X008067Y011353D02*
X007990Y011277D01*
X007760Y011277D01*
X007914Y011277D02*
X008067Y011123D01*
X008067Y011353D02*
X008067Y011507D01*
X007990Y011584D01*
X007760Y011584D01*
X007760Y011123D01*
X007914Y010910D02*
X007914Y010834D01*
X007914Y010680D02*
X007914Y010373D01*
X007990Y010373D02*
X007837Y010373D01*
X007683Y010373D02*
X007683Y010603D01*
X007607Y010680D01*
X007376Y010680D01*
X007376Y010373D01*
X007223Y010527D02*
X006916Y010527D01*
X006916Y010603D02*
X006993Y010680D01*
X007146Y010680D01*
X007223Y010603D01*
X007223Y010527D01*
X007146Y010373D02*
X006993Y010373D01*
X006916Y010450D01*
X006916Y010603D01*
X006763Y010757D02*
X006456Y010450D01*
X006456Y010373D01*
X006763Y010373D01*
X006763Y010757D02*
X006763Y010834D01*
X006456Y010834D01*
X006456Y011123D02*
X006456Y011430D01*
X006609Y011430D02*
X006686Y011430D01*
X006609Y011430D02*
X006456Y011277D01*
X006302Y011277D02*
X006072Y011277D01*
X005995Y011200D01*
X006072Y011123D01*
X006302Y011123D01*
X006302Y011353D01*
X006225Y011430D01*
X006072Y011430D01*
X005842Y011584D02*
X005842Y011123D01*
X005535Y011123D02*
X005535Y011584D01*
X005688Y011430D01*
X005842Y011584D01*
X006839Y011353D02*
X006916Y011430D01*
X007146Y011430D01*
X007069Y011277D02*
X006916Y011277D01*
X006839Y011353D01*
X006839Y011123D02*
X007069Y011123D01*
X007146Y011200D01*
X007069Y011277D01*
X007837Y010680D02*
X007914Y010680D01*
X008144Y010680D02*
X008297Y010680D01*
X008220Y010757D02*
X008220Y010450D01*
X008297Y010373D01*
X008451Y010373D02*
X008451Y010834D01*
X008527Y010680D02*
X008681Y010680D01*
X008758Y010603D01*
X008758Y010373D01*
X008451Y010603D02*
X008527Y010680D01*
X009371Y010834D02*
X009371Y010373D01*
X009563Y010160D02*
X009563Y010084D01*
X009563Y009930D02*
X009563Y009623D01*
X009487Y009623D02*
X009640Y009623D01*
X009793Y009623D02*
X009947Y009623D01*
X009870Y009623D02*
X009870Y010084D01*
X009793Y010084D01*
X009563Y009930D02*
X009487Y009930D01*
X009333Y010084D02*
X009333Y009623D01*
X009026Y009623D02*
X009026Y010084D01*
X009180Y009930D01*
X009333Y010084D01*
X010100Y009853D02*
X010100Y009700D01*
X010177Y009623D01*
X010331Y009623D01*
X010407Y009777D02*
X010100Y009777D01*
X010100Y009853D02*
X010177Y009930D01*
X010331Y009930D01*
X010407Y009853D01*
X010407Y009777D01*
X010561Y009853D02*
X010638Y009777D01*
X010791Y009777D01*
X010868Y009700D01*
X010791Y009623D01*
X010561Y009623D01*
X010561Y009853D02*
X010638Y009930D01*
X010868Y009930D01*
X011482Y010084D02*
X011482Y009623D01*
X012095Y009623D02*
X012402Y009930D01*
X012402Y010007D01*
X012326Y010084D01*
X012172Y010084D01*
X012095Y010007D01*
X012095Y009623D02*
X012402Y009623D01*
X012556Y009700D02*
X012863Y010007D01*
X012863Y009700D01*
X012786Y009623D01*
X012633Y009623D01*
X012556Y009700D01*
X012556Y010007D01*
X012633Y010084D01*
X012786Y010084D01*
X012863Y010007D01*
X013016Y009930D02*
X013170Y010084D01*
X013170Y009623D01*
X013323Y009623D02*
X013016Y009623D01*
X013477Y009700D02*
X013553Y009623D01*
X013707Y009623D01*
X013784Y009700D01*
X013784Y009777D01*
X013707Y009853D01*
X013477Y009853D01*
X013477Y009700D01*
X013477Y009853D02*
X013630Y010007D01*
X013784Y010084D01*
X009832Y011430D02*
X009755Y011430D01*
X007492Y010160D02*
X007492Y010084D01*
X007492Y009930D02*
X007492Y009623D01*
X007568Y009623D02*
X007415Y009623D01*
X007261Y009623D02*
X007261Y010084D01*
X007108Y009930D01*
X006954Y010084D01*
X006954Y009623D01*
X007415Y009930D02*
X007492Y009930D01*
X007722Y009777D02*
X007952Y009930D01*
X008105Y009853D02*
X008182Y009930D01*
X008336Y009930D01*
X008412Y009853D01*
X008412Y009777D01*
X008105Y009777D01*
X008105Y009853D02*
X008105Y009700D01*
X008182Y009623D01*
X008336Y009623D01*
X007952Y009623D02*
X007722Y009777D01*
X007722Y009623D02*
X007722Y010084D01*
X021969Y005837D02*
X022582Y005837D01*
X022506Y005760D02*
X022506Y005914D01*
X022429Y005990D01*
X022352Y005990D01*
X022276Y005914D01*
X022276Y005760D01*
X022199Y005684D01*
X022122Y005684D01*
X022045Y005760D01*
X022045Y005914D01*
X022122Y005990D01*
X022199Y006144D02*
X022045Y006297D01*
X022506Y006297D01*
X022506Y006144D02*
X022506Y006451D01*
X022506Y005760D02*
X022429Y005684D01*
X022429Y005530D02*
X022045Y005530D01*
X022045Y005223D02*
X022429Y005223D01*
X022506Y005300D01*
X022506Y005453D01*
X022429Y005530D01*
X028454Y009623D02*
X028454Y010084D01*
X028608Y009930D01*
X028761Y010084D01*
X028761Y009623D01*
X028915Y009623D02*
X029068Y009623D01*
X028992Y009623D02*
X028992Y009930D01*
X028915Y009930D01*
X028992Y010084D02*
X028992Y010160D01*
X029222Y010084D02*
X029222Y009623D01*
X029222Y009777D02*
X029452Y009930D01*
X029605Y009853D02*
X029682Y009930D01*
X029836Y009930D01*
X029912Y009853D01*
X029912Y009777D01*
X029605Y009777D01*
X029605Y009853D02*
X029605Y009700D01*
X029682Y009623D01*
X029836Y009623D01*
X029452Y009623D02*
X029222Y009777D01*
X030526Y009623D02*
X030526Y010084D01*
X030680Y009930D01*
X030833Y010084D01*
X030833Y009623D01*
X030987Y009623D02*
X031140Y009623D01*
X031063Y009623D02*
X031063Y009930D01*
X030987Y009930D01*
X031063Y010084D02*
X031063Y010160D01*
X031293Y010084D02*
X031370Y010084D01*
X031370Y009623D01*
X031293Y009623D02*
X031447Y009623D01*
X031600Y009700D02*
X031600Y009853D01*
X031677Y009930D01*
X031831Y009930D01*
X031907Y009853D01*
X031907Y009777D01*
X031600Y009777D01*
X031600Y009700D02*
X031677Y009623D01*
X031831Y009623D01*
X032061Y009623D02*
X032291Y009623D01*
X032368Y009700D01*
X032291Y009777D01*
X032138Y009777D01*
X032061Y009853D01*
X032138Y009930D01*
X032368Y009930D01*
X032982Y010084D02*
X032982Y009623D01*
X033595Y009623D02*
X033902Y009930D01*
X033902Y010007D01*
X033826Y010084D01*
X033672Y010084D01*
X033595Y010007D01*
X033595Y009623D02*
X033902Y009623D01*
X034056Y009700D02*
X034363Y010007D01*
X034363Y009700D01*
X034286Y009623D01*
X034133Y009623D01*
X034056Y009700D01*
X034056Y010007D01*
X034133Y010084D01*
X034286Y010084D01*
X034363Y010007D01*
X034516Y009930D02*
X034670Y010084D01*
X034670Y009623D01*
X034823Y009623D02*
X034516Y009623D01*
X034977Y009700D02*
X034977Y009853D01*
X035207Y009853D01*
X035284Y009777D01*
X035284Y009700D01*
X035207Y009623D01*
X035053Y009623D01*
X034977Y009700D01*
X034977Y009853D02*
X035130Y010007D01*
X035284Y010084D01*
X035092Y010373D02*
X035092Y010680D01*
X035245Y010680D02*
X035322Y010680D01*
X035245Y010680D02*
X035092Y010527D01*
X034938Y010527D02*
X034708Y010527D01*
X034631Y010450D01*
X034708Y010373D01*
X034938Y010373D01*
X034938Y010603D01*
X034862Y010680D01*
X034708Y010680D01*
X034478Y010603D02*
X034401Y010680D01*
X034248Y010680D01*
X034171Y010603D01*
X034171Y010450D01*
X034248Y010373D01*
X034401Y010373D01*
X034478Y010450D01*
X034478Y010603D01*
X034017Y010527D02*
X034017Y010450D01*
X033941Y010373D01*
X033711Y010373D01*
X033711Y010834D01*
X033941Y010834D01*
X034017Y010757D01*
X034017Y010680D01*
X033941Y010603D01*
X033711Y010603D01*
X033941Y010603D02*
X034017Y010527D01*
X033097Y010373D02*
X032943Y010373D01*
X033020Y010373D02*
X033020Y010834D01*
X032943Y010834D01*
X032713Y010834D02*
X032713Y010373D01*
X032636Y010373D02*
X032790Y010373D01*
X032483Y010373D02*
X032329Y010373D01*
X032406Y010373D02*
X032406Y010680D01*
X032329Y010680D01*
X032176Y010680D02*
X032099Y010680D01*
X031946Y010527D01*
X031946Y010680D02*
X031946Y010373D01*
X031792Y010450D02*
X031792Y010757D01*
X031716Y010834D01*
X031485Y010834D01*
X031485Y010373D01*
X031716Y010373D01*
X031792Y010450D01*
X032406Y010834D02*
X032406Y010910D01*
X032483Y011123D02*
X032406Y011200D01*
X032406Y011353D01*
X032483Y011430D01*
X032636Y011430D01*
X032713Y011353D01*
X032713Y011277D01*
X032406Y011277D01*
X032253Y011200D02*
X032253Y011507D01*
X032176Y011584D01*
X031946Y011584D01*
X031946Y011123D01*
X032176Y011123D01*
X032253Y011200D01*
X032483Y011123D02*
X032636Y011123D01*
X032866Y011123D02*
X033097Y011123D01*
X033173Y011200D01*
X033097Y011277D01*
X032943Y011277D01*
X032866Y011353D01*
X032943Y011430D01*
X033173Y011430D01*
X033327Y011430D02*
X033404Y011430D01*
X033404Y011123D01*
X033480Y011123D02*
X033327Y011123D01*
X033634Y011200D02*
X033711Y011123D01*
X033941Y011123D01*
X033941Y011046D02*
X033941Y011430D01*
X033711Y011430D01*
X033634Y011353D01*
X033634Y011200D01*
X033787Y010970D02*
X033864Y010970D01*
X033941Y011046D01*
X034094Y011123D02*
X034094Y011430D01*
X034324Y011430D01*
X034401Y011353D01*
X034401Y011123D01*
X035168Y011123D02*
X035168Y011584D01*
X035015Y011584D02*
X035322Y011584D01*
X035552Y011430D02*
X035475Y011353D01*
X035475Y011200D01*
X035552Y011123D01*
X035706Y011123D01*
X035782Y011277D02*
X035475Y011277D01*
X035552Y011430D02*
X035706Y011430D01*
X035782Y011353D01*
X035782Y011277D01*
X035936Y011200D02*
X036013Y011277D01*
X036243Y011277D01*
X036243Y011353D02*
X036243Y011123D01*
X036013Y011123D01*
X035936Y011200D01*
X036013Y011430D02*
X036166Y011430D01*
X036243Y011353D01*
X036396Y011430D02*
X036396Y011123D01*
X036550Y011123D02*
X036550Y011353D01*
X036626Y011430D01*
X036703Y011353D01*
X036703Y011123D01*
X036550Y011353D02*
X036473Y011430D01*
X036396Y011430D01*
X035782Y010834D02*
X035782Y010373D01*
X035552Y010373D01*
X035475Y010450D01*
X035475Y010603D01*
X035552Y010680D01*
X035782Y010680D01*
X033404Y011584D02*
X033404Y011660D01*
X031332Y011430D02*
X031255Y011430D01*
X031102Y011277D01*
X031102Y011430D02*
X031102Y011123D01*
X030948Y011277D02*
X030641Y011277D01*
X030641Y011353D02*
X030718Y011430D01*
X030871Y011430D01*
X030948Y011353D01*
X030948Y011277D01*
X030871Y011123D02*
X030718Y011123D01*
X030641Y011200D01*
X030641Y011353D01*
X030488Y011430D02*
X030334Y011123D01*
X030181Y011430D01*
X030027Y011353D02*
X029951Y011430D01*
X029797Y011430D01*
X029720Y011353D01*
X029720Y011200D01*
X029797Y011123D01*
X029951Y011123D01*
X030027Y011200D01*
X030027Y011353D01*
X029567Y011353D02*
X029567Y011507D01*
X029490Y011584D01*
X029260Y011584D01*
X029260Y011123D01*
X029260Y011277D02*
X029490Y011277D01*
X029567Y011353D01*
X029414Y011277D02*
X029567Y011123D01*
X029414Y010910D02*
X029414Y010834D01*
X029414Y010680D02*
X029414Y010373D01*
X029490Y010373D02*
X029337Y010373D01*
X029183Y010373D02*
X029183Y010603D01*
X029107Y010680D01*
X028876Y010680D01*
X028876Y010373D01*
X028723Y010527D02*
X028416Y010527D01*
X028416Y010603D02*
X028493Y010680D01*
X028646Y010680D01*
X028723Y010603D01*
X028723Y010527D01*
X028646Y010373D02*
X028493Y010373D01*
X028416Y010450D01*
X028416Y010603D01*
X028263Y010757D02*
X027956Y010450D01*
X027956Y010373D01*
X028263Y010373D01*
X028263Y010757D02*
X028263Y010834D01*
X027956Y010834D01*
X027956Y011123D02*
X027956Y011430D01*
X028109Y011430D02*
X028186Y011430D01*
X028109Y011430D02*
X027956Y011277D01*
X027802Y011277D02*
X027572Y011277D01*
X027495Y011200D01*
X027572Y011123D01*
X027802Y011123D01*
X027802Y011353D01*
X027725Y011430D01*
X027572Y011430D01*
X027342Y011584D02*
X027342Y011123D01*
X027035Y011123D02*
X027035Y011584D01*
X027188Y011430D01*
X027342Y011584D01*
X028339Y011353D02*
X028416Y011430D01*
X028646Y011430D01*
X028569Y011277D02*
X028416Y011277D01*
X028339Y011353D01*
X028339Y011123D02*
X028569Y011123D01*
X028646Y011200D01*
X028569Y011277D01*
X029337Y010680D02*
X029414Y010680D01*
X029644Y010680D02*
X029797Y010680D01*
X029720Y010757D02*
X029720Y010450D01*
X029797Y010373D01*
X029951Y010373D02*
X029951Y010834D01*
X030027Y010680D02*
X030181Y010680D01*
X030258Y010603D01*
X030258Y010373D01*
X029951Y010603D02*
X030027Y010680D01*
X030871Y010834D02*
X030871Y010373D01*
X032636Y010834D02*
X032713Y010834D01*
X043545Y006297D02*
X044006Y006297D01*
X044006Y006144D02*
X044006Y006451D01*
X043699Y006144D02*
X043545Y006297D01*
X043622Y005990D02*
X043545Y005914D01*
X043545Y005760D01*
X043622Y005684D01*
X043699Y005684D01*
X043776Y005760D01*
X043776Y005914D01*
X043852Y005990D01*
X043929Y005990D01*
X044006Y005914D01*
X044006Y005760D01*
X043929Y005684D01*
X043929Y005530D02*
X043545Y005530D01*
X043545Y005223D02*
X043929Y005223D01*
X044006Y005300D01*
X044006Y005453D01*
X043929Y005530D01*
X044082Y005837D02*
X043469Y005837D01*
X049954Y009623D02*
X049954Y010084D01*
X050108Y009930D01*
X050261Y010084D01*
X050261Y009623D01*
X050415Y009623D02*
X050568Y009623D01*
X050492Y009623D02*
X050492Y009930D01*
X050415Y009930D01*
X050492Y010084D02*
X050492Y010160D01*
X050722Y010084D02*
X050722Y009623D01*
X050722Y009777D02*
X050952Y009930D01*
X051105Y009853D02*
X051182Y009930D01*
X051336Y009930D01*
X051412Y009853D01*
X051412Y009777D01*
X051105Y009777D01*
X051105Y009853D02*
X051105Y009700D01*
X051182Y009623D01*
X051336Y009623D01*
X050952Y009623D02*
X050722Y009777D01*
X052026Y009623D02*
X052026Y010084D01*
X052180Y009930D01*
X052333Y010084D01*
X052333Y009623D01*
X052487Y009623D02*
X052640Y009623D01*
X052563Y009623D02*
X052563Y009930D01*
X052487Y009930D01*
X052563Y010084D02*
X052563Y010160D01*
X052793Y010084D02*
X052870Y010084D01*
X052870Y009623D01*
X052793Y009623D02*
X052947Y009623D01*
X053100Y009700D02*
X053100Y009853D01*
X053177Y009930D01*
X053331Y009930D01*
X053407Y009853D01*
X053407Y009777D01*
X053100Y009777D01*
X053100Y009700D02*
X053177Y009623D01*
X053331Y009623D01*
X053561Y009623D02*
X053791Y009623D01*
X053868Y009700D01*
X053791Y009777D01*
X053638Y009777D01*
X053561Y009853D01*
X053638Y009930D01*
X053868Y009930D01*
X054482Y010084D02*
X054482Y009623D01*
X055095Y009623D02*
X055402Y009930D01*
X055402Y010007D01*
X055326Y010084D01*
X055172Y010084D01*
X055095Y010007D01*
X055095Y009623D02*
X055402Y009623D01*
X055556Y009700D02*
X055863Y010007D01*
X055863Y009700D01*
X055786Y009623D01*
X055633Y009623D01*
X055556Y009700D01*
X055556Y010007D01*
X055633Y010084D01*
X055786Y010084D01*
X055863Y010007D01*
X056016Y009930D02*
X056170Y010084D01*
X056170Y009623D01*
X056323Y009623D02*
X056016Y009623D01*
X056477Y009700D02*
X056477Y009853D01*
X056707Y009853D01*
X056784Y009777D01*
X056784Y009700D01*
X056707Y009623D01*
X056553Y009623D01*
X056477Y009700D01*
X056477Y009853D02*
X056630Y010007D01*
X056784Y010084D01*
X056592Y010373D02*
X056592Y010680D01*
X056745Y010680D02*
X056822Y010680D01*
X056745Y010680D02*
X056592Y010527D01*
X056438Y010527D02*
X056208Y010527D01*
X056131Y010450D01*
X056208Y010373D01*
X056438Y010373D01*
X056438Y010603D01*
X056362Y010680D01*
X056208Y010680D01*
X055978Y010603D02*
X055901Y010680D01*
X055748Y010680D01*
X055671Y010603D01*
X055671Y010450D01*
X055748Y010373D01*
X055901Y010373D01*
X055978Y010450D01*
X055978Y010603D01*
X055517Y010527D02*
X055517Y010450D01*
X055441Y010373D01*
X055211Y010373D01*
X055211Y010834D01*
X055441Y010834D01*
X055517Y010757D01*
X055517Y010680D01*
X055441Y010603D01*
X055211Y010603D01*
X055441Y010603D02*
X055517Y010527D01*
X055364Y010970D02*
X055441Y011046D01*
X055441Y011430D01*
X055211Y011430D01*
X055134Y011353D01*
X055134Y011200D01*
X055211Y011123D01*
X055441Y011123D01*
X055594Y011123D02*
X055594Y011430D01*
X055824Y011430D01*
X055901Y011353D01*
X055901Y011123D01*
X055364Y010970D02*
X055287Y010970D01*
X054980Y011123D02*
X054827Y011123D01*
X054904Y011123D02*
X054904Y011430D01*
X054827Y011430D01*
X054673Y011430D02*
X054443Y011430D01*
X054366Y011353D01*
X054443Y011277D01*
X054597Y011277D01*
X054673Y011200D01*
X054597Y011123D01*
X054366Y011123D01*
X054213Y011277D02*
X053906Y011277D01*
X053906Y011353D02*
X053983Y011430D01*
X054136Y011430D01*
X054213Y011353D01*
X054213Y011277D01*
X054136Y011123D02*
X053983Y011123D01*
X053906Y011200D01*
X053906Y011353D01*
X053753Y011200D02*
X053753Y011507D01*
X053676Y011584D01*
X053446Y011584D01*
X053446Y011123D01*
X053676Y011123D01*
X053753Y011200D01*
X053906Y010910D02*
X053906Y010834D01*
X053906Y010680D02*
X053906Y010373D01*
X053829Y010373D02*
X053983Y010373D01*
X054136Y010373D02*
X054290Y010373D01*
X054213Y010373D02*
X054213Y010834D01*
X054136Y010834D01*
X053906Y010680D02*
X053829Y010680D01*
X053676Y010680D02*
X053599Y010680D01*
X053446Y010527D01*
X053446Y010680D02*
X053446Y010373D01*
X053292Y010450D02*
X053292Y010757D01*
X053216Y010834D01*
X052985Y010834D01*
X052985Y010373D01*
X053216Y010373D01*
X053292Y010450D01*
X052371Y010373D02*
X052371Y010834D01*
X052371Y011123D02*
X052218Y011123D01*
X052141Y011200D01*
X052141Y011353D01*
X052218Y011430D01*
X052371Y011430D01*
X052448Y011353D01*
X052448Y011277D01*
X052141Y011277D01*
X051988Y011430D02*
X051834Y011123D01*
X051681Y011430D01*
X051527Y011353D02*
X051451Y011430D01*
X051297Y011430D01*
X051220Y011353D01*
X051220Y011200D01*
X051297Y011123D01*
X051451Y011123D01*
X051527Y011200D01*
X051527Y011353D01*
X051067Y011353D02*
X051067Y011507D01*
X050990Y011584D01*
X050760Y011584D01*
X050760Y011123D01*
X050760Y011277D02*
X050990Y011277D01*
X051067Y011353D01*
X050914Y011277D02*
X051067Y011123D01*
X050914Y010910D02*
X050914Y010834D01*
X050914Y010680D02*
X050914Y010373D01*
X050990Y010373D02*
X050837Y010373D01*
X050683Y010373D02*
X050683Y010603D01*
X050607Y010680D01*
X050376Y010680D01*
X050376Y010373D01*
X050223Y010527D02*
X049916Y010527D01*
X049916Y010603D02*
X049993Y010680D01*
X050146Y010680D01*
X050223Y010603D01*
X050223Y010527D01*
X050146Y010373D02*
X049993Y010373D01*
X049916Y010450D01*
X049916Y010603D01*
X049763Y010757D02*
X049456Y010450D01*
X049456Y010373D01*
X049763Y010373D01*
X049763Y010757D02*
X049763Y010834D01*
X049456Y010834D01*
X049456Y011123D02*
X049456Y011430D01*
X049609Y011430D02*
X049686Y011430D01*
X049609Y011430D02*
X049456Y011277D01*
X049302Y011277D02*
X049072Y011277D01*
X048995Y011200D01*
X049072Y011123D01*
X049302Y011123D01*
X049302Y011353D01*
X049225Y011430D01*
X049072Y011430D01*
X048842Y011584D02*
X048842Y011123D01*
X048535Y011123D02*
X048535Y011584D01*
X048688Y011430D01*
X048842Y011584D01*
X049839Y011353D02*
X049916Y011430D01*
X050146Y011430D01*
X050069Y011277D02*
X049916Y011277D01*
X049839Y011353D01*
X049839Y011123D02*
X050069Y011123D01*
X050146Y011200D01*
X050069Y011277D01*
X050837Y010680D02*
X050914Y010680D01*
X051144Y010680D02*
X051297Y010680D01*
X051220Y010757D02*
X051220Y010450D01*
X051297Y010373D01*
X051451Y010373D02*
X051451Y010834D01*
X051527Y010680D02*
X051681Y010680D01*
X051758Y010603D01*
X051758Y010373D01*
X051451Y010603D02*
X051527Y010680D01*
X052602Y011123D02*
X052602Y011430D01*
X052602Y011277D02*
X052755Y011430D01*
X052832Y011430D01*
X054443Y010834D02*
X054520Y010834D01*
X054520Y010373D01*
X054443Y010373D02*
X054597Y010373D01*
X056668Y011123D02*
X056668Y011584D01*
X056515Y011584D02*
X056822Y011584D01*
X057052Y011430D02*
X056975Y011353D01*
X056975Y011200D01*
X057052Y011123D01*
X057206Y011123D01*
X057282Y011277D02*
X056975Y011277D01*
X057052Y011430D02*
X057206Y011430D01*
X057282Y011353D01*
X057282Y011277D01*
X057436Y011200D02*
X057513Y011277D01*
X057743Y011277D01*
X057743Y011353D02*
X057743Y011123D01*
X057513Y011123D01*
X057436Y011200D01*
X057513Y011430D02*
X057666Y011430D01*
X057743Y011353D01*
X057896Y011430D02*
X057896Y011123D01*
X058050Y011123D02*
X058050Y011353D01*
X058126Y011430D01*
X058203Y011353D01*
X058203Y011123D01*
X058050Y011353D02*
X057973Y011430D01*
X057896Y011430D01*
X057282Y010834D02*
X057282Y010373D01*
X057052Y010373D01*
X056975Y010450D01*
X056975Y010603D01*
X057052Y010680D01*
X057282Y010680D01*
X054904Y011584D02*
X054904Y011660D01*
X042113Y015673D02*
X041806Y015673D01*
X042113Y015980D01*
X042113Y016057D01*
X042036Y016134D01*
X041883Y016134D01*
X041806Y016057D01*
X041653Y016134D02*
X041499Y015980D01*
X041346Y016134D01*
X041346Y015673D01*
X041653Y015673D02*
X041653Y016134D01*
X041806Y018923D02*
X042113Y019230D01*
X042113Y019307D01*
X042036Y019384D01*
X041883Y019384D01*
X041806Y019307D01*
X041653Y019384D02*
X041346Y019384D01*
X041499Y019384D02*
X041499Y018923D01*
X041806Y018923D02*
X042113Y018923D01*
X065045Y006297D02*
X065506Y006297D01*
X065506Y006144D02*
X065506Y006451D01*
X065199Y006144D02*
X065045Y006297D01*
X065122Y005990D02*
X065045Y005914D01*
X065045Y005760D01*
X065122Y005684D01*
X065199Y005684D01*
X065276Y005760D01*
X065276Y005914D01*
X065352Y005990D01*
X065429Y005990D01*
X065506Y005914D01*
X065506Y005760D01*
X065429Y005684D01*
X065429Y005530D02*
X065045Y005530D01*
X065045Y005223D02*
X065429Y005223D01*
X065506Y005300D01*
X065506Y005453D01*
X065429Y005530D01*
X065582Y005837D02*
X064969Y005837D01*
D12*
X057783Y005698D02*
X057783Y005673D01*
X057758Y005648D01*
X057783Y005623D01*
X057783Y005598D01*
X057758Y005573D01*
X057708Y005573D01*
X057683Y005598D01*
X057636Y005598D02*
X057636Y005698D01*
X057611Y005723D01*
X057536Y005723D01*
X057536Y005573D01*
X057611Y005573D01*
X057636Y005598D01*
X057733Y005648D02*
X057758Y005648D01*
X057783Y005698D02*
X057758Y005723D01*
X057708Y005723D01*
X057683Y005698D01*
X057378Y005658D02*
X057353Y005683D01*
X057303Y005683D01*
X057278Y005658D01*
X057231Y005658D02*
X057206Y005683D01*
X057131Y005683D01*
X057131Y005533D01*
X057206Y005533D01*
X057231Y005558D01*
X057231Y005658D01*
X057278Y005533D02*
X057378Y005633D01*
X057378Y005658D01*
X057378Y005533D02*
X057278Y005533D01*
X057536Y006323D02*
X057611Y006323D01*
X057636Y006348D01*
X057636Y006448D01*
X057611Y006473D01*
X057536Y006473D01*
X057536Y006323D01*
X057683Y006323D02*
X057783Y006323D01*
X057733Y006323D02*
X057733Y006473D01*
X057683Y006423D01*
X055671Y006833D02*
X055671Y006883D01*
X055646Y006908D01*
X055521Y006908D01*
X055546Y006955D02*
X055521Y006980D01*
X055521Y007031D01*
X055546Y007056D01*
X055571Y007103D02*
X055521Y007153D01*
X055671Y007153D01*
X055671Y007103D02*
X055671Y007203D01*
X055646Y007250D02*
X055671Y007275D01*
X055671Y007325D01*
X055646Y007350D01*
X055596Y007350D01*
X055571Y007325D01*
X055571Y007300D01*
X055596Y007250D01*
X055521Y007250D01*
X055521Y007350D01*
X055621Y007056D02*
X055596Y007031D01*
X055596Y006980D01*
X055571Y006955D01*
X055546Y006955D01*
X055496Y007006D02*
X055696Y007006D01*
X055671Y007031D02*
X055646Y007056D01*
X055621Y007056D01*
X055671Y007031D02*
X055671Y006980D01*
X055646Y006955D01*
X055671Y006833D02*
X055646Y006808D01*
X055521Y006808D01*
X036283Y006323D02*
X036183Y006323D01*
X036233Y006323D02*
X036233Y006473D01*
X036183Y006423D01*
X036136Y006448D02*
X036111Y006473D01*
X036036Y006473D01*
X036036Y006323D01*
X036111Y006323D01*
X036136Y006348D01*
X036136Y006448D01*
X036111Y005723D02*
X036036Y005723D01*
X036036Y005573D01*
X036111Y005573D01*
X036136Y005598D01*
X036136Y005698D01*
X036111Y005723D01*
X036183Y005698D02*
X036208Y005723D01*
X036258Y005723D01*
X036283Y005698D01*
X036283Y005673D01*
X036258Y005648D01*
X036283Y005623D01*
X036283Y005598D01*
X036258Y005573D01*
X036208Y005573D01*
X036183Y005598D01*
X036233Y005648D02*
X036258Y005648D01*
X035878Y005658D02*
X035853Y005683D01*
X035803Y005683D01*
X035778Y005658D01*
X035731Y005658D02*
X035706Y005683D01*
X035631Y005683D01*
X035631Y005533D01*
X035706Y005533D01*
X035731Y005558D01*
X035731Y005658D01*
X035778Y005533D02*
X035878Y005633D01*
X035878Y005658D01*
X035878Y005533D02*
X035778Y005533D01*
X034171Y006833D02*
X034171Y006883D01*
X034146Y006908D01*
X034021Y006908D01*
X034046Y006955D02*
X034021Y006980D01*
X034021Y007031D01*
X034046Y007056D01*
X034071Y007103D02*
X034021Y007153D01*
X034171Y007153D01*
X034171Y007103D02*
X034171Y007203D01*
X034146Y007250D02*
X034171Y007275D01*
X034171Y007325D01*
X034146Y007350D01*
X034096Y007350D01*
X034071Y007325D01*
X034071Y007300D01*
X034096Y007250D01*
X034021Y007250D01*
X034021Y007350D01*
X034121Y007056D02*
X034096Y007031D01*
X034096Y006980D01*
X034071Y006955D01*
X034046Y006955D01*
X033996Y007006D02*
X034196Y007006D01*
X034171Y007031D02*
X034146Y007056D01*
X034121Y007056D01*
X034171Y007031D02*
X034171Y006980D01*
X034146Y006955D01*
X034171Y006833D02*
X034146Y006808D01*
X034021Y006808D01*
X014783Y006323D02*
X014683Y006323D01*
X014733Y006323D02*
X014733Y006473D01*
X014683Y006423D01*
X014636Y006448D02*
X014611Y006473D01*
X014536Y006473D01*
X014536Y006323D01*
X014611Y006323D01*
X014636Y006348D01*
X014636Y006448D01*
X014611Y005723D02*
X014536Y005723D01*
X014536Y005573D01*
X014611Y005573D01*
X014636Y005598D01*
X014636Y005698D01*
X014611Y005723D01*
X014683Y005698D02*
X014708Y005723D01*
X014758Y005723D01*
X014783Y005698D01*
X014783Y005673D01*
X014758Y005648D01*
X014783Y005623D01*
X014783Y005598D01*
X014758Y005573D01*
X014708Y005573D01*
X014683Y005598D01*
X014733Y005648D02*
X014758Y005648D01*
X014378Y005658D02*
X014353Y005683D01*
X014303Y005683D01*
X014278Y005658D01*
X014231Y005658D02*
X014206Y005683D01*
X014131Y005683D01*
X014131Y005533D01*
X014206Y005533D01*
X014231Y005558D01*
X014231Y005658D01*
X014278Y005533D02*
X014378Y005633D01*
X014378Y005658D01*
X014378Y005533D02*
X014278Y005533D01*
X012671Y006833D02*
X012671Y006883D01*
X012646Y006908D01*
X012521Y006908D01*
X012546Y006955D02*
X012521Y006980D01*
X012521Y007031D01*
X012546Y007056D01*
X012571Y007103D02*
X012521Y007153D01*
X012671Y007153D01*
X012671Y007103D02*
X012671Y007203D01*
X012646Y007250D02*
X012671Y007275D01*
X012671Y007325D01*
X012646Y007350D01*
X012596Y007350D01*
X012571Y007325D01*
X012571Y007300D01*
X012596Y007250D01*
X012521Y007250D01*
X012521Y007350D01*
X012621Y007056D02*
X012596Y007031D01*
X012596Y006980D01*
X012571Y006955D01*
X012546Y006955D01*
X012496Y007006D02*
X012696Y007006D01*
X012671Y007031D02*
X012646Y007056D01*
X012621Y007056D01*
X012671Y007031D02*
X012671Y006980D01*
X012646Y006955D01*
X012671Y006833D02*
X012646Y006808D01*
X012521Y006808D01*
M02*
