G75*
%MOIN*%
%OFA0B0*%
%FSLAX24Y24*%
%IPPOS*%
%LPD*%
%AMOC8*
5,1,8,0,0,1.08239X$1,22.5*
%
%ADD10C,0.0630*%
%ADD11C,0.0907*%
%ADD12R,0.0207X0.0651*%
%ADD13R,0.1360X0.0867*%
%ADD14R,0.1360X0.2049*%
%ADD15R,0.0674X0.0674*%
%ADD16C,0.0674*%
%ADD17C,0.0580*%
%ADD18C,0.0680*%
%ADD19C,0.0142*%
%ADD20R,0.0415X0.0749*%
%ADD21C,0.0390*%
%ADD22C,0.0476*%
D10*
X021426Y005603D03*
X021426Y006603D03*
X021426Y007603D03*
X042926Y007603D03*
X042926Y006603D03*
X042926Y005603D03*
X064426Y005603D03*
X064426Y006603D03*
X064426Y007603D03*
D11*
X067067Y007606D03*
X067067Y009587D03*
X067067Y011556D03*
X067067Y005637D03*
X045567Y005637D03*
X045567Y007606D03*
X045567Y009587D03*
X045567Y011556D03*
X024067Y011556D03*
X024067Y009587D03*
X024067Y007606D03*
X024067Y005637D03*
D12*
X019416Y009558D03*
X019219Y009558D03*
X019022Y009558D03*
X018825Y009558D03*
X018628Y009558D03*
X018432Y009558D03*
X018235Y009558D03*
X018038Y009558D03*
X017841Y009558D03*
X017644Y009558D03*
X017447Y009558D03*
X017251Y009558D03*
X017054Y009558D03*
X016857Y009558D03*
X016660Y009558D03*
X016463Y009558D03*
X016266Y009558D03*
X016069Y009558D03*
X016069Y013141D03*
X016266Y013141D03*
X016463Y013141D03*
X016660Y013141D03*
X016857Y013141D03*
X017054Y013141D03*
X017251Y013141D03*
X017447Y013141D03*
X017644Y013141D03*
X017841Y013141D03*
X018038Y013141D03*
X018235Y013141D03*
X018432Y013141D03*
X018628Y013141D03*
X018825Y013141D03*
X019022Y013141D03*
X019219Y013141D03*
X019416Y013141D03*
X037569Y013141D03*
X037766Y013141D03*
X037963Y013141D03*
X038160Y013141D03*
X038357Y013141D03*
X038554Y013141D03*
X038751Y013141D03*
X038947Y013141D03*
X039144Y013141D03*
X039341Y013141D03*
X039538Y013141D03*
X039735Y013141D03*
X039932Y013141D03*
X040128Y013141D03*
X040325Y013141D03*
X040522Y013141D03*
X040719Y013141D03*
X040916Y013141D03*
X040916Y009558D03*
X040719Y009558D03*
X040522Y009558D03*
X040325Y009558D03*
X040128Y009558D03*
X039932Y009558D03*
X039735Y009558D03*
X039538Y009558D03*
X039341Y009558D03*
X039144Y009558D03*
X038947Y009558D03*
X038751Y009558D03*
X038554Y009558D03*
X038357Y009558D03*
X038160Y009558D03*
X037963Y009558D03*
X037766Y009558D03*
X037569Y009558D03*
X059069Y009558D03*
X059266Y009558D03*
X059463Y009558D03*
X059660Y009558D03*
X059857Y009558D03*
X060054Y009558D03*
X060251Y009558D03*
X060447Y009558D03*
X060644Y009558D03*
X060841Y009558D03*
X061038Y009558D03*
X061235Y009558D03*
X061432Y009558D03*
X061628Y009558D03*
X061825Y009558D03*
X062022Y009558D03*
X062219Y009558D03*
X062416Y009558D03*
X062416Y013141D03*
X062219Y013141D03*
X062022Y013141D03*
X061825Y013141D03*
X061628Y013141D03*
X061432Y013141D03*
X061235Y013141D03*
X061038Y013141D03*
X060841Y013141D03*
X060644Y013141D03*
X060447Y013141D03*
X060251Y013141D03*
X060054Y013141D03*
X059857Y013141D03*
X059660Y013141D03*
X059463Y013141D03*
X059266Y013141D03*
X059069Y013141D03*
D13*
X059896Y011933D03*
X059896Y010763D03*
X038396Y010763D03*
X038396Y011933D03*
X016896Y011933D03*
X016896Y010763D03*
D14*
X018586Y011343D03*
X040086Y011343D03*
X061586Y011343D03*
D15*
X048826Y016203D03*
X027326Y016203D03*
X005826Y016203D03*
D16*
X006826Y016203D03*
X007826Y016203D03*
X008826Y016203D03*
X009826Y016203D03*
X010826Y016203D03*
X011826Y016203D03*
X012826Y016203D03*
X013826Y016203D03*
X014826Y016203D03*
X015826Y016203D03*
X016826Y016203D03*
X017826Y016203D03*
X018826Y016203D03*
X018826Y019203D03*
X017826Y019203D03*
X016826Y019203D03*
X015826Y019203D03*
X014826Y019203D03*
X013826Y019203D03*
X012826Y019203D03*
X011826Y019203D03*
X010826Y019203D03*
X009826Y019203D03*
X008826Y019203D03*
X007826Y019203D03*
X006826Y019203D03*
X005826Y019203D03*
X027326Y019203D03*
X028326Y019203D03*
X029326Y019203D03*
X030326Y019203D03*
X031326Y019203D03*
X032326Y019203D03*
X033326Y019203D03*
X034326Y019203D03*
X035326Y019203D03*
X036326Y019203D03*
X037326Y019203D03*
X038326Y019203D03*
X039326Y019203D03*
X040326Y019203D03*
X040326Y016203D03*
X039326Y016203D03*
X038326Y016203D03*
X037326Y016203D03*
X036326Y016203D03*
X035326Y016203D03*
X034326Y016203D03*
X033326Y016203D03*
X032326Y016203D03*
X031326Y016203D03*
X030326Y016203D03*
X029326Y016203D03*
X028326Y016203D03*
X048826Y019203D03*
X049826Y019203D03*
X050826Y019203D03*
X051826Y019203D03*
X052826Y019203D03*
X053826Y019203D03*
X054826Y019203D03*
X055826Y019203D03*
X056826Y019203D03*
X057826Y019203D03*
X058826Y019203D03*
X059826Y019203D03*
X060826Y019203D03*
X061826Y019203D03*
X061826Y016203D03*
X060826Y016203D03*
X059826Y016203D03*
X058826Y016203D03*
X057826Y016203D03*
X056826Y016203D03*
X055826Y016203D03*
X054826Y016203D03*
X053826Y016203D03*
X052826Y016203D03*
X051826Y016203D03*
X050826Y016203D03*
X049826Y016203D03*
D17*
X046176Y017103D03*
X041456Y017103D03*
X041456Y013853D03*
X046176Y013853D03*
X062956Y013853D03*
X067676Y013853D03*
X067676Y017103D03*
X062956Y017103D03*
X062956Y020353D03*
X060676Y020353D03*
X055956Y020353D03*
X053676Y020353D03*
X048956Y020353D03*
X046176Y020353D03*
X041456Y020353D03*
X039176Y020353D03*
X034456Y020353D03*
X032176Y020353D03*
X027456Y020353D03*
X024676Y020353D03*
X019956Y020353D03*
X017676Y020353D03*
X012956Y020353D03*
X010676Y020353D03*
X005956Y020353D03*
X005956Y023353D03*
X010676Y023353D03*
X012956Y023353D03*
X017676Y023353D03*
X019956Y023353D03*
X024676Y023353D03*
X027456Y023353D03*
X032176Y023353D03*
X034456Y023353D03*
X039176Y023353D03*
X041456Y023353D03*
X046176Y023353D03*
X048956Y023353D03*
X053676Y023353D03*
X055956Y023353D03*
X060676Y023353D03*
X062956Y023353D03*
X067676Y023353D03*
X067676Y020353D03*
X024676Y017103D03*
X019956Y017103D03*
X019956Y013853D03*
X024676Y013853D03*
D18*
X023496Y014623D03*
X022316Y014623D03*
X021136Y014623D03*
X021136Y017873D03*
X022316Y017873D03*
X023496Y017873D03*
X023496Y021123D03*
X022316Y021123D03*
X021136Y021123D03*
X016496Y021123D03*
X015316Y021123D03*
X014136Y021123D03*
X009496Y021123D03*
X008316Y021123D03*
X007136Y021123D03*
X007136Y024123D03*
X008316Y024123D03*
X009496Y024123D03*
X014136Y024123D03*
X015316Y024123D03*
X016496Y024123D03*
X021136Y024123D03*
X022316Y024123D03*
X023496Y024123D03*
X028636Y024123D03*
X029816Y024123D03*
X030996Y024123D03*
X035636Y024123D03*
X036816Y024123D03*
X037996Y024123D03*
X042636Y024123D03*
X043816Y024123D03*
X044996Y024123D03*
X050136Y024123D03*
X051316Y024123D03*
X052496Y024123D03*
X057136Y024123D03*
X058316Y024123D03*
X059496Y024123D03*
X064136Y024123D03*
X065316Y024123D03*
X066496Y024123D03*
X066496Y021123D03*
X065316Y021123D03*
X064136Y021123D03*
X059496Y021123D03*
X058316Y021123D03*
X057136Y021123D03*
X052496Y021123D03*
X051316Y021123D03*
X050136Y021123D03*
X044996Y021123D03*
X043816Y021123D03*
X042636Y021123D03*
X037996Y021123D03*
X036816Y021123D03*
X035636Y021123D03*
X030996Y021123D03*
X029816Y021123D03*
X028636Y021123D03*
X042636Y017873D03*
X043816Y017873D03*
X044996Y017873D03*
X044996Y014623D03*
X043816Y014623D03*
X042636Y014623D03*
X064136Y014623D03*
X065316Y014623D03*
X066496Y014623D03*
X066496Y017873D03*
X065316Y017873D03*
X064136Y017873D03*
D19*
X057987Y006919D02*
X057987Y006587D01*
X057655Y006587D01*
X057655Y006919D01*
X057987Y006919D01*
X057987Y006728D02*
X057655Y006728D01*
X057655Y006869D02*
X057987Y006869D01*
X057296Y006919D02*
X057296Y006587D01*
X056964Y006587D01*
X056964Y006919D01*
X057296Y006919D01*
X057296Y006728D02*
X056964Y006728D01*
X056964Y006869D02*
X057296Y006869D01*
X057296Y006169D02*
X057296Y005837D01*
X056964Y005837D01*
X056964Y006169D01*
X057296Y006169D01*
X057296Y005978D02*
X056964Y005978D01*
X056964Y006119D02*
X057296Y006119D01*
X057987Y006169D02*
X057987Y005837D01*
X057655Y005837D01*
X057655Y006169D01*
X057987Y006169D01*
X057987Y005978D02*
X057655Y005978D01*
X057655Y006119D02*
X057987Y006119D01*
X057655Y005419D02*
X057655Y005087D01*
X057655Y005419D02*
X057987Y005419D01*
X057987Y005087D01*
X057655Y005087D01*
X057655Y005228D02*
X057987Y005228D01*
X057987Y005369D02*
X057655Y005369D01*
X056964Y005419D02*
X056964Y005087D01*
X056964Y005419D02*
X057296Y005419D01*
X057296Y005087D01*
X056964Y005087D01*
X056964Y005228D02*
X057296Y005228D01*
X057296Y005369D02*
X056964Y005369D01*
X036155Y005419D02*
X036155Y005087D01*
X036155Y005419D02*
X036487Y005419D01*
X036487Y005087D01*
X036155Y005087D01*
X036155Y005228D02*
X036487Y005228D01*
X036487Y005369D02*
X036155Y005369D01*
X035464Y005419D02*
X035464Y005087D01*
X035464Y005419D02*
X035796Y005419D01*
X035796Y005087D01*
X035464Y005087D01*
X035464Y005228D02*
X035796Y005228D01*
X035796Y005369D02*
X035464Y005369D01*
X035796Y005837D02*
X035796Y006169D01*
X035796Y005837D02*
X035464Y005837D01*
X035464Y006169D01*
X035796Y006169D01*
X035796Y005978D02*
X035464Y005978D01*
X035464Y006119D02*
X035796Y006119D01*
X036487Y006169D02*
X036487Y005837D01*
X036155Y005837D01*
X036155Y006169D01*
X036487Y006169D01*
X036487Y005978D02*
X036155Y005978D01*
X036155Y006119D02*
X036487Y006119D01*
X036487Y006587D02*
X036487Y006919D01*
X036487Y006587D02*
X036155Y006587D01*
X036155Y006919D01*
X036487Y006919D01*
X036487Y006728D02*
X036155Y006728D01*
X036155Y006869D02*
X036487Y006869D01*
X035796Y006919D02*
X035796Y006587D01*
X035464Y006587D01*
X035464Y006919D01*
X035796Y006919D01*
X035796Y006728D02*
X035464Y006728D01*
X035464Y006869D02*
X035796Y006869D01*
X014987Y006919D02*
X014987Y006587D01*
X014655Y006587D01*
X014655Y006919D01*
X014987Y006919D01*
X014987Y006728D02*
X014655Y006728D01*
X014655Y006869D02*
X014987Y006869D01*
X014296Y006919D02*
X014296Y006587D01*
X013964Y006587D01*
X013964Y006919D01*
X014296Y006919D01*
X014296Y006728D02*
X013964Y006728D01*
X013964Y006869D02*
X014296Y006869D01*
X014296Y006169D02*
X014296Y005837D01*
X013964Y005837D01*
X013964Y006169D01*
X014296Y006169D01*
X014296Y005978D02*
X013964Y005978D01*
X013964Y006119D02*
X014296Y006119D01*
X014987Y006169D02*
X014987Y005837D01*
X014655Y005837D01*
X014655Y006169D01*
X014987Y006169D01*
X014987Y005978D02*
X014655Y005978D01*
X014655Y006119D02*
X014987Y006119D01*
X014655Y005419D02*
X014655Y005087D01*
X014655Y005419D02*
X014987Y005419D01*
X014987Y005087D01*
X014655Y005087D01*
X014655Y005228D02*
X014987Y005228D01*
X014987Y005369D02*
X014655Y005369D01*
X013964Y005419D02*
X013964Y005087D01*
X013964Y005419D02*
X014296Y005419D01*
X014296Y005087D01*
X013964Y005087D01*
X013964Y005228D02*
X014296Y005228D01*
X014296Y005369D02*
X013964Y005369D01*
D20*
X005802Y005382D03*
X007377Y005382D03*
X008951Y005382D03*
X010526Y005382D03*
X012101Y005382D03*
X012888Y006563D03*
X011314Y006563D03*
X009739Y006563D03*
X008164Y006563D03*
X006589Y006563D03*
X005802Y014043D03*
X007377Y014043D03*
X008951Y014043D03*
X010526Y014043D03*
X012101Y014043D03*
X012888Y015224D03*
X011314Y015224D03*
X009739Y015224D03*
X008164Y015224D03*
X006589Y015224D03*
X027302Y014043D03*
X028877Y014043D03*
X030451Y014043D03*
X032026Y014043D03*
X033601Y014043D03*
X034388Y015224D03*
X032814Y015224D03*
X031239Y015224D03*
X029664Y015224D03*
X028089Y015224D03*
X048802Y014043D03*
X050377Y014043D03*
X051951Y014043D03*
X053526Y014043D03*
X055101Y014043D03*
X055888Y015224D03*
X054314Y015224D03*
X052739Y015224D03*
X051164Y015224D03*
X049589Y015224D03*
X049589Y006563D03*
X051164Y006563D03*
X052739Y006563D03*
X054314Y006563D03*
X055888Y006563D03*
X055101Y005382D03*
X053526Y005382D03*
X051951Y005382D03*
X050377Y005382D03*
X048802Y005382D03*
X034388Y006563D03*
X032814Y006563D03*
X031239Y006563D03*
X029664Y006563D03*
X028089Y006563D03*
X027302Y005382D03*
X028877Y005382D03*
X030451Y005382D03*
X032026Y005382D03*
X033601Y005382D03*
D21*
X034426Y005603D03*
X035126Y005253D03*
X035126Y006003D03*
X036826Y006753D03*
X041626Y007053D03*
X041626Y008203D03*
X039226Y008853D03*
X038676Y009053D03*
X038276Y009053D03*
X037876Y009053D03*
X037926Y010553D03*
X038426Y010553D03*
X038876Y010553D03*
X038876Y011003D03*
X038426Y011003D03*
X037926Y011003D03*
X037926Y011703D03*
X037926Y012153D03*
X038426Y012153D03*
X038876Y012153D03*
X038876Y011703D03*
X038426Y011703D03*
X040926Y012703D03*
X038676Y013653D03*
X038276Y013653D03*
X037876Y013653D03*
X036426Y014103D03*
X037826Y014853D03*
X039326Y014403D03*
X040026Y014053D03*
X040876Y014953D03*
X039826Y017103D03*
X037826Y017953D03*
X036526Y018053D03*
X039676Y018253D03*
X033626Y019853D03*
X031676Y019703D03*
X031276Y020053D03*
X032826Y020803D03*
X033426Y022203D03*
X032926Y023053D03*
X039526Y021853D03*
X040276Y022603D03*
X029826Y018703D03*
X030826Y018653D03*
X033576Y015203D03*
X019376Y014953D03*
X017826Y014403D03*
X018526Y014053D03*
X017176Y013653D03*
X016776Y013653D03*
X016376Y013653D03*
X014926Y014103D03*
X016326Y014853D03*
X012076Y015203D03*
X018326Y017103D03*
X016326Y017953D03*
X015026Y018053D03*
X018176Y018253D03*
X012126Y019853D03*
X010176Y019703D03*
X009776Y020053D03*
X011326Y020803D03*
X011926Y022203D03*
X011426Y023053D03*
X018026Y021853D03*
X018776Y022603D03*
X008326Y018703D03*
X009326Y018653D03*
X019426Y012703D03*
X017376Y012153D03*
X017376Y011703D03*
X016926Y011703D03*
X016926Y012153D03*
X016426Y012153D03*
X016426Y011703D03*
X016426Y011003D03*
X016926Y011003D03*
X017376Y011003D03*
X017376Y010553D03*
X016926Y010553D03*
X016426Y010553D03*
X016376Y009053D03*
X016776Y009053D03*
X017176Y009053D03*
X017726Y008853D03*
X020126Y008203D03*
X020126Y007053D03*
X015326Y006753D03*
X013626Y006003D03*
X012926Y005603D03*
X013626Y005253D03*
X006926Y007503D03*
X005676Y007103D03*
X027176Y007103D03*
X028426Y007503D03*
X048676Y007103D03*
X049926Y007503D03*
X055926Y005603D03*
X056626Y005253D03*
X056626Y006003D03*
X058326Y006753D03*
X063126Y007053D03*
X063126Y008203D03*
X060726Y008853D03*
X060176Y009053D03*
X059776Y009053D03*
X059376Y009053D03*
X059426Y010553D03*
X059926Y010553D03*
X060376Y010553D03*
X060376Y011003D03*
X059926Y011003D03*
X059426Y011003D03*
X059426Y011703D03*
X059426Y012153D03*
X059926Y012153D03*
X060376Y012153D03*
X060376Y011703D03*
X059926Y011703D03*
X062426Y012703D03*
X060176Y013653D03*
X059776Y013653D03*
X059376Y013653D03*
X057926Y014103D03*
X059326Y014853D03*
X060826Y014403D03*
X061526Y014053D03*
X062376Y014953D03*
X061326Y017103D03*
X059326Y017953D03*
X058026Y018053D03*
X061176Y018253D03*
X055126Y019853D03*
X053176Y019703D03*
X052776Y020053D03*
X054326Y020803D03*
X054926Y022203D03*
X054426Y023053D03*
X061026Y021853D03*
X061776Y022603D03*
X051326Y018703D03*
X052326Y018653D03*
X055076Y015203D03*
D22*
X050426Y019853D03*
X050676Y021603D03*
X056426Y021353D03*
X056676Y022603D03*
X035176Y022603D03*
X034926Y021353D03*
X029176Y021603D03*
X028926Y019853D03*
X013676Y022603D03*
X013426Y021353D03*
X007676Y021603D03*
X007426Y019853D03*
M02*
