%
M48
M72
T01C0.0150
T02C0.0236
T03C0.0276
T04C0.0400
T05C0.0500
T06C0.0512
T07C0.1600
%
T01
X6973Y7293
X8273Y7293
X9573Y7293
X12373Y8793
X14973Y9793
X19173Y11793
X19573Y11793
X22073Y11893
X23873Y12193
X24273Y10593
X26173Y10593
X33873Y8093
X35973Y8093
X39673Y8593
X38073Y11993
X38473Y13293
X40073Y13693
X39473Y14793
X40423Y15318
X41373Y15393
X40273Y16193
X39973Y16493
X40573Y16693
X39673Y16993
X39373Y16693
X39073Y16093
X38773Y17393
X40073Y18093
X39773Y18393
X39373Y18393
X39073Y18693
X41573Y18993
X41873Y18693
X42173Y18393
X42773Y17293
X43073Y16993
X41673Y17193
X44773Y16093
X45173Y15693
X46973Y13993
X51073Y13893
X51373Y11393
X53273Y11393
X41973Y13193
X32873Y18293
X40973Y20593
X41473Y20293
X42773Y20593
X43073Y20293
X44273Y21893
X43173Y22593
X42973Y23593
X43573Y23593
X42373Y23593
X41773Y23593
X41273Y23993
X40973Y23693
X44073Y24593
X44373Y24893
X47173Y23193
X51473Y22093
X51473Y21093
X53373Y21493
X54373Y21393
X51173Y19593
X53873Y23793
X30273Y24593
X29973Y23693
X24373Y23493
X24373Y23893
X22973Y23193
X21773Y22093
X21773Y21693
X21773Y21293
X22973Y20393
X23473Y20093
X23373Y19593
X24073Y19193
X23273Y20893
X24473Y22093
X20373Y22693
X19873Y21693
X14273Y20993
X12773Y25093
X22773Y17593
X23573Y15293
X23573Y14893
X16973Y15293
X14873Y12293
T02
X15073Y17793
X22273Y18593
T03
X23048Y14218
X23048Y13218
T04
X22673Y8393
X23673Y8393
X24673Y8393
X25673Y8393
X26673Y8393
X27673Y8393
X28673Y8393
X29673Y8393
X29673Y7393
X28673Y7393
X27673Y7393
X26673Y7393
X25673Y7393
X24673Y7393
X23673Y7393
X22673Y7393
X21673Y7393
X20673Y7393
X20673Y8393
X21673Y8393
X43653Y14453
X43653Y15633
X43653Y16813
X46493Y16833
X46493Y15653
X46493Y14473
X53673Y14409
X53673Y13425
X53673Y15393
X53673Y17675
X53673Y18659
X53673Y19643
X46393Y19973
X46393Y21153
X46393Y22333
X43653Y22313
X43653Y21133
X43653Y19953
X45673Y24393
X46673Y24393
X47673Y24393
X48673Y24393
X49673Y24393
X50673Y24393
X51673Y24393
X52673Y24393
X53673Y24393
X54673Y24393
X54673Y25393
X53673Y25393
X52673Y25393
X51673Y25393
X50673Y25393
X49673Y25393
X48673Y25393
X47673Y25393
X46673Y25393
X45673Y25393
X29673Y25393
X28673Y25393
X27673Y25393
X26673Y25393
X25673Y25393
X24673Y25393
X23673Y25393
X22673Y25393
X21673Y25393
X20673Y25393
X20673Y24393
X21673Y24393
X22673Y24393
X23673Y24393
X24673Y24393
X25673Y24393
X26673Y24393
X27673Y24393
X28673Y24393
X29673Y24393
X15043Y23583
X15043Y22403
X15043Y21223
X13173Y21375
X13173Y22359
X13173Y23343
X45673Y8393
X46673Y8393
X47673Y8393
X48673Y8393
X49673Y8393
X50673Y8393
X51673Y8393
X52673Y8393
X53673Y8393
X54673Y8393
X54673Y7393
X53673Y7393
X52673Y7393
X51673Y7393
X50673Y7393
X49673Y7393
X48673Y7393
X47673Y7393
X46673Y7393
X45673Y7393
T05
X45723Y13293
X44423Y13273
X44423Y17993
X44423Y18773
X45623Y18793
X45723Y18013
X45623Y23513
X44423Y23493
X19643Y24763
X19273Y23583
X18093Y23583
X18093Y22403
X19273Y22403
X19273Y21223
X18093Y21223
X19643Y20043
X14273Y20043
X14273Y24763
X30763Y7553
X33323Y7553
T06
X35573Y8693
T07
X44273Y11643
X47373Y11643
X16373Y10343
X13273Y10343
X13273Y13693
X13273Y16793
X16373Y16793
M30
