G75*
%MOIN*%
%OFA0B0*%
%FSLAX24Y24*%
%IPPOS*%
%LPD*%
%AMOC8*
5,1,8,0,0,1.08239X$1,22.5*
%
%ADD10C,0.0592*%
%ADD11OC8,0.0680*%
%ADD12C,0.0820*%
%ADD13R,0.0474X0.0513*%
%ADD14C,0.0730*%
%ADD15R,0.0730X0.0730*%
%ADD16C,0.2080*%
%ADD17C,0.0580*%
%ADD18C,0.0680*%
%ADD19R,0.0513X0.0474*%
%ADD20R,0.0552X0.0631*%
%ADD21C,0.0830*%
%ADD22C,0.0390*%
%ADD23C,0.0476*%
D10*
X035573Y008693D03*
D11*
X029673Y008393D03*
X028673Y008393D03*
X027673Y008393D03*
X026673Y008393D03*
X025673Y008393D03*
X024673Y008393D03*
X023673Y008393D03*
X022673Y008393D03*
X021673Y008393D03*
X020673Y008393D03*
X020673Y007393D03*
X021673Y007393D03*
X022673Y007393D03*
X023673Y007393D03*
X024673Y007393D03*
X025673Y007393D03*
X026673Y007393D03*
X027673Y007393D03*
X028673Y007393D03*
X029673Y007393D03*
X045673Y007393D03*
X046673Y007393D03*
X047673Y007393D03*
X048673Y007393D03*
X049673Y007393D03*
X050673Y007393D03*
X051673Y007393D03*
X052673Y007393D03*
X053673Y007393D03*
X054673Y007393D03*
X054673Y008393D03*
X053673Y008393D03*
X052673Y008393D03*
X051673Y008393D03*
X050673Y008393D03*
X049673Y008393D03*
X048673Y008393D03*
X047673Y008393D03*
X046673Y008393D03*
X045673Y008393D03*
X045673Y024393D03*
X046673Y024393D03*
X047673Y024393D03*
X048673Y024393D03*
X049673Y024393D03*
X050673Y024393D03*
X051673Y024393D03*
X052673Y024393D03*
X053673Y024393D03*
X054673Y024393D03*
X054673Y025393D03*
X053673Y025393D03*
X052673Y025393D03*
X051673Y025393D03*
X050673Y025393D03*
X049673Y025393D03*
X048673Y025393D03*
X047673Y025393D03*
X046673Y025393D03*
X045673Y025393D03*
X029673Y025393D03*
X028673Y025393D03*
X027673Y025393D03*
X026673Y025393D03*
X025673Y025393D03*
X024673Y025393D03*
X023673Y025393D03*
X022673Y025393D03*
X021673Y025393D03*
X020673Y025393D03*
X020673Y024393D03*
X021673Y024393D03*
X022673Y024393D03*
X023673Y024393D03*
X024673Y024393D03*
X025673Y024393D03*
X026673Y024393D03*
X027673Y024393D03*
X028673Y024393D03*
X029673Y024393D03*
D12*
X013173Y023343D03*
X013173Y022359D03*
X013173Y021375D03*
X053673Y019643D03*
X053673Y018659D03*
X053673Y017675D03*
X053673Y015393D03*
X053673Y014409D03*
X053673Y013425D03*
D13*
X043573Y023959D03*
X042973Y023959D03*
X042373Y023959D03*
X041773Y023959D03*
X041773Y024628D03*
X042373Y024628D03*
X042973Y024628D03*
X043573Y024628D03*
X022023Y011828D03*
X022023Y011159D03*
X009298Y008178D03*
X009298Y007509D03*
X007998Y007509D03*
X007998Y008178D03*
X006748Y008178D03*
X006748Y007509D03*
D14*
X023048Y014218D03*
D15*
X023048Y013218D03*
D16*
X016373Y010343D03*
X013273Y010343D03*
X013273Y013693D03*
X013273Y016793D03*
X016373Y016793D03*
X044273Y011643D03*
X047373Y011643D03*
D17*
X045723Y013293D03*
X044423Y013273D03*
X044423Y017993D03*
X044423Y018773D03*
X045623Y018793D03*
X045723Y018013D03*
X045623Y023513D03*
X044423Y023493D03*
X022273Y018593D03*
X019643Y020043D03*
X014273Y020043D03*
X014273Y024763D03*
X019643Y024763D03*
D18*
X015043Y023583D03*
X015043Y022403D03*
X015043Y021223D03*
X043653Y021133D03*
X043653Y019953D03*
X046393Y019973D03*
X046393Y021153D03*
X046393Y022333D03*
X043653Y022313D03*
X043653Y016813D03*
X043653Y015633D03*
X043653Y014453D03*
X046493Y014473D03*
X046493Y015653D03*
X046493Y016833D03*
D19*
X053438Y020893D03*
X054107Y020893D03*
X053907Y012093D03*
X053238Y012093D03*
X035032Y008043D03*
X034363Y008043D03*
X013607Y008793D03*
X012938Y008793D03*
X022238Y020393D03*
X022907Y020393D03*
X023207Y020893D03*
X022538Y020893D03*
X017057Y021243D03*
X016388Y021243D03*
X013407Y024593D03*
X012738Y024593D03*
D20*
X034982Y008693D03*
X036163Y008693D03*
D21*
X033323Y007553D03*
X030763Y007553D03*
X019273Y021223D03*
X018093Y021223D03*
X018093Y022403D03*
X019273Y022403D03*
X019273Y023583D03*
X018093Y023583D03*
D22*
X006973Y007293D03*
X008273Y007293D03*
X009573Y007293D03*
X012373Y008793D03*
X014973Y009793D03*
X019173Y011793D03*
X019573Y011793D03*
X022073Y011893D03*
X023873Y012193D03*
X024273Y010593D03*
X026173Y010593D03*
X033873Y008093D03*
X035973Y008093D03*
X039673Y008593D03*
X038073Y011993D03*
X038473Y013293D03*
X040073Y013693D03*
X039473Y014793D03*
X040423Y015318D03*
X041373Y015393D03*
X040273Y016193D03*
X039973Y016493D03*
X040573Y016693D03*
X039673Y016993D03*
X039373Y016693D03*
X039073Y016093D03*
X038773Y017393D03*
X040073Y018093D03*
X039773Y018393D03*
X039373Y018393D03*
X039073Y018693D03*
X041573Y018993D03*
X041873Y018693D03*
X042173Y018393D03*
X042773Y017293D03*
X043073Y016993D03*
X041673Y017193D03*
X044773Y016093D03*
X045173Y015693D03*
X046973Y013993D03*
X051073Y013893D03*
X051373Y011393D03*
X053273Y011393D03*
X041973Y013193D03*
X032873Y018293D03*
X040973Y020593D03*
X041473Y020293D03*
X042773Y020593D03*
X043073Y020293D03*
X044273Y021893D03*
X043173Y022593D03*
X042973Y023593D03*
X043573Y023593D03*
X042373Y023593D03*
X041773Y023593D03*
X041273Y023993D03*
X040973Y023693D03*
X044073Y024593D03*
X044373Y024893D03*
X047173Y023193D03*
X051473Y022093D03*
X051473Y021093D03*
X053373Y021493D03*
X054373Y021393D03*
X051173Y019593D03*
X053873Y023793D03*
X030273Y024593D03*
X029973Y023693D03*
X024373Y023493D03*
X024373Y023893D03*
X022973Y023193D03*
X021773Y022093D03*
X021773Y021693D03*
X021773Y021293D03*
X022973Y020393D03*
X023473Y020093D03*
X023373Y019593D03*
X024073Y019193D03*
X023273Y020893D03*
X024473Y022093D03*
X020373Y022693D03*
X019873Y021693D03*
X014273Y020993D03*
X012773Y025093D03*
X022773Y017593D03*
X023573Y015293D03*
X023573Y014893D03*
X016973Y015293D03*
X014873Y012293D03*
D23*
X015073Y017793D03*
M02*
