G75*
%MOIN*%
%OFA0B0*%
%FSLAX24Y24*%
%IPPOS*%
%LPD*%
%AMOC8*
5,1,8,0,0,1.08239X$1,22.5*
%
%ADD10OC8,0.0600*%
%ADD11C,0.0740*%
%ADD12R,0.0394X0.0433*%
%ADD13C,0.0650*%
%ADD14R,0.0650X0.0650*%
%ADD15C,0.2000*%
%ADD16C,0.0600*%
%ADD17R,0.0433X0.0394*%
%ADD18R,0.0472X0.0551*%
%ADD19C,0.0750*%
%ADD20C,0.0100*%
%ADD21C,0.0310*%
%ADD22C,0.0500*%
%ADD23C,0.0500*%
%ADD24C,0.0396*%
D10*
X020673Y007393D03*
X021673Y007393D03*
X022673Y007393D03*
X023673Y007393D03*
X024673Y007393D03*
X025673Y007393D03*
X026673Y007393D03*
X027673Y007393D03*
X028673Y007393D03*
X029673Y007393D03*
X029673Y008393D03*
X028673Y008393D03*
X027673Y008393D03*
X026673Y008393D03*
X025673Y008393D03*
X024673Y008393D03*
X023673Y008393D03*
X022673Y008393D03*
X021673Y008393D03*
X020673Y008393D03*
X045673Y008393D03*
X046673Y008393D03*
X047673Y008393D03*
X048673Y008393D03*
X049673Y008393D03*
X050673Y008393D03*
X051673Y008393D03*
X052673Y008393D03*
X053673Y008393D03*
X054673Y008393D03*
X054673Y007393D03*
X053673Y007393D03*
X052673Y007393D03*
X051673Y007393D03*
X050673Y007393D03*
X049673Y007393D03*
X048673Y007393D03*
X047673Y007393D03*
X046673Y007393D03*
X045673Y007393D03*
X045673Y024393D03*
X046673Y024393D03*
X047673Y024393D03*
X048673Y024393D03*
X049673Y024393D03*
X050673Y024393D03*
X051673Y024393D03*
X052673Y024393D03*
X053673Y024393D03*
X054673Y024393D03*
X054673Y025393D03*
X053673Y025393D03*
X052673Y025393D03*
X051673Y025393D03*
X050673Y025393D03*
X049673Y025393D03*
X048673Y025393D03*
X047673Y025393D03*
X046673Y025393D03*
X045673Y025393D03*
X029673Y025393D03*
X028673Y025393D03*
X027673Y025393D03*
X026673Y025393D03*
X025673Y025393D03*
X024673Y025393D03*
X023673Y025393D03*
X022673Y025393D03*
X021673Y025393D03*
X020673Y025393D03*
X020673Y024393D03*
X021673Y024393D03*
X022673Y024393D03*
X023673Y024393D03*
X024673Y024393D03*
X025673Y024393D03*
X026673Y024393D03*
X027673Y024393D03*
X028673Y024393D03*
X029673Y024393D03*
D11*
X013173Y023343D03*
X013173Y022359D03*
X013173Y021375D03*
X053673Y019643D03*
X053673Y018659D03*
X053673Y017675D03*
X053673Y015393D03*
X053673Y014409D03*
X053673Y013425D03*
D12*
X043573Y023959D03*
X042973Y023959D03*
X042373Y023959D03*
X041773Y023959D03*
X041773Y024628D03*
X042373Y024628D03*
X042973Y024628D03*
X043573Y024628D03*
X022023Y011828D03*
X022023Y011159D03*
X009298Y008178D03*
X009298Y007509D03*
X007998Y007509D03*
X007998Y008178D03*
X006748Y008178D03*
X006748Y007509D03*
D13*
X023048Y014218D03*
D14*
X023048Y013218D03*
D15*
X016373Y010343D03*
X013273Y010343D03*
X013273Y013693D03*
X013273Y016793D03*
X016373Y016793D03*
X044273Y011643D03*
X047373Y011643D03*
D16*
X046493Y014473D03*
X046493Y015653D03*
X046493Y016833D03*
X043653Y016813D03*
X043653Y015633D03*
X043653Y014453D03*
X043653Y019953D03*
X043653Y021133D03*
X043653Y022313D03*
X046393Y022333D03*
X046393Y021153D03*
X046393Y019973D03*
X015043Y021223D03*
X015043Y022403D03*
X015043Y023583D03*
D17*
X013407Y024593D03*
X012738Y024593D03*
X016388Y021243D03*
X017057Y021243D03*
X022238Y020393D03*
X022907Y020393D03*
X023207Y020893D03*
X022538Y020893D03*
X013607Y008793D03*
X012938Y008793D03*
X034363Y008043D03*
X035032Y008043D03*
X053238Y012093D03*
X053907Y012093D03*
X054107Y020893D03*
X053438Y020893D03*
D18*
X036163Y008693D03*
X034982Y008693D03*
D19*
X033323Y007553D03*
X030763Y007553D03*
X019273Y021223D03*
X018093Y021223D03*
X018093Y022403D03*
X019273Y022403D03*
X019273Y023583D03*
X018093Y023583D03*
D20*
X006298Y017943D02*
X006298Y007018D01*
X020482Y007018D01*
X020273Y007228D01*
X020273Y007559D01*
X020507Y007793D01*
X020839Y007793D01*
X021073Y007559D01*
X021073Y007228D01*
X020864Y007018D01*
X021482Y007018D01*
X021273Y007228D01*
X021273Y007559D01*
X021507Y007793D01*
X021839Y007793D01*
X022073Y007559D01*
X022073Y007228D01*
X021864Y007018D01*
X022482Y007018D01*
X022273Y007228D01*
X022273Y007559D01*
X022507Y007793D01*
X022839Y007793D01*
X023073Y007559D01*
X023073Y007228D01*
X022864Y007018D01*
X023482Y007018D01*
X023273Y007228D01*
X023273Y007559D01*
X023507Y007793D01*
X023839Y007793D01*
X024073Y007559D01*
X024073Y007228D01*
X023864Y007018D01*
X024482Y007018D01*
X024273Y007228D01*
X024273Y007559D01*
X024507Y007793D01*
X024839Y007793D01*
X025073Y007559D01*
X025073Y007228D01*
X024864Y007018D01*
X025482Y007018D01*
X025273Y007228D01*
X025273Y007559D01*
X025507Y007793D01*
X025839Y007793D01*
X026073Y007559D01*
X026073Y007228D01*
X025864Y007018D01*
X026482Y007018D01*
X026273Y007228D01*
X026273Y007559D01*
X026507Y007793D01*
X026839Y007793D01*
X027073Y007559D01*
X027073Y007228D01*
X026864Y007018D01*
X027482Y007018D01*
X027273Y007228D01*
X027273Y007559D01*
X027507Y007793D01*
X027839Y007793D01*
X028073Y007559D01*
X028073Y007228D01*
X027864Y007018D01*
X028482Y007018D01*
X028273Y007228D01*
X028273Y007559D01*
X028507Y007793D01*
X028839Y007793D01*
X029073Y007559D01*
X029073Y007228D01*
X028864Y007018D01*
X029482Y007018D01*
X029273Y007228D01*
X029273Y007343D01*
X029623Y007343D01*
X029623Y007443D01*
X029273Y007443D01*
X029273Y007559D01*
X029507Y007793D01*
X029623Y007793D01*
X029623Y007443D01*
X029723Y007443D01*
X030073Y007443D01*
X030073Y007559D01*
X029839Y007793D01*
X029723Y007793D01*
X029723Y007443D01*
X029723Y007343D01*
X030073Y007343D01*
X030073Y007228D01*
X029864Y007018D01*
X045482Y007018D01*
X045273Y007228D01*
X045273Y007559D01*
X045507Y007793D01*
X045839Y007793D01*
X046073Y007559D01*
X046073Y007228D01*
X045864Y007018D01*
X046482Y007018D01*
X046273Y007228D01*
X046273Y007559D01*
X046507Y007793D01*
X046839Y007793D01*
X047073Y007559D01*
X047073Y007228D01*
X046864Y007018D01*
X047482Y007018D01*
X047273Y007228D01*
X047273Y007559D01*
X047507Y007793D01*
X047839Y007793D01*
X048073Y007559D01*
X048073Y007228D01*
X047864Y007018D01*
X048482Y007018D01*
X048273Y007228D01*
X048273Y007559D01*
X048507Y007793D01*
X048839Y007793D01*
X049073Y007559D01*
X049073Y007228D01*
X048864Y007018D01*
X049482Y007018D01*
X049273Y007228D01*
X049273Y007559D01*
X049507Y007793D01*
X049839Y007793D01*
X050073Y007559D01*
X050073Y007228D01*
X049864Y007018D01*
X050482Y007018D01*
X050273Y007228D01*
X050273Y007559D01*
X050507Y007793D01*
X050839Y007793D01*
X051073Y007559D01*
X051073Y007228D01*
X050864Y007018D01*
X051482Y007018D01*
X051273Y007228D01*
X051273Y007559D01*
X051507Y007793D01*
X051839Y007793D01*
X052073Y007559D01*
X052073Y007228D01*
X051864Y007018D01*
X052482Y007018D01*
X052273Y007228D01*
X052273Y007559D01*
X052507Y007793D01*
X052839Y007793D01*
X053073Y007559D01*
X053073Y007228D01*
X052864Y007018D01*
X053482Y007018D01*
X053273Y007228D01*
X053273Y007559D01*
X053507Y007793D01*
X053839Y007793D01*
X054073Y007559D01*
X054073Y007228D01*
X053864Y007018D01*
X054482Y007018D01*
X054273Y007228D01*
X054273Y007343D01*
X054623Y007343D01*
X054623Y007443D01*
X054273Y007443D01*
X054273Y007559D01*
X054507Y007793D01*
X054623Y007793D01*
X054623Y007443D01*
X054723Y007443D01*
X054723Y007793D01*
X054839Y007793D01*
X055048Y007584D01*
X055048Y008203D01*
X054839Y007993D01*
X054507Y007993D01*
X054273Y008228D01*
X054273Y008559D01*
X054507Y008793D01*
X054839Y008793D01*
X055048Y008584D01*
X055048Y024203D01*
X054839Y023993D01*
X054507Y023993D01*
X054323Y024178D01*
X054323Y024055D01*
X054735Y023643D01*
X054735Y023643D01*
X054823Y023555D01*
X054823Y018613D01*
X054095Y017885D01*
X054143Y017768D01*
X054143Y017581D01*
X054095Y017465D01*
X054723Y016837D01*
X054723Y014263D01*
X054635Y014175D01*
X054095Y013635D01*
X054143Y013518D01*
X054143Y013331D01*
X054071Y013159D01*
X053939Y013026D01*
X053766Y012955D01*
X053579Y012955D01*
X053407Y013026D01*
X053274Y013159D01*
X053203Y013331D01*
X053203Y013518D01*
X053274Y013691D01*
X053407Y013823D01*
X053579Y013895D01*
X053766Y013895D01*
X053883Y013847D01*
X054423Y014387D01*
X054423Y016713D01*
X053883Y017253D01*
X053766Y017205D01*
X053579Y017205D01*
X053407Y017276D01*
X053274Y017409D01*
X053203Y017581D01*
X053203Y017768D01*
X053274Y017941D01*
X053407Y018073D01*
X053579Y018145D01*
X053766Y018145D01*
X053883Y018097D01*
X054523Y018737D01*
X054523Y021183D01*
X054517Y021177D01*
X054424Y021138D01*
X054412Y021138D01*
X054424Y021110D01*
X054424Y020942D01*
X054156Y020942D01*
X054059Y020942D01*
X054059Y021190D01*
X053871Y021190D01*
X053834Y021175D01*
X053806Y021147D01*
X053791Y021110D01*
X053791Y020942D01*
X054059Y020942D01*
X054059Y020845D01*
X053791Y020845D01*
X053791Y020677D01*
X053806Y020640D01*
X053834Y020612D01*
X053871Y020596D01*
X054059Y020596D01*
X054059Y020845D01*
X054156Y020845D01*
X054156Y020942D01*
X054156Y021190D01*
X054215Y021190D01*
X054157Y021249D01*
X054118Y021343D01*
X054118Y021444D01*
X054157Y021538D01*
X054228Y021609D01*
X054322Y021648D01*
X054323Y021648D01*
X054323Y023331D01*
X054047Y023607D01*
X054017Y023577D01*
X053924Y023538D01*
X053822Y023538D01*
X053728Y023577D01*
X053657Y023649D01*
X053618Y023743D01*
X053618Y023844D01*
X053657Y023938D01*
X053723Y024004D01*
X053723Y024343D01*
X053623Y024343D01*
X053623Y023993D01*
X053507Y023993D01*
X053273Y024228D01*
X053273Y024343D01*
X053623Y024343D01*
X053623Y024443D01*
X053273Y024443D01*
X053273Y024559D01*
X053457Y024743D01*
X053111Y024743D01*
X053023Y024831D01*
X053023Y024831D01*
X052850Y025004D01*
X052839Y024993D01*
X052507Y024993D01*
X052273Y025228D01*
X052273Y025243D01*
X052073Y025243D01*
X052073Y025228D01*
X051839Y024993D01*
X051507Y024993D01*
X051273Y025228D01*
X051273Y025559D01*
X051482Y025768D01*
X050864Y025768D01*
X051073Y025559D01*
X051073Y025228D01*
X050839Y024993D01*
X050507Y024993D01*
X050273Y025228D01*
X050273Y025559D01*
X050482Y025768D01*
X049864Y025768D01*
X050073Y025559D01*
X050073Y025228D01*
X049839Y024993D01*
X049507Y024993D01*
X049496Y025004D01*
X049385Y024893D01*
X049496Y024782D01*
X049507Y024793D01*
X049839Y024793D01*
X050073Y024559D01*
X050073Y024228D01*
X049839Y023993D01*
X049507Y023993D01*
X049273Y024228D01*
X049273Y024559D01*
X049284Y024570D01*
X049211Y024643D01*
X048989Y024643D01*
X049073Y024559D01*
X049073Y024228D01*
X048839Y023993D01*
X048507Y023993D01*
X048273Y024228D01*
X048273Y024559D01*
X048357Y024643D01*
X047989Y024643D01*
X048073Y024559D01*
X048073Y024228D01*
X047839Y023993D01*
X047507Y023993D01*
X047273Y024228D01*
X047273Y024559D01*
X047357Y024643D01*
X046989Y024643D01*
X047073Y024559D01*
X047073Y024228D01*
X046839Y023993D01*
X046507Y023993D01*
X046273Y024228D01*
X046273Y024559D01*
X046357Y024643D01*
X046211Y024643D01*
X046123Y024731D01*
X045850Y025004D01*
X045839Y024993D01*
X045507Y024993D01*
X045273Y025228D01*
X045273Y025559D01*
X045482Y025768D01*
X029864Y025768D01*
X030073Y025559D01*
X030073Y025228D01*
X029962Y025117D01*
X030230Y024848D01*
X030324Y024848D01*
X030417Y024809D01*
X030489Y024738D01*
X030528Y024644D01*
X030528Y024543D01*
X030489Y024449D01*
X030417Y024377D01*
X030324Y024338D01*
X030222Y024338D01*
X030128Y024377D01*
X030073Y024433D01*
X030073Y024228D01*
X029839Y023993D01*
X029507Y023993D01*
X029323Y024178D01*
X029323Y024055D01*
X029535Y023843D01*
X029762Y023843D01*
X029828Y023909D01*
X029922Y023948D01*
X030024Y023948D01*
X030117Y023909D01*
X030189Y023838D01*
X030228Y023744D01*
X030228Y023643D01*
X030189Y023549D01*
X030117Y023477D01*
X030024Y023438D01*
X029922Y023438D01*
X029828Y023477D01*
X029762Y023543D01*
X029411Y023543D01*
X029323Y023631D01*
X029023Y023931D01*
X029023Y024178D01*
X028839Y023993D01*
X028723Y023993D01*
X028723Y024343D01*
X028623Y024343D01*
X028623Y023993D01*
X028507Y023993D01*
X028273Y024228D01*
X028273Y024343D01*
X028623Y024343D01*
X028623Y024443D01*
X028273Y024443D01*
X028273Y024559D01*
X028357Y024643D01*
X027989Y024643D01*
X028073Y024559D01*
X028073Y024228D01*
X027839Y023993D01*
X027507Y023993D01*
X027496Y024004D01*
X027235Y023743D01*
X026535Y023743D01*
X026335Y023543D01*
X025335Y023543D01*
X025223Y023431D01*
X025223Y023131D01*
X025135Y023043D01*
X024923Y022831D01*
X024923Y016031D01*
X024835Y015943D01*
X023828Y014936D01*
X023828Y014843D01*
X023789Y014749D01*
X023717Y014677D01*
X023624Y014638D01*
X023522Y014638D01*
X023428Y014677D01*
X023357Y014749D01*
X023318Y014843D01*
X023318Y014944D01*
X023357Y015038D01*
X023412Y015093D01*
X023357Y015149D01*
X023318Y015243D01*
X023318Y015344D01*
X023357Y015438D01*
X023428Y015509D01*
X023522Y015548D01*
X023624Y015548D01*
X023689Y015521D01*
X024223Y016055D01*
X024223Y018983D01*
X024217Y018977D01*
X024124Y018938D01*
X024022Y018938D01*
X023928Y018977D01*
X023857Y019049D01*
X023818Y019143D01*
X023818Y019244D01*
X023857Y019338D01*
X023928Y019409D01*
X024022Y019448D01*
X024023Y019448D01*
X024023Y020231D01*
X023823Y020031D01*
X023735Y019943D01*
X023683Y019943D01*
X023617Y019877D01*
X023524Y019838D01*
X023422Y019838D01*
X023328Y019877D01*
X023257Y019949D01*
X023218Y020043D01*
X023218Y020144D01*
X023221Y020152D01*
X023165Y020096D01*
X022650Y020096D01*
X022591Y020155D01*
X022591Y020596D01*
X022587Y020596D01*
X022587Y020845D01*
X022587Y020942D01*
X022855Y020942D01*
X022855Y021110D01*
X022839Y021147D01*
X022811Y021175D01*
X022775Y021190D01*
X022587Y021190D01*
X022587Y020942D01*
X022490Y020942D01*
X022490Y021190D01*
X022302Y021190D01*
X022265Y021175D01*
X022237Y021147D01*
X022222Y021110D01*
X022222Y020942D01*
X022490Y020942D01*
X022490Y020845D01*
X022587Y020845D01*
X022855Y020845D01*
X022855Y020690D01*
X022891Y020690D01*
X022891Y021132D01*
X022950Y021190D01*
X023423Y021190D01*
X023423Y023155D01*
X024118Y023850D01*
X024118Y023944D01*
X024157Y024038D01*
X024228Y024109D01*
X024322Y024148D01*
X024352Y024148D01*
X024273Y024228D01*
X024273Y024559D01*
X024507Y024793D01*
X024839Y024793D01*
X025073Y024559D01*
X025073Y024543D01*
X025273Y024543D01*
X025273Y024559D01*
X025507Y024793D01*
X025839Y024793D01*
X026073Y024559D01*
X026073Y024228D01*
X025889Y024043D01*
X026111Y024043D01*
X026284Y024217D01*
X026273Y024228D01*
X026273Y024559D01*
X026507Y024793D01*
X026839Y024793D01*
X027073Y024559D01*
X027073Y024228D01*
X026889Y024043D01*
X027111Y024043D01*
X027284Y024217D01*
X027273Y024228D01*
X027273Y024559D01*
X027457Y024743D01*
X027111Y024743D01*
X027023Y024831D01*
X026850Y025004D01*
X026839Y024993D01*
X026507Y024993D01*
X026273Y025228D01*
X026273Y025559D01*
X026482Y025768D01*
X025864Y025768D01*
X026073Y025559D01*
X026073Y025228D01*
X025839Y024993D01*
X025507Y024993D01*
X025273Y025228D01*
X025273Y025559D01*
X025482Y025768D01*
X024864Y025768D01*
X025073Y025559D01*
X025073Y025228D01*
X024839Y024993D01*
X024507Y024993D01*
X024273Y025228D01*
X024273Y025559D01*
X024482Y025768D01*
X023864Y025768D01*
X024073Y025559D01*
X024073Y025228D01*
X023839Y024993D01*
X023507Y024993D01*
X023273Y025228D01*
X023273Y025559D01*
X023482Y025768D01*
X022864Y025768D01*
X023073Y025559D01*
X023073Y025228D01*
X022839Y024993D01*
X022507Y024993D01*
X022273Y025228D01*
X022273Y025559D01*
X022482Y025768D01*
X021864Y025768D01*
X022073Y025559D01*
X022073Y025228D01*
X021839Y024993D01*
X021507Y024993D01*
X021273Y025228D01*
X021273Y025559D01*
X021482Y025768D01*
X020864Y025768D01*
X021073Y025559D01*
X021073Y025228D01*
X020839Y024993D01*
X020507Y024993D01*
X020273Y025228D01*
X020273Y025559D01*
X020482Y025768D01*
X012523Y025768D01*
X012523Y025156D01*
X012557Y025238D01*
X012628Y025309D01*
X012722Y025348D01*
X012824Y025348D01*
X012917Y025309D01*
X012989Y025238D01*
X013028Y025144D01*
X013028Y025043D01*
X012989Y024949D01*
X012930Y024890D01*
X012996Y024890D01*
X013055Y024832D01*
X013055Y024355D01*
X012996Y024296D01*
X012523Y024296D01*
X012523Y018002D01*
X012464Y017943D01*
X006298Y017943D01*
X006298Y017925D02*
X014723Y017925D01*
X014723Y017827D02*
X006298Y017827D01*
X006298Y017728D02*
X014723Y017728D01*
X014723Y017724D02*
X014776Y017595D01*
X014875Y017497D01*
X015003Y017443D01*
X015142Y017443D01*
X015271Y017497D01*
X015370Y017595D01*
X015423Y017724D01*
X015423Y021093D01*
X016072Y021093D01*
X016072Y021005D01*
X016130Y020946D01*
X016646Y020946D01*
X016705Y021005D01*
X016705Y021482D01*
X016646Y021540D01*
X016130Y021540D01*
X016072Y021482D01*
X016072Y021393D01*
X015405Y021393D01*
X015382Y021450D01*
X015269Y021562D01*
X015122Y021623D01*
X014963Y021623D01*
X014816Y021562D01*
X014704Y021450D01*
X014643Y021303D01*
X014643Y021144D01*
X014704Y020997D01*
X014723Y020978D01*
X014723Y017724D01*
X014762Y017630D02*
X006298Y017630D01*
X006298Y017531D02*
X014840Y017531D01*
X015306Y017531D02*
X015555Y017531D01*
X015493Y017469D02*
X015348Y017218D01*
X015273Y016938D01*
X015273Y016648D01*
X015348Y016369D01*
X015493Y016118D01*
X015697Y015913D01*
X015948Y015768D01*
X016228Y015693D01*
X016518Y015693D01*
X016797Y015768D01*
X017048Y015913D01*
X017253Y016118D01*
X017398Y016369D01*
X017473Y016648D01*
X017473Y016938D01*
X017398Y017218D01*
X017253Y017469D01*
X017048Y017674D01*
X016797Y017818D01*
X016518Y017893D01*
X016228Y017893D01*
X015948Y017818D01*
X015697Y017674D01*
X015493Y017469D01*
X015472Y017433D02*
X006298Y017433D01*
X006298Y017334D02*
X015415Y017334D01*
X015358Y017236D02*
X006298Y017236D01*
X006298Y017137D02*
X015326Y017137D01*
X015300Y017039D02*
X006298Y017039D01*
X006298Y016940D02*
X015273Y016940D01*
X015273Y016842D02*
X006298Y016842D01*
X006298Y016743D02*
X015273Y016743D01*
X015274Y016645D02*
X006298Y016645D01*
X006298Y016546D02*
X015300Y016546D01*
X015327Y016448D02*
X006298Y016448D01*
X006298Y016349D02*
X015359Y016349D01*
X015416Y016251D02*
X006298Y016251D01*
X006298Y016152D02*
X015473Y016152D01*
X015557Y016054D02*
X006298Y016054D01*
X006298Y015955D02*
X015655Y015955D01*
X015795Y015857D02*
X006298Y015857D01*
X006298Y015758D02*
X015985Y015758D01*
X016760Y015758D02*
X021723Y015758D01*
X021723Y015660D02*
X006298Y015660D01*
X006298Y015561D02*
X021723Y015561D01*
X021723Y015463D02*
X017164Y015463D01*
X017183Y015443D02*
X017117Y015509D01*
X017024Y015548D01*
X016922Y015548D01*
X016828Y015509D01*
X016757Y015438D01*
X016718Y015344D01*
X016718Y015243D01*
X016757Y015149D01*
X016828Y015077D01*
X016922Y015038D01*
X017024Y015038D01*
X017117Y015077D01*
X017183Y015143D01*
X018811Y015143D01*
X019023Y014931D01*
X019023Y012004D01*
X018957Y011938D01*
X018918Y011844D01*
X018918Y011743D01*
X018957Y011649D01*
X019028Y011577D01*
X019122Y011538D01*
X019224Y011538D01*
X019317Y011577D01*
X019373Y011633D01*
X019428Y011577D01*
X019522Y011538D01*
X019624Y011538D01*
X019717Y011577D01*
X019789Y011649D01*
X019828Y011743D01*
X019828Y011836D01*
X020035Y012043D01*
X021726Y012043D01*
X021726Y011570D01*
X021785Y011511D01*
X022261Y011511D01*
X022320Y011570D01*
X022320Y011823D01*
X022328Y011843D01*
X022328Y011944D01*
X022320Y011964D01*
X022320Y012043D01*
X023662Y012043D01*
X023728Y011977D01*
X023822Y011938D01*
X023924Y011938D01*
X024017Y011977D01*
X024089Y012049D01*
X024128Y012143D01*
X024128Y012244D01*
X024089Y012338D01*
X024017Y012409D01*
X039323Y012409D01*
X039323Y012311D02*
X024100Y012311D01*
X024128Y012212D02*
X039323Y012212D01*
X039323Y012114D02*
X024116Y012114D01*
X024055Y012015D02*
X039323Y012015D01*
X039323Y011917D02*
X022328Y011917D01*
X022320Y012015D02*
X023690Y012015D01*
X023873Y012193D02*
X019973Y012193D01*
X019573Y011793D01*
X019761Y011621D02*
X021726Y011621D01*
X021726Y011720D02*
X019818Y011720D01*
X019828Y011818D02*
X021726Y011818D01*
X021726Y011917D02*
X019908Y011917D01*
X020007Y012015D02*
X021726Y012015D01*
X022007Y011828D02*
X022073Y011893D01*
X022023Y011828D02*
X022007Y011828D01*
X022320Y011818D02*
X039323Y011818D01*
X039323Y011720D02*
X022320Y011720D01*
X022320Y011621D02*
X039323Y011621D01*
X039323Y011523D02*
X022273Y011523D01*
X022240Y011475D02*
X022071Y011475D01*
X022071Y011207D01*
X021974Y011207D01*
X021974Y011110D01*
X021726Y011110D01*
X021726Y010922D01*
X021741Y010885D01*
X021769Y010857D01*
X021806Y010842D01*
X021974Y010842D01*
X021974Y011110D01*
X022071Y011110D01*
X022071Y010842D01*
X022240Y010842D01*
X022276Y010857D01*
X022304Y010885D01*
X022320Y010922D01*
X022320Y011110D01*
X022071Y011110D01*
X022071Y011207D01*
X022320Y011207D01*
X022320Y011395D01*
X022304Y011432D01*
X022276Y011460D01*
X022240Y011475D01*
X022308Y011424D02*
X039323Y011424D01*
X039323Y011326D02*
X022320Y011326D01*
X022320Y011227D02*
X039323Y011227D01*
X039323Y011129D02*
X022071Y011129D01*
X021974Y011129D02*
X017143Y011129D01*
X017048Y011224D02*
X016797Y011368D01*
X016518Y011443D01*
X016228Y011443D01*
X015948Y011368D01*
X015697Y011224D01*
X015493Y011019D01*
X015348Y010768D01*
X015273Y010488D01*
X015273Y010198D01*
X015348Y009919D01*
X015493Y009668D01*
X015697Y009463D01*
X015948Y009318D01*
X016228Y009243D01*
X016518Y009243D01*
X016797Y009318D01*
X017048Y009463D01*
X017253Y009668D01*
X017398Y009919D01*
X017473Y010198D01*
X017473Y010488D01*
X017398Y010768D01*
X017253Y011019D01*
X017048Y011224D01*
X017042Y011227D02*
X021726Y011227D01*
X021726Y011207D02*
X021726Y011395D01*
X021741Y011432D01*
X021769Y011460D01*
X021806Y011475D01*
X021974Y011475D01*
X021974Y011207D01*
X021726Y011207D01*
X021726Y011326D02*
X016871Y011326D01*
X016589Y011424D02*
X021738Y011424D01*
X021773Y011523D02*
X006298Y011523D01*
X006298Y011621D02*
X018984Y011621D01*
X018927Y011720D02*
X006298Y011720D01*
X006298Y011818D02*
X018918Y011818D01*
X018948Y011917D02*
X006298Y011917D01*
X006298Y012015D02*
X019023Y012015D01*
X019023Y012114D02*
X006298Y012114D01*
X006298Y012212D02*
X019023Y012212D01*
X019023Y012311D02*
X006298Y012311D01*
X006298Y012409D02*
X019023Y012409D01*
X019023Y012508D02*
X006298Y012508D01*
X006298Y012606D02*
X013079Y012606D01*
X013128Y012593D02*
X013418Y012593D01*
X013697Y012668D01*
X013948Y012813D01*
X014153Y013018D01*
X014298Y013269D01*
X014373Y013548D01*
X014373Y013838D01*
X014298Y014118D01*
X014153Y014369D01*
X013948Y014574D01*
X013697Y014718D01*
X013418Y014793D01*
X013128Y014793D01*
X012848Y014718D01*
X012597Y014574D01*
X012393Y014369D01*
X012248Y014118D01*
X012173Y013838D01*
X012173Y013548D01*
X012248Y013269D01*
X012393Y013018D01*
X012597Y012813D01*
X012848Y012668D01*
X013128Y012593D01*
X013466Y012606D02*
X019023Y012606D01*
X019023Y012705D02*
X013761Y012705D01*
X013931Y012803D02*
X019023Y012803D01*
X019023Y012902D02*
X014037Y012902D01*
X014135Y013000D02*
X019023Y013000D01*
X019023Y013099D02*
X014200Y013099D01*
X014257Y013197D02*
X019023Y013197D01*
X019023Y013296D02*
X014305Y013296D01*
X014332Y013394D02*
X019023Y013394D01*
X019023Y013493D02*
X014358Y013493D01*
X014373Y013591D02*
X019023Y013591D01*
X019023Y013690D02*
X014373Y013690D01*
X014373Y013788D02*
X019023Y013788D01*
X019023Y013887D02*
X014360Y013887D01*
X014333Y013985D02*
X019023Y013985D01*
X019023Y014084D02*
X014307Y014084D01*
X014261Y014182D02*
X019023Y014182D01*
X019023Y014281D02*
X014204Y014281D01*
X014142Y014379D02*
X019023Y014379D01*
X019023Y014478D02*
X014044Y014478D01*
X013943Y014576D02*
X019023Y014576D01*
X019023Y014675D02*
X013773Y014675D01*
X013492Y014773D02*
X019023Y014773D01*
X019023Y014872D02*
X006298Y014872D01*
X006298Y014970D02*
X018984Y014970D01*
X018885Y015069D02*
X017097Y015069D01*
X016848Y015069D02*
X006298Y015069D01*
X006298Y015167D02*
X016749Y015167D01*
X016718Y015266D02*
X006298Y015266D01*
X006298Y015364D02*
X016726Y015364D01*
X016782Y015463D02*
X006298Y015463D01*
X006298Y014773D02*
X013053Y014773D01*
X012773Y014675D02*
X006298Y014675D01*
X006298Y014576D02*
X012602Y014576D01*
X012502Y014478D02*
X006298Y014478D01*
X006298Y014379D02*
X012403Y014379D01*
X012342Y014281D02*
X006298Y014281D01*
X006298Y014182D02*
X012285Y014182D01*
X012239Y014084D02*
X006298Y014084D01*
X006298Y013985D02*
X012212Y013985D01*
X012186Y013887D02*
X006298Y013887D01*
X006298Y013788D02*
X012173Y013788D01*
X012173Y013690D02*
X006298Y013690D01*
X006298Y013591D02*
X012173Y013591D01*
X012188Y013493D02*
X006298Y013493D01*
X006298Y013394D02*
X012214Y013394D01*
X012241Y013296D02*
X006298Y013296D01*
X006298Y013197D02*
X012289Y013197D01*
X012346Y013099D02*
X006298Y013099D01*
X006298Y013000D02*
X012410Y013000D01*
X012509Y012902D02*
X006298Y012902D01*
X006298Y012803D02*
X012614Y012803D01*
X012785Y012705D02*
X006298Y012705D01*
X006298Y011424D02*
X016157Y011424D01*
X015875Y011326D02*
X006298Y011326D01*
X006298Y011227D02*
X015704Y011227D01*
X015603Y011129D02*
X006298Y011129D01*
X006298Y011030D02*
X015504Y011030D01*
X015442Y010932D02*
X006298Y010932D01*
X006298Y010833D02*
X015386Y010833D01*
X015339Y010735D02*
X006298Y010735D01*
X006298Y010636D02*
X015313Y010636D01*
X015286Y010538D02*
X006298Y010538D01*
X006298Y010439D02*
X015273Y010439D01*
X015273Y010341D02*
X006298Y010341D01*
X006298Y010242D02*
X015273Y010242D01*
X015287Y010144D02*
X006298Y010144D01*
X006298Y010045D02*
X014915Y010045D01*
X014922Y010048D02*
X014828Y010009D01*
X014757Y009938D01*
X014718Y009844D01*
X014718Y009743D01*
X014757Y009649D01*
X014828Y009577D01*
X014922Y009538D01*
X015016Y009538D01*
X016311Y008243D01*
X020273Y008243D01*
X020273Y008228D01*
X020507Y007993D01*
X020839Y007993D01*
X021073Y008228D01*
X021073Y008559D01*
X020839Y008793D01*
X020507Y008793D01*
X020273Y008559D01*
X020273Y008543D01*
X016435Y008543D01*
X015228Y009750D01*
X015228Y009844D01*
X015189Y009938D01*
X015117Y010009D01*
X015024Y010048D01*
X014922Y010048D01*
X015031Y010045D02*
X015314Y010045D01*
X015340Y009947D02*
X015180Y009947D01*
X015226Y009848D02*
X015388Y009848D01*
X015445Y009750D02*
X015228Y009750D01*
X015327Y009651D02*
X015509Y009651D01*
X015425Y009553D02*
X015608Y009553D01*
X015524Y009454D02*
X015713Y009454D01*
X015622Y009356D02*
X015883Y009356D01*
X015721Y009257D02*
X016176Y009257D01*
X015918Y009060D02*
X025923Y009060D01*
X025923Y008962D02*
X016016Y008962D01*
X016115Y008863D02*
X025991Y008863D01*
X025923Y008931D02*
X026284Y008570D01*
X026273Y008559D01*
X026273Y008228D01*
X026507Y007993D01*
X026839Y007993D01*
X027073Y008228D01*
X027073Y008559D01*
X026839Y008793D01*
X026507Y008793D01*
X026496Y008782D01*
X026223Y009055D01*
X026223Y010338D01*
X026224Y010338D01*
X026317Y010377D01*
X026389Y010449D01*
X026428Y010543D01*
X026428Y010644D01*
X026389Y010738D01*
X026317Y010809D01*
X026224Y010848D01*
X026122Y010848D01*
X026028Y010809D01*
X025957Y010738D01*
X025918Y010644D01*
X025918Y010543D01*
X025923Y010531D01*
X025923Y008931D01*
X025839Y008793D02*
X025507Y008793D01*
X025273Y008559D01*
X025273Y008228D01*
X025507Y007993D01*
X025839Y007993D01*
X026073Y008228D01*
X026073Y008559D01*
X025839Y008793D01*
X025867Y008765D02*
X026089Y008765D01*
X026188Y008666D02*
X025966Y008666D01*
X026064Y008568D02*
X026282Y008568D01*
X026273Y008469D02*
X026073Y008469D01*
X026073Y008371D02*
X026273Y008371D01*
X026273Y008272D02*
X026073Y008272D01*
X026019Y008174D02*
X026327Y008174D01*
X026425Y008075D02*
X025921Y008075D01*
X025852Y007780D02*
X026494Y007780D01*
X026395Y007681D02*
X025951Y007681D01*
X026049Y007583D02*
X026297Y007583D01*
X026273Y007484D02*
X026073Y007484D01*
X026073Y007386D02*
X026273Y007386D01*
X026273Y007287D02*
X026073Y007287D01*
X026034Y007189D02*
X026312Y007189D01*
X026410Y007090D02*
X025936Y007090D01*
X025410Y007090D02*
X024936Y007090D01*
X025034Y007189D02*
X025312Y007189D01*
X025273Y007287D02*
X025073Y007287D01*
X025073Y007386D02*
X025273Y007386D01*
X025273Y007484D02*
X025073Y007484D01*
X025049Y007583D02*
X025297Y007583D01*
X025395Y007681D02*
X024951Y007681D01*
X024852Y007780D02*
X025494Y007780D01*
X025425Y008075D02*
X024921Y008075D01*
X024839Y007993D02*
X025073Y008228D01*
X025073Y008559D01*
X024839Y008793D01*
X024507Y008793D01*
X024273Y008559D01*
X024273Y008228D01*
X024507Y007993D01*
X024839Y007993D01*
X025019Y008174D02*
X025327Y008174D01*
X025273Y008272D02*
X025073Y008272D01*
X025073Y008371D02*
X025273Y008371D01*
X025273Y008469D02*
X025073Y008469D01*
X025064Y008568D02*
X025282Y008568D01*
X025380Y008666D02*
X024966Y008666D01*
X024867Y008765D02*
X025479Y008765D01*
X026073Y008993D02*
X026673Y008393D01*
X026966Y008666D02*
X027380Y008666D01*
X027282Y008568D02*
X027064Y008568D01*
X027073Y008469D02*
X027273Y008469D01*
X027273Y008559D02*
X027273Y008228D01*
X027507Y007993D01*
X027839Y007993D01*
X028073Y008228D01*
X028073Y008559D01*
X027839Y008793D01*
X027507Y008793D01*
X027273Y008559D01*
X027273Y008371D02*
X027073Y008371D01*
X027073Y008272D02*
X027273Y008272D01*
X027327Y008174D02*
X027019Y008174D01*
X026921Y008075D02*
X027425Y008075D01*
X027494Y007780D02*
X026852Y007780D01*
X026951Y007681D02*
X027395Y007681D01*
X027297Y007583D02*
X027049Y007583D01*
X027073Y007484D02*
X027273Y007484D01*
X027273Y007386D02*
X027073Y007386D01*
X027073Y007287D02*
X027273Y007287D01*
X027312Y007189D02*
X027034Y007189D01*
X026936Y007090D02*
X027410Y007090D01*
X027936Y007090D02*
X028410Y007090D01*
X028312Y007189D02*
X028034Y007189D01*
X028073Y007287D02*
X028273Y007287D01*
X028273Y007386D02*
X028073Y007386D01*
X028073Y007484D02*
X028273Y007484D01*
X028297Y007583D02*
X028049Y007583D01*
X027951Y007681D02*
X028395Y007681D01*
X028494Y007780D02*
X027852Y007780D01*
X027921Y008075D02*
X028425Y008075D01*
X028507Y007993D02*
X028839Y007993D01*
X029073Y008228D01*
X029073Y008559D01*
X028839Y008793D01*
X028507Y008793D01*
X028273Y008559D01*
X028273Y008228D01*
X028507Y007993D01*
X028327Y008174D02*
X028019Y008174D01*
X028073Y008272D02*
X028273Y008272D01*
X028273Y008371D02*
X028073Y008371D01*
X028073Y008469D02*
X028273Y008469D01*
X028282Y008568D02*
X028064Y008568D01*
X027966Y008666D02*
X028380Y008666D01*
X028479Y008765D02*
X027867Y008765D01*
X027479Y008765D02*
X026867Y008765D01*
X026415Y008863D02*
X034646Y008863D01*
X034646Y008765D02*
X029867Y008765D01*
X029839Y008793D02*
X029507Y008793D01*
X029273Y008559D01*
X029273Y008228D01*
X029507Y007993D01*
X029839Y007993D01*
X030073Y008228D01*
X030073Y008559D01*
X029839Y008793D01*
X029966Y008666D02*
X034646Y008666D01*
X034646Y008568D02*
X030064Y008568D01*
X030073Y008469D02*
X034646Y008469D01*
X034646Y008376D02*
X034705Y008318D01*
X034752Y008318D01*
X034716Y008282D01*
X034716Y007805D01*
X034775Y007746D01*
X035290Y007746D01*
X035349Y007805D01*
X035349Y008282D01*
X035290Y008340D01*
X035282Y008340D01*
X035319Y008376D01*
X035319Y008444D01*
X035371Y008392D01*
X035502Y008337D01*
X035644Y008337D01*
X035774Y008392D01*
X035827Y008444D01*
X035827Y008376D01*
X035875Y008329D01*
X035828Y008309D01*
X035757Y008238D01*
X035718Y008144D01*
X035718Y008043D01*
X035757Y007949D01*
X035828Y007877D01*
X035922Y007838D01*
X036024Y007838D01*
X036117Y007877D01*
X036189Y007949D01*
X036228Y008043D01*
X036228Y008136D01*
X036313Y008222D01*
X036313Y008318D01*
X036441Y008318D01*
X036500Y008376D01*
X036500Y009010D01*
X036441Y009069D01*
X035886Y009069D01*
X035827Y009010D01*
X035827Y008942D01*
X035774Y008995D01*
X035644Y009049D01*
X035502Y009049D01*
X035371Y008995D01*
X035319Y008942D01*
X035319Y009010D01*
X035260Y009069D01*
X034705Y009069D01*
X034646Y009010D01*
X034646Y008376D01*
X034652Y008371D02*
X030073Y008371D01*
X030073Y008272D02*
X033691Y008272D01*
X033657Y008238D02*
X033728Y008309D01*
X033822Y008348D01*
X033924Y008348D01*
X034017Y008309D01*
X034047Y008280D01*
X034047Y008282D01*
X034105Y008340D01*
X034621Y008340D01*
X034680Y008282D01*
X034680Y007805D01*
X034621Y007746D01*
X034105Y007746D01*
X034047Y007805D01*
X034047Y007893D01*
X034033Y007893D01*
X034017Y007877D01*
X033924Y007838D01*
X033822Y007838D01*
X033728Y007877D01*
X033657Y007949D01*
X033618Y008043D01*
X033618Y008144D01*
X033657Y008238D01*
X033630Y008174D02*
X030019Y008174D01*
X029921Y008075D02*
X033618Y008075D01*
X033645Y007977D02*
X033538Y007977D01*
X033505Y007994D02*
X033572Y007960D01*
X033632Y007916D01*
X033685Y007863D01*
X033729Y007802D01*
X033763Y007736D01*
X033786Y007665D01*
X033796Y007603D01*
X033373Y007603D01*
X033373Y007503D01*
X033373Y007080D01*
X033434Y007090D01*
X033505Y007113D01*
X033572Y007147D01*
X033632Y007191D01*
X033685Y007244D01*
X033729Y007304D01*
X033763Y007371D01*
X033786Y007442D01*
X033796Y007503D01*
X033373Y007503D01*
X033273Y007503D01*
X033273Y007080D01*
X033212Y007090D01*
X033140Y007113D01*
X033074Y007147D01*
X033013Y007191D01*
X032961Y007244D01*
X032917Y007304D01*
X032883Y007371D01*
X032860Y007442D01*
X032850Y007503D01*
X033273Y007503D01*
X033273Y007603D01*
X032850Y007603D01*
X032860Y007665D01*
X032883Y007736D01*
X032917Y007802D01*
X032961Y007863D01*
X033013Y007916D01*
X033074Y007960D01*
X033140Y007994D01*
X033212Y008017D01*
X033273Y008026D01*
X033273Y007603D01*
X033373Y007603D01*
X033373Y008026D01*
X033434Y008017D01*
X033505Y007994D01*
X033373Y007977D02*
X033273Y007977D01*
X033273Y007878D02*
X033373Y007878D01*
X033373Y007780D02*
X033273Y007780D01*
X033273Y007681D02*
X033373Y007681D01*
X033373Y007583D02*
X045297Y007583D01*
X045273Y007484D02*
X033793Y007484D01*
X033768Y007386D02*
X045273Y007386D01*
X045273Y007287D02*
X033717Y007287D01*
X033629Y007189D02*
X045312Y007189D01*
X045410Y007090D02*
X033435Y007090D01*
X033373Y007090D02*
X033273Y007090D01*
X033211Y007090D02*
X030886Y007090D01*
X030857Y007078D02*
X031032Y007151D01*
X031166Y007284D01*
X031238Y007459D01*
X031238Y007648D01*
X031166Y007822D01*
X031032Y007956D01*
X030857Y008028D01*
X030668Y008028D01*
X030494Y007956D01*
X030360Y007822D01*
X030288Y007648D01*
X030288Y007459D01*
X030360Y007284D01*
X030494Y007151D01*
X030668Y007078D01*
X030857Y007078D01*
X030639Y007090D02*
X029936Y007090D01*
X030034Y007189D02*
X030456Y007189D01*
X030359Y007287D02*
X030073Y007287D01*
X030073Y007484D02*
X030288Y007484D01*
X030288Y007583D02*
X030049Y007583D01*
X029951Y007681D02*
X030302Y007681D01*
X030343Y007780D02*
X029852Y007780D01*
X029723Y007780D02*
X029623Y007780D01*
X029623Y007681D02*
X029723Y007681D01*
X029723Y007583D02*
X029623Y007583D01*
X029623Y007484D02*
X029723Y007484D01*
X029723Y007386D02*
X030318Y007386D01*
X029623Y007386D02*
X029073Y007386D01*
X029073Y007484D02*
X029273Y007484D01*
X029297Y007583D02*
X029049Y007583D01*
X028951Y007681D02*
X029395Y007681D01*
X029494Y007780D02*
X028852Y007780D01*
X028921Y008075D02*
X029425Y008075D01*
X029327Y008174D02*
X029019Y008174D01*
X029073Y008272D02*
X029273Y008272D01*
X029273Y008371D02*
X029073Y008371D01*
X029073Y008469D02*
X029273Y008469D01*
X029282Y008568D02*
X029064Y008568D01*
X028966Y008666D02*
X029380Y008666D01*
X029479Y008765D02*
X028867Y008765D01*
X030416Y007878D02*
X009553Y007878D01*
X009551Y007877D02*
X009579Y007905D01*
X009595Y007942D01*
X009595Y008130D01*
X009346Y008130D01*
X009346Y008226D01*
X009595Y008226D01*
X009595Y008414D01*
X009579Y008451D01*
X009551Y008479D01*
X009515Y008494D01*
X009346Y008494D01*
X009346Y008226D01*
X009249Y008226D01*
X009249Y008130D01*
X009001Y008130D01*
X009001Y007942D01*
X009016Y007905D01*
X009044Y007877D01*
X009081Y007861D01*
X009249Y007861D01*
X009249Y008130D01*
X009346Y008130D01*
X009346Y007861D01*
X009515Y007861D01*
X009551Y007877D01*
X009536Y007825D02*
X009060Y007825D01*
X009001Y007767D01*
X009001Y007251D01*
X009060Y007192D01*
X009339Y007192D01*
X009357Y007149D01*
X009428Y007077D01*
X009522Y007038D01*
X009624Y007038D01*
X009717Y007077D01*
X009789Y007149D01*
X009828Y007243D01*
X009828Y007344D01*
X009789Y007438D01*
X009717Y007509D01*
X009624Y007548D01*
X009595Y007548D01*
X009595Y007767D01*
X009536Y007825D01*
X009581Y007780D02*
X020494Y007780D01*
X020395Y007681D02*
X009595Y007681D01*
X009595Y007583D02*
X020297Y007583D01*
X020273Y007484D02*
X009742Y007484D01*
X009811Y007386D02*
X020273Y007386D01*
X020273Y007287D02*
X009828Y007287D01*
X009806Y007189D02*
X020312Y007189D01*
X020410Y007090D02*
X009730Y007090D01*
X009573Y007293D02*
X009357Y007509D01*
X009298Y007509D01*
X009001Y007484D02*
X008442Y007484D01*
X008417Y007509D02*
X008324Y007548D01*
X008295Y007548D01*
X008295Y007767D01*
X008236Y007825D01*
X007760Y007825D01*
X007701Y007767D01*
X007701Y007251D01*
X007760Y007192D01*
X008039Y007192D01*
X008057Y007149D01*
X008128Y007077D01*
X008222Y007038D01*
X008324Y007038D01*
X008417Y007077D01*
X008489Y007149D01*
X008528Y007243D01*
X008528Y007344D01*
X008489Y007438D01*
X008417Y007509D01*
X008295Y007583D02*
X009001Y007583D01*
X009001Y007681D02*
X008295Y007681D01*
X008281Y007780D02*
X009014Y007780D01*
X009043Y007878D02*
X008253Y007878D01*
X008251Y007877D02*
X008279Y007905D01*
X008295Y007942D01*
X008295Y008130D01*
X008046Y008130D01*
X008046Y008226D01*
X008295Y008226D01*
X008295Y008414D01*
X008279Y008451D01*
X008251Y008479D01*
X008215Y008494D01*
X008046Y008494D01*
X008046Y008226D01*
X007949Y008226D01*
X007949Y008130D01*
X007701Y008130D01*
X007701Y007942D01*
X007716Y007905D01*
X007744Y007877D01*
X007781Y007861D01*
X007949Y007861D01*
X007949Y008130D01*
X008046Y008130D01*
X008046Y007861D01*
X008215Y007861D01*
X008251Y007877D01*
X008295Y007977D02*
X009001Y007977D01*
X009001Y008075D02*
X008295Y008075D01*
X008295Y008272D02*
X009001Y008272D01*
X009001Y008226D02*
X009001Y008414D01*
X009016Y008451D01*
X009044Y008479D01*
X009081Y008494D01*
X009249Y008494D01*
X009249Y008226D01*
X009001Y008226D01*
X009001Y008371D02*
X008295Y008371D01*
X008261Y008469D02*
X009034Y008469D01*
X009249Y008469D02*
X009346Y008469D01*
X009346Y008371D02*
X009249Y008371D01*
X009249Y008272D02*
X009346Y008272D01*
X009346Y008174D02*
X020327Y008174D01*
X020425Y008075D02*
X009595Y008075D01*
X009595Y007977D02*
X030544Y007977D01*
X030982Y007977D02*
X033108Y007977D01*
X032976Y007878D02*
X031110Y007878D01*
X031183Y007780D02*
X032905Y007780D01*
X032865Y007681D02*
X031224Y007681D01*
X031238Y007583D02*
X033273Y007583D01*
X033273Y007484D02*
X033373Y007484D01*
X033373Y007386D02*
X033273Y007386D01*
X033273Y007287D02*
X033373Y007287D01*
X033373Y007189D02*
X033273Y007189D01*
X033016Y007189D02*
X031070Y007189D01*
X031167Y007287D02*
X032929Y007287D01*
X032878Y007386D02*
X031208Y007386D01*
X031238Y007484D02*
X032853Y007484D01*
X033670Y007878D02*
X033727Y007878D01*
X033741Y007780D02*
X034072Y007780D01*
X034047Y007878D02*
X034018Y007878D01*
X033923Y008043D02*
X033873Y008093D01*
X033923Y008043D02*
X034363Y008043D01*
X034680Y008075D02*
X034716Y008075D01*
X034716Y007977D02*
X034680Y007977D01*
X034680Y007878D02*
X034716Y007878D01*
X034741Y007780D02*
X034654Y007780D01*
X034680Y008174D02*
X034716Y008174D01*
X034716Y008272D02*
X034680Y008272D01*
X035032Y008043D02*
X035032Y008643D01*
X034982Y008693D01*
X034646Y008962D02*
X026316Y008962D01*
X026223Y009060D02*
X034696Y009060D01*
X035269Y009060D02*
X035877Y009060D01*
X035827Y008962D02*
X035808Y008962D01*
X036163Y008693D02*
X036163Y008284D01*
X035973Y008093D01*
X035791Y008272D02*
X035349Y008272D01*
X035349Y008174D02*
X035730Y008174D01*
X035718Y008075D02*
X035349Y008075D01*
X035349Y007977D02*
X035745Y007977D01*
X035827Y007878D02*
X035349Y007878D01*
X035324Y007780D02*
X045494Y007780D01*
X045395Y007681D02*
X033781Y007681D01*
X035313Y008371D02*
X035421Y008371D01*
X035724Y008371D02*
X035833Y008371D01*
X036265Y008174D02*
X045327Y008174D01*
X045273Y008228D02*
X045507Y007993D01*
X045839Y007993D01*
X046073Y008228D01*
X046073Y008559D01*
X045839Y008793D01*
X045507Y008793D01*
X045273Y008559D01*
X045273Y008228D01*
X045273Y008272D02*
X036313Y008272D01*
X036494Y008371D02*
X039544Y008371D01*
X039528Y008377D02*
X039622Y008338D01*
X039724Y008338D01*
X039817Y008377D01*
X039889Y008449D01*
X039928Y008543D01*
X039928Y008644D01*
X039889Y008738D01*
X039817Y008809D01*
X039724Y008848D01*
X039630Y008848D01*
X039623Y008855D01*
X039623Y014583D01*
X039689Y014649D01*
X039728Y014743D01*
X039728Y014844D01*
X039689Y014938D01*
X039683Y014943D01*
X039711Y014943D01*
X039923Y014731D01*
X039923Y013904D01*
X039857Y013838D01*
X039818Y013744D01*
X039818Y013643D01*
X039857Y013549D01*
X039928Y013477D01*
X040022Y013438D01*
X040124Y013438D01*
X040217Y013477D01*
X040289Y013549D01*
X040328Y013643D01*
X040328Y013744D01*
X040289Y013838D01*
X040223Y013904D01*
X040223Y014855D01*
X039923Y015155D01*
X039835Y015243D01*
X039135Y015243D01*
X038923Y015455D01*
X038923Y016955D01*
X038623Y017255D01*
X038623Y018031D01*
X039030Y018438D01*
X039118Y018438D01*
X039118Y018343D01*
X039145Y018277D01*
X038923Y018055D01*
X038923Y017231D01*
X039011Y017143D01*
X039223Y016931D01*
X039223Y016904D01*
X039157Y016838D01*
X039118Y016744D01*
X039118Y016643D01*
X039157Y016549D01*
X039228Y016477D01*
X039322Y016438D01*
X039424Y016438D01*
X039517Y016477D01*
X039589Y016549D01*
X039628Y016643D01*
X039628Y016738D01*
X039724Y016738D01*
X039817Y016777D01*
X039823Y016783D01*
X039823Y016704D01*
X039757Y016638D01*
X039718Y016544D01*
X039718Y016443D01*
X039757Y016349D01*
X039828Y016277D01*
X039922Y016238D01*
X040018Y016238D01*
X040018Y016143D01*
X040057Y016049D01*
X040128Y015977D01*
X040222Y015938D01*
X040324Y015938D01*
X040417Y015977D01*
X040489Y016049D01*
X040528Y016143D01*
X040528Y016244D01*
X040489Y016338D01*
X040423Y016404D01*
X040423Y016483D01*
X040428Y016477D01*
X040522Y016438D01*
X040624Y016438D01*
X040717Y016477D01*
X040789Y016549D01*
X040828Y016643D01*
X040828Y016736D01*
X040835Y016743D01*
X041435Y016743D01*
X041630Y016938D01*
X041724Y016938D01*
X041817Y016977D01*
X041889Y017049D01*
X041928Y017143D01*
X041928Y017244D01*
X041889Y017338D01*
X041817Y017409D01*
X041724Y017448D01*
X041622Y017448D01*
X041528Y017409D01*
X041457Y017338D01*
X041418Y017244D01*
X041418Y017150D01*
X041311Y017043D01*
X040711Y017043D01*
X040623Y016955D01*
X040616Y016948D01*
X040522Y016948D01*
X040428Y016909D01*
X040423Y016904D01*
X040423Y017631D01*
X040435Y017643D01*
X042235Y017643D01*
X042535Y017943D01*
X042623Y018031D01*
X042623Y020383D01*
X042623Y020383D01*
X042623Y020031D01*
X042711Y019943D01*
X042723Y019931D01*
X042723Y017548D01*
X042722Y017548D01*
X042628Y017509D01*
X042557Y017438D01*
X042518Y017344D01*
X042518Y017243D01*
X042557Y017149D01*
X042628Y017077D01*
X042722Y017038D01*
X042818Y017038D01*
X042818Y016943D01*
X042857Y016849D01*
X042928Y016777D01*
X043022Y016738D01*
X043124Y016738D01*
X043217Y016777D01*
X043253Y016813D01*
X043253Y016734D01*
X043314Y016587D01*
X043426Y016474D01*
X043573Y016413D01*
X043732Y016413D01*
X043879Y016474D01*
X043992Y016587D01*
X044053Y016734D01*
X044053Y016893D01*
X043992Y017040D01*
X043879Y017152D01*
X043732Y017213D01*
X043573Y017213D01*
X043426Y017152D01*
X043325Y017051D01*
X043289Y017138D01*
X043223Y017204D01*
X043223Y020083D01*
X043289Y020149D01*
X043328Y020243D01*
X043328Y020344D01*
X043289Y020438D01*
X043217Y020509D01*
X043124Y020548D01*
X043028Y020548D01*
X043028Y020644D01*
X042989Y020738D01*
X042917Y020809D01*
X042824Y020848D01*
X042722Y020848D01*
X042628Y020809D01*
X042623Y020804D01*
X042623Y022331D01*
X042918Y022626D01*
X042918Y022543D01*
X042957Y022449D01*
X043023Y022383D01*
X043023Y022031D01*
X043223Y021831D01*
X043311Y021743D01*
X044062Y021743D01*
X044128Y021677D01*
X044222Y021638D01*
X044324Y021638D01*
X044417Y021677D01*
X044489Y021749D01*
X044528Y021843D01*
X044528Y021944D01*
X044489Y022038D01*
X044417Y022109D01*
X044324Y022148D01*
X044222Y022148D01*
X044128Y022109D01*
X044062Y022043D01*
X043949Y022043D01*
X043992Y022087D01*
X044053Y022234D01*
X044053Y022393D01*
X043992Y022540D01*
X043879Y022652D01*
X043732Y022713D01*
X043573Y022713D01*
X043426Y022652D01*
X043425Y022651D01*
X043389Y022738D01*
X043317Y022809D01*
X043224Y022848D01*
X043140Y022848D01*
X043634Y023343D01*
X043717Y023377D01*
X043789Y023449D01*
X043828Y023543D01*
X043828Y023644D01*
X043823Y023655D01*
X043870Y023701D01*
X043870Y024217D01*
X043811Y024275D01*
X043335Y024275D01*
X043276Y024217D01*
X043276Y023701D01*
X043322Y023655D01*
X043318Y023644D01*
X043318Y023543D01*
X043345Y023477D01*
X043123Y023255D01*
X043123Y023383D01*
X043189Y023449D01*
X043228Y023543D01*
X043228Y023644D01*
X043223Y023655D01*
X043270Y023701D01*
X043270Y024217D01*
X043211Y024275D01*
X042735Y024275D01*
X042676Y024217D01*
X042676Y023701D01*
X042722Y023655D01*
X042718Y023644D01*
X042718Y023543D01*
X042757Y023449D01*
X042823Y023383D01*
X042823Y023255D01*
X042523Y022955D01*
X042523Y023383D01*
X042589Y023449D01*
X042628Y023543D01*
X042628Y023644D01*
X042623Y023655D01*
X042670Y023701D01*
X042670Y024217D01*
X042611Y024275D01*
X042135Y024275D01*
X042076Y024217D01*
X042076Y023701D01*
X042122Y023655D01*
X042118Y023644D01*
X042118Y023543D01*
X042157Y023449D01*
X042223Y023383D01*
X042223Y022955D01*
X042023Y022755D01*
X042023Y023531D01*
X042028Y023543D01*
X042028Y023644D01*
X042023Y023655D01*
X042070Y023701D01*
X042070Y024217D01*
X042011Y024275D01*
X041535Y024275D01*
X041476Y024217D01*
X041476Y024151D01*
X041417Y024209D01*
X041324Y024248D01*
X041222Y024248D01*
X041128Y024209D01*
X041057Y024138D01*
X041018Y024044D01*
X041018Y023948D01*
X040922Y023948D01*
X040828Y023909D01*
X040757Y023838D01*
X040718Y023744D01*
X040718Y023643D01*
X040757Y023549D01*
X040823Y023483D01*
X040823Y020804D01*
X040757Y020738D01*
X040718Y020644D01*
X040718Y020543D01*
X040757Y020449D01*
X040828Y020377D01*
X040922Y020338D01*
X041024Y020338D01*
X041117Y020377D01*
X041147Y020407D01*
X041218Y020336D01*
X041218Y020243D01*
X041257Y020149D01*
X041328Y020077D01*
X041422Y020038D01*
X041524Y020038D01*
X041617Y020077D01*
X041689Y020149D01*
X041723Y020231D01*
X041723Y019355D01*
X041616Y019248D01*
X041522Y019248D01*
X041428Y019209D01*
X041357Y019138D01*
X041318Y019044D01*
X041318Y018943D01*
X041357Y018849D01*
X041428Y018777D01*
X041522Y018738D01*
X041618Y018738D01*
X041618Y018643D01*
X041657Y018549D01*
X041728Y018477D01*
X041822Y018438D01*
X041918Y018438D01*
X041918Y018343D01*
X041957Y018249D01*
X042028Y018177D01*
X042122Y018138D01*
X042224Y018138D01*
X042317Y018177D01*
X042323Y018183D01*
X042323Y018155D01*
X042111Y017943D01*
X040311Y017943D01*
X040223Y017855D01*
X040123Y017755D01*
X040123Y016704D01*
X040123Y017838D01*
X040124Y017838D01*
X040217Y017877D01*
X040289Y017949D01*
X040328Y018043D01*
X040328Y018144D01*
X040289Y018238D01*
X040217Y018309D01*
X040124Y018348D01*
X040028Y018348D01*
X040028Y018444D01*
X039989Y018538D01*
X039917Y018609D01*
X039824Y018648D01*
X039722Y018648D01*
X039628Y018609D01*
X039573Y018554D01*
X039517Y018609D01*
X039424Y018648D01*
X039328Y018648D01*
X039328Y018744D01*
X039289Y018838D01*
X039217Y018909D01*
X039124Y018948D01*
X039022Y018948D01*
X038928Y018909D01*
X038857Y018838D01*
X038818Y018744D01*
X038818Y018650D01*
X038323Y018155D01*
X038323Y017131D01*
X038411Y017043D01*
X038623Y016831D01*
X038623Y015331D01*
X038711Y015243D01*
X039011Y014943D01*
X039262Y014943D01*
X039257Y014938D01*
X039218Y014844D01*
X039218Y014743D01*
X039257Y014649D01*
X039323Y014583D01*
X039323Y008731D01*
X039418Y008636D01*
X039418Y008543D01*
X039457Y008449D01*
X039528Y008377D01*
X039448Y008469D02*
X036500Y008469D01*
X036500Y008568D02*
X039418Y008568D01*
X039388Y008666D02*
X036500Y008666D01*
X036500Y008765D02*
X039323Y008765D01*
X039323Y008863D02*
X036500Y008863D01*
X036500Y008962D02*
X039323Y008962D01*
X039323Y009060D02*
X036450Y009060D01*
X035338Y008962D02*
X035319Y008962D01*
X036228Y008075D02*
X045425Y008075D01*
X045273Y008371D02*
X039802Y008371D01*
X039897Y008469D02*
X045273Y008469D01*
X045282Y008568D02*
X039928Y008568D01*
X039919Y008666D02*
X045380Y008666D01*
X045479Y008765D02*
X039862Y008765D01*
X039673Y008593D02*
X039473Y008793D01*
X039473Y014793D01*
X039728Y014773D02*
X039881Y014773D01*
X039923Y014675D02*
X039700Y014675D01*
X039623Y014576D02*
X039923Y014576D01*
X039923Y014478D02*
X039623Y014478D01*
X039623Y014379D02*
X039923Y014379D01*
X039923Y014281D02*
X039623Y014281D01*
X039623Y014182D02*
X039923Y014182D01*
X039923Y014084D02*
X039623Y014084D01*
X039623Y013985D02*
X039923Y013985D01*
X039906Y013887D02*
X039623Y013887D01*
X039623Y013788D02*
X039836Y013788D01*
X039818Y013690D02*
X039623Y013690D01*
X039623Y013591D02*
X039839Y013591D01*
X039913Y013493D02*
X039623Y013493D01*
X039623Y013394D02*
X044094Y013394D01*
X044073Y013343D02*
X044126Y013472D01*
X044225Y013570D01*
X044353Y013623D01*
X044492Y013623D01*
X044621Y013570D01*
X044720Y013472D01*
X044773Y013343D01*
X044773Y013204D01*
X044720Y013075D01*
X044621Y012977D01*
X044492Y012923D01*
X044353Y012923D01*
X044225Y012977D01*
X044126Y013075D01*
X044073Y013204D01*
X044073Y013343D01*
X044073Y013296D02*
X039623Y013296D01*
X039623Y013197D02*
X044075Y013197D01*
X044116Y013099D02*
X039623Y013099D01*
X039623Y013000D02*
X044201Y013000D01*
X044128Y012743D02*
X043848Y012668D01*
X043597Y012524D01*
X043393Y012319D01*
X043248Y012068D01*
X043173Y011788D01*
X043173Y011498D01*
X043248Y011219D01*
X043393Y010968D01*
X043597Y010763D01*
X043848Y010618D01*
X044128Y010543D01*
X044418Y010543D01*
X044697Y010618D01*
X044948Y010763D01*
X045153Y010968D01*
X045298Y011219D01*
X045373Y011498D01*
X045373Y011788D01*
X045298Y012068D01*
X045153Y012319D01*
X044948Y012524D01*
X044697Y012668D01*
X044418Y012743D01*
X044128Y012743D01*
X043984Y012705D02*
X039623Y012705D01*
X039623Y012803D02*
X055048Y012803D01*
X055048Y012705D02*
X044561Y012705D01*
X044805Y012606D02*
X055048Y012606D01*
X055048Y012508D02*
X044964Y012508D01*
X045062Y012409D02*
X055048Y012409D01*
X055048Y012311D02*
X054224Y012311D01*
X054224Y012310D02*
X054209Y012347D01*
X054181Y012375D01*
X054144Y012390D01*
X053956Y012390D01*
X053956Y012142D01*
X053859Y012142D01*
X053859Y012390D01*
X053671Y012390D01*
X053634Y012375D01*
X053606Y012347D01*
X053591Y012310D01*
X053591Y012142D01*
X053859Y012142D01*
X053859Y012045D01*
X053591Y012045D01*
X053591Y011877D01*
X053606Y011840D01*
X053634Y011812D01*
X053671Y011796D01*
X053859Y011796D01*
X053859Y012045D01*
X053956Y012045D01*
X053956Y012142D01*
X054224Y012142D01*
X054224Y012310D01*
X054224Y012212D02*
X055048Y012212D01*
X055048Y012114D02*
X053956Y012114D01*
X053956Y012045D02*
X054224Y012045D01*
X054224Y011877D01*
X054209Y011840D01*
X054181Y011812D01*
X054144Y011796D01*
X053956Y011796D01*
X053956Y012045D01*
X053956Y012015D02*
X053859Y012015D01*
X053859Y011917D02*
X053956Y011917D01*
X053956Y011818D02*
X053859Y011818D01*
X053628Y011818D02*
X053518Y011818D01*
X053496Y011796D02*
X053555Y011855D01*
X053555Y012332D01*
X053496Y012390D01*
X052980Y012390D01*
X052922Y012332D01*
X052922Y011855D01*
X052980Y011796D01*
X053088Y011796D01*
X053088Y011569D01*
X053057Y011538D01*
X053018Y011444D01*
X053018Y011343D01*
X053057Y011249D01*
X053128Y011177D01*
X053222Y011138D01*
X053324Y011138D01*
X053417Y011177D01*
X053489Y011249D01*
X053528Y011343D01*
X053528Y011444D01*
X053489Y011538D01*
X053417Y011609D01*
X053388Y011622D01*
X053388Y011796D01*
X053496Y011796D01*
X053388Y011720D02*
X055048Y011720D01*
X055048Y011818D02*
X054187Y011818D01*
X054224Y011917D02*
X055048Y011917D01*
X055048Y012015D02*
X054224Y012015D01*
X053956Y012212D02*
X053859Y012212D01*
X053859Y012114D02*
X053555Y012114D01*
X053555Y012212D02*
X053591Y012212D01*
X053591Y012311D02*
X053555Y012311D01*
X053555Y012015D02*
X053591Y012015D01*
X053591Y011917D02*
X053555Y011917D01*
X053389Y011621D02*
X055048Y011621D01*
X055048Y011523D02*
X053495Y011523D01*
X053528Y011424D02*
X055048Y011424D01*
X055048Y011326D02*
X053521Y011326D01*
X053467Y011227D02*
X055048Y011227D01*
X055048Y011129D02*
X045246Y011129D01*
X045300Y011227D02*
X053078Y011227D01*
X053025Y011326D02*
X045327Y011326D01*
X045353Y011424D02*
X053018Y011424D01*
X053050Y011523D02*
X045373Y011523D01*
X045373Y011621D02*
X053088Y011621D01*
X053088Y011720D02*
X045373Y011720D01*
X045365Y011818D02*
X052958Y011818D01*
X052922Y011917D02*
X045338Y011917D01*
X045312Y012015D02*
X052922Y012015D01*
X052922Y012114D02*
X045271Y012114D01*
X045214Y012212D02*
X052922Y012212D01*
X052922Y012311D02*
X045158Y012311D01*
X045525Y012997D02*
X045653Y012943D01*
X045792Y012943D01*
X045921Y012997D01*
X046020Y013095D01*
X046073Y013224D01*
X046073Y013363D01*
X046020Y013492D01*
X045921Y013590D01*
X045792Y013643D01*
X045653Y013643D01*
X045525Y013590D01*
X045426Y013492D01*
X045373Y013363D01*
X045373Y013224D01*
X045426Y013095D01*
X045525Y012997D01*
X045521Y013000D02*
X044645Y013000D01*
X044729Y013099D02*
X045425Y013099D01*
X045384Y013197D02*
X044770Y013197D01*
X044773Y013296D02*
X045373Y013296D01*
X045386Y013394D02*
X044752Y013394D01*
X044698Y013493D02*
X045427Y013493D01*
X045528Y013591D02*
X044570Y013591D01*
X044276Y013591D02*
X040307Y013591D01*
X040328Y013690D02*
X053274Y013690D01*
X053233Y013591D02*
X045918Y013591D01*
X046018Y013493D02*
X053203Y013493D01*
X053203Y013394D02*
X046060Y013394D01*
X046073Y013296D02*
X053218Y013296D01*
X053258Y013197D02*
X046062Y013197D01*
X046021Y013099D02*
X053334Y013099D01*
X053469Y013000D02*
X045925Y013000D01*
X046757Y013849D02*
X046828Y013777D01*
X046922Y013738D01*
X047024Y013738D01*
X047117Y013777D01*
X047189Y013849D01*
X047228Y013943D01*
X047228Y014044D01*
X047223Y014056D01*
X047223Y022938D01*
X047224Y022938D01*
X047317Y022977D01*
X047389Y023049D01*
X047428Y023143D01*
X047428Y023244D01*
X047389Y023338D01*
X047317Y023409D01*
X047224Y023448D01*
X047122Y023448D01*
X047028Y023409D01*
X046957Y023338D01*
X046918Y023244D01*
X046918Y023143D01*
X046923Y023131D01*
X046923Y014248D01*
X046922Y014248D01*
X046828Y014209D01*
X046757Y014138D01*
X046718Y014044D01*
X046718Y013943D01*
X046757Y013849D01*
X046741Y013887D02*
X040240Y013887D01*
X040223Y013985D02*
X046718Y013985D01*
X046734Y014084D02*
X046598Y014084D01*
X046572Y014073D02*
X046719Y014134D01*
X046832Y014247D01*
X046893Y014394D01*
X046893Y014553D01*
X046832Y014700D01*
X046719Y014812D01*
X046572Y014873D01*
X046413Y014873D01*
X046266Y014812D01*
X046154Y014700D01*
X046093Y014553D01*
X046093Y014394D01*
X046154Y014247D01*
X046266Y014134D01*
X046413Y014073D01*
X046572Y014073D01*
X046388Y014084D02*
X043806Y014084D01*
X043842Y014099D02*
X043908Y014143D01*
X043964Y014198D01*
X044007Y014264D01*
X044037Y014337D01*
X044051Y014403D01*
X043703Y014403D01*
X043703Y014055D01*
X043770Y014069D01*
X043842Y014099D01*
X043948Y014182D02*
X046218Y014182D01*
X046140Y014281D02*
X044014Y014281D01*
X044046Y014379D02*
X046099Y014379D01*
X046093Y014478D02*
X043703Y014478D01*
X043703Y014503D02*
X044051Y014503D01*
X044037Y014570D01*
X044007Y014643D01*
X043964Y014708D01*
X043908Y014764D01*
X043842Y014808D01*
X043770Y014838D01*
X043703Y014851D01*
X043703Y014503D01*
X043703Y014403D01*
X043603Y014403D01*
X043603Y014055D01*
X043536Y014069D01*
X043463Y014099D01*
X043398Y014143D01*
X043342Y014198D01*
X043298Y014264D01*
X043268Y014337D01*
X043255Y014403D01*
X043603Y014403D01*
X043603Y014503D01*
X043255Y014503D01*
X043268Y014570D01*
X043298Y014643D01*
X043342Y014708D01*
X043398Y014764D01*
X043463Y014808D01*
X043536Y014838D01*
X043603Y014851D01*
X043603Y014503D01*
X043703Y014503D01*
X043703Y014576D02*
X043603Y014576D01*
X043603Y014478D02*
X040223Y014478D01*
X040223Y014576D02*
X043271Y014576D01*
X043320Y014675D02*
X040223Y014675D01*
X040223Y014773D02*
X043412Y014773D01*
X043603Y014773D02*
X043703Y014773D01*
X043703Y014675D02*
X043603Y014675D01*
X043603Y014379D02*
X043703Y014379D01*
X043703Y014281D02*
X043603Y014281D01*
X043603Y014182D02*
X043703Y014182D01*
X043703Y014084D02*
X043603Y014084D01*
X043500Y014084D02*
X040223Y014084D01*
X040223Y014182D02*
X043358Y014182D01*
X043291Y014281D02*
X040223Y014281D01*
X040223Y014379D02*
X043260Y014379D01*
X043894Y014773D02*
X046227Y014773D01*
X046143Y014675D02*
X043986Y014675D01*
X044035Y014576D02*
X046103Y014576D01*
X046410Y014872D02*
X040206Y014872D01*
X040108Y014970D02*
X046923Y014970D01*
X046923Y014872D02*
X046576Y014872D01*
X046758Y014773D02*
X046923Y014773D01*
X046923Y014675D02*
X046842Y014675D01*
X046883Y014576D02*
X046923Y014576D01*
X046923Y014478D02*
X046893Y014478D01*
X046887Y014379D02*
X046923Y014379D01*
X046923Y014281D02*
X046846Y014281D01*
X046801Y014182D02*
X046768Y014182D01*
X046973Y013993D02*
X047073Y014093D01*
X047073Y023093D01*
X047173Y023193D01*
X047249Y022949D02*
X051523Y022949D01*
X051523Y023047D02*
X047387Y023047D01*
X047428Y023146D02*
X051523Y023146D01*
X051523Y023244D02*
X047428Y023244D01*
X047384Y023343D02*
X051523Y023343D01*
X051523Y023441D02*
X047240Y023441D01*
X047105Y023441D02*
X045972Y023441D01*
X045973Y023444D02*
X045920Y023315D01*
X045821Y023217D01*
X045692Y023163D01*
X045553Y023163D01*
X045425Y023217D01*
X045326Y023315D01*
X045273Y023444D01*
X045273Y023583D01*
X045326Y023712D01*
X045425Y023810D01*
X045553Y023863D01*
X045692Y023863D01*
X045821Y023810D01*
X045920Y023712D01*
X045973Y023583D01*
X045973Y023444D01*
X045973Y023540D02*
X051523Y023540D01*
X051523Y023638D02*
X045950Y023638D01*
X045894Y023737D02*
X051523Y023737D01*
X051523Y023835D02*
X045760Y023835D01*
X045839Y023993D02*
X045507Y023993D01*
X045273Y024228D01*
X045273Y024559D01*
X045507Y024793D01*
X045839Y024793D01*
X046073Y024559D01*
X046073Y024228D01*
X045839Y023993D01*
X045878Y024032D02*
X046468Y024032D01*
X046370Y024131D02*
X045976Y024131D01*
X046073Y024229D02*
X046273Y024229D01*
X046273Y024328D02*
X046073Y024328D01*
X046073Y024426D02*
X046273Y024426D01*
X046273Y024525D02*
X046073Y024525D01*
X046008Y024623D02*
X046337Y024623D01*
X046273Y024793D02*
X049273Y024793D01*
X049673Y024393D01*
X049976Y024131D02*
X050370Y024131D01*
X050273Y024228D02*
X050507Y023993D01*
X050839Y023993D01*
X051073Y024228D01*
X051073Y024559D01*
X050839Y024793D01*
X050507Y024793D01*
X050273Y024559D01*
X050273Y024228D01*
X050273Y024229D02*
X050073Y024229D01*
X050073Y024328D02*
X050273Y024328D01*
X050273Y024426D02*
X050073Y024426D01*
X050073Y024525D02*
X050273Y024525D01*
X050337Y024623D02*
X050008Y024623D01*
X049910Y024722D02*
X050436Y024722D01*
X050483Y025017D02*
X049863Y025017D01*
X049961Y025116D02*
X050385Y025116D01*
X050286Y025214D02*
X050060Y025214D01*
X050073Y025313D02*
X050273Y025313D01*
X050273Y025411D02*
X050073Y025411D01*
X050073Y025510D02*
X050273Y025510D01*
X050322Y025608D02*
X050023Y025608D01*
X049925Y025707D02*
X050421Y025707D01*
X050925Y025707D02*
X051421Y025707D01*
X051322Y025608D02*
X051023Y025608D01*
X051073Y025510D02*
X051273Y025510D01*
X051273Y025411D02*
X051073Y025411D01*
X051073Y025313D02*
X051273Y025313D01*
X051286Y025214D02*
X051060Y025214D01*
X050961Y025116D02*
X051385Y025116D01*
X051483Y025017D02*
X050863Y025017D01*
X050910Y024722D02*
X051436Y024722D01*
X051507Y024793D02*
X051273Y024559D01*
X051273Y024228D01*
X051507Y023993D01*
X051523Y023993D01*
X051523Y022355D01*
X051516Y022348D01*
X051422Y022348D01*
X051328Y022309D01*
X051257Y022238D01*
X051218Y022144D01*
X051218Y022043D01*
X051257Y021949D01*
X051328Y021877D01*
X051422Y021838D01*
X051524Y021838D01*
X051617Y021877D01*
X051689Y021949D01*
X051728Y022043D01*
X051728Y022136D01*
X051823Y022231D01*
X051823Y023993D01*
X051839Y023993D01*
X052073Y024228D01*
X052073Y024559D01*
X051839Y024793D01*
X051507Y024793D01*
X051337Y024623D02*
X051008Y024623D01*
X051073Y024525D02*
X051273Y024525D01*
X051273Y024426D02*
X051073Y024426D01*
X051073Y024328D02*
X051273Y024328D01*
X051273Y024229D02*
X051073Y024229D01*
X050976Y024131D02*
X051370Y024131D01*
X051468Y024032D02*
X050878Y024032D01*
X050468Y024032D02*
X049878Y024032D01*
X049468Y024032D02*
X048878Y024032D01*
X048976Y024131D02*
X049370Y024131D01*
X049273Y024229D02*
X049073Y024229D01*
X049073Y024328D02*
X049273Y024328D01*
X049273Y024426D02*
X049073Y024426D01*
X049073Y024525D02*
X049273Y024525D01*
X049231Y024623D02*
X049008Y024623D01*
X049273Y024993D02*
X049673Y025393D01*
X049411Y024919D02*
X052935Y024919D01*
X053034Y024820D02*
X049458Y024820D01*
X049273Y024993D02*
X046873Y024993D01*
X046673Y025193D01*
X046673Y025393D01*
X046273Y024793D02*
X045673Y025393D01*
X045385Y025116D02*
X044502Y025116D01*
X044517Y025109D02*
X044424Y025148D01*
X044322Y025148D01*
X044228Y025109D01*
X044157Y025038D01*
X044118Y024944D01*
X044118Y024848D01*
X044022Y024848D01*
X043928Y024809D01*
X043870Y024751D01*
X043870Y024864D01*
X043854Y024901D01*
X043826Y024929D01*
X043790Y024944D01*
X043621Y024944D01*
X043621Y024676D01*
X043524Y024676D01*
X043524Y024580D01*
X043276Y024580D01*
X043276Y024392D01*
X043291Y024355D01*
X043319Y024327D01*
X043356Y024311D01*
X043524Y024311D01*
X043524Y024580D01*
X043621Y024580D01*
X043621Y024311D01*
X043790Y024311D01*
X043826Y024327D01*
X043854Y024355D01*
X043870Y024392D01*
X043870Y024436D01*
X043928Y024377D01*
X044022Y024338D01*
X044116Y024338D01*
X044723Y023731D01*
X044723Y023684D01*
X044720Y023692D01*
X044621Y023790D01*
X044492Y023843D01*
X044353Y023843D01*
X044225Y023790D01*
X044126Y023692D01*
X044073Y023563D01*
X044073Y023424D01*
X044126Y023295D01*
X044225Y023197D01*
X044353Y023143D01*
X044492Y023143D01*
X044621Y023197D01*
X044720Y023295D01*
X044723Y023303D01*
X044723Y018964D01*
X044720Y018972D01*
X044621Y019070D01*
X044492Y019123D01*
X044353Y019123D01*
X044225Y019070D01*
X044126Y018972D01*
X044073Y018843D01*
X044073Y018704D01*
X044126Y018575D01*
X044225Y018477D01*
X044353Y018423D01*
X044492Y018423D01*
X044621Y018477D01*
X044720Y018575D01*
X044723Y018583D01*
X044723Y018184D01*
X044720Y018192D01*
X044621Y018290D01*
X044492Y018343D01*
X044353Y018343D01*
X044225Y018290D01*
X044126Y018192D01*
X044073Y018063D01*
X044073Y017924D01*
X044126Y017795D01*
X044225Y017697D01*
X044353Y017643D01*
X044492Y017643D01*
X044621Y017697D01*
X044720Y017795D01*
X044723Y017803D01*
X044723Y016348D01*
X044722Y016348D01*
X044628Y016309D01*
X044557Y016238D01*
X044518Y016144D01*
X044518Y016043D01*
X044557Y015949D01*
X044628Y015877D01*
X044722Y015838D01*
X044824Y015838D01*
X044917Y015877D01*
X044923Y015883D01*
X044923Y015756D01*
X044918Y015744D01*
X044918Y015643D01*
X044957Y015549D01*
X045028Y015477D01*
X045122Y015438D01*
X045224Y015438D01*
X045317Y015477D01*
X045389Y015549D01*
X045428Y015643D01*
X045428Y015744D01*
X045389Y015838D01*
X045317Y015909D01*
X045224Y015948D01*
X045223Y015948D01*
X045223Y024255D01*
X045135Y024343D01*
X044628Y024850D01*
X044628Y024944D01*
X044589Y025038D01*
X044517Y025109D01*
X044597Y025017D02*
X045483Y025017D01*
X045286Y025214D02*
X030060Y025214D01*
X030073Y025313D02*
X045273Y025313D01*
X045273Y025411D02*
X030073Y025411D01*
X030073Y025510D02*
X045273Y025510D01*
X045322Y025608D02*
X030023Y025608D01*
X029925Y025707D02*
X045421Y025707D01*
X044244Y025116D02*
X038996Y025116D01*
X038922Y025159D02*
X038922Y025159D01*
X039211Y024992D01*
X039211Y024992D01*
X039211Y024992D01*
X039408Y024721D01*
X039408Y024721D01*
X039478Y024393D01*
X039408Y024066D01*
X039408Y024066D01*
X039211Y023795D01*
X039211Y023795D01*
X038922Y023628D01*
X038922Y023628D01*
X038589Y023593D01*
X038589Y023593D01*
X038270Y023696D01*
X038270Y023696D01*
X038022Y023920D01*
X038022Y023920D01*
X037885Y024226D01*
X037885Y024561D01*
X038022Y024866D01*
X038022Y024866D01*
X038270Y025090D01*
X038270Y025090D01*
X038589Y025194D01*
X038589Y025194D01*
X038922Y025159D01*
X039167Y025017D02*
X044148Y025017D01*
X044118Y024919D02*
X043837Y024919D01*
X043870Y024820D02*
X043955Y024820D01*
X044073Y024593D02*
X044873Y023793D01*
X044873Y016193D01*
X044773Y016093D01*
X044868Y015857D02*
X044923Y015857D01*
X044923Y015758D02*
X044034Y015758D01*
X044053Y015713D02*
X043992Y015860D01*
X043879Y015972D01*
X043732Y016033D01*
X043573Y016033D01*
X043426Y015972D01*
X043314Y015860D01*
X043253Y015713D01*
X043253Y015554D01*
X043314Y015407D01*
X043426Y015294D01*
X043573Y015233D01*
X043732Y015233D01*
X043879Y015294D01*
X043992Y015407D01*
X044053Y015554D01*
X044053Y015713D01*
X044053Y015660D02*
X044918Y015660D01*
X044951Y015561D02*
X044053Y015561D01*
X044015Y015463D02*
X045063Y015463D01*
X045283Y015463D02*
X046139Y015463D01*
X046154Y015427D02*
X046266Y015314D01*
X046413Y015253D01*
X046572Y015253D01*
X046719Y015314D01*
X046832Y015427D01*
X046893Y015574D01*
X046893Y015733D01*
X046832Y015880D01*
X046719Y015992D01*
X046572Y016053D01*
X046413Y016053D01*
X046266Y015992D01*
X046154Y015880D01*
X046093Y015733D01*
X046093Y015574D01*
X046154Y015427D01*
X046216Y015364D02*
X043950Y015364D01*
X043811Y015266D02*
X046383Y015266D01*
X046603Y015266D02*
X046923Y015266D01*
X046923Y015364D02*
X046770Y015364D01*
X046847Y015463D02*
X046923Y015463D01*
X046923Y015561D02*
X046888Y015561D01*
X046893Y015660D02*
X046923Y015660D01*
X046923Y015758D02*
X046882Y015758D01*
X046841Y015857D02*
X046923Y015857D01*
X046923Y015955D02*
X046756Y015955D01*
X046923Y016054D02*
X045223Y016054D01*
X045223Y016152D02*
X046923Y016152D01*
X046923Y016251D02*
X045223Y016251D01*
X045223Y016349D02*
X046923Y016349D01*
X046923Y016448D02*
X046605Y016448D01*
X046610Y016449D02*
X046682Y016479D01*
X046748Y016523D01*
X046804Y016578D01*
X046847Y016644D01*
X046877Y016717D01*
X046891Y016783D01*
X046543Y016783D01*
X046543Y016435D01*
X046610Y016449D01*
X046543Y016448D02*
X046443Y016448D01*
X046443Y016435D02*
X046443Y016783D01*
X046543Y016783D01*
X046543Y016883D01*
X046891Y016883D01*
X046877Y016950D01*
X046847Y017023D01*
X046804Y017088D01*
X046748Y017144D01*
X046682Y017188D01*
X046610Y017218D01*
X046543Y017231D01*
X046543Y016883D01*
X046443Y016883D01*
X046443Y016783D01*
X046095Y016783D01*
X046108Y016717D01*
X046138Y016644D01*
X046182Y016578D01*
X046238Y016523D01*
X046303Y016479D01*
X046376Y016449D01*
X046443Y016435D01*
X046380Y016448D02*
X045223Y016448D01*
X045223Y016546D02*
X046214Y016546D01*
X046138Y016645D02*
X045223Y016645D01*
X045223Y016743D02*
X046103Y016743D01*
X046095Y016883D02*
X046443Y016883D01*
X046443Y017231D01*
X046376Y017218D01*
X046303Y017188D01*
X046238Y017144D01*
X046182Y017088D01*
X046138Y017023D01*
X046108Y016950D01*
X046095Y016883D01*
X046106Y016940D02*
X045223Y016940D01*
X045223Y016842D02*
X046443Y016842D01*
X046443Y016940D02*
X046543Y016940D01*
X046543Y016842D02*
X046923Y016842D01*
X046923Y016940D02*
X046879Y016940D01*
X046837Y017039D02*
X046923Y017039D01*
X046923Y017137D02*
X046754Y017137D01*
X046923Y017236D02*
X045223Y017236D01*
X045223Y017334D02*
X046923Y017334D01*
X046923Y017433D02*
X045223Y017433D01*
X045223Y017531D02*
X046923Y017531D01*
X046923Y017630D02*
X045223Y017630D01*
X045223Y017728D02*
X045513Y017728D01*
X045525Y017717D02*
X045653Y017663D01*
X045792Y017663D01*
X045921Y017717D01*
X046020Y017815D01*
X046073Y017944D01*
X046073Y018083D01*
X046020Y018212D01*
X045921Y018310D01*
X045792Y018363D01*
X045653Y018363D01*
X045525Y018310D01*
X045426Y018212D01*
X045373Y018083D01*
X045373Y017944D01*
X045426Y017815D01*
X045525Y017717D01*
X045421Y017827D02*
X045223Y017827D01*
X045223Y017925D02*
X045380Y017925D01*
X045373Y018024D02*
X045223Y018024D01*
X045223Y018122D02*
X045389Y018122D01*
X045435Y018221D02*
X045223Y018221D01*
X045223Y018319D02*
X045547Y018319D01*
X045553Y018443D02*
X045692Y018443D01*
X045821Y018497D01*
X045920Y018595D01*
X045973Y018724D01*
X045973Y018863D01*
X045920Y018992D01*
X045821Y019090D01*
X045692Y019143D01*
X045553Y019143D01*
X045425Y019090D01*
X045326Y018992D01*
X045273Y018863D01*
X045273Y018724D01*
X045326Y018595D01*
X045425Y018497D01*
X045553Y018443D01*
X045405Y018516D02*
X045223Y018516D01*
X045223Y018418D02*
X046923Y018418D01*
X046923Y018516D02*
X045841Y018516D01*
X045928Y018615D02*
X046923Y018615D01*
X046923Y018713D02*
X045969Y018713D01*
X045973Y018812D02*
X046923Y018812D01*
X046923Y018910D02*
X045953Y018910D01*
X045902Y019009D02*
X046923Y019009D01*
X046923Y019107D02*
X045779Y019107D01*
X045466Y019107D02*
X045223Y019107D01*
X045223Y019009D02*
X045343Y019009D01*
X045292Y018910D02*
X045223Y018910D01*
X045223Y018812D02*
X045273Y018812D01*
X045277Y018713D02*
X045223Y018713D01*
X045223Y018615D02*
X045318Y018615D01*
X044723Y018516D02*
X044661Y018516D01*
X044723Y018418D02*
X043223Y018418D01*
X043223Y018516D02*
X044185Y018516D01*
X044110Y018615D02*
X043223Y018615D01*
X043223Y018713D02*
X044073Y018713D01*
X044073Y018812D02*
X043223Y018812D01*
X043223Y018910D02*
X044101Y018910D01*
X044163Y019009D02*
X043223Y019009D01*
X043223Y019107D02*
X044315Y019107D01*
X044531Y019107D02*
X044723Y019107D01*
X044723Y019009D02*
X044682Y019009D01*
X044723Y019206D02*
X043223Y019206D01*
X043223Y019304D02*
X044723Y019304D01*
X044723Y019403D02*
X043223Y019403D01*
X043223Y019501D02*
X044723Y019501D01*
X044723Y019600D02*
X043844Y019600D01*
X043842Y019599D02*
X043908Y019643D01*
X043964Y019698D01*
X044007Y019764D01*
X044037Y019837D01*
X044051Y019903D01*
X043703Y019903D01*
X043703Y019555D01*
X043770Y019569D01*
X043842Y019599D01*
X043703Y019600D02*
X043603Y019600D01*
X043603Y019555D02*
X043603Y019903D01*
X043703Y019903D01*
X043703Y020003D01*
X044051Y020003D01*
X044037Y020070D01*
X044007Y020143D01*
X043964Y020208D01*
X043908Y020264D01*
X043842Y020308D01*
X043770Y020338D01*
X043703Y020351D01*
X043703Y020003D01*
X043603Y020003D01*
X043603Y019903D01*
X043255Y019903D01*
X043268Y019837D01*
X043298Y019764D01*
X043342Y019698D01*
X043398Y019643D01*
X043463Y019599D01*
X043536Y019569D01*
X043603Y019555D01*
X043603Y019698D02*
X043703Y019698D01*
X043703Y019797D02*
X043603Y019797D01*
X043603Y019895D02*
X043703Y019895D01*
X043703Y019994D02*
X044723Y019994D01*
X044723Y020092D02*
X044028Y020092D01*
X043975Y020191D02*
X044723Y020191D01*
X044723Y020289D02*
X043870Y020289D01*
X043703Y020289D02*
X043603Y020289D01*
X043603Y020351D02*
X043536Y020338D01*
X043463Y020308D01*
X043398Y020264D01*
X043342Y020208D01*
X043298Y020143D01*
X043268Y020070D01*
X043255Y020003D01*
X043603Y020003D01*
X043603Y020351D01*
X043603Y020191D02*
X043703Y020191D01*
X043703Y020092D02*
X043603Y020092D01*
X043603Y019994D02*
X043223Y019994D01*
X043223Y019895D02*
X043257Y019895D01*
X043285Y019797D02*
X043223Y019797D01*
X043223Y019698D02*
X043342Y019698D01*
X043223Y019600D02*
X043462Y019600D01*
X043964Y019698D02*
X044723Y019698D01*
X044723Y019797D02*
X044021Y019797D01*
X044049Y019895D02*
X044723Y019895D01*
X045223Y019895D02*
X045993Y019895D01*
X045993Y019894D02*
X046054Y019747D01*
X046166Y019634D01*
X046313Y019573D01*
X046472Y019573D01*
X046619Y019634D01*
X046732Y019747D01*
X046793Y019894D01*
X046793Y020053D01*
X046732Y020200D01*
X046619Y020312D01*
X046472Y020373D01*
X046313Y020373D01*
X046166Y020312D01*
X046054Y020200D01*
X045993Y020053D01*
X045993Y019894D01*
X045993Y019994D02*
X045223Y019994D01*
X045223Y020092D02*
X046009Y020092D01*
X046050Y020191D02*
X045223Y020191D01*
X045223Y020289D02*
X046143Y020289D01*
X046313Y020753D02*
X046472Y020753D01*
X046619Y020814D01*
X046732Y020927D01*
X046793Y021074D01*
X046793Y021233D01*
X046732Y021380D01*
X046619Y021492D01*
X046472Y021553D01*
X046313Y021553D01*
X046166Y021492D01*
X046054Y021380D01*
X045993Y021233D01*
X045993Y021074D01*
X046054Y020927D01*
X046166Y020814D01*
X046313Y020753D01*
X046244Y020782D02*
X045223Y020782D01*
X045223Y020880D02*
X046100Y020880D01*
X046032Y020979D02*
X045223Y020979D01*
X045223Y021077D02*
X045993Y021077D01*
X045993Y021176D02*
X045223Y021176D01*
X045223Y021274D02*
X046010Y021274D01*
X046051Y021373D02*
X045223Y021373D01*
X045223Y021471D02*
X046145Y021471D01*
X046640Y021471D02*
X046923Y021471D01*
X046923Y021373D02*
X046735Y021373D01*
X046776Y021274D02*
X046923Y021274D01*
X046923Y021176D02*
X046793Y021176D01*
X046793Y021077D02*
X046923Y021077D01*
X046923Y020979D02*
X046754Y020979D01*
X046686Y020880D02*
X046923Y020880D01*
X046923Y020782D02*
X046541Y020782D01*
X046923Y020683D02*
X045223Y020683D01*
X045223Y020585D02*
X046923Y020585D01*
X046923Y020486D02*
X045223Y020486D01*
X045223Y020388D02*
X046923Y020388D01*
X046923Y020289D02*
X046642Y020289D01*
X046736Y020191D02*
X046923Y020191D01*
X046923Y020092D02*
X046776Y020092D01*
X046793Y019994D02*
X046923Y019994D01*
X046923Y019895D02*
X046793Y019895D01*
X046753Y019797D02*
X046923Y019797D01*
X046923Y019698D02*
X046684Y019698D01*
X046536Y019600D02*
X046923Y019600D01*
X046923Y019501D02*
X045223Y019501D01*
X045223Y019403D02*
X046923Y019403D01*
X046923Y019304D02*
X045223Y019304D01*
X045223Y019206D02*
X046923Y019206D01*
X047223Y019206D02*
X053498Y019206D01*
X053492Y019208D02*
X053563Y019185D01*
X053623Y019175D01*
X053623Y019593D01*
X053723Y019593D01*
X053723Y019175D01*
X053783Y019185D01*
X053853Y019208D01*
X053919Y019241D01*
X053979Y019285D01*
X054031Y019337D01*
X054075Y019397D01*
X054108Y019463D01*
X054131Y019533D01*
X054141Y019593D01*
X053723Y019593D01*
X053723Y019693D01*
X054141Y019693D01*
X054131Y019753D01*
X054108Y019824D01*
X054075Y019890D01*
X054031Y019949D01*
X053979Y020002D01*
X053919Y020045D01*
X053853Y020079D01*
X053783Y020102D01*
X053723Y020111D01*
X053723Y019693D01*
X053623Y019693D01*
X053623Y019593D01*
X053205Y019593D01*
X053214Y019533D01*
X053237Y019463D01*
X053271Y019397D01*
X053314Y019337D01*
X053367Y019285D01*
X053427Y019241D01*
X053492Y019208D01*
X053527Y019107D02*
X047223Y019107D01*
X047223Y019009D02*
X053358Y019009D01*
X053407Y019058D02*
X053274Y018925D01*
X053203Y018753D01*
X053203Y018566D01*
X053274Y018393D01*
X053407Y018261D01*
X053579Y018189D01*
X053766Y018189D01*
X053939Y018261D01*
X054071Y018393D01*
X054143Y018566D01*
X054143Y018753D01*
X054071Y018925D01*
X053939Y019058D01*
X053766Y019129D01*
X053579Y019129D01*
X053407Y019058D01*
X053268Y018910D02*
X047223Y018910D01*
X047223Y018812D02*
X053227Y018812D01*
X053203Y018713D02*
X047223Y018713D01*
X047223Y018615D02*
X053203Y018615D01*
X053223Y018516D02*
X047223Y018516D01*
X047223Y018418D02*
X053264Y018418D01*
X053348Y018319D02*
X047223Y018319D01*
X047223Y018221D02*
X053503Y018221D01*
X053525Y018122D02*
X047223Y018122D01*
X047223Y018024D02*
X053357Y018024D01*
X053268Y017925D02*
X047223Y017925D01*
X047223Y017827D02*
X053227Y017827D01*
X053203Y017728D02*
X047223Y017728D01*
X047223Y017630D02*
X053203Y017630D01*
X053224Y017531D02*
X047223Y017531D01*
X047223Y017433D02*
X053264Y017433D01*
X053349Y017334D02*
X047223Y017334D01*
X047223Y017236D02*
X053504Y017236D01*
X053841Y017236D02*
X053900Y017236D01*
X053998Y017137D02*
X047223Y017137D01*
X047223Y017039D02*
X054097Y017039D01*
X054195Y016940D02*
X047223Y016940D01*
X047223Y016842D02*
X054294Y016842D01*
X054392Y016743D02*
X047223Y016743D01*
X047223Y016645D02*
X054423Y016645D01*
X054423Y016546D02*
X047223Y016546D01*
X047223Y016448D02*
X054423Y016448D01*
X054423Y016349D02*
X047223Y016349D01*
X047223Y016251D02*
X054423Y016251D01*
X054423Y016152D02*
X047223Y016152D01*
X047223Y016054D02*
X054423Y016054D01*
X054423Y015955D02*
X047223Y015955D01*
X047223Y015857D02*
X053595Y015857D01*
X053623Y015857D02*
X053723Y015857D01*
X053723Y015861D02*
X053783Y015852D01*
X053853Y015829D01*
X053919Y015795D01*
X053979Y015752D01*
X054031Y015699D01*
X054075Y015640D01*
X054108Y015574D01*
X054131Y015503D01*
X054141Y015443D01*
X053723Y015443D01*
X053723Y015343D01*
X053723Y014925D01*
X053783Y014935D01*
X053853Y014958D01*
X053919Y014991D01*
X053979Y015035D01*
X054031Y015087D01*
X054075Y015147D01*
X054108Y015213D01*
X054131Y015283D01*
X054141Y015343D01*
X053723Y015343D01*
X053623Y015343D01*
X053623Y014925D01*
X053563Y014935D01*
X053492Y014958D01*
X053427Y014991D01*
X053367Y015035D01*
X053314Y015087D01*
X053271Y015147D01*
X053237Y015213D01*
X053214Y015283D01*
X053205Y015343D01*
X053623Y015343D01*
X053623Y015443D01*
X053205Y015443D01*
X053214Y015503D01*
X053237Y015574D01*
X053271Y015640D01*
X053314Y015699D01*
X053367Y015752D01*
X053427Y015795D01*
X053492Y015829D01*
X053563Y015852D01*
X053623Y015861D01*
X053623Y015443D01*
X053723Y015443D01*
X053723Y015861D01*
X053751Y015857D02*
X054423Y015857D01*
X054423Y015758D02*
X053970Y015758D01*
X054060Y015660D02*
X054423Y015660D01*
X054423Y015561D02*
X054112Y015561D01*
X054138Y015463D02*
X054423Y015463D01*
X054423Y015364D02*
X053723Y015364D01*
X053723Y015266D02*
X053623Y015266D01*
X053623Y015364D02*
X047223Y015364D01*
X047223Y015266D02*
X053220Y015266D01*
X053260Y015167D02*
X047223Y015167D01*
X047223Y015069D02*
X053333Y015069D01*
X053468Y014970D02*
X047223Y014970D01*
X047223Y014872D02*
X053562Y014872D01*
X053579Y014879D02*
X053407Y014808D01*
X053274Y014675D01*
X047223Y014675D01*
X047223Y014773D02*
X053372Y014773D01*
X053274Y014675D02*
X053203Y014503D01*
X053203Y014316D01*
X053274Y014143D01*
X053407Y014011D01*
X053579Y013939D01*
X053766Y013939D01*
X053939Y014011D01*
X054071Y014143D01*
X054143Y014316D01*
X054143Y014503D01*
X054071Y014675D01*
X053939Y014808D01*
X053766Y014879D01*
X053579Y014879D01*
X053623Y014970D02*
X053723Y014970D01*
X053723Y015069D02*
X053623Y015069D01*
X053623Y015167D02*
X053723Y015167D01*
X053878Y014970D02*
X054423Y014970D01*
X054423Y014872D02*
X053784Y014872D01*
X053973Y014773D02*
X054423Y014773D01*
X054423Y014675D02*
X054071Y014675D01*
X054112Y014576D02*
X054423Y014576D01*
X054423Y014478D02*
X054143Y014478D01*
X054143Y014379D02*
X054415Y014379D01*
X054317Y014281D02*
X054128Y014281D01*
X054088Y014182D02*
X054218Y014182D01*
X054120Y014084D02*
X054012Y014084D01*
X054021Y013985D02*
X053878Y013985D01*
X053923Y013887D02*
X053786Y013887D01*
X053560Y013887D02*
X047205Y013887D01*
X047228Y013985D02*
X053468Y013985D01*
X053333Y014084D02*
X047223Y014084D01*
X047223Y014182D02*
X053258Y014182D01*
X053217Y014281D02*
X047223Y014281D01*
X047223Y014379D02*
X053203Y014379D01*
X053203Y014478D02*
X047223Y014478D01*
X047223Y014576D02*
X053233Y014576D01*
X053073Y014893D02*
X054273Y014893D01*
X054273Y015893D01*
X053073Y015893D01*
X053073Y014893D01*
X053073Y014970D02*
X054273Y014970D01*
X054273Y015069D02*
X053073Y015069D01*
X053073Y015167D02*
X054273Y015167D01*
X054273Y015266D02*
X053073Y015266D01*
X053073Y015364D02*
X054273Y015364D01*
X054273Y015463D02*
X053073Y015463D01*
X053073Y015561D02*
X054273Y015561D01*
X054273Y015660D02*
X053073Y015660D01*
X053073Y015758D02*
X054273Y015758D01*
X054273Y015857D02*
X053073Y015857D01*
X053286Y015660D02*
X047223Y015660D01*
X047223Y015758D02*
X053376Y015758D01*
X053233Y015561D02*
X047223Y015561D01*
X047223Y015463D02*
X053208Y015463D01*
X053623Y015463D02*
X053723Y015463D01*
X053723Y015561D02*
X053623Y015561D01*
X053623Y015660D02*
X053723Y015660D01*
X053723Y015758D02*
X053623Y015758D01*
X054126Y015266D02*
X054423Y015266D01*
X054423Y015167D02*
X054085Y015167D01*
X054013Y015069D02*
X054423Y015069D01*
X054723Y015069D02*
X055048Y015069D01*
X055048Y015167D02*
X054723Y015167D01*
X054723Y015266D02*
X055048Y015266D01*
X055048Y015364D02*
X054723Y015364D01*
X054723Y015463D02*
X055048Y015463D01*
X055048Y015561D02*
X054723Y015561D01*
X054723Y015660D02*
X055048Y015660D01*
X055048Y015758D02*
X054723Y015758D01*
X054723Y015857D02*
X055048Y015857D01*
X055048Y015955D02*
X054723Y015955D01*
X054723Y016054D02*
X055048Y016054D01*
X055048Y016152D02*
X054723Y016152D01*
X054723Y016251D02*
X055048Y016251D01*
X055048Y016349D02*
X054723Y016349D01*
X054723Y016448D02*
X055048Y016448D01*
X055048Y016546D02*
X054723Y016546D01*
X054723Y016645D02*
X055048Y016645D01*
X055048Y016743D02*
X054723Y016743D01*
X054718Y016842D02*
X055048Y016842D01*
X055048Y016940D02*
X054619Y016940D01*
X054521Y017039D02*
X055048Y017039D01*
X055048Y017137D02*
X054422Y017137D01*
X054324Y017236D02*
X055048Y017236D01*
X055048Y017334D02*
X054225Y017334D01*
X054127Y017433D02*
X055048Y017433D01*
X055048Y017531D02*
X054122Y017531D01*
X054143Y017630D02*
X055048Y017630D01*
X055048Y017728D02*
X054143Y017728D01*
X054119Y017827D02*
X055048Y017827D01*
X055048Y017925D02*
X054135Y017925D01*
X054234Y018024D02*
X055048Y018024D01*
X055048Y018122D02*
X054332Y018122D01*
X054431Y018221D02*
X055048Y018221D01*
X055048Y018319D02*
X054529Y018319D01*
X054628Y018418D02*
X055048Y018418D01*
X055048Y018516D02*
X054726Y018516D01*
X054823Y018615D02*
X055048Y018615D01*
X055048Y018713D02*
X054823Y018713D01*
X054823Y018812D02*
X055048Y018812D01*
X055048Y018910D02*
X054823Y018910D01*
X054823Y019009D02*
X055048Y019009D01*
X055048Y019107D02*
X054823Y019107D01*
X054823Y019206D02*
X055048Y019206D01*
X055048Y019304D02*
X054823Y019304D01*
X054823Y019403D02*
X055048Y019403D01*
X055048Y019501D02*
X054823Y019501D01*
X054823Y019600D02*
X055048Y019600D01*
X055048Y019698D02*
X054823Y019698D01*
X054823Y019797D02*
X055048Y019797D01*
X055048Y019895D02*
X054823Y019895D01*
X054823Y019994D02*
X055048Y019994D01*
X055048Y020092D02*
X054823Y020092D01*
X054823Y020191D02*
X055048Y020191D01*
X055048Y020289D02*
X054823Y020289D01*
X054823Y020388D02*
X055048Y020388D01*
X055048Y020486D02*
X054823Y020486D01*
X054823Y020585D02*
X055048Y020585D01*
X055048Y020683D02*
X054823Y020683D01*
X054823Y020782D02*
X055048Y020782D01*
X055048Y020880D02*
X054823Y020880D01*
X054823Y020979D02*
X055048Y020979D01*
X055048Y021077D02*
X054823Y021077D01*
X054823Y021176D02*
X055048Y021176D01*
X055048Y021274D02*
X054823Y021274D01*
X054823Y021373D02*
X055048Y021373D01*
X055048Y021471D02*
X054823Y021471D01*
X054823Y021570D02*
X055048Y021570D01*
X055048Y021668D02*
X054823Y021668D01*
X054823Y021767D02*
X055048Y021767D01*
X055048Y021865D02*
X054823Y021865D01*
X054823Y021964D02*
X055048Y021964D01*
X055048Y022062D02*
X054823Y022062D01*
X054823Y022161D02*
X055048Y022161D01*
X055048Y022259D02*
X054823Y022259D01*
X054823Y022358D02*
X055048Y022358D01*
X055048Y022456D02*
X054823Y022456D01*
X054823Y022555D02*
X055048Y022555D01*
X055048Y022653D02*
X054823Y022653D01*
X054823Y022752D02*
X055048Y022752D01*
X055048Y022850D02*
X054823Y022850D01*
X054823Y022949D02*
X055048Y022949D01*
X055048Y023047D02*
X054823Y023047D01*
X054823Y023146D02*
X055048Y023146D01*
X055048Y023244D02*
X054823Y023244D01*
X054823Y023343D02*
X055048Y023343D01*
X055048Y023441D02*
X054823Y023441D01*
X054823Y023540D02*
X055048Y023540D01*
X055048Y023638D02*
X054740Y023638D01*
X054641Y023737D02*
X055048Y023737D01*
X055048Y023835D02*
X054543Y023835D01*
X054444Y023934D02*
X055048Y023934D01*
X055048Y024032D02*
X054878Y024032D01*
X054976Y024131D02*
X055048Y024131D01*
X054468Y024032D02*
X054346Y024032D01*
X054323Y024131D02*
X054370Y024131D01*
X054173Y023993D02*
X054673Y023493D01*
X054673Y018675D01*
X053673Y017675D01*
X054573Y016775D01*
X054573Y014325D01*
X053673Y013425D01*
X054113Y013591D02*
X055048Y013591D01*
X055048Y013493D02*
X054143Y013493D01*
X054143Y013394D02*
X055048Y013394D01*
X055048Y013296D02*
X054128Y013296D01*
X054087Y013197D02*
X055048Y013197D01*
X055048Y013099D02*
X054012Y013099D01*
X053876Y013000D02*
X055048Y013000D01*
X055048Y012902D02*
X039623Y012902D01*
X039623Y012606D02*
X043741Y012606D01*
X043582Y012508D02*
X039623Y012508D01*
X039623Y012409D02*
X043483Y012409D01*
X043388Y012311D02*
X039623Y012311D01*
X039623Y012212D02*
X043331Y012212D01*
X043274Y012114D02*
X039623Y012114D01*
X039623Y012015D02*
X043234Y012015D01*
X043207Y011917D02*
X039623Y011917D01*
X039623Y011818D02*
X043181Y011818D01*
X043173Y011720D02*
X039623Y011720D01*
X039623Y011621D02*
X043173Y011621D01*
X043173Y011523D02*
X039623Y011523D01*
X039623Y011424D02*
X043193Y011424D01*
X043219Y011326D02*
X039623Y011326D01*
X039623Y011227D02*
X043245Y011227D01*
X043300Y011129D02*
X039623Y011129D01*
X039623Y011030D02*
X043357Y011030D01*
X043429Y010932D02*
X039623Y010932D01*
X039623Y010833D02*
X043527Y010833D01*
X043646Y010735D02*
X039623Y010735D01*
X039623Y010636D02*
X043817Y010636D01*
X044729Y010636D02*
X055048Y010636D01*
X055048Y010538D02*
X039623Y010538D01*
X039623Y010439D02*
X055048Y010439D01*
X055048Y010341D02*
X039623Y010341D01*
X039623Y010242D02*
X055048Y010242D01*
X055048Y010144D02*
X039623Y010144D01*
X039623Y010045D02*
X055048Y010045D01*
X055048Y009947D02*
X039623Y009947D01*
X039623Y009848D02*
X055048Y009848D01*
X055048Y009750D02*
X039623Y009750D01*
X039623Y009651D02*
X055048Y009651D01*
X055048Y009553D02*
X039623Y009553D01*
X039623Y009454D02*
X055048Y009454D01*
X055048Y009356D02*
X039623Y009356D01*
X039623Y009257D02*
X055048Y009257D01*
X055048Y009159D02*
X039623Y009159D01*
X039623Y009060D02*
X055048Y009060D01*
X055048Y008962D02*
X039623Y008962D01*
X039623Y008863D02*
X055048Y008863D01*
X055048Y008765D02*
X054867Y008765D01*
X054966Y008666D02*
X055048Y008666D01*
X054479Y008765D02*
X053867Y008765D01*
X053839Y008793D02*
X053507Y008793D01*
X053273Y008559D01*
X053273Y008228D01*
X053507Y007993D01*
X053839Y007993D01*
X054073Y008228D01*
X054073Y008559D01*
X053839Y008793D01*
X053966Y008666D02*
X054380Y008666D01*
X054282Y008568D02*
X054064Y008568D01*
X054073Y008469D02*
X054273Y008469D01*
X054273Y008371D02*
X054073Y008371D01*
X054073Y008272D02*
X054273Y008272D01*
X054327Y008174D02*
X054019Y008174D01*
X053921Y008075D02*
X054425Y008075D01*
X054494Y007780D02*
X053852Y007780D01*
X053951Y007681D02*
X054395Y007681D01*
X054297Y007583D02*
X054049Y007583D01*
X054073Y007484D02*
X054273Y007484D01*
X054273Y007287D02*
X054073Y007287D01*
X054073Y007386D02*
X054623Y007386D01*
X054623Y007484D02*
X054723Y007484D01*
X054723Y007583D02*
X054623Y007583D01*
X054623Y007681D02*
X054723Y007681D01*
X054723Y007780D02*
X054623Y007780D01*
X054852Y007780D02*
X055048Y007780D01*
X055048Y007878D02*
X036118Y007878D01*
X036201Y007977D02*
X055048Y007977D01*
X055048Y008075D02*
X054921Y008075D01*
X055019Y008174D02*
X055048Y008174D01*
X055048Y007681D02*
X054951Y007681D01*
X054410Y007090D02*
X053936Y007090D01*
X054034Y007189D02*
X054312Y007189D01*
X053410Y007090D02*
X052936Y007090D01*
X053034Y007189D02*
X053312Y007189D01*
X053273Y007287D02*
X053073Y007287D01*
X053073Y007386D02*
X053273Y007386D01*
X053273Y007484D02*
X053073Y007484D01*
X053049Y007583D02*
X053297Y007583D01*
X053395Y007681D02*
X052951Y007681D01*
X052852Y007780D02*
X053494Y007780D01*
X053425Y008075D02*
X052921Y008075D01*
X052839Y007993D02*
X053073Y008228D01*
X053073Y008559D01*
X052839Y008793D01*
X052507Y008793D01*
X052273Y008559D01*
X052273Y008228D01*
X052507Y007993D01*
X052839Y007993D01*
X053019Y008174D02*
X053327Y008174D01*
X053273Y008272D02*
X053073Y008272D01*
X053073Y008371D02*
X053273Y008371D01*
X053273Y008469D02*
X053073Y008469D01*
X053064Y008568D02*
X053282Y008568D01*
X053380Y008666D02*
X052966Y008666D01*
X052867Y008765D02*
X053479Y008765D01*
X052479Y008765D02*
X051867Y008765D01*
X051839Y008793D02*
X051507Y008793D01*
X051273Y008559D01*
X051273Y008228D01*
X051507Y007993D01*
X051839Y007993D01*
X052073Y008228D01*
X052073Y008559D01*
X051839Y008793D01*
X051966Y008666D02*
X052380Y008666D01*
X052282Y008568D02*
X052064Y008568D01*
X052073Y008469D02*
X052273Y008469D01*
X052273Y008371D02*
X052073Y008371D01*
X052073Y008272D02*
X052273Y008272D01*
X052327Y008174D02*
X052019Y008174D01*
X051921Y008075D02*
X052425Y008075D01*
X052494Y007780D02*
X051852Y007780D01*
X051951Y007681D02*
X052395Y007681D01*
X052297Y007583D02*
X052049Y007583D01*
X052073Y007484D02*
X052273Y007484D01*
X052273Y007386D02*
X052073Y007386D01*
X052073Y007287D02*
X052273Y007287D01*
X052312Y007189D02*
X052034Y007189D01*
X051936Y007090D02*
X052410Y007090D01*
X051410Y007090D02*
X050936Y007090D01*
X051034Y007189D02*
X051312Y007189D01*
X051273Y007287D02*
X051073Y007287D01*
X051073Y007386D02*
X051273Y007386D01*
X051273Y007484D02*
X051073Y007484D01*
X051049Y007583D02*
X051297Y007583D01*
X051395Y007681D02*
X050951Y007681D01*
X050852Y007780D02*
X051494Y007780D01*
X051425Y008075D02*
X050921Y008075D01*
X050839Y007993D02*
X051073Y008228D01*
X051073Y008559D01*
X050839Y008793D01*
X050507Y008793D01*
X050273Y008559D01*
X050273Y008228D01*
X050507Y007993D01*
X050839Y007993D01*
X051019Y008174D02*
X051327Y008174D01*
X051273Y008272D02*
X051073Y008272D01*
X051073Y008371D02*
X051273Y008371D01*
X051273Y008469D02*
X051073Y008469D01*
X051064Y008568D02*
X051282Y008568D01*
X051380Y008666D02*
X050966Y008666D01*
X050867Y008765D02*
X051479Y008765D01*
X050479Y008765D02*
X049867Y008765D01*
X049839Y008793D02*
X049507Y008793D01*
X049273Y008559D01*
X049273Y008228D01*
X049507Y007993D01*
X049839Y007993D01*
X050073Y008228D01*
X050073Y008559D01*
X049839Y008793D01*
X049966Y008666D02*
X050380Y008666D01*
X050282Y008568D02*
X050064Y008568D01*
X050073Y008469D02*
X050273Y008469D01*
X050273Y008371D02*
X050073Y008371D01*
X050073Y008272D02*
X050273Y008272D01*
X050327Y008174D02*
X050019Y008174D01*
X049921Y008075D02*
X050425Y008075D01*
X050494Y007780D02*
X049852Y007780D01*
X049951Y007681D02*
X050395Y007681D01*
X050297Y007583D02*
X050049Y007583D01*
X050073Y007484D02*
X050273Y007484D01*
X050273Y007386D02*
X050073Y007386D01*
X050073Y007287D02*
X050273Y007287D01*
X050312Y007189D02*
X050034Y007189D01*
X049936Y007090D02*
X050410Y007090D01*
X049410Y007090D02*
X048936Y007090D01*
X049034Y007189D02*
X049312Y007189D01*
X049273Y007287D02*
X049073Y007287D01*
X049073Y007386D02*
X049273Y007386D01*
X049273Y007484D02*
X049073Y007484D01*
X049049Y007583D02*
X049297Y007583D01*
X049395Y007681D02*
X048951Y007681D01*
X048852Y007780D02*
X049494Y007780D01*
X049425Y008075D02*
X048921Y008075D01*
X048839Y007993D02*
X049073Y008228D01*
X049073Y008559D01*
X048839Y008793D01*
X048507Y008793D01*
X048273Y008559D01*
X048273Y008228D01*
X048507Y007993D01*
X048839Y007993D01*
X049019Y008174D02*
X049327Y008174D01*
X049273Y008272D02*
X049073Y008272D01*
X049073Y008371D02*
X049273Y008371D01*
X049273Y008469D02*
X049073Y008469D01*
X049064Y008568D02*
X049282Y008568D01*
X049380Y008666D02*
X048966Y008666D01*
X048867Y008765D02*
X049479Y008765D01*
X048479Y008765D02*
X047867Y008765D01*
X047839Y008793D02*
X047507Y008793D01*
X047273Y008559D01*
X047273Y008228D01*
X047507Y007993D01*
X047839Y007993D01*
X048073Y008228D01*
X048073Y008559D01*
X047839Y008793D01*
X047966Y008666D02*
X048380Y008666D01*
X048282Y008568D02*
X048064Y008568D01*
X048073Y008469D02*
X048273Y008469D01*
X048273Y008371D02*
X048073Y008371D01*
X048073Y008272D02*
X048273Y008272D01*
X048327Y008174D02*
X048019Y008174D01*
X047921Y008075D02*
X048425Y008075D01*
X048494Y007780D02*
X047852Y007780D01*
X047951Y007681D02*
X048395Y007681D01*
X048297Y007583D02*
X048049Y007583D01*
X048073Y007484D02*
X048273Y007484D01*
X048273Y007386D02*
X048073Y007386D01*
X048073Y007287D02*
X048273Y007287D01*
X048312Y007189D02*
X048034Y007189D01*
X047936Y007090D02*
X048410Y007090D01*
X047410Y007090D02*
X046936Y007090D01*
X047034Y007189D02*
X047312Y007189D01*
X047273Y007287D02*
X047073Y007287D01*
X047073Y007386D02*
X047273Y007386D01*
X047273Y007484D02*
X047073Y007484D01*
X047049Y007583D02*
X047297Y007583D01*
X047395Y007681D02*
X046951Y007681D01*
X046852Y007780D02*
X047494Y007780D01*
X047425Y008075D02*
X046921Y008075D01*
X046839Y007993D02*
X047073Y008228D01*
X047073Y008559D01*
X046839Y008793D01*
X046507Y008793D01*
X046273Y008559D01*
X046273Y008228D01*
X046507Y007993D01*
X046839Y007993D01*
X047019Y008174D02*
X047327Y008174D01*
X047273Y008272D02*
X047073Y008272D01*
X047073Y008371D02*
X047273Y008371D01*
X047273Y008469D02*
X047073Y008469D01*
X047064Y008568D02*
X047282Y008568D01*
X047380Y008666D02*
X046966Y008666D01*
X046867Y008765D02*
X047479Y008765D01*
X046479Y008765D02*
X045867Y008765D01*
X045966Y008666D02*
X046380Y008666D01*
X046282Y008568D02*
X046064Y008568D01*
X046073Y008469D02*
X046273Y008469D01*
X046273Y008371D02*
X046073Y008371D01*
X046073Y008272D02*
X046273Y008272D01*
X046327Y008174D02*
X046019Y008174D01*
X045921Y008075D02*
X046425Y008075D01*
X046494Y007780D02*
X045852Y007780D01*
X045951Y007681D02*
X046395Y007681D01*
X046297Y007583D02*
X046049Y007583D01*
X046073Y007484D02*
X046273Y007484D01*
X046273Y007386D02*
X046073Y007386D01*
X046073Y007287D02*
X046273Y007287D01*
X046312Y007189D02*
X046034Y007189D01*
X045936Y007090D02*
X046410Y007090D01*
X039323Y009159D02*
X026223Y009159D01*
X026223Y009257D02*
X039323Y009257D01*
X039323Y009356D02*
X026223Y009356D01*
X026223Y009454D02*
X039323Y009454D01*
X039323Y009553D02*
X026223Y009553D01*
X026223Y009651D02*
X039323Y009651D01*
X039323Y009750D02*
X026223Y009750D01*
X026223Y009848D02*
X039323Y009848D01*
X039323Y009947D02*
X026223Y009947D01*
X026223Y010045D02*
X039323Y010045D01*
X039323Y010144D02*
X026223Y010144D01*
X026223Y010242D02*
X039323Y010242D01*
X039323Y010341D02*
X026230Y010341D01*
X026379Y010439D02*
X039323Y010439D01*
X039323Y010538D02*
X026426Y010538D01*
X026428Y010636D02*
X039323Y010636D01*
X039323Y010735D02*
X026390Y010735D01*
X026260Y010833D02*
X039323Y010833D01*
X039323Y010932D02*
X022320Y010932D01*
X022320Y011030D02*
X039323Y011030D01*
X038073Y011993D02*
X038073Y012193D01*
X039323Y012508D02*
X019323Y012508D01*
X019323Y012606D02*
X039323Y012606D01*
X039323Y012705D02*
X019323Y012705D01*
X019323Y012803D02*
X022671Y012803D01*
X022681Y012793D02*
X022623Y012852D01*
X022623Y012868D01*
X022578Y012868D01*
X022450Y012922D01*
X022351Y013020D01*
X022351Y013020D01*
X021875Y013497D01*
X021776Y013595D01*
X021723Y013724D01*
X021723Y018463D01*
X021776Y018592D01*
X021976Y018792D01*
X022075Y018890D01*
X022203Y018943D01*
X022342Y018943D01*
X022471Y018890D01*
X022570Y018792D01*
X022623Y018663D01*
X022623Y018524D01*
X022570Y018395D01*
X022471Y018297D01*
X022423Y018248D01*
X022423Y013938D01*
X022718Y013643D01*
X023414Y013643D01*
X023473Y013585D01*
X023473Y012852D01*
X023414Y012793D01*
X022681Y012793D01*
X022497Y012902D02*
X019323Y012902D01*
X019323Y013000D02*
X022371Y013000D01*
X022272Y013099D02*
X019323Y013099D01*
X019323Y013197D02*
X022174Y013197D01*
X022075Y013296D02*
X019323Y013296D01*
X019323Y013394D02*
X021977Y013394D01*
X021878Y013493D02*
X019323Y013493D01*
X019323Y013591D02*
X021780Y013591D01*
X021737Y013690D02*
X019323Y013690D01*
X019323Y013788D02*
X021723Y013788D01*
X021723Y013887D02*
X019323Y013887D01*
X019323Y013985D02*
X021723Y013985D01*
X021723Y014084D02*
X019323Y014084D01*
X019323Y014182D02*
X021723Y014182D01*
X021723Y014281D02*
X019323Y014281D01*
X019323Y014379D02*
X021723Y014379D01*
X021723Y014478D02*
X019323Y014478D01*
X019323Y014576D02*
X021723Y014576D01*
X021723Y014675D02*
X019323Y014675D01*
X019323Y014773D02*
X021723Y014773D01*
X021723Y014872D02*
X019323Y014872D01*
X019323Y014970D02*
X021723Y014970D01*
X021723Y015069D02*
X019309Y015069D01*
X019323Y015055D02*
X018935Y015443D01*
X017183Y015443D01*
X016973Y015293D02*
X018873Y015293D01*
X019173Y014993D01*
X019173Y011793D01*
X019361Y011621D02*
X019384Y011621D01*
X019373Y011954D02*
X019323Y012004D01*
X019323Y015055D01*
X019211Y015167D02*
X021723Y015167D01*
X021723Y015266D02*
X019112Y015266D01*
X019014Y015364D02*
X021723Y015364D01*
X022423Y015364D02*
X023326Y015364D01*
X023318Y015266D02*
X022423Y015266D01*
X022423Y015167D02*
X023349Y015167D01*
X023388Y015069D02*
X022423Y015069D01*
X022423Y014970D02*
X023329Y014970D01*
X023318Y014872D02*
X022423Y014872D01*
X022423Y014773D02*
X023347Y014773D01*
X023434Y014675D02*
X022423Y014675D01*
X022423Y014576D02*
X022818Y014576D01*
X022825Y014582D02*
X022771Y014542D01*
X022724Y014495D01*
X022684Y014441D01*
X022654Y014381D01*
X022633Y014318D01*
X022623Y014252D01*
X022623Y014237D01*
X023029Y014237D01*
X023029Y014199D01*
X023067Y014199D01*
X023067Y013793D01*
X023081Y013793D01*
X023147Y013804D01*
X023211Y013824D01*
X023271Y013855D01*
X023325Y013894D01*
X023372Y013941D01*
X023411Y013996D01*
X023442Y014055D01*
X023462Y014119D01*
X023473Y014185D01*
X023473Y014199D01*
X023067Y014199D01*
X023067Y014237D01*
X023473Y014237D01*
X023473Y014252D01*
X023462Y014318D01*
X023442Y014381D01*
X023411Y014441D01*
X023372Y014495D01*
X023325Y014542D01*
X023271Y014582D01*
X023211Y014612D01*
X023147Y014633D01*
X023081Y014643D01*
X023067Y014643D01*
X023067Y014237D01*
X023029Y014237D01*
X023029Y014643D01*
X023014Y014643D01*
X022948Y014633D01*
X022885Y014612D01*
X022825Y014582D01*
X022711Y014478D02*
X022423Y014478D01*
X022423Y014379D02*
X022653Y014379D01*
X022627Y014281D02*
X022423Y014281D01*
X022423Y014182D02*
X022623Y014182D01*
X022623Y014185D02*
X022633Y014119D01*
X022654Y014055D01*
X022684Y013996D01*
X022724Y013941D01*
X022771Y013894D01*
X022825Y013855D01*
X022885Y013824D01*
X022948Y013804D01*
X023014Y013793D01*
X023029Y013793D01*
X023029Y014199D01*
X022623Y014199D01*
X022623Y014185D01*
X022645Y014084D02*
X022423Y014084D01*
X022423Y013985D02*
X022692Y013985D01*
X022781Y013887D02*
X022474Y013887D01*
X022573Y013788D02*
X039323Y013788D01*
X039323Y013690D02*
X022671Y013690D01*
X023029Y013887D02*
X023067Y013887D01*
X023067Y013985D02*
X023029Y013985D01*
X023029Y014084D02*
X023067Y014084D01*
X023067Y014182D02*
X023029Y014182D01*
X023029Y014281D02*
X023067Y014281D01*
X023067Y014379D02*
X023029Y014379D01*
X023029Y014478D02*
X023067Y014478D01*
X023067Y014576D02*
X023029Y014576D01*
X023278Y014576D02*
X039323Y014576D01*
X039323Y014478D02*
X023385Y014478D01*
X023442Y014379D02*
X039323Y014379D01*
X039323Y014281D02*
X023468Y014281D01*
X023472Y014182D02*
X039323Y014182D01*
X039323Y014084D02*
X023451Y014084D01*
X023404Y013985D02*
X039323Y013985D01*
X039323Y013887D02*
X023315Y013887D01*
X023466Y013591D02*
X039323Y013591D01*
X039323Y013493D02*
X023473Y013493D01*
X023473Y013394D02*
X039323Y013394D01*
X039323Y013296D02*
X023473Y013296D01*
X023473Y013197D02*
X039323Y013197D01*
X039323Y013099D02*
X023473Y013099D01*
X023473Y013000D02*
X039323Y013000D01*
X039323Y012902D02*
X023473Y012902D01*
X023424Y012803D02*
X039323Y012803D01*
X038573Y013193D02*
X038473Y013293D01*
X040073Y013693D02*
X040073Y014793D01*
X039773Y015093D01*
X039073Y015093D01*
X038773Y015393D01*
X038773Y016893D01*
X038473Y017193D01*
X038473Y018093D01*
X039073Y018693D01*
X039328Y018713D02*
X041618Y018713D01*
X041629Y018615D02*
X039904Y018615D01*
X039998Y018516D02*
X041689Y018516D01*
X041918Y018418D02*
X040028Y018418D01*
X040193Y018319D02*
X041927Y018319D01*
X041985Y018221D02*
X040296Y018221D01*
X040328Y018122D02*
X042290Y018122D01*
X042191Y018024D02*
X040320Y018024D01*
X040293Y017925D02*
X040265Y017925D01*
X040194Y017827D02*
X040123Y017827D01*
X040123Y017728D02*
X040123Y017728D01*
X040123Y017630D02*
X040123Y017630D01*
X040123Y017531D02*
X040123Y017531D01*
X040123Y017433D02*
X040123Y017433D01*
X040123Y017334D02*
X040123Y017334D01*
X040123Y017236D02*
X040123Y017236D01*
X040123Y017137D02*
X040123Y017137D01*
X040123Y017039D02*
X040123Y017039D01*
X040123Y016940D02*
X040123Y016940D01*
X040123Y016842D02*
X040123Y016842D01*
X040123Y016743D02*
X040123Y016743D01*
X040123Y016704D02*
X040123Y016704D01*
X039973Y016493D02*
X039973Y017993D01*
X040073Y018093D01*
X040373Y017793D02*
X042173Y017793D01*
X042473Y018093D01*
X042473Y022393D01*
X043573Y023493D01*
X043573Y023593D01*
X043573Y023959D01*
X043870Y023934D02*
X044520Y023934D01*
X044512Y023835D02*
X044619Y023835D01*
X044674Y023737D02*
X044717Y023737D01*
X044334Y023835D02*
X043870Y023835D01*
X043870Y023737D02*
X044171Y023737D01*
X044104Y023638D02*
X043828Y023638D01*
X043827Y023540D02*
X044073Y023540D01*
X044073Y023441D02*
X043781Y023441D01*
X043635Y023343D02*
X044106Y023343D01*
X044177Y023244D02*
X043536Y023244D01*
X043438Y023146D02*
X044347Y023146D01*
X044499Y023146D02*
X044723Y023146D01*
X044723Y023244D02*
X044669Y023244D01*
X044723Y023047D02*
X043339Y023047D01*
X043241Y022949D02*
X044723Y022949D01*
X044723Y022850D02*
X043142Y022850D01*
X043375Y022752D02*
X044723Y022752D01*
X044723Y022653D02*
X043877Y022653D01*
X043977Y022555D02*
X044723Y022555D01*
X044723Y022456D02*
X044027Y022456D01*
X044053Y022358D02*
X044723Y022358D01*
X044723Y022259D02*
X044053Y022259D01*
X044023Y022161D02*
X044723Y022161D01*
X044723Y022062D02*
X044464Y022062D01*
X044520Y021964D02*
X044723Y021964D01*
X044723Y021865D02*
X044528Y021865D01*
X044496Y021767D02*
X044723Y021767D01*
X044723Y021668D02*
X044396Y021668D01*
X044150Y021668D02*
X042623Y021668D01*
X042623Y021570D02*
X044723Y021570D01*
X044723Y021471D02*
X043880Y021471D01*
X043879Y021472D02*
X043732Y021533D01*
X043573Y021533D01*
X043426Y021472D01*
X043314Y021360D01*
X043253Y021213D01*
X043253Y021054D01*
X043314Y020907D01*
X043426Y020794D01*
X043573Y020733D01*
X043732Y020733D01*
X043879Y020794D01*
X043992Y020907D01*
X044053Y021054D01*
X044053Y021213D01*
X043992Y021360D01*
X043879Y021472D01*
X043979Y021373D02*
X044723Y021373D01*
X044723Y021274D02*
X044027Y021274D01*
X044053Y021176D02*
X044723Y021176D01*
X044723Y021077D02*
X044053Y021077D01*
X044022Y020979D02*
X044723Y020979D01*
X044723Y020880D02*
X043966Y020880D01*
X043850Y020782D02*
X044723Y020782D01*
X044723Y020683D02*
X043012Y020683D01*
X043028Y020585D02*
X044723Y020585D01*
X044723Y020486D02*
X043240Y020486D01*
X043310Y020388D02*
X044723Y020388D01*
X045223Y019797D02*
X046033Y019797D01*
X046102Y019698D02*
X045223Y019698D01*
X045223Y019600D02*
X046249Y019600D01*
X047223Y019600D02*
X053623Y019600D01*
X053623Y019693D02*
X053205Y019693D01*
X053214Y019753D01*
X053237Y019824D01*
X053271Y019890D01*
X053314Y019949D01*
X053367Y020002D01*
X053427Y020045D01*
X053492Y020079D01*
X053563Y020102D01*
X053623Y020111D01*
X053623Y019693D01*
X053623Y019698D02*
X053723Y019698D01*
X053723Y019600D02*
X054523Y019600D01*
X054523Y019698D02*
X054140Y019698D01*
X054117Y019797D02*
X054523Y019797D01*
X054523Y019895D02*
X054071Y019895D01*
X053987Y019994D02*
X054523Y019994D01*
X054523Y020092D02*
X053812Y020092D01*
X053723Y020092D02*
X053623Y020092D01*
X053534Y020092D02*
X047223Y020092D01*
X047223Y019994D02*
X053359Y019994D01*
X053275Y019895D02*
X047223Y019895D01*
X047223Y019797D02*
X053229Y019797D01*
X053206Y019698D02*
X047223Y019698D01*
X047223Y019501D02*
X053225Y019501D01*
X053268Y019403D02*
X047223Y019403D01*
X047223Y019304D02*
X053347Y019304D01*
X053073Y019304D02*
X054273Y019304D01*
X054273Y019206D02*
X053073Y019206D01*
X053073Y019193D02*
X054273Y019193D01*
X054273Y020193D01*
X053073Y020193D01*
X053073Y019193D01*
X053073Y019403D02*
X054273Y019403D01*
X054273Y019501D02*
X053073Y019501D01*
X053073Y019600D02*
X054273Y019600D01*
X054273Y019698D02*
X053073Y019698D01*
X053073Y019797D02*
X054273Y019797D01*
X054273Y019895D02*
X053073Y019895D01*
X053073Y019994D02*
X054273Y019994D01*
X054273Y020092D02*
X053073Y020092D01*
X053073Y020191D02*
X054273Y020191D01*
X054523Y020191D02*
X047223Y020191D01*
X047223Y020289D02*
X054523Y020289D01*
X054523Y020388D02*
X047223Y020388D01*
X047223Y020486D02*
X054523Y020486D01*
X054523Y020585D02*
X047223Y020585D01*
X047223Y020683D02*
X053122Y020683D01*
X053122Y020655D02*
X053180Y020596D01*
X053696Y020596D01*
X053755Y020655D01*
X053755Y021132D01*
X053696Y021190D01*
X053523Y021190D01*
X053523Y021283D01*
X053589Y021349D01*
X053628Y021443D01*
X053628Y021544D01*
X053589Y021638D01*
X053517Y021709D01*
X053424Y021748D01*
X053322Y021748D01*
X053228Y021709D01*
X053157Y021638D01*
X053118Y021544D01*
X053118Y021443D01*
X053157Y021349D01*
X053223Y021283D01*
X053223Y021190D01*
X053180Y021190D01*
X053122Y021132D01*
X053122Y020655D01*
X053122Y020782D02*
X047223Y020782D01*
X047223Y020880D02*
X053122Y020880D01*
X053122Y020979D02*
X047223Y020979D01*
X047223Y021077D02*
X053122Y021077D01*
X053166Y021176D02*
X047223Y021176D01*
X047223Y021274D02*
X053223Y021274D01*
X053147Y021373D02*
X047223Y021373D01*
X047223Y021471D02*
X053118Y021471D01*
X053129Y021570D02*
X047223Y021570D01*
X047223Y021668D02*
X053187Y021668D01*
X053373Y021493D02*
X053373Y020959D01*
X053438Y020893D01*
X053755Y020880D02*
X054059Y020880D01*
X054156Y020880D02*
X054523Y020880D01*
X054523Y020782D02*
X054424Y020782D01*
X054424Y020845D02*
X054424Y020677D01*
X054409Y020640D01*
X054381Y020612D01*
X054344Y020596D01*
X054156Y020596D01*
X054156Y020845D01*
X054424Y020845D01*
X054424Y020979D02*
X054523Y020979D01*
X054523Y021077D02*
X054424Y021077D01*
X054514Y021176D02*
X054523Y021176D01*
X054373Y021393D02*
X054473Y021493D01*
X054473Y023393D01*
X054073Y023793D01*
X053873Y023793D01*
X053667Y023638D02*
X051823Y023638D01*
X051823Y023540D02*
X053818Y023540D01*
X053927Y023540D02*
X054114Y023540D01*
X054213Y023441D02*
X051823Y023441D01*
X051823Y023343D02*
X054311Y023343D01*
X054323Y023244D02*
X051823Y023244D01*
X051823Y023146D02*
X054323Y023146D01*
X054323Y023047D02*
X051823Y023047D01*
X051823Y022949D02*
X054323Y022949D01*
X054323Y022850D02*
X051823Y022850D01*
X051823Y022752D02*
X054323Y022752D01*
X054323Y022653D02*
X051823Y022653D01*
X051823Y022555D02*
X054323Y022555D01*
X054323Y022456D02*
X051823Y022456D01*
X051823Y022358D02*
X054323Y022358D01*
X054323Y022259D02*
X051823Y022259D01*
X051753Y022161D02*
X054323Y022161D01*
X054323Y022062D02*
X051728Y022062D01*
X051695Y021964D02*
X054323Y021964D01*
X054323Y021865D02*
X051589Y021865D01*
X051357Y021865D02*
X047223Y021865D01*
X047223Y021767D02*
X054323Y021767D01*
X054323Y021668D02*
X053558Y021668D01*
X053617Y021570D02*
X054189Y021570D01*
X054129Y021471D02*
X053628Y021471D01*
X053599Y021373D02*
X054118Y021373D01*
X054146Y021274D02*
X053523Y021274D01*
X053710Y021176D02*
X053836Y021176D01*
X053791Y021077D02*
X053755Y021077D01*
X053755Y020979D02*
X053791Y020979D01*
X053791Y020782D02*
X053755Y020782D01*
X053755Y020683D02*
X053791Y020683D01*
X054059Y020683D02*
X054156Y020683D01*
X054156Y020782D02*
X054059Y020782D01*
X054059Y020979D02*
X054156Y020979D01*
X054156Y021077D02*
X054059Y021077D01*
X054059Y021176D02*
X054156Y021176D01*
X054424Y020683D02*
X054523Y020683D01*
X053723Y019994D02*
X053623Y019994D01*
X053623Y019895D02*
X053723Y019895D01*
X053723Y019797D02*
X053623Y019797D01*
X053623Y019501D02*
X053723Y019501D01*
X053723Y019403D02*
X053623Y019403D01*
X053623Y019304D02*
X053723Y019304D01*
X053723Y019206D02*
X053623Y019206D01*
X053819Y019107D02*
X054523Y019107D01*
X054523Y019009D02*
X053988Y019009D01*
X054077Y018910D02*
X054523Y018910D01*
X054523Y018812D02*
X054118Y018812D01*
X054143Y018713D02*
X054499Y018713D01*
X054401Y018615D02*
X054143Y018615D01*
X054122Y018516D02*
X054302Y018516D01*
X054204Y018418D02*
X054082Y018418D01*
X054105Y018319D02*
X053998Y018319D01*
X054007Y018221D02*
X053843Y018221D01*
X053821Y018122D02*
X053908Y018122D01*
X053847Y019206D02*
X054523Y019206D01*
X054523Y019304D02*
X053999Y019304D01*
X054078Y019403D02*
X054523Y019403D01*
X054523Y019501D02*
X054121Y019501D01*
X051273Y020093D02*
X051173Y019993D01*
X051173Y019593D01*
X051473Y021093D02*
X051473Y021293D01*
X051250Y021964D02*
X047223Y021964D01*
X047223Y022062D02*
X051218Y022062D01*
X051225Y022161D02*
X047223Y022161D01*
X047223Y022259D02*
X051278Y022259D01*
X051473Y022093D02*
X051673Y022293D01*
X051673Y024393D01*
X051976Y024131D02*
X052370Y024131D01*
X052273Y024228D02*
X052507Y023993D01*
X052839Y023993D01*
X053073Y024228D01*
X053073Y024559D01*
X052839Y024793D01*
X052507Y024793D01*
X052273Y024559D01*
X052273Y024228D01*
X052273Y024229D02*
X052073Y024229D01*
X052073Y024328D02*
X052273Y024328D01*
X052273Y024426D02*
X052073Y024426D01*
X052073Y024525D02*
X052273Y024525D01*
X052337Y024623D02*
X052008Y024623D01*
X051910Y024722D02*
X052436Y024722D01*
X052483Y025017D02*
X051863Y025017D01*
X051961Y025116D02*
X052385Y025116D01*
X052286Y025214D02*
X052060Y025214D01*
X051673Y025393D02*
X052673Y025393D01*
X053173Y024893D01*
X053973Y024893D01*
X054173Y024693D01*
X054173Y023993D01*
X053723Y024032D02*
X053623Y024032D01*
X053623Y024131D02*
X053723Y024131D01*
X053723Y024229D02*
X053623Y024229D01*
X053623Y024328D02*
X053723Y024328D01*
X053623Y024426D02*
X053073Y024426D01*
X053073Y024328D02*
X053273Y024328D01*
X053273Y024229D02*
X053073Y024229D01*
X052976Y024131D02*
X053370Y024131D01*
X053468Y024032D02*
X052878Y024032D01*
X052468Y024032D02*
X051878Y024032D01*
X051823Y023934D02*
X053655Y023934D01*
X053618Y023835D02*
X051823Y023835D01*
X051823Y023737D02*
X053620Y023737D01*
X053273Y024525D02*
X053073Y024525D01*
X053008Y024623D02*
X053337Y024623D01*
X053436Y024722D02*
X052910Y024722D01*
X051523Y023934D02*
X045223Y023934D01*
X045223Y024032D02*
X045468Y024032D01*
X045370Y024131D02*
X045223Y024131D01*
X045223Y024229D02*
X045273Y024229D01*
X045273Y024328D02*
X045150Y024328D01*
X045052Y024426D02*
X045273Y024426D01*
X045273Y024525D02*
X044953Y024525D01*
X044855Y024623D02*
X045337Y024623D01*
X045436Y024722D02*
X044756Y024722D01*
X044658Y024820D02*
X046034Y024820D01*
X046132Y024722D02*
X045910Y024722D01*
X045935Y024919D02*
X044628Y024919D01*
X044373Y024893D02*
X045073Y024193D01*
X045073Y015793D01*
X045173Y015693D01*
X045370Y015857D02*
X046144Y015857D01*
X046103Y015758D02*
X045422Y015758D01*
X045428Y015660D02*
X046093Y015660D01*
X046098Y015561D02*
X045394Y015561D01*
X044677Y015857D02*
X043993Y015857D01*
X043896Y015955D02*
X044554Y015955D01*
X044518Y016054D02*
X040491Y016054D01*
X040528Y016152D02*
X044521Y016152D01*
X044570Y016251D02*
X040525Y016251D01*
X040477Y016349D02*
X044723Y016349D01*
X044723Y016448D02*
X043816Y016448D01*
X043952Y016546D02*
X044723Y016546D01*
X044723Y016645D02*
X044016Y016645D01*
X044053Y016743D02*
X044723Y016743D01*
X044723Y016842D02*
X044053Y016842D01*
X044033Y016940D02*
X044723Y016940D01*
X044723Y017039D02*
X043992Y017039D01*
X043894Y017137D02*
X044723Y017137D01*
X044723Y017236D02*
X043223Y017236D01*
X043223Y017334D02*
X044723Y017334D01*
X044723Y017433D02*
X043223Y017433D01*
X043223Y017531D02*
X044723Y017531D01*
X044723Y017630D02*
X043223Y017630D01*
X043223Y017728D02*
X044193Y017728D01*
X044113Y017827D02*
X043223Y017827D01*
X043223Y017925D02*
X044073Y017925D01*
X044073Y018024D02*
X043223Y018024D01*
X043223Y018122D02*
X044097Y018122D01*
X044155Y018221D02*
X043223Y018221D01*
X043223Y018319D02*
X044295Y018319D01*
X044550Y018319D02*
X044723Y018319D01*
X044723Y018221D02*
X044690Y018221D01*
X044653Y017728D02*
X044723Y017728D01*
X045223Y017137D02*
X046231Y017137D01*
X046149Y017039D02*
X045223Y017039D01*
X046443Y017039D02*
X046543Y017039D01*
X046543Y017137D02*
X046443Y017137D01*
X046443Y016743D02*
X046543Y016743D01*
X046543Y016645D02*
X046443Y016645D01*
X046443Y016546D02*
X046543Y016546D01*
X046772Y016546D02*
X046923Y016546D01*
X046923Y016645D02*
X046848Y016645D01*
X046883Y016743D02*
X046923Y016743D01*
X046229Y015955D02*
X045223Y015955D01*
X043490Y016448D02*
X040647Y016448D01*
X040499Y016448D02*
X040423Y016448D01*
X040573Y016693D02*
X040773Y016893D01*
X041373Y016893D01*
X041673Y017193D01*
X041761Y017433D02*
X042555Y017433D01*
X042518Y017334D02*
X041890Y017334D01*
X041928Y017236D02*
X042521Y017236D01*
X042568Y017137D02*
X041926Y017137D01*
X041879Y017039D02*
X042721Y017039D01*
X042819Y016940D02*
X041728Y016940D01*
X041533Y016842D02*
X042864Y016842D01*
X043010Y016743D02*
X041435Y016743D01*
X040828Y016645D02*
X043290Y016645D01*
X043253Y016743D02*
X043136Y016743D01*
X043073Y016993D02*
X043073Y020293D01*
X043306Y020191D02*
X043330Y020191D01*
X043328Y020289D02*
X043436Y020289D01*
X043277Y020092D02*
X043232Y020092D01*
X042873Y019993D02*
X042773Y020093D01*
X042773Y020593D01*
X042945Y020782D02*
X043456Y020782D01*
X043340Y020880D02*
X042623Y020880D01*
X042623Y020979D02*
X043284Y020979D01*
X043253Y021077D02*
X042623Y021077D01*
X042623Y021176D02*
X043253Y021176D01*
X043278Y021274D02*
X042623Y021274D01*
X042623Y021373D02*
X043327Y021373D01*
X043425Y021471D02*
X042623Y021471D01*
X042623Y021767D02*
X043287Y021767D01*
X043189Y021865D02*
X042623Y021865D01*
X042623Y021964D02*
X043090Y021964D01*
X043023Y022062D02*
X042623Y022062D01*
X042623Y022161D02*
X043023Y022161D01*
X043023Y022259D02*
X042623Y022259D01*
X042650Y022358D02*
X043023Y022358D01*
X042954Y022456D02*
X042748Y022456D01*
X042847Y022555D02*
X042918Y022555D01*
X043173Y022593D02*
X043173Y022093D01*
X043373Y021893D01*
X044273Y021893D01*
X044081Y022062D02*
X043968Y022062D01*
X043429Y022653D02*
X043424Y022653D01*
X042973Y023193D02*
X042973Y023593D01*
X042973Y023959D01*
X043270Y023934D02*
X043276Y023934D01*
X043270Y024032D02*
X043276Y024032D01*
X043270Y024131D02*
X043276Y024131D01*
X043289Y024229D02*
X043257Y024229D01*
X043226Y024327D02*
X043254Y024355D01*
X043270Y024392D01*
X043270Y024580D01*
X043021Y024580D01*
X043021Y024676D01*
X043270Y024676D01*
X043270Y024864D01*
X043254Y024901D01*
X043226Y024929D01*
X043190Y024944D01*
X043021Y024944D01*
X043021Y024676D01*
X042924Y024676D01*
X042924Y024580D01*
X042676Y024580D01*
X042676Y024392D01*
X042691Y024355D01*
X042719Y024327D01*
X042756Y024311D01*
X042924Y024311D01*
X042924Y024580D01*
X043021Y024580D01*
X043021Y024311D01*
X043190Y024311D01*
X043226Y024327D01*
X043228Y024328D02*
X043318Y024328D01*
X043276Y024426D02*
X043270Y024426D01*
X043270Y024525D02*
X043276Y024525D01*
X043276Y024676D02*
X043524Y024676D01*
X043524Y024944D01*
X043356Y024944D01*
X043319Y024929D01*
X043291Y024901D01*
X043276Y024864D01*
X043276Y024676D01*
X043270Y024722D02*
X043276Y024722D01*
X043270Y024820D02*
X043276Y024820D01*
X043309Y024919D02*
X043237Y024919D01*
X043021Y024919D02*
X042924Y024919D01*
X042924Y024944D02*
X042756Y024944D01*
X042719Y024929D01*
X042691Y024901D01*
X042676Y024864D01*
X042676Y024676D01*
X042924Y024676D01*
X042924Y024944D01*
X042924Y024820D02*
X043021Y024820D01*
X043021Y024722D02*
X042924Y024722D01*
X042924Y024623D02*
X042421Y024623D01*
X042421Y024580D02*
X042421Y024676D01*
X042670Y024676D01*
X042670Y024864D01*
X042654Y024901D01*
X042626Y024929D01*
X042590Y024944D01*
X042421Y024944D01*
X042421Y024676D01*
X042324Y024676D01*
X042324Y024580D01*
X042076Y024580D01*
X042076Y024392D01*
X042091Y024355D01*
X042119Y024327D01*
X042156Y024311D01*
X042324Y024311D01*
X042324Y024580D01*
X042421Y024580D01*
X042670Y024580D01*
X042670Y024392D01*
X042654Y024355D01*
X042626Y024327D01*
X042590Y024311D01*
X042421Y024311D01*
X042421Y024580D01*
X042421Y024525D02*
X042324Y024525D01*
X042324Y024623D02*
X041821Y024623D01*
X041821Y024580D02*
X041821Y024676D01*
X042070Y024676D01*
X042070Y024864D01*
X042054Y024901D01*
X042026Y024929D01*
X041990Y024944D01*
X041821Y024944D01*
X041821Y024676D01*
X041724Y024676D01*
X041724Y024580D01*
X041476Y024580D01*
X041476Y024392D01*
X041491Y024355D01*
X041519Y024327D01*
X041556Y024311D01*
X041724Y024311D01*
X041724Y024580D01*
X041821Y024580D01*
X042070Y024580D01*
X042070Y024392D01*
X042054Y024355D01*
X042026Y024327D01*
X041990Y024311D01*
X041821Y024311D01*
X041821Y024580D01*
X041821Y024525D02*
X041724Y024525D01*
X041724Y024623D02*
X039429Y024623D01*
X039450Y024525D02*
X041476Y024525D01*
X041476Y024426D02*
X039471Y024426D01*
X039464Y024328D02*
X041518Y024328D01*
X041489Y024229D02*
X041369Y024229D01*
X041176Y024229D02*
X039443Y024229D01*
X039422Y024131D02*
X041054Y024131D01*
X041018Y024032D02*
X039384Y024032D01*
X039312Y023934D02*
X040887Y023934D01*
X040756Y023835D02*
X039241Y023835D01*
X039211Y023795D02*
X039211Y023795D01*
X039111Y023737D02*
X040718Y023737D01*
X040720Y023638D02*
X038940Y023638D01*
X038448Y023638D02*
X030226Y023638D01*
X030228Y023737D02*
X038225Y023737D01*
X038116Y023835D02*
X030190Y023835D01*
X030058Y023934D02*
X038015Y023934D01*
X037972Y024032D02*
X029878Y024032D01*
X029887Y023934D02*
X029444Y023934D01*
X029468Y024032D02*
X029346Y024032D01*
X029323Y024131D02*
X029370Y024131D01*
X029173Y023993D02*
X029473Y023693D01*
X029973Y023693D01*
X030180Y023540D02*
X040766Y023540D01*
X040823Y023441D02*
X030031Y023441D01*
X029915Y023441D02*
X025233Y023441D01*
X025223Y023343D02*
X040823Y023343D01*
X040823Y023244D02*
X025223Y023244D01*
X025223Y023146D02*
X040823Y023146D01*
X040823Y023047D02*
X025139Y023047D01*
X025041Y022949D02*
X040823Y022949D01*
X040823Y022850D02*
X024942Y022850D01*
X024923Y022752D02*
X040823Y022752D01*
X040823Y022653D02*
X024923Y022653D01*
X024923Y022555D02*
X040823Y022555D01*
X040823Y022456D02*
X024923Y022456D01*
X024923Y022358D02*
X040823Y022358D01*
X040823Y022259D02*
X024923Y022259D01*
X024923Y022161D02*
X040823Y022161D01*
X040823Y022062D02*
X024923Y022062D01*
X024923Y021964D02*
X040823Y021964D01*
X040823Y021865D02*
X024923Y021865D01*
X024923Y021767D02*
X040823Y021767D01*
X040823Y021668D02*
X024923Y021668D01*
X024923Y021570D02*
X040823Y021570D01*
X040823Y021471D02*
X024923Y021471D01*
X024923Y021373D02*
X040823Y021373D01*
X040823Y021274D02*
X024923Y021274D01*
X024923Y021176D02*
X040823Y021176D01*
X040823Y021077D02*
X024923Y021077D01*
X024923Y020979D02*
X040823Y020979D01*
X040823Y020880D02*
X024923Y020880D01*
X024923Y020782D02*
X040801Y020782D01*
X040734Y020683D02*
X024923Y020683D01*
X024923Y020585D02*
X040718Y020585D01*
X040741Y020486D02*
X024923Y020486D01*
X024923Y020388D02*
X040818Y020388D01*
X040973Y020593D02*
X040973Y023693D01*
X041273Y023993D02*
X041273Y020493D01*
X041473Y020293D01*
X041706Y020191D02*
X041723Y020191D01*
X041723Y020092D02*
X041632Y020092D01*
X041723Y019994D02*
X024923Y019994D01*
X024923Y020092D02*
X041313Y020092D01*
X041239Y020191D02*
X024923Y020191D01*
X024923Y020289D02*
X041218Y020289D01*
X041166Y020388D02*
X041128Y020388D01*
X041723Y019895D02*
X024923Y019895D01*
X024923Y019797D02*
X041723Y019797D01*
X041723Y019698D02*
X024923Y019698D01*
X024923Y019600D02*
X041723Y019600D01*
X041723Y019501D02*
X024923Y019501D01*
X024923Y019403D02*
X041723Y019403D01*
X041672Y019304D02*
X024923Y019304D01*
X024923Y019206D02*
X041425Y019206D01*
X041344Y019107D02*
X024923Y019107D01*
X024923Y019009D02*
X041318Y019009D01*
X041331Y018910D02*
X039215Y018910D01*
X039300Y018812D02*
X041394Y018812D01*
X041573Y018993D02*
X041873Y019293D01*
X041873Y023493D01*
X041773Y023593D01*
X041773Y023959D01*
X042070Y023934D02*
X042076Y023934D01*
X042070Y024032D02*
X042076Y024032D01*
X042070Y024131D02*
X042076Y024131D01*
X042089Y024229D02*
X042057Y024229D01*
X042028Y024328D02*
X042118Y024328D01*
X042076Y024426D02*
X042070Y024426D01*
X042070Y024525D02*
X042076Y024525D01*
X042076Y024676D02*
X042324Y024676D01*
X042324Y024944D01*
X042156Y024944D01*
X042119Y024929D01*
X042091Y024901D01*
X042076Y024864D01*
X042076Y024676D01*
X042070Y024722D02*
X042076Y024722D01*
X042070Y024820D02*
X042076Y024820D01*
X042109Y024919D02*
X042037Y024919D01*
X041821Y024919D02*
X041724Y024919D01*
X041724Y024944D02*
X041556Y024944D01*
X041519Y024929D01*
X041491Y024901D01*
X041476Y024864D01*
X041476Y024676D01*
X041724Y024676D01*
X041724Y024944D01*
X041724Y024820D02*
X041821Y024820D01*
X041821Y024722D02*
X041724Y024722D01*
X041476Y024722D02*
X039407Y024722D01*
X039336Y024820D02*
X041476Y024820D01*
X041509Y024919D02*
X039264Y024919D01*
X038348Y025116D02*
X029962Y025116D01*
X030061Y025017D02*
X038189Y025017D01*
X038080Y024919D02*
X030159Y024919D01*
X030391Y024820D02*
X038001Y024820D01*
X037957Y024722D02*
X030496Y024722D01*
X030528Y024623D02*
X037913Y024623D01*
X037885Y024525D02*
X030520Y024525D01*
X030467Y024426D02*
X037885Y024426D01*
X037885Y024328D02*
X030073Y024328D01*
X030073Y024426D02*
X030079Y024426D01*
X030073Y024229D02*
X037885Y024229D01*
X037928Y024131D02*
X029976Y024131D01*
X029173Y023993D02*
X029173Y024693D01*
X029073Y024793D01*
X027973Y024793D01*
X027873Y024893D01*
X027173Y024893D01*
X026673Y025393D01*
X026385Y025116D02*
X025961Y025116D01*
X026060Y025214D02*
X026286Y025214D01*
X026273Y025313D02*
X026073Y025313D01*
X026073Y025411D02*
X026273Y025411D01*
X026273Y025510D02*
X026073Y025510D01*
X026023Y025608D02*
X026322Y025608D01*
X026421Y025707D02*
X025925Y025707D01*
X025421Y025707D02*
X024925Y025707D01*
X025023Y025608D02*
X025322Y025608D01*
X025273Y025510D02*
X025073Y025510D01*
X025073Y025411D02*
X025273Y025411D01*
X025273Y025313D02*
X025073Y025313D01*
X025060Y025214D02*
X025286Y025214D01*
X025385Y025116D02*
X024961Y025116D01*
X024863Y025017D02*
X025483Y025017D01*
X025436Y024722D02*
X024910Y024722D01*
X025008Y024623D02*
X025337Y024623D01*
X025673Y024393D02*
X024673Y024393D01*
X024673Y023393D01*
X024473Y023193D01*
X024273Y023193D01*
X023973Y022893D01*
X023973Y020393D01*
X023673Y020093D01*
X023473Y020093D01*
X023238Y019994D02*
X019993Y019994D01*
X019993Y019974D02*
X019940Y019845D01*
X019841Y019747D01*
X019712Y019693D01*
X019573Y019693D01*
X019445Y019747D01*
X019346Y019845D01*
X019293Y019974D01*
X019293Y020113D01*
X019346Y020242D01*
X019445Y020340D01*
X019573Y020393D01*
X019712Y020393D01*
X019841Y020340D01*
X019940Y020242D01*
X019993Y020113D01*
X019993Y019974D01*
X019960Y019895D02*
X023310Y019895D01*
X023218Y020092D02*
X019993Y020092D01*
X019961Y020191D02*
X021922Y020191D01*
X021922Y020177D02*
X021937Y020140D01*
X021965Y020112D01*
X022002Y020096D01*
X022190Y020096D01*
X022190Y020345D01*
X022287Y020345D01*
X022287Y020442D01*
X022555Y020442D01*
X022555Y020610D01*
X022539Y020647D01*
X022511Y020675D01*
X022490Y020684D01*
X022490Y020845D01*
X022222Y020845D01*
X022222Y020677D01*
X022237Y020640D01*
X022265Y020612D01*
X022287Y020603D01*
X022287Y020442D01*
X022190Y020442D01*
X022190Y020690D01*
X022002Y020690D01*
X021965Y020675D01*
X021937Y020647D01*
X021922Y020610D01*
X021922Y020442D01*
X022190Y020442D01*
X022190Y020345D01*
X021922Y020345D01*
X021922Y020177D01*
X021922Y020289D02*
X019892Y020289D01*
X019726Y020388D02*
X022190Y020388D01*
X022287Y020388D02*
X022591Y020388D01*
X022555Y020345D02*
X022287Y020345D01*
X022287Y020096D01*
X022475Y020096D01*
X022511Y020112D01*
X022539Y020140D01*
X022555Y020177D01*
X022555Y020345D01*
X022555Y020289D02*
X022591Y020289D01*
X022591Y020191D02*
X022555Y020191D01*
X022287Y020191D02*
X022190Y020191D01*
X022190Y020289D02*
X022287Y020289D01*
X022287Y020486D02*
X022190Y020486D01*
X022190Y020585D02*
X022287Y020585D01*
X022222Y020683D02*
X022190Y020683D01*
X022222Y020782D02*
X019448Y020782D01*
X019367Y020748D02*
X019542Y020821D01*
X019676Y020954D01*
X019748Y021129D01*
X019748Y021318D01*
X019676Y021492D01*
X019542Y021626D01*
X019367Y021698D01*
X019178Y021698D01*
X019059Y021649D01*
X018823Y021885D01*
X018823Y022248D01*
X018870Y022134D01*
X019004Y022001D01*
X019178Y021928D01*
X019367Y021928D01*
X019486Y021978D01*
X019533Y021931D01*
X019621Y021843D01*
X019662Y021843D01*
X019657Y021838D01*
X019618Y021744D01*
X019618Y021643D01*
X019657Y021549D01*
X019728Y021477D01*
X019822Y021438D01*
X019924Y021438D01*
X020017Y021477D01*
X020089Y021549D01*
X020128Y021643D01*
X021518Y021643D01*
X021518Y021643D01*
X021557Y021549D01*
X021628Y021477D01*
X021722Y021438D01*
X021824Y021438D01*
X021917Y021477D01*
X021989Y021549D01*
X022028Y021643D01*
X022028Y021744D01*
X021989Y021838D01*
X021933Y021893D01*
X021989Y021949D01*
X022028Y022043D01*
X022028Y022144D01*
X021989Y022238D01*
X021917Y022309D01*
X021824Y022348D01*
X021722Y022348D01*
X021628Y022309D01*
X021557Y022238D01*
X021518Y022144D01*
X021518Y022143D01*
X019745Y022143D01*
X019699Y022190D01*
X019748Y022309D01*
X019748Y022498D01*
X019676Y022672D01*
X019542Y022806D01*
X019367Y022878D01*
X019178Y022878D01*
X019004Y022806D01*
X018870Y022672D01*
X018823Y022558D01*
X018823Y023431D01*
X018833Y023401D01*
X018867Y023334D01*
X018911Y023274D01*
X018963Y023221D01*
X019024Y023177D01*
X019090Y023143D01*
X019162Y023120D01*
X019223Y023110D01*
X019223Y023533D01*
X019323Y023533D01*
X019323Y023110D01*
X019384Y023120D01*
X019455Y023143D01*
X019522Y023177D01*
X019582Y023221D01*
X019635Y023274D01*
X019679Y023334D01*
X019713Y023401D01*
X019736Y023472D01*
X019746Y023533D01*
X019323Y023533D01*
X019323Y023633D01*
X019746Y023633D01*
X019736Y023695D01*
X019713Y023766D01*
X019679Y023832D01*
X019635Y023893D01*
X019582Y023946D01*
X019522Y023990D01*
X019455Y024024D01*
X019384Y024047D01*
X019323Y024056D01*
X019323Y023633D01*
X019223Y023633D01*
X019223Y024056D01*
X019162Y024047D01*
X019090Y024024D01*
X019024Y023990D01*
X018963Y023946D01*
X018911Y023893D01*
X018867Y023832D01*
X018833Y023766D01*
X018823Y023735D01*
X018823Y023831D01*
X019135Y024143D01*
X019811Y024143D01*
X020211Y023743D01*
X021135Y023743D01*
X021223Y023831D01*
X021446Y024054D01*
X021507Y023993D01*
X021839Y023993D01*
X022073Y024228D01*
X022073Y024559D01*
X021839Y024793D01*
X021507Y024793D01*
X021273Y024559D01*
X021273Y024305D01*
X021011Y024043D01*
X020889Y024043D01*
X021073Y024228D01*
X021073Y024559D01*
X020839Y024793D01*
X020507Y024793D01*
X020273Y024559D01*
X020273Y024228D01*
X020457Y024043D01*
X020335Y024043D01*
X020023Y024355D01*
X019935Y024443D01*
X019785Y024443D01*
X019841Y024467D01*
X019940Y024565D01*
X019993Y024694D01*
X019993Y024833D01*
X019940Y024962D01*
X019841Y025060D01*
X019712Y025113D01*
X019573Y025113D01*
X019445Y025060D01*
X019346Y024962D01*
X019293Y024833D01*
X019293Y024694D01*
X019346Y024565D01*
X019445Y024467D01*
X019501Y024443D01*
X019011Y024443D01*
X018611Y024043D01*
X018523Y023955D01*
X018523Y023786D01*
X018496Y023852D01*
X018362Y023986D01*
X018187Y024058D01*
X017998Y024058D01*
X017824Y023986D01*
X017690Y023852D01*
X017618Y023678D01*
X017618Y023489D01*
X017690Y023314D01*
X017824Y023181D01*
X017998Y023108D01*
X018187Y023108D01*
X018362Y023181D01*
X018496Y023314D01*
X018523Y023380D01*
X018523Y022606D01*
X018496Y022672D01*
X018362Y022806D01*
X018187Y022878D01*
X017998Y022878D01*
X017824Y022806D01*
X017690Y022672D01*
X017618Y022498D01*
X017618Y022309D01*
X017690Y022134D01*
X017824Y022001D01*
X017998Y021928D01*
X018187Y021928D01*
X018362Y022001D01*
X018496Y022134D01*
X018523Y022200D01*
X018523Y021761D01*
X018847Y021437D01*
X018798Y021318D01*
X018798Y021129D01*
X018870Y020954D01*
X019004Y020821D01*
X019178Y020748D01*
X019367Y020748D01*
X019602Y020880D02*
X022490Y020880D01*
X022587Y020880D02*
X022891Y020880D01*
X022891Y020782D02*
X022855Y020782D01*
X022855Y020979D02*
X022891Y020979D01*
X022891Y021077D02*
X022855Y021077D01*
X022809Y021176D02*
X022935Y021176D01*
X022587Y021176D02*
X022490Y021176D01*
X022490Y021077D02*
X022587Y021077D01*
X022587Y020979D02*
X022490Y020979D01*
X022490Y020782D02*
X022587Y020782D01*
X022587Y020683D02*
X022491Y020683D01*
X022555Y020585D02*
X022591Y020585D01*
X022591Y020486D02*
X022555Y020486D01*
X022907Y020393D02*
X023573Y020393D01*
X023773Y020593D01*
X023773Y022993D01*
X024273Y023493D01*
X024373Y023493D01*
X024373Y023893D02*
X023573Y023093D01*
X023573Y021093D01*
X023373Y020893D01*
X023207Y020893D01*
X023273Y020893D01*
X023423Y021274D02*
X019748Y021274D01*
X019748Y021176D02*
X022267Y021176D01*
X022222Y021077D02*
X019727Y021077D01*
X019686Y020979D02*
X022222Y020979D01*
X021985Y020683D02*
X015423Y020683D01*
X015423Y020585D02*
X021922Y020585D01*
X021922Y020486D02*
X015423Y020486D01*
X015423Y020388D02*
X019560Y020388D01*
X019394Y020289D02*
X015423Y020289D01*
X015423Y020191D02*
X019325Y020191D01*
X019293Y020092D02*
X015423Y020092D01*
X015423Y019994D02*
X019293Y019994D01*
X019325Y019895D02*
X015423Y019895D01*
X015423Y019797D02*
X019394Y019797D01*
X019561Y019698D02*
X015423Y019698D01*
X015423Y019600D02*
X024023Y019600D01*
X024023Y019698D02*
X019725Y019698D01*
X019891Y019797D02*
X024023Y019797D01*
X024023Y019895D02*
X023635Y019895D01*
X023785Y019994D02*
X024023Y019994D01*
X024023Y020092D02*
X023884Y020092D01*
X023982Y020191D02*
X024023Y020191D01*
X024023Y019501D02*
X015423Y019501D01*
X015423Y019403D02*
X023922Y019403D01*
X023843Y019304D02*
X015423Y019304D01*
X015423Y019206D02*
X023818Y019206D01*
X023832Y019107D02*
X015423Y019107D01*
X015423Y019009D02*
X023897Y019009D01*
X024073Y019193D02*
X024173Y019293D01*
X024173Y022793D01*
X024373Y022993D01*
X024573Y022993D01*
X024873Y023293D01*
X024873Y023593D01*
X025173Y023893D01*
X026173Y023893D01*
X026673Y024393D01*
X026976Y024131D02*
X027198Y024131D01*
X027273Y024229D02*
X027073Y024229D01*
X027073Y024328D02*
X027273Y024328D01*
X027273Y024426D02*
X027073Y024426D01*
X027073Y024525D02*
X027273Y024525D01*
X027337Y024623D02*
X027008Y024623D01*
X026910Y024722D02*
X027436Y024722D01*
X027673Y024393D02*
X027173Y023893D01*
X026473Y023893D01*
X026273Y023693D01*
X025273Y023693D01*
X025073Y023493D01*
X025073Y023193D01*
X024773Y022893D01*
X024773Y016093D01*
X023573Y014893D01*
X023873Y015193D01*
X023960Y015069D02*
X038885Y015069D01*
X038787Y015167D02*
X024059Y015167D01*
X024157Y015266D02*
X038688Y015266D01*
X038623Y015364D02*
X024256Y015364D01*
X024354Y015463D02*
X038623Y015463D01*
X038623Y015561D02*
X024453Y015561D01*
X024551Y015660D02*
X038623Y015660D01*
X038623Y015758D02*
X024650Y015758D01*
X024748Y015857D02*
X038623Y015857D01*
X038623Y015955D02*
X024847Y015955D01*
X024923Y016054D02*
X038623Y016054D01*
X038623Y016152D02*
X024923Y016152D01*
X024923Y016251D02*
X038623Y016251D01*
X038623Y016349D02*
X024923Y016349D01*
X024923Y016448D02*
X038623Y016448D01*
X038623Y016546D02*
X024923Y016546D01*
X024923Y016645D02*
X038623Y016645D01*
X038623Y016743D02*
X024923Y016743D01*
X024923Y016842D02*
X038612Y016842D01*
X038514Y016940D02*
X024923Y016940D01*
X024923Y017039D02*
X038415Y017039D01*
X038323Y017137D02*
X024923Y017137D01*
X024923Y017236D02*
X038323Y017236D01*
X038323Y017334D02*
X024923Y017334D01*
X024923Y017433D02*
X038323Y017433D01*
X038323Y017531D02*
X024923Y017531D01*
X024923Y017630D02*
X038323Y017630D01*
X038323Y017728D02*
X024923Y017728D01*
X024923Y017827D02*
X038323Y017827D01*
X038323Y017925D02*
X024923Y017925D01*
X024923Y018024D02*
X038323Y018024D01*
X038323Y018122D02*
X024923Y018122D01*
X024923Y018221D02*
X038388Y018221D01*
X038487Y018319D02*
X024923Y018319D01*
X024923Y018418D02*
X038585Y018418D01*
X038684Y018516D02*
X024923Y018516D01*
X024923Y018615D02*
X038782Y018615D01*
X038818Y018713D02*
X024923Y018713D01*
X024923Y018812D02*
X038846Y018812D01*
X038930Y018910D02*
X024923Y018910D01*
X024223Y018910D02*
X022422Y018910D01*
X022549Y018812D02*
X024223Y018812D01*
X024223Y018713D02*
X022602Y018713D01*
X022623Y018615D02*
X024223Y018615D01*
X024223Y018516D02*
X022620Y018516D01*
X022579Y018418D02*
X024223Y018418D01*
X024223Y018319D02*
X022494Y018319D01*
X022423Y018221D02*
X024223Y018221D01*
X024223Y018122D02*
X022423Y018122D01*
X022423Y018024D02*
X024223Y018024D01*
X024223Y017925D02*
X022423Y017925D01*
X022423Y017827D02*
X024223Y017827D01*
X024223Y017728D02*
X022423Y017728D01*
X022423Y017630D02*
X024223Y017630D01*
X024223Y017531D02*
X022423Y017531D01*
X022423Y017433D02*
X024223Y017433D01*
X024223Y017334D02*
X022423Y017334D01*
X022423Y017236D02*
X024223Y017236D01*
X024223Y017137D02*
X022423Y017137D01*
X022423Y017039D02*
X024223Y017039D01*
X024223Y016940D02*
X022423Y016940D01*
X022423Y016842D02*
X024223Y016842D01*
X024223Y016743D02*
X022423Y016743D01*
X022423Y016645D02*
X024223Y016645D01*
X024223Y016546D02*
X022423Y016546D01*
X022423Y016448D02*
X024223Y016448D01*
X024223Y016349D02*
X022423Y016349D01*
X022423Y016251D02*
X024223Y016251D01*
X024223Y016152D02*
X022423Y016152D01*
X022423Y016054D02*
X024221Y016054D01*
X024123Y015955D02*
X022423Y015955D01*
X022423Y015857D02*
X024024Y015857D01*
X023926Y015758D02*
X022423Y015758D01*
X022423Y015660D02*
X023827Y015660D01*
X023729Y015561D02*
X022423Y015561D01*
X022423Y015463D02*
X023382Y015463D01*
X023573Y015293D02*
X023673Y015293D01*
X024373Y015993D01*
X024373Y021993D01*
X024473Y022093D01*
X023423Y022062D02*
X022028Y022062D01*
X022021Y022161D02*
X023423Y022161D01*
X023423Y022259D02*
X021967Y022259D01*
X021773Y022093D02*
X021673Y021993D01*
X019683Y021993D01*
X019273Y022403D01*
X019453Y021964D02*
X019500Y021964D01*
X019599Y021865D02*
X018843Y021865D01*
X018823Y021964D02*
X019093Y021964D01*
X018942Y022062D02*
X018823Y022062D01*
X018823Y022161D02*
X018859Y022161D01*
X018523Y022161D02*
X018507Y022161D01*
X018523Y022062D02*
X018424Y022062D01*
X018523Y021964D02*
X018273Y021964D01*
X018523Y021865D02*
X012523Y021865D01*
X012523Y021767D02*
X012900Y021767D01*
X012907Y021773D02*
X012774Y021641D01*
X012703Y021468D01*
X012703Y021281D01*
X012774Y021109D01*
X012907Y020976D01*
X013079Y020905D01*
X013266Y020905D01*
X013439Y020976D01*
X013571Y021109D01*
X013619Y021225D01*
X013829Y021225D01*
X014018Y021036D01*
X014018Y020943D01*
X014057Y020849D01*
X014128Y020777D01*
X014222Y020738D01*
X014324Y020738D01*
X014417Y020777D01*
X014489Y020849D01*
X014528Y020943D01*
X014528Y021044D01*
X014489Y021138D01*
X014417Y021209D01*
X014324Y021248D01*
X014230Y021248D01*
X013953Y021525D01*
X013619Y021525D01*
X013571Y021641D01*
X013439Y021773D01*
X013266Y021845D01*
X013079Y021845D01*
X012907Y021773D01*
X012802Y021668D02*
X012523Y021668D01*
X012523Y021570D02*
X012745Y021570D01*
X012704Y021471D02*
X012523Y021471D01*
X012523Y021373D02*
X012703Y021373D01*
X012706Y021274D02*
X012523Y021274D01*
X012523Y021176D02*
X012747Y021176D01*
X012806Y021077D02*
X012523Y021077D01*
X012523Y020979D02*
X012904Y020979D01*
X012523Y020880D02*
X014044Y020880D01*
X014018Y020979D02*
X013442Y020979D01*
X013540Y021077D02*
X013977Y021077D01*
X013878Y021176D02*
X013599Y021176D01*
X013891Y021375D02*
X013173Y021375D01*
X013601Y021570D02*
X014834Y021570D01*
X014725Y021471D02*
X014007Y021471D01*
X014105Y021373D02*
X014672Y021373D01*
X014643Y021274D02*
X014204Y021274D01*
X014451Y021176D02*
X014643Y021176D01*
X014670Y021077D02*
X014514Y021077D01*
X014528Y020979D02*
X014722Y020979D01*
X014723Y020880D02*
X014502Y020880D01*
X014422Y020782D02*
X014723Y020782D01*
X014723Y020683D02*
X012523Y020683D01*
X012523Y020585D02*
X014723Y020585D01*
X014723Y020486D02*
X012523Y020486D01*
X012523Y020388D02*
X014190Y020388D01*
X014203Y020393D02*
X014075Y020340D01*
X013976Y020242D01*
X013923Y020113D01*
X013923Y019974D01*
X013976Y019845D01*
X014075Y019747D01*
X014203Y019693D01*
X014342Y019693D01*
X014471Y019747D01*
X014570Y019845D01*
X014623Y019974D01*
X014623Y020113D01*
X014570Y020242D01*
X014471Y020340D01*
X014342Y020393D01*
X014203Y020393D01*
X014356Y020388D02*
X014723Y020388D01*
X014723Y020289D02*
X014522Y020289D01*
X014591Y020191D02*
X014723Y020191D01*
X014723Y020092D02*
X014623Y020092D01*
X014623Y019994D02*
X014723Y019994D01*
X014723Y019895D02*
X014590Y019895D01*
X014521Y019797D02*
X014723Y019797D01*
X014723Y019698D02*
X014355Y019698D01*
X014191Y019698D02*
X012523Y019698D01*
X012523Y019600D02*
X014723Y019600D01*
X014723Y019501D02*
X012523Y019501D01*
X012523Y019403D02*
X014723Y019403D01*
X014723Y019304D02*
X012523Y019304D01*
X012523Y019206D02*
X014723Y019206D01*
X014723Y019107D02*
X012523Y019107D01*
X012523Y019009D02*
X014723Y019009D01*
X014723Y018910D02*
X012523Y018910D01*
X012523Y018812D02*
X014723Y018812D01*
X014723Y018713D02*
X012523Y018713D01*
X012523Y018615D02*
X014723Y018615D01*
X014723Y018516D02*
X012523Y018516D01*
X012523Y018418D02*
X014723Y018418D01*
X014723Y018319D02*
X012523Y018319D01*
X012523Y018221D02*
X014723Y018221D01*
X014723Y018122D02*
X012523Y018122D01*
X012523Y018024D02*
X014723Y018024D01*
X015423Y018024D02*
X021723Y018024D01*
X021723Y018122D02*
X015423Y018122D01*
X015423Y018221D02*
X021723Y018221D01*
X021723Y018319D02*
X015423Y018319D01*
X015423Y018418D02*
X021723Y018418D01*
X021745Y018516D02*
X015423Y018516D01*
X015423Y018615D02*
X021799Y018615D01*
X021898Y018713D02*
X015423Y018713D01*
X015423Y018812D02*
X021996Y018812D01*
X022124Y018910D02*
X015423Y018910D01*
X014024Y019797D02*
X012523Y019797D01*
X012523Y019895D02*
X013955Y019895D01*
X013923Y019994D02*
X012523Y019994D01*
X012523Y020092D02*
X013923Y020092D01*
X013955Y020191D02*
X012523Y020191D01*
X012523Y020289D02*
X014024Y020289D01*
X014124Y020782D02*
X012523Y020782D01*
X013891Y021375D02*
X014273Y020993D01*
X015043Y021223D02*
X015073Y021193D01*
X015043Y021223D02*
X015063Y021243D01*
X016388Y021243D01*
X016705Y021274D02*
X016741Y021274D01*
X016741Y021176D02*
X016705Y021176D01*
X016705Y021077D02*
X016741Y021077D01*
X016741Y021005D02*
X016800Y020946D01*
X017315Y020946D01*
X017374Y021005D01*
X017374Y021093D01*
X017633Y021093D01*
X017690Y020954D01*
X017824Y020821D01*
X017998Y020748D01*
X018187Y020748D01*
X018362Y020821D01*
X018496Y020954D01*
X018568Y021129D01*
X018568Y021318D01*
X018496Y021492D01*
X018362Y021626D01*
X018187Y021698D01*
X017998Y021698D01*
X017824Y021626D01*
X017690Y021492D01*
X017649Y021393D01*
X017374Y021393D01*
X017374Y021482D01*
X017315Y021540D01*
X016800Y021540D01*
X016741Y021482D01*
X016741Y021005D01*
X016767Y020979D02*
X016679Y020979D01*
X017057Y021243D02*
X018073Y021243D01*
X018093Y021223D01*
X018422Y020880D02*
X018944Y020880D01*
X018860Y020979D02*
X018506Y020979D01*
X018547Y021077D02*
X018819Y021077D01*
X018798Y021176D02*
X018568Y021176D01*
X018568Y021274D02*
X018798Y021274D01*
X018821Y021373D02*
X018545Y021373D01*
X018504Y021471D02*
X018813Y021471D01*
X018714Y021570D02*
X018418Y021570D01*
X018260Y021668D02*
X018616Y021668D01*
X018523Y021767D02*
X013445Y021767D01*
X013544Y021668D02*
X017926Y021668D01*
X017768Y021570D02*
X015251Y021570D01*
X015360Y021471D02*
X016072Y021471D01*
X016072Y021077D02*
X015423Y021077D01*
X015423Y020979D02*
X016098Y020979D01*
X015423Y020880D02*
X017764Y020880D01*
X017680Y020979D02*
X017348Y020979D01*
X017374Y021077D02*
X017639Y021077D01*
X017681Y021471D02*
X017374Y021471D01*
X016741Y021471D02*
X016705Y021471D01*
X016705Y021373D02*
X016741Y021373D01*
X017679Y022161D02*
X015366Y022161D01*
X015382Y022177D02*
X015443Y022324D01*
X015443Y022483D01*
X015382Y022630D01*
X015269Y022742D01*
X015122Y022803D01*
X014963Y022803D01*
X014816Y022742D01*
X014704Y022630D01*
X014643Y022483D01*
X014643Y022324D01*
X014704Y022177D01*
X014816Y022064D01*
X014963Y022003D01*
X015122Y022003D01*
X015269Y022064D01*
X015382Y022177D01*
X015416Y022259D02*
X017638Y022259D01*
X017618Y022358D02*
X015443Y022358D01*
X015443Y022456D02*
X017618Y022456D01*
X017641Y022555D02*
X015413Y022555D01*
X015358Y022653D02*
X017682Y022653D01*
X017770Y022752D02*
X015247Y022752D01*
X014839Y022752D02*
X013445Y022752D01*
X013439Y022758D02*
X013266Y022829D01*
X013079Y022829D01*
X012993Y022793D01*
X012523Y022793D01*
X012523Y023793D01*
X013673Y023793D01*
X013673Y022793D01*
X013353Y022793D01*
X013266Y022829D01*
X013079Y022829D01*
X012907Y022758D01*
X012774Y022625D01*
X012703Y022453D01*
X012703Y022266D01*
X012774Y022093D01*
X012907Y021961D01*
X013079Y021889D01*
X013266Y021889D01*
X013439Y021961D01*
X013571Y022093D01*
X013643Y022266D01*
X013643Y022453D01*
X013571Y022625D01*
X013439Y022758D01*
X013543Y022653D02*
X014727Y022653D01*
X014673Y022555D02*
X013600Y022555D01*
X013641Y022456D02*
X014643Y022456D01*
X014643Y022358D02*
X013643Y022358D01*
X013640Y022259D02*
X014670Y022259D01*
X014720Y022161D02*
X013599Y022161D01*
X013541Y022062D02*
X014821Y022062D01*
X015265Y022062D02*
X017762Y022062D01*
X017913Y021964D02*
X013442Y021964D01*
X012903Y021964D02*
X012523Y021964D01*
X012523Y022062D02*
X012805Y022062D01*
X012746Y022161D02*
X012523Y022161D01*
X012523Y022259D02*
X012705Y022259D01*
X012703Y022358D02*
X012523Y022358D01*
X012523Y022456D02*
X012704Y022456D01*
X012745Y022555D02*
X012523Y022555D01*
X012523Y022653D02*
X012802Y022653D01*
X012901Y022752D02*
X012523Y022752D01*
X012523Y022850D02*
X013673Y022850D01*
X013673Y022949D02*
X012523Y022949D01*
X012916Y022949D01*
X012927Y022941D02*
X012992Y022908D01*
X013063Y022885D01*
X013123Y022875D01*
X013123Y023293D01*
X013223Y023293D01*
X013223Y022875D01*
X013283Y022885D01*
X013353Y022908D01*
X013419Y022941D01*
X013479Y022985D01*
X013531Y023037D01*
X013575Y023097D01*
X013608Y023163D01*
X013631Y023233D01*
X013641Y023293D01*
X013223Y023293D01*
X013223Y023393D01*
X013641Y023393D01*
X013631Y023453D01*
X013608Y023524D01*
X013575Y023590D01*
X013531Y023649D01*
X013479Y023702D01*
X013419Y023745D01*
X013353Y023779D01*
X013283Y023802D01*
X013223Y023811D01*
X013223Y023393D01*
X013123Y023393D01*
X013123Y023293D01*
X012705Y023293D01*
X012714Y023233D01*
X012737Y023163D01*
X012771Y023097D01*
X012814Y023037D01*
X012867Y022985D01*
X012927Y022941D01*
X012807Y023047D02*
X012523Y023047D01*
X013673Y023047D01*
X013673Y023146D02*
X012523Y023146D01*
X012746Y023146D01*
X012713Y023244D02*
X012523Y023244D01*
X013673Y023244D01*
X013633Y023244D02*
X014830Y023244D01*
X014853Y023229D02*
X014926Y023199D01*
X014993Y023185D01*
X014993Y023533D01*
X015093Y023533D01*
X015093Y023185D01*
X015160Y023199D01*
X015232Y023229D01*
X015298Y023273D01*
X015354Y023328D01*
X015397Y023394D01*
X015427Y023467D01*
X015441Y023533D01*
X015093Y023533D01*
X015093Y023633D01*
X015441Y023633D01*
X015427Y023700D01*
X015397Y023773D01*
X015354Y023838D01*
X015298Y023894D01*
X015232Y023938D01*
X015160Y023968D01*
X015093Y023981D01*
X015093Y023633D01*
X014993Y023633D01*
X014993Y023533D01*
X014645Y023533D01*
X014658Y023467D01*
X014688Y023394D01*
X014732Y023328D01*
X014788Y023273D01*
X014853Y023229D01*
X014993Y023244D02*
X015093Y023244D01*
X015093Y023343D02*
X014993Y023343D01*
X014993Y023441D02*
X015093Y023441D01*
X015093Y023540D02*
X017618Y023540D01*
X017618Y023638D02*
X015440Y023638D01*
X015412Y023737D02*
X017642Y023737D01*
X017683Y023835D02*
X015355Y023835D01*
X015238Y023934D02*
X017772Y023934D01*
X017936Y024032D02*
X012523Y024032D01*
X012523Y023934D02*
X014847Y023934D01*
X014853Y023938D02*
X014788Y023894D01*
X014732Y023838D01*
X014688Y023773D01*
X014658Y023700D01*
X014645Y023633D01*
X014993Y023633D01*
X014993Y023981D01*
X014926Y023968D01*
X014853Y023938D01*
X014993Y023934D02*
X015093Y023934D01*
X015093Y023835D02*
X014993Y023835D01*
X014993Y023737D02*
X015093Y023737D01*
X015093Y023638D02*
X014993Y023638D01*
X014993Y023540D02*
X013600Y023540D01*
X013673Y023540D02*
X012523Y023540D01*
X012745Y023540D01*
X012737Y023524D02*
X012714Y023453D01*
X012705Y023393D01*
X013123Y023393D01*
X013123Y023811D01*
X013063Y023802D01*
X012992Y023779D01*
X012927Y023745D01*
X012867Y023702D01*
X012814Y023649D01*
X012771Y023590D01*
X012737Y023524D01*
X012713Y023441D02*
X012523Y023441D01*
X013673Y023441D01*
X013633Y023441D02*
X014669Y023441D01*
X014722Y023343D02*
X013223Y023343D01*
X013223Y023441D02*
X013123Y023441D01*
X013123Y023343D02*
X012523Y023343D01*
X013673Y023343D01*
X013600Y023146D02*
X017908Y023146D01*
X017760Y023244D02*
X015256Y023244D01*
X015363Y023343D02*
X017678Y023343D01*
X017637Y023441D02*
X015417Y023441D01*
X014730Y023835D02*
X012523Y023835D01*
X012523Y023737D02*
X013673Y023737D01*
X013673Y023638D02*
X012523Y023638D01*
X012806Y023638D01*
X012915Y023737D02*
X012523Y023737D01*
X012523Y024131D02*
X018698Y024131D01*
X018600Y024032D02*
X018250Y024032D01*
X018414Y023934D02*
X018523Y023934D01*
X018523Y023835D02*
X018503Y023835D01*
X018673Y023893D02*
X018673Y021823D01*
X019273Y021223D01*
X019598Y021570D02*
X019648Y021570D01*
X019618Y021668D02*
X019440Y021668D01*
X019627Y021767D02*
X018941Y021767D01*
X019040Y021668D02*
X019106Y021668D01*
X019684Y021471D02*
X019742Y021471D01*
X019725Y021373D02*
X023423Y021373D01*
X023423Y021471D02*
X021903Y021471D01*
X021998Y021570D02*
X023423Y021570D01*
X023423Y021668D02*
X022028Y021668D01*
X022018Y021767D02*
X023423Y021767D01*
X023423Y021865D02*
X021961Y021865D01*
X021995Y021964D02*
X023423Y021964D01*
X023423Y022358D02*
X019748Y022358D01*
X019748Y022456D02*
X023423Y022456D01*
X023423Y022555D02*
X019724Y022555D01*
X019683Y022653D02*
X023423Y022653D01*
X023423Y022752D02*
X019596Y022752D01*
X019435Y022850D02*
X023423Y022850D01*
X023423Y022949D02*
X018823Y022949D01*
X018823Y023047D02*
X023423Y023047D01*
X023423Y023146D02*
X019461Y023146D01*
X019323Y023146D02*
X019223Y023146D01*
X019223Y023244D02*
X019323Y023244D01*
X019323Y023343D02*
X019223Y023343D01*
X019223Y023441D02*
X019323Y023441D01*
X019323Y023540D02*
X023807Y023540D01*
X023709Y023441D02*
X019726Y023441D01*
X019683Y023343D02*
X023610Y023343D01*
X023512Y023244D02*
X019606Y023244D01*
X019085Y023146D02*
X018823Y023146D01*
X018823Y023244D02*
X018940Y023244D01*
X018862Y023343D02*
X018823Y023343D01*
X018523Y023343D02*
X018507Y023343D01*
X018523Y023244D02*
X018426Y023244D01*
X018523Y023146D02*
X018278Y023146D01*
X018523Y023047D02*
X013539Y023047D01*
X013430Y022949D02*
X018523Y022949D01*
X018523Y022850D02*
X018255Y022850D01*
X018416Y022752D02*
X018523Y022752D01*
X018523Y022653D02*
X018503Y022653D01*
X018823Y022653D02*
X018862Y022653D01*
X018823Y022752D02*
X018950Y022752D01*
X018823Y022850D02*
X019111Y022850D01*
X019727Y022259D02*
X021578Y022259D01*
X021525Y022161D02*
X019727Y022161D01*
X019973Y021793D02*
X021673Y021793D01*
X021773Y021693D01*
X021548Y021570D02*
X020098Y021570D01*
X020128Y021643D02*
X020128Y021643D01*
X020003Y021471D02*
X021642Y021471D01*
X021673Y021393D02*
X021773Y021293D01*
X022907Y020393D02*
X022973Y020393D01*
X023273Y019593D02*
X023373Y019593D01*
X021723Y017925D02*
X015423Y017925D01*
X015423Y017827D02*
X015980Y017827D01*
X015792Y017728D02*
X015423Y017728D01*
X015384Y017630D02*
X015654Y017630D01*
X016766Y017827D02*
X021723Y017827D01*
X021723Y017728D02*
X016953Y017728D01*
X017092Y017630D02*
X021723Y017630D01*
X021723Y017531D02*
X017190Y017531D01*
X017274Y017433D02*
X021723Y017433D01*
X021723Y017334D02*
X017331Y017334D01*
X017388Y017236D02*
X021723Y017236D01*
X021723Y017137D02*
X017419Y017137D01*
X017446Y017039D02*
X021723Y017039D01*
X021723Y016940D02*
X017472Y016940D01*
X017473Y016842D02*
X021723Y016842D01*
X021723Y016743D02*
X017473Y016743D01*
X017472Y016645D02*
X021723Y016645D01*
X021723Y016546D02*
X017445Y016546D01*
X017419Y016448D02*
X021723Y016448D01*
X021723Y016349D02*
X017387Y016349D01*
X017330Y016251D02*
X021723Y016251D01*
X021723Y016152D02*
X017273Y016152D01*
X017189Y016054D02*
X021723Y016054D01*
X021723Y015955D02*
X017090Y015955D01*
X016951Y015857D02*
X021723Y015857D01*
X023712Y014675D02*
X039246Y014675D01*
X039218Y014773D02*
X023799Y014773D01*
X023828Y014872D02*
X039229Y014872D01*
X038984Y014970D02*
X023862Y014970D01*
X023822Y012448D02*
X023728Y012409D01*
X019323Y012409D01*
X019323Y012311D02*
X019878Y012311D01*
X019911Y012343D02*
X019823Y012255D01*
X019616Y012048D01*
X019522Y012048D01*
X019428Y012009D01*
X019373Y011954D01*
X019323Y012015D02*
X019442Y012015D01*
X019323Y012114D02*
X019681Y012114D01*
X019780Y012212D02*
X019323Y012212D01*
X019911Y012343D02*
X023662Y012343D01*
X023728Y012409D01*
X023822Y012448D02*
X023924Y012448D01*
X024017Y012409D01*
X022071Y011424D02*
X021974Y011424D01*
X021974Y011326D02*
X022071Y011326D01*
X022071Y011227D02*
X021974Y011227D01*
X021974Y011030D02*
X022071Y011030D01*
X022071Y010932D02*
X021974Y010932D01*
X021726Y010932D02*
X017303Y010932D01*
X017360Y010833D02*
X026086Y010833D01*
X025955Y010735D02*
X017407Y010735D01*
X017433Y010636D02*
X025918Y010636D01*
X025920Y010538D02*
X017460Y010538D01*
X017473Y010439D02*
X025923Y010439D01*
X025923Y010341D02*
X017473Y010341D01*
X017473Y010242D02*
X025923Y010242D01*
X025923Y010144D02*
X017458Y010144D01*
X017432Y010045D02*
X025923Y010045D01*
X025923Y009947D02*
X017405Y009947D01*
X017357Y009848D02*
X025923Y009848D01*
X025923Y009750D02*
X017300Y009750D01*
X017236Y009651D02*
X025923Y009651D01*
X025923Y009553D02*
X017138Y009553D01*
X017033Y009454D02*
X025923Y009454D01*
X025923Y009356D02*
X016862Y009356D01*
X016570Y009257D02*
X025923Y009257D01*
X025923Y009159D02*
X015819Y009159D01*
X015592Y008962D02*
X013924Y008962D01*
X013924Y009010D02*
X013909Y009047D01*
X013881Y009075D01*
X013844Y009090D01*
X013656Y009090D01*
X013656Y008842D01*
X013559Y008842D01*
X013559Y009090D01*
X013371Y009090D01*
X013334Y009075D01*
X013306Y009047D01*
X013291Y009010D01*
X013291Y008842D01*
X013559Y008842D01*
X013559Y008745D01*
X013291Y008745D01*
X013291Y008577D01*
X013306Y008540D01*
X013334Y008512D01*
X013371Y008496D01*
X013559Y008496D01*
X013559Y008745D01*
X013656Y008745D01*
X013656Y008842D01*
X013924Y008842D01*
X013924Y009010D01*
X013895Y009060D02*
X015494Y009060D01*
X015395Y009159D02*
X006298Y009159D01*
X006298Y009257D02*
X015297Y009257D01*
X015198Y009356D02*
X006298Y009356D01*
X006298Y009454D02*
X015100Y009454D01*
X014887Y009553D02*
X006298Y009553D01*
X006298Y009651D02*
X014756Y009651D01*
X014718Y009750D02*
X006298Y009750D01*
X006298Y009848D02*
X014720Y009848D01*
X014766Y009947D02*
X006298Y009947D01*
X006298Y009060D02*
X012650Y009060D01*
X012622Y009032D02*
X012680Y009090D01*
X013196Y009090D01*
X013255Y009032D01*
X013255Y008555D01*
X013196Y008496D01*
X012680Y008496D01*
X012622Y008555D01*
X012622Y008643D01*
X012583Y008643D01*
X012517Y008577D01*
X012424Y008538D01*
X012322Y008538D01*
X012228Y008577D01*
X012157Y008649D01*
X012118Y008743D01*
X012118Y008844D01*
X012157Y008938D01*
X012228Y009009D01*
X012322Y009048D01*
X012424Y009048D01*
X012517Y009009D01*
X012583Y008943D01*
X012622Y008943D01*
X012622Y009032D01*
X012622Y008962D02*
X012565Y008962D01*
X012373Y008793D02*
X012938Y008793D01*
X013255Y008765D02*
X013559Y008765D01*
X013656Y008765D02*
X015789Y008765D01*
X015691Y008863D02*
X013924Y008863D01*
X013924Y008745D02*
X013656Y008745D01*
X013656Y008496D01*
X013844Y008496D01*
X013881Y008512D01*
X013909Y008540D01*
X013924Y008577D01*
X013924Y008745D01*
X013924Y008666D02*
X015888Y008666D01*
X015986Y008568D02*
X013920Y008568D01*
X013656Y008568D02*
X013559Y008568D01*
X013559Y008666D02*
X013656Y008666D01*
X013656Y008863D02*
X013559Y008863D01*
X013559Y008962D02*
X013656Y008962D01*
X013656Y009060D02*
X013559Y009060D01*
X013320Y009060D02*
X013226Y009060D01*
X013255Y008962D02*
X013291Y008962D01*
X013291Y008863D02*
X013255Y008863D01*
X013255Y008666D02*
X013291Y008666D01*
X013295Y008568D02*
X013255Y008568D01*
X012622Y008568D02*
X012495Y008568D01*
X012251Y008568D02*
X006298Y008568D01*
X006298Y008666D02*
X012149Y008666D01*
X012118Y008765D02*
X006298Y008765D01*
X006298Y008863D02*
X012126Y008863D01*
X012181Y008962D02*
X006298Y008962D01*
X006298Y008469D02*
X006484Y008469D01*
X006494Y008479D02*
X006466Y008451D01*
X006451Y008414D01*
X006451Y008226D01*
X006699Y008226D01*
X006699Y008130D01*
X006451Y008130D01*
X006451Y007942D01*
X006466Y007905D01*
X006494Y007877D01*
X006531Y007861D01*
X006699Y007861D01*
X006699Y008130D01*
X006796Y008130D01*
X006796Y008226D01*
X007045Y008226D01*
X007045Y008414D01*
X007029Y008451D01*
X007001Y008479D01*
X006965Y008494D01*
X006796Y008494D01*
X006796Y008226D01*
X006699Y008226D01*
X006699Y008494D01*
X006531Y008494D01*
X006494Y008479D01*
X006451Y008371D02*
X006298Y008371D01*
X006298Y008272D02*
X006451Y008272D01*
X006298Y008174D02*
X006699Y008174D01*
X006796Y008174D02*
X007949Y008174D01*
X007949Y008226D02*
X007701Y008226D01*
X007701Y008414D01*
X007716Y008451D01*
X007744Y008479D01*
X007781Y008494D01*
X007949Y008494D01*
X007949Y008226D01*
X007949Y008272D02*
X008046Y008272D01*
X008046Y008174D02*
X009249Y008174D01*
X009249Y008075D02*
X009346Y008075D01*
X009346Y007977D02*
X009249Y007977D01*
X009249Y007878D02*
X009346Y007878D01*
X009595Y008272D02*
X016282Y008272D01*
X016183Y008371D02*
X009595Y008371D01*
X009561Y008469D02*
X016085Y008469D01*
X016373Y008393D02*
X014973Y009793D01*
X016213Y008765D02*
X020479Y008765D01*
X020380Y008666D02*
X016312Y008666D01*
X016410Y008568D02*
X020282Y008568D01*
X020673Y008393D02*
X016373Y008393D01*
X020867Y008765D02*
X021479Y008765D01*
X021507Y008793D02*
X021273Y008559D01*
X021273Y008228D01*
X021507Y007993D01*
X021839Y007993D01*
X022073Y008228D01*
X022073Y008559D01*
X021839Y008793D01*
X021507Y008793D01*
X021380Y008666D02*
X020966Y008666D01*
X021064Y008568D02*
X021282Y008568D01*
X021273Y008469D02*
X021073Y008469D01*
X021073Y008371D02*
X021273Y008371D01*
X021273Y008272D02*
X021073Y008272D01*
X021019Y008174D02*
X021327Y008174D01*
X021425Y008075D02*
X020921Y008075D01*
X020852Y007780D02*
X021494Y007780D01*
X021395Y007681D02*
X020951Y007681D01*
X021049Y007583D02*
X021297Y007583D01*
X021273Y007484D02*
X021073Y007484D01*
X021073Y007386D02*
X021273Y007386D01*
X021273Y007287D02*
X021073Y007287D01*
X021034Y007189D02*
X021312Y007189D01*
X021410Y007090D02*
X020936Y007090D01*
X021936Y007090D02*
X022410Y007090D01*
X022312Y007189D02*
X022034Y007189D01*
X022073Y007287D02*
X022273Y007287D01*
X022273Y007386D02*
X022073Y007386D01*
X022073Y007484D02*
X022273Y007484D01*
X022297Y007583D02*
X022049Y007583D01*
X021951Y007681D02*
X022395Y007681D01*
X022494Y007780D02*
X021852Y007780D01*
X021921Y008075D02*
X022425Y008075D01*
X022507Y007993D02*
X022839Y007993D01*
X023073Y008228D01*
X023073Y008559D01*
X022839Y008793D01*
X022507Y008793D01*
X022273Y008559D01*
X022273Y008228D01*
X022507Y007993D01*
X022327Y008174D02*
X022019Y008174D01*
X022073Y008272D02*
X022273Y008272D01*
X022273Y008371D02*
X022073Y008371D01*
X022073Y008469D02*
X022273Y008469D01*
X022282Y008568D02*
X022064Y008568D01*
X021966Y008666D02*
X022380Y008666D01*
X022479Y008765D02*
X021867Y008765D01*
X022867Y008765D02*
X023479Y008765D01*
X023507Y008793D02*
X023273Y008559D01*
X023273Y008228D01*
X023507Y007993D01*
X023839Y007993D01*
X024073Y008228D01*
X024073Y008559D01*
X023839Y008793D01*
X023507Y008793D01*
X023380Y008666D02*
X022966Y008666D01*
X023064Y008568D02*
X023282Y008568D01*
X023273Y008469D02*
X023073Y008469D01*
X023073Y008371D02*
X023273Y008371D01*
X023273Y008272D02*
X023073Y008272D01*
X023019Y008174D02*
X023327Y008174D01*
X023425Y008075D02*
X022921Y008075D01*
X022852Y007780D02*
X023494Y007780D01*
X023395Y007681D02*
X022951Y007681D01*
X023049Y007583D02*
X023297Y007583D01*
X023273Y007484D02*
X023073Y007484D01*
X023073Y007386D02*
X023273Y007386D01*
X023273Y007287D02*
X023073Y007287D01*
X023034Y007189D02*
X023312Y007189D01*
X023410Y007090D02*
X022936Y007090D01*
X023936Y007090D02*
X024410Y007090D01*
X024312Y007189D02*
X024034Y007189D01*
X024073Y007287D02*
X024273Y007287D01*
X024273Y007386D02*
X024073Y007386D01*
X024073Y007484D02*
X024273Y007484D01*
X024297Y007583D02*
X024049Y007583D01*
X023951Y007681D02*
X024395Y007681D01*
X024494Y007780D02*
X023852Y007780D01*
X023921Y008075D02*
X024425Y008075D01*
X024327Y008174D02*
X024019Y008174D01*
X024073Y008272D02*
X024273Y008272D01*
X024273Y008371D02*
X024073Y008371D01*
X024073Y008469D02*
X024273Y008469D01*
X024282Y008568D02*
X024064Y008568D01*
X023966Y008666D02*
X024380Y008666D01*
X024479Y008765D02*
X023867Y008765D01*
X026073Y008993D02*
X026073Y010493D01*
X026173Y010593D01*
X024973Y010593D02*
X024273Y010593D01*
X021726Y011030D02*
X017241Y011030D01*
X014873Y012293D02*
X014873Y012393D01*
X008046Y008469D02*
X007949Y008469D01*
X007949Y008371D02*
X008046Y008371D01*
X008046Y008075D02*
X007949Y008075D01*
X007949Y007977D02*
X008046Y007977D01*
X008046Y007878D02*
X007949Y007878D01*
X007743Y007878D02*
X007003Y007878D01*
X007001Y007877D02*
X007029Y007905D01*
X007045Y007942D01*
X007045Y008130D01*
X006796Y008130D01*
X006796Y007861D01*
X006965Y007861D01*
X007001Y007877D01*
X006986Y007825D02*
X006510Y007825D01*
X006451Y007767D01*
X006451Y007251D01*
X006510Y007192D01*
X006739Y007192D01*
X006757Y007149D01*
X006828Y007077D01*
X006922Y007038D01*
X007024Y007038D01*
X007117Y007077D01*
X007189Y007149D01*
X007228Y007243D01*
X007228Y007344D01*
X007189Y007438D01*
X007117Y007509D01*
X007045Y007540D01*
X007045Y007767D01*
X006986Y007825D01*
X007031Y007780D02*
X007714Y007780D01*
X007701Y007681D02*
X007045Y007681D01*
X007045Y007583D02*
X007701Y007583D01*
X007701Y007484D02*
X007142Y007484D01*
X007211Y007386D02*
X007701Y007386D01*
X007701Y007287D02*
X007228Y007287D01*
X007206Y007189D02*
X008040Y007189D01*
X008115Y007090D02*
X007130Y007090D01*
X006973Y007293D02*
X006857Y007509D01*
X006748Y007509D01*
X006451Y007484D02*
X006298Y007484D01*
X006298Y007386D02*
X006451Y007386D01*
X006451Y007287D02*
X006298Y007287D01*
X006298Y007189D02*
X006740Y007189D01*
X006815Y007090D02*
X006298Y007090D01*
X006298Y007583D02*
X006451Y007583D01*
X006451Y007681D02*
X006298Y007681D01*
X006298Y007780D02*
X006464Y007780D01*
X006493Y007878D02*
X006298Y007878D01*
X006298Y007977D02*
X006451Y007977D01*
X006451Y008075D02*
X006298Y008075D01*
X006699Y008075D02*
X006796Y008075D01*
X006796Y007977D02*
X006699Y007977D01*
X006699Y007878D02*
X006796Y007878D01*
X007045Y007977D02*
X007701Y007977D01*
X007701Y008075D02*
X007045Y008075D01*
X007045Y008272D02*
X007701Y008272D01*
X007701Y008371D02*
X007045Y008371D01*
X007011Y008469D02*
X007734Y008469D01*
X006796Y008469D02*
X006699Y008469D01*
X006699Y008371D02*
X006796Y008371D01*
X006796Y008272D02*
X006699Y008272D01*
X007998Y007509D02*
X008057Y007509D01*
X008273Y007293D01*
X008506Y007189D02*
X009340Y007189D01*
X009415Y007090D02*
X008430Y007090D01*
X008528Y007287D02*
X009001Y007287D01*
X009001Y007386D02*
X008511Y007386D01*
X022773Y017593D02*
X023473Y017593D01*
X019097Y020782D02*
X018268Y020782D01*
X017917Y020782D02*
X015423Y020782D01*
X013223Y022949D02*
X013123Y022949D01*
X013123Y023047D02*
X013223Y023047D01*
X013223Y023146D02*
X013123Y023146D01*
X013123Y023244D02*
X013223Y023244D01*
X013223Y023540D02*
X013123Y023540D01*
X013123Y023638D02*
X013223Y023638D01*
X013223Y023737D02*
X013123Y023737D01*
X013431Y023737D02*
X014673Y023737D01*
X014646Y023638D02*
X013539Y023638D01*
X013456Y024296D02*
X013644Y024296D01*
X013681Y024312D01*
X013709Y024340D01*
X013724Y024377D01*
X013724Y024545D01*
X013456Y024545D01*
X013456Y024642D01*
X013359Y024642D01*
X013359Y024890D01*
X013171Y024890D01*
X013134Y024875D01*
X013106Y024847D01*
X013091Y024810D01*
X013091Y024642D01*
X013359Y024642D01*
X013359Y024545D01*
X013091Y024545D01*
X013091Y024377D01*
X013106Y024340D01*
X013134Y024312D01*
X013171Y024296D01*
X013359Y024296D01*
X013359Y024545D01*
X013456Y024545D01*
X013456Y024296D01*
X013456Y024328D02*
X013359Y024328D01*
X013359Y024426D02*
X013456Y024426D01*
X013456Y024525D02*
X013359Y024525D01*
X013359Y024623D02*
X013055Y024623D01*
X013055Y024525D02*
X013091Y024525D01*
X013091Y024426D02*
X013055Y024426D01*
X013028Y024328D02*
X013118Y024328D01*
X013091Y024722D02*
X013055Y024722D01*
X013055Y024820D02*
X013095Y024820D01*
X012959Y024919D02*
X013958Y024919D01*
X013976Y024962D02*
X013923Y024833D01*
X013923Y024694D01*
X013976Y024565D01*
X014075Y024467D01*
X014203Y024413D01*
X014342Y024413D01*
X014471Y024467D01*
X014570Y024565D01*
X014623Y024694D01*
X014623Y024833D01*
X014570Y024962D01*
X014471Y025060D01*
X014342Y025113D01*
X014203Y025113D01*
X014075Y025060D01*
X013976Y024962D01*
X014032Y025017D02*
X013017Y025017D01*
X013028Y025116D02*
X020385Y025116D01*
X020483Y025017D02*
X019884Y025017D01*
X019957Y024919D02*
X026935Y024919D01*
X027034Y024820D02*
X019993Y024820D01*
X019993Y024722D02*
X020436Y024722D01*
X020337Y024623D02*
X019964Y024623D01*
X019899Y024525D02*
X020273Y024525D01*
X020273Y024426D02*
X019952Y024426D01*
X020050Y024328D02*
X020273Y024328D01*
X020273Y024229D02*
X020149Y024229D01*
X020247Y024131D02*
X020370Y024131D01*
X020273Y023893D02*
X019873Y024293D01*
X019073Y024293D01*
X018673Y023893D01*
X018827Y023835D02*
X018869Y023835D01*
X018823Y023737D02*
X018823Y023737D01*
X018926Y023934D02*
X018952Y023934D01*
X019024Y024032D02*
X019118Y024032D01*
X019123Y024131D02*
X019823Y024131D01*
X019922Y024032D02*
X019428Y024032D01*
X019323Y024032D02*
X019223Y024032D01*
X019223Y023934D02*
X019323Y023934D01*
X019323Y023835D02*
X019223Y023835D01*
X019223Y023737D02*
X019323Y023737D01*
X019323Y023638D02*
X019223Y023638D01*
X019594Y023934D02*
X020020Y023934D01*
X020119Y023835D02*
X019677Y023835D01*
X019722Y023737D02*
X024004Y023737D01*
X023906Y023638D02*
X019745Y023638D01*
X020273Y023893D02*
X021073Y023893D01*
X021573Y024393D01*
X021673Y024393D01*
X021976Y024131D02*
X022370Y024131D01*
X022273Y024228D02*
X022507Y023993D01*
X022839Y023993D01*
X023073Y024228D01*
X023073Y024559D01*
X022839Y024793D01*
X022507Y024793D01*
X022273Y024559D01*
X022273Y024228D01*
X022273Y024229D02*
X022073Y024229D01*
X022073Y024328D02*
X022273Y024328D01*
X022273Y024426D02*
X022073Y024426D01*
X022073Y024525D02*
X022273Y024525D01*
X022337Y024623D02*
X022008Y024623D01*
X021910Y024722D02*
X022436Y024722D01*
X022483Y025017D02*
X021863Y025017D01*
X021961Y025116D02*
X022385Y025116D01*
X022286Y025214D02*
X022060Y025214D01*
X022073Y025313D02*
X022273Y025313D01*
X022273Y025411D02*
X022073Y025411D01*
X022073Y025510D02*
X022273Y025510D01*
X022322Y025608D02*
X022023Y025608D01*
X021925Y025707D02*
X022421Y025707D01*
X022925Y025707D02*
X023421Y025707D01*
X023322Y025608D02*
X023023Y025608D01*
X023073Y025510D02*
X023273Y025510D01*
X023273Y025411D02*
X023073Y025411D01*
X023073Y025313D02*
X023273Y025313D01*
X023286Y025214D02*
X023060Y025214D01*
X022961Y025116D02*
X023385Y025116D01*
X023483Y025017D02*
X022863Y025017D01*
X022910Y024722D02*
X023436Y024722D01*
X023507Y024793D02*
X023273Y024559D01*
X023273Y024228D01*
X023507Y023993D01*
X023839Y023993D01*
X024073Y024228D01*
X024073Y024559D01*
X023839Y024793D01*
X023507Y024793D01*
X023337Y024623D02*
X023008Y024623D01*
X023073Y024525D02*
X023273Y024525D01*
X023273Y024426D02*
X023073Y024426D01*
X023073Y024328D02*
X023273Y024328D01*
X023273Y024229D02*
X023073Y024229D01*
X022976Y024131D02*
X023370Y024131D01*
X023468Y024032D02*
X022878Y024032D01*
X022468Y024032D02*
X021878Y024032D01*
X021468Y024032D02*
X021424Y024032D01*
X021326Y023934D02*
X024118Y023934D01*
X024103Y023835D02*
X021227Y023835D01*
X021098Y024131D02*
X020976Y024131D01*
X021073Y024229D02*
X021197Y024229D01*
X021273Y024328D02*
X021073Y024328D01*
X021073Y024426D02*
X021273Y024426D01*
X021273Y024525D02*
X021073Y024525D01*
X021008Y024623D02*
X021337Y024623D01*
X021436Y024722D02*
X020910Y024722D01*
X020863Y025017D02*
X021483Y025017D01*
X021385Y025116D02*
X020961Y025116D01*
X021060Y025214D02*
X021286Y025214D01*
X021273Y025313D02*
X021073Y025313D01*
X021073Y025411D02*
X021273Y025411D01*
X021273Y025510D02*
X021073Y025510D01*
X021023Y025608D02*
X021322Y025608D01*
X021421Y025707D02*
X020925Y025707D01*
X020421Y025707D02*
X012523Y025707D01*
X012523Y025608D02*
X020322Y025608D01*
X020273Y025510D02*
X012523Y025510D01*
X012523Y025411D02*
X020273Y025411D01*
X020273Y025313D02*
X012909Y025313D01*
X012999Y025214D02*
X020286Y025214D01*
X019402Y025017D02*
X014514Y025017D01*
X014587Y024919D02*
X019328Y024919D01*
X019293Y024820D02*
X014623Y024820D01*
X014623Y024722D02*
X019293Y024722D01*
X019322Y024623D02*
X014594Y024623D01*
X014529Y024525D02*
X019386Y024525D01*
X018994Y024426D02*
X014374Y024426D01*
X014172Y024426D02*
X013724Y024426D01*
X013724Y024525D02*
X014016Y024525D01*
X013952Y024623D02*
X013456Y024623D01*
X013456Y024642D02*
X013724Y024642D01*
X013724Y024810D01*
X013709Y024847D01*
X013681Y024875D01*
X013644Y024890D01*
X013456Y024890D01*
X013456Y024642D01*
X013456Y024722D02*
X013359Y024722D01*
X013359Y024820D02*
X013456Y024820D01*
X013720Y024820D02*
X013923Y024820D01*
X013923Y024722D02*
X013724Y024722D01*
X013697Y024328D02*
X018895Y024328D01*
X018797Y024229D02*
X012523Y024229D01*
X012738Y024593D02*
X012738Y025059D01*
X012773Y025093D01*
X012547Y025214D02*
X012523Y025214D01*
X012523Y025313D02*
X012637Y025313D01*
X012523Y022850D02*
X017931Y022850D01*
X019873Y021693D02*
X019973Y021793D01*
X020373Y022293D02*
X020373Y022693D01*
X023878Y024032D02*
X024154Y024032D01*
X024280Y024131D02*
X023976Y024131D01*
X024073Y024229D02*
X024273Y024229D01*
X024273Y024328D02*
X024073Y024328D01*
X024073Y024426D02*
X024273Y024426D01*
X024273Y024525D02*
X024073Y024525D01*
X024008Y024623D02*
X024337Y024623D01*
X024436Y024722D02*
X023910Y024722D01*
X023863Y025017D02*
X024483Y025017D01*
X024385Y025116D02*
X023961Y025116D01*
X024060Y025214D02*
X024286Y025214D01*
X024273Y025313D02*
X024073Y025313D01*
X024073Y025411D02*
X024273Y025411D01*
X024273Y025510D02*
X024073Y025510D01*
X024023Y025608D02*
X024322Y025608D01*
X024421Y025707D02*
X023925Y025707D01*
X025863Y025017D02*
X026483Y025017D01*
X026436Y024722D02*
X025910Y024722D01*
X026008Y024623D02*
X026337Y024623D01*
X026273Y024525D02*
X026073Y024525D01*
X026073Y024426D02*
X026273Y024426D01*
X026273Y024328D02*
X026073Y024328D01*
X026073Y024229D02*
X026273Y024229D01*
X026198Y024131D02*
X025976Y024131D01*
X026430Y023638D02*
X029316Y023638D01*
X029217Y023737D02*
X026529Y023737D01*
X027327Y023835D02*
X029119Y023835D01*
X029023Y023934D02*
X027426Y023934D01*
X027878Y024032D02*
X028468Y024032D01*
X028370Y024131D02*
X027976Y024131D01*
X028073Y024229D02*
X028273Y024229D01*
X028273Y024328D02*
X028073Y024328D01*
X028073Y024426D02*
X028623Y024426D01*
X028623Y024328D02*
X028723Y024328D01*
X028723Y024229D02*
X028623Y024229D01*
X028623Y024131D02*
X028723Y024131D01*
X028723Y024032D02*
X028623Y024032D01*
X028878Y024032D02*
X029023Y024032D01*
X029023Y024131D02*
X028976Y024131D01*
X028273Y024525D02*
X028073Y024525D01*
X028008Y024623D02*
X028337Y024623D01*
X028073Y024993D02*
X029873Y024993D01*
X030273Y024593D01*
X029766Y023540D02*
X025332Y023540D01*
X027673Y025393D02*
X028073Y024993D01*
X039504Y018615D02*
X039641Y018615D01*
X039773Y018393D02*
X039273Y017893D01*
X039273Y017393D01*
X039673Y016993D01*
X039736Y016743D02*
X039823Y016743D01*
X039764Y016645D02*
X039628Y016645D01*
X039586Y016546D02*
X039719Y016546D01*
X039718Y016448D02*
X039447Y016448D01*
X039299Y016448D02*
X038923Y016448D01*
X038923Y016546D02*
X039159Y016546D01*
X039118Y016645D02*
X038923Y016645D01*
X038923Y016743D02*
X039118Y016743D01*
X039161Y016842D02*
X038923Y016842D01*
X038923Y016940D02*
X039214Y016940D01*
X039115Y017039D02*
X038839Y017039D01*
X038741Y017137D02*
X039017Y017137D01*
X038923Y017236D02*
X038642Y017236D01*
X038623Y017334D02*
X038923Y017334D01*
X038923Y017433D02*
X038623Y017433D01*
X038623Y017531D02*
X038923Y017531D01*
X038923Y017630D02*
X038623Y017630D01*
X038623Y017728D02*
X038923Y017728D01*
X038923Y017827D02*
X038623Y017827D01*
X038623Y017925D02*
X038923Y017925D01*
X038923Y018024D02*
X038623Y018024D01*
X038714Y018122D02*
X038990Y018122D01*
X039088Y018221D02*
X038812Y018221D01*
X038911Y018319D02*
X039127Y018319D01*
X039118Y018418D02*
X039009Y018418D01*
X039373Y018393D02*
X039373Y018293D01*
X039073Y017993D01*
X039073Y017293D01*
X039373Y016993D01*
X039373Y016693D01*
X039756Y016349D02*
X038923Y016349D01*
X038923Y016251D02*
X039892Y016251D01*
X040018Y016152D02*
X038923Y016152D01*
X038923Y016054D02*
X040055Y016054D01*
X040181Y015955D02*
X038923Y015955D01*
X038923Y015857D02*
X043312Y015857D01*
X043272Y015758D02*
X038923Y015758D01*
X038923Y015660D02*
X043253Y015660D01*
X043253Y015561D02*
X038923Y015561D01*
X038923Y015463D02*
X043290Y015463D01*
X043356Y015364D02*
X039014Y015364D01*
X039112Y015266D02*
X043495Y015266D01*
X043409Y015955D02*
X040365Y015955D01*
X040273Y016193D02*
X040273Y017693D01*
X040373Y017793D01*
X040423Y017630D02*
X042723Y017630D01*
X042723Y017728D02*
X042320Y017728D01*
X042418Y017827D02*
X042723Y017827D01*
X042723Y017925D02*
X042517Y017925D01*
X042615Y018024D02*
X042723Y018024D01*
X042723Y018122D02*
X042623Y018122D01*
X042623Y018221D02*
X042723Y018221D01*
X042723Y018319D02*
X042623Y018319D01*
X042623Y018418D02*
X042723Y018418D01*
X042723Y018516D02*
X042623Y018516D01*
X042623Y018615D02*
X042723Y018615D01*
X042723Y018713D02*
X042623Y018713D01*
X042623Y018812D02*
X042723Y018812D01*
X042723Y018910D02*
X042623Y018910D01*
X042623Y019009D02*
X042723Y019009D01*
X042723Y019107D02*
X042623Y019107D01*
X042623Y019206D02*
X042723Y019206D01*
X042723Y019304D02*
X042623Y019304D01*
X042623Y019403D02*
X042723Y019403D01*
X042723Y019501D02*
X042623Y019501D01*
X042623Y019600D02*
X042723Y019600D01*
X042723Y019698D02*
X042623Y019698D01*
X042623Y019797D02*
X042723Y019797D01*
X042723Y019895D02*
X042623Y019895D01*
X042623Y019994D02*
X042660Y019994D01*
X042711Y019943D02*
X042711Y019943D01*
X042873Y019993D02*
X042873Y017393D01*
X042773Y017293D01*
X042681Y017531D02*
X040423Y017531D01*
X040423Y017433D02*
X041585Y017433D01*
X041455Y017334D02*
X040423Y017334D01*
X040423Y017236D02*
X041418Y017236D01*
X041405Y017137D02*
X040423Y017137D01*
X040423Y017039D02*
X040706Y017039D01*
X040503Y016940D02*
X040423Y016940D01*
X040786Y016546D02*
X043354Y016546D01*
X043411Y017137D02*
X043289Y017137D01*
X042173Y018393D02*
X042273Y018493D01*
X042273Y022493D01*
X042973Y023193D01*
X042812Y023244D02*
X042523Y023244D01*
X042523Y023146D02*
X042713Y023146D01*
X042615Y023047D02*
X042523Y023047D01*
X042373Y022893D02*
X042373Y023593D01*
X042373Y023959D01*
X042670Y023934D02*
X042676Y023934D01*
X042670Y024032D02*
X042676Y024032D01*
X042670Y024131D02*
X042676Y024131D01*
X042689Y024229D02*
X042657Y024229D01*
X042628Y024328D02*
X042718Y024328D01*
X042676Y024426D02*
X042670Y024426D01*
X042670Y024525D02*
X042676Y024525D01*
X042670Y024722D02*
X042676Y024722D01*
X042670Y024820D02*
X042676Y024820D01*
X042709Y024919D02*
X042637Y024919D01*
X042421Y024919D02*
X042324Y024919D01*
X042324Y024820D02*
X042421Y024820D01*
X042421Y024722D02*
X042324Y024722D01*
X042324Y024426D02*
X042421Y024426D01*
X042421Y024328D02*
X042324Y024328D01*
X041821Y024328D02*
X041724Y024328D01*
X041724Y024426D02*
X041821Y024426D01*
X042070Y023835D02*
X042076Y023835D01*
X042070Y023737D02*
X042076Y023737D01*
X042118Y023638D02*
X042028Y023638D01*
X042027Y023540D02*
X042119Y023540D01*
X042164Y023441D02*
X042023Y023441D01*
X042023Y023343D02*
X042223Y023343D01*
X042223Y023244D02*
X042023Y023244D01*
X042023Y023146D02*
X042223Y023146D01*
X042223Y023047D02*
X042023Y023047D01*
X042023Y022949D02*
X042216Y022949D01*
X042118Y022850D02*
X042023Y022850D01*
X042073Y022593D02*
X042373Y022893D01*
X042073Y022593D02*
X042073Y018893D01*
X041873Y018693D01*
X042623Y020092D02*
X042623Y020092D01*
X042623Y020191D02*
X042623Y020191D01*
X042623Y020289D02*
X042623Y020289D01*
X045223Y021570D02*
X046923Y021570D01*
X046923Y021668D02*
X045223Y021668D01*
X045223Y021767D02*
X046923Y021767D01*
X046923Y021865D02*
X045223Y021865D01*
X045223Y021964D02*
X046240Y021964D01*
X046203Y021979D02*
X046276Y021949D01*
X046343Y021935D01*
X046343Y022283D01*
X046443Y022283D01*
X046443Y021935D01*
X046510Y021949D01*
X046582Y021979D01*
X046648Y022023D01*
X046704Y022078D01*
X046747Y022144D01*
X046777Y022217D01*
X046791Y022283D01*
X046443Y022283D01*
X046443Y022383D01*
X046791Y022383D01*
X046777Y022450D01*
X046747Y022523D01*
X046704Y022588D01*
X046648Y022644D01*
X046582Y022688D01*
X046510Y022718D01*
X046443Y022731D01*
X046443Y022383D01*
X046343Y022383D01*
X046343Y022283D01*
X045995Y022283D01*
X046008Y022217D01*
X046038Y022144D01*
X046082Y022078D01*
X046138Y022023D01*
X046203Y021979D01*
X046098Y022062D02*
X045223Y022062D01*
X045223Y022161D02*
X046031Y022161D01*
X046000Y022259D02*
X045223Y022259D01*
X045223Y022358D02*
X046343Y022358D01*
X046343Y022383D02*
X045995Y022383D01*
X046008Y022450D01*
X046038Y022523D01*
X046082Y022588D01*
X046138Y022644D01*
X046203Y022688D01*
X046276Y022718D01*
X046343Y022731D01*
X046343Y022383D01*
X046343Y022456D02*
X046443Y022456D01*
X046443Y022358D02*
X046923Y022358D01*
X046923Y022456D02*
X046775Y022456D01*
X046726Y022555D02*
X046923Y022555D01*
X046923Y022653D02*
X046634Y022653D01*
X046443Y022653D02*
X046343Y022653D01*
X046343Y022555D02*
X046443Y022555D01*
X046443Y022259D02*
X046343Y022259D01*
X046343Y022161D02*
X046443Y022161D01*
X046443Y022062D02*
X046343Y022062D01*
X046343Y021964D02*
X046443Y021964D01*
X046546Y021964D02*
X046923Y021964D01*
X046923Y022062D02*
X046688Y022062D01*
X046754Y022161D02*
X046923Y022161D01*
X046923Y022259D02*
X046786Y022259D01*
X047223Y022358D02*
X051523Y022358D01*
X051523Y022456D02*
X047223Y022456D01*
X047223Y022555D02*
X051523Y022555D01*
X051523Y022653D02*
X047223Y022653D01*
X047223Y022752D02*
X051523Y022752D01*
X051523Y022850D02*
X047223Y022850D01*
X046923Y022850D02*
X045223Y022850D01*
X045223Y022752D02*
X046923Y022752D01*
X046923Y022949D02*
X045223Y022949D01*
X045223Y023047D02*
X046923Y023047D01*
X046918Y023146D02*
X045223Y023146D01*
X045223Y023244D02*
X045397Y023244D01*
X045315Y023343D02*
X045223Y023343D01*
X045223Y023441D02*
X045274Y023441D01*
X045273Y023540D02*
X045223Y023540D01*
X045223Y023638D02*
X045296Y023638D01*
X045351Y023737D02*
X045223Y023737D01*
X045223Y023835D02*
X045486Y023835D01*
X045931Y023343D02*
X046962Y023343D01*
X046918Y023244D02*
X045849Y023244D01*
X046152Y022653D02*
X045223Y022653D01*
X045223Y022555D02*
X046060Y022555D01*
X046011Y022456D02*
X045223Y022456D01*
X043309Y023441D02*
X043181Y023441D01*
X043210Y023343D02*
X043123Y023343D01*
X043227Y023540D02*
X043319Y023540D01*
X043318Y023638D02*
X043228Y023638D01*
X043270Y023737D02*
X043276Y023737D01*
X043270Y023835D02*
X043276Y023835D01*
X042718Y023638D02*
X042628Y023638D01*
X042627Y023540D02*
X042719Y023540D01*
X042764Y023441D02*
X042581Y023441D01*
X042523Y023343D02*
X042823Y023343D01*
X042676Y023737D02*
X042670Y023737D01*
X042670Y023835D02*
X042676Y023835D01*
X042924Y024328D02*
X043021Y024328D01*
X043021Y024426D02*
X042924Y024426D01*
X042924Y024525D02*
X043021Y024525D01*
X043021Y024623D02*
X043524Y024623D01*
X043524Y024525D02*
X043621Y024525D01*
X043621Y024426D02*
X043524Y024426D01*
X043524Y024328D02*
X043621Y024328D01*
X043828Y024328D02*
X044126Y024328D01*
X044225Y024229D02*
X043857Y024229D01*
X043870Y024131D02*
X044323Y024131D01*
X044422Y024032D02*
X043870Y024032D01*
X043870Y024426D02*
X043879Y024426D01*
X043621Y024722D02*
X043524Y024722D01*
X043524Y024820D02*
X043621Y024820D01*
X043621Y024919D02*
X043524Y024919D01*
X046878Y024032D02*
X047468Y024032D01*
X047370Y024131D02*
X046976Y024131D01*
X047073Y024229D02*
X047273Y024229D01*
X047273Y024328D02*
X047073Y024328D01*
X047073Y024426D02*
X047273Y024426D01*
X047273Y024525D02*
X047073Y024525D01*
X047008Y024623D02*
X047337Y024623D01*
X048008Y024623D02*
X048337Y024623D01*
X048273Y024525D02*
X048073Y024525D01*
X048073Y024426D02*
X048273Y024426D01*
X048273Y024328D02*
X048073Y024328D01*
X048073Y024229D02*
X048273Y024229D01*
X048370Y024131D02*
X047976Y024131D01*
X047878Y024032D02*
X048468Y024032D01*
X046923Y018319D02*
X045899Y018319D01*
X046010Y018221D02*
X046923Y018221D01*
X046923Y018122D02*
X046057Y018122D01*
X046073Y018024D02*
X046923Y018024D01*
X046923Y017925D02*
X046065Y017925D01*
X046024Y017827D02*
X046923Y017827D01*
X046923Y017728D02*
X045933Y017728D01*
X041373Y015393D02*
X041273Y015493D01*
X040473Y015518D02*
X040423Y015318D01*
X040473Y015518D02*
X040473Y015593D01*
X039911Y015167D02*
X046923Y015167D01*
X046923Y015069D02*
X040009Y015069D01*
X039782Y014872D02*
X039716Y014872D01*
X040309Y013788D02*
X046817Y013788D01*
X047128Y013788D02*
X053372Y013788D01*
X054150Y013690D02*
X055048Y013690D01*
X055048Y013788D02*
X054248Y013788D01*
X054347Y013887D02*
X055048Y013887D01*
X055048Y013985D02*
X054445Y013985D01*
X054544Y014084D02*
X055048Y014084D01*
X055048Y014182D02*
X054642Y014182D01*
X054723Y014281D02*
X055048Y014281D01*
X055048Y014379D02*
X054723Y014379D01*
X054723Y014478D02*
X055048Y014478D01*
X055048Y014576D02*
X054723Y014576D01*
X054723Y014675D02*
X055048Y014675D01*
X055048Y014773D02*
X054723Y014773D01*
X054723Y014872D02*
X055048Y014872D01*
X055048Y014970D02*
X054723Y014970D01*
X051073Y013893D02*
X051073Y013393D01*
X053238Y012093D02*
X053238Y011428D01*
X053273Y011393D01*
X053859Y012311D02*
X053956Y012311D01*
X055048Y011030D02*
X045189Y011030D01*
X045117Y010932D02*
X055048Y010932D01*
X055048Y010833D02*
X045018Y010833D01*
X044899Y010735D02*
X055048Y010735D01*
X051373Y011393D02*
X051373Y011493D01*
X044147Y013493D02*
X040233Y013493D01*
X041873Y013193D02*
X041973Y013193D01*
X039473Y016093D02*
X039073Y016093D01*
X038773Y017293D02*
X038773Y017393D01*
X032873Y018293D02*
X032473Y018293D01*
X029273Y007287D02*
X029073Y007287D01*
X029034Y007189D02*
X029312Y007189D01*
X029410Y007090D02*
X028936Y007090D01*
D21*
X033873Y008093D03*
X035973Y008093D03*
X039673Y008593D03*
X038073Y011993D03*
X038473Y013293D03*
X040073Y013693D03*
X039473Y014793D03*
X040423Y015318D03*
X041373Y015393D03*
X040273Y016193D03*
X039973Y016493D03*
X040573Y016693D03*
X039673Y016993D03*
X039373Y016693D03*
X039073Y016093D03*
X038773Y017393D03*
X040073Y018093D03*
X039773Y018393D03*
X039373Y018393D03*
X039073Y018693D03*
X041573Y018993D03*
X041873Y018693D03*
X042173Y018393D03*
X042773Y017293D03*
X043073Y016993D03*
X041673Y017193D03*
X044773Y016093D03*
X045173Y015693D03*
X046973Y013993D03*
X051073Y013893D03*
X051373Y011393D03*
X053273Y011393D03*
X041973Y013193D03*
X032873Y018293D03*
X040973Y020593D03*
X041473Y020293D03*
X042773Y020593D03*
X043073Y020293D03*
X044273Y021893D03*
X043173Y022593D03*
X042973Y023593D03*
X043573Y023593D03*
X042373Y023593D03*
X041773Y023593D03*
X041273Y023993D03*
X040973Y023693D03*
X044073Y024593D03*
X044373Y024893D03*
X047173Y023193D03*
X051473Y022093D03*
X051473Y021093D03*
X053373Y021493D03*
X054373Y021393D03*
X051173Y019593D03*
X053873Y023793D03*
X030273Y024593D03*
X029973Y023693D03*
X024373Y023493D03*
X024373Y023893D03*
X022973Y023193D03*
X021773Y022093D03*
X021773Y021693D03*
X021773Y021293D03*
X022973Y020393D03*
X023473Y020093D03*
X023373Y019593D03*
X024073Y019193D03*
X023273Y020893D03*
X024473Y022093D03*
X020373Y022693D03*
X019873Y021693D03*
X014273Y020993D03*
X012773Y025093D03*
X022773Y017593D03*
X023573Y015293D03*
X023573Y014893D03*
X023873Y012193D03*
X022073Y011893D03*
X024273Y010593D03*
X026173Y010593D03*
X019573Y011793D03*
X019173Y011793D03*
X014873Y012293D03*
X014973Y009793D03*
X012373Y008793D03*
X009573Y007293D03*
X008273Y007293D03*
X006973Y007293D03*
X016973Y015293D03*
D22*
X015073Y017793D02*
X015073Y021193D01*
X022073Y018393D02*
X022273Y018593D01*
X022073Y018393D02*
X022073Y013793D01*
X022648Y013218D01*
X023048Y013218D01*
D23*
X022273Y018593D03*
D24*
X015073Y017793D03*
M02*
