G75*
%MOIN*%
%OFA0B0*%
%FSLAX24Y24*%
%IPPOS*%
%LPD*%
%AMOC8*
5,1,8,0,0,1.08239X$1,22.5*
%
%ADD10OC8,0.0600*%
%ADD11C,0.0118*%
%ADD12R,0.0394X0.0433*%
%ADD13C,0.0740*%
%ADD14R,0.0433X0.0394*%
%ADD15C,0.0650*%
%ADD16R,0.0650X0.0650*%
%ADD17R,0.0866X0.0236*%
%ADD18C,0.2000*%
%ADD19R,0.0669X0.0335*%
%ADD20R,0.0236X0.0866*%
%ADD21C,0.0600*%
%ADD22R,0.0280X0.0700*%
%ADD23C,0.0750*%
%ADD24R,0.0120X0.0350*%
%ADD25R,0.0350X0.0120*%
%ADD26C,0.0120*%
%ADD27C,0.0100*%
%ADD28C,0.0310*%
%ADD29C,0.0160*%
%ADD30C,0.0500*%
%ADD31C,0.0500*%
%ADD32C,0.0396*%
D10*
X020673Y007393D03*
X021673Y007393D03*
X022673Y007393D03*
X023673Y007393D03*
X024673Y007393D03*
X025673Y007393D03*
X026673Y007393D03*
X027673Y007393D03*
X028673Y007393D03*
X029673Y007393D03*
X029673Y008393D03*
X028673Y008393D03*
X027673Y008393D03*
X026673Y008393D03*
X025673Y008393D03*
X024673Y008393D03*
X023673Y008393D03*
X022673Y008393D03*
X021673Y008393D03*
X020673Y008393D03*
X045673Y008393D03*
X046673Y008393D03*
X047673Y008393D03*
X048673Y008393D03*
X049673Y008393D03*
X050673Y008393D03*
X051673Y008393D03*
X052673Y008393D03*
X053673Y008393D03*
X054673Y008393D03*
X054673Y007393D03*
X053673Y007393D03*
X052673Y007393D03*
X051673Y007393D03*
X050673Y007393D03*
X049673Y007393D03*
X048673Y007393D03*
X047673Y007393D03*
X046673Y007393D03*
X045673Y007393D03*
X045673Y024393D03*
X046673Y024393D03*
X047673Y024393D03*
X048673Y024393D03*
X049673Y024393D03*
X050673Y024393D03*
X051673Y024393D03*
X052673Y024393D03*
X053673Y024393D03*
X054673Y024393D03*
X054673Y025393D03*
X053673Y025393D03*
X052673Y025393D03*
X051673Y025393D03*
X050673Y025393D03*
X049673Y025393D03*
X048673Y025393D03*
X047673Y025393D03*
X046673Y025393D03*
X045673Y025393D03*
X029673Y025393D03*
X028673Y025393D03*
X027673Y025393D03*
X026673Y025393D03*
X025673Y025393D03*
X024673Y025393D03*
X023673Y025393D03*
X022673Y025393D03*
X021673Y025393D03*
X020673Y025393D03*
X020673Y024393D03*
X021673Y024393D03*
X022673Y024393D03*
X023673Y024393D03*
X024673Y024393D03*
X025673Y024393D03*
X026673Y024393D03*
X027673Y024393D03*
X028673Y024393D03*
X029673Y024393D03*
D11*
X029811Y023151D02*
X029535Y023151D01*
X029535Y023427D01*
X029811Y023427D01*
X029811Y023151D01*
X029811Y023268D02*
X029535Y023268D01*
X029535Y023385D02*
X029811Y023385D01*
X030135Y023151D02*
X030411Y023151D01*
X030135Y023151D02*
X030135Y023427D01*
X030411Y023427D01*
X030411Y023151D01*
X030411Y023268D02*
X030135Y023268D01*
X030135Y023385D02*
X030411Y023385D01*
X030411Y022460D02*
X030135Y022460D01*
X030135Y022736D01*
X030411Y022736D01*
X030411Y022460D01*
X030411Y022577D02*
X030135Y022577D01*
X030135Y022694D02*
X030411Y022694D01*
X029811Y022460D02*
X029535Y022460D01*
X029535Y022736D01*
X029811Y022736D01*
X029811Y022460D01*
X029811Y022577D02*
X029535Y022577D01*
X029535Y022694D02*
X029811Y022694D01*
X013556Y024455D02*
X013556Y024731D01*
X013556Y024455D02*
X013280Y024455D01*
X013280Y024731D01*
X013556Y024731D01*
X013556Y024572D02*
X013280Y024572D01*
X013280Y024689D02*
X013556Y024689D01*
X012866Y024731D02*
X012866Y024455D01*
X012590Y024455D01*
X012590Y024731D01*
X012866Y024731D01*
X012866Y024572D02*
X012590Y024572D01*
X012590Y024689D02*
X012866Y024689D01*
X013066Y008931D02*
X013066Y008655D01*
X012790Y008655D01*
X012790Y008931D01*
X013066Y008931D01*
X013066Y008772D02*
X012790Y008772D01*
X012790Y008889D02*
X013066Y008889D01*
X013756Y008931D02*
X013756Y008655D01*
X013480Y008655D01*
X013480Y008931D01*
X013756Y008931D01*
X013756Y008772D02*
X013480Y008772D01*
X013480Y008889D02*
X013756Y008889D01*
X009436Y008327D02*
X009160Y008327D01*
X009436Y008327D02*
X009436Y008051D01*
X009160Y008051D01*
X009160Y008327D01*
X009160Y008168D02*
X009436Y008168D01*
X009436Y008285D02*
X009160Y008285D01*
X008136Y008327D02*
X007860Y008327D01*
X008136Y008327D02*
X008136Y008051D01*
X007860Y008051D01*
X007860Y008327D01*
X007860Y008168D02*
X008136Y008168D01*
X008136Y008285D02*
X007860Y008285D01*
X006886Y008327D02*
X006610Y008327D01*
X006886Y008327D02*
X006886Y008051D01*
X006610Y008051D01*
X006610Y008327D01*
X006610Y008168D02*
X006886Y008168D01*
X006886Y008285D02*
X006610Y008285D01*
X006610Y007636D02*
X006886Y007636D01*
X006886Y007360D01*
X006610Y007360D01*
X006610Y007636D01*
X006610Y007477D02*
X006886Y007477D01*
X006886Y007594D02*
X006610Y007594D01*
X007860Y007636D02*
X008136Y007636D01*
X008136Y007360D01*
X007860Y007360D01*
X007860Y007636D01*
X007860Y007477D02*
X008136Y007477D01*
X008136Y007594D02*
X007860Y007594D01*
X009160Y007636D02*
X009436Y007636D01*
X009436Y007360D01*
X009160Y007360D01*
X009160Y007636D01*
X009160Y007477D02*
X009436Y007477D01*
X009436Y007594D02*
X009160Y007594D01*
X050916Y016355D02*
X050916Y016631D01*
X050916Y016355D02*
X050640Y016355D01*
X050640Y016631D01*
X050916Y016631D01*
X050916Y016472D02*
X050640Y016472D01*
X050640Y016589D02*
X050916Y016589D01*
X051606Y016631D02*
X051606Y016355D01*
X051330Y016355D01*
X051330Y016631D01*
X051606Y016631D01*
X051606Y016472D02*
X051330Y016472D01*
X051330Y016589D02*
X051606Y016589D01*
X053566Y020755D02*
X053566Y021031D01*
X053566Y020755D02*
X053290Y020755D01*
X053290Y021031D01*
X053566Y021031D01*
X053566Y020872D02*
X053290Y020872D01*
X053290Y020989D02*
X053566Y020989D01*
X054256Y021031D02*
X054256Y020755D01*
X053980Y020755D01*
X053980Y021031D01*
X054256Y021031D01*
X054256Y020872D02*
X053980Y020872D01*
X053980Y020989D02*
X054256Y020989D01*
X054056Y012231D02*
X054056Y011955D01*
X053780Y011955D01*
X053780Y012231D01*
X054056Y012231D01*
X054056Y012072D02*
X053780Y012072D01*
X053780Y012189D02*
X054056Y012189D01*
X053366Y012231D02*
X053366Y011955D01*
X053090Y011955D01*
X053090Y012231D01*
X053366Y012231D01*
X053366Y012072D02*
X053090Y012072D01*
X053090Y012189D02*
X053366Y012189D01*
D12*
X039473Y015459D03*
X039473Y016128D03*
X030273Y021309D03*
X029673Y021309D03*
X029673Y021978D03*
X030273Y021978D03*
X020373Y022253D03*
X020373Y021584D03*
X014923Y013478D03*
X014923Y012809D03*
X041773Y023959D03*
X042373Y023959D03*
X042973Y023959D03*
X043573Y023959D03*
X043573Y024628D03*
X042973Y024628D03*
X042373Y024628D03*
X041773Y024628D03*
D13*
X053673Y019643D03*
X053673Y018659D03*
X053673Y017675D03*
X053673Y015393D03*
X053673Y014409D03*
X053673Y013425D03*
X013173Y021375D03*
X013173Y022359D03*
X013173Y023343D03*
D14*
X021863Y023168D03*
X022532Y023168D03*
X022538Y020893D03*
X022238Y020393D03*
X022907Y020393D03*
X023207Y020893D03*
X022882Y019543D03*
X022213Y019543D03*
X037438Y012443D03*
X038107Y012443D03*
X041038Y014793D03*
X041707Y014793D03*
X050438Y013393D03*
X051107Y013393D03*
X050788Y016993D03*
X051457Y016993D03*
X051107Y020143D03*
X050438Y020143D03*
D15*
X023048Y014218D03*
D16*
X023048Y013218D03*
D17*
X022949Y012143D03*
X022949Y011643D03*
X022949Y011143D03*
X022949Y010643D03*
X024996Y010643D03*
X024996Y011143D03*
X024996Y011643D03*
X024996Y012143D03*
X020484Y011859D03*
X020484Y011359D03*
X020484Y010859D03*
X020484Y010359D03*
X018437Y010359D03*
X018437Y010859D03*
X018437Y011359D03*
X018437Y011859D03*
X018237Y017609D03*
X018237Y018109D03*
X018237Y018609D03*
X018237Y019109D03*
X020284Y019109D03*
X020284Y018609D03*
X020284Y018109D03*
X020284Y017609D03*
X021399Y017593D03*
X021399Y018093D03*
X021399Y018593D03*
X021399Y019093D03*
X023446Y019093D03*
X023446Y018593D03*
X023446Y018093D03*
X023446Y017593D03*
X037174Y014418D03*
X037174Y013918D03*
X037174Y013418D03*
X037174Y012918D03*
X039221Y012918D03*
X039221Y013418D03*
X039221Y013918D03*
X039221Y014418D03*
X039159Y011928D03*
X039159Y011428D03*
X039159Y010928D03*
X039159Y010428D03*
X037112Y010428D03*
X037112Y010928D03*
X037112Y011428D03*
X037112Y011928D03*
X050149Y011893D03*
X050149Y011393D03*
X050149Y012393D03*
X050149Y012893D03*
X050112Y013878D03*
X050112Y014378D03*
X050112Y014878D03*
X050112Y015378D03*
X052159Y015378D03*
X052159Y014878D03*
X052159Y014378D03*
X052159Y013878D03*
X052196Y012893D03*
X052196Y012393D03*
X052196Y011893D03*
X052196Y011393D03*
X052159Y018128D03*
X052159Y018628D03*
X052159Y019128D03*
X052159Y019628D03*
X052196Y020643D03*
X052196Y021143D03*
X052196Y021643D03*
X052196Y022143D03*
X050149Y022143D03*
X050149Y021643D03*
X050149Y021143D03*
X050149Y020643D03*
X050112Y019628D03*
X050112Y019128D03*
X050112Y018628D03*
X050112Y018128D03*
D18*
X047373Y011643D03*
X044273Y011643D03*
X016373Y010343D03*
X013273Y010343D03*
X013273Y013693D03*
X013273Y016793D03*
X016373Y016793D03*
D19*
X031102Y019043D03*
X032283Y018256D03*
X032283Y019831D03*
X031102Y020618D03*
X032283Y021405D03*
X031102Y022193D03*
X032283Y022980D03*
X031102Y023768D03*
X032283Y024555D03*
X031102Y025342D03*
X039763Y025342D03*
X040944Y024555D03*
X039763Y023768D03*
X040944Y022980D03*
X039763Y022193D03*
X040944Y021405D03*
X039763Y020618D03*
X040944Y019831D03*
X039763Y019043D03*
X040944Y018256D03*
D20*
X019157Y014704D03*
X018657Y014704D03*
X018157Y014704D03*
X017657Y014704D03*
X016923Y014667D03*
X016423Y014667D03*
X015923Y014667D03*
X015423Y014667D03*
X015423Y012620D03*
X015923Y012620D03*
X016423Y012620D03*
X016923Y012620D03*
X017657Y012657D03*
X018157Y012657D03*
X018657Y012657D03*
X019157Y012657D03*
D21*
X015043Y021223D03*
X015043Y022403D03*
X015043Y023583D03*
X043653Y022313D03*
X043653Y021133D03*
X043653Y019953D03*
X046393Y019973D03*
X046393Y021153D03*
X046393Y022333D03*
X046493Y016833D03*
X046493Y015653D03*
X046493Y014473D03*
X043653Y014453D03*
X043653Y015633D03*
X043653Y016813D03*
D22*
X041603Y013183D03*
X041103Y013183D03*
X040603Y013183D03*
X040103Y013183D03*
X040103Y011123D03*
X040603Y011123D03*
X041103Y011123D03*
X041603Y011123D03*
X021353Y012673D03*
X020853Y012673D03*
X020353Y012673D03*
X019853Y012673D03*
X019853Y014733D03*
X020353Y014733D03*
X020853Y014733D03*
X021353Y014733D03*
D23*
X019273Y021223D03*
X018093Y021223D03*
X018093Y022403D03*
X019273Y022403D03*
X019273Y023583D03*
X018093Y023583D03*
X030763Y007553D03*
X033323Y007553D03*
D24*
X039833Y015806D03*
X040030Y015806D03*
X040227Y015806D03*
X040424Y015806D03*
X040621Y015806D03*
X040818Y015806D03*
X041015Y015806D03*
X041212Y015806D03*
X041212Y017361D03*
X041015Y017361D03*
X040818Y017361D03*
X040621Y017361D03*
X040424Y017361D03*
X040227Y017361D03*
X040030Y017361D03*
X039833Y017361D03*
D25*
X022940Y021404D03*
X022940Y021601D03*
X022940Y021798D03*
X022940Y021995D03*
X022940Y022192D03*
X022940Y022389D03*
X022940Y022586D03*
X022940Y022783D03*
X021385Y022783D03*
X021385Y022586D03*
X021385Y022389D03*
X021385Y022192D03*
X021385Y021995D03*
X021385Y021798D03*
X021385Y021601D03*
X021385Y021404D03*
D26*
X020798Y015093D02*
X022973Y015093D01*
X023423Y014643D01*
X023423Y013893D01*
X022673Y013893D01*
X022223Y014343D01*
X020798Y014343D01*
X020798Y015093D01*
X020798Y015070D02*
X022996Y015070D01*
X023115Y014951D02*
X020798Y014951D01*
X020798Y014833D02*
X023233Y014833D01*
X023352Y014714D02*
X020798Y014714D01*
X020798Y014596D02*
X023423Y014596D01*
X023423Y014477D02*
X020798Y014477D01*
X020798Y014359D02*
X023423Y014359D01*
X023423Y014240D02*
X022326Y014240D01*
X022444Y014122D02*
X023423Y014122D01*
X023423Y014003D02*
X022563Y014003D01*
X020448Y013643D02*
X020448Y012318D01*
X020423Y012293D01*
X019385Y012293D01*
X019385Y013136D01*
X019321Y013200D01*
X018993Y013200D01*
X018929Y013136D01*
X018929Y012293D01*
X017623Y012293D01*
X017598Y012268D01*
X017598Y013093D01*
X017648Y013093D01*
X018198Y013643D01*
X020448Y013643D01*
X020448Y013529D02*
X018084Y013529D01*
X017965Y013411D02*
X020448Y013411D01*
X020448Y013292D02*
X017847Y013292D01*
X017728Y013174D02*
X018967Y013174D01*
X018929Y013055D02*
X017598Y013055D01*
X017598Y012937D02*
X018929Y012937D01*
X018929Y012818D02*
X017598Y012818D01*
X017598Y012700D02*
X018929Y012700D01*
X018929Y012581D02*
X017598Y012581D01*
X017598Y012463D02*
X018929Y012463D01*
X018929Y012344D02*
X017598Y012344D01*
X016999Y011993D02*
X018798Y011993D01*
X018823Y010668D01*
X018823Y010593D01*
X018248Y010593D01*
X018242Y010587D01*
X017958Y010587D01*
X017894Y010523D01*
X017894Y010239D01*
X017048Y009393D01*
X015923Y009393D01*
X015423Y009893D01*
X015423Y010893D01*
X016363Y011833D01*
X016839Y011833D01*
X016939Y011933D01*
X016999Y011993D01*
X016995Y011989D02*
X018798Y011989D01*
X018800Y011870D02*
X016876Y011870D01*
X016281Y011752D02*
X018802Y011752D01*
X018805Y011633D02*
X016163Y011633D01*
X016044Y011515D02*
X018807Y011515D01*
X018809Y011396D02*
X015926Y011396D01*
X015807Y011278D02*
X018811Y011278D01*
X018814Y011159D02*
X015689Y011159D01*
X015570Y011041D02*
X018816Y011041D01*
X018818Y010922D02*
X015452Y010922D01*
X015423Y010804D02*
X018820Y010804D01*
X018823Y010685D02*
X015423Y010685D01*
X015423Y010567D02*
X017938Y010567D01*
X017894Y010448D02*
X015423Y010448D01*
X015423Y010330D02*
X017894Y010330D01*
X017866Y010211D02*
X015423Y010211D01*
X015423Y010093D02*
X017747Y010093D01*
X017629Y009974D02*
X015423Y009974D01*
X015460Y009856D02*
X017510Y009856D01*
X017392Y009737D02*
X015579Y009737D01*
X015697Y009619D02*
X017273Y009619D01*
X017155Y009500D02*
X015816Y009500D01*
X019385Y012344D02*
X020448Y012344D01*
X020448Y012463D02*
X019385Y012463D01*
X019385Y012581D02*
X020448Y012581D01*
X020448Y012700D02*
X019385Y012700D01*
X019385Y012818D02*
X020448Y012818D01*
X020448Y012937D02*
X019385Y012937D01*
X019385Y013055D02*
X020448Y013055D01*
X020448Y013174D02*
X019347Y013174D01*
X019240Y013813D02*
X018127Y013813D01*
X018028Y013714D01*
X018028Y013714D01*
X017577Y013263D01*
X017527Y013263D01*
X017507Y013243D01*
X014673Y013243D01*
X014073Y012643D01*
X012673Y012643D01*
X012173Y013143D01*
X012173Y014143D01*
X013073Y015043D01*
X015695Y015043D01*
X015695Y014188D01*
X015759Y014124D01*
X016087Y014124D01*
X016151Y014188D01*
X016151Y015043D01*
X016695Y015043D01*
X016695Y014188D01*
X016759Y014124D01*
X017087Y014124D01*
X017151Y014188D01*
X017151Y015043D01*
X019223Y015043D01*
X019240Y013813D01*
X019239Y013885D02*
X012173Y013885D01*
X012173Y014003D02*
X019237Y014003D01*
X019236Y014122D02*
X012173Y014122D01*
X012270Y014240D02*
X015695Y014240D01*
X015695Y014359D02*
X012388Y014359D01*
X012507Y014477D02*
X015695Y014477D01*
X015695Y014596D02*
X012625Y014596D01*
X012744Y014714D02*
X015695Y014714D01*
X015695Y014833D02*
X012862Y014833D01*
X012981Y014951D02*
X015695Y014951D01*
X016151Y014951D02*
X016695Y014951D01*
X016695Y014833D02*
X016151Y014833D01*
X016151Y014714D02*
X016695Y014714D01*
X016695Y014596D02*
X016151Y014596D01*
X016151Y014477D02*
X016695Y014477D01*
X016695Y014359D02*
X016151Y014359D01*
X016151Y014240D02*
X016695Y014240D01*
X017151Y014240D02*
X019234Y014240D01*
X019232Y014359D02*
X017151Y014359D01*
X017151Y014477D02*
X019231Y014477D01*
X019229Y014596D02*
X017151Y014596D01*
X017151Y014714D02*
X019227Y014714D01*
X019226Y014833D02*
X017151Y014833D01*
X017151Y014951D02*
X019224Y014951D01*
X018080Y013766D02*
X012173Y013766D01*
X012173Y013648D02*
X017962Y013648D01*
X017843Y013529D02*
X012173Y013529D01*
X012173Y013411D02*
X017725Y013411D01*
X017606Y013292D02*
X012173Y013292D01*
X012173Y013174D02*
X014603Y013174D01*
X014485Y013055D02*
X012261Y013055D01*
X012379Y012937D02*
X014366Y012937D01*
X014248Y012818D02*
X012498Y012818D01*
X012616Y012700D02*
X014129Y012700D01*
X049723Y013818D02*
X050498Y013818D01*
X050498Y015443D01*
X049723Y015443D01*
X049723Y013818D01*
X049723Y013885D02*
X050498Y013885D01*
X050498Y014003D02*
X049723Y014003D01*
X049723Y014122D02*
X050498Y014122D01*
X050498Y014240D02*
X049723Y014240D01*
X049723Y014359D02*
X050498Y014359D01*
X050498Y014477D02*
X049723Y014477D01*
X049723Y014596D02*
X050498Y014596D01*
X050498Y014714D02*
X049723Y014714D01*
X049723Y014833D02*
X050498Y014833D01*
X050498Y014951D02*
X049723Y014951D01*
X049723Y015070D02*
X050498Y015070D01*
X050498Y015188D02*
X049723Y015188D01*
X049723Y015307D02*
X050498Y015307D01*
X050498Y015425D02*
X049723Y015425D01*
X051773Y014943D02*
X053505Y014943D01*
X053577Y014913D01*
X053768Y014913D01*
X053775Y014916D01*
X054073Y014618D01*
X054073Y014143D01*
X053815Y013885D01*
X053768Y013905D01*
X053577Y013905D01*
X053401Y013832D01*
X053388Y013818D01*
X051773Y013818D01*
X051773Y014943D01*
X052548Y014943D01*
X052548Y013818D01*
X051773Y013818D01*
X051773Y014943D01*
X051773Y014833D02*
X053858Y014833D01*
X053977Y014714D02*
X051773Y014714D01*
X052548Y014714D01*
X052548Y014596D02*
X051773Y014596D01*
X054073Y014596D01*
X054073Y014477D02*
X051773Y014477D01*
X052548Y014477D01*
X052548Y014359D02*
X051773Y014359D01*
X054073Y014359D01*
X054073Y014240D02*
X051773Y014240D01*
X052548Y014240D01*
X052548Y014122D02*
X051773Y014122D01*
X054051Y014122D01*
X053933Y014003D02*
X051773Y014003D01*
X052548Y014003D01*
X052548Y013885D02*
X051773Y013885D01*
X053529Y013885D01*
X052548Y014833D02*
X051773Y014833D01*
X051773Y018068D02*
X053388Y018068D01*
X053401Y018082D01*
X053577Y018155D01*
X053768Y018155D01*
X053797Y018143D01*
X054048Y018393D01*
X054048Y018893D01*
X053775Y019166D01*
X053768Y019163D01*
X053577Y019163D01*
X053505Y019193D01*
X051773Y019193D01*
X051773Y018068D01*
X052523Y018068D01*
X052523Y019193D01*
X051773Y019193D01*
X051773Y018068D01*
X051773Y018151D02*
X053568Y018151D01*
X053778Y018151D02*
X053805Y018151D01*
X053924Y018269D02*
X051773Y018269D01*
X052523Y018269D01*
X052523Y018151D02*
X051773Y018151D01*
X051773Y018388D02*
X054042Y018388D01*
X054048Y018506D02*
X051773Y018506D01*
X052523Y018506D01*
X052523Y018388D02*
X051773Y018388D01*
X051773Y018625D02*
X054048Y018625D01*
X054048Y018743D02*
X051773Y018743D01*
X052523Y018743D01*
X052523Y018625D02*
X051773Y018625D01*
X051773Y018862D02*
X054048Y018862D01*
X053961Y018980D02*
X051773Y018980D01*
X052523Y018980D01*
X052523Y018862D02*
X051773Y018862D01*
X051773Y019099D02*
X053842Y019099D01*
X052523Y019099D02*
X051773Y019099D01*
X050498Y019099D02*
X049748Y019099D01*
X049748Y019217D02*
X050498Y019217D01*
X050498Y019336D02*
X049748Y019336D01*
X049748Y019454D02*
X050498Y019454D01*
X050498Y019573D02*
X049748Y019573D01*
X049748Y019691D02*
X050498Y019691D01*
X050498Y019693D02*
X050498Y018068D01*
X049748Y018068D01*
X049748Y019693D01*
X050498Y019693D01*
X050498Y018980D02*
X049748Y018980D01*
X049748Y018862D02*
X050498Y018862D01*
X050498Y018743D02*
X049748Y018743D01*
X049748Y018625D02*
X050498Y018625D01*
X050498Y018506D02*
X049748Y018506D01*
X049748Y018388D02*
X050498Y018388D01*
X050498Y018269D02*
X049748Y018269D01*
X049748Y018151D02*
X050498Y018151D01*
D27*
X006348Y017843D02*
X006348Y007068D01*
X006767Y007068D01*
X006714Y007121D01*
X006702Y007151D01*
X006523Y007151D01*
X006401Y007274D01*
X006401Y007722D01*
X006523Y007845D01*
X006972Y007845D01*
X007095Y007722D01*
X007095Y007573D01*
X007146Y007552D01*
X007231Y007466D01*
X007278Y007354D01*
X007278Y007233D01*
X007231Y007121D01*
X007179Y007068D01*
X008067Y007068D01*
X008014Y007121D01*
X008002Y007151D01*
X007773Y007151D01*
X007651Y007274D01*
X007651Y007722D01*
X007772Y007843D01*
X007651Y007964D01*
X007651Y008413D01*
X007773Y008535D01*
X007798Y008535D01*
X007798Y013501D01*
X008073Y013776D01*
X008190Y013893D01*
X011963Y013893D01*
X011963Y014230D01*
X012086Y014353D01*
X012986Y015253D01*
X016668Y015253D01*
X016668Y015354D01*
X016714Y015466D01*
X016800Y015552D01*
X016912Y015598D01*
X017034Y015598D01*
X017146Y015552D01*
X017231Y015466D01*
X017278Y015354D01*
X017278Y015253D01*
X017443Y015253D01*
X017477Y015287D01*
X017837Y015287D01*
X017871Y015253D01*
X017943Y015253D01*
X017977Y015287D01*
X018337Y015287D01*
X018371Y015253D01*
X018443Y015253D01*
X018477Y015287D01*
X018837Y015287D01*
X018871Y015253D01*
X018943Y015253D01*
X018977Y015287D01*
X019337Y015287D01*
X019425Y015200D01*
X019425Y015139D01*
X019432Y015133D01*
X019432Y015131D01*
X019433Y015130D01*
X019433Y015045D01*
X019449Y013853D01*
X020535Y013853D01*
X020617Y013771D01*
X020640Y013793D01*
X022476Y013793D01*
X022463Y013806D01*
X022136Y014133D01*
X020711Y014133D01*
X020588Y014256D01*
X020588Y014266D01*
X020555Y014233D01*
X020151Y014233D01*
X020103Y014281D01*
X020103Y014281D01*
X020055Y014233D01*
X019651Y014233D01*
X019563Y014321D01*
X019563Y015145D01*
X019651Y015233D01*
X019830Y015233D01*
X020290Y015693D01*
X023356Y015693D01*
X023469Y015580D01*
X023512Y015598D01*
X023634Y015598D01*
X023746Y015552D01*
X023831Y015466D01*
X023878Y015354D01*
X023878Y015233D01*
X023831Y015121D01*
X023804Y015093D01*
X023831Y015066D01*
X023878Y014954D01*
X023878Y014833D01*
X023831Y014721D01*
X023746Y014635D01*
X023634Y014588D01*
X023633Y014588D01*
X023633Y013806D01*
X023620Y013793D01*
X023681Y013793D01*
X023798Y013676D01*
X023798Y012492D01*
X023812Y012498D01*
X023934Y012498D01*
X024046Y012452D01*
X024131Y012366D01*
X024178Y012254D01*
X024178Y012133D01*
X024131Y012021D01*
X024046Y011935D01*
X023934Y011888D01*
X023812Y011888D01*
X023798Y011894D01*
X023798Y010493D01*
X023984Y010493D01*
X023968Y010533D01*
X023968Y010654D01*
X024014Y010766D01*
X024100Y010852D01*
X024212Y010898D01*
X024334Y010898D01*
X024443Y010853D01*
X024483Y010893D01*
X024413Y010963D01*
X024413Y011324D01*
X024483Y011393D01*
X024413Y011463D01*
X024413Y011824D01*
X024483Y011893D01*
X024413Y011963D01*
X024413Y012324D01*
X024501Y012411D01*
X025492Y012411D01*
X025560Y012343D01*
X025806Y012343D01*
X026273Y011876D01*
X026273Y010882D01*
X026346Y010852D01*
X026431Y010766D01*
X026478Y010654D01*
X026478Y010533D01*
X026462Y010493D01*
X036143Y010493D01*
X036143Y014189D01*
X036278Y014323D01*
X036591Y014323D01*
X036591Y014599D01*
X036679Y014686D01*
X037669Y014686D01*
X037738Y014618D01*
X037831Y014618D01*
X037956Y014493D01*
X037956Y014493D01*
X038073Y014376D01*
X038073Y013076D01*
X038156Y012993D01*
X038400Y012993D01*
X038300Y013035D01*
X038214Y013121D01*
X038168Y013233D01*
X038168Y013354D01*
X038214Y013466D01*
X038300Y013552D01*
X038412Y013598D01*
X038534Y013598D01*
X038638Y013555D01*
X038638Y013599D01*
X038708Y013668D01*
X038638Y013738D01*
X038638Y014099D01*
X038708Y014168D01*
X038638Y014238D01*
X038638Y014599D01*
X038726Y014686D01*
X039083Y014686D01*
X039168Y014771D01*
X039168Y014854D01*
X039214Y014966D01*
X039300Y015052D01*
X039412Y015098D01*
X039534Y015098D01*
X039646Y015052D01*
X039731Y014966D01*
X039778Y014854D01*
X039778Y014733D01*
X039746Y014657D01*
X039805Y014599D01*
X039805Y014238D01*
X039735Y014168D01*
X039805Y014099D01*
X039805Y013843D01*
X039814Y013866D01*
X039900Y013952D01*
X040012Y013998D01*
X040134Y013998D01*
X040246Y013952D01*
X040331Y013866D01*
X040378Y013754D01*
X040378Y013660D01*
X040401Y013683D01*
X040480Y013683D01*
X040520Y013723D01*
X040520Y013723D01*
X040673Y013876D01*
X040673Y013876D01*
X040790Y013993D01*
X046668Y013993D01*
X046668Y014054D01*
X046699Y014130D01*
X046682Y014119D01*
X046610Y014089D01*
X046543Y014075D01*
X046543Y014423D01*
X046443Y014423D01*
X046443Y014075D01*
X046376Y014089D01*
X046303Y014119D01*
X046238Y014163D01*
X046182Y014218D01*
X046138Y014284D01*
X046108Y014357D01*
X046095Y014423D01*
X046443Y014423D01*
X046443Y014523D01*
X046095Y014523D01*
X046108Y014590D01*
X046138Y014663D01*
X046182Y014728D01*
X046238Y014784D01*
X046303Y014828D01*
X046376Y014858D01*
X046443Y014871D01*
X046443Y014523D01*
X046543Y014523D01*
X046891Y014523D01*
X046877Y014590D01*
X046847Y014663D01*
X046804Y014728D01*
X046748Y014784D01*
X046682Y014828D01*
X046610Y014858D01*
X046543Y014871D01*
X046543Y014523D01*
X046543Y014423D01*
X046891Y014423D01*
X046877Y014357D01*
X046847Y014284D01*
X046836Y014267D01*
X046912Y014298D01*
X047034Y014298D01*
X047146Y014252D01*
X047231Y014166D01*
X047278Y014054D01*
X047278Y013933D01*
X047231Y013821D01*
X047146Y013735D01*
X047034Y013688D01*
X046951Y013688D01*
X046856Y013593D01*
X045989Y013593D01*
X046062Y013520D01*
X046123Y013373D01*
X046123Y013214D01*
X046062Y013067D01*
X045949Y012954D01*
X045802Y012893D01*
X045643Y012893D01*
X045496Y012954D01*
X045384Y013067D01*
X045323Y013214D01*
X045323Y013373D01*
X045384Y013520D01*
X045457Y013593D01*
X044669Y013593D01*
X044762Y013500D01*
X044823Y013353D01*
X044823Y013194D01*
X044762Y013047D01*
X044649Y012934D01*
X044551Y012893D01*
X045056Y012893D01*
X045506Y012443D01*
X045623Y012326D01*
X045623Y010960D01*
X045056Y010393D01*
X049173Y010393D01*
X049173Y011168D01*
X049143Y011198D01*
X049143Y015589D01*
X049173Y015619D01*
X049173Y017968D01*
X049143Y017998D01*
X049143Y021889D01*
X049278Y022023D01*
X049566Y022023D01*
X049566Y022324D01*
X049654Y022411D01*
X050644Y022411D01*
X050732Y022324D01*
X050732Y022317D01*
X050856Y022193D01*
X050973Y022076D01*
X050973Y020876D01*
X051056Y020793D01*
X051400Y020793D01*
X051300Y020835D01*
X051214Y020921D01*
X051168Y021033D01*
X051168Y021154D01*
X051214Y021266D01*
X051300Y021352D01*
X051412Y021398D01*
X051534Y021398D01*
X051643Y021353D01*
X051683Y021393D01*
X051613Y021463D01*
X051613Y021821D01*
X051534Y021788D01*
X051412Y021788D01*
X051300Y021835D01*
X051214Y021921D01*
X051168Y022033D01*
X051168Y022154D01*
X051214Y022266D01*
X051300Y022352D01*
X051412Y022398D01*
X051534Y022398D01*
X051643Y022353D01*
X051701Y022411D01*
X052692Y022411D01*
X052780Y022324D01*
X052780Y021963D01*
X052710Y021893D01*
X052780Y021824D01*
X052780Y021463D01*
X052710Y021393D01*
X052780Y021324D01*
X052780Y020963D01*
X052710Y020893D01*
X052780Y020824D01*
X052780Y020463D01*
X052692Y020375D01*
X051874Y020375D01*
X052156Y020093D01*
X052273Y019976D01*
X052273Y019896D01*
X052654Y019896D01*
X052742Y019808D01*
X052742Y019447D01*
X052698Y019403D01*
X053209Y019403D01*
X053153Y019540D01*
X053153Y019747D01*
X053232Y019938D01*
X053378Y020084D01*
X053569Y020163D01*
X053776Y020163D01*
X053967Y020084D01*
X054073Y019979D01*
X054073Y020546D01*
X053894Y020546D01*
X053773Y020667D01*
X053652Y020546D01*
X053203Y020546D01*
X053081Y020669D01*
X053081Y021118D01*
X053199Y021236D01*
X053114Y021321D01*
X053068Y021433D01*
X053068Y021554D01*
X053114Y021666D01*
X053200Y021752D01*
X053312Y021798D01*
X053434Y021798D01*
X053546Y021752D01*
X053631Y021666D01*
X053678Y021554D01*
X053678Y021433D01*
X053631Y021321D01*
X053628Y021317D01*
X053628Y021240D01*
X053652Y021240D01*
X053773Y021119D01*
X053894Y021240D01*
X054106Y021240D01*
X054068Y021333D01*
X054068Y021454D01*
X054114Y021566D01*
X054200Y021652D01*
X054312Y021698D01*
X054434Y021698D01*
X054546Y021652D01*
X054631Y021566D01*
X054678Y021454D01*
X054678Y021333D01*
X054673Y021321D01*
X054673Y016710D01*
X054373Y016410D01*
X054256Y016293D01*
X051815Y016293D01*
X051815Y016269D01*
X051692Y016146D01*
X051244Y016146D01*
X051123Y016267D01*
X051002Y016146D01*
X050573Y016146D01*
X050573Y015653D01*
X050585Y015653D01*
X050592Y015646D01*
X050607Y015646D01*
X050695Y015558D01*
X050695Y015543D01*
X050708Y015530D01*
X050708Y013740D01*
X050717Y013740D01*
X050773Y013684D01*
X050813Y013724D01*
X050768Y013833D01*
X050768Y013954D01*
X050814Y014066D01*
X050900Y014152D01*
X051012Y014198D01*
X051134Y014198D01*
X051246Y014152D01*
X051273Y014125D01*
X051273Y015376D01*
X051373Y015476D01*
X051490Y015593D01*
X051611Y015593D01*
X051664Y015646D01*
X052654Y015646D01*
X052742Y015558D01*
X052742Y015197D01*
X052698Y015153D01*
X053209Y015153D01*
X053153Y015290D01*
X053153Y015497D01*
X053232Y015688D01*
X053378Y015834D01*
X053569Y015913D01*
X053776Y015913D01*
X053967Y015834D01*
X054114Y015688D01*
X054193Y015497D01*
X054193Y015290D01*
X054114Y015099D01*
X054002Y014987D01*
X054283Y014705D01*
X054283Y014566D01*
X054356Y014493D01*
X054356Y014493D01*
X054473Y014376D01*
X054473Y012365D01*
X054265Y012157D01*
X054265Y011869D01*
X054142Y011746D01*
X053694Y011746D01*
X053573Y011867D01*
X053452Y011746D01*
X053428Y011746D01*
X053428Y011659D01*
X053446Y011652D01*
X053531Y011566D01*
X053578Y011454D01*
X053578Y011333D01*
X053531Y011221D01*
X053446Y011135D01*
X053334Y011088D01*
X053212Y011088D01*
X053100Y011135D01*
X053073Y011162D01*
X053073Y011010D01*
X052956Y010893D01*
X052873Y010810D01*
X052873Y008830D01*
X053123Y008580D01*
X053123Y008207D01*
X052859Y007943D01*
X052486Y007943D01*
X052223Y008207D01*
X052223Y008580D01*
X052473Y008830D01*
X052473Y010976D01*
X052622Y011125D01*
X051701Y011125D01*
X051633Y011193D01*
X051604Y011193D01*
X051546Y011135D01*
X051434Y011088D01*
X051312Y011088D01*
X051200Y011135D01*
X051114Y011221D01*
X051068Y011333D01*
X051068Y011454D01*
X051114Y011566D01*
X051200Y011652D01*
X051312Y011698D01*
X051434Y011698D01*
X051546Y011652D01*
X051604Y011593D01*
X051633Y011593D01*
X051683Y011643D01*
X051613Y011713D01*
X051613Y012074D01*
X051683Y012143D01*
X051613Y012213D01*
X051613Y012574D01*
X051683Y012643D01*
X051613Y012713D01*
X051613Y012851D01*
X051456Y012693D01*
X050713Y012693D01*
X050663Y012643D01*
X050732Y012574D01*
X050732Y012213D01*
X050663Y012143D01*
X050732Y012074D01*
X050732Y011713D01*
X050663Y011643D01*
X050732Y011574D01*
X050732Y011213D01*
X050644Y011125D01*
X050573Y011125D01*
X050573Y008910D01*
X050506Y008843D01*
X050859Y008843D01*
X051123Y008580D01*
X051123Y008207D01*
X050859Y007943D01*
X050486Y007943D01*
X050223Y008207D01*
X050223Y008580D01*
X050436Y008793D01*
X049909Y008793D01*
X050123Y008580D01*
X050123Y008207D01*
X049859Y007943D01*
X049486Y007943D01*
X049223Y008207D01*
X049223Y008580D01*
X049436Y008793D01*
X048909Y008793D01*
X049123Y008580D01*
X049123Y008207D01*
X048859Y007943D01*
X048486Y007943D01*
X048223Y008207D01*
X048223Y008580D01*
X048436Y008793D01*
X047909Y008793D01*
X048123Y008580D01*
X048123Y008207D01*
X047859Y007943D01*
X047486Y007943D01*
X047223Y008207D01*
X047223Y008580D01*
X047436Y008793D01*
X046909Y008793D01*
X047123Y008580D01*
X047123Y008207D01*
X046859Y007943D01*
X046486Y007943D01*
X046223Y008207D01*
X046223Y008580D01*
X046436Y008793D01*
X045909Y008793D01*
X046123Y008580D01*
X046123Y008207D01*
X045859Y007943D01*
X045486Y007943D01*
X045223Y008207D01*
X045223Y008493D01*
X039962Y008493D01*
X039931Y008421D01*
X039846Y008335D01*
X039734Y008288D01*
X039612Y008288D01*
X039500Y008335D01*
X039414Y008421D01*
X039368Y008533D01*
X039368Y008654D01*
X039414Y008766D01*
X039442Y008793D01*
X035971Y008793D01*
X035979Y008774D01*
X035979Y008613D01*
X035917Y008463D01*
X035809Y008356D01*
X035912Y008398D01*
X036034Y008398D01*
X036146Y008352D01*
X036231Y008266D01*
X036278Y008154D01*
X036278Y008033D01*
X036231Y007921D01*
X036146Y007835D01*
X036034Y007788D01*
X035912Y007788D01*
X035800Y007835D01*
X035741Y007893D01*
X034490Y007893D01*
X034090Y008293D01*
X031786Y008293D01*
X031247Y007755D01*
X031288Y007658D01*
X031288Y007449D01*
X031208Y007256D01*
X031060Y007108D01*
X030964Y007068D01*
X033122Y007068D01*
X033025Y007108D01*
X032878Y007256D01*
X032798Y007449D01*
X032798Y007658D01*
X032878Y007851D01*
X033025Y007998D01*
X033218Y008078D01*
X033427Y008078D01*
X033620Y007998D01*
X033768Y007851D01*
X033848Y007658D01*
X033848Y007449D01*
X033768Y007256D01*
X033620Y007108D01*
X033524Y007068D01*
X045361Y007068D01*
X045223Y007207D01*
X045223Y007580D01*
X045486Y007843D01*
X045859Y007843D01*
X046123Y007580D01*
X046123Y007207D01*
X045984Y007068D01*
X046361Y007068D01*
X046223Y007207D01*
X046223Y007580D01*
X046486Y007843D01*
X046859Y007843D01*
X047123Y007580D01*
X047123Y007207D01*
X046984Y007068D01*
X047361Y007068D01*
X047223Y007207D01*
X047223Y007580D01*
X047486Y007843D01*
X047859Y007843D01*
X048123Y007580D01*
X048123Y007207D01*
X047984Y007068D01*
X048361Y007068D01*
X048223Y007207D01*
X048223Y007580D01*
X048486Y007843D01*
X048859Y007843D01*
X049123Y007580D01*
X049123Y007207D01*
X048984Y007068D01*
X049361Y007068D01*
X049223Y007207D01*
X049223Y007580D01*
X049486Y007843D01*
X049859Y007843D01*
X050123Y007580D01*
X050123Y007207D01*
X049984Y007068D01*
X050361Y007068D01*
X050223Y007207D01*
X050223Y007580D01*
X050486Y007843D01*
X050859Y007843D01*
X051123Y007580D01*
X051123Y007207D01*
X050984Y007068D01*
X051361Y007068D01*
X051223Y007207D01*
X051223Y007580D01*
X051486Y007843D01*
X051859Y007843D01*
X052123Y007580D01*
X052123Y007207D01*
X051984Y007068D01*
X052361Y007068D01*
X052223Y007207D01*
X052223Y007580D01*
X052486Y007843D01*
X052859Y007843D01*
X053123Y007580D01*
X053123Y007207D01*
X052984Y007068D01*
X053361Y007068D01*
X053223Y007207D01*
X053223Y007580D01*
X053486Y007843D01*
X053859Y007843D01*
X054123Y007580D01*
X054123Y007207D01*
X053984Y007068D01*
X054361Y007068D01*
X054223Y007207D01*
X054223Y007580D01*
X054486Y007843D01*
X054859Y007843D01*
X054998Y007705D01*
X054998Y008082D01*
X054859Y007943D01*
X054486Y007943D01*
X054223Y008207D01*
X054223Y008580D01*
X054486Y008843D01*
X054859Y008843D01*
X054998Y008705D01*
X054998Y024153D01*
X054839Y023993D01*
X054723Y023993D01*
X054723Y024343D01*
X054623Y024343D01*
X054623Y023993D01*
X054507Y023993D01*
X054373Y024128D01*
X054373Y024010D01*
X054178Y023815D01*
X054178Y023733D01*
X054131Y023621D01*
X054046Y023535D01*
X053934Y023488D01*
X053812Y023488D01*
X053700Y023535D01*
X053614Y023621D01*
X053568Y023733D01*
X053568Y023854D01*
X053605Y023943D01*
X053486Y023943D01*
X053223Y024207D01*
X053223Y024580D01*
X053486Y024843D01*
X053859Y024843D01*
X053973Y024730D01*
X053973Y024876D01*
X054090Y024993D01*
X054263Y025167D01*
X054223Y025207D01*
X054223Y025580D01*
X054361Y025718D01*
X053984Y025718D01*
X054123Y025580D01*
X054123Y025207D01*
X053859Y024943D01*
X053486Y024943D01*
X053223Y025207D01*
X053223Y025580D01*
X053361Y025718D01*
X052984Y025718D01*
X053123Y025580D01*
X053123Y025207D01*
X052859Y024943D01*
X052486Y024943D01*
X052223Y025207D01*
X052223Y025580D01*
X052361Y025718D01*
X051984Y025718D01*
X052123Y025580D01*
X052123Y025207D01*
X051859Y024943D01*
X051486Y024943D01*
X051223Y025207D01*
X051223Y025580D01*
X051361Y025718D01*
X050984Y025718D01*
X051123Y025580D01*
X051123Y025207D01*
X050859Y024943D01*
X050486Y024943D01*
X050223Y025207D01*
X050223Y025580D01*
X050361Y025718D01*
X049984Y025718D01*
X050123Y025580D01*
X050123Y025207D01*
X049859Y024943D01*
X049486Y024943D01*
X049223Y025207D01*
X049223Y025580D01*
X049361Y025718D01*
X048984Y025718D01*
X049123Y025580D01*
X049123Y025207D01*
X048859Y024943D01*
X048506Y024943D01*
X048373Y024810D01*
X048373Y024730D01*
X048486Y024843D01*
X048859Y024843D01*
X049123Y024580D01*
X049123Y024207D01*
X049009Y024093D01*
X049336Y024093D01*
X049223Y024207D01*
X049223Y024580D01*
X049486Y024843D01*
X049859Y024843D01*
X050123Y024580D01*
X050123Y024207D01*
X050009Y024093D01*
X050090Y024093D01*
X050223Y024226D01*
X050223Y024580D01*
X050486Y024843D01*
X050859Y024843D01*
X051123Y024580D01*
X051123Y024207D01*
X050859Y023943D01*
X050506Y023943D01*
X050256Y023693D01*
X048656Y023693D01*
X048256Y023293D01*
X047556Y023293D01*
X047478Y023215D01*
X047478Y023133D01*
X047431Y023021D01*
X047346Y022935D01*
X047234Y022888D01*
X047112Y022888D01*
X047073Y022905D01*
X047073Y022110D01*
X046956Y021993D01*
X046656Y021693D01*
X044504Y021693D01*
X044446Y021635D01*
X044334Y021588D01*
X044212Y021588D01*
X044100Y021635D01*
X044014Y021721D01*
X043968Y021833D01*
X043968Y021954D01*
X044014Y022066D01*
X044100Y022152D01*
X044212Y022198D01*
X044334Y022198D01*
X044446Y022152D01*
X044504Y022093D01*
X046005Y022093D01*
X045943Y022244D01*
X045943Y022423D01*
X045972Y022493D01*
X044011Y022493D01*
X044037Y022430D01*
X044051Y022363D01*
X043703Y022363D01*
X043703Y022263D01*
X043703Y021915D01*
X043770Y021929D01*
X043842Y021959D01*
X043908Y022003D01*
X043964Y022058D01*
X044007Y022124D01*
X044037Y022197D01*
X044051Y022263D01*
X043703Y022263D01*
X043603Y022263D01*
X043603Y021915D01*
X043536Y021929D01*
X043463Y021959D01*
X043398Y022003D01*
X043342Y022058D01*
X043298Y022124D01*
X043268Y022197D01*
X043255Y022263D01*
X043603Y022263D01*
X043603Y022363D01*
X043374Y022363D01*
X043346Y022335D01*
X043234Y022288D01*
X043112Y022288D01*
X043000Y022335D01*
X042914Y022421D01*
X042868Y022533D01*
X042868Y022615D01*
X042790Y022693D01*
X042490Y022693D01*
X042373Y022810D01*
X041877Y023306D01*
X041834Y023288D01*
X041712Y023288D01*
X041600Y023335D01*
X041514Y023421D01*
X041468Y023533D01*
X041468Y023638D01*
X041426Y023680D01*
X041426Y023727D01*
X041334Y023688D01*
X041278Y023688D01*
X041278Y023633D01*
X041231Y023521D01*
X041146Y023435D01*
X041034Y023388D01*
X040912Y023388D01*
X040800Y023435D01*
X040714Y023521D01*
X040668Y023633D01*
X040668Y023693D01*
X040390Y023693D01*
X040273Y023810D01*
X040248Y023836D01*
X040248Y023538D01*
X040160Y023450D01*
X039366Y023450D01*
X039278Y023538D01*
X039278Y023804D01*
X039245Y023758D01*
X039245Y023758D01*
X039245Y023758D01*
X038957Y023592D01*
X038973Y023576D01*
X039273Y023276D01*
X039273Y018925D01*
X039278Y018919D01*
X039278Y019273D01*
X039366Y019360D01*
X040160Y019360D01*
X040248Y019273D01*
X040248Y018893D01*
X040290Y018893D01*
X040390Y018993D01*
X041268Y018993D01*
X041268Y019054D01*
X041314Y019166D01*
X041400Y019252D01*
X041512Y019298D01*
X041634Y019298D01*
X041746Y019252D01*
X041831Y019166D01*
X041878Y019054D01*
X041878Y018998D01*
X041934Y018998D01*
X042046Y018952D01*
X042131Y018866D01*
X042178Y018754D01*
X042178Y018698D01*
X042234Y018698D01*
X042346Y018652D01*
X042431Y018566D01*
X042478Y018454D01*
X042478Y018333D01*
X042431Y018221D01*
X042432Y018221D02*
X044085Y018221D01*
X044084Y018220D02*
X044023Y018073D01*
X044023Y017914D01*
X044084Y017767D01*
X044196Y017654D01*
X044343Y017593D01*
X044502Y017593D01*
X044649Y017654D01*
X044762Y017767D01*
X044823Y017914D01*
X044823Y018073D01*
X044762Y018220D01*
X044649Y018332D01*
X044527Y018383D01*
X044649Y018434D01*
X044762Y018547D01*
X044823Y018694D01*
X044823Y018853D01*
X044762Y019000D01*
X044649Y019112D01*
X044502Y019173D01*
X044343Y019173D01*
X044196Y019112D01*
X044084Y019000D01*
X044023Y018853D01*
X044023Y018694D01*
X044084Y018547D01*
X044196Y018434D01*
X044319Y018383D01*
X044196Y018332D01*
X044084Y018220D01*
X044043Y018122D02*
X042316Y018122D01*
X042346Y018135D02*
X042431Y018221D01*
X042472Y018319D02*
X044183Y018319D01*
X044236Y018418D02*
X042478Y018418D01*
X042452Y018516D02*
X044114Y018516D01*
X044056Y018615D02*
X042383Y018615D01*
X042178Y018713D02*
X044023Y018713D01*
X044023Y018812D02*
X042154Y018812D01*
X042087Y018910D02*
X044047Y018910D01*
X044093Y019009D02*
X041878Y019009D01*
X041856Y019107D02*
X044191Y019107D01*
X044654Y019107D02*
X045371Y019107D01*
X045396Y019132D02*
X045284Y019020D01*
X045223Y018873D01*
X045223Y018714D01*
X045284Y018567D01*
X045396Y018454D01*
X045543Y018393D01*
X045595Y018393D01*
X045496Y018352D01*
X045384Y018240D01*
X045323Y018093D01*
X045323Y017934D01*
X045384Y017787D01*
X045496Y017674D01*
X045643Y017613D01*
X045802Y017613D01*
X045949Y017674D01*
X046062Y017787D01*
X046123Y017934D01*
X046123Y018093D01*
X046062Y018240D01*
X045949Y018352D01*
X045802Y018413D01*
X045751Y018413D01*
X045849Y018454D01*
X045962Y018567D01*
X046023Y018714D01*
X046023Y018873D01*
X045962Y019020D01*
X045849Y019132D01*
X045702Y019193D01*
X045543Y019193D01*
X045396Y019132D01*
X045279Y019009D02*
X044753Y019009D01*
X044799Y018910D02*
X045238Y018910D01*
X045223Y018812D02*
X044823Y018812D01*
X044823Y018713D02*
X045223Y018713D01*
X045264Y018615D02*
X044790Y018615D01*
X044732Y018516D02*
X045334Y018516D01*
X045484Y018418D02*
X044610Y018418D01*
X044662Y018319D02*
X045463Y018319D01*
X045376Y018221D02*
X044761Y018221D01*
X044802Y018122D02*
X045335Y018122D01*
X045323Y018024D02*
X044823Y018024D01*
X044823Y017925D02*
X045326Y017925D01*
X045367Y017827D02*
X044787Y017827D01*
X044724Y017728D02*
X045442Y017728D01*
X045603Y017630D02*
X044591Y017630D01*
X044255Y017630D02*
X041306Y017630D01*
X041292Y017636D02*
X041212Y017636D01*
X041212Y017611D01*
X041212Y017611D01*
X041212Y017636D01*
X041187Y017636D01*
X041137Y017686D01*
X040821Y017686D01*
X040821Y017693D01*
X041756Y017693D01*
X041873Y017810D01*
X042151Y018088D01*
X042234Y018088D01*
X042346Y018135D01*
X042086Y018024D02*
X044023Y018024D01*
X044023Y017925D02*
X041988Y017925D01*
X041889Y017827D02*
X044059Y017827D01*
X044122Y017728D02*
X041791Y017728D01*
X041673Y017893D02*
X040573Y017893D01*
X040373Y018093D01*
X040073Y018093D01*
X039773Y018393D02*
X040373Y018393D01*
X040573Y018593D01*
X041773Y018593D01*
X041873Y018693D01*
X042173Y018393D02*
X041673Y017893D01*
X041357Y017592D02*
X041328Y017621D01*
X041292Y017636D01*
X041357Y017592D02*
X041372Y017556D01*
X041372Y017361D01*
X041225Y017361D01*
X041225Y017361D01*
X041372Y017361D01*
X041372Y017166D01*
X041357Y017129D01*
X041328Y017101D01*
X041310Y017093D01*
X042290Y017093D01*
X042468Y017271D01*
X042468Y017354D01*
X042514Y017466D01*
X042600Y017552D01*
X042712Y017598D01*
X042834Y017598D01*
X042946Y017552D01*
X043031Y017466D01*
X043078Y017354D01*
X043078Y017298D01*
X043134Y017298D01*
X043246Y017252D01*
X043331Y017166D01*
X043363Y017089D01*
X043398Y017124D01*
X043463Y017168D01*
X043536Y017198D01*
X043603Y017211D01*
X043603Y016863D01*
X043703Y016863D01*
X044051Y016863D01*
X044037Y016930D01*
X044007Y017003D01*
X043964Y017068D01*
X043908Y017124D01*
X043842Y017168D01*
X043770Y017198D01*
X043703Y017211D01*
X043703Y016863D01*
X043703Y016763D01*
X044051Y016763D01*
X044037Y016697D01*
X044007Y016624D01*
X043964Y016558D01*
X043908Y016503D01*
X043842Y016459D01*
X043770Y016429D01*
X043728Y016421D01*
X043856Y016293D01*
X044541Y016293D01*
X044600Y016352D01*
X044712Y016398D01*
X044834Y016398D01*
X044946Y016352D01*
X045004Y016293D01*
X046136Y016293D01*
X046348Y016081D01*
X046403Y016103D01*
X046582Y016103D01*
X046748Y016035D01*
X046874Y015908D01*
X046943Y015743D01*
X046943Y015564D01*
X046874Y015398D01*
X046748Y015272D01*
X046582Y015203D01*
X046403Y015203D01*
X046238Y015272D01*
X046111Y015398D01*
X046043Y015564D01*
X046043Y015743D01*
X046066Y015798D01*
X045970Y015893D01*
X045404Y015893D01*
X045431Y015866D01*
X045478Y015754D01*
X045478Y015633D01*
X045431Y015521D01*
X045346Y015435D01*
X045234Y015388D01*
X045112Y015388D01*
X045000Y015435D01*
X044941Y015493D01*
X044082Y015493D01*
X044034Y015378D01*
X043908Y015252D01*
X043742Y015183D01*
X043563Y015183D01*
X043398Y015252D01*
X043271Y015378D01*
X043203Y015544D01*
X043203Y015723D01*
X043271Y015888D01*
X043333Y015950D01*
X043290Y015993D01*
X041422Y015993D01*
X041422Y015698D01*
X041434Y015698D01*
X041546Y015652D01*
X041631Y015566D01*
X041678Y015454D01*
X041678Y015371D01*
X041790Y015259D01*
X041907Y015142D01*
X041907Y015140D01*
X041986Y015140D01*
X042074Y015052D01*
X042074Y014534D01*
X041986Y014446D01*
X041429Y014446D01*
X041341Y014534D01*
X041341Y014543D01*
X041339Y014540D01*
X041311Y014512D01*
X041275Y014496D01*
X041087Y014496D01*
X041087Y014745D01*
X040990Y014745D01*
X040990Y014496D01*
X040802Y014496D01*
X040765Y014512D01*
X040737Y014540D01*
X040722Y014577D01*
X040722Y014745D01*
X040990Y014745D01*
X040990Y014842D01*
X040990Y015090D01*
X040802Y015090D01*
X040765Y015075D01*
X040737Y015047D01*
X040722Y015010D01*
X040722Y014842D01*
X040990Y014842D01*
X041087Y014842D01*
X041087Y015090D01*
X041275Y015090D01*
X041311Y015075D01*
X041339Y015047D01*
X041341Y015043D01*
X041341Y015052D01*
X041377Y015088D01*
X041312Y015088D01*
X041200Y015135D01*
X041114Y015221D01*
X041068Y015333D01*
X041068Y015415D01*
X041012Y015471D01*
X041012Y015531D01*
X040990Y015531D01*
X040940Y015481D01*
X040686Y015481D01*
X040728Y015379D01*
X040728Y015258D01*
X040681Y015146D01*
X040596Y015060D01*
X040484Y015013D01*
X040362Y015013D01*
X040250Y015060D01*
X040164Y015146D01*
X040118Y015258D01*
X040118Y015379D01*
X040160Y015481D01*
X039908Y015481D01*
X039858Y015531D01*
X039833Y015531D01*
X039833Y015556D01*
X039833Y015556D01*
X039833Y015531D01*
X039770Y015531D01*
X039770Y015507D01*
X039521Y015507D01*
X039521Y015410D01*
X039521Y015142D01*
X039690Y015142D01*
X039726Y015157D01*
X039754Y015185D01*
X039770Y015222D01*
X039770Y015410D01*
X039521Y015410D01*
X039424Y015410D01*
X039176Y015410D01*
X039176Y015222D01*
X039191Y015185D01*
X039219Y015157D01*
X039256Y015142D01*
X039424Y015142D01*
X039424Y015410D01*
X039424Y015507D01*
X039176Y015507D01*
X039176Y015695D01*
X039191Y015732D01*
X039219Y015760D01*
X039223Y015761D01*
X039214Y015761D01*
X039171Y015804D01*
X039134Y015788D01*
X039012Y015788D01*
X038900Y015835D01*
X038814Y015921D01*
X038768Y016033D01*
X038768Y016154D01*
X038814Y016266D01*
X038900Y016352D01*
X039012Y016398D01*
X039126Y016398D01*
X039126Y016407D01*
X039177Y016458D01*
X039114Y016521D01*
X039068Y016633D01*
X039068Y016754D01*
X039114Y016866D01*
X039200Y016952D01*
X039312Y016998D01*
X039368Y016998D01*
X039368Y017054D01*
X039412Y017161D01*
X038972Y017161D01*
X038946Y017135D01*
X038834Y017088D01*
X038712Y017088D01*
X038600Y017135D01*
X038514Y017221D01*
X038468Y017333D01*
X038468Y017454D01*
X038514Y017566D01*
X038600Y017652D01*
X038712Y017698D01*
X038834Y017698D01*
X038946Y017652D01*
X039031Y017566D01*
X039034Y017561D01*
X039522Y017561D01*
X038990Y018093D01*
X038873Y018210D01*
X038873Y018462D01*
X038814Y018521D01*
X038768Y018633D01*
X038768Y018754D01*
X038814Y018866D01*
X038873Y018925D01*
X038873Y023110D01*
X038690Y023293D01*
X038290Y023293D01*
X037690Y023893D01*
X037573Y024010D01*
X037573Y024610D01*
X037390Y024793D01*
X033173Y024793D01*
X033173Y022210D01*
X033056Y022093D01*
X032956Y021993D01*
X032056Y021993D01*
X031171Y021109D01*
X030620Y021109D01*
X030620Y021030D01*
X030532Y020942D01*
X030014Y020942D01*
X029973Y020983D01*
X029932Y020942D01*
X029414Y020942D01*
X029326Y021030D01*
X029326Y021587D01*
X029382Y021643D01*
X029326Y021699D01*
X029326Y022257D01*
X029384Y022315D01*
X029326Y022374D01*
X029326Y022822D01*
X029447Y022943D01*
X029326Y023064D01*
X029326Y023513D01*
X029448Y023635D01*
X029632Y023635D01*
X029668Y023671D01*
X029668Y023754D01*
X029714Y023866D01*
X029800Y023952D01*
X029912Y023998D01*
X030034Y023998D01*
X030146Y023952D01*
X030204Y023893D01*
X030617Y023893D01*
X030617Y023997D01*
X030705Y024085D01*
X031498Y024085D01*
X031573Y024010D01*
X031573Y024128D01*
X031798Y024353D01*
X031798Y024393D01*
X030504Y024393D01*
X030446Y024335D01*
X030334Y024288D01*
X030212Y024288D01*
X030100Y024335D01*
X030014Y024421D01*
X030005Y024443D01*
X029723Y024443D01*
X029723Y024343D01*
X029723Y023993D01*
X029839Y023993D01*
X030073Y024228D01*
X030073Y024343D01*
X029723Y024343D01*
X029623Y024343D01*
X029623Y023993D01*
X029507Y023993D01*
X029373Y024128D01*
X029373Y024010D01*
X029256Y023893D01*
X028856Y023493D01*
X025556Y023493D01*
X025156Y023093D01*
X024656Y023093D01*
X024556Y022993D01*
X023756Y022993D01*
X023573Y022810D01*
X023573Y022293D01*
X024241Y022293D01*
X024300Y022352D01*
X024412Y022398D01*
X024534Y022398D01*
X024646Y022352D01*
X024731Y022266D01*
X024778Y022154D01*
X024778Y022033D01*
X024731Y021921D01*
X024646Y021835D01*
X024534Y021788D01*
X024412Y021788D01*
X024300Y021835D01*
X024241Y021893D01*
X023456Y021893D01*
X023358Y021795D01*
X023265Y021795D01*
X023265Y021479D01*
X023215Y021429D01*
X023215Y021404D01*
X023190Y021404D01*
X023190Y021404D01*
X023215Y021404D01*
X023215Y021324D01*
X023200Y021288D01*
X023172Y021260D01*
X023135Y021244D01*
X022940Y021244D01*
X022940Y021391D01*
X022940Y021391D01*
X022940Y021244D01*
X022745Y021244D01*
X022709Y021260D01*
X022681Y021288D01*
X022665Y021324D01*
X022665Y021404D01*
X022690Y021404D01*
X022690Y021404D01*
X022665Y021404D01*
X022665Y021429D01*
X022615Y021479D01*
X022615Y022117D01*
X022665Y022167D01*
X022665Y022192D01*
X022690Y022192D01*
X022690Y022192D01*
X022690Y022192D01*
X022665Y022192D01*
X022665Y022217D01*
X022615Y022267D01*
X022615Y022583D01*
X022600Y022583D01*
X022490Y022693D01*
X022373Y022810D01*
X022373Y022821D01*
X022254Y022821D01*
X022166Y022909D01*
X022166Y022918D01*
X022164Y022915D01*
X022136Y022887D01*
X022100Y022871D01*
X021912Y022871D01*
X021912Y023120D01*
X021815Y023120D01*
X021815Y022871D01*
X021657Y022871D01*
X021660Y022863D01*
X021660Y022783D01*
X021635Y022783D01*
X021660Y022783D01*
X021660Y022758D01*
X021710Y022708D01*
X021710Y022398D01*
X021712Y022398D01*
X021834Y022398D01*
X021946Y022352D01*
X022031Y022266D01*
X022078Y022154D01*
X022078Y022071D01*
X022356Y021793D01*
X022473Y021676D01*
X022473Y021242D01*
X022474Y021240D01*
X022817Y021240D01*
X022873Y021184D01*
X022929Y021240D01*
X023486Y021240D01*
X023574Y021152D01*
X023574Y020963D01*
X023578Y020954D01*
X023578Y020833D01*
X023574Y020823D01*
X023574Y020634D01*
X023486Y020546D01*
X023274Y020546D01*
X023274Y020463D01*
X023278Y020454D01*
X023278Y020333D01*
X023276Y020328D01*
X023300Y020352D01*
X023412Y020398D01*
X023534Y020398D01*
X023646Y020352D01*
X023731Y020266D01*
X023778Y020154D01*
X023778Y020033D01*
X023731Y019921D01*
X023646Y019835D01*
X023587Y019810D01*
X023631Y019766D01*
X023678Y019654D01*
X023678Y019533D01*
X023631Y019421D01*
X023572Y019361D01*
X023812Y019361D01*
X023814Y019366D01*
X023900Y019452D01*
X024012Y019498D01*
X024134Y019498D01*
X024246Y019452D01*
X024331Y019366D01*
X024378Y019254D01*
X024378Y019133D01*
X024331Y019021D01*
X024246Y018935D01*
X024134Y018888D01*
X024012Y018888D01*
X024007Y018890D01*
X023960Y018843D01*
X024030Y018774D01*
X024030Y018413D01*
X023960Y018343D01*
X024030Y018274D01*
X024030Y017913D01*
X023960Y017843D01*
X024030Y017774D01*
X024030Y017413D01*
X023942Y017325D01*
X022951Y017325D01*
X022943Y017334D01*
X022834Y017288D01*
X022712Y017288D01*
X022600Y017335D01*
X022514Y017421D01*
X022468Y017533D01*
X022468Y017654D01*
X022514Y017766D01*
X022600Y017852D01*
X022712Y017898D01*
X022834Y017898D01*
X022910Y017867D01*
X022863Y017913D01*
X022863Y018274D01*
X022933Y018343D01*
X022863Y018413D01*
X022863Y018774D01*
X022933Y018843D01*
X022863Y018913D01*
X022863Y019196D01*
X022604Y019196D01*
X022548Y019252D01*
X022492Y019196D01*
X022473Y019196D01*
X022473Y018943D01*
X022499Y018932D01*
X022612Y018820D01*
X022673Y018673D01*
X022673Y018514D01*
X022612Y018367D01*
X022499Y018254D01*
X022352Y018193D01*
X021982Y018193D01*
X021982Y017913D01*
X021913Y017843D01*
X021982Y017774D01*
X021982Y017413D01*
X021894Y017325D01*
X021788Y017325D01*
X021756Y017293D01*
X019890Y017293D01*
X019842Y017341D01*
X019789Y017341D01*
X019701Y017429D01*
X019701Y017789D01*
X019771Y017859D01*
X019701Y017929D01*
X019701Y018289D01*
X019771Y018359D01*
X019701Y018429D01*
X019701Y018789D01*
X019771Y018859D01*
X019701Y018929D01*
X019701Y019193D01*
X019356Y019193D01*
X019273Y019110D01*
X019273Y017710D01*
X019156Y017593D01*
X018971Y017409D01*
X018800Y017409D01*
X018732Y017341D01*
X017741Y017341D01*
X017654Y017429D01*
X017654Y017693D01*
X017490Y017693D01*
X017373Y017810D01*
X017190Y017993D01*
X013490Y017993D01*
X013373Y018110D01*
X012623Y018860D01*
X012623Y017960D01*
X012506Y017843D01*
X006348Y017843D01*
X006348Y017827D02*
X012763Y017827D01*
X012829Y017865D02*
X012567Y017714D01*
X012353Y017499D01*
X012201Y017237D01*
X012123Y016945D01*
X012123Y016642D01*
X012201Y016349D01*
X006348Y016349D01*
X006348Y016251D02*
X012258Y016251D01*
X012201Y016349D02*
X012353Y016087D01*
X012567Y015873D01*
X012829Y015722D01*
X013121Y015643D01*
X013424Y015643D01*
X013717Y015722D01*
X013979Y015873D01*
X014193Y016087D01*
X014344Y016349D01*
X038898Y016349D01*
X038808Y016251D02*
X014288Y016251D01*
X014344Y016349D02*
X014423Y016642D01*
X014423Y016945D01*
X014344Y017237D01*
X014193Y017499D01*
X013979Y017714D01*
X013717Y017865D01*
X013424Y017943D01*
X013121Y017943D01*
X012829Y017865D01*
X013054Y017925D02*
X012588Y017925D01*
X012623Y018024D02*
X013459Y018024D01*
X013491Y017925D02*
X017258Y017925D01*
X017356Y017827D02*
X013783Y017827D01*
X013953Y017728D02*
X017455Y017728D01*
X017573Y017893D02*
X017273Y018193D01*
X013573Y018193D01*
X012523Y019243D01*
X012523Y022643D01*
X012673Y022793D01*
X013473Y022793D01*
X013773Y022493D01*
X013773Y019993D01*
X014473Y019293D01*
X018773Y019293D01*
X018773Y017893D01*
X017573Y017893D01*
X017541Y017925D02*
X018773Y017925D01*
X018773Y018024D02*
X017442Y018024D01*
X017344Y018122D02*
X018773Y018122D01*
X018773Y018221D02*
X013545Y018221D01*
X013447Y018319D02*
X018773Y018319D01*
X018773Y018418D02*
X013348Y018418D01*
X013250Y018516D02*
X018773Y018516D01*
X018773Y018615D02*
X013151Y018615D01*
X013053Y018713D02*
X018773Y018713D01*
X018773Y018812D02*
X012954Y018812D01*
X012856Y018910D02*
X018773Y018910D01*
X018773Y019009D02*
X012757Y019009D01*
X012659Y019107D02*
X018773Y019107D01*
X018773Y019206D02*
X012560Y019206D01*
X012523Y019304D02*
X014462Y019304D01*
X014363Y019403D02*
X012523Y019403D01*
X012523Y019501D02*
X014265Y019501D01*
X014166Y019600D02*
X012523Y019600D01*
X012523Y019698D02*
X014068Y019698D01*
X013969Y019797D02*
X012523Y019797D01*
X012523Y019895D02*
X013871Y019895D01*
X013773Y019994D02*
X012523Y019994D01*
X012523Y020092D02*
X013773Y020092D01*
X013773Y020191D02*
X012523Y020191D01*
X012523Y020289D02*
X013773Y020289D01*
X013773Y020388D02*
X012523Y020388D01*
X012523Y020486D02*
X013773Y020486D01*
X013773Y020585D02*
X012523Y020585D01*
X012523Y020683D02*
X013773Y020683D01*
X013773Y020782D02*
X012523Y020782D01*
X012523Y020880D02*
X013773Y020880D01*
X013773Y020979D02*
X013442Y020979D01*
X013439Y020976D02*
X013571Y021109D01*
X013643Y021281D01*
X013643Y021468D01*
X013571Y021641D01*
X013439Y021773D01*
X013266Y021845D01*
X013079Y021845D01*
X012907Y021773D01*
X012774Y021641D01*
X012703Y021468D01*
X012703Y021281D01*
X012774Y021109D01*
X012907Y020976D01*
X013079Y020905D01*
X013266Y020905D01*
X013439Y020976D01*
X013540Y021077D02*
X013773Y021077D01*
X013773Y021176D02*
X013599Y021176D01*
X013640Y021274D02*
X013773Y021274D01*
X013773Y021373D02*
X013643Y021373D01*
X013642Y021471D02*
X013773Y021471D01*
X013773Y021570D02*
X013601Y021570D01*
X013544Y021668D02*
X013773Y021668D01*
X013773Y021767D02*
X013445Y021767D01*
X013773Y021865D02*
X012523Y021865D01*
X012523Y021767D02*
X012900Y021767D01*
X012802Y021668D02*
X012523Y021668D01*
X012523Y021570D02*
X012745Y021570D01*
X012704Y021471D02*
X012523Y021471D01*
X012523Y021373D02*
X012703Y021373D01*
X012706Y021274D02*
X012523Y021274D01*
X012523Y021176D02*
X012747Y021176D01*
X012806Y021077D02*
X012523Y021077D01*
X012523Y020979D02*
X012904Y020979D01*
X013973Y021066D02*
X013973Y022576D01*
X013823Y022726D01*
X013973Y022876D01*
X013973Y023976D01*
X013856Y024093D01*
X013673Y024276D01*
X013765Y024369D01*
X013765Y024818D01*
X013642Y024940D01*
X013194Y024940D01*
X013073Y024819D01*
X013001Y024891D01*
X013031Y024921D01*
X013078Y025033D01*
X013078Y025154D01*
X013031Y025266D01*
X012946Y025352D01*
X012834Y025398D01*
X012712Y025398D01*
X012623Y025361D01*
X012623Y025718D01*
X020361Y025718D01*
X020223Y025580D01*
X020223Y025207D01*
X020486Y024943D01*
X020859Y024943D01*
X021123Y025207D01*
X021123Y025580D01*
X020984Y025718D01*
X021361Y025718D01*
X021223Y025580D01*
X021223Y025207D01*
X021486Y024943D01*
X021859Y024943D01*
X022123Y025207D01*
X022123Y025580D01*
X021984Y025718D01*
X022361Y025718D01*
X022223Y025580D01*
X022223Y025207D01*
X022486Y024943D01*
X022859Y024943D01*
X023123Y025207D01*
X023123Y025580D01*
X022984Y025718D01*
X023361Y025718D01*
X023223Y025580D01*
X023223Y025207D01*
X023486Y024943D01*
X023859Y024943D01*
X024123Y025207D01*
X024123Y025580D01*
X023984Y025718D01*
X024361Y025718D01*
X024223Y025580D01*
X024223Y025226D01*
X023973Y024976D01*
X023973Y024730D01*
X023859Y024843D01*
X023486Y024843D01*
X023223Y024580D01*
X023223Y024207D01*
X023336Y024093D01*
X023009Y024093D01*
X023123Y024207D01*
X023123Y024580D01*
X022859Y024843D01*
X022486Y024843D01*
X022223Y024580D01*
X022223Y024207D01*
X022336Y024093D01*
X022009Y024093D01*
X022123Y024207D01*
X022123Y024580D01*
X021859Y024843D01*
X021486Y024843D01*
X021223Y024580D01*
X021223Y024207D01*
X021336Y024093D01*
X021009Y024093D01*
X021123Y024207D01*
X021123Y024580D01*
X020859Y024843D01*
X020486Y024843D01*
X020236Y024593D01*
X020005Y024593D01*
X020043Y024684D01*
X020043Y024843D01*
X019982Y024990D01*
X019869Y025102D01*
X019722Y025163D01*
X019563Y025163D01*
X019416Y025102D01*
X019304Y024990D01*
X019243Y024843D01*
X019243Y024684D01*
X019304Y024537D01*
X019347Y024493D01*
X018290Y024493D01*
X017873Y024076D01*
X017873Y024060D01*
X017795Y024028D01*
X017648Y023881D01*
X017568Y023688D01*
X017568Y023479D01*
X017648Y023286D01*
X017795Y023138D01*
X017988Y023058D01*
X018197Y023058D01*
X018390Y023138D01*
X018538Y023286D01*
X018618Y023479D01*
X018618Y023688D01*
X018538Y023881D01*
X018390Y024028D01*
X018456Y024093D01*
X019132Y024093D01*
X018975Y024028D01*
X018828Y023881D01*
X018748Y023688D01*
X018748Y023479D01*
X018828Y023286D01*
X018920Y023193D01*
X018600Y023193D01*
X018295Y022888D01*
X018197Y022928D01*
X017988Y022928D01*
X017795Y022848D01*
X017648Y022701D01*
X017568Y022508D01*
X017568Y022299D01*
X017648Y022106D01*
X017760Y021993D01*
X015736Y021993D01*
X015470Y022259D01*
X015493Y022314D01*
X015493Y022493D01*
X015424Y022658D01*
X015298Y022785D01*
X015132Y022853D01*
X014953Y022853D01*
X014788Y022785D01*
X014661Y022658D01*
X014593Y022493D01*
X014593Y022314D01*
X014661Y022148D01*
X014788Y022022D01*
X014953Y021953D01*
X015132Y021953D01*
X015187Y021976D01*
X015453Y021710D01*
X015570Y021593D01*
X017720Y021593D01*
X017648Y021521D01*
X017568Y021328D01*
X017568Y021119D01*
X017648Y020926D01*
X017795Y020778D01*
X017988Y020698D01*
X018197Y020698D01*
X018390Y020778D01*
X018538Y020926D01*
X018618Y021119D01*
X018618Y021328D01*
X018538Y021521D01*
X018465Y021593D01*
X018900Y021593D01*
X018828Y021521D01*
X018748Y021328D01*
X018748Y021119D01*
X018828Y020926D01*
X018975Y020778D01*
X019168Y020698D01*
X019377Y020698D01*
X019570Y020778D01*
X019718Y020926D01*
X019798Y021119D01*
X019798Y021328D01*
X019765Y021408D01*
X019812Y021388D01*
X019934Y021388D01*
X020046Y021435D01*
X020076Y021465D01*
X020076Y021347D01*
X020091Y021310D01*
X020119Y021282D01*
X020156Y021267D01*
X020324Y021267D01*
X020324Y021535D01*
X020421Y021535D01*
X020421Y021267D01*
X020590Y021267D01*
X020626Y021282D01*
X020654Y021310D01*
X020670Y021347D01*
X020670Y021535D01*
X020421Y021535D01*
X020421Y021632D01*
X020670Y021632D01*
X020670Y021820D01*
X020654Y021857D01*
X020626Y021885D01*
X020623Y021886D01*
X020632Y021886D01*
X020720Y021974D01*
X020720Y021992D01*
X021060Y021992D01*
X021060Y021676D01*
X021110Y021626D01*
X021110Y021601D01*
X021110Y021576D01*
X021060Y021526D01*
X021060Y021282D01*
X021148Y021194D01*
X021484Y021194D01*
X021514Y021121D01*
X021600Y021035D01*
X021712Y020988D01*
X021834Y020988D01*
X021873Y021005D01*
X021873Y020653D01*
X021872Y020652D01*
X021872Y020193D01*
X020190Y020193D01*
X020043Y020046D01*
X020043Y020123D01*
X019982Y020270D01*
X019869Y020382D01*
X019722Y020443D01*
X019563Y020443D01*
X019416Y020382D01*
X019304Y020270D01*
X019243Y020123D01*
X019243Y019964D01*
X019304Y019817D01*
X019327Y019793D01*
X015756Y019793D01*
X014578Y020971D01*
X014578Y021054D01*
X014531Y021166D01*
X014446Y021252D01*
X014334Y021298D01*
X014212Y021298D01*
X014100Y021252D01*
X014014Y021166D01*
X013973Y021066D01*
X013973Y021077D02*
X013978Y021077D01*
X013973Y021176D02*
X014024Y021176D01*
X013973Y021274D02*
X014154Y021274D01*
X013973Y021373D02*
X014672Y021373D01*
X014658Y021340D02*
X014688Y021413D01*
X014732Y021478D01*
X014788Y021534D01*
X014853Y021578D01*
X014926Y021608D01*
X014993Y021621D01*
X014993Y021273D01*
X014993Y021173D01*
X015093Y021173D01*
X015093Y020825D01*
X015160Y020839D01*
X015232Y020869D01*
X015298Y020913D01*
X015354Y020968D01*
X015397Y021034D01*
X015427Y021107D01*
X015441Y021173D01*
X015093Y021173D01*
X015093Y021273D01*
X015441Y021273D01*
X015427Y021340D01*
X015397Y021413D01*
X015354Y021478D01*
X015298Y021534D01*
X015232Y021578D01*
X015160Y021608D01*
X015093Y021621D01*
X015093Y021273D01*
X014993Y021273D01*
X014645Y021273D01*
X014658Y021340D01*
X014645Y021274D02*
X014391Y021274D01*
X014522Y021176D02*
X014993Y021176D01*
X014993Y021173D02*
X014645Y021173D01*
X014658Y021107D01*
X014688Y021034D01*
X014732Y020968D01*
X014788Y020913D01*
X014853Y020869D01*
X014926Y020839D01*
X014993Y020825D01*
X014993Y021173D01*
X014993Y021077D02*
X015093Y021077D01*
X015093Y020979D02*
X014993Y020979D01*
X014993Y020880D02*
X015093Y020880D01*
X015250Y020880D02*
X017693Y020880D01*
X017626Y020979D02*
X015361Y020979D01*
X015415Y021077D02*
X017585Y021077D01*
X017568Y021176D02*
X015093Y021176D01*
X015093Y021274D02*
X014993Y021274D01*
X014993Y021373D02*
X015093Y021373D01*
X015093Y021471D02*
X014993Y021471D01*
X014993Y021570D02*
X015093Y021570D01*
X015244Y021570D02*
X017697Y021570D01*
X017627Y021471D02*
X015358Y021471D01*
X015414Y021373D02*
X017587Y021373D01*
X017568Y021274D02*
X015441Y021274D01*
X014841Y021570D02*
X013973Y021570D01*
X013973Y021668D02*
X015495Y021668D01*
X015396Y021767D02*
X013973Y021767D01*
X013973Y021865D02*
X015298Y021865D01*
X015199Y021964D02*
X015158Y021964D01*
X014928Y021964D02*
X013973Y021964D01*
X013973Y022062D02*
X014747Y022062D01*
X014656Y022161D02*
X013973Y022161D01*
X013973Y022259D02*
X014615Y022259D01*
X014593Y022358D02*
X013973Y022358D01*
X013973Y022456D02*
X014593Y022456D01*
X014619Y022555D02*
X013973Y022555D01*
X013896Y022653D02*
X014659Y022653D01*
X014755Y022752D02*
X013848Y022752D01*
X013947Y022850D02*
X014946Y022850D01*
X015139Y022850D02*
X017800Y022850D01*
X017699Y022752D02*
X015331Y022752D01*
X015426Y022653D02*
X017628Y022653D01*
X017587Y022555D02*
X015467Y022555D01*
X015493Y022456D02*
X017568Y022456D01*
X017568Y022358D02*
X015493Y022358D01*
X015470Y022259D02*
X017584Y022259D01*
X017625Y022161D02*
X015568Y022161D01*
X015667Y022062D02*
X017691Y022062D01*
X018093Y022403D02*
X018683Y022993D01*
X019773Y022993D01*
X020673Y023893D01*
X023973Y023893D01*
X024173Y024093D01*
X024173Y024893D01*
X024673Y025393D01*
X024350Y025707D02*
X023996Y025707D01*
X024094Y025608D02*
X024251Y025608D01*
X024223Y025510D02*
X024123Y025510D01*
X024123Y025411D02*
X024223Y025411D01*
X024223Y025313D02*
X024123Y025313D01*
X024123Y025214D02*
X024211Y025214D01*
X024113Y025116D02*
X024032Y025116D01*
X024014Y025017D02*
X023933Y025017D01*
X023973Y024919D02*
X020011Y024919D01*
X020043Y024820D02*
X020463Y024820D01*
X020365Y024722D02*
X020043Y024722D01*
X020018Y024623D02*
X020266Y024623D01*
X020073Y024393D02*
X019973Y024293D01*
X018373Y024293D01*
X018073Y023993D01*
X018073Y023603D01*
X018093Y023583D01*
X018561Y023343D02*
X018804Y023343D01*
X018763Y023441D02*
X018602Y023441D01*
X018618Y023540D02*
X018748Y023540D01*
X018748Y023638D02*
X018618Y023638D01*
X018597Y023737D02*
X018768Y023737D01*
X018809Y023835D02*
X018557Y023835D01*
X018485Y023934D02*
X018881Y023934D01*
X018985Y024032D02*
X018395Y024032D01*
X018125Y024328D02*
X013724Y024328D01*
X013720Y024229D02*
X018026Y024229D01*
X017928Y024131D02*
X013818Y024131D01*
X013917Y024032D02*
X014951Y024032D01*
X014953Y024033D02*
X014788Y023965D01*
X014661Y023838D01*
X014593Y023673D01*
X014593Y023494D01*
X014661Y023328D01*
X014788Y023202D01*
X014953Y023133D01*
X015132Y023133D01*
X015298Y023202D01*
X015424Y023328D01*
X015493Y023494D01*
X015493Y023673D01*
X015424Y023838D01*
X015298Y023965D01*
X015132Y024033D01*
X014953Y024033D01*
X015135Y024032D02*
X017805Y024032D01*
X017701Y023934D02*
X015329Y023934D01*
X015426Y023835D02*
X017629Y023835D01*
X017588Y023737D02*
X015466Y023737D01*
X015493Y023638D02*
X017568Y023638D01*
X017568Y023540D02*
X015493Y023540D01*
X015471Y023441D02*
X017583Y023441D01*
X017624Y023343D02*
X015430Y023343D01*
X015340Y023244D02*
X017689Y023244D01*
X017788Y023146D02*
X015163Y023146D01*
X014923Y023146D02*
X013973Y023146D01*
X013973Y023244D02*
X014745Y023244D01*
X014655Y023343D02*
X013973Y023343D01*
X013973Y023441D02*
X014615Y023441D01*
X014593Y023540D02*
X013973Y023540D01*
X013973Y023638D02*
X014593Y023638D01*
X014619Y023737D02*
X013973Y023737D01*
X013973Y023835D02*
X014660Y023835D01*
X014757Y023934D02*
X013973Y023934D01*
X013773Y023893D02*
X013773Y022959D01*
X013173Y022359D01*
X013514Y022752D02*
X012631Y022752D01*
X012533Y022653D02*
X013613Y022653D01*
X013711Y022555D02*
X012523Y022555D01*
X012523Y022456D02*
X013773Y022456D01*
X013773Y022358D02*
X012523Y022358D01*
X012523Y022259D02*
X013773Y022259D01*
X013773Y022161D02*
X012523Y022161D01*
X012523Y022062D02*
X013773Y022062D01*
X013773Y021964D02*
X012523Y021964D01*
X013973Y021471D02*
X014727Y021471D01*
X014670Y021077D02*
X014568Y021077D01*
X014578Y020979D02*
X014725Y020979D01*
X014669Y020880D02*
X014836Y020880D01*
X014767Y020782D02*
X017792Y020782D01*
X018394Y020782D02*
X018972Y020782D01*
X018873Y020880D02*
X018492Y020880D01*
X018560Y020979D02*
X018806Y020979D01*
X018765Y021077D02*
X018601Y021077D01*
X018618Y021176D02*
X018748Y021176D01*
X018748Y021274D02*
X018618Y021274D01*
X018599Y021373D02*
X018767Y021373D01*
X018807Y021471D02*
X018558Y021471D01*
X018489Y021570D02*
X018877Y021570D01*
X019773Y021793D02*
X019873Y021693D01*
X019773Y021793D02*
X015653Y021793D01*
X015043Y022403D01*
X013973Y022949D02*
X018356Y022949D01*
X018454Y023047D02*
X013973Y023047D01*
X013773Y023893D02*
X013418Y024248D01*
X013418Y024593D01*
X013765Y024623D02*
X013898Y024623D01*
X013873Y024684D02*
X013934Y024537D01*
X014046Y024424D01*
X014193Y024363D01*
X014352Y024363D01*
X014499Y024424D01*
X014612Y024537D01*
X014673Y024684D01*
X014673Y024843D01*
X014612Y024990D01*
X014499Y025102D01*
X014352Y025163D01*
X014193Y025163D01*
X014046Y025102D01*
X013934Y024990D01*
X013873Y024843D01*
X013873Y024684D01*
X013873Y024722D02*
X013765Y024722D01*
X013762Y024820D02*
X013873Y024820D01*
X013904Y024919D02*
X013664Y024919D01*
X013961Y025017D02*
X013072Y025017D01*
X013078Y025116D02*
X014079Y025116D01*
X014467Y025116D02*
X019449Y025116D01*
X019331Y025017D02*
X014584Y025017D01*
X014641Y024919D02*
X019274Y024919D01*
X019243Y024820D02*
X014673Y024820D01*
X014673Y024722D02*
X019243Y024722D01*
X019268Y024623D02*
X014648Y024623D01*
X014600Y024525D02*
X019316Y024525D01*
X020073Y024393D02*
X020673Y024393D01*
X020981Y024722D02*
X021365Y024722D01*
X021463Y024820D02*
X020882Y024820D01*
X020933Y025017D02*
X021412Y025017D01*
X021314Y025116D02*
X021032Y025116D01*
X021123Y025214D02*
X021223Y025214D01*
X021223Y025313D02*
X021123Y025313D01*
X021123Y025411D02*
X021223Y025411D01*
X021223Y025510D02*
X021123Y025510D01*
X021094Y025608D02*
X021251Y025608D01*
X021350Y025707D02*
X020996Y025707D01*
X020350Y025707D02*
X012623Y025707D01*
X012623Y025608D02*
X020251Y025608D01*
X020223Y025510D02*
X012623Y025510D01*
X012623Y025411D02*
X020223Y025411D01*
X020223Y025313D02*
X012985Y025313D01*
X013053Y025214D02*
X020223Y025214D01*
X020314Y025116D02*
X019837Y025116D01*
X019954Y025017D02*
X020412Y025017D01*
X021079Y024623D02*
X021266Y024623D01*
X021223Y024525D02*
X021123Y024525D01*
X021123Y024426D02*
X021223Y024426D01*
X021223Y024328D02*
X021123Y024328D01*
X021123Y024229D02*
X021223Y024229D01*
X021299Y024131D02*
X021047Y024131D01*
X020973Y023693D02*
X024173Y023693D01*
X024373Y023893D01*
X024973Y023893D01*
X025173Y024093D01*
X025173Y024893D01*
X025673Y025393D01*
X023973Y024820D02*
X023882Y024820D01*
X023463Y024820D02*
X022882Y024820D01*
X022981Y024722D02*
X023365Y024722D01*
X023266Y024623D02*
X023079Y024623D01*
X023123Y024525D02*
X023223Y024525D01*
X023223Y024426D02*
X023123Y024426D01*
X023123Y024328D02*
X023223Y024328D01*
X023223Y024229D02*
X023123Y024229D01*
X023047Y024131D02*
X023299Y024131D01*
X022299Y024131D02*
X022047Y024131D01*
X022123Y024229D02*
X022223Y024229D01*
X022223Y024328D02*
X022123Y024328D01*
X022123Y024426D02*
X022223Y024426D01*
X022223Y024525D02*
X022123Y024525D01*
X022079Y024623D02*
X022266Y024623D01*
X022365Y024722D02*
X021981Y024722D01*
X021882Y024820D02*
X022463Y024820D01*
X022412Y025017D02*
X021933Y025017D01*
X022032Y025116D02*
X022314Y025116D01*
X022223Y025214D02*
X022123Y025214D01*
X022123Y025313D02*
X022223Y025313D01*
X022223Y025411D02*
X022123Y025411D01*
X022123Y025510D02*
X022223Y025510D01*
X022251Y025608D02*
X022094Y025608D01*
X021996Y025707D02*
X022350Y025707D01*
X022996Y025707D02*
X023350Y025707D01*
X023251Y025608D02*
X023094Y025608D01*
X023123Y025510D02*
X023223Y025510D01*
X023223Y025411D02*
X023123Y025411D01*
X023123Y025313D02*
X023223Y025313D01*
X023223Y025214D02*
X023123Y025214D01*
X023032Y025116D02*
X023314Y025116D01*
X023412Y025017D02*
X022933Y025017D01*
X020973Y023693D02*
X020773Y023493D01*
X020773Y022593D01*
X020977Y022389D01*
X021385Y022389D01*
X021385Y022192D02*
X020374Y022192D01*
X020373Y022193D01*
X020373Y022693D01*
X020373Y022253D02*
X020433Y022192D01*
X021385Y022192D01*
X021385Y021995D02*
X021671Y021995D01*
X021773Y022093D01*
X022273Y021593D01*
X022273Y021159D01*
X022538Y020893D01*
X022473Y021274D02*
X022694Y021274D01*
X022665Y021373D02*
X022473Y021373D01*
X022473Y021471D02*
X022623Y021471D01*
X022615Y021570D02*
X022473Y021570D01*
X022473Y021668D02*
X022615Y021668D01*
X022615Y021767D02*
X022382Y021767D01*
X022284Y021865D02*
X022615Y021865D01*
X022615Y021964D02*
X022185Y021964D01*
X022087Y022062D02*
X022615Y022062D01*
X022659Y022161D02*
X022075Y022161D01*
X022034Y022259D02*
X022623Y022259D01*
X022573Y022193D02*
X022574Y022192D01*
X022940Y022192D01*
X022940Y021995D02*
X023275Y021995D01*
X023373Y022093D01*
X024473Y022093D01*
X024749Y021964D02*
X029326Y021964D01*
X029326Y022062D02*
X024778Y022062D01*
X024775Y022161D02*
X029326Y022161D01*
X029329Y022259D02*
X024734Y022259D01*
X024631Y022358D02*
X029342Y022358D01*
X029326Y022456D02*
X023573Y022456D01*
X023573Y022358D02*
X024314Y022358D01*
X024269Y021865D02*
X023428Y021865D01*
X023265Y021767D02*
X029326Y021767D01*
X029326Y021865D02*
X024676Y021865D01*
X023550Y021176D02*
X029326Y021176D01*
X029326Y021274D02*
X023187Y021274D01*
X023215Y021373D02*
X029326Y021373D01*
X029326Y021471D02*
X023258Y021471D01*
X023223Y021393D02*
X022923Y021393D01*
X022940Y021373D02*
X022940Y021373D01*
X022940Y021274D02*
X022940Y021274D01*
X023265Y021570D02*
X029326Y021570D01*
X029357Y021668D02*
X023265Y021668D01*
X023373Y022093D02*
X023373Y022893D01*
X023673Y023193D01*
X024473Y023193D01*
X024573Y023293D01*
X025073Y023293D01*
X025473Y023693D01*
X028773Y023693D01*
X029173Y024093D01*
X029173Y024893D01*
X029673Y025393D01*
X031051Y025393D01*
X031102Y025342D01*
X031151Y025293D01*
X032673Y025293D01*
X032973Y024993D01*
X037473Y024993D01*
X037773Y024693D01*
X037773Y024093D01*
X038373Y023493D01*
X038773Y023493D01*
X039073Y023193D01*
X039073Y018693D01*
X039073Y018293D01*
X039673Y017693D01*
X040573Y017693D01*
X040621Y017645D01*
X040621Y017361D01*
X040818Y017361D02*
X040818Y016948D01*
X041073Y016693D01*
X042773Y016693D01*
X043073Y016993D01*
X043343Y017137D02*
X043418Y017137D01*
X043603Y017137D02*
X043703Y017137D01*
X043703Y017039D02*
X043603Y017039D01*
X043603Y016940D02*
X043703Y016940D01*
X043703Y016842D02*
X046043Y016842D01*
X046043Y016923D02*
X046043Y016744D01*
X046111Y016578D01*
X046238Y016452D01*
X046403Y016383D01*
X046582Y016383D01*
X046748Y016452D01*
X046874Y016578D01*
X046943Y016744D01*
X046943Y016923D01*
X046874Y017088D01*
X046748Y017215D01*
X046582Y017283D01*
X046403Y017283D01*
X046238Y017215D01*
X046111Y017088D01*
X046043Y016923D01*
X046050Y016940D02*
X044033Y016940D01*
X043983Y017039D02*
X046091Y017039D01*
X046160Y017137D02*
X043888Y017137D01*
X043262Y017236D02*
X046289Y017236D01*
X046697Y017236D02*
X049173Y017236D01*
X049173Y017334D02*
X043078Y017334D01*
X043045Y017433D02*
X049173Y017433D01*
X049173Y017531D02*
X042966Y017531D01*
X042773Y017293D02*
X042373Y016893D01*
X041173Y016893D01*
X041015Y017051D01*
X041015Y017361D01*
X041212Y017630D02*
X041212Y017630D01*
X041372Y017531D02*
X042580Y017531D01*
X042500Y017433D02*
X041372Y017433D01*
X041372Y017334D02*
X042468Y017334D01*
X042433Y017236D02*
X041372Y017236D01*
X041360Y017137D02*
X042334Y017137D01*
X041673Y017193D02*
X041673Y017293D01*
X040890Y016593D02*
X040690Y016593D01*
X040573Y016476D01*
X040497Y016400D01*
X040446Y016452D01*
X040334Y016498D01*
X040278Y016498D01*
X040278Y016554D01*
X040260Y016597D01*
X040427Y016764D01*
X040427Y017086D01*
X040449Y017086D01*
X040499Y017036D01*
X040618Y017036D01*
X040618Y016865D01*
X040873Y016610D01*
X040890Y016593D01*
X040838Y016645D02*
X040307Y016645D01*
X040278Y016546D02*
X040643Y016546D01*
X040545Y016448D02*
X040450Y016448D01*
X040621Y016241D02*
X040773Y016393D01*
X043473Y016393D01*
X043773Y016093D01*
X044773Y016093D01*
X046053Y016093D01*
X046493Y015653D01*
X046943Y015660D02*
X049173Y015660D01*
X049173Y015758D02*
X046936Y015758D01*
X046896Y015857D02*
X049173Y015857D01*
X049173Y015955D02*
X046827Y015955D01*
X046702Y016054D02*
X049173Y016054D01*
X049173Y016152D02*
X046277Y016152D01*
X046178Y016251D02*
X049173Y016251D01*
X049173Y016349D02*
X044948Y016349D01*
X044598Y016349D02*
X043800Y016349D01*
X043816Y016448D02*
X046248Y016448D01*
X046143Y016546D02*
X043952Y016546D01*
X044016Y016645D02*
X046084Y016645D01*
X046043Y016743D02*
X044047Y016743D01*
X043373Y016193D02*
X043673Y015893D01*
X043673Y015693D01*
X045173Y015693D01*
X045448Y015561D02*
X046044Y015561D01*
X046043Y015660D02*
X045478Y015660D01*
X045476Y015758D02*
X046049Y015758D01*
X046006Y015857D02*
X045435Y015857D01*
X045374Y015463D02*
X046085Y015463D01*
X046145Y015364D02*
X044020Y015364D01*
X044069Y015463D02*
X044972Y015463D01*
X043922Y015266D02*
X046252Y015266D01*
X046733Y015266D02*
X049143Y015266D01*
X049143Y015364D02*
X046840Y015364D01*
X046901Y015463D02*
X049143Y015463D01*
X049143Y015561D02*
X046942Y015561D01*
X046758Y014773D02*
X049143Y014773D01*
X049143Y014675D02*
X046839Y014675D01*
X046880Y014576D02*
X049143Y014576D01*
X049143Y014478D02*
X046543Y014478D01*
X046543Y014576D02*
X046443Y014576D01*
X046443Y014478D02*
X044103Y014478D01*
X044103Y014543D02*
X044103Y014364D01*
X044034Y014198D01*
X043908Y014072D01*
X043742Y014003D01*
X043563Y014003D01*
X043398Y014072D01*
X043271Y014198D01*
X043203Y014364D01*
X043203Y014543D01*
X043271Y014708D01*
X043398Y014835D01*
X043563Y014903D01*
X043742Y014903D01*
X043908Y014835D01*
X044034Y014708D01*
X044103Y014543D01*
X044089Y014576D02*
X046105Y014576D01*
X046146Y014675D02*
X044048Y014675D01*
X043969Y014773D02*
X046227Y014773D01*
X046443Y014773D02*
X046543Y014773D01*
X046543Y014675D02*
X046443Y014675D01*
X046443Y014379D02*
X046543Y014379D01*
X046543Y014281D02*
X046443Y014281D01*
X046443Y014182D02*
X046543Y014182D01*
X046543Y014084D02*
X046443Y014084D01*
X046401Y014084D02*
X043920Y014084D01*
X044018Y014182D02*
X046218Y014182D01*
X046140Y014281D02*
X044068Y014281D01*
X044103Y014379D02*
X046104Y014379D01*
X046585Y014084D02*
X046680Y014084D01*
X046845Y014281D02*
X046870Y014281D01*
X046882Y014379D02*
X049143Y014379D01*
X049143Y014281D02*
X047076Y014281D01*
X047215Y014182D02*
X049143Y014182D01*
X049143Y014084D02*
X047265Y014084D01*
X047278Y013985D02*
X049143Y013985D01*
X049143Y013887D02*
X047259Y013887D01*
X047199Y013788D02*
X049143Y013788D01*
X049143Y013690D02*
X047037Y013690D01*
X046773Y013793D02*
X046973Y013993D01*
X046773Y013793D02*
X040873Y013793D01*
X040603Y013523D01*
X040603Y013183D01*
X041103Y013183D02*
X041603Y013183D01*
X041613Y013193D01*
X041973Y013193D01*
X040684Y013887D02*
X040311Y013887D01*
X040364Y013788D02*
X040585Y013788D01*
X040487Y013690D02*
X040378Y013690D01*
X040073Y013693D02*
X040073Y013213D01*
X040103Y013183D01*
X039835Y013887D02*
X039805Y013887D01*
X039805Y013985D02*
X039981Y013985D01*
X040165Y013985D02*
X040782Y013985D01*
X041397Y014478D02*
X039805Y014478D01*
X039805Y014576D02*
X040722Y014576D01*
X040722Y014675D02*
X039754Y014675D01*
X039778Y014773D02*
X040990Y014773D01*
X040990Y014675D02*
X041087Y014675D01*
X041087Y014576D02*
X040990Y014576D01*
X040990Y014872D02*
X041087Y014872D01*
X041087Y014970D02*
X040990Y014970D01*
X040990Y015069D02*
X041087Y015069D01*
X041167Y015167D02*
X040690Y015167D01*
X040728Y015266D02*
X041096Y015266D01*
X041068Y015364D02*
X040728Y015364D01*
X040693Y015463D02*
X041020Y015463D01*
X041015Y015435D02*
X040973Y015393D01*
X041015Y015435D02*
X041015Y015806D01*
X041212Y015806D02*
X041212Y015554D01*
X041373Y015393D01*
X041707Y015059D01*
X041707Y014793D01*
X042074Y014773D02*
X043336Y014773D01*
X043258Y014675D02*
X042074Y014675D01*
X042074Y014576D02*
X043217Y014576D01*
X043203Y014478D02*
X042018Y014478D01*
X042074Y014872D02*
X043487Y014872D01*
X043818Y014872D02*
X049143Y014872D01*
X049143Y014970D02*
X042074Y014970D01*
X042057Y015069D02*
X049143Y015069D01*
X049143Y015167D02*
X041882Y015167D01*
X041783Y015266D02*
X043384Y015266D01*
X043285Y015364D02*
X041685Y015364D01*
X041674Y015463D02*
X043236Y015463D01*
X043203Y015561D02*
X041633Y015561D01*
X041526Y015660D02*
X043203Y015660D01*
X043218Y015758D02*
X041422Y015758D01*
X041422Y015857D02*
X043258Y015857D01*
X043328Y015955D02*
X041422Y015955D01*
X040873Y016193D02*
X043373Y016193D01*
X043673Y015693D02*
X043673Y015653D01*
X043653Y015633D01*
X043203Y014379D02*
X039805Y014379D01*
X039805Y014281D02*
X043237Y014281D01*
X043287Y014182D02*
X039749Y014182D01*
X039805Y014084D02*
X043386Y014084D01*
X044671Y013591D02*
X045455Y013591D01*
X045373Y013493D02*
X044765Y013493D01*
X044806Y013394D02*
X045332Y013394D01*
X045323Y013296D02*
X044823Y013296D01*
X044823Y013197D02*
X045330Y013197D01*
X045370Y013099D02*
X044784Y013099D01*
X044716Y013000D02*
X045450Y013000D01*
X045623Y012902D02*
X044571Y012902D01*
X044973Y012693D02*
X045423Y012243D01*
X045423Y011043D01*
X044848Y010468D01*
X041023Y010468D01*
X041023Y011493D01*
X042473Y011493D01*
X043573Y012693D01*
X044973Y012693D01*
X045060Y012606D02*
X043493Y012606D01*
X043403Y012508D02*
X045158Y012508D01*
X045257Y012409D02*
X043313Y012409D01*
X043222Y012311D02*
X045355Y012311D01*
X045423Y012212D02*
X043132Y012212D01*
X043042Y012114D02*
X045423Y012114D01*
X045423Y012015D02*
X042951Y012015D01*
X042861Y011917D02*
X045423Y011917D01*
X045423Y011818D02*
X042771Y011818D01*
X042680Y011720D02*
X045423Y011720D01*
X045423Y011621D02*
X042590Y011621D01*
X042500Y011523D02*
X045423Y011523D01*
X045423Y011424D02*
X041023Y011424D01*
X041023Y011326D02*
X045423Y011326D01*
X045423Y011227D02*
X041023Y011227D01*
X041023Y011129D02*
X045423Y011129D01*
X045410Y011030D02*
X041023Y011030D01*
X041023Y010932D02*
X045311Y010932D01*
X045213Y010833D02*
X041023Y010833D01*
X041023Y010735D02*
X045114Y010735D01*
X045016Y010636D02*
X041023Y010636D01*
X041023Y010538D02*
X044917Y010538D01*
X045102Y010439D02*
X049173Y010439D01*
X049173Y010538D02*
X047690Y010538D01*
X047817Y010572D02*
X048079Y010723D01*
X048293Y010937D01*
X048444Y011199D01*
X048523Y011492D01*
X048523Y011795D01*
X048444Y012087D01*
X048293Y012349D01*
X048079Y012564D01*
X047817Y012715D01*
X047524Y012793D01*
X047221Y012793D01*
X046929Y012715D01*
X046667Y012564D01*
X046453Y012349D01*
X046301Y012087D01*
X046223Y011795D01*
X046223Y011492D01*
X046301Y011199D01*
X046453Y010937D01*
X046667Y010723D01*
X046929Y010572D01*
X047221Y010493D01*
X047524Y010493D01*
X047817Y010572D01*
X047929Y010636D02*
X049173Y010636D01*
X049173Y010735D02*
X048091Y010735D01*
X048189Y010833D02*
X049173Y010833D01*
X049173Y010932D02*
X048288Y010932D01*
X048347Y011030D02*
X049173Y011030D01*
X049173Y011129D02*
X048404Y011129D01*
X048452Y011227D02*
X049143Y011227D01*
X049143Y011326D02*
X048478Y011326D01*
X048505Y011424D02*
X049143Y011424D01*
X049143Y011523D02*
X048523Y011523D01*
X048523Y011621D02*
X049143Y011621D01*
X049143Y011720D02*
X048523Y011720D01*
X048517Y011818D02*
X049143Y011818D01*
X049143Y011917D02*
X048490Y011917D01*
X048464Y012015D02*
X049143Y012015D01*
X049143Y012114D02*
X048429Y012114D01*
X048372Y012212D02*
X049143Y012212D01*
X049143Y012311D02*
X048315Y012311D01*
X048233Y012409D02*
X049143Y012409D01*
X049143Y012508D02*
X048135Y012508D01*
X048005Y012606D02*
X049143Y012606D01*
X049143Y012705D02*
X047834Y012705D01*
X046911Y012705D02*
X045244Y012705D01*
X045146Y012803D02*
X049143Y012803D01*
X049143Y012902D02*
X045823Y012902D01*
X045996Y013000D02*
X049143Y013000D01*
X049143Y013099D02*
X046075Y013099D01*
X046116Y013197D02*
X049143Y013197D01*
X049143Y013296D02*
X046123Y013296D01*
X046114Y013394D02*
X049143Y013394D01*
X049143Y013493D02*
X046073Y013493D01*
X045991Y013591D02*
X049143Y013591D01*
X049373Y013591D02*
X050122Y013591D01*
X050122Y013610D02*
X050122Y013442D01*
X050373Y013442D01*
X050373Y013345D01*
X050122Y013345D01*
X050122Y013177D01*
X050137Y013140D01*
X050165Y013112D01*
X050166Y013111D01*
X049675Y013111D01*
X049616Y013053D01*
X049616Y012734D01*
X049675Y012675D01*
X050373Y012675D01*
X050373Y012611D01*
X050158Y012611D01*
X050158Y012402D01*
X050140Y012402D01*
X050140Y012384D01*
X050158Y012384D01*
X050158Y012175D01*
X050373Y012175D01*
X050373Y012111D01*
X049675Y012111D01*
X049616Y012053D01*
X049616Y011734D01*
X049675Y011675D01*
X050373Y011675D01*
X050373Y011611D01*
X050158Y011611D01*
X050158Y011402D01*
X050140Y011402D01*
X050140Y011384D01*
X050158Y011384D01*
X050158Y011175D01*
X050373Y011175D01*
X050373Y008993D01*
X037373Y008993D01*
X037373Y010193D01*
X049373Y010193D01*
X049373Y021793D01*
X049621Y021793D01*
X049616Y021781D01*
X049616Y021652D01*
X050140Y021652D01*
X050140Y021634D01*
X050158Y021634D01*
X050158Y021425D01*
X050373Y021425D01*
X050373Y021361D01*
X049675Y021361D01*
X049616Y021303D01*
X049616Y020984D01*
X049675Y020925D01*
X050373Y020925D01*
X050373Y020861D01*
X050158Y020861D01*
X050158Y020652D01*
X050140Y020652D01*
X050140Y020634D01*
X050158Y020634D01*
X050158Y020425D01*
X050166Y020425D01*
X050165Y020425D01*
X050137Y020397D01*
X050122Y020360D01*
X050122Y020192D01*
X050373Y020192D01*
X050373Y020095D01*
X050122Y020095D01*
X050122Y019927D01*
X050137Y019890D01*
X050165Y019862D01*
X050202Y019846D01*
X050373Y019846D01*
X050121Y019846D01*
X050121Y019637D01*
X050103Y019637D01*
X050103Y019846D01*
X049659Y019846D01*
X049622Y019830D01*
X049594Y019802D01*
X049579Y019766D01*
X049579Y019637D01*
X050103Y019637D01*
X050103Y019619D01*
X049579Y019619D01*
X049579Y019490D01*
X049594Y019453D01*
X049622Y019425D01*
X049659Y019409D01*
X050103Y019409D01*
X050103Y019618D01*
X050121Y019618D01*
X050121Y019409D01*
X050373Y019409D01*
X050373Y019346D01*
X050121Y019346D01*
X050121Y019137D01*
X050103Y019137D01*
X050103Y019346D01*
X049659Y019346D01*
X049622Y019330D01*
X049594Y019302D01*
X049579Y019266D01*
X049579Y019137D01*
X050103Y019137D01*
X050103Y019119D01*
X049579Y019119D01*
X049579Y018990D01*
X049594Y018953D01*
X049622Y018925D01*
X049659Y018909D01*
X050103Y018909D01*
X050103Y019118D01*
X050121Y019118D01*
X050121Y018909D01*
X050373Y018909D01*
X050373Y018846D01*
X050121Y018846D01*
X050121Y018637D01*
X050103Y018637D01*
X050103Y018846D01*
X049659Y018846D01*
X049622Y018830D01*
X049594Y018802D01*
X049579Y018766D01*
X049579Y018637D01*
X050103Y018637D01*
X050103Y018619D01*
X049579Y018619D01*
X049579Y018490D01*
X049594Y018453D01*
X049622Y018425D01*
X049659Y018409D01*
X050103Y018409D01*
X050103Y018618D01*
X050121Y018618D01*
X050121Y018409D01*
X050373Y018409D01*
X050373Y018346D01*
X050121Y018346D01*
X050121Y018137D01*
X050103Y018137D01*
X050103Y018346D01*
X049659Y018346D01*
X049622Y018330D01*
X049594Y018302D01*
X049579Y018266D01*
X049579Y018137D01*
X050103Y018137D01*
X050103Y018119D01*
X049579Y018119D01*
X049579Y017990D01*
X049594Y017953D01*
X049622Y017925D01*
X049659Y017909D01*
X050103Y017909D01*
X050103Y018118D01*
X050121Y018118D01*
X050121Y017909D01*
X050373Y017909D01*
X050373Y015596D01*
X050121Y015596D01*
X050121Y015387D01*
X050103Y015387D01*
X050103Y015596D01*
X049659Y015596D01*
X049622Y015580D01*
X049594Y015552D01*
X049579Y015516D01*
X049579Y015387D01*
X050103Y015387D01*
X050103Y015369D01*
X049579Y015369D01*
X049579Y015240D01*
X049594Y015203D01*
X049622Y015175D01*
X049659Y015159D01*
X050103Y015159D01*
X050103Y015368D01*
X050121Y015368D01*
X050121Y015159D01*
X050373Y015159D01*
X050373Y015096D01*
X050121Y015096D01*
X050121Y014887D01*
X050103Y014887D01*
X050103Y015096D01*
X049659Y015096D01*
X049622Y015080D01*
X049594Y015052D01*
X049579Y015016D01*
X049579Y014887D01*
X050103Y014887D01*
X050103Y014869D01*
X049579Y014869D01*
X049579Y014740D01*
X049594Y014703D01*
X049622Y014675D01*
X049373Y014675D01*
X049373Y014773D02*
X049579Y014773D01*
X049622Y014675D02*
X049659Y014659D01*
X050103Y014659D01*
X050103Y014868D01*
X050121Y014868D01*
X050121Y014659D01*
X050373Y014659D01*
X050373Y014596D01*
X050121Y014596D01*
X050121Y014387D01*
X050103Y014387D01*
X050103Y014596D01*
X049659Y014596D01*
X049622Y014580D01*
X049594Y014552D01*
X049579Y014516D01*
X049579Y014387D01*
X050103Y014387D01*
X050103Y014369D01*
X049579Y014369D01*
X049579Y014240D01*
X049594Y014203D01*
X049622Y014175D01*
X049659Y014159D01*
X050103Y014159D01*
X050103Y014368D01*
X050121Y014368D01*
X050121Y014159D01*
X050373Y014159D01*
X050373Y014096D01*
X050121Y014096D01*
X050121Y013887D01*
X050103Y013887D01*
X050103Y014096D01*
X049659Y014096D01*
X049622Y014080D01*
X049594Y014052D01*
X049579Y014016D01*
X049579Y013887D01*
X049373Y013887D01*
X049373Y013985D02*
X049579Y013985D01*
X049579Y013887D02*
X050103Y013887D01*
X050121Y013887D01*
X050103Y013887D02*
X050103Y013869D01*
X049579Y013869D01*
X049579Y013740D01*
X049594Y013703D01*
X049622Y013675D01*
X049659Y013659D01*
X050103Y013659D01*
X050103Y013868D01*
X050121Y013868D01*
X050121Y013659D01*
X050150Y013659D01*
X050137Y013647D01*
X050122Y013610D01*
X050121Y013690D02*
X050103Y013690D01*
X050103Y013788D02*
X050121Y013788D01*
X050103Y013985D02*
X050121Y013985D01*
X050121Y014084D02*
X050103Y014084D01*
X050103Y014182D02*
X050121Y014182D01*
X050121Y014281D02*
X050103Y014281D01*
X050103Y014379D02*
X049373Y014379D01*
X049373Y014281D02*
X049579Y014281D01*
X049614Y014182D02*
X049373Y014182D01*
X049373Y014084D02*
X049630Y014084D01*
X049579Y013788D02*
X049373Y013788D01*
X049373Y013690D02*
X049607Y013690D01*
X049373Y013493D02*
X050122Y013493D01*
X050122Y013296D02*
X049373Y013296D01*
X049373Y013394D02*
X050373Y013394D01*
X050122Y013197D02*
X049373Y013197D01*
X049373Y013099D02*
X049662Y013099D01*
X049616Y013000D02*
X049373Y013000D01*
X049373Y012902D02*
X049616Y012902D01*
X049616Y012803D02*
X049373Y012803D01*
X049373Y012705D02*
X049645Y012705D01*
X049684Y012606D02*
X049373Y012606D01*
X049373Y012508D02*
X049616Y012508D01*
X049616Y012531D02*
X049616Y012402D01*
X050140Y012402D01*
X050140Y012611D01*
X049696Y012611D01*
X049659Y012596D01*
X049631Y012568D01*
X049616Y012531D01*
X049616Y012409D02*
X049373Y012409D01*
X049373Y012311D02*
X049616Y012311D01*
X049616Y012255D02*
X049631Y012219D01*
X049659Y012190D01*
X049696Y012175D01*
X050140Y012175D01*
X050140Y012384D01*
X049616Y012384D01*
X049616Y012255D01*
X049638Y012212D02*
X049373Y012212D01*
X049373Y012114D02*
X050373Y012114D01*
X050158Y012212D02*
X050140Y012212D01*
X050140Y012311D02*
X050158Y012311D01*
X050158Y012409D02*
X050140Y012409D01*
X050140Y012508D02*
X050158Y012508D01*
X050158Y012606D02*
X050140Y012606D01*
X050149Y012893D02*
X051373Y012893D01*
X051573Y013093D01*
X051573Y013693D01*
X051473Y013793D01*
X051473Y015293D01*
X051573Y015393D01*
X052143Y015393D01*
X052159Y015378D01*
X052742Y015364D02*
X053153Y015364D01*
X053163Y015266D02*
X052742Y015266D01*
X052712Y015167D02*
X053204Y015167D01*
X053153Y015463D02*
X052742Y015463D01*
X052739Y015561D02*
X053180Y015561D01*
X053220Y015660D02*
X050573Y015660D01*
X050573Y015758D02*
X053302Y015758D01*
X053433Y015857D02*
X050573Y015857D01*
X050573Y015955D02*
X054998Y015955D01*
X054998Y015857D02*
X053913Y015857D01*
X054043Y015758D02*
X054998Y015758D01*
X054998Y015660D02*
X054125Y015660D01*
X054166Y015561D02*
X054998Y015561D01*
X054998Y015463D02*
X054193Y015463D01*
X054193Y015364D02*
X054998Y015364D01*
X054998Y015266D02*
X054183Y015266D01*
X054142Y015167D02*
X054998Y015167D01*
X054998Y015069D02*
X054084Y015069D01*
X054018Y014970D02*
X054998Y014970D01*
X054998Y014872D02*
X054116Y014872D01*
X054215Y014773D02*
X054998Y014773D01*
X054998Y014675D02*
X054283Y014675D01*
X054283Y014576D02*
X054998Y014576D01*
X054998Y014478D02*
X054371Y014478D01*
X054470Y014379D02*
X054998Y014379D01*
X054998Y014281D02*
X054473Y014281D01*
X054473Y014182D02*
X054998Y014182D01*
X054998Y014084D02*
X054473Y014084D01*
X054473Y013985D02*
X054998Y013985D01*
X054998Y013887D02*
X054473Y013887D01*
X054473Y013788D02*
X054998Y013788D01*
X054998Y013690D02*
X054473Y013690D01*
X054473Y013591D02*
X054998Y013591D01*
X054998Y013493D02*
X054473Y013493D01*
X054473Y013394D02*
X054998Y013394D01*
X054998Y013296D02*
X054473Y013296D01*
X054473Y013197D02*
X054998Y013197D01*
X054998Y013099D02*
X054473Y013099D01*
X054473Y013000D02*
X054998Y013000D01*
X054998Y012902D02*
X054473Y012902D01*
X054473Y012803D02*
X054998Y012803D01*
X054998Y012705D02*
X054473Y012705D01*
X054473Y012606D02*
X054998Y012606D01*
X054998Y012508D02*
X054473Y012508D01*
X054473Y012409D02*
X054998Y012409D01*
X054998Y012311D02*
X054418Y012311D01*
X054320Y012212D02*
X054998Y012212D01*
X054998Y012114D02*
X054265Y012114D01*
X054265Y012015D02*
X054998Y012015D01*
X054998Y011917D02*
X054265Y011917D01*
X054214Y011818D02*
X054998Y011818D01*
X054998Y011720D02*
X053428Y011720D01*
X053476Y011621D02*
X054998Y011621D01*
X054998Y011523D02*
X053549Y011523D01*
X053578Y011424D02*
X054998Y011424D01*
X054998Y011326D02*
X053575Y011326D01*
X053534Y011227D02*
X054998Y011227D01*
X054998Y011129D02*
X053431Y011129D01*
X053273Y011393D02*
X053228Y011439D01*
X053228Y012093D01*
X053524Y011818D02*
X053622Y011818D01*
X053918Y012093D02*
X054273Y012448D01*
X054273Y014293D01*
X054157Y014409D01*
X053673Y014409D01*
X051273Y014379D02*
X050708Y014379D01*
X050708Y014281D02*
X051273Y014281D01*
X051273Y014182D02*
X051172Y014182D01*
X050974Y014182D02*
X050708Y014182D01*
X050708Y014084D02*
X050832Y014084D01*
X050781Y013985D02*
X050708Y013985D01*
X050708Y013887D02*
X050768Y013887D01*
X050786Y013788D02*
X050708Y013788D01*
X050767Y013690D02*
X050778Y013690D01*
X051073Y013893D02*
X051073Y013359D01*
X051107Y013393D01*
X052196Y012893D02*
X052673Y012893D01*
X052873Y012693D01*
X052873Y011093D01*
X052673Y010893D01*
X052673Y008393D01*
X052991Y008075D02*
X053354Y008075D01*
X053256Y008174D02*
X053090Y008174D01*
X053123Y008272D02*
X053223Y008272D01*
X053223Y008207D02*
X053486Y007943D01*
X053859Y007943D01*
X054123Y008207D01*
X054123Y008580D01*
X053859Y008843D01*
X053486Y008843D01*
X053223Y008580D01*
X053223Y008207D01*
X053223Y008371D02*
X053123Y008371D01*
X053123Y008469D02*
X053223Y008469D01*
X053223Y008568D02*
X053123Y008568D01*
X053036Y008666D02*
X053309Y008666D01*
X053408Y008765D02*
X052938Y008765D01*
X052873Y008863D02*
X054998Y008863D01*
X054998Y008765D02*
X054938Y008765D01*
X054998Y008962D02*
X052873Y008962D01*
X052873Y009060D02*
X054998Y009060D01*
X054998Y009159D02*
X052873Y009159D01*
X052873Y009257D02*
X054998Y009257D01*
X054998Y009356D02*
X052873Y009356D01*
X052873Y009454D02*
X054998Y009454D01*
X054998Y009553D02*
X052873Y009553D01*
X052873Y009651D02*
X054998Y009651D01*
X054998Y009750D02*
X052873Y009750D01*
X052873Y009848D02*
X054998Y009848D01*
X054998Y009947D02*
X052873Y009947D01*
X052873Y010045D02*
X054998Y010045D01*
X054998Y010144D02*
X052873Y010144D01*
X052873Y010242D02*
X054998Y010242D01*
X054998Y010341D02*
X052873Y010341D01*
X052873Y010439D02*
X054998Y010439D01*
X054998Y010538D02*
X052873Y010538D01*
X052873Y010636D02*
X054998Y010636D01*
X054998Y010735D02*
X052873Y010735D01*
X052896Y010833D02*
X054998Y010833D01*
X054998Y010932D02*
X052994Y010932D01*
X053073Y011030D02*
X054998Y011030D01*
X053114Y011129D02*
X053073Y011129D01*
X052527Y011030D02*
X050573Y011030D01*
X050573Y010932D02*
X052473Y010932D01*
X052473Y010833D02*
X050573Y010833D01*
X050573Y010735D02*
X052473Y010735D01*
X052473Y010636D02*
X050573Y010636D01*
X050573Y010538D02*
X052473Y010538D01*
X052473Y010439D02*
X050573Y010439D01*
X050573Y010341D02*
X052473Y010341D01*
X052473Y010242D02*
X050573Y010242D01*
X050573Y010144D02*
X052473Y010144D01*
X052473Y010045D02*
X050573Y010045D01*
X050573Y009947D02*
X052473Y009947D01*
X052473Y009848D02*
X050573Y009848D01*
X050573Y009750D02*
X052473Y009750D01*
X052473Y009651D02*
X050573Y009651D01*
X050573Y009553D02*
X052473Y009553D01*
X052473Y009454D02*
X050573Y009454D01*
X050573Y009356D02*
X052473Y009356D01*
X052473Y009257D02*
X050573Y009257D01*
X050573Y009159D02*
X052473Y009159D01*
X052473Y009060D02*
X050573Y009060D01*
X050573Y008962D02*
X052473Y008962D01*
X052473Y008863D02*
X050526Y008863D01*
X050408Y008765D02*
X049938Y008765D01*
X050036Y008666D02*
X050309Y008666D01*
X050223Y008568D02*
X050123Y008568D01*
X050123Y008469D02*
X050223Y008469D01*
X050223Y008371D02*
X050123Y008371D01*
X050123Y008272D02*
X050223Y008272D01*
X050256Y008174D02*
X050090Y008174D01*
X049991Y008075D02*
X050354Y008075D01*
X050453Y007977D02*
X049893Y007977D01*
X049923Y007780D02*
X050423Y007780D01*
X050324Y007681D02*
X050021Y007681D01*
X050120Y007583D02*
X050226Y007583D01*
X050223Y007484D02*
X050123Y007484D01*
X050123Y007386D02*
X050223Y007386D01*
X050223Y007287D02*
X050123Y007287D01*
X050105Y007189D02*
X050241Y007189D01*
X050339Y007090D02*
X050006Y007090D01*
X049339Y007090D02*
X049006Y007090D01*
X049105Y007189D02*
X049241Y007189D01*
X049223Y007287D02*
X049123Y007287D01*
X049123Y007386D02*
X049223Y007386D01*
X049223Y007484D02*
X049123Y007484D01*
X049120Y007583D02*
X049226Y007583D01*
X049324Y007681D02*
X049021Y007681D01*
X048923Y007780D02*
X049423Y007780D01*
X049453Y007977D02*
X048893Y007977D01*
X048991Y008075D02*
X049354Y008075D01*
X049256Y008174D02*
X049090Y008174D01*
X049123Y008272D02*
X049223Y008272D01*
X049223Y008371D02*
X049123Y008371D01*
X049123Y008469D02*
X049223Y008469D01*
X049223Y008568D02*
X049123Y008568D01*
X049036Y008666D02*
X049309Y008666D01*
X049408Y008765D02*
X048938Y008765D01*
X048408Y008765D02*
X047938Y008765D01*
X048036Y008666D02*
X048309Y008666D01*
X048223Y008568D02*
X048123Y008568D01*
X048123Y008469D02*
X048223Y008469D01*
X048223Y008371D02*
X048123Y008371D01*
X048123Y008272D02*
X048223Y008272D01*
X048256Y008174D02*
X048090Y008174D01*
X047991Y008075D02*
X048354Y008075D01*
X048453Y007977D02*
X047893Y007977D01*
X047923Y007780D02*
X048423Y007780D01*
X048324Y007681D02*
X048021Y007681D01*
X048120Y007583D02*
X048226Y007583D01*
X048223Y007484D02*
X048123Y007484D01*
X048123Y007386D02*
X048223Y007386D01*
X048223Y007287D02*
X048123Y007287D01*
X048105Y007189D02*
X048241Y007189D01*
X048339Y007090D02*
X048006Y007090D01*
X047339Y007090D02*
X047006Y007090D01*
X047105Y007189D02*
X047241Y007189D01*
X047223Y007287D02*
X047123Y007287D01*
X047123Y007386D02*
X047223Y007386D01*
X047223Y007484D02*
X047123Y007484D01*
X047120Y007583D02*
X047226Y007583D01*
X047324Y007681D02*
X047021Y007681D01*
X046923Y007780D02*
X047423Y007780D01*
X047453Y007977D02*
X046893Y007977D01*
X046991Y008075D02*
X047354Y008075D01*
X047256Y008174D02*
X047090Y008174D01*
X047123Y008272D02*
X047223Y008272D01*
X047223Y008371D02*
X047123Y008371D01*
X047123Y008469D02*
X047223Y008469D01*
X047223Y008568D02*
X047123Y008568D01*
X047036Y008666D02*
X047309Y008666D01*
X047408Y008765D02*
X046938Y008765D01*
X046408Y008765D02*
X045938Y008765D01*
X046036Y008666D02*
X046309Y008666D01*
X046223Y008568D02*
X046123Y008568D01*
X046123Y008469D02*
X046223Y008469D01*
X046223Y008371D02*
X046123Y008371D01*
X046123Y008272D02*
X046223Y008272D01*
X046256Y008174D02*
X046090Y008174D01*
X045991Y008075D02*
X046354Y008075D01*
X046453Y007977D02*
X045893Y007977D01*
X045923Y007780D02*
X046423Y007780D01*
X046324Y007681D02*
X046021Y007681D01*
X046120Y007583D02*
X046226Y007583D01*
X046223Y007484D02*
X046123Y007484D01*
X046123Y007386D02*
X046223Y007386D01*
X046223Y007287D02*
X046123Y007287D01*
X046105Y007189D02*
X046241Y007189D01*
X046339Y007090D02*
X046006Y007090D01*
X045339Y007090D02*
X033577Y007090D01*
X033701Y007189D02*
X045241Y007189D01*
X045223Y007287D02*
X033781Y007287D01*
X033822Y007386D02*
X045223Y007386D01*
X045223Y007484D02*
X033848Y007484D01*
X033848Y007583D02*
X045226Y007583D01*
X045324Y007681D02*
X033838Y007681D01*
X033797Y007780D02*
X045423Y007780D01*
X045453Y007977D02*
X036255Y007977D01*
X036278Y008075D02*
X045354Y008075D01*
X045256Y008174D02*
X036270Y008174D01*
X036225Y008272D02*
X045223Y008272D01*
X045223Y008371D02*
X039882Y008371D01*
X039952Y008469D02*
X045223Y008469D01*
X045373Y008693D02*
X045673Y008393D01*
X045373Y008693D02*
X039773Y008693D01*
X039673Y008593D01*
X039464Y008371D02*
X036100Y008371D01*
X035919Y008469D02*
X039394Y008469D01*
X039368Y008568D02*
X035960Y008568D01*
X035979Y008666D02*
X039373Y008666D01*
X039414Y008765D02*
X035979Y008765D01*
X035776Y008993D02*
X035774Y008995D01*
X035644Y009049D01*
X035502Y009049D01*
X035371Y008995D01*
X035370Y008993D01*
X023473Y008993D01*
X023473Y010293D01*
X036579Y010293D01*
X036579Y010290D01*
X036594Y010253D01*
X036622Y010225D01*
X036659Y010209D01*
X037103Y010209D01*
X037103Y010293D01*
X037121Y010293D01*
X037121Y010209D01*
X037373Y010209D01*
X037373Y008993D01*
X035776Y008993D01*
X035824Y008371D02*
X035846Y008371D01*
X035973Y008093D02*
X034573Y008093D01*
X034173Y008493D01*
X031703Y008493D01*
X030763Y007553D01*
X030423Y007893D01*
X026173Y007893D01*
X025673Y007393D01*
X023598Y008893D02*
X023598Y012043D01*
X023482Y012043D01*
X023482Y011984D01*
X023424Y011925D01*
X022475Y011925D01*
X022416Y011984D01*
X022416Y012303D01*
X022475Y012361D01*
X023424Y012361D01*
X023442Y012343D01*
X023598Y012343D01*
X023598Y013593D01*
X020723Y013593D01*
X020723Y012593D01*
X020608Y012478D01*
X020608Y012252D01*
X020514Y012158D01*
X020489Y012133D01*
X020263Y012133D01*
X020098Y011968D01*
X020098Y008893D01*
X023598Y008893D01*
X023598Y008962D02*
X020098Y008962D01*
X020098Y009060D02*
X023598Y009060D01*
X023598Y009159D02*
X020098Y009159D01*
X020098Y009257D02*
X023598Y009257D01*
X023598Y009356D02*
X020098Y009356D01*
X020098Y009454D02*
X023598Y009454D01*
X023598Y009553D02*
X020098Y009553D01*
X020098Y009651D02*
X023598Y009651D01*
X023598Y009750D02*
X020098Y009750D01*
X020098Y009848D02*
X023598Y009848D01*
X023598Y009947D02*
X020098Y009947D01*
X020118Y009993D02*
X020484Y010359D01*
X020098Y010341D02*
X023598Y010341D01*
X023598Y010439D02*
X020098Y010439D01*
X020098Y010538D02*
X023598Y010538D01*
X023598Y010636D02*
X020098Y010636D01*
X020098Y010735D02*
X023598Y010735D01*
X023598Y010833D02*
X020098Y010833D01*
X020098Y010932D02*
X022468Y010932D01*
X022475Y010925D02*
X023424Y010925D01*
X023482Y010984D01*
X023482Y011303D01*
X023424Y011361D01*
X022475Y011361D01*
X022416Y011303D01*
X022416Y010984D01*
X022475Y010925D01*
X022416Y011030D02*
X020098Y011030D01*
X020098Y011129D02*
X022416Y011129D01*
X022416Y011227D02*
X020098Y011227D01*
X020098Y011326D02*
X022439Y011326D01*
X022323Y011643D02*
X021973Y011293D01*
X021973Y009993D01*
X022373Y009593D01*
X036278Y009593D01*
X037112Y010428D01*
X037103Y010242D02*
X037121Y010242D01*
X037373Y010144D02*
X050373Y010144D01*
X050373Y010242D02*
X049373Y010242D01*
X049373Y010341D02*
X050373Y010341D01*
X050373Y010439D02*
X049373Y010439D01*
X049373Y010538D02*
X050373Y010538D01*
X050373Y010636D02*
X049373Y010636D01*
X049373Y010735D02*
X050373Y010735D01*
X050373Y010833D02*
X049373Y010833D01*
X049373Y010932D02*
X050373Y010932D01*
X050373Y011030D02*
X049373Y011030D01*
X049373Y011129D02*
X050373Y011129D01*
X050158Y011227D02*
X050140Y011227D01*
X050140Y011175D02*
X050140Y011384D01*
X049616Y011384D01*
X049616Y011255D01*
X049631Y011219D01*
X049659Y011190D01*
X049696Y011175D01*
X050140Y011175D01*
X050140Y011326D02*
X050158Y011326D01*
X050140Y011402D02*
X049616Y011402D01*
X049616Y011531D01*
X049631Y011568D01*
X049659Y011596D01*
X049696Y011611D01*
X050140Y011611D01*
X050140Y011402D01*
X050140Y011424D02*
X050158Y011424D01*
X050158Y011523D02*
X050140Y011523D01*
X050373Y011621D02*
X049373Y011621D01*
X049373Y011523D02*
X049616Y011523D01*
X049616Y011424D02*
X049373Y011424D01*
X049373Y011326D02*
X049616Y011326D01*
X049628Y011227D02*
X049373Y011227D01*
X049373Y011720D02*
X049630Y011720D01*
X049616Y011818D02*
X049373Y011818D01*
X049373Y011917D02*
X049616Y011917D01*
X049616Y012015D02*
X049373Y012015D01*
X050692Y012114D02*
X051654Y012114D01*
X051614Y012212D02*
X050732Y012212D01*
X050732Y012311D02*
X051613Y012311D01*
X051613Y012409D02*
X050732Y012409D01*
X050732Y012508D02*
X051613Y012508D01*
X051646Y012606D02*
X050700Y012606D01*
X050732Y012015D02*
X051613Y012015D01*
X051613Y011917D02*
X050732Y011917D01*
X050732Y011818D02*
X051613Y011818D01*
X051613Y011720D02*
X050732Y011720D01*
X050685Y011621D02*
X051170Y011621D01*
X051096Y011523D02*
X050732Y011523D01*
X050732Y011424D02*
X051068Y011424D01*
X051071Y011326D02*
X050732Y011326D01*
X050732Y011227D02*
X051111Y011227D01*
X051214Y011129D02*
X050648Y011129D01*
X051373Y011393D02*
X052196Y011393D01*
X051698Y011129D02*
X051531Y011129D01*
X051576Y011621D02*
X051661Y011621D01*
X051622Y012705D02*
X051467Y012705D01*
X051566Y012803D02*
X051613Y012803D01*
X051273Y014478D02*
X050708Y014478D01*
X050708Y014576D02*
X051273Y014576D01*
X051273Y014675D02*
X050708Y014675D01*
X050708Y014773D02*
X051273Y014773D01*
X051273Y014872D02*
X050708Y014872D01*
X050708Y014970D02*
X051273Y014970D01*
X051273Y015069D02*
X050708Y015069D01*
X050708Y015167D02*
X051273Y015167D01*
X051273Y015266D02*
X050708Y015266D01*
X050708Y015364D02*
X051273Y015364D01*
X051360Y015463D02*
X050708Y015463D01*
X050691Y015561D02*
X051458Y015561D01*
X050373Y015660D02*
X049373Y015660D01*
X049373Y015758D02*
X050373Y015758D01*
X050373Y015857D02*
X049373Y015857D01*
X049373Y015955D02*
X050373Y015955D01*
X050373Y016054D02*
X049373Y016054D01*
X049373Y016152D02*
X050373Y016152D01*
X050373Y016251D02*
X049373Y016251D01*
X049373Y016349D02*
X050373Y016349D01*
X050373Y016448D02*
X049373Y016448D01*
X049373Y016546D02*
X050373Y016546D01*
X050373Y016645D02*
X049373Y016645D01*
X049373Y016743D02*
X050373Y016743D01*
X050373Y016842D02*
X049373Y016842D01*
X049373Y016940D02*
X050373Y016940D01*
X050373Y017039D02*
X049373Y017039D01*
X049373Y017137D02*
X050373Y017137D01*
X050373Y017236D02*
X049373Y017236D01*
X049373Y017334D02*
X050373Y017334D01*
X050373Y017433D02*
X049373Y017433D01*
X049373Y017531D02*
X050373Y017531D01*
X050373Y017630D02*
X049373Y017630D01*
X049373Y017728D02*
X050373Y017728D01*
X050373Y017827D02*
X049373Y017827D01*
X049373Y017925D02*
X049621Y017925D01*
X049579Y018024D02*
X049373Y018024D01*
X049373Y018122D02*
X050103Y018122D01*
X050103Y018024D02*
X050121Y018024D01*
X050121Y017925D02*
X050103Y017925D01*
X050103Y018221D02*
X050121Y018221D01*
X050121Y018319D02*
X050103Y018319D01*
X050103Y018418D02*
X050121Y018418D01*
X050121Y018516D02*
X050103Y018516D01*
X050103Y018615D02*
X050121Y018615D01*
X050121Y018713D02*
X050103Y018713D01*
X050103Y018812D02*
X050121Y018812D01*
X050121Y018910D02*
X050103Y018910D01*
X050103Y019009D02*
X050121Y019009D01*
X050121Y019107D02*
X050103Y019107D01*
X050103Y019206D02*
X050121Y019206D01*
X050121Y019304D02*
X050103Y019304D01*
X050103Y019501D02*
X050121Y019501D01*
X050121Y019600D02*
X050103Y019600D01*
X050103Y019698D02*
X050121Y019698D01*
X050121Y019797D02*
X050103Y019797D01*
X050135Y019895D02*
X049373Y019895D01*
X049373Y019797D02*
X049592Y019797D01*
X049579Y019698D02*
X049373Y019698D01*
X049373Y019600D02*
X049579Y019600D01*
X049579Y019501D02*
X049373Y019501D01*
X049373Y019403D02*
X050373Y019403D01*
X050373Y019846D02*
X050373Y019846D01*
X050122Y019994D02*
X049373Y019994D01*
X049373Y020092D02*
X050122Y020092D01*
X050122Y020289D02*
X049373Y020289D01*
X049373Y020191D02*
X050373Y020191D01*
X050133Y020388D02*
X049373Y020388D01*
X049373Y020486D02*
X049624Y020486D01*
X049631Y020469D02*
X049659Y020440D01*
X049696Y020425D01*
X050140Y020425D01*
X050140Y020634D01*
X049616Y020634D01*
X049616Y020505D01*
X049631Y020469D01*
X049616Y020585D02*
X049373Y020585D01*
X049373Y020683D02*
X049616Y020683D01*
X049616Y020652D02*
X050140Y020652D01*
X050140Y020861D01*
X049696Y020861D01*
X049659Y020846D01*
X049631Y020818D01*
X049616Y020781D01*
X049616Y020652D01*
X049616Y020782D02*
X049373Y020782D01*
X049373Y020880D02*
X050373Y020880D01*
X050158Y020782D02*
X050140Y020782D01*
X050140Y020683D02*
X050158Y020683D01*
X050158Y020585D02*
X050140Y020585D01*
X050140Y020486D02*
X050158Y020486D01*
X050773Y020793D02*
X050973Y020593D01*
X051373Y020593D01*
X052073Y019893D01*
X052073Y019714D01*
X052159Y019628D01*
X052655Y019895D02*
X053214Y019895D01*
X053174Y019797D02*
X052742Y019797D01*
X052742Y019698D02*
X053153Y019698D01*
X053153Y019600D02*
X052742Y019600D01*
X052742Y019501D02*
X053169Y019501D01*
X053288Y019994D02*
X052255Y019994D01*
X052157Y020092D02*
X053398Y020092D01*
X053948Y020092D02*
X054073Y020092D01*
X054073Y019994D02*
X054058Y019994D01*
X054073Y020191D02*
X052058Y020191D01*
X051960Y020289D02*
X054073Y020289D01*
X054073Y020388D02*
X052704Y020388D01*
X052780Y020486D02*
X054073Y020486D01*
X053855Y020585D02*
X053690Y020585D01*
X053428Y020893D02*
X053428Y021439D01*
X053373Y021493D01*
X053653Y021373D02*
X054068Y021373D01*
X054075Y021471D02*
X053678Y021471D01*
X053671Y021570D02*
X054118Y021570D01*
X054240Y021668D02*
X053629Y021668D01*
X053509Y021767D02*
X054998Y021767D01*
X054998Y021865D02*
X052738Y021865D01*
X052780Y021767D02*
X053236Y021767D01*
X053117Y021668D02*
X052780Y021668D01*
X052780Y021570D02*
X053074Y021570D01*
X053068Y021471D02*
X052780Y021471D01*
X052730Y021373D02*
X053093Y021373D01*
X053160Y021274D02*
X052780Y021274D01*
X052780Y021176D02*
X053139Y021176D01*
X053081Y021077D02*
X052780Y021077D01*
X052780Y020979D02*
X053081Y020979D01*
X053081Y020880D02*
X052723Y020880D01*
X052780Y020782D02*
X053081Y020782D01*
X053081Y020683D02*
X052780Y020683D01*
X052780Y020585D02*
X053165Y020585D01*
X052196Y020643D02*
X051923Y020643D01*
X051473Y021093D01*
X051254Y020880D02*
X050973Y020880D01*
X050973Y020979D02*
X051190Y020979D01*
X051168Y021077D02*
X050973Y021077D01*
X050973Y021176D02*
X051177Y021176D01*
X051223Y021274D02*
X050973Y021274D01*
X050973Y021373D02*
X051351Y021373D01*
X051595Y021373D02*
X051663Y021373D01*
X051613Y021471D02*
X050973Y021471D01*
X050973Y021570D02*
X051613Y021570D01*
X051613Y021668D02*
X050973Y021668D01*
X050973Y021767D02*
X051613Y021767D01*
X051473Y022093D02*
X052146Y022093D01*
X052196Y022143D01*
X052780Y022161D02*
X054998Y022161D01*
X054998Y022259D02*
X052780Y022259D01*
X052745Y022358D02*
X054998Y022358D01*
X054998Y022456D02*
X047073Y022456D01*
X047073Y022358D02*
X049600Y022358D01*
X049566Y022259D02*
X047073Y022259D01*
X047073Y022161D02*
X049566Y022161D01*
X049566Y022062D02*
X047025Y022062D01*
X046926Y021964D02*
X049218Y021964D01*
X049143Y021865D02*
X046828Y021865D01*
X046729Y021767D02*
X049143Y021767D01*
X049143Y021668D02*
X044479Y021668D01*
X044273Y021893D02*
X046573Y021893D01*
X046873Y022193D01*
X046873Y023393D01*
X046973Y023493D01*
X047173Y023493D01*
X047373Y023693D01*
X048073Y023693D01*
X048673Y024293D01*
X048673Y024393D01*
X048981Y024722D02*
X049365Y024722D01*
X049463Y024820D02*
X048882Y024820D01*
X048933Y025017D02*
X049412Y025017D01*
X049314Y025116D02*
X049032Y025116D01*
X049123Y025214D02*
X049223Y025214D01*
X049223Y025313D02*
X049123Y025313D01*
X049123Y025411D02*
X049223Y025411D01*
X049223Y025510D02*
X049123Y025510D01*
X049094Y025608D02*
X049251Y025608D01*
X049350Y025707D02*
X048996Y025707D01*
X048673Y025393D02*
X048173Y024893D01*
X048173Y024093D01*
X047973Y023893D01*
X047273Y023893D01*
X047073Y023693D01*
X046673Y023693D01*
X046573Y023593D01*
X046573Y023293D01*
X045973Y022693D01*
X043973Y022693D01*
X043573Y023093D01*
X042673Y023093D01*
X042373Y023393D01*
X042373Y023593D01*
X042373Y023959D01*
X042973Y023959D02*
X042973Y023593D01*
X042973Y023493D01*
X043173Y023293D01*
X043673Y023293D01*
X044073Y022893D01*
X045873Y022893D01*
X046373Y023393D01*
X046373Y023693D01*
X046573Y023893D01*
X046973Y023893D01*
X047173Y024093D01*
X047173Y024693D01*
X046673Y025193D01*
X046673Y025393D01*
X046173Y024893D02*
X045673Y025393D01*
X046173Y024893D02*
X046173Y023493D01*
X045773Y023093D01*
X044173Y023093D01*
X043673Y023593D01*
X043573Y023593D01*
X043573Y023959D01*
X043573Y024628D02*
X044038Y024628D01*
X044073Y024593D01*
X044373Y024893D02*
X044173Y025093D01*
X043273Y025093D01*
X043007Y024828D01*
X043007Y024593D01*
X042973Y024628D01*
X042373Y024628D02*
X042373Y024793D01*
X041973Y025193D01*
X040473Y025193D01*
X040173Y024893D01*
X040173Y024193D01*
X040473Y023893D01*
X040773Y023893D01*
X040973Y023693D01*
X041239Y023540D02*
X041468Y023540D01*
X041468Y023638D02*
X041278Y023638D01*
X041152Y023441D02*
X041506Y023441D01*
X041592Y023343D02*
X039206Y023343D01*
X039273Y023244D02*
X040494Y023244D01*
X040459Y023210D02*
X040547Y023297D01*
X041341Y023297D01*
X041429Y023210D01*
X041429Y022751D01*
X041341Y022663D01*
X040547Y022663D01*
X040459Y022751D01*
X040459Y023210D01*
X040459Y023146D02*
X039273Y023146D01*
X039273Y023047D02*
X040459Y023047D01*
X040459Y022949D02*
X039273Y022949D01*
X039273Y022850D02*
X040459Y022850D01*
X040459Y022752D02*
X039273Y022752D01*
X039273Y022653D02*
X042830Y022653D01*
X042868Y022555D02*
X039273Y022555D01*
X039273Y022456D02*
X039313Y022456D01*
X039278Y022422D02*
X039278Y021963D01*
X039366Y021875D01*
X040160Y021875D01*
X040248Y021963D01*
X040248Y022422D01*
X040160Y022510D01*
X039366Y022510D01*
X039278Y022422D01*
X039273Y022358D02*
X039278Y022358D01*
X039273Y022259D02*
X039278Y022259D01*
X039273Y022161D02*
X039278Y022161D01*
X039273Y022062D02*
X039278Y022062D01*
X039273Y021964D02*
X039278Y021964D01*
X039273Y021865D02*
X043968Y021865D01*
X043972Y021964D02*
X043850Y021964D01*
X043703Y021964D02*
X043603Y021964D01*
X043603Y022062D02*
X043703Y022062D01*
X043703Y022161D02*
X043603Y022161D01*
X043603Y022259D02*
X043703Y022259D01*
X043703Y022358D02*
X045943Y022358D01*
X045943Y022259D02*
X044050Y022259D01*
X044023Y022161D02*
X044122Y022161D01*
X044013Y022062D02*
X043966Y022062D01*
X043995Y021767D02*
X039273Y021767D01*
X039273Y021668D02*
X040493Y021668D01*
X040459Y021635D02*
X040547Y021723D01*
X041341Y021723D01*
X041429Y021635D01*
X041429Y021176D01*
X041341Y021088D01*
X040547Y021088D01*
X040459Y021176D01*
X040459Y021635D01*
X040459Y021570D02*
X039273Y021570D01*
X039273Y021471D02*
X040459Y021471D01*
X040459Y021373D02*
X039273Y021373D01*
X039273Y021274D02*
X040459Y021274D01*
X040459Y021176D02*
X039273Y021176D01*
X039273Y021077D02*
X042974Y021077D01*
X042876Y020979D02*
X039273Y020979D01*
X039273Y020880D02*
X039311Y020880D01*
X039278Y020847D02*
X039278Y020388D01*
X039366Y020301D01*
X040160Y020301D01*
X040248Y020388D01*
X040248Y020847D01*
X040160Y020935D01*
X039366Y020935D01*
X039278Y020847D01*
X039273Y020782D02*
X039278Y020782D01*
X039273Y020683D02*
X039278Y020683D01*
X039273Y020585D02*
X039278Y020585D01*
X039273Y020486D02*
X039278Y020486D01*
X039273Y020388D02*
X039279Y020388D01*
X039273Y020289D02*
X040910Y020289D01*
X040912Y020288D02*
X041034Y020288D01*
X041146Y020335D01*
X041170Y020359D01*
X041168Y020354D01*
X041168Y020233D01*
X041203Y020148D01*
X040547Y020148D01*
X040459Y020060D01*
X040459Y019601D01*
X040547Y019513D01*
X041341Y019513D01*
X041429Y019601D01*
X041429Y019988D01*
X041534Y019988D01*
X041646Y020035D01*
X041704Y020093D01*
X042841Y020093D01*
X042900Y020035D01*
X043012Y019988D01*
X043134Y019988D01*
X043203Y020017D01*
X043203Y019864D01*
X043271Y019698D01*
X041429Y019698D01*
X041428Y019600D02*
X043370Y019600D01*
X043398Y019572D02*
X043563Y019503D01*
X043742Y019503D01*
X043908Y019572D01*
X044034Y019698D01*
X046102Y019698D01*
X046082Y019718D02*
X046138Y019663D01*
X046203Y019619D01*
X046276Y019589D01*
X046343Y019575D01*
X046343Y019923D01*
X046443Y019923D01*
X046443Y019575D01*
X046510Y019589D01*
X046582Y019619D01*
X046648Y019663D01*
X046704Y019718D01*
X046747Y019784D01*
X046777Y019857D01*
X046791Y019923D01*
X046443Y019923D01*
X046443Y020023D01*
X046791Y020023D01*
X046777Y020090D01*
X046747Y020163D01*
X046704Y020228D01*
X046648Y020284D01*
X046582Y020328D01*
X046510Y020358D01*
X046443Y020371D01*
X046443Y020023D01*
X046343Y020023D01*
X046343Y019923D01*
X045995Y019923D01*
X046008Y019857D01*
X046038Y019784D01*
X046082Y019718D01*
X046033Y019797D02*
X044075Y019797D01*
X044103Y019864D02*
X044103Y020043D01*
X044034Y020208D01*
X043949Y020293D01*
X045816Y020293D01*
X046248Y020726D01*
X046303Y020703D01*
X046482Y020703D01*
X046648Y020772D01*
X046774Y020898D01*
X046843Y021064D01*
X046843Y021243D01*
X046774Y021408D01*
X046648Y021535D01*
X046482Y021603D01*
X046303Y021603D01*
X046138Y021535D01*
X046011Y021408D01*
X045943Y021243D01*
X045943Y021064D01*
X045966Y021009D01*
X045650Y020693D01*
X043766Y020693D01*
X043908Y020752D01*
X044034Y020878D01*
X044103Y021044D01*
X044103Y021223D01*
X044034Y021388D01*
X043908Y021515D01*
X043742Y021583D01*
X043563Y021583D01*
X043398Y021515D01*
X043271Y021388D01*
X043249Y021333D01*
X043230Y021333D01*
X042795Y020898D01*
X042712Y020898D01*
X042600Y020852D01*
X042541Y020793D01*
X041204Y020793D01*
X041146Y020852D01*
X041034Y020898D01*
X040912Y020898D01*
X040800Y020852D01*
X040714Y020766D01*
X040668Y020654D01*
X040668Y020533D01*
X040714Y020421D01*
X040800Y020335D01*
X040912Y020288D01*
X041036Y020289D02*
X041168Y020289D01*
X041185Y020191D02*
X039273Y020191D01*
X039273Y020092D02*
X040492Y020092D01*
X040459Y019994D02*
X039273Y019994D01*
X039273Y019895D02*
X040459Y019895D01*
X040459Y019797D02*
X039273Y019797D01*
X039273Y019698D02*
X040459Y019698D01*
X040461Y019600D02*
X039273Y019600D01*
X039273Y019501D02*
X049143Y019501D01*
X049143Y019403D02*
X039273Y019403D01*
X039273Y019304D02*
X039310Y019304D01*
X039278Y019206D02*
X039273Y019206D01*
X039273Y019107D02*
X039278Y019107D01*
X039273Y019009D02*
X039278Y019009D01*
X038873Y019009D02*
X031586Y019009D01*
X031586Y019107D02*
X038873Y019107D01*
X038873Y019206D02*
X031586Y019206D01*
X031586Y019273D02*
X031498Y019360D01*
X030705Y019360D01*
X030617Y019273D01*
X030617Y018814D01*
X030705Y018726D01*
X031498Y018726D01*
X031586Y018814D01*
X031586Y019273D01*
X031554Y019304D02*
X038873Y019304D01*
X038873Y019403D02*
X024295Y019403D01*
X024357Y019304D02*
X030649Y019304D01*
X030617Y019206D02*
X024378Y019206D01*
X024367Y019107D02*
X030617Y019107D01*
X030617Y019009D02*
X024320Y019009D01*
X024187Y018910D02*
X030617Y018910D01*
X030619Y018812D02*
X023991Y018812D01*
X024030Y018713D02*
X038768Y018713D01*
X038775Y018615D02*
X024030Y018615D01*
X024030Y018516D02*
X031829Y018516D01*
X031798Y018485D02*
X031886Y018573D01*
X032679Y018573D01*
X032700Y018552D01*
X032812Y018598D01*
X032934Y018598D01*
X033046Y018552D01*
X033131Y018466D01*
X033178Y018354D01*
X033178Y018233D01*
X033131Y018121D01*
X033046Y018035D01*
X032934Y017988D01*
X032812Y017988D01*
X032754Y018013D01*
X032679Y017938D01*
X031886Y017938D01*
X031798Y018026D01*
X031798Y018485D01*
X031798Y018418D02*
X024030Y018418D01*
X023984Y018319D02*
X031798Y018319D01*
X031798Y018221D02*
X024030Y018221D01*
X024030Y018122D02*
X031798Y018122D01*
X031800Y018024D02*
X024030Y018024D01*
X024030Y017925D02*
X039158Y017925D01*
X039256Y017827D02*
X023976Y017827D01*
X024030Y017728D02*
X039355Y017728D01*
X039453Y017630D02*
X038968Y017630D01*
X038773Y017393D02*
X038805Y017361D01*
X039833Y017361D01*
X040030Y017361D02*
X040030Y017150D01*
X039873Y016993D01*
X039673Y016993D01*
X039873Y016793D02*
X039773Y016693D01*
X039373Y016693D01*
X039104Y016546D02*
X014397Y016546D01*
X014371Y016448D02*
X039167Y016448D01*
X039068Y016645D02*
X014423Y016645D01*
X014423Y016743D02*
X039068Y016743D01*
X039104Y016842D02*
X014423Y016842D01*
X014423Y016940D02*
X039189Y016940D01*
X039368Y017039D02*
X014398Y017039D01*
X014371Y017137D02*
X038597Y017137D01*
X038508Y017236D02*
X014345Y017236D01*
X014288Y017334D02*
X019849Y017334D01*
X019701Y017433D02*
X018995Y017433D01*
X019094Y017531D02*
X019701Y017531D01*
X019701Y017630D02*
X019192Y017630D01*
X019273Y017728D02*
X019701Y017728D01*
X019738Y017827D02*
X019273Y017827D01*
X019273Y017925D02*
X019704Y017925D01*
X019701Y018024D02*
X019273Y018024D01*
X019273Y018122D02*
X019701Y018122D01*
X019701Y018221D02*
X019273Y018221D01*
X019273Y018319D02*
X019731Y018319D01*
X019712Y018418D02*
X019273Y018418D01*
X019273Y018516D02*
X019701Y018516D01*
X019701Y018615D02*
X019273Y018615D01*
X019273Y018713D02*
X019701Y018713D01*
X019723Y018812D02*
X019273Y018812D01*
X019273Y018910D02*
X019719Y018910D01*
X019701Y019009D02*
X019273Y019009D01*
X019273Y019107D02*
X019701Y019107D01*
X019973Y019107D02*
X020866Y019107D01*
X020866Y019193D02*
X020866Y018934D01*
X020925Y018875D01*
X021673Y018875D01*
X021673Y018311D01*
X020925Y018311D01*
X020866Y018253D01*
X020866Y017934D01*
X020925Y017875D01*
X021673Y017875D01*
X021673Y017493D01*
X019973Y017493D01*
X019973Y019193D01*
X020866Y019193D01*
X020866Y019009D02*
X019973Y019009D01*
X019973Y018910D02*
X020890Y018910D01*
X021099Y019393D02*
X021399Y019093D01*
X021673Y018812D02*
X019973Y018812D01*
X019973Y018713D02*
X021673Y018713D01*
X021673Y018615D02*
X019973Y018615D01*
X019973Y018516D02*
X021673Y018516D01*
X021673Y018418D02*
X019973Y018418D01*
X019973Y018319D02*
X021673Y018319D01*
X021982Y018122D02*
X022863Y018122D01*
X022863Y018024D02*
X021982Y018024D01*
X021982Y017925D02*
X022863Y017925D01*
X022863Y018221D02*
X022419Y018221D01*
X022565Y018319D02*
X022909Y018319D01*
X022863Y018418D02*
X022633Y018418D01*
X022673Y018516D02*
X022863Y018516D01*
X022863Y018615D02*
X022673Y018615D01*
X022656Y018713D02*
X022863Y018713D01*
X022902Y018812D02*
X022615Y018812D01*
X022521Y018910D02*
X022866Y018910D01*
X022863Y019009D02*
X022473Y019009D01*
X022473Y019107D02*
X022863Y019107D01*
X022594Y019206D02*
X022501Y019206D01*
X022273Y019484D02*
X022213Y019543D01*
X022273Y019484D02*
X022273Y018593D01*
X023446Y019093D02*
X023973Y019093D01*
X024073Y019193D01*
X023851Y019403D02*
X023614Y019403D01*
X023665Y019501D02*
X038873Y019501D01*
X038873Y019600D02*
X032766Y019600D01*
X032767Y019601D02*
X032767Y020060D01*
X032679Y020148D01*
X031886Y020148D01*
X031798Y020060D01*
X031798Y019601D01*
X031886Y019513D01*
X032679Y019513D01*
X032767Y019601D01*
X032767Y019698D02*
X038873Y019698D01*
X038873Y019797D02*
X032767Y019797D01*
X032767Y019895D02*
X038873Y019895D01*
X038873Y019994D02*
X032767Y019994D01*
X032735Y020092D02*
X038873Y020092D01*
X038873Y020191D02*
X023763Y020191D01*
X023778Y020092D02*
X031830Y020092D01*
X031798Y019994D02*
X023762Y019994D01*
X023706Y019895D02*
X031798Y019895D01*
X031798Y019797D02*
X023601Y019797D01*
X023659Y019698D02*
X031798Y019698D01*
X031799Y019600D02*
X023678Y019600D01*
X023373Y019593D02*
X023323Y019543D01*
X022882Y019543D01*
X023373Y019993D02*
X020273Y019993D01*
X019873Y019593D01*
X015673Y019593D01*
X014273Y020993D01*
X014866Y020683D02*
X021873Y020683D01*
X021872Y020585D02*
X014964Y020585D01*
X015063Y020486D02*
X021872Y020486D01*
X021872Y020388D02*
X019856Y020388D01*
X019962Y020289D02*
X021872Y020289D01*
X022073Y020559D02*
X022238Y020393D01*
X022073Y020559D02*
X022073Y021493D01*
X021873Y021693D01*
X021773Y021693D01*
X021673Y021793D01*
X021390Y021793D01*
X021385Y021798D01*
X021135Y021601D02*
X021135Y021601D01*
X021110Y021601D01*
X021135Y021601D01*
X021135Y021601D01*
X021104Y021570D02*
X020421Y021570D01*
X020421Y021471D02*
X020324Y021471D01*
X020324Y021373D02*
X020421Y021373D01*
X020421Y021274D02*
X020324Y021274D01*
X020139Y021274D02*
X019798Y021274D01*
X019798Y021176D02*
X021491Y021176D01*
X021557Y021077D02*
X019781Y021077D01*
X019740Y020979D02*
X021873Y020979D01*
X021873Y020880D02*
X019672Y020880D01*
X019574Y020782D02*
X021873Y020782D01*
X021773Y021293D02*
X021662Y021404D01*
X021385Y021404D01*
X021060Y021373D02*
X020670Y021373D01*
X020670Y021471D02*
X021060Y021471D01*
X021068Y021274D02*
X020607Y021274D01*
X020076Y021373D02*
X019779Y021373D01*
X020670Y021668D02*
X021068Y021668D01*
X021060Y021767D02*
X020670Y021767D01*
X020646Y021865D02*
X021060Y021865D01*
X021060Y021964D02*
X020709Y021964D01*
X021080Y022586D02*
X020973Y022693D01*
X020973Y023393D01*
X021073Y023493D01*
X024373Y023493D01*
X024973Y023493D01*
X025373Y023893D01*
X027973Y023893D01*
X028173Y024093D01*
X028173Y024893D01*
X028673Y025393D01*
X029373Y024810D02*
X029506Y024943D01*
X029859Y024943D01*
X030109Y025193D01*
X030617Y025193D01*
X030617Y025113D01*
X030705Y025025D01*
X031498Y025025D01*
X031567Y025093D01*
X032590Y025093D01*
X032773Y024910D01*
X032773Y022393D01*
X031890Y022393D01*
X031773Y022276D01*
X031586Y022090D01*
X031586Y022422D01*
X031498Y022510D01*
X030705Y022510D01*
X030620Y022425D01*
X030620Y022822D01*
X030499Y022943D01*
X030620Y023064D01*
X030620Y023089D01*
X031651Y023089D01*
X031856Y023293D01*
X031973Y023410D01*
X031973Y023962D01*
X032248Y024238D01*
X032679Y024238D01*
X032767Y024325D01*
X032767Y024784D01*
X032679Y024872D01*
X031886Y024872D01*
X031807Y024793D01*
X030504Y024793D01*
X030446Y024852D01*
X030334Y024898D01*
X030212Y024898D01*
X030100Y024852D01*
X030014Y024766D01*
X029971Y024661D01*
X029839Y024793D01*
X029723Y024793D01*
X029723Y024443D01*
X029623Y024443D01*
X029623Y024793D01*
X029507Y024793D01*
X029373Y024659D01*
X029373Y024810D01*
X029383Y024820D02*
X030069Y024820D01*
X029996Y024722D02*
X029910Y024722D01*
X029723Y024722D02*
X029623Y024722D01*
X029623Y024623D02*
X029723Y024623D01*
X029723Y024525D02*
X029623Y024525D01*
X029723Y024426D02*
X030012Y024426D01*
X030073Y024328D02*
X030117Y024328D01*
X030073Y024229D02*
X031674Y024229D01*
X031576Y024131D02*
X029976Y024131D01*
X029878Y024032D02*
X030652Y024032D01*
X030617Y023934D02*
X030164Y023934D01*
X029973Y023693D02*
X029673Y023393D01*
X029673Y023289D01*
X029326Y023244D02*
X025307Y023244D01*
X025208Y023146D02*
X029326Y023146D01*
X029343Y023047D02*
X024610Y023047D01*
X025405Y023343D02*
X029326Y023343D01*
X029326Y023441D02*
X025504Y023441D01*
X023711Y022949D02*
X029441Y022949D01*
X029354Y022850D02*
X023613Y022850D01*
X023573Y022752D02*
X029326Y022752D01*
X029326Y022653D02*
X023573Y022653D01*
X023573Y022555D02*
X029326Y022555D01*
X029673Y022598D02*
X029673Y021978D01*
X030273Y021978D02*
X030273Y022598D01*
X030620Y022555D02*
X032773Y022555D01*
X032773Y022653D02*
X030620Y022653D01*
X030620Y022752D02*
X031798Y022752D01*
X031798Y022751D02*
X031886Y022663D01*
X032679Y022663D01*
X032767Y022751D01*
X032767Y023210D01*
X032679Y023297D01*
X031886Y023297D01*
X031798Y023210D01*
X031798Y022751D01*
X031798Y022850D02*
X030592Y022850D01*
X030504Y022949D02*
X031798Y022949D01*
X031798Y023047D02*
X030603Y023047D01*
X030273Y023289D02*
X031568Y023289D01*
X031773Y023493D01*
X031773Y024045D01*
X032283Y024555D01*
X032244Y024593D01*
X030273Y024593D01*
X030477Y024820D02*
X031834Y024820D01*
X032666Y025017D02*
X029933Y025017D01*
X030032Y025116D02*
X030617Y025116D01*
X029481Y024919D02*
X032764Y024919D01*
X032773Y024820D02*
X032731Y024820D01*
X032767Y024722D02*
X032773Y024722D01*
X032767Y024623D02*
X032773Y024623D01*
X032767Y024525D02*
X032773Y024525D01*
X032767Y024426D02*
X032773Y024426D01*
X032767Y024328D02*
X032773Y024328D01*
X032773Y024229D02*
X032240Y024229D01*
X032141Y024131D02*
X032773Y024131D01*
X032773Y024032D02*
X032043Y024032D01*
X031973Y023934D02*
X032773Y023934D01*
X032773Y023835D02*
X031973Y023835D01*
X031973Y023737D02*
X032773Y023737D01*
X032773Y023638D02*
X031973Y023638D01*
X031973Y023540D02*
X032773Y023540D01*
X032773Y023441D02*
X031973Y023441D01*
X031905Y023343D02*
X032773Y023343D01*
X032773Y023244D02*
X032733Y023244D01*
X032767Y023146D02*
X032773Y023146D01*
X032767Y023047D02*
X032773Y023047D01*
X032767Y022949D02*
X032773Y022949D01*
X032767Y022850D02*
X032773Y022850D01*
X032767Y022752D02*
X032773Y022752D01*
X032773Y022456D02*
X031552Y022456D01*
X031586Y022358D02*
X031855Y022358D01*
X031756Y022259D02*
X031586Y022259D01*
X031586Y022161D02*
X031658Y022161D01*
X031973Y022193D02*
X032873Y022193D01*
X032973Y022293D01*
X032973Y024993D01*
X033173Y024722D02*
X037461Y024722D01*
X037560Y024623D02*
X033173Y024623D01*
X033173Y024525D02*
X037573Y024525D01*
X037573Y024426D02*
X033173Y024426D01*
X033173Y024328D02*
X037573Y024328D01*
X037573Y024229D02*
X033173Y024229D01*
X033173Y024131D02*
X037573Y024131D01*
X037573Y024032D02*
X033173Y024032D01*
X033173Y023934D02*
X037649Y023934D01*
X037748Y023835D02*
X033173Y023835D01*
X033173Y023737D02*
X037846Y023737D01*
X037945Y023638D02*
X033173Y023638D01*
X033173Y023540D02*
X038043Y023540D01*
X038142Y023441D02*
X033173Y023441D01*
X033173Y023343D02*
X038240Y023343D01*
X038739Y023244D02*
X033173Y023244D01*
X033173Y023146D02*
X038837Y023146D01*
X038873Y023047D02*
X033173Y023047D01*
X033173Y022949D02*
X038873Y022949D01*
X038873Y022850D02*
X033173Y022850D01*
X033173Y022752D02*
X038873Y022752D01*
X038873Y022653D02*
X033173Y022653D01*
X033173Y022555D02*
X038873Y022555D01*
X038873Y022456D02*
X033173Y022456D01*
X033173Y022358D02*
X038873Y022358D01*
X038873Y022259D02*
X033173Y022259D01*
X033123Y022161D02*
X038873Y022161D01*
X038873Y022062D02*
X033025Y022062D01*
X032679Y021723D02*
X032767Y021635D01*
X032767Y021176D01*
X038873Y021176D01*
X038873Y021274D02*
X032767Y021274D01*
X032767Y021176D02*
X032679Y021088D01*
X031886Y021088D01*
X031798Y021176D01*
X031798Y021635D01*
X031886Y021723D01*
X032679Y021723D01*
X032734Y021668D02*
X038873Y021668D01*
X038873Y021570D02*
X032767Y021570D01*
X032767Y021471D02*
X038873Y021471D01*
X038873Y021373D02*
X032767Y021373D01*
X031928Y021865D02*
X038873Y021865D01*
X038873Y021767D02*
X031829Y021767D01*
X031832Y021668D02*
X031731Y021668D01*
X031798Y021570D02*
X031632Y021570D01*
X031534Y021471D02*
X031798Y021471D01*
X031798Y021373D02*
X031435Y021373D01*
X031337Y021274D02*
X031798Y021274D01*
X031798Y021176D02*
X031238Y021176D01*
X031088Y021309D02*
X031973Y022193D01*
X032026Y021964D02*
X038873Y021964D01*
X040248Y021964D02*
X043456Y021964D01*
X043339Y022062D02*
X040248Y022062D01*
X040248Y022161D02*
X043283Y022161D01*
X043256Y022259D02*
X040248Y022259D01*
X040248Y022358D02*
X042977Y022358D01*
X042899Y022456D02*
X040213Y022456D01*
X041429Y022752D02*
X042431Y022752D01*
X042333Y022850D02*
X041429Y022850D01*
X041429Y022949D02*
X042234Y022949D01*
X042136Y023047D02*
X041429Y023047D01*
X041429Y023146D02*
X042037Y023146D01*
X041939Y023244D02*
X041394Y023244D01*
X041773Y023593D02*
X041873Y023593D01*
X042573Y022893D01*
X042873Y022893D01*
X043173Y022593D01*
X043369Y022358D02*
X043603Y022358D01*
X043603Y022363D02*
X043603Y022711D01*
X043536Y022698D01*
X043471Y022671D01*
X043431Y022766D01*
X043346Y022852D01*
X043246Y022893D01*
X043490Y022893D01*
X043703Y022680D01*
X043703Y022363D01*
X043603Y022363D01*
X043603Y022456D02*
X043703Y022456D01*
X043703Y022555D02*
X043603Y022555D01*
X043603Y022653D02*
X043703Y022653D01*
X043631Y022752D02*
X043437Y022752D01*
X043347Y022850D02*
X043533Y022850D01*
X044027Y022456D02*
X045957Y022456D01*
X045977Y022161D02*
X044424Y022161D01*
X044066Y021668D02*
X041395Y021668D01*
X041429Y021570D02*
X043531Y021570D01*
X043354Y021471D02*
X041429Y021471D01*
X041429Y021373D02*
X043265Y021373D01*
X043171Y021274D02*
X041429Y021274D01*
X041429Y021176D02*
X043073Y021176D01*
X043313Y021133D02*
X042773Y020593D01*
X040973Y020593D01*
X040687Y020486D02*
X040248Y020486D01*
X040247Y020388D02*
X040747Y020388D01*
X040668Y020585D02*
X040248Y020585D01*
X040248Y020683D02*
X040680Y020683D01*
X040730Y020782D02*
X040248Y020782D01*
X040215Y020880D02*
X040869Y020880D01*
X041077Y020880D02*
X042669Y020880D01*
X043313Y021133D02*
X043653Y021133D01*
X044076Y020979D02*
X045936Y020979D01*
X045943Y021077D02*
X044103Y021077D01*
X044103Y021176D02*
X045943Y021176D01*
X045956Y021274D02*
X044081Y021274D01*
X044041Y021373D02*
X045997Y021373D01*
X046074Y021471D02*
X043951Y021471D01*
X043775Y021570D02*
X046223Y021570D01*
X046563Y021570D02*
X049143Y021570D01*
X049143Y021471D02*
X046711Y021471D01*
X046789Y021373D02*
X049143Y021373D01*
X049143Y021274D02*
X046830Y021274D01*
X046843Y021176D02*
X049143Y021176D01*
X049143Y021077D02*
X046843Y021077D01*
X046808Y020979D02*
X049143Y020979D01*
X049143Y020880D02*
X046756Y020880D01*
X046658Y020782D02*
X049143Y020782D01*
X049143Y020683D02*
X046206Y020683D01*
X046107Y020585D02*
X049143Y020585D01*
X049143Y020486D02*
X046009Y020486D01*
X045910Y020388D02*
X049143Y020388D01*
X049143Y020289D02*
X046640Y020289D01*
X046729Y020191D02*
X049143Y020191D01*
X049143Y020092D02*
X046776Y020092D01*
X046785Y019895D02*
X049143Y019895D01*
X049143Y019797D02*
X046753Y019797D01*
X046684Y019698D02*
X049143Y019698D01*
X049143Y019600D02*
X046536Y019600D01*
X046443Y019600D02*
X046343Y019600D01*
X046249Y019600D02*
X043936Y019600D01*
X044034Y019698D02*
X044103Y019864D01*
X044103Y019895D02*
X046001Y019895D01*
X045995Y020023D02*
X046343Y020023D01*
X046343Y020371D01*
X046276Y020358D01*
X046203Y020328D01*
X046138Y020284D01*
X046082Y020228D01*
X046038Y020163D01*
X046008Y020090D01*
X045995Y020023D01*
X046009Y020092D02*
X044082Y020092D01*
X044103Y019994D02*
X046343Y019994D01*
X046343Y020092D02*
X046443Y020092D01*
X046443Y019994D02*
X049143Y019994D01*
X049143Y019304D02*
X040216Y019304D01*
X040248Y019206D02*
X041354Y019206D01*
X041290Y019107D02*
X040248Y019107D01*
X040248Y019009D02*
X041268Y019009D01*
X041373Y018793D02*
X041573Y018993D01*
X041373Y018793D02*
X040473Y018793D01*
X040373Y018693D01*
X039573Y018693D01*
X039373Y018493D01*
X039373Y018393D01*
X039059Y018024D02*
X033019Y018024D01*
X033132Y018122D02*
X038961Y018122D01*
X038873Y018221D02*
X033173Y018221D01*
X033178Y018319D02*
X038873Y018319D01*
X038873Y018418D02*
X033151Y018418D01*
X033081Y018516D02*
X038818Y018516D01*
X038792Y018812D02*
X031584Y018812D01*
X031586Y018910D02*
X038859Y018910D01*
X040248Y018910D02*
X040307Y018910D01*
X041429Y019797D02*
X043231Y019797D01*
X043203Y019895D02*
X041429Y019895D01*
X041547Y019994D02*
X042999Y019994D01*
X043147Y019994D02*
X043203Y019994D01*
X043271Y019698D02*
X043398Y019572D01*
X042842Y020092D02*
X041703Y020092D01*
X041473Y020293D02*
X043073Y020293D01*
X043273Y020493D01*
X045733Y020493D01*
X046393Y021153D01*
X045837Y020880D02*
X044035Y020880D01*
X043938Y020782D02*
X045739Y020782D01*
X046146Y020289D02*
X043953Y020289D01*
X044042Y020191D02*
X046057Y020191D01*
X046343Y020191D02*
X046443Y020191D01*
X046443Y020289D02*
X046343Y020289D01*
X046343Y019895D02*
X046443Y019895D01*
X046443Y019797D02*
X046343Y019797D01*
X046343Y019698D02*
X046443Y019698D01*
X045874Y019107D02*
X049143Y019107D01*
X049143Y019009D02*
X045967Y019009D01*
X046007Y018910D02*
X049143Y018910D01*
X049143Y018812D02*
X046023Y018812D01*
X046023Y018713D02*
X049143Y018713D01*
X049143Y018615D02*
X045982Y018615D01*
X045912Y018516D02*
X049143Y018516D01*
X049143Y018418D02*
X045762Y018418D01*
X045982Y018319D02*
X049143Y018319D01*
X049143Y018221D02*
X046070Y018221D01*
X046111Y018122D02*
X049143Y018122D01*
X049143Y018024D02*
X046123Y018024D01*
X046119Y017925D02*
X049173Y017925D01*
X049173Y017827D02*
X046079Y017827D01*
X046004Y017728D02*
X049173Y017728D01*
X049173Y017630D02*
X045842Y017630D01*
X046825Y017137D02*
X049173Y017137D01*
X049173Y017039D02*
X046895Y017039D01*
X046936Y016940D02*
X049173Y016940D01*
X049173Y016842D02*
X046943Y016842D01*
X046943Y016743D02*
X049173Y016743D01*
X049173Y016645D02*
X046902Y016645D01*
X046842Y016546D02*
X049173Y016546D01*
X049173Y016448D02*
X046738Y016448D01*
X049373Y015561D02*
X049603Y015561D01*
X049579Y015463D02*
X049373Y015463D01*
X049373Y015364D02*
X049579Y015364D01*
X049579Y015266D02*
X049373Y015266D01*
X049373Y015167D02*
X049640Y015167D01*
X049610Y015069D02*
X049373Y015069D01*
X049373Y014970D02*
X049579Y014970D01*
X049373Y014872D02*
X050103Y014872D01*
X050103Y014970D02*
X050121Y014970D01*
X050121Y015069D02*
X050103Y015069D01*
X050103Y015167D02*
X050121Y015167D01*
X050121Y015266D02*
X050103Y015266D01*
X050103Y015364D02*
X050121Y015364D01*
X050121Y015463D02*
X050103Y015463D01*
X050103Y015561D02*
X050121Y015561D01*
X050573Y016054D02*
X054998Y016054D01*
X054998Y016152D02*
X051698Y016152D01*
X051797Y016251D02*
X054998Y016251D01*
X054998Y016349D02*
X054312Y016349D01*
X054410Y016448D02*
X054998Y016448D01*
X054998Y016546D02*
X054509Y016546D01*
X054607Y016645D02*
X054998Y016645D01*
X054998Y016743D02*
X054673Y016743D01*
X054673Y016842D02*
X054998Y016842D01*
X054998Y016940D02*
X054673Y016940D01*
X054673Y017039D02*
X054998Y017039D01*
X054998Y017137D02*
X054673Y017137D01*
X054673Y017236D02*
X054998Y017236D01*
X054998Y017334D02*
X054673Y017334D01*
X054673Y017433D02*
X054998Y017433D01*
X054998Y017531D02*
X054673Y017531D01*
X054673Y017630D02*
X054998Y017630D01*
X054998Y017728D02*
X054673Y017728D01*
X054673Y017827D02*
X054998Y017827D01*
X054998Y017925D02*
X054673Y017925D01*
X054673Y018024D02*
X054998Y018024D01*
X054998Y018122D02*
X054673Y018122D01*
X054673Y018221D02*
X054998Y018221D01*
X054998Y018319D02*
X054673Y018319D01*
X054673Y018418D02*
X054998Y018418D01*
X054998Y018516D02*
X054673Y018516D01*
X054673Y018615D02*
X054998Y018615D01*
X054998Y018713D02*
X054673Y018713D01*
X054673Y018812D02*
X054998Y018812D01*
X054998Y018910D02*
X054673Y018910D01*
X054673Y019009D02*
X054998Y019009D01*
X054998Y019107D02*
X054673Y019107D01*
X054673Y019206D02*
X054998Y019206D01*
X054998Y019304D02*
X054673Y019304D01*
X054673Y019403D02*
X054998Y019403D01*
X054998Y019501D02*
X054673Y019501D01*
X054673Y019600D02*
X054998Y019600D01*
X054998Y019698D02*
X054673Y019698D01*
X054673Y019797D02*
X054998Y019797D01*
X054998Y019895D02*
X054673Y019895D01*
X054673Y019994D02*
X054998Y019994D01*
X054998Y020092D02*
X054673Y020092D01*
X054673Y020191D02*
X054998Y020191D01*
X054998Y020289D02*
X054673Y020289D01*
X054673Y020388D02*
X054998Y020388D01*
X054998Y020486D02*
X054673Y020486D01*
X054673Y020585D02*
X054998Y020585D01*
X054998Y020683D02*
X054673Y020683D01*
X054673Y020782D02*
X054998Y020782D01*
X054998Y020880D02*
X054673Y020880D01*
X054673Y020979D02*
X054998Y020979D01*
X054998Y021077D02*
X054673Y021077D01*
X054673Y021176D02*
X054998Y021176D01*
X054998Y021274D02*
X054673Y021274D01*
X054678Y021373D02*
X054998Y021373D01*
X054998Y021471D02*
X054671Y021471D01*
X054628Y021570D02*
X054998Y021570D01*
X054998Y021668D02*
X054506Y021668D01*
X054373Y021393D02*
X054473Y021293D01*
X054473Y016793D01*
X054173Y016493D01*
X051468Y016493D01*
X051139Y016251D02*
X051106Y016251D01*
X051008Y016152D02*
X051238Y016152D01*
X050778Y016493D02*
X050778Y016983D01*
X050788Y016993D01*
X051457Y016993D02*
X052991Y016993D01*
X053673Y017675D01*
X053673Y018659D02*
X054039Y018659D01*
X054273Y018893D01*
X054273Y020739D01*
X054118Y020893D01*
X054092Y021274D02*
X053628Y021274D01*
X053716Y021176D02*
X053829Y021176D01*
X052780Y021964D02*
X054998Y021964D01*
X054998Y022062D02*
X052780Y022062D01*
X051648Y022358D02*
X051631Y022358D01*
X051314Y022358D02*
X050698Y022358D01*
X050790Y022259D02*
X051211Y022259D01*
X051171Y022161D02*
X050888Y022161D01*
X050973Y022062D02*
X051168Y022062D01*
X051196Y021964D02*
X050973Y021964D01*
X050973Y021865D02*
X051269Y021865D01*
X050773Y021993D02*
X050773Y020793D01*
X050373Y021373D02*
X049373Y021373D01*
X049373Y021471D02*
X049630Y021471D01*
X049631Y021469D02*
X049659Y021440D01*
X049696Y021425D01*
X050140Y021425D01*
X050140Y021634D01*
X049616Y021634D01*
X049616Y021505D01*
X049631Y021469D01*
X049616Y021570D02*
X049373Y021570D01*
X049373Y021668D02*
X049616Y021668D01*
X049616Y021767D02*
X049373Y021767D01*
X050140Y021570D02*
X050158Y021570D01*
X050158Y021471D02*
X050140Y021471D01*
X049616Y021274D02*
X049373Y021274D01*
X049373Y021176D02*
X049616Y021176D01*
X049616Y021077D02*
X049373Y021077D01*
X049373Y020979D02*
X049621Y020979D01*
X051107Y020143D02*
X051107Y019628D01*
X051173Y019593D01*
X049596Y019304D02*
X049373Y019304D01*
X049373Y019206D02*
X049579Y019206D01*
X049579Y019107D02*
X049373Y019107D01*
X049373Y019009D02*
X049579Y019009D01*
X049657Y018910D02*
X049373Y018910D01*
X049373Y018812D02*
X049603Y018812D01*
X049579Y018713D02*
X049373Y018713D01*
X049373Y018615D02*
X049579Y018615D01*
X049579Y018516D02*
X049373Y018516D01*
X049373Y018418D02*
X049639Y018418D01*
X049611Y018319D02*
X049373Y018319D01*
X049373Y018221D02*
X049579Y018221D01*
X049143Y019206D02*
X041792Y019206D01*
X038873Y020289D02*
X023708Y020289D01*
X023559Y020388D02*
X030618Y020388D01*
X030617Y020388D02*
X030705Y020301D01*
X031498Y020301D01*
X031586Y020388D01*
X038873Y020388D01*
X038873Y020486D02*
X031586Y020486D01*
X031586Y020388D02*
X031586Y020847D01*
X031498Y020935D01*
X030705Y020935D01*
X030617Y020847D01*
X030617Y020388D01*
X030617Y020486D02*
X023274Y020486D01*
X023278Y020388D02*
X023387Y020388D01*
X023525Y020585D02*
X030617Y020585D01*
X030617Y020683D02*
X023574Y020683D01*
X023574Y020782D02*
X030617Y020782D01*
X030650Y020880D02*
X023578Y020880D01*
X023574Y020979D02*
X029377Y020979D01*
X029326Y021077D02*
X023574Y021077D01*
X023273Y020893D02*
X023207Y020893D01*
X022973Y020393D02*
X022907Y020393D01*
X023373Y019993D02*
X023473Y020093D01*
X021099Y019393D02*
X019273Y019393D01*
X019073Y019193D01*
X019073Y017793D01*
X018889Y017609D01*
X018237Y017609D01*
X017654Y017630D02*
X014063Y017630D01*
X014161Y017531D02*
X017654Y017531D01*
X017654Y017433D02*
X014232Y017433D01*
X013361Y018122D02*
X012623Y018122D01*
X012623Y018221D02*
X013262Y018221D01*
X013164Y018319D02*
X012623Y018319D01*
X012623Y018418D02*
X013065Y018418D01*
X012967Y018516D02*
X012623Y018516D01*
X012623Y018615D02*
X012868Y018615D01*
X012770Y018713D02*
X012623Y018713D01*
X012623Y018812D02*
X012671Y018812D01*
X012592Y017728D02*
X006348Y017728D01*
X006348Y017630D02*
X012483Y017630D01*
X012385Y017531D02*
X006348Y017531D01*
X006348Y017433D02*
X012314Y017433D01*
X012257Y017334D02*
X006348Y017334D01*
X006348Y017236D02*
X012201Y017236D01*
X012174Y017137D02*
X006348Y017137D01*
X006348Y017039D02*
X012148Y017039D01*
X012123Y016940D02*
X006348Y016940D01*
X006348Y016842D02*
X012123Y016842D01*
X012123Y016743D02*
X006348Y016743D01*
X006348Y016645D02*
X012123Y016645D01*
X012148Y016546D02*
X006348Y016546D01*
X006348Y016448D02*
X012175Y016448D01*
X012315Y016152D02*
X006348Y016152D01*
X006348Y016054D02*
X012386Y016054D01*
X012484Y015955D02*
X006348Y015955D01*
X006348Y015857D02*
X012595Y015857D01*
X012765Y015758D02*
X006348Y015758D01*
X006348Y015660D02*
X013060Y015660D01*
X013486Y015660D02*
X020257Y015660D01*
X020158Y015561D02*
X017123Y015561D01*
X017233Y015463D02*
X020060Y015463D01*
X019961Y015364D02*
X017274Y015364D01*
X017278Y015266D02*
X017455Y015266D01*
X017859Y015266D02*
X017955Y015266D01*
X018359Y015266D02*
X018455Y015266D01*
X018859Y015266D02*
X018955Y015266D01*
X019359Y015266D02*
X019863Y015266D01*
X019853Y014973D02*
X020373Y015493D01*
X023273Y015493D01*
X023473Y015293D01*
X023573Y015293D01*
X023851Y015167D02*
X039209Y015167D01*
X039176Y015266D02*
X023878Y015266D01*
X023874Y015364D02*
X039176Y015364D01*
X039176Y015561D02*
X023723Y015561D01*
X023833Y015463D02*
X039424Y015463D01*
X039521Y015463D02*
X040153Y015463D01*
X040118Y015364D02*
X039770Y015364D01*
X039770Y015266D02*
X040118Y015266D01*
X040155Y015167D02*
X039736Y015167D01*
X039605Y015069D02*
X040241Y015069D01*
X040423Y015318D02*
X040423Y015806D01*
X040424Y015806D01*
X040621Y015806D02*
X040621Y016241D01*
X040818Y016138D02*
X040873Y016193D01*
X040818Y016138D02*
X040818Y015806D01*
X040227Y015806D02*
X040227Y016147D01*
X040273Y016193D01*
X040030Y016036D02*
X039973Y016093D01*
X039973Y016493D01*
X039873Y016793D02*
X040173Y016793D01*
X040227Y016847D01*
X040227Y017361D01*
X040424Y017361D02*
X040424Y017042D01*
X040573Y016693D01*
X040641Y016842D02*
X040427Y016842D01*
X040427Y016940D02*
X040618Y016940D01*
X040496Y017039D02*
X040427Y017039D01*
X040406Y016743D02*
X040740Y016743D01*
X040030Y016036D02*
X040030Y015806D01*
X039833Y015806D02*
X039833Y015553D01*
X039773Y015493D01*
X039521Y015364D02*
X039424Y015364D01*
X039424Y015266D02*
X039521Y015266D01*
X039521Y015167D02*
X039424Y015167D01*
X039341Y015069D02*
X023829Y015069D01*
X023871Y014970D02*
X039219Y014970D01*
X039175Y014872D02*
X023878Y014872D01*
X023853Y014773D02*
X039168Y014773D01*
X039221Y014542D02*
X039473Y014793D01*
X039770Y014872D02*
X040722Y014872D01*
X040722Y014970D02*
X039727Y014970D01*
X039221Y014542D02*
X039221Y014418D01*
X038715Y014675D02*
X037681Y014675D01*
X037873Y014576D02*
X038638Y014576D01*
X038638Y014478D02*
X037971Y014478D01*
X038070Y014379D02*
X038638Y014379D01*
X038638Y014281D02*
X038073Y014281D01*
X038073Y014182D02*
X038694Y014182D01*
X038638Y014084D02*
X038073Y014084D01*
X038073Y013985D02*
X038638Y013985D01*
X038638Y013887D02*
X038073Y013887D01*
X038073Y013788D02*
X038638Y013788D01*
X038687Y013690D02*
X038073Y013690D01*
X038073Y013591D02*
X038395Y013591D01*
X038550Y013591D02*
X038638Y013591D01*
X038473Y013293D02*
X038848Y012918D01*
X039221Y012918D01*
X039073Y012193D02*
X038473Y012793D01*
X038073Y012793D01*
X037873Y012993D01*
X037873Y014293D01*
X037748Y014418D01*
X037174Y014418D01*
X036667Y014675D02*
X023786Y014675D01*
X023633Y014576D02*
X036591Y014576D01*
X036591Y014478D02*
X023633Y014478D01*
X023633Y014379D02*
X036591Y014379D01*
X036235Y014281D02*
X023633Y014281D01*
X023633Y014182D02*
X036143Y014182D01*
X036143Y014084D02*
X023633Y014084D01*
X023633Y013985D02*
X036143Y013985D01*
X036143Y013887D02*
X023633Y013887D01*
X023686Y013788D02*
X036143Y013788D01*
X036143Y013690D02*
X023784Y013690D01*
X023798Y013591D02*
X036143Y013591D01*
X036143Y013493D02*
X023798Y013493D01*
X023798Y013394D02*
X036143Y013394D01*
X036143Y013296D02*
X023798Y013296D01*
X023798Y013197D02*
X036143Y013197D01*
X036143Y013099D02*
X023798Y013099D01*
X023798Y013000D02*
X036143Y013000D01*
X036143Y012902D02*
X023798Y012902D01*
X023798Y012803D02*
X036143Y012803D01*
X036143Y012705D02*
X023798Y012705D01*
X023798Y012606D02*
X036143Y012606D01*
X036143Y012508D02*
X023798Y012508D01*
X023598Y012508D02*
X020637Y012508D01*
X020608Y012409D02*
X023598Y012409D01*
X023598Y012606D02*
X020723Y012606D01*
X020723Y012705D02*
X023598Y012705D01*
X023598Y012803D02*
X020723Y012803D01*
X020723Y012902D02*
X023598Y012902D01*
X023598Y013000D02*
X020723Y013000D01*
X020723Y013099D02*
X023598Y013099D01*
X023598Y013197D02*
X020723Y013197D01*
X020723Y013296D02*
X023598Y013296D01*
X023598Y013394D02*
X020723Y013394D01*
X020723Y013493D02*
X023598Y013493D01*
X023598Y013591D02*
X020723Y013591D01*
X020635Y013788D02*
X020600Y013788D01*
X020662Y014182D02*
X019445Y014182D01*
X019446Y014084D02*
X022185Y014084D01*
X022284Y013985D02*
X019448Y013985D01*
X019449Y013887D02*
X022382Y013887D01*
X020353Y014733D02*
X020353Y014973D01*
X020673Y015293D01*
X023173Y015293D01*
X023573Y014893D01*
X023389Y015660D02*
X039176Y015660D01*
X039218Y015758D02*
X013780Y015758D01*
X013951Y015857D02*
X038878Y015857D01*
X038800Y015955D02*
X014061Y015955D01*
X014160Y016054D02*
X038768Y016054D01*
X038768Y016152D02*
X014231Y016152D01*
X012900Y015167D02*
X006348Y015167D01*
X006348Y015069D02*
X012801Y015069D01*
X012703Y014970D02*
X006348Y014970D01*
X006348Y014872D02*
X012604Y014872D01*
X012506Y014773D02*
X006348Y014773D01*
X006348Y014675D02*
X012407Y014675D01*
X012309Y014576D02*
X006348Y014576D01*
X006348Y014478D02*
X012210Y014478D01*
X012112Y014379D02*
X006348Y014379D01*
X006348Y014281D02*
X012013Y014281D01*
X011963Y014182D02*
X006348Y014182D01*
X006348Y014084D02*
X011963Y014084D01*
X011963Y013985D02*
X006348Y013985D01*
X006348Y013887D02*
X008184Y013887D01*
X008085Y013788D02*
X006348Y013788D01*
X006348Y013690D02*
X007987Y013690D01*
X007888Y013591D02*
X006348Y013591D01*
X006348Y013493D02*
X007798Y013493D01*
X007798Y013394D02*
X006348Y013394D01*
X006348Y013296D02*
X007798Y013296D01*
X007798Y013197D02*
X006348Y013197D01*
X006348Y013099D02*
X007798Y013099D01*
X007798Y013000D02*
X006348Y013000D01*
X006348Y012902D02*
X007798Y012902D01*
X007798Y012803D02*
X006348Y012803D01*
X006348Y012705D02*
X007798Y012705D01*
X007798Y012606D02*
X006348Y012606D01*
X006348Y012508D02*
X007798Y012508D01*
X007798Y012409D02*
X006348Y012409D01*
X006348Y012311D02*
X007798Y012311D01*
X007798Y012212D02*
X006348Y012212D01*
X006348Y012114D02*
X007798Y012114D01*
X007798Y012015D02*
X006348Y012015D01*
X006348Y011917D02*
X007798Y011917D01*
X007798Y011818D02*
X006348Y011818D01*
X006348Y011720D02*
X007798Y011720D01*
X007798Y011621D02*
X006348Y011621D01*
X006348Y011523D02*
X007798Y011523D01*
X007798Y011424D02*
X006348Y011424D01*
X006348Y011326D02*
X007798Y011326D01*
X007798Y011227D02*
X006348Y011227D01*
X006348Y011129D02*
X007798Y011129D01*
X007798Y011030D02*
X006348Y011030D01*
X006348Y010932D02*
X007798Y010932D01*
X007798Y010833D02*
X006348Y010833D01*
X006348Y010735D02*
X007798Y010735D01*
X007798Y010636D02*
X006348Y010636D01*
X006348Y010538D02*
X007798Y010538D01*
X007798Y010439D02*
X006348Y010439D01*
X006348Y010341D02*
X007798Y010341D01*
X007798Y010242D02*
X006348Y010242D01*
X006348Y010144D02*
X007798Y010144D01*
X007798Y010045D02*
X006348Y010045D01*
X006348Y009947D02*
X007798Y009947D01*
X007798Y009848D02*
X006348Y009848D01*
X006348Y009750D02*
X007798Y009750D01*
X007798Y009651D02*
X006348Y009651D01*
X006348Y009553D02*
X007798Y009553D01*
X007798Y009454D02*
X006348Y009454D01*
X006348Y009356D02*
X007798Y009356D01*
X007798Y009257D02*
X006348Y009257D01*
X006348Y009159D02*
X007798Y009159D01*
X007798Y009060D02*
X006348Y009060D01*
X006348Y008962D02*
X007798Y008962D01*
X007798Y008863D02*
X006348Y008863D01*
X006348Y008765D02*
X007798Y008765D01*
X007798Y008666D02*
X006348Y008666D01*
X006348Y008568D02*
X007798Y008568D01*
X007707Y008469D02*
X006956Y008469D01*
X006947Y008475D02*
X006907Y008485D01*
X006796Y008485D01*
X006796Y008237D01*
X006699Y008237D01*
X006699Y008140D01*
X006451Y008140D01*
X006451Y008030D01*
X006462Y007989D01*
X006483Y007953D01*
X006512Y007924D01*
X006549Y007903D01*
X006589Y007892D01*
X006699Y007892D01*
X006699Y008140D01*
X006796Y008140D01*
X006796Y007892D01*
X006907Y007892D01*
X006947Y007903D01*
X006983Y007924D01*
X007013Y007953D01*
X007034Y007989D01*
X007045Y008030D01*
X007045Y008140D01*
X006796Y008140D01*
X006796Y008237D01*
X007045Y008237D01*
X007045Y008347D01*
X007034Y008388D01*
X007013Y008424D01*
X006983Y008454D01*
X006947Y008475D01*
X007038Y008371D02*
X007651Y008371D01*
X007651Y008272D02*
X007045Y008272D01*
X007045Y008075D02*
X007651Y008075D01*
X007651Y007977D02*
X007027Y007977D01*
X007037Y007780D02*
X007708Y007780D01*
X007737Y007878D02*
X006348Y007878D01*
X006348Y007780D02*
X006458Y007780D01*
X006401Y007681D02*
X006348Y007681D01*
X006348Y007583D02*
X006401Y007583D01*
X006401Y007484D02*
X006348Y007484D01*
X006348Y007386D02*
X006401Y007386D01*
X006401Y007287D02*
X006348Y007287D01*
X006348Y007189D02*
X006486Y007189D01*
X006348Y007090D02*
X006744Y007090D01*
X006953Y007293D02*
X006973Y007293D01*
X006953Y007293D02*
X006748Y007498D01*
X007095Y007583D02*
X007651Y007583D01*
X007651Y007681D02*
X007095Y007681D01*
X007213Y007484D02*
X007651Y007484D01*
X007651Y007386D02*
X007265Y007386D01*
X007278Y007287D02*
X007651Y007287D01*
X007736Y007189D02*
X007260Y007189D01*
X007201Y007090D02*
X008044Y007090D01*
X008203Y007293D02*
X008273Y007293D01*
X008203Y007293D02*
X007998Y007498D01*
X007998Y008189D02*
X007998Y013418D01*
X008273Y013693D01*
X013273Y013693D01*
X014923Y012809D02*
X014923Y012343D01*
X014873Y012293D01*
X014923Y012809D02*
X015234Y012809D01*
X015423Y012620D01*
X016073Y011993D02*
X016773Y011993D01*
X016873Y012093D01*
X016873Y012570D01*
X016923Y012620D01*
X016073Y011993D02*
X014973Y010893D01*
X014973Y009793D01*
X015473Y009193D02*
X017173Y009193D01*
X017973Y009993D01*
X020118Y009993D01*
X020098Y010045D02*
X023598Y010045D01*
X023598Y010144D02*
X020098Y010144D01*
X020098Y010242D02*
X023598Y010242D01*
X023473Y010242D02*
X036604Y010242D01*
X037373Y010144D02*
X023473Y010144D01*
X023473Y010045D02*
X037373Y010045D01*
X050373Y010045D01*
X050373Y009947D02*
X037373Y009947D01*
X023473Y009947D01*
X023473Y009848D02*
X037373Y009848D01*
X050373Y009848D01*
X050373Y009750D02*
X037373Y009750D01*
X023473Y009750D01*
X023473Y009651D02*
X037373Y009651D01*
X050373Y009651D01*
X050373Y009553D02*
X037373Y009553D01*
X023473Y009553D01*
X023473Y009454D02*
X037373Y009454D01*
X050373Y009454D01*
X050373Y009356D02*
X037373Y009356D01*
X023473Y009356D01*
X023473Y009257D02*
X037373Y009257D01*
X050373Y009257D01*
X050373Y009159D02*
X037373Y009159D01*
X023473Y009159D01*
X023473Y009060D02*
X037373Y009060D01*
X050373Y009060D01*
X050938Y008765D02*
X051408Y008765D01*
X051486Y008843D02*
X051223Y008580D01*
X051223Y008207D01*
X051486Y007943D01*
X051859Y007943D01*
X052123Y008207D01*
X052123Y008580D01*
X051859Y008843D01*
X051486Y008843D01*
X051309Y008666D02*
X051036Y008666D01*
X051123Y008568D02*
X051223Y008568D01*
X051223Y008469D02*
X051123Y008469D01*
X051123Y008371D02*
X051223Y008371D01*
X051223Y008272D02*
X051123Y008272D01*
X051090Y008174D02*
X051256Y008174D01*
X051354Y008075D02*
X050991Y008075D01*
X050893Y007977D02*
X051453Y007977D01*
X051423Y007780D02*
X050923Y007780D01*
X051021Y007681D02*
X051324Y007681D01*
X051226Y007583D02*
X051120Y007583D01*
X051123Y007484D02*
X051223Y007484D01*
X051223Y007386D02*
X051123Y007386D01*
X051123Y007287D02*
X051223Y007287D01*
X051241Y007189D02*
X051105Y007189D01*
X051006Y007090D02*
X051339Y007090D01*
X052006Y007090D02*
X052339Y007090D01*
X052241Y007189D02*
X052105Y007189D01*
X052123Y007287D02*
X052223Y007287D01*
X052223Y007386D02*
X052123Y007386D01*
X052123Y007484D02*
X052223Y007484D01*
X052226Y007583D02*
X052120Y007583D01*
X052021Y007681D02*
X052324Y007681D01*
X052423Y007780D02*
X051923Y007780D01*
X051893Y007977D02*
X052453Y007977D01*
X052354Y008075D02*
X051991Y008075D01*
X052090Y008174D02*
X052256Y008174D01*
X052223Y008272D02*
X052123Y008272D01*
X052123Y008371D02*
X052223Y008371D01*
X052223Y008469D02*
X052123Y008469D01*
X052123Y008568D02*
X052223Y008568D01*
X052309Y008666D02*
X052036Y008666D01*
X051938Y008765D02*
X052408Y008765D01*
X052893Y007977D02*
X053453Y007977D01*
X053423Y007780D02*
X052923Y007780D01*
X053021Y007681D02*
X053324Y007681D01*
X053226Y007583D02*
X053120Y007583D01*
X053123Y007484D02*
X053223Y007484D01*
X053223Y007386D02*
X053123Y007386D01*
X053123Y007287D02*
X053223Y007287D01*
X053241Y007189D02*
X053105Y007189D01*
X053006Y007090D02*
X053339Y007090D01*
X054006Y007090D02*
X054339Y007090D01*
X054241Y007189D02*
X054105Y007189D01*
X054123Y007287D02*
X054223Y007287D01*
X054223Y007386D02*
X054123Y007386D01*
X054123Y007484D02*
X054223Y007484D01*
X054226Y007583D02*
X054120Y007583D01*
X054021Y007681D02*
X054324Y007681D01*
X054423Y007780D02*
X053923Y007780D01*
X053893Y007977D02*
X054453Y007977D01*
X054354Y008075D02*
X053991Y008075D01*
X054090Y008174D02*
X054256Y008174D01*
X054223Y008272D02*
X054123Y008272D01*
X054123Y008371D02*
X054223Y008371D01*
X054223Y008469D02*
X054123Y008469D01*
X054123Y008568D02*
X054223Y008568D01*
X054309Y008666D02*
X054036Y008666D01*
X053938Y008765D02*
X054408Y008765D01*
X054991Y008075D02*
X054998Y008075D01*
X054998Y007977D02*
X054893Y007977D01*
X054998Y007878D02*
X036189Y007878D01*
X035756Y007878D02*
X033740Y007878D01*
X033642Y007977D02*
X034406Y007977D01*
X034308Y008075D02*
X033434Y008075D01*
X033211Y008075D02*
X031568Y008075D01*
X031666Y008174D02*
X034209Y008174D01*
X034111Y008272D02*
X031765Y008272D01*
X031469Y007977D02*
X033004Y007977D01*
X032905Y007878D02*
X031371Y007878D01*
X031272Y007780D02*
X032848Y007780D01*
X032808Y007681D02*
X031278Y007681D01*
X031288Y007583D02*
X032798Y007583D01*
X032798Y007484D02*
X031288Y007484D01*
X031262Y007386D02*
X032824Y007386D01*
X032865Y007287D02*
X031221Y007287D01*
X031141Y007189D02*
X032945Y007189D01*
X033069Y007090D02*
X031017Y007090D01*
X033873Y008093D02*
X034073Y008093D01*
X036143Y010538D02*
X026478Y010538D01*
X026478Y010636D02*
X036143Y010636D01*
X036143Y010735D02*
X026444Y010735D01*
X026364Y010833D02*
X036143Y010833D01*
X036143Y010932D02*
X026273Y010932D01*
X026273Y011030D02*
X036143Y011030D01*
X036143Y011129D02*
X026273Y011129D01*
X026273Y011227D02*
X036143Y011227D01*
X036143Y011326D02*
X026273Y011326D01*
X026273Y011424D02*
X036143Y011424D01*
X036143Y011523D02*
X026273Y011523D01*
X026273Y011621D02*
X036143Y011621D01*
X036143Y011720D02*
X026273Y011720D01*
X026273Y011818D02*
X036143Y011818D01*
X036143Y011917D02*
X026232Y011917D01*
X026134Y012015D02*
X036143Y012015D01*
X036143Y012114D02*
X026035Y012114D01*
X025937Y012212D02*
X036143Y012212D01*
X036143Y012311D02*
X025838Y012311D01*
X025723Y012143D02*
X024996Y012143D01*
X024499Y012409D02*
X024088Y012409D01*
X024154Y012311D02*
X024413Y012311D01*
X024413Y012212D02*
X024178Y012212D01*
X024170Y012114D02*
X024413Y012114D01*
X024413Y012015D02*
X024126Y012015D01*
X024002Y011917D02*
X024460Y011917D01*
X024413Y011818D02*
X023798Y011818D01*
X023798Y011720D02*
X024413Y011720D01*
X024413Y011621D02*
X023798Y011621D01*
X023798Y011523D02*
X024413Y011523D01*
X024452Y011424D02*
X023798Y011424D01*
X023798Y011326D02*
X024416Y011326D01*
X024413Y011227D02*
X023798Y011227D01*
X023798Y011129D02*
X024413Y011129D01*
X024413Y011030D02*
X023798Y011030D01*
X023798Y010932D02*
X024445Y010932D01*
X024082Y010833D02*
X023798Y010833D01*
X023798Y010735D02*
X024001Y010735D01*
X023968Y010636D02*
X023798Y010636D01*
X023798Y010538D02*
X023968Y010538D01*
X024273Y010593D02*
X024946Y010593D01*
X024996Y010643D01*
X026073Y010693D02*
X026173Y010593D01*
X026073Y010693D02*
X026073Y011793D01*
X025723Y012143D01*
X025494Y012409D02*
X036143Y012409D01*
X038073Y012443D02*
X038073Y011993D01*
X038073Y012443D02*
X038107Y012443D01*
X038149Y013000D02*
X038383Y013000D01*
X038236Y013099D02*
X038073Y013099D01*
X038073Y013197D02*
X038182Y013197D01*
X038168Y013296D02*
X038073Y013296D01*
X038073Y013394D02*
X038185Y013394D01*
X038241Y013493D02*
X038073Y013493D01*
X039073Y012193D02*
X039073Y012014D01*
X039159Y011928D01*
X038748Y011518D02*
X040698Y011518D01*
X040698Y010343D01*
X038748Y010343D01*
X038748Y011518D01*
X038748Y011424D02*
X040698Y011424D01*
X040698Y011326D02*
X038748Y011326D01*
X038748Y011227D02*
X040698Y011227D01*
X040698Y011129D02*
X038748Y011129D01*
X038748Y011030D02*
X040698Y011030D01*
X040698Y010932D02*
X038748Y010932D01*
X038748Y010833D02*
X040698Y010833D01*
X040698Y010735D02*
X038748Y010735D01*
X038748Y010636D02*
X040698Y010636D01*
X040698Y010538D02*
X038748Y010538D01*
X038748Y010439D02*
X040698Y010439D01*
X045200Y010538D02*
X047055Y010538D01*
X046817Y010636D02*
X045299Y010636D01*
X045397Y010735D02*
X046655Y010735D01*
X046556Y010833D02*
X045496Y010833D01*
X045594Y010932D02*
X046458Y010932D01*
X046399Y011030D02*
X045623Y011030D01*
X045623Y011129D02*
X046342Y011129D01*
X046294Y011227D02*
X045623Y011227D01*
X045623Y011326D02*
X046267Y011326D01*
X046241Y011424D02*
X045623Y011424D01*
X045623Y011523D02*
X046223Y011523D01*
X046223Y011621D02*
X045623Y011621D01*
X045623Y011720D02*
X046223Y011720D01*
X046229Y011818D02*
X045623Y011818D01*
X045623Y011917D02*
X046256Y011917D01*
X046282Y012015D02*
X045623Y012015D01*
X045623Y012114D02*
X046317Y012114D01*
X046373Y012212D02*
X045623Y012212D01*
X045623Y012311D02*
X046430Y012311D01*
X046513Y012409D02*
X045540Y012409D01*
X045441Y012508D02*
X046611Y012508D01*
X046741Y012606D02*
X045343Y012606D01*
X049373Y014478D02*
X049579Y014478D01*
X049618Y014576D02*
X049373Y014576D01*
X050103Y014576D02*
X050121Y014576D01*
X050121Y014478D02*
X050103Y014478D01*
X050103Y014675D02*
X050121Y014675D01*
X050121Y014773D02*
X050103Y014773D01*
X041357Y015069D02*
X041317Y015069D01*
X040759Y015069D02*
X040605Y015069D01*
X039473Y016128D02*
X039438Y016093D01*
X039073Y016093D01*
X038948Y017137D02*
X039402Y017137D01*
X038468Y017334D02*
X023951Y017334D01*
X024030Y017433D02*
X038468Y017433D01*
X038500Y017531D02*
X024030Y017531D01*
X024030Y017630D02*
X038578Y017630D01*
X032873Y018293D02*
X032320Y018293D01*
X032283Y018256D01*
X031586Y020585D02*
X038873Y020585D01*
X038873Y020683D02*
X031586Y020683D01*
X031586Y020782D02*
X038873Y020782D01*
X038873Y020880D02*
X031553Y020880D01*
X031088Y021309D02*
X030273Y021309D01*
X029673Y021309D01*
X029969Y020979D02*
X029977Y020979D01*
X030569Y020979D02*
X038873Y020979D01*
X038873Y021077D02*
X030620Y021077D01*
X030620Y022456D02*
X030651Y022456D01*
X031708Y023146D02*
X031798Y023146D01*
X031807Y023244D02*
X031833Y023244D01*
X031102Y023768D02*
X031027Y023693D01*
X029973Y023693D01*
X029702Y023835D02*
X029198Y023835D01*
X029099Y023737D02*
X029668Y023737D01*
X029635Y023638D02*
X029001Y023638D01*
X028902Y023540D02*
X029353Y023540D01*
X029296Y023934D02*
X029782Y023934D01*
X029723Y024032D02*
X029623Y024032D01*
X029623Y024131D02*
X029723Y024131D01*
X029723Y024229D02*
X029623Y024229D01*
X029623Y024328D02*
X029723Y024328D01*
X029468Y024032D02*
X029373Y024032D01*
X029373Y024722D02*
X029436Y024722D01*
X030429Y024328D02*
X031773Y024328D01*
X031573Y024032D02*
X031551Y024032D01*
X039009Y023540D02*
X039278Y023540D01*
X039278Y023638D02*
X039038Y023638D01*
X039208Y023737D02*
X039278Y023737D01*
X039108Y023441D02*
X040793Y023441D01*
X040706Y023540D02*
X040248Y023540D01*
X040248Y023638D02*
X040668Y023638D01*
X040346Y023737D02*
X040248Y023737D01*
X040248Y023835D02*
X040248Y023835D01*
X040573Y024093D02*
X041173Y024093D01*
X041273Y023993D01*
X041773Y023959D02*
X041773Y023593D01*
X040573Y024093D02*
X040373Y024293D01*
X040373Y024793D01*
X040573Y024993D01*
X041573Y024993D01*
X041773Y024793D01*
X041773Y024628D01*
X047173Y023193D02*
X047473Y023493D01*
X048173Y023493D01*
X048573Y023893D01*
X050173Y023893D01*
X050673Y024393D01*
X050981Y024722D02*
X051365Y024722D01*
X051463Y024820D02*
X050882Y024820D01*
X050933Y025017D02*
X051412Y025017D01*
X051314Y025116D02*
X051032Y025116D01*
X051123Y025214D02*
X051223Y025214D01*
X051223Y025313D02*
X051123Y025313D01*
X051123Y025411D02*
X051223Y025411D01*
X051223Y025510D02*
X051123Y025510D01*
X051094Y025608D02*
X051251Y025608D01*
X051350Y025707D02*
X050996Y025707D01*
X050350Y025707D02*
X049996Y025707D01*
X050094Y025608D02*
X050251Y025608D01*
X050223Y025510D02*
X050123Y025510D01*
X050123Y025411D02*
X050223Y025411D01*
X050223Y025313D02*
X050123Y025313D01*
X050123Y025214D02*
X050223Y025214D01*
X050314Y025116D02*
X050032Y025116D01*
X049933Y025017D02*
X050412Y025017D01*
X050463Y024820D02*
X049882Y024820D01*
X049981Y024722D02*
X050365Y024722D01*
X050266Y024623D02*
X050079Y024623D01*
X050123Y024525D02*
X050223Y024525D01*
X050223Y024426D02*
X050123Y024426D01*
X050123Y024328D02*
X050223Y024328D01*
X050223Y024229D02*
X050123Y024229D01*
X050128Y024131D02*
X050047Y024131D01*
X050398Y023835D02*
X053568Y023835D01*
X053568Y023737D02*
X050299Y023737D01*
X050496Y023934D02*
X053601Y023934D01*
X053397Y024032D02*
X052948Y024032D01*
X052859Y023943D02*
X053123Y024207D01*
X053123Y024580D01*
X052859Y024843D01*
X052486Y024843D01*
X052223Y024580D01*
X052223Y024207D01*
X052486Y023943D01*
X052859Y023943D01*
X053047Y024131D02*
X053299Y024131D01*
X053223Y024229D02*
X053123Y024229D01*
X053123Y024328D02*
X053223Y024328D01*
X053223Y024426D02*
X053123Y024426D01*
X053123Y024525D02*
X053223Y024525D01*
X053266Y024623D02*
X053079Y024623D01*
X052981Y024722D02*
X053365Y024722D01*
X053463Y024820D02*
X052882Y024820D01*
X052933Y025017D02*
X053412Y025017D01*
X053314Y025116D02*
X053032Y025116D01*
X053123Y025214D02*
X053223Y025214D01*
X053223Y025313D02*
X053123Y025313D01*
X053123Y025411D02*
X053223Y025411D01*
X053223Y025510D02*
X053123Y025510D01*
X053094Y025608D02*
X053251Y025608D01*
X053350Y025707D02*
X052996Y025707D01*
X052350Y025707D02*
X051996Y025707D01*
X052094Y025608D02*
X052251Y025608D01*
X052223Y025510D02*
X052123Y025510D01*
X052123Y025411D02*
X052223Y025411D01*
X052223Y025313D02*
X052123Y025313D01*
X052123Y025214D02*
X052223Y025214D01*
X052314Y025116D02*
X052032Y025116D01*
X051933Y025017D02*
X052412Y025017D01*
X052463Y024820D02*
X051882Y024820D01*
X051859Y024843D02*
X051486Y024843D01*
X051223Y024580D01*
X051223Y024207D01*
X051486Y023943D01*
X051859Y023943D01*
X052123Y024207D01*
X052123Y024580D01*
X051859Y024843D01*
X051981Y024722D02*
X052365Y024722D01*
X052266Y024623D02*
X052079Y024623D01*
X052123Y024525D02*
X052223Y024525D01*
X052223Y024426D02*
X052123Y024426D01*
X052123Y024328D02*
X052223Y024328D01*
X052223Y024229D02*
X052123Y024229D01*
X052047Y024131D02*
X052299Y024131D01*
X052397Y024032D02*
X051948Y024032D01*
X051397Y024032D02*
X050948Y024032D01*
X051047Y024131D02*
X051299Y024131D01*
X051223Y024229D02*
X051123Y024229D01*
X051123Y024328D02*
X051223Y024328D01*
X051223Y024426D02*
X051123Y024426D01*
X051123Y024525D02*
X051223Y024525D01*
X051266Y024623D02*
X051079Y024623D01*
X049266Y024623D02*
X049079Y024623D01*
X049123Y024525D02*
X049223Y024525D01*
X049223Y024426D02*
X049123Y024426D01*
X049123Y024328D02*
X049223Y024328D01*
X049223Y024229D02*
X049123Y024229D01*
X049047Y024131D02*
X049299Y024131D01*
X048601Y023638D02*
X053607Y023638D01*
X053695Y023540D02*
X048502Y023540D01*
X048404Y023441D02*
X054998Y023441D01*
X054998Y023343D02*
X048305Y023343D01*
X047507Y023244D02*
X054998Y023244D01*
X054998Y023146D02*
X047478Y023146D01*
X047443Y023047D02*
X054998Y023047D01*
X054998Y022949D02*
X047360Y022949D01*
X047073Y022850D02*
X054998Y022850D01*
X054998Y022752D02*
X047073Y022752D01*
X047073Y022653D02*
X054998Y022653D01*
X054998Y022555D02*
X047073Y022555D01*
X050149Y022143D02*
X050623Y022143D01*
X050773Y021993D01*
X053873Y023793D02*
X054173Y024093D01*
X054173Y024793D01*
X054673Y025293D01*
X054673Y025393D01*
X054998Y025082D02*
X054998Y024634D01*
X054839Y024793D01*
X054723Y024793D01*
X054723Y024443D01*
X054623Y024443D01*
X054623Y024793D01*
X054507Y024793D01*
X054373Y024659D01*
X054373Y024710D01*
X054606Y024943D01*
X054859Y024943D01*
X054998Y025082D01*
X054998Y025017D02*
X054933Y025017D01*
X054998Y024919D02*
X054581Y024919D01*
X054483Y024820D02*
X054998Y024820D01*
X054998Y024722D02*
X054910Y024722D01*
X054723Y024722D02*
X054623Y024722D01*
X054623Y024623D02*
X054723Y024623D01*
X054723Y024525D02*
X054623Y024525D01*
X054623Y024328D02*
X054723Y024328D01*
X054723Y024229D02*
X054623Y024229D01*
X054623Y024131D02*
X054723Y024131D01*
X054723Y024032D02*
X054623Y024032D01*
X054468Y024032D02*
X054373Y024032D01*
X054296Y023934D02*
X054998Y023934D01*
X054998Y024032D02*
X054878Y024032D01*
X054976Y024131D02*
X054998Y024131D01*
X054998Y023835D02*
X054198Y023835D01*
X054178Y023737D02*
X054998Y023737D01*
X054998Y023638D02*
X054139Y023638D01*
X054051Y023540D02*
X054998Y023540D01*
X054436Y024722D02*
X054384Y024722D01*
X054114Y025017D02*
X053933Y025017D01*
X054016Y024919D02*
X048481Y024919D01*
X048463Y024820D02*
X048383Y024820D01*
X053882Y024820D02*
X053973Y024820D01*
X054032Y025116D02*
X054213Y025116D01*
X054223Y025214D02*
X054123Y025214D01*
X054123Y025313D02*
X054223Y025313D01*
X054223Y025411D02*
X054123Y025411D01*
X054123Y025510D02*
X054223Y025510D01*
X054251Y025608D02*
X054094Y025608D01*
X053996Y025707D02*
X054350Y025707D01*
X023873Y012193D02*
X022999Y012193D01*
X022949Y012143D01*
X022416Y012114D02*
X020243Y012114D01*
X020145Y012015D02*
X022416Y012015D01*
X022416Y012212D02*
X020568Y012212D01*
X020608Y012311D02*
X022424Y012311D01*
X023482Y012015D02*
X023598Y012015D01*
X023598Y011917D02*
X020098Y011917D01*
X020098Y011818D02*
X023598Y011818D01*
X023598Y011720D02*
X020098Y011720D01*
X020098Y011621D02*
X023598Y011621D01*
X023598Y011523D02*
X020098Y011523D01*
X020098Y011424D02*
X023598Y011424D01*
X023598Y011326D02*
X023459Y011326D01*
X023482Y011227D02*
X023598Y011227D01*
X023598Y011129D02*
X023482Y011129D01*
X023482Y011030D02*
X023598Y011030D01*
X023598Y010932D02*
X023430Y010932D01*
X022949Y011643D02*
X022323Y011643D01*
X019573Y011793D02*
X019173Y011393D01*
X019173Y010493D01*
X019039Y010359D01*
X018437Y010359D01*
X016373Y010343D02*
X014823Y008793D01*
X013618Y008793D01*
X012928Y008793D02*
X012373Y008793D01*
X014468Y008189D02*
X015473Y009193D01*
X014468Y008189D02*
X009298Y008189D01*
X009298Y007498D02*
X009503Y007293D01*
X009573Y007293D01*
X007651Y008174D02*
X006796Y008174D01*
X006699Y008174D02*
X006348Y008174D01*
X006348Y008272D02*
X006451Y008272D01*
X006451Y008237D02*
X006451Y008347D01*
X006462Y008388D01*
X006483Y008424D01*
X006512Y008454D01*
X006549Y008475D01*
X006589Y008485D01*
X006699Y008485D01*
X006699Y008237D01*
X006451Y008237D01*
X006457Y008371D02*
X006348Y008371D01*
X006348Y008469D02*
X006539Y008469D01*
X006699Y008469D02*
X006796Y008469D01*
X006796Y008371D02*
X006699Y008371D01*
X006699Y008272D02*
X006796Y008272D01*
X006796Y008075D02*
X006699Y008075D01*
X006699Y007977D02*
X006796Y007977D01*
X006469Y007977D02*
X006348Y007977D01*
X006348Y008075D02*
X006451Y008075D01*
X019173Y011793D02*
X019173Y012641D01*
X019157Y012657D01*
X019443Y014281D02*
X019603Y014281D01*
X019563Y014379D02*
X019442Y014379D01*
X019441Y014478D02*
X019563Y014478D01*
X019563Y014576D02*
X019439Y014576D01*
X019438Y014675D02*
X019563Y014675D01*
X019563Y014773D02*
X019437Y014773D01*
X019435Y014872D02*
X019563Y014872D01*
X019563Y014970D02*
X019434Y014970D01*
X019433Y015069D02*
X019563Y015069D01*
X019585Y015167D02*
X019425Y015167D01*
X019853Y014973D02*
X019853Y014733D01*
X016923Y014667D02*
X016923Y015243D01*
X016973Y015293D01*
X016668Y015266D02*
X006348Y015266D01*
X006348Y015364D02*
X016672Y015364D01*
X016713Y015463D02*
X006348Y015463D01*
X006348Y015561D02*
X016823Y015561D01*
X019973Y017531D02*
X021673Y017531D01*
X021673Y017630D02*
X019973Y017630D01*
X019973Y017728D02*
X021673Y017728D01*
X021673Y017827D02*
X019973Y017827D01*
X019973Y017925D02*
X020875Y017925D01*
X020866Y018024D02*
X019973Y018024D01*
X019973Y018122D02*
X020866Y018122D01*
X020866Y018221D02*
X019973Y018221D01*
X021929Y017827D02*
X022575Y017827D01*
X022499Y017728D02*
X021982Y017728D01*
X021982Y017630D02*
X022468Y017630D01*
X022468Y017531D02*
X021982Y017531D01*
X021982Y017433D02*
X022509Y017433D01*
X022601Y017334D02*
X021904Y017334D01*
X022773Y017593D02*
X023446Y017593D01*
X019324Y019797D02*
X015752Y019797D01*
X015654Y019895D02*
X019271Y019895D01*
X019243Y019994D02*
X015555Y019994D01*
X015457Y020092D02*
X019243Y020092D01*
X019271Y020191D02*
X015358Y020191D01*
X015260Y020289D02*
X019323Y020289D01*
X019429Y020388D02*
X015161Y020388D01*
X020015Y020191D02*
X020188Y020191D01*
X020089Y020092D02*
X020043Y020092D01*
X021710Y022456D02*
X022615Y022456D01*
X022615Y022358D02*
X021931Y022358D01*
X021710Y022555D02*
X022615Y022555D01*
X022530Y022653D02*
X021710Y022653D01*
X021667Y022752D02*
X022431Y022752D01*
X022573Y022893D02*
X022573Y023128D01*
X022532Y023168D01*
X022948Y023168D01*
X022973Y023193D01*
X022940Y022783D02*
X022683Y022783D01*
X022573Y022893D01*
X022555Y023168D02*
X022532Y023168D01*
X022225Y022850D02*
X021660Y022850D01*
X021635Y022783D02*
X021635Y022783D01*
X021550Y022943D02*
X021385Y022943D01*
X021190Y022943D01*
X021173Y022936D01*
X021173Y023293D01*
X021547Y023293D01*
X021547Y023217D01*
X021815Y023217D01*
X021815Y023120D01*
X021547Y023120D01*
X021547Y022952D01*
X021550Y022943D01*
X021548Y022949D02*
X021173Y022949D01*
X021173Y023047D02*
X021547Y023047D01*
X021385Y022943D02*
X021385Y022796D01*
X021385Y022943D01*
X021385Y022850D02*
X021385Y022850D01*
X021385Y022796D02*
X021385Y022796D01*
X021385Y022586D02*
X021080Y022586D01*
X021815Y022949D02*
X021912Y022949D01*
X021912Y023047D02*
X021815Y023047D01*
X021815Y023146D02*
X021173Y023146D01*
X021173Y023244D02*
X021547Y023244D01*
X018869Y023244D02*
X018496Y023244D01*
X018553Y023146D02*
X018398Y023146D01*
X018223Y024426D02*
X014502Y024426D01*
X014044Y024426D02*
X013765Y024426D01*
X013765Y024525D02*
X013946Y024525D01*
X013172Y024919D02*
X013030Y024919D01*
X013072Y024820D02*
X013074Y024820D01*
X012773Y024639D02*
X012728Y024593D01*
X012773Y024639D02*
X012773Y025093D01*
X054923Y007780D02*
X054998Y007780D01*
D28*
X053273Y011393D03*
X051373Y011393D03*
X051073Y013893D03*
X046973Y013993D03*
X045173Y015693D03*
X044773Y016093D03*
X043073Y016993D03*
X042773Y017293D03*
X041673Y017193D03*
X040573Y016693D03*
X039973Y016493D03*
X040273Y016193D03*
X039373Y016693D03*
X039673Y016993D03*
X038773Y017393D03*
X040073Y018093D03*
X039773Y018393D03*
X039373Y018393D03*
X039073Y018693D03*
X041573Y018993D03*
X041873Y018693D03*
X042173Y018393D03*
X041473Y020293D03*
X040973Y020593D03*
X042773Y020593D03*
X043073Y020293D03*
X044273Y021893D03*
X043173Y022593D03*
X042973Y023593D03*
X043573Y023593D03*
X042373Y023593D03*
X041773Y023593D03*
X041273Y023993D03*
X040973Y023693D03*
X044073Y024593D03*
X044373Y024893D03*
X047173Y023193D03*
X051473Y022093D03*
X051473Y021093D03*
X053373Y021493D03*
X054373Y021393D03*
X051173Y019593D03*
X053873Y023793D03*
X039073Y016093D03*
X040423Y015318D03*
X041373Y015393D03*
X039473Y014793D03*
X040073Y013693D03*
X038473Y013293D03*
X038073Y011993D03*
X041973Y013193D03*
X039673Y008593D03*
X035973Y008093D03*
X033873Y008093D03*
X026173Y010593D03*
X024273Y010593D03*
X022073Y011893D03*
X023873Y012193D03*
X019573Y011793D03*
X019173Y011793D03*
X014873Y012293D03*
X014973Y009793D03*
X012373Y008793D03*
X009573Y007293D03*
X008273Y007293D03*
X006973Y007293D03*
X016973Y015293D03*
X022773Y017593D03*
X024073Y019193D03*
X023373Y019593D03*
X023473Y020093D03*
X022973Y020393D03*
X023273Y020893D03*
X021773Y021293D03*
X021773Y021693D03*
X021773Y022093D03*
X020373Y022693D03*
X019873Y021693D03*
X022973Y023193D03*
X024373Y023493D03*
X024373Y023893D03*
X024473Y022093D03*
X029973Y023693D03*
X030273Y024593D03*
X032873Y018293D03*
X023573Y015293D03*
X023573Y014893D03*
X014273Y020993D03*
X012773Y025093D03*
D29*
X036373Y014093D02*
X036373Y010293D01*
X037373Y010293D01*
X037373Y013170D01*
X036687Y013170D01*
X036611Y013246D01*
X036611Y013590D01*
X036687Y013666D01*
X037373Y013666D01*
X037373Y014093D01*
X036373Y014093D01*
X036373Y014026D02*
X037373Y014026D01*
X037373Y013867D02*
X036373Y013867D01*
X036373Y013709D02*
X037373Y013709D01*
X036611Y013550D02*
X036373Y013550D01*
X036373Y013392D02*
X036611Y013392D01*
X036624Y013233D02*
X036373Y013233D01*
X036373Y013075D02*
X037373Y013075D01*
X037373Y012916D02*
X036373Y012916D01*
X036373Y012758D02*
X037373Y012758D01*
X037373Y012599D02*
X036373Y012599D01*
X036373Y012441D02*
X037373Y012441D01*
X037373Y012282D02*
X036373Y012282D01*
X036373Y012124D02*
X037373Y012124D01*
X037373Y011965D02*
X036373Y011965D01*
X036373Y011807D02*
X037373Y011807D01*
X037373Y011648D02*
X036373Y011648D01*
X036373Y011490D02*
X037373Y011490D01*
X037373Y011331D02*
X036373Y011331D01*
X036373Y011173D02*
X037373Y011173D01*
X037373Y011014D02*
X036373Y011014D01*
X036373Y010856D02*
X037373Y010856D01*
X037373Y010697D02*
X036373Y010697D01*
X036373Y010539D02*
X037373Y010539D01*
X037373Y010380D02*
X036373Y010380D01*
X049373Y011293D02*
X049373Y015493D01*
X050373Y015493D01*
X050373Y013141D01*
X049662Y013141D01*
X049586Y013065D01*
X049586Y012721D01*
X049662Y012645D01*
X050373Y012645D01*
X050373Y012141D01*
X049662Y012141D01*
X049586Y012065D01*
X049586Y011721D01*
X049662Y011645D01*
X050373Y011645D01*
X050373Y011293D01*
X049373Y011293D01*
X049373Y011331D02*
X050373Y011331D01*
X050373Y011490D02*
X049373Y011490D01*
X049373Y011648D02*
X049659Y011648D01*
X049586Y011807D02*
X049373Y011807D01*
X049373Y011965D02*
X049586Y011965D01*
X049645Y012124D02*
X049373Y012124D01*
X049373Y012282D02*
X050373Y012282D01*
X050373Y012441D02*
X049373Y012441D01*
X049373Y012599D02*
X050373Y012599D01*
X050373Y013233D02*
X049373Y013233D01*
X049373Y013075D02*
X049596Y013075D01*
X049586Y012916D02*
X049373Y012916D01*
X049373Y012758D02*
X049586Y012758D01*
X049373Y013392D02*
X050373Y013392D01*
X050373Y013550D02*
X049373Y013550D01*
X049373Y013709D02*
X050373Y013709D01*
X050373Y013867D02*
X049373Y013867D01*
X049373Y014026D02*
X050373Y014026D01*
X050373Y014184D02*
X049373Y014184D01*
X049373Y014343D02*
X050373Y014343D01*
X050373Y014501D02*
X049373Y014501D01*
X049373Y014660D02*
X050373Y014660D01*
X050373Y014818D02*
X049373Y014818D01*
X049373Y014977D02*
X050373Y014977D01*
X050373Y015135D02*
X049373Y015135D01*
X049373Y015294D02*
X050373Y015294D01*
X050373Y015452D02*
X049373Y015452D01*
X049373Y018093D02*
X049373Y021793D01*
X050373Y021793D01*
X050373Y021391D01*
X049662Y021391D01*
X049586Y021315D01*
X049586Y020971D01*
X049662Y020895D01*
X050373Y020895D01*
X050373Y018093D01*
X049373Y018093D01*
X049373Y018147D02*
X050373Y018147D01*
X050373Y018305D02*
X049373Y018305D01*
X049373Y018464D02*
X050373Y018464D01*
X050373Y018622D02*
X049373Y018622D01*
X049373Y018781D02*
X050373Y018781D01*
X050373Y018939D02*
X049373Y018939D01*
X049373Y019098D02*
X050373Y019098D01*
X050373Y019256D02*
X049373Y019256D01*
X049373Y019415D02*
X050373Y019415D01*
X050373Y019573D02*
X049373Y019573D01*
X049373Y019732D02*
X050373Y019732D01*
X050373Y019890D02*
X049373Y019890D01*
X049373Y020049D02*
X050373Y020049D01*
X050373Y020207D02*
X049373Y020207D01*
X049373Y020366D02*
X050373Y020366D01*
X050373Y020524D02*
X049373Y020524D01*
X049373Y020683D02*
X050373Y020683D01*
X050373Y020841D02*
X049373Y020841D01*
X049373Y021000D02*
X049586Y021000D01*
X049586Y021158D02*
X049373Y021158D01*
X049373Y021317D02*
X049588Y021317D01*
X049373Y021475D02*
X050373Y021475D01*
X050373Y021634D02*
X049373Y021634D01*
X049373Y021792D02*
X050373Y021792D01*
D30*
X022273Y018593D03*
D31*
X021399Y018593D01*
D32*
X015073Y017793D03*
M02*
