G75*
%MOIN*%
%OFA0B0*%
%FSLAX24Y24*%
%IPPOS*%
%LPD*%
%AMOC8*
5,1,8,0,0,1.08239X$1,22.5*
%
%ADD10OC8,0.0600*%
%ADD11C,0.0740*%
%ADD12R,0.0394X0.0433*%
%ADD13C,0.0650*%
%ADD14R,0.0650X0.0650*%
%ADD15C,0.2000*%
%ADD16C,0.0600*%
%ADD17R,0.0433X0.0394*%
%ADD18R,0.0472X0.0551*%
%ADD19C,0.0750*%
%ADD20C,0.0100*%
%ADD21C,0.0310*%
%ADD22C,0.0500*%
%ADD23C,0.0500*%
%ADD24C,0.0396*%
D10*
X020673Y007393D03*
X021673Y007393D03*
X022673Y007393D03*
X023673Y007393D03*
X024673Y007393D03*
X025673Y007393D03*
X026673Y007393D03*
X027673Y007393D03*
X028673Y007393D03*
X029673Y007393D03*
X029673Y008393D03*
X028673Y008393D03*
X027673Y008393D03*
X026673Y008393D03*
X025673Y008393D03*
X024673Y008393D03*
X023673Y008393D03*
X022673Y008393D03*
X021673Y008393D03*
X020673Y008393D03*
X045673Y008393D03*
X046673Y008393D03*
X047673Y008393D03*
X048673Y008393D03*
X049673Y008393D03*
X050673Y008393D03*
X051673Y008393D03*
X052673Y008393D03*
X053673Y008393D03*
X054673Y008393D03*
X054673Y007393D03*
X053673Y007393D03*
X052673Y007393D03*
X051673Y007393D03*
X050673Y007393D03*
X049673Y007393D03*
X048673Y007393D03*
X047673Y007393D03*
X046673Y007393D03*
X045673Y007393D03*
X045673Y024393D03*
X046673Y024393D03*
X047673Y024393D03*
X048673Y024393D03*
X049673Y024393D03*
X050673Y024393D03*
X051673Y024393D03*
X052673Y024393D03*
X053673Y024393D03*
X054673Y024393D03*
X054673Y025393D03*
X053673Y025393D03*
X052673Y025393D03*
X051673Y025393D03*
X050673Y025393D03*
X049673Y025393D03*
X048673Y025393D03*
X047673Y025393D03*
X046673Y025393D03*
X045673Y025393D03*
X029673Y025393D03*
X028673Y025393D03*
X027673Y025393D03*
X026673Y025393D03*
X025673Y025393D03*
X024673Y025393D03*
X023673Y025393D03*
X022673Y025393D03*
X021673Y025393D03*
X020673Y025393D03*
X020673Y024393D03*
X021673Y024393D03*
X022673Y024393D03*
X023673Y024393D03*
X024673Y024393D03*
X025673Y024393D03*
X026673Y024393D03*
X027673Y024393D03*
X028673Y024393D03*
X029673Y024393D03*
D11*
X013173Y023343D03*
X013173Y022359D03*
X013173Y021375D03*
X053673Y019643D03*
X053673Y018659D03*
X053673Y017675D03*
X053673Y015393D03*
X053673Y014409D03*
X053673Y013425D03*
D12*
X043573Y023959D03*
X042973Y023959D03*
X042373Y023959D03*
X041773Y023959D03*
X041773Y024628D03*
X042373Y024628D03*
X042973Y024628D03*
X043573Y024628D03*
X022023Y011828D03*
X022023Y011159D03*
X009298Y008178D03*
X009298Y007509D03*
X007998Y007509D03*
X007998Y008178D03*
X006748Y008178D03*
X006748Y007509D03*
D13*
X023048Y014218D03*
D14*
X023048Y013218D03*
D15*
X016373Y010343D03*
X013273Y010343D03*
X013273Y013693D03*
X013273Y016793D03*
X016373Y016793D03*
X044273Y011643D03*
X047373Y011643D03*
D16*
X046493Y014473D03*
X046493Y015653D03*
X046493Y016833D03*
X043653Y016813D03*
X043653Y015633D03*
X043653Y014453D03*
X043653Y019953D03*
X043653Y021133D03*
X043653Y022313D03*
X046393Y022333D03*
X046393Y021153D03*
X046393Y019973D03*
X015043Y021223D03*
X015043Y022403D03*
X015043Y023583D03*
D17*
X013407Y024593D03*
X012738Y024593D03*
X016388Y021243D03*
X017057Y021243D03*
X022238Y020393D03*
X022907Y020393D03*
X023207Y020893D03*
X022538Y020893D03*
X013607Y008793D03*
X012938Y008793D03*
X034363Y008043D03*
X035032Y008043D03*
X053238Y012093D03*
X053907Y012093D03*
X054107Y020893D03*
X053438Y020893D03*
D18*
X036163Y008693D03*
X034982Y008693D03*
D19*
X033323Y007553D03*
X030763Y007553D03*
X019273Y021223D03*
X018093Y021223D03*
X018093Y022403D03*
X019273Y022403D03*
X019273Y023583D03*
X018093Y023583D03*
D20*
X006348Y017843D02*
X006348Y007068D01*
X006767Y007068D01*
X006714Y007121D01*
X006705Y007142D01*
X006489Y007142D01*
X006401Y007230D01*
X006401Y007787D01*
X006489Y007875D01*
X006498Y007875D01*
X006494Y007877D01*
X006466Y007905D01*
X006451Y007942D01*
X006451Y008130D01*
X006699Y008130D01*
X006699Y008226D01*
X006451Y008226D01*
X006451Y008414D01*
X006466Y008451D01*
X006494Y008479D01*
X006531Y008494D01*
X006699Y008494D01*
X006699Y008226D01*
X006796Y008226D01*
X007045Y008226D01*
X007045Y008414D01*
X007029Y008451D01*
X007001Y008479D01*
X006965Y008494D01*
X006796Y008494D01*
X006796Y008226D01*
X006796Y008130D01*
X007045Y008130D01*
X007045Y007942D01*
X007029Y007905D01*
X007001Y007877D01*
X006998Y007875D01*
X007007Y007875D01*
X007095Y007787D01*
X007095Y007573D01*
X007146Y007552D01*
X007231Y007466D01*
X007278Y007354D01*
X007278Y007233D01*
X007231Y007121D01*
X007179Y007068D01*
X008067Y007068D01*
X008014Y007121D01*
X008005Y007142D01*
X007739Y007142D01*
X007651Y007230D01*
X007651Y007787D01*
X007739Y007875D01*
X007748Y007875D01*
X007744Y007877D01*
X007716Y007905D01*
X007701Y007942D01*
X007701Y008130D01*
X007949Y008130D01*
X007949Y008226D01*
X007701Y008226D01*
X007701Y008414D01*
X007716Y008451D01*
X007744Y008479D01*
X007781Y008494D01*
X007949Y008494D01*
X007949Y008226D01*
X008046Y008226D01*
X008295Y008226D01*
X008295Y008414D01*
X008279Y008451D01*
X008251Y008479D01*
X008215Y008494D01*
X008046Y008494D01*
X008046Y008226D01*
X008046Y008130D01*
X008295Y008130D01*
X008295Y007942D01*
X008279Y007905D01*
X008251Y007877D01*
X008248Y007875D01*
X008257Y007875D01*
X008345Y007787D01*
X008345Y007594D01*
X008446Y007552D01*
X008531Y007466D01*
X008578Y007354D01*
X008578Y007233D01*
X008531Y007121D01*
X008479Y007068D01*
X009367Y007068D01*
X009314Y007121D01*
X009305Y007142D01*
X009039Y007142D01*
X008951Y007230D01*
X008951Y007787D01*
X009039Y007875D01*
X009048Y007875D01*
X009044Y007877D01*
X009016Y007905D01*
X009001Y007942D01*
X009001Y008130D01*
X009249Y008130D01*
X009249Y008226D01*
X009001Y008226D01*
X009001Y008414D01*
X009016Y008451D01*
X009044Y008479D01*
X009081Y008494D01*
X009249Y008494D01*
X009249Y008226D01*
X009346Y008226D01*
X009595Y008226D01*
X009595Y008414D01*
X009579Y008451D01*
X009551Y008479D01*
X009515Y008494D01*
X009346Y008494D01*
X009346Y008226D01*
X009346Y008130D01*
X009595Y008130D01*
X009595Y007942D01*
X009579Y007905D01*
X009551Y007877D01*
X009548Y007875D01*
X009557Y007875D01*
X009645Y007787D01*
X009645Y007594D01*
X009746Y007552D01*
X009831Y007466D01*
X009878Y007354D01*
X009878Y007233D01*
X009831Y007121D01*
X009779Y007068D01*
X020361Y007068D01*
X020223Y007207D01*
X020223Y007580D01*
X020486Y007843D01*
X020859Y007843D01*
X021123Y007580D01*
X021123Y007207D01*
X020984Y007068D01*
X021361Y007068D01*
X021223Y007207D01*
X021223Y007580D01*
X021486Y007843D01*
X021859Y007843D01*
X022123Y007580D01*
X022123Y007207D01*
X021984Y007068D01*
X022361Y007068D01*
X022223Y007207D01*
X022223Y007580D01*
X022486Y007843D01*
X022859Y007843D01*
X023123Y007580D01*
X023123Y007207D01*
X022984Y007068D01*
X023361Y007068D01*
X023223Y007207D01*
X023223Y007580D01*
X023486Y007843D01*
X023859Y007843D01*
X024123Y007580D01*
X024123Y007207D01*
X023984Y007068D01*
X024361Y007068D01*
X024223Y007207D01*
X024223Y007580D01*
X024486Y007843D01*
X024859Y007843D01*
X025123Y007580D01*
X025123Y007207D01*
X024984Y007068D01*
X025361Y007068D01*
X025223Y007207D01*
X025223Y007580D01*
X025486Y007843D01*
X025859Y007843D01*
X026123Y007580D01*
X026123Y007207D01*
X025984Y007068D01*
X026361Y007068D01*
X026223Y007207D01*
X026223Y007580D01*
X026486Y007843D01*
X026859Y007843D01*
X027123Y007580D01*
X027123Y007207D01*
X026984Y007068D01*
X027361Y007068D01*
X027223Y007207D01*
X027223Y007580D01*
X027486Y007843D01*
X027859Y007843D01*
X028123Y007580D01*
X028123Y007207D01*
X027984Y007068D01*
X028361Y007068D01*
X028223Y007207D01*
X028223Y007580D01*
X028486Y007843D01*
X028859Y007843D01*
X029123Y007580D01*
X029123Y007207D01*
X028984Y007068D01*
X029432Y007068D01*
X029273Y007228D01*
X029273Y007343D01*
X029623Y007343D01*
X029623Y007443D01*
X029273Y007443D01*
X029273Y007559D01*
X029507Y007793D01*
X029623Y007793D01*
X029623Y007443D01*
X029723Y007443D01*
X030073Y007443D01*
X030073Y007559D01*
X029839Y007793D01*
X029723Y007793D01*
X029723Y007443D01*
X029723Y007343D01*
X030073Y007343D01*
X030073Y007228D01*
X029914Y007068D01*
X030562Y007068D01*
X030465Y007108D01*
X030318Y007256D01*
X030238Y007449D01*
X030238Y007658D01*
X030318Y007851D01*
X030465Y007998D01*
X030658Y008078D01*
X030867Y008078D01*
X031060Y007998D01*
X031208Y007851D01*
X031288Y007658D01*
X031288Y007449D01*
X031208Y007256D01*
X031060Y007108D01*
X030964Y007068D01*
X045361Y007068D01*
X045223Y007207D01*
X045223Y007580D01*
X045486Y007843D01*
X045859Y007843D01*
X046123Y007580D01*
X046123Y007207D01*
X045984Y007068D01*
X046361Y007068D01*
X046223Y007207D01*
X046223Y007580D01*
X046486Y007843D01*
X046859Y007843D01*
X047123Y007580D01*
X047123Y007207D01*
X046984Y007068D01*
X047361Y007068D01*
X047223Y007207D01*
X047223Y007580D01*
X047486Y007843D01*
X047859Y007843D01*
X048123Y007580D01*
X048123Y007207D01*
X047984Y007068D01*
X048361Y007068D01*
X048223Y007207D01*
X048223Y007580D01*
X048486Y007843D01*
X048859Y007843D01*
X049123Y007580D01*
X049123Y007207D01*
X048984Y007068D01*
X049361Y007068D01*
X049223Y007207D01*
X049223Y007580D01*
X049486Y007843D01*
X049859Y007843D01*
X050123Y007580D01*
X050123Y007207D01*
X049984Y007068D01*
X050361Y007068D01*
X050223Y007207D01*
X050223Y007580D01*
X050486Y007843D01*
X050859Y007843D01*
X051123Y007580D01*
X051123Y007207D01*
X050984Y007068D01*
X051361Y007068D01*
X051223Y007207D01*
X051223Y007580D01*
X051486Y007843D01*
X051859Y007843D01*
X052123Y007580D01*
X052123Y007207D01*
X051984Y007068D01*
X052361Y007068D01*
X052223Y007207D01*
X052223Y007580D01*
X052486Y007843D01*
X052859Y007843D01*
X053123Y007580D01*
X053123Y007207D01*
X052984Y007068D01*
X053361Y007068D01*
X053223Y007207D01*
X053223Y007580D01*
X053486Y007843D01*
X053859Y007843D01*
X054123Y007580D01*
X054123Y007207D01*
X053984Y007068D01*
X054432Y007068D01*
X054273Y007228D01*
X054273Y007343D01*
X054623Y007343D01*
X054623Y007443D01*
X054273Y007443D01*
X054273Y007559D01*
X054507Y007793D01*
X054623Y007793D01*
X054623Y007443D01*
X054723Y007443D01*
X054723Y007793D01*
X054839Y007793D01*
X054998Y007634D01*
X054998Y008082D01*
X054859Y007943D01*
X054486Y007943D01*
X054223Y008207D01*
X054223Y008580D01*
X054486Y008843D01*
X054859Y008843D01*
X054998Y008705D01*
X054998Y024082D01*
X054859Y023943D01*
X054506Y023943D01*
X054756Y023693D01*
X054756Y023693D01*
X054873Y023576D01*
X054873Y018592D01*
X054154Y017873D01*
X054193Y017778D01*
X054193Y017571D01*
X054154Y017477D01*
X054773Y016858D01*
X054773Y014242D01*
X054656Y014125D01*
X054154Y013623D01*
X054193Y013528D01*
X054193Y013321D01*
X054114Y013130D01*
X053967Y012984D01*
X053776Y012905D01*
X053569Y012905D01*
X053378Y012984D01*
X053232Y013130D01*
X053153Y013321D01*
X053153Y013528D01*
X053232Y013719D01*
X053378Y013866D01*
X053502Y013917D01*
X053378Y013968D01*
X053232Y014114D01*
X053153Y014306D01*
X053153Y014512D01*
X053232Y014704D01*
X053378Y014850D01*
X053569Y014929D01*
X053600Y014929D01*
X053563Y014935D01*
X053492Y014958D01*
X053427Y014991D01*
X053367Y015035D01*
X053314Y015087D01*
X053271Y015147D01*
X053237Y015213D01*
X053214Y015283D01*
X053205Y015343D01*
X053623Y015343D01*
X053623Y015443D01*
X053205Y015443D01*
X053214Y015503D01*
X053237Y015574D01*
X053271Y015640D01*
X053314Y015699D01*
X053367Y015752D01*
X053427Y015795D01*
X053492Y015829D01*
X053563Y015852D01*
X053623Y015861D01*
X053623Y015443D01*
X053723Y015443D01*
X054141Y015443D01*
X054131Y015503D01*
X054108Y015574D01*
X054075Y015640D01*
X054031Y015699D01*
X053979Y015752D01*
X053919Y015795D01*
X053853Y015829D01*
X053783Y015852D01*
X053723Y015861D01*
X053723Y015443D01*
X053723Y015343D01*
X054141Y015343D01*
X054131Y015283D01*
X054108Y015213D01*
X054075Y015147D01*
X054031Y015087D01*
X053979Y015035D01*
X053919Y014991D01*
X053853Y014958D01*
X053783Y014935D01*
X053746Y014929D01*
X053776Y014929D01*
X053967Y014850D01*
X054114Y014704D01*
X054193Y014512D01*
X054193Y014306D01*
X054138Y014173D01*
X054373Y014408D01*
X054373Y016692D01*
X053871Y017194D01*
X053776Y017155D01*
X053569Y017155D01*
X053378Y017234D01*
X053232Y017380D01*
X053153Y017571D01*
X053153Y017778D01*
X053232Y017969D01*
X053378Y018116D01*
X053502Y018167D01*
X053378Y018218D01*
X053232Y018364D01*
X053153Y018556D01*
X053153Y018762D01*
X053232Y018954D01*
X053378Y019100D01*
X053569Y019179D01*
X053600Y019179D01*
X053563Y019185D01*
X053492Y019208D01*
X053427Y019241D01*
X053367Y019285D01*
X053314Y019337D01*
X053271Y019397D01*
X053237Y019463D01*
X053214Y019533D01*
X053205Y019593D01*
X053623Y019593D01*
X053623Y019693D01*
X053205Y019693D01*
X053214Y019753D01*
X053237Y019824D01*
X053271Y019890D01*
X053314Y019949D01*
X053367Y020002D01*
X053427Y020045D01*
X053492Y020079D01*
X053563Y020102D01*
X053623Y020111D01*
X053623Y019693D01*
X053723Y019693D01*
X054141Y019693D01*
X054131Y019753D01*
X054108Y019824D01*
X054075Y019890D01*
X054031Y019949D01*
X053979Y020002D01*
X053919Y020045D01*
X053853Y020079D01*
X053783Y020102D01*
X053723Y020111D01*
X053723Y019693D01*
X053723Y019593D01*
X054141Y019593D01*
X054131Y019533D01*
X054108Y019463D01*
X054075Y019397D01*
X054031Y019337D01*
X053979Y019285D01*
X053919Y019241D01*
X053853Y019208D01*
X053783Y019185D01*
X053746Y019179D01*
X053776Y019179D01*
X053967Y019100D01*
X054114Y018954D01*
X054193Y018762D01*
X054193Y018556D01*
X054138Y018423D01*
X054473Y018758D01*
X054473Y021105D01*
X054434Y021088D01*
X054424Y021088D01*
X054424Y020942D01*
X054156Y020942D01*
X054059Y020942D01*
X054059Y021190D01*
X053871Y021190D01*
X053834Y021175D01*
X053806Y021147D01*
X053805Y021143D01*
X053805Y021152D01*
X053717Y021240D01*
X053573Y021240D01*
X053573Y021262D01*
X053631Y021321D01*
X053678Y021433D01*
X053678Y021554D01*
X053631Y021666D01*
X053546Y021752D01*
X053434Y021798D01*
X053312Y021798D01*
X053200Y021752D01*
X053114Y021666D01*
X053068Y021554D01*
X053068Y021433D01*
X053114Y021321D01*
X053173Y021262D01*
X053173Y021240D01*
X053160Y021240D01*
X053072Y021152D01*
X053072Y020634D01*
X053160Y020546D01*
X053717Y020546D01*
X053805Y020634D01*
X053805Y020643D01*
X053806Y020640D01*
X053834Y020612D01*
X053871Y020596D01*
X054059Y020596D01*
X054059Y020845D01*
X054156Y020845D01*
X054156Y020942D01*
X054156Y021179D01*
X054114Y021221D01*
X054068Y021333D01*
X054068Y021454D01*
X054114Y021566D01*
X054200Y021652D01*
X054273Y021682D01*
X054273Y023310D01*
X054047Y023536D01*
X054046Y023535D01*
X053934Y023488D01*
X053812Y023488D01*
X053700Y023535D01*
X053614Y023621D01*
X053568Y023733D01*
X053568Y023854D01*
X053614Y023966D01*
X053700Y024052D01*
X053723Y024061D01*
X053723Y024343D01*
X053623Y024343D01*
X053623Y023993D01*
X053507Y023993D01*
X053273Y024228D01*
X053273Y024343D01*
X053623Y024343D01*
X053623Y024443D01*
X053273Y024443D01*
X053273Y024559D01*
X053407Y024693D01*
X053090Y024693D01*
X052973Y024810D01*
X052973Y024810D01*
X052840Y024943D01*
X052486Y024943D01*
X052236Y025193D01*
X052109Y025193D01*
X051859Y024943D01*
X051486Y024943D01*
X051223Y025207D01*
X051223Y025580D01*
X051361Y025718D01*
X050984Y025718D01*
X051123Y025580D01*
X051123Y025207D01*
X050859Y024943D01*
X050486Y024943D01*
X050223Y025207D01*
X050223Y025580D01*
X050361Y025718D01*
X049984Y025718D01*
X050123Y025580D01*
X050123Y025207D01*
X049859Y024943D01*
X049506Y024943D01*
X049456Y024893D01*
X049506Y024843D01*
X049859Y024843D01*
X050123Y024580D01*
X050123Y024207D01*
X049859Y023943D01*
X049486Y023943D01*
X049223Y024207D01*
X049223Y024560D01*
X049190Y024593D01*
X049109Y024593D01*
X049123Y024580D01*
X049123Y024207D01*
X048859Y023943D01*
X048486Y023943D01*
X048223Y024207D01*
X048223Y024580D01*
X048236Y024593D01*
X048109Y024593D01*
X048123Y024580D01*
X048123Y024207D01*
X047859Y023943D01*
X047486Y023943D01*
X047223Y024207D01*
X047223Y024580D01*
X047236Y024593D01*
X047109Y024593D01*
X047123Y024580D01*
X047123Y024207D01*
X046859Y023943D01*
X046486Y023943D01*
X046223Y024207D01*
X046223Y024580D01*
X046236Y024593D01*
X046190Y024593D01*
X046073Y024710D01*
X045840Y024943D01*
X045486Y024943D01*
X045223Y025207D01*
X045223Y025580D01*
X045361Y025718D01*
X029984Y025718D01*
X030123Y025580D01*
X030123Y025207D01*
X030032Y025117D01*
X030251Y024898D01*
X030334Y024898D01*
X030446Y024852D01*
X030531Y024766D01*
X030578Y024654D01*
X030578Y024533D01*
X030531Y024421D01*
X030446Y024335D01*
X030334Y024288D01*
X030212Y024288D01*
X030123Y024325D01*
X030123Y024207D01*
X029914Y023998D01*
X030034Y023998D01*
X030146Y023952D01*
X030231Y023866D01*
X030278Y023754D01*
X030278Y023633D01*
X030231Y023521D01*
X030146Y023435D01*
X030034Y023388D01*
X029912Y023388D01*
X029800Y023435D01*
X029741Y023493D01*
X029390Y023493D01*
X029273Y023610D01*
X028973Y023910D01*
X028973Y024128D01*
X028839Y023993D01*
X028723Y023993D01*
X028723Y024343D01*
X028623Y024343D01*
X028623Y023993D01*
X028507Y023993D01*
X028273Y024228D01*
X028273Y024343D01*
X028623Y024343D01*
X028623Y024443D01*
X028273Y024443D01*
X028273Y024559D01*
X028307Y024593D01*
X028109Y024593D01*
X028123Y024580D01*
X028123Y024207D01*
X027859Y023943D01*
X027506Y023943D01*
X027256Y023693D01*
X026556Y023693D01*
X026356Y023493D01*
X025356Y023493D01*
X025273Y023410D01*
X025273Y023110D01*
X025156Y022993D01*
X024973Y022810D01*
X024973Y016010D01*
X024856Y015893D01*
X023878Y014915D01*
X023878Y014833D01*
X023831Y014721D01*
X023746Y014635D01*
X023634Y014588D01*
X023512Y014588D01*
X023400Y014635D01*
X023314Y014721D01*
X023268Y014833D01*
X023268Y014954D01*
X023314Y015066D01*
X023341Y015093D01*
X023314Y015121D01*
X023268Y015233D01*
X023268Y015354D01*
X023314Y015466D01*
X023400Y015552D01*
X023512Y015598D01*
X023634Y015598D01*
X023677Y015580D01*
X024173Y016076D01*
X024173Y018905D01*
X024134Y018888D01*
X024012Y018888D01*
X023900Y018935D01*
X023814Y019021D01*
X023768Y019133D01*
X023768Y019254D01*
X023814Y019366D01*
X023900Y019452D01*
X023973Y019482D01*
X023973Y020110D01*
X023873Y020010D01*
X023756Y019893D01*
X023704Y019893D01*
X023646Y019835D01*
X023534Y019788D01*
X023412Y019788D01*
X023300Y019835D01*
X023214Y019921D01*
X023168Y020033D01*
X023168Y020046D01*
X022629Y020046D01*
X022541Y020134D01*
X022541Y020143D01*
X022539Y020140D01*
X022511Y020112D01*
X022475Y020096D01*
X022287Y020096D01*
X022287Y020345D01*
X022190Y020345D01*
X022190Y020096D01*
X022002Y020096D01*
X021965Y020112D01*
X021937Y020140D01*
X021922Y020177D01*
X021922Y020345D01*
X022190Y020345D01*
X022190Y020442D01*
X022190Y020690D01*
X022002Y020690D01*
X021965Y020675D01*
X021937Y020647D01*
X021922Y020610D01*
X021922Y020442D01*
X022190Y020442D01*
X022287Y020442D01*
X022287Y020603D01*
X022265Y020612D01*
X022237Y020640D01*
X022222Y020677D01*
X022222Y020845D01*
X022490Y020845D01*
X022490Y020942D01*
X022490Y021190D01*
X022302Y021190D01*
X022265Y021175D01*
X022237Y021147D01*
X022222Y021110D01*
X022222Y020942D01*
X022490Y020942D01*
X022587Y020942D01*
X022587Y021190D01*
X022775Y021190D01*
X022811Y021175D01*
X022839Y021147D01*
X022841Y021143D01*
X022841Y021152D01*
X022929Y021240D01*
X023373Y021240D01*
X023373Y023176D01*
X024068Y023871D01*
X024068Y023954D01*
X024114Y024066D01*
X024200Y024152D01*
X024255Y024175D01*
X024223Y024207D01*
X024223Y024580D01*
X024486Y024843D01*
X024859Y024843D01*
X025109Y024593D01*
X025236Y024593D01*
X025486Y024843D01*
X025859Y024843D01*
X026123Y024580D01*
X026123Y024207D01*
X026009Y024093D01*
X026090Y024093D01*
X026223Y024226D01*
X026223Y024580D01*
X026486Y024843D01*
X026859Y024843D01*
X027123Y024580D01*
X027123Y024207D01*
X027009Y024093D01*
X027090Y024093D01*
X027223Y024226D01*
X027223Y024580D01*
X027336Y024693D01*
X027090Y024693D01*
X026973Y024810D01*
X026840Y024943D01*
X026486Y024943D01*
X026223Y025207D01*
X026223Y025580D01*
X026361Y025718D01*
X025984Y025718D01*
X026123Y025580D01*
X026123Y025207D01*
X025859Y024943D01*
X025486Y024943D01*
X025223Y025207D01*
X025223Y025580D01*
X025361Y025718D01*
X024984Y025718D01*
X025123Y025580D01*
X025123Y025207D01*
X024859Y024943D01*
X024486Y024943D01*
X024223Y025207D01*
X024223Y025580D01*
X024361Y025718D01*
X023984Y025718D01*
X024123Y025580D01*
X024123Y025207D01*
X023859Y024943D01*
X023486Y024943D01*
X023223Y025207D01*
X023223Y025580D01*
X023361Y025718D01*
X022984Y025718D01*
X023123Y025580D01*
X023123Y025207D01*
X022859Y024943D01*
X022486Y024943D01*
X022223Y025207D01*
X022223Y025580D01*
X022361Y025718D01*
X021984Y025718D01*
X022123Y025580D01*
X022123Y025207D01*
X021859Y024943D01*
X021486Y024943D01*
X021223Y025207D01*
X021223Y025580D01*
X021361Y025718D01*
X020984Y025718D01*
X021123Y025580D01*
X021123Y025207D01*
X020859Y024943D01*
X020486Y024943D01*
X020223Y025207D01*
X020223Y025580D01*
X020361Y025718D01*
X012623Y025718D01*
X012623Y025361D01*
X012712Y025398D01*
X012834Y025398D01*
X012946Y025352D01*
X013031Y025266D01*
X013078Y025154D01*
X013078Y025033D01*
X013033Y024924D01*
X013105Y024852D01*
X013105Y024843D01*
X013106Y024847D01*
X013134Y024875D01*
X013171Y024890D01*
X013359Y024890D01*
X013359Y024642D01*
X013456Y024642D01*
X013456Y024890D01*
X013644Y024890D01*
X013681Y024875D01*
X013709Y024847D01*
X013724Y024810D01*
X013724Y024642D01*
X013456Y024642D01*
X013456Y024545D01*
X013724Y024545D01*
X013724Y024377D01*
X013709Y024340D01*
X013681Y024312D01*
X013644Y024296D01*
X013456Y024296D01*
X013456Y024545D01*
X013359Y024545D01*
X013359Y024296D01*
X013171Y024296D01*
X013134Y024312D01*
X013106Y024340D01*
X013105Y024343D01*
X013105Y024334D01*
X013017Y024246D01*
X012623Y024246D01*
X012623Y017960D01*
X012506Y017843D01*
X006348Y017843D01*
X006348Y017827D02*
X014673Y017827D01*
X014673Y017925D02*
X012588Y017925D01*
X012623Y018024D02*
X014673Y018024D01*
X014673Y018122D02*
X012623Y018122D01*
X012623Y018221D02*
X014673Y018221D01*
X014673Y018319D02*
X012623Y018319D01*
X012623Y018418D02*
X014673Y018418D01*
X014673Y018516D02*
X012623Y018516D01*
X012623Y018615D02*
X014673Y018615D01*
X014673Y018713D02*
X012623Y018713D01*
X012623Y018812D02*
X014673Y018812D01*
X014673Y018910D02*
X012623Y018910D01*
X012623Y019009D02*
X014673Y019009D01*
X014673Y019107D02*
X012623Y019107D01*
X012623Y019206D02*
X014673Y019206D01*
X014673Y019304D02*
X012623Y019304D01*
X012623Y019403D02*
X014673Y019403D01*
X014673Y019501D02*
X012623Y019501D01*
X012623Y019600D02*
X014673Y019600D01*
X014673Y019698D02*
X014485Y019698D01*
X014499Y019704D02*
X014612Y019817D01*
X014673Y019964D01*
X014673Y020123D01*
X014612Y020270D01*
X014499Y020382D01*
X014352Y020443D01*
X014193Y020443D01*
X014046Y020382D01*
X013934Y020270D01*
X013873Y020123D01*
X013873Y019964D01*
X013934Y019817D01*
X014046Y019704D01*
X014193Y019643D01*
X014352Y019643D01*
X014499Y019704D01*
X014592Y019797D02*
X014673Y019797D01*
X014673Y019895D02*
X014645Y019895D01*
X014673Y019994D02*
X014673Y019994D01*
X014673Y020092D02*
X014673Y020092D01*
X014673Y020191D02*
X014645Y020191D01*
X014673Y020289D02*
X014592Y020289D01*
X014673Y020388D02*
X014486Y020388D01*
X014673Y020486D02*
X012623Y020486D01*
X012623Y020388D02*
X014059Y020388D01*
X013953Y020289D02*
X012623Y020289D01*
X012623Y020191D02*
X013901Y020191D01*
X013873Y020092D02*
X012623Y020092D01*
X012623Y019994D02*
X013873Y019994D01*
X013901Y019895D02*
X012623Y019895D01*
X012623Y019797D02*
X013954Y019797D01*
X014060Y019698D02*
X012623Y019698D01*
X012623Y020585D02*
X014673Y020585D01*
X014673Y020683D02*
X012623Y020683D01*
X012623Y020782D02*
X014053Y020782D01*
X014014Y020821D02*
X014100Y020735D01*
X014212Y020688D01*
X014334Y020688D01*
X014446Y020735D01*
X014531Y020821D01*
X014578Y020933D01*
X014578Y021054D01*
X014531Y021166D01*
X014446Y021252D01*
X014334Y021298D01*
X014251Y021298D01*
X013974Y021575D01*
X013653Y021575D01*
X013614Y021669D01*
X013467Y021816D01*
X013344Y021867D01*
X013467Y021918D01*
X013614Y022064D01*
X013693Y022256D01*
X013693Y022462D01*
X013614Y022654D01*
X013467Y022800D01*
X013276Y022879D01*
X013246Y022879D01*
X013283Y022885D01*
X013353Y022908D01*
X013419Y022941D01*
X013479Y022985D01*
X013531Y023037D01*
X013575Y023097D01*
X013608Y023163D01*
X013631Y023233D01*
X013641Y023293D01*
X013223Y023293D01*
X013223Y023393D01*
X013641Y023393D01*
X013631Y023453D01*
X013608Y023524D01*
X013575Y023590D01*
X013531Y023649D01*
X013479Y023702D01*
X013419Y023745D01*
X013353Y023779D01*
X013283Y023802D01*
X013223Y023811D01*
X013223Y023393D01*
X013123Y023393D01*
X013123Y023293D01*
X012705Y023293D01*
X012714Y023233D01*
X012737Y023163D01*
X012771Y023097D01*
X012814Y023037D01*
X012867Y022985D01*
X012927Y022941D01*
X012992Y022908D01*
X013063Y022885D01*
X013100Y022879D01*
X013069Y022879D01*
X012878Y022800D01*
X012732Y022654D01*
X012653Y022462D01*
X012653Y022256D01*
X012732Y022064D01*
X012878Y021918D01*
X013002Y021867D01*
X012878Y021816D01*
X012732Y021669D01*
X012653Y021478D01*
X012653Y021271D01*
X012732Y021080D01*
X012878Y020934D01*
X013069Y020855D01*
X013276Y020855D01*
X013467Y020934D01*
X013614Y021080D01*
X013653Y021175D01*
X013808Y021175D01*
X013968Y021015D01*
X013968Y020933D01*
X014014Y020821D01*
X013989Y020880D02*
X013338Y020880D01*
X013512Y020979D02*
X013968Y020979D01*
X013906Y021077D02*
X013611Y021077D01*
X013891Y021375D02*
X013173Y021375D01*
X012691Y021570D02*
X012623Y021570D01*
X012623Y021668D02*
X012732Y021668D01*
X012829Y021767D02*
X012623Y021767D01*
X012623Y021865D02*
X012998Y021865D01*
X012833Y021964D02*
X012623Y021964D01*
X012623Y022062D02*
X012734Y022062D01*
X012692Y022161D02*
X012623Y022161D01*
X012623Y022259D02*
X012653Y022259D01*
X012653Y022358D02*
X012623Y022358D01*
X012623Y022456D02*
X012653Y022456D01*
X012623Y022555D02*
X012691Y022555D01*
X012732Y022653D02*
X012623Y022653D01*
X012623Y022752D02*
X012830Y022752D01*
X012993Y022793D02*
X012523Y022793D01*
X012523Y023793D01*
X013673Y023793D01*
X013673Y022793D01*
X013353Y022793D01*
X013266Y022829D01*
X013079Y022829D01*
X012993Y022793D01*
X013000Y022850D02*
X012623Y022850D01*
X012623Y022949D02*
X012916Y022949D01*
X012807Y023047D02*
X012623Y023047D01*
X012623Y023146D02*
X012746Y023146D01*
X012713Y023244D02*
X012623Y023244D01*
X012623Y023343D02*
X013123Y023343D01*
X013123Y023393D02*
X012705Y023393D01*
X012714Y023453D01*
X012737Y023524D01*
X012771Y023590D01*
X012814Y023649D01*
X012867Y023702D01*
X012927Y023745D01*
X012992Y023779D01*
X013063Y023802D01*
X013123Y023811D01*
X013123Y023393D01*
X013123Y023441D02*
X013223Y023441D01*
X013223Y023343D02*
X014722Y023343D01*
X014732Y023328D02*
X014788Y023273D01*
X014853Y023229D01*
X014926Y023199D01*
X014993Y023185D01*
X014993Y023533D01*
X015093Y023533D01*
X015093Y023185D01*
X015160Y023199D01*
X015232Y023229D01*
X015298Y023273D01*
X015354Y023328D01*
X015397Y023394D01*
X015427Y023467D01*
X015441Y023533D01*
X015093Y023533D01*
X015093Y023633D01*
X015441Y023633D01*
X015427Y023700D01*
X015397Y023773D01*
X015354Y023838D01*
X015298Y023894D01*
X015232Y023938D01*
X015160Y023968D01*
X015093Y023981D01*
X015093Y023633D01*
X014993Y023633D01*
X014993Y023533D01*
X014645Y023533D01*
X014658Y023467D01*
X014688Y023394D01*
X014732Y023328D01*
X014830Y023244D02*
X013633Y023244D01*
X013673Y023244D02*
X012523Y023244D01*
X012523Y023146D02*
X013673Y023146D01*
X013600Y023146D02*
X017788Y023146D01*
X017795Y023138D02*
X017988Y023058D01*
X018197Y023058D01*
X018390Y023138D01*
X018473Y023221D01*
X018473Y022766D01*
X018390Y022848D01*
X018197Y022928D01*
X017988Y022928D01*
X017795Y022848D01*
X017648Y022701D01*
X017568Y022508D01*
X017568Y022299D01*
X017648Y022106D01*
X017795Y021958D01*
X017988Y021878D01*
X018197Y021878D01*
X018390Y021958D01*
X018473Y022041D01*
X018473Y021740D01*
X018788Y021425D01*
X018748Y021328D01*
X018748Y021119D01*
X018828Y020926D01*
X018975Y020778D01*
X019168Y020698D01*
X019377Y020698D01*
X019570Y020778D01*
X019718Y020926D01*
X019798Y021119D01*
X019798Y021328D01*
X019765Y021408D01*
X019812Y021388D01*
X019934Y021388D01*
X020046Y021435D01*
X020131Y021521D01*
X020162Y021593D01*
X021484Y021593D01*
X021514Y021521D01*
X021600Y021435D01*
X021712Y021388D01*
X021834Y021388D01*
X021946Y021435D01*
X022031Y021521D01*
X022078Y021633D01*
X022078Y021754D01*
X022031Y021866D01*
X022004Y021893D01*
X022031Y021921D01*
X022078Y022033D01*
X022078Y022154D01*
X022031Y022266D01*
X021946Y022352D01*
X021834Y022398D01*
X021712Y022398D01*
X021600Y022352D01*
X021514Y022266D01*
X021484Y022193D01*
X019766Y022193D01*
X019757Y022201D01*
X019798Y022299D01*
X019798Y022508D01*
X019718Y022701D01*
X019570Y022848D01*
X019377Y022928D01*
X019168Y022928D01*
X018975Y022848D01*
X018873Y022746D01*
X018873Y023326D01*
X018911Y023274D01*
X018963Y023221D01*
X019024Y023177D01*
X019090Y023143D01*
X019162Y023120D01*
X019223Y023110D01*
X019223Y023533D01*
X019323Y023533D01*
X019323Y023110D01*
X019384Y023120D01*
X019455Y023143D01*
X019522Y023177D01*
X019582Y023221D01*
X019635Y023274D01*
X019679Y023334D01*
X019713Y023401D01*
X019736Y023472D01*
X019746Y023533D01*
X019323Y023533D01*
X019323Y023633D01*
X019746Y023633D01*
X019736Y023695D01*
X019713Y023766D01*
X019679Y023832D01*
X019635Y023893D01*
X019582Y023946D01*
X019522Y023990D01*
X019455Y024024D01*
X019384Y024047D01*
X019323Y024056D01*
X019323Y023633D01*
X019223Y023633D01*
X019223Y024056D01*
X019162Y024047D01*
X019090Y024024D01*
X019081Y024019D01*
X019156Y024093D01*
X019790Y024093D01*
X020190Y023693D01*
X021156Y023693D01*
X021273Y023810D01*
X021446Y023984D01*
X021486Y023943D01*
X021859Y023943D01*
X022123Y024207D01*
X022123Y024580D01*
X021859Y024843D01*
X021486Y024843D01*
X021223Y024580D01*
X021223Y024326D01*
X021123Y024226D01*
X021123Y024580D01*
X020859Y024843D01*
X020486Y024843D01*
X020223Y024580D01*
X020223Y024226D01*
X020073Y024376D01*
X019956Y024493D01*
X019939Y024493D01*
X019982Y024537D01*
X020043Y024684D01*
X020043Y024843D01*
X019982Y024990D01*
X019869Y025102D01*
X019722Y025163D01*
X019563Y025163D01*
X019416Y025102D01*
X019304Y024990D01*
X019243Y024843D01*
X019243Y024684D01*
X019304Y024537D01*
X019347Y024493D01*
X018990Y024493D01*
X018590Y024093D01*
X018473Y023976D01*
X018473Y023946D01*
X018390Y024028D01*
X018197Y024108D01*
X017988Y024108D01*
X017795Y024028D01*
X017648Y023881D01*
X017568Y023688D01*
X017568Y023479D01*
X017648Y023286D01*
X017795Y023138D01*
X017689Y023244D02*
X015256Y023244D01*
X015363Y023343D02*
X017624Y023343D01*
X017583Y023441D02*
X015417Y023441D01*
X015440Y023638D02*
X017568Y023638D01*
X017568Y023540D02*
X015093Y023540D01*
X015093Y023638D02*
X014993Y023638D01*
X014993Y023633D02*
X014993Y023981D01*
X014926Y023968D01*
X014853Y023938D01*
X014788Y023894D01*
X014732Y023838D01*
X014688Y023773D01*
X014658Y023700D01*
X014645Y023633D01*
X014993Y023633D01*
X014993Y023540D02*
X013600Y023540D01*
X013673Y023540D02*
X012523Y023540D01*
X012523Y023638D02*
X013673Y023638D01*
X013673Y023737D02*
X012523Y023737D01*
X012623Y023737D02*
X012915Y023737D01*
X012806Y023638D02*
X012623Y023638D01*
X012623Y023540D02*
X012745Y023540D01*
X012713Y023441D02*
X012623Y023441D01*
X012523Y023441D02*
X013673Y023441D01*
X013633Y023441D02*
X014669Y023441D01*
X014646Y023638D02*
X013539Y023638D01*
X013431Y023737D02*
X014673Y023737D01*
X014730Y023835D02*
X012623Y023835D01*
X012623Y023934D02*
X014847Y023934D01*
X014993Y023934D02*
X015093Y023934D01*
X015093Y023835D02*
X014993Y023835D01*
X014993Y023737D02*
X015093Y023737D01*
X015238Y023934D02*
X017701Y023934D01*
X017629Y023835D02*
X015355Y023835D01*
X015412Y023737D02*
X017588Y023737D01*
X017805Y024032D02*
X012623Y024032D01*
X012623Y024131D02*
X018628Y024131D01*
X018726Y024229D02*
X012623Y024229D01*
X012738Y024593D02*
X012738Y025059D01*
X012773Y025093D01*
X013053Y025214D02*
X020223Y025214D01*
X020223Y025313D02*
X012985Y025313D01*
X013078Y025116D02*
X014079Y025116D01*
X014046Y025102D02*
X013934Y024990D01*
X013873Y024843D01*
X013873Y024684D01*
X013934Y024537D01*
X014046Y024424D01*
X014193Y024363D01*
X014352Y024363D01*
X014499Y024424D01*
X014612Y024537D01*
X014673Y024684D01*
X014673Y024843D01*
X014612Y024990D01*
X014499Y025102D01*
X014352Y025163D01*
X014193Y025163D01*
X014046Y025102D01*
X013961Y025017D02*
X013072Y025017D01*
X013038Y024919D02*
X013904Y024919D01*
X013873Y024820D02*
X013720Y024820D01*
X013724Y024722D02*
X013873Y024722D01*
X013898Y024623D02*
X013456Y024623D01*
X013456Y024525D02*
X013359Y024525D01*
X013359Y024426D02*
X013456Y024426D01*
X013456Y024328D02*
X013359Y024328D01*
X013118Y024328D02*
X013098Y024328D01*
X013359Y024722D02*
X013456Y024722D01*
X013456Y024820D02*
X013359Y024820D01*
X013724Y024525D02*
X013946Y024525D01*
X014044Y024426D02*
X013724Y024426D01*
X013697Y024328D02*
X018825Y024328D01*
X018923Y024426D02*
X014502Y024426D01*
X014600Y024525D02*
X019316Y024525D01*
X019268Y024623D02*
X014648Y024623D01*
X014673Y024722D02*
X019243Y024722D01*
X019243Y024820D02*
X014673Y024820D01*
X014641Y024919D02*
X019274Y024919D01*
X019331Y025017D02*
X014584Y025017D01*
X014467Y025116D02*
X019449Y025116D01*
X019837Y025116D02*
X020314Y025116D01*
X020412Y025017D02*
X019954Y025017D01*
X020011Y024919D02*
X026864Y024919D01*
X026882Y024820D02*
X026963Y024820D01*
X026981Y024722D02*
X027061Y024722D01*
X027079Y024623D02*
X027266Y024623D01*
X027223Y024525D02*
X027123Y024525D01*
X027123Y024426D02*
X027223Y024426D01*
X027223Y024328D02*
X027123Y024328D01*
X027123Y024229D02*
X027223Y024229D01*
X027128Y024131D02*
X027047Y024131D01*
X027173Y023893D02*
X026473Y023893D01*
X026273Y023693D01*
X025273Y023693D01*
X025073Y023493D01*
X025073Y023193D01*
X024773Y022893D01*
X024773Y016093D01*
X023573Y014893D01*
X023873Y015193D01*
X024031Y015069D02*
X038814Y015069D01*
X038716Y015167D02*
X024130Y015167D01*
X024228Y015266D02*
X038617Y015266D01*
X038573Y015310D02*
X038690Y015193D01*
X038990Y014893D01*
X039184Y014893D01*
X039168Y014854D01*
X039168Y014733D01*
X039214Y014621D01*
X039273Y014562D01*
X039273Y008710D01*
X039368Y008615D01*
X039368Y008533D01*
X039414Y008421D01*
X039500Y008335D01*
X039612Y008288D01*
X039734Y008288D01*
X039846Y008335D01*
X039931Y008421D01*
X039978Y008533D01*
X039978Y008654D01*
X039931Y008766D01*
X039846Y008852D01*
X039734Y008898D01*
X039673Y008898D01*
X039673Y014562D01*
X039731Y014621D01*
X039778Y014733D01*
X039778Y014805D01*
X039873Y014710D01*
X039873Y013925D01*
X039814Y013866D01*
X039768Y013754D01*
X039768Y013633D01*
X039814Y013521D01*
X039900Y013435D01*
X040012Y013388D01*
X040134Y013388D01*
X040246Y013435D01*
X040331Y013521D01*
X040378Y013633D01*
X040378Y013754D01*
X040331Y013866D01*
X040273Y013925D01*
X040273Y014876D01*
X039973Y015176D01*
X039856Y015293D01*
X039156Y015293D01*
X038973Y015476D01*
X038973Y016976D01*
X038673Y017276D01*
X038673Y018010D01*
X039051Y018388D01*
X039068Y018388D01*
X039068Y018333D01*
X039086Y018289D01*
X038873Y018076D01*
X038873Y017210D01*
X038990Y017093D01*
X039166Y016918D01*
X039114Y016866D01*
X039068Y016754D01*
X039068Y016633D01*
X039114Y016521D01*
X039200Y016435D01*
X039312Y016388D01*
X039434Y016388D01*
X039546Y016435D01*
X039631Y016521D01*
X039678Y016633D01*
X039678Y016688D01*
X039734Y016688D01*
X039739Y016690D01*
X039714Y016666D01*
X039668Y016554D01*
X039668Y016433D01*
X039714Y016321D01*
X039800Y016235D01*
X039912Y016188D01*
X039968Y016188D01*
X039968Y016133D01*
X040014Y016021D01*
X040100Y015935D01*
X040212Y015888D01*
X040334Y015888D01*
X040446Y015935D01*
X040531Y016021D01*
X040578Y016133D01*
X040578Y016254D01*
X040531Y016366D01*
X040507Y016390D01*
X040512Y016388D01*
X040634Y016388D01*
X040746Y016435D01*
X040831Y016521D01*
X040878Y016633D01*
X040878Y016693D01*
X041456Y016693D01*
X041651Y016888D01*
X041734Y016888D01*
X041846Y016935D01*
X041931Y017021D01*
X041978Y017133D01*
X041978Y017254D01*
X041931Y017366D01*
X041846Y017452D01*
X041734Y017498D01*
X041612Y017498D01*
X041500Y017452D01*
X041414Y017366D01*
X041368Y017254D01*
X041368Y017171D01*
X041290Y017093D01*
X040690Y017093D01*
X040595Y016998D01*
X040512Y016998D01*
X040473Y016982D01*
X040473Y017593D01*
X042256Y017593D01*
X042556Y017893D01*
X042673Y018010D01*
X042673Y019910D01*
X042673Y017582D01*
X042600Y017552D01*
X042514Y017466D01*
X042468Y017354D01*
X042468Y017233D01*
X042514Y017121D01*
X042600Y017035D01*
X042712Y016988D01*
X042768Y016988D01*
X042768Y016933D01*
X042814Y016821D01*
X042900Y016735D01*
X043012Y016688D01*
X043134Y016688D01*
X043205Y016718D01*
X043271Y016558D01*
X043398Y016432D01*
X043563Y016363D01*
X043742Y016363D01*
X043908Y016432D01*
X044034Y016558D01*
X044103Y016724D01*
X044103Y016903D01*
X044034Y017068D01*
X043908Y017195D01*
X043742Y017263D01*
X043563Y017263D01*
X043398Y017195D01*
X043342Y017139D01*
X043331Y017166D01*
X043273Y017225D01*
X043273Y019825D01*
X043298Y019764D01*
X043342Y019698D01*
X043398Y019643D01*
X043463Y019599D01*
X043536Y019569D01*
X043603Y019555D01*
X043603Y019903D01*
X043703Y019903D01*
X043703Y019555D01*
X043770Y019569D01*
X043842Y019599D01*
X043908Y019643D01*
X043964Y019698D01*
X044007Y019764D01*
X044037Y019837D01*
X044051Y019903D01*
X043703Y019903D01*
X043703Y020003D01*
X044051Y020003D01*
X044037Y020070D01*
X044007Y020143D01*
X043964Y020208D01*
X043908Y020264D01*
X043842Y020308D01*
X043770Y020338D01*
X043703Y020351D01*
X043703Y020003D01*
X043603Y020003D01*
X043603Y020351D01*
X043536Y020338D01*
X043463Y020308D01*
X043398Y020264D01*
X043378Y020244D01*
X043378Y020354D01*
X043331Y020466D01*
X043246Y020552D01*
X043134Y020598D01*
X043078Y020598D01*
X043078Y020654D01*
X043031Y020766D01*
X042946Y020852D01*
X042834Y020898D01*
X042712Y020898D01*
X042673Y020882D01*
X042673Y022310D01*
X042876Y022513D01*
X042914Y022421D01*
X042973Y022362D01*
X042973Y022010D01*
X043173Y021810D01*
X043290Y021693D01*
X044041Y021693D01*
X044100Y021635D01*
X044212Y021588D01*
X044334Y021588D01*
X044446Y021635D01*
X044531Y021721D01*
X044578Y021833D01*
X044578Y021954D01*
X044531Y022066D01*
X044446Y022152D01*
X044334Y022198D01*
X044212Y022198D01*
X044100Y022152D01*
X044054Y022106D01*
X044103Y022224D01*
X044103Y022403D01*
X044034Y022568D01*
X043908Y022695D01*
X043742Y022763D01*
X043563Y022763D01*
X043452Y022717D01*
X043431Y022766D01*
X043346Y022852D01*
X043253Y022890D01*
X043656Y023293D01*
X043663Y023300D01*
X043746Y023335D01*
X043831Y023421D01*
X043878Y023533D01*
X043878Y023638D01*
X043920Y023680D01*
X043920Y024237D01*
X043832Y024325D01*
X043823Y024325D01*
X043826Y024327D01*
X043854Y024355D01*
X043862Y024373D01*
X043900Y024335D01*
X044012Y024288D01*
X044095Y024288D01*
X044490Y023893D01*
X044343Y023893D01*
X044196Y023832D01*
X044084Y023720D01*
X044023Y023573D01*
X044023Y023414D01*
X044084Y023267D01*
X044196Y023154D01*
X044343Y023093D01*
X044502Y023093D01*
X044649Y023154D01*
X044673Y023178D01*
X044673Y019089D01*
X044649Y019112D01*
X044502Y019173D01*
X044343Y019173D01*
X044196Y019112D01*
X044084Y019000D01*
X044023Y018853D01*
X044023Y018694D01*
X044084Y018547D01*
X044196Y018434D01*
X044319Y018383D01*
X044196Y018332D01*
X044084Y018220D01*
X044023Y018073D01*
X044023Y017914D01*
X044084Y017767D01*
X044196Y017654D01*
X044343Y017593D01*
X044502Y017593D01*
X044649Y017654D01*
X044673Y017678D01*
X044673Y016382D01*
X044600Y016352D01*
X044514Y016266D01*
X044468Y016154D01*
X044468Y016033D01*
X044514Y015921D01*
X044600Y015835D01*
X044712Y015788D01*
X044834Y015788D01*
X044873Y015805D01*
X044873Y015766D01*
X044868Y015754D01*
X044868Y015633D01*
X044914Y015521D01*
X045000Y015435D01*
X045112Y015388D01*
X045234Y015388D01*
X045346Y015435D01*
X045431Y015521D01*
X045478Y015633D01*
X045478Y015754D01*
X045431Y015866D01*
X045346Y015952D01*
X045273Y015982D01*
X045273Y018593D01*
X045284Y018567D01*
X045396Y018454D01*
X045543Y018393D01*
X045595Y018393D01*
X045496Y018352D01*
X045384Y018240D01*
X045323Y018093D01*
X045323Y017934D01*
X045384Y017787D01*
X045496Y017674D01*
X045643Y017613D01*
X045802Y017613D01*
X045949Y017674D01*
X046062Y017787D01*
X046123Y017934D01*
X046123Y018093D01*
X046062Y018240D01*
X045949Y018352D01*
X045802Y018413D01*
X045751Y018413D01*
X045849Y018454D01*
X045962Y018567D01*
X046023Y018714D01*
X046023Y018873D01*
X045962Y019020D01*
X045849Y019132D01*
X045702Y019193D01*
X045543Y019193D01*
X045396Y019132D01*
X045284Y019020D01*
X045273Y018994D01*
X045273Y023313D01*
X045284Y023287D01*
X045396Y023174D01*
X045543Y023113D01*
X045702Y023113D01*
X045849Y023174D01*
X045962Y023287D01*
X046023Y023434D01*
X046023Y023593D01*
X045962Y023740D01*
X045849Y023852D01*
X045702Y023913D01*
X045543Y023913D01*
X045396Y023852D01*
X045284Y023740D01*
X045273Y023714D01*
X045273Y024157D01*
X045486Y023943D01*
X045859Y023943D01*
X046123Y024207D01*
X046123Y024580D01*
X045859Y024843D01*
X045486Y024843D01*
X045223Y024580D01*
X045223Y024326D01*
X045156Y024393D01*
X044678Y024871D01*
X044678Y024954D01*
X044631Y025066D01*
X044546Y025152D01*
X044434Y025198D01*
X044312Y025198D01*
X044200Y025152D01*
X044114Y025066D01*
X044068Y024954D01*
X044068Y024898D01*
X044012Y024898D01*
X043900Y024852D01*
X043870Y024821D01*
X043870Y024864D01*
X043854Y024901D01*
X043826Y024929D01*
X043790Y024944D01*
X043621Y024944D01*
X043621Y024676D01*
X043524Y024676D01*
X043524Y024580D01*
X043276Y024580D01*
X043276Y024392D01*
X043291Y024355D01*
X043319Y024327D01*
X043323Y024325D01*
X043314Y024325D01*
X043273Y024284D01*
X043232Y024325D01*
X043223Y024325D01*
X043226Y024327D01*
X043254Y024355D01*
X043270Y024392D01*
X043270Y024580D01*
X043021Y024580D01*
X043021Y024676D01*
X043270Y024676D01*
X043270Y024864D01*
X043254Y024901D01*
X043226Y024929D01*
X043190Y024944D01*
X043021Y024944D01*
X043021Y024676D01*
X042924Y024676D01*
X042924Y024580D01*
X042676Y024580D01*
X042676Y024392D01*
X042691Y024355D01*
X042719Y024327D01*
X042723Y024325D01*
X042714Y024325D01*
X042673Y024284D01*
X042632Y024325D01*
X042623Y024325D01*
X042626Y024327D01*
X042654Y024355D01*
X042670Y024392D01*
X042670Y024580D01*
X042421Y024580D01*
X042421Y024676D01*
X042670Y024676D01*
X042670Y024864D01*
X042654Y024901D01*
X042626Y024929D01*
X042590Y024944D01*
X042421Y024944D01*
X042421Y024676D01*
X042324Y024676D01*
X042324Y024580D01*
X042076Y024580D01*
X042076Y024392D01*
X042091Y024355D01*
X042119Y024327D01*
X042123Y024325D01*
X042114Y024325D01*
X042073Y024284D01*
X042032Y024325D01*
X042023Y024325D01*
X042026Y024327D01*
X042054Y024355D01*
X042070Y024392D01*
X042070Y024580D01*
X041821Y024580D01*
X041821Y024676D01*
X042070Y024676D01*
X042070Y024864D01*
X042054Y024901D01*
X042026Y024929D01*
X041990Y024944D01*
X041821Y024944D01*
X041821Y024676D01*
X041724Y024676D01*
X041724Y024580D01*
X041476Y024580D01*
X041476Y024392D01*
X041491Y024355D01*
X041519Y024327D01*
X041523Y024325D01*
X041514Y024325D01*
X041442Y024253D01*
X041334Y024298D01*
X041212Y024298D01*
X041100Y024252D01*
X041014Y024166D01*
X040968Y024054D01*
X040968Y023998D01*
X040912Y023998D01*
X040800Y023952D01*
X040714Y023866D01*
X040668Y023754D01*
X040668Y023633D01*
X040714Y023521D01*
X040773Y023462D01*
X040773Y020825D01*
X040714Y020766D01*
X040668Y020654D01*
X040668Y020533D01*
X040714Y020421D01*
X040800Y020335D01*
X040912Y020288D01*
X041034Y020288D01*
X041146Y020335D01*
X041147Y020336D01*
X041168Y020315D01*
X041168Y020233D01*
X041214Y020121D01*
X041300Y020035D01*
X041412Y019988D01*
X041534Y019988D01*
X041646Y020035D01*
X041673Y020062D01*
X041673Y019376D01*
X041595Y019298D01*
X041512Y019298D01*
X041400Y019252D01*
X041314Y019166D01*
X041268Y019054D01*
X041268Y018933D01*
X041314Y018821D01*
X041400Y018735D01*
X041512Y018688D01*
X041568Y018688D01*
X041568Y018633D01*
X041614Y018521D01*
X041700Y018435D01*
X041812Y018388D01*
X041868Y018388D01*
X041868Y018333D01*
X041914Y018221D01*
X040350Y018221D01*
X040331Y018266D02*
X040378Y018154D01*
X040378Y018033D01*
X040362Y017993D01*
X042090Y017993D01*
X042185Y018088D01*
X042112Y018088D01*
X042000Y018135D01*
X041914Y018221D01*
X041873Y018319D02*
X040278Y018319D01*
X040246Y018352D02*
X040134Y018398D01*
X040078Y018398D01*
X040078Y018454D01*
X040031Y018566D01*
X039946Y018652D01*
X039834Y018698D01*
X039712Y018698D01*
X039600Y018652D01*
X039573Y018625D01*
X039546Y018652D01*
X039434Y018698D01*
X039378Y018698D01*
X039378Y018754D01*
X039331Y018866D01*
X039246Y018952D01*
X039134Y018998D01*
X039012Y018998D01*
X038900Y018952D01*
X038814Y018866D01*
X038768Y018754D01*
X038768Y018671D01*
X038273Y018176D01*
X038273Y017110D01*
X038390Y016993D01*
X038573Y016810D01*
X038573Y015310D01*
X038573Y015364D02*
X024327Y015364D01*
X024425Y015463D02*
X038573Y015463D01*
X038573Y015561D02*
X024524Y015561D01*
X024622Y015660D02*
X038573Y015660D01*
X038573Y015758D02*
X024721Y015758D01*
X024819Y015857D02*
X038573Y015857D01*
X038573Y015955D02*
X024918Y015955D01*
X024973Y016054D02*
X038573Y016054D01*
X038573Y016152D02*
X024973Y016152D01*
X024973Y016251D02*
X038573Y016251D01*
X038573Y016349D02*
X024973Y016349D01*
X024973Y016448D02*
X038573Y016448D01*
X038573Y016546D02*
X024973Y016546D01*
X024973Y016645D02*
X038573Y016645D01*
X038573Y016743D02*
X024973Y016743D01*
X024973Y016842D02*
X038541Y016842D01*
X038443Y016940D02*
X024973Y016940D01*
X024973Y017039D02*
X038344Y017039D01*
X038273Y017137D02*
X024973Y017137D01*
X024973Y017236D02*
X038273Y017236D01*
X038273Y017334D02*
X024973Y017334D01*
X024973Y017433D02*
X038273Y017433D01*
X038273Y017531D02*
X024973Y017531D01*
X024973Y017630D02*
X038273Y017630D01*
X038273Y017728D02*
X024973Y017728D01*
X024973Y017827D02*
X038273Y017827D01*
X038273Y017925D02*
X024973Y017925D01*
X024973Y018024D02*
X038273Y018024D01*
X038273Y018122D02*
X024973Y018122D01*
X024973Y018221D02*
X038318Y018221D01*
X038416Y018319D02*
X024973Y018319D01*
X024973Y018418D02*
X038515Y018418D01*
X038613Y018516D02*
X024973Y018516D01*
X024973Y018615D02*
X038712Y018615D01*
X038768Y018713D02*
X024973Y018713D01*
X024973Y018812D02*
X038792Y018812D01*
X038859Y018910D02*
X024973Y018910D01*
X024973Y019009D02*
X041268Y019009D01*
X041277Y018910D02*
X039287Y018910D01*
X039354Y018812D02*
X041323Y018812D01*
X041452Y018713D02*
X039378Y018713D01*
X039073Y018693D02*
X038473Y018093D01*
X038473Y017193D01*
X038773Y016893D01*
X038773Y015393D01*
X039073Y015093D01*
X039773Y015093D01*
X040073Y014793D01*
X040073Y013693D01*
X040378Y013690D02*
X045635Y013690D01*
X045643Y013693D02*
X045496Y013632D01*
X045384Y013520D01*
X045323Y013373D01*
X045323Y013214D01*
X045384Y013067D01*
X045496Y012954D01*
X045643Y012893D01*
X045802Y012893D01*
X045949Y012954D01*
X046062Y013067D01*
X046123Y013214D01*
X046123Y013373D01*
X046062Y013520D01*
X045949Y013632D01*
X045802Y013693D01*
X045643Y013693D01*
X045811Y013690D02*
X046909Y013690D01*
X046912Y013688D02*
X047034Y013688D01*
X047146Y013735D01*
X047231Y013821D01*
X047278Y013933D01*
X047278Y014054D01*
X047273Y014066D01*
X047273Y022905D01*
X047346Y022935D01*
X047431Y023021D01*
X047478Y023133D01*
X047478Y023254D01*
X047431Y023366D01*
X047346Y023452D01*
X047234Y023498D01*
X047112Y023498D01*
X047000Y023452D01*
X046914Y023366D01*
X046868Y023254D01*
X046868Y023133D01*
X046873Y023121D01*
X046873Y016961D01*
X046847Y017023D01*
X046804Y017088D01*
X046748Y017144D01*
X046682Y017188D01*
X046610Y017218D01*
X046543Y017231D01*
X046543Y016883D01*
X046443Y016883D01*
X046443Y016783D01*
X046543Y016783D01*
X046543Y016435D01*
X046610Y016449D01*
X046682Y016479D01*
X046748Y016523D01*
X046804Y016578D01*
X046847Y016644D01*
X046873Y016705D01*
X046873Y015910D01*
X046748Y016035D01*
X046582Y016103D01*
X046403Y016103D01*
X046238Y016035D01*
X046111Y015908D01*
X046043Y015743D01*
X046043Y015564D01*
X046111Y015398D01*
X046238Y015272D01*
X046403Y015203D01*
X046582Y015203D01*
X046748Y015272D01*
X046873Y015397D01*
X046873Y014730D01*
X046748Y014855D01*
X046582Y014923D01*
X046403Y014923D01*
X046238Y014855D01*
X046111Y014728D01*
X046043Y014563D01*
X046043Y014384D01*
X046111Y014218D01*
X046238Y014092D01*
X046403Y014023D01*
X046582Y014023D01*
X046670Y014060D01*
X046668Y014054D01*
X046668Y013933D01*
X046714Y013821D01*
X046800Y013735D01*
X046912Y013688D01*
X047037Y013690D02*
X053220Y013690D01*
X053179Y013591D02*
X045991Y013591D01*
X046073Y013493D02*
X053153Y013493D01*
X053153Y013394D02*
X046114Y013394D01*
X046123Y013296D02*
X053163Y013296D01*
X053204Y013197D02*
X046116Y013197D01*
X046075Y013099D02*
X053263Y013099D01*
X053362Y013000D02*
X045996Y013000D01*
X045823Y012902D02*
X054998Y012902D01*
X054998Y013000D02*
X053984Y013000D01*
X054082Y013099D02*
X054998Y013099D01*
X054998Y013197D02*
X054141Y013197D01*
X054182Y013296D02*
X054998Y013296D01*
X054998Y013394D02*
X054193Y013394D01*
X054193Y013493D02*
X054998Y013493D01*
X054998Y013591D02*
X054167Y013591D01*
X054221Y013690D02*
X054998Y013690D01*
X054998Y013788D02*
X054319Y013788D01*
X054418Y013887D02*
X054998Y013887D01*
X054998Y013985D02*
X054516Y013985D01*
X054615Y014084D02*
X054998Y014084D01*
X054998Y014182D02*
X054713Y014182D01*
X054773Y014281D02*
X054998Y014281D01*
X054998Y014379D02*
X054773Y014379D01*
X054773Y014478D02*
X054998Y014478D01*
X054998Y014576D02*
X054773Y014576D01*
X054773Y014675D02*
X054998Y014675D01*
X054998Y014773D02*
X054773Y014773D01*
X054773Y014872D02*
X054998Y014872D01*
X054998Y014970D02*
X054773Y014970D01*
X054773Y015069D02*
X054998Y015069D01*
X054998Y015167D02*
X054773Y015167D01*
X054773Y015266D02*
X054998Y015266D01*
X054998Y015364D02*
X054773Y015364D01*
X054773Y015463D02*
X054998Y015463D01*
X054998Y015561D02*
X054773Y015561D01*
X054773Y015660D02*
X054998Y015660D01*
X054998Y015758D02*
X054773Y015758D01*
X054773Y015857D02*
X054998Y015857D01*
X054998Y015955D02*
X054773Y015955D01*
X054773Y016054D02*
X054998Y016054D01*
X054998Y016152D02*
X054773Y016152D01*
X054773Y016251D02*
X054998Y016251D01*
X054998Y016349D02*
X054773Y016349D01*
X054773Y016448D02*
X054998Y016448D01*
X054998Y016546D02*
X054773Y016546D01*
X054773Y016645D02*
X054998Y016645D01*
X054998Y016743D02*
X054773Y016743D01*
X054773Y016842D02*
X054998Y016842D01*
X054998Y016940D02*
X054690Y016940D01*
X054592Y017039D02*
X054998Y017039D01*
X054998Y017137D02*
X054493Y017137D01*
X054395Y017236D02*
X054998Y017236D01*
X054998Y017334D02*
X054296Y017334D01*
X054198Y017433D02*
X054998Y017433D01*
X054998Y017531D02*
X054176Y017531D01*
X054193Y017630D02*
X054998Y017630D01*
X054998Y017728D02*
X054193Y017728D01*
X054173Y017827D02*
X054998Y017827D01*
X054998Y017925D02*
X054206Y017925D01*
X054305Y018024D02*
X054998Y018024D01*
X054998Y018122D02*
X054403Y018122D01*
X054502Y018221D02*
X054998Y018221D01*
X054998Y018319D02*
X054600Y018319D01*
X054699Y018418D02*
X054998Y018418D01*
X054998Y018516D02*
X054797Y018516D01*
X054873Y018615D02*
X054998Y018615D01*
X054998Y018713D02*
X054873Y018713D01*
X054873Y018812D02*
X054998Y018812D01*
X054998Y018910D02*
X054873Y018910D01*
X054873Y019009D02*
X054998Y019009D01*
X054998Y019107D02*
X054873Y019107D01*
X054873Y019206D02*
X054998Y019206D01*
X054998Y019304D02*
X054873Y019304D01*
X054873Y019403D02*
X054998Y019403D01*
X054998Y019501D02*
X054873Y019501D01*
X054873Y019600D02*
X054998Y019600D01*
X054998Y019698D02*
X054873Y019698D01*
X054873Y019797D02*
X054998Y019797D01*
X054998Y019895D02*
X054873Y019895D01*
X054873Y019994D02*
X054998Y019994D01*
X054998Y020092D02*
X054873Y020092D01*
X054873Y020191D02*
X054998Y020191D01*
X054998Y020289D02*
X054873Y020289D01*
X054873Y020388D02*
X054998Y020388D01*
X054998Y020486D02*
X054873Y020486D01*
X054873Y020585D02*
X054998Y020585D01*
X054998Y020683D02*
X054873Y020683D01*
X054873Y020782D02*
X054998Y020782D01*
X054998Y020880D02*
X054873Y020880D01*
X054873Y020979D02*
X054998Y020979D01*
X054998Y021077D02*
X054873Y021077D01*
X054873Y021176D02*
X054998Y021176D01*
X054998Y021274D02*
X054873Y021274D01*
X054873Y021373D02*
X054998Y021373D01*
X054998Y021471D02*
X054873Y021471D01*
X054873Y021570D02*
X054998Y021570D01*
X054998Y021668D02*
X054873Y021668D01*
X054873Y021767D02*
X054998Y021767D01*
X054998Y021865D02*
X054873Y021865D01*
X054873Y021964D02*
X054998Y021964D01*
X054998Y022062D02*
X054873Y022062D01*
X054873Y022161D02*
X054998Y022161D01*
X054998Y022259D02*
X054873Y022259D01*
X054873Y022358D02*
X054998Y022358D01*
X054998Y022456D02*
X054873Y022456D01*
X054873Y022555D02*
X054998Y022555D01*
X054998Y022653D02*
X054873Y022653D01*
X054873Y022752D02*
X054998Y022752D01*
X054998Y022850D02*
X054873Y022850D01*
X054873Y022949D02*
X054998Y022949D01*
X054998Y023047D02*
X054873Y023047D01*
X054873Y023146D02*
X054998Y023146D01*
X054998Y023244D02*
X054873Y023244D01*
X054873Y023343D02*
X054998Y023343D01*
X054998Y023441D02*
X054873Y023441D01*
X054873Y023540D02*
X054998Y023540D01*
X054998Y023638D02*
X054811Y023638D01*
X054712Y023737D02*
X054998Y023737D01*
X054998Y023835D02*
X054614Y023835D01*
X054515Y023934D02*
X054998Y023934D01*
X054998Y024032D02*
X054948Y024032D01*
X054673Y023493D02*
X054673Y018675D01*
X053673Y017675D01*
X054573Y016775D01*
X054573Y014325D01*
X053673Y013425D01*
X053301Y013788D02*
X047199Y013788D01*
X047259Y013887D02*
X053429Y013887D01*
X053361Y013985D02*
X047278Y013985D01*
X047273Y014084D02*
X053263Y014084D01*
X053204Y014182D02*
X047273Y014182D01*
X047273Y014281D02*
X053163Y014281D01*
X053153Y014379D02*
X047273Y014379D01*
X047273Y014478D02*
X053153Y014478D01*
X053179Y014576D02*
X047273Y014576D01*
X047273Y014675D02*
X053220Y014675D01*
X053302Y014773D02*
X047273Y014773D01*
X047273Y014872D02*
X053431Y014872D01*
X053468Y014970D02*
X047273Y014970D01*
X047273Y015069D02*
X053333Y015069D01*
X053260Y015167D02*
X047273Y015167D01*
X047273Y015266D02*
X053220Y015266D01*
X053073Y015266D02*
X054273Y015266D01*
X054273Y015364D02*
X053073Y015364D01*
X053073Y015463D02*
X054273Y015463D01*
X054273Y015561D02*
X053073Y015561D01*
X053073Y015660D02*
X054273Y015660D01*
X054273Y015758D02*
X053073Y015758D01*
X053073Y015857D02*
X054273Y015857D01*
X054273Y015893D02*
X054273Y014893D01*
X053073Y014893D01*
X053073Y015893D01*
X054273Y015893D01*
X054373Y015857D02*
X053751Y015857D01*
X053723Y015857D02*
X053623Y015857D01*
X053595Y015857D02*
X047273Y015857D01*
X047273Y015955D02*
X054373Y015955D01*
X054373Y016054D02*
X047273Y016054D01*
X047273Y016152D02*
X054373Y016152D01*
X054373Y016251D02*
X047273Y016251D01*
X047273Y016349D02*
X054373Y016349D01*
X054373Y016448D02*
X047273Y016448D01*
X047273Y016546D02*
X054373Y016546D01*
X054373Y016645D02*
X047273Y016645D01*
X047273Y016743D02*
X054321Y016743D01*
X054223Y016842D02*
X047273Y016842D01*
X047273Y016940D02*
X054124Y016940D01*
X054026Y017039D02*
X047273Y017039D01*
X047273Y017137D02*
X053927Y017137D01*
X053376Y017236D02*
X047273Y017236D01*
X047273Y017334D02*
X053278Y017334D01*
X053210Y017433D02*
X047273Y017433D01*
X047273Y017531D02*
X053169Y017531D01*
X053153Y017630D02*
X047273Y017630D01*
X047273Y017728D02*
X053153Y017728D01*
X053173Y017827D02*
X047273Y017827D01*
X047273Y017925D02*
X053214Y017925D01*
X053286Y018024D02*
X047273Y018024D01*
X047273Y018122D02*
X053394Y018122D01*
X053376Y018221D02*
X047273Y018221D01*
X047273Y018319D02*
X053277Y018319D01*
X053210Y018418D02*
X047273Y018418D01*
X047273Y018516D02*
X053169Y018516D01*
X053153Y018615D02*
X047273Y018615D01*
X047273Y018713D02*
X053153Y018713D01*
X053173Y018812D02*
X047273Y018812D01*
X047273Y018910D02*
X053214Y018910D01*
X053287Y019009D02*
X047273Y019009D01*
X047273Y019107D02*
X053396Y019107D01*
X053498Y019206D02*
X047273Y019206D01*
X047273Y019304D02*
X053347Y019304D01*
X053268Y019403D02*
X047273Y019403D01*
X047273Y019501D02*
X053225Y019501D01*
X053073Y019501D02*
X054273Y019501D01*
X054273Y019403D02*
X053073Y019403D01*
X053073Y019304D02*
X054273Y019304D01*
X054273Y019206D02*
X053073Y019206D01*
X053073Y019193D02*
X054273Y019193D01*
X054273Y020193D01*
X053073Y020193D01*
X053073Y019193D01*
X053073Y019600D02*
X054273Y019600D01*
X054273Y019698D02*
X053073Y019698D01*
X053073Y019797D02*
X054273Y019797D01*
X054273Y019895D02*
X053073Y019895D01*
X053073Y019994D02*
X054273Y019994D01*
X054273Y020092D02*
X053073Y020092D01*
X053073Y020191D02*
X054273Y020191D01*
X054473Y020191D02*
X047273Y020191D01*
X047273Y020289D02*
X054473Y020289D01*
X054473Y020388D02*
X047273Y020388D01*
X047273Y020486D02*
X054473Y020486D01*
X054473Y020585D02*
X053755Y020585D01*
X054059Y020683D02*
X054156Y020683D01*
X054156Y020596D02*
X054344Y020596D01*
X054381Y020612D01*
X054409Y020640D01*
X054424Y020677D01*
X054424Y020845D01*
X054156Y020845D01*
X054156Y020596D01*
X054156Y020782D02*
X054059Y020782D01*
X054156Y020880D02*
X054473Y020880D01*
X054473Y020782D02*
X054424Y020782D01*
X054424Y020683D02*
X054473Y020683D01*
X054473Y020979D02*
X054424Y020979D01*
X054424Y021077D02*
X054473Y021077D01*
X054156Y021077D02*
X054059Y021077D01*
X054059Y020979D02*
X054156Y020979D01*
X054156Y021176D02*
X054059Y021176D01*
X054092Y021274D02*
X053585Y021274D01*
X053653Y021373D02*
X054068Y021373D01*
X054075Y021471D02*
X053678Y021471D01*
X053671Y021570D02*
X054118Y021570D01*
X054240Y021668D02*
X053629Y021668D01*
X053509Y021767D02*
X054273Y021767D01*
X054273Y021865D02*
X051676Y021865D01*
X051646Y021835D02*
X051731Y021921D01*
X051778Y022033D01*
X051778Y022115D01*
X051873Y022210D01*
X051873Y023957D01*
X052123Y024207D01*
X052123Y024580D01*
X051859Y024843D01*
X051486Y024843D01*
X051223Y024580D01*
X051223Y024207D01*
X051473Y023957D01*
X051473Y022398D01*
X051412Y022398D01*
X051300Y022352D01*
X051214Y022266D01*
X051168Y022154D01*
X051168Y022033D01*
X051214Y021921D01*
X051300Y021835D01*
X051412Y021788D01*
X051534Y021788D01*
X051646Y021835D01*
X051749Y021964D02*
X054273Y021964D01*
X054273Y022062D02*
X051778Y022062D01*
X051823Y022161D02*
X054273Y022161D01*
X054273Y022259D02*
X051873Y022259D01*
X051873Y022358D02*
X054273Y022358D01*
X054273Y022456D02*
X051873Y022456D01*
X051873Y022555D02*
X054273Y022555D01*
X054273Y022653D02*
X051873Y022653D01*
X051873Y022752D02*
X054273Y022752D01*
X054273Y022850D02*
X051873Y022850D01*
X051873Y022949D02*
X054273Y022949D01*
X054273Y023047D02*
X051873Y023047D01*
X051873Y023146D02*
X054273Y023146D01*
X054273Y023244D02*
X051873Y023244D01*
X051873Y023343D02*
X054240Y023343D01*
X054142Y023441D02*
X051873Y023441D01*
X051873Y023540D02*
X053695Y023540D01*
X053607Y023638D02*
X051873Y023638D01*
X051873Y023737D02*
X053568Y023737D01*
X053568Y023835D02*
X051873Y023835D01*
X051873Y023934D02*
X053601Y023934D01*
X053623Y024032D02*
X053681Y024032D01*
X053723Y024131D02*
X053623Y024131D01*
X053623Y024229D02*
X053723Y024229D01*
X053723Y024328D02*
X053623Y024328D01*
X053623Y024426D02*
X053123Y024426D01*
X053123Y024328D02*
X053273Y024328D01*
X053273Y024229D02*
X053123Y024229D01*
X053123Y024207D02*
X052859Y023943D01*
X052486Y023943D01*
X052223Y024207D01*
X052223Y024580D01*
X052486Y024843D01*
X052859Y024843D01*
X053123Y024580D01*
X053123Y024207D01*
X053047Y024131D02*
X053370Y024131D01*
X053468Y024032D02*
X052948Y024032D01*
X052397Y024032D02*
X051948Y024032D01*
X052047Y024131D02*
X052299Y024131D01*
X052223Y024229D02*
X052123Y024229D01*
X052123Y024328D02*
X052223Y024328D01*
X052223Y024426D02*
X052123Y024426D01*
X052123Y024525D02*
X052223Y024525D01*
X052266Y024623D02*
X052079Y024623D01*
X051981Y024722D02*
X052365Y024722D01*
X052463Y024820D02*
X051882Y024820D01*
X051933Y025017D02*
X052412Y025017D01*
X052314Y025116D02*
X052032Y025116D01*
X051673Y025393D02*
X052673Y025393D01*
X053173Y024893D01*
X053973Y024893D01*
X054173Y024693D01*
X054173Y023993D01*
X054673Y023493D01*
X054473Y023393D02*
X054473Y021493D01*
X054373Y021393D01*
X053836Y021176D02*
X053781Y021176D01*
X053438Y020893D02*
X053373Y020959D01*
X053373Y021493D01*
X053160Y021274D02*
X047273Y021274D01*
X047273Y021176D02*
X053095Y021176D01*
X053072Y021077D02*
X047273Y021077D01*
X047273Y020979D02*
X053072Y020979D01*
X053072Y020880D02*
X047273Y020880D01*
X047273Y020782D02*
X053072Y020782D01*
X053072Y020683D02*
X047273Y020683D01*
X047273Y020585D02*
X053121Y020585D01*
X053359Y019994D02*
X047273Y019994D01*
X047273Y020092D02*
X053534Y020092D01*
X053623Y020092D02*
X053723Y020092D01*
X053812Y020092D02*
X054473Y020092D01*
X054473Y019994D02*
X053987Y019994D01*
X054071Y019895D02*
X054473Y019895D01*
X054473Y019797D02*
X054117Y019797D01*
X054140Y019698D02*
X054473Y019698D01*
X054473Y019600D02*
X053723Y019600D01*
X053723Y019698D02*
X053623Y019698D01*
X053623Y019600D02*
X047273Y019600D01*
X047273Y019698D02*
X053206Y019698D01*
X053229Y019797D02*
X047273Y019797D01*
X047273Y019895D02*
X053275Y019895D01*
X053623Y019895D02*
X053723Y019895D01*
X053723Y019797D02*
X053623Y019797D01*
X053623Y019994D02*
X053723Y019994D01*
X054121Y019501D02*
X054473Y019501D01*
X054473Y019403D02*
X054078Y019403D01*
X053999Y019304D02*
X054473Y019304D01*
X054473Y019206D02*
X053847Y019206D01*
X053949Y019107D02*
X054473Y019107D01*
X054473Y019009D02*
X054058Y019009D01*
X054132Y018910D02*
X054473Y018910D01*
X054473Y018812D02*
X054172Y018812D01*
X054193Y018713D02*
X054429Y018713D01*
X054330Y018615D02*
X054193Y018615D01*
X054177Y018516D02*
X054232Y018516D01*
X051173Y019593D02*
X051173Y019993D01*
X051273Y020093D01*
X051473Y021093D02*
X051473Y021293D01*
X051269Y021865D02*
X047273Y021865D01*
X047273Y021767D02*
X053236Y021767D01*
X053117Y021668D02*
X047273Y021668D01*
X047273Y021570D02*
X053074Y021570D01*
X053068Y021471D02*
X047273Y021471D01*
X047273Y021373D02*
X053093Y021373D01*
X051673Y022293D02*
X051473Y022093D01*
X051673Y022293D02*
X051673Y024393D01*
X051365Y024722D02*
X050981Y024722D01*
X051079Y024623D02*
X051266Y024623D01*
X051223Y024525D02*
X051123Y024525D01*
X051123Y024580D02*
X050859Y024843D01*
X050486Y024843D01*
X050223Y024580D01*
X050223Y024207D01*
X050486Y023943D01*
X050859Y023943D01*
X051123Y024207D01*
X051123Y024580D01*
X051123Y024426D02*
X051223Y024426D01*
X051223Y024328D02*
X051123Y024328D01*
X051123Y024229D02*
X051223Y024229D01*
X051299Y024131D02*
X051047Y024131D01*
X050948Y024032D02*
X051397Y024032D01*
X051473Y023934D02*
X045273Y023934D01*
X045273Y024032D02*
X045397Y024032D01*
X045299Y024131D02*
X045273Y024131D01*
X045221Y024328D02*
X045223Y024328D01*
X045223Y024426D02*
X045123Y024426D01*
X045024Y024525D02*
X045223Y024525D01*
X045266Y024623D02*
X044926Y024623D01*
X044827Y024722D02*
X045365Y024722D01*
X045463Y024820D02*
X044729Y024820D01*
X044678Y024919D02*
X045864Y024919D01*
X045882Y024820D02*
X045963Y024820D01*
X045981Y024722D02*
X046061Y024722D01*
X046079Y024623D02*
X046160Y024623D01*
X046123Y024525D02*
X046223Y024525D01*
X046223Y024426D02*
X046123Y024426D01*
X046123Y024328D02*
X046223Y024328D01*
X046223Y024229D02*
X046123Y024229D01*
X046047Y024131D02*
X046299Y024131D01*
X046397Y024032D02*
X045948Y024032D01*
X045866Y023835D02*
X051473Y023835D01*
X051473Y023737D02*
X045963Y023737D01*
X046004Y023638D02*
X051473Y023638D01*
X051473Y023540D02*
X046023Y023540D01*
X046023Y023441D02*
X046990Y023441D01*
X046905Y023343D02*
X045985Y023343D01*
X045920Y023244D02*
X046868Y023244D01*
X046868Y023146D02*
X045781Y023146D01*
X045465Y023146D02*
X045273Y023146D01*
X045273Y023244D02*
X045326Y023244D01*
X045273Y023047D02*
X046873Y023047D01*
X046873Y022949D02*
X045273Y022949D01*
X045273Y022850D02*
X046873Y022850D01*
X046873Y022752D02*
X045273Y022752D01*
X045273Y022653D02*
X046152Y022653D01*
X046138Y022644D02*
X046082Y022588D01*
X046038Y022523D01*
X046008Y022450D01*
X045995Y022383D01*
X046343Y022383D01*
X046343Y022283D01*
X046443Y022283D01*
X046443Y021935D01*
X046510Y021949D01*
X046582Y021979D01*
X046648Y022023D01*
X046704Y022078D01*
X046747Y022144D01*
X046777Y022217D01*
X046791Y022283D01*
X046443Y022283D01*
X046443Y022383D01*
X046791Y022383D01*
X046777Y022450D01*
X046747Y022523D01*
X046704Y022588D01*
X046648Y022644D01*
X046582Y022688D01*
X046510Y022718D01*
X046443Y022731D01*
X046443Y022383D01*
X046343Y022383D01*
X046343Y022731D01*
X046276Y022718D01*
X046203Y022688D01*
X046138Y022644D01*
X046060Y022555D02*
X045273Y022555D01*
X045273Y022456D02*
X046011Y022456D01*
X045995Y022283D02*
X046008Y022217D01*
X046038Y022144D01*
X046082Y022078D01*
X046138Y022023D01*
X046203Y021979D01*
X046276Y021949D01*
X046343Y021935D01*
X046343Y022283D01*
X045995Y022283D01*
X046000Y022259D02*
X045273Y022259D01*
X045273Y022161D02*
X046031Y022161D01*
X046098Y022062D02*
X045273Y022062D01*
X045273Y021964D02*
X046240Y021964D01*
X046343Y021964D02*
X046443Y021964D01*
X046443Y022062D02*
X046343Y022062D01*
X046343Y022161D02*
X046443Y022161D01*
X046443Y022259D02*
X046343Y022259D01*
X046343Y022358D02*
X045273Y022358D01*
X044673Y022358D02*
X044103Y022358D01*
X044103Y022259D02*
X044673Y022259D01*
X044673Y022161D02*
X044424Y022161D01*
X044533Y022062D02*
X044673Y022062D01*
X044673Y021964D02*
X044574Y021964D01*
X044578Y021865D02*
X044673Y021865D01*
X044673Y021767D02*
X044551Y021767D01*
X044479Y021668D02*
X044673Y021668D01*
X044673Y021570D02*
X043775Y021570D01*
X043742Y021583D02*
X043563Y021583D01*
X043398Y021515D01*
X043271Y021388D01*
X043203Y021223D01*
X043203Y021044D01*
X043271Y020878D01*
X043398Y020752D01*
X043563Y020683D01*
X043066Y020683D01*
X043016Y020782D02*
X043368Y020782D01*
X043271Y020880D02*
X042877Y020880D01*
X042673Y020979D02*
X043230Y020979D01*
X043203Y021077D02*
X042673Y021077D01*
X042673Y021176D02*
X043203Y021176D01*
X043224Y021274D02*
X042673Y021274D01*
X042673Y021373D02*
X043265Y021373D01*
X043354Y021471D02*
X042673Y021471D01*
X042673Y021570D02*
X043531Y021570D01*
X043742Y021583D02*
X043908Y021515D01*
X044034Y021388D01*
X044103Y021223D01*
X044103Y021044D01*
X044034Y020878D01*
X043908Y020752D01*
X043742Y020683D01*
X043563Y020683D01*
X043742Y020683D02*
X044673Y020683D01*
X044673Y020585D02*
X043166Y020585D01*
X043311Y020486D02*
X044673Y020486D01*
X044673Y020388D02*
X043364Y020388D01*
X043378Y020289D02*
X043436Y020289D01*
X043603Y020289D02*
X043703Y020289D01*
X043703Y020191D02*
X043603Y020191D01*
X043603Y020092D02*
X043703Y020092D01*
X043703Y019994D02*
X044673Y019994D01*
X044673Y020092D02*
X044028Y020092D01*
X043975Y020191D02*
X044673Y020191D01*
X044673Y020289D02*
X043870Y020289D01*
X043938Y020782D02*
X044673Y020782D01*
X044673Y020880D02*
X044035Y020880D01*
X044076Y020979D02*
X044673Y020979D01*
X044673Y021077D02*
X044103Y021077D01*
X044103Y021176D02*
X044673Y021176D01*
X044673Y021274D02*
X044081Y021274D01*
X044041Y021373D02*
X044673Y021373D01*
X044673Y021471D02*
X043951Y021471D01*
X044066Y021668D02*
X042673Y021668D01*
X042673Y021767D02*
X043216Y021767D01*
X043118Y021865D02*
X042673Y021865D01*
X042673Y021964D02*
X043019Y021964D01*
X042973Y022062D02*
X042673Y022062D01*
X042673Y022161D02*
X042973Y022161D01*
X042973Y022259D02*
X042673Y022259D01*
X042720Y022358D02*
X042973Y022358D01*
X042899Y022456D02*
X042819Y022456D01*
X042473Y022393D02*
X043573Y023493D01*
X043573Y023593D01*
X043573Y023959D01*
X043920Y023934D02*
X044449Y023934D01*
X044351Y024032D02*
X043920Y024032D01*
X043920Y024131D02*
X044252Y024131D01*
X044154Y024229D02*
X043920Y024229D01*
X043917Y024328D02*
X043828Y024328D01*
X044073Y024593D02*
X044873Y023793D01*
X044873Y016193D01*
X044773Y016093D01*
X044500Y015955D02*
X043967Y015955D01*
X043908Y016015D02*
X044034Y015888D01*
X044103Y015723D01*
X044103Y015544D01*
X044034Y015378D01*
X043908Y015252D01*
X043742Y015183D01*
X043563Y015183D01*
X043398Y015252D01*
X043271Y015378D01*
X043203Y015544D01*
X043203Y015723D01*
X043271Y015888D01*
X043398Y016015D01*
X043563Y016083D01*
X043742Y016083D01*
X043908Y016015D01*
X043814Y016054D02*
X044468Y016054D01*
X044468Y016152D02*
X040578Y016152D01*
X040578Y016251D02*
X044508Y016251D01*
X044598Y016349D02*
X040538Y016349D01*
X040759Y016448D02*
X043382Y016448D01*
X043283Y016546D02*
X040842Y016546D01*
X040878Y016645D02*
X043236Y016645D01*
X042891Y016743D02*
X041506Y016743D01*
X041604Y016842D02*
X042805Y016842D01*
X042768Y016940D02*
X041851Y016940D01*
X041939Y017039D02*
X042596Y017039D01*
X042507Y017137D02*
X041978Y017137D01*
X041978Y017236D02*
X042468Y017236D01*
X042468Y017334D02*
X041945Y017334D01*
X041865Y017433D02*
X042500Y017433D01*
X042580Y017531D02*
X040473Y017531D01*
X040473Y017433D02*
X041481Y017433D01*
X041401Y017334D02*
X040473Y017334D01*
X040473Y017236D02*
X041368Y017236D01*
X041334Y017137D02*
X040473Y017137D01*
X040473Y017039D02*
X040636Y017039D01*
X040773Y016893D02*
X041373Y016893D01*
X041673Y017193D01*
X042292Y017630D02*
X042673Y017630D01*
X042673Y017728D02*
X042391Y017728D01*
X042489Y017827D02*
X042673Y017827D01*
X042673Y017925D02*
X042588Y017925D01*
X042673Y018024D02*
X042673Y018024D01*
X042673Y018122D02*
X042673Y018122D01*
X042673Y018221D02*
X042673Y018221D01*
X042673Y018319D02*
X042673Y018319D01*
X042673Y018418D02*
X042673Y018418D01*
X042673Y018516D02*
X042673Y018516D01*
X042673Y018615D02*
X042673Y018615D01*
X042673Y018713D02*
X042673Y018713D01*
X042673Y018812D02*
X042673Y018812D01*
X042673Y018910D02*
X042673Y018910D01*
X042673Y019009D02*
X042673Y019009D01*
X042673Y019107D02*
X042673Y019107D01*
X042673Y019206D02*
X042673Y019206D01*
X042673Y019304D02*
X042673Y019304D01*
X042673Y019403D02*
X042673Y019403D01*
X042673Y019501D02*
X042673Y019501D01*
X042673Y019600D02*
X042673Y019600D01*
X042673Y019698D02*
X042673Y019698D01*
X042673Y019797D02*
X042673Y019797D01*
X042673Y019895D02*
X042673Y019895D01*
X042673Y019910D02*
X042673Y019910D01*
X042773Y020093D02*
X042773Y020593D01*
X043073Y020293D02*
X043073Y016993D01*
X043273Y017236D02*
X043497Y017236D01*
X043273Y017334D02*
X044673Y017334D01*
X044673Y017236D02*
X043809Y017236D01*
X043965Y017137D02*
X044673Y017137D01*
X044673Y017039D02*
X044046Y017039D01*
X044087Y016940D02*
X044673Y016940D01*
X044673Y016842D02*
X044103Y016842D01*
X044103Y016743D02*
X044673Y016743D01*
X044673Y016645D02*
X044070Y016645D01*
X044022Y016546D02*
X044673Y016546D01*
X044673Y016448D02*
X043924Y016448D01*
X043492Y016054D02*
X040545Y016054D01*
X040466Y015955D02*
X043338Y015955D01*
X043258Y015857D02*
X038973Y015857D01*
X038973Y015955D02*
X040079Y015955D01*
X040000Y016054D02*
X038973Y016054D01*
X038973Y016152D02*
X039968Y016152D01*
X039784Y016251D02*
X038973Y016251D01*
X038973Y016349D02*
X039702Y016349D01*
X039668Y016448D02*
X039559Y016448D01*
X039642Y016546D02*
X039668Y016546D01*
X039678Y016645D02*
X039705Y016645D01*
X039973Y016493D02*
X039973Y017993D01*
X040073Y018093D01*
X040378Y018122D02*
X042030Y018122D01*
X042121Y018024D02*
X040374Y018024D01*
X040373Y017793D02*
X042173Y017793D01*
X042473Y018093D01*
X042473Y022393D01*
X042273Y022493D02*
X042973Y023193D01*
X042973Y023593D01*
X042973Y023959D01*
X043228Y024328D02*
X043318Y024328D01*
X043276Y024426D02*
X043270Y024426D01*
X043270Y024525D02*
X043276Y024525D01*
X043276Y024676D02*
X043524Y024676D01*
X043524Y024944D01*
X043356Y024944D01*
X043319Y024929D01*
X043291Y024901D01*
X043276Y024864D01*
X043276Y024676D01*
X043270Y024722D02*
X043276Y024722D01*
X043270Y024820D02*
X043276Y024820D01*
X043309Y024919D02*
X043237Y024919D01*
X043021Y024919D02*
X042924Y024919D01*
X042924Y024944D02*
X042756Y024944D01*
X042719Y024929D01*
X042691Y024901D01*
X042676Y024864D01*
X042676Y024676D01*
X042924Y024676D01*
X042924Y024944D01*
X042924Y024820D02*
X043021Y024820D01*
X043021Y024722D02*
X042924Y024722D01*
X042924Y024623D02*
X042421Y024623D01*
X042324Y024623D02*
X041821Y024623D01*
X041724Y024623D02*
X039479Y024623D01*
X039500Y024525D02*
X041476Y024525D01*
X041476Y024426D02*
X039521Y024426D01*
X039528Y024393D02*
X039454Y024741D01*
X039245Y025029D01*
X038937Y025206D01*
X038583Y025244D01*
X038245Y025134D01*
X037981Y024896D01*
X037981Y024896D01*
X037837Y024571D01*
X037837Y024216D01*
X037981Y023891D01*
X037981Y023891D01*
X038245Y023653D01*
X038245Y023653D01*
X038583Y023543D01*
X038583Y023543D01*
X038937Y023580D01*
X039245Y023758D01*
X039454Y024046D01*
X039528Y024393D01*
X039514Y024328D02*
X041518Y024328D01*
X041476Y024676D02*
X041724Y024676D01*
X041724Y024944D01*
X041556Y024944D01*
X041519Y024929D01*
X041491Y024901D01*
X041476Y024864D01*
X041476Y024676D01*
X041476Y024722D02*
X039458Y024722D01*
X039454Y024741D02*
X039454Y024741D01*
X039396Y024820D02*
X041476Y024820D01*
X041509Y024919D02*
X039325Y024919D01*
X039253Y025017D02*
X044094Y025017D01*
X044068Y024919D02*
X043837Y024919D01*
X043621Y024919D02*
X043524Y024919D01*
X043524Y024820D02*
X043621Y024820D01*
X043621Y024722D02*
X043524Y024722D01*
X043524Y024623D02*
X043021Y024623D01*
X042676Y024525D02*
X042670Y024525D01*
X042670Y024426D02*
X042676Y024426D01*
X042718Y024328D02*
X042628Y024328D01*
X042670Y024722D02*
X042676Y024722D01*
X042670Y024820D02*
X042676Y024820D01*
X042709Y024919D02*
X042637Y024919D01*
X042421Y024919D02*
X042324Y024919D01*
X042324Y024944D02*
X042156Y024944D01*
X042119Y024929D01*
X042091Y024901D01*
X042076Y024864D01*
X042076Y024676D01*
X042324Y024676D01*
X042324Y024944D01*
X042324Y024820D02*
X042421Y024820D01*
X042421Y024722D02*
X042324Y024722D01*
X042076Y024722D02*
X042070Y024722D01*
X042070Y024820D02*
X042076Y024820D01*
X042109Y024919D02*
X042037Y024919D01*
X041821Y024919D02*
X041724Y024919D01*
X041724Y024820D02*
X041821Y024820D01*
X041821Y024722D02*
X041724Y024722D01*
X042070Y024525D02*
X042076Y024525D01*
X042070Y024426D02*
X042076Y024426D01*
X042118Y024328D02*
X042028Y024328D01*
X041773Y023959D02*
X041773Y023593D01*
X041873Y023493D01*
X041873Y019293D01*
X041573Y018993D01*
X041290Y019107D02*
X024973Y019107D01*
X024973Y019206D02*
X041354Y019206D01*
X041601Y019304D02*
X024973Y019304D01*
X024973Y019403D02*
X041673Y019403D01*
X041673Y019501D02*
X024973Y019501D01*
X024973Y019600D02*
X041673Y019600D01*
X041673Y019698D02*
X024973Y019698D01*
X024973Y019797D02*
X041673Y019797D01*
X041673Y019895D02*
X024973Y019895D01*
X024973Y019994D02*
X041399Y019994D01*
X041547Y019994D02*
X041673Y019994D01*
X041473Y020293D02*
X041273Y020493D01*
X041273Y023993D01*
X041000Y024131D02*
X039472Y024131D01*
X039454Y024046D02*
X039454Y024046D01*
X039444Y024032D02*
X040968Y024032D01*
X040782Y023934D02*
X039373Y023934D01*
X039301Y023835D02*
X040702Y023835D01*
X040668Y023737D02*
X039208Y023737D01*
X039245Y023758D02*
X039245Y023758D01*
X039245Y023758D01*
X039038Y023638D02*
X040668Y023638D01*
X040706Y023540D02*
X030239Y023540D01*
X030278Y023638D02*
X038290Y023638D01*
X038152Y023737D02*
X030278Y023737D01*
X030244Y023835D02*
X038043Y023835D01*
X037962Y023934D02*
X030164Y023934D01*
X030047Y024131D02*
X037874Y024131D01*
X037837Y024229D02*
X030123Y024229D01*
X029948Y024032D02*
X037918Y024032D01*
X037837Y024328D02*
X030429Y024328D01*
X030534Y024426D02*
X037837Y024426D01*
X037837Y024525D02*
X030575Y024525D01*
X030578Y024623D02*
X037860Y024623D01*
X037904Y024722D02*
X030550Y024722D01*
X030477Y024820D02*
X037948Y024820D01*
X038007Y024919D02*
X030230Y024919D01*
X030132Y025017D02*
X038116Y025017D01*
X038225Y025116D02*
X030033Y025116D01*
X030123Y025214D02*
X038493Y025214D01*
X038583Y025244D02*
X038583Y025244D01*
X038862Y025214D02*
X045223Y025214D01*
X045223Y025313D02*
X030123Y025313D01*
X030123Y025411D02*
X045223Y025411D01*
X045223Y025510D02*
X030123Y025510D01*
X030094Y025608D02*
X045251Y025608D01*
X045350Y025707D02*
X029996Y025707D01*
X029873Y024993D02*
X028073Y024993D01*
X027673Y025393D01*
X027173Y024893D02*
X026673Y025393D01*
X026350Y025707D02*
X025996Y025707D01*
X026094Y025608D02*
X026251Y025608D01*
X026223Y025510D02*
X026123Y025510D01*
X026123Y025411D02*
X026223Y025411D01*
X026223Y025313D02*
X026123Y025313D01*
X026123Y025214D02*
X026223Y025214D01*
X026314Y025116D02*
X026032Y025116D01*
X025933Y025017D02*
X026412Y025017D01*
X026463Y024820D02*
X025882Y024820D01*
X025981Y024722D02*
X026365Y024722D01*
X026266Y024623D02*
X026079Y024623D01*
X026123Y024525D02*
X026223Y024525D01*
X026223Y024426D02*
X026123Y024426D01*
X026123Y024328D02*
X026223Y024328D01*
X026223Y024229D02*
X026123Y024229D01*
X026128Y024131D02*
X026047Y024131D01*
X026173Y023893D02*
X026673Y024393D01*
X027173Y023893D02*
X027673Y024393D01*
X028123Y024426D02*
X028623Y024426D01*
X028623Y024328D02*
X028723Y024328D01*
X028723Y024229D02*
X028623Y024229D01*
X028623Y024131D02*
X028723Y024131D01*
X028723Y024032D02*
X028623Y024032D01*
X028468Y024032D02*
X027948Y024032D01*
X028047Y024131D02*
X028370Y024131D01*
X028273Y024229D02*
X028123Y024229D01*
X028123Y024328D02*
X028273Y024328D01*
X028273Y024525D02*
X028123Y024525D01*
X027973Y024793D02*
X029073Y024793D01*
X029173Y024693D01*
X029173Y023993D01*
X029473Y023693D01*
X029973Y023693D01*
X030152Y023441D02*
X040773Y023441D01*
X040773Y023343D02*
X025273Y023343D01*
X025273Y023244D02*
X040773Y023244D01*
X040773Y023146D02*
X025273Y023146D01*
X025210Y023047D02*
X040773Y023047D01*
X040773Y022949D02*
X025111Y022949D01*
X025013Y022850D02*
X040773Y022850D01*
X040773Y022752D02*
X024973Y022752D01*
X024973Y022653D02*
X040773Y022653D01*
X040773Y022555D02*
X024973Y022555D01*
X024973Y022456D02*
X040773Y022456D01*
X040773Y022358D02*
X024973Y022358D01*
X024973Y022259D02*
X040773Y022259D01*
X040773Y022161D02*
X024973Y022161D01*
X024973Y022062D02*
X040773Y022062D01*
X040773Y021964D02*
X024973Y021964D01*
X024973Y021865D02*
X040773Y021865D01*
X040773Y021767D02*
X024973Y021767D01*
X024973Y021668D02*
X040773Y021668D01*
X040773Y021570D02*
X024973Y021570D01*
X024973Y021471D02*
X040773Y021471D01*
X040773Y021373D02*
X024973Y021373D01*
X024973Y021274D02*
X040773Y021274D01*
X040773Y021176D02*
X024973Y021176D01*
X024973Y021077D02*
X040773Y021077D01*
X040773Y020979D02*
X024973Y020979D01*
X024973Y020880D02*
X040773Y020880D01*
X040730Y020782D02*
X024973Y020782D01*
X024973Y020683D02*
X040680Y020683D01*
X040668Y020585D02*
X024973Y020585D01*
X024973Y020486D02*
X040687Y020486D01*
X040747Y020388D02*
X024973Y020388D01*
X024973Y020289D02*
X040910Y020289D01*
X041036Y020289D02*
X041168Y020289D01*
X041185Y020191D02*
X024973Y020191D01*
X024973Y020092D02*
X041242Y020092D01*
X040973Y020593D02*
X040973Y023693D01*
X041078Y024229D02*
X039493Y024229D01*
X039245Y025029D02*
X039245Y025029D01*
X039245Y025029D01*
X039094Y025116D02*
X044164Y025116D01*
X044373Y024893D02*
X045073Y024193D01*
X045073Y015793D01*
X045173Y015693D01*
X045448Y015561D02*
X046044Y015561D01*
X046043Y015660D02*
X045478Y015660D01*
X045476Y015758D02*
X046049Y015758D01*
X046090Y015857D02*
X045435Y015857D01*
X045337Y015955D02*
X046158Y015955D01*
X046284Y016054D02*
X045273Y016054D01*
X045273Y016152D02*
X046873Y016152D01*
X046873Y016054D02*
X046702Y016054D01*
X046827Y015955D02*
X046873Y015955D01*
X046873Y016251D02*
X045273Y016251D01*
X045273Y016349D02*
X046873Y016349D01*
X046873Y016448D02*
X046605Y016448D01*
X046543Y016448D02*
X046443Y016448D01*
X046443Y016435D02*
X046443Y016783D01*
X046095Y016783D01*
X046108Y016717D01*
X046138Y016644D01*
X046182Y016578D01*
X046238Y016523D01*
X046303Y016479D01*
X046376Y016449D01*
X046443Y016435D01*
X046380Y016448D02*
X045273Y016448D01*
X045273Y016546D02*
X046214Y016546D01*
X046138Y016645D02*
X045273Y016645D01*
X045273Y016743D02*
X046103Y016743D01*
X046095Y016883D02*
X046443Y016883D01*
X046443Y017231D01*
X046376Y017218D01*
X046303Y017188D01*
X046238Y017144D01*
X046182Y017088D01*
X046138Y017023D01*
X046108Y016950D01*
X046095Y016883D01*
X046106Y016940D02*
X045273Y016940D01*
X045273Y016842D02*
X046443Y016842D01*
X046443Y016940D02*
X046543Y016940D01*
X046543Y017039D02*
X046443Y017039D01*
X046443Y017137D02*
X046543Y017137D01*
X046754Y017137D02*
X046873Y017137D01*
X046873Y017039D02*
X046837Y017039D01*
X046873Y017236D02*
X045273Y017236D01*
X045273Y017334D02*
X046873Y017334D01*
X046873Y017433D02*
X045273Y017433D01*
X045273Y017531D02*
X046873Y017531D01*
X046873Y017630D02*
X045842Y017630D01*
X046004Y017728D02*
X046873Y017728D01*
X046873Y017827D02*
X046079Y017827D01*
X046119Y017925D02*
X046873Y017925D01*
X046873Y018024D02*
X046123Y018024D01*
X046111Y018122D02*
X046873Y018122D01*
X046873Y018221D02*
X046070Y018221D01*
X045982Y018319D02*
X046873Y018319D01*
X046873Y018418D02*
X045762Y018418D01*
X045912Y018516D02*
X046873Y018516D01*
X046873Y018615D02*
X045982Y018615D01*
X046023Y018713D02*
X046873Y018713D01*
X046873Y018812D02*
X046023Y018812D01*
X046007Y018910D02*
X046873Y018910D01*
X046873Y019009D02*
X045967Y019009D01*
X045874Y019107D02*
X046873Y019107D01*
X046873Y019206D02*
X045273Y019206D01*
X045273Y019304D02*
X046873Y019304D01*
X046873Y019403D02*
X045273Y019403D01*
X045273Y019501D02*
X046873Y019501D01*
X046873Y019600D02*
X046656Y019600D01*
X046648Y019592D02*
X046774Y019718D01*
X046843Y019884D01*
X046843Y020063D01*
X046774Y020228D01*
X046648Y020355D01*
X046482Y020423D01*
X046303Y020423D01*
X046138Y020355D01*
X046011Y020228D01*
X045943Y020063D01*
X045943Y019884D01*
X046011Y019718D01*
X046138Y019592D01*
X046303Y019523D01*
X046482Y019523D01*
X046648Y019592D01*
X046754Y019698D02*
X046873Y019698D01*
X046873Y019797D02*
X046807Y019797D01*
X046843Y019895D02*
X046873Y019895D01*
X046873Y019994D02*
X046843Y019994D01*
X046831Y020092D02*
X046873Y020092D01*
X046873Y020191D02*
X046790Y020191D01*
X046713Y020289D02*
X046873Y020289D01*
X046873Y020388D02*
X046568Y020388D01*
X046873Y020486D02*
X045273Y020486D01*
X045273Y020388D02*
X046218Y020388D01*
X046072Y020289D02*
X045273Y020289D01*
X045273Y020191D02*
X045996Y020191D01*
X045955Y020092D02*
X045273Y020092D01*
X045273Y019994D02*
X045943Y019994D01*
X045943Y019895D02*
X045273Y019895D01*
X045273Y019797D02*
X045979Y019797D01*
X046031Y019698D02*
X045273Y019698D01*
X045273Y019600D02*
X046130Y019600D01*
X045371Y019107D02*
X045273Y019107D01*
X045273Y019009D02*
X045279Y019009D01*
X045273Y018516D02*
X045334Y018516D01*
X045273Y018418D02*
X045484Y018418D01*
X045463Y018319D02*
X045273Y018319D01*
X045273Y018221D02*
X045376Y018221D01*
X045335Y018122D02*
X045273Y018122D01*
X045273Y018024D02*
X045323Y018024D01*
X045326Y017925D02*
X045273Y017925D01*
X045273Y017827D02*
X045367Y017827D01*
X045442Y017728D02*
X045273Y017728D01*
X045273Y017630D02*
X045603Y017630D01*
X045273Y017137D02*
X046231Y017137D01*
X046149Y017039D02*
X045273Y017039D01*
X044673Y017433D02*
X043273Y017433D01*
X043273Y017531D02*
X044673Y017531D01*
X044673Y017630D02*
X044591Y017630D01*
X044255Y017630D02*
X043273Y017630D01*
X043273Y017728D02*
X044122Y017728D01*
X044059Y017827D02*
X043273Y017827D01*
X043273Y017925D02*
X044023Y017925D01*
X044023Y018024D02*
X043273Y018024D01*
X043273Y018122D02*
X044043Y018122D01*
X044085Y018221D02*
X043273Y018221D01*
X043273Y018319D02*
X044183Y018319D01*
X044236Y018418D02*
X043273Y018418D01*
X043273Y018516D02*
X044114Y018516D01*
X044056Y018615D02*
X043273Y018615D01*
X043273Y018713D02*
X044023Y018713D01*
X044023Y018812D02*
X043273Y018812D01*
X043273Y018910D02*
X044047Y018910D01*
X044093Y019009D02*
X043273Y019009D01*
X043273Y019107D02*
X044191Y019107D01*
X044654Y019107D02*
X044673Y019107D01*
X044673Y019206D02*
X043273Y019206D01*
X043273Y019304D02*
X044673Y019304D01*
X044673Y019403D02*
X043273Y019403D01*
X043273Y019501D02*
X044673Y019501D01*
X044673Y019600D02*
X043844Y019600D01*
X043703Y019600D02*
X043603Y019600D01*
X043603Y019698D02*
X043703Y019698D01*
X043703Y019797D02*
X043603Y019797D01*
X043603Y019895D02*
X043703Y019895D01*
X043964Y019698D02*
X044673Y019698D01*
X044673Y019797D02*
X044021Y019797D01*
X044049Y019895D02*
X044673Y019895D01*
X043462Y019600D02*
X043273Y019600D01*
X043273Y019698D02*
X043342Y019698D01*
X043285Y019797D02*
X043273Y019797D01*
X042873Y019993D02*
X042773Y020093D01*
X042873Y019993D02*
X042873Y017393D01*
X042773Y017293D01*
X040773Y016893D02*
X040573Y016693D01*
X040273Y016193D02*
X040273Y017693D01*
X040373Y017793D01*
X040331Y018266D02*
X040246Y018352D01*
X040078Y018418D02*
X041741Y018418D01*
X041618Y018516D02*
X040052Y018516D01*
X039983Y018615D02*
X041575Y018615D01*
X041873Y018693D02*
X042073Y018893D01*
X042073Y022593D01*
X042373Y022893D01*
X042373Y023593D01*
X042373Y023959D01*
X043878Y023638D02*
X044050Y023638D01*
X044023Y023540D02*
X043878Y023540D01*
X043840Y023441D02*
X044023Y023441D01*
X044052Y023343D02*
X043754Y023343D01*
X043607Y023244D02*
X044106Y023244D01*
X044216Y023146D02*
X043508Y023146D01*
X043410Y023047D02*
X044673Y023047D01*
X044673Y022949D02*
X043311Y022949D01*
X043347Y022850D02*
X044673Y022850D01*
X044673Y022752D02*
X043770Y022752D01*
X043949Y022653D02*
X044673Y022653D01*
X044673Y022555D02*
X044040Y022555D01*
X044081Y022456D02*
X044673Y022456D01*
X044122Y022161D02*
X044077Y022161D01*
X044273Y021893D02*
X043373Y021893D01*
X043173Y022093D01*
X043173Y022593D01*
X043437Y022752D02*
X043536Y022752D01*
X044629Y023146D02*
X044673Y023146D01*
X044101Y023737D02*
X043920Y023737D01*
X043920Y023835D02*
X044203Y023835D01*
X045273Y023835D02*
X045379Y023835D01*
X045282Y023737D02*
X045273Y023737D01*
X046948Y024032D02*
X047397Y024032D01*
X047299Y024131D02*
X047047Y024131D01*
X047123Y024229D02*
X047223Y024229D01*
X047223Y024328D02*
X047123Y024328D01*
X047123Y024426D02*
X047223Y024426D01*
X047223Y024525D02*
X047123Y024525D01*
X046873Y024993D02*
X049273Y024993D01*
X049673Y025393D01*
X049996Y025707D02*
X050350Y025707D01*
X050251Y025608D02*
X050094Y025608D01*
X050123Y025510D02*
X050223Y025510D01*
X050223Y025411D02*
X050123Y025411D01*
X050123Y025313D02*
X050223Y025313D01*
X050223Y025214D02*
X050123Y025214D01*
X050032Y025116D02*
X050314Y025116D01*
X050412Y025017D02*
X049933Y025017D01*
X049882Y024820D02*
X050463Y024820D01*
X050365Y024722D02*
X049981Y024722D01*
X050079Y024623D02*
X050266Y024623D01*
X050223Y024525D02*
X050123Y024525D01*
X050123Y024426D02*
X050223Y024426D01*
X050223Y024328D02*
X050123Y024328D01*
X050123Y024229D02*
X050223Y024229D01*
X050299Y024131D02*
X050047Y024131D01*
X049948Y024032D02*
X050397Y024032D01*
X049673Y024393D02*
X049273Y024793D01*
X046273Y024793D01*
X045673Y025393D01*
X045314Y025116D02*
X044582Y025116D01*
X044652Y025017D02*
X045412Y025017D01*
X046673Y025193D02*
X046673Y025393D01*
X046673Y025193D02*
X046873Y024993D01*
X048123Y024525D02*
X048223Y024525D01*
X048223Y024426D02*
X048123Y024426D01*
X048123Y024328D02*
X048223Y024328D01*
X048223Y024229D02*
X048123Y024229D01*
X048047Y024131D02*
X048299Y024131D01*
X048397Y024032D02*
X047948Y024032D01*
X047356Y023441D02*
X051473Y023441D01*
X051473Y023343D02*
X047441Y023343D01*
X047478Y023244D02*
X051473Y023244D01*
X051473Y023146D02*
X047478Y023146D01*
X047443Y023047D02*
X051473Y023047D01*
X051473Y022949D02*
X047360Y022949D01*
X047273Y022850D02*
X051473Y022850D01*
X051473Y022752D02*
X047273Y022752D01*
X047273Y022653D02*
X051473Y022653D01*
X051473Y022555D02*
X047273Y022555D01*
X047273Y022456D02*
X051473Y022456D01*
X051314Y022358D02*
X047273Y022358D01*
X047273Y022259D02*
X051211Y022259D01*
X051171Y022161D02*
X047273Y022161D01*
X047273Y022062D02*
X051168Y022062D01*
X051196Y021964D02*
X047273Y021964D01*
X046873Y021964D02*
X046546Y021964D01*
X046688Y022062D02*
X046873Y022062D01*
X046873Y022161D02*
X046754Y022161D01*
X046786Y022259D02*
X046873Y022259D01*
X046873Y022358D02*
X046443Y022358D01*
X046443Y022456D02*
X046343Y022456D01*
X046343Y022555D02*
X046443Y022555D01*
X046443Y022653D02*
X046343Y022653D01*
X046634Y022653D02*
X046873Y022653D01*
X046873Y022555D02*
X046726Y022555D01*
X046775Y022456D02*
X046873Y022456D01*
X046873Y021865D02*
X045273Y021865D01*
X045273Y021767D02*
X046873Y021767D01*
X046873Y021668D02*
X045273Y021668D01*
X045273Y021570D02*
X046223Y021570D01*
X046303Y021603D02*
X046138Y021535D01*
X046011Y021408D01*
X045943Y021243D01*
X045943Y021064D01*
X046011Y020898D01*
X046138Y020772D01*
X046303Y020703D01*
X046482Y020703D01*
X046648Y020772D01*
X046774Y020898D01*
X046843Y021064D01*
X046843Y021243D01*
X046774Y021408D01*
X046648Y021535D01*
X046482Y021603D01*
X046303Y021603D01*
X046563Y021570D02*
X046873Y021570D01*
X046873Y021471D02*
X046711Y021471D01*
X046789Y021373D02*
X046873Y021373D01*
X046873Y021274D02*
X046830Y021274D01*
X046843Y021176D02*
X046873Y021176D01*
X046873Y021077D02*
X046843Y021077D01*
X046873Y020979D02*
X046808Y020979D01*
X046756Y020880D02*
X046873Y020880D01*
X046873Y020782D02*
X046658Y020782D01*
X046873Y020683D02*
X045273Y020683D01*
X045273Y020585D02*
X046873Y020585D01*
X046128Y020782D02*
X045273Y020782D01*
X045273Y020880D02*
X046029Y020880D01*
X045978Y020979D02*
X045273Y020979D01*
X045273Y021077D02*
X045943Y021077D01*
X045943Y021176D02*
X045273Y021176D01*
X045273Y021274D02*
X045956Y021274D01*
X045997Y021373D02*
X045273Y021373D01*
X045273Y021471D02*
X046074Y021471D01*
X047073Y023093D02*
X047173Y023193D01*
X047073Y023093D02*
X047073Y014093D01*
X046973Y013993D01*
X046687Y013887D02*
X040311Y013887D01*
X040273Y013985D02*
X046668Y013985D01*
X046746Y013788D02*
X040364Y013788D01*
X040361Y013591D02*
X044175Y013591D01*
X044196Y013612D02*
X044084Y013500D01*
X044023Y013353D01*
X044023Y013194D01*
X044084Y013047D01*
X044196Y012934D01*
X044343Y012873D01*
X044502Y012873D01*
X044649Y012934D01*
X044762Y013047D01*
X044823Y013194D01*
X044823Y013353D01*
X044762Y013500D01*
X044649Y013612D01*
X044502Y013673D01*
X044343Y013673D01*
X044196Y013612D01*
X044081Y013493D02*
X040304Y013493D01*
X040148Y013394D02*
X044040Y013394D01*
X044023Y013296D02*
X039673Y013296D01*
X039673Y013394D02*
X039998Y013394D01*
X039842Y013493D02*
X039673Y013493D01*
X039673Y013591D02*
X039785Y013591D01*
X039768Y013690D02*
X039673Y013690D01*
X039673Y013788D02*
X039782Y013788D01*
X039835Y013887D02*
X039673Y013887D01*
X039673Y013985D02*
X039873Y013985D01*
X039873Y014084D02*
X039673Y014084D01*
X039673Y014182D02*
X039873Y014182D01*
X039873Y014281D02*
X039673Y014281D01*
X039673Y014379D02*
X039873Y014379D01*
X039873Y014478D02*
X039673Y014478D01*
X039687Y014576D02*
X039873Y014576D01*
X039873Y014675D02*
X039754Y014675D01*
X039778Y014773D02*
X039810Y014773D01*
X039473Y014793D02*
X039473Y008793D01*
X039673Y008593D01*
X039882Y008371D02*
X045223Y008371D01*
X045223Y008469D02*
X039952Y008469D01*
X039978Y008568D02*
X045223Y008568D01*
X045223Y008580D02*
X045223Y008207D01*
X045486Y007943D01*
X045859Y007943D01*
X046123Y008207D01*
X046123Y008580D01*
X045859Y008843D01*
X045486Y008843D01*
X045223Y008580D01*
X045309Y008666D02*
X039973Y008666D01*
X039932Y008765D02*
X045408Y008765D01*
X045223Y008272D02*
X036466Y008272D01*
X036462Y008268D02*
X036550Y008356D01*
X036550Y009031D01*
X036462Y009119D01*
X035865Y009119D01*
X035789Y009043D01*
X035654Y009099D01*
X035492Y009099D01*
X035356Y009043D01*
X035281Y009119D01*
X034684Y009119D01*
X034596Y009031D01*
X034596Y008390D01*
X034085Y008390D01*
X034046Y008352D01*
X033934Y008398D01*
X033812Y008398D01*
X033700Y008352D01*
X033614Y008266D01*
X033568Y008154D01*
X033568Y008033D01*
X033609Y007932D01*
X033572Y007960D01*
X033505Y007994D01*
X033434Y008017D01*
X033373Y008026D01*
X033373Y007603D01*
X033796Y007603D01*
X033786Y007665D01*
X033763Y007736D01*
X033729Y007802D01*
X033708Y007832D01*
X033812Y007788D01*
X033934Y007788D01*
X033997Y007814D01*
X033997Y007784D01*
X034085Y007696D01*
X034642Y007696D01*
X034698Y007752D01*
X034754Y007696D01*
X035311Y007696D01*
X035399Y007784D01*
X035399Y008302D01*
X035359Y008343D01*
X035492Y008287D01*
X035654Y008287D01*
X035789Y008344D01*
X035790Y008342D01*
X035714Y008266D01*
X035668Y008154D01*
X035668Y008033D01*
X035714Y007921D01*
X035800Y007835D01*
X035912Y007788D01*
X036034Y007788D01*
X036146Y007835D01*
X036231Y007921D01*
X036278Y008033D01*
X036278Y008115D01*
X036363Y008201D01*
X036363Y008268D01*
X036462Y008268D01*
X036550Y008371D02*
X039464Y008371D01*
X039394Y008469D02*
X036550Y008469D01*
X036550Y008568D02*
X039368Y008568D01*
X039317Y008666D02*
X036550Y008666D01*
X036550Y008765D02*
X039273Y008765D01*
X039273Y008863D02*
X036550Y008863D01*
X036550Y008962D02*
X039273Y008962D01*
X039273Y009060D02*
X036520Y009060D01*
X036163Y008693D02*
X036163Y008284D01*
X035973Y008093D01*
X036189Y007878D02*
X054998Y007878D01*
X054998Y007780D02*
X054852Y007780D01*
X054723Y007780D02*
X054623Y007780D01*
X054623Y007681D02*
X054723Y007681D01*
X054723Y007583D02*
X054623Y007583D01*
X054623Y007484D02*
X054723Y007484D01*
X054623Y007386D02*
X054123Y007386D01*
X054123Y007484D02*
X054273Y007484D01*
X054297Y007583D02*
X054120Y007583D01*
X054021Y007681D02*
X054395Y007681D01*
X054494Y007780D02*
X053923Y007780D01*
X053859Y007943D02*
X054123Y008207D01*
X054123Y008580D01*
X053859Y008843D01*
X053486Y008843D01*
X053223Y008580D01*
X053223Y008207D01*
X053486Y007943D01*
X053859Y007943D01*
X053893Y007977D02*
X054453Y007977D01*
X054354Y008075D02*
X053991Y008075D01*
X054090Y008174D02*
X054256Y008174D01*
X054223Y008272D02*
X054123Y008272D01*
X054123Y008371D02*
X054223Y008371D01*
X054223Y008469D02*
X054123Y008469D01*
X054123Y008568D02*
X054223Y008568D01*
X054309Y008666D02*
X054036Y008666D01*
X053938Y008765D02*
X054408Y008765D01*
X054938Y008765D02*
X054998Y008765D01*
X054998Y008863D02*
X039818Y008863D01*
X039673Y008962D02*
X054998Y008962D01*
X054998Y009060D02*
X039673Y009060D01*
X039673Y009159D02*
X054998Y009159D01*
X054998Y009257D02*
X039673Y009257D01*
X039673Y009356D02*
X054998Y009356D01*
X054998Y009454D02*
X039673Y009454D01*
X039673Y009553D02*
X054998Y009553D01*
X054998Y009651D02*
X039673Y009651D01*
X039673Y009750D02*
X054998Y009750D01*
X054998Y009848D02*
X039673Y009848D01*
X039673Y009947D02*
X054998Y009947D01*
X054998Y010045D02*
X039673Y010045D01*
X039673Y010144D02*
X054998Y010144D01*
X054998Y010242D02*
X039673Y010242D01*
X039673Y010341D02*
X054998Y010341D01*
X054998Y010439D02*
X039673Y010439D01*
X039673Y010538D02*
X043955Y010538D01*
X043829Y010572D02*
X044121Y010493D01*
X044424Y010493D01*
X044717Y010572D01*
X044979Y010723D01*
X045193Y010937D01*
X045344Y011199D01*
X045423Y011492D01*
X045423Y011795D01*
X045344Y012087D01*
X045193Y012349D01*
X044979Y012564D01*
X044717Y012715D01*
X044424Y012793D01*
X044121Y012793D01*
X043829Y012715D01*
X043567Y012564D01*
X043353Y012349D01*
X043201Y012087D01*
X043123Y011795D01*
X043123Y011492D01*
X043201Y011199D01*
X043353Y010937D01*
X043567Y010723D01*
X043829Y010572D01*
X043717Y010636D02*
X039673Y010636D01*
X039673Y010735D02*
X043555Y010735D01*
X043456Y010833D02*
X039673Y010833D01*
X039673Y010932D02*
X043358Y010932D01*
X043299Y011030D02*
X039673Y011030D01*
X039673Y011129D02*
X043242Y011129D01*
X043194Y011227D02*
X039673Y011227D01*
X039673Y011326D02*
X043167Y011326D01*
X043141Y011424D02*
X039673Y011424D01*
X039673Y011523D02*
X043123Y011523D01*
X043123Y011621D02*
X039673Y011621D01*
X039673Y011720D02*
X043123Y011720D01*
X043129Y011818D02*
X039673Y011818D01*
X039673Y011917D02*
X043156Y011917D01*
X043182Y012015D02*
X039673Y012015D01*
X039673Y012114D02*
X043217Y012114D01*
X043273Y012212D02*
X039673Y012212D01*
X039673Y012311D02*
X043330Y012311D01*
X043413Y012409D02*
X039673Y012409D01*
X039673Y012508D02*
X043511Y012508D01*
X043641Y012606D02*
X039673Y012606D01*
X039673Y012705D02*
X043811Y012705D01*
X044130Y013000D02*
X039673Y013000D01*
X039673Y012902D02*
X044274Y012902D01*
X044062Y013099D02*
X039673Y013099D01*
X039673Y013197D02*
X044023Y013197D01*
X044571Y012902D02*
X045623Y012902D01*
X045450Y013000D02*
X044716Y013000D01*
X044784Y013099D02*
X045370Y013099D01*
X045330Y013197D02*
X044823Y013197D01*
X044823Y013296D02*
X045323Y013296D01*
X045332Y013394D02*
X044806Y013394D01*
X044765Y013493D02*
X045373Y013493D01*
X045455Y013591D02*
X044671Y013591D01*
X043964Y014198D02*
X043908Y014143D01*
X043842Y014099D01*
X043770Y014069D01*
X043703Y014055D01*
X043703Y014403D01*
X043603Y014403D01*
X043603Y014055D01*
X043536Y014069D01*
X043463Y014099D01*
X043398Y014143D01*
X043342Y014198D01*
X043298Y014264D01*
X043268Y014337D01*
X043255Y014403D01*
X043603Y014403D01*
X043603Y014503D01*
X043255Y014503D01*
X043268Y014570D01*
X043298Y014643D01*
X043342Y014708D01*
X043398Y014764D01*
X043463Y014808D01*
X043536Y014838D01*
X043603Y014851D01*
X043603Y014503D01*
X043703Y014503D01*
X044051Y014503D01*
X044037Y014570D01*
X044007Y014643D01*
X043964Y014708D01*
X043908Y014764D01*
X043842Y014808D01*
X043770Y014838D01*
X043703Y014851D01*
X043703Y014503D01*
X043703Y014403D01*
X044051Y014403D01*
X044037Y014337D01*
X044007Y014264D01*
X043964Y014198D01*
X043948Y014182D02*
X046147Y014182D01*
X046085Y014281D02*
X044014Y014281D01*
X044046Y014379D02*
X046045Y014379D01*
X046043Y014478D02*
X043703Y014478D01*
X043703Y014576D02*
X043603Y014576D01*
X043603Y014478D02*
X040273Y014478D01*
X040273Y014576D02*
X043271Y014576D01*
X043320Y014675D02*
X040273Y014675D01*
X040273Y014773D02*
X043412Y014773D01*
X043603Y014773D02*
X043703Y014773D01*
X043703Y014675D02*
X043603Y014675D01*
X043603Y014379D02*
X043703Y014379D01*
X043703Y014281D02*
X043603Y014281D01*
X043603Y014182D02*
X043703Y014182D01*
X043703Y014084D02*
X043603Y014084D01*
X043500Y014084D02*
X040273Y014084D01*
X040273Y014182D02*
X043358Y014182D01*
X043291Y014281D02*
X040273Y014281D01*
X040273Y014379D02*
X043260Y014379D01*
X043806Y014084D02*
X046257Y014084D01*
X046048Y014576D02*
X044035Y014576D01*
X043986Y014675D02*
X046089Y014675D01*
X046156Y014773D02*
X043894Y014773D01*
X043922Y015266D02*
X046252Y015266D01*
X046145Y015364D02*
X044020Y015364D01*
X044069Y015463D02*
X044972Y015463D01*
X044897Y015561D02*
X044103Y015561D01*
X044103Y015660D02*
X044868Y015660D01*
X044870Y015758D02*
X044088Y015758D01*
X044047Y015857D02*
X044578Y015857D01*
X045374Y015463D02*
X046085Y015463D01*
X046733Y015266D02*
X046873Y015266D01*
X046873Y015364D02*
X046840Y015364D01*
X046873Y015167D02*
X039982Y015167D01*
X040080Y015069D02*
X046873Y015069D01*
X046873Y014970D02*
X040179Y014970D01*
X040273Y014872D02*
X046279Y014872D01*
X046707Y014872D02*
X046873Y014872D01*
X046873Y014773D02*
X046829Y014773D01*
X047273Y015364D02*
X053623Y015364D01*
X053623Y015463D02*
X053723Y015463D01*
X053723Y015561D02*
X053623Y015561D01*
X053623Y015660D02*
X053723Y015660D01*
X053723Y015758D02*
X053623Y015758D01*
X053376Y015758D02*
X047273Y015758D01*
X047273Y015660D02*
X053286Y015660D01*
X053233Y015561D02*
X047273Y015561D01*
X047273Y015463D02*
X053208Y015463D01*
X053073Y015167D02*
X054273Y015167D01*
X054273Y015069D02*
X053073Y015069D01*
X053073Y014970D02*
X054273Y014970D01*
X054373Y014970D02*
X053878Y014970D01*
X053914Y014872D02*
X054373Y014872D01*
X054373Y014773D02*
X054044Y014773D01*
X054126Y014675D02*
X054373Y014675D01*
X054373Y014576D02*
X054166Y014576D01*
X054193Y014478D02*
X054373Y014478D01*
X054345Y014379D02*
X054193Y014379D01*
X054183Y014281D02*
X054246Y014281D01*
X054148Y014182D02*
X054142Y014182D01*
X054013Y015069D02*
X054373Y015069D01*
X054373Y015167D02*
X054085Y015167D01*
X054126Y015266D02*
X054373Y015266D01*
X054373Y015364D02*
X053723Y015364D01*
X054138Y015463D02*
X054373Y015463D01*
X054373Y015561D02*
X054112Y015561D01*
X054060Y015660D02*
X054373Y015660D01*
X054373Y015758D02*
X053970Y015758D01*
X051073Y013893D02*
X051073Y013393D01*
X052872Y012352D02*
X052872Y011834D01*
X052960Y011746D01*
X053038Y011746D01*
X053038Y011590D01*
X053014Y011566D01*
X052968Y011454D01*
X052968Y011333D01*
X053014Y011221D01*
X053100Y011135D01*
X053212Y011088D01*
X053334Y011088D01*
X053446Y011135D01*
X053531Y011221D01*
X053578Y011333D01*
X053578Y011454D01*
X053531Y011566D01*
X053446Y011652D01*
X053438Y011655D01*
X053438Y011746D01*
X053517Y011746D01*
X053605Y011834D01*
X053605Y011843D01*
X053606Y011840D01*
X053634Y011812D01*
X053671Y011796D01*
X053859Y011796D01*
X053859Y012045D01*
X053956Y012045D01*
X053956Y012142D01*
X053859Y012142D01*
X053859Y012390D01*
X053671Y012390D01*
X053634Y012375D01*
X053606Y012347D01*
X053605Y012343D01*
X053605Y012352D01*
X053517Y012440D01*
X052960Y012440D01*
X052872Y012352D01*
X052872Y012311D02*
X045215Y012311D01*
X045272Y012212D02*
X052872Y012212D01*
X052872Y012114D02*
X045329Y012114D01*
X045364Y012015D02*
X052872Y012015D01*
X052872Y011917D02*
X045390Y011917D01*
X045417Y011818D02*
X052888Y011818D01*
X053038Y011720D02*
X045423Y011720D01*
X045423Y011621D02*
X053038Y011621D01*
X052996Y011523D02*
X045423Y011523D01*
X045405Y011424D02*
X052968Y011424D01*
X052971Y011326D02*
X045378Y011326D01*
X045352Y011227D02*
X053011Y011227D01*
X053114Y011129D02*
X045304Y011129D01*
X045247Y011030D02*
X054998Y011030D01*
X054998Y010932D02*
X045188Y010932D01*
X045089Y010833D02*
X054998Y010833D01*
X054998Y010735D02*
X044991Y010735D01*
X044829Y010636D02*
X054998Y010636D01*
X054998Y010538D02*
X044590Y010538D01*
X045133Y012409D02*
X052929Y012409D01*
X053238Y012093D02*
X053238Y011428D01*
X053273Y011393D01*
X053549Y011523D02*
X054998Y011523D01*
X054998Y011621D02*
X053476Y011621D01*
X053438Y011720D02*
X054998Y011720D01*
X054998Y011818D02*
X054187Y011818D01*
X054181Y011812D02*
X054209Y011840D01*
X054224Y011877D01*
X054224Y012045D01*
X053956Y012045D01*
X053956Y011796D01*
X054144Y011796D01*
X054181Y011812D01*
X054224Y011917D02*
X054998Y011917D01*
X054998Y012015D02*
X054224Y012015D01*
X054224Y012142D02*
X054224Y012310D01*
X054209Y012347D01*
X054181Y012375D01*
X054144Y012390D01*
X053956Y012390D01*
X053956Y012142D01*
X054224Y012142D01*
X054224Y012212D02*
X054998Y012212D01*
X054998Y012114D02*
X053956Y012114D01*
X053956Y012212D02*
X053859Y012212D01*
X053859Y012311D02*
X053956Y012311D01*
X054224Y012311D02*
X054998Y012311D01*
X054998Y012409D02*
X053548Y012409D01*
X053859Y012015D02*
X053956Y012015D01*
X053956Y011917D02*
X053859Y011917D01*
X053859Y011818D02*
X053956Y011818D01*
X053628Y011818D02*
X053589Y011818D01*
X053578Y011424D02*
X054998Y011424D01*
X054998Y011326D02*
X053575Y011326D01*
X053534Y011227D02*
X054998Y011227D01*
X054998Y011129D02*
X053431Y011129D01*
X051373Y011393D02*
X051373Y011493D01*
X054998Y012508D02*
X045035Y012508D01*
X044905Y012606D02*
X054998Y012606D01*
X054998Y012705D02*
X044734Y012705D01*
X041973Y013193D02*
X041873Y013193D01*
X039673Y012803D02*
X054998Y012803D01*
X052859Y008843D02*
X052486Y008843D01*
X052223Y008580D01*
X052223Y008207D01*
X052486Y007943D01*
X052859Y007943D01*
X053123Y008207D01*
X053123Y008580D01*
X052859Y008843D01*
X052938Y008765D02*
X053408Y008765D01*
X053309Y008666D02*
X053036Y008666D01*
X053123Y008568D02*
X053223Y008568D01*
X053223Y008469D02*
X053123Y008469D01*
X053123Y008371D02*
X053223Y008371D01*
X053223Y008272D02*
X053123Y008272D01*
X053090Y008174D02*
X053256Y008174D01*
X053354Y008075D02*
X052991Y008075D01*
X052893Y007977D02*
X053453Y007977D01*
X053423Y007780D02*
X052923Y007780D01*
X053021Y007681D02*
X053324Y007681D01*
X053226Y007583D02*
X053120Y007583D01*
X053123Y007484D02*
X053223Y007484D01*
X053223Y007386D02*
X053123Y007386D01*
X053123Y007287D02*
X053223Y007287D01*
X053241Y007189D02*
X053105Y007189D01*
X053006Y007090D02*
X053339Y007090D01*
X054006Y007090D02*
X054410Y007090D01*
X054312Y007189D02*
X054105Y007189D01*
X054123Y007287D02*
X054273Y007287D01*
X054951Y007681D02*
X054998Y007681D01*
X054998Y007977D02*
X054893Y007977D01*
X054991Y008075D02*
X054998Y008075D01*
X052453Y007977D02*
X051893Y007977D01*
X051859Y007943D02*
X052123Y008207D01*
X052123Y008580D01*
X051859Y008843D01*
X051486Y008843D01*
X051223Y008580D01*
X051223Y008207D01*
X051486Y007943D01*
X051859Y007943D01*
X051923Y007780D02*
X052423Y007780D01*
X052324Y007681D02*
X052021Y007681D01*
X052120Y007583D02*
X052226Y007583D01*
X052223Y007484D02*
X052123Y007484D01*
X052123Y007386D02*
X052223Y007386D01*
X052223Y007287D02*
X052123Y007287D01*
X052105Y007189D02*
X052241Y007189D01*
X052339Y007090D02*
X052006Y007090D01*
X051339Y007090D02*
X051006Y007090D01*
X051105Y007189D02*
X051241Y007189D01*
X051223Y007287D02*
X051123Y007287D01*
X051123Y007386D02*
X051223Y007386D01*
X051223Y007484D02*
X051123Y007484D01*
X051120Y007583D02*
X051226Y007583D01*
X051324Y007681D02*
X051021Y007681D01*
X050923Y007780D02*
X051423Y007780D01*
X051453Y007977D02*
X050893Y007977D01*
X050859Y007943D02*
X051123Y008207D01*
X051123Y008580D01*
X050859Y008843D01*
X050486Y008843D01*
X050223Y008580D01*
X050223Y008207D01*
X050486Y007943D01*
X050859Y007943D01*
X050991Y008075D02*
X051354Y008075D01*
X051256Y008174D02*
X051090Y008174D01*
X051123Y008272D02*
X051223Y008272D01*
X051223Y008371D02*
X051123Y008371D01*
X051123Y008469D02*
X051223Y008469D01*
X051223Y008568D02*
X051123Y008568D01*
X051036Y008666D02*
X051309Y008666D01*
X051408Y008765D02*
X050938Y008765D01*
X050408Y008765D02*
X049938Y008765D01*
X049859Y008843D02*
X050123Y008580D01*
X050123Y008207D01*
X049859Y007943D01*
X049486Y007943D01*
X049223Y008207D01*
X049223Y008580D01*
X049486Y008843D01*
X049859Y008843D01*
X050036Y008666D02*
X050309Y008666D01*
X050223Y008568D02*
X050123Y008568D01*
X050123Y008469D02*
X050223Y008469D01*
X050223Y008371D02*
X050123Y008371D01*
X050123Y008272D02*
X050223Y008272D01*
X050256Y008174D02*
X050090Y008174D01*
X049991Y008075D02*
X050354Y008075D01*
X050453Y007977D02*
X049893Y007977D01*
X049923Y007780D02*
X050423Y007780D01*
X050324Y007681D02*
X050021Y007681D01*
X050120Y007583D02*
X050226Y007583D01*
X050223Y007484D02*
X050123Y007484D01*
X050123Y007386D02*
X050223Y007386D01*
X050223Y007287D02*
X050123Y007287D01*
X050105Y007189D02*
X050241Y007189D01*
X050339Y007090D02*
X050006Y007090D01*
X049339Y007090D02*
X049006Y007090D01*
X049105Y007189D02*
X049241Y007189D01*
X049223Y007287D02*
X049123Y007287D01*
X049123Y007386D02*
X049223Y007386D01*
X049223Y007484D02*
X049123Y007484D01*
X049120Y007583D02*
X049226Y007583D01*
X049324Y007681D02*
X049021Y007681D01*
X048923Y007780D02*
X049423Y007780D01*
X049453Y007977D02*
X048893Y007977D01*
X048859Y007943D02*
X049123Y008207D01*
X049123Y008580D01*
X048859Y008843D01*
X048486Y008843D01*
X048223Y008580D01*
X048223Y008207D01*
X048486Y007943D01*
X048859Y007943D01*
X048991Y008075D02*
X049354Y008075D01*
X049256Y008174D02*
X049090Y008174D01*
X049123Y008272D02*
X049223Y008272D01*
X049223Y008371D02*
X049123Y008371D01*
X049123Y008469D02*
X049223Y008469D01*
X049223Y008568D02*
X049123Y008568D01*
X049036Y008666D02*
X049309Y008666D01*
X049408Y008765D02*
X048938Y008765D01*
X048408Y008765D02*
X047938Y008765D01*
X047859Y008843D02*
X047486Y008843D01*
X047223Y008580D01*
X047223Y008207D01*
X047486Y007943D01*
X047859Y007943D01*
X048123Y008207D01*
X048123Y008580D01*
X047859Y008843D01*
X048036Y008666D02*
X048309Y008666D01*
X048223Y008568D02*
X048123Y008568D01*
X048123Y008469D02*
X048223Y008469D01*
X048223Y008371D02*
X048123Y008371D01*
X048123Y008272D02*
X048223Y008272D01*
X048256Y008174D02*
X048090Y008174D01*
X047991Y008075D02*
X048354Y008075D01*
X048453Y007977D02*
X047893Y007977D01*
X047923Y007780D02*
X048423Y007780D01*
X048324Y007681D02*
X048021Y007681D01*
X048120Y007583D02*
X048226Y007583D01*
X048223Y007484D02*
X048123Y007484D01*
X048123Y007386D02*
X048223Y007386D01*
X048223Y007287D02*
X048123Y007287D01*
X048105Y007189D02*
X048241Y007189D01*
X048339Y007090D02*
X048006Y007090D01*
X047339Y007090D02*
X047006Y007090D01*
X047105Y007189D02*
X047241Y007189D01*
X047223Y007287D02*
X047123Y007287D01*
X047123Y007386D02*
X047223Y007386D01*
X047223Y007484D02*
X047123Y007484D01*
X047120Y007583D02*
X047226Y007583D01*
X047324Y007681D02*
X047021Y007681D01*
X046923Y007780D02*
X047423Y007780D01*
X047453Y007977D02*
X046893Y007977D01*
X046859Y007943D02*
X047123Y008207D01*
X047123Y008580D01*
X046859Y008843D01*
X046486Y008843D01*
X046223Y008580D01*
X046223Y008207D01*
X046486Y007943D01*
X046859Y007943D01*
X046991Y008075D02*
X047354Y008075D01*
X047256Y008174D02*
X047090Y008174D01*
X047123Y008272D02*
X047223Y008272D01*
X047223Y008371D02*
X047123Y008371D01*
X047123Y008469D02*
X047223Y008469D01*
X047223Y008568D02*
X047123Y008568D01*
X047036Y008666D02*
X047309Y008666D01*
X047408Y008765D02*
X046938Y008765D01*
X046408Y008765D02*
X045938Y008765D01*
X046036Y008666D02*
X046309Y008666D01*
X046223Y008568D02*
X046123Y008568D01*
X046123Y008469D02*
X046223Y008469D01*
X046223Y008371D02*
X046123Y008371D01*
X046123Y008272D02*
X046223Y008272D01*
X046256Y008174D02*
X046090Y008174D01*
X045991Y008075D02*
X046354Y008075D01*
X046453Y007977D02*
X045893Y007977D01*
X045923Y007780D02*
X046423Y007780D01*
X046324Y007681D02*
X046021Y007681D01*
X046120Y007583D02*
X046226Y007583D01*
X046223Y007484D02*
X046123Y007484D01*
X046123Y007386D02*
X046223Y007386D01*
X046223Y007287D02*
X046123Y007287D01*
X046105Y007189D02*
X046241Y007189D01*
X046339Y007090D02*
X046006Y007090D01*
X045339Y007090D02*
X033435Y007090D01*
X033434Y007090D02*
X033505Y007113D01*
X033572Y007147D01*
X033632Y007191D01*
X033685Y007244D01*
X033729Y007304D01*
X033763Y007371D01*
X033786Y007442D01*
X033796Y007503D01*
X033373Y007503D01*
X033373Y007080D01*
X033434Y007090D01*
X033373Y007090D02*
X033273Y007090D01*
X033273Y007080D02*
X033273Y007503D01*
X033373Y007503D01*
X033373Y007603D01*
X033273Y007603D01*
X033273Y007503D01*
X032850Y007503D01*
X032860Y007442D01*
X032883Y007371D01*
X032917Y007304D01*
X032961Y007244D01*
X033013Y007191D01*
X033074Y007147D01*
X033140Y007113D01*
X033212Y007090D01*
X033273Y007080D01*
X033211Y007090D02*
X031017Y007090D01*
X031141Y007189D02*
X033016Y007189D01*
X032929Y007287D02*
X031221Y007287D01*
X031262Y007386D02*
X032878Y007386D01*
X032853Y007484D02*
X031288Y007484D01*
X031288Y007583D02*
X033273Y007583D01*
X033273Y007603D02*
X032850Y007603D01*
X032860Y007665D01*
X032883Y007736D01*
X032917Y007802D01*
X032961Y007863D01*
X033013Y007916D01*
X033074Y007960D01*
X033140Y007994D01*
X033212Y008017D01*
X033273Y008026D01*
X033273Y007603D01*
X033273Y007681D02*
X033373Y007681D01*
X033373Y007583D02*
X045226Y007583D01*
X045223Y007484D02*
X033793Y007484D01*
X033768Y007386D02*
X045223Y007386D01*
X045223Y007287D02*
X033717Y007287D01*
X033629Y007189D02*
X045241Y007189D01*
X045324Y007681D02*
X033781Y007681D01*
X033741Y007780D02*
X034001Y007780D01*
X033923Y008043D02*
X033873Y008093D01*
X033923Y008043D02*
X034363Y008043D01*
X034046Y008352D02*
X034046Y008352D01*
X034065Y008371D02*
X034000Y008371D01*
X033746Y008371D02*
X030123Y008371D01*
X030123Y008469D02*
X034596Y008469D01*
X034596Y008568D02*
X030123Y008568D01*
X030123Y008580D02*
X029859Y008843D01*
X029486Y008843D01*
X029223Y008580D01*
X029223Y008207D01*
X029486Y007943D01*
X029859Y007943D01*
X030123Y008207D01*
X030123Y008580D01*
X030036Y008666D02*
X034596Y008666D01*
X034596Y008765D02*
X029938Y008765D01*
X030123Y008272D02*
X033621Y008272D01*
X033576Y008174D02*
X030090Y008174D01*
X029991Y008075D02*
X030651Y008075D01*
X030874Y008075D02*
X033568Y008075D01*
X033591Y007977D02*
X033538Y007977D01*
X033373Y007977D02*
X033273Y007977D01*
X033273Y007878D02*
X033373Y007878D01*
X033373Y007780D02*
X033273Y007780D01*
X033108Y007977D02*
X031082Y007977D01*
X031180Y007878D02*
X032976Y007878D01*
X032905Y007780D02*
X031237Y007780D01*
X031278Y007681D02*
X032865Y007681D01*
X033273Y007484D02*
X033373Y007484D01*
X033373Y007386D02*
X033273Y007386D01*
X033273Y007287D02*
X033373Y007287D01*
X033373Y007189D02*
X033273Y007189D01*
X035032Y008043D02*
X035032Y008643D01*
X034982Y008693D01*
X034596Y008863D02*
X026486Y008863D01*
X026506Y008843D02*
X026273Y009076D01*
X026273Y010305D01*
X026346Y010335D01*
X026431Y010421D01*
X026478Y010533D01*
X026478Y010654D01*
X026431Y010766D01*
X026346Y010852D01*
X026234Y010898D01*
X026112Y010898D01*
X026000Y010852D01*
X025914Y010766D01*
X025868Y010654D01*
X025868Y010533D01*
X025873Y010521D01*
X025873Y008910D01*
X026223Y008560D01*
X026223Y008207D01*
X026486Y007943D01*
X026859Y007943D01*
X027123Y008207D01*
X027123Y008580D01*
X026859Y008843D01*
X026506Y008843D01*
X026387Y008962D02*
X034596Y008962D01*
X034625Y009060D02*
X026289Y009060D01*
X026273Y009159D02*
X039273Y009159D01*
X039273Y009257D02*
X026273Y009257D01*
X026273Y009356D02*
X039273Y009356D01*
X039273Y009454D02*
X026273Y009454D01*
X026273Y009553D02*
X039273Y009553D01*
X039273Y009651D02*
X026273Y009651D01*
X026273Y009750D02*
X039273Y009750D01*
X039273Y009848D02*
X026273Y009848D01*
X026273Y009947D02*
X039273Y009947D01*
X039273Y010045D02*
X026273Y010045D01*
X026273Y010144D02*
X039273Y010144D01*
X039273Y010242D02*
X026273Y010242D01*
X026352Y010341D02*
X039273Y010341D01*
X039273Y010439D02*
X026439Y010439D01*
X026478Y010538D02*
X039273Y010538D01*
X039273Y010636D02*
X026478Y010636D01*
X026444Y010735D02*
X039273Y010735D01*
X039273Y010833D02*
X026364Y010833D01*
X026173Y010593D02*
X026073Y010493D01*
X026073Y008993D01*
X026673Y008393D01*
X026991Y008075D02*
X027354Y008075D01*
X027256Y008174D02*
X027090Y008174D01*
X027123Y008272D02*
X027223Y008272D01*
X027223Y008207D02*
X027486Y007943D01*
X027859Y007943D01*
X028123Y008207D01*
X028123Y008580D01*
X027859Y008843D01*
X027486Y008843D01*
X027223Y008580D01*
X027223Y008207D01*
X027223Y008371D02*
X027123Y008371D01*
X027123Y008469D02*
X027223Y008469D01*
X027223Y008568D02*
X027123Y008568D01*
X027036Y008666D02*
X027309Y008666D01*
X027408Y008765D02*
X026938Y008765D01*
X026215Y008568D02*
X026123Y008568D01*
X026123Y008580D02*
X025859Y008843D01*
X025486Y008843D01*
X025223Y008580D01*
X025223Y008207D01*
X025486Y007943D01*
X025859Y007943D01*
X026123Y008207D01*
X026123Y008580D01*
X026117Y008666D02*
X026036Y008666D01*
X026018Y008765D02*
X025938Y008765D01*
X025920Y008863D02*
X016186Y008863D01*
X016284Y008765D02*
X020408Y008765D01*
X020486Y008843D02*
X020236Y008593D01*
X016456Y008593D01*
X015278Y009771D01*
X015278Y009854D01*
X015231Y009966D01*
X015146Y010052D01*
X015034Y010098D01*
X014912Y010098D01*
X014800Y010052D01*
X014714Y009966D01*
X014668Y009854D01*
X014668Y009733D01*
X014714Y009621D01*
X014800Y009535D01*
X014912Y009488D01*
X014995Y009488D01*
X016290Y008193D01*
X020236Y008193D01*
X020486Y007943D01*
X020859Y007943D01*
X021123Y008207D01*
X021123Y008580D01*
X020859Y008843D01*
X020486Y008843D01*
X020309Y008666D02*
X016383Y008666D01*
X016373Y008393D02*
X014973Y009793D01*
X014702Y009651D02*
X006348Y009651D01*
X006348Y009553D02*
X014782Y009553D01*
X014668Y009750D02*
X006348Y009750D01*
X006348Y009848D02*
X014668Y009848D01*
X014706Y009947D02*
X006348Y009947D01*
X006348Y010045D02*
X014794Y010045D01*
X015152Y010045D02*
X015262Y010045D01*
X015239Y009947D02*
X015289Y009947D01*
X015301Y009899D02*
X015453Y009637D01*
X015667Y009423D01*
X015929Y009272D01*
X016221Y009193D01*
X016524Y009193D01*
X016817Y009272D01*
X017079Y009423D01*
X017293Y009637D01*
X017444Y009899D01*
X017523Y010192D01*
X017523Y010495D01*
X017444Y010787D01*
X017293Y011049D01*
X017079Y011264D01*
X016817Y011415D01*
X016524Y011493D01*
X016221Y011493D01*
X015929Y011415D01*
X015667Y011264D01*
X015453Y011049D01*
X015301Y010787D01*
X015223Y010495D01*
X015223Y010192D01*
X015301Y009899D01*
X015278Y009848D02*
X015331Y009848D01*
X015299Y009750D02*
X015388Y009750D01*
X015398Y009651D02*
X015444Y009651D01*
X015496Y009553D02*
X015537Y009553D01*
X015595Y009454D02*
X015635Y009454D01*
X015693Y009356D02*
X015783Y009356D01*
X015792Y009257D02*
X015983Y009257D01*
X015890Y009159D02*
X025873Y009159D01*
X025873Y009257D02*
X016763Y009257D01*
X016962Y009356D02*
X025873Y009356D01*
X025873Y009454D02*
X017110Y009454D01*
X017209Y009553D02*
X025873Y009553D01*
X025873Y009651D02*
X017301Y009651D01*
X017358Y009750D02*
X025873Y009750D01*
X025873Y009848D02*
X017415Y009848D01*
X017457Y009947D02*
X025873Y009947D01*
X025873Y010045D02*
X017484Y010045D01*
X017510Y010144D02*
X025873Y010144D01*
X025873Y010242D02*
X017523Y010242D01*
X017523Y010341D02*
X025873Y010341D01*
X025873Y010439D02*
X017523Y010439D01*
X017511Y010538D02*
X025868Y010538D01*
X025868Y010636D02*
X017485Y010636D01*
X017458Y010735D02*
X025901Y010735D01*
X025982Y010833D02*
X017418Y010833D01*
X017361Y010932D02*
X021726Y010932D01*
X021726Y010922D02*
X021741Y010885D01*
X021769Y010857D01*
X021806Y010842D01*
X021974Y010842D01*
X021974Y011110D01*
X021726Y011110D01*
X021726Y010922D01*
X021726Y011030D02*
X017304Y011030D01*
X017214Y011129D02*
X021974Y011129D01*
X021974Y011110D02*
X021974Y011207D01*
X021726Y011207D01*
X021726Y011395D01*
X021741Y011432D01*
X021769Y011460D01*
X021773Y011461D01*
X021764Y011461D01*
X021676Y011549D01*
X021676Y011993D01*
X020056Y011993D01*
X019878Y011815D01*
X019878Y011733D01*
X019831Y011621D01*
X019746Y011535D01*
X019634Y011488D01*
X019512Y011488D01*
X019400Y011535D01*
X019373Y011562D01*
X019346Y011535D01*
X019234Y011488D01*
X019112Y011488D01*
X019000Y011535D01*
X018914Y011621D01*
X006348Y011621D01*
X006348Y011523D02*
X019029Y011523D01*
X018914Y011621D02*
X018868Y011733D01*
X018868Y011854D01*
X018914Y011966D01*
X018973Y012025D01*
X018973Y014910D01*
X018790Y015093D01*
X017204Y015093D01*
X017146Y015035D01*
X017034Y014988D01*
X016912Y014988D01*
X016800Y015035D01*
X016714Y015121D01*
X016668Y015233D01*
X016668Y015354D01*
X016714Y015466D01*
X016800Y015552D01*
X016912Y015598D01*
X017034Y015598D01*
X017146Y015552D01*
X017204Y015493D01*
X018956Y015493D01*
X019373Y015076D01*
X019373Y012025D01*
X019373Y012025D01*
X019400Y012052D01*
X019512Y012098D01*
X019595Y012098D01*
X019773Y012276D01*
X019890Y012393D01*
X023641Y012393D01*
X023700Y012452D01*
X023812Y012498D01*
X023934Y012498D01*
X024046Y012452D01*
X024131Y012366D01*
X024178Y012254D01*
X024178Y012133D01*
X024131Y012021D01*
X024046Y011935D01*
X023934Y011888D01*
X023812Y011888D01*
X023700Y011935D01*
X023641Y011993D01*
X022370Y011993D01*
X022370Y011974D01*
X022378Y011954D01*
X022378Y011833D01*
X022370Y011813D01*
X022370Y011549D01*
X022282Y011461D01*
X022273Y011461D01*
X022276Y011460D01*
X022304Y011432D01*
X022320Y011395D01*
X022320Y011207D01*
X022071Y011207D01*
X022071Y011110D01*
X022071Y010842D01*
X022240Y010842D01*
X022276Y010857D01*
X022304Y010885D01*
X022320Y010922D01*
X022320Y011110D01*
X022071Y011110D01*
X021974Y011110D01*
X021974Y011030D02*
X022071Y011030D01*
X022071Y010932D02*
X021974Y010932D01*
X022071Y011129D02*
X039273Y011129D01*
X039273Y011227D02*
X022320Y011227D01*
X022320Y011326D02*
X039273Y011326D01*
X039273Y011424D02*
X022308Y011424D01*
X022343Y011523D02*
X039273Y011523D01*
X039273Y011621D02*
X022370Y011621D01*
X022370Y011720D02*
X039273Y011720D01*
X039273Y011818D02*
X022372Y011818D01*
X022378Y011917D02*
X023743Y011917D01*
X024002Y011917D02*
X039273Y011917D01*
X039273Y012015D02*
X024126Y012015D01*
X024170Y012114D02*
X039273Y012114D01*
X039273Y012212D02*
X024178Y012212D01*
X024154Y012311D02*
X039273Y012311D01*
X039273Y012409D02*
X024088Y012409D01*
X023873Y012193D02*
X019973Y012193D01*
X019573Y011793D01*
X019717Y011523D02*
X021702Y011523D01*
X021676Y011621D02*
X019832Y011621D01*
X019873Y011720D02*
X021676Y011720D01*
X021676Y011818D02*
X019881Y011818D01*
X019979Y011917D02*
X021676Y011917D01*
X022007Y011828D02*
X022073Y011893D01*
X022023Y011828D02*
X022007Y011828D01*
X021738Y011424D02*
X016782Y011424D01*
X016971Y011326D02*
X021726Y011326D01*
X021726Y011227D02*
X017115Y011227D01*
X015964Y011424D02*
X006348Y011424D01*
X006348Y011326D02*
X015775Y011326D01*
X015631Y011227D02*
X006348Y011227D01*
X006348Y011129D02*
X015532Y011129D01*
X015442Y011030D02*
X006348Y011030D01*
X006348Y010932D02*
X015385Y010932D01*
X015328Y010833D02*
X006348Y010833D01*
X006348Y010735D02*
X015287Y010735D01*
X015261Y010636D02*
X006348Y010636D01*
X006348Y010538D02*
X015234Y010538D01*
X015223Y010439D02*
X006348Y010439D01*
X006348Y010341D02*
X015223Y010341D01*
X015223Y010242D02*
X006348Y010242D01*
X006348Y010144D02*
X015236Y010144D01*
X015029Y009454D02*
X006348Y009454D01*
X006348Y009356D02*
X015127Y009356D01*
X015226Y009257D02*
X006348Y009257D01*
X006348Y009159D02*
X015324Y009159D01*
X015423Y009060D02*
X013895Y009060D01*
X013909Y009047D02*
X013881Y009075D01*
X013844Y009090D01*
X013656Y009090D01*
X013656Y008842D01*
X013559Y008842D01*
X013559Y009090D01*
X013371Y009090D01*
X013334Y009075D01*
X013306Y009047D01*
X013305Y009043D01*
X013305Y009052D01*
X013217Y009140D01*
X012660Y009140D01*
X012572Y009052D01*
X012572Y009026D01*
X012546Y009052D01*
X012434Y009098D01*
X012312Y009098D01*
X012200Y009052D01*
X012114Y008966D01*
X012068Y008854D01*
X012068Y008733D01*
X012114Y008621D01*
X012200Y008535D01*
X012312Y008488D01*
X012434Y008488D01*
X012546Y008535D01*
X012572Y008561D01*
X012572Y008534D01*
X012660Y008446D01*
X013217Y008446D01*
X013305Y008534D01*
X013305Y008543D01*
X013306Y008540D01*
X013334Y008512D01*
X013371Y008496D01*
X013559Y008496D01*
X013559Y008745D01*
X013656Y008745D01*
X013656Y008842D01*
X013924Y008842D01*
X013924Y009010D01*
X013909Y009047D01*
X013924Y008962D02*
X015521Y008962D01*
X015620Y008863D02*
X013924Y008863D01*
X013924Y008745D02*
X013656Y008745D01*
X013656Y008496D01*
X013844Y008496D01*
X013881Y008512D01*
X013909Y008540D01*
X013924Y008577D01*
X013924Y008745D01*
X013924Y008666D02*
X015817Y008666D01*
X015915Y008568D02*
X013920Y008568D01*
X013656Y008568D02*
X013559Y008568D01*
X013559Y008666D02*
X013656Y008666D01*
X013656Y008765D02*
X015718Y008765D01*
X015989Y009060D02*
X025873Y009060D01*
X025873Y008962D02*
X016087Y008962D01*
X016014Y008469D02*
X013240Y008469D01*
X012938Y008793D02*
X012373Y008793D01*
X012167Y008568D02*
X006348Y008568D01*
X006348Y008666D02*
X012095Y008666D01*
X012068Y008765D02*
X006348Y008765D01*
X006348Y008863D02*
X012072Y008863D01*
X012113Y008962D02*
X006348Y008962D01*
X006348Y009060D02*
X012220Y009060D01*
X012525Y009060D02*
X012580Y009060D01*
X013297Y009060D02*
X013320Y009060D01*
X013559Y009060D02*
X013656Y009060D01*
X013656Y008962D02*
X013559Y008962D01*
X013559Y008863D02*
X013656Y008863D01*
X012637Y008469D02*
X009561Y008469D01*
X009595Y008371D02*
X016112Y008371D01*
X016211Y008272D02*
X009595Y008272D01*
X009595Y008075D02*
X020354Y008075D01*
X020256Y008174D02*
X009346Y008174D01*
X009249Y008174D02*
X008046Y008174D01*
X007949Y008174D02*
X006796Y008174D01*
X006699Y008174D02*
X006348Y008174D01*
X006348Y008272D02*
X006451Y008272D01*
X006451Y008371D02*
X006348Y008371D01*
X006348Y008469D02*
X006484Y008469D01*
X006699Y008469D02*
X006796Y008469D01*
X006796Y008371D02*
X006699Y008371D01*
X006699Y008272D02*
X006796Y008272D01*
X007045Y008272D02*
X007701Y008272D01*
X007701Y008371D02*
X007045Y008371D01*
X007011Y008469D02*
X007734Y008469D01*
X007949Y008469D02*
X008046Y008469D01*
X008046Y008371D02*
X007949Y008371D01*
X007949Y008272D02*
X008046Y008272D01*
X008295Y008272D02*
X009001Y008272D01*
X009001Y008371D02*
X008295Y008371D01*
X008261Y008469D02*
X009034Y008469D01*
X009249Y008469D02*
X009346Y008469D01*
X009346Y008371D02*
X009249Y008371D01*
X009249Y008272D02*
X009346Y008272D01*
X009595Y007977D02*
X020453Y007977D01*
X020423Y007780D02*
X009645Y007780D01*
X009645Y007681D02*
X020324Y007681D01*
X020226Y007583D02*
X009671Y007583D01*
X009813Y007484D02*
X020223Y007484D01*
X020223Y007386D02*
X009865Y007386D01*
X009878Y007287D02*
X020223Y007287D01*
X020241Y007189D02*
X009860Y007189D01*
X009801Y007090D02*
X020339Y007090D01*
X021006Y007090D02*
X021339Y007090D01*
X021241Y007189D02*
X021105Y007189D01*
X021123Y007287D02*
X021223Y007287D01*
X021223Y007386D02*
X021123Y007386D01*
X021123Y007484D02*
X021223Y007484D01*
X021226Y007583D02*
X021120Y007583D01*
X021021Y007681D02*
X021324Y007681D01*
X021423Y007780D02*
X020923Y007780D01*
X020893Y007977D02*
X021453Y007977D01*
X021486Y007943D02*
X021859Y007943D01*
X022123Y008207D01*
X022123Y008580D01*
X021859Y008843D01*
X021486Y008843D01*
X021223Y008580D01*
X021223Y008207D01*
X021486Y007943D01*
X021354Y008075D02*
X020991Y008075D01*
X021090Y008174D02*
X021256Y008174D01*
X021223Y008272D02*
X021123Y008272D01*
X021123Y008371D02*
X021223Y008371D01*
X021223Y008469D02*
X021123Y008469D01*
X021123Y008568D02*
X021223Y008568D01*
X021309Y008666D02*
X021036Y008666D01*
X020938Y008765D02*
X021408Y008765D01*
X021938Y008765D02*
X022408Y008765D01*
X022486Y008843D02*
X022223Y008580D01*
X022223Y008207D01*
X022486Y007943D01*
X022859Y007943D01*
X023123Y008207D01*
X023123Y008580D01*
X022859Y008843D01*
X022486Y008843D01*
X022309Y008666D02*
X022036Y008666D01*
X022123Y008568D02*
X022223Y008568D01*
X022223Y008469D02*
X022123Y008469D01*
X022123Y008371D02*
X022223Y008371D01*
X022223Y008272D02*
X022123Y008272D01*
X022090Y008174D02*
X022256Y008174D01*
X022354Y008075D02*
X021991Y008075D01*
X021893Y007977D02*
X022453Y007977D01*
X022423Y007780D02*
X021923Y007780D01*
X022021Y007681D02*
X022324Y007681D01*
X022226Y007583D02*
X022120Y007583D01*
X022123Y007484D02*
X022223Y007484D01*
X022223Y007386D02*
X022123Y007386D01*
X022123Y007287D02*
X022223Y007287D01*
X022241Y007189D02*
X022105Y007189D01*
X022006Y007090D02*
X022339Y007090D01*
X023006Y007090D02*
X023339Y007090D01*
X023241Y007189D02*
X023105Y007189D01*
X023123Y007287D02*
X023223Y007287D01*
X023223Y007386D02*
X023123Y007386D01*
X023123Y007484D02*
X023223Y007484D01*
X023226Y007583D02*
X023120Y007583D01*
X023021Y007681D02*
X023324Y007681D01*
X023423Y007780D02*
X022923Y007780D01*
X022893Y007977D02*
X023453Y007977D01*
X023486Y007943D02*
X023223Y008207D01*
X023223Y008580D01*
X023486Y008843D01*
X023859Y008843D01*
X024123Y008580D01*
X024123Y008207D01*
X023859Y007943D01*
X023486Y007943D01*
X023354Y008075D02*
X022991Y008075D01*
X023090Y008174D02*
X023256Y008174D01*
X023223Y008272D02*
X023123Y008272D01*
X023123Y008371D02*
X023223Y008371D01*
X023223Y008469D02*
X023123Y008469D01*
X023123Y008568D02*
X023223Y008568D01*
X023309Y008666D02*
X023036Y008666D01*
X022938Y008765D02*
X023408Y008765D01*
X023938Y008765D02*
X024408Y008765D01*
X024486Y008843D02*
X024223Y008580D01*
X024223Y008207D01*
X024486Y007943D01*
X024859Y007943D01*
X025123Y008207D01*
X025123Y008580D01*
X024859Y008843D01*
X024486Y008843D01*
X024309Y008666D02*
X024036Y008666D01*
X024123Y008568D02*
X024223Y008568D01*
X024223Y008469D02*
X024123Y008469D01*
X024123Y008371D02*
X024223Y008371D01*
X024223Y008272D02*
X024123Y008272D01*
X024090Y008174D02*
X024256Y008174D01*
X024354Y008075D02*
X023991Y008075D01*
X023893Y007977D02*
X024453Y007977D01*
X024423Y007780D02*
X023923Y007780D01*
X024021Y007681D02*
X024324Y007681D01*
X024226Y007583D02*
X024120Y007583D01*
X024123Y007484D02*
X024223Y007484D01*
X024223Y007386D02*
X024123Y007386D01*
X024123Y007287D02*
X024223Y007287D01*
X024241Y007189D02*
X024105Y007189D01*
X024006Y007090D02*
X024339Y007090D01*
X025006Y007090D02*
X025339Y007090D01*
X025241Y007189D02*
X025105Y007189D01*
X025123Y007287D02*
X025223Y007287D01*
X025223Y007386D02*
X025123Y007386D01*
X025123Y007484D02*
X025223Y007484D01*
X025226Y007583D02*
X025120Y007583D01*
X025021Y007681D02*
X025324Y007681D01*
X025423Y007780D02*
X024923Y007780D01*
X024893Y007977D02*
X025453Y007977D01*
X025354Y008075D02*
X024991Y008075D01*
X025090Y008174D02*
X025256Y008174D01*
X025223Y008272D02*
X025123Y008272D01*
X025123Y008371D02*
X025223Y008371D01*
X025223Y008469D02*
X025123Y008469D01*
X025123Y008568D02*
X025223Y008568D01*
X025309Y008666D02*
X025036Y008666D01*
X024938Y008765D02*
X025408Y008765D01*
X026123Y008469D02*
X026223Y008469D01*
X026223Y008371D02*
X026123Y008371D01*
X026123Y008272D02*
X026223Y008272D01*
X026256Y008174D02*
X026090Y008174D01*
X025991Y008075D02*
X026354Y008075D01*
X026453Y007977D02*
X025893Y007977D01*
X025923Y007780D02*
X026423Y007780D01*
X026324Y007681D02*
X026021Y007681D01*
X026120Y007583D02*
X026226Y007583D01*
X026223Y007484D02*
X026123Y007484D01*
X026123Y007386D02*
X026223Y007386D01*
X026223Y007287D02*
X026123Y007287D01*
X026105Y007189D02*
X026241Y007189D01*
X026339Y007090D02*
X026006Y007090D01*
X027006Y007090D02*
X027339Y007090D01*
X027241Y007189D02*
X027105Y007189D01*
X027123Y007287D02*
X027223Y007287D01*
X027223Y007386D02*
X027123Y007386D01*
X027123Y007484D02*
X027223Y007484D01*
X027226Y007583D02*
X027120Y007583D01*
X027021Y007681D02*
X027324Y007681D01*
X027423Y007780D02*
X026923Y007780D01*
X026893Y007977D02*
X027453Y007977D01*
X027893Y007977D02*
X028453Y007977D01*
X028486Y007943D02*
X028859Y007943D01*
X029123Y008207D01*
X029123Y008580D01*
X028859Y008843D01*
X028486Y008843D01*
X028223Y008580D01*
X028223Y008207D01*
X028486Y007943D01*
X028423Y007780D02*
X027923Y007780D01*
X028021Y007681D02*
X028324Y007681D01*
X028226Y007583D02*
X028120Y007583D01*
X028123Y007484D02*
X028223Y007484D01*
X028223Y007386D02*
X028123Y007386D01*
X028123Y007287D02*
X028223Y007287D01*
X028241Y007189D02*
X028105Y007189D01*
X028006Y007090D02*
X028339Y007090D01*
X029006Y007090D02*
X029410Y007090D01*
X029312Y007189D02*
X029105Y007189D01*
X029123Y007287D02*
X029273Y007287D01*
X029123Y007386D02*
X029623Y007386D01*
X029623Y007484D02*
X029723Y007484D01*
X029723Y007386D02*
X030264Y007386D01*
X030238Y007484D02*
X030073Y007484D01*
X030049Y007583D02*
X030238Y007583D01*
X030248Y007681D02*
X029951Y007681D01*
X029852Y007780D02*
X030288Y007780D01*
X030345Y007878D02*
X009553Y007878D01*
X009357Y007509D02*
X009298Y007509D01*
X009357Y007509D02*
X009573Y007293D01*
X009344Y007090D02*
X008501Y007090D01*
X008560Y007189D02*
X008992Y007189D01*
X008951Y007287D02*
X008578Y007287D01*
X008565Y007386D02*
X008951Y007386D01*
X008951Y007484D02*
X008513Y007484D01*
X008371Y007583D02*
X008951Y007583D01*
X008951Y007681D02*
X008345Y007681D01*
X008345Y007780D02*
X008951Y007780D01*
X009043Y007878D02*
X008253Y007878D01*
X008295Y007977D02*
X009001Y007977D01*
X009001Y008075D02*
X008295Y008075D01*
X007743Y007878D02*
X007003Y007878D01*
X007045Y007977D02*
X007701Y007977D01*
X007701Y008075D02*
X007045Y008075D01*
X007095Y007780D02*
X007651Y007780D01*
X007651Y007681D02*
X007095Y007681D01*
X007095Y007583D02*
X007651Y007583D01*
X007651Y007484D02*
X007213Y007484D01*
X007265Y007386D02*
X007651Y007386D01*
X007651Y007287D02*
X007278Y007287D01*
X007260Y007189D02*
X007692Y007189D01*
X008044Y007090D02*
X007201Y007090D01*
X006973Y007293D02*
X006857Y007509D01*
X006748Y007509D01*
X006401Y007484D02*
X006348Y007484D01*
X006348Y007386D02*
X006401Y007386D01*
X006401Y007287D02*
X006348Y007287D01*
X006348Y007189D02*
X006442Y007189D01*
X006348Y007090D02*
X006744Y007090D01*
X006401Y007583D02*
X006348Y007583D01*
X006348Y007681D02*
X006401Y007681D01*
X006401Y007780D02*
X006348Y007780D01*
X006348Y007878D02*
X006493Y007878D01*
X006451Y007977D02*
X006348Y007977D01*
X006348Y008075D02*
X006451Y008075D01*
X007998Y007509D02*
X008057Y007509D01*
X008273Y007293D01*
X016373Y008393D02*
X020673Y008393D01*
X024273Y010593D02*
X024973Y010593D01*
X022320Y010932D02*
X039273Y010932D01*
X039273Y011030D02*
X022320Y011030D01*
X019709Y012212D02*
X019373Y012212D01*
X019373Y012114D02*
X019611Y012114D01*
X019808Y012311D02*
X019373Y012311D01*
X019373Y012409D02*
X023658Y012409D01*
X023435Y012743D02*
X022661Y012743D01*
X022586Y012818D01*
X022568Y012818D01*
X022421Y012879D01*
X022309Y012992D01*
X022309Y012992D01*
X021846Y013454D01*
X021734Y013567D01*
X021673Y013714D01*
X021673Y018473D01*
X021734Y018620D01*
X021934Y018820D01*
X022046Y018932D01*
X022193Y018993D01*
X022352Y018993D01*
X022499Y018932D01*
X022612Y018820D01*
X022673Y018673D01*
X022673Y018514D01*
X022612Y018367D01*
X022499Y018254D01*
X022473Y018228D01*
X022473Y013959D01*
X022739Y013693D01*
X023435Y013693D01*
X023523Y013605D01*
X023523Y012831D01*
X023435Y012743D01*
X023495Y012803D02*
X039273Y012803D01*
X039273Y012705D02*
X019373Y012705D01*
X019373Y012803D02*
X022601Y012803D01*
X022399Y012902D02*
X019373Y012902D01*
X019373Y013000D02*
X022300Y013000D01*
X022202Y013099D02*
X019373Y013099D01*
X019373Y013197D02*
X022103Y013197D01*
X022005Y013296D02*
X019373Y013296D01*
X019373Y013394D02*
X021906Y013394D01*
X021808Y013493D02*
X019373Y013493D01*
X019373Y013591D02*
X021724Y013591D01*
X021683Y013690D02*
X019373Y013690D01*
X019373Y013788D02*
X021673Y013788D01*
X021673Y013887D02*
X019373Y013887D01*
X019373Y013985D02*
X021673Y013985D01*
X021673Y014084D02*
X019373Y014084D01*
X019373Y014182D02*
X021673Y014182D01*
X021673Y014281D02*
X019373Y014281D01*
X019373Y014379D02*
X021673Y014379D01*
X021673Y014478D02*
X019373Y014478D01*
X019373Y014576D02*
X021673Y014576D01*
X021673Y014675D02*
X019373Y014675D01*
X019373Y014773D02*
X021673Y014773D01*
X021673Y014872D02*
X019373Y014872D01*
X019373Y014970D02*
X021673Y014970D01*
X021673Y015069D02*
X019373Y015069D01*
X019282Y015167D02*
X021673Y015167D01*
X021673Y015266D02*
X019183Y015266D01*
X019085Y015364D02*
X021673Y015364D01*
X021673Y015463D02*
X018986Y015463D01*
X018873Y015293D02*
X016973Y015293D01*
X017180Y015069D02*
X018814Y015069D01*
X018913Y014970D02*
X006348Y014970D01*
X006348Y014872D02*
X018973Y014872D01*
X018973Y014773D02*
X013685Y014773D01*
X013717Y014765D02*
X013424Y014843D01*
X013121Y014843D01*
X012829Y014765D01*
X012567Y014614D01*
X012353Y014399D01*
X012201Y014137D01*
X012123Y013845D01*
X012123Y013542D01*
X012201Y013249D01*
X012353Y012987D01*
X012567Y012773D01*
X012829Y012622D01*
X013121Y012543D01*
X013424Y012543D01*
X013717Y012622D01*
X013979Y012773D01*
X014193Y012987D01*
X014344Y013249D01*
X014423Y013542D01*
X014423Y013845D01*
X014344Y014137D01*
X014193Y014399D01*
X013979Y014614D01*
X013717Y014765D01*
X013873Y014675D02*
X018973Y014675D01*
X018973Y014576D02*
X014016Y014576D01*
X014115Y014478D02*
X018973Y014478D01*
X018973Y014379D02*
X014205Y014379D01*
X014262Y014281D02*
X018973Y014281D01*
X018973Y014182D02*
X014318Y014182D01*
X014359Y014084D02*
X018973Y014084D01*
X018973Y013985D02*
X014385Y013985D01*
X014412Y013887D02*
X018973Y013887D01*
X018973Y013788D02*
X014423Y013788D01*
X014423Y013690D02*
X018973Y013690D01*
X018973Y013591D02*
X014423Y013591D01*
X014410Y013493D02*
X018973Y013493D01*
X018973Y013394D02*
X014383Y013394D01*
X014357Y013296D02*
X018973Y013296D01*
X018973Y013197D02*
X014314Y013197D01*
X014258Y013099D02*
X018973Y013099D01*
X018973Y013000D02*
X014201Y013000D01*
X014108Y012902D02*
X018973Y012902D01*
X018973Y012803D02*
X014009Y012803D01*
X013861Y012705D02*
X018973Y012705D01*
X018973Y012606D02*
X013659Y012606D01*
X012886Y012606D02*
X006348Y012606D01*
X006348Y012508D02*
X018973Y012508D01*
X018973Y012409D02*
X006348Y012409D01*
X006348Y012311D02*
X018973Y012311D01*
X018973Y012212D02*
X006348Y012212D01*
X006348Y012114D02*
X018973Y012114D01*
X018964Y012015D02*
X006348Y012015D01*
X006348Y011917D02*
X018894Y011917D01*
X018868Y011818D02*
X006348Y011818D01*
X006348Y011720D02*
X018873Y011720D01*
X019173Y011793D02*
X019173Y014993D01*
X018873Y015293D01*
X017331Y016152D02*
X021673Y016152D01*
X021673Y016054D02*
X017260Y016054D01*
X017293Y016087D02*
X017444Y016349D01*
X021673Y016349D01*
X021673Y016251D02*
X017388Y016251D01*
X017444Y016349D02*
X017523Y016642D01*
X017523Y016945D01*
X017444Y017237D01*
X017293Y017499D01*
X017079Y017714D01*
X016817Y017865D01*
X016524Y017943D01*
X016221Y017943D01*
X015929Y017865D01*
X015667Y017714D01*
X015453Y017499D01*
X015301Y017237D01*
X015223Y016945D01*
X015223Y016642D01*
X015301Y016349D01*
X006348Y016349D01*
X006348Y016251D02*
X015358Y016251D01*
X015301Y016349D02*
X015453Y016087D01*
X015667Y015873D01*
X015929Y015722D01*
X016221Y015643D01*
X016524Y015643D01*
X016817Y015722D01*
X017079Y015873D01*
X017293Y016087D01*
X017161Y015955D02*
X021673Y015955D01*
X021673Y015857D02*
X017051Y015857D01*
X016880Y015758D02*
X021673Y015758D01*
X021673Y015660D02*
X016586Y015660D01*
X016713Y015463D02*
X006348Y015463D01*
X006348Y015561D02*
X016823Y015561D01*
X016672Y015364D02*
X006348Y015364D01*
X006348Y015266D02*
X016668Y015266D01*
X016695Y015167D02*
X006348Y015167D01*
X006348Y015069D02*
X016766Y015069D01*
X017123Y015561D02*
X021673Y015561D01*
X022473Y015561D02*
X023423Y015561D01*
X023313Y015463D02*
X022473Y015463D01*
X022473Y015364D02*
X023272Y015364D01*
X023268Y015266D02*
X022473Y015266D01*
X022473Y015167D02*
X023295Y015167D01*
X023317Y015069D02*
X022473Y015069D01*
X022473Y014970D02*
X023275Y014970D01*
X023268Y014872D02*
X022473Y014872D01*
X022473Y014773D02*
X023292Y014773D01*
X023360Y014675D02*
X022473Y014675D01*
X022473Y014576D02*
X022818Y014576D01*
X022825Y014582D02*
X022771Y014542D01*
X022724Y014495D01*
X022684Y014441D01*
X022654Y014381D01*
X022633Y014318D01*
X022623Y014252D01*
X022623Y014237D01*
X023029Y014237D01*
X023029Y014199D01*
X023067Y014199D01*
X023067Y013793D01*
X023081Y013793D01*
X023147Y013804D01*
X023211Y013824D01*
X023271Y013855D01*
X023325Y013894D01*
X023372Y013941D01*
X023411Y013996D01*
X023442Y014055D01*
X023462Y014119D01*
X023473Y014185D01*
X023473Y014199D01*
X023067Y014199D01*
X023067Y014237D01*
X023473Y014237D01*
X023473Y014252D01*
X023462Y014318D01*
X023442Y014381D01*
X023411Y014441D01*
X023372Y014495D01*
X023325Y014542D01*
X023271Y014582D01*
X023211Y014612D01*
X023147Y014633D01*
X023081Y014643D01*
X023067Y014643D01*
X023067Y014237D01*
X023029Y014237D01*
X023029Y014643D01*
X023014Y014643D01*
X022948Y014633D01*
X022885Y014612D01*
X022825Y014582D01*
X022711Y014478D02*
X022473Y014478D01*
X022473Y014379D02*
X022653Y014379D01*
X022627Y014281D02*
X022473Y014281D01*
X022473Y014182D02*
X022623Y014182D01*
X022623Y014185D02*
X022633Y014119D01*
X022654Y014055D01*
X022684Y013996D01*
X022724Y013941D01*
X022771Y013894D01*
X022825Y013855D01*
X022885Y013824D01*
X022948Y013804D01*
X023014Y013793D01*
X023029Y013793D01*
X023029Y014199D01*
X022623Y014199D01*
X022623Y014185D01*
X022645Y014084D02*
X022473Y014084D01*
X022473Y013985D02*
X022692Y013985D01*
X022781Y013887D02*
X022545Y013887D01*
X022644Y013788D02*
X039273Y013788D01*
X039273Y013690D02*
X023438Y013690D01*
X023523Y013591D02*
X039273Y013591D01*
X039273Y013493D02*
X023523Y013493D01*
X023523Y013394D02*
X039273Y013394D01*
X039273Y013296D02*
X023523Y013296D01*
X023523Y013197D02*
X039273Y013197D01*
X039273Y013099D02*
X023523Y013099D01*
X023523Y013000D02*
X039273Y013000D01*
X039273Y012902D02*
X023523Y012902D01*
X023315Y013887D02*
X039273Y013887D01*
X039273Y013985D02*
X023404Y013985D01*
X023451Y014084D02*
X039273Y014084D01*
X039273Y014182D02*
X023472Y014182D01*
X023468Y014281D02*
X039273Y014281D01*
X039273Y014379D02*
X023442Y014379D01*
X023385Y014478D02*
X039273Y014478D01*
X039258Y014576D02*
X023278Y014576D01*
X023067Y014576D02*
X023029Y014576D01*
X023029Y014478D02*
X023067Y014478D01*
X023067Y014379D02*
X023029Y014379D01*
X023029Y014281D02*
X023067Y014281D01*
X023067Y014182D02*
X023029Y014182D01*
X023029Y014084D02*
X023067Y014084D01*
X023067Y013985D02*
X023029Y013985D01*
X023029Y013887D02*
X023067Y013887D01*
X023786Y014675D02*
X039192Y014675D01*
X039168Y014773D02*
X023853Y014773D01*
X023878Y014872D02*
X039175Y014872D01*
X038913Y014970D02*
X023933Y014970D01*
X023673Y015293D02*
X024373Y015993D01*
X024373Y021993D01*
X024473Y022093D01*
X023373Y022062D02*
X022078Y022062D01*
X022075Y022161D02*
X023373Y022161D01*
X023373Y022259D02*
X022034Y022259D01*
X021931Y022358D02*
X023373Y022358D01*
X023373Y022456D02*
X019798Y022456D01*
X019798Y022358D02*
X021614Y022358D01*
X021511Y022259D02*
X019781Y022259D01*
X019683Y021993D02*
X021673Y021993D01*
X021773Y022093D01*
X022049Y021964D02*
X023373Y021964D01*
X023373Y021865D02*
X022032Y021865D01*
X022073Y021767D02*
X023373Y021767D01*
X023373Y021668D02*
X022078Y021668D01*
X022052Y021570D02*
X023373Y021570D01*
X023373Y021471D02*
X021982Y021471D01*
X021773Y021293D02*
X021673Y021393D01*
X021563Y021471D02*
X020082Y021471D01*
X020152Y021570D02*
X021494Y021570D01*
X021673Y021793D02*
X021773Y021693D01*
X021673Y021793D02*
X019973Y021793D01*
X019873Y021693D01*
X019779Y021373D02*
X023373Y021373D01*
X023373Y021274D02*
X019798Y021274D01*
X019798Y021176D02*
X022267Y021176D01*
X022222Y021077D02*
X019781Y021077D01*
X019740Y020979D02*
X022222Y020979D01*
X022222Y020782D02*
X019574Y020782D01*
X019672Y020880D02*
X022490Y020880D01*
X022490Y020979D02*
X022587Y020979D01*
X022587Y021077D02*
X022490Y021077D01*
X022490Y021176D02*
X022587Y021176D01*
X022809Y021176D02*
X022864Y021176D01*
X023207Y020893D02*
X023373Y020893D01*
X023573Y021093D01*
X023573Y023093D01*
X024373Y023893D01*
X024100Y024032D02*
X023948Y024032D01*
X023859Y023943D02*
X024123Y024207D01*
X024123Y024580D01*
X023859Y024843D01*
X023486Y024843D01*
X023223Y024580D01*
X023223Y024207D01*
X023486Y023943D01*
X023859Y023943D01*
X024032Y023835D02*
X021298Y023835D01*
X021199Y023737D02*
X023934Y023737D01*
X023835Y023638D02*
X019745Y023638D01*
X019722Y023737D02*
X020146Y023737D01*
X020048Y023835D02*
X019677Y023835D01*
X019594Y023934D02*
X019949Y023934D01*
X019851Y024032D02*
X019428Y024032D01*
X019323Y024032D02*
X019223Y024032D01*
X019223Y023934D02*
X019323Y023934D01*
X019323Y023835D02*
X019223Y023835D01*
X019223Y023737D02*
X019323Y023737D01*
X019323Y023638D02*
X019223Y023638D01*
X019323Y023540D02*
X023737Y023540D01*
X023638Y023441D02*
X019726Y023441D01*
X019683Y023343D02*
X023540Y023343D01*
X023441Y023244D02*
X019606Y023244D01*
X019461Y023146D02*
X023373Y023146D01*
X023373Y023047D02*
X018873Y023047D01*
X018873Y022949D02*
X023373Y022949D01*
X023373Y022850D02*
X019565Y022850D01*
X019667Y022752D02*
X023373Y022752D01*
X023373Y022653D02*
X019738Y022653D01*
X019778Y022555D02*
X023373Y022555D01*
X023773Y022993D02*
X024273Y023493D01*
X024373Y023493D01*
X024673Y023393D02*
X024473Y023193D01*
X024273Y023193D01*
X023973Y022893D01*
X023973Y020393D01*
X023673Y020093D01*
X023473Y020093D01*
X023184Y019994D02*
X020043Y019994D01*
X020043Y019964D02*
X019982Y019817D01*
X019869Y019704D01*
X019722Y019643D01*
X019563Y019643D01*
X019416Y019704D01*
X019304Y019817D01*
X019243Y019964D01*
X019243Y020123D01*
X019304Y020270D01*
X019416Y020382D01*
X019563Y020443D01*
X019722Y020443D01*
X019869Y020382D01*
X019982Y020270D01*
X020043Y020123D01*
X020043Y019964D01*
X020015Y019895D02*
X023239Y019895D01*
X023392Y019797D02*
X019962Y019797D01*
X019855Y019698D02*
X023973Y019698D01*
X023973Y019600D02*
X015473Y019600D01*
X015473Y019698D02*
X019430Y019698D01*
X019324Y019797D02*
X015473Y019797D01*
X015473Y019895D02*
X019271Y019895D01*
X019243Y019994D02*
X015473Y019994D01*
X015473Y020092D02*
X019243Y020092D01*
X019271Y020191D02*
X015473Y020191D01*
X015473Y020289D02*
X019323Y020289D01*
X019429Y020388D02*
X015473Y020388D01*
X015473Y020486D02*
X021922Y020486D01*
X021922Y020585D02*
X015473Y020585D01*
X015473Y020683D02*
X021985Y020683D01*
X022190Y020683D02*
X022222Y020683D01*
X022190Y020585D02*
X022287Y020585D01*
X022287Y020486D02*
X022190Y020486D01*
X022190Y020388D02*
X019856Y020388D01*
X019962Y020289D02*
X021922Y020289D01*
X021922Y020191D02*
X020015Y020191D01*
X020043Y020092D02*
X022583Y020092D01*
X022287Y020191D02*
X022190Y020191D01*
X022190Y020289D02*
X022287Y020289D01*
X022907Y020393D02*
X023573Y020393D01*
X023773Y020593D01*
X023773Y022993D01*
X024173Y022793D02*
X024373Y022993D01*
X024573Y022993D01*
X024873Y023293D01*
X024873Y023593D01*
X025173Y023893D01*
X026173Y023893D01*
X026501Y023638D02*
X029245Y023638D01*
X029343Y023540D02*
X026402Y023540D01*
X027299Y023737D02*
X029146Y023737D01*
X029048Y023835D02*
X027398Y023835D01*
X027496Y023934D02*
X028973Y023934D01*
X028973Y024032D02*
X028878Y024032D01*
X029793Y023441D02*
X025304Y023441D01*
X024673Y023393D02*
X024673Y024393D01*
X025673Y024393D01*
X025365Y024722D02*
X024981Y024722D01*
X025079Y024623D02*
X025266Y024623D01*
X025463Y024820D02*
X024882Y024820D01*
X024933Y025017D02*
X025412Y025017D01*
X025314Y025116D02*
X025032Y025116D01*
X025123Y025214D02*
X025223Y025214D01*
X025223Y025313D02*
X025123Y025313D01*
X025123Y025411D02*
X025223Y025411D01*
X025223Y025510D02*
X025123Y025510D01*
X025094Y025608D02*
X025251Y025608D01*
X025350Y025707D02*
X024996Y025707D01*
X024350Y025707D02*
X023996Y025707D01*
X024094Y025608D02*
X024251Y025608D01*
X024223Y025510D02*
X024123Y025510D01*
X024123Y025411D02*
X024223Y025411D01*
X024223Y025313D02*
X024123Y025313D01*
X024123Y025214D02*
X024223Y025214D01*
X024314Y025116D02*
X024032Y025116D01*
X023933Y025017D02*
X024412Y025017D01*
X024463Y024820D02*
X023882Y024820D01*
X023981Y024722D02*
X024365Y024722D01*
X024266Y024623D02*
X024079Y024623D01*
X024123Y024525D02*
X024223Y024525D01*
X024223Y024426D02*
X024123Y024426D01*
X024123Y024328D02*
X024223Y024328D01*
X024223Y024229D02*
X024123Y024229D01*
X024179Y024131D02*
X024047Y024131D01*
X024068Y023934D02*
X021396Y023934D01*
X021073Y023893D02*
X020273Y023893D01*
X019873Y024293D01*
X019073Y024293D01*
X018673Y023893D01*
X018673Y021823D01*
X019273Y021223D01*
X018873Y020880D02*
X018492Y020880D01*
X018538Y020926D02*
X018390Y020778D01*
X018197Y020698D01*
X017988Y020698D01*
X017795Y020778D01*
X017648Y020926D01*
X017599Y021043D01*
X017424Y021043D01*
X017424Y020984D01*
X017336Y020896D01*
X016779Y020896D01*
X016723Y020952D01*
X016667Y020896D01*
X016110Y020896D01*
X016022Y020984D01*
X016022Y021043D01*
X015473Y021043D01*
X015473Y017714D01*
X015412Y017567D01*
X015299Y017454D01*
X015152Y017393D01*
X014993Y017393D01*
X014846Y017454D01*
X014734Y017567D01*
X014673Y017714D01*
X014673Y020957D01*
X014661Y020968D01*
X014593Y021134D01*
X014593Y021313D01*
X014661Y021478D01*
X014788Y021605D01*
X014953Y021673D01*
X015132Y021673D01*
X015298Y021605D01*
X015424Y021478D01*
X015439Y021443D01*
X016022Y021443D01*
X016022Y021502D01*
X016110Y021590D01*
X016667Y021590D01*
X016723Y021534D01*
X016779Y021590D01*
X017336Y021590D01*
X017424Y021502D01*
X017424Y021443D01*
X017616Y021443D01*
X017648Y021521D01*
X017795Y021668D01*
X015144Y021668D01*
X014941Y021668D02*
X013614Y021668D01*
X013516Y021767D02*
X018473Y021767D01*
X018473Y021865D02*
X013347Y021865D01*
X013513Y021964D02*
X014928Y021964D01*
X014953Y021953D02*
X015132Y021953D01*
X015298Y022022D01*
X015424Y022148D01*
X015493Y022314D01*
X015493Y022493D01*
X015424Y022658D01*
X015298Y022785D01*
X015132Y022853D01*
X014953Y022853D01*
X014788Y022785D01*
X014661Y022658D01*
X014593Y022493D01*
X014593Y022314D01*
X014661Y022148D01*
X014788Y022022D01*
X014953Y021953D01*
X015158Y021964D02*
X017790Y021964D01*
X017691Y022062D02*
X015338Y022062D01*
X015429Y022161D02*
X017625Y022161D01*
X017584Y022259D02*
X015470Y022259D01*
X015493Y022358D02*
X017568Y022358D01*
X017568Y022456D02*
X015493Y022456D01*
X015467Y022555D02*
X017587Y022555D01*
X017628Y022653D02*
X015426Y022653D01*
X015331Y022752D02*
X017699Y022752D01*
X017800Y022850D02*
X015139Y022850D01*
X014946Y022850D02*
X013346Y022850D01*
X013430Y022949D02*
X018473Y022949D01*
X018473Y023047D02*
X013539Y023047D01*
X013673Y023047D02*
X012523Y023047D01*
X012523Y022949D02*
X013673Y022949D01*
X013673Y022850D02*
X012523Y022850D01*
X012523Y023343D02*
X013673Y023343D01*
X013223Y023540D02*
X013123Y023540D01*
X013123Y023638D02*
X013223Y023638D01*
X013223Y023737D02*
X013123Y023737D01*
X014993Y023441D02*
X015093Y023441D01*
X015093Y023343D02*
X014993Y023343D01*
X014993Y023244D02*
X015093Y023244D01*
X014755Y022752D02*
X013515Y022752D01*
X013614Y022653D02*
X014659Y022653D01*
X014619Y022555D02*
X013655Y022555D01*
X013693Y022456D02*
X014593Y022456D01*
X014593Y022358D02*
X013693Y022358D01*
X013693Y022259D02*
X014615Y022259D01*
X014656Y022161D02*
X013654Y022161D01*
X013612Y022062D02*
X014747Y022062D01*
X014753Y021570D02*
X013979Y021570D01*
X014078Y021471D02*
X014658Y021471D01*
X014618Y021373D02*
X014176Y021373D01*
X014391Y021274D02*
X014593Y021274D01*
X014593Y021176D02*
X014522Y021176D01*
X014568Y021077D02*
X014616Y021077D01*
X014578Y020979D02*
X014657Y020979D01*
X014673Y020880D02*
X014556Y020880D01*
X014493Y020782D02*
X014673Y020782D01*
X014273Y020993D02*
X013891Y021375D01*
X013008Y020880D02*
X012623Y020880D01*
X012623Y020979D02*
X012833Y020979D01*
X012735Y021077D02*
X012623Y021077D01*
X012623Y021176D02*
X012692Y021176D01*
X012653Y021274D02*
X012623Y021274D01*
X012623Y021373D02*
X012653Y021373D01*
X012653Y021471D02*
X012623Y021471D01*
X015043Y021223D02*
X015073Y021193D01*
X015043Y021223D02*
X015063Y021243D01*
X016388Y021243D01*
X016022Y021471D02*
X015427Y021471D01*
X015333Y021570D02*
X016089Y021570D01*
X016687Y021570D02*
X016758Y021570D01*
X017057Y021243D02*
X018073Y021243D01*
X018093Y021223D01*
X018489Y021570D02*
X018643Y021570D01*
X018538Y021521D02*
X018390Y021668D01*
X018545Y021668D01*
X018538Y021521D02*
X018618Y021328D01*
X018618Y021119D01*
X018538Y020926D01*
X018560Y020979D02*
X018806Y020979D01*
X018765Y021077D02*
X018601Y021077D01*
X018618Y021176D02*
X018748Y021176D01*
X018748Y021274D02*
X018618Y021274D01*
X018599Y021373D02*
X018767Y021373D01*
X018742Y021471D02*
X018558Y021471D01*
X018390Y021668D02*
X018197Y021748D01*
X017988Y021748D01*
X017795Y021668D01*
X017697Y021570D02*
X017356Y021570D01*
X017424Y021471D02*
X017627Y021471D01*
X017626Y020979D02*
X017419Y020979D01*
X017693Y020880D02*
X015473Y020880D01*
X015473Y020782D02*
X017792Y020782D01*
X018394Y020782D02*
X018972Y020782D01*
X018473Y021964D02*
X018396Y021964D01*
X018873Y022752D02*
X018879Y022752D01*
X018873Y022850D02*
X018980Y022850D01*
X018873Y023146D02*
X019085Y023146D01*
X019223Y023146D02*
X019323Y023146D01*
X019323Y023244D02*
X019223Y023244D01*
X019223Y023343D02*
X019323Y023343D01*
X019323Y023441D02*
X019223Y023441D01*
X018940Y023244D02*
X018873Y023244D01*
X018473Y023146D02*
X018398Y023146D01*
X018385Y022850D02*
X018473Y022850D01*
X019273Y022403D02*
X019683Y021993D01*
X020373Y022293D02*
X020373Y022693D01*
X021073Y023893D02*
X021573Y024393D01*
X021673Y024393D01*
X021981Y024722D02*
X022365Y024722D01*
X022463Y024820D02*
X021882Y024820D01*
X021933Y025017D02*
X022412Y025017D01*
X022314Y025116D02*
X022032Y025116D01*
X022123Y025214D02*
X022223Y025214D01*
X022223Y025313D02*
X022123Y025313D01*
X022123Y025411D02*
X022223Y025411D01*
X022223Y025510D02*
X022123Y025510D01*
X022094Y025608D02*
X022251Y025608D01*
X022350Y025707D02*
X021996Y025707D01*
X022996Y025707D02*
X023350Y025707D01*
X023251Y025608D02*
X023094Y025608D01*
X023123Y025510D02*
X023223Y025510D01*
X023223Y025411D02*
X023123Y025411D01*
X023123Y025313D02*
X023223Y025313D01*
X023223Y025214D02*
X023123Y025214D01*
X023032Y025116D02*
X023314Y025116D01*
X023412Y025017D02*
X022933Y025017D01*
X022859Y024843D02*
X022486Y024843D01*
X022223Y024580D01*
X022223Y024207D01*
X022486Y023943D01*
X022859Y023943D01*
X023123Y024207D01*
X023123Y024580D01*
X022859Y024843D01*
X022882Y024820D02*
X023463Y024820D01*
X023365Y024722D02*
X022981Y024722D01*
X023079Y024623D02*
X023266Y024623D01*
X023223Y024525D02*
X023123Y024525D01*
X023123Y024426D02*
X023223Y024426D01*
X023223Y024328D02*
X023123Y024328D01*
X023123Y024229D02*
X023223Y024229D01*
X023299Y024131D02*
X023047Y024131D01*
X022948Y024032D02*
X023397Y024032D01*
X022397Y024032D02*
X021948Y024032D01*
X022047Y024131D02*
X022299Y024131D01*
X022223Y024229D02*
X022123Y024229D01*
X022123Y024328D02*
X022223Y024328D01*
X022223Y024426D02*
X022123Y024426D01*
X022123Y024525D02*
X022223Y024525D01*
X022266Y024623D02*
X022079Y024623D01*
X021463Y024820D02*
X020882Y024820D01*
X020981Y024722D02*
X021365Y024722D01*
X021266Y024623D02*
X021079Y024623D01*
X021123Y024525D02*
X021223Y024525D01*
X021223Y024426D02*
X021123Y024426D01*
X021123Y024328D02*
X021223Y024328D01*
X021126Y024229D02*
X021123Y024229D01*
X020365Y024722D02*
X020043Y024722D01*
X020043Y024820D02*
X020463Y024820D01*
X020266Y024623D02*
X020018Y024623D01*
X019970Y024525D02*
X020223Y024525D01*
X020223Y024426D02*
X020023Y024426D01*
X020121Y024328D02*
X020223Y024328D01*
X020220Y024229D02*
X020223Y024229D01*
X019118Y024032D02*
X019095Y024032D01*
X018529Y024032D02*
X018381Y024032D01*
X020223Y025411D02*
X012623Y025411D01*
X012623Y025510D02*
X020223Y025510D01*
X020251Y025608D02*
X012623Y025608D01*
X012623Y025707D02*
X020350Y025707D01*
X020996Y025707D02*
X021350Y025707D01*
X021251Y025608D02*
X021094Y025608D01*
X021123Y025510D02*
X021223Y025510D01*
X021223Y025411D02*
X021123Y025411D01*
X021123Y025313D02*
X021223Y025313D01*
X021223Y025214D02*
X021123Y025214D01*
X021032Y025116D02*
X021314Y025116D01*
X021412Y025017D02*
X020933Y025017D01*
X024173Y022793D02*
X024173Y019293D01*
X024073Y019193D01*
X023959Y018910D02*
X022521Y018910D01*
X022615Y018812D02*
X024173Y018812D01*
X024173Y018713D02*
X022656Y018713D01*
X022673Y018615D02*
X024173Y018615D01*
X024173Y018516D02*
X022673Y018516D01*
X022633Y018418D02*
X024173Y018418D01*
X024173Y018319D02*
X022565Y018319D01*
X022473Y018221D02*
X024173Y018221D01*
X024173Y018122D02*
X022473Y018122D01*
X022473Y018024D02*
X024173Y018024D01*
X024173Y017925D02*
X022473Y017925D01*
X022473Y017827D02*
X024173Y017827D01*
X024173Y017728D02*
X022473Y017728D01*
X022473Y017630D02*
X024173Y017630D01*
X024173Y017531D02*
X022473Y017531D01*
X022473Y017433D02*
X024173Y017433D01*
X024173Y017334D02*
X022473Y017334D01*
X022473Y017236D02*
X024173Y017236D01*
X024173Y017137D02*
X022473Y017137D01*
X022473Y017039D02*
X024173Y017039D01*
X024173Y016940D02*
X022473Y016940D01*
X022473Y016842D02*
X024173Y016842D01*
X024173Y016743D02*
X022473Y016743D01*
X022473Y016645D02*
X024173Y016645D01*
X024173Y016546D02*
X022473Y016546D01*
X022473Y016448D02*
X024173Y016448D01*
X024173Y016349D02*
X022473Y016349D01*
X022473Y016251D02*
X024173Y016251D01*
X024173Y016152D02*
X022473Y016152D01*
X022473Y016054D02*
X024151Y016054D01*
X024052Y015955D02*
X022473Y015955D01*
X022473Y015857D02*
X023954Y015857D01*
X023855Y015758D02*
X022473Y015758D01*
X022473Y015660D02*
X023757Y015660D01*
X023673Y015293D02*
X023573Y015293D01*
X021673Y016448D02*
X017471Y016448D01*
X017497Y016546D02*
X021673Y016546D01*
X021673Y016645D02*
X017523Y016645D01*
X017523Y016743D02*
X021673Y016743D01*
X021673Y016842D02*
X017523Y016842D01*
X017523Y016940D02*
X021673Y016940D01*
X021673Y017039D02*
X017498Y017039D01*
X017471Y017137D02*
X021673Y017137D01*
X021673Y017236D02*
X017445Y017236D01*
X017388Y017334D02*
X021673Y017334D01*
X021673Y017433D02*
X017332Y017433D01*
X017261Y017531D02*
X021673Y017531D01*
X021673Y017630D02*
X017163Y017630D01*
X017053Y017728D02*
X021673Y017728D01*
X021673Y017827D02*
X016883Y017827D01*
X016591Y017925D02*
X021673Y017925D01*
X021673Y018024D02*
X015473Y018024D01*
X015473Y018122D02*
X021673Y018122D01*
X021673Y018221D02*
X015473Y018221D01*
X015473Y018319D02*
X021673Y018319D01*
X021673Y018418D02*
X015473Y018418D01*
X015473Y018516D02*
X021691Y018516D01*
X021732Y018615D02*
X015473Y018615D01*
X015473Y018713D02*
X021827Y018713D01*
X021926Y018812D02*
X015473Y018812D01*
X015473Y018910D02*
X022024Y018910D01*
X023273Y019593D02*
X023373Y019593D01*
X023554Y019797D02*
X023973Y019797D01*
X023973Y019895D02*
X023758Y019895D01*
X023856Y019994D02*
X023973Y019994D01*
X023973Y020092D02*
X023955Y020092D01*
X023973Y019501D02*
X015473Y019501D01*
X015473Y019403D02*
X023851Y019403D01*
X023789Y019304D02*
X015473Y019304D01*
X015473Y019206D02*
X023768Y019206D01*
X023778Y019107D02*
X015473Y019107D01*
X015473Y019009D02*
X023826Y019009D01*
X023473Y017593D02*
X022773Y017593D01*
X022907Y020393D02*
X022973Y020393D01*
X023207Y020893D02*
X023273Y020893D01*
X016027Y020979D02*
X015473Y020979D01*
X015473Y017925D02*
X016154Y017925D01*
X015863Y017827D02*
X015473Y017827D01*
X015473Y017728D02*
X015692Y017728D01*
X015583Y017630D02*
X015438Y017630D01*
X015485Y017531D02*
X015377Y017531D01*
X015414Y017433D02*
X015248Y017433D01*
X015357Y017334D02*
X006348Y017334D01*
X006348Y017236D02*
X015301Y017236D01*
X015274Y017137D02*
X006348Y017137D01*
X006348Y017039D02*
X015248Y017039D01*
X015223Y016940D02*
X006348Y016940D01*
X006348Y016842D02*
X015223Y016842D01*
X015223Y016743D02*
X006348Y016743D01*
X006348Y016645D02*
X015223Y016645D01*
X015248Y016546D02*
X006348Y016546D01*
X006348Y016448D02*
X015275Y016448D01*
X015415Y016152D02*
X006348Y016152D01*
X006348Y016054D02*
X015486Y016054D01*
X015584Y015955D02*
X006348Y015955D01*
X006348Y015857D02*
X015695Y015857D01*
X015865Y015758D02*
X006348Y015758D01*
X006348Y015660D02*
X016160Y015660D01*
X012860Y014773D02*
X006348Y014773D01*
X006348Y014675D02*
X012673Y014675D01*
X012530Y014576D02*
X006348Y014576D01*
X006348Y014478D02*
X012431Y014478D01*
X012341Y014379D02*
X006348Y014379D01*
X006348Y014281D02*
X012284Y014281D01*
X012227Y014182D02*
X006348Y014182D01*
X006348Y014084D02*
X012187Y014084D01*
X012161Y013985D02*
X006348Y013985D01*
X006348Y013887D02*
X012134Y013887D01*
X012123Y013788D02*
X006348Y013788D01*
X006348Y013690D02*
X012123Y013690D01*
X012123Y013591D02*
X006348Y013591D01*
X006348Y013493D02*
X012136Y013493D01*
X012162Y013394D02*
X006348Y013394D01*
X006348Y013296D02*
X012189Y013296D01*
X012231Y013197D02*
X006348Y013197D01*
X006348Y013099D02*
X012288Y013099D01*
X012345Y013000D02*
X006348Y013000D01*
X006348Y012902D02*
X012438Y012902D01*
X012536Y012803D02*
X006348Y012803D01*
X006348Y012705D02*
X012685Y012705D01*
X014873Y012393D02*
X014873Y012293D01*
X019373Y012508D02*
X039273Y012508D01*
X039273Y012606D02*
X019373Y012606D01*
X019317Y011523D02*
X019429Y011523D01*
X027938Y008765D02*
X028408Y008765D01*
X028309Y008666D02*
X028036Y008666D01*
X028123Y008568D02*
X028223Y008568D01*
X028223Y008469D02*
X028123Y008469D01*
X028123Y008371D02*
X028223Y008371D01*
X028223Y008272D02*
X028123Y008272D01*
X028090Y008174D02*
X028256Y008174D01*
X028354Y008075D02*
X027991Y008075D01*
X028893Y007977D02*
X029453Y007977D01*
X029354Y008075D02*
X028991Y008075D01*
X029090Y008174D02*
X029256Y008174D01*
X029223Y008272D02*
X029123Y008272D01*
X029123Y008371D02*
X029223Y008371D01*
X029223Y008469D02*
X029123Y008469D01*
X029123Y008568D02*
X029223Y008568D01*
X029309Y008666D02*
X029036Y008666D01*
X028938Y008765D02*
X029408Y008765D01*
X029893Y007977D02*
X030444Y007977D01*
X029723Y007780D02*
X029623Y007780D01*
X029623Y007681D02*
X029723Y007681D01*
X029723Y007583D02*
X029623Y007583D01*
X029494Y007780D02*
X028923Y007780D01*
X029021Y007681D02*
X029395Y007681D01*
X029297Y007583D02*
X029120Y007583D01*
X029123Y007484D02*
X029273Y007484D01*
X030034Y007189D02*
X030385Y007189D01*
X030305Y007287D02*
X030073Y007287D01*
X029936Y007090D02*
X030509Y007090D01*
X035395Y007780D02*
X045423Y007780D01*
X045453Y007977D02*
X036255Y007977D01*
X036278Y008075D02*
X045354Y008075D01*
X045256Y008174D02*
X036336Y008174D01*
X035721Y008272D02*
X035399Y008272D01*
X035399Y008174D02*
X035676Y008174D01*
X035668Y008075D02*
X035399Y008075D01*
X035399Y007977D02*
X035691Y007977D01*
X035756Y007878D02*
X035399Y007878D01*
X035398Y009060D02*
X035339Y009060D01*
X035747Y009060D02*
X035806Y009060D01*
X038073Y011993D02*
X038073Y012193D01*
X038573Y013193D02*
X038473Y013293D01*
X039085Y015364D02*
X043285Y015364D01*
X043236Y015463D02*
X038986Y015463D01*
X038973Y015561D02*
X043203Y015561D01*
X043203Y015660D02*
X038973Y015660D01*
X038973Y015758D02*
X043218Y015758D01*
X043384Y015266D02*
X039883Y015266D01*
X040423Y015318D02*
X040473Y015518D01*
X040473Y015593D01*
X041273Y015493D02*
X041373Y015393D01*
X039473Y016093D02*
X039073Y016093D01*
X038973Y016448D02*
X039187Y016448D01*
X039104Y016546D02*
X038973Y016546D01*
X038973Y016645D02*
X039068Y016645D01*
X039068Y016743D02*
X038973Y016743D01*
X038973Y016842D02*
X039104Y016842D01*
X039143Y016940D02*
X038973Y016940D01*
X038910Y017039D02*
X039044Y017039D01*
X038946Y017137D02*
X038812Y017137D01*
X038873Y017236D02*
X038713Y017236D01*
X038773Y017293D02*
X038773Y017393D01*
X038673Y017433D02*
X038873Y017433D01*
X038873Y017531D02*
X038673Y017531D01*
X038673Y017630D02*
X038873Y017630D01*
X038873Y017728D02*
X038673Y017728D01*
X038673Y017827D02*
X038873Y017827D01*
X038873Y017925D02*
X038673Y017925D01*
X038686Y018024D02*
X038873Y018024D01*
X038919Y018122D02*
X038785Y018122D01*
X038883Y018221D02*
X039018Y018221D01*
X038982Y018319D02*
X039073Y018319D01*
X039373Y018293D02*
X039073Y017993D01*
X039073Y017293D01*
X039373Y016993D01*
X039373Y016693D01*
X039673Y016993D02*
X039273Y017393D01*
X039273Y017893D01*
X039773Y018393D01*
X039373Y018393D02*
X039373Y018293D01*
X038873Y017334D02*
X038673Y017334D01*
X042173Y018393D02*
X042273Y018493D01*
X042273Y022493D01*
X038937Y023580D02*
X038937Y023580D01*
X038937Y025206D02*
X038937Y025206D01*
X038245Y025134D02*
X038245Y025134D01*
X030273Y024593D02*
X029873Y024993D01*
X027973Y024793D02*
X027873Y024893D01*
X027173Y024893D01*
X032473Y018293D02*
X032873Y018293D01*
X046443Y016743D02*
X046543Y016743D01*
X046543Y016645D02*
X046443Y016645D01*
X046443Y016546D02*
X046543Y016546D01*
X046772Y016546D02*
X046873Y016546D01*
X046873Y016645D02*
X046848Y016645D01*
X054073Y023793D02*
X054473Y023393D01*
X054073Y023793D02*
X053873Y023793D01*
X053273Y024525D02*
X053123Y024525D01*
X053079Y024623D02*
X053337Y024623D01*
X053061Y024722D02*
X052981Y024722D01*
X052963Y024820D02*
X052882Y024820D01*
X052864Y024919D02*
X049481Y024919D01*
X049223Y024525D02*
X049123Y024525D01*
X049123Y024426D02*
X049223Y024426D01*
X049223Y024328D02*
X049123Y024328D01*
X049123Y024229D02*
X049223Y024229D01*
X049299Y024131D02*
X049047Y024131D01*
X048948Y024032D02*
X049397Y024032D01*
X050882Y024820D02*
X051463Y024820D01*
X051412Y025017D02*
X050933Y025017D01*
X051032Y025116D02*
X051314Y025116D01*
X051223Y025214D02*
X051123Y025214D01*
X051123Y025313D02*
X051223Y025313D01*
X051223Y025411D02*
X051123Y025411D01*
X051123Y025510D02*
X051223Y025510D01*
X051251Y025608D02*
X051094Y025608D01*
X050996Y025707D02*
X051350Y025707D01*
X051938Y008765D02*
X052408Y008765D01*
X052309Y008666D02*
X052036Y008666D01*
X052123Y008568D02*
X052223Y008568D01*
X052223Y008469D02*
X052123Y008469D01*
X052123Y008371D02*
X052223Y008371D01*
X052223Y008272D02*
X052123Y008272D01*
X052090Y008174D02*
X052256Y008174D01*
X052354Y008075D02*
X051991Y008075D01*
X014898Y017433D02*
X006348Y017433D01*
X006348Y017531D02*
X014769Y017531D01*
X014708Y017630D02*
X006348Y017630D01*
X006348Y017728D02*
X014673Y017728D01*
D21*
X016973Y015293D03*
X014873Y012293D03*
X019173Y011793D03*
X019573Y011793D03*
X022073Y011893D03*
X023873Y012193D03*
X024273Y010593D03*
X026173Y010593D03*
X033873Y008093D03*
X035973Y008093D03*
X039673Y008593D03*
X038073Y011993D03*
X038473Y013293D03*
X040073Y013693D03*
X039473Y014793D03*
X040423Y015318D03*
X041373Y015393D03*
X040273Y016193D03*
X039973Y016493D03*
X040573Y016693D03*
X039673Y016993D03*
X039373Y016693D03*
X039073Y016093D03*
X038773Y017393D03*
X040073Y018093D03*
X039773Y018393D03*
X039373Y018393D03*
X039073Y018693D03*
X041573Y018993D03*
X041873Y018693D03*
X042173Y018393D03*
X042773Y017293D03*
X043073Y016993D03*
X041673Y017193D03*
X044773Y016093D03*
X045173Y015693D03*
X046973Y013993D03*
X051073Y013893D03*
X051373Y011393D03*
X053273Y011393D03*
X041973Y013193D03*
X032873Y018293D03*
X040973Y020593D03*
X041473Y020293D03*
X042773Y020593D03*
X043073Y020293D03*
X044273Y021893D03*
X043173Y022593D03*
X042973Y023593D03*
X043573Y023593D03*
X042373Y023593D03*
X041773Y023593D03*
X041273Y023993D03*
X040973Y023693D03*
X044073Y024593D03*
X044373Y024893D03*
X047173Y023193D03*
X051473Y022093D03*
X051473Y021093D03*
X053373Y021493D03*
X054373Y021393D03*
X051173Y019593D03*
X053873Y023793D03*
X030273Y024593D03*
X029973Y023693D03*
X024373Y023493D03*
X024373Y023893D03*
X022973Y023193D03*
X021773Y022093D03*
X021773Y021693D03*
X021773Y021293D03*
X022973Y020393D03*
X023473Y020093D03*
X023373Y019593D03*
X024073Y019193D03*
X023273Y020893D03*
X024473Y022093D03*
X020373Y022693D03*
X019873Y021693D03*
X014273Y020993D03*
X012773Y025093D03*
X022773Y017593D03*
X023573Y015293D03*
X023573Y014893D03*
X014973Y009793D03*
X012373Y008793D03*
X009573Y007293D03*
X008273Y007293D03*
X006973Y007293D03*
D22*
X022073Y013793D02*
X022073Y018393D01*
X022273Y018593D01*
X015073Y017793D02*
X015073Y021193D01*
X022073Y013793D02*
X022648Y013218D01*
X023048Y013218D01*
D23*
X022273Y018593D03*
D24*
X015073Y017793D03*
M02*
