M48
;DRILL file {KiCad (5.0.2)-1} date 3/3/2019 4:13:41 PM
;FORMAT={-:-/ absolute / inch / decimal}
FMAT,2
INCH,TZ
T1C0.0157
T2C0.0350
T3C0.0354
T4C0.0394
T5C0.1616
%
G90
G05
T1
X4.98Y-4.48
X6.Y-3.14
X6.Y-3.34
X6.1Y-4.1
X6.64Y-4.2
X6.65Y-3.7
X6.66Y-3.2
X7.45Y-3.99
X7.75Y-4.03
X7.75Y-4.1
X7.875Y-4.485
X8.25Y-4.52
X8.35Y-3.4
X8.35Y-4.1
X8.47Y-4.02
X8.55Y-4.6
X8.6Y-3.4
X8.75Y-4.6
X8.94Y-3.4
X9.3Y-3.39
X9.57Y-3.39
T2
X5.9Y-3.9
X6.Y-3.9
X6.1Y-3.9
T3
X6.8Y-3.2
X6.9Y-3.2
X7.Y-3.2
X9.1Y-3.2
X9.2Y-3.2
X9.3Y-3.2
X9.4Y-3.2
X9.5Y-3.2
X6.4Y-3.2
X6.5Y-3.2
X6.4Y-4.2
X6.5Y-4.2
X6.8Y-4.2
X6.9Y-4.2
X7.Y-4.2
X6.8Y-3.7
X6.9Y-3.7
X7.Y-3.7
X6.4Y-3.7
X6.5Y-3.7
X8.4Y-3.2
X8.5Y-3.2
X8.6Y-3.2
X8.7Y-3.2
X8.8Y-3.2
T4
X4.8Y-3.
X4.8Y-3.1
X4.8Y-4.7
X4.8Y-4.8
X4.9Y-3.
X4.9Y-3.1
X4.9Y-4.7
X4.9Y-4.8
X5.Y-3.
X5.Y-3.1
X5.Y-4.7
X5.Y-4.8
X5.1Y-3.
X5.1Y-3.1
X5.1Y-4.7
X5.1Y-4.8
X5.2Y-3.
X5.2Y-3.1
X5.2Y-4.7
X5.2Y-4.8
X5.3Y-3.
X5.3Y-3.1
X5.3Y-4.7
X5.3Y-4.8
X5.4Y-3.
X5.4Y-3.1
X5.4Y-4.7
X5.4Y-4.8
X5.5Y-3.
X5.5Y-3.1
X5.5Y-4.7
X5.5Y-4.8
X5.6Y-3.
X5.6Y-3.1
X5.6Y-4.7
X5.6Y-4.8
X5.7Y-3.
X5.7Y-3.1
X5.7Y-4.7
X5.7Y-4.8
X7.3Y-3.
X7.3Y-3.1
X7.3Y-4.7
X7.3Y-4.8
X7.4Y-3.
X7.4Y-3.1
X7.4Y-4.7
X7.4Y-4.8
X7.5Y-3.
X7.5Y-3.1
X7.5Y-4.7
X7.5Y-4.8
X7.6Y-3.
X7.6Y-3.1
X7.6Y-4.7
X7.6Y-4.8
X7.7Y-3.
X7.7Y-3.1
X7.7Y-4.7
X7.7Y-4.8
X7.8Y-3.
X7.8Y-3.1
X7.8Y-4.7
X7.8Y-4.8
X7.9Y-3.
X7.9Y-3.1
X7.9Y-4.7
X7.9Y-4.8
X8.Y-3.
X8.Y-3.1
X8.Y-4.7
X8.Y-4.8
X8.1Y-3.
X8.1Y-3.1
X8.1Y-4.7
X8.1Y-4.8
X8.2Y-3.
X8.2Y-3.1
X8.2Y-4.7
X8.2Y-4.8
T5
X5.65Y-3.5
X5.65Y-3.811
X5.65Y-4.122
X5.3Y-3.5
X5.3Y-3.811
X5.3Y-4.122
X4.95Y-3.5
X4.95Y-3.811
X4.95Y-4.122
T0
M30
