G04 #@! TF.GenerationSoftware,KiCad,Pcbnew,(5.0.2)-1*
G04 #@! TF.CreationDate,2019-03-03T16:13:39-06:00*
G04 #@! TF.ProjectId,ArmDriveBoard_Hardware,41726d44-7269-4766-9542-6f6172645f48,rev?*
G04 #@! TF.SameCoordinates,Original*
G04 #@! TF.FileFunction,Copper,L2,Bot*
G04 #@! TF.FilePolarity,Positive*
%FSLAX46Y46*%
G04 Gerber Fmt 4.6, Leading zero omitted, Abs format (unit mm)*
G04 Created by KiCad (PCBNEW (5.0.2)-1) date 3/3/2019 4:13:39 PM*
%MOMM*%
%LPD*%
G01*
G04 APERTURE LIST*
G04 #@! TA.AperFunction,ComponentPad*
%ADD10C,1.520000*%
G04 #@! TD*
G04 #@! TA.AperFunction,ComponentPad*
%ADD11C,1.524000*%
G04 #@! TD*
G04 #@! TA.AperFunction,ComponentPad*
%ADD12C,5.080000*%
G04 #@! TD*
G04 #@! TA.AperFunction,ViaPad*
%ADD13C,0.800000*%
G04 #@! TD*
G04 #@! TA.AperFunction,Conductor*
%ADD14C,0.762000*%
G04 #@! TD*
G04 #@! TA.AperFunction,Conductor*
%ADD15C,0.254000*%
G04 #@! TD*
G04 APERTURE END LIST*
D10*
G04 #@! TO.P,U1,PP2*
G04 #@! TO.N,Solenoid_Control*
X144780000Y-76200000D03*
G04 #@! TO.P,U1,PN3*
G04 #@! TO.N,Laser_Control*
X142240000Y-76200000D03*
G04 #@! TO.P,U1,PN2*
G04 #@! TO.N,Net-(U1-PadPN2)*
X139700000Y-76200000D03*
G04 #@! TO.P,U1,PD0*
G04 #@! TO.N,Net-(U1-PadPD0)*
X137160000Y-76200000D03*
G04 #@! TO.P,U1,PD1*
G04 #@! TO.N,Net-(U1-PadPD1)*
X134620000Y-76200000D03*
G04 #@! TO.P,U1,Rese*
G04 #@! TO.N,Net-(U1-PadRese)*
X132080000Y-76200000D03*
G04 #@! TO.P,U1,PH3*
G04 #@! TO.N,Net-(U1-PadPH3)*
X129540000Y-76200000D03*
G04 #@! TO.P,U1,PH2*
G04 #@! TO.N,Net-(U1-PadPH2)*
X127000000Y-76200000D03*
G04 #@! TO.P,U1,PM3*
G04 #@! TO.N,Net-(U1-PadPM3)*
X124460000Y-76200000D03*
G04 #@! TO.P,U1,GND*
G04 #@! TO.N,GND*
X121920000Y-76200000D03*
G04 #@! TO.P,U1,PL3*
G04 #@! TO.N,Net-(U1-PadPL3)*
X144780000Y-78740000D03*
G04 #@! TO.P,U1,PL2*
G04 #@! TO.N,Net-(U1-PadPL2)*
X142240000Y-78740000D03*
G04 #@! TO.P,U1,PL1*
G04 #@! TO.N,Net-(U1-PadPL1)*
X139700000Y-78740000D03*
G04 #@! TO.P,U1,PL0*
G04 #@! TO.N,Net-(U1-PadPL0)*
X137160000Y-78740000D03*
G04 #@! TO.P,U1,PL5*
G04 #@! TO.N,Net-(U1-PadPL5)*
X134620000Y-78740000D03*
G04 #@! TO.P,U1,PL4*
G04 #@! TO.N,Net-(U1-PadPL4)*
X132080000Y-78740000D03*
G04 #@! TO.P,U1,PG0*
G04 #@! TO.N,Net-(U1-PadPG0)*
X129540000Y-78740000D03*
G04 #@! TO.P,U1,PF3*
G04 #@! TO.N,Net-(U1-PadPF3)*
X127000000Y-78740000D03*
G04 #@! TO.P,U1,PF2*
G04 #@! TO.N,Net-(U1-PadPF2)*
X124460000Y-78740000D03*
G04 #@! TO.P,U1,PF1*
G04 #@! TO.N,Net-(U1-PadPF1)*
X121920000Y-78740000D03*
G04 #@! TO.P,U1,PB3*
G04 #@! TO.N,Net-(U1-PadPB3)*
X144780000Y-121920000D03*
G04 #@! TO.P,U1,PB2*
G04 #@! TO.N,Net-(U1-PadPB2)*
X142240000Y-121920000D03*
G04 #@! TO.P,U1,PC7*
G04 #@! TO.N,Net-(U1-PadPC7)*
X139700000Y-121920000D03*
G04 #@! TO.P,U1,PD3*
G04 #@! TO.N,Net-(U1-PadPD3)*
X137160000Y-121920000D03*
G04 #@! TO.P,U1,PE5*
G04 #@! TO.N,Net-(U1-PadPE5)*
X134620000Y-121920000D03*
G04 #@! TO.P,U1,PC6*
G04 #@! TO.N,Net-(U1-PadPC6)*
X132080000Y-121920000D03*
G04 #@! TO.P,U1,PC5*
G04 #@! TO.N,TX_4_IC*
X129540000Y-121920000D03*
G04 #@! TO.P,U1,PC4*
G04 #@! TO.N,RX_4_IC*
X127000000Y-121920000D03*
G04 #@! TO.P,U1,PE4*
G04 #@! TO.N,Net-(U1-PadPE4)*
X124460000Y-121920000D03*
G04 #@! TO.P,U1,+3V3*
G04 #@! TO.N,Net-(U1-Pad+3V3)*
X121920000Y-121920000D03*
G04 #@! TO.P,U1,PM5*
G04 #@! TO.N,Net-(U1-PadPM5)*
X144780000Y-119380000D03*
G04 #@! TO.P,U1,PM4*
G04 #@! TO.N,Net-(U1-PadPM4)*
X142240000Y-119380000D03*
G04 #@! TO.P,U1,PA6*
G04 #@! TO.N,Net-(U1-PadPA6)*
X139700000Y-119380000D03*
G04 #@! TO.P,U1,PD7*
G04 #@! TO.N,Net-(U1-PadPD7)*
X137160000Y-119380000D03*
G04 #@! TO.P,U1,PE3*
G04 #@! TO.N,Net-(U1-PadPE3)*
X134620000Y-119380000D03*
G04 #@! TO.P,U1,PE2*
G04 #@! TO.N,Net-(U1-PadPE2)*
X132080000Y-119380000D03*
G04 #@! TO.P,U1,PE1*
G04 #@! TO.N,Net-(U1-PadPE1)*
X129540000Y-119380000D03*
G04 #@! TO.P,U1,PE0*
G04 #@! TO.N,Net-(U1-PadPE0)*
X127000000Y-119380000D03*
G04 #@! TO.P,U1,GND*
G04 #@! TO.N,GND*
X124460000Y-119380000D03*
G04 #@! TO.P,U1,+5V*
G04 #@! TO.N,+5V*
X121920000Y-119380000D03*
G04 #@! TO.P,U1,PP5*
G04 #@! TO.N,Net-(U1-PadPP5)*
X190500000Y-76200000D03*
G04 #@! TO.P,U1,PM7*
G04 #@! TO.N,Servo1_PWM*
X187960000Y-76200000D03*
G04 #@! TO.P,U1,GND*
G04 #@! TO.N,GND*
X185420000Y-76200000D03*
G04 #@! TO.P,U1,PK7*
G04 #@! TO.N,SW_IND_ERR*
X208280000Y-78740000D03*
G04 #@! TO.P,U1,PK6*
G04 #@! TO.N,SW_IND_3*
X205740000Y-78740000D03*
G04 #@! TO.P,U1,PH1*
G04 #@! TO.N,SW_IND_2*
X203200000Y-78740000D03*
G04 #@! TO.P,U1,PH0*
G04 #@! TO.N,SW_IND_1*
X200660000Y-78740000D03*
G04 #@! TO.P,U1,PM2*
G04 #@! TO.N,Net-(U1-PadPM2)*
X198120000Y-78740000D03*
G04 #@! TO.P,U1,PM1*
G04 #@! TO.N,Net-(U1-PadPM1)*
X195580000Y-78740000D03*
G04 #@! TO.P,U1,PM0*
G04 #@! TO.N,Net-(U1-PadPM0)*
X193040000Y-78740000D03*
G04 #@! TO.P,U1,PK5*
G04 #@! TO.N,Net-(U1-PadPK5)*
X190500000Y-78740000D03*
G04 #@! TO.P,U1,PK4*
G04 #@! TO.N,Net-(U1-PadPK4)*
X187960000Y-78740000D03*
G04 #@! TO.P,U1,PG1*
G04 #@! TO.N,Net-(U1-PadPG1)*
X185420000Y-78740000D03*
G04 #@! TO.P,U1,PN4*
G04 #@! TO.N,Net-(U1-PadPN4)*
X208280000Y-121920000D03*
G04 #@! TO.P,U1,PP4*
G04 #@! TO.N,Net-(U1-PadPP4)*
X203200000Y-121920000D03*
G04 #@! TO.P,U1,PD5*
G04 #@! TO.N,Net-(U1-PadPD5)*
X198120000Y-121920000D03*
G04 #@! TO.P,U1,PD4*
G04 #@! TO.N,Net-(U1-PadPD4)*
X195580000Y-121920000D03*
G04 #@! TO.P,U1,PP1*
G04 #@! TO.N,TX_2_IC*
X193040000Y-121920000D03*
G04 #@! TO.P,U1,PP0*
G04 #@! TO.N,RX_2_IC*
X190500000Y-121920000D03*
G04 #@! TO.P,U1,PD2*
G04 #@! TO.N,Net-(U1-PadPD2)*
X187960000Y-121920000D03*
G04 #@! TO.P,U1,PA5*
G04 #@! TO.N,TX_1_IC*
X208280000Y-119380000D03*
G04 #@! TO.P,U1,PK3*
G04 #@! TO.N,Net-(U1-PadPK3)*
X203200000Y-119380000D03*
G04 #@! TO.P,U1,PB5*
G04 #@! TO.N,Net-(U1-PadPB5)*
X193040000Y-119380000D03*
G04 #@! TO.P,U1,PB4*
G04 #@! TO.N,Net-(U1-PadPB4)*
X190500000Y-119380000D03*
G04 #@! TO.P,U1,GND*
G04 #@! TO.N,GND*
X187960000Y-119380000D03*
G04 #@! TO.P,U1,+5V`*
G04 #@! TO.N,N/C*
X185420000Y-119380000D03*
G04 #@! TO.P,U1,PK1*
G04 #@! TO.N,TX_3_IC*
X198120000Y-119380000D03*
G04 #@! TO.P,U1,PK2*
G04 #@! TO.N,Net-(U1-PadPK2)*
X200660000Y-119380000D03*
G04 #@! TO.P,U1,PN5*
G04 #@! TO.N,Net-(U1-PadPN5)*
X205740000Y-121920000D03*
G04 #@! TO.P,U1,PA7*
G04 #@! TO.N,Servo2_PWM*
X193040000Y-76200000D03*
G04 #@! TO.P,U1,Rese`*
G04 #@! TO.N,N/C*
X195580000Y-76200000D03*
G04 #@! TO.P,U1,PA4*
G04 #@! TO.N,RX_1_IC*
X205740000Y-119380000D03*
G04 #@! TO.P,U1,PQ0*
G04 #@! TO.N,Net-(U1-PadPQ0)*
X200660000Y-121920000D03*
G04 #@! TO.P,U1,PP3*
G04 #@! TO.N,Net-(U1-PadPP3)*
X203200000Y-76200000D03*
G04 #@! TO.P,U1,PQ3*
G04 #@! TO.N,Net-(U1-PadPQ3)*
X200660000Y-76200000D03*
G04 #@! TO.P,U1,PK0*
G04 #@! TO.N,RX_3_IC*
X195580000Y-119380000D03*
G04 #@! TO.P,U1,PQ2*
G04 #@! TO.N,Net-(U1-PadPQ2)*
X198120000Y-76200000D03*
G04 #@! TO.P,U1,PQ1*
G04 #@! TO.N,Net-(U1-PadPQ1)*
X205740000Y-76200000D03*
G04 #@! TO.P,U1,PM6*
G04 #@! TO.N,Servo3_PWM*
X208280000Y-76200000D03*
G04 #@! TO.P,U1,+3V3`*
G04 #@! TO.N,Net-(U1-Pad+3V3`)*
X185420000Y-121920000D03*
G04 #@! TD*
D11*
G04 #@! TO.P,Conn7,3*
G04 #@! TO.N,Servo1_PWM*
X177800000Y-81280000D03*
G04 #@! TO.P,Conn7,2*
G04 #@! TO.N,+5V*
X175260000Y-81280000D03*
G04 #@! TO.P,Conn7,1*
G04 #@! TO.N,GND*
X172720000Y-81280000D03*
G04 #@! TD*
G04 #@! TO.P,Conn2,5*
G04 #@! TO.N,RX_1_SL*
X241300000Y-81280000D03*
G04 #@! TO.P,Conn2,4*
G04 #@! TO.N,TX_1_SL*
X238760000Y-81280000D03*
G04 #@! TO.P,Conn2,3*
G04 #@! TO.N,GND*
X236220000Y-81280000D03*
G04 #@! TO.P,Conn2,2*
G04 #@! TO.N,RX_2_SL*
X233680000Y-81280000D03*
G04 #@! TO.P,Conn2,1*
G04 #@! TO.N,TX_2_SL*
X231140000Y-81280000D03*
G04 #@! TD*
G04 #@! TO.P,Conn3,5*
G04 #@! TO.N,RX_3_SL*
X223520000Y-81280000D03*
G04 #@! TO.P,Conn3,4*
G04 #@! TO.N,TX_3_SL*
X220980000Y-81280000D03*
G04 #@! TO.P,Conn3,3*
G04 #@! TO.N,GND*
X218440000Y-81280000D03*
G04 #@! TO.P,Conn3,2*
G04 #@! TO.N,RX_4_SL*
X215900000Y-81280000D03*
G04 #@! TO.P,Conn3,1*
G04 #@! TO.N,TX_4_SL*
X213360000Y-81280000D03*
G04 #@! TD*
G04 #@! TO.P,Conn4,2*
G04 #@! TO.N,GND*
X165100000Y-93980000D03*
G04 #@! TO.P,Conn4,1*
G04 #@! TO.N,Laser*
X162560000Y-93980000D03*
G04 #@! TD*
G04 #@! TO.P,Conn5,2*
G04 #@! TO.N,GND*
X165100000Y-106680000D03*
G04 #@! TO.P,Conn5,1*
G04 #@! TO.N,Laser*
X162560000Y-106680000D03*
G04 #@! TD*
G04 #@! TO.P,Conn6,2*
G04 #@! TO.N,GND*
X165100000Y-81280000D03*
G04 #@! TO.P,Conn6,1*
G04 #@! TO.N,Solenoid*
X162560000Y-81280000D03*
G04 #@! TD*
G04 #@! TO.P,Conn8,3*
G04 #@! TO.N,Servo2_PWM*
X177800000Y-93980000D03*
G04 #@! TO.P,Conn8,2*
G04 #@! TO.N,+5V*
X175260000Y-93980000D03*
G04 #@! TO.P,Conn8,1*
G04 #@! TO.N,GND*
X172720000Y-93980000D03*
G04 #@! TD*
G04 #@! TO.P,Conn9,3*
G04 #@! TO.N,Servo3_PWM*
X177800000Y-106680000D03*
G04 #@! TO.P,Conn9,2*
G04 #@! TO.N,+5V*
X175260000Y-106680000D03*
G04 #@! TO.P,Conn9,1*
G04 #@! TO.N,GND*
X172720000Y-106680000D03*
G04 #@! TD*
G04 #@! TO.P,U3,3*
G04 #@! TO.N,+5V*
X154940000Y-99060000D03*
G04 #@! TO.P,U3,2*
G04 #@! TO.N,GND*
X152400000Y-99060000D03*
G04 #@! TO.P,U3,1*
G04 #@! TO.N,/V+Log*
X149860000Y-99060000D03*
G04 #@! TD*
D12*
G04 #@! TO.P,Conn10,3*
G04 #@! TO.N,+12V*
X125730000Y-104700000D03*
G04 #@! TO.P,Conn10,2*
G04 #@! TO.N,/V+Log*
X125730000Y-96800000D03*
G04 #@! TO.P,Conn10,1*
G04 #@! TO.N,GND*
X125730000Y-88900000D03*
G04 #@! TD*
G04 #@! TO.P,Conn11,1*
G04 #@! TO.N,GND*
X134620000Y-88900000D03*
G04 #@! TO.P,Conn11,2*
G04 #@! TO.N,/V+Log*
X134620000Y-96800000D03*
G04 #@! TO.P,Conn11,3*
G04 #@! TO.N,+12V*
X134620000Y-104700000D03*
G04 #@! TD*
G04 #@! TO.P,Conn12,1*
G04 #@! TO.N,GND*
X143510000Y-88900000D03*
G04 #@! TO.P,Conn12,2*
G04 #@! TO.N,/V+Log*
X143510000Y-96800000D03*
G04 #@! TO.P,Conn12,3*
G04 #@! TO.N,+12V*
X143510000Y-104700000D03*
G04 #@! TD*
D13*
G04 #@! TO.N,GND*
X200025000Y-113919000D03*
X217170000Y-116840000D03*
X215138000Y-102108000D03*
X196850000Y-102362000D03*
X222250000Y-116840000D03*
X209550000Y-114808000D03*
X126492000Y-113792000D03*
X168656000Y-106680000D03*
X168910000Y-93980000D03*
X169164000Y-81280000D03*
X212090000Y-86360000D03*
X218440000Y-86360000D03*
X236220000Y-86106000D03*
X227076000Y-86360000D03*
X243078000Y-86106000D03*
X189230000Y-101346000D03*
G04 #@! TO.N,+5V*
X196850000Y-104140000D03*
X212090000Y-104140000D03*
X154940000Y-104140000D03*
G04 #@! TO.N,+12V*
X152400000Y-84836000D03*
X152400000Y-79756000D03*
G04 #@! TD*
D14*
G04 #@! TO.N,+5V*
X212090000Y-104140000D02*
X196850000Y-104140000D01*
X196850000Y-104140000D02*
X172720000Y-104140000D01*
X175260000Y-106680000D02*
X175260000Y-105602370D01*
X175260000Y-104140000D02*
X171196000Y-104140000D01*
X171196000Y-104140000D02*
X154940000Y-104140000D01*
X172154315Y-104140000D02*
X171196000Y-104140000D01*
X175260000Y-104140000D02*
X175260000Y-81280000D01*
X175260000Y-105602370D02*
X175260000Y-104140000D01*
G04 #@! TO.N,+12V*
X122137898Y-104700000D02*
X121920000Y-104482102D01*
X125730000Y-104700000D02*
X122137898Y-104700000D01*
X121920000Y-104482102D02*
X121920000Y-83058000D01*
X122936000Y-82042000D02*
X152400000Y-82042000D01*
X121920000Y-83058000D02*
X122936000Y-82042000D01*
X152400000Y-79756000D02*
X152400000Y-82042000D01*
X152400000Y-82042000D02*
X152400000Y-84836000D01*
G04 #@! TD*
D15*
G04 #@! TO.N,GND*
G36*
X243453543Y-74659772D02*
X243798894Y-74816794D01*
X244086293Y-75064434D01*
X244292637Y-75382783D01*
X244408368Y-75769761D01*
X244425000Y-75986354D01*
X244425001Y-100789189D01*
X244364228Y-101213543D01*
X244207206Y-101558894D01*
X243959568Y-101846292D01*
X243641217Y-102052637D01*
X243254238Y-102168368D01*
X243037529Y-102185009D01*
X243037451Y-102185026D01*
X227447353Y-102194924D01*
X227330000Y-102171581D01*
X227062727Y-102224745D01*
X226836143Y-102376144D01*
X226684745Y-102602728D01*
X226682716Y-102612927D01*
X226682576Y-102613137D01*
X226653019Y-102762225D01*
X226645000Y-102802539D01*
X226645000Y-102802673D01*
X226629582Y-102880443D01*
X226645000Y-102957699D01*
X226645001Y-123630533D01*
X226631581Y-123698000D01*
X226684745Y-123965273D01*
X226836143Y-124191857D01*
X227062727Y-124343255D01*
X227262538Y-124383000D01*
X227262539Y-124383000D01*
X227330000Y-124396419D01*
X227397462Y-124383000D01*
X243029196Y-124383000D01*
X243453543Y-124443772D01*
X243798894Y-124600794D01*
X244086293Y-124848434D01*
X244292637Y-125166783D01*
X244408368Y-125553761D01*
X244425000Y-125770354D01*
X244425001Y-133267689D01*
X244410515Y-133269944D01*
X244321614Y-133297124D01*
X244232381Y-133323217D01*
X244224786Y-133326727D01*
X244224783Y-133326728D01*
X244224780Y-133326730D01*
X243703269Y-133571578D01*
X243625593Y-133622601D01*
X243547246Y-133672706D01*
X243540939Y-133678208D01*
X243109107Y-134059589D01*
X243048845Y-134130396D01*
X242987739Y-134200444D01*
X242983233Y-134207491D01*
X242983230Y-134207494D01*
X242983230Y-134207495D01*
X242675797Y-134694748D01*
X242637854Y-134779571D01*
X242598841Y-134864003D01*
X242596492Y-134872036D01*
X242438171Y-135425988D01*
X242425546Y-135518155D01*
X242411813Y-135610042D01*
X242411813Y-135618403D01*
X242411812Y-135618410D01*
X242411813Y-135618417D01*
X242415333Y-136194534D01*
X242429070Y-136286455D01*
X242441691Y-136378585D01*
X242444039Y-136386616D01*
X242444040Y-136386620D01*
X242444042Y-136386624D01*
X242609116Y-136938595D01*
X242648094Y-137022951D01*
X242686072Y-137107853D01*
X242690582Y-137114904D01*
X243003945Y-137598363D01*
X243065045Y-137668404D01*
X243125312Y-137739217D01*
X243131615Y-137744715D01*
X243131619Y-137744719D01*
X243131624Y-137744722D01*
X243568078Y-138120795D01*
X243646393Y-138170880D01*
X243724100Y-138221924D01*
X243731691Y-138225431D01*
X243731697Y-138225435D01*
X243731703Y-138225437D01*
X244256164Y-138463895D01*
X244345358Y-138489977D01*
X244425000Y-138514326D01*
X244425001Y-146509189D01*
X244364228Y-146933543D01*
X244207206Y-147278894D01*
X243959568Y-147566292D01*
X243641217Y-147772637D01*
X243254238Y-147888368D01*
X243037646Y-147905000D01*
X122730804Y-147905000D01*
X122306457Y-147844228D01*
X121961106Y-147687206D01*
X121673708Y-147439568D01*
X121467363Y-147121217D01*
X121351632Y-146734238D01*
X121335000Y-146517646D01*
X121335000Y-138512311D01*
X121349485Y-138510056D01*
X121438386Y-138482876D01*
X121527619Y-138456783D01*
X121535214Y-138453273D01*
X121535217Y-138453272D01*
X121535220Y-138453270D01*
X122056731Y-138208422D01*
X122134407Y-138157399D01*
X122212754Y-138107294D01*
X122219061Y-138101792D01*
X122650893Y-137720411D01*
X122711155Y-137649604D01*
X122772261Y-137579556D01*
X122776767Y-137572509D01*
X122776770Y-137572506D01*
X122776772Y-137572503D01*
X123084203Y-137085252D01*
X123122160Y-137000397D01*
X123161159Y-136915997D01*
X123163508Y-136907965D01*
X123321829Y-136354012D01*
X123334454Y-136261845D01*
X123348187Y-136169958D01*
X123348187Y-136161597D01*
X123348188Y-136161590D01*
X123348187Y-136161583D01*
X123344667Y-135585466D01*
X123330925Y-135493518D01*
X123318309Y-135401414D01*
X123315960Y-135393382D01*
X123150884Y-134841404D01*
X123111899Y-134757032D01*
X123073928Y-134672147D01*
X123069419Y-134665096D01*
X122756055Y-134181637D01*
X122694955Y-134111596D01*
X122634688Y-134040783D01*
X122628385Y-134035285D01*
X122628381Y-134035281D01*
X122628376Y-134035278D01*
X122191922Y-133659205D01*
X122113607Y-133609120D01*
X122035900Y-133558076D01*
X122028309Y-133554569D01*
X122028303Y-133554565D01*
X122028297Y-133554563D01*
X121503836Y-133316105D01*
X121414642Y-133290023D01*
X121335000Y-133265674D01*
X121335000Y-123187622D01*
X121642517Y-123315000D01*
X122197483Y-123315000D01*
X122710204Y-123102624D01*
X123102624Y-122710204D01*
X123190000Y-122499260D01*
X123277376Y-122710204D01*
X123669796Y-123102624D01*
X124182517Y-123315000D01*
X124737483Y-123315000D01*
X125250204Y-123102624D01*
X125642624Y-122710204D01*
X125730000Y-122499260D01*
X125817376Y-122710204D01*
X126209796Y-123102624D01*
X126722517Y-123315000D01*
X127277483Y-123315000D01*
X127790204Y-123102624D01*
X128182624Y-122710204D01*
X128270000Y-122499260D01*
X128357376Y-122710204D01*
X128749796Y-123102624D01*
X129262517Y-123315000D01*
X129817483Y-123315000D01*
X130330204Y-123102624D01*
X130722624Y-122710204D01*
X130810000Y-122499260D01*
X130897376Y-122710204D01*
X131289796Y-123102624D01*
X131802517Y-123315000D01*
X132357483Y-123315000D01*
X132870204Y-123102624D01*
X133262624Y-122710204D01*
X133350000Y-122499260D01*
X133437376Y-122710204D01*
X133829796Y-123102624D01*
X134342517Y-123315000D01*
X134897483Y-123315000D01*
X135410204Y-123102624D01*
X135802624Y-122710204D01*
X135890000Y-122499260D01*
X135977376Y-122710204D01*
X136369796Y-123102624D01*
X136882517Y-123315000D01*
X137437483Y-123315000D01*
X137950204Y-123102624D01*
X138342624Y-122710204D01*
X138430000Y-122499260D01*
X138517376Y-122710204D01*
X138909796Y-123102624D01*
X139422517Y-123315000D01*
X139977483Y-123315000D01*
X140490204Y-123102624D01*
X140882624Y-122710204D01*
X140970000Y-122499260D01*
X141057376Y-122710204D01*
X141449796Y-123102624D01*
X141962517Y-123315000D01*
X142517483Y-123315000D01*
X143030204Y-123102624D01*
X143422624Y-122710204D01*
X143510000Y-122499260D01*
X143597376Y-122710204D01*
X143989796Y-123102624D01*
X144502517Y-123315000D01*
X145057483Y-123315000D01*
X145570204Y-123102624D01*
X145962624Y-122710204D01*
X146175000Y-122197483D01*
X146175000Y-121642517D01*
X145962624Y-121129796D01*
X145570204Y-120737376D01*
X145359260Y-120650000D01*
X145570204Y-120562624D01*
X145962624Y-120170204D01*
X146175000Y-119657483D01*
X146175000Y-119102517D01*
X184025000Y-119102517D01*
X184025000Y-119657483D01*
X184237376Y-120170204D01*
X184629796Y-120562624D01*
X184840740Y-120650000D01*
X184629796Y-120737376D01*
X184237376Y-121129796D01*
X184025000Y-121642517D01*
X184025000Y-122197483D01*
X184237376Y-122710204D01*
X184629796Y-123102624D01*
X185142517Y-123315000D01*
X185697483Y-123315000D01*
X186210204Y-123102624D01*
X186602624Y-122710204D01*
X186690000Y-122499260D01*
X186777376Y-122710204D01*
X187169796Y-123102624D01*
X187682517Y-123315000D01*
X188237483Y-123315000D01*
X188750204Y-123102624D01*
X189142624Y-122710204D01*
X189230000Y-122499260D01*
X189317376Y-122710204D01*
X189709796Y-123102624D01*
X190222517Y-123315000D01*
X190777483Y-123315000D01*
X191290204Y-123102624D01*
X191682624Y-122710204D01*
X191770000Y-122499260D01*
X191857376Y-122710204D01*
X192249796Y-123102624D01*
X192762517Y-123315000D01*
X193317483Y-123315000D01*
X193830204Y-123102624D01*
X194222624Y-122710204D01*
X194310000Y-122499260D01*
X194397376Y-122710204D01*
X194789796Y-123102624D01*
X195302517Y-123315000D01*
X195857483Y-123315000D01*
X196370204Y-123102624D01*
X196762624Y-122710204D01*
X196850000Y-122499260D01*
X196937376Y-122710204D01*
X197329796Y-123102624D01*
X197842517Y-123315000D01*
X198397483Y-123315000D01*
X198910204Y-123102624D01*
X199302624Y-122710204D01*
X199390000Y-122499260D01*
X199477376Y-122710204D01*
X199869796Y-123102624D01*
X200382517Y-123315000D01*
X200937483Y-123315000D01*
X201450204Y-123102624D01*
X201842624Y-122710204D01*
X201930000Y-122499260D01*
X202017376Y-122710204D01*
X202409796Y-123102624D01*
X202922517Y-123315000D01*
X203477483Y-123315000D01*
X203990204Y-123102624D01*
X204382624Y-122710204D01*
X204470000Y-122499260D01*
X204557376Y-122710204D01*
X204949796Y-123102624D01*
X205462517Y-123315000D01*
X206017483Y-123315000D01*
X206530204Y-123102624D01*
X206922624Y-122710204D01*
X207010000Y-122499260D01*
X207097376Y-122710204D01*
X207489796Y-123102624D01*
X208002517Y-123315000D01*
X208557483Y-123315000D01*
X209070204Y-123102624D01*
X209462624Y-122710204D01*
X209675000Y-122197483D01*
X209675000Y-121642517D01*
X209462624Y-121129796D01*
X209070204Y-120737376D01*
X208859260Y-120650000D01*
X209070204Y-120562624D01*
X209462624Y-120170204D01*
X209675000Y-119657483D01*
X209675000Y-119102517D01*
X209462624Y-118589796D01*
X209070204Y-118197376D01*
X208557483Y-117985000D01*
X208002517Y-117985000D01*
X207489796Y-118197376D01*
X207097376Y-118589796D01*
X207010000Y-118800740D01*
X206922624Y-118589796D01*
X206530204Y-118197376D01*
X206017483Y-117985000D01*
X205462517Y-117985000D01*
X204949796Y-118197376D01*
X204557376Y-118589796D01*
X204470000Y-118800740D01*
X204382624Y-118589796D01*
X203990204Y-118197376D01*
X203477483Y-117985000D01*
X202922517Y-117985000D01*
X202409796Y-118197376D01*
X202017376Y-118589796D01*
X201930000Y-118800740D01*
X201842624Y-118589796D01*
X201450204Y-118197376D01*
X200937483Y-117985000D01*
X200382517Y-117985000D01*
X199869796Y-118197376D01*
X199477376Y-118589796D01*
X199390000Y-118800740D01*
X199302624Y-118589796D01*
X198910204Y-118197376D01*
X198397483Y-117985000D01*
X197842517Y-117985000D01*
X197329796Y-118197376D01*
X196937376Y-118589796D01*
X196850000Y-118800740D01*
X196762624Y-118589796D01*
X196370204Y-118197376D01*
X195857483Y-117985000D01*
X195302517Y-117985000D01*
X194789796Y-118197376D01*
X194397376Y-118589796D01*
X194310000Y-118800740D01*
X194222624Y-118589796D01*
X193830204Y-118197376D01*
X193317483Y-117985000D01*
X192762517Y-117985000D01*
X192249796Y-118197376D01*
X191857376Y-118589796D01*
X191770000Y-118800740D01*
X191682624Y-118589796D01*
X191290204Y-118197376D01*
X190777483Y-117985000D01*
X190222517Y-117985000D01*
X189709796Y-118197376D01*
X189317376Y-118589796D01*
X189105000Y-119102517D01*
X189105000Y-119657483D01*
X189317376Y-120170204D01*
X189709796Y-120562624D01*
X189920740Y-120650000D01*
X189709796Y-120737376D01*
X189317376Y-121129796D01*
X189230000Y-121340740D01*
X189142624Y-121129796D01*
X188750204Y-120737376D01*
X188237483Y-120525000D01*
X187682517Y-120525000D01*
X187169796Y-120737376D01*
X186777376Y-121129796D01*
X186690000Y-121340740D01*
X186602624Y-121129796D01*
X186210204Y-120737376D01*
X185999260Y-120650000D01*
X186210204Y-120562624D01*
X186602624Y-120170204D01*
X186815000Y-119657483D01*
X186815000Y-119102517D01*
X186602624Y-118589796D01*
X186210204Y-118197376D01*
X185697483Y-117985000D01*
X185142517Y-117985000D01*
X184629796Y-118197376D01*
X184237376Y-118589796D01*
X184025000Y-119102517D01*
X146175000Y-119102517D01*
X145962624Y-118589796D01*
X145570204Y-118197376D01*
X145057483Y-117985000D01*
X144502517Y-117985000D01*
X143989796Y-118197376D01*
X143597376Y-118589796D01*
X143510000Y-118800740D01*
X143422624Y-118589796D01*
X143030204Y-118197376D01*
X142517483Y-117985000D01*
X141962517Y-117985000D01*
X141449796Y-118197376D01*
X141057376Y-118589796D01*
X140970000Y-118800740D01*
X140882624Y-118589796D01*
X140490204Y-118197376D01*
X139977483Y-117985000D01*
X139422517Y-117985000D01*
X138909796Y-118197376D01*
X138517376Y-118589796D01*
X138430000Y-118800740D01*
X138342624Y-118589796D01*
X137950204Y-118197376D01*
X137437483Y-117985000D01*
X136882517Y-117985000D01*
X136369796Y-118197376D01*
X135977376Y-118589796D01*
X135890000Y-118800740D01*
X135802624Y-118589796D01*
X135410204Y-118197376D01*
X134897483Y-117985000D01*
X134342517Y-117985000D01*
X133829796Y-118197376D01*
X133437376Y-118589796D01*
X133350000Y-118800740D01*
X133262624Y-118589796D01*
X132870204Y-118197376D01*
X132357483Y-117985000D01*
X131802517Y-117985000D01*
X131289796Y-118197376D01*
X130897376Y-118589796D01*
X130810000Y-118800740D01*
X130722624Y-118589796D01*
X130330204Y-118197376D01*
X129817483Y-117985000D01*
X129262517Y-117985000D01*
X128749796Y-118197376D01*
X128357376Y-118589796D01*
X128270000Y-118800740D01*
X128182624Y-118589796D01*
X127790204Y-118197376D01*
X127277483Y-117985000D01*
X126722517Y-117985000D01*
X126209796Y-118197376D01*
X125817376Y-118589796D01*
X125605000Y-119102517D01*
X125605000Y-119657483D01*
X125817376Y-120170204D01*
X126209796Y-120562624D01*
X126420740Y-120650000D01*
X126209796Y-120737376D01*
X125817376Y-121129796D01*
X125730000Y-121340740D01*
X125642624Y-121129796D01*
X125250204Y-120737376D01*
X124737483Y-120525000D01*
X124182517Y-120525000D01*
X123669796Y-120737376D01*
X123277376Y-121129796D01*
X123190000Y-121340740D01*
X123102624Y-121129796D01*
X122710204Y-120737376D01*
X122499260Y-120650000D01*
X122710204Y-120562624D01*
X123102624Y-120170204D01*
X123315000Y-119657483D01*
X123315000Y-119102517D01*
X123102624Y-118589796D01*
X122710204Y-118197376D01*
X122197483Y-117985000D01*
X121642517Y-117985000D01*
X121335000Y-118112378D01*
X121335000Y-105333942D01*
X121348718Y-105347660D01*
X121405403Y-105432495D01*
X121741475Y-105657051D01*
X122037833Y-105716000D01*
X122037834Y-105716000D01*
X122137897Y-105735904D01*
X122237961Y-105716000D01*
X122714246Y-105716000D01*
X123038365Y-106498493D01*
X123931507Y-107391635D01*
X125098453Y-107875000D01*
X126361547Y-107875000D01*
X127528493Y-107391635D01*
X128421635Y-106498493D01*
X128905000Y-105331547D01*
X128905000Y-104068453D01*
X131445000Y-104068453D01*
X131445000Y-105331547D01*
X131928365Y-106498493D01*
X132821507Y-107391635D01*
X133988453Y-107875000D01*
X135251547Y-107875000D01*
X136418493Y-107391635D01*
X137311635Y-106498493D01*
X137795000Y-105331547D01*
X137795000Y-104068453D01*
X140335000Y-104068453D01*
X140335000Y-105331547D01*
X140818365Y-106498493D01*
X141711507Y-107391635D01*
X142878453Y-107875000D01*
X144141547Y-107875000D01*
X145308493Y-107391635D01*
X146201635Y-106498493D01*
X146241554Y-106402119D01*
X161163000Y-106402119D01*
X161163000Y-106957881D01*
X161375680Y-107471337D01*
X161768663Y-107864320D01*
X162282119Y-108077000D01*
X162837881Y-108077000D01*
X163351337Y-107864320D01*
X163744320Y-107471337D01*
X163957000Y-106957881D01*
X163957000Y-106402119D01*
X163744320Y-105888663D01*
X163351337Y-105495680D01*
X162837881Y-105283000D01*
X162282119Y-105283000D01*
X161768663Y-105495680D01*
X161375680Y-105888663D01*
X161163000Y-106402119D01*
X146241554Y-106402119D01*
X146685000Y-105331547D01*
X146685000Y-104140000D01*
X153904096Y-104140000D01*
X153905000Y-104144545D01*
X153905000Y-104345874D01*
X153982045Y-104531877D01*
X153982949Y-104536423D01*
X153985524Y-104540277D01*
X154062569Y-104726280D01*
X154204930Y-104868641D01*
X154207505Y-104872495D01*
X154211359Y-104875070D01*
X154353720Y-105017431D01*
X154539723Y-105094476D01*
X154543577Y-105097051D01*
X154548123Y-105097955D01*
X154734126Y-105175000D01*
X155145874Y-105175000D01*
X155191744Y-105156000D01*
X174244000Y-105156000D01*
X174244000Y-105702434D01*
X174244001Y-105702438D01*
X174244001Y-105720342D01*
X174075680Y-105888663D01*
X173863000Y-106402119D01*
X173863000Y-106957881D01*
X174075680Y-107471337D01*
X174468663Y-107864320D01*
X174982119Y-108077000D01*
X175537881Y-108077000D01*
X176051337Y-107864320D01*
X176444320Y-107471337D01*
X176530000Y-107264487D01*
X176615680Y-107471337D01*
X177008663Y-107864320D01*
X177522119Y-108077000D01*
X178077881Y-108077000D01*
X178591337Y-107864320D01*
X178984320Y-107471337D01*
X179197000Y-106957881D01*
X179197000Y-106402119D01*
X178984320Y-105888663D01*
X178591337Y-105495680D01*
X178077881Y-105283000D01*
X177522119Y-105283000D01*
X177008663Y-105495680D01*
X176615680Y-105888663D01*
X176530000Y-106095513D01*
X176444320Y-105888663D01*
X176276000Y-105720343D01*
X176276000Y-105156000D01*
X196598256Y-105156000D01*
X196644126Y-105175000D01*
X197055874Y-105175000D01*
X197101744Y-105156000D01*
X211838256Y-105156000D01*
X211884126Y-105175000D01*
X212295874Y-105175000D01*
X212481877Y-105097955D01*
X212486423Y-105097051D01*
X212490277Y-105094476D01*
X212676280Y-105017431D01*
X212818641Y-104875070D01*
X212822495Y-104872495D01*
X212825070Y-104868641D01*
X212967431Y-104726280D01*
X213044476Y-104540277D01*
X213047051Y-104536423D01*
X213047955Y-104531877D01*
X213125000Y-104345874D01*
X213125000Y-104144545D01*
X213125904Y-104140000D01*
X213125000Y-104135455D01*
X213125000Y-103934126D01*
X213047955Y-103748123D01*
X213047051Y-103743577D01*
X213044476Y-103739723D01*
X212967431Y-103553720D01*
X212825070Y-103411359D01*
X212822495Y-103407505D01*
X212818641Y-103404930D01*
X212676280Y-103262569D01*
X212490277Y-103185524D01*
X212486423Y-103182949D01*
X212481877Y-103182045D01*
X212295874Y-103105000D01*
X211884126Y-103105000D01*
X211838256Y-103124000D01*
X197101744Y-103124000D01*
X197055874Y-103105000D01*
X196644126Y-103105000D01*
X196598256Y-103124000D01*
X176276000Y-103124000D01*
X176276000Y-94939657D01*
X176444320Y-94771337D01*
X176530000Y-94564487D01*
X176615680Y-94771337D01*
X177008663Y-95164320D01*
X177522119Y-95377000D01*
X178077881Y-95377000D01*
X178591337Y-95164320D01*
X178984320Y-94771337D01*
X179197000Y-94257881D01*
X179197000Y-93702119D01*
X178984320Y-93188663D01*
X178591337Y-92795680D01*
X178077881Y-92583000D01*
X177522119Y-92583000D01*
X177008663Y-92795680D01*
X176615680Y-93188663D01*
X176530000Y-93395513D01*
X176444320Y-93188663D01*
X176276000Y-93020343D01*
X176276000Y-82239657D01*
X176444320Y-82071337D01*
X176530000Y-81864487D01*
X176615680Y-82071337D01*
X177008663Y-82464320D01*
X177522119Y-82677000D01*
X178077881Y-82677000D01*
X178591337Y-82464320D01*
X178984320Y-82071337D01*
X179197000Y-81557881D01*
X179197000Y-81002119D01*
X211963000Y-81002119D01*
X211963000Y-81557881D01*
X212175680Y-82071337D01*
X212568663Y-82464320D01*
X213082119Y-82677000D01*
X213637881Y-82677000D01*
X214151337Y-82464320D01*
X214544320Y-82071337D01*
X214630000Y-81864487D01*
X214715680Y-82071337D01*
X215108663Y-82464320D01*
X215622119Y-82677000D01*
X216177881Y-82677000D01*
X216691337Y-82464320D01*
X217084320Y-82071337D01*
X217297000Y-81557881D01*
X217297000Y-81002119D01*
X219583000Y-81002119D01*
X219583000Y-81557881D01*
X219795680Y-82071337D01*
X220188663Y-82464320D01*
X220702119Y-82677000D01*
X221257881Y-82677000D01*
X221771337Y-82464320D01*
X222164320Y-82071337D01*
X222250000Y-81864487D01*
X222335680Y-82071337D01*
X222728663Y-82464320D01*
X223242119Y-82677000D01*
X223797881Y-82677000D01*
X224311337Y-82464320D01*
X224704320Y-82071337D01*
X224917000Y-81557881D01*
X224917000Y-81002119D01*
X229743000Y-81002119D01*
X229743000Y-81557881D01*
X229955680Y-82071337D01*
X230348663Y-82464320D01*
X230862119Y-82677000D01*
X231417881Y-82677000D01*
X231931337Y-82464320D01*
X232324320Y-82071337D01*
X232410000Y-81864487D01*
X232495680Y-82071337D01*
X232888663Y-82464320D01*
X233402119Y-82677000D01*
X233957881Y-82677000D01*
X234471337Y-82464320D01*
X234864320Y-82071337D01*
X235077000Y-81557881D01*
X235077000Y-81002119D01*
X237363000Y-81002119D01*
X237363000Y-81557881D01*
X237575680Y-82071337D01*
X237968663Y-82464320D01*
X238482119Y-82677000D01*
X239037881Y-82677000D01*
X239551337Y-82464320D01*
X239944320Y-82071337D01*
X240030000Y-81864487D01*
X240115680Y-82071337D01*
X240508663Y-82464320D01*
X241022119Y-82677000D01*
X241577881Y-82677000D01*
X242091337Y-82464320D01*
X242484320Y-82071337D01*
X242697000Y-81557881D01*
X242697000Y-81002119D01*
X242484320Y-80488663D01*
X242091337Y-80095680D01*
X241577881Y-79883000D01*
X241022119Y-79883000D01*
X240508663Y-80095680D01*
X240115680Y-80488663D01*
X240030000Y-80695513D01*
X239944320Y-80488663D01*
X239551337Y-80095680D01*
X239037881Y-79883000D01*
X238482119Y-79883000D01*
X237968663Y-80095680D01*
X237575680Y-80488663D01*
X237363000Y-81002119D01*
X235077000Y-81002119D01*
X234864320Y-80488663D01*
X234471337Y-80095680D01*
X233957881Y-79883000D01*
X233402119Y-79883000D01*
X232888663Y-80095680D01*
X232495680Y-80488663D01*
X232410000Y-80695513D01*
X232324320Y-80488663D01*
X231931337Y-80095680D01*
X231417881Y-79883000D01*
X230862119Y-79883000D01*
X230348663Y-80095680D01*
X229955680Y-80488663D01*
X229743000Y-81002119D01*
X224917000Y-81002119D01*
X224704320Y-80488663D01*
X224311337Y-80095680D01*
X223797881Y-79883000D01*
X223242119Y-79883000D01*
X222728663Y-80095680D01*
X222335680Y-80488663D01*
X222250000Y-80695513D01*
X222164320Y-80488663D01*
X221771337Y-80095680D01*
X221257881Y-79883000D01*
X220702119Y-79883000D01*
X220188663Y-80095680D01*
X219795680Y-80488663D01*
X219583000Y-81002119D01*
X217297000Y-81002119D01*
X217084320Y-80488663D01*
X216691337Y-80095680D01*
X216177881Y-79883000D01*
X215622119Y-79883000D01*
X215108663Y-80095680D01*
X214715680Y-80488663D01*
X214630000Y-80695513D01*
X214544320Y-80488663D01*
X214151337Y-80095680D01*
X213637881Y-79883000D01*
X213082119Y-79883000D01*
X212568663Y-80095680D01*
X212175680Y-80488663D01*
X211963000Y-81002119D01*
X179197000Y-81002119D01*
X178984320Y-80488663D01*
X178591337Y-80095680D01*
X178077881Y-79883000D01*
X177522119Y-79883000D01*
X177008663Y-80095680D01*
X176615680Y-80488663D01*
X176530000Y-80695513D01*
X176444320Y-80488663D01*
X176051337Y-80095680D01*
X175537881Y-79883000D01*
X174982119Y-79883000D01*
X174468663Y-80095680D01*
X174075680Y-80488663D01*
X173863000Y-81002119D01*
X173863000Y-81557881D01*
X174075680Y-82071337D01*
X174244001Y-82239658D01*
X174244000Y-93020343D01*
X174075680Y-93188663D01*
X173863000Y-93702119D01*
X173863000Y-94257881D01*
X174075680Y-94771337D01*
X174244000Y-94939657D01*
X174244000Y-103124000D01*
X155191744Y-103124000D01*
X155145874Y-103105000D01*
X154734126Y-103105000D01*
X154548123Y-103182045D01*
X154543577Y-103182949D01*
X154539723Y-103185524D01*
X154353720Y-103262569D01*
X154211359Y-103404930D01*
X154207505Y-103407505D01*
X154204930Y-103411359D01*
X154062569Y-103553720D01*
X153985524Y-103739723D01*
X153982949Y-103743577D01*
X153982045Y-103748123D01*
X153905000Y-103934126D01*
X153905000Y-104135455D01*
X153904096Y-104140000D01*
X146685000Y-104140000D01*
X146685000Y-104068453D01*
X146201635Y-102901507D01*
X145308493Y-102008365D01*
X144141547Y-101525000D01*
X142878453Y-101525000D01*
X141711507Y-102008365D01*
X140818365Y-102901507D01*
X140335000Y-104068453D01*
X137795000Y-104068453D01*
X137311635Y-102901507D01*
X136418493Y-102008365D01*
X135251547Y-101525000D01*
X133988453Y-101525000D01*
X132821507Y-102008365D01*
X131928365Y-102901507D01*
X131445000Y-104068453D01*
X128905000Y-104068453D01*
X128421635Y-102901507D01*
X127528493Y-102008365D01*
X126361547Y-101525000D01*
X125098453Y-101525000D01*
X123931507Y-102008365D01*
X123038365Y-102901507D01*
X122936000Y-103148638D01*
X122936000Y-98351362D01*
X123038365Y-98598493D01*
X123931507Y-99491635D01*
X125098453Y-99975000D01*
X126361547Y-99975000D01*
X127528493Y-99491635D01*
X128421635Y-98598493D01*
X128905000Y-97431547D01*
X128905000Y-96168453D01*
X131445000Y-96168453D01*
X131445000Y-97431547D01*
X131928365Y-98598493D01*
X132821507Y-99491635D01*
X133988453Y-99975000D01*
X135251547Y-99975000D01*
X136418493Y-99491635D01*
X137311635Y-98598493D01*
X137795000Y-97431547D01*
X137795000Y-96168453D01*
X140335000Y-96168453D01*
X140335000Y-97431547D01*
X140818365Y-98598493D01*
X141711507Y-99491635D01*
X142878453Y-99975000D01*
X144141547Y-99975000D01*
X145308493Y-99491635D01*
X146018009Y-98782119D01*
X148463000Y-98782119D01*
X148463000Y-99337881D01*
X148675680Y-99851337D01*
X149068663Y-100244320D01*
X149582119Y-100457000D01*
X150137881Y-100457000D01*
X150651337Y-100244320D01*
X151044320Y-99851337D01*
X151257000Y-99337881D01*
X151257000Y-98782119D01*
X153543000Y-98782119D01*
X153543000Y-99337881D01*
X153755680Y-99851337D01*
X154148663Y-100244320D01*
X154662119Y-100457000D01*
X155217881Y-100457000D01*
X155731337Y-100244320D01*
X156124320Y-99851337D01*
X156337000Y-99337881D01*
X156337000Y-98782119D01*
X156124320Y-98268663D01*
X155731337Y-97875680D01*
X155217881Y-97663000D01*
X154662119Y-97663000D01*
X154148663Y-97875680D01*
X153755680Y-98268663D01*
X153543000Y-98782119D01*
X151257000Y-98782119D01*
X151044320Y-98268663D01*
X150651337Y-97875680D01*
X150137881Y-97663000D01*
X149582119Y-97663000D01*
X149068663Y-97875680D01*
X148675680Y-98268663D01*
X148463000Y-98782119D01*
X146018009Y-98782119D01*
X146201635Y-98598493D01*
X146685000Y-97431547D01*
X146685000Y-96168453D01*
X146201635Y-95001507D01*
X145308493Y-94108365D01*
X144327729Y-93702119D01*
X161163000Y-93702119D01*
X161163000Y-94257881D01*
X161375680Y-94771337D01*
X161768663Y-95164320D01*
X162282119Y-95377000D01*
X162837881Y-95377000D01*
X163351337Y-95164320D01*
X163744320Y-94771337D01*
X163957000Y-94257881D01*
X163957000Y-93702119D01*
X163744320Y-93188663D01*
X163351337Y-92795680D01*
X162837881Y-92583000D01*
X162282119Y-92583000D01*
X161768663Y-92795680D01*
X161375680Y-93188663D01*
X161163000Y-93702119D01*
X144327729Y-93702119D01*
X144141547Y-93625000D01*
X142878453Y-93625000D01*
X141711507Y-94108365D01*
X140818365Y-95001507D01*
X140335000Y-96168453D01*
X137795000Y-96168453D01*
X137311635Y-95001507D01*
X136418493Y-94108365D01*
X135251547Y-93625000D01*
X133988453Y-93625000D01*
X132821507Y-94108365D01*
X131928365Y-95001507D01*
X131445000Y-96168453D01*
X128905000Y-96168453D01*
X128421635Y-95001507D01*
X127528493Y-94108365D01*
X126361547Y-93625000D01*
X125098453Y-93625000D01*
X123931507Y-94108365D01*
X123038365Y-95001507D01*
X122936000Y-95248638D01*
X122936000Y-83478840D01*
X123356841Y-83058000D01*
X151384000Y-83058000D01*
X151384001Y-84584254D01*
X151365000Y-84630126D01*
X151365000Y-85041874D01*
X151442047Y-85227881D01*
X151442950Y-85232423D01*
X151445523Y-85236273D01*
X151522569Y-85422280D01*
X151664933Y-85564644D01*
X151667506Y-85568495D01*
X151671357Y-85571068D01*
X151813720Y-85713431D01*
X151999725Y-85790477D01*
X152003578Y-85793051D01*
X152008122Y-85793955D01*
X152194126Y-85871000D01*
X152395455Y-85871000D01*
X152400000Y-85871904D01*
X152404545Y-85871000D01*
X152605874Y-85871000D01*
X152791877Y-85793955D01*
X152796423Y-85793051D01*
X152800277Y-85790476D01*
X152986280Y-85713431D01*
X153128641Y-85571070D01*
X153132495Y-85568495D01*
X153135070Y-85564641D01*
X153277431Y-85422280D01*
X153354476Y-85236277D01*
X153357051Y-85232423D01*
X153357955Y-85227877D01*
X153435000Y-85041874D01*
X153435000Y-84630126D01*
X153416000Y-84584256D01*
X153416000Y-82142065D01*
X153435904Y-82042000D01*
X153416000Y-81941935D01*
X153416000Y-81002119D01*
X161163000Y-81002119D01*
X161163000Y-81557881D01*
X161375680Y-82071337D01*
X161768663Y-82464320D01*
X162282119Y-82677000D01*
X162837881Y-82677000D01*
X163351337Y-82464320D01*
X163744320Y-82071337D01*
X163957000Y-81557881D01*
X163957000Y-81002119D01*
X163744320Y-80488663D01*
X163351337Y-80095680D01*
X162837881Y-79883000D01*
X162282119Y-79883000D01*
X161768663Y-80095680D01*
X161375680Y-80488663D01*
X161163000Y-81002119D01*
X153416000Y-81002119D01*
X153416000Y-80007744D01*
X153435000Y-79961874D01*
X153435000Y-79550126D01*
X153357955Y-79364123D01*
X153357051Y-79359577D01*
X153354476Y-79355723D01*
X153277431Y-79169720D01*
X153135070Y-79027359D01*
X153132495Y-79023505D01*
X153128641Y-79020930D01*
X152986280Y-78878569D01*
X152800275Y-78801523D01*
X152796422Y-78798949D01*
X152791878Y-78798045D01*
X152605874Y-78721000D01*
X152404545Y-78721000D01*
X152400000Y-78720096D01*
X152395455Y-78721000D01*
X152194126Y-78721000D01*
X152008123Y-78798045D01*
X152003577Y-78798949D01*
X151999723Y-78801524D01*
X151813720Y-78878569D01*
X151671359Y-79020930D01*
X151667505Y-79023505D01*
X151664930Y-79027359D01*
X151522569Y-79169720D01*
X151445523Y-79355725D01*
X151442949Y-79359578D01*
X151442045Y-79364122D01*
X151365000Y-79550126D01*
X151365000Y-79961874D01*
X151384000Y-80007744D01*
X151384001Y-81026000D01*
X123036063Y-81026000D01*
X122936000Y-81006096D01*
X122835936Y-81026000D01*
X122835935Y-81026000D01*
X122539577Y-81084949D01*
X122203505Y-81309505D01*
X122146822Y-81394337D01*
X121335000Y-82206160D01*
X121335000Y-80007622D01*
X121642517Y-80135000D01*
X122197483Y-80135000D01*
X122710204Y-79922624D01*
X123102624Y-79530204D01*
X123190000Y-79319260D01*
X123277376Y-79530204D01*
X123669796Y-79922624D01*
X124182517Y-80135000D01*
X124737483Y-80135000D01*
X125250204Y-79922624D01*
X125642624Y-79530204D01*
X125730000Y-79319260D01*
X125817376Y-79530204D01*
X126209796Y-79922624D01*
X126722517Y-80135000D01*
X127277483Y-80135000D01*
X127790204Y-79922624D01*
X128182624Y-79530204D01*
X128270000Y-79319260D01*
X128357376Y-79530204D01*
X128749796Y-79922624D01*
X129262517Y-80135000D01*
X129817483Y-80135000D01*
X130330204Y-79922624D01*
X130722624Y-79530204D01*
X130810000Y-79319260D01*
X130897376Y-79530204D01*
X131289796Y-79922624D01*
X131802517Y-80135000D01*
X132357483Y-80135000D01*
X132870204Y-79922624D01*
X133262624Y-79530204D01*
X133350000Y-79319260D01*
X133437376Y-79530204D01*
X133829796Y-79922624D01*
X134342517Y-80135000D01*
X134897483Y-80135000D01*
X135410204Y-79922624D01*
X135802624Y-79530204D01*
X135890000Y-79319260D01*
X135977376Y-79530204D01*
X136369796Y-79922624D01*
X136882517Y-80135000D01*
X137437483Y-80135000D01*
X137950204Y-79922624D01*
X138342624Y-79530204D01*
X138430000Y-79319260D01*
X138517376Y-79530204D01*
X138909796Y-79922624D01*
X139422517Y-80135000D01*
X139977483Y-80135000D01*
X140490204Y-79922624D01*
X140882624Y-79530204D01*
X140970000Y-79319260D01*
X141057376Y-79530204D01*
X141449796Y-79922624D01*
X141962517Y-80135000D01*
X142517483Y-80135000D01*
X143030204Y-79922624D01*
X143422624Y-79530204D01*
X143510000Y-79319260D01*
X143597376Y-79530204D01*
X143989796Y-79922624D01*
X144502517Y-80135000D01*
X145057483Y-80135000D01*
X145570204Y-79922624D01*
X145962624Y-79530204D01*
X146175000Y-79017483D01*
X146175000Y-78462517D01*
X184025000Y-78462517D01*
X184025000Y-79017483D01*
X184237376Y-79530204D01*
X184629796Y-79922624D01*
X185142517Y-80135000D01*
X185697483Y-80135000D01*
X186210204Y-79922624D01*
X186602624Y-79530204D01*
X186690000Y-79319260D01*
X186777376Y-79530204D01*
X187169796Y-79922624D01*
X187682517Y-80135000D01*
X188237483Y-80135000D01*
X188750204Y-79922624D01*
X189142624Y-79530204D01*
X189230000Y-79319260D01*
X189317376Y-79530204D01*
X189709796Y-79922624D01*
X190222517Y-80135000D01*
X190777483Y-80135000D01*
X191290204Y-79922624D01*
X191682624Y-79530204D01*
X191770000Y-79319260D01*
X191857376Y-79530204D01*
X192249796Y-79922624D01*
X192762517Y-80135000D01*
X193317483Y-80135000D01*
X193830204Y-79922624D01*
X194222624Y-79530204D01*
X194310000Y-79319260D01*
X194397376Y-79530204D01*
X194789796Y-79922624D01*
X195302517Y-80135000D01*
X195857483Y-80135000D01*
X196370204Y-79922624D01*
X196762624Y-79530204D01*
X196850000Y-79319260D01*
X196937376Y-79530204D01*
X197329796Y-79922624D01*
X197842517Y-80135000D01*
X198397483Y-80135000D01*
X198910204Y-79922624D01*
X199302624Y-79530204D01*
X199390000Y-79319260D01*
X199477376Y-79530204D01*
X199869796Y-79922624D01*
X200382517Y-80135000D01*
X200937483Y-80135000D01*
X201450204Y-79922624D01*
X201842624Y-79530204D01*
X201930000Y-79319260D01*
X202017376Y-79530204D01*
X202409796Y-79922624D01*
X202922517Y-80135000D01*
X203477483Y-80135000D01*
X203990204Y-79922624D01*
X204382624Y-79530204D01*
X204470000Y-79319260D01*
X204557376Y-79530204D01*
X204949796Y-79922624D01*
X205462517Y-80135000D01*
X206017483Y-80135000D01*
X206530204Y-79922624D01*
X206922624Y-79530204D01*
X207010000Y-79319260D01*
X207097376Y-79530204D01*
X207489796Y-79922624D01*
X208002517Y-80135000D01*
X208557483Y-80135000D01*
X209070204Y-79922624D01*
X209462624Y-79530204D01*
X209675000Y-79017483D01*
X209675000Y-78462517D01*
X209462624Y-77949796D01*
X209070204Y-77557376D01*
X208859260Y-77470000D01*
X209070204Y-77382624D01*
X209462624Y-76990204D01*
X209675000Y-76477483D01*
X209675000Y-75922517D01*
X209462624Y-75409796D01*
X209070204Y-75017376D01*
X208557483Y-74805000D01*
X208002517Y-74805000D01*
X207489796Y-75017376D01*
X207097376Y-75409796D01*
X207010000Y-75620740D01*
X206922624Y-75409796D01*
X206530204Y-75017376D01*
X206017483Y-74805000D01*
X205462517Y-74805000D01*
X204949796Y-75017376D01*
X204557376Y-75409796D01*
X204470000Y-75620740D01*
X204382624Y-75409796D01*
X203990204Y-75017376D01*
X203477483Y-74805000D01*
X202922517Y-74805000D01*
X202409796Y-75017376D01*
X202017376Y-75409796D01*
X201930000Y-75620740D01*
X201842624Y-75409796D01*
X201450204Y-75017376D01*
X200937483Y-74805000D01*
X200382517Y-74805000D01*
X199869796Y-75017376D01*
X199477376Y-75409796D01*
X199390000Y-75620740D01*
X199302624Y-75409796D01*
X198910204Y-75017376D01*
X198397483Y-74805000D01*
X197842517Y-74805000D01*
X197329796Y-75017376D01*
X196937376Y-75409796D01*
X196850000Y-75620740D01*
X196762624Y-75409796D01*
X196370204Y-75017376D01*
X195857483Y-74805000D01*
X195302517Y-74805000D01*
X194789796Y-75017376D01*
X194397376Y-75409796D01*
X194310000Y-75620740D01*
X194222624Y-75409796D01*
X193830204Y-75017376D01*
X193317483Y-74805000D01*
X192762517Y-74805000D01*
X192249796Y-75017376D01*
X191857376Y-75409796D01*
X191770000Y-75620740D01*
X191682624Y-75409796D01*
X191290204Y-75017376D01*
X190777483Y-74805000D01*
X190222517Y-74805000D01*
X189709796Y-75017376D01*
X189317376Y-75409796D01*
X189230000Y-75620740D01*
X189142624Y-75409796D01*
X188750204Y-75017376D01*
X188237483Y-74805000D01*
X187682517Y-74805000D01*
X187169796Y-75017376D01*
X186777376Y-75409796D01*
X186565000Y-75922517D01*
X186565000Y-76477483D01*
X186777376Y-76990204D01*
X187169796Y-77382624D01*
X187380740Y-77470000D01*
X187169796Y-77557376D01*
X186777376Y-77949796D01*
X186690000Y-78160740D01*
X186602624Y-77949796D01*
X186210204Y-77557376D01*
X185697483Y-77345000D01*
X185142517Y-77345000D01*
X184629796Y-77557376D01*
X184237376Y-77949796D01*
X184025000Y-78462517D01*
X146175000Y-78462517D01*
X145962624Y-77949796D01*
X145570204Y-77557376D01*
X145359260Y-77470000D01*
X145570204Y-77382624D01*
X145962624Y-76990204D01*
X146175000Y-76477483D01*
X146175000Y-75922517D01*
X145962624Y-75409796D01*
X145570204Y-75017376D01*
X145057483Y-74805000D01*
X144502517Y-74805000D01*
X143989796Y-75017376D01*
X143597376Y-75409796D01*
X143510000Y-75620740D01*
X143422624Y-75409796D01*
X143030204Y-75017376D01*
X142517483Y-74805000D01*
X141962517Y-74805000D01*
X141449796Y-75017376D01*
X141057376Y-75409796D01*
X140970000Y-75620740D01*
X140882624Y-75409796D01*
X140490204Y-75017376D01*
X139977483Y-74805000D01*
X139422517Y-74805000D01*
X138909796Y-75017376D01*
X138517376Y-75409796D01*
X138430000Y-75620740D01*
X138342624Y-75409796D01*
X137950204Y-75017376D01*
X137437483Y-74805000D01*
X136882517Y-74805000D01*
X136369796Y-75017376D01*
X135977376Y-75409796D01*
X135890000Y-75620740D01*
X135802624Y-75409796D01*
X135410204Y-75017376D01*
X134897483Y-74805000D01*
X134342517Y-74805000D01*
X133829796Y-75017376D01*
X133437376Y-75409796D01*
X133350000Y-75620740D01*
X133262624Y-75409796D01*
X132870204Y-75017376D01*
X132357483Y-74805000D01*
X131802517Y-74805000D01*
X131289796Y-75017376D01*
X130897376Y-75409796D01*
X130810000Y-75620740D01*
X130722624Y-75409796D01*
X130330204Y-75017376D01*
X129817483Y-74805000D01*
X129262517Y-74805000D01*
X128749796Y-75017376D01*
X128357376Y-75409796D01*
X128270000Y-75620740D01*
X128182624Y-75409796D01*
X127790204Y-75017376D01*
X127277483Y-74805000D01*
X126722517Y-74805000D01*
X126209796Y-75017376D01*
X125817376Y-75409796D01*
X125730000Y-75620740D01*
X125642624Y-75409796D01*
X125250204Y-75017376D01*
X124737483Y-74805000D01*
X124182517Y-74805000D01*
X123669796Y-75017376D01*
X123277376Y-75409796D01*
X123065000Y-75922517D01*
X123065000Y-76477483D01*
X123277376Y-76990204D01*
X123669796Y-77382624D01*
X123880740Y-77470000D01*
X123669796Y-77557376D01*
X123277376Y-77949796D01*
X123190000Y-78160740D01*
X123102624Y-77949796D01*
X122710204Y-77557376D01*
X122197483Y-77345000D01*
X121642517Y-77345000D01*
X121335000Y-77472378D01*
X121335000Y-76061880D01*
X121338820Y-76049385D01*
X121340057Y-76041108D01*
X121407747Y-75568455D01*
X121564769Y-75223104D01*
X121812409Y-74935705D01*
X122130758Y-74729361D01*
X122517736Y-74613630D01*
X122708257Y-74599000D01*
X243029196Y-74599000D01*
X243453543Y-74659772D01*
X243453543Y-74659772D01*
G37*
X243453543Y-74659772D02*
X243798894Y-74816794D01*
X244086293Y-75064434D01*
X244292637Y-75382783D01*
X244408368Y-75769761D01*
X244425000Y-75986354D01*
X244425001Y-100789189D01*
X244364228Y-101213543D01*
X244207206Y-101558894D01*
X243959568Y-101846292D01*
X243641217Y-102052637D01*
X243254238Y-102168368D01*
X243037529Y-102185009D01*
X243037451Y-102185026D01*
X227447353Y-102194924D01*
X227330000Y-102171581D01*
X227062727Y-102224745D01*
X226836143Y-102376144D01*
X226684745Y-102602728D01*
X226682716Y-102612927D01*
X226682576Y-102613137D01*
X226653019Y-102762225D01*
X226645000Y-102802539D01*
X226645000Y-102802673D01*
X226629582Y-102880443D01*
X226645000Y-102957699D01*
X226645001Y-123630533D01*
X226631581Y-123698000D01*
X226684745Y-123965273D01*
X226836143Y-124191857D01*
X227062727Y-124343255D01*
X227262538Y-124383000D01*
X227262539Y-124383000D01*
X227330000Y-124396419D01*
X227397462Y-124383000D01*
X243029196Y-124383000D01*
X243453543Y-124443772D01*
X243798894Y-124600794D01*
X244086293Y-124848434D01*
X244292637Y-125166783D01*
X244408368Y-125553761D01*
X244425000Y-125770354D01*
X244425001Y-133267689D01*
X244410515Y-133269944D01*
X244321614Y-133297124D01*
X244232381Y-133323217D01*
X244224786Y-133326727D01*
X244224783Y-133326728D01*
X244224780Y-133326730D01*
X243703269Y-133571578D01*
X243625593Y-133622601D01*
X243547246Y-133672706D01*
X243540939Y-133678208D01*
X243109107Y-134059589D01*
X243048845Y-134130396D01*
X242987739Y-134200444D01*
X242983233Y-134207491D01*
X242983230Y-134207494D01*
X242983230Y-134207495D01*
X242675797Y-134694748D01*
X242637854Y-134779571D01*
X242598841Y-134864003D01*
X242596492Y-134872036D01*
X242438171Y-135425988D01*
X242425546Y-135518155D01*
X242411813Y-135610042D01*
X242411813Y-135618403D01*
X242411812Y-135618410D01*
X242411813Y-135618417D01*
X242415333Y-136194534D01*
X242429070Y-136286455D01*
X242441691Y-136378585D01*
X242444039Y-136386616D01*
X242444040Y-136386620D01*
X242444042Y-136386624D01*
X242609116Y-136938595D01*
X242648094Y-137022951D01*
X242686072Y-137107853D01*
X242690582Y-137114904D01*
X243003945Y-137598363D01*
X243065045Y-137668404D01*
X243125312Y-137739217D01*
X243131615Y-137744715D01*
X243131619Y-137744719D01*
X243131624Y-137744722D01*
X243568078Y-138120795D01*
X243646393Y-138170880D01*
X243724100Y-138221924D01*
X243731691Y-138225431D01*
X243731697Y-138225435D01*
X243731703Y-138225437D01*
X244256164Y-138463895D01*
X244345358Y-138489977D01*
X244425000Y-138514326D01*
X244425001Y-146509189D01*
X244364228Y-146933543D01*
X244207206Y-147278894D01*
X243959568Y-147566292D01*
X243641217Y-147772637D01*
X243254238Y-147888368D01*
X243037646Y-147905000D01*
X122730804Y-147905000D01*
X122306457Y-147844228D01*
X121961106Y-147687206D01*
X121673708Y-147439568D01*
X121467363Y-147121217D01*
X121351632Y-146734238D01*
X121335000Y-146517646D01*
X121335000Y-138512311D01*
X121349485Y-138510056D01*
X121438386Y-138482876D01*
X121527619Y-138456783D01*
X121535214Y-138453273D01*
X121535217Y-138453272D01*
X121535220Y-138453270D01*
X122056731Y-138208422D01*
X122134407Y-138157399D01*
X122212754Y-138107294D01*
X122219061Y-138101792D01*
X122650893Y-137720411D01*
X122711155Y-137649604D01*
X122772261Y-137579556D01*
X122776767Y-137572509D01*
X122776770Y-137572506D01*
X122776772Y-137572503D01*
X123084203Y-137085252D01*
X123122160Y-137000397D01*
X123161159Y-136915997D01*
X123163508Y-136907965D01*
X123321829Y-136354012D01*
X123334454Y-136261845D01*
X123348187Y-136169958D01*
X123348187Y-136161597D01*
X123348188Y-136161590D01*
X123348187Y-136161583D01*
X123344667Y-135585466D01*
X123330925Y-135493518D01*
X123318309Y-135401414D01*
X123315960Y-135393382D01*
X123150884Y-134841404D01*
X123111899Y-134757032D01*
X123073928Y-134672147D01*
X123069419Y-134665096D01*
X122756055Y-134181637D01*
X122694955Y-134111596D01*
X122634688Y-134040783D01*
X122628385Y-134035285D01*
X122628381Y-134035281D01*
X122628376Y-134035278D01*
X122191922Y-133659205D01*
X122113607Y-133609120D01*
X122035900Y-133558076D01*
X122028309Y-133554569D01*
X122028303Y-133554565D01*
X122028297Y-133554563D01*
X121503836Y-133316105D01*
X121414642Y-133290023D01*
X121335000Y-133265674D01*
X121335000Y-123187622D01*
X121642517Y-123315000D01*
X122197483Y-123315000D01*
X122710204Y-123102624D01*
X123102624Y-122710204D01*
X123190000Y-122499260D01*
X123277376Y-122710204D01*
X123669796Y-123102624D01*
X124182517Y-123315000D01*
X124737483Y-123315000D01*
X125250204Y-123102624D01*
X125642624Y-122710204D01*
X125730000Y-122499260D01*
X125817376Y-122710204D01*
X126209796Y-123102624D01*
X126722517Y-123315000D01*
X127277483Y-123315000D01*
X127790204Y-123102624D01*
X128182624Y-122710204D01*
X128270000Y-122499260D01*
X128357376Y-122710204D01*
X128749796Y-123102624D01*
X129262517Y-123315000D01*
X129817483Y-123315000D01*
X130330204Y-123102624D01*
X130722624Y-122710204D01*
X130810000Y-122499260D01*
X130897376Y-122710204D01*
X131289796Y-123102624D01*
X131802517Y-123315000D01*
X132357483Y-123315000D01*
X132870204Y-123102624D01*
X133262624Y-122710204D01*
X133350000Y-122499260D01*
X133437376Y-122710204D01*
X133829796Y-123102624D01*
X134342517Y-123315000D01*
X134897483Y-123315000D01*
X135410204Y-123102624D01*
X135802624Y-122710204D01*
X135890000Y-122499260D01*
X135977376Y-122710204D01*
X136369796Y-123102624D01*
X136882517Y-123315000D01*
X137437483Y-123315000D01*
X137950204Y-123102624D01*
X138342624Y-122710204D01*
X138430000Y-122499260D01*
X138517376Y-122710204D01*
X138909796Y-123102624D01*
X139422517Y-123315000D01*
X139977483Y-123315000D01*
X140490204Y-123102624D01*
X140882624Y-122710204D01*
X140970000Y-122499260D01*
X141057376Y-122710204D01*
X141449796Y-123102624D01*
X141962517Y-123315000D01*
X142517483Y-123315000D01*
X143030204Y-123102624D01*
X143422624Y-122710204D01*
X143510000Y-122499260D01*
X143597376Y-122710204D01*
X143989796Y-123102624D01*
X144502517Y-123315000D01*
X145057483Y-123315000D01*
X145570204Y-123102624D01*
X145962624Y-122710204D01*
X146175000Y-122197483D01*
X146175000Y-121642517D01*
X145962624Y-121129796D01*
X145570204Y-120737376D01*
X145359260Y-120650000D01*
X145570204Y-120562624D01*
X145962624Y-120170204D01*
X146175000Y-119657483D01*
X146175000Y-119102517D01*
X184025000Y-119102517D01*
X184025000Y-119657483D01*
X184237376Y-120170204D01*
X184629796Y-120562624D01*
X184840740Y-120650000D01*
X184629796Y-120737376D01*
X184237376Y-121129796D01*
X184025000Y-121642517D01*
X184025000Y-122197483D01*
X184237376Y-122710204D01*
X184629796Y-123102624D01*
X185142517Y-123315000D01*
X185697483Y-123315000D01*
X186210204Y-123102624D01*
X186602624Y-122710204D01*
X186690000Y-122499260D01*
X186777376Y-122710204D01*
X187169796Y-123102624D01*
X187682517Y-123315000D01*
X188237483Y-123315000D01*
X188750204Y-123102624D01*
X189142624Y-122710204D01*
X189230000Y-122499260D01*
X189317376Y-122710204D01*
X189709796Y-123102624D01*
X190222517Y-123315000D01*
X190777483Y-123315000D01*
X191290204Y-123102624D01*
X191682624Y-122710204D01*
X191770000Y-122499260D01*
X191857376Y-122710204D01*
X192249796Y-123102624D01*
X192762517Y-123315000D01*
X193317483Y-123315000D01*
X193830204Y-123102624D01*
X194222624Y-122710204D01*
X194310000Y-122499260D01*
X194397376Y-122710204D01*
X194789796Y-123102624D01*
X195302517Y-123315000D01*
X195857483Y-123315000D01*
X196370204Y-123102624D01*
X196762624Y-122710204D01*
X196850000Y-122499260D01*
X196937376Y-122710204D01*
X197329796Y-123102624D01*
X197842517Y-123315000D01*
X198397483Y-123315000D01*
X198910204Y-123102624D01*
X199302624Y-122710204D01*
X199390000Y-122499260D01*
X199477376Y-122710204D01*
X199869796Y-123102624D01*
X200382517Y-123315000D01*
X200937483Y-123315000D01*
X201450204Y-123102624D01*
X201842624Y-122710204D01*
X201930000Y-122499260D01*
X202017376Y-122710204D01*
X202409796Y-123102624D01*
X202922517Y-123315000D01*
X203477483Y-123315000D01*
X203990204Y-123102624D01*
X204382624Y-122710204D01*
X204470000Y-122499260D01*
X204557376Y-122710204D01*
X204949796Y-123102624D01*
X205462517Y-123315000D01*
X206017483Y-123315000D01*
X206530204Y-123102624D01*
X206922624Y-122710204D01*
X207010000Y-122499260D01*
X207097376Y-122710204D01*
X207489796Y-123102624D01*
X208002517Y-123315000D01*
X208557483Y-123315000D01*
X209070204Y-123102624D01*
X209462624Y-122710204D01*
X209675000Y-122197483D01*
X209675000Y-121642517D01*
X209462624Y-121129796D01*
X209070204Y-120737376D01*
X208859260Y-120650000D01*
X209070204Y-120562624D01*
X209462624Y-120170204D01*
X209675000Y-119657483D01*
X209675000Y-119102517D01*
X209462624Y-118589796D01*
X209070204Y-118197376D01*
X208557483Y-117985000D01*
X208002517Y-117985000D01*
X207489796Y-118197376D01*
X207097376Y-118589796D01*
X207010000Y-118800740D01*
X206922624Y-118589796D01*
X206530204Y-118197376D01*
X206017483Y-117985000D01*
X205462517Y-117985000D01*
X204949796Y-118197376D01*
X204557376Y-118589796D01*
X204470000Y-118800740D01*
X204382624Y-118589796D01*
X203990204Y-118197376D01*
X203477483Y-117985000D01*
X202922517Y-117985000D01*
X202409796Y-118197376D01*
X202017376Y-118589796D01*
X201930000Y-118800740D01*
X201842624Y-118589796D01*
X201450204Y-118197376D01*
X200937483Y-117985000D01*
X200382517Y-117985000D01*
X199869796Y-118197376D01*
X199477376Y-118589796D01*
X199390000Y-118800740D01*
X199302624Y-118589796D01*
X198910204Y-118197376D01*
X198397483Y-117985000D01*
X197842517Y-117985000D01*
X197329796Y-118197376D01*
X196937376Y-118589796D01*
X196850000Y-118800740D01*
X196762624Y-118589796D01*
X196370204Y-118197376D01*
X195857483Y-117985000D01*
X195302517Y-117985000D01*
X194789796Y-118197376D01*
X194397376Y-118589796D01*
X194310000Y-118800740D01*
X194222624Y-118589796D01*
X193830204Y-118197376D01*
X193317483Y-117985000D01*
X192762517Y-117985000D01*
X192249796Y-118197376D01*
X191857376Y-118589796D01*
X191770000Y-118800740D01*
X191682624Y-118589796D01*
X191290204Y-118197376D01*
X190777483Y-117985000D01*
X190222517Y-117985000D01*
X189709796Y-118197376D01*
X189317376Y-118589796D01*
X189105000Y-119102517D01*
X189105000Y-119657483D01*
X189317376Y-120170204D01*
X189709796Y-120562624D01*
X189920740Y-120650000D01*
X189709796Y-120737376D01*
X189317376Y-121129796D01*
X189230000Y-121340740D01*
X189142624Y-121129796D01*
X188750204Y-120737376D01*
X188237483Y-120525000D01*
X187682517Y-120525000D01*
X187169796Y-120737376D01*
X186777376Y-121129796D01*
X186690000Y-121340740D01*
X186602624Y-121129796D01*
X186210204Y-120737376D01*
X185999260Y-120650000D01*
X186210204Y-120562624D01*
X186602624Y-120170204D01*
X186815000Y-119657483D01*
X186815000Y-119102517D01*
X186602624Y-118589796D01*
X186210204Y-118197376D01*
X185697483Y-117985000D01*
X185142517Y-117985000D01*
X184629796Y-118197376D01*
X184237376Y-118589796D01*
X184025000Y-119102517D01*
X146175000Y-119102517D01*
X145962624Y-118589796D01*
X145570204Y-118197376D01*
X145057483Y-117985000D01*
X144502517Y-117985000D01*
X143989796Y-118197376D01*
X143597376Y-118589796D01*
X143510000Y-118800740D01*
X143422624Y-118589796D01*
X143030204Y-118197376D01*
X142517483Y-117985000D01*
X141962517Y-117985000D01*
X141449796Y-118197376D01*
X141057376Y-118589796D01*
X140970000Y-118800740D01*
X140882624Y-118589796D01*
X140490204Y-118197376D01*
X139977483Y-117985000D01*
X139422517Y-117985000D01*
X138909796Y-118197376D01*
X138517376Y-118589796D01*
X138430000Y-118800740D01*
X138342624Y-118589796D01*
X137950204Y-118197376D01*
X137437483Y-117985000D01*
X136882517Y-117985000D01*
X136369796Y-118197376D01*
X135977376Y-118589796D01*
X135890000Y-118800740D01*
X135802624Y-118589796D01*
X135410204Y-118197376D01*
X134897483Y-117985000D01*
X134342517Y-117985000D01*
X133829796Y-118197376D01*
X133437376Y-118589796D01*
X133350000Y-118800740D01*
X133262624Y-118589796D01*
X132870204Y-118197376D01*
X132357483Y-117985000D01*
X131802517Y-117985000D01*
X131289796Y-118197376D01*
X130897376Y-118589796D01*
X130810000Y-118800740D01*
X130722624Y-118589796D01*
X130330204Y-118197376D01*
X129817483Y-117985000D01*
X129262517Y-117985000D01*
X128749796Y-118197376D01*
X128357376Y-118589796D01*
X128270000Y-118800740D01*
X128182624Y-118589796D01*
X127790204Y-118197376D01*
X127277483Y-117985000D01*
X126722517Y-117985000D01*
X126209796Y-118197376D01*
X125817376Y-118589796D01*
X125605000Y-119102517D01*
X125605000Y-119657483D01*
X125817376Y-120170204D01*
X126209796Y-120562624D01*
X126420740Y-120650000D01*
X126209796Y-120737376D01*
X125817376Y-121129796D01*
X125730000Y-121340740D01*
X125642624Y-121129796D01*
X125250204Y-120737376D01*
X124737483Y-120525000D01*
X124182517Y-120525000D01*
X123669796Y-120737376D01*
X123277376Y-121129796D01*
X123190000Y-121340740D01*
X123102624Y-121129796D01*
X122710204Y-120737376D01*
X122499260Y-120650000D01*
X122710204Y-120562624D01*
X123102624Y-120170204D01*
X123315000Y-119657483D01*
X123315000Y-119102517D01*
X123102624Y-118589796D01*
X122710204Y-118197376D01*
X122197483Y-117985000D01*
X121642517Y-117985000D01*
X121335000Y-118112378D01*
X121335000Y-105333942D01*
X121348718Y-105347660D01*
X121405403Y-105432495D01*
X121741475Y-105657051D01*
X122037833Y-105716000D01*
X122037834Y-105716000D01*
X122137897Y-105735904D01*
X122237961Y-105716000D01*
X122714246Y-105716000D01*
X123038365Y-106498493D01*
X123931507Y-107391635D01*
X125098453Y-107875000D01*
X126361547Y-107875000D01*
X127528493Y-107391635D01*
X128421635Y-106498493D01*
X128905000Y-105331547D01*
X128905000Y-104068453D01*
X131445000Y-104068453D01*
X131445000Y-105331547D01*
X131928365Y-106498493D01*
X132821507Y-107391635D01*
X133988453Y-107875000D01*
X135251547Y-107875000D01*
X136418493Y-107391635D01*
X137311635Y-106498493D01*
X137795000Y-105331547D01*
X137795000Y-104068453D01*
X140335000Y-104068453D01*
X140335000Y-105331547D01*
X140818365Y-106498493D01*
X141711507Y-107391635D01*
X142878453Y-107875000D01*
X144141547Y-107875000D01*
X145308493Y-107391635D01*
X146201635Y-106498493D01*
X146241554Y-106402119D01*
X161163000Y-106402119D01*
X161163000Y-106957881D01*
X161375680Y-107471337D01*
X161768663Y-107864320D01*
X162282119Y-108077000D01*
X162837881Y-108077000D01*
X163351337Y-107864320D01*
X163744320Y-107471337D01*
X163957000Y-106957881D01*
X163957000Y-106402119D01*
X163744320Y-105888663D01*
X163351337Y-105495680D01*
X162837881Y-105283000D01*
X162282119Y-105283000D01*
X161768663Y-105495680D01*
X161375680Y-105888663D01*
X161163000Y-106402119D01*
X146241554Y-106402119D01*
X146685000Y-105331547D01*
X146685000Y-104140000D01*
X153904096Y-104140000D01*
X153905000Y-104144545D01*
X153905000Y-104345874D01*
X153982045Y-104531877D01*
X153982949Y-104536423D01*
X153985524Y-104540277D01*
X154062569Y-104726280D01*
X154204930Y-104868641D01*
X154207505Y-104872495D01*
X154211359Y-104875070D01*
X154353720Y-105017431D01*
X154539723Y-105094476D01*
X154543577Y-105097051D01*
X154548123Y-105097955D01*
X154734126Y-105175000D01*
X155145874Y-105175000D01*
X155191744Y-105156000D01*
X174244000Y-105156000D01*
X174244000Y-105702434D01*
X174244001Y-105702438D01*
X174244001Y-105720342D01*
X174075680Y-105888663D01*
X173863000Y-106402119D01*
X173863000Y-106957881D01*
X174075680Y-107471337D01*
X174468663Y-107864320D01*
X174982119Y-108077000D01*
X175537881Y-108077000D01*
X176051337Y-107864320D01*
X176444320Y-107471337D01*
X176530000Y-107264487D01*
X176615680Y-107471337D01*
X177008663Y-107864320D01*
X177522119Y-108077000D01*
X178077881Y-108077000D01*
X178591337Y-107864320D01*
X178984320Y-107471337D01*
X179197000Y-106957881D01*
X179197000Y-106402119D01*
X178984320Y-105888663D01*
X178591337Y-105495680D01*
X178077881Y-105283000D01*
X177522119Y-105283000D01*
X177008663Y-105495680D01*
X176615680Y-105888663D01*
X176530000Y-106095513D01*
X176444320Y-105888663D01*
X176276000Y-105720343D01*
X176276000Y-105156000D01*
X196598256Y-105156000D01*
X196644126Y-105175000D01*
X197055874Y-105175000D01*
X197101744Y-105156000D01*
X211838256Y-105156000D01*
X211884126Y-105175000D01*
X212295874Y-105175000D01*
X212481877Y-105097955D01*
X212486423Y-105097051D01*
X212490277Y-105094476D01*
X212676280Y-105017431D01*
X212818641Y-104875070D01*
X212822495Y-104872495D01*
X212825070Y-104868641D01*
X212967431Y-104726280D01*
X213044476Y-104540277D01*
X213047051Y-104536423D01*
X213047955Y-104531877D01*
X213125000Y-104345874D01*
X213125000Y-104144545D01*
X213125904Y-104140000D01*
X213125000Y-104135455D01*
X213125000Y-103934126D01*
X213047955Y-103748123D01*
X213047051Y-103743577D01*
X213044476Y-103739723D01*
X212967431Y-103553720D01*
X212825070Y-103411359D01*
X212822495Y-103407505D01*
X212818641Y-103404930D01*
X212676280Y-103262569D01*
X212490277Y-103185524D01*
X212486423Y-103182949D01*
X212481877Y-103182045D01*
X212295874Y-103105000D01*
X211884126Y-103105000D01*
X211838256Y-103124000D01*
X197101744Y-103124000D01*
X197055874Y-103105000D01*
X196644126Y-103105000D01*
X196598256Y-103124000D01*
X176276000Y-103124000D01*
X176276000Y-94939657D01*
X176444320Y-94771337D01*
X176530000Y-94564487D01*
X176615680Y-94771337D01*
X177008663Y-95164320D01*
X177522119Y-95377000D01*
X178077881Y-95377000D01*
X178591337Y-95164320D01*
X178984320Y-94771337D01*
X179197000Y-94257881D01*
X179197000Y-93702119D01*
X178984320Y-93188663D01*
X178591337Y-92795680D01*
X178077881Y-92583000D01*
X177522119Y-92583000D01*
X177008663Y-92795680D01*
X176615680Y-93188663D01*
X176530000Y-93395513D01*
X176444320Y-93188663D01*
X176276000Y-93020343D01*
X176276000Y-82239657D01*
X176444320Y-82071337D01*
X176530000Y-81864487D01*
X176615680Y-82071337D01*
X177008663Y-82464320D01*
X177522119Y-82677000D01*
X178077881Y-82677000D01*
X178591337Y-82464320D01*
X178984320Y-82071337D01*
X179197000Y-81557881D01*
X179197000Y-81002119D01*
X211963000Y-81002119D01*
X211963000Y-81557881D01*
X212175680Y-82071337D01*
X212568663Y-82464320D01*
X213082119Y-82677000D01*
X213637881Y-82677000D01*
X214151337Y-82464320D01*
X214544320Y-82071337D01*
X214630000Y-81864487D01*
X214715680Y-82071337D01*
X215108663Y-82464320D01*
X215622119Y-82677000D01*
X216177881Y-82677000D01*
X216691337Y-82464320D01*
X217084320Y-82071337D01*
X217297000Y-81557881D01*
X217297000Y-81002119D01*
X219583000Y-81002119D01*
X219583000Y-81557881D01*
X219795680Y-82071337D01*
X220188663Y-82464320D01*
X220702119Y-82677000D01*
X221257881Y-82677000D01*
X221771337Y-82464320D01*
X222164320Y-82071337D01*
X222250000Y-81864487D01*
X222335680Y-82071337D01*
X222728663Y-82464320D01*
X223242119Y-82677000D01*
X223797881Y-82677000D01*
X224311337Y-82464320D01*
X224704320Y-82071337D01*
X224917000Y-81557881D01*
X224917000Y-81002119D01*
X229743000Y-81002119D01*
X229743000Y-81557881D01*
X229955680Y-82071337D01*
X230348663Y-82464320D01*
X230862119Y-82677000D01*
X231417881Y-82677000D01*
X231931337Y-82464320D01*
X232324320Y-82071337D01*
X232410000Y-81864487D01*
X232495680Y-82071337D01*
X232888663Y-82464320D01*
X233402119Y-82677000D01*
X233957881Y-82677000D01*
X234471337Y-82464320D01*
X234864320Y-82071337D01*
X235077000Y-81557881D01*
X235077000Y-81002119D01*
X237363000Y-81002119D01*
X237363000Y-81557881D01*
X237575680Y-82071337D01*
X237968663Y-82464320D01*
X238482119Y-82677000D01*
X239037881Y-82677000D01*
X239551337Y-82464320D01*
X239944320Y-82071337D01*
X240030000Y-81864487D01*
X240115680Y-82071337D01*
X240508663Y-82464320D01*
X241022119Y-82677000D01*
X241577881Y-82677000D01*
X242091337Y-82464320D01*
X242484320Y-82071337D01*
X242697000Y-81557881D01*
X242697000Y-81002119D01*
X242484320Y-80488663D01*
X242091337Y-80095680D01*
X241577881Y-79883000D01*
X241022119Y-79883000D01*
X240508663Y-80095680D01*
X240115680Y-80488663D01*
X240030000Y-80695513D01*
X239944320Y-80488663D01*
X239551337Y-80095680D01*
X239037881Y-79883000D01*
X238482119Y-79883000D01*
X237968663Y-80095680D01*
X237575680Y-80488663D01*
X237363000Y-81002119D01*
X235077000Y-81002119D01*
X234864320Y-80488663D01*
X234471337Y-80095680D01*
X233957881Y-79883000D01*
X233402119Y-79883000D01*
X232888663Y-80095680D01*
X232495680Y-80488663D01*
X232410000Y-80695513D01*
X232324320Y-80488663D01*
X231931337Y-80095680D01*
X231417881Y-79883000D01*
X230862119Y-79883000D01*
X230348663Y-80095680D01*
X229955680Y-80488663D01*
X229743000Y-81002119D01*
X224917000Y-81002119D01*
X224704320Y-80488663D01*
X224311337Y-80095680D01*
X223797881Y-79883000D01*
X223242119Y-79883000D01*
X222728663Y-80095680D01*
X222335680Y-80488663D01*
X222250000Y-80695513D01*
X222164320Y-80488663D01*
X221771337Y-80095680D01*
X221257881Y-79883000D01*
X220702119Y-79883000D01*
X220188663Y-80095680D01*
X219795680Y-80488663D01*
X219583000Y-81002119D01*
X217297000Y-81002119D01*
X217084320Y-80488663D01*
X216691337Y-80095680D01*
X216177881Y-79883000D01*
X215622119Y-79883000D01*
X215108663Y-80095680D01*
X214715680Y-80488663D01*
X214630000Y-80695513D01*
X214544320Y-80488663D01*
X214151337Y-80095680D01*
X213637881Y-79883000D01*
X213082119Y-79883000D01*
X212568663Y-80095680D01*
X212175680Y-80488663D01*
X211963000Y-81002119D01*
X179197000Y-81002119D01*
X178984320Y-80488663D01*
X178591337Y-80095680D01*
X178077881Y-79883000D01*
X177522119Y-79883000D01*
X177008663Y-80095680D01*
X176615680Y-80488663D01*
X176530000Y-80695513D01*
X176444320Y-80488663D01*
X176051337Y-80095680D01*
X175537881Y-79883000D01*
X174982119Y-79883000D01*
X174468663Y-80095680D01*
X174075680Y-80488663D01*
X173863000Y-81002119D01*
X173863000Y-81557881D01*
X174075680Y-82071337D01*
X174244001Y-82239658D01*
X174244000Y-93020343D01*
X174075680Y-93188663D01*
X173863000Y-93702119D01*
X173863000Y-94257881D01*
X174075680Y-94771337D01*
X174244000Y-94939657D01*
X174244000Y-103124000D01*
X155191744Y-103124000D01*
X155145874Y-103105000D01*
X154734126Y-103105000D01*
X154548123Y-103182045D01*
X154543577Y-103182949D01*
X154539723Y-103185524D01*
X154353720Y-103262569D01*
X154211359Y-103404930D01*
X154207505Y-103407505D01*
X154204930Y-103411359D01*
X154062569Y-103553720D01*
X153985524Y-103739723D01*
X153982949Y-103743577D01*
X153982045Y-103748123D01*
X153905000Y-103934126D01*
X153905000Y-104135455D01*
X153904096Y-104140000D01*
X146685000Y-104140000D01*
X146685000Y-104068453D01*
X146201635Y-102901507D01*
X145308493Y-102008365D01*
X144141547Y-101525000D01*
X142878453Y-101525000D01*
X141711507Y-102008365D01*
X140818365Y-102901507D01*
X140335000Y-104068453D01*
X137795000Y-104068453D01*
X137311635Y-102901507D01*
X136418493Y-102008365D01*
X135251547Y-101525000D01*
X133988453Y-101525000D01*
X132821507Y-102008365D01*
X131928365Y-102901507D01*
X131445000Y-104068453D01*
X128905000Y-104068453D01*
X128421635Y-102901507D01*
X127528493Y-102008365D01*
X126361547Y-101525000D01*
X125098453Y-101525000D01*
X123931507Y-102008365D01*
X123038365Y-102901507D01*
X122936000Y-103148638D01*
X122936000Y-98351362D01*
X123038365Y-98598493D01*
X123931507Y-99491635D01*
X125098453Y-99975000D01*
X126361547Y-99975000D01*
X127528493Y-99491635D01*
X128421635Y-98598493D01*
X128905000Y-97431547D01*
X128905000Y-96168453D01*
X131445000Y-96168453D01*
X131445000Y-97431547D01*
X131928365Y-98598493D01*
X132821507Y-99491635D01*
X133988453Y-99975000D01*
X135251547Y-99975000D01*
X136418493Y-99491635D01*
X137311635Y-98598493D01*
X137795000Y-97431547D01*
X137795000Y-96168453D01*
X140335000Y-96168453D01*
X140335000Y-97431547D01*
X140818365Y-98598493D01*
X141711507Y-99491635D01*
X142878453Y-99975000D01*
X144141547Y-99975000D01*
X145308493Y-99491635D01*
X146018009Y-98782119D01*
X148463000Y-98782119D01*
X148463000Y-99337881D01*
X148675680Y-99851337D01*
X149068663Y-100244320D01*
X149582119Y-100457000D01*
X150137881Y-100457000D01*
X150651337Y-100244320D01*
X151044320Y-99851337D01*
X151257000Y-99337881D01*
X151257000Y-98782119D01*
X153543000Y-98782119D01*
X153543000Y-99337881D01*
X153755680Y-99851337D01*
X154148663Y-100244320D01*
X154662119Y-100457000D01*
X155217881Y-100457000D01*
X155731337Y-100244320D01*
X156124320Y-99851337D01*
X156337000Y-99337881D01*
X156337000Y-98782119D01*
X156124320Y-98268663D01*
X155731337Y-97875680D01*
X155217881Y-97663000D01*
X154662119Y-97663000D01*
X154148663Y-97875680D01*
X153755680Y-98268663D01*
X153543000Y-98782119D01*
X151257000Y-98782119D01*
X151044320Y-98268663D01*
X150651337Y-97875680D01*
X150137881Y-97663000D01*
X149582119Y-97663000D01*
X149068663Y-97875680D01*
X148675680Y-98268663D01*
X148463000Y-98782119D01*
X146018009Y-98782119D01*
X146201635Y-98598493D01*
X146685000Y-97431547D01*
X146685000Y-96168453D01*
X146201635Y-95001507D01*
X145308493Y-94108365D01*
X144327729Y-93702119D01*
X161163000Y-93702119D01*
X161163000Y-94257881D01*
X161375680Y-94771337D01*
X161768663Y-95164320D01*
X162282119Y-95377000D01*
X162837881Y-95377000D01*
X163351337Y-95164320D01*
X163744320Y-94771337D01*
X163957000Y-94257881D01*
X163957000Y-93702119D01*
X163744320Y-93188663D01*
X163351337Y-92795680D01*
X162837881Y-92583000D01*
X162282119Y-92583000D01*
X161768663Y-92795680D01*
X161375680Y-93188663D01*
X161163000Y-93702119D01*
X144327729Y-93702119D01*
X144141547Y-93625000D01*
X142878453Y-93625000D01*
X141711507Y-94108365D01*
X140818365Y-95001507D01*
X140335000Y-96168453D01*
X137795000Y-96168453D01*
X137311635Y-95001507D01*
X136418493Y-94108365D01*
X135251547Y-93625000D01*
X133988453Y-93625000D01*
X132821507Y-94108365D01*
X131928365Y-95001507D01*
X131445000Y-96168453D01*
X128905000Y-96168453D01*
X128421635Y-95001507D01*
X127528493Y-94108365D01*
X126361547Y-93625000D01*
X125098453Y-93625000D01*
X123931507Y-94108365D01*
X123038365Y-95001507D01*
X122936000Y-95248638D01*
X122936000Y-83478840D01*
X123356841Y-83058000D01*
X151384000Y-83058000D01*
X151384001Y-84584254D01*
X151365000Y-84630126D01*
X151365000Y-85041874D01*
X151442047Y-85227881D01*
X151442950Y-85232423D01*
X151445523Y-85236273D01*
X151522569Y-85422280D01*
X151664933Y-85564644D01*
X151667506Y-85568495D01*
X151671357Y-85571068D01*
X151813720Y-85713431D01*
X151999725Y-85790477D01*
X152003578Y-85793051D01*
X152008122Y-85793955D01*
X152194126Y-85871000D01*
X152395455Y-85871000D01*
X152400000Y-85871904D01*
X152404545Y-85871000D01*
X152605874Y-85871000D01*
X152791877Y-85793955D01*
X152796423Y-85793051D01*
X152800277Y-85790476D01*
X152986280Y-85713431D01*
X153128641Y-85571070D01*
X153132495Y-85568495D01*
X153135070Y-85564641D01*
X153277431Y-85422280D01*
X153354476Y-85236277D01*
X153357051Y-85232423D01*
X153357955Y-85227877D01*
X153435000Y-85041874D01*
X153435000Y-84630126D01*
X153416000Y-84584256D01*
X153416000Y-82142065D01*
X153435904Y-82042000D01*
X153416000Y-81941935D01*
X153416000Y-81002119D01*
X161163000Y-81002119D01*
X161163000Y-81557881D01*
X161375680Y-82071337D01*
X161768663Y-82464320D01*
X162282119Y-82677000D01*
X162837881Y-82677000D01*
X163351337Y-82464320D01*
X163744320Y-82071337D01*
X163957000Y-81557881D01*
X163957000Y-81002119D01*
X163744320Y-80488663D01*
X163351337Y-80095680D01*
X162837881Y-79883000D01*
X162282119Y-79883000D01*
X161768663Y-80095680D01*
X161375680Y-80488663D01*
X161163000Y-81002119D01*
X153416000Y-81002119D01*
X153416000Y-80007744D01*
X153435000Y-79961874D01*
X153435000Y-79550126D01*
X153357955Y-79364123D01*
X153357051Y-79359577D01*
X153354476Y-79355723D01*
X153277431Y-79169720D01*
X153135070Y-79027359D01*
X153132495Y-79023505D01*
X153128641Y-79020930D01*
X152986280Y-78878569D01*
X152800275Y-78801523D01*
X152796422Y-78798949D01*
X152791878Y-78798045D01*
X152605874Y-78721000D01*
X152404545Y-78721000D01*
X152400000Y-78720096D01*
X152395455Y-78721000D01*
X152194126Y-78721000D01*
X152008123Y-78798045D01*
X152003577Y-78798949D01*
X151999723Y-78801524D01*
X151813720Y-78878569D01*
X151671359Y-79020930D01*
X151667505Y-79023505D01*
X151664930Y-79027359D01*
X151522569Y-79169720D01*
X151445523Y-79355725D01*
X151442949Y-79359578D01*
X151442045Y-79364122D01*
X151365000Y-79550126D01*
X151365000Y-79961874D01*
X151384000Y-80007744D01*
X151384001Y-81026000D01*
X123036063Y-81026000D01*
X122936000Y-81006096D01*
X122835936Y-81026000D01*
X122835935Y-81026000D01*
X122539577Y-81084949D01*
X122203505Y-81309505D01*
X122146822Y-81394337D01*
X121335000Y-82206160D01*
X121335000Y-80007622D01*
X121642517Y-80135000D01*
X122197483Y-80135000D01*
X122710204Y-79922624D01*
X123102624Y-79530204D01*
X123190000Y-79319260D01*
X123277376Y-79530204D01*
X123669796Y-79922624D01*
X124182517Y-80135000D01*
X124737483Y-80135000D01*
X125250204Y-79922624D01*
X125642624Y-79530204D01*
X125730000Y-79319260D01*
X125817376Y-79530204D01*
X126209796Y-79922624D01*
X126722517Y-80135000D01*
X127277483Y-80135000D01*
X127790204Y-79922624D01*
X128182624Y-79530204D01*
X128270000Y-79319260D01*
X128357376Y-79530204D01*
X128749796Y-79922624D01*
X129262517Y-80135000D01*
X129817483Y-80135000D01*
X130330204Y-79922624D01*
X130722624Y-79530204D01*
X130810000Y-79319260D01*
X130897376Y-79530204D01*
X131289796Y-79922624D01*
X131802517Y-80135000D01*
X132357483Y-80135000D01*
X132870204Y-79922624D01*
X133262624Y-79530204D01*
X133350000Y-79319260D01*
X133437376Y-79530204D01*
X133829796Y-79922624D01*
X134342517Y-80135000D01*
X134897483Y-80135000D01*
X135410204Y-79922624D01*
X135802624Y-79530204D01*
X135890000Y-79319260D01*
X135977376Y-79530204D01*
X136369796Y-79922624D01*
X136882517Y-80135000D01*
X137437483Y-80135000D01*
X137950204Y-79922624D01*
X138342624Y-79530204D01*
X138430000Y-79319260D01*
X138517376Y-79530204D01*
X138909796Y-79922624D01*
X139422517Y-80135000D01*
X139977483Y-80135000D01*
X140490204Y-79922624D01*
X140882624Y-79530204D01*
X140970000Y-79319260D01*
X141057376Y-79530204D01*
X141449796Y-79922624D01*
X141962517Y-80135000D01*
X142517483Y-80135000D01*
X143030204Y-79922624D01*
X143422624Y-79530204D01*
X143510000Y-79319260D01*
X143597376Y-79530204D01*
X143989796Y-79922624D01*
X144502517Y-80135000D01*
X145057483Y-80135000D01*
X145570204Y-79922624D01*
X145962624Y-79530204D01*
X146175000Y-79017483D01*
X146175000Y-78462517D01*
X184025000Y-78462517D01*
X184025000Y-79017483D01*
X184237376Y-79530204D01*
X184629796Y-79922624D01*
X185142517Y-80135000D01*
X185697483Y-80135000D01*
X186210204Y-79922624D01*
X186602624Y-79530204D01*
X186690000Y-79319260D01*
X186777376Y-79530204D01*
X187169796Y-79922624D01*
X187682517Y-80135000D01*
X188237483Y-80135000D01*
X188750204Y-79922624D01*
X189142624Y-79530204D01*
X189230000Y-79319260D01*
X189317376Y-79530204D01*
X189709796Y-79922624D01*
X190222517Y-80135000D01*
X190777483Y-80135000D01*
X191290204Y-79922624D01*
X191682624Y-79530204D01*
X191770000Y-79319260D01*
X191857376Y-79530204D01*
X192249796Y-79922624D01*
X192762517Y-80135000D01*
X193317483Y-80135000D01*
X193830204Y-79922624D01*
X194222624Y-79530204D01*
X194310000Y-79319260D01*
X194397376Y-79530204D01*
X194789796Y-79922624D01*
X195302517Y-80135000D01*
X195857483Y-80135000D01*
X196370204Y-79922624D01*
X196762624Y-79530204D01*
X196850000Y-79319260D01*
X196937376Y-79530204D01*
X197329796Y-79922624D01*
X197842517Y-80135000D01*
X198397483Y-80135000D01*
X198910204Y-79922624D01*
X199302624Y-79530204D01*
X199390000Y-79319260D01*
X199477376Y-79530204D01*
X199869796Y-79922624D01*
X200382517Y-80135000D01*
X200937483Y-80135000D01*
X201450204Y-79922624D01*
X201842624Y-79530204D01*
X201930000Y-79319260D01*
X202017376Y-79530204D01*
X202409796Y-79922624D01*
X202922517Y-80135000D01*
X203477483Y-80135000D01*
X203990204Y-79922624D01*
X204382624Y-79530204D01*
X204470000Y-79319260D01*
X204557376Y-79530204D01*
X204949796Y-79922624D01*
X205462517Y-80135000D01*
X206017483Y-80135000D01*
X206530204Y-79922624D01*
X206922624Y-79530204D01*
X207010000Y-79319260D01*
X207097376Y-79530204D01*
X207489796Y-79922624D01*
X208002517Y-80135000D01*
X208557483Y-80135000D01*
X209070204Y-79922624D01*
X209462624Y-79530204D01*
X209675000Y-79017483D01*
X209675000Y-78462517D01*
X209462624Y-77949796D01*
X209070204Y-77557376D01*
X208859260Y-77470000D01*
X209070204Y-77382624D01*
X209462624Y-76990204D01*
X209675000Y-76477483D01*
X209675000Y-75922517D01*
X209462624Y-75409796D01*
X209070204Y-75017376D01*
X208557483Y-74805000D01*
X208002517Y-74805000D01*
X207489796Y-75017376D01*
X207097376Y-75409796D01*
X207010000Y-75620740D01*
X206922624Y-75409796D01*
X206530204Y-75017376D01*
X206017483Y-74805000D01*
X205462517Y-74805000D01*
X204949796Y-75017376D01*
X204557376Y-75409796D01*
X204470000Y-75620740D01*
X204382624Y-75409796D01*
X203990204Y-75017376D01*
X203477483Y-74805000D01*
X202922517Y-74805000D01*
X202409796Y-75017376D01*
X202017376Y-75409796D01*
X201930000Y-75620740D01*
X201842624Y-75409796D01*
X201450204Y-75017376D01*
X200937483Y-74805000D01*
X200382517Y-74805000D01*
X199869796Y-75017376D01*
X199477376Y-75409796D01*
X199390000Y-75620740D01*
X199302624Y-75409796D01*
X198910204Y-75017376D01*
X198397483Y-74805000D01*
X197842517Y-74805000D01*
X197329796Y-75017376D01*
X196937376Y-75409796D01*
X196850000Y-75620740D01*
X196762624Y-75409796D01*
X196370204Y-75017376D01*
X195857483Y-74805000D01*
X195302517Y-74805000D01*
X194789796Y-75017376D01*
X194397376Y-75409796D01*
X194310000Y-75620740D01*
X194222624Y-75409796D01*
X193830204Y-75017376D01*
X193317483Y-74805000D01*
X192762517Y-74805000D01*
X192249796Y-75017376D01*
X191857376Y-75409796D01*
X191770000Y-75620740D01*
X191682624Y-75409796D01*
X191290204Y-75017376D01*
X190777483Y-74805000D01*
X190222517Y-74805000D01*
X189709796Y-75017376D01*
X189317376Y-75409796D01*
X189230000Y-75620740D01*
X189142624Y-75409796D01*
X188750204Y-75017376D01*
X188237483Y-74805000D01*
X187682517Y-74805000D01*
X187169796Y-75017376D01*
X186777376Y-75409796D01*
X186565000Y-75922517D01*
X186565000Y-76477483D01*
X186777376Y-76990204D01*
X187169796Y-77382624D01*
X187380740Y-77470000D01*
X187169796Y-77557376D01*
X186777376Y-77949796D01*
X186690000Y-78160740D01*
X186602624Y-77949796D01*
X186210204Y-77557376D01*
X185697483Y-77345000D01*
X185142517Y-77345000D01*
X184629796Y-77557376D01*
X184237376Y-77949796D01*
X184025000Y-78462517D01*
X146175000Y-78462517D01*
X145962624Y-77949796D01*
X145570204Y-77557376D01*
X145359260Y-77470000D01*
X145570204Y-77382624D01*
X145962624Y-76990204D01*
X146175000Y-76477483D01*
X146175000Y-75922517D01*
X145962624Y-75409796D01*
X145570204Y-75017376D01*
X145057483Y-74805000D01*
X144502517Y-74805000D01*
X143989796Y-75017376D01*
X143597376Y-75409796D01*
X143510000Y-75620740D01*
X143422624Y-75409796D01*
X143030204Y-75017376D01*
X142517483Y-74805000D01*
X141962517Y-74805000D01*
X141449796Y-75017376D01*
X141057376Y-75409796D01*
X140970000Y-75620740D01*
X140882624Y-75409796D01*
X140490204Y-75017376D01*
X139977483Y-74805000D01*
X139422517Y-74805000D01*
X138909796Y-75017376D01*
X138517376Y-75409796D01*
X138430000Y-75620740D01*
X138342624Y-75409796D01*
X137950204Y-75017376D01*
X137437483Y-74805000D01*
X136882517Y-74805000D01*
X136369796Y-75017376D01*
X135977376Y-75409796D01*
X135890000Y-75620740D01*
X135802624Y-75409796D01*
X135410204Y-75017376D01*
X134897483Y-74805000D01*
X134342517Y-74805000D01*
X133829796Y-75017376D01*
X133437376Y-75409796D01*
X133350000Y-75620740D01*
X133262624Y-75409796D01*
X132870204Y-75017376D01*
X132357483Y-74805000D01*
X131802517Y-74805000D01*
X131289796Y-75017376D01*
X130897376Y-75409796D01*
X130810000Y-75620740D01*
X130722624Y-75409796D01*
X130330204Y-75017376D01*
X129817483Y-74805000D01*
X129262517Y-74805000D01*
X128749796Y-75017376D01*
X128357376Y-75409796D01*
X128270000Y-75620740D01*
X128182624Y-75409796D01*
X127790204Y-75017376D01*
X127277483Y-74805000D01*
X126722517Y-74805000D01*
X126209796Y-75017376D01*
X125817376Y-75409796D01*
X125730000Y-75620740D01*
X125642624Y-75409796D01*
X125250204Y-75017376D01*
X124737483Y-74805000D01*
X124182517Y-74805000D01*
X123669796Y-75017376D01*
X123277376Y-75409796D01*
X123065000Y-75922517D01*
X123065000Y-76477483D01*
X123277376Y-76990204D01*
X123669796Y-77382624D01*
X123880740Y-77470000D01*
X123669796Y-77557376D01*
X123277376Y-77949796D01*
X123190000Y-78160740D01*
X123102624Y-77949796D01*
X122710204Y-77557376D01*
X122197483Y-77345000D01*
X121642517Y-77345000D01*
X121335000Y-77472378D01*
X121335000Y-76061880D01*
X121338820Y-76049385D01*
X121340057Y-76041108D01*
X121407747Y-75568455D01*
X121564769Y-75223104D01*
X121812409Y-74935705D01*
X122130758Y-74729361D01*
X122517736Y-74613630D01*
X122708257Y-74599000D01*
X243029196Y-74599000D01*
X243453543Y-74659772D01*
G04 #@! TD*
M02*
