M48
; DRILL file {KiCad (5.1.5)-2} date 2/26/2020 9:45:51 AM
; FORMAT={-:-/ absolute / inch / decimal}
; #@! TF.CreationDate,2020-02-26T09:45:51-06:00
; #@! TF.GenerationSoftware,Kicad,Pcbnew,(5.1.5)-2
; #@! TF.FileFunction,Plated,1,2,PTH
FMAT,2
INCH
T1C0.0157
T2C0.0300
T3C0.0315
T4C0.0350
T5C0.0354
T6C0.1598
T7C0.1616
%
G90
G05
T1
X1.68Y-4.075
X1.68Y-4.515
X1.68Y-4.675
X1.68Y-5.115
X1.685Y-3.31
X1.685Y-3.92
X1.9555Y-3.563
X1.9555Y-3.743
X1.9555Y-3.923
X1.96Y-4.33
X2.0425Y-3.235
X2.063Y-3.563
X2.063Y-3.743
X2.063Y-3.923
X2.09Y-3.235
X2.1375Y-3.235
X2.185Y-3.235
X2.2325Y-3.235
X2.28Y-3.235
X2.335Y-3.31
X2.335Y-3.92
X2.34Y-4.675
X2.34Y-5.115
X2.37Y-4.075
X2.37Y-4.515
X2.42Y-2.39
X2.42Y-2.75
X2.42Y-3.12
X2.42Y-4.7
X2.42Y-4.9325
X2.57Y-5.086
X2.57Y-5.275
X2.577Y-4.883
X2.626Y-5.0855
X2.661Y-4.8
X2.6625Y-4.2425
X2.6625Y-4.6175
X2.685Y-5.086
X2.685Y-5.275
X2.6875Y-4.97
X2.7025Y-4.585
X2.71Y-4.89
X2.7425Y-5.086
X2.76Y-4.7375
X2.76Y-4.8905
X2.7715Y-4.97
X2.7725Y-4.6505
X2.7925Y-4.805
X2.8Y-5.275
X2.8005Y-5.0855
X2.8075Y-4.8525
X2.81Y-4.3
X2.83Y-4.59
X2.8425Y-4.8119
X2.88Y-2.39
X2.88Y-2.75
X2.88Y-3.12
X2.925Y-4.55
X2.94Y-4.45
X2.95Y-4.4
X3.06Y-4.74
X3.06Y-4.805
X3.06Y-4.885
X3.06Y-4.975
X3.06Y-5.045
X3.06Y-5.115
X3.0825Y-4.7725
X3.0825Y-4.845
X3.0825Y-4.9275
X3.0825Y-5.01
X3.0825Y-5.08
X3.105Y-4.74
X3.105Y-4.805
X3.105Y-4.885
X3.105Y-4.975
X3.105Y-5.045
X3.105Y-5.115
X3.1275Y-4.7725
X3.1275Y-4.845
X3.1275Y-4.9275
X3.1275Y-5.01
X3.1275Y-5.08
X3.15Y-4.74
X3.15Y-4.805
X3.15Y-4.885
X3.15Y-4.975
X3.15Y-5.045
X3.15Y-5.115
X3.1725Y-4.7725
X3.1725Y-4.845
X3.1725Y-4.9275
X3.1725Y-5.01
X3.1725Y-5.08
X3.195Y-4.74
X3.195Y-4.805
X3.195Y-4.885
X3.195Y-4.975
X3.195Y-5.045
X3.195Y-5.115
X3.2Y-3.55
X3.2Y-4.065
X3.2175Y-4.7725
X3.2175Y-4.845
X3.2175Y-4.9275
X3.2175Y-5.01
X3.2175Y-5.08
X3.24Y-4.74
X3.24Y-4.805
X3.24Y-4.885
X3.24Y-4.975
X3.24Y-5.045
X3.24Y-5.115
X3.29Y-4.33
X3.3Y-2.15
X3.315Y-4.69
X3.315Y-4.77
X3.315Y-4.845
X3.315Y-5.015
X3.315Y-5.09
X3.315Y-5.17
X3.34Y-4.65
X3.34Y-4.73
X3.34Y-4.81
X3.34Y-4.88
X3.34Y-4.98
X3.34Y-5.05
X3.34Y-5.13
X3.34Y-5.21
X3.35Y-1.905
X3.365Y-4.69
X3.365Y-4.77
X3.365Y-4.845
X3.365Y-5.015
X3.365Y-5.09
X3.365Y-5.17
X3.39Y-4.65
X3.39Y-4.73
X3.39Y-4.81
X3.39Y-4.88
X3.39Y-4.98
X3.39Y-5.05
X3.39Y-5.13
X3.39Y-5.21
X3.4Y-2.15
X3.415Y-4.69
X3.415Y-4.77
X3.415Y-4.845
X3.415Y-5.015
X3.415Y-5.09
X3.415Y-5.17
X3.44Y-4.65
X3.44Y-4.73
X3.44Y-4.81
X3.44Y-4.88
X3.44Y-4.98
X3.44Y-5.05
X3.44Y-5.13
X3.44Y-5.21
X3.465Y-4.69
X3.465Y-4.77
X3.465Y-4.845
X3.465Y-5.015
X3.465Y-5.09
X3.465Y-5.17
X3.5Y-2.39
X3.5Y-2.75
X3.5Y-3.11
X3.845Y-2.1
X3.96Y-2.26
X3.98Y-2.5275
X4.01Y-2.3062
X4.065Y-2.36
X4.075Y-3.4
X4.075Y-3.79
X4.075Y-4.165
X4.085Y-2.18
X4.43Y-3.4725
X4.43Y-3.8475
X4.5025Y-3.8475
X4.505Y-3.4725
X4.63Y-3.5025
X4.7125Y-2.8575
X4.7125Y-3.2025
X4.835Y-3.13
X4.8625Y-3.6875
X5.1125Y-2.8575
X5.1125Y-3.2025
X5.2375Y-3.13
X5.3975Y-2.2925
X5.45Y-2.2925
X5.45Y-3.6085
X5.45Y-3.99
X5.49Y-2.97
X5.49Y-3.38
X5.5Y-2.075
X5.5Y-2.2925
X5.55Y-2.2925
X5.605Y-3.53
X5.605Y-3.825
X5.62Y-4.18
X5.62Y-4.23
X5.62Y-4.28
X5.685Y-4.605
X5.705Y-3.985
X5.705Y-4.405
X5.755Y-4.675
X5.79Y-2.07
X5.79Y-2.82
X5.79Y-3.1
X5.825Y-4.745
X5.8275Y-3.2575
X5.8675Y-3.2575
X5.885Y-2.42
X5.885Y-2.595
X5.895Y-4.815
X5.905Y-3.1
X5.9325Y-2.825
X6.0025Y-2.3075
X6.0025Y-2.485
X6.0025Y-2.6625
X6.07Y-2.825
X6.1175Y-2.42
X6.1175Y-2.59
X6.215Y-2.07
X6.215Y-2.82
X6.215Y-2.97
X6.215Y-3.38
X6.215Y-3.53
X6.215Y-3.825
X6.215Y-3.985
X6.215Y-4.405
X6.35Y-2.075
T2
X2.95Y-3.04
X3.05Y-3.04
X3.15Y-3.04
T3
X6.125Y-4.9025
X6.2234Y-4.9025
X6.125Y-4.6
X6.2234Y-4.6
T4
X3.86Y-4.1
X3.86Y-4.2
X3.86Y-4.3
T5
X4.785Y-2.98
X4.885Y-2.98
X2.49Y-2.68
X2.59Y-2.68
X2.69Y-2.68
X3.57Y-2.32
X3.67Y-2.32
X3.77Y-2.32
X5.185Y-2.98
X5.285Y-2.98
X2.49Y-2.32
X2.59Y-2.32
X2.69Y-2.32
X3.57Y-3.04
X3.67Y-3.04
X3.77Y-3.04
X2.49Y-3.04
X2.59Y-3.04
X2.69Y-3.04
X5.185Y-3.325
X5.285Y-3.325
X2.95Y-2.32
X3.05Y-2.32
X3.15Y-2.32
X3.5725Y-2.68
X3.6725Y-2.68
X3.7725Y-2.68
X4.1475Y-4.0925
X4.2475Y-4.0925
X4.785Y-3.325
X4.885Y-3.325
X4.145Y-3.72
X4.245Y-3.72
X2.95Y-2.68
X3.05Y-2.68
X3.15Y-2.68
X4.1475Y-3.33
X4.2475Y-3.33
T6
X5.315Y-5.1
X5.625Y-5.1
X5.935Y-5.1
T7
X4.8965Y-4.4724
X4.8965Y-4.7835
X4.8965Y-5.0945
X4.5865Y-4.4724
X4.5865Y-4.7835
X4.5865Y-5.0945
X3.9615Y-4.7835
X3.9615Y-5.0945
X4.274Y-4.4724
X4.274Y-4.7835
X4.274Y-5.0945
T0
M30
