%TF.GenerationSoftware,KiCad,Pcbnew,7.0.7*%
%TF.CreationDate,2023-11-13T00:04:05-06:00*%
%TF.ProjectId,Armboard_Hardware,41726d62-6f61-4726-945f-486172647761,rev?*%
%TF.SameCoordinates,Original*%
%TF.FileFunction,Soldermask,Bot*%
%TF.FilePolarity,Negative*%
%FSLAX46Y46*%
G04 Gerber Fmt 4.6, Leading zero omitted, Abs format (unit mm)*
G04 Created by KiCad (PCBNEW 7.0.7) date 2023-11-13 00:04:05*
%MOMM*%
%LPD*%
G01*
G04 APERTURE LIST*
%ADD10C,3.450000*%
%ADD11C,1.524000*%
%ADD12C,2.946400*%
%ADD13C,1.308000*%
%ADD14C,1.208000*%
%ADD15O,2.200000X3.500000*%
%ADD16R,1.500000X2.500000*%
%ADD17O,1.500000X2.500000*%
%ADD18C,1.100000*%
%ADD19C,1.400000*%
%ADD20C,4.000000*%
%ADD21C,2.000000*%
%ADD22O,5.100000X3.000000*%
G04 APERTURE END LIST*
D10*
%TO.C,Conn22*%
X145465800Y-116840000D03*
X145465800Y-127000000D03*
D11*
X136829800Y-118110000D03*
X136829800Y-120650000D03*
X136829800Y-123190000D03*
X136829800Y-125730000D03*
%TD*%
%TO.C,Conn19*%
X95250000Y-50800000D03*
X92710000Y-50800000D03*
X90170000Y-50800000D03*
%TD*%
D12*
%TO.C,V3*%
X69850000Y-171394120D03*
%TD*%
D11*
%TO.C,U6*%
X117602000Y-144526000D03*
X117602000Y-141986000D03*
X117602000Y-139446000D03*
%TD*%
%TO.C,U1*%
X98605000Y-151638000D03*
X98605000Y-149098000D03*
X98605000Y-146558000D03*
%TD*%
D12*
%TO.C,V4*%
X146050000Y-41859200D03*
%TD*%
D11*
%TO.C,Conn13*%
X102870000Y-44196000D03*
X105410000Y-44196000D03*
X107950000Y-44196000D03*
%TD*%
D12*
%TO.C,V2*%
X69855080Y-41864280D03*
%TD*%
D11*
%TO.C,Conn16*%
X133350000Y-50800000D03*
X130810000Y-50800000D03*
X128270000Y-50800000D03*
%TD*%
%TO.C,Conn15*%
X128270000Y-44196000D03*
X130810000Y-44196000D03*
X133350000Y-44196000D03*
%TD*%
D10*
%TO.C,Conn4*%
X70608000Y-77980000D03*
X70612000Y-73152000D03*
D11*
X79248000Y-76835000D03*
X79248000Y-74295000D03*
%TD*%
D13*
%TO.C,U2*%
X127000000Y-131080000D03*
X127000000Y-128540000D03*
X127000000Y-126000000D03*
X127000000Y-123460000D03*
X127000000Y-98060000D03*
X111760000Y-128540000D03*
X127000000Y-120920000D03*
X127000000Y-118380000D03*
X127000000Y-115840000D03*
X127000000Y-113300000D03*
X127000000Y-110760000D03*
X127000000Y-108220000D03*
X127000000Y-105680000D03*
X127000000Y-103140000D03*
X127000000Y-100600000D03*
X111760000Y-100600000D03*
X111760000Y-103140000D03*
X111760000Y-105680000D03*
X111760000Y-108220000D03*
X111760000Y-110760000D03*
X111760000Y-113300000D03*
X111760000Y-115840000D03*
X111760000Y-118380000D03*
X111760000Y-120920000D03*
X111760000Y-123460000D03*
X111760000Y-126000000D03*
X127000000Y-95520000D03*
X127000000Y-92980000D03*
X127000000Y-90440000D03*
X127000000Y-87900000D03*
X127000000Y-85360000D03*
X127000000Y-82820000D03*
X127000000Y-80280000D03*
X127000000Y-77740000D03*
X127000000Y-75200000D03*
X111760000Y-75200000D03*
X111760000Y-77740000D03*
X111760000Y-80280000D03*
X111760000Y-82820000D03*
X111760000Y-85360000D03*
X111760000Y-87900000D03*
X111760000Y-90440000D03*
X111760000Y-92980000D03*
X111760000Y-95520000D03*
X127000000Y-133620000D03*
X111760000Y-98060000D03*
X111760000Y-131080000D03*
D14*
X116210000Y-118650000D03*
X116210000Y-120650000D03*
X114210000Y-120650000D03*
X114210000Y-118650000D03*
X118210000Y-118650000D03*
X118210000Y-120650000D03*
D13*
X111760000Y-133620000D03*
%TD*%
D11*
%TO.C,Conn17*%
X120650000Y-50800000D03*
X118110000Y-50800000D03*
X115570000Y-50800000D03*
%TD*%
%TO.C,Conn14*%
X115570000Y-44196000D03*
X118110000Y-44196000D03*
X120650000Y-44196000D03*
%TD*%
D10*
%TO.C,Conn23*%
X145465800Y-133350000D03*
X145465800Y-143510000D03*
D11*
X136829800Y-134620000D03*
X136829800Y-137160000D03*
X136829800Y-139700000D03*
X136829800Y-142240000D03*
%TD*%
%TO.C,Conn18*%
X107950000Y-50800000D03*
X105410000Y-50800000D03*
X102870000Y-50800000D03*
%TD*%
D10*
%TO.C,Conn6*%
X70608000Y-100840000D03*
X70612000Y-96012000D03*
D11*
X79248000Y-99695000D03*
X79248000Y-97155000D03*
%TD*%
D10*
%TO.C,Conn3*%
X70604000Y-66550000D03*
X70608000Y-61722000D03*
D11*
X79244000Y-65405000D03*
X79244000Y-62865000D03*
%TD*%
D10*
%TO.C,Conn10*%
X70608000Y-157990000D03*
X70612000Y-153162000D03*
D11*
X79248000Y-156845000D03*
X79248000Y-154305000D03*
%TD*%
D10*
%TO.C,Conn25*%
X145465800Y-69850000D03*
X145465800Y-77470000D03*
D11*
X136829800Y-71120000D03*
X136829800Y-73660000D03*
X136829800Y-76200000D03*
%TD*%
D15*
%TO.C,SW1*%
X84709000Y-40640000D03*
X76509000Y-40640000D03*
D16*
X82609000Y-40640000D03*
D17*
X80609000Y-40640000D03*
X78609000Y-40640000D03*
%TD*%
D10*
%TO.C,Conn26*%
X145415000Y-149860000D03*
X145415000Y-157480000D03*
D11*
X136779000Y-151130000D03*
X136779000Y-153670000D03*
X136779000Y-156210000D03*
%TD*%
D10*
%TO.C,Conn9*%
X70608000Y-135130000D03*
X70612000Y-130302000D03*
D11*
X79248000Y-133985000D03*
X79248000Y-131445000D03*
%TD*%
D12*
%TO.C,V1*%
X146066837Y-171390631D03*
%TD*%
D10*
%TO.C,Conn21*%
X145465800Y-100330000D03*
X145465800Y-110490000D03*
D11*
X136829800Y-101600000D03*
X136829800Y-104140000D03*
X136829800Y-106680000D03*
X136829800Y-109220000D03*
%TD*%
D18*
%TO.C,J1*%
X121030000Y-157990000D03*
X122300000Y-155450000D03*
X123570000Y-157990000D03*
X124840000Y-155450000D03*
X126110000Y-157990000D03*
X127380000Y-155450000D03*
X128650000Y-157990000D03*
X129920000Y-155450000D03*
D19*
X119150000Y-169420000D03*
X121690000Y-167630000D03*
X129260000Y-169420000D03*
X131800000Y-167630000D03*
D20*
X119760000Y-164340000D03*
X131190000Y-164340000D03*
D21*
X117600000Y-161290000D03*
X133350000Y-161290000D03*
%TD*%
D10*
%TO.C,Conn24*%
X145465800Y-55880000D03*
X145465800Y-63500000D03*
D11*
X136829800Y-57150000D03*
X136829800Y-59690000D03*
X136829800Y-62230000D03*
%TD*%
D10*
%TO.C,Conn2*%
X70608000Y-55118000D03*
X70612000Y-50290000D03*
D11*
X79248000Y-53973000D03*
X79248000Y-51433000D03*
%TD*%
D10*
%TO.C,Conn7*%
X70608000Y-112270000D03*
X70612000Y-107442000D03*
D11*
X79248000Y-111125000D03*
X79248000Y-108585000D03*
%TD*%
D10*
%TO.C,Conn11*%
X70612000Y-146558000D03*
X70616000Y-141730000D03*
D11*
X79252000Y-145413000D03*
X79252000Y-142873000D03*
%TD*%
D22*
%TO.C,Conn1*%
X101473000Y-157226000D03*
X109347000Y-157226000D03*
%TD*%
D10*
%TO.C,Conn8*%
X70608000Y-123700000D03*
X70612000Y-118872000D03*
D11*
X79248000Y-122555000D03*
X79248000Y-120015000D03*
%TD*%
D10*
%TO.C,Conn20*%
X145465800Y-83820000D03*
X145465800Y-93980000D03*
D11*
X136829800Y-85090000D03*
X136829800Y-87630000D03*
X136829800Y-90170000D03*
X136829800Y-92710000D03*
%TD*%
%TO.C,Conn12*%
X90170000Y-44196000D03*
X92710000Y-44196000D03*
X95250000Y-44196000D03*
%TD*%
D10*
%TO.C,Conn5*%
X70608000Y-89410000D03*
X70612000Y-84582000D03*
D11*
X79248000Y-88265000D03*
X79248000Y-85725000D03*
%TD*%
M02*
