M48
; DRILL file {KiCad 7.0.7} date Mon Nov 13 00:05:43 2023
; FORMAT={-:-/ absolute / inch / decimal}
; #@! TF.CreationDate,2023-11-13T00:05:43-06:00
; #@! TF.GenerationSoftware,Kicad,Pcbnew,7.0.7
; #@! TF.FileFunction,NonPlated,1,2,NPTH
FMAT,2
INCH
; #@! TA.AperFunction,NonPlated,NPTH,ComponentDrill
T1C0.1160
; #@! TA.AperFunction,NonPlated,NPTH,ComponentDrill
T2C0.1358
%
G90
G05
T1
X2.75Y-6.7478
X2.7502Y-1.6482
X5.75Y-1.648
X5.7507Y-6.7477
T2
X2.7797Y-2.6201
X2.7798Y-2.17
X2.7798Y-2.43
X2.7798Y-3.0701
X2.7798Y-3.5201
X2.7798Y-3.9701
X2.7798Y-4.4201
X2.7798Y-4.8701
X2.7798Y-5.3201
X2.7798Y-6.2201
X2.78Y-1.9799
X2.78Y-2.88
X2.78Y-3.33
X2.78Y-3.78
X2.78Y-4.23
X2.78Y-4.68
X2.78Y-5.13
X2.78Y-5.77
X2.78Y-6.03
X2.7802Y-5.5799
X5.725Y-5.9
X5.725Y-6.2
X5.727Y-2.2
X5.727Y-2.5
X5.727Y-2.75
X5.727Y-3.05
X5.727Y-3.3
X5.727Y-3.7
X5.727Y-3.95
X5.727Y-4.35
X5.727Y-4.6
X5.727Y-5.0
X5.727Y-5.25
X5.727Y-5.65
T0
M30
