%TF.GenerationSoftware,KiCad,Pcbnew,7.0.7*%
%TF.CreationDate,2023-11-13T00:04:05-06:00*%
%TF.ProjectId,Armboard_Hardware,41726d62-6f61-4726-945f-486172647761,rev?*%
%TF.SameCoordinates,Original*%
%TF.FileFunction,Soldermask,Top*%
%TF.FilePolarity,Negative*%
%FSLAX46Y46*%
G04 Gerber Fmt 4.6, Leading zero omitted, Abs format (unit mm)*
G04 Created by KiCad (PCBNEW 7.0.7) date 2023-11-13 00:04:05*
%MOMM*%
%LPD*%
G01*
G04 APERTURE LIST*
G04 Aperture macros list*
%AMRoundRect*
0 Rectangle with rounded corners*
0 $1 Rounding radius*
0 $2 $3 $4 $5 $6 $7 $8 $9 X,Y pos of 4 corners*
0 Add a 4 corners polygon primitive as box body*
4,1,4,$2,$3,$4,$5,$6,$7,$8,$9,$2,$3,0*
0 Add four circle primitives for the rounded corners*
1,1,$1+$1,$2,$3*
1,1,$1+$1,$4,$5*
1,1,$1+$1,$6,$7*
1,1,$1+$1,$8,$9*
0 Add four rect primitives between the rounded corners*
20,1,$1+$1,$2,$3,$4,$5,0*
20,1,$1+$1,$4,$5,$6,$7,0*
20,1,$1+$1,$6,$7,$8,$9,0*
20,1,$1+$1,$8,$9,$2,$3,0*%
G04 Aperture macros list end*
%ADD10RoundRect,0.237500X0.250000X0.237500X-0.250000X0.237500X-0.250000X-0.237500X0.250000X-0.237500X0*%
%ADD11RoundRect,0.237500X-0.237500X0.287500X-0.237500X-0.287500X0.237500X-0.287500X0.237500X0.287500X0*%
%ADD12C,3.450000*%
%ADD13C,1.524000*%
%ADD14RoundRect,0.237500X0.237500X-0.250000X0.237500X0.250000X-0.237500X0.250000X-0.237500X-0.250000X0*%
%ADD15RoundRect,0.237500X0.237500X-0.300000X0.237500X0.300000X-0.237500X0.300000X-0.237500X-0.300000X0*%
%ADD16C,2.946400*%
%ADD17RoundRect,0.237500X-0.287500X-0.237500X0.287500X-0.237500X0.287500X0.237500X-0.287500X0.237500X0*%
%ADD18RoundRect,0.237500X-0.237500X0.300000X-0.237500X-0.300000X0.237500X-0.300000X0.237500X0.300000X0*%
%ADD19C,1.308000*%
%ADD20C,1.208000*%
%ADD21R,1.600000X1.400000*%
%ADD22RoundRect,0.150000X-0.825000X-0.150000X0.825000X-0.150000X0.825000X0.150000X-0.825000X0.150000X0*%
%ADD23RoundRect,0.237500X0.287500X0.237500X-0.287500X0.237500X-0.287500X-0.237500X0.287500X-0.237500X0*%
%ADD24O,2.200000X3.500000*%
%ADD25R,1.500000X2.500000*%
%ADD26O,1.500000X2.500000*%
%ADD27RoundRect,0.237500X0.300000X0.237500X-0.300000X0.237500X-0.300000X-0.237500X0.300000X-0.237500X0*%
%ADD28C,1.100000*%
%ADD29C,1.400000*%
%ADD30C,4.000000*%
%ADD31C,2.000000*%
%ADD32RoundRect,0.237500X-0.250000X-0.237500X0.250000X-0.237500X0.250000X0.237500X-0.250000X0.237500X0*%
%ADD33O,5.100000X3.000000*%
%ADD34RoundRect,0.150000X0.587500X0.150000X-0.587500X0.150000X-0.587500X-0.150000X0.587500X-0.150000X0*%
G04 APERTURE END LIST*
D10*
%TO.C,R33*%
X69247300Y-165227000D03*
X67422300Y-165227000D03*
%TD*%
D11*
%TO.C,D21*%
X83820000Y-134874000D03*
X83820000Y-136624000D03*
%TD*%
D10*
%TO.C,R13*%
X100908500Y-81305400D03*
X99083500Y-81305400D03*
%TD*%
%TO.C,R19*%
X100912300Y-104165400D03*
X99087300Y-104165400D03*
%TD*%
%TO.C,R4*%
X100912300Y-61976000D03*
X99087300Y-61976000D03*
%TD*%
D12*
%TO.C,Conn22*%
X145465800Y-116840000D03*
X145465800Y-127000000D03*
D13*
X136829800Y-118110000D03*
X136829800Y-120650000D03*
X136829800Y-123190000D03*
X136829800Y-125730000D03*
%TD*%
D14*
%TO.C,R26*%
X83820000Y-86303500D03*
X83820000Y-84478500D03*
%TD*%
D11*
%TO.C,D15*%
X83820000Y-89154000D03*
X83820000Y-90904000D03*
%TD*%
D10*
%TO.C,R5*%
X100885000Y-69596000D03*
X99060000Y-69596000D03*
%TD*%
D11*
%TO.C,D17*%
X83820000Y-100612000D03*
X83820000Y-102362000D03*
%TD*%
%TO.C,D10*%
X103452300Y-105079800D03*
X103452300Y-106829800D03*
%TD*%
D10*
%TO.C,R18*%
X100912300Y-122936000D03*
X99087300Y-122936000D03*
%TD*%
%TO.C,R8*%
X100912300Y-66040000D03*
X99087300Y-66040000D03*
%TD*%
D11*
%TO.C,D12*%
X103452300Y-120319800D03*
X103452300Y-122069800D03*
%TD*%
D10*
%TO.C,R15*%
X100912300Y-96520000D03*
X99087300Y-96520000D03*
%TD*%
D15*
%TO.C,C4*%
X94742000Y-152908000D03*
X94742000Y-151183000D03*
%TD*%
D13*
%TO.C,Conn19*%
X95250000Y-50800000D03*
X92710000Y-50800000D03*
X90170000Y-50800000D03*
%TD*%
D11*
%TO.C,D13*%
X103452300Y-127914400D03*
X103452300Y-129664400D03*
%TD*%
D14*
%TO.C,R29*%
X83820000Y-74930000D03*
X83820000Y-73105000D03*
%TD*%
D16*
%TO.C,V3*%
X69850000Y-171394120D03*
%TD*%
D11*
%TO.C,D20*%
X83820000Y-123444000D03*
X83820000Y-125194000D03*
%TD*%
D17*
%TO.C,D1*%
X102115000Y-142240000D03*
X103865000Y-142240000D03*
%TD*%
D18*
%TO.C,C6*%
X131596000Y-150497000D03*
X131596000Y-152222000D03*
%TD*%
D11*
%TO.C,D5*%
X103452300Y-66979800D03*
X103452300Y-68729800D03*
%TD*%
D13*
%TO.C,U6*%
X117602000Y-144526000D03*
X117602000Y-141986000D03*
X117602000Y-139446000D03*
%TD*%
%TO.C,U1*%
X98605000Y-151638000D03*
X98605000Y-149098000D03*
X98605000Y-146558000D03*
%TD*%
D11*
%TO.C,D7*%
X103452300Y-82219800D03*
X103452300Y-83969800D03*
%TD*%
D16*
%TO.C,V4*%
X146050000Y-41859200D03*
%TD*%
D13*
%TO.C,Conn13*%
X102870000Y-44196000D03*
X105410000Y-44196000D03*
X107950000Y-44196000D03*
%TD*%
D10*
%TO.C,R24*%
X107950000Y-133604000D03*
X106125000Y-133604000D03*
%TD*%
D15*
%TO.C,C7*%
X114300000Y-141986000D03*
X114300000Y-140261000D03*
%TD*%
D16*
%TO.C,V2*%
X69855080Y-41864280D03*
%TD*%
D13*
%TO.C,Conn16*%
X133350000Y-50800000D03*
X130810000Y-50800000D03*
X128270000Y-50800000D03*
%TD*%
%TO.C,Conn15*%
X128270000Y-44196000D03*
X130810000Y-44196000D03*
X133350000Y-44196000D03*
%TD*%
D12*
%TO.C,Conn4*%
X70608000Y-77980000D03*
X70612000Y-73152000D03*
D13*
X79248000Y-76835000D03*
X79248000Y-74295000D03*
%TD*%
D10*
%TO.C,R1*%
X107950000Y-142240000D03*
X106125000Y-142240000D03*
%TD*%
D19*
%TO.C,U2*%
X127000000Y-131080000D03*
X127000000Y-128540000D03*
X127000000Y-126000000D03*
X127000000Y-123460000D03*
X127000000Y-98060000D03*
X111760000Y-128540000D03*
X127000000Y-120920000D03*
X127000000Y-118380000D03*
X127000000Y-115840000D03*
X127000000Y-113300000D03*
X127000000Y-110760000D03*
X127000000Y-108220000D03*
X127000000Y-105680000D03*
X127000000Y-103140000D03*
X127000000Y-100600000D03*
X111760000Y-100600000D03*
X111760000Y-103140000D03*
X111760000Y-105680000D03*
X111760000Y-108220000D03*
X111760000Y-110760000D03*
X111760000Y-113300000D03*
X111760000Y-115840000D03*
X111760000Y-118380000D03*
X111760000Y-120920000D03*
X111760000Y-123460000D03*
X111760000Y-126000000D03*
X127000000Y-95520000D03*
X127000000Y-92980000D03*
X127000000Y-90440000D03*
X127000000Y-87900000D03*
X127000000Y-85360000D03*
X127000000Y-82820000D03*
X127000000Y-80280000D03*
X127000000Y-77740000D03*
X127000000Y-75200000D03*
X111760000Y-75200000D03*
X111760000Y-77740000D03*
X111760000Y-80280000D03*
X111760000Y-82820000D03*
X111760000Y-85360000D03*
X111760000Y-87900000D03*
X111760000Y-90440000D03*
X111760000Y-92980000D03*
X111760000Y-95520000D03*
X127000000Y-133620000D03*
X111760000Y-98060000D03*
X111760000Y-131080000D03*
D20*
X116210000Y-118650000D03*
X116210000Y-120650000D03*
X114210000Y-120650000D03*
X114210000Y-118650000D03*
X118210000Y-118650000D03*
X118210000Y-120650000D03*
D19*
X111760000Y-133620000D03*
%TD*%
D13*
%TO.C,Conn17*%
X120650000Y-50800000D03*
X118110000Y-50800000D03*
X115570000Y-50800000D03*
%TD*%
D17*
%TO.C,D14*%
X82578000Y-45720000D03*
X84328000Y-45720000D03*
%TD*%
D13*
%TO.C,Conn14*%
X115570000Y-44196000D03*
X118110000Y-44196000D03*
X120650000Y-44196000D03*
%TD*%
D10*
%TO.C,R11*%
X100933900Y-92481400D03*
X99108900Y-92481400D03*
%TD*%
%TO.C,R10*%
X100912300Y-84836000D03*
X99087300Y-84836000D03*
%TD*%
%TO.C,R6*%
X100912300Y-77216000D03*
X99087300Y-77216000D03*
%TD*%
D21*
%TO.C,SW2*%
X88009100Y-58724800D03*
X95209100Y-58724800D03*
X88009100Y-61724800D03*
X95209100Y-61724800D03*
%TD*%
D14*
%TO.C,R32*%
X83820000Y-132080000D03*
X83820000Y-130255000D03*
%TD*%
D22*
%TO.C,U4*%
X125480420Y-59690000D03*
X125480420Y-60960000D03*
X125480420Y-62230000D03*
X125480420Y-63500000D03*
X125480420Y-64770000D03*
X125480420Y-66040000D03*
X125480420Y-67310000D03*
X125480420Y-68580000D03*
X130430420Y-68580000D03*
X130430420Y-67310000D03*
X130430420Y-66040000D03*
X130430420Y-64770000D03*
X130430420Y-63500000D03*
X130430420Y-62230000D03*
X130430420Y-60960000D03*
X130430420Y-59690000D03*
%TD*%
D10*
%TO.C,R16*%
X100912300Y-107696000D03*
X99087300Y-107696000D03*
%TD*%
D12*
%TO.C,Conn23*%
X145465800Y-133350000D03*
X145465800Y-143510000D03*
D13*
X136829800Y-134620000D03*
X136829800Y-137160000D03*
X136829800Y-139700000D03*
X136829800Y-142240000D03*
%TD*%
D22*
%TO.C,U5*%
X116517220Y-60960000D03*
X116517220Y-62230000D03*
X116517220Y-63500000D03*
X116517220Y-64770000D03*
X116517220Y-66040000D03*
X116517220Y-67310000D03*
X116517220Y-68580000D03*
X121467220Y-68580000D03*
X121467220Y-67310000D03*
X121467220Y-66040000D03*
X121467220Y-64770000D03*
X121467220Y-63500000D03*
X121467220Y-62230000D03*
X121467220Y-60960000D03*
%TD*%
D13*
%TO.C,Conn18*%
X107950000Y-50800000D03*
X105410000Y-50800000D03*
X102870000Y-50800000D03*
%TD*%
D23*
%TO.C,D3*%
X107950000Y-137922000D03*
X106200000Y-137922000D03*
%TD*%
D21*
%TO.C,SW9*%
X88009100Y-112064800D03*
X95209100Y-112064800D03*
X88009100Y-115064800D03*
X95209100Y-115064800D03*
%TD*%
D14*
%TO.C,R27*%
X83820000Y-63523500D03*
X83820000Y-61698500D03*
%TD*%
D12*
%TO.C,Conn6*%
X70608000Y-100840000D03*
X70612000Y-96012000D03*
D13*
X79248000Y-99695000D03*
X79248000Y-97155000D03*
%TD*%
D11*
%TO.C,D6*%
X103452300Y-74599800D03*
X103452300Y-76349800D03*
%TD*%
%TO.C,D19*%
X83820000Y-112014000D03*
X83820000Y-113764000D03*
%TD*%
D12*
%TO.C,Conn3*%
X70604000Y-66550000D03*
X70608000Y-61722000D03*
D13*
X79244000Y-65405000D03*
X79244000Y-62865000D03*
%TD*%
D14*
%TO.C,R28*%
X83820000Y-97818000D03*
X83820000Y-95993000D03*
%TD*%
D11*
%TO.C,D11*%
X103452300Y-112699800D03*
X103452300Y-114449800D03*
%TD*%
D12*
%TO.C,Conn10*%
X70608000Y-157990000D03*
X70612000Y-153162000D03*
D13*
X79248000Y-156845000D03*
X79248000Y-154305000D03*
%TD*%
D21*
%TO.C,SW4*%
X88009100Y-73964800D03*
X95209100Y-73964800D03*
X88009100Y-76964800D03*
X95209100Y-76964800D03*
%TD*%
D12*
%TO.C,Conn25*%
X145465800Y-69850000D03*
X145465800Y-77470000D03*
D13*
X136829800Y-71120000D03*
X136829800Y-73660000D03*
X136829800Y-76200000D03*
%TD*%
D21*
%TO.C,SW11*%
X88009100Y-127304800D03*
X95209100Y-127304800D03*
X88009100Y-130304800D03*
X95209100Y-130304800D03*
%TD*%
D11*
%TO.C,D8*%
X103452300Y-89839800D03*
X103452300Y-91589800D03*
%TD*%
D24*
%TO.C,SW1*%
X84709000Y-40640000D03*
X76509000Y-40640000D03*
D25*
X82609000Y-40640000D03*
D26*
X80609000Y-40640000D03*
X78609000Y-40640000D03*
%TD*%
D12*
%TO.C,Conn26*%
X145415000Y-149860000D03*
X145415000Y-157480000D03*
D13*
X136779000Y-151130000D03*
X136779000Y-153670000D03*
X136779000Y-156210000D03*
%TD*%
D10*
%TO.C,R3*%
X79248000Y-45720000D03*
X77423000Y-45720000D03*
%TD*%
%TO.C,R20*%
X100912300Y-111785400D03*
X99087300Y-111785400D03*
%TD*%
D21*
%TO.C,SW7*%
X88012300Y-96824800D03*
X95212300Y-96824800D03*
X88012300Y-99824800D03*
X95212300Y-99824800D03*
%TD*%
D10*
%TO.C,R14*%
X100912300Y-88925400D03*
X99087300Y-88925400D03*
%TD*%
D12*
%TO.C,Conn9*%
X70608000Y-135130000D03*
X70612000Y-130302000D03*
D13*
X79248000Y-133985000D03*
X79248000Y-131445000D03*
%TD*%
D10*
%TO.C,R22*%
X100912300Y-130556000D03*
X99087300Y-130556000D03*
%TD*%
D27*
%TO.C,C8*%
X113284000Y-137337800D03*
X111559000Y-137337800D03*
%TD*%
D10*
%TO.C,R17*%
X100912300Y-115316000D03*
X99087300Y-115316000D03*
%TD*%
D16*
%TO.C,V1*%
X146066837Y-171390631D03*
%TD*%
D11*
%TO.C,D4*%
X103452300Y-59359800D03*
X103452300Y-61109800D03*
%TD*%
D10*
%TO.C,R9*%
X100916100Y-73685400D03*
X99091100Y-73685400D03*
%TD*%
D11*
%TO.C,D18*%
X83820000Y-77724000D03*
X83820000Y-79474000D03*
%TD*%
D14*
%TO.C,R31*%
X83820000Y-120650000D03*
X83820000Y-118825000D03*
%TD*%
D17*
%TO.C,D2*%
X102089000Y-133604000D03*
X103839000Y-133604000D03*
%TD*%
D14*
%TO.C,R25*%
X83820000Y-51936000D03*
X83820000Y-50111000D03*
%TD*%
D17*
%TO.C,D22*%
X67459800Y-162306000D03*
X69209800Y-162306000D03*
%TD*%
D21*
%TO.C,SW3*%
X88009100Y-66344800D03*
X95209100Y-66344800D03*
X88009100Y-69344800D03*
X95209100Y-69344800D03*
%TD*%
D10*
%TO.C,R7*%
X100912300Y-58445400D03*
X99087300Y-58445400D03*
%TD*%
D21*
%TO.C,SW5*%
X88009100Y-81584800D03*
X95209100Y-81584800D03*
X88009100Y-84584800D03*
X95209100Y-84584800D03*
%TD*%
D12*
%TO.C,Conn21*%
X145465800Y-100330000D03*
X145465800Y-110490000D03*
D13*
X136829800Y-101600000D03*
X136829800Y-104140000D03*
X136829800Y-106680000D03*
X136829800Y-109220000D03*
%TD*%
D11*
%TO.C,D16*%
X83820000Y-66322000D03*
X83820000Y-68072000D03*
%TD*%
D28*
%TO.C,J1*%
X121030000Y-157990000D03*
X122300000Y-155450000D03*
X123570000Y-157990000D03*
X124840000Y-155450000D03*
X126110000Y-157990000D03*
X127380000Y-155450000D03*
X128650000Y-157990000D03*
X129920000Y-155450000D03*
D29*
X119150000Y-169420000D03*
X121690000Y-167630000D03*
X129260000Y-169420000D03*
X131800000Y-167630000D03*
D30*
X119760000Y-164340000D03*
X131190000Y-164340000D03*
D31*
X117600000Y-161290000D03*
X133350000Y-161290000D03*
%TD*%
D32*
%TO.C,R2*%
X102089000Y-137922000D03*
X103914000Y-137922000D03*
%TD*%
D11*
%TO.C,D9*%
X103452300Y-97459800D03*
X103452300Y-99209800D03*
%TD*%
D22*
%TO.C,U3*%
X107243220Y-59817000D03*
X107243220Y-61087000D03*
X107243220Y-62357000D03*
X107243220Y-63627000D03*
X107243220Y-64897000D03*
X107243220Y-66167000D03*
X107243220Y-67437000D03*
X107243220Y-68707000D03*
X112193220Y-68707000D03*
X112193220Y-67437000D03*
X112193220Y-66167000D03*
X112193220Y-64897000D03*
X112193220Y-63627000D03*
X112193220Y-62357000D03*
X112193220Y-61087000D03*
X112193220Y-59817000D03*
%TD*%
D12*
%TO.C,Conn24*%
X145465800Y-55880000D03*
X145465800Y-63500000D03*
D13*
X136829800Y-57150000D03*
X136829800Y-59690000D03*
X136829800Y-62230000D03*
%TD*%
D14*
%TO.C,R30*%
X83820000Y-109220000D03*
X83820000Y-107395000D03*
%TD*%
D10*
%TO.C,R12*%
X100888800Y-100076000D03*
X99063800Y-100076000D03*
%TD*%
D12*
%TO.C,Conn2*%
X70608000Y-55118000D03*
X70612000Y-50290000D03*
D13*
X79248000Y-53973000D03*
X79248000Y-51433000D03*
%TD*%
D12*
%TO.C,Conn7*%
X70608000Y-112270000D03*
X70612000Y-107442000D03*
D13*
X79248000Y-111125000D03*
X79248000Y-108585000D03*
%TD*%
D12*
%TO.C,Conn11*%
X70612000Y-146558000D03*
X70616000Y-141730000D03*
D13*
X79252000Y-145413000D03*
X79252000Y-142873000D03*
%TD*%
D33*
%TO.C,Conn1*%
X101473000Y-157226000D03*
X109347000Y-157226000D03*
%TD*%
D21*
%TO.C,SW6*%
X88009100Y-89204800D03*
X95209100Y-89204800D03*
X88009100Y-92204800D03*
X95209100Y-92204800D03*
%TD*%
D10*
%TO.C,R21*%
X100912300Y-119405400D03*
X99087300Y-119405400D03*
%TD*%
D21*
%TO.C,SW8*%
X88012300Y-104438800D03*
X95212300Y-104438800D03*
X88012300Y-107438800D03*
X95212300Y-107438800D03*
%TD*%
D11*
%TO.C,D23*%
X83820000Y-54744000D03*
X83820000Y-56494000D03*
%TD*%
D10*
%TO.C,R23*%
X100912300Y-127025400D03*
X99087300Y-127025400D03*
%TD*%
D34*
%TO.C,Q1*%
X74265000Y-164780000D03*
X74265000Y-162880000D03*
X72390000Y-163830000D03*
%TD*%
D12*
%TO.C,Conn8*%
X70608000Y-123700000D03*
X70612000Y-118872000D03*
D13*
X79248000Y-122555000D03*
X79248000Y-120015000D03*
%TD*%
D12*
%TO.C,Conn20*%
X145465800Y-83820000D03*
X145465800Y-93980000D03*
D13*
X136829800Y-85090000D03*
X136829800Y-87630000D03*
X136829800Y-90170000D03*
X136829800Y-92710000D03*
%TD*%
%TO.C,Conn12*%
X90170000Y-44196000D03*
X92710000Y-44196000D03*
X95250000Y-44196000D03*
%TD*%
D18*
%TO.C,C5*%
X94742000Y-146558000D03*
X94742000Y-148283000D03*
%TD*%
D12*
%TO.C,Conn5*%
X70608000Y-89410000D03*
X70612000Y-84582000D03*
D13*
X79248000Y-88265000D03*
X79248000Y-85725000D03*
%TD*%
D21*
%TO.C,SW10*%
X88009100Y-119684800D03*
X95209100Y-119684800D03*
X88009100Y-122684800D03*
X95209100Y-122684800D03*
%TD*%
M02*
