M48
; DRILL file {KiCad 7.0.7} date Mon Nov 13 00:05:43 2023
; FORMAT={-:-/ absolute / inch / decimal}
; #@! TF.CreationDate,2023-11-13T00:05:43-06:00
; #@! TF.GenerationSoftware,Kicad,Pcbnew,7.0.7
; #@! TF.FileFunction,Plated,1,2,PTH
FMAT,2
INCH
; #@! TA.AperFunction,Plated,PTH,ViaDrill
T1C0.0157
; #@! TA.AperFunction,Plated,PTH,ComponentDrill
T2C0.0276
; #@! TA.AperFunction,Plated,PTH,ComponentDrill
T3C0.0300
; #@! TA.AperFunction,Plated,PTH,ComponentDrill
T4C0.0315
; #@! TA.AperFunction,Plated,PTH,ComponentDrill
T5C0.0350
; #@! TA.AperFunction,Plated,PTH,ComponentDrill
T6C0.0354
; #@! TA.AperFunction,Plated,PTH,ComponentDrill
T7C0.0402
; #@! TA.AperFunction,Plated,PTH,ComponentDrill
T8C0.0591
; #@! TA.AperFunction,Plated,PTH,ComponentDrill
T9C0.0630
; #@! TA.AperFunction,Plated,PTH,ComponentDrill
T10C0.0787
; #@! TA.AperFunction,Plated,PTH,ComponentDrill
T11C0.1280
%
G90
G05
T1
X2.985Y-6.413
X3.195Y-5.49
X3.4729Y-3.572
X3.4729Y-3.872
X3.4729Y-4.172
X3.4729Y-4.472
X3.4729Y-4.772
X3.4729Y-5.072
X3.83Y-2.445
X3.83Y-2.74
X3.83Y-2.895
X3.83Y-3.195
X4.095Y-2.52
X4.2Y-3.66
X4.205Y-3.86
X4.21Y-4.625
X4.2422Y-2.31
X4.2815Y-2.31
X4.29Y-2.5069
X4.29Y-2.5463
X4.29Y-2.5856
X4.29Y-2.625
X4.29Y-2.705
X4.3209Y-2.31
X4.352Y-2.8007
X4.3602Y-2.31
X4.3913Y-2.8006
X4.4307Y-2.8007
X4.47Y-2.8
X4.61Y-4.295
X4.63Y-2.355
X4.655Y-2.7
X4.6672Y-2.5
X4.6672Y-2.65
X4.7411Y-2.8265
X4.8228Y-2.74
X4.85Y-5.615
X4.85Y-5.71
X4.8622Y-2.74
X5.015Y-2.55
X5.03Y-2.65
X5.0586Y-2.6036
X5.06Y-2.4022
X5.091Y-2.744
T2
X4.4965Y-4.6713
X4.4965Y-4.75
X4.5752Y-4.6713
X4.5752Y-4.75
X4.6539Y-4.6713
X4.6539Y-4.75
T3
X5.385Y-6.15
X5.387Y-2.45
X5.387Y-3.0
T4
X3.0948Y-1.6
X3.1736Y-1.6
X3.2523Y-1.6
X4.4Y-2.9606
X4.4Y-3.0606
X4.4Y-3.1606
X4.4Y-3.2606
X4.4Y-3.3606
X4.4Y-3.4606
X4.4Y-3.5606
X4.4Y-3.6606
X4.4Y-3.7606
X4.4Y-3.8606
X4.4Y-3.9606
X4.4Y-4.0606
X4.4Y-4.1606
X4.4Y-4.2606
X4.4Y-4.3606
X4.4Y-4.4606
X4.4Y-4.5606
X4.4Y-4.6606
X4.4Y-4.7606
X4.4Y-4.8606
X4.4Y-4.9606
X4.4Y-5.0606
X4.4Y-5.1606
X4.4Y-5.2606
X5.0Y-2.9606
X5.0Y-3.0606
X5.0Y-3.1606
X5.0Y-3.2606
X5.0Y-3.3606
X5.0Y-3.4606
X5.0Y-3.5606
X5.0Y-3.6606
X5.0Y-3.7606
X5.0Y-3.8606
X5.0Y-3.9606
X5.0Y-4.0606
X5.0Y-4.1606
X5.0Y-4.2606
X5.0Y-4.3606
X5.0Y-4.4606
X5.0Y-4.5606
X5.0Y-4.6606
X5.0Y-4.7606
X5.0Y-4.8606
X5.0Y-4.9606
X5.0Y-5.0606
X5.0Y-5.1606
X5.0Y-5.2606
T5
X3.8821Y-5.77
X3.8821Y-5.87
X3.8821Y-5.97
X4.63Y-5.49
X4.63Y-5.59
X4.63Y-5.69
T6
X3.1198Y-2.475
X3.1198Y-2.575
X3.12Y-2.0249
X3.12Y-2.1249
X3.12Y-2.925
X3.12Y-3.025
X3.12Y-3.375
X3.12Y-3.475
X3.12Y-3.825
X3.12Y-3.925
X3.12Y-4.275
X3.12Y-4.375
X3.12Y-4.725
X3.12Y-4.825
X3.12Y-5.175
X3.12Y-5.275
X3.12Y-6.075
X3.12Y-6.175
X3.1202Y-5.6249
X3.1202Y-5.7249
X3.55Y-1.74
X3.55Y-2.0
X3.65Y-1.74
X3.65Y-2.0
X3.75Y-1.74
X3.75Y-2.0
X4.05Y-1.74
X4.05Y-2.0
X4.15Y-1.74
X4.15Y-2.0
X4.25Y-1.74
X4.25Y-2.0
X4.55Y-1.74
X4.55Y-2.0
X4.65Y-1.74
X4.65Y-2.0
X4.75Y-1.74
X4.75Y-2.0
X4.765Y-6.2201
X4.815Y-6.1201
X4.865Y-6.2201
X4.915Y-6.1201
X4.965Y-6.2201
X5.015Y-6.1201
X5.05Y-1.74
X5.05Y-2.0
X5.065Y-6.2201
X5.115Y-6.1201
X5.15Y-1.74
X5.15Y-2.0
X5.25Y-1.74
X5.25Y-2.0
X5.385Y-5.95
X5.385Y-6.05
X5.387Y-2.25
X5.387Y-2.35
X5.387Y-2.8
X5.387Y-2.9
X5.387Y-3.35
X5.387Y-3.45
X5.387Y-3.55
X5.387Y-3.65
X5.387Y-4.0
X5.387Y-4.1
X5.387Y-4.2
X5.387Y-4.3
X5.387Y-4.65
X5.387Y-4.75
X5.387Y-4.85
X5.387Y-4.95
X5.387Y-5.3
X5.387Y-5.4
X5.387Y-5.5
X5.387Y-5.6
T7
X4.6909Y-6.6701
X4.7909Y-6.5996
X5.089Y-6.6701
X5.189Y-6.5996
T8
X3.0122Y-1.6
X3.335Y-1.6
T9
X4.6299Y-6.35
X5.25Y-6.35
T11
X4.715Y-6.4701
X5.165Y-6.4701
T10
G00X3.9537Y-6.19
M15
G01X4.0363Y-6.19
M16
G05
G00X4.2637Y-6.19
M15
G01X4.3463Y-6.19
M16
G05
T0
M30
